%TF.GenerationSoftware,KiCad,Pcbnew,(5.1.4)-1*%
%TF.CreationDate,2020-11-06T00:10:57+08:00*%
%TF.ProjectId,MCU,4d43552e-6b69-4636-9164-5f7063625858,rev?*%
%TF.SameCoordinates,Original*%
%TF.FileFunction,Legend,Top*%
%TF.FilePolarity,Positive*%
%FSLAX46Y46*%
G04 Gerber Fmt 4.6, Leading zero omitted, Abs format (unit mm)*
G04 Created by KiCad (PCBNEW (5.1.4)-1) date 2020-11-06 00:10:57*
%MOMM*%
%LPD*%
G04 APERTURE LIST*
%ADD10C,0.150000*%
%ADD11C,0.250000*%
%ADD12C,0.120000*%
G04 APERTURE END LIST*
D10*
X31226071Y-109902380D02*
X31416547Y-109902380D01*
X31511785Y-109950000D01*
X31607023Y-110045238D01*
X31654642Y-110235714D01*
X31654642Y-110569047D01*
X31607023Y-110759523D01*
X31511785Y-110854761D01*
X31416547Y-110902380D01*
X31226071Y-110902380D01*
X31130833Y-110854761D01*
X31035595Y-110759523D01*
X30987976Y-110569047D01*
X30987976Y-110235714D01*
X31035595Y-110045238D01*
X31130833Y-109950000D01*
X31226071Y-109902380D01*
X32083214Y-110902380D02*
X32083214Y-109902380D01*
X32464166Y-109902380D01*
X32559404Y-109950000D01*
X32607023Y-109997619D01*
X32654642Y-110092857D01*
X32654642Y-110235714D01*
X32607023Y-110330952D01*
X32559404Y-110378571D01*
X32464166Y-110426190D01*
X32083214Y-110426190D01*
X33035595Y-110616666D02*
X33511785Y-110616666D01*
X32940357Y-110902380D02*
X33273690Y-109902380D01*
X33607023Y-110902380D01*
X34464166Y-110902380D02*
X33892738Y-110902380D01*
X34178452Y-110902380D02*
X34178452Y-109902380D01*
X34083214Y-110045238D01*
X33987976Y-110140476D01*
X33892738Y-110188095D01*
X35083214Y-109902380D02*
X35178452Y-109902380D01*
X35273690Y-109950000D01*
X35321309Y-109997619D01*
X35368928Y-110092857D01*
X35416547Y-110283333D01*
X35416547Y-110521428D01*
X35368928Y-110711904D01*
X35321309Y-110807142D01*
X35273690Y-110854761D01*
X35178452Y-110902380D01*
X35083214Y-110902380D01*
X34987976Y-110854761D01*
X34940357Y-110807142D01*
X34892738Y-110711904D01*
X34845119Y-110521428D01*
X34845119Y-110283333D01*
X34892738Y-110092857D01*
X34940357Y-109997619D01*
X34987976Y-109950000D01*
X35083214Y-109902380D01*
X36035595Y-109902380D02*
X36130833Y-109902380D01*
X36226071Y-109950000D01*
X36273690Y-109997619D01*
X36321309Y-110092857D01*
X36368928Y-110283333D01*
X36368928Y-110521428D01*
X36321309Y-110711904D01*
X36273690Y-110807142D01*
X36226071Y-110854761D01*
X36130833Y-110902380D01*
X36035595Y-110902380D01*
X35940357Y-110854761D01*
X35892738Y-110807142D01*
X35845119Y-110711904D01*
X35797500Y-110521428D01*
X35797500Y-110283333D01*
X35845119Y-110092857D01*
X35892738Y-109997619D01*
X35940357Y-109950000D01*
X36035595Y-109902380D01*
X36987976Y-109902380D02*
X37083214Y-109902380D01*
X37178452Y-109950000D01*
X37226071Y-109997619D01*
X37273690Y-110092857D01*
X37321309Y-110283333D01*
X37321309Y-110521428D01*
X37273690Y-110711904D01*
X37226071Y-110807142D01*
X37178452Y-110854761D01*
X37083214Y-110902380D01*
X36987976Y-110902380D01*
X36892738Y-110854761D01*
X36845119Y-110807142D01*
X36797500Y-110711904D01*
X36749880Y-110521428D01*
X36749880Y-110283333D01*
X36797500Y-110092857D01*
X36845119Y-109997619D01*
X36892738Y-109950000D01*
X36987976Y-109902380D01*
X39083214Y-110807142D02*
X39035595Y-110854761D01*
X38892738Y-110902380D01*
X38797500Y-110902380D01*
X38654642Y-110854761D01*
X38559404Y-110759523D01*
X38511785Y-110664285D01*
X38464166Y-110473809D01*
X38464166Y-110330952D01*
X38511785Y-110140476D01*
X38559404Y-110045238D01*
X38654642Y-109950000D01*
X38797500Y-109902380D01*
X38892738Y-109902380D01*
X39035595Y-109950000D01*
X39083214Y-109997619D01*
X39654642Y-110902380D02*
X39559404Y-110854761D01*
X39511785Y-110807142D01*
X39464166Y-110711904D01*
X39464166Y-110426190D01*
X39511785Y-110330952D01*
X39559404Y-110283333D01*
X39654642Y-110235714D01*
X39797500Y-110235714D01*
X39892738Y-110283333D01*
X39940357Y-110330952D01*
X39987976Y-110426190D01*
X39987976Y-110711904D01*
X39940357Y-110807142D01*
X39892738Y-110854761D01*
X39797500Y-110902380D01*
X39654642Y-110902380D01*
X40416547Y-110235714D02*
X40416547Y-110902380D01*
X40416547Y-110330952D02*
X40464166Y-110283333D01*
X40559404Y-110235714D01*
X40702261Y-110235714D01*
X40797500Y-110283333D01*
X40845119Y-110378571D01*
X40845119Y-110902380D01*
X41178452Y-110235714D02*
X41559404Y-110235714D01*
X41321309Y-109902380D02*
X41321309Y-110759523D01*
X41368928Y-110854761D01*
X41464166Y-110902380D01*
X41559404Y-110902380D01*
X41892738Y-110902380D02*
X41892738Y-110235714D01*
X41892738Y-110426190D02*
X41940357Y-110330952D01*
X41987976Y-110283333D01*
X42083214Y-110235714D01*
X42178452Y-110235714D01*
X42654642Y-110902380D02*
X42559404Y-110854761D01*
X42511785Y-110807142D01*
X42464166Y-110711904D01*
X42464166Y-110426190D01*
X42511785Y-110330952D01*
X42559404Y-110283333D01*
X42654642Y-110235714D01*
X42797500Y-110235714D01*
X42892738Y-110283333D01*
X42940357Y-110330952D01*
X42987976Y-110426190D01*
X42987976Y-110711904D01*
X42940357Y-110807142D01*
X42892738Y-110854761D01*
X42797500Y-110902380D01*
X42654642Y-110902380D01*
X43559404Y-110902380D02*
X43464166Y-110854761D01*
X43416547Y-110759523D01*
X43416547Y-109902380D01*
X45035595Y-110378571D02*
X45178452Y-110426190D01*
X45226071Y-110473809D01*
X45273690Y-110569047D01*
X45273690Y-110711904D01*
X45226071Y-110807142D01*
X45178452Y-110854761D01*
X45083214Y-110902380D01*
X44702261Y-110902380D01*
X44702261Y-109902380D01*
X45035595Y-109902380D01*
X45130833Y-109950000D01*
X45178452Y-109997619D01*
X45226071Y-110092857D01*
X45226071Y-110188095D01*
X45178452Y-110283333D01*
X45130833Y-110330952D01*
X45035595Y-110378571D01*
X44702261Y-110378571D01*
X45845119Y-110902380D02*
X45749880Y-110854761D01*
X45702261Y-110807142D01*
X45654642Y-110711904D01*
X45654642Y-110426190D01*
X45702261Y-110330952D01*
X45749880Y-110283333D01*
X45845119Y-110235714D01*
X45987976Y-110235714D01*
X46083214Y-110283333D01*
X46130833Y-110330952D01*
X46178452Y-110426190D01*
X46178452Y-110711904D01*
X46130833Y-110807142D01*
X46083214Y-110854761D01*
X45987976Y-110902380D01*
X45845119Y-110902380D01*
X47035595Y-110902380D02*
X47035595Y-110378571D01*
X46987976Y-110283333D01*
X46892738Y-110235714D01*
X46702261Y-110235714D01*
X46607023Y-110283333D01*
X47035595Y-110854761D02*
X46940357Y-110902380D01*
X46702261Y-110902380D01*
X46607023Y-110854761D01*
X46559404Y-110759523D01*
X46559404Y-110664285D01*
X46607023Y-110569047D01*
X46702261Y-110521428D01*
X46940357Y-110521428D01*
X47035595Y-110473809D01*
X47511785Y-110902380D02*
X47511785Y-110235714D01*
X47511785Y-110426190D02*
X47559404Y-110330952D01*
X47607023Y-110283333D01*
X47702261Y-110235714D01*
X47797500Y-110235714D01*
X48559404Y-110902380D02*
X48559404Y-109902380D01*
X48559404Y-110854761D02*
X48464166Y-110902380D01*
X48273690Y-110902380D01*
X48178452Y-110854761D01*
X48130833Y-110807142D01*
X48083214Y-110711904D01*
X48083214Y-110426190D01*
X48130833Y-110330952D01*
X48178452Y-110283333D01*
X48273690Y-110235714D01*
X48464166Y-110235714D01*
X48559404Y-110283333D01*
X50368928Y-110902380D02*
X50035595Y-110426190D01*
X49797500Y-110902380D02*
X49797500Y-109902380D01*
X50178452Y-109902380D01*
X50273690Y-109950000D01*
X50321309Y-109997619D01*
X50368928Y-110092857D01*
X50368928Y-110235714D01*
X50321309Y-110330952D01*
X50273690Y-110378571D01*
X50178452Y-110426190D01*
X49797500Y-110426190D01*
X51178452Y-110854761D02*
X51083214Y-110902380D01*
X50892738Y-110902380D01*
X50797500Y-110854761D01*
X50749880Y-110759523D01*
X50749880Y-110378571D01*
X50797500Y-110283333D01*
X50892738Y-110235714D01*
X51083214Y-110235714D01*
X51178452Y-110283333D01*
X51226071Y-110378571D01*
X51226071Y-110473809D01*
X50749880Y-110569047D01*
X51559404Y-110235714D02*
X51797500Y-110902380D01*
X52035595Y-110235714D01*
X53368928Y-109902380D02*
X53464166Y-109902380D01*
X53559404Y-109950000D01*
X53607023Y-109997619D01*
X53654642Y-110092857D01*
X53702261Y-110283333D01*
X53702261Y-110521428D01*
X53654642Y-110711904D01*
X53607023Y-110807142D01*
X53559404Y-110854761D01*
X53464166Y-110902380D01*
X53368928Y-110902380D01*
X53273690Y-110854761D01*
X53226071Y-110807142D01*
X53178452Y-110711904D01*
X53130833Y-110521428D01*
X53130833Y-110283333D01*
X53178452Y-110092857D01*
X53226071Y-109997619D01*
X53273690Y-109950000D01*
X53368928Y-109902380D01*
X54130833Y-110807142D02*
X54178452Y-110854761D01*
X54130833Y-110902380D01*
X54083214Y-110854761D01*
X54130833Y-110807142D01*
X54130833Y-110902380D01*
X55130833Y-110902380D02*
X54559404Y-110902380D01*
X54845119Y-110902380D02*
X54845119Y-109902380D01*
X54749880Y-110045238D01*
X54654642Y-110140476D01*
X54559404Y-110188095D01*
X31368928Y-112028571D02*
X31511785Y-112076190D01*
X31559404Y-112123809D01*
X31607023Y-112219047D01*
X31607023Y-112361904D01*
X31559404Y-112457142D01*
X31511785Y-112504761D01*
X31416547Y-112552380D01*
X31035595Y-112552380D01*
X31035595Y-111552380D01*
X31368928Y-111552380D01*
X31464166Y-111600000D01*
X31511785Y-111647619D01*
X31559404Y-111742857D01*
X31559404Y-111838095D01*
X31511785Y-111933333D01*
X31464166Y-111980952D01*
X31368928Y-112028571D01*
X31035595Y-112028571D01*
X31940357Y-111885714D02*
X32178452Y-112552380D01*
X32416547Y-111885714D02*
X32178452Y-112552380D01*
X32083214Y-112790476D01*
X32035595Y-112838095D01*
X31940357Y-112885714D01*
X34035595Y-112552380D02*
X33559404Y-112552380D01*
X33559404Y-111552380D01*
X34797500Y-111885714D02*
X34797500Y-112552380D01*
X34368928Y-111885714D02*
X34368928Y-112409523D01*
X34416547Y-112504761D01*
X34511785Y-112552380D01*
X34654642Y-112552380D01*
X34749880Y-112504761D01*
X34797500Y-112457142D01*
X35321309Y-112504761D02*
X35321309Y-112552380D01*
X35273690Y-112647619D01*
X35226071Y-112695238D01*
X36416547Y-111552380D02*
X37083214Y-111552380D01*
X36416547Y-112552380D01*
X37083214Y-112552380D01*
X37845119Y-112504761D02*
X37749880Y-112552380D01*
X37559404Y-112552380D01*
X37464166Y-112504761D01*
X37416547Y-112409523D01*
X37416547Y-112028571D01*
X37464166Y-111933333D01*
X37559404Y-111885714D01*
X37749880Y-111885714D01*
X37845119Y-111933333D01*
X37892738Y-112028571D01*
X37892738Y-112123809D01*
X37416547Y-112219047D01*
X38321309Y-111885714D02*
X38321309Y-112552380D01*
X38321309Y-111980952D02*
X38368928Y-111933333D01*
X38464166Y-111885714D01*
X38607023Y-111885714D01*
X38702261Y-111933333D01*
X38749880Y-112028571D01*
X38749880Y-112552380D01*
X39226071Y-112552380D02*
X39226071Y-111885714D01*
X39226071Y-111552380D02*
X39178452Y-111600000D01*
X39226071Y-111647619D01*
X39273690Y-111600000D01*
X39226071Y-111552380D01*
X39226071Y-111647619D01*
X39702261Y-111885714D02*
X39702261Y-112552380D01*
X39702261Y-111980952D02*
X39749880Y-111933333D01*
X39845119Y-111885714D01*
X39987976Y-111885714D01*
X40083214Y-111933333D01*
X40130833Y-112028571D01*
X40130833Y-112552380D01*
X41035595Y-111885714D02*
X41035595Y-112695238D01*
X40987976Y-112790476D01*
X40940357Y-112838095D01*
X40845119Y-112885714D01*
X40702261Y-112885714D01*
X40607023Y-112838095D01*
X41035595Y-112504761D02*
X40940357Y-112552380D01*
X40749880Y-112552380D01*
X40654642Y-112504761D01*
X40607023Y-112457142D01*
X40559404Y-112361904D01*
X40559404Y-112076190D01*
X40607023Y-111980952D01*
X40654642Y-111933333D01*
X40749880Y-111885714D01*
X40940357Y-111885714D01*
X41035595Y-111933333D01*
X42559404Y-112933333D02*
X42511785Y-112885714D01*
X42416547Y-112742857D01*
X42368928Y-112647619D01*
X42321309Y-112504761D01*
X42273690Y-112266666D01*
X42273690Y-112076190D01*
X42321309Y-111838095D01*
X42368928Y-111695238D01*
X42416547Y-111600000D01*
X42511785Y-111457142D01*
X42559404Y-111409523D01*
X43273690Y-112028571D02*
X43416547Y-112076190D01*
X43464166Y-112123809D01*
X43511785Y-112219047D01*
X43511785Y-112361904D01*
X43464166Y-112457142D01*
X43416547Y-112504761D01*
X43321309Y-112552380D01*
X42940357Y-112552380D01*
X42940357Y-111552380D01*
X43273690Y-111552380D01*
X43368928Y-111600000D01*
X43416547Y-111647619D01*
X43464166Y-111742857D01*
X43464166Y-111838095D01*
X43416547Y-111933333D01*
X43368928Y-111980952D01*
X43273690Y-112028571D01*
X42940357Y-112028571D01*
X43940357Y-112552380D02*
X43940357Y-111552380D01*
X44845119Y-111885714D02*
X44845119Y-112552380D01*
X44607023Y-111504761D02*
X44368928Y-112219047D01*
X44987976Y-112219047D01*
X45273690Y-111552380D02*
X45511785Y-112552380D01*
X45702261Y-111838095D01*
X45892738Y-112552380D01*
X46130833Y-111552380D01*
X46702261Y-111552380D02*
X46892738Y-111552380D01*
X46987976Y-111600000D01*
X47083214Y-111695238D01*
X47130833Y-111885714D01*
X47130833Y-112219047D01*
X47083214Y-112409523D01*
X46987976Y-112504761D01*
X46892738Y-112552380D01*
X46702261Y-112552380D01*
X46607023Y-112504761D01*
X46511785Y-112409523D01*
X46464166Y-112219047D01*
X46464166Y-111885714D01*
X46511785Y-111695238D01*
X46607023Y-111600000D01*
X46702261Y-111552380D01*
X47559404Y-112552380D02*
X47559404Y-111552380D01*
X47940357Y-111552380D01*
X48035595Y-111600000D01*
X48083214Y-111647619D01*
X48130833Y-111742857D01*
X48130833Y-111885714D01*
X48083214Y-111980952D01*
X48035595Y-112028571D01*
X47940357Y-112076190D01*
X47559404Y-112076190D01*
X48464166Y-112933333D02*
X48511785Y-112885714D01*
X48607023Y-112742857D01*
X48654642Y-112647619D01*
X48702261Y-112504761D01*
X48749880Y-112266666D01*
X48749880Y-112076190D01*
X48702261Y-111838095D01*
X48654642Y-111695238D01*
X48607023Y-111600000D01*
X48511785Y-111457142D01*
X48464166Y-111409523D01*
X31368928Y-113678571D02*
X31035595Y-113678571D01*
X31035595Y-114202380D02*
X31035595Y-113202380D01*
X31511785Y-113202380D01*
X32273690Y-114154761D02*
X32178452Y-114202380D01*
X31987976Y-114202380D01*
X31892738Y-114154761D01*
X31845119Y-114059523D01*
X31845119Y-113678571D01*
X31892738Y-113583333D01*
X31987976Y-113535714D01*
X32178452Y-113535714D01*
X32273690Y-113583333D01*
X32321309Y-113678571D01*
X32321309Y-113773809D01*
X31845119Y-113869047D01*
X32749880Y-114202380D02*
X32749880Y-113202380D01*
X32749880Y-113583333D02*
X32845119Y-113535714D01*
X33035595Y-113535714D01*
X33130833Y-113583333D01*
X33178452Y-113630952D01*
X33226071Y-113726190D01*
X33226071Y-114011904D01*
X33178452Y-114107142D01*
X33130833Y-114154761D01*
X33035595Y-114202380D01*
X32845119Y-114202380D01*
X32749880Y-114154761D01*
X33654642Y-114107142D02*
X33702261Y-114154761D01*
X33654642Y-114202380D01*
X33607023Y-114154761D01*
X33654642Y-114107142D01*
X33654642Y-114202380D01*
X35416547Y-114202380D02*
X34845119Y-114202380D01*
X35130833Y-114202380D02*
X35130833Y-113202380D01*
X35035595Y-113345238D01*
X34940357Y-113440476D01*
X34845119Y-113488095D01*
X36273690Y-113535714D02*
X36273690Y-114202380D01*
X36035595Y-113154761D02*
X35797500Y-113869047D01*
X36416547Y-113869047D01*
X37511785Y-113297619D02*
X37559404Y-113250000D01*
X37654642Y-113202380D01*
X37892738Y-113202380D01*
X37987976Y-113250000D01*
X38035595Y-113297619D01*
X38083214Y-113392857D01*
X38083214Y-113488095D01*
X38035595Y-113630952D01*
X37464166Y-114202380D01*
X38083214Y-114202380D01*
X38702261Y-113202380D02*
X38797500Y-113202380D01*
X38892738Y-113250000D01*
X38940357Y-113297619D01*
X38987976Y-113392857D01*
X39035595Y-113583333D01*
X39035595Y-113821428D01*
X38987976Y-114011904D01*
X38940357Y-114107142D01*
X38892738Y-114154761D01*
X38797500Y-114202380D01*
X38702261Y-114202380D01*
X38607023Y-114154761D01*
X38559404Y-114107142D01*
X38511785Y-114011904D01*
X38464166Y-113821428D01*
X38464166Y-113583333D01*
X38511785Y-113392857D01*
X38559404Y-113297619D01*
X38607023Y-113250000D01*
X38702261Y-113202380D01*
X39416547Y-113297619D02*
X39464166Y-113250000D01*
X39559404Y-113202380D01*
X39797500Y-113202380D01*
X39892738Y-113250000D01*
X39940357Y-113297619D01*
X39987976Y-113392857D01*
X39987976Y-113488095D01*
X39940357Y-113630952D01*
X39368928Y-114202380D01*
X39987976Y-114202380D01*
X40607023Y-113202380D02*
X40702261Y-113202380D01*
X40797500Y-113250000D01*
X40845119Y-113297619D01*
X40892738Y-113392857D01*
X40940357Y-113583333D01*
X40940357Y-113821428D01*
X40892738Y-114011904D01*
X40845119Y-114107142D01*
X40797500Y-114154761D01*
X40702261Y-114202380D01*
X40607023Y-114202380D01*
X40511785Y-114154761D01*
X40464166Y-114107142D01*
X40416547Y-114011904D01*
X40368928Y-113821428D01*
X40368928Y-113583333D01*
X40416547Y-113392857D01*
X40464166Y-113297619D01*
X40511785Y-113250000D01*
X40607023Y-113202380D01*
X28140476Y-22350000D02*
X28064285Y-22311904D01*
X27950000Y-22311904D01*
X27835714Y-22350000D01*
X27759523Y-22426190D01*
X27721428Y-22502380D01*
X27683333Y-22654761D01*
X27683333Y-22769047D01*
X27721428Y-22921428D01*
X27759523Y-22997619D01*
X27835714Y-23073809D01*
X27950000Y-23111904D01*
X28026190Y-23111904D01*
X28140476Y-23073809D01*
X28178571Y-23035714D01*
X28178571Y-22769047D01*
X28026190Y-22769047D01*
X28521428Y-23111904D02*
X28521428Y-22311904D01*
X28978571Y-23111904D01*
X28978571Y-22311904D01*
X29359523Y-23111904D02*
X29359523Y-22311904D01*
X29550000Y-22311904D01*
X29664285Y-22350000D01*
X29740476Y-22426190D01*
X29778571Y-22502380D01*
X29816666Y-22654761D01*
X29816666Y-22769047D01*
X29778571Y-22921428D01*
X29740476Y-22997619D01*
X29664285Y-23073809D01*
X29550000Y-23111904D01*
X29359523Y-23111904D01*
X27090476Y-29057142D02*
X27700000Y-29057142D01*
X27395238Y-29361904D02*
X27395238Y-28752380D01*
X28500000Y-29361904D02*
X28042857Y-29361904D01*
X28271428Y-29361904D02*
X28271428Y-28561904D01*
X28195238Y-28676190D01*
X28119047Y-28752380D01*
X28042857Y-28790476D01*
X28804761Y-28638095D02*
X28842857Y-28600000D01*
X28919047Y-28561904D01*
X29109523Y-28561904D01*
X29185714Y-28600000D01*
X29223809Y-28638095D01*
X29261904Y-28714285D01*
X29261904Y-28790476D01*
X29223809Y-28904761D01*
X28766666Y-29361904D01*
X29261904Y-29361904D01*
X29490476Y-28561904D02*
X29757142Y-29361904D01*
X30023809Y-28561904D01*
X22090476Y-32452380D02*
X22090476Y-33261904D01*
X22138095Y-33357142D01*
X22185714Y-33404761D01*
X22280952Y-33452380D01*
X22471428Y-33452380D01*
X22566666Y-33404761D01*
X22614285Y-33357142D01*
X22661904Y-33261904D01*
X22661904Y-32452380D01*
X23138095Y-32785714D02*
X23138095Y-33785714D01*
X23138095Y-32833333D02*
X23233333Y-32785714D01*
X23423809Y-32785714D01*
X23519047Y-32833333D01*
X23566666Y-32880952D01*
X23614285Y-32976190D01*
X23614285Y-33261904D01*
X23566666Y-33357142D01*
X23519047Y-33404761D01*
X23423809Y-33452380D01*
X23233333Y-33452380D01*
X23138095Y-33404761D01*
X24042857Y-32785714D02*
X24042857Y-33785714D01*
X24042857Y-32833333D02*
X24138095Y-32785714D01*
X24328571Y-32785714D01*
X24423809Y-32833333D01*
X24471428Y-32880952D01*
X24519047Y-32976190D01*
X24519047Y-33261904D01*
X24471428Y-33357142D01*
X24423809Y-33404761D01*
X24328571Y-33452380D01*
X24138095Y-33452380D01*
X24042857Y-33404761D01*
X25328571Y-33404761D02*
X25233333Y-33452380D01*
X25042857Y-33452380D01*
X24947619Y-33404761D01*
X24900000Y-33309523D01*
X24900000Y-32928571D01*
X24947619Y-32833333D01*
X25042857Y-32785714D01*
X25233333Y-32785714D01*
X25328571Y-32833333D01*
X25376190Y-32928571D01*
X25376190Y-33023809D01*
X24900000Y-33119047D01*
X25804761Y-33452380D02*
X25804761Y-32785714D01*
X25804761Y-32976190D02*
X25852380Y-32880952D01*
X25900000Y-32833333D01*
X25995238Y-32785714D01*
X26090476Y-32785714D01*
X26423809Y-33071428D02*
X27185714Y-33071428D01*
X27804761Y-33452380D02*
X27709523Y-33404761D01*
X27661904Y-33309523D01*
X27661904Y-32452380D01*
X28566666Y-33404761D02*
X28471428Y-33452380D01*
X28280952Y-33452380D01*
X28185714Y-33404761D01*
X28138095Y-33309523D01*
X28138095Y-32928571D01*
X28185714Y-32833333D01*
X28280952Y-32785714D01*
X28471428Y-32785714D01*
X28566666Y-32833333D01*
X28614285Y-32928571D01*
X28614285Y-33023809D01*
X28138095Y-33119047D01*
X28900000Y-32785714D02*
X29280952Y-32785714D01*
X29042857Y-33452380D02*
X29042857Y-32595238D01*
X29090476Y-32500000D01*
X29185714Y-32452380D01*
X29280952Y-32452380D01*
X29471428Y-32785714D02*
X29852380Y-32785714D01*
X29614285Y-32452380D02*
X29614285Y-33309523D01*
X29661904Y-33404761D01*
X29757142Y-33452380D01*
X29852380Y-33452380D01*
D11*
X20400000Y-100700000D02*
X20400000Y-39300000D01*
X129000000Y-100700000D02*
X20400000Y-100700000D01*
X129000000Y-39300000D02*
X129000000Y-100700000D01*
X20400000Y-39300000D02*
X129000000Y-39300000D01*
D10*
X24652380Y-76457142D02*
X24652380Y-75885714D01*
X25652380Y-76171428D02*
X24652380Y-76171428D01*
X25128571Y-75219047D02*
X25128571Y-75552380D01*
X25652380Y-75552380D02*
X24652380Y-75552380D01*
X24652380Y-75076190D01*
X24652380Y-74838095D02*
X24652380Y-74266666D01*
X25652380Y-74552380D02*
X24652380Y-74552380D01*
X25557142Y-73933333D02*
X25604761Y-73885714D01*
X25652380Y-73933333D01*
X25604761Y-73980952D01*
X25557142Y-73933333D01*
X25652380Y-73933333D01*
X25033333Y-73933333D02*
X25080952Y-73885714D01*
X25128571Y-73933333D01*
X25080952Y-73980952D01*
X25033333Y-73933333D01*
X25128571Y-73933333D01*
X24652380Y-72838095D02*
X24652380Y-72266666D01*
X25652380Y-72552380D02*
X24652380Y-72552380D01*
X25652380Y-71933333D02*
X24652380Y-71933333D01*
X25652380Y-71361904D02*
X25080952Y-71790476D01*
X24652380Y-71361904D02*
X25223809Y-71933333D01*
X24652380Y-70742857D02*
X24652380Y-70647619D01*
X24700000Y-70552380D01*
X24747619Y-70504761D01*
X24842857Y-70457142D01*
X25033333Y-70409523D01*
X25271428Y-70409523D01*
X25461904Y-70457142D01*
X25557142Y-70504761D01*
X25604761Y-70552380D01*
X25652380Y-70647619D01*
X25652380Y-70742857D01*
X25604761Y-70838095D01*
X25557142Y-70885714D01*
X25461904Y-70933333D01*
X25271428Y-70980952D01*
X25033333Y-70980952D01*
X24842857Y-70933333D01*
X24747619Y-70885714D01*
X24700000Y-70838095D01*
X24652380Y-70742857D01*
X24985714Y-69552380D02*
X25652380Y-69552380D01*
X24604761Y-69790476D02*
X25319047Y-70028571D01*
X25319047Y-69409523D01*
X24652380Y-68838095D02*
X24652380Y-68742857D01*
X24700000Y-68647619D01*
X24747619Y-68600000D01*
X24842857Y-68552380D01*
X25033333Y-68504761D01*
X25271428Y-68504761D01*
X25461904Y-68552380D01*
X25557142Y-68600000D01*
X25604761Y-68647619D01*
X25652380Y-68742857D01*
X25652380Y-68838095D01*
X25604761Y-68933333D01*
X25557142Y-68980952D01*
X25461904Y-69028571D01*
X25271428Y-69076190D01*
X25033333Y-69076190D01*
X24842857Y-69028571D01*
X24747619Y-68980952D01*
X24700000Y-68933333D01*
X24652380Y-68838095D01*
X25128571Y-67742857D02*
X25128571Y-68076190D01*
X25652380Y-68076190D02*
X24652380Y-68076190D01*
X24652380Y-67600000D01*
X25652380Y-66695238D02*
X25652380Y-67266666D01*
X25652380Y-66980952D02*
X24652380Y-66980952D01*
X24795238Y-67076190D01*
X24890476Y-67171428D01*
X24938095Y-67266666D01*
X24652380Y-65790476D02*
X24652380Y-66266666D01*
X25128571Y-66314285D01*
X25080952Y-66266666D01*
X25033333Y-66171428D01*
X25033333Y-65933333D01*
X25080952Y-65838095D01*
X25128571Y-65790476D01*
X25223809Y-65742857D01*
X25461904Y-65742857D01*
X25557142Y-65790476D01*
X25604761Y-65838095D01*
X25652380Y-65933333D01*
X25652380Y-66171428D01*
X25604761Y-66266666D01*
X25557142Y-66314285D01*
X24652380Y-65409523D02*
X24652380Y-64790476D01*
X25033333Y-65123809D01*
X25033333Y-64980952D01*
X25080952Y-64885714D01*
X25128571Y-64838095D01*
X25223809Y-64790476D01*
X25461904Y-64790476D01*
X25557142Y-64838095D01*
X25604761Y-64885714D01*
X25652380Y-64980952D01*
X25652380Y-65266666D01*
X25604761Y-65361904D01*
X25557142Y-65409523D01*
X24747619Y-64409523D02*
X24700000Y-64361904D01*
X24652380Y-64266666D01*
X24652380Y-64028571D01*
X24700000Y-63933333D01*
X24747619Y-63885714D01*
X24842857Y-63838095D01*
X24938095Y-63838095D01*
X25080952Y-63885714D01*
X25652380Y-64457142D01*
X25652380Y-63838095D01*
D12*
X61000000Y-118400000D02*
X60800000Y-118700000D01*
X61000000Y-118400000D02*
X61200000Y-118700000D01*
X61000000Y-119300000D02*
X61000000Y-118400000D01*
X63400000Y-119300000D02*
X63200000Y-119000000D01*
X63400000Y-119300000D02*
X63600000Y-119000000D01*
X63400000Y-118400000D02*
X63400000Y-119300000D01*
D10*
X58161904Y-119361904D02*
X57895238Y-118980952D01*
X57704761Y-119361904D02*
X57704761Y-118561904D01*
X58009523Y-118561904D01*
X58085714Y-118600000D01*
X58123809Y-118638095D01*
X58161904Y-118714285D01*
X58161904Y-118828571D01*
X58123809Y-118904761D01*
X58085714Y-118942857D01*
X58009523Y-118980952D01*
X57704761Y-118980952D01*
X58390476Y-118561904D02*
X58847619Y-118561904D01*
X58619047Y-119361904D02*
X58619047Y-118561904D01*
X59076190Y-119323809D02*
X59190476Y-119361904D01*
X59380952Y-119361904D01*
X59457142Y-119323809D01*
X59495238Y-119285714D01*
X59533333Y-119209523D01*
X59533333Y-119133333D01*
X59495238Y-119057142D01*
X59457142Y-119019047D01*
X59380952Y-118980952D01*
X59228571Y-118942857D01*
X59152380Y-118904761D01*
X59114285Y-118866666D01*
X59076190Y-118790476D01*
X59076190Y-118714285D01*
X59114285Y-118638095D01*
X59152380Y-118600000D01*
X59228571Y-118561904D01*
X59419047Y-118561904D01*
X59533333Y-118600000D01*
X61471428Y-118561904D02*
X61928571Y-118561904D01*
X61700000Y-119361904D02*
X61700000Y-118561904D01*
X64647619Y-119261904D02*
X64380952Y-118880952D01*
X64190476Y-119261904D02*
X64190476Y-118461904D01*
X64495238Y-118461904D01*
X64571428Y-118500000D01*
X64609523Y-118538095D01*
X64647619Y-118614285D01*
X64647619Y-118728571D01*
X64609523Y-118804761D01*
X64571428Y-118842857D01*
X64495238Y-118880952D01*
X64190476Y-118880952D01*
X65790476Y-118500000D02*
X65714285Y-118461904D01*
X65600000Y-118461904D01*
X65485714Y-118500000D01*
X65409523Y-118576190D01*
X65371428Y-118652380D01*
X65333333Y-118804761D01*
X65333333Y-118919047D01*
X65371428Y-119071428D01*
X65409523Y-119147619D01*
X65485714Y-119223809D01*
X65600000Y-119261904D01*
X65676190Y-119261904D01*
X65790476Y-119223809D01*
X65828571Y-119185714D01*
X65828571Y-118919047D01*
X65676190Y-118919047D01*
X66171428Y-119261904D02*
X66171428Y-118461904D01*
X66628571Y-119261904D01*
X66628571Y-118461904D01*
X67009523Y-119261904D02*
X67009523Y-118461904D01*
X67200000Y-118461904D01*
X67314285Y-118500000D01*
X67390476Y-118576190D01*
X67428571Y-118652380D01*
X67466666Y-118804761D01*
X67466666Y-118919047D01*
X67428571Y-119071428D01*
X67390476Y-119147619D01*
X67314285Y-119223809D01*
X67200000Y-119261904D01*
X67009523Y-119261904D01*
X112309523Y-119133333D02*
X112690476Y-119133333D01*
X112233333Y-119361904D02*
X112500000Y-118561904D01*
X112766666Y-119361904D01*
X97728571Y-119361904D02*
X97271428Y-119361904D01*
X97500000Y-119361904D02*
X97500000Y-118561904D01*
X97423809Y-118676190D01*
X97347619Y-118752380D01*
X97271428Y-118790476D01*
X99771428Y-118638095D02*
X99809523Y-118600000D01*
X99885714Y-118561904D01*
X100076190Y-118561904D01*
X100152380Y-118600000D01*
X100190476Y-118638095D01*
X100228571Y-118714285D01*
X100228571Y-118790476D01*
X100190476Y-118904761D01*
X99733333Y-119361904D01*
X100228571Y-119361904D01*
X102233333Y-118561904D02*
X102728571Y-118561904D01*
X102461904Y-118866666D01*
X102576190Y-118866666D01*
X102652380Y-118904761D01*
X102690476Y-118942857D01*
X102728571Y-119019047D01*
X102728571Y-119209523D01*
X102690476Y-119285714D01*
X102652380Y-119323809D01*
X102576190Y-119361904D01*
X102347619Y-119361904D01*
X102271428Y-119323809D01*
X102233333Y-119285714D01*
X105152380Y-118828571D02*
X105152380Y-119361904D01*
X104961904Y-118523809D02*
X104771428Y-119095238D01*
X105266666Y-119095238D01*
X107690476Y-118561904D02*
X107309523Y-118561904D01*
X107271428Y-118942857D01*
X107309523Y-118904761D01*
X107385714Y-118866666D01*
X107576190Y-118866666D01*
X107652380Y-118904761D01*
X107690476Y-118942857D01*
X107728571Y-119019047D01*
X107728571Y-119209523D01*
X107690476Y-119285714D01*
X107652380Y-119323809D01*
X107576190Y-119361904D01*
X107385714Y-119361904D01*
X107309523Y-119323809D01*
X107271428Y-119285714D01*
X110152380Y-118561904D02*
X110000000Y-118561904D01*
X109923809Y-118600000D01*
X109885714Y-118638095D01*
X109809523Y-118752380D01*
X109771428Y-118904761D01*
X109771428Y-119209523D01*
X109809523Y-119285714D01*
X109847619Y-119323809D01*
X109923809Y-119361904D01*
X110076190Y-119361904D01*
X110152380Y-119323809D01*
X110190476Y-119285714D01*
X110228571Y-119209523D01*
X110228571Y-119019047D01*
X110190476Y-118942857D01*
X110152380Y-118904761D01*
X110076190Y-118866666D01*
X109923809Y-118866666D01*
X109847619Y-118904761D01*
X109809523Y-118942857D01*
X109771428Y-119019047D01*
X114390476Y-118600000D02*
X114314285Y-118561904D01*
X114200000Y-118561904D01*
X114085714Y-118600000D01*
X114009523Y-118676190D01*
X113971428Y-118752380D01*
X113933333Y-118904761D01*
X113933333Y-119019047D01*
X113971428Y-119171428D01*
X114009523Y-119247619D01*
X114085714Y-119323809D01*
X114200000Y-119361904D01*
X114276190Y-119361904D01*
X114390476Y-119323809D01*
X114428571Y-119285714D01*
X114428571Y-119019047D01*
X114276190Y-119019047D01*
X114771428Y-119361904D02*
X114771428Y-118561904D01*
X115228571Y-119361904D01*
X115228571Y-118561904D01*
X115609523Y-119361904D02*
X115609523Y-118561904D01*
X115800000Y-118561904D01*
X115914285Y-118600000D01*
X115990476Y-118676190D01*
X116028571Y-118752380D01*
X116066666Y-118904761D01*
X116066666Y-119019047D01*
X116028571Y-119171428D01*
X115990476Y-119247619D01*
X115914285Y-119323809D01*
X115800000Y-119361904D01*
X115609523Y-119361904D01*
X137228571Y-119361904D02*
X136771428Y-119361904D01*
X137000000Y-119361904D02*
X137000000Y-118561904D01*
X136923809Y-118676190D01*
X136847619Y-118752380D01*
X136771428Y-118790476D01*
X134271428Y-118638095D02*
X134309523Y-118600000D01*
X134385714Y-118561904D01*
X134576190Y-118561904D01*
X134652380Y-118600000D01*
X134690476Y-118638095D01*
X134728571Y-118714285D01*
X134728571Y-118790476D01*
X134690476Y-118904761D01*
X134233333Y-119361904D01*
X134728571Y-119361904D01*
X131733333Y-118561904D02*
X132228571Y-118561904D01*
X131961904Y-118866666D01*
X132076190Y-118866666D01*
X132152380Y-118904761D01*
X132190476Y-118942857D01*
X132228571Y-119019047D01*
X132228571Y-119209523D01*
X132190476Y-119285714D01*
X132152380Y-119323809D01*
X132076190Y-119361904D01*
X131847619Y-119361904D01*
X131771428Y-119323809D01*
X131733333Y-119285714D01*
X129652380Y-118828571D02*
X129652380Y-119361904D01*
X129461904Y-118523809D02*
X129271428Y-119095238D01*
X129766666Y-119095238D01*
X127190476Y-118561904D02*
X126809523Y-118561904D01*
X126771428Y-118942857D01*
X126809523Y-118904761D01*
X126885714Y-118866666D01*
X127076190Y-118866666D01*
X127152380Y-118904761D01*
X127190476Y-118942857D01*
X127228571Y-119019047D01*
X127228571Y-119209523D01*
X127190476Y-119285714D01*
X127152380Y-119323809D01*
X127076190Y-119361904D01*
X126885714Y-119361904D01*
X126809523Y-119323809D01*
X126771428Y-119285714D01*
X124652380Y-118561904D02*
X124500000Y-118561904D01*
X124423809Y-118600000D01*
X124385714Y-118638095D01*
X124309523Y-118752380D01*
X124271428Y-118904761D01*
X124271428Y-119209523D01*
X124309523Y-119285714D01*
X124347619Y-119323809D01*
X124423809Y-119361904D01*
X124576190Y-119361904D01*
X124652380Y-119323809D01*
X124690476Y-119285714D01*
X124728571Y-119209523D01*
X124728571Y-119019047D01*
X124690476Y-118942857D01*
X124652380Y-118904761D01*
X124576190Y-118866666D01*
X124423809Y-118866666D01*
X124347619Y-118904761D01*
X124309523Y-118942857D01*
X124271428Y-119019047D01*
X121390476Y-118600000D02*
X121314285Y-118561904D01*
X121200000Y-118561904D01*
X121085714Y-118600000D01*
X121009523Y-118676190D01*
X120971428Y-118752380D01*
X120933333Y-118904761D01*
X120933333Y-119019047D01*
X120971428Y-119171428D01*
X121009523Y-119247619D01*
X121085714Y-119323809D01*
X121200000Y-119361904D01*
X121276190Y-119361904D01*
X121390476Y-119323809D01*
X121428571Y-119285714D01*
X121428571Y-119019047D01*
X121276190Y-119019047D01*
X121771428Y-119361904D02*
X121771428Y-118561904D01*
X122228571Y-119361904D01*
X122228571Y-118561904D01*
X122609523Y-119361904D02*
X122609523Y-118561904D01*
X122800000Y-118561904D01*
X122914285Y-118600000D01*
X122990476Y-118676190D01*
X123028571Y-118752380D01*
X123066666Y-118904761D01*
X123066666Y-119019047D01*
X123028571Y-119171428D01*
X122990476Y-119247619D01*
X122914285Y-119323809D01*
X122800000Y-119361904D01*
X122609523Y-119361904D01*
X139004761Y-119361904D02*
X138547619Y-119361904D01*
X138776190Y-119361904D02*
X138776190Y-118561904D01*
X138700000Y-118676190D01*
X138623809Y-118752380D01*
X138547619Y-118790476D01*
X139309523Y-118638095D02*
X139347619Y-118600000D01*
X139423809Y-118561904D01*
X139614285Y-118561904D01*
X139690476Y-118600000D01*
X139728571Y-118638095D01*
X139766666Y-118714285D01*
X139766666Y-118790476D01*
X139728571Y-118904761D01*
X139271428Y-119361904D01*
X139766666Y-119361904D01*
X139995238Y-118561904D02*
X140261904Y-119361904D01*
X140528571Y-118561904D01*
D12*
X33600000Y-44545000D02*
X32330000Y-44545000D01*
X33600000Y-45875000D02*
X33600000Y-44545000D01*
X31000000Y-47145000D02*
X33600000Y-47145000D01*
X31000000Y-44545000D02*
X31000000Y-47145000D01*
X28400000Y-44545000D02*
X31000000Y-44545000D01*
X28400000Y-95465000D02*
X28400000Y-44545000D01*
X33600000Y-95465000D02*
X28400000Y-95465000D01*
X33600000Y-47145000D02*
X33600000Y-95465000D01*
D10*
X30666666Y-42997380D02*
X30666666Y-43711666D01*
X30619047Y-43854523D01*
X30523809Y-43949761D01*
X30380952Y-43997380D01*
X30285714Y-43997380D01*
X31047619Y-42997380D02*
X31666666Y-42997380D01*
X31333333Y-43378333D01*
X31476190Y-43378333D01*
X31571428Y-43425952D01*
X31619047Y-43473571D01*
X31666666Y-43568809D01*
X31666666Y-43806904D01*
X31619047Y-43902142D01*
X31571428Y-43949761D01*
X31476190Y-43997380D01*
X31190476Y-43997380D01*
X31095238Y-43949761D01*
X31047619Y-43902142D01*
M02*
