%TF.GenerationSoftware,KiCad,Pcbnew,(5.1.4)-1*%
%TF.CreationDate,2020-11-06T00:10:57+08:00*%
%TF.ProjectId,MCU,4d43552e-6b69-4636-9164-5f7063625858,rev?*%
%TF.SameCoordinates,Original*%
%TF.FileFunction,Soldermask,Top*%
%TF.FilePolarity,Negative*%
%FSLAX46Y46*%
G04 Gerber Fmt 4.6, Leading zero omitted, Abs format (unit mm)*
G04 Created by KiCad (PCBNEW (5.1.4)-1) date 2020-11-06 00:10:57*
%MOMM*%
%LPD*%
G04 APERTURE LIST*
%ADD10C,0.350000*%
G04 APERTURE END LIST*
D10*
G36*
X146889943Y-113066248D02*
G01*
X147445189Y-113296238D01*
X147617497Y-113411371D01*
X147944899Y-113630134D01*
X148369866Y-114055101D01*
X148369867Y-114055103D01*
X148703762Y-114554811D01*
X148933752Y-115110057D01*
X149051000Y-115699501D01*
X149051000Y-116300499D01*
X148933752Y-116889943D01*
X148703762Y-117445189D01*
X148653706Y-117520103D01*
X148369866Y-117944899D01*
X147944899Y-118369866D01*
X147870736Y-118419420D01*
X147445189Y-118703762D01*
X146889943Y-118933752D01*
X146300499Y-119051000D01*
X145699501Y-119051000D01*
X145110057Y-118933752D01*
X144554811Y-118703762D01*
X144129264Y-118419420D01*
X144055101Y-118369866D01*
X143630134Y-117944899D01*
X143346294Y-117520103D01*
X143296238Y-117445189D01*
X143066248Y-116889943D01*
X142949000Y-116300499D01*
X142949000Y-115699501D01*
X143066248Y-115110057D01*
X143296238Y-114554811D01*
X143630133Y-114055103D01*
X143630134Y-114055101D01*
X144055101Y-113630134D01*
X144382503Y-113411371D01*
X144554811Y-113296238D01*
X145110057Y-113066248D01*
X145699501Y-112949000D01*
X146300499Y-112949000D01*
X146889943Y-113066248D01*
X146889943Y-113066248D01*
G37*
G36*
X24889943Y-113066248D02*
G01*
X25445189Y-113296238D01*
X25617497Y-113411371D01*
X25944899Y-113630134D01*
X26369866Y-114055101D01*
X26369867Y-114055103D01*
X26703762Y-114554811D01*
X26933752Y-115110057D01*
X27051000Y-115699501D01*
X27051000Y-116300499D01*
X26933752Y-116889943D01*
X26703762Y-117445189D01*
X26653706Y-117520103D01*
X26369866Y-117944899D01*
X25944899Y-118369866D01*
X25870736Y-118419420D01*
X25445189Y-118703762D01*
X24889943Y-118933752D01*
X24300499Y-119051000D01*
X23699501Y-119051000D01*
X23110057Y-118933752D01*
X22554811Y-118703762D01*
X22129264Y-118419420D01*
X22055101Y-118369866D01*
X21630134Y-117944899D01*
X21346294Y-117520103D01*
X21296238Y-117445189D01*
X21066248Y-116889943D01*
X20949000Y-116300499D01*
X20949000Y-115699501D01*
X21066248Y-115110057D01*
X21296238Y-114554811D01*
X21630133Y-114055103D01*
X21630134Y-114055101D01*
X22055101Y-113630134D01*
X22382503Y-113411371D01*
X22554811Y-113296238D01*
X23110057Y-113066248D01*
X23699501Y-112949000D01*
X24300499Y-112949000D01*
X24889943Y-113066248D01*
X24889943Y-113066248D01*
G37*
G36*
X44270104Y-116359585D02*
G01*
X44438626Y-116429389D01*
X44590291Y-116530728D01*
X44719272Y-116659709D01*
X44820611Y-116811374D01*
X44890415Y-116979896D01*
X44926000Y-117158797D01*
X44926000Y-117341203D01*
X44890415Y-117520104D01*
X44820611Y-117688626D01*
X44719272Y-117840291D01*
X44590291Y-117969272D01*
X44438626Y-118070611D01*
X44270104Y-118140415D01*
X44091203Y-118176000D01*
X43908797Y-118176000D01*
X43729896Y-118140415D01*
X43561374Y-118070611D01*
X43409709Y-117969272D01*
X43280728Y-117840291D01*
X43179389Y-117688626D01*
X43109585Y-117520104D01*
X43074000Y-117341203D01*
X43074000Y-117158797D01*
X43109585Y-116979896D01*
X43179389Y-116811374D01*
X43280728Y-116659709D01*
X43409709Y-116530728D01*
X43561374Y-116429389D01*
X43729896Y-116359585D01*
X43908797Y-116324000D01*
X44091203Y-116324000D01*
X44270104Y-116359585D01*
X44270104Y-116359585D01*
G37*
G36*
X42426000Y-118176000D02*
G01*
X40574000Y-118176000D01*
X40574000Y-116324000D01*
X42426000Y-116324000D01*
X42426000Y-118176000D01*
X42426000Y-118176000D01*
G37*
G36*
X88176000Y-117926000D02*
G01*
X86324000Y-117926000D01*
X86324000Y-116074000D01*
X88176000Y-116074000D01*
X88176000Y-117926000D01*
X88176000Y-117926000D01*
G37*
G36*
X61520104Y-116109585D02*
G01*
X61688626Y-116179389D01*
X61840291Y-116280728D01*
X61969272Y-116409709D01*
X62070611Y-116561374D01*
X62140415Y-116729896D01*
X62176000Y-116908797D01*
X62176000Y-117091203D01*
X62140415Y-117270104D01*
X62070611Y-117438626D01*
X61969272Y-117590291D01*
X61840291Y-117719272D01*
X61688626Y-117820611D01*
X61520104Y-117890415D01*
X61341203Y-117926000D01*
X61158797Y-117926000D01*
X60979896Y-117890415D01*
X60811374Y-117820611D01*
X60659709Y-117719272D01*
X60530728Y-117590291D01*
X60429389Y-117438626D01*
X60359585Y-117270104D01*
X60324000Y-117091203D01*
X60324000Y-116908797D01*
X60359585Y-116729896D01*
X60429389Y-116561374D01*
X60530728Y-116409709D01*
X60659709Y-116280728D01*
X60811374Y-116179389D01*
X60979896Y-116109585D01*
X61158797Y-116074000D01*
X61341203Y-116074000D01*
X61520104Y-116109585D01*
X61520104Y-116109585D01*
G37*
G36*
X59676000Y-117926000D02*
G01*
X57824000Y-117926000D01*
X57824000Y-116074000D01*
X59676000Y-116074000D01*
X59676000Y-117926000D01*
X59676000Y-117926000D01*
G37*
G36*
X80270104Y-116109585D02*
G01*
X80438626Y-116179389D01*
X80590291Y-116280728D01*
X80719272Y-116409709D01*
X80820611Y-116561374D01*
X80890415Y-116729896D01*
X80926000Y-116908797D01*
X80926000Y-117091203D01*
X80890415Y-117270104D01*
X80820611Y-117438626D01*
X80719272Y-117590291D01*
X80590291Y-117719272D01*
X80438626Y-117820611D01*
X80270104Y-117890415D01*
X80091203Y-117926000D01*
X79908797Y-117926000D01*
X79729896Y-117890415D01*
X79561374Y-117820611D01*
X79409709Y-117719272D01*
X79280728Y-117590291D01*
X79179389Y-117438626D01*
X79109585Y-117270104D01*
X79074000Y-117091203D01*
X79074000Y-116908797D01*
X79109585Y-116729896D01*
X79179389Y-116561374D01*
X79280728Y-116409709D01*
X79409709Y-116280728D01*
X79561374Y-116179389D01*
X79729896Y-116109585D01*
X79908797Y-116074000D01*
X80091203Y-116074000D01*
X80270104Y-116109585D01*
X80270104Y-116109585D01*
G37*
G36*
X78426000Y-117926000D02*
G01*
X76574000Y-117926000D01*
X76574000Y-116074000D01*
X78426000Y-116074000D01*
X78426000Y-117926000D01*
X78426000Y-117926000D01*
G37*
G36*
X139770104Y-116109585D02*
G01*
X139938626Y-116179389D01*
X140090291Y-116280728D01*
X140219272Y-116409709D01*
X140320611Y-116561374D01*
X140390415Y-116729896D01*
X140426000Y-116908797D01*
X140426000Y-117091203D01*
X140390415Y-117270104D01*
X140320611Y-117438626D01*
X140219272Y-117590291D01*
X140090291Y-117719272D01*
X139938626Y-117820611D01*
X139770104Y-117890415D01*
X139591203Y-117926000D01*
X139408797Y-117926000D01*
X139229896Y-117890415D01*
X139061374Y-117820611D01*
X138909709Y-117719272D01*
X138780728Y-117590291D01*
X138679389Y-117438626D01*
X138609585Y-117270104D01*
X138574000Y-117091203D01*
X138574000Y-116908797D01*
X138609585Y-116729896D01*
X138679389Y-116561374D01*
X138780728Y-116409709D01*
X138909709Y-116280728D01*
X139061374Y-116179389D01*
X139229896Y-116109585D01*
X139408797Y-116074000D01*
X139591203Y-116074000D01*
X139770104Y-116109585D01*
X139770104Y-116109585D01*
G37*
G36*
X137270104Y-116109585D02*
G01*
X137438626Y-116179389D01*
X137590291Y-116280728D01*
X137719272Y-116409709D01*
X137820611Y-116561374D01*
X137890415Y-116729896D01*
X137926000Y-116908797D01*
X137926000Y-117091203D01*
X137890415Y-117270104D01*
X137820611Y-117438626D01*
X137719272Y-117590291D01*
X137590291Y-117719272D01*
X137438626Y-117820611D01*
X137270104Y-117890415D01*
X137091203Y-117926000D01*
X136908797Y-117926000D01*
X136729896Y-117890415D01*
X136561374Y-117820611D01*
X136409709Y-117719272D01*
X136280728Y-117590291D01*
X136179389Y-117438626D01*
X136109585Y-117270104D01*
X136074000Y-117091203D01*
X136074000Y-116908797D01*
X136109585Y-116729896D01*
X136179389Y-116561374D01*
X136280728Y-116409709D01*
X136409709Y-116280728D01*
X136561374Y-116179389D01*
X136729896Y-116109585D01*
X136908797Y-116074000D01*
X137091203Y-116074000D01*
X137270104Y-116109585D01*
X137270104Y-116109585D01*
G37*
G36*
X134770104Y-116109585D02*
G01*
X134938626Y-116179389D01*
X135090291Y-116280728D01*
X135219272Y-116409709D01*
X135320611Y-116561374D01*
X135390415Y-116729896D01*
X135426000Y-116908797D01*
X135426000Y-117091203D01*
X135390415Y-117270104D01*
X135320611Y-117438626D01*
X135219272Y-117590291D01*
X135090291Y-117719272D01*
X134938626Y-117820611D01*
X134770104Y-117890415D01*
X134591203Y-117926000D01*
X134408797Y-117926000D01*
X134229896Y-117890415D01*
X134061374Y-117820611D01*
X133909709Y-117719272D01*
X133780728Y-117590291D01*
X133679389Y-117438626D01*
X133609585Y-117270104D01*
X133574000Y-117091203D01*
X133574000Y-116908797D01*
X133609585Y-116729896D01*
X133679389Y-116561374D01*
X133780728Y-116409709D01*
X133909709Y-116280728D01*
X134061374Y-116179389D01*
X134229896Y-116109585D01*
X134408797Y-116074000D01*
X134591203Y-116074000D01*
X134770104Y-116109585D01*
X134770104Y-116109585D01*
G37*
G36*
X132270104Y-116109585D02*
G01*
X132438626Y-116179389D01*
X132590291Y-116280728D01*
X132719272Y-116409709D01*
X132820611Y-116561374D01*
X132890415Y-116729896D01*
X132926000Y-116908797D01*
X132926000Y-117091203D01*
X132890415Y-117270104D01*
X132820611Y-117438626D01*
X132719272Y-117590291D01*
X132590291Y-117719272D01*
X132438626Y-117820611D01*
X132270104Y-117890415D01*
X132091203Y-117926000D01*
X131908797Y-117926000D01*
X131729896Y-117890415D01*
X131561374Y-117820611D01*
X131409709Y-117719272D01*
X131280728Y-117590291D01*
X131179389Y-117438626D01*
X131109585Y-117270104D01*
X131074000Y-117091203D01*
X131074000Y-116908797D01*
X131109585Y-116729896D01*
X131179389Y-116561374D01*
X131280728Y-116409709D01*
X131409709Y-116280728D01*
X131561374Y-116179389D01*
X131729896Y-116109585D01*
X131908797Y-116074000D01*
X132091203Y-116074000D01*
X132270104Y-116109585D01*
X132270104Y-116109585D01*
G37*
G36*
X129770104Y-116109585D02*
G01*
X129938626Y-116179389D01*
X130090291Y-116280728D01*
X130219272Y-116409709D01*
X130320611Y-116561374D01*
X130390415Y-116729896D01*
X130426000Y-116908797D01*
X130426000Y-117091203D01*
X130390415Y-117270104D01*
X130320611Y-117438626D01*
X130219272Y-117590291D01*
X130090291Y-117719272D01*
X129938626Y-117820611D01*
X129770104Y-117890415D01*
X129591203Y-117926000D01*
X129408797Y-117926000D01*
X129229896Y-117890415D01*
X129061374Y-117820611D01*
X128909709Y-117719272D01*
X128780728Y-117590291D01*
X128679389Y-117438626D01*
X128609585Y-117270104D01*
X128574000Y-117091203D01*
X128574000Y-116908797D01*
X128609585Y-116729896D01*
X128679389Y-116561374D01*
X128780728Y-116409709D01*
X128909709Y-116280728D01*
X129061374Y-116179389D01*
X129229896Y-116109585D01*
X129408797Y-116074000D01*
X129591203Y-116074000D01*
X129770104Y-116109585D01*
X129770104Y-116109585D01*
G37*
G36*
X127270104Y-116109585D02*
G01*
X127438626Y-116179389D01*
X127590291Y-116280728D01*
X127719272Y-116409709D01*
X127820611Y-116561374D01*
X127890415Y-116729896D01*
X127926000Y-116908797D01*
X127926000Y-117091203D01*
X127890415Y-117270104D01*
X127820611Y-117438626D01*
X127719272Y-117590291D01*
X127590291Y-117719272D01*
X127438626Y-117820611D01*
X127270104Y-117890415D01*
X127091203Y-117926000D01*
X126908797Y-117926000D01*
X126729896Y-117890415D01*
X126561374Y-117820611D01*
X126409709Y-117719272D01*
X126280728Y-117590291D01*
X126179389Y-117438626D01*
X126109585Y-117270104D01*
X126074000Y-117091203D01*
X126074000Y-116908797D01*
X126109585Y-116729896D01*
X126179389Y-116561374D01*
X126280728Y-116409709D01*
X126409709Y-116280728D01*
X126561374Y-116179389D01*
X126729896Y-116109585D01*
X126908797Y-116074000D01*
X127091203Y-116074000D01*
X127270104Y-116109585D01*
X127270104Y-116109585D01*
G37*
G36*
X124770104Y-116109585D02*
G01*
X124938626Y-116179389D01*
X125090291Y-116280728D01*
X125219272Y-116409709D01*
X125320611Y-116561374D01*
X125390415Y-116729896D01*
X125426000Y-116908797D01*
X125426000Y-117091203D01*
X125390415Y-117270104D01*
X125320611Y-117438626D01*
X125219272Y-117590291D01*
X125090291Y-117719272D01*
X124938626Y-117820611D01*
X124770104Y-117890415D01*
X124591203Y-117926000D01*
X124408797Y-117926000D01*
X124229896Y-117890415D01*
X124061374Y-117820611D01*
X123909709Y-117719272D01*
X123780728Y-117590291D01*
X123679389Y-117438626D01*
X123609585Y-117270104D01*
X123574000Y-117091203D01*
X123574000Y-116908797D01*
X123609585Y-116729896D01*
X123679389Y-116561374D01*
X123780728Y-116409709D01*
X123909709Y-116280728D01*
X124061374Y-116179389D01*
X124229896Y-116109585D01*
X124408797Y-116074000D01*
X124591203Y-116074000D01*
X124770104Y-116109585D01*
X124770104Y-116109585D01*
G37*
G36*
X115270104Y-116109585D02*
G01*
X115438626Y-116179389D01*
X115590291Y-116280728D01*
X115719272Y-116409709D01*
X115820611Y-116561374D01*
X115890415Y-116729896D01*
X115926000Y-116908797D01*
X115926000Y-117091203D01*
X115890415Y-117270104D01*
X115820611Y-117438626D01*
X115719272Y-117590291D01*
X115590291Y-117719272D01*
X115438626Y-117820611D01*
X115270104Y-117890415D01*
X115091203Y-117926000D01*
X114908797Y-117926000D01*
X114729896Y-117890415D01*
X114561374Y-117820611D01*
X114409709Y-117719272D01*
X114280728Y-117590291D01*
X114179389Y-117438626D01*
X114109585Y-117270104D01*
X114074000Y-117091203D01*
X114074000Y-116908797D01*
X114109585Y-116729896D01*
X114179389Y-116561374D01*
X114280728Y-116409709D01*
X114409709Y-116280728D01*
X114561374Y-116179389D01*
X114729896Y-116109585D01*
X114908797Y-116074000D01*
X115091203Y-116074000D01*
X115270104Y-116109585D01*
X115270104Y-116109585D01*
G37*
G36*
X64020104Y-116109585D02*
G01*
X64188626Y-116179389D01*
X64340291Y-116280728D01*
X64469272Y-116409709D01*
X64570611Y-116561374D01*
X64640415Y-116729896D01*
X64676000Y-116908797D01*
X64676000Y-117091203D01*
X64640415Y-117270104D01*
X64570611Y-117438626D01*
X64469272Y-117590291D01*
X64340291Y-117719272D01*
X64188626Y-117820611D01*
X64020104Y-117890415D01*
X63841203Y-117926000D01*
X63658797Y-117926000D01*
X63479896Y-117890415D01*
X63311374Y-117820611D01*
X63159709Y-117719272D01*
X63030728Y-117590291D01*
X62929389Y-117438626D01*
X62859585Y-117270104D01*
X62824000Y-117091203D01*
X62824000Y-116908797D01*
X62859585Y-116729896D01*
X62929389Y-116561374D01*
X63030728Y-116409709D01*
X63159709Y-116280728D01*
X63311374Y-116179389D01*
X63479896Y-116109585D01*
X63658797Y-116074000D01*
X63841203Y-116074000D01*
X64020104Y-116109585D01*
X64020104Y-116109585D01*
G37*
G36*
X90020104Y-116109585D02*
G01*
X90188626Y-116179389D01*
X90340291Y-116280728D01*
X90469272Y-116409709D01*
X90570611Y-116561374D01*
X90640415Y-116729896D01*
X90676000Y-116908797D01*
X90676000Y-117091203D01*
X90640415Y-117270104D01*
X90570611Y-117438626D01*
X90469272Y-117590291D01*
X90340291Y-117719272D01*
X90188626Y-117820611D01*
X90020104Y-117890415D01*
X89841203Y-117926000D01*
X89658797Y-117926000D01*
X89479896Y-117890415D01*
X89311374Y-117820611D01*
X89159709Y-117719272D01*
X89030728Y-117590291D01*
X88929389Y-117438626D01*
X88859585Y-117270104D01*
X88824000Y-117091203D01*
X88824000Y-116908797D01*
X88859585Y-116729896D01*
X88929389Y-116561374D01*
X89030728Y-116409709D01*
X89159709Y-116280728D01*
X89311374Y-116179389D01*
X89479896Y-116109585D01*
X89658797Y-116074000D01*
X89841203Y-116074000D01*
X90020104Y-116109585D01*
X90020104Y-116109585D01*
G37*
G36*
X98426000Y-117926000D02*
G01*
X96574000Y-117926000D01*
X96574000Y-116074000D01*
X98426000Y-116074000D01*
X98426000Y-117926000D01*
X98426000Y-117926000D01*
G37*
G36*
X66520104Y-116109585D02*
G01*
X66688626Y-116179389D01*
X66840291Y-116280728D01*
X66969272Y-116409709D01*
X67070611Y-116561374D01*
X67140415Y-116729896D01*
X67176000Y-116908797D01*
X67176000Y-117091203D01*
X67140415Y-117270104D01*
X67070611Y-117438626D01*
X66969272Y-117590291D01*
X66840291Y-117719272D01*
X66688626Y-117820611D01*
X66520104Y-117890415D01*
X66341203Y-117926000D01*
X66158797Y-117926000D01*
X65979896Y-117890415D01*
X65811374Y-117820611D01*
X65659709Y-117719272D01*
X65530728Y-117590291D01*
X65429389Y-117438626D01*
X65359585Y-117270104D01*
X65324000Y-117091203D01*
X65324000Y-116908797D01*
X65359585Y-116729896D01*
X65429389Y-116561374D01*
X65530728Y-116409709D01*
X65659709Y-116280728D01*
X65811374Y-116179389D01*
X65979896Y-116109585D01*
X66158797Y-116074000D01*
X66341203Y-116074000D01*
X66520104Y-116109585D01*
X66520104Y-116109585D01*
G37*
G36*
X100270104Y-116109585D02*
G01*
X100438626Y-116179389D01*
X100590291Y-116280728D01*
X100719272Y-116409709D01*
X100820611Y-116561374D01*
X100890415Y-116729896D01*
X100926000Y-116908797D01*
X100926000Y-117091203D01*
X100890415Y-117270104D01*
X100820611Y-117438626D01*
X100719272Y-117590291D01*
X100590291Y-117719272D01*
X100438626Y-117820611D01*
X100270104Y-117890415D01*
X100091203Y-117926000D01*
X99908797Y-117926000D01*
X99729896Y-117890415D01*
X99561374Y-117820611D01*
X99409709Y-117719272D01*
X99280728Y-117590291D01*
X99179389Y-117438626D01*
X99109585Y-117270104D01*
X99074000Y-117091203D01*
X99074000Y-116908797D01*
X99109585Y-116729896D01*
X99179389Y-116561374D01*
X99280728Y-116409709D01*
X99409709Y-116280728D01*
X99561374Y-116179389D01*
X99729896Y-116109585D01*
X99908797Y-116074000D01*
X100091203Y-116074000D01*
X100270104Y-116109585D01*
X100270104Y-116109585D01*
G37*
G36*
X102770104Y-116109585D02*
G01*
X102938626Y-116179389D01*
X103090291Y-116280728D01*
X103219272Y-116409709D01*
X103320611Y-116561374D01*
X103390415Y-116729896D01*
X103426000Y-116908797D01*
X103426000Y-117091203D01*
X103390415Y-117270104D01*
X103320611Y-117438626D01*
X103219272Y-117590291D01*
X103090291Y-117719272D01*
X102938626Y-117820611D01*
X102770104Y-117890415D01*
X102591203Y-117926000D01*
X102408797Y-117926000D01*
X102229896Y-117890415D01*
X102061374Y-117820611D01*
X101909709Y-117719272D01*
X101780728Y-117590291D01*
X101679389Y-117438626D01*
X101609585Y-117270104D01*
X101574000Y-117091203D01*
X101574000Y-116908797D01*
X101609585Y-116729896D01*
X101679389Y-116561374D01*
X101780728Y-116409709D01*
X101909709Y-116280728D01*
X102061374Y-116179389D01*
X102229896Y-116109585D01*
X102408797Y-116074000D01*
X102591203Y-116074000D01*
X102770104Y-116109585D01*
X102770104Y-116109585D01*
G37*
G36*
X105270104Y-116109585D02*
G01*
X105438626Y-116179389D01*
X105590291Y-116280728D01*
X105719272Y-116409709D01*
X105820611Y-116561374D01*
X105890415Y-116729896D01*
X105926000Y-116908797D01*
X105926000Y-117091203D01*
X105890415Y-117270104D01*
X105820611Y-117438626D01*
X105719272Y-117590291D01*
X105590291Y-117719272D01*
X105438626Y-117820611D01*
X105270104Y-117890415D01*
X105091203Y-117926000D01*
X104908797Y-117926000D01*
X104729896Y-117890415D01*
X104561374Y-117820611D01*
X104409709Y-117719272D01*
X104280728Y-117590291D01*
X104179389Y-117438626D01*
X104109585Y-117270104D01*
X104074000Y-117091203D01*
X104074000Y-116908797D01*
X104109585Y-116729896D01*
X104179389Y-116561374D01*
X104280728Y-116409709D01*
X104409709Y-116280728D01*
X104561374Y-116179389D01*
X104729896Y-116109585D01*
X104908797Y-116074000D01*
X105091203Y-116074000D01*
X105270104Y-116109585D01*
X105270104Y-116109585D01*
G37*
G36*
X107770104Y-116109585D02*
G01*
X107938626Y-116179389D01*
X108090291Y-116280728D01*
X108219272Y-116409709D01*
X108320611Y-116561374D01*
X108390415Y-116729896D01*
X108426000Y-116908797D01*
X108426000Y-117091203D01*
X108390415Y-117270104D01*
X108320611Y-117438626D01*
X108219272Y-117590291D01*
X108090291Y-117719272D01*
X107938626Y-117820611D01*
X107770104Y-117890415D01*
X107591203Y-117926000D01*
X107408797Y-117926000D01*
X107229896Y-117890415D01*
X107061374Y-117820611D01*
X106909709Y-117719272D01*
X106780728Y-117590291D01*
X106679389Y-117438626D01*
X106609585Y-117270104D01*
X106574000Y-117091203D01*
X106574000Y-116908797D01*
X106609585Y-116729896D01*
X106679389Y-116561374D01*
X106780728Y-116409709D01*
X106909709Y-116280728D01*
X107061374Y-116179389D01*
X107229896Y-116109585D01*
X107408797Y-116074000D01*
X107591203Y-116074000D01*
X107770104Y-116109585D01*
X107770104Y-116109585D01*
G37*
G36*
X110270104Y-116109585D02*
G01*
X110438626Y-116179389D01*
X110590291Y-116280728D01*
X110719272Y-116409709D01*
X110820611Y-116561374D01*
X110890415Y-116729896D01*
X110926000Y-116908797D01*
X110926000Y-117091203D01*
X110890415Y-117270104D01*
X110820611Y-117438626D01*
X110719272Y-117590291D01*
X110590291Y-117719272D01*
X110438626Y-117820611D01*
X110270104Y-117890415D01*
X110091203Y-117926000D01*
X109908797Y-117926000D01*
X109729896Y-117890415D01*
X109561374Y-117820611D01*
X109409709Y-117719272D01*
X109280728Y-117590291D01*
X109179389Y-117438626D01*
X109109585Y-117270104D01*
X109074000Y-117091203D01*
X109074000Y-116908797D01*
X109109585Y-116729896D01*
X109179389Y-116561374D01*
X109280728Y-116409709D01*
X109409709Y-116280728D01*
X109561374Y-116179389D01*
X109729896Y-116109585D01*
X109908797Y-116074000D01*
X110091203Y-116074000D01*
X110270104Y-116109585D01*
X110270104Y-116109585D01*
G37*
G36*
X112770104Y-116109585D02*
G01*
X112938626Y-116179389D01*
X113090291Y-116280728D01*
X113219272Y-116409709D01*
X113320611Y-116561374D01*
X113390415Y-116729896D01*
X113426000Y-116908797D01*
X113426000Y-117091203D01*
X113390415Y-117270104D01*
X113320611Y-117438626D01*
X113219272Y-117590291D01*
X113090291Y-117719272D01*
X112938626Y-117820611D01*
X112770104Y-117890415D01*
X112591203Y-117926000D01*
X112408797Y-117926000D01*
X112229896Y-117890415D01*
X112061374Y-117820611D01*
X111909709Y-117719272D01*
X111780728Y-117590291D01*
X111679389Y-117438626D01*
X111609585Y-117270104D01*
X111574000Y-117091203D01*
X111574000Y-116908797D01*
X111609585Y-116729896D01*
X111679389Y-116561374D01*
X111780728Y-116409709D01*
X111909709Y-116280728D01*
X112061374Y-116179389D01*
X112229896Y-116109585D01*
X112408797Y-116074000D01*
X112591203Y-116074000D01*
X112770104Y-116109585D01*
X112770104Y-116109585D01*
G37*
G36*
X122926000Y-117926000D02*
G01*
X121074000Y-117926000D01*
X121074000Y-116074000D01*
X122926000Y-116074000D01*
X122926000Y-117926000D01*
X122926000Y-117926000D01*
G37*
G36*
X131719059Y-105817860D02*
G01*
X131855732Y-105874472D01*
X131978735Y-105956660D01*
X132083340Y-106061265D01*
X132083341Y-106061267D01*
X132165529Y-106184270D01*
X132222140Y-106320941D01*
X132251000Y-106466032D01*
X132251000Y-106613968D01*
X132222140Y-106759059D01*
X132167731Y-106890415D01*
X132165528Y-106895732D01*
X132083340Y-107018735D01*
X131978735Y-107123340D01*
X131855732Y-107205528D01*
X131855731Y-107205529D01*
X131855730Y-107205529D01*
X131719059Y-107262140D01*
X131573968Y-107291000D01*
X131426032Y-107291000D01*
X131280941Y-107262140D01*
X131144270Y-107205529D01*
X131144269Y-107205529D01*
X131144268Y-107205528D01*
X131021265Y-107123340D01*
X130916660Y-107018735D01*
X130834472Y-106895732D01*
X130832270Y-106890415D01*
X130777860Y-106759059D01*
X130749000Y-106613968D01*
X130749000Y-106466032D01*
X130777860Y-106320941D01*
X130834471Y-106184270D01*
X130916659Y-106061267D01*
X130916660Y-106061265D01*
X131021265Y-105956660D01*
X131144268Y-105874472D01*
X131280941Y-105817860D01*
X131426032Y-105789000D01*
X131573968Y-105789000D01*
X131719059Y-105817860D01*
X131719059Y-105817860D01*
G37*
G36*
X145270104Y-105109585D02*
G01*
X145438626Y-105179389D01*
X145590291Y-105280728D01*
X145719272Y-105409709D01*
X145820611Y-105561374D01*
X145890415Y-105729896D01*
X145926000Y-105908797D01*
X145926000Y-106091203D01*
X145890415Y-106270104D01*
X145820611Y-106438626D01*
X145719272Y-106590291D01*
X145590291Y-106719272D01*
X145438626Y-106820611D01*
X145270104Y-106890415D01*
X145091203Y-106926000D01*
X144908797Y-106926000D01*
X144729896Y-106890415D01*
X144561374Y-106820611D01*
X144409709Y-106719272D01*
X144280728Y-106590291D01*
X144179389Y-106438626D01*
X144109585Y-106270104D01*
X144074000Y-106091203D01*
X144074000Y-105908797D01*
X144109585Y-105729896D01*
X144179389Y-105561374D01*
X144280728Y-105409709D01*
X144409709Y-105280728D01*
X144561374Y-105179389D01*
X144729896Y-105109585D01*
X144908797Y-105074000D01*
X145091203Y-105074000D01*
X145270104Y-105109585D01*
X145270104Y-105109585D01*
G37*
G36*
X134259059Y-103277860D02*
G01*
X134395732Y-103334472D01*
X134518735Y-103416660D01*
X134623340Y-103521265D01*
X134705528Y-103644268D01*
X134762140Y-103780941D01*
X134791000Y-103926033D01*
X134791000Y-104073967D01*
X134762140Y-104219059D01*
X134705528Y-104355732D01*
X134623340Y-104478735D01*
X134518735Y-104583340D01*
X134395732Y-104665528D01*
X134395731Y-104665529D01*
X134395730Y-104665529D01*
X134259059Y-104722140D01*
X134113968Y-104751000D01*
X133966032Y-104751000D01*
X133820941Y-104722140D01*
X133684270Y-104665529D01*
X133684269Y-104665529D01*
X133684268Y-104665528D01*
X133561265Y-104583340D01*
X133456660Y-104478735D01*
X133374472Y-104355732D01*
X133317860Y-104219059D01*
X133289000Y-104073967D01*
X133289000Y-103926033D01*
X133317860Y-103780941D01*
X133374472Y-103644268D01*
X133456660Y-103521265D01*
X133561265Y-103416660D01*
X133684268Y-103334472D01*
X133820941Y-103277860D01*
X133966032Y-103249000D01*
X134113968Y-103249000D01*
X134259059Y-103277860D01*
X134259059Y-103277860D01*
G37*
G36*
X129711000Y-104751000D02*
G01*
X128209000Y-104751000D01*
X128209000Y-103249000D01*
X129711000Y-103249000D01*
X129711000Y-104751000D01*
X129711000Y-104751000D01*
G37*
G36*
X145926000Y-104426000D02*
G01*
X144074000Y-104426000D01*
X144074000Y-102574000D01*
X145926000Y-102574000D01*
X145926000Y-104426000D01*
X145926000Y-104426000D01*
G37*
G36*
X24664943Y-94566248D02*
G01*
X25220189Y-94796238D01*
X25357188Y-94887778D01*
X25719899Y-95130134D01*
X26144866Y-95555101D01*
X26144867Y-95555103D01*
X26478762Y-96054811D01*
X26708752Y-96610057D01*
X26826000Y-97199501D01*
X26826000Y-97800499D01*
X26708752Y-98389943D01*
X26478762Y-98945189D01*
X26416872Y-99037814D01*
X26144866Y-99444899D01*
X25719899Y-99869866D01*
X25645736Y-99919420D01*
X25220189Y-100203762D01*
X24664943Y-100433752D01*
X24075499Y-100551000D01*
X23474501Y-100551000D01*
X22885057Y-100433752D01*
X22329811Y-100203762D01*
X21904264Y-99919420D01*
X21830101Y-99869866D01*
X21405134Y-99444899D01*
X21133128Y-99037814D01*
X21071238Y-98945189D01*
X20841248Y-98389943D01*
X20724000Y-97800499D01*
X20724000Y-97199501D01*
X20841248Y-96610057D01*
X21071238Y-96054811D01*
X21405133Y-95555103D01*
X21405134Y-95555101D01*
X21830101Y-95130134D01*
X22192812Y-94887778D01*
X22329811Y-94796238D01*
X22885057Y-94566248D01*
X23474501Y-94449000D01*
X24075499Y-94449000D01*
X24664943Y-94566248D01*
X24664943Y-94566248D01*
G37*
G36*
X126864943Y-94566248D02*
G01*
X127420189Y-94796238D01*
X127557188Y-94887778D01*
X127919899Y-95130134D01*
X128344866Y-95555101D01*
X128344867Y-95555103D01*
X128678762Y-96054811D01*
X128908752Y-96610057D01*
X129026000Y-97199501D01*
X129026000Y-97800499D01*
X128908752Y-98389943D01*
X128678762Y-98945189D01*
X128616872Y-99037814D01*
X128344866Y-99444899D01*
X127919899Y-99869866D01*
X127845736Y-99919420D01*
X127420189Y-100203762D01*
X126864943Y-100433752D01*
X126275499Y-100551000D01*
X125674501Y-100551000D01*
X125085057Y-100433752D01*
X124529811Y-100203762D01*
X124104264Y-99919420D01*
X124030101Y-99869866D01*
X123605134Y-99444899D01*
X123333128Y-99037814D01*
X123271238Y-98945189D01*
X123041248Y-98389943D01*
X122924000Y-97800499D01*
X122924000Y-97199501D01*
X123041248Y-96610057D01*
X123271238Y-96054811D01*
X123605133Y-95555103D01*
X123605134Y-95555101D01*
X124030101Y-95130134D01*
X124392812Y-94887778D01*
X124529811Y-94796238D01*
X125085057Y-94566248D01*
X125674501Y-94449000D01*
X126275499Y-94449000D01*
X126864943Y-94566248D01*
X126864943Y-94566248D01*
G37*
G36*
X145270104Y-96109585D02*
G01*
X145438626Y-96179389D01*
X145590291Y-96280728D01*
X145719272Y-96409709D01*
X145820611Y-96561374D01*
X145890415Y-96729896D01*
X145926000Y-96908797D01*
X145926000Y-97091203D01*
X145890415Y-97270104D01*
X145820611Y-97438626D01*
X145719272Y-97590291D01*
X145590291Y-97719272D01*
X145438626Y-97820611D01*
X145270104Y-97890415D01*
X145091203Y-97926000D01*
X144908797Y-97926000D01*
X144729896Y-97890415D01*
X144561374Y-97820611D01*
X144409709Y-97719272D01*
X144280728Y-97590291D01*
X144179389Y-97438626D01*
X144109585Y-97270104D01*
X144074000Y-97091203D01*
X144074000Y-96908797D01*
X144109585Y-96729896D01*
X144179389Y-96561374D01*
X144280728Y-96409709D01*
X144409709Y-96280728D01*
X144561374Y-96179389D01*
X144729896Y-96109585D01*
X144908797Y-96074000D01*
X145091203Y-96074000D01*
X145270104Y-96109585D01*
X145270104Y-96109585D01*
G37*
G36*
X145270104Y-93609585D02*
G01*
X145438626Y-93679389D01*
X145590291Y-93780728D01*
X145719272Y-93909709D01*
X145820611Y-94061374D01*
X145890415Y-94229896D01*
X145926000Y-94408797D01*
X145926000Y-94591203D01*
X145890415Y-94770104D01*
X145820611Y-94938626D01*
X145719272Y-95090291D01*
X145590291Y-95219272D01*
X145438626Y-95320611D01*
X145270104Y-95390415D01*
X145091203Y-95426000D01*
X144908797Y-95426000D01*
X144729896Y-95390415D01*
X144561374Y-95320611D01*
X144409709Y-95219272D01*
X144280728Y-95090291D01*
X144179389Y-94938626D01*
X144109585Y-94770104D01*
X144074000Y-94591203D01*
X144074000Y-94408797D01*
X144109585Y-94229896D01*
X144179389Y-94061374D01*
X144280728Y-93909709D01*
X144409709Y-93780728D01*
X144561374Y-93679389D01*
X144729896Y-93609585D01*
X144908797Y-93574000D01*
X145091203Y-93574000D01*
X145270104Y-93609585D01*
X145270104Y-93609585D01*
G37*
G36*
X32380443Y-93240519D02*
G01*
X32446627Y-93247037D01*
X32616466Y-93298557D01*
X32772991Y-93382222D01*
X32808729Y-93411552D01*
X32910186Y-93494814D01*
X32975171Y-93574000D01*
X33022778Y-93632009D01*
X33106443Y-93788534D01*
X33157963Y-93958373D01*
X33175359Y-94135000D01*
X33157963Y-94311627D01*
X33106443Y-94481466D01*
X33022778Y-94637991D01*
X32993448Y-94673729D01*
X32910186Y-94775186D01*
X32834250Y-94837504D01*
X32772991Y-94887778D01*
X32616466Y-94971443D01*
X32446627Y-95022963D01*
X32380443Y-95029481D01*
X32314260Y-95036000D01*
X32225740Y-95036000D01*
X32159557Y-95029481D01*
X32093373Y-95022963D01*
X31923534Y-94971443D01*
X31767009Y-94887778D01*
X31705750Y-94837504D01*
X31629814Y-94775186D01*
X31546552Y-94673729D01*
X31517222Y-94637991D01*
X31433557Y-94481466D01*
X31382037Y-94311627D01*
X31364641Y-94135000D01*
X31382037Y-93958373D01*
X31433557Y-93788534D01*
X31517222Y-93632009D01*
X31564829Y-93574000D01*
X31629814Y-93494814D01*
X31731271Y-93411552D01*
X31767009Y-93382222D01*
X31923534Y-93298557D01*
X32093373Y-93247037D01*
X32159557Y-93240519D01*
X32225740Y-93234000D01*
X32314260Y-93234000D01*
X32380443Y-93240519D01*
X32380443Y-93240519D01*
G37*
G36*
X29840443Y-93240519D02*
G01*
X29906627Y-93247037D01*
X30076466Y-93298557D01*
X30232991Y-93382222D01*
X30268729Y-93411552D01*
X30370186Y-93494814D01*
X30435171Y-93574000D01*
X30482778Y-93632009D01*
X30566443Y-93788534D01*
X30617963Y-93958373D01*
X30635359Y-94135000D01*
X30617963Y-94311627D01*
X30566443Y-94481466D01*
X30482778Y-94637991D01*
X30453448Y-94673729D01*
X30370186Y-94775186D01*
X30294250Y-94837504D01*
X30232991Y-94887778D01*
X30076466Y-94971443D01*
X29906627Y-95022963D01*
X29840443Y-95029481D01*
X29774260Y-95036000D01*
X29685740Y-95036000D01*
X29619557Y-95029481D01*
X29553373Y-95022963D01*
X29383534Y-94971443D01*
X29227009Y-94887778D01*
X29165750Y-94837504D01*
X29089814Y-94775186D01*
X29006552Y-94673729D01*
X28977222Y-94637991D01*
X28893557Y-94481466D01*
X28842037Y-94311627D01*
X28824641Y-94135000D01*
X28842037Y-93958373D01*
X28893557Y-93788534D01*
X28977222Y-93632009D01*
X29024829Y-93574000D01*
X29089814Y-93494814D01*
X29191271Y-93411552D01*
X29227009Y-93382222D01*
X29383534Y-93298557D01*
X29553373Y-93247037D01*
X29619557Y-93240519D01*
X29685740Y-93234000D01*
X29774260Y-93234000D01*
X29840443Y-93240519D01*
X29840443Y-93240519D01*
G37*
G36*
X145270104Y-91109585D02*
G01*
X145438626Y-91179389D01*
X145590291Y-91280728D01*
X145719272Y-91409709D01*
X145820611Y-91561374D01*
X145890415Y-91729896D01*
X145926000Y-91908797D01*
X145926000Y-92091203D01*
X145890415Y-92270104D01*
X145820611Y-92438626D01*
X145719272Y-92590291D01*
X145590291Y-92719272D01*
X145438626Y-92820611D01*
X145270104Y-92890415D01*
X145091203Y-92926000D01*
X144908797Y-92926000D01*
X144729896Y-92890415D01*
X144561374Y-92820611D01*
X144409709Y-92719272D01*
X144280728Y-92590291D01*
X144179389Y-92438626D01*
X144109585Y-92270104D01*
X144074000Y-92091203D01*
X144074000Y-91908797D01*
X144109585Y-91729896D01*
X144179389Y-91561374D01*
X144280728Y-91409709D01*
X144409709Y-91280728D01*
X144561374Y-91179389D01*
X144729896Y-91109585D01*
X144908797Y-91074000D01*
X145091203Y-91074000D01*
X145270104Y-91109585D01*
X145270104Y-91109585D01*
G37*
G36*
X32380443Y-90700519D02*
G01*
X32446627Y-90707037D01*
X32616466Y-90758557D01*
X32772991Y-90842222D01*
X32808729Y-90871552D01*
X32910186Y-90954814D01*
X32993448Y-91056271D01*
X33022778Y-91092009D01*
X33106443Y-91248534D01*
X33157963Y-91418373D01*
X33175359Y-91595000D01*
X33157963Y-91771627D01*
X33106443Y-91941466D01*
X33022778Y-92097991D01*
X32993448Y-92133729D01*
X32910186Y-92235186D01*
X32808729Y-92318448D01*
X32772991Y-92347778D01*
X32616466Y-92431443D01*
X32446627Y-92482963D01*
X32380442Y-92489482D01*
X32314260Y-92496000D01*
X32225740Y-92496000D01*
X32159558Y-92489482D01*
X32093373Y-92482963D01*
X31923534Y-92431443D01*
X31767009Y-92347778D01*
X31731271Y-92318448D01*
X31629814Y-92235186D01*
X31546552Y-92133729D01*
X31517222Y-92097991D01*
X31433557Y-91941466D01*
X31382037Y-91771627D01*
X31364641Y-91595000D01*
X31382037Y-91418373D01*
X31433557Y-91248534D01*
X31517222Y-91092009D01*
X31546552Y-91056271D01*
X31629814Y-90954814D01*
X31731271Y-90871552D01*
X31767009Y-90842222D01*
X31923534Y-90758557D01*
X32093373Y-90707037D01*
X32159557Y-90700519D01*
X32225740Y-90694000D01*
X32314260Y-90694000D01*
X32380443Y-90700519D01*
X32380443Y-90700519D01*
G37*
G36*
X29840443Y-90700519D02*
G01*
X29906627Y-90707037D01*
X30076466Y-90758557D01*
X30232991Y-90842222D01*
X30268729Y-90871552D01*
X30370186Y-90954814D01*
X30453448Y-91056271D01*
X30482778Y-91092009D01*
X30566443Y-91248534D01*
X30617963Y-91418373D01*
X30635359Y-91595000D01*
X30617963Y-91771627D01*
X30566443Y-91941466D01*
X30482778Y-92097991D01*
X30453448Y-92133729D01*
X30370186Y-92235186D01*
X30268729Y-92318448D01*
X30232991Y-92347778D01*
X30076466Y-92431443D01*
X29906627Y-92482963D01*
X29840442Y-92489482D01*
X29774260Y-92496000D01*
X29685740Y-92496000D01*
X29619558Y-92489482D01*
X29553373Y-92482963D01*
X29383534Y-92431443D01*
X29227009Y-92347778D01*
X29191271Y-92318448D01*
X29089814Y-92235186D01*
X29006552Y-92133729D01*
X28977222Y-92097991D01*
X28893557Y-91941466D01*
X28842037Y-91771627D01*
X28824641Y-91595000D01*
X28842037Y-91418373D01*
X28893557Y-91248534D01*
X28977222Y-91092009D01*
X29006552Y-91056271D01*
X29089814Y-90954814D01*
X29191271Y-90871552D01*
X29227009Y-90842222D01*
X29383534Y-90758557D01*
X29553373Y-90707037D01*
X29619557Y-90700519D01*
X29685740Y-90694000D01*
X29774260Y-90694000D01*
X29840443Y-90700519D01*
X29840443Y-90700519D01*
G37*
G36*
X145270104Y-88609585D02*
G01*
X145438626Y-88679389D01*
X145590291Y-88780728D01*
X145719272Y-88909709D01*
X145820611Y-89061374D01*
X145890415Y-89229896D01*
X145926000Y-89408797D01*
X145926000Y-89591203D01*
X145890415Y-89770104D01*
X145820611Y-89938626D01*
X145719272Y-90090291D01*
X145590291Y-90219272D01*
X145438626Y-90320611D01*
X145270104Y-90390415D01*
X145091203Y-90426000D01*
X144908797Y-90426000D01*
X144729896Y-90390415D01*
X144561374Y-90320611D01*
X144409709Y-90219272D01*
X144280728Y-90090291D01*
X144179389Y-89938626D01*
X144109585Y-89770104D01*
X144074000Y-89591203D01*
X144074000Y-89408797D01*
X144109585Y-89229896D01*
X144179389Y-89061374D01*
X144280728Y-88909709D01*
X144409709Y-88780728D01*
X144561374Y-88679389D01*
X144729896Y-88609585D01*
X144908797Y-88574000D01*
X145091203Y-88574000D01*
X145270104Y-88609585D01*
X145270104Y-88609585D01*
G37*
G36*
X29840442Y-88160518D02*
G01*
X29906627Y-88167037D01*
X30076466Y-88218557D01*
X30232991Y-88302222D01*
X30268729Y-88331552D01*
X30370186Y-88414814D01*
X30453448Y-88516271D01*
X30482778Y-88552009D01*
X30566443Y-88708534D01*
X30617963Y-88878373D01*
X30635359Y-89055000D01*
X30617963Y-89231627D01*
X30566443Y-89401466D01*
X30566442Y-89401468D01*
X30524611Y-89479728D01*
X30482778Y-89557991D01*
X30455521Y-89591203D01*
X30370186Y-89695186D01*
X30278898Y-89770103D01*
X30232991Y-89807778D01*
X30076466Y-89891443D01*
X29906627Y-89942963D01*
X29840443Y-89949481D01*
X29774260Y-89956000D01*
X29685740Y-89956000D01*
X29619557Y-89949481D01*
X29553373Y-89942963D01*
X29383534Y-89891443D01*
X29227009Y-89807778D01*
X29181102Y-89770103D01*
X29089814Y-89695186D01*
X29004479Y-89591203D01*
X28977222Y-89557991D01*
X28935389Y-89479728D01*
X28893558Y-89401468D01*
X28893557Y-89401466D01*
X28842037Y-89231627D01*
X28824641Y-89055000D01*
X28842037Y-88878373D01*
X28893557Y-88708534D01*
X28977222Y-88552009D01*
X29006552Y-88516271D01*
X29089814Y-88414814D01*
X29191271Y-88331552D01*
X29227009Y-88302222D01*
X29383534Y-88218557D01*
X29553373Y-88167037D01*
X29619558Y-88160518D01*
X29685740Y-88154000D01*
X29774260Y-88154000D01*
X29840442Y-88160518D01*
X29840442Y-88160518D01*
G37*
G36*
X32380442Y-88160518D02*
G01*
X32446627Y-88167037D01*
X32616466Y-88218557D01*
X32772991Y-88302222D01*
X32808729Y-88331552D01*
X32910186Y-88414814D01*
X32993448Y-88516271D01*
X33022778Y-88552009D01*
X33106443Y-88708534D01*
X33157963Y-88878373D01*
X33175359Y-89055000D01*
X33157963Y-89231627D01*
X33106443Y-89401466D01*
X33106442Y-89401468D01*
X33064611Y-89479728D01*
X33022778Y-89557991D01*
X32995521Y-89591203D01*
X32910186Y-89695186D01*
X32818898Y-89770103D01*
X32772991Y-89807778D01*
X32616466Y-89891443D01*
X32446627Y-89942963D01*
X32380443Y-89949481D01*
X32314260Y-89956000D01*
X32225740Y-89956000D01*
X32159557Y-89949481D01*
X32093373Y-89942963D01*
X31923534Y-89891443D01*
X31767009Y-89807778D01*
X31721102Y-89770103D01*
X31629814Y-89695186D01*
X31544479Y-89591203D01*
X31517222Y-89557991D01*
X31475389Y-89479728D01*
X31433558Y-89401468D01*
X31433557Y-89401466D01*
X31382037Y-89231627D01*
X31364641Y-89055000D01*
X31382037Y-88878373D01*
X31433557Y-88708534D01*
X31517222Y-88552009D01*
X31546552Y-88516271D01*
X31629814Y-88414814D01*
X31731271Y-88331552D01*
X31767009Y-88302222D01*
X31923534Y-88218557D01*
X32093373Y-88167037D01*
X32159558Y-88160518D01*
X32225740Y-88154000D01*
X32314260Y-88154000D01*
X32380442Y-88160518D01*
X32380442Y-88160518D01*
G37*
G36*
X145270104Y-86109585D02*
G01*
X145438626Y-86179389D01*
X145590291Y-86280728D01*
X145719272Y-86409709D01*
X145820611Y-86561374D01*
X145890415Y-86729896D01*
X145926000Y-86908797D01*
X145926000Y-87091203D01*
X145890415Y-87270104D01*
X145820611Y-87438626D01*
X145719272Y-87590291D01*
X145590291Y-87719272D01*
X145438626Y-87820611D01*
X145270104Y-87890415D01*
X145091203Y-87926000D01*
X144908797Y-87926000D01*
X144729896Y-87890415D01*
X144561374Y-87820611D01*
X144409709Y-87719272D01*
X144280728Y-87590291D01*
X144179389Y-87438626D01*
X144109585Y-87270104D01*
X144074000Y-87091203D01*
X144074000Y-86908797D01*
X144109585Y-86729896D01*
X144179389Y-86561374D01*
X144280728Y-86409709D01*
X144409709Y-86280728D01*
X144561374Y-86179389D01*
X144729896Y-86109585D01*
X144908797Y-86074000D01*
X145091203Y-86074000D01*
X145270104Y-86109585D01*
X145270104Y-86109585D01*
G37*
G36*
X32380442Y-85620518D02*
G01*
X32446627Y-85627037D01*
X32616466Y-85678557D01*
X32772991Y-85762222D01*
X32808729Y-85791552D01*
X32910186Y-85874814D01*
X32993448Y-85976271D01*
X33022778Y-86012009D01*
X33106443Y-86168534D01*
X33157963Y-86338373D01*
X33175359Y-86515000D01*
X33157963Y-86691627D01*
X33106443Y-86861466D01*
X33022778Y-87017991D01*
X32993448Y-87053729D01*
X32910186Y-87155186D01*
X32808729Y-87238448D01*
X32772991Y-87267778D01*
X32616466Y-87351443D01*
X32446627Y-87402963D01*
X32380442Y-87409482D01*
X32314260Y-87416000D01*
X32225740Y-87416000D01*
X32159558Y-87409482D01*
X32093373Y-87402963D01*
X31923534Y-87351443D01*
X31767009Y-87267778D01*
X31731271Y-87238448D01*
X31629814Y-87155186D01*
X31546552Y-87053729D01*
X31517222Y-87017991D01*
X31433557Y-86861466D01*
X31382037Y-86691627D01*
X31364641Y-86515000D01*
X31382037Y-86338373D01*
X31433557Y-86168534D01*
X31517222Y-86012009D01*
X31546552Y-85976271D01*
X31629814Y-85874814D01*
X31731271Y-85791552D01*
X31767009Y-85762222D01*
X31923534Y-85678557D01*
X32093373Y-85627037D01*
X32159558Y-85620518D01*
X32225740Y-85614000D01*
X32314260Y-85614000D01*
X32380442Y-85620518D01*
X32380442Y-85620518D01*
G37*
G36*
X29840442Y-85620518D02*
G01*
X29906627Y-85627037D01*
X30076466Y-85678557D01*
X30232991Y-85762222D01*
X30268729Y-85791552D01*
X30370186Y-85874814D01*
X30453448Y-85976271D01*
X30482778Y-86012009D01*
X30566443Y-86168534D01*
X30617963Y-86338373D01*
X30635359Y-86515000D01*
X30617963Y-86691627D01*
X30566443Y-86861466D01*
X30482778Y-87017991D01*
X30453448Y-87053729D01*
X30370186Y-87155186D01*
X30268729Y-87238448D01*
X30232991Y-87267778D01*
X30076466Y-87351443D01*
X29906627Y-87402963D01*
X29840442Y-87409482D01*
X29774260Y-87416000D01*
X29685740Y-87416000D01*
X29619558Y-87409482D01*
X29553373Y-87402963D01*
X29383534Y-87351443D01*
X29227009Y-87267778D01*
X29191271Y-87238448D01*
X29089814Y-87155186D01*
X29006552Y-87053729D01*
X28977222Y-87017991D01*
X28893557Y-86861466D01*
X28842037Y-86691627D01*
X28824641Y-86515000D01*
X28842037Y-86338373D01*
X28893557Y-86168534D01*
X28977222Y-86012009D01*
X29006552Y-85976271D01*
X29089814Y-85874814D01*
X29191271Y-85791552D01*
X29227009Y-85762222D01*
X29383534Y-85678557D01*
X29553373Y-85627037D01*
X29619558Y-85620518D01*
X29685740Y-85614000D01*
X29774260Y-85614000D01*
X29840442Y-85620518D01*
X29840442Y-85620518D01*
G37*
G36*
X145926000Y-85426000D02*
G01*
X144074000Y-85426000D01*
X144074000Y-83574000D01*
X145926000Y-83574000D01*
X145926000Y-85426000D01*
X145926000Y-85426000D01*
G37*
G36*
X32380443Y-83080519D02*
G01*
X32446627Y-83087037D01*
X32616466Y-83138557D01*
X32772991Y-83222222D01*
X32808729Y-83251552D01*
X32910186Y-83334814D01*
X32993448Y-83436271D01*
X33022778Y-83472009D01*
X33106443Y-83628534D01*
X33157963Y-83798373D01*
X33175359Y-83975000D01*
X33157963Y-84151627D01*
X33106443Y-84321466D01*
X33022778Y-84477991D01*
X32993448Y-84513729D01*
X32910186Y-84615186D01*
X32808729Y-84698448D01*
X32772991Y-84727778D01*
X32616466Y-84811443D01*
X32446627Y-84862963D01*
X32380443Y-84869481D01*
X32314260Y-84876000D01*
X32225740Y-84876000D01*
X32159557Y-84869481D01*
X32093373Y-84862963D01*
X31923534Y-84811443D01*
X31767009Y-84727778D01*
X31731271Y-84698448D01*
X31629814Y-84615186D01*
X31546552Y-84513729D01*
X31517222Y-84477991D01*
X31433557Y-84321466D01*
X31382037Y-84151627D01*
X31364641Y-83975000D01*
X31382037Y-83798373D01*
X31433557Y-83628534D01*
X31517222Y-83472009D01*
X31546552Y-83436271D01*
X31629814Y-83334814D01*
X31731271Y-83251552D01*
X31767009Y-83222222D01*
X31923534Y-83138557D01*
X32093373Y-83087037D01*
X32159557Y-83080519D01*
X32225740Y-83074000D01*
X32314260Y-83074000D01*
X32380443Y-83080519D01*
X32380443Y-83080519D01*
G37*
G36*
X29840443Y-83080519D02*
G01*
X29906627Y-83087037D01*
X30076466Y-83138557D01*
X30232991Y-83222222D01*
X30268729Y-83251552D01*
X30370186Y-83334814D01*
X30453448Y-83436271D01*
X30482778Y-83472009D01*
X30566443Y-83628534D01*
X30617963Y-83798373D01*
X30635359Y-83975000D01*
X30617963Y-84151627D01*
X30566443Y-84321466D01*
X30482778Y-84477991D01*
X30453448Y-84513729D01*
X30370186Y-84615186D01*
X30268729Y-84698448D01*
X30232991Y-84727778D01*
X30076466Y-84811443D01*
X29906627Y-84862963D01*
X29840443Y-84869481D01*
X29774260Y-84876000D01*
X29685740Y-84876000D01*
X29619557Y-84869481D01*
X29553373Y-84862963D01*
X29383534Y-84811443D01*
X29227009Y-84727778D01*
X29191271Y-84698448D01*
X29089814Y-84615186D01*
X29006552Y-84513729D01*
X28977222Y-84477991D01*
X28893557Y-84321466D01*
X28842037Y-84151627D01*
X28824641Y-83975000D01*
X28842037Y-83798373D01*
X28893557Y-83628534D01*
X28977222Y-83472009D01*
X29006552Y-83436271D01*
X29089814Y-83334814D01*
X29191271Y-83251552D01*
X29227009Y-83222222D01*
X29383534Y-83138557D01*
X29553373Y-83087037D01*
X29619557Y-83080519D01*
X29685740Y-83074000D01*
X29774260Y-83074000D01*
X29840443Y-83080519D01*
X29840443Y-83080519D01*
G37*
G36*
X29840443Y-80540519D02*
G01*
X29906627Y-80547037D01*
X30076466Y-80598557D01*
X30232991Y-80682222D01*
X30268729Y-80711552D01*
X30370186Y-80794814D01*
X30453448Y-80896271D01*
X30482778Y-80932009D01*
X30566443Y-81088534D01*
X30617963Y-81258373D01*
X30635359Y-81435000D01*
X30617963Y-81611627D01*
X30566443Y-81781466D01*
X30482778Y-81937991D01*
X30453448Y-81973729D01*
X30370186Y-82075186D01*
X30268729Y-82158448D01*
X30232991Y-82187778D01*
X30076466Y-82271443D01*
X29906627Y-82322963D01*
X29840443Y-82329481D01*
X29774260Y-82336000D01*
X29685740Y-82336000D01*
X29619557Y-82329481D01*
X29553373Y-82322963D01*
X29383534Y-82271443D01*
X29227009Y-82187778D01*
X29191271Y-82158448D01*
X29089814Y-82075186D01*
X29006552Y-81973729D01*
X28977222Y-81937991D01*
X28893557Y-81781466D01*
X28842037Y-81611627D01*
X28824641Y-81435000D01*
X28842037Y-81258373D01*
X28893557Y-81088534D01*
X28977222Y-80932009D01*
X29006552Y-80896271D01*
X29089814Y-80794814D01*
X29191271Y-80711552D01*
X29227009Y-80682222D01*
X29383534Y-80598557D01*
X29553373Y-80547037D01*
X29619557Y-80540519D01*
X29685740Y-80534000D01*
X29774260Y-80534000D01*
X29840443Y-80540519D01*
X29840443Y-80540519D01*
G37*
G36*
X32380443Y-80540519D02*
G01*
X32446627Y-80547037D01*
X32616466Y-80598557D01*
X32772991Y-80682222D01*
X32808729Y-80711552D01*
X32910186Y-80794814D01*
X32993448Y-80896271D01*
X33022778Y-80932009D01*
X33106443Y-81088534D01*
X33157963Y-81258373D01*
X33175359Y-81435000D01*
X33157963Y-81611627D01*
X33106443Y-81781466D01*
X33022778Y-81937991D01*
X32993448Y-81973729D01*
X32910186Y-82075186D01*
X32808729Y-82158448D01*
X32772991Y-82187778D01*
X32616466Y-82271443D01*
X32446627Y-82322963D01*
X32380443Y-82329481D01*
X32314260Y-82336000D01*
X32225740Y-82336000D01*
X32159557Y-82329481D01*
X32093373Y-82322963D01*
X31923534Y-82271443D01*
X31767009Y-82187778D01*
X31731271Y-82158448D01*
X31629814Y-82075186D01*
X31546552Y-81973729D01*
X31517222Y-81937991D01*
X31433557Y-81781466D01*
X31382037Y-81611627D01*
X31364641Y-81435000D01*
X31382037Y-81258373D01*
X31433557Y-81088534D01*
X31517222Y-80932009D01*
X31546552Y-80896271D01*
X31629814Y-80794814D01*
X31731271Y-80711552D01*
X31767009Y-80682222D01*
X31923534Y-80598557D01*
X32093373Y-80547037D01*
X32159557Y-80540519D01*
X32225740Y-80534000D01*
X32314260Y-80534000D01*
X32380443Y-80540519D01*
X32380443Y-80540519D01*
G37*
G36*
X29840442Y-78000518D02*
G01*
X29906627Y-78007037D01*
X30076466Y-78058557D01*
X30232991Y-78142222D01*
X30268729Y-78171552D01*
X30370186Y-78254814D01*
X30453448Y-78356271D01*
X30482778Y-78392009D01*
X30566443Y-78548534D01*
X30617963Y-78718373D01*
X30635359Y-78895000D01*
X30617963Y-79071627D01*
X30566443Y-79241466D01*
X30482778Y-79397991D01*
X30453448Y-79433729D01*
X30370186Y-79535186D01*
X30268729Y-79618448D01*
X30232991Y-79647778D01*
X30076466Y-79731443D01*
X29906627Y-79782963D01*
X29840443Y-79789481D01*
X29774260Y-79796000D01*
X29685740Y-79796000D01*
X29619557Y-79789481D01*
X29553373Y-79782963D01*
X29383534Y-79731443D01*
X29227009Y-79647778D01*
X29191271Y-79618448D01*
X29089814Y-79535186D01*
X29006552Y-79433729D01*
X28977222Y-79397991D01*
X28893557Y-79241466D01*
X28842037Y-79071627D01*
X28824641Y-78895000D01*
X28842037Y-78718373D01*
X28893557Y-78548534D01*
X28977222Y-78392009D01*
X29006552Y-78356271D01*
X29089814Y-78254814D01*
X29191271Y-78171552D01*
X29227009Y-78142222D01*
X29383534Y-78058557D01*
X29553373Y-78007037D01*
X29619558Y-78000518D01*
X29685740Y-77994000D01*
X29774260Y-77994000D01*
X29840442Y-78000518D01*
X29840442Y-78000518D01*
G37*
G36*
X32380442Y-78000518D02*
G01*
X32446627Y-78007037D01*
X32616466Y-78058557D01*
X32772991Y-78142222D01*
X32808729Y-78171552D01*
X32910186Y-78254814D01*
X32993448Y-78356271D01*
X33022778Y-78392009D01*
X33106443Y-78548534D01*
X33157963Y-78718373D01*
X33175359Y-78895000D01*
X33157963Y-79071627D01*
X33106443Y-79241466D01*
X33022778Y-79397991D01*
X32993448Y-79433729D01*
X32910186Y-79535186D01*
X32808729Y-79618448D01*
X32772991Y-79647778D01*
X32616466Y-79731443D01*
X32446627Y-79782963D01*
X32380443Y-79789481D01*
X32314260Y-79796000D01*
X32225740Y-79796000D01*
X32159557Y-79789481D01*
X32093373Y-79782963D01*
X31923534Y-79731443D01*
X31767009Y-79647778D01*
X31731271Y-79618448D01*
X31629814Y-79535186D01*
X31546552Y-79433729D01*
X31517222Y-79397991D01*
X31433557Y-79241466D01*
X31382037Y-79071627D01*
X31364641Y-78895000D01*
X31382037Y-78718373D01*
X31433557Y-78548534D01*
X31517222Y-78392009D01*
X31546552Y-78356271D01*
X31629814Y-78254814D01*
X31731271Y-78171552D01*
X31767009Y-78142222D01*
X31923534Y-78058557D01*
X32093373Y-78007037D01*
X32159558Y-78000518D01*
X32225740Y-77994000D01*
X32314260Y-77994000D01*
X32380442Y-78000518D01*
X32380442Y-78000518D01*
G37*
G36*
X145270104Y-77109585D02*
G01*
X145438626Y-77179389D01*
X145590291Y-77280728D01*
X145719272Y-77409709D01*
X145820611Y-77561374D01*
X145890415Y-77729896D01*
X145926000Y-77908797D01*
X145926000Y-78091203D01*
X145890415Y-78270104D01*
X145820611Y-78438626D01*
X145719272Y-78590291D01*
X145590291Y-78719272D01*
X145438626Y-78820611D01*
X145270104Y-78890415D01*
X145091203Y-78926000D01*
X144908797Y-78926000D01*
X144729896Y-78890415D01*
X144561374Y-78820611D01*
X144409709Y-78719272D01*
X144280728Y-78590291D01*
X144179389Y-78438626D01*
X144109585Y-78270104D01*
X144074000Y-78091203D01*
X144074000Y-77908797D01*
X144109585Y-77729896D01*
X144179389Y-77561374D01*
X144280728Y-77409709D01*
X144409709Y-77280728D01*
X144561374Y-77179389D01*
X144729896Y-77109585D01*
X144908797Y-77074000D01*
X145091203Y-77074000D01*
X145270104Y-77109585D01*
X145270104Y-77109585D01*
G37*
G36*
X29840442Y-75460518D02*
G01*
X29906627Y-75467037D01*
X30076466Y-75518557D01*
X30232991Y-75602222D01*
X30268729Y-75631552D01*
X30370186Y-75714814D01*
X30453448Y-75816271D01*
X30482778Y-75852009D01*
X30566443Y-76008534D01*
X30617963Y-76178373D01*
X30635359Y-76355000D01*
X30617963Y-76531627D01*
X30566443Y-76701466D01*
X30482778Y-76857991D01*
X30453448Y-76893729D01*
X30370186Y-76995186D01*
X30274149Y-77074000D01*
X30232991Y-77107778D01*
X30076466Y-77191443D01*
X29906627Y-77242963D01*
X29840442Y-77249482D01*
X29774260Y-77256000D01*
X29685740Y-77256000D01*
X29619558Y-77249482D01*
X29553373Y-77242963D01*
X29383534Y-77191443D01*
X29227009Y-77107778D01*
X29185851Y-77074000D01*
X29089814Y-76995186D01*
X29006552Y-76893729D01*
X28977222Y-76857991D01*
X28893557Y-76701466D01*
X28842037Y-76531627D01*
X28824641Y-76355000D01*
X28842037Y-76178373D01*
X28893557Y-76008534D01*
X28977222Y-75852009D01*
X29006552Y-75816271D01*
X29089814Y-75714814D01*
X29191271Y-75631552D01*
X29227009Y-75602222D01*
X29383534Y-75518557D01*
X29553373Y-75467037D01*
X29619558Y-75460518D01*
X29685740Y-75454000D01*
X29774260Y-75454000D01*
X29840442Y-75460518D01*
X29840442Y-75460518D01*
G37*
G36*
X32380442Y-75460518D02*
G01*
X32446627Y-75467037D01*
X32616466Y-75518557D01*
X32772991Y-75602222D01*
X32808729Y-75631552D01*
X32910186Y-75714814D01*
X32993448Y-75816271D01*
X33022778Y-75852009D01*
X33106443Y-76008534D01*
X33157963Y-76178373D01*
X33175359Y-76355000D01*
X33157963Y-76531627D01*
X33106443Y-76701466D01*
X33022778Y-76857991D01*
X32993448Y-76893729D01*
X32910186Y-76995186D01*
X32814149Y-77074000D01*
X32772991Y-77107778D01*
X32616466Y-77191443D01*
X32446627Y-77242963D01*
X32380442Y-77249482D01*
X32314260Y-77256000D01*
X32225740Y-77256000D01*
X32159558Y-77249482D01*
X32093373Y-77242963D01*
X31923534Y-77191443D01*
X31767009Y-77107778D01*
X31725851Y-77074000D01*
X31629814Y-76995186D01*
X31546552Y-76893729D01*
X31517222Y-76857991D01*
X31433557Y-76701466D01*
X31382037Y-76531627D01*
X31364641Y-76355000D01*
X31382037Y-76178373D01*
X31433557Y-76008534D01*
X31517222Y-75852009D01*
X31546552Y-75816271D01*
X31629814Y-75714814D01*
X31731271Y-75631552D01*
X31767009Y-75602222D01*
X31923534Y-75518557D01*
X32093373Y-75467037D01*
X32159558Y-75460518D01*
X32225740Y-75454000D01*
X32314260Y-75454000D01*
X32380442Y-75460518D01*
X32380442Y-75460518D01*
G37*
G36*
X145270104Y-74609585D02*
G01*
X145438626Y-74679389D01*
X145590291Y-74780728D01*
X145719272Y-74909709D01*
X145820611Y-75061374D01*
X145890415Y-75229896D01*
X145926000Y-75408797D01*
X145926000Y-75591203D01*
X145890415Y-75770104D01*
X145820611Y-75938626D01*
X145719272Y-76090291D01*
X145590291Y-76219272D01*
X145438626Y-76320611D01*
X145270104Y-76390415D01*
X145091203Y-76426000D01*
X144908797Y-76426000D01*
X144729896Y-76390415D01*
X144561374Y-76320611D01*
X144409709Y-76219272D01*
X144280728Y-76090291D01*
X144179389Y-75938626D01*
X144109585Y-75770104D01*
X144074000Y-75591203D01*
X144074000Y-75408797D01*
X144109585Y-75229896D01*
X144179389Y-75061374D01*
X144280728Y-74909709D01*
X144409709Y-74780728D01*
X144561374Y-74679389D01*
X144729896Y-74609585D01*
X144908797Y-74574000D01*
X145091203Y-74574000D01*
X145270104Y-74609585D01*
X145270104Y-74609585D01*
G37*
G36*
X29840443Y-72920519D02*
G01*
X29906627Y-72927037D01*
X30076466Y-72978557D01*
X30232991Y-73062222D01*
X30268304Y-73091203D01*
X30370186Y-73174814D01*
X30448387Y-73270104D01*
X30482778Y-73312009D01*
X30566443Y-73468534D01*
X30617963Y-73638373D01*
X30635359Y-73815000D01*
X30617963Y-73991627D01*
X30566443Y-74161466D01*
X30482778Y-74317991D01*
X30453448Y-74353729D01*
X30370186Y-74455186D01*
X30268729Y-74538448D01*
X30232991Y-74567778D01*
X30076466Y-74651443D01*
X29906627Y-74702963D01*
X29840442Y-74709482D01*
X29774260Y-74716000D01*
X29685740Y-74716000D01*
X29619558Y-74709482D01*
X29553373Y-74702963D01*
X29383534Y-74651443D01*
X29227009Y-74567778D01*
X29191271Y-74538448D01*
X29089814Y-74455186D01*
X29006552Y-74353729D01*
X28977222Y-74317991D01*
X28893557Y-74161466D01*
X28842037Y-73991627D01*
X28824641Y-73815000D01*
X28842037Y-73638373D01*
X28893557Y-73468534D01*
X28977222Y-73312009D01*
X29011613Y-73270104D01*
X29089814Y-73174814D01*
X29191696Y-73091203D01*
X29227009Y-73062222D01*
X29383534Y-72978557D01*
X29553373Y-72927037D01*
X29619557Y-72920519D01*
X29685740Y-72914000D01*
X29774260Y-72914000D01*
X29840443Y-72920519D01*
X29840443Y-72920519D01*
G37*
G36*
X32380443Y-72920519D02*
G01*
X32446627Y-72927037D01*
X32616466Y-72978557D01*
X32772991Y-73062222D01*
X32808304Y-73091203D01*
X32910186Y-73174814D01*
X32988387Y-73270104D01*
X33022778Y-73312009D01*
X33106443Y-73468534D01*
X33157963Y-73638373D01*
X33175359Y-73815000D01*
X33157963Y-73991627D01*
X33106443Y-74161466D01*
X33022778Y-74317991D01*
X32993448Y-74353729D01*
X32910186Y-74455186D01*
X32808729Y-74538448D01*
X32772991Y-74567778D01*
X32616466Y-74651443D01*
X32446627Y-74702963D01*
X32380442Y-74709482D01*
X32314260Y-74716000D01*
X32225740Y-74716000D01*
X32159558Y-74709482D01*
X32093373Y-74702963D01*
X31923534Y-74651443D01*
X31767009Y-74567778D01*
X31731271Y-74538448D01*
X31629814Y-74455186D01*
X31546552Y-74353729D01*
X31517222Y-74317991D01*
X31433557Y-74161466D01*
X31382037Y-73991627D01*
X31364641Y-73815000D01*
X31382037Y-73638373D01*
X31433557Y-73468534D01*
X31517222Y-73312009D01*
X31551613Y-73270104D01*
X31629814Y-73174814D01*
X31731696Y-73091203D01*
X31767009Y-73062222D01*
X31923534Y-72978557D01*
X32093373Y-72927037D01*
X32159557Y-72920519D01*
X32225740Y-72914000D01*
X32314260Y-72914000D01*
X32380443Y-72920519D01*
X32380443Y-72920519D01*
G37*
G36*
X145270104Y-72109585D02*
G01*
X145438626Y-72179389D01*
X145590291Y-72280728D01*
X145719272Y-72409709D01*
X145820611Y-72561374D01*
X145890415Y-72729896D01*
X145926000Y-72908797D01*
X145926000Y-73091203D01*
X145890415Y-73270104D01*
X145820611Y-73438626D01*
X145719272Y-73590291D01*
X145590291Y-73719272D01*
X145438626Y-73820611D01*
X145270104Y-73890415D01*
X145091203Y-73926000D01*
X144908797Y-73926000D01*
X144729896Y-73890415D01*
X144561374Y-73820611D01*
X144409709Y-73719272D01*
X144280728Y-73590291D01*
X144179389Y-73438626D01*
X144109585Y-73270104D01*
X144074000Y-73091203D01*
X144074000Y-72908797D01*
X144109585Y-72729896D01*
X144179389Y-72561374D01*
X144280728Y-72409709D01*
X144409709Y-72280728D01*
X144561374Y-72179389D01*
X144729896Y-72109585D01*
X144908797Y-72074000D01*
X145091203Y-72074000D01*
X145270104Y-72109585D01*
X145270104Y-72109585D01*
G37*
G36*
X32380442Y-70380518D02*
G01*
X32446627Y-70387037D01*
X32616466Y-70438557D01*
X32772991Y-70522222D01*
X32808729Y-70551552D01*
X32910186Y-70634814D01*
X32993448Y-70736271D01*
X33022778Y-70772009D01*
X33106443Y-70928534D01*
X33157963Y-71098373D01*
X33175359Y-71275000D01*
X33157963Y-71451627D01*
X33106443Y-71621466D01*
X33022778Y-71777991D01*
X32993448Y-71813729D01*
X32910186Y-71915186D01*
X32808729Y-71998448D01*
X32772991Y-72027778D01*
X32616466Y-72111443D01*
X32446627Y-72162963D01*
X32380443Y-72169481D01*
X32314260Y-72176000D01*
X32225740Y-72176000D01*
X32159557Y-72169481D01*
X32093373Y-72162963D01*
X31923534Y-72111443D01*
X31767009Y-72027778D01*
X31731271Y-71998448D01*
X31629814Y-71915186D01*
X31546552Y-71813729D01*
X31517222Y-71777991D01*
X31433557Y-71621466D01*
X31382037Y-71451627D01*
X31364641Y-71275000D01*
X31382037Y-71098373D01*
X31433557Y-70928534D01*
X31517222Y-70772009D01*
X31546552Y-70736271D01*
X31629814Y-70634814D01*
X31731271Y-70551552D01*
X31767009Y-70522222D01*
X31923534Y-70438557D01*
X32093373Y-70387037D01*
X32159558Y-70380518D01*
X32225740Y-70374000D01*
X32314260Y-70374000D01*
X32380442Y-70380518D01*
X32380442Y-70380518D01*
G37*
G36*
X29840442Y-70380518D02*
G01*
X29906627Y-70387037D01*
X30076466Y-70438557D01*
X30232991Y-70522222D01*
X30268729Y-70551552D01*
X30370186Y-70634814D01*
X30453448Y-70736271D01*
X30482778Y-70772009D01*
X30566443Y-70928534D01*
X30617963Y-71098373D01*
X30635359Y-71275000D01*
X30617963Y-71451627D01*
X30566443Y-71621466D01*
X30482778Y-71777991D01*
X30453448Y-71813729D01*
X30370186Y-71915186D01*
X30268729Y-71998448D01*
X30232991Y-72027778D01*
X30076466Y-72111443D01*
X29906627Y-72162963D01*
X29840443Y-72169481D01*
X29774260Y-72176000D01*
X29685740Y-72176000D01*
X29619557Y-72169481D01*
X29553373Y-72162963D01*
X29383534Y-72111443D01*
X29227009Y-72027778D01*
X29191271Y-71998448D01*
X29089814Y-71915186D01*
X29006552Y-71813729D01*
X28977222Y-71777991D01*
X28893557Y-71621466D01*
X28842037Y-71451627D01*
X28824641Y-71275000D01*
X28842037Y-71098373D01*
X28893557Y-70928534D01*
X28977222Y-70772009D01*
X29006552Y-70736271D01*
X29089814Y-70634814D01*
X29191271Y-70551552D01*
X29227009Y-70522222D01*
X29383534Y-70438557D01*
X29553373Y-70387037D01*
X29619558Y-70380518D01*
X29685740Y-70374000D01*
X29774260Y-70374000D01*
X29840442Y-70380518D01*
X29840442Y-70380518D01*
G37*
G36*
X145270104Y-69609585D02*
G01*
X145438626Y-69679389D01*
X145590291Y-69780728D01*
X145719272Y-69909709D01*
X145820611Y-70061374D01*
X145890415Y-70229896D01*
X145926000Y-70408797D01*
X145926000Y-70591203D01*
X145890415Y-70770104D01*
X145820611Y-70938626D01*
X145719272Y-71090291D01*
X145590291Y-71219272D01*
X145438626Y-71320611D01*
X145270104Y-71390415D01*
X145091203Y-71426000D01*
X144908797Y-71426000D01*
X144729896Y-71390415D01*
X144561374Y-71320611D01*
X144409709Y-71219272D01*
X144280728Y-71090291D01*
X144179389Y-70938626D01*
X144109585Y-70770104D01*
X144074000Y-70591203D01*
X144074000Y-70408797D01*
X144109585Y-70229896D01*
X144179389Y-70061374D01*
X144280728Y-69909709D01*
X144409709Y-69780728D01*
X144561374Y-69679389D01*
X144729896Y-69609585D01*
X144908797Y-69574000D01*
X145091203Y-69574000D01*
X145270104Y-69609585D01*
X145270104Y-69609585D01*
G37*
G36*
X32380443Y-67840519D02*
G01*
X32446627Y-67847037D01*
X32616466Y-67898557D01*
X32772991Y-67982222D01*
X32808729Y-68011552D01*
X32910186Y-68094814D01*
X32993448Y-68196271D01*
X33022778Y-68232009D01*
X33106443Y-68388534D01*
X33157963Y-68558373D01*
X33175359Y-68735000D01*
X33157963Y-68911627D01*
X33106443Y-69081466D01*
X33022778Y-69237991D01*
X32993448Y-69273729D01*
X32910186Y-69375186D01*
X32808729Y-69458448D01*
X32772991Y-69487778D01*
X32616466Y-69571443D01*
X32446627Y-69622963D01*
X32380442Y-69629482D01*
X32314260Y-69636000D01*
X32225740Y-69636000D01*
X32159558Y-69629482D01*
X32093373Y-69622963D01*
X31923534Y-69571443D01*
X31767009Y-69487778D01*
X31731271Y-69458448D01*
X31629814Y-69375186D01*
X31546552Y-69273729D01*
X31517222Y-69237991D01*
X31433557Y-69081466D01*
X31382037Y-68911627D01*
X31364641Y-68735000D01*
X31382037Y-68558373D01*
X31433557Y-68388534D01*
X31517222Y-68232009D01*
X31546552Y-68196271D01*
X31629814Y-68094814D01*
X31731271Y-68011552D01*
X31767009Y-67982222D01*
X31923534Y-67898557D01*
X32093373Y-67847037D01*
X32159557Y-67840519D01*
X32225740Y-67834000D01*
X32314260Y-67834000D01*
X32380443Y-67840519D01*
X32380443Y-67840519D01*
G37*
G36*
X29840443Y-67840519D02*
G01*
X29906627Y-67847037D01*
X30076466Y-67898557D01*
X30232991Y-67982222D01*
X30268729Y-68011552D01*
X30370186Y-68094814D01*
X30453448Y-68196271D01*
X30482778Y-68232009D01*
X30566443Y-68388534D01*
X30617963Y-68558373D01*
X30635359Y-68735000D01*
X30617963Y-68911627D01*
X30566443Y-69081466D01*
X30482778Y-69237991D01*
X30453448Y-69273729D01*
X30370186Y-69375186D01*
X30268729Y-69458448D01*
X30232991Y-69487778D01*
X30076466Y-69571443D01*
X29906627Y-69622963D01*
X29840442Y-69629482D01*
X29774260Y-69636000D01*
X29685740Y-69636000D01*
X29619558Y-69629482D01*
X29553373Y-69622963D01*
X29383534Y-69571443D01*
X29227009Y-69487778D01*
X29191271Y-69458448D01*
X29089814Y-69375186D01*
X29006552Y-69273729D01*
X28977222Y-69237991D01*
X28893557Y-69081466D01*
X28842037Y-68911627D01*
X28824641Y-68735000D01*
X28842037Y-68558373D01*
X28893557Y-68388534D01*
X28977222Y-68232009D01*
X29006552Y-68196271D01*
X29089814Y-68094814D01*
X29191271Y-68011552D01*
X29227009Y-67982222D01*
X29383534Y-67898557D01*
X29553373Y-67847037D01*
X29619557Y-67840519D01*
X29685740Y-67834000D01*
X29774260Y-67834000D01*
X29840443Y-67840519D01*
X29840443Y-67840519D01*
G37*
G36*
X145270104Y-67109585D02*
G01*
X145438626Y-67179389D01*
X145590291Y-67280728D01*
X145719272Y-67409709D01*
X145820611Y-67561374D01*
X145890415Y-67729896D01*
X145926000Y-67908797D01*
X145926000Y-68091203D01*
X145890415Y-68270104D01*
X145820611Y-68438626D01*
X145719272Y-68590291D01*
X145590291Y-68719272D01*
X145438626Y-68820611D01*
X145270104Y-68890415D01*
X145091203Y-68926000D01*
X144908797Y-68926000D01*
X144729896Y-68890415D01*
X144561374Y-68820611D01*
X144409709Y-68719272D01*
X144280728Y-68590291D01*
X144179389Y-68438626D01*
X144109585Y-68270104D01*
X144074000Y-68091203D01*
X144074000Y-67908797D01*
X144109585Y-67729896D01*
X144179389Y-67561374D01*
X144280728Y-67409709D01*
X144409709Y-67280728D01*
X144561374Y-67179389D01*
X144729896Y-67109585D01*
X144908797Y-67074000D01*
X145091203Y-67074000D01*
X145270104Y-67109585D01*
X145270104Y-67109585D01*
G37*
G36*
X29840442Y-65300518D02*
G01*
X29906627Y-65307037D01*
X30076466Y-65358557D01*
X30232991Y-65442222D01*
X30268729Y-65471552D01*
X30370186Y-65554814D01*
X30453448Y-65656271D01*
X30482778Y-65692009D01*
X30566443Y-65848534D01*
X30617963Y-66018373D01*
X30635359Y-66195000D01*
X30617963Y-66371627D01*
X30566443Y-66541466D01*
X30482778Y-66697991D01*
X30453448Y-66733729D01*
X30370186Y-66835186D01*
X30268729Y-66918448D01*
X30232991Y-66947778D01*
X30076466Y-67031443D01*
X29906627Y-67082963D01*
X29840442Y-67089482D01*
X29774260Y-67096000D01*
X29685740Y-67096000D01*
X29619558Y-67089482D01*
X29553373Y-67082963D01*
X29383534Y-67031443D01*
X29227009Y-66947778D01*
X29191271Y-66918448D01*
X29089814Y-66835186D01*
X29006552Y-66733729D01*
X28977222Y-66697991D01*
X28893557Y-66541466D01*
X28842037Y-66371627D01*
X28824641Y-66195000D01*
X28842037Y-66018373D01*
X28893557Y-65848534D01*
X28977222Y-65692009D01*
X29006552Y-65656271D01*
X29089814Y-65554814D01*
X29191271Y-65471552D01*
X29227009Y-65442222D01*
X29383534Y-65358557D01*
X29553373Y-65307037D01*
X29619558Y-65300518D01*
X29685740Y-65294000D01*
X29774260Y-65294000D01*
X29840442Y-65300518D01*
X29840442Y-65300518D01*
G37*
G36*
X32380442Y-65300518D02*
G01*
X32446627Y-65307037D01*
X32616466Y-65358557D01*
X32772991Y-65442222D01*
X32808729Y-65471552D01*
X32910186Y-65554814D01*
X32993448Y-65656271D01*
X33022778Y-65692009D01*
X33106443Y-65848534D01*
X33157963Y-66018373D01*
X33175359Y-66195000D01*
X33157963Y-66371627D01*
X33106443Y-66541466D01*
X33022778Y-66697991D01*
X32993448Y-66733729D01*
X32910186Y-66835186D01*
X32808729Y-66918448D01*
X32772991Y-66947778D01*
X32616466Y-67031443D01*
X32446627Y-67082963D01*
X32380442Y-67089482D01*
X32314260Y-67096000D01*
X32225740Y-67096000D01*
X32159558Y-67089482D01*
X32093373Y-67082963D01*
X31923534Y-67031443D01*
X31767009Y-66947778D01*
X31731271Y-66918448D01*
X31629814Y-66835186D01*
X31546552Y-66733729D01*
X31517222Y-66697991D01*
X31433557Y-66541466D01*
X31382037Y-66371627D01*
X31364641Y-66195000D01*
X31382037Y-66018373D01*
X31433557Y-65848534D01*
X31517222Y-65692009D01*
X31546552Y-65656271D01*
X31629814Y-65554814D01*
X31731271Y-65471552D01*
X31767009Y-65442222D01*
X31923534Y-65358557D01*
X32093373Y-65307037D01*
X32159558Y-65300518D01*
X32225740Y-65294000D01*
X32314260Y-65294000D01*
X32380442Y-65300518D01*
X32380442Y-65300518D01*
G37*
G36*
X145926000Y-66426000D02*
G01*
X144074000Y-66426000D01*
X144074000Y-64574000D01*
X145926000Y-64574000D01*
X145926000Y-66426000D01*
X145926000Y-66426000D01*
G37*
G36*
X29840443Y-62760519D02*
G01*
X29906627Y-62767037D01*
X30076466Y-62818557D01*
X30232991Y-62902222D01*
X30268729Y-62931552D01*
X30370186Y-63014814D01*
X30453448Y-63116271D01*
X30482778Y-63152009D01*
X30566443Y-63308534D01*
X30617963Y-63478373D01*
X30635359Y-63655000D01*
X30617963Y-63831627D01*
X30566443Y-64001466D01*
X30482778Y-64157991D01*
X30453448Y-64193729D01*
X30370186Y-64295186D01*
X30268729Y-64378448D01*
X30232991Y-64407778D01*
X30076466Y-64491443D01*
X29906627Y-64542963D01*
X29840443Y-64549481D01*
X29774260Y-64556000D01*
X29685740Y-64556000D01*
X29619557Y-64549481D01*
X29553373Y-64542963D01*
X29383534Y-64491443D01*
X29227009Y-64407778D01*
X29191271Y-64378448D01*
X29089814Y-64295186D01*
X29006552Y-64193729D01*
X28977222Y-64157991D01*
X28893557Y-64001466D01*
X28842037Y-63831627D01*
X28824641Y-63655000D01*
X28842037Y-63478373D01*
X28893557Y-63308534D01*
X28977222Y-63152009D01*
X29006552Y-63116271D01*
X29089814Y-63014814D01*
X29191271Y-62931552D01*
X29227009Y-62902222D01*
X29383534Y-62818557D01*
X29553373Y-62767037D01*
X29619557Y-62760519D01*
X29685740Y-62754000D01*
X29774260Y-62754000D01*
X29840443Y-62760519D01*
X29840443Y-62760519D01*
G37*
G36*
X32380443Y-62760519D02*
G01*
X32446627Y-62767037D01*
X32616466Y-62818557D01*
X32772991Y-62902222D01*
X32808729Y-62931552D01*
X32910186Y-63014814D01*
X32993448Y-63116271D01*
X33022778Y-63152009D01*
X33106443Y-63308534D01*
X33157963Y-63478373D01*
X33175359Y-63655000D01*
X33157963Y-63831627D01*
X33106443Y-64001466D01*
X33022778Y-64157991D01*
X32993448Y-64193729D01*
X32910186Y-64295186D01*
X32808729Y-64378448D01*
X32772991Y-64407778D01*
X32616466Y-64491443D01*
X32446627Y-64542963D01*
X32380443Y-64549481D01*
X32314260Y-64556000D01*
X32225740Y-64556000D01*
X32159557Y-64549481D01*
X32093373Y-64542963D01*
X31923534Y-64491443D01*
X31767009Y-64407778D01*
X31731271Y-64378448D01*
X31629814Y-64295186D01*
X31546552Y-64193729D01*
X31517222Y-64157991D01*
X31433557Y-64001466D01*
X31382037Y-63831627D01*
X31364641Y-63655000D01*
X31382037Y-63478373D01*
X31433557Y-63308534D01*
X31517222Y-63152009D01*
X31546552Y-63116271D01*
X31629814Y-63014814D01*
X31731271Y-62931552D01*
X31767009Y-62902222D01*
X31923534Y-62818557D01*
X32093373Y-62767037D01*
X32159557Y-62760519D01*
X32225740Y-62754000D01*
X32314260Y-62754000D01*
X32380443Y-62760519D01*
X32380443Y-62760519D01*
G37*
G36*
X104306564Y-60089389D02*
G01*
X104497833Y-60168615D01*
X104497835Y-60168616D01*
X104565757Y-60214000D01*
X104669973Y-60283635D01*
X104816365Y-60430027D01*
X104931385Y-60602167D01*
X105010611Y-60793436D01*
X105051000Y-60996484D01*
X105051000Y-61203516D01*
X105010611Y-61406564D01*
X104987869Y-61461468D01*
X104931384Y-61597835D01*
X104816365Y-61769973D01*
X104669973Y-61916365D01*
X104497835Y-62031384D01*
X104497834Y-62031385D01*
X104497833Y-62031385D01*
X104306564Y-62110611D01*
X104103516Y-62151000D01*
X103896484Y-62151000D01*
X103693436Y-62110611D01*
X103502167Y-62031385D01*
X103502166Y-62031385D01*
X103502165Y-62031384D01*
X103330027Y-61916365D01*
X103183635Y-61769973D01*
X103068616Y-61597835D01*
X103012131Y-61461468D01*
X102989389Y-61406564D01*
X102949000Y-61203516D01*
X102949000Y-60996484D01*
X102989389Y-60793436D01*
X103068615Y-60602167D01*
X103183635Y-60430027D01*
X103330027Y-60283635D01*
X103434243Y-60214000D01*
X103502165Y-60168616D01*
X103502167Y-60168615D01*
X103693436Y-60089389D01*
X103896484Y-60049000D01*
X104103516Y-60049000D01*
X104306564Y-60089389D01*
X104306564Y-60089389D01*
G37*
G36*
X32380442Y-60220518D02*
G01*
X32446627Y-60227037D01*
X32616466Y-60278557D01*
X32772991Y-60362222D01*
X32808729Y-60391552D01*
X32910186Y-60474814D01*
X32993448Y-60576271D01*
X33022778Y-60612009D01*
X33106443Y-60768534D01*
X33157963Y-60938373D01*
X33175359Y-61115000D01*
X33157963Y-61291627D01*
X33106443Y-61461466D01*
X33022778Y-61617991D01*
X32993448Y-61653729D01*
X32910186Y-61755186D01*
X32808729Y-61838448D01*
X32772991Y-61867778D01*
X32616466Y-61951443D01*
X32446627Y-62002963D01*
X32380443Y-62009481D01*
X32314260Y-62016000D01*
X32225740Y-62016000D01*
X32159557Y-62009481D01*
X32093373Y-62002963D01*
X31923534Y-61951443D01*
X31767009Y-61867778D01*
X31731271Y-61838448D01*
X31629814Y-61755186D01*
X31546552Y-61653729D01*
X31517222Y-61617991D01*
X31433557Y-61461466D01*
X31382037Y-61291627D01*
X31364641Y-61115000D01*
X31382037Y-60938373D01*
X31433557Y-60768534D01*
X31517222Y-60612009D01*
X31546552Y-60576271D01*
X31629814Y-60474814D01*
X31731271Y-60391552D01*
X31767009Y-60362222D01*
X31923534Y-60278557D01*
X32093373Y-60227037D01*
X32159558Y-60220518D01*
X32225740Y-60214000D01*
X32314260Y-60214000D01*
X32380442Y-60220518D01*
X32380442Y-60220518D01*
G37*
G36*
X29840442Y-60220518D02*
G01*
X29906627Y-60227037D01*
X30076466Y-60278557D01*
X30232991Y-60362222D01*
X30268729Y-60391552D01*
X30370186Y-60474814D01*
X30453448Y-60576271D01*
X30482778Y-60612009D01*
X30566443Y-60768534D01*
X30617963Y-60938373D01*
X30635359Y-61115000D01*
X30617963Y-61291627D01*
X30566443Y-61461466D01*
X30482778Y-61617991D01*
X30453448Y-61653729D01*
X30370186Y-61755186D01*
X30268729Y-61838448D01*
X30232991Y-61867778D01*
X30076466Y-61951443D01*
X29906627Y-62002963D01*
X29840443Y-62009481D01*
X29774260Y-62016000D01*
X29685740Y-62016000D01*
X29619557Y-62009481D01*
X29553373Y-62002963D01*
X29383534Y-61951443D01*
X29227009Y-61867778D01*
X29191271Y-61838448D01*
X29089814Y-61755186D01*
X29006552Y-61653729D01*
X28977222Y-61617991D01*
X28893557Y-61461466D01*
X28842037Y-61291627D01*
X28824641Y-61115000D01*
X28842037Y-60938373D01*
X28893557Y-60768534D01*
X28977222Y-60612009D01*
X29006552Y-60576271D01*
X29089814Y-60474814D01*
X29191271Y-60391552D01*
X29227009Y-60362222D01*
X29383534Y-60278557D01*
X29553373Y-60227037D01*
X29619558Y-60220518D01*
X29685740Y-60214000D01*
X29774260Y-60214000D01*
X29840442Y-60220518D01*
X29840442Y-60220518D01*
G37*
G36*
X145270104Y-58109585D02*
G01*
X145438626Y-58179389D01*
X145590291Y-58280728D01*
X145719272Y-58409709D01*
X145820611Y-58561374D01*
X145890415Y-58729896D01*
X145926000Y-58908797D01*
X145926000Y-59091203D01*
X145890415Y-59270104D01*
X145820611Y-59438626D01*
X145719272Y-59590291D01*
X145590291Y-59719272D01*
X145438626Y-59820611D01*
X145270104Y-59890415D01*
X145091203Y-59926000D01*
X144908797Y-59926000D01*
X144729896Y-59890415D01*
X144561374Y-59820611D01*
X144409709Y-59719272D01*
X144280728Y-59590291D01*
X144179389Y-59438626D01*
X144109585Y-59270104D01*
X144074000Y-59091203D01*
X144074000Y-58908797D01*
X144109585Y-58729896D01*
X144179389Y-58561374D01*
X144280728Y-58409709D01*
X144409709Y-58280728D01*
X144561374Y-58179389D01*
X144729896Y-58109585D01*
X144908797Y-58074000D01*
X145091203Y-58074000D01*
X145270104Y-58109585D01*
X145270104Y-58109585D01*
G37*
G36*
X32380443Y-57680519D02*
G01*
X32446627Y-57687037D01*
X32616466Y-57738557D01*
X32772991Y-57822222D01*
X32808729Y-57851552D01*
X32910186Y-57934814D01*
X32993448Y-58036271D01*
X33022778Y-58072009D01*
X33106443Y-58228534D01*
X33157963Y-58398373D01*
X33175359Y-58575000D01*
X33157963Y-58751627D01*
X33106443Y-58921466D01*
X33022778Y-59077991D01*
X33011935Y-59091203D01*
X32910186Y-59215186D01*
X32808729Y-59298448D01*
X32772991Y-59327778D01*
X32616466Y-59411443D01*
X32446627Y-59462963D01*
X32380442Y-59469482D01*
X32314260Y-59476000D01*
X32225740Y-59476000D01*
X32159558Y-59469482D01*
X32093373Y-59462963D01*
X31923534Y-59411443D01*
X31767009Y-59327778D01*
X31731271Y-59298448D01*
X31629814Y-59215186D01*
X31528065Y-59091203D01*
X31517222Y-59077991D01*
X31433557Y-58921466D01*
X31382037Y-58751627D01*
X31364641Y-58575000D01*
X31382037Y-58398373D01*
X31433557Y-58228534D01*
X31517222Y-58072009D01*
X31546552Y-58036271D01*
X31629814Y-57934814D01*
X31731271Y-57851552D01*
X31767009Y-57822222D01*
X31923534Y-57738557D01*
X32093373Y-57687037D01*
X32159557Y-57680519D01*
X32225740Y-57674000D01*
X32314260Y-57674000D01*
X32380443Y-57680519D01*
X32380443Y-57680519D01*
G37*
G36*
X29840443Y-57680519D02*
G01*
X29906627Y-57687037D01*
X30076466Y-57738557D01*
X30232991Y-57822222D01*
X30268729Y-57851552D01*
X30370186Y-57934814D01*
X30453448Y-58036271D01*
X30482778Y-58072009D01*
X30566443Y-58228534D01*
X30617963Y-58398373D01*
X30635359Y-58575000D01*
X30617963Y-58751627D01*
X30566443Y-58921466D01*
X30482778Y-59077991D01*
X30471935Y-59091203D01*
X30370186Y-59215186D01*
X30268729Y-59298448D01*
X30232991Y-59327778D01*
X30076466Y-59411443D01*
X29906627Y-59462963D01*
X29840442Y-59469482D01*
X29774260Y-59476000D01*
X29685740Y-59476000D01*
X29619558Y-59469482D01*
X29553373Y-59462963D01*
X29383534Y-59411443D01*
X29227009Y-59327778D01*
X29191271Y-59298448D01*
X29089814Y-59215186D01*
X28988065Y-59091203D01*
X28977222Y-59077991D01*
X28893557Y-58921466D01*
X28842037Y-58751627D01*
X28824641Y-58575000D01*
X28842037Y-58398373D01*
X28893557Y-58228534D01*
X28977222Y-58072009D01*
X29006552Y-58036271D01*
X29089814Y-57934814D01*
X29191271Y-57851552D01*
X29227009Y-57822222D01*
X29383534Y-57738557D01*
X29553373Y-57687037D01*
X29619557Y-57680519D01*
X29685740Y-57674000D01*
X29774260Y-57674000D01*
X29840443Y-57680519D01*
X29840443Y-57680519D01*
G37*
G36*
X145926000Y-57426000D02*
G01*
X144074000Y-57426000D01*
X144074000Y-55574000D01*
X145926000Y-55574000D01*
X145926000Y-57426000D01*
X145926000Y-57426000D01*
G37*
G36*
X65917206Y-55880000D02*
G01*
X64643000Y-57154206D01*
X63368794Y-55880000D01*
X64643000Y-54605794D01*
X65917206Y-55880000D01*
X65917206Y-55880000D01*
G37*
G36*
X29840442Y-55140518D02*
G01*
X29906627Y-55147037D01*
X30076466Y-55198557D01*
X30232991Y-55282222D01*
X30268729Y-55311552D01*
X30370186Y-55394814D01*
X30453448Y-55496271D01*
X30482778Y-55532009D01*
X30566443Y-55688534D01*
X30617963Y-55858373D01*
X30635359Y-56035000D01*
X30617963Y-56211627D01*
X30566443Y-56381466D01*
X30482778Y-56537991D01*
X30453448Y-56573729D01*
X30370186Y-56675186D01*
X30268729Y-56758448D01*
X30232991Y-56787778D01*
X30076466Y-56871443D01*
X29906627Y-56922963D01*
X29840442Y-56929482D01*
X29774260Y-56936000D01*
X29685740Y-56936000D01*
X29619558Y-56929482D01*
X29553373Y-56922963D01*
X29383534Y-56871443D01*
X29227009Y-56787778D01*
X29191271Y-56758448D01*
X29089814Y-56675186D01*
X29006552Y-56573729D01*
X28977222Y-56537991D01*
X28893557Y-56381466D01*
X28842037Y-56211627D01*
X28824641Y-56035000D01*
X28842037Y-55858373D01*
X28893557Y-55688534D01*
X28977222Y-55532009D01*
X29006552Y-55496271D01*
X29089814Y-55394814D01*
X29191271Y-55311552D01*
X29227009Y-55282222D01*
X29383534Y-55198557D01*
X29553373Y-55147037D01*
X29619558Y-55140518D01*
X29685740Y-55134000D01*
X29774260Y-55134000D01*
X29840442Y-55140518D01*
X29840442Y-55140518D01*
G37*
G36*
X32380442Y-55140518D02*
G01*
X32446627Y-55147037D01*
X32616466Y-55198557D01*
X32772991Y-55282222D01*
X32808729Y-55311552D01*
X32910186Y-55394814D01*
X32993448Y-55496271D01*
X33022778Y-55532009D01*
X33106443Y-55688534D01*
X33157963Y-55858373D01*
X33175359Y-56035000D01*
X33157963Y-56211627D01*
X33106443Y-56381466D01*
X33022778Y-56537991D01*
X32993448Y-56573729D01*
X32910186Y-56675186D01*
X32808729Y-56758448D01*
X32772991Y-56787778D01*
X32616466Y-56871443D01*
X32446627Y-56922963D01*
X32380442Y-56929482D01*
X32314260Y-56936000D01*
X32225740Y-56936000D01*
X32159558Y-56929482D01*
X32093373Y-56922963D01*
X31923534Y-56871443D01*
X31767009Y-56787778D01*
X31731271Y-56758448D01*
X31629814Y-56675186D01*
X31546552Y-56573729D01*
X31517222Y-56537991D01*
X31433557Y-56381466D01*
X31382037Y-56211627D01*
X31364641Y-56035000D01*
X31382037Y-55858373D01*
X31433557Y-55688534D01*
X31517222Y-55532009D01*
X31546552Y-55496271D01*
X31629814Y-55394814D01*
X31731271Y-55311552D01*
X31767009Y-55282222D01*
X31923534Y-55198557D01*
X32093373Y-55147037D01*
X32159558Y-55140518D01*
X32225740Y-55134000D01*
X32314260Y-55134000D01*
X32380442Y-55140518D01*
X32380442Y-55140518D01*
G37*
G36*
X62951609Y-53188898D02*
G01*
X63023576Y-53195986D01*
X63193415Y-53247506D01*
X63349940Y-53331171D01*
X63385678Y-53360501D01*
X63487135Y-53443763D01*
X63529183Y-53495000D01*
X63599727Y-53580958D01*
X63683392Y-53737483D01*
X63734912Y-53907322D01*
X63752308Y-54083949D01*
X63734912Y-54260576D01*
X63683392Y-54430415D01*
X63599727Y-54586940D01*
X63584254Y-54605794D01*
X63487135Y-54724135D01*
X63385678Y-54807397D01*
X63349940Y-54836727D01*
X63193415Y-54920392D01*
X63023576Y-54971912D01*
X62957391Y-54978431D01*
X62891209Y-54984949D01*
X62802689Y-54984949D01*
X62736507Y-54978431D01*
X62670322Y-54971912D01*
X62500483Y-54920392D01*
X62343958Y-54836727D01*
X62308220Y-54807397D01*
X62206763Y-54724135D01*
X62109644Y-54605794D01*
X62094171Y-54586940D01*
X62010506Y-54430415D01*
X61958986Y-54260576D01*
X61941590Y-54083949D01*
X61958986Y-53907322D01*
X62010506Y-53737483D01*
X62094171Y-53580958D01*
X62164715Y-53495000D01*
X62206763Y-53443763D01*
X62308220Y-53360501D01*
X62343958Y-53331171D01*
X62500483Y-53247506D01*
X62670322Y-53195986D01*
X62742289Y-53188898D01*
X62802689Y-53182949D01*
X62891209Y-53182949D01*
X62951609Y-53188898D01*
X62951609Y-53188898D01*
G37*
G36*
X105051000Y-54551000D02*
G01*
X102949000Y-54551000D01*
X102949000Y-52449000D01*
X105051000Y-52449000D01*
X105051000Y-54551000D01*
X105051000Y-54551000D01*
G37*
G36*
X32380442Y-52600518D02*
G01*
X32446627Y-52607037D01*
X32616466Y-52658557D01*
X32772991Y-52742222D01*
X32808729Y-52771552D01*
X32910186Y-52854814D01*
X32970315Y-52928083D01*
X33022778Y-52992009D01*
X33022779Y-52992011D01*
X33093512Y-53124341D01*
X33106443Y-53148534D01*
X33157963Y-53318373D01*
X33175359Y-53495000D01*
X33157963Y-53671627D01*
X33106443Y-53841466D01*
X33022778Y-53997991D01*
X32993448Y-54033729D01*
X32910186Y-54135186D01*
X32808729Y-54218448D01*
X32772991Y-54247778D01*
X32616466Y-54331443D01*
X32446627Y-54382963D01*
X32380443Y-54389481D01*
X32314260Y-54396000D01*
X32225740Y-54396000D01*
X32159557Y-54389481D01*
X32093373Y-54382963D01*
X31923534Y-54331443D01*
X31767009Y-54247778D01*
X31731271Y-54218448D01*
X31629814Y-54135186D01*
X31546552Y-54033729D01*
X31517222Y-53997991D01*
X31433557Y-53841466D01*
X31382037Y-53671627D01*
X31364641Y-53495000D01*
X31382037Y-53318373D01*
X31433557Y-53148534D01*
X31446489Y-53124341D01*
X31517221Y-52992011D01*
X31517222Y-52992009D01*
X31569685Y-52928083D01*
X31629814Y-52854814D01*
X31731271Y-52771552D01*
X31767009Y-52742222D01*
X31923534Y-52658557D01*
X32093373Y-52607037D01*
X32159558Y-52600518D01*
X32225740Y-52594000D01*
X32314260Y-52594000D01*
X32380442Y-52600518D01*
X32380442Y-52600518D01*
G37*
G36*
X29840442Y-52600518D02*
G01*
X29906627Y-52607037D01*
X30076466Y-52658557D01*
X30232991Y-52742222D01*
X30268729Y-52771552D01*
X30370186Y-52854814D01*
X30430315Y-52928083D01*
X30482778Y-52992009D01*
X30482779Y-52992011D01*
X30553512Y-53124341D01*
X30566443Y-53148534D01*
X30617963Y-53318373D01*
X30635359Y-53495000D01*
X30617963Y-53671627D01*
X30566443Y-53841466D01*
X30482778Y-53997991D01*
X30453448Y-54033729D01*
X30370186Y-54135186D01*
X30268729Y-54218448D01*
X30232991Y-54247778D01*
X30076466Y-54331443D01*
X29906627Y-54382963D01*
X29840443Y-54389481D01*
X29774260Y-54396000D01*
X29685740Y-54396000D01*
X29619557Y-54389481D01*
X29553373Y-54382963D01*
X29383534Y-54331443D01*
X29227009Y-54247778D01*
X29191271Y-54218448D01*
X29089814Y-54135186D01*
X29006552Y-54033729D01*
X28977222Y-53997991D01*
X28893557Y-53841466D01*
X28842037Y-53671627D01*
X28824641Y-53495000D01*
X28842037Y-53318373D01*
X28893557Y-53148534D01*
X28906489Y-53124341D01*
X28977221Y-52992011D01*
X28977222Y-52992009D01*
X29029685Y-52928083D01*
X29089814Y-52854814D01*
X29191271Y-52771552D01*
X29227009Y-52742222D01*
X29383534Y-52658557D01*
X29553373Y-52607037D01*
X29619558Y-52600518D01*
X29685740Y-52594000D01*
X29774260Y-52594000D01*
X29840442Y-52600518D01*
X29840442Y-52600518D01*
G37*
G36*
X61155548Y-51392846D02*
G01*
X61227525Y-51399935D01*
X61397364Y-51451455D01*
X61553889Y-51535120D01*
X61589627Y-51564450D01*
X61691084Y-51647712D01*
X61774346Y-51749169D01*
X61803676Y-51784907D01*
X61887341Y-51941432D01*
X61938861Y-52111271D01*
X61956257Y-52287898D01*
X61938861Y-52464525D01*
X61887341Y-52634364D01*
X61887340Y-52634366D01*
X61874409Y-52658558D01*
X61803676Y-52790889D01*
X61774346Y-52826627D01*
X61691084Y-52928084D01*
X61589627Y-53011346D01*
X61553889Y-53040676D01*
X61397364Y-53124341D01*
X61227525Y-53175861D01*
X61161340Y-53182380D01*
X61095158Y-53188898D01*
X61006638Y-53188898D01*
X60940456Y-53182380D01*
X60874271Y-53175861D01*
X60704432Y-53124341D01*
X60547907Y-53040676D01*
X60512169Y-53011346D01*
X60410712Y-52928084D01*
X60327450Y-52826627D01*
X60298120Y-52790889D01*
X60227387Y-52658558D01*
X60214456Y-52634366D01*
X60214455Y-52634364D01*
X60162935Y-52464525D01*
X60145539Y-52287898D01*
X60162935Y-52111271D01*
X60214455Y-51941432D01*
X60298120Y-51784907D01*
X60327450Y-51749169D01*
X60410712Y-51647712D01*
X60512169Y-51564450D01*
X60547907Y-51535120D01*
X60704432Y-51451455D01*
X60874271Y-51399935D01*
X60946248Y-51392846D01*
X61006638Y-51386898D01*
X61095158Y-51386898D01*
X61155548Y-51392846D01*
X61155548Y-51392846D01*
G37*
G36*
X29840443Y-50060519D02*
G01*
X29906627Y-50067037D01*
X30076466Y-50118557D01*
X30232991Y-50202222D01*
X30268729Y-50231552D01*
X30370186Y-50314814D01*
X30453448Y-50416271D01*
X30482778Y-50452009D01*
X30566443Y-50608534D01*
X30617963Y-50778373D01*
X30635359Y-50955000D01*
X30617963Y-51131627D01*
X30566443Y-51301466D01*
X30482778Y-51457991D01*
X30453448Y-51493729D01*
X30370186Y-51595186D01*
X30268729Y-51678448D01*
X30232991Y-51707778D01*
X30076466Y-51791443D01*
X29906627Y-51842963D01*
X29840443Y-51849481D01*
X29774260Y-51856000D01*
X29685740Y-51856000D01*
X29619557Y-51849481D01*
X29553373Y-51842963D01*
X29383534Y-51791443D01*
X29227009Y-51707778D01*
X29191271Y-51678448D01*
X29089814Y-51595186D01*
X29006552Y-51493729D01*
X28977222Y-51457991D01*
X28893557Y-51301466D01*
X28842037Y-51131627D01*
X28824641Y-50955000D01*
X28842037Y-50778373D01*
X28893557Y-50608534D01*
X28977222Y-50452009D01*
X29006552Y-50416271D01*
X29089814Y-50314814D01*
X29191271Y-50231552D01*
X29227009Y-50202222D01*
X29383534Y-50118557D01*
X29553373Y-50067037D01*
X29619558Y-50060518D01*
X29685740Y-50054000D01*
X29774260Y-50054000D01*
X29840443Y-50060519D01*
X29840443Y-50060519D01*
G37*
G36*
X32380443Y-50060519D02*
G01*
X32446627Y-50067037D01*
X32616466Y-50118557D01*
X32772991Y-50202222D01*
X32808729Y-50231552D01*
X32910186Y-50314814D01*
X32993448Y-50416271D01*
X33022778Y-50452009D01*
X33106443Y-50608534D01*
X33157963Y-50778373D01*
X33175359Y-50955000D01*
X33157963Y-51131627D01*
X33106443Y-51301466D01*
X33022778Y-51457991D01*
X32993448Y-51493729D01*
X32910186Y-51595186D01*
X32808729Y-51678448D01*
X32772991Y-51707778D01*
X32616466Y-51791443D01*
X32446627Y-51842963D01*
X32380443Y-51849481D01*
X32314260Y-51856000D01*
X32225740Y-51856000D01*
X32159557Y-51849481D01*
X32093373Y-51842963D01*
X31923534Y-51791443D01*
X31767009Y-51707778D01*
X31731271Y-51678448D01*
X31629814Y-51595186D01*
X31546552Y-51493729D01*
X31517222Y-51457991D01*
X31433557Y-51301466D01*
X31382037Y-51131627D01*
X31364641Y-50955000D01*
X31382037Y-50778373D01*
X31433557Y-50608534D01*
X31517222Y-50452009D01*
X31546552Y-50416271D01*
X31629814Y-50314814D01*
X31731271Y-50231552D01*
X31767009Y-50202222D01*
X31923534Y-50118557D01*
X32093373Y-50067037D01*
X32159558Y-50060518D01*
X32225740Y-50054000D01*
X32314260Y-50054000D01*
X32380443Y-50060519D01*
X32380443Y-50060519D01*
G37*
G36*
X59365288Y-49597364D02*
G01*
X59431473Y-49603883D01*
X59601312Y-49655403D01*
X59757837Y-49739068D01*
X59793575Y-49768398D01*
X59895032Y-49851660D01*
X59941922Y-49908797D01*
X60007624Y-49988855D01*
X60091289Y-50145380D01*
X60142809Y-50315219D01*
X60160205Y-50491846D01*
X60142809Y-50668473D01*
X60091289Y-50838312D01*
X60007624Y-50994837D01*
X59978294Y-51030575D01*
X59895032Y-51132032D01*
X59793575Y-51215294D01*
X59757837Y-51244624D01*
X59601312Y-51328289D01*
X59431473Y-51379809D01*
X59365289Y-51386327D01*
X59299106Y-51392846D01*
X59210586Y-51392846D01*
X59144403Y-51386327D01*
X59078219Y-51379809D01*
X58908380Y-51328289D01*
X58751855Y-51244624D01*
X58716117Y-51215294D01*
X58614660Y-51132032D01*
X58531398Y-51030575D01*
X58502068Y-50994837D01*
X58418403Y-50838312D01*
X58366883Y-50668473D01*
X58349487Y-50491846D01*
X58366883Y-50315219D01*
X58418403Y-50145380D01*
X58502068Y-49988855D01*
X58567770Y-49908797D01*
X58614660Y-49851660D01*
X58716117Y-49768398D01*
X58751855Y-49739068D01*
X58908380Y-49655403D01*
X59078219Y-49603883D01*
X59144403Y-49597365D01*
X59210586Y-49590846D01*
X59299106Y-49590846D01*
X59365288Y-49597364D01*
X59365288Y-49597364D01*
G37*
G36*
X145270104Y-49109585D02*
G01*
X145438626Y-49179389D01*
X145590291Y-49280728D01*
X145719272Y-49409709D01*
X145820611Y-49561374D01*
X145890415Y-49729896D01*
X145926000Y-49908797D01*
X145926000Y-50091203D01*
X145890415Y-50270104D01*
X145820611Y-50438626D01*
X145719272Y-50590291D01*
X145590291Y-50719272D01*
X145438626Y-50820611D01*
X145270104Y-50890415D01*
X145091203Y-50926000D01*
X144908797Y-50926000D01*
X144729896Y-50890415D01*
X144561374Y-50820611D01*
X144409709Y-50719272D01*
X144280728Y-50590291D01*
X144179389Y-50438626D01*
X144109585Y-50270104D01*
X144074000Y-50091203D01*
X144074000Y-49908797D01*
X144109585Y-49729896D01*
X144179389Y-49561374D01*
X144280728Y-49409709D01*
X144409709Y-49280728D01*
X144561374Y-49179389D01*
X144729896Y-49109585D01*
X144908797Y-49074000D01*
X145091203Y-49074000D01*
X145270104Y-49109585D01*
X145270104Y-49109585D01*
G37*
G36*
X29840442Y-47520518D02*
G01*
X29906627Y-47527037D01*
X30076466Y-47578557D01*
X30232991Y-47662222D01*
X30268729Y-47691552D01*
X30370186Y-47774814D01*
X30453448Y-47876271D01*
X30482778Y-47912009D01*
X30566443Y-48068534D01*
X30617963Y-48238373D01*
X30635359Y-48415000D01*
X30617963Y-48591627D01*
X30566443Y-48761466D01*
X30482778Y-48917991D01*
X30453448Y-48953729D01*
X30370186Y-49055186D01*
X30303898Y-49109586D01*
X30232991Y-49167778D01*
X30076466Y-49251443D01*
X29906627Y-49302963D01*
X29840442Y-49309482D01*
X29774260Y-49316000D01*
X29685740Y-49316000D01*
X29619558Y-49309482D01*
X29553373Y-49302963D01*
X29383534Y-49251443D01*
X29227009Y-49167778D01*
X29156102Y-49109586D01*
X29089814Y-49055186D01*
X29006552Y-48953729D01*
X28977222Y-48917991D01*
X28893557Y-48761466D01*
X28842037Y-48591627D01*
X28824641Y-48415000D01*
X28842037Y-48238373D01*
X28893557Y-48068534D01*
X28977222Y-47912009D01*
X29006552Y-47876271D01*
X29089814Y-47774814D01*
X29191271Y-47691552D01*
X29227009Y-47662222D01*
X29383534Y-47578557D01*
X29553373Y-47527037D01*
X29619558Y-47520518D01*
X29685740Y-47514000D01*
X29774260Y-47514000D01*
X29840442Y-47520518D01*
X29840442Y-47520518D01*
G37*
G36*
X32380442Y-47520518D02*
G01*
X32446627Y-47527037D01*
X32616466Y-47578557D01*
X32772991Y-47662222D01*
X32808729Y-47691552D01*
X32910186Y-47774814D01*
X32993448Y-47876271D01*
X33022778Y-47912009D01*
X33106443Y-48068534D01*
X33157963Y-48238373D01*
X33175359Y-48415000D01*
X33157963Y-48591627D01*
X33106443Y-48761466D01*
X33022778Y-48917991D01*
X32993448Y-48953729D01*
X32910186Y-49055186D01*
X32843898Y-49109586D01*
X32772991Y-49167778D01*
X32616466Y-49251443D01*
X32446627Y-49302963D01*
X32380442Y-49309482D01*
X32314260Y-49316000D01*
X32225740Y-49316000D01*
X32159558Y-49309482D01*
X32093373Y-49302963D01*
X31923534Y-49251443D01*
X31767009Y-49167778D01*
X31696102Y-49109586D01*
X31629814Y-49055186D01*
X31546552Y-48953729D01*
X31517222Y-48917991D01*
X31433557Y-48761466D01*
X31382037Y-48591627D01*
X31364641Y-48415000D01*
X31382037Y-48238373D01*
X31433557Y-48068534D01*
X31517222Y-47912009D01*
X31546552Y-47876271D01*
X31629814Y-47774814D01*
X31731271Y-47691552D01*
X31767009Y-47662222D01*
X31923534Y-47578557D01*
X32093373Y-47527037D01*
X32159558Y-47520518D01*
X32225740Y-47514000D01*
X32314260Y-47514000D01*
X32380442Y-47520518D01*
X32380442Y-47520518D01*
G37*
G36*
X145926000Y-48426000D02*
G01*
X144074000Y-48426000D01*
X144074000Y-46574000D01*
X145926000Y-46574000D01*
X145926000Y-48426000D01*
X145926000Y-48426000D01*
G37*
G36*
X33171000Y-46776000D02*
G01*
X31369000Y-46776000D01*
X31369000Y-44974000D01*
X33171000Y-44974000D01*
X33171000Y-46776000D01*
X33171000Y-46776000D01*
G37*
G36*
X29840442Y-44980518D02*
G01*
X29906627Y-44987037D01*
X30076466Y-45038557D01*
X30232991Y-45122222D01*
X30268729Y-45151552D01*
X30370186Y-45234814D01*
X30445019Y-45326000D01*
X30482778Y-45372009D01*
X30566443Y-45528534D01*
X30617963Y-45698373D01*
X30635359Y-45875000D01*
X30617963Y-46051627D01*
X30566443Y-46221466D01*
X30482778Y-46377991D01*
X30453448Y-46413729D01*
X30370186Y-46515186D01*
X30268729Y-46598448D01*
X30232991Y-46627778D01*
X30076466Y-46711443D01*
X29906627Y-46762963D01*
X29840442Y-46769482D01*
X29774260Y-46776000D01*
X29685740Y-46776000D01*
X29619558Y-46769482D01*
X29553373Y-46762963D01*
X29383534Y-46711443D01*
X29227009Y-46627778D01*
X29191271Y-46598448D01*
X29089814Y-46515186D01*
X29006552Y-46413729D01*
X28977222Y-46377991D01*
X28893557Y-46221466D01*
X28842037Y-46051627D01*
X28824641Y-45875000D01*
X28842037Y-45698373D01*
X28893557Y-45528534D01*
X28977222Y-45372009D01*
X29014981Y-45326000D01*
X29089814Y-45234814D01*
X29191271Y-45151552D01*
X29227009Y-45122222D01*
X29383534Y-45038557D01*
X29553373Y-44987037D01*
X29619558Y-44980518D01*
X29685740Y-44974000D01*
X29774260Y-44974000D01*
X29840442Y-44980518D01*
X29840442Y-44980518D01*
G37*
G36*
X24664943Y-39566248D02*
G01*
X25220189Y-39796238D01*
X25392497Y-39911371D01*
X25719899Y-40130134D01*
X26144866Y-40555101D01*
X26261660Y-40729896D01*
X26478762Y-41054811D01*
X26708752Y-41610057D01*
X26826000Y-42199501D01*
X26826000Y-42800499D01*
X26708752Y-43389943D01*
X26478762Y-43945189D01*
X26416872Y-44037814D01*
X26144866Y-44444899D01*
X25719899Y-44869866D01*
X25544540Y-44987037D01*
X25220189Y-45203762D01*
X24664943Y-45433752D01*
X24075499Y-45551000D01*
X23474501Y-45551000D01*
X22885057Y-45433752D01*
X22329811Y-45203762D01*
X22005460Y-44987037D01*
X21830101Y-44869866D01*
X21405134Y-44444899D01*
X21133128Y-44037814D01*
X21071238Y-43945189D01*
X20841248Y-43389943D01*
X20724000Y-42800499D01*
X20724000Y-42199501D01*
X20841248Y-41610057D01*
X21071238Y-41054811D01*
X21288340Y-40729896D01*
X21405134Y-40555101D01*
X21830101Y-40130134D01*
X22157503Y-39911371D01*
X22329811Y-39796238D01*
X22885057Y-39566248D01*
X23474501Y-39449000D01*
X24075499Y-39449000D01*
X24664943Y-39566248D01*
X24664943Y-39566248D01*
G37*
G36*
X126864943Y-39566248D02*
G01*
X127420189Y-39796238D01*
X127592497Y-39911371D01*
X127919899Y-40130134D01*
X128344866Y-40555101D01*
X128461660Y-40729896D01*
X128678762Y-41054811D01*
X128908752Y-41610057D01*
X129026000Y-42199501D01*
X129026000Y-42800499D01*
X128908752Y-43389943D01*
X128678762Y-43945189D01*
X128616872Y-44037814D01*
X128344866Y-44444899D01*
X127919899Y-44869866D01*
X127744540Y-44987037D01*
X127420189Y-45203762D01*
X126864943Y-45433752D01*
X126275499Y-45551000D01*
X125674501Y-45551000D01*
X125085057Y-45433752D01*
X124529811Y-45203762D01*
X124205460Y-44987037D01*
X124030101Y-44869866D01*
X123605134Y-44444899D01*
X123333128Y-44037814D01*
X123271238Y-43945189D01*
X123041248Y-43389943D01*
X122924000Y-42800499D01*
X122924000Y-42199501D01*
X123041248Y-41610057D01*
X123271238Y-41054811D01*
X123488340Y-40729896D01*
X123605134Y-40555101D01*
X124030101Y-40130134D01*
X124357503Y-39911371D01*
X124529811Y-39796238D01*
X125085057Y-39566248D01*
X125674501Y-39449000D01*
X126275499Y-39449000D01*
X126864943Y-39566248D01*
X126864943Y-39566248D01*
G37*
G36*
X145270104Y-40109585D02*
G01*
X145438626Y-40179389D01*
X145590291Y-40280728D01*
X145719272Y-40409709D01*
X145820611Y-40561374D01*
X145890415Y-40729896D01*
X145926000Y-40908797D01*
X145926000Y-41091203D01*
X145890415Y-41270104D01*
X145820611Y-41438626D01*
X145719272Y-41590291D01*
X145590291Y-41719272D01*
X145438626Y-41820611D01*
X145270104Y-41890415D01*
X145091203Y-41926000D01*
X144908797Y-41926000D01*
X144729896Y-41890415D01*
X144561374Y-41820611D01*
X144409709Y-41719272D01*
X144280728Y-41590291D01*
X144179389Y-41438626D01*
X144109585Y-41270104D01*
X144074000Y-41091203D01*
X144074000Y-40908797D01*
X144109585Y-40729896D01*
X144179389Y-40561374D01*
X144280728Y-40409709D01*
X144409709Y-40280728D01*
X144561374Y-40179389D01*
X144729896Y-40109585D01*
X144908797Y-40074000D01*
X145091203Y-40074000D01*
X145270104Y-40109585D01*
X145270104Y-40109585D01*
G37*
G36*
X116571000Y-40611000D02*
G01*
X114969000Y-40611000D01*
X114969000Y-39009000D01*
X116571000Y-39009000D01*
X116571000Y-40611000D01*
X116571000Y-40611000D01*
G37*
G36*
X113308571Y-39012863D02*
G01*
X113387023Y-39020590D01*
X113487682Y-39051125D01*
X113538013Y-39066392D01*
X113677165Y-39140771D01*
X113799133Y-39240867D01*
X113899229Y-39362835D01*
X113973608Y-39501987D01*
X113973608Y-39501988D01*
X114019410Y-39652977D01*
X114034875Y-39810000D01*
X114019410Y-39967023D01*
X114011394Y-39993448D01*
X113973608Y-40118013D01*
X113899229Y-40257165D01*
X113799133Y-40379133D01*
X113677165Y-40479229D01*
X113538013Y-40553608D01*
X113512411Y-40561374D01*
X113387023Y-40599410D01*
X113308571Y-40607137D01*
X113269346Y-40611000D01*
X113190654Y-40611000D01*
X113151429Y-40607137D01*
X113072977Y-40599410D01*
X112947589Y-40561374D01*
X112921987Y-40553608D01*
X112782835Y-40479229D01*
X112660867Y-40379133D01*
X112560771Y-40257165D01*
X112486392Y-40118013D01*
X112448606Y-39993448D01*
X112440590Y-39967023D01*
X112425125Y-39810000D01*
X112440590Y-39652977D01*
X112486392Y-39501988D01*
X112486392Y-39501987D01*
X112560771Y-39362835D01*
X112660867Y-39240867D01*
X112782835Y-39140771D01*
X112921987Y-39066392D01*
X112972318Y-39051125D01*
X113072977Y-39020590D01*
X113151429Y-39012863D01*
X113190654Y-39009000D01*
X113269346Y-39009000D01*
X113308571Y-39012863D01*
X113308571Y-39012863D01*
G37*
G36*
X145270104Y-37609585D02*
G01*
X145438626Y-37679389D01*
X145590291Y-37780728D01*
X145719272Y-37909709D01*
X145820611Y-38061374D01*
X145890415Y-38229896D01*
X145926000Y-38408797D01*
X145926000Y-38591203D01*
X145890415Y-38770104D01*
X145820611Y-38938626D01*
X145719272Y-39090291D01*
X145590291Y-39219272D01*
X145438626Y-39320611D01*
X145270104Y-39390415D01*
X145091203Y-39426000D01*
X144908797Y-39426000D01*
X144729896Y-39390415D01*
X144561374Y-39320611D01*
X144409709Y-39219272D01*
X144280728Y-39090291D01*
X144179389Y-38938626D01*
X144109585Y-38770104D01*
X144074000Y-38591203D01*
X144074000Y-38408797D01*
X144109585Y-38229896D01*
X144179389Y-38061374D01*
X144280728Y-37909709D01*
X144409709Y-37780728D01*
X144561374Y-37679389D01*
X144729896Y-37609585D01*
X144908797Y-37574000D01*
X145091203Y-37574000D01*
X145270104Y-37609585D01*
X145270104Y-37609585D01*
G37*
G36*
X145270104Y-35109585D02*
G01*
X145438626Y-35179389D01*
X145590291Y-35280728D01*
X145719272Y-35409709D01*
X145820611Y-35561374D01*
X145890415Y-35729896D01*
X145926000Y-35908797D01*
X145926000Y-36091203D01*
X145890415Y-36270104D01*
X145820611Y-36438626D01*
X145719272Y-36590291D01*
X145590291Y-36719272D01*
X145438626Y-36820611D01*
X145270104Y-36890415D01*
X145091203Y-36926000D01*
X144908797Y-36926000D01*
X144729896Y-36890415D01*
X144561374Y-36820611D01*
X144409709Y-36719272D01*
X144280728Y-36590291D01*
X144179389Y-36438626D01*
X144109585Y-36270104D01*
X144074000Y-36091203D01*
X144074000Y-35908797D01*
X144109585Y-35729896D01*
X144179389Y-35561374D01*
X144280728Y-35409709D01*
X144409709Y-35280728D01*
X144561374Y-35179389D01*
X144729896Y-35109585D01*
X144908797Y-35074000D01*
X145091203Y-35074000D01*
X145270104Y-35109585D01*
X145270104Y-35109585D01*
G37*
G36*
X145926000Y-34426000D02*
G01*
X144074000Y-34426000D01*
X144074000Y-32574000D01*
X145926000Y-32574000D01*
X145926000Y-34426000D01*
X145926000Y-34426000D01*
G37*
G36*
X87248228Y-31431703D02*
G01*
X87403100Y-31495853D01*
X87542481Y-31588985D01*
X87661015Y-31707519D01*
X87754147Y-31846900D01*
X87818297Y-32001772D01*
X87851000Y-32166184D01*
X87851000Y-32333816D01*
X87818297Y-32498228D01*
X87754147Y-32653100D01*
X87661015Y-32792481D01*
X87542481Y-32911015D01*
X87403100Y-33004147D01*
X87248228Y-33068297D01*
X87083816Y-33101000D01*
X86916184Y-33101000D01*
X86751772Y-33068297D01*
X86596900Y-33004147D01*
X86457519Y-32911015D01*
X86338985Y-32792481D01*
X86245853Y-32653100D01*
X86181703Y-32498228D01*
X86149000Y-32333816D01*
X86149000Y-32166184D01*
X86181703Y-32001772D01*
X86245853Y-31846900D01*
X86338985Y-31707519D01*
X86457519Y-31588985D01*
X86596900Y-31495853D01*
X86751772Y-31431703D01*
X86916184Y-31399000D01*
X87083816Y-31399000D01*
X87248228Y-31431703D01*
X87248228Y-31431703D01*
G37*
G36*
X72748228Y-31431703D02*
G01*
X72903100Y-31495853D01*
X73042481Y-31588985D01*
X73161015Y-31707519D01*
X73254147Y-31846900D01*
X73318297Y-32001772D01*
X73351000Y-32166184D01*
X73351000Y-32333816D01*
X73318297Y-32498228D01*
X73254147Y-32653100D01*
X73161015Y-32792481D01*
X73042481Y-32911015D01*
X72903100Y-33004147D01*
X72748228Y-33068297D01*
X72583816Y-33101000D01*
X72416184Y-33101000D01*
X72251772Y-33068297D01*
X72096900Y-33004147D01*
X71957519Y-32911015D01*
X71838985Y-32792481D01*
X71745853Y-32653100D01*
X71681703Y-32498228D01*
X71649000Y-32333816D01*
X71649000Y-32166184D01*
X71681703Y-32001772D01*
X71745853Y-31846900D01*
X71838985Y-31707519D01*
X71957519Y-31588985D01*
X72096900Y-31495853D01*
X72251772Y-31431703D01*
X72416184Y-31399000D01*
X72583816Y-31399000D01*
X72748228Y-31431703D01*
X72748228Y-31431703D01*
G37*
G36*
X113308571Y-31392863D02*
G01*
X113387023Y-31400590D01*
X113487682Y-31431125D01*
X113538013Y-31446392D01*
X113677165Y-31520771D01*
X113799133Y-31620867D01*
X113899229Y-31742835D01*
X113973608Y-31881987D01*
X113973608Y-31881988D01*
X114019410Y-32032977D01*
X114034875Y-32190000D01*
X114019410Y-32347023D01*
X113988875Y-32447682D01*
X113973608Y-32498013D01*
X113899229Y-32637165D01*
X113799133Y-32759133D01*
X113677165Y-32859229D01*
X113538013Y-32933608D01*
X113487682Y-32948875D01*
X113387023Y-32979410D01*
X113308571Y-32987137D01*
X113269346Y-32991000D01*
X113190654Y-32991000D01*
X113151429Y-32987137D01*
X113072977Y-32979410D01*
X112972318Y-32948875D01*
X112921987Y-32933608D01*
X112782835Y-32859229D01*
X112660867Y-32759133D01*
X112560771Y-32637165D01*
X112486392Y-32498013D01*
X112471125Y-32447682D01*
X112440590Y-32347023D01*
X112425125Y-32190000D01*
X112440590Y-32032977D01*
X112486392Y-31881988D01*
X112486392Y-31881987D01*
X112560771Y-31742835D01*
X112660867Y-31620867D01*
X112782835Y-31520771D01*
X112921987Y-31446392D01*
X112972318Y-31431125D01*
X113072977Y-31400590D01*
X113151429Y-31392863D01*
X113190654Y-31389000D01*
X113269346Y-31389000D01*
X113308571Y-31392863D01*
X113308571Y-31392863D01*
G37*
G36*
X115848571Y-31392863D02*
G01*
X115927023Y-31400590D01*
X116027682Y-31431125D01*
X116078013Y-31446392D01*
X116217165Y-31520771D01*
X116339133Y-31620867D01*
X116439229Y-31742835D01*
X116513608Y-31881987D01*
X116513608Y-31881988D01*
X116559410Y-32032977D01*
X116574875Y-32190000D01*
X116559410Y-32347023D01*
X116528875Y-32447682D01*
X116513608Y-32498013D01*
X116439229Y-32637165D01*
X116339133Y-32759133D01*
X116217165Y-32859229D01*
X116078013Y-32933608D01*
X116027682Y-32948875D01*
X115927023Y-32979410D01*
X115848571Y-32987137D01*
X115809346Y-32991000D01*
X115730654Y-32991000D01*
X115691429Y-32987137D01*
X115612977Y-32979410D01*
X115512318Y-32948875D01*
X115461987Y-32933608D01*
X115322835Y-32859229D01*
X115200867Y-32759133D01*
X115100771Y-32637165D01*
X115026392Y-32498013D01*
X115011125Y-32447682D01*
X114980590Y-32347023D01*
X114965125Y-32190000D01*
X114980590Y-32032977D01*
X115026392Y-31881988D01*
X115026392Y-31881987D01*
X115100771Y-31742835D01*
X115200867Y-31620867D01*
X115322835Y-31520771D01*
X115461987Y-31446392D01*
X115512318Y-31431125D01*
X115612977Y-31400590D01*
X115691429Y-31392863D01*
X115730654Y-31389000D01*
X115809346Y-31389000D01*
X115848571Y-31392863D01*
X115848571Y-31392863D01*
G37*
G36*
X87851000Y-30601000D02*
G01*
X86149000Y-30601000D01*
X86149000Y-28899000D01*
X87851000Y-28899000D01*
X87851000Y-30601000D01*
X87851000Y-30601000D01*
G37*
G36*
X73351000Y-30601000D02*
G01*
X71649000Y-30601000D01*
X71649000Y-28899000D01*
X73351000Y-28899000D01*
X73351000Y-30601000D01*
X73351000Y-30601000D01*
G37*
G36*
X34301000Y-30551000D02*
G01*
X30699000Y-30551000D01*
X30699000Y-26949000D01*
X34301000Y-26949000D01*
X34301000Y-30551000D01*
X34301000Y-30551000D01*
G37*
G36*
X46351000Y-28351000D02*
G01*
X44649000Y-28351000D01*
X44649000Y-26649000D01*
X46351000Y-26649000D01*
X46351000Y-28351000D01*
X46351000Y-28351000D01*
G37*
G36*
X39001000Y-27551000D02*
G01*
X35399000Y-27551000D01*
X35399000Y-23949000D01*
X39001000Y-23949000D01*
X39001000Y-27551000D01*
X39001000Y-27551000D01*
G37*
G36*
X146889943Y-21066248D02*
G01*
X147445189Y-21296238D01*
X147617497Y-21411371D01*
X147944899Y-21630134D01*
X148369866Y-22055101D01*
X148369867Y-22055103D01*
X148703762Y-22554811D01*
X148933752Y-23110057D01*
X149051000Y-23699501D01*
X149051000Y-24300499D01*
X148933752Y-24889943D01*
X148703762Y-25445189D01*
X148641872Y-25537814D01*
X148369866Y-25944899D01*
X147944899Y-26369866D01*
X147870736Y-26419420D01*
X147445189Y-26703762D01*
X146889943Y-26933752D01*
X146300499Y-27051000D01*
X145699501Y-27051000D01*
X145110057Y-26933752D01*
X144554811Y-26703762D01*
X144129264Y-26419420D01*
X144055101Y-26369866D01*
X143630134Y-25944899D01*
X143358128Y-25537814D01*
X143296238Y-25445189D01*
X143066248Y-24889943D01*
X142949000Y-24300499D01*
X142949000Y-23699501D01*
X143066248Y-23110057D01*
X143296238Y-22554811D01*
X143630133Y-22055103D01*
X143630134Y-22055101D01*
X144055101Y-21630134D01*
X144382503Y-21411371D01*
X144554811Y-21296238D01*
X145110057Y-21066248D01*
X145699501Y-20949000D01*
X146300499Y-20949000D01*
X146889943Y-21066248D01*
X146889943Y-21066248D01*
G37*
G36*
X24889943Y-21066248D02*
G01*
X25445189Y-21296238D01*
X25617497Y-21411371D01*
X25944899Y-21630134D01*
X26369866Y-22055101D01*
X26369867Y-22055103D01*
X26703762Y-22554811D01*
X26933752Y-23110057D01*
X27051000Y-23699501D01*
X27051000Y-24300499D01*
X26933752Y-24889943D01*
X26703762Y-25445189D01*
X26641872Y-25537814D01*
X26369866Y-25944899D01*
X25944899Y-26369866D01*
X25870736Y-26419420D01*
X25445189Y-26703762D01*
X24889943Y-26933752D01*
X24300499Y-27051000D01*
X23699501Y-27051000D01*
X23110057Y-26933752D01*
X22554811Y-26703762D01*
X22129264Y-26419420D01*
X22055101Y-26369866D01*
X21630134Y-25944899D01*
X21358128Y-25537814D01*
X21296238Y-25445189D01*
X21066248Y-24889943D01*
X20949000Y-24300499D01*
X20949000Y-23699501D01*
X21066248Y-23110057D01*
X21296238Y-22554811D01*
X21630133Y-22055103D01*
X21630134Y-22055101D01*
X22055101Y-21630134D01*
X22382503Y-21411371D01*
X22554811Y-21296238D01*
X23110057Y-21066248D01*
X23699501Y-20949000D01*
X24300499Y-20949000D01*
X24889943Y-21066248D01*
X24889943Y-21066248D01*
G37*
G36*
X45748228Y-24181703D02*
G01*
X45903100Y-24245853D01*
X46042481Y-24338985D01*
X46161015Y-24457519D01*
X46254147Y-24596900D01*
X46318297Y-24751772D01*
X46351000Y-24916184D01*
X46351000Y-25083816D01*
X46318297Y-25248228D01*
X46254147Y-25403100D01*
X46161015Y-25542481D01*
X46042481Y-25661015D01*
X45903100Y-25754147D01*
X45748228Y-25818297D01*
X45583816Y-25851000D01*
X45416184Y-25851000D01*
X45251772Y-25818297D01*
X45096900Y-25754147D01*
X44957519Y-25661015D01*
X44838985Y-25542481D01*
X44745853Y-25403100D01*
X44681703Y-25248228D01*
X44649000Y-25083816D01*
X44649000Y-24916184D01*
X44681703Y-24751772D01*
X44745853Y-24596900D01*
X44838985Y-24457519D01*
X44957519Y-24338985D01*
X45096900Y-24245853D01*
X45251772Y-24181703D01*
X45416184Y-24149000D01*
X45583816Y-24149000D01*
X45748228Y-24181703D01*
X45748228Y-24181703D01*
G37*
G36*
X78270104Y-23359585D02*
G01*
X78438626Y-23429389D01*
X78590291Y-23530728D01*
X78719272Y-23659709D01*
X78820611Y-23811374D01*
X78890415Y-23979896D01*
X78926000Y-24158797D01*
X78926000Y-24341203D01*
X78890415Y-24520104D01*
X78820611Y-24688626D01*
X78719272Y-24840291D01*
X78590291Y-24969272D01*
X78438626Y-25070611D01*
X78270104Y-25140415D01*
X78091203Y-25176000D01*
X77908797Y-25176000D01*
X77729896Y-25140415D01*
X77561374Y-25070611D01*
X77409709Y-24969272D01*
X77280728Y-24840291D01*
X77179389Y-24688626D01*
X77109585Y-24520104D01*
X77074000Y-24341203D01*
X77074000Y-24158797D01*
X77109585Y-23979896D01*
X77179389Y-23811374D01*
X77280728Y-23659709D01*
X77409709Y-23530728D01*
X77561374Y-23429389D01*
X77729896Y-23359585D01*
X77908797Y-23324000D01*
X78091203Y-23324000D01*
X78270104Y-23359585D01*
X78270104Y-23359585D01*
G37*
G36*
X87270104Y-23359585D02*
G01*
X87438626Y-23429389D01*
X87590291Y-23530728D01*
X87719272Y-23659709D01*
X87820611Y-23811374D01*
X87890415Y-23979896D01*
X87926000Y-24158797D01*
X87926000Y-24341203D01*
X87890415Y-24520104D01*
X87820611Y-24688626D01*
X87719272Y-24840291D01*
X87590291Y-24969272D01*
X87438626Y-25070611D01*
X87270104Y-25140415D01*
X87091203Y-25176000D01*
X86908797Y-25176000D01*
X86729896Y-25140415D01*
X86561374Y-25070611D01*
X86409709Y-24969272D01*
X86280728Y-24840291D01*
X86179389Y-24688626D01*
X86109585Y-24520104D01*
X86074000Y-24341203D01*
X86074000Y-24158797D01*
X86109585Y-23979896D01*
X86179389Y-23811374D01*
X86280728Y-23659709D01*
X86409709Y-23530728D01*
X86561374Y-23429389D01*
X86729896Y-23359585D01*
X86908797Y-23324000D01*
X87091203Y-23324000D01*
X87270104Y-23359585D01*
X87270104Y-23359585D01*
G37*
G36*
X76426000Y-25176000D02*
G01*
X74574000Y-25176000D01*
X74574000Y-23324000D01*
X76426000Y-23324000D01*
X76426000Y-25176000D01*
X76426000Y-25176000D01*
G37*
G36*
X85426000Y-25176000D02*
G01*
X83574000Y-25176000D01*
X83574000Y-23324000D01*
X85426000Y-23324000D01*
X85426000Y-25176000D01*
X85426000Y-25176000D01*
G37*
G36*
X34301000Y-24551000D02*
G01*
X30699000Y-24551000D01*
X30699000Y-20949000D01*
X34301000Y-20949000D01*
X34301000Y-24551000D01*
X34301000Y-24551000D01*
G37*
G36*
X98151000Y-24151000D02*
G01*
X96349000Y-24151000D01*
X96349000Y-22349000D01*
X98151000Y-22349000D01*
X98151000Y-24151000D01*
X98151000Y-24151000D01*
G37*
G36*
X94820443Y-22355519D02*
G01*
X94886627Y-22362037D01*
X95056466Y-22413557D01*
X95212991Y-22497222D01*
X95246843Y-22525004D01*
X95350186Y-22609814D01*
X95408563Y-22680948D01*
X95462778Y-22747009D01*
X95546443Y-22903534D01*
X95597963Y-23073373D01*
X95615359Y-23250000D01*
X95597963Y-23426627D01*
X95546443Y-23596466D01*
X95462778Y-23752991D01*
X95433448Y-23788729D01*
X95350186Y-23890186D01*
X95248729Y-23973448D01*
X95212991Y-24002778D01*
X95056466Y-24086443D01*
X94886627Y-24137963D01*
X94820442Y-24144482D01*
X94754260Y-24151000D01*
X94665740Y-24151000D01*
X94599557Y-24144481D01*
X94533373Y-24137963D01*
X94363534Y-24086443D01*
X94207009Y-24002778D01*
X94171271Y-23973448D01*
X94069814Y-23890186D01*
X93986552Y-23788729D01*
X93957222Y-23752991D01*
X93873557Y-23596466D01*
X93822037Y-23426627D01*
X93804641Y-23250000D01*
X93822037Y-23073373D01*
X93873557Y-22903534D01*
X93957222Y-22747009D01*
X94011437Y-22680948D01*
X94069814Y-22609814D01*
X94173157Y-22525004D01*
X94207009Y-22497222D01*
X94363534Y-22413557D01*
X94533373Y-22362037D01*
X94599558Y-22355518D01*
X94665740Y-22349000D01*
X94754260Y-22349000D01*
X94820443Y-22355519D01*
X94820443Y-22355519D01*
G37*
G36*
X118400443Y-22355519D02*
G01*
X118466627Y-22362037D01*
X118636466Y-22413557D01*
X118792991Y-22497222D01*
X118826843Y-22525004D01*
X118930186Y-22609814D01*
X118988563Y-22680948D01*
X119042778Y-22747009D01*
X119126443Y-22903534D01*
X119177963Y-23073373D01*
X119195359Y-23250000D01*
X119177963Y-23426627D01*
X119126443Y-23596466D01*
X119042778Y-23752991D01*
X119013448Y-23788729D01*
X118930186Y-23890186D01*
X118828729Y-23973448D01*
X118792991Y-24002778D01*
X118636466Y-24086443D01*
X118466627Y-24137963D01*
X118400442Y-24144482D01*
X118334260Y-24151000D01*
X118245740Y-24151000D01*
X118179557Y-24144481D01*
X118113373Y-24137963D01*
X117943534Y-24086443D01*
X117787009Y-24002778D01*
X117751271Y-23973448D01*
X117649814Y-23890186D01*
X117566552Y-23788729D01*
X117537222Y-23752991D01*
X117453557Y-23596466D01*
X117402037Y-23426627D01*
X117384641Y-23250000D01*
X117402037Y-23073373D01*
X117453557Y-22903534D01*
X117537222Y-22747009D01*
X117591437Y-22680948D01*
X117649814Y-22609814D01*
X117753157Y-22525004D01*
X117787009Y-22497222D01*
X117943534Y-22413557D01*
X118113373Y-22362037D01*
X118179558Y-22355518D01*
X118245740Y-22349000D01*
X118334260Y-22349000D01*
X118400443Y-22355519D01*
X118400443Y-22355519D01*
G37*
G36*
X116651000Y-24151000D02*
G01*
X114849000Y-24151000D01*
X114849000Y-22349000D01*
X116651000Y-22349000D01*
X116651000Y-24151000D01*
X116651000Y-24151000D01*
G37*
G36*
X105151000Y-24151000D02*
G01*
X103349000Y-24151000D01*
X103349000Y-22349000D01*
X105151000Y-22349000D01*
X105151000Y-24151000D01*
X105151000Y-24151000D01*
G37*
G36*
X125400443Y-22355519D02*
G01*
X125466627Y-22362037D01*
X125636466Y-22413557D01*
X125792991Y-22497222D01*
X125826843Y-22525004D01*
X125930186Y-22609814D01*
X125988563Y-22680948D01*
X126042778Y-22747009D01*
X126126443Y-22903534D01*
X126177963Y-23073373D01*
X126195359Y-23250000D01*
X126177963Y-23426627D01*
X126126443Y-23596466D01*
X126042778Y-23752991D01*
X126013448Y-23788729D01*
X125930186Y-23890186D01*
X125828729Y-23973448D01*
X125792991Y-24002778D01*
X125636466Y-24086443D01*
X125466627Y-24137963D01*
X125400442Y-24144482D01*
X125334260Y-24151000D01*
X125245740Y-24151000D01*
X125179557Y-24144481D01*
X125113373Y-24137963D01*
X124943534Y-24086443D01*
X124787009Y-24002778D01*
X124751271Y-23973448D01*
X124649814Y-23890186D01*
X124566552Y-23788729D01*
X124537222Y-23752991D01*
X124453557Y-23596466D01*
X124402037Y-23426627D01*
X124384641Y-23250000D01*
X124402037Y-23073373D01*
X124453557Y-22903534D01*
X124537222Y-22747009D01*
X124591437Y-22680948D01*
X124649814Y-22609814D01*
X124753157Y-22525004D01*
X124787009Y-22497222D01*
X124943534Y-22413557D01*
X125113373Y-22362037D01*
X125179558Y-22355518D01*
X125245740Y-22349000D01*
X125334260Y-22349000D01*
X125400443Y-22355519D01*
X125400443Y-22355519D01*
G37*
G36*
X123651000Y-24151000D02*
G01*
X121849000Y-24151000D01*
X121849000Y-22349000D01*
X123651000Y-22349000D01*
X123651000Y-24151000D01*
X123651000Y-24151000D01*
G37*
G36*
X101820443Y-22355519D02*
G01*
X101886627Y-22362037D01*
X102056466Y-22413557D01*
X102212991Y-22497222D01*
X102246843Y-22525004D01*
X102350186Y-22609814D01*
X102408563Y-22680948D01*
X102462778Y-22747009D01*
X102546443Y-22903534D01*
X102597963Y-23073373D01*
X102615359Y-23250000D01*
X102597963Y-23426627D01*
X102546443Y-23596466D01*
X102462778Y-23752991D01*
X102433448Y-23788729D01*
X102350186Y-23890186D01*
X102248729Y-23973448D01*
X102212991Y-24002778D01*
X102056466Y-24086443D01*
X101886627Y-24137963D01*
X101820442Y-24144482D01*
X101754260Y-24151000D01*
X101665740Y-24151000D01*
X101599557Y-24144481D01*
X101533373Y-24137963D01*
X101363534Y-24086443D01*
X101207009Y-24002778D01*
X101171271Y-23973448D01*
X101069814Y-23890186D01*
X100986552Y-23788729D01*
X100957222Y-23752991D01*
X100873557Y-23596466D01*
X100822037Y-23426627D01*
X100804641Y-23250000D01*
X100822037Y-23073373D01*
X100873557Y-22903534D01*
X100957222Y-22747009D01*
X101011437Y-22680948D01*
X101069814Y-22609814D01*
X101173157Y-22525004D01*
X101207009Y-22497222D01*
X101363534Y-22413557D01*
X101533373Y-22362037D01*
X101599558Y-22355518D01*
X101665740Y-22349000D01*
X101754260Y-22349000D01*
X101820443Y-22355519D01*
X101820443Y-22355519D01*
G37*
G36*
X111400443Y-22355519D02*
G01*
X111466627Y-22362037D01*
X111636466Y-22413557D01*
X111792991Y-22497222D01*
X111826843Y-22525004D01*
X111930186Y-22609814D01*
X111988563Y-22680948D01*
X112042778Y-22747009D01*
X112126443Y-22903534D01*
X112177963Y-23073373D01*
X112195359Y-23250000D01*
X112177963Y-23426627D01*
X112126443Y-23596466D01*
X112042778Y-23752991D01*
X112013448Y-23788729D01*
X111930186Y-23890186D01*
X111828729Y-23973448D01*
X111792991Y-24002778D01*
X111636466Y-24086443D01*
X111466627Y-24137963D01*
X111400442Y-24144482D01*
X111334260Y-24151000D01*
X111245740Y-24151000D01*
X111179557Y-24144481D01*
X111113373Y-24137963D01*
X110943534Y-24086443D01*
X110787009Y-24002778D01*
X110751271Y-23973448D01*
X110649814Y-23890186D01*
X110566552Y-23788729D01*
X110537222Y-23752991D01*
X110453557Y-23596466D01*
X110402037Y-23426627D01*
X110384641Y-23250000D01*
X110402037Y-23073373D01*
X110453557Y-22903534D01*
X110537222Y-22747009D01*
X110591437Y-22680948D01*
X110649814Y-22609814D01*
X110753157Y-22525004D01*
X110787009Y-22497222D01*
X110943534Y-22413557D01*
X111113373Y-22362037D01*
X111179558Y-22355518D01*
X111245740Y-22349000D01*
X111334260Y-22349000D01*
X111400443Y-22355519D01*
X111400443Y-22355519D01*
G37*
G36*
X109651000Y-24151000D02*
G01*
X107849000Y-24151000D01*
X107849000Y-22349000D01*
X109651000Y-22349000D01*
X109651000Y-24151000D01*
X109651000Y-24151000D01*
G37*
M02*
