%TF.GenerationSoftware,KiCad,Pcbnew,(5.1.4)-1*%
%TF.CreationDate,2020-11-06T00:10:57+08:00*%
%TF.ProjectId,MCU,4d43552e-6b69-4636-9164-5f7063625858,rev?*%
%TF.SameCoordinates,Original*%
%TF.FileFunction,Paste,Bot*%
%TF.FilePolarity,Positive*%
%FSLAX46Y46*%
G04 Gerber Fmt 4.6, Leading zero omitted, Abs format (unit mm)*
G04 Created by KiCad (PCBNEW (5.1.4)-1) date 2020-11-06 00:10:57*
%MOMM*%
%LPD*%
G04 APERTURE LIST*
%ADD10C,0.100000*%
%ADD11R,1.250000X1.000000*%
%ADD12O,0.700000X1.800000*%
%ADD13R,0.700000X1.300000*%
%ADD14R,1.300000X0.700000*%
%ADD15R,1.000000X1.250000*%
%ADD16R,0.700000X1.250000*%
%ADD17R,1.700000X0.900000*%
%ADD18O,1.800000X0.600000*%
%ADD19C,1.200000*%
%ADD20C,0.350000*%
%ADD21C,0.700000*%
%ADD22C,1.000000*%
%ADD23R,1.200000X1.200000*%
%ADD24O,0.600000X1.800000*%
%ADD25R,1.100000X0.600000*%
%ADD26R,0.900000X1.700000*%
%ADD27R,0.600000X1.100000*%
%ADD28C,0.280000*%
%ADD29C,0.280000*%
%ADD30R,1.250000X0.700000*%
%ADD31R,2.000000X2.000000*%
%ADD32R,2.200000X1.000000*%
%ADD33R,2.200000X3.500000*%
%ADD34R,1.000000X2.200000*%
%ADD35R,3.500000X2.200000*%
%ADD36R,0.400000X2.000000*%
%ADD37R,1.780000X3.700000*%
%ADD38R,0.900000X1.500000*%
%ADD39R,1.500000X0.900000*%
G04 APERTURE END LIST*
D10*
G36*
X81750000Y-80000000D02*
G01*
X79750000Y-80000000D01*
X79750000Y-73250000D01*
X81750000Y-73250000D01*
X81750000Y-80000000D01*
G37*
X81750000Y-80000000D02*
X79750000Y-80000000D01*
X79750000Y-73250000D01*
X81750000Y-73250000D01*
X81750000Y-80000000D01*
G36*
X49250000Y-94750000D02*
G01*
X38500000Y-94750000D01*
X38500000Y-92250000D01*
X49250000Y-92250000D01*
X49250000Y-94750000D01*
G37*
X49250000Y-94750000D02*
X38500000Y-94750000D01*
X38500000Y-92250000D01*
X49250000Y-92250000D01*
X49250000Y-94750000D01*
G36*
X81750000Y-46750000D02*
G01*
X68250000Y-46750000D01*
X68250000Y-44250000D01*
X81750000Y-44250000D01*
X81750000Y-46750000D01*
G37*
X81750000Y-46750000D02*
X68250000Y-46750000D01*
X68250000Y-44250000D01*
X81750000Y-44250000D01*
X81750000Y-46750000D01*
G36*
X53500000Y-46750000D02*
G01*
X39750000Y-46750000D01*
X39750000Y-44250000D01*
X53500000Y-44250000D01*
X53500000Y-46750000D01*
G37*
X53500000Y-46750000D02*
X39750000Y-46750000D01*
X39750000Y-44250000D01*
X53500000Y-44250000D01*
X53500000Y-46750000D01*
D11*
X113775000Y-56750000D03*
X116725000Y-56750000D03*
D12*
X31070000Y-114235000D03*
X32340000Y-114235000D03*
X33610000Y-114235000D03*
X34880000Y-114235000D03*
X34880000Y-109035000D03*
X33610000Y-109035000D03*
X32340000Y-109035000D03*
X31070000Y-109035000D03*
D13*
X33950000Y-116250000D03*
X32050000Y-116250000D03*
D14*
X36750000Y-107050000D03*
X36750000Y-108950000D03*
X28750000Y-107050000D03*
X28750000Y-108950000D03*
D15*
X33750000Y-107000000D03*
X31750000Y-107000000D03*
D13*
X113775000Y-67767000D03*
X111875000Y-67767000D03*
X111850000Y-69800000D03*
X113750000Y-69800000D03*
D16*
X109350000Y-66700000D03*
X108400000Y-69200000D03*
X110300000Y-69200000D03*
D11*
X69225000Y-111250000D03*
X66275000Y-111250000D03*
D17*
X66800000Y-44450000D03*
X66800000Y-41550000D03*
D18*
X136000000Y-95010000D03*
X136000000Y-93740000D03*
X136000000Y-92470000D03*
X136000000Y-91200000D03*
X136000000Y-89930000D03*
X136000000Y-88660000D03*
X136000000Y-87390000D03*
X130800000Y-87390000D03*
X130800000Y-88660000D03*
X130800000Y-89930000D03*
X130800000Y-91200000D03*
X130800000Y-92470000D03*
X130800000Y-93740000D03*
X130800000Y-95010000D03*
D19*
X66277817Y-85777817D03*
D20*
G36*
X65429289Y-85777817D02*
G01*
X66277817Y-84929289D01*
X67126345Y-85777817D01*
X66277817Y-86626345D01*
X65429289Y-85777817D01*
X65429289Y-85777817D01*
G37*
D19*
X64722183Y-84222183D03*
D20*
G36*
X63873655Y-84222183D02*
G01*
X64722183Y-83373655D01*
X65570711Y-84222183D01*
X64722183Y-85070711D01*
X63873655Y-84222183D01*
X63873655Y-84222183D01*
G37*
D21*
X64671751Y-87171751D03*
D20*
G36*
X63964644Y-87383883D02*
G01*
X64883883Y-86464644D01*
X65378858Y-86959619D01*
X64459619Y-87878858D01*
X63964644Y-87383883D01*
X63964644Y-87383883D01*
G37*
D21*
X63328249Y-85828249D03*
D20*
G36*
X62621142Y-86040381D02*
G01*
X63540381Y-85121142D01*
X64035356Y-85616117D01*
X63116117Y-86535356D01*
X62621142Y-86040381D01*
X62621142Y-86040381D01*
G37*
D22*
X60778107Y-84019107D03*
D20*
G36*
X59982612Y-84107495D02*
G01*
X60866495Y-83223612D01*
X61573602Y-83930719D01*
X60689719Y-84814602D01*
X59982612Y-84107495D01*
X59982612Y-84107495D01*
G37*
D22*
X59363893Y-82604893D03*
D20*
G36*
X58568398Y-82693281D02*
G01*
X59452281Y-81809398D01*
X60159388Y-82516505D01*
X59275505Y-83400388D01*
X58568398Y-82693281D01*
X58568398Y-82693281D01*
G37*
D22*
X54047107Y-59000107D03*
D20*
G36*
X54842602Y-58911719D02*
G01*
X53958719Y-59795602D01*
X53251612Y-59088495D01*
X54135495Y-58204612D01*
X54842602Y-58911719D01*
X54842602Y-58911719D01*
G37*
D22*
X52632893Y-57585893D03*
D20*
G36*
X53428388Y-57497505D02*
G01*
X52544505Y-58381388D01*
X51837398Y-57674281D01*
X52721281Y-56790398D01*
X53428388Y-57497505D01*
X53428388Y-57497505D01*
G37*
D22*
X43488893Y-73478107D03*
D20*
G36*
X43400505Y-72682612D02*
G01*
X44284388Y-73566495D01*
X43577281Y-74273602D01*
X42693398Y-73389719D01*
X43400505Y-72682612D01*
X43400505Y-72682612D01*
G37*
D22*
X44903107Y-72063893D03*
D20*
G36*
X44814719Y-71268398D02*
G01*
X45698602Y-72152281D01*
X44991495Y-72859388D01*
X44107612Y-71975505D01*
X44814719Y-71268398D01*
X44814719Y-71268398D01*
G37*
D11*
X92407000Y-105410000D03*
X89457000Y-105410000D03*
D13*
X84648000Y-111760000D03*
X86548000Y-111760000D03*
D14*
X60250000Y-25950000D03*
X60250000Y-24050000D03*
D13*
X146450000Y-111250000D03*
X144550000Y-111250000D03*
X122950000Y-85750000D03*
X121050000Y-85750000D03*
X122450000Y-74750000D03*
X120550000Y-74750000D03*
D14*
X119000000Y-45300000D03*
X119000000Y-47200000D03*
X113500000Y-45300000D03*
X113500000Y-47200000D03*
D13*
X128450000Y-65250000D03*
X126550000Y-65250000D03*
X129950000Y-59750000D03*
X128050000Y-59750000D03*
D23*
X64850000Y-25000000D03*
X62650000Y-25000000D03*
X140400000Y-111250000D03*
X142600000Y-111250000D03*
X116900000Y-85750000D03*
X119100000Y-85750000D03*
X116400000Y-75000000D03*
X118600000Y-75000000D03*
X119000000Y-51350000D03*
X119000000Y-49150000D03*
X113500000Y-51100000D03*
X113500000Y-48900000D03*
X122650000Y-65250000D03*
X124850000Y-65250000D03*
X124150000Y-59750000D03*
X126350000Y-59750000D03*
D13*
X62300000Y-111550000D03*
X64200000Y-111550000D03*
X59050000Y-111550000D03*
X60950000Y-111550000D03*
X102050000Y-26500000D03*
X103950000Y-26500000D03*
X95050000Y-26500000D03*
X96950000Y-26500000D03*
X110950000Y-26500000D03*
X109050000Y-26500000D03*
D24*
X59454999Y-105900000D03*
X60724999Y-105900000D03*
X61994999Y-105900000D03*
X63264999Y-105900000D03*
X64534999Y-105900000D03*
X65804999Y-105900000D03*
X67074999Y-105900000D03*
X68344999Y-105900000D03*
X68344999Y-100700000D03*
X67074999Y-100700000D03*
X65804999Y-100700000D03*
X64534999Y-100700000D03*
X63264999Y-100700000D03*
X61994999Y-100700000D03*
X60724999Y-100700000D03*
X59454999Y-100700000D03*
D25*
X125100000Y-29050000D03*
X125100000Y-30950000D03*
X127900000Y-30950000D03*
X127900000Y-30000000D03*
X127900000Y-29050000D03*
D13*
X127550000Y-26500000D03*
X129450000Y-26500000D03*
D23*
X63550000Y-108550000D03*
X65750000Y-108550000D03*
X67800000Y-108550000D03*
X70000000Y-108550000D03*
D11*
X57023000Y-100685000D03*
X57023000Y-102685000D03*
D15*
X66765000Y-97800000D03*
X68765000Y-97800000D03*
X63015000Y-97800000D03*
X65015000Y-97800000D03*
D11*
X57150000Y-108188000D03*
X57150000Y-106188000D03*
D15*
X61265000Y-97800001D03*
X59265000Y-97800001D03*
D11*
X90075000Y-101134000D03*
X87125000Y-101134000D03*
X90075001Y-103134000D03*
X87125001Y-103134000D03*
D12*
X130595000Y-82100000D03*
X131865000Y-82100000D03*
X133135000Y-82100000D03*
X134405000Y-82100000D03*
X134405000Y-76900000D03*
X133135000Y-76900000D03*
X131865000Y-76900000D03*
X130595000Y-76900000D03*
D26*
X57300000Y-37750000D03*
X60200000Y-37750000D03*
D14*
X93000000Y-33300000D03*
X93000000Y-35200000D03*
X91000000Y-33300000D03*
X91000000Y-35200000D03*
D13*
X53800000Y-37000000D03*
X55700000Y-37000000D03*
D14*
X55250000Y-34950000D03*
X55250000Y-33050000D03*
D11*
X23500000Y-37000000D03*
X23500000Y-35000000D03*
D24*
X112690000Y-106100000D03*
X113960000Y-106100000D03*
X115230000Y-106100000D03*
X116500000Y-106100000D03*
X117770000Y-106100000D03*
X119040000Y-106100000D03*
X120310000Y-106100000D03*
X120310000Y-100900000D03*
X119040000Y-100900000D03*
X117770000Y-100900000D03*
X116500000Y-100900000D03*
X115230000Y-100900000D03*
X113960000Y-100900000D03*
X112690000Y-100900000D03*
D18*
X136100000Y-55810000D03*
X136100000Y-54540000D03*
X136100000Y-53270000D03*
X136100000Y-52000000D03*
X136100000Y-50730000D03*
X136100000Y-49460000D03*
X136100000Y-48190000D03*
X130900000Y-48190000D03*
X130900000Y-49460000D03*
X130900000Y-50730000D03*
X130900000Y-52000000D03*
X130900000Y-53270000D03*
X130900000Y-54540000D03*
X130900000Y-55810000D03*
X136100000Y-71560000D03*
X136100000Y-70290000D03*
X136100000Y-69020000D03*
X136100000Y-67750000D03*
X136100000Y-66480000D03*
X136100000Y-65210000D03*
X136100000Y-63940000D03*
X130900000Y-63940000D03*
X130900000Y-65210000D03*
X130900000Y-66480000D03*
X130900000Y-67750000D03*
X130900000Y-69020000D03*
X130900000Y-70290000D03*
X130900000Y-71560000D03*
X136350000Y-42310000D03*
X136350000Y-41040000D03*
X136350000Y-39770000D03*
X136350000Y-38500000D03*
X136350000Y-37230000D03*
X136350000Y-35960000D03*
X136350000Y-34690000D03*
X131150000Y-34690000D03*
X131150000Y-35960000D03*
X131150000Y-37230000D03*
X131150000Y-38500000D03*
X131150000Y-39770000D03*
X131150000Y-41040000D03*
X131150000Y-42310000D03*
D27*
X82300000Y-100234000D03*
X80400000Y-100234000D03*
X80400000Y-103034000D03*
X81350000Y-103034000D03*
X82300000Y-103034000D03*
D28*
X66081297Y-68903984D03*
D29*
X65543896Y-69441385D02*
X66618698Y-68366583D01*
D28*
X65727743Y-68550431D03*
D29*
X65190342Y-69087832D02*
X66265144Y-68013030D01*
D28*
X65374190Y-68196878D03*
D29*
X64836789Y-68734279D02*
X65911591Y-67659477D01*
D28*
X65020637Y-67843324D03*
D29*
X64483236Y-68380725D02*
X65558038Y-67305923D01*
D28*
X64667083Y-67489771D03*
D29*
X64129682Y-68027172D02*
X65204484Y-66952370D01*
D28*
X64313530Y-67136218D03*
D29*
X63776129Y-67673619D02*
X64850931Y-66598817D01*
D28*
X63959977Y-66782664D03*
D29*
X63422576Y-67320065D02*
X64497378Y-66245263D01*
D28*
X63606423Y-66429111D03*
D29*
X63069022Y-66966512D02*
X64143824Y-65891710D01*
D28*
X63252870Y-66075557D03*
D29*
X62715469Y-66612958D02*
X63790271Y-65538156D01*
D28*
X62899316Y-65722004D03*
D29*
X62361915Y-66259405D02*
X63436717Y-65184603D01*
D28*
X62545763Y-65368451D03*
D29*
X62008362Y-65905852D02*
X63083164Y-64831050D01*
D28*
X62192210Y-65014897D03*
D29*
X61654809Y-65552298D02*
X62729611Y-64477496D01*
D28*
X61838656Y-64661344D03*
D29*
X61301255Y-65198745D02*
X62376057Y-64123943D01*
D28*
X61485103Y-64307790D03*
D29*
X60947702Y-64845191D02*
X62022504Y-63770389D01*
D28*
X61131549Y-63954237D03*
D29*
X60594148Y-64491638D02*
X61668950Y-63416836D01*
D28*
X60777996Y-63600684D03*
D29*
X60240595Y-64138085D02*
X61315397Y-63063283D01*
D28*
X60424443Y-63247130D03*
D29*
X59887042Y-63784531D02*
X60961844Y-62709729D01*
D28*
X60070889Y-62893577D03*
D29*
X59533488Y-63430978D02*
X60608290Y-62356176D01*
D28*
X59717336Y-62540023D03*
D29*
X59179935Y-63077424D02*
X60254737Y-62002622D01*
D28*
X59363782Y-62186470D03*
D29*
X58826381Y-62723871D02*
X59901183Y-61649069D01*
D28*
X59010229Y-61832917D03*
D29*
X58472828Y-62370318D02*
X59547630Y-61295516D01*
D28*
X58656676Y-61479363D03*
D29*
X58119275Y-62016764D02*
X59194077Y-60941962D01*
D28*
X58303122Y-61125810D03*
D29*
X57765721Y-61663211D02*
X58840523Y-60588409D01*
D28*
X57949569Y-60772257D03*
D29*
X57412168Y-61309658D02*
X58486970Y-60234856D01*
D28*
X57596016Y-60418703D03*
D29*
X57058615Y-60956104D02*
X58133417Y-59881302D01*
D28*
X55403984Y-60418703D03*
D29*
X54866583Y-59881302D02*
X55941385Y-60956104D01*
D28*
X55050431Y-60772257D03*
D29*
X54513030Y-60234856D02*
X55587832Y-61309658D01*
D28*
X54696878Y-61125810D03*
D29*
X54159477Y-60588409D02*
X55234279Y-61663211D01*
D28*
X54343324Y-61479363D03*
D29*
X53805923Y-60941962D02*
X54880725Y-62016764D01*
D28*
X53989771Y-61832917D03*
D29*
X53452370Y-61295516D02*
X54527172Y-62370318D01*
D28*
X53636218Y-62186470D03*
D29*
X53098817Y-61649069D02*
X54173619Y-62723871D01*
D28*
X53282664Y-62540023D03*
D29*
X52745263Y-62002622D02*
X53820065Y-63077424D01*
D28*
X52929111Y-62893577D03*
D29*
X52391710Y-62356176D02*
X53466512Y-63430978D01*
D28*
X52575557Y-63247130D03*
D29*
X52038156Y-62709729D02*
X53112958Y-63784531D01*
D28*
X52222004Y-63600684D03*
D29*
X51684603Y-63063283D02*
X52759405Y-64138085D01*
D28*
X51868451Y-63954237D03*
D29*
X51331050Y-63416836D02*
X52405852Y-64491638D01*
D28*
X51514897Y-64307790D03*
D29*
X50977496Y-63770389D02*
X52052298Y-64845191D01*
D28*
X51161344Y-64661344D03*
D29*
X50623943Y-64123943D02*
X51698745Y-65198745D01*
D28*
X50807790Y-65014897D03*
D29*
X50270389Y-64477496D02*
X51345191Y-65552298D01*
D28*
X50454237Y-65368451D03*
D29*
X49916836Y-64831050D02*
X50991638Y-65905852D01*
D28*
X50100684Y-65722004D03*
D29*
X49563283Y-65184603D02*
X50638085Y-66259405D01*
D28*
X49747130Y-66075557D03*
D29*
X49209729Y-65538156D02*
X50284531Y-66612958D01*
D28*
X49393577Y-66429111D03*
D29*
X48856176Y-65891710D02*
X49930978Y-66966512D01*
D28*
X49040023Y-66782664D03*
D29*
X48502622Y-66245263D02*
X49577424Y-67320065D01*
D28*
X48686470Y-67136218D03*
D29*
X48149069Y-66598817D02*
X49223871Y-67673619D01*
D28*
X48332917Y-67489771D03*
D29*
X47795516Y-66952370D02*
X48870318Y-68027172D01*
D28*
X47979363Y-67843324D03*
D29*
X47441962Y-67305923D02*
X48516764Y-68380725D01*
D28*
X47625810Y-68196878D03*
D29*
X47088409Y-67659477D02*
X48163211Y-68734279D01*
D28*
X47272257Y-68550431D03*
D29*
X46734856Y-68013030D02*
X47809658Y-69087832D01*
D28*
X46918703Y-68903984D03*
D29*
X46381302Y-68366583D02*
X47456104Y-69441385D01*
D28*
X46918703Y-71096016D03*
D29*
X46381302Y-71633417D02*
X47456104Y-70558615D01*
D28*
X47272257Y-71449569D03*
D29*
X46734856Y-71986970D02*
X47809658Y-70912168D01*
D28*
X47625810Y-71803122D03*
D29*
X47088409Y-72340523D02*
X48163211Y-71265721D01*
D28*
X47979363Y-72156676D03*
D29*
X47441962Y-72694077D02*
X48516764Y-71619275D01*
D28*
X48332917Y-72510229D03*
D29*
X47795516Y-73047630D02*
X48870318Y-71972828D01*
D28*
X48686470Y-72863782D03*
D29*
X48149069Y-73401183D02*
X49223871Y-72326381D01*
D28*
X49040023Y-73217336D03*
D29*
X48502622Y-73754737D02*
X49577424Y-72679935D01*
D28*
X49393577Y-73570889D03*
D29*
X48856176Y-74108290D02*
X49930978Y-73033488D01*
D28*
X49747130Y-73924443D03*
D29*
X49209729Y-74461844D02*
X50284531Y-73387042D01*
D28*
X50100684Y-74277996D03*
D29*
X49563283Y-74815397D02*
X50638085Y-73740595D01*
D28*
X50454237Y-74631549D03*
D29*
X49916836Y-75168950D02*
X50991638Y-74094148D01*
D28*
X50807790Y-74985103D03*
D29*
X50270389Y-75522504D02*
X51345191Y-74447702D01*
D28*
X51161344Y-75338656D03*
D29*
X50623943Y-75876057D02*
X51698745Y-74801255D01*
D28*
X51514897Y-75692210D03*
D29*
X50977496Y-76229611D02*
X52052298Y-75154809D01*
D28*
X51868451Y-76045763D03*
D29*
X51331050Y-76583164D02*
X52405852Y-75508362D01*
D28*
X52222004Y-76399316D03*
D29*
X51684603Y-76936717D02*
X52759405Y-75861915D01*
D28*
X52575557Y-76752870D03*
D29*
X52038156Y-77290271D02*
X53112958Y-76215469D01*
D28*
X52929111Y-77106423D03*
D29*
X52391710Y-77643824D02*
X53466512Y-76569022D01*
D28*
X53282664Y-77459977D03*
D29*
X52745263Y-77997378D02*
X53820065Y-76922576D01*
D28*
X53636218Y-77813530D03*
D29*
X53098817Y-78350931D02*
X54173619Y-77276129D01*
D28*
X53989771Y-78167083D03*
D29*
X53452370Y-78704484D02*
X54527172Y-77629682D01*
D28*
X54343324Y-78520637D03*
D29*
X53805923Y-79058038D02*
X54880725Y-77983236D01*
D28*
X54696878Y-78874190D03*
D29*
X54159477Y-79411591D02*
X55234279Y-78336789D01*
D28*
X55050431Y-79227743D03*
D29*
X54513030Y-79765144D02*
X55587832Y-78690342D01*
D28*
X55403984Y-79581297D03*
D29*
X54866583Y-80118698D02*
X55941385Y-79043896D01*
D28*
X57596016Y-79581297D03*
D29*
X57058615Y-79043896D02*
X58133417Y-80118698D01*
D28*
X57949569Y-79227743D03*
D29*
X57412168Y-78690342D02*
X58486970Y-79765144D01*
D28*
X58303122Y-78874190D03*
D29*
X57765721Y-78336789D02*
X58840523Y-79411591D01*
D28*
X58656676Y-78520637D03*
D29*
X58119275Y-77983236D02*
X59194077Y-79058038D01*
D28*
X59010229Y-78167083D03*
D29*
X58472828Y-77629682D02*
X59547630Y-78704484D01*
D28*
X59363782Y-77813530D03*
D29*
X58826381Y-77276129D02*
X59901183Y-78350931D01*
D28*
X59717336Y-77459977D03*
D29*
X59179935Y-76922576D02*
X60254737Y-77997378D01*
D28*
X60070889Y-77106423D03*
D29*
X59533488Y-76569022D02*
X60608290Y-77643824D01*
D28*
X60424443Y-76752870D03*
D29*
X59887042Y-76215469D02*
X60961844Y-77290271D01*
D28*
X60777996Y-76399316D03*
D29*
X60240595Y-75861915D02*
X61315397Y-76936717D01*
D28*
X61131549Y-76045763D03*
D29*
X60594148Y-75508362D02*
X61668950Y-76583164D01*
D28*
X61485103Y-75692210D03*
D29*
X60947702Y-75154809D02*
X62022504Y-76229611D01*
D28*
X61838656Y-75338656D03*
D29*
X61301255Y-74801255D02*
X62376057Y-75876057D01*
D28*
X62192210Y-74985103D03*
D29*
X61654809Y-74447702D02*
X62729611Y-75522504D01*
D28*
X62545763Y-74631549D03*
D29*
X62008362Y-74094148D02*
X63083164Y-75168950D01*
D28*
X62899316Y-74277996D03*
D29*
X62361915Y-73740595D02*
X63436717Y-74815397D01*
D28*
X63252870Y-73924443D03*
D29*
X62715469Y-73387042D02*
X63790271Y-74461844D01*
D28*
X63606423Y-73570889D03*
D29*
X63069022Y-73033488D02*
X64143824Y-74108290D01*
D28*
X63959977Y-73217336D03*
D29*
X63422576Y-72679935D02*
X64497378Y-73754737D01*
D28*
X64313530Y-72863782D03*
D29*
X63776129Y-72326381D02*
X64850931Y-73401183D01*
D28*
X64667083Y-72510229D03*
D29*
X64129682Y-71972828D02*
X65204484Y-73047630D01*
D28*
X65020637Y-72156676D03*
D29*
X64483236Y-71619275D02*
X65558038Y-72694077D01*
D28*
X65374190Y-71803122D03*
D29*
X64836789Y-71265721D02*
X65911591Y-72340523D01*
D28*
X65727743Y-71449569D03*
D29*
X65190342Y-70912168D02*
X66265144Y-71986970D01*
D28*
X66081297Y-71096016D03*
D29*
X65543896Y-70558615D02*
X66618698Y-71633417D01*
D14*
X76500000Y-33300000D03*
X76500000Y-35200000D03*
X78750000Y-36650000D03*
X78750000Y-34750000D03*
D13*
X50300000Y-37000000D03*
X52200000Y-37000000D03*
X119800000Y-57000000D03*
X121700000Y-57000000D03*
D30*
X97500000Y-34000000D03*
X95000000Y-33050000D03*
X95000000Y-34950000D03*
X83250000Y-33750000D03*
X80750000Y-32800000D03*
X80750000Y-34700000D03*
D31*
X91900000Y-30250000D03*
X96100000Y-30250000D03*
X77150000Y-30250000D03*
X81350000Y-30250000D03*
D15*
X64000000Y-37750000D03*
X62000000Y-37750000D03*
D11*
X57000000Y-30250000D03*
X57000000Y-28250000D03*
D19*
X66903777Y-77910142D03*
D20*
G36*
X66974488Y-76990903D02*
G01*
X67823016Y-77839431D01*
X66833066Y-78829381D01*
X65984538Y-77980853D01*
X66974488Y-76990903D01*
X66974488Y-76990903D01*
G37*
D19*
X65348142Y-79465777D03*
D20*
G36*
X65418853Y-78546538D02*
G01*
X66267381Y-79395066D01*
X65277431Y-80385016D01*
X64428903Y-79536488D01*
X65418853Y-78546538D01*
X65418853Y-78546538D01*
G37*
D19*
X66550223Y-80667858D03*
D20*
G36*
X66620934Y-79748619D02*
G01*
X67469462Y-80597147D01*
X66479512Y-81587097D01*
X65630984Y-80738569D01*
X66620934Y-79748619D01*
X66620934Y-79748619D01*
G37*
D19*
X68105858Y-79112223D03*
D20*
G36*
X68176569Y-78192984D02*
G01*
X69025097Y-79041512D01*
X68035147Y-80031462D01*
X67186619Y-79182934D01*
X68176569Y-78192984D01*
X68176569Y-78192984D01*
G37*
D32*
X26500000Y-32200000D03*
D33*
X32500000Y-34500000D03*
D32*
X26500000Y-34500000D03*
X26500000Y-36800000D03*
D34*
X59450000Y-34500000D03*
D35*
X61750000Y-28500000D03*
D34*
X61750000Y-34500000D03*
X64050000Y-34500000D03*
D36*
X52970000Y-31040000D03*
X52330000Y-31040000D03*
X51670000Y-31040000D03*
X51030000Y-31040000D03*
X51030000Y-34460000D03*
X51670000Y-34460000D03*
X52330000Y-34460000D03*
X52970000Y-34460000D03*
D12*
X122155000Y-27900000D03*
X120885000Y-27900000D03*
X119615000Y-27900000D03*
X118345000Y-27900000D03*
X118345000Y-33100000D03*
X119615000Y-33100000D03*
X120885000Y-33100000D03*
X122155000Y-33100000D03*
D25*
X138000000Y-104750000D03*
X138000000Y-106650000D03*
X140800000Y-106650000D03*
X140800000Y-105700000D03*
X140800000Y-104750000D03*
D14*
X46000000Y-32450000D03*
X46000000Y-30550000D03*
D13*
X125950000Y-26500000D03*
X124050000Y-26500000D03*
X73600000Y-109050000D03*
X71700000Y-109050000D03*
X73600000Y-107050000D03*
X71700000Y-107050000D03*
X119499999Y-60750000D03*
X121399999Y-60750000D03*
X115300000Y-65500000D03*
X117200000Y-65500000D03*
X120700000Y-69750000D03*
X118800000Y-69750000D03*
X113600000Y-65600000D03*
X111700000Y-65600000D03*
X111953000Y-72009000D03*
X113853000Y-72009000D03*
D14*
X107500000Y-35450000D03*
X107500000Y-33550000D03*
D13*
X86400000Y-92134000D03*
X88300000Y-92134000D03*
D14*
X84600000Y-93934000D03*
X84600000Y-95834000D03*
X110750000Y-37550000D03*
X110750000Y-39450000D03*
D13*
X88450000Y-107851000D03*
X90350000Y-107851000D03*
X88300000Y-98634000D03*
X86400000Y-98634000D03*
D14*
X78350000Y-106600000D03*
X78350000Y-104700000D03*
X84350000Y-100684000D03*
X84350000Y-102584000D03*
X114250000Y-29950000D03*
X114250000Y-28050000D03*
X86614000Y-105603000D03*
X86614000Y-107503000D03*
X78350000Y-102084000D03*
X78350000Y-100184000D03*
D13*
X139050000Y-102500000D03*
X140950000Y-102500000D03*
X139050000Y-100500000D03*
X140950000Y-100500000D03*
X139050000Y-45000000D03*
X140950000Y-45000000D03*
X139050000Y-55000000D03*
X140950000Y-55000000D03*
X139050000Y-67000000D03*
X140950000Y-67000000D03*
X140950000Y-71000000D03*
X139050000Y-71000000D03*
X139050000Y-75000000D03*
X140950000Y-75000000D03*
X139050000Y-79000000D03*
X140950000Y-79000000D03*
X139050000Y-85500000D03*
X140950000Y-85500000D03*
X139050000Y-89500000D03*
X140950000Y-89500000D03*
X139050000Y-93500000D03*
X140950000Y-93500000D03*
X139050000Y-97500000D03*
X140950000Y-97500000D03*
X133050000Y-84250000D03*
X134950000Y-84250000D03*
X128450000Y-84350000D03*
X130350000Y-84350000D03*
X131800000Y-74750000D03*
X133700000Y-74750000D03*
D14*
X128500000Y-78450000D03*
X128500000Y-76550000D03*
D13*
X139050000Y-49000000D03*
X140950000Y-49000000D03*
X138550000Y-53000000D03*
X140450000Y-53000000D03*
X132550000Y-57900000D03*
X134450000Y-57900000D03*
X139050000Y-59000000D03*
X140950000Y-59000000D03*
X127450000Y-50400000D03*
X125550000Y-50400000D03*
X127450000Y-52400000D03*
X125550000Y-52400000D03*
X138550000Y-41000000D03*
X140450000Y-41000000D03*
X133300000Y-44500000D03*
X135200000Y-44500000D03*
X139050000Y-37500000D03*
X140950000Y-37500000D03*
X128550000Y-33500000D03*
X126650000Y-33500000D03*
X128550000Y-35500000D03*
X126650000Y-35500000D03*
X139050000Y-33500000D03*
X140950000Y-33500000D03*
X70950000Y-111300001D03*
X72850000Y-111300001D03*
D21*
X67600751Y-63971249D03*
D20*
G36*
X67812883Y-64678356D02*
G01*
X66893644Y-63759117D01*
X67388619Y-63264142D01*
X68307858Y-64183381D01*
X67812883Y-64678356D01*
X67812883Y-64678356D01*
G37*
D21*
X66257249Y-65314751D03*
D20*
G36*
X66469381Y-66021858D02*
G01*
X65550142Y-65102619D01*
X66045117Y-64607644D01*
X66964356Y-65526883D01*
X66469381Y-66021858D01*
X66469381Y-66021858D01*
G37*
D13*
X118550000Y-111500000D03*
X120450000Y-111500000D03*
X122100000Y-111500000D03*
X124000000Y-111500000D03*
X127450000Y-111500000D03*
X125550000Y-111500000D03*
X130950000Y-111500000D03*
X129050000Y-111500000D03*
X132550000Y-111500000D03*
X134450000Y-111500000D03*
X136050000Y-111500000D03*
X137950000Y-111500000D03*
X97450000Y-111500000D03*
X95550000Y-111500000D03*
X100950000Y-111500000D03*
X99050000Y-111500000D03*
X104450000Y-111500000D03*
X102550000Y-111500000D03*
X107950000Y-111500000D03*
X106050000Y-111500000D03*
X111450000Y-111500000D03*
X109550000Y-111500000D03*
X114950000Y-111500000D03*
X113050000Y-111500000D03*
D16*
X115750000Y-60500000D03*
X114800000Y-63000000D03*
X116700000Y-63000000D03*
X119750000Y-67900000D03*
X120700000Y-65400000D03*
X118800000Y-65400000D03*
X116250000Y-67500000D03*
X115300000Y-70000000D03*
X117200000Y-70000000D03*
X110250000Y-36000000D03*
X111200000Y-33500000D03*
X109300000Y-33500000D03*
X87350000Y-96634001D03*
X88300000Y-94134001D03*
X86400000Y-94134001D03*
X89400000Y-112301000D03*
X90350000Y-109801000D03*
X88450000Y-109801000D03*
X81350000Y-108400000D03*
X82300000Y-105900000D03*
X80400000Y-105900000D03*
X71900001Y-117750000D03*
X72850001Y-115250000D03*
X70950001Y-115250000D03*
D37*
X50330000Y-25250000D03*
X53500000Y-25250000D03*
D17*
X41000000Y-25550000D03*
X41000000Y-28450000D03*
D13*
X44003000Y-52070000D03*
X42103000Y-52070000D03*
X44130000Y-54864000D03*
X42230000Y-54864000D03*
D21*
X54683502Y-82857498D03*
D20*
G36*
X54895634Y-83564605D02*
G01*
X53976395Y-82645366D01*
X54471370Y-82150391D01*
X55390609Y-83069630D01*
X54895634Y-83564605D01*
X54895634Y-83564605D01*
G37*
D21*
X53340000Y-84201000D03*
D20*
G36*
X53552132Y-84908107D02*
G01*
X52632893Y-83988868D01*
X53127868Y-83493893D01*
X54047107Y-84413132D01*
X53552132Y-84908107D01*
X53552132Y-84908107D01*
G37*
D26*
X38450000Y-31250000D03*
X35550000Y-31250000D03*
D38*
X40250000Y-31250000D03*
X43750000Y-31250000D03*
X136500000Y-108750000D03*
X140000000Y-108750000D03*
D39*
X125600000Y-82250000D03*
X125600000Y-85750000D03*
D38*
X124750000Y-74500000D03*
X128250000Y-74500000D03*
D39*
X121500000Y-49850000D03*
X121500000Y-46350000D03*
X116500000Y-50000000D03*
X116500000Y-46500000D03*
D38*
X123750000Y-62750000D03*
X127250000Y-62750000D03*
X123750000Y-57000000D03*
X127250000Y-57000000D03*
D11*
X23500000Y-30250000D03*
X23500000Y-32250000D03*
X58000000Y-24000000D03*
X58000000Y-26000000D03*
X56000000Y-24000000D03*
X56000000Y-26000000D03*
D15*
X53000000Y-28500000D03*
X51000000Y-28500000D03*
D11*
X48250000Y-32750000D03*
X48250000Y-30750000D03*
D15*
X128500000Y-24000000D03*
X130500000Y-24000000D03*
X121750000Y-63000000D03*
X119750000Y-63000000D03*
X110500000Y-31500000D03*
X108500000Y-31500000D03*
D11*
X84350000Y-107150000D03*
X84350000Y-105150000D03*
X116250000Y-28000000D03*
X116250000Y-30000000D03*
D15*
X118700000Y-35800000D03*
X120700000Y-35800000D03*
X84349999Y-109650000D03*
X86349999Y-109650000D03*
D11*
X78350000Y-110150000D03*
X78350000Y-108150000D03*
X137000000Y-102800000D03*
X137000000Y-100800000D03*
D15*
X141000000Y-65000000D03*
X139000000Y-65000000D03*
X141000000Y-69000000D03*
X139000000Y-69000000D03*
X141000000Y-73000000D03*
X139000000Y-73000000D03*
X141000000Y-77000000D03*
X139000000Y-77000000D03*
X141000000Y-83500000D03*
X139000000Y-83500000D03*
X141000000Y-87500000D03*
X139000000Y-87500000D03*
X141000000Y-91500000D03*
X139000000Y-91500000D03*
X141000000Y-95500000D03*
X139000000Y-95500000D03*
X125400000Y-67900000D03*
X123400000Y-67900000D03*
X125900000Y-91200000D03*
X127900000Y-91200000D03*
D11*
X128500000Y-80000000D03*
X128500000Y-82000000D03*
D15*
X125500000Y-48400000D03*
X127500000Y-48400000D03*
X140500000Y-51000000D03*
X138500000Y-51000000D03*
X141000000Y-57250000D03*
X139000000Y-57250000D03*
X141000000Y-47000000D03*
X139000000Y-47000000D03*
X141000000Y-35500000D03*
X139000000Y-35500000D03*
X141000000Y-31500000D03*
X139000000Y-31500000D03*
X125500000Y-54400000D03*
X127500000Y-54400000D03*
X126600000Y-37750000D03*
X128600000Y-37750000D03*
X72900000Y-113300000D03*
X70900000Y-113300000D03*
D22*
X57926107Y-86881107D03*
D20*
G36*
X57130612Y-86969495D02*
G01*
X58014495Y-86085612D01*
X58721602Y-86792719D01*
X57837719Y-87676602D01*
X57130612Y-86969495D01*
X57130612Y-86969495D01*
G37*
D22*
X56511893Y-85466893D03*
D20*
G36*
X55716398Y-85555281D02*
G01*
X56600281Y-84671398D01*
X57307388Y-85378505D01*
X56423505Y-86262388D01*
X55716398Y-85555281D01*
X55716398Y-85555281D01*
G37*
D22*
X59426107Y-85381107D03*
D20*
G36*
X58630612Y-85469495D02*
G01*
X59514495Y-84585612D01*
X60221602Y-85292719D01*
X59337719Y-86176602D01*
X58630612Y-85469495D01*
X58630612Y-85469495D01*
G37*
D22*
X58011893Y-83966893D03*
D20*
G36*
X57216398Y-84055281D02*
G01*
X58100281Y-83171398D01*
X58807388Y-83878505D01*
X57923505Y-84762388D01*
X57216398Y-84055281D01*
X57216398Y-84055281D01*
G37*
D22*
X70049107Y-67237893D03*
D20*
G36*
X70137495Y-68033388D02*
G01*
X69253612Y-67149505D01*
X69960719Y-66442398D01*
X70844602Y-67326281D01*
X70137495Y-68033388D01*
X70137495Y-68033388D01*
G37*
D22*
X68634893Y-68652107D03*
D20*
G36*
X68723281Y-69447602D02*
G01*
X67839398Y-68563719D01*
X68546505Y-67856612D01*
X69430388Y-68740495D01*
X68723281Y-69447602D01*
X68723281Y-69447602D01*
G37*
D22*
X62823107Y-81984107D03*
D20*
G36*
X62027612Y-82072495D02*
G01*
X62911495Y-81188612D01*
X63618602Y-81895719D01*
X62734719Y-82779602D01*
X62027612Y-82072495D01*
X62027612Y-82072495D01*
G37*
D22*
X61408893Y-80569893D03*
D20*
G36*
X60613398Y-80658281D02*
G01*
X61497281Y-79774398D01*
X62204388Y-80481505D01*
X61320505Y-81365388D01*
X60613398Y-80658281D01*
X60613398Y-80658281D01*
G37*
D22*
X42091893Y-72208107D03*
D20*
G36*
X42003505Y-71412612D02*
G01*
X42887388Y-72296495D01*
X42180281Y-73003602D01*
X41296398Y-72119719D01*
X42003505Y-71412612D01*
X42003505Y-71412612D01*
G37*
D22*
X43506107Y-70793893D03*
D20*
G36*
X43417719Y-69998398D02*
G01*
X44301602Y-70882281D01*
X43594495Y-71589388D01*
X42710612Y-70705505D01*
X43417719Y-69998398D01*
X43417719Y-69998398D01*
G37*
D22*
X51292893Y-82207107D03*
D20*
G36*
X51204505Y-81411612D02*
G01*
X52088388Y-82295495D01*
X51381281Y-83002602D01*
X50497398Y-82118719D01*
X51204505Y-81411612D01*
X51204505Y-81411612D01*
G37*
D22*
X52707107Y-80792893D03*
D20*
G36*
X52618719Y-79997398D02*
G01*
X53502602Y-80881281D01*
X52795495Y-81588388D01*
X51911612Y-80704505D01*
X52618719Y-79997398D01*
X52618719Y-79997398D01*
G37*
D22*
X69357107Y-76307107D03*
D20*
G36*
X68561612Y-76395495D02*
G01*
X69445495Y-75511612D01*
X70152602Y-76218719D01*
X69268719Y-77102602D01*
X68561612Y-76395495D01*
X68561612Y-76395495D01*
G37*
D22*
X67942893Y-74892893D03*
D20*
G36*
X67147398Y-74981281D02*
G01*
X68031281Y-74097398D01*
X68738388Y-74804505D01*
X67854505Y-75688388D01*
X67147398Y-74981281D01*
X67147398Y-74981281D01*
G37*
D22*
X55299893Y-57603107D03*
D20*
G36*
X55388281Y-58398602D02*
G01*
X54504398Y-57514719D01*
X55211505Y-56807612D01*
X56095388Y-57691495D01*
X55388281Y-58398602D01*
X55388281Y-58398602D01*
G37*
D22*
X56714107Y-56188893D03*
D20*
G36*
X56802495Y-56984388D02*
G01*
X55918612Y-56100505D01*
X56625719Y-55393398D01*
X57509602Y-56277281D01*
X56802495Y-56984388D01*
X56802495Y-56984388D01*
G37*
D22*
X65292893Y-52292893D03*
D20*
G36*
X66088388Y-52204505D02*
G01*
X65204505Y-53088388D01*
X64497398Y-52381281D01*
X65381281Y-51497398D01*
X66088388Y-52204505D01*
X66088388Y-52204505D01*
G37*
D22*
X66707107Y-53707107D03*
D20*
G36*
X67502602Y-53618719D02*
G01*
X66618719Y-54502602D01*
X65911612Y-53795495D01*
X66795495Y-52911612D01*
X67502602Y-53618719D01*
X67502602Y-53618719D01*
G37*
D22*
X65334107Y-76681893D03*
D20*
G36*
X65422495Y-77477388D02*
G01*
X64538612Y-76593505D01*
X65245719Y-75886398D01*
X66129602Y-76770281D01*
X65422495Y-77477388D01*
X65422495Y-77477388D01*
G37*
D22*
X63919893Y-78096107D03*
D20*
G36*
X64008281Y-78891602D02*
G01*
X63124398Y-78007719D01*
X63831505Y-77300612D01*
X64715388Y-78184495D01*
X64008281Y-78891602D01*
X64008281Y-78891602D01*
G37*
D22*
X68126893Y-81987107D03*
D20*
G36*
X68038505Y-81191612D02*
G01*
X68922388Y-82075495D01*
X68215281Y-82782602D01*
X67331398Y-81898719D01*
X68038505Y-81191612D01*
X68038505Y-81191612D01*
G37*
D22*
X69541107Y-80572893D03*
D20*
G36*
X69452719Y-79777398D02*
G01*
X70336602Y-80661281D01*
X69629495Y-81368388D01*
X68745612Y-80484505D01*
X69452719Y-79777398D01*
X69452719Y-79777398D01*
G37*
M02*
