M48
; DRILL file {KiCad (5.1.4)-1} date 2020/11/6 0:10:57
; FORMAT={-:-/ absolute / metric / decimal}
; #@! TF.CreationDate,2020-11-06T00:10:57+08:00
; #@! TF.GenerationSoftware,Kicad,Pcbnew,(5.1.4)-1
; #@! TF.FileFunction,Plated,1,2,PTH
FMAT,2
METRIC
T1C0.300
T2C0.400
T3C0.500
T4C0.700
T5C0.800
T6C0.900
T7C1.000
T8C1.050
T9C3.500
%
G90
G05
T1
X34.0Y-91.75
X34.15Y-69.45
X34.25Y-94.0
X34.25Y-94.75
X34.45Y-85.8
X35.0Y-91.75
X35.25Y-94.0
X35.25Y-94.75
X36.25Y-92.5
X36.3Y-70.85
X36.9Y-69.5
X37.0Y-93.25
X38.0Y-94.25
X38.5Y-85.75
X38.7Y-77.4
X40.4Y-85.95
X40.8Y-75.25
X53.0Y-69.55
X56.25Y-64.7
X56.55Y-68.25
X68.1Y-87.4
X69.85Y-56.15
X71.7Y-74.4
T2
X22.615Y-48.5
X22.615Y-49.5
X22.615Y-50.5
X22.75Y-29.25
X22.75Y-38.0
X23.5Y-29.25
X23.5Y-38.0
X23.65Y-90.0
X24.25Y-29.25
X24.25Y-38.0
X25.75Y-38.0
X26.5Y-38.0
X26.5Y-68.75
X26.798Y-91.183
X26.915Y-100.194
X27.25Y-38.0
X27.25Y-69.75
X27.75Y-91.5
X28.455Y-98.75
X28.5Y-100.0
X29.287Y-96.472
X30.0Y-114.25
X30.145Y-42.645
X30.5Y-107.0
X30.75Y-42.25
X31.5Y-42.25
X33.5Y-97.0
X34.25Y-72.75
X34.5Y-76.0
X35.05Y-82.35
X35.364Y-80.255
X35.83Y-60.449
X36.127Y-71.877
X36.5Y-35.0
X36.5Y-38.75
X36.5Y-65.8
X36.509Y-75.695
X36.576Y-59.039
X37.664Y-80.064
X38.0Y-61.25
X38.582Y-64.123
X38.75Y-102.5
X38.8Y-75.2
X38.829Y-69.174
X39.0Y-45.5
X39.5Y-58.5
X39.75Y-110.25
X39.775Y-68.228
X40.0Y-65.8
X40.25Y-24.5
X40.25Y-38.75
X40.75Y-38.25
X40.9Y-80.5
X41.0Y-111.5
X41.021Y-72.39
X41.25Y-24.5
X41.25Y-32.75
X41.25Y-37.75
X41.25Y-61.25
X41.5Y-42.0
X41.75Y-33.25
X41.75Y-34.0
X42.25Y-24.5
X42.25Y-112.75
X42.453Y-78.669
X42.5Y-25.5
X42.5Y-58.5
X43.25Y-105.75
X43.25Y-109.25
X43.339Y-75.707
X43.5Y-45.5
X43.75Y-29.75
X43.75Y-30.75
X43.75Y-31.75
X43.75Y-32.75
X43.75Y-33.75
X44.706Y-78.25
X45.126Y-67.67
X45.25Y-61.25
X45.75Y-86.75
X46.0Y-58.5
X46.024Y-76.729
X46.031Y-67.236
X46.25Y-102.0
X46.251Y-84.0
X46.481Y-85.515
X46.695Y-56.49
X47.0Y-55.25
X47.051Y-75.477
X47.171Y-78.366
X47.322Y-82.25
X47.368Y-61.891
X47.5Y-45.5
X47.5Y-86.75
X47.5Y-118.0
X47.655Y-64.827
X47.696Y-60.943
X48.174Y-78.58
X48.25Y-84.0
X48.31Y-77.119
X48.418Y-60.096
X48.705Y-70.452
X48.728Y-56.259
X49.0Y-87.25
X49.028Y-75.325
X49.175Y-61.177
X49.25Y-32.25
X49.25Y-36.5
X49.25Y-37.25
X49.25Y-38.0
X49.27Y-82.632
X49.307Y-81.221
X49.307Y-54.274
X49.31Y-77.203
X49.639Y-59.233
X49.75Y-31.75
X50.045Y-55.573
X50.199Y-72.26
X50.215Y-70.415
X50.5Y-86.5
X50.555Y-60.639
X50.75Y-53.952
X50.75Y-62.75
X50.75Y-82.9
X50.75Y-102.0
X50.75Y-106.25
X50.75Y-116.25
X50.788Y-80.288
X51.0Y-94.0
X51.647Y-60.734
X51.66Y-55.545
X51.75Y-89.165
X52.0Y-42.25
X52.0Y-94.0
X52.287Y-59.133
X52.5Y-45.5
X52.5Y-86.75
X53.0Y-38.25
X53.0Y-87.25
X53.0Y-94.0
X53.0Y-94.0
X53.467Y-56.642
X53.5Y-98.0
X53.75Y-38.25
X53.75Y-67.75
X53.99Y-73.275
X54.0Y-94.0
X54.25Y-87.0
X54.473Y-47.998
X54.5Y-38.25
X54.5Y-98.0
X54.61Y-47.0
X54.628Y-74.677
X54.75Y-54.75
X54.75Y-55.5
X55.05Y-73.154
X55.5Y-98.0
X55.5Y-100.75
X55.5Y-106.0
X55.75Y-23.25
X56.0Y-84.0
X56.095Y-62.142
X56.359Y-78.109
X56.5Y-74.0
X56.5Y-98.0
X57.25Y-57.0
X57.25Y-109.25
X57.305Y-80.372
X57.479Y-73.259
X57.5Y-74.75
X57.531Y-63.5
X58.0Y-23.103
X58.145Y-81.82
X58.409Y-72.594
X58.447Y-59.004
X58.492Y-57.962
X58.5Y-93.0
X58.5Y-93.75
X58.632Y-71.616
X58.674Y-65.659
X58.674Y-87.27
X58.956Y-75.835
X59.096Y-80.908
X59.422Y-59.314
X59.485Y-74.983
X60.198Y-86.106
X60.33Y-74.186
X60.45Y-60.95
X60.5Y-94.0
X60.6Y-87.65
X60.706Y-107.442
X60.744Y-59.991
X61.0Y-110.0
X61.25Y-85.25
X61.343Y-59.174
X61.59Y-62.157
X61.778Y-107.528
X61.976Y-67.818
X62.062Y-61.102
X62.082Y-72.157
X62.4Y-57.673
X62.5Y-84.5
X62.5Y-94.0
X63.25Y-70.5
X63.4Y-107.0
X63.406Y-69.347
X63.5Y-59.0
X63.619Y-82.685
X63.75Y-110.0
X63.817Y-75.485
X64.232Y-63.638
X64.389Y-64.643
X64.5Y-51.5
X64.5Y-59.75
X64.5Y-74.75
X64.75Y-113.5
X65.0Y-46.0
X65.133Y-58.718
X65.198Y-37.595
X65.25Y-34.5
X65.25Y-35.5
X65.45Y-40.5
X65.609Y-61.795
X65.786Y-81.534
X65.992Y-59.932
X66.0Y-46.0
X66.031Y-66.544
X66.112Y-60.927
X66.173Y-63.889
X66.25Y-25.0
X66.25Y-34.5
X66.25Y-35.5
X66.25Y-77.25
X66.45Y-40.5
X66.948Y-66.95
X67.0Y-46.0
X67.095Y-69.37
X67.437Y-82.677
X67.5Y-40.5
X67.5Y-94.0
X67.697Y-67.617
X68.0Y-46.0
X68.0Y-71.295
X68.297Y-61.334
X68.312Y-63.312
X68.5Y-40.5
X68.911Y-70.875
X69.0Y-46.0
X69.5Y-61.75
X69.85Y-97.79
X69.966Y-69.953
X70.516Y-76.519
X70.739Y-66.548
X71.0Y-69.75
X71.25Y-23.25
X72.0Y-60.0
X72.0Y-99.25
X72.0Y-103.0
X72.25Y-79.25
X72.296Y-57.172
X72.6Y-61.25
X73.503Y-64.785
X73.75Y-94.0
X74.0Y-74.75
X74.0Y-77.25
X74.0Y-113.25
X74.0Y-115.5
X74.0Y-72.25
X74.25Y-87.5
X74.295Y-60.327
X74.445Y-55.022
X74.75Y-67.0
X75.0Y-73.5
X75.0Y-76.003
X75.0Y-78.5
X75.0Y-79.75
X75.094Y-61.87
X75.25Y-54.0
X75.5Y-68.0
X75.766Y-62.734
X76.25Y-71.0
X76.267Y-60.152
X76.609Y-69.108
X77.0Y-63.0
X77.0Y-106.75
X78.0Y-57.0
X78.0Y-64.5
X78.009Y-58.487
X78.25Y-111.25
X78.5Y-98.48
X78.75Y-70.0
X78.75Y-103.5
X79.0Y-65.5
X79.5Y-32.25
X80.0Y-87.75
X80.0Y-95.25
X80.0Y-97.75
X80.25Y-49.0
X80.3Y-32.2
X80.5Y-56.25
X80.683Y-104.6
X80.75Y-63.75
X80.75Y-67.0
X80.9Y-72.2
X81.0Y-92.75
X81.1Y-32.2
X81.75Y-84.25
X82.25Y-54.0
X82.25Y-104.75
X82.473Y-57.398
X82.577Y-59.975
X83.25Y-83.0
X83.25Y-84.5
X83.25Y-106.5
X83.65Y-74.85
X83.75Y-111.75
X84.25Y-108.5
X84.5Y-53.5
X84.75Y-63.0
X85.0Y-83.0
X85.0Y-81.25
X85.51Y-43.76
X85.75Y-71.25
X86.072Y-75.528
X86.25Y-90.75
X86.75Y-81.25
X86.75Y-36.5
X86.75Y-50.5
X86.75Y-79.5
X86.75Y-87.5
X87.1Y-74.8
X87.75Y-73.75
X87.813Y-45.94
X88.0Y-86.75
X88.25Y-43.209
X88.6Y-77.5
X88.75Y-56.77
X88.75Y-60.75
X89.0Y-47.25
X89.0Y-72.5
X89.95Y-77.5
X89.974Y-39.691
X90.0Y-79.25
X90.25Y-91.25
X90.5Y-41.25
X91.0Y-73.75
X91.25Y-107.75
X91.25Y-109.75
X91.5Y-77.25
X92.25Y-109.75
X92.5Y-82.5
X92.9Y-39.35
X93.0Y-36.4
X93.0Y-61.5
X93.0Y-71.25
X93.5Y-92.0
X93.5Y-96.0
X93.75Y-32.3
X93.75Y-79.25
X94.6Y-32.4
X94.854Y-98.588
X95.25Y-39.0
X95.25Y-82.5
X95.4Y-32.4
X96.0Y-92.0
X96.25Y-100.75
X96.5Y-40.0
X96.75Y-79.0
X97.5Y-112.75
X98.5Y-71.5
X98.83Y-91.511
X98.863Y-93.468
X99.25Y-68.75
X99.25Y-97.5
X99.25Y-102.5
X99.25Y-107.0
X100.0Y-50.0
X100.0Y-72.0
X100.25Y-91.25
X100.25Y-32.25
X100.25Y-86.895
X101.0Y-105.25
X101.0Y-112.75
X101.25Y-85.45
X101.5Y-92.5
X101.75Y-60.5
X102.25Y-37.75
X102.3Y-86.75
X102.548Y-91.183
X103.5Y-85.5
X103.5Y-92.5
X104.1Y-41.6
X104.5Y-86.5
X104.5Y-91.0
X104.5Y-104.5
X104.5Y-112.75
X105.0Y-34.25
X105.25Y-71.871
X105.5Y-85.5
X105.5Y-92.5
X106.75Y-63.5
X106.75Y-86.75
X106.75Y-94.75
X107.5Y-91.5
X108.0Y-104.75
X108.0Y-112.75
X108.5Y-62.0
X109.75Y-91.5
X109.75Y-99.75
X110.13Y-104.441
X110.15Y-72.4
X110.5Y-30.25
X110.7Y-65.35
X111.0Y-102.75
X111.25Y-51.5
X111.25Y-70.5
X111.5Y-87.5
X111.5Y-112.75
X111.75Y-48.5
X112.0Y-91.0
X112.3Y-33.85
X113.5Y-52.15
X113.901Y-62.989
X114.5Y-93.0
X115.0Y-48.5
X115.0Y-112.75
X115.1Y-72.25
X115.25Y-66.75
X115.363Y-74.854
X115.671Y-70.852
X115.75Y-85.75
X116.75Y-60.5
X116.75Y-95.0
X117.4Y-30.0
X118.75Y-60.75
X119.0Y-52.4
X119.0Y-57.0
X119.25Y-97.25
X119.6Y-31.4
X121.1Y-40.55
X121.1Y-41.35
X121.1Y-42.05
X121.25Y-68.25
X121.25Y-101.0
X121.7Y-61.85
X121.75Y-69.75
X122.0Y-66.25
X122.75Y-57.0
X123.08Y-71.598
X123.351Y-59.354
X123.497Y-102.25
X123.5Y-47.83
X123.5Y-48.5
X123.5Y-49.25
X123.5Y-69.5
X123.75Y-74.5
X123.75Y-93.75
X124.249Y-104.73
X124.45Y-38.6
X124.5Y-54.4
X124.556Y-102.868
X124.6Y-50.45
X124.602Y-48.588
X124.75Y-91.25
X124.85Y-35.1
X124.9Y-75.95
X125.0Y-62.75
X125.25Y-105.25
X125.4Y-77.41
X125.5Y-83.5
X125.5Y-102.25
X125.6Y-37.5
X125.65Y-33.5
X126.315Y-104.73
X126.45Y-67.85
X126.531Y-102.815
X126.75Y-77.0
X126.798Y-87.615
X127.15Y-80.0
X127.25Y-84.25
X127.25Y-105.25
X128.383Y-68.464
X128.5Y-62.75
X128.75Y-57.25
X129.0Y-30.0
X129.0Y-49.75
X129.0Y-66.0
X129.1Y-92.707
X129.5Y-58.25
X130.0Y-101.5
X130.45Y-26.45
X130.503Y-46.297
X131.082Y-56.713
X131.233Y-60.503
X131.25Y-43.75
X131.25Y-59.5
X131.45Y-24.0
X131.65Y-85.545
X131.8Y-83.6
X132.25Y-45.25
X132.25Y-92.5
X132.27Y-66.197
X132.383Y-63.161
X132.5Y-37.25
X132.5Y-42.25
X132.612Y-72.918
X132.65Y-54.05
X132.7Y-49.5
X132.75Y-68.5
X132.75Y-90.25
X132.75Y-97.25
X132.81Y-55.81
X133.05Y-34.75
X133.055Y-69.498
X133.25Y-43.0
X133.28Y-62.669
X133.385Y-51.385
X133.5Y-47.25
X133.5Y-59.5
X133.75Y-96.32
X134.2Y-45.9
X134.25Y-54.5
X134.5Y-74.75
X134.5Y-91.25
X134.6Y-67.8
X134.75Y-50.75
X134.85Y-52.1
X135.0Y-72.75
X135.25Y-58.0
X135.3Y-74.1
X135.3Y-76.9
X135.5Y-104.25
X135.5Y-108.5
X135.75Y-102.75
X135.85Y-84.25
X137.388Y-54.021
X137.429Y-61.543
X137.495Y-48.323
X137.5Y-92.5
X137.7Y-66.8
X137.75Y-89.0
X137.8Y-38.5
X137.8Y-69.05
X138.9Y-57.094
X139.25Y-111.25
X140.41Y-60.49
X140.45Y-39.8
X141.25Y-53.0
X141.5Y-51.0
X141.75Y-100.5
X141.95Y-47.0
X141.95Y-69.0
X141.95Y-73.0
X141.95Y-87.5
X142.0Y-31.45
X142.0Y-35.45
X142.0Y-57.0
X142.0Y-65.0
X142.0Y-83.5
X142.0Y-91.5
X142.0Y-95.5
X142.0Y-105.75
X142.1Y-77.0
X146.3Y-60.75
X143.943Y-114.812
X143.943Y-117.188
X146.0Y-113.625
X146.0Y-118.375
X148.057Y-114.812
X148.057Y-117.188
X21.718Y-41.312
X21.718Y-43.688
X23.775Y-40.125
X23.775Y-44.875
X25.832Y-41.312
X25.832Y-43.688
X123.918Y-41.312
X123.918Y-43.688
X125.975Y-40.125
X125.975Y-44.875
X128.032Y-41.312
X128.032Y-43.688
X143.943Y-22.812
X143.943Y-25.188
X146.0Y-21.625
X146.0Y-26.375
X148.057Y-22.812
X148.057Y-25.188
X21.943Y-22.812
X21.943Y-25.188
X24.0Y-21.625
X24.0Y-26.375
X26.057Y-22.812
X26.057Y-25.188
X21.943Y-114.812
X21.943Y-117.188
X24.0Y-113.625
X24.0Y-118.375
X26.057Y-114.812
X26.057Y-117.188
X123.918Y-96.312
X123.918Y-98.688
X125.975Y-95.125
X125.975Y-99.875
X128.032Y-96.312
X128.032Y-98.688
X21.718Y-96.312
X21.718Y-98.688
X23.775Y-95.125
X23.775Y-99.875
X25.832Y-96.312
X25.832Y-98.688
T3
X54.61Y-56.5
X55.0Y-46.0
X68.1Y-26.25
X68.5Y-21.95
X137.85Y-45.0
X137.882Y-55.747
X147.6Y-42.6
X148.1Y-28.75
T4
X128.96Y-104.0
X131.5Y-106.54
X134.04Y-104.0
T5
X72.5Y-29.75
X72.5Y-32.25
X45.5Y-25.0
X45.5Y-27.5
X87.0Y-29.75
X87.0Y-32.25
T6
X113.23Y-32.19
X113.23Y-39.81
X115.77Y-32.19
X115.77Y-39.81
T7
X115.75Y-23.25
X118.29Y-23.25
X58.75Y-117.0
X61.25Y-117.0
X63.75Y-117.0
X66.25Y-117.0
X59.255Y-50.492
X61.051Y-52.288
X62.847Y-54.084
X64.643Y-55.88
X145.0Y-33.5
X145.0Y-36.0
X145.0Y-38.5
X145.0Y-41.0
X94.71Y-23.25
X97.25Y-23.25
X104.0Y-53.5
X104.0Y-61.1
X97.5Y-117.0
X100.0Y-117.0
X102.5Y-117.0
X105.0Y-117.0
X107.5Y-117.0
X110.0Y-117.0
X112.5Y-117.0
X115.0Y-117.0
X29.73Y-45.875
X29.73Y-48.415
X29.73Y-50.955
X29.73Y-53.495
X29.73Y-56.035
X29.73Y-58.575
X29.73Y-61.115
X29.73Y-63.655
X29.73Y-66.195
X29.73Y-68.735
X29.73Y-71.275
X29.73Y-73.815
X29.73Y-76.355
X29.73Y-78.895
X29.73Y-81.435
X29.73Y-83.975
X29.73Y-86.515
X29.73Y-89.055
X29.73Y-91.595
X29.73Y-94.135
X32.27Y-45.875
X32.27Y-48.415
X32.27Y-50.955
X32.27Y-53.495
X32.27Y-56.035
X32.27Y-58.575
X32.27Y-61.115
X32.27Y-63.655
X32.27Y-66.195
X32.27Y-68.735
X32.27Y-71.275
X32.27Y-73.815
X32.27Y-76.355
X32.27Y-78.895
X32.27Y-81.435
X32.27Y-83.975
X32.27Y-86.515
X32.27Y-89.055
X32.27Y-91.595
X32.27Y-94.135
X122.75Y-23.25
X125.29Y-23.25
X108.75Y-23.25
X111.29Y-23.25
X145.0Y-65.5
X145.0Y-68.0
X145.0Y-70.5
X145.0Y-73.0
X145.0Y-75.5
X145.0Y-78.0
X101.71Y-23.25
X104.25Y-23.25
X122.0Y-117.0
X124.5Y-117.0
X127.0Y-117.0
X129.5Y-117.0
X132.0Y-117.0
X134.5Y-117.0
X137.0Y-117.0
X139.5Y-117.0
X145.0Y-84.5
X145.0Y-87.0
X145.0Y-89.5
X145.0Y-92.0
X145.0Y-94.5
X145.0Y-97.0
T8
X145.0Y-56.5
X145.0Y-59.0
X75.5Y-24.25
X78.0Y-24.25
X145.0Y-47.5
X145.0Y-50.0
X145.0Y-103.5
X145.0Y-106.0
X84.5Y-24.25
X87.0Y-24.25
X41.5Y-117.25
X44.0Y-117.25
X87.25Y-117.0
X89.75Y-117.0
X77.5Y-117.0
X80.0Y-117.0
T9
X23.775Y-42.5
X125.975Y-42.5
X146.0Y-24.0
X24.0Y-24.0
X24.0Y-116.0
X125.975Y-97.5
X23.775Y-97.5
X146.0Y-116.0
T7
G00X33.5Y-22.75
M15
G01X31.5Y-22.75
M16
G05
G00X33.5Y-28.75
M15
G01X31.5Y-28.75
M16
G05
G00X37.2Y-24.75
M15
G01X37.2Y-26.75
M16
G05
T0
M30
