M48
; DRILL file {KiCad (5.1.4)-1} date 2021/2/25 1:30:08
; FORMAT={-:-/ absolute / metric / decimal}
; #@! TF.CreationDate,2021-02-25T01:30:08+08:00
; #@! TF.GenerationSoftware,Kicad,Pcbnew,(5.1.4)-1
; #@! TF.FileFunction,Plated,1,2,PTH
FMAT,2
METRIC
T1C0.400
%
G90
G05
T1
X26.5Y-66.0
X30.25Y-66.0
X32.75Y-66.5
X33.75Y-61.75
X34.0Y-65.5
X34.5Y-80.0
X35.0Y-67.374
X35.75Y-79.0
X37.5Y-60.5
X39.5Y-58.25
X39.526Y-75.662
X39.75Y-72.0
X41.25Y-66.75
X41.75Y-69.75
X41.75Y-70.5
X43.0Y-55.75
X43.0Y-57.0
X43.0Y-58.25
X43.0Y-59.5
X43.0Y-60.75
X43.0Y-62.0
X43.0Y-63.25
X43.0Y-64.25
X43.0Y-65.5
X43.0Y-67.0
X43.0Y-68.5
X43.0Y-70.0
X43.5Y-73.25
X44.25Y-55.0
X44.25Y-55.0
X44.75Y-80.0
X45.0Y-73.5
X46.0Y-55.0
X46.75Y-73.5
X47.25Y-80.0
X48.25Y-54.75
X48.5Y-73.5
X50.0Y-54.75
X50.25Y-73.5
X52.0Y-73.5
X52.25Y-55.0
X53.75Y-73.5
X54.25Y-55.5
X54.25Y-61.25
X54.25Y-62.5
X54.25Y-63.75
X54.25Y-65.0
X54.25Y-66.25
X54.25Y-67.5
X54.25Y-68.75
X54.25Y-70.0
X54.75Y-77.75
X55.25Y-58.25
X55.25Y-59.0
X55.25Y-59.75
X56.0Y-70.5
X56.25Y-58.25
X57.25Y-58.25
X57.25Y-77.75
X58.5Y-58.25
X59.25Y-58.25
X60.75Y-70.0
X60.75Y-76.25
X60.86Y-77.14
X61.0Y-79.75
X63.5Y-69.0
X63.75Y-81.5
T0
M30
