%TF.GenerationSoftware,KiCad,Pcbnew,(5.1.4)-1*%
%TF.CreationDate,2021-02-25T01:30:08+08:00*%
%TF.ProjectId,Overdrive_Protector,4f766572-6472-4697-9665-5f50726f7465,rev?*%
%TF.SameCoordinates,Original*%
%TF.FileFunction,Copper,L2,Bot*%
%TF.FilePolarity,Positive*%
%FSLAX46Y46*%
G04 Gerber Fmt 4.6, Leading zero omitted, Abs format (unit mm)*
G04 Created by KiCad (PCBNEW (5.1.4)-1) date 2021-02-25 01:30:08*
%MOMM*%
%LPD*%
G04 APERTURE LIST*
%ADD10C,0.800000*%
%ADD11C,0.508000*%
%ADD12C,0.254000*%
%ADD13C,0.350000*%
G04 APERTURE END LIST*
D10*
X39500000Y-58250000D03*
X37500000Y-60500000D03*
X34000000Y-65500000D03*
X30250000Y-66000000D03*
X26500000Y-66000000D03*
X33750000Y-61750000D03*
X34500000Y-80000000D03*
X35750000Y-79000000D03*
X35000000Y-67374442D03*
X41750000Y-70500000D03*
X41750000Y-69750000D03*
X60750000Y-76250000D03*
X60860000Y-77140000D03*
X63750000Y-81500000D03*
X61000000Y-79750000D03*
X56000000Y-70500000D03*
X60750000Y-70000000D03*
X63500000Y-69000000D03*
X55250000Y-59750000D03*
X55250000Y-59000000D03*
X55250000Y-58250000D03*
X56250000Y-58250000D03*
X57250000Y-58250000D03*
X58500000Y-58250000D03*
X59250000Y-58250000D03*
X43000000Y-60750000D03*
X43000000Y-62000000D03*
X43000000Y-63250000D03*
X43000000Y-64250000D03*
X43000000Y-65500000D03*
X43000000Y-67000000D03*
X43000000Y-68500000D03*
X43000000Y-70000000D03*
X54250000Y-67500000D03*
X54250000Y-66250000D03*
X54250000Y-65000000D03*
X54250000Y-63750000D03*
X54250000Y-62500000D03*
X54250000Y-61250000D03*
X46000000Y-55000000D03*
X48250000Y-54750000D03*
X50000000Y-54750000D03*
X52250000Y-55000000D03*
X54250000Y-68750000D03*
X54250000Y-70000000D03*
X43000000Y-59500000D03*
X43000000Y-58250000D03*
X43000000Y-57000000D03*
X43000000Y-55750000D03*
X44250000Y-55000000D03*
X44250000Y-55000000D03*
X54250000Y-55500000D03*
X45000000Y-73500000D03*
X46750000Y-73500000D03*
X48500000Y-73500000D03*
X50250000Y-73500000D03*
X52000000Y-73500000D03*
X53750000Y-73500000D03*
X43500000Y-73250000D03*
X32750000Y-66500000D03*
X41250000Y-66750000D03*
X54750000Y-77750000D03*
X57250000Y-77750000D03*
X39750000Y-72000000D03*
X39526153Y-75662020D03*
X47250000Y-80000000D03*
X44750000Y-80000000D03*
D11*
X41750000Y-69750000D02*
X41750000Y-70500000D01*
X55250000Y-59750000D02*
X55250000Y-59000000D01*
D12*
X32750000Y-66500000D02*
X41000000Y-66500000D01*
X41000000Y-66500000D02*
X41250000Y-66750000D01*
X54750000Y-77750000D02*
X56750000Y-77750000D01*
X56750000Y-77750000D02*
X57250000Y-77750000D01*
X39750000Y-72000000D02*
X39750000Y-75438173D01*
X39750000Y-75438173D02*
X39526153Y-75662020D01*
X47250000Y-80000000D02*
X45000000Y-80000000D01*
X45000000Y-80000000D02*
X44750000Y-80000000D01*
G36*
X65019000Y-83519000D02*
G01*
X23981000Y-83519000D01*
X23981000Y-79923078D01*
X43969000Y-79923078D01*
X43969000Y-80076922D01*
X43999013Y-80227809D01*
X44057887Y-80369942D01*
X44143358Y-80497859D01*
X44252141Y-80606642D01*
X44380058Y-80692113D01*
X44522191Y-80750987D01*
X44673078Y-80781000D01*
X44826922Y-80781000D01*
X44977809Y-80750987D01*
X45119942Y-80692113D01*
X45247859Y-80606642D01*
X45346501Y-80508000D01*
X46653499Y-80508000D01*
X46752141Y-80606642D01*
X46880058Y-80692113D01*
X47022191Y-80750987D01*
X47173078Y-80781000D01*
X47326922Y-80781000D01*
X47477809Y-80750987D01*
X47619942Y-80692113D01*
X47747859Y-80606642D01*
X47856642Y-80497859D01*
X47942113Y-80369942D01*
X48000987Y-80227809D01*
X48031000Y-80076922D01*
X48031000Y-79923078D01*
X48000987Y-79772191D01*
X47942113Y-79630058D01*
X47856642Y-79502141D01*
X47747859Y-79393358D01*
X47619942Y-79307887D01*
X47477809Y-79249013D01*
X47326922Y-79219000D01*
X47173078Y-79219000D01*
X47022191Y-79249013D01*
X46880058Y-79307887D01*
X46752141Y-79393358D01*
X46653499Y-79492000D01*
X45346501Y-79492000D01*
X45247859Y-79393358D01*
X45119942Y-79307887D01*
X44977809Y-79249013D01*
X44826922Y-79219000D01*
X44673078Y-79219000D01*
X44522191Y-79249013D01*
X44380058Y-79307887D01*
X44252141Y-79393358D01*
X44143358Y-79502141D01*
X44057887Y-79630058D01*
X43999013Y-79772191D01*
X43969000Y-79923078D01*
X23981000Y-79923078D01*
X23981000Y-77673078D01*
X53969000Y-77673078D01*
X53969000Y-77826922D01*
X53999013Y-77977809D01*
X54057887Y-78119942D01*
X54143358Y-78247859D01*
X54252141Y-78356642D01*
X54380058Y-78442113D01*
X54522191Y-78500987D01*
X54673078Y-78531000D01*
X54826922Y-78531000D01*
X54977809Y-78500987D01*
X55119942Y-78442113D01*
X55247859Y-78356642D01*
X55346501Y-78258000D01*
X56653499Y-78258000D01*
X56752141Y-78356642D01*
X56880058Y-78442113D01*
X57022191Y-78500987D01*
X57173078Y-78531000D01*
X57326922Y-78531000D01*
X57477809Y-78500987D01*
X57619942Y-78442113D01*
X57747859Y-78356642D01*
X57856642Y-78247859D01*
X57942113Y-78119942D01*
X58000987Y-77977809D01*
X58031000Y-77826922D01*
X58031000Y-77673078D01*
X58000987Y-77522191D01*
X57942113Y-77380058D01*
X57856642Y-77252141D01*
X57747859Y-77143358D01*
X57619942Y-77057887D01*
X57477809Y-76999013D01*
X57326922Y-76969000D01*
X57173078Y-76969000D01*
X57022191Y-76999013D01*
X56880058Y-77057887D01*
X56752141Y-77143358D01*
X56653499Y-77242000D01*
X55346501Y-77242000D01*
X55247859Y-77143358D01*
X55119942Y-77057887D01*
X54977809Y-76999013D01*
X54826922Y-76969000D01*
X54673078Y-76969000D01*
X54522191Y-76999013D01*
X54380058Y-77057887D01*
X54252141Y-77143358D01*
X54143358Y-77252141D01*
X54057887Y-77380058D01*
X53999013Y-77522191D01*
X53969000Y-77673078D01*
X23981000Y-77673078D01*
X23981000Y-75585098D01*
X38745153Y-75585098D01*
X38745153Y-75738942D01*
X38775166Y-75889829D01*
X38834040Y-76031962D01*
X38919511Y-76159879D01*
X39028294Y-76268662D01*
X39156211Y-76354133D01*
X39298344Y-76413007D01*
X39449231Y-76443020D01*
X39603075Y-76443020D01*
X39753962Y-76413007D01*
X39896095Y-76354133D01*
X40024012Y-76268662D01*
X40132795Y-76159879D01*
X40218266Y-76031962D01*
X40277140Y-75889829D01*
X40307153Y-75738942D01*
X40307153Y-75585098D01*
X40277140Y-75434211D01*
X40258000Y-75388003D01*
X40258000Y-72596501D01*
X40356642Y-72497859D01*
X40442113Y-72369942D01*
X40500987Y-72227809D01*
X40531000Y-72076922D01*
X40531000Y-71923078D01*
X40500987Y-71772191D01*
X40442113Y-71630058D01*
X40356642Y-71502141D01*
X40247859Y-71393358D01*
X40119942Y-71307887D01*
X39977809Y-71249013D01*
X39826922Y-71219000D01*
X39673078Y-71219000D01*
X39522191Y-71249013D01*
X39380058Y-71307887D01*
X39252141Y-71393358D01*
X39143358Y-71502141D01*
X39057887Y-71630058D01*
X38999013Y-71772191D01*
X38969000Y-71923078D01*
X38969000Y-72076922D01*
X38999013Y-72227809D01*
X39057887Y-72369942D01*
X39143358Y-72497859D01*
X39242000Y-72596501D01*
X39242001Y-74934371D01*
X39156211Y-74969907D01*
X39028294Y-75055378D01*
X38919511Y-75164161D01*
X38834040Y-75292078D01*
X38775166Y-75434211D01*
X38745153Y-75585098D01*
X23981000Y-75585098D01*
X23981000Y-66423078D01*
X31969000Y-66423078D01*
X31969000Y-66576922D01*
X31999013Y-66727809D01*
X32057887Y-66869942D01*
X32143358Y-66997859D01*
X32252141Y-67106642D01*
X32380058Y-67192113D01*
X32522191Y-67250987D01*
X32673078Y-67281000D01*
X32826922Y-67281000D01*
X32977809Y-67250987D01*
X33119942Y-67192113D01*
X33247859Y-67106642D01*
X33346501Y-67008000D01*
X40511519Y-67008000D01*
X40557887Y-67119942D01*
X40643358Y-67247859D01*
X40752141Y-67356642D01*
X40880058Y-67442113D01*
X41022191Y-67500987D01*
X41173078Y-67531000D01*
X41326922Y-67531000D01*
X41477809Y-67500987D01*
X41619942Y-67442113D01*
X41747859Y-67356642D01*
X41856642Y-67247859D01*
X41942113Y-67119942D01*
X42000987Y-66977809D01*
X42031000Y-66826922D01*
X42031000Y-66673078D01*
X42000987Y-66522191D01*
X41942113Y-66380058D01*
X41856642Y-66252141D01*
X41747859Y-66143358D01*
X41619942Y-66057887D01*
X41477809Y-65999013D01*
X41326922Y-65969000D01*
X41173078Y-65969000D01*
X41046685Y-65994141D01*
X41024947Y-65992000D01*
X41024944Y-65992000D01*
X41000000Y-65989543D01*
X40975056Y-65992000D01*
X33346501Y-65992000D01*
X33247859Y-65893358D01*
X33119942Y-65807887D01*
X32977809Y-65749013D01*
X32826922Y-65719000D01*
X32673078Y-65719000D01*
X32522191Y-65749013D01*
X32380058Y-65807887D01*
X32252141Y-65893358D01*
X32143358Y-66002141D01*
X32057887Y-66130058D01*
X31999013Y-66272191D01*
X31969000Y-66423078D01*
X23981000Y-66423078D01*
X23981000Y-55750000D01*
X43623000Y-55750000D01*
X43623000Y-70750000D01*
X43625440Y-70774776D01*
X43632667Y-70798601D01*
X43644403Y-70820557D01*
X43660197Y-70839803D01*
X43679443Y-70855597D01*
X43701399Y-70867333D01*
X43725224Y-70874560D01*
X43750000Y-70877000D01*
X53750000Y-70877000D01*
X53774776Y-70874560D01*
X53798601Y-70867333D01*
X53820557Y-70855597D01*
X53839803Y-70839803D01*
X53855597Y-70820557D01*
X53867333Y-70798601D01*
X53874560Y-70774776D01*
X53877000Y-70750000D01*
X53877000Y-55750000D01*
X53874560Y-55725224D01*
X53867333Y-55701399D01*
X53855597Y-55679443D01*
X53839803Y-55660197D01*
X53820557Y-55644403D01*
X53798601Y-55632667D01*
X53774776Y-55625440D01*
X53750000Y-55623000D01*
X43750000Y-55623000D01*
X43725224Y-55625440D01*
X43701399Y-55632667D01*
X43679443Y-55644403D01*
X43660197Y-55660197D01*
X43644403Y-55679443D01*
X43632667Y-55701399D01*
X43625440Y-55725224D01*
X43623000Y-55750000D01*
X23981000Y-55750000D01*
X23981000Y-50481000D01*
X65019001Y-50481000D01*
X65019000Y-83519000D01*
X65019000Y-83519000D01*
G37*
X65019000Y-83519000D02*
X23981000Y-83519000D01*
X23981000Y-79923078D01*
X43969000Y-79923078D01*
X43969000Y-80076922D01*
X43999013Y-80227809D01*
X44057887Y-80369942D01*
X44143358Y-80497859D01*
X44252141Y-80606642D01*
X44380058Y-80692113D01*
X44522191Y-80750987D01*
X44673078Y-80781000D01*
X44826922Y-80781000D01*
X44977809Y-80750987D01*
X45119942Y-80692113D01*
X45247859Y-80606642D01*
X45346501Y-80508000D01*
X46653499Y-80508000D01*
X46752141Y-80606642D01*
X46880058Y-80692113D01*
X47022191Y-80750987D01*
X47173078Y-80781000D01*
X47326922Y-80781000D01*
X47477809Y-80750987D01*
X47619942Y-80692113D01*
X47747859Y-80606642D01*
X47856642Y-80497859D01*
X47942113Y-80369942D01*
X48000987Y-80227809D01*
X48031000Y-80076922D01*
X48031000Y-79923078D01*
X48000987Y-79772191D01*
X47942113Y-79630058D01*
X47856642Y-79502141D01*
X47747859Y-79393358D01*
X47619942Y-79307887D01*
X47477809Y-79249013D01*
X47326922Y-79219000D01*
X47173078Y-79219000D01*
X47022191Y-79249013D01*
X46880058Y-79307887D01*
X46752141Y-79393358D01*
X46653499Y-79492000D01*
X45346501Y-79492000D01*
X45247859Y-79393358D01*
X45119942Y-79307887D01*
X44977809Y-79249013D01*
X44826922Y-79219000D01*
X44673078Y-79219000D01*
X44522191Y-79249013D01*
X44380058Y-79307887D01*
X44252141Y-79393358D01*
X44143358Y-79502141D01*
X44057887Y-79630058D01*
X43999013Y-79772191D01*
X43969000Y-79923078D01*
X23981000Y-79923078D01*
X23981000Y-77673078D01*
X53969000Y-77673078D01*
X53969000Y-77826922D01*
X53999013Y-77977809D01*
X54057887Y-78119942D01*
X54143358Y-78247859D01*
X54252141Y-78356642D01*
X54380058Y-78442113D01*
X54522191Y-78500987D01*
X54673078Y-78531000D01*
X54826922Y-78531000D01*
X54977809Y-78500987D01*
X55119942Y-78442113D01*
X55247859Y-78356642D01*
X55346501Y-78258000D01*
X56653499Y-78258000D01*
X56752141Y-78356642D01*
X56880058Y-78442113D01*
X57022191Y-78500987D01*
X57173078Y-78531000D01*
X57326922Y-78531000D01*
X57477809Y-78500987D01*
X57619942Y-78442113D01*
X57747859Y-78356642D01*
X57856642Y-78247859D01*
X57942113Y-78119942D01*
X58000987Y-77977809D01*
X58031000Y-77826922D01*
X58031000Y-77673078D01*
X58000987Y-77522191D01*
X57942113Y-77380058D01*
X57856642Y-77252141D01*
X57747859Y-77143358D01*
X57619942Y-77057887D01*
X57477809Y-76999013D01*
X57326922Y-76969000D01*
X57173078Y-76969000D01*
X57022191Y-76999013D01*
X56880058Y-77057887D01*
X56752141Y-77143358D01*
X56653499Y-77242000D01*
X55346501Y-77242000D01*
X55247859Y-77143358D01*
X55119942Y-77057887D01*
X54977809Y-76999013D01*
X54826922Y-76969000D01*
X54673078Y-76969000D01*
X54522191Y-76999013D01*
X54380058Y-77057887D01*
X54252141Y-77143358D01*
X54143358Y-77252141D01*
X54057887Y-77380058D01*
X53999013Y-77522191D01*
X53969000Y-77673078D01*
X23981000Y-77673078D01*
X23981000Y-75585098D01*
X38745153Y-75585098D01*
X38745153Y-75738942D01*
X38775166Y-75889829D01*
X38834040Y-76031962D01*
X38919511Y-76159879D01*
X39028294Y-76268662D01*
X39156211Y-76354133D01*
X39298344Y-76413007D01*
X39449231Y-76443020D01*
X39603075Y-76443020D01*
X39753962Y-76413007D01*
X39896095Y-76354133D01*
X40024012Y-76268662D01*
X40132795Y-76159879D01*
X40218266Y-76031962D01*
X40277140Y-75889829D01*
X40307153Y-75738942D01*
X40307153Y-75585098D01*
X40277140Y-75434211D01*
X40258000Y-75388003D01*
X40258000Y-72596501D01*
X40356642Y-72497859D01*
X40442113Y-72369942D01*
X40500987Y-72227809D01*
X40531000Y-72076922D01*
X40531000Y-71923078D01*
X40500987Y-71772191D01*
X40442113Y-71630058D01*
X40356642Y-71502141D01*
X40247859Y-71393358D01*
X40119942Y-71307887D01*
X39977809Y-71249013D01*
X39826922Y-71219000D01*
X39673078Y-71219000D01*
X39522191Y-71249013D01*
X39380058Y-71307887D01*
X39252141Y-71393358D01*
X39143358Y-71502141D01*
X39057887Y-71630058D01*
X38999013Y-71772191D01*
X38969000Y-71923078D01*
X38969000Y-72076922D01*
X38999013Y-72227809D01*
X39057887Y-72369942D01*
X39143358Y-72497859D01*
X39242000Y-72596501D01*
X39242001Y-74934371D01*
X39156211Y-74969907D01*
X39028294Y-75055378D01*
X38919511Y-75164161D01*
X38834040Y-75292078D01*
X38775166Y-75434211D01*
X38745153Y-75585098D01*
X23981000Y-75585098D01*
X23981000Y-66423078D01*
X31969000Y-66423078D01*
X31969000Y-66576922D01*
X31999013Y-66727809D01*
X32057887Y-66869942D01*
X32143358Y-66997859D01*
X32252141Y-67106642D01*
X32380058Y-67192113D01*
X32522191Y-67250987D01*
X32673078Y-67281000D01*
X32826922Y-67281000D01*
X32977809Y-67250987D01*
X33119942Y-67192113D01*
X33247859Y-67106642D01*
X33346501Y-67008000D01*
X40511519Y-67008000D01*
X40557887Y-67119942D01*
X40643358Y-67247859D01*
X40752141Y-67356642D01*
X40880058Y-67442113D01*
X41022191Y-67500987D01*
X41173078Y-67531000D01*
X41326922Y-67531000D01*
X41477809Y-67500987D01*
X41619942Y-67442113D01*
X41747859Y-67356642D01*
X41856642Y-67247859D01*
X41942113Y-67119942D01*
X42000987Y-66977809D01*
X42031000Y-66826922D01*
X42031000Y-66673078D01*
X42000987Y-66522191D01*
X41942113Y-66380058D01*
X41856642Y-66252141D01*
X41747859Y-66143358D01*
X41619942Y-66057887D01*
X41477809Y-65999013D01*
X41326922Y-65969000D01*
X41173078Y-65969000D01*
X41046685Y-65994141D01*
X41024947Y-65992000D01*
X41024944Y-65992000D01*
X41000000Y-65989543D01*
X40975056Y-65992000D01*
X33346501Y-65992000D01*
X33247859Y-65893358D01*
X33119942Y-65807887D01*
X32977809Y-65749013D01*
X32826922Y-65719000D01*
X32673078Y-65719000D01*
X32522191Y-65749013D01*
X32380058Y-65807887D01*
X32252141Y-65893358D01*
X32143358Y-66002141D01*
X32057887Y-66130058D01*
X31999013Y-66272191D01*
X31969000Y-66423078D01*
X23981000Y-66423078D01*
X23981000Y-55750000D01*
X43623000Y-55750000D01*
X43623000Y-70750000D01*
X43625440Y-70774776D01*
X43632667Y-70798601D01*
X43644403Y-70820557D01*
X43660197Y-70839803D01*
X43679443Y-70855597D01*
X43701399Y-70867333D01*
X43725224Y-70874560D01*
X43750000Y-70877000D01*
X53750000Y-70877000D01*
X53774776Y-70874560D01*
X53798601Y-70867333D01*
X53820557Y-70855597D01*
X53839803Y-70839803D01*
X53855597Y-70820557D01*
X53867333Y-70798601D01*
X53874560Y-70774776D01*
X53877000Y-70750000D01*
X53877000Y-55750000D01*
X53874560Y-55725224D01*
X53867333Y-55701399D01*
X53855597Y-55679443D01*
X53839803Y-55660197D01*
X53820557Y-55644403D01*
X53798601Y-55632667D01*
X53774776Y-55625440D01*
X53750000Y-55623000D01*
X43750000Y-55623000D01*
X43725224Y-55625440D01*
X43701399Y-55632667D01*
X43679443Y-55644403D01*
X43660197Y-55660197D01*
X43644403Y-55679443D01*
X43632667Y-55701399D01*
X43625440Y-55725224D01*
X43623000Y-55750000D01*
X23981000Y-55750000D01*
X23981000Y-50481000D01*
X65019001Y-50481000D01*
X65019000Y-83519000D01*
D13*
X39500000Y-58250000D03*
X37500000Y-60500000D03*
X34000000Y-65500000D03*
X30250000Y-66000000D03*
X26500000Y-66000000D03*
X33750000Y-61750000D03*
X34500000Y-80000000D03*
X35750000Y-79000000D03*
X35000000Y-67374442D03*
X41750000Y-70500000D03*
X41750000Y-69750000D03*
X60750000Y-76250000D03*
X60860000Y-77140000D03*
X63750000Y-81500000D03*
X61000000Y-79750000D03*
X56000000Y-70500000D03*
X60750000Y-70000000D03*
X63500000Y-69000000D03*
X55250000Y-59750000D03*
X55250000Y-59000000D03*
X55250000Y-58250000D03*
X56250000Y-58250000D03*
X57250000Y-58250000D03*
X58500000Y-58250000D03*
X59250000Y-58250000D03*
X43000000Y-60750000D03*
X43000000Y-62000000D03*
X43000000Y-63250000D03*
X43000000Y-64250000D03*
X43000000Y-65500000D03*
X43000000Y-67000000D03*
X43000000Y-68500000D03*
X43000000Y-70000000D03*
X54250000Y-67500000D03*
X54250000Y-66250000D03*
X54250000Y-65000000D03*
X54250000Y-63750000D03*
X54250000Y-62500000D03*
X54250000Y-61250000D03*
X46000000Y-55000000D03*
X48250000Y-54750000D03*
X50000000Y-54750000D03*
X52250000Y-55000000D03*
X54250000Y-68750000D03*
X54250000Y-70000000D03*
X43000000Y-59500000D03*
X43000000Y-58250000D03*
X43000000Y-57000000D03*
X43000000Y-55750000D03*
X44250000Y-55000000D03*
X44250000Y-55000000D03*
X54250000Y-55500000D03*
X45000000Y-73500000D03*
X46750000Y-73500000D03*
X48500000Y-73500000D03*
X50250000Y-73500000D03*
X52000000Y-73500000D03*
X53750000Y-73500000D03*
X43500000Y-73250000D03*
X32750000Y-66500000D03*
X41250000Y-66750000D03*
X54750000Y-77750000D03*
X57250000Y-77750000D03*
X39750000Y-72000000D03*
X39526153Y-75662020D03*
X47250000Y-80000000D03*
X44750000Y-80000000D03*
M02*
