%TF.GenerationSoftware,KiCad,Pcbnew,(5.1.4)-1*%
%TF.CreationDate,2021-02-25T01:30:08+08:00*%
%TF.ProjectId,Overdrive_Protector,4f766572-6472-4697-9665-5f50726f7465,rev?*%
%TF.SameCoordinates,Original*%
%TF.FileFunction,Soldermask,Top*%
%TF.FilePolarity,Negative*%
%FSLAX46Y46*%
G04 Gerber Fmt 4.6, Leading zero omitted, Abs format (unit mm)*
G04 Created by KiCad (PCBNEW (5.1.4)-1) date 2021-02-25 01:30:08*
%MOMM*%
%LPD*%
G04 APERTURE LIST*
%ADD10C,0.100000*%
%ADD11C,0.350000*%
G04 APERTURE END LIST*
D10*
G36*
X49500000Y-64500000D02*
G01*
X48000000Y-64500000D01*
X48000000Y-62750000D01*
X49500000Y-62750000D01*
X49500000Y-64500000D01*
G37*
X49500000Y-64500000D02*
X48000000Y-64500000D01*
X48000000Y-62750000D01*
X49500000Y-62750000D01*
X49500000Y-64500000D01*
D11*
G36*
X27876000Y-83151000D02*
G01*
X24374000Y-83151000D01*
X24374000Y-81549000D01*
X27876000Y-81549000D01*
X27876000Y-83151000D01*
X27876000Y-83151000D01*
G37*
G36*
X63271000Y-82286000D02*
G01*
X62009000Y-82286000D01*
X62009000Y-80714000D01*
X63271000Y-80714000D01*
X63271000Y-82286000D01*
X63271000Y-82286000D01*
G37*
G36*
X46521000Y-82286000D02*
G01*
X45259000Y-82286000D01*
X45259000Y-80714000D01*
X46521000Y-80714000D01*
X46521000Y-82286000D01*
X46521000Y-82286000D01*
G37*
G36*
X44741000Y-82286000D02*
G01*
X43479000Y-82286000D01*
X43479000Y-80714000D01*
X44741000Y-80714000D01*
X44741000Y-82286000D01*
X44741000Y-82286000D01*
G37*
G36*
X39741000Y-82286000D02*
G01*
X38479000Y-82286000D01*
X38479000Y-80714000D01*
X39741000Y-80714000D01*
X39741000Y-82286000D01*
X39741000Y-82286000D01*
G37*
G36*
X51771000Y-82286000D02*
G01*
X50509000Y-82286000D01*
X50509000Y-80714000D01*
X51771000Y-80714000D01*
X51771000Y-82286000D01*
X51771000Y-82286000D01*
G37*
G36*
X41521000Y-82286000D02*
G01*
X40259000Y-82286000D01*
X40259000Y-80714000D01*
X41521000Y-80714000D01*
X41521000Y-82286000D01*
X41521000Y-82286000D01*
G37*
G36*
X61491000Y-82286000D02*
G01*
X60229000Y-82286000D01*
X60229000Y-80714000D01*
X61491000Y-80714000D01*
X61491000Y-82286000D01*
X61491000Y-82286000D01*
G37*
G36*
X49991000Y-82286000D02*
G01*
X48729000Y-82286000D01*
X48729000Y-80714000D01*
X49991000Y-80714000D01*
X49991000Y-82286000D01*
X49991000Y-82286000D01*
G37*
G36*
X54201000Y-82176000D02*
G01*
X53399000Y-82176000D01*
X53399000Y-80824000D01*
X54201000Y-80824000D01*
X54201000Y-82176000D01*
X54201000Y-82176000D01*
G37*
G36*
X56101000Y-82176000D02*
G01*
X55299000Y-82176000D01*
X55299000Y-80824000D01*
X56101000Y-80824000D01*
X56101000Y-82176000D01*
X56101000Y-82176000D01*
G37*
G36*
X59201000Y-82151000D02*
G01*
X57799000Y-82151000D01*
X57799000Y-80549000D01*
X59201000Y-80549000D01*
X59201000Y-82151000D01*
X59201000Y-82151000D01*
G37*
G36*
X33676000Y-80551000D02*
G01*
X30074000Y-80551000D01*
X30074000Y-79449000D01*
X33676000Y-79449000D01*
X33676000Y-80551000D01*
X33676000Y-80551000D01*
G37*
G36*
X55151000Y-79676000D02*
G01*
X54349000Y-79676000D01*
X54349000Y-78324000D01*
X55151000Y-78324000D01*
X55151000Y-79676000D01*
X55151000Y-79676000D01*
G37*
G36*
X41786000Y-79521000D02*
G01*
X40214000Y-79521000D01*
X40214000Y-78259000D01*
X41786000Y-78259000D01*
X41786000Y-79521000D01*
X41786000Y-79521000D01*
G37*
G36*
X38036000Y-79521000D02*
G01*
X36464000Y-79521000D01*
X36464000Y-78259000D01*
X38036000Y-78259000D01*
X38036000Y-79521000D01*
X38036000Y-79521000D01*
G37*
G36*
X59201000Y-79451000D02*
G01*
X57799000Y-79451000D01*
X57799000Y-77849000D01*
X59201000Y-77849000D01*
X59201000Y-79451000D01*
X59201000Y-79451000D01*
G37*
G36*
X61491000Y-79286000D02*
G01*
X60229000Y-79286000D01*
X60229000Y-77714000D01*
X61491000Y-77714000D01*
X61491000Y-79286000D01*
X61491000Y-79286000D01*
G37*
G36*
X63271000Y-79286000D02*
G01*
X62009000Y-79286000D01*
X62009000Y-77714000D01*
X63271000Y-77714000D01*
X63271000Y-79286000D01*
X63271000Y-79286000D01*
G37*
G36*
X47951000Y-79051000D02*
G01*
X46599000Y-79051000D01*
X46599000Y-77949000D01*
X47951000Y-77949000D01*
X47951000Y-79051000D01*
X47951000Y-79051000D01*
G37*
G36*
X50901000Y-79051000D02*
G01*
X49549000Y-79051000D01*
X49549000Y-77949000D01*
X50901000Y-77949000D01*
X50901000Y-79051000D01*
X50901000Y-79051000D01*
G37*
G36*
X33676000Y-78551000D02*
G01*
X30074000Y-78551000D01*
X30074000Y-77449000D01*
X33676000Y-77449000D01*
X33676000Y-78551000D01*
X33676000Y-78551000D01*
G37*
G36*
X41786000Y-77741000D02*
G01*
X40214000Y-77741000D01*
X40214000Y-76479000D01*
X41786000Y-76479000D01*
X41786000Y-77741000D01*
X41786000Y-77741000D01*
G37*
G36*
X38036000Y-77741000D02*
G01*
X36464000Y-77741000D01*
X36464000Y-76479000D01*
X38036000Y-76479000D01*
X38036000Y-77741000D01*
X38036000Y-77741000D01*
G37*
G36*
X27876000Y-76451000D02*
G01*
X24374000Y-76451000D01*
X24374000Y-74849000D01*
X27876000Y-74849000D01*
X27876000Y-76451000D01*
X27876000Y-76451000D01*
G37*
G36*
X60956032Y-70464207D02*
G01*
X61154146Y-70524305D01*
X61154149Y-70524306D01*
X61250975Y-70576061D01*
X61336729Y-70621897D01*
X61496765Y-70753235D01*
X61628103Y-70913271D01*
X61673939Y-70999025D01*
X61725694Y-71095851D01*
X61725695Y-71095854D01*
X61785793Y-71293968D01*
X61801000Y-71448370D01*
X61801000Y-73051630D01*
X61785793Y-73206032D01*
X61725695Y-73404145D01*
X61725694Y-73404149D01*
X61673939Y-73500975D01*
X61628103Y-73586729D01*
X61496765Y-73746765D01*
X61336729Y-73878103D01*
X61248371Y-73925331D01*
X61217075Y-73942059D01*
X61196700Y-73955673D01*
X61179373Y-73973000D01*
X61165760Y-73993374D01*
X61156382Y-74016013D01*
X61151000Y-74052298D01*
X61151000Y-75369698D01*
X61145198Y-75428610D01*
X61138406Y-75451000D01*
X61122268Y-75504199D01*
X61085032Y-75573862D01*
X61034922Y-75634922D01*
X60973860Y-75685033D01*
X60904200Y-75722267D01*
X60904197Y-75722268D01*
X60828609Y-75745198D01*
X60750000Y-75752940D01*
X60671390Y-75745198D01*
X60620998Y-75729911D01*
X60595801Y-75722268D01*
X60526138Y-75685032D01*
X60465078Y-75634922D01*
X60414967Y-75573860D01*
X60377733Y-75504200D01*
X60377732Y-75504197D01*
X60354802Y-75428609D01*
X60349000Y-75369697D01*
X60349001Y-74052298D01*
X60346599Y-74027913D01*
X60339486Y-74004464D01*
X60327935Y-73982853D01*
X60312390Y-73963911D01*
X60282926Y-73942060D01*
X60225464Y-73911345D01*
X60163271Y-73878103D01*
X60003235Y-73746765D01*
X59871897Y-73586729D01*
X59774307Y-73404149D01*
X59774306Y-73404148D01*
X59774305Y-73404145D01*
X59714207Y-73206031D01*
X59699000Y-73051629D01*
X59699000Y-71448369D01*
X59714207Y-71293967D01*
X59774305Y-71095854D01*
X59837904Y-70976870D01*
X59871898Y-70913271D01*
X60003236Y-70753235D01*
X60163272Y-70621897D01*
X60249026Y-70576061D01*
X60345852Y-70524306D01*
X60345855Y-70524305D01*
X60543969Y-70464207D01*
X60750000Y-70443915D01*
X60956032Y-70464207D01*
X60956032Y-70464207D01*
G37*
G36*
X62328610Y-73754802D02*
G01*
X62379002Y-73770089D01*
X62404199Y-73777732D01*
X62473862Y-73814968D01*
X62534922Y-73865078D01*
X62585032Y-73926138D01*
X62622268Y-73995801D01*
X62622268Y-73995802D01*
X62645198Y-74071390D01*
X62651000Y-74130302D01*
X62651000Y-75369698D01*
X62645198Y-75428610D01*
X62638406Y-75451000D01*
X62622268Y-75504199D01*
X62585032Y-75573862D01*
X62534922Y-75634922D01*
X62473860Y-75685033D01*
X62404200Y-75722267D01*
X62404197Y-75722268D01*
X62328609Y-75745198D01*
X62250000Y-75752940D01*
X62171390Y-75745198D01*
X62120998Y-75729911D01*
X62095801Y-75722268D01*
X62026138Y-75685032D01*
X61965078Y-75634922D01*
X61914967Y-75573860D01*
X61877733Y-75504200D01*
X61877732Y-75504197D01*
X61854802Y-75428609D01*
X61849000Y-75369697D01*
X61849001Y-74130302D01*
X61854803Y-74071390D01*
X61877733Y-73995802D01*
X61877733Y-73995801D01*
X61914969Y-73926138D01*
X61965079Y-73865078D01*
X62026139Y-73814968D01*
X62095802Y-73777732D01*
X62120999Y-73770089D01*
X62171391Y-73754802D01*
X62250000Y-73747060D01*
X62328610Y-73754802D01*
X62328610Y-73754802D01*
G37*
G36*
X59328610Y-73754802D02*
G01*
X59379002Y-73770089D01*
X59404199Y-73777732D01*
X59473862Y-73814968D01*
X59534922Y-73865078D01*
X59585032Y-73926138D01*
X59622268Y-73995801D01*
X59622268Y-73995802D01*
X59645198Y-74071390D01*
X59651000Y-74130302D01*
X59651000Y-75369698D01*
X59645198Y-75428610D01*
X59638406Y-75451000D01*
X59622268Y-75504199D01*
X59585032Y-75573862D01*
X59534922Y-75634922D01*
X59473860Y-75685033D01*
X59404200Y-75722267D01*
X59404197Y-75722268D01*
X59328609Y-75745198D01*
X59250000Y-75752940D01*
X59171390Y-75745198D01*
X59120998Y-75729911D01*
X59095801Y-75722268D01*
X59026138Y-75685032D01*
X58965078Y-75634922D01*
X58914967Y-75573860D01*
X58877733Y-75504200D01*
X58877732Y-75504197D01*
X58854802Y-75428609D01*
X58849000Y-75369697D01*
X58849001Y-74130302D01*
X58854803Y-74071390D01*
X58877733Y-73995802D01*
X58877733Y-73995801D01*
X58914969Y-73926138D01*
X58965079Y-73865078D01*
X59026139Y-73814968D01*
X59095802Y-73777732D01*
X59120999Y-73770089D01*
X59171391Y-73754802D01*
X59250000Y-73747060D01*
X59328610Y-73754802D01*
X59328610Y-73754802D01*
G37*
G36*
X46201000Y-75451000D02*
G01*
X44299000Y-75451000D01*
X44299000Y-74549000D01*
X46201000Y-74549000D01*
X46201000Y-75451000D01*
X46201000Y-75451000D01*
G37*
G36*
X53201000Y-75451000D02*
G01*
X51299000Y-75451000D01*
X51299000Y-74549000D01*
X53201000Y-74549000D01*
X53201000Y-75451000D01*
X53201000Y-75451000D01*
G37*
G36*
X56951000Y-75356000D02*
G01*
X55049000Y-75356000D01*
X55049000Y-74124000D01*
X56951000Y-74124000D01*
X56951000Y-75356000D01*
X56951000Y-75356000D01*
G37*
G36*
X35173609Y-72654802D02*
G01*
X35249197Y-72677732D01*
X35249200Y-72677733D01*
X35318860Y-72714967D01*
X35379922Y-72765078D01*
X35430032Y-72826138D01*
X35467268Y-72895801D01*
X35474911Y-72920998D01*
X35490198Y-72971390D01*
X35496000Y-73030302D01*
X35496000Y-74169698D01*
X35490198Y-74228610D01*
X35477339Y-74271000D01*
X35467268Y-74304199D01*
X35430032Y-74373862D01*
X35379922Y-74434922D01*
X35318862Y-74485032D01*
X35249199Y-74522268D01*
X35224002Y-74529911D01*
X35173610Y-74545198D01*
X35095000Y-74552940D01*
X35016391Y-74545198D01*
X34965999Y-74529911D01*
X34940802Y-74522268D01*
X34871139Y-74485032D01*
X34810079Y-74434922D01*
X34759969Y-74373862D01*
X34722733Y-74304199D01*
X34712662Y-74271000D01*
X34699803Y-74228610D01*
X34694001Y-74169698D01*
X34694000Y-73030303D01*
X34699802Y-72971391D01*
X34722732Y-72895803D01*
X34722733Y-72895800D01*
X34759967Y-72826140D01*
X34810078Y-72765078D01*
X34871138Y-72714968D01*
X34940801Y-72677732D01*
X34965998Y-72670089D01*
X35016390Y-72654802D01*
X35095000Y-72647060D01*
X35173609Y-72654802D01*
X35173609Y-72654802D01*
G37*
G36*
X36443609Y-72654802D02*
G01*
X36519197Y-72677732D01*
X36519200Y-72677733D01*
X36588860Y-72714967D01*
X36649922Y-72765078D01*
X36700032Y-72826138D01*
X36737268Y-72895801D01*
X36744911Y-72920998D01*
X36760198Y-72971390D01*
X36766000Y-73030302D01*
X36766000Y-74169698D01*
X36760198Y-74228610D01*
X36747339Y-74271000D01*
X36737268Y-74304199D01*
X36700032Y-74373862D01*
X36649922Y-74434922D01*
X36588862Y-74485032D01*
X36519199Y-74522268D01*
X36494002Y-74529911D01*
X36443610Y-74545198D01*
X36365000Y-74552940D01*
X36286391Y-74545198D01*
X36235999Y-74529911D01*
X36210802Y-74522268D01*
X36141139Y-74485032D01*
X36080079Y-74434922D01*
X36029969Y-74373862D01*
X35992733Y-74304199D01*
X35982662Y-74271000D01*
X35969803Y-74228610D01*
X35964001Y-74169698D01*
X35964000Y-73030303D01*
X35969802Y-72971391D01*
X35992732Y-72895803D01*
X35992733Y-72895800D01*
X36029967Y-72826140D01*
X36080078Y-72765078D01*
X36141138Y-72714968D01*
X36210801Y-72677732D01*
X36235998Y-72670089D01*
X36286390Y-72654802D01*
X36365000Y-72647060D01*
X36443609Y-72654802D01*
X36443609Y-72654802D01*
G37*
G36*
X38983609Y-72654802D02*
G01*
X39059197Y-72677732D01*
X39059200Y-72677733D01*
X39128860Y-72714967D01*
X39189922Y-72765078D01*
X39240032Y-72826138D01*
X39277268Y-72895801D01*
X39284911Y-72920998D01*
X39300198Y-72971390D01*
X39306000Y-73030302D01*
X39306000Y-74169698D01*
X39300198Y-74228610D01*
X39287339Y-74271000D01*
X39277268Y-74304199D01*
X39240032Y-74373862D01*
X39189922Y-74434922D01*
X39128862Y-74485032D01*
X39059199Y-74522268D01*
X39034002Y-74529911D01*
X38983610Y-74545198D01*
X38905000Y-74552940D01*
X38826391Y-74545198D01*
X38775999Y-74529911D01*
X38750802Y-74522268D01*
X38681139Y-74485032D01*
X38620079Y-74434922D01*
X38569969Y-74373862D01*
X38532733Y-74304199D01*
X38522662Y-74271000D01*
X38509803Y-74228610D01*
X38504001Y-74169698D01*
X38504000Y-73030303D01*
X38509802Y-72971391D01*
X38532732Y-72895803D01*
X38532733Y-72895800D01*
X38569967Y-72826140D01*
X38620078Y-72765078D01*
X38681138Y-72714968D01*
X38750801Y-72677732D01*
X38775998Y-72670089D01*
X38826390Y-72654802D01*
X38905000Y-72647060D01*
X38983609Y-72654802D01*
X38983609Y-72654802D01*
G37*
G36*
X37713609Y-72654802D02*
G01*
X37789197Y-72677732D01*
X37789200Y-72677733D01*
X37858860Y-72714967D01*
X37919922Y-72765078D01*
X37970032Y-72826138D01*
X38007268Y-72895801D01*
X38014911Y-72920998D01*
X38030198Y-72971390D01*
X38036000Y-73030302D01*
X38036000Y-74169698D01*
X38030198Y-74228610D01*
X38017339Y-74271000D01*
X38007268Y-74304199D01*
X37970032Y-74373862D01*
X37919922Y-74434922D01*
X37858862Y-74485032D01*
X37789199Y-74522268D01*
X37764002Y-74529911D01*
X37713610Y-74545198D01*
X37635000Y-74552940D01*
X37556391Y-74545198D01*
X37505999Y-74529911D01*
X37480802Y-74522268D01*
X37411139Y-74485032D01*
X37350079Y-74434922D01*
X37299969Y-74373862D01*
X37262733Y-74304199D01*
X37252662Y-74271000D01*
X37239803Y-74228610D01*
X37234001Y-74169698D01*
X37234000Y-73030303D01*
X37239802Y-72971391D01*
X37262732Y-72895803D01*
X37262733Y-72895800D01*
X37299967Y-72826140D01*
X37350078Y-72765078D01*
X37411138Y-72714968D01*
X37480801Y-72677732D01*
X37505998Y-72670089D01*
X37556390Y-72654802D01*
X37635000Y-72647060D01*
X37713609Y-72654802D01*
X37713609Y-72654802D01*
G37*
G36*
X42536000Y-74271000D02*
G01*
X40964000Y-74271000D01*
X40964000Y-73009000D01*
X42536000Y-73009000D01*
X42536000Y-74271000D01*
X42536000Y-74271000D01*
G37*
G36*
X42536000Y-72491000D02*
G01*
X40964000Y-72491000D01*
X40964000Y-71229000D01*
X42536000Y-71229000D01*
X42536000Y-72491000D01*
X42536000Y-72491000D01*
G37*
G36*
X56951000Y-72376000D02*
G01*
X55049000Y-72376000D01*
X55049000Y-71144000D01*
X56951000Y-71144000D01*
X56951000Y-72376000D01*
X56951000Y-72376000D01*
G37*
G36*
X53201000Y-72251000D02*
G01*
X51299000Y-72251000D01*
X51299000Y-71349000D01*
X53201000Y-71349000D01*
X53201000Y-72251000D01*
X53201000Y-72251000D01*
G37*
G36*
X46201000Y-72251000D02*
G01*
X44299000Y-72251000D01*
X44299000Y-71349000D01*
X46201000Y-71349000D01*
X46201000Y-72251000D01*
X46201000Y-72251000D01*
G37*
G36*
X28741000Y-72036000D02*
G01*
X27479000Y-72036000D01*
X27479000Y-70464000D01*
X28741000Y-70464000D01*
X28741000Y-72036000D01*
X28741000Y-72036000D01*
G37*
G36*
X30521000Y-72036000D02*
G01*
X29259000Y-72036000D01*
X29259000Y-70464000D01*
X30521000Y-70464000D01*
X30521000Y-72036000D01*
X30521000Y-72036000D01*
G37*
G36*
X33301000Y-71551000D02*
G01*
X32199000Y-71551000D01*
X32199000Y-70199000D01*
X33301000Y-70199000D01*
X33301000Y-71551000D01*
X33301000Y-71551000D01*
G37*
G36*
X53201000Y-70051000D02*
G01*
X51299000Y-70051000D01*
X51299000Y-69149000D01*
X53201000Y-69149000D01*
X53201000Y-70051000D01*
X53201000Y-70051000D01*
G37*
G36*
X46201000Y-70051000D02*
G01*
X44299000Y-70051000D01*
X44299000Y-69149000D01*
X46201000Y-69149000D01*
X46201000Y-70051000D01*
X46201000Y-70051000D01*
G37*
G36*
X31036000Y-69521000D02*
G01*
X29464000Y-69521000D01*
X29464000Y-68259000D01*
X31036000Y-68259000D01*
X31036000Y-69521000D01*
X31036000Y-69521000D01*
G37*
G36*
X27286000Y-69521000D02*
G01*
X25714000Y-69521000D01*
X25714000Y-68259000D01*
X27286000Y-68259000D01*
X27286000Y-69521000D01*
X27286000Y-69521000D01*
G37*
G36*
X38983609Y-67454802D02*
G01*
X39059197Y-67477732D01*
X39059200Y-67477733D01*
X39128860Y-67514967D01*
X39189922Y-67565078D01*
X39240032Y-67626138D01*
X39277268Y-67695801D01*
X39284911Y-67720998D01*
X39300198Y-67771390D01*
X39306000Y-67830302D01*
X39306000Y-68969698D01*
X39300198Y-69028610D01*
X39284911Y-69079002D01*
X39277268Y-69104199D01*
X39240032Y-69173862D01*
X39189922Y-69234922D01*
X39128862Y-69285032D01*
X39059199Y-69322268D01*
X39034002Y-69329911D01*
X38983610Y-69345198D01*
X38905000Y-69352940D01*
X38826391Y-69345198D01*
X38775999Y-69329911D01*
X38750802Y-69322268D01*
X38681139Y-69285032D01*
X38620079Y-69234922D01*
X38569969Y-69173862D01*
X38532733Y-69104199D01*
X38525090Y-69079002D01*
X38509803Y-69028610D01*
X38504001Y-68969698D01*
X38504000Y-67830303D01*
X38509802Y-67771391D01*
X38532732Y-67695803D01*
X38532733Y-67695800D01*
X38569967Y-67626140D01*
X38620078Y-67565078D01*
X38681138Y-67514968D01*
X38750801Y-67477732D01*
X38775998Y-67470089D01*
X38826390Y-67454802D01*
X38905000Y-67447060D01*
X38983609Y-67454802D01*
X38983609Y-67454802D01*
G37*
G36*
X37713609Y-67454802D02*
G01*
X37789197Y-67477732D01*
X37789200Y-67477733D01*
X37858860Y-67514967D01*
X37919922Y-67565078D01*
X37970032Y-67626138D01*
X38007268Y-67695801D01*
X38014911Y-67720998D01*
X38030198Y-67771390D01*
X38036000Y-67830302D01*
X38036000Y-68969698D01*
X38030198Y-69028610D01*
X38014911Y-69079002D01*
X38007268Y-69104199D01*
X37970032Y-69173862D01*
X37919922Y-69234922D01*
X37858862Y-69285032D01*
X37789199Y-69322268D01*
X37764002Y-69329911D01*
X37713610Y-69345198D01*
X37635000Y-69352940D01*
X37556391Y-69345198D01*
X37505999Y-69329911D01*
X37480802Y-69322268D01*
X37411139Y-69285032D01*
X37350079Y-69234922D01*
X37299969Y-69173862D01*
X37262733Y-69104199D01*
X37255090Y-69079002D01*
X37239803Y-69028610D01*
X37234001Y-68969698D01*
X37234000Y-67830303D01*
X37239802Y-67771391D01*
X37262732Y-67695803D01*
X37262733Y-67695800D01*
X37299967Y-67626140D01*
X37350078Y-67565078D01*
X37411138Y-67514968D01*
X37480801Y-67477732D01*
X37505998Y-67470089D01*
X37556390Y-67454802D01*
X37635000Y-67447060D01*
X37713609Y-67454802D01*
X37713609Y-67454802D01*
G37*
G36*
X36443609Y-67454802D02*
G01*
X36519197Y-67477732D01*
X36519200Y-67477733D01*
X36588860Y-67514967D01*
X36649922Y-67565078D01*
X36700032Y-67626138D01*
X36737268Y-67695801D01*
X36744911Y-67720998D01*
X36760198Y-67771390D01*
X36766000Y-67830302D01*
X36766000Y-68969698D01*
X36760198Y-69028610D01*
X36744911Y-69079002D01*
X36737268Y-69104199D01*
X36700032Y-69173862D01*
X36649922Y-69234922D01*
X36588862Y-69285032D01*
X36519199Y-69322268D01*
X36494002Y-69329911D01*
X36443610Y-69345198D01*
X36365000Y-69352940D01*
X36286391Y-69345198D01*
X36235999Y-69329911D01*
X36210802Y-69322268D01*
X36141139Y-69285032D01*
X36080079Y-69234922D01*
X36029969Y-69173862D01*
X35992733Y-69104199D01*
X35985090Y-69079002D01*
X35969803Y-69028610D01*
X35964001Y-68969698D01*
X35964000Y-67830303D01*
X35969802Y-67771391D01*
X35992732Y-67695803D01*
X35992733Y-67695800D01*
X36029967Y-67626140D01*
X36080078Y-67565078D01*
X36141138Y-67514968D01*
X36210801Y-67477732D01*
X36235998Y-67470089D01*
X36286390Y-67454802D01*
X36365000Y-67447060D01*
X36443609Y-67454802D01*
X36443609Y-67454802D01*
G37*
G36*
X35173609Y-67454802D02*
G01*
X35249197Y-67477732D01*
X35249200Y-67477733D01*
X35318860Y-67514967D01*
X35379922Y-67565078D01*
X35430032Y-67626138D01*
X35467268Y-67695801D01*
X35474911Y-67720998D01*
X35490198Y-67771390D01*
X35496000Y-67830302D01*
X35496000Y-68969698D01*
X35490198Y-69028610D01*
X35474911Y-69079002D01*
X35467268Y-69104199D01*
X35430032Y-69173862D01*
X35379922Y-69234922D01*
X35318862Y-69285032D01*
X35249199Y-69322268D01*
X35224002Y-69329911D01*
X35173610Y-69345198D01*
X35095000Y-69352940D01*
X35016391Y-69345198D01*
X34965999Y-69329911D01*
X34940802Y-69322268D01*
X34871139Y-69285032D01*
X34810079Y-69234922D01*
X34759969Y-69173862D01*
X34722733Y-69104199D01*
X34715090Y-69079002D01*
X34699803Y-69028610D01*
X34694001Y-68969698D01*
X34694000Y-67830303D01*
X34699802Y-67771391D01*
X34722732Y-67695803D01*
X34722733Y-67695800D01*
X34759967Y-67626140D01*
X34810078Y-67565078D01*
X34871138Y-67514968D01*
X34940801Y-67477732D01*
X34965998Y-67470089D01*
X35016390Y-67454802D01*
X35095000Y-67447060D01*
X35173609Y-67454802D01*
X35173609Y-67454802D01*
G37*
G36*
X33301000Y-68601000D02*
G01*
X32199000Y-68601000D01*
X32199000Y-67249000D01*
X33301000Y-67249000D01*
X33301000Y-68601000D01*
X33301000Y-68601000D01*
G37*
G36*
X56126000Y-68451000D02*
G01*
X54894000Y-68451000D01*
X54894000Y-66549000D01*
X56126000Y-66549000D01*
X56126000Y-68451000D01*
X56126000Y-68451000D01*
G37*
G36*
X59106000Y-68451000D02*
G01*
X57874000Y-68451000D01*
X57874000Y-66549000D01*
X59106000Y-66549000D01*
X59106000Y-68451000D01*
X59106000Y-68451000D01*
G37*
G36*
X61126000Y-68451000D02*
G01*
X59894000Y-68451000D01*
X59894000Y-66549000D01*
X61126000Y-66549000D01*
X61126000Y-68451000D01*
X61126000Y-68451000D01*
G37*
G36*
X64106000Y-68451000D02*
G01*
X62874000Y-68451000D01*
X62874000Y-66549000D01*
X64106000Y-66549000D01*
X64106000Y-68451000D01*
X64106000Y-68451000D01*
G37*
G36*
X46201000Y-67851000D02*
G01*
X44299000Y-67851000D01*
X44299000Y-66949000D01*
X46201000Y-66949000D01*
X46201000Y-67851000D01*
X46201000Y-67851000D01*
G37*
G36*
X53201000Y-67851000D02*
G01*
X51299000Y-67851000D01*
X51299000Y-66949000D01*
X53201000Y-66949000D01*
X53201000Y-67851000D01*
X53201000Y-67851000D01*
G37*
G36*
X27286000Y-67741000D02*
G01*
X25714000Y-67741000D01*
X25714000Y-66479000D01*
X27286000Y-66479000D01*
X27286000Y-67741000D01*
X27286000Y-67741000D01*
G37*
G36*
X31036000Y-67741000D02*
G01*
X29464000Y-67741000D01*
X29464000Y-66479000D01*
X31036000Y-66479000D01*
X31036000Y-67741000D01*
X31036000Y-67741000D01*
G37*
G36*
X37521000Y-66286000D02*
G01*
X36259000Y-66286000D01*
X36259000Y-64714000D01*
X37521000Y-64714000D01*
X37521000Y-66286000D01*
X37521000Y-66286000D01*
G37*
G36*
X35741000Y-66286000D02*
G01*
X34479000Y-66286000D01*
X34479000Y-64714000D01*
X35741000Y-64714000D01*
X35741000Y-66286000D01*
X35741000Y-66286000D01*
G37*
G36*
X40241000Y-66286000D02*
G01*
X38979000Y-66286000D01*
X38979000Y-64714000D01*
X40241000Y-64714000D01*
X40241000Y-66286000D01*
X40241000Y-66286000D01*
G37*
G36*
X42021000Y-66286000D02*
G01*
X40759000Y-66286000D01*
X40759000Y-64714000D01*
X42021000Y-64714000D01*
X42021000Y-66286000D01*
X42021000Y-66286000D01*
G37*
G36*
X46201000Y-65106000D02*
G01*
X44299000Y-65106000D01*
X44299000Y-63874000D01*
X46201000Y-63874000D01*
X46201000Y-65106000D01*
X46201000Y-65106000D01*
G37*
G36*
X53201000Y-65106000D02*
G01*
X51299000Y-65106000D01*
X51299000Y-63874000D01*
X53201000Y-63874000D01*
X53201000Y-65106000D01*
X53201000Y-65106000D01*
G37*
G36*
X27376000Y-64901000D02*
G01*
X23874000Y-64901000D01*
X23874000Y-63299000D01*
X27376000Y-63299000D01*
X27376000Y-64901000D01*
X27376000Y-64901000D01*
G37*
G36*
X65226000Y-64901000D02*
G01*
X61724000Y-64901000D01*
X61724000Y-63299000D01*
X65226000Y-63299000D01*
X65226000Y-64901000D01*
X65226000Y-64901000D01*
G37*
G36*
X36241000Y-62536000D02*
G01*
X34979000Y-62536000D01*
X34979000Y-60964000D01*
X36241000Y-60964000D01*
X36241000Y-62536000D01*
X36241000Y-62536000D01*
G37*
G36*
X38021000Y-62536000D02*
G01*
X36759000Y-62536000D01*
X36759000Y-60964000D01*
X38021000Y-60964000D01*
X38021000Y-62536000D01*
X38021000Y-62536000D01*
G37*
G36*
X41801000Y-62401000D02*
G01*
X40699000Y-62401000D01*
X40699000Y-61049000D01*
X41801000Y-61049000D01*
X41801000Y-62401000D01*
X41801000Y-62401000D01*
G37*
G36*
X59526000Y-62301000D02*
G01*
X55924000Y-62301000D01*
X55924000Y-61199000D01*
X59526000Y-61199000D01*
X59526000Y-62301000D01*
X59526000Y-62301000D01*
G37*
G36*
X33176000Y-62301000D02*
G01*
X29574000Y-62301000D01*
X29574000Y-61199000D01*
X33176000Y-61199000D01*
X33176000Y-62301000D01*
X33176000Y-62301000D01*
G37*
G36*
X46201000Y-62126000D02*
G01*
X44299000Y-62126000D01*
X44299000Y-60894000D01*
X46201000Y-60894000D01*
X46201000Y-62126000D01*
X46201000Y-62126000D01*
G37*
G36*
X53201000Y-62126000D02*
G01*
X51299000Y-62126000D01*
X51299000Y-60894000D01*
X53201000Y-60894000D01*
X53201000Y-62126000D01*
X53201000Y-62126000D01*
G37*
G36*
X33176000Y-60301000D02*
G01*
X29574000Y-60301000D01*
X29574000Y-59199000D01*
X33176000Y-59199000D01*
X33176000Y-60301000D01*
X33176000Y-60301000D01*
G37*
G36*
X59526000Y-60301000D02*
G01*
X55924000Y-60301000D01*
X55924000Y-59199000D01*
X59526000Y-59199000D01*
X59526000Y-60301000D01*
X59526000Y-60301000D01*
G37*
G36*
X47551000Y-59676000D02*
G01*
X46449000Y-59676000D01*
X46449000Y-56074000D01*
X47551000Y-56074000D01*
X47551000Y-59676000D01*
X47551000Y-59676000D01*
G37*
G36*
X49551000Y-59676000D02*
G01*
X48449000Y-59676000D01*
X48449000Y-56074000D01*
X49551000Y-56074000D01*
X49551000Y-59676000D01*
X49551000Y-59676000D01*
G37*
G36*
X51551000Y-59676000D02*
G01*
X50449000Y-59676000D01*
X50449000Y-56074000D01*
X51551000Y-56074000D01*
X51551000Y-59676000D01*
X51551000Y-59676000D01*
G37*
G36*
X41801000Y-59451000D02*
G01*
X40699000Y-59451000D01*
X40699000Y-58099000D01*
X41801000Y-58099000D01*
X41801000Y-59451000D01*
X41801000Y-59451000D01*
G37*
G36*
X36126000Y-59201000D02*
G01*
X34894000Y-59201000D01*
X34894000Y-57299000D01*
X36126000Y-57299000D01*
X36126000Y-59201000D01*
X36126000Y-59201000D01*
G37*
G36*
X39106000Y-59201000D02*
G01*
X37874000Y-59201000D01*
X37874000Y-57299000D01*
X39106000Y-57299000D01*
X39106000Y-59201000D01*
X39106000Y-59201000D01*
G37*
G36*
X65226000Y-58201000D02*
G01*
X61724000Y-58201000D01*
X61724000Y-56599000D01*
X65226000Y-56599000D01*
X65226000Y-58201000D01*
X65226000Y-58201000D01*
G37*
G36*
X27376000Y-58201000D02*
G01*
X23874000Y-58201000D01*
X23874000Y-56599000D01*
X27376000Y-56599000D01*
X27376000Y-58201000D01*
X27376000Y-58201000D01*
G37*
G36*
X38021000Y-55036000D02*
G01*
X36759000Y-55036000D01*
X36759000Y-53464000D01*
X38021000Y-53464000D01*
X38021000Y-55036000D01*
X38021000Y-55036000D01*
G37*
G36*
X36241000Y-55036000D02*
G01*
X34979000Y-55036000D01*
X34979000Y-53464000D01*
X36241000Y-53464000D01*
X36241000Y-55036000D01*
X36241000Y-55036000D01*
G37*
G36*
X45451000Y-53876000D02*
G01*
X43849000Y-53876000D01*
X43849000Y-50374000D01*
X45451000Y-50374000D01*
X45451000Y-53876000D01*
X45451000Y-53876000D01*
G37*
G36*
X54151000Y-53876000D02*
G01*
X52549000Y-53876000D01*
X52549000Y-50374000D01*
X54151000Y-50374000D01*
X54151000Y-53876000D01*
X54151000Y-53876000D01*
G37*
M02*
