%TF.GenerationSoftware,KiCad,Pcbnew,(5.1.4)-1*%
%TF.CreationDate,2021-02-25T01:30:08+08:00*%
%TF.ProjectId,Overdrive_Protector,4f766572-6472-4697-9665-5f50726f7465,rev?*%
%TF.SameCoordinates,Original*%
%TF.FileFunction,Legend,Top*%
%TF.FilePolarity,Positive*%
%FSLAX46Y46*%
G04 Gerber Fmt 4.6, Leading zero omitted, Abs format (unit mm)*
G04 Created by KiCad (PCBNEW (5.1.4)-1) date 2021-02-25 01:30:08*
%MOMM*%
%LPD*%
G04 APERTURE LIST*
%ADD10C,0.150000*%
%ADD11C,0.200000*%
%ADD12C,0.120000*%
%ADD13C,0.254000*%
%ADD14C,0.300000*%
%ADD15C,0.400000*%
G04 APERTURE END LIST*
D10*
X32469047Y-74861904D02*
X32469047Y-74061904D01*
X32469047Y-74442857D02*
X32926190Y-74442857D01*
X32926190Y-74861904D02*
X32926190Y-74061904D01*
X33307142Y-74861904D02*
X33307142Y-74328571D01*
X33307142Y-74061904D02*
X33269047Y-74100000D01*
X33307142Y-74138095D01*
X33345238Y-74100000D01*
X33307142Y-74061904D01*
X33307142Y-74138095D01*
X33688095Y-74442857D02*
X33954761Y-74442857D01*
X34069047Y-74861904D02*
X33688095Y-74861904D01*
X33688095Y-74061904D01*
X34069047Y-74061904D01*
X58761904Y-51678571D02*
X58904761Y-51726190D01*
X58952380Y-51773809D01*
X59000000Y-51869047D01*
X59000000Y-52011904D01*
X58952380Y-52107142D01*
X58904761Y-52154761D01*
X58809523Y-52202380D01*
X58428571Y-52202380D01*
X58428571Y-51202380D01*
X58761904Y-51202380D01*
X58857142Y-51250000D01*
X58904761Y-51297619D01*
X58952380Y-51392857D01*
X58952380Y-51488095D01*
X58904761Y-51583333D01*
X58857142Y-51630952D01*
X58761904Y-51678571D01*
X58428571Y-51678571D01*
X59428571Y-52202380D02*
X59428571Y-51202380D01*
X60333333Y-51535714D02*
X60333333Y-52202380D01*
X60095238Y-51154761D02*
X59857142Y-51869047D01*
X60476190Y-51869047D01*
X60761904Y-51202380D02*
X61000000Y-52202380D01*
X61190476Y-51488095D01*
X61380952Y-52202380D01*
X61619047Y-51202380D01*
X62190476Y-51202380D02*
X62380952Y-51202380D01*
X62476190Y-51250000D01*
X62571428Y-51345238D01*
X62619047Y-51535714D01*
X62619047Y-51869047D01*
X62571428Y-52059523D01*
X62476190Y-52154761D01*
X62380952Y-52202380D01*
X62190476Y-52202380D01*
X62095238Y-52154761D01*
X62000000Y-52059523D01*
X61952380Y-51869047D01*
X61952380Y-51535714D01*
X62000000Y-51345238D01*
X62095238Y-51250000D01*
X62190476Y-51202380D01*
X63047619Y-52202380D02*
X63047619Y-51202380D01*
X63428571Y-51202380D01*
X63523809Y-51250000D01*
X63571428Y-51297619D01*
X63619047Y-51392857D01*
X63619047Y-51535714D01*
X63571428Y-51630952D01*
X63523809Y-51678571D01*
X63428571Y-51726190D01*
X63047619Y-51726190D01*
X24761904Y-52452380D02*
X25095238Y-53452380D01*
X25428571Y-52452380D01*
X25761904Y-53452380D02*
X25761904Y-52452380D01*
X26142857Y-52452380D01*
X26238095Y-52500000D01*
X26285714Y-52547619D01*
X26333333Y-52642857D01*
X26333333Y-52785714D01*
X26285714Y-52880952D01*
X26238095Y-52928571D01*
X26142857Y-52976190D01*
X25761904Y-52976190D01*
X26714285Y-52547619D02*
X26761904Y-52500000D01*
X26857142Y-52452380D01*
X27095238Y-52452380D01*
X27190476Y-52500000D01*
X27238095Y-52547619D01*
X27285714Y-52642857D01*
X27285714Y-52738095D01*
X27238095Y-52880952D01*
X26666666Y-53452380D01*
X27285714Y-53452380D01*
X27714285Y-53357142D02*
X27761904Y-53404761D01*
X27714285Y-53452380D01*
X27666666Y-53404761D01*
X27714285Y-53357142D01*
X27714285Y-53452380D01*
X27714285Y-52833333D02*
X27761904Y-52880952D01*
X27714285Y-52928571D01*
X27666666Y-52880952D01*
X27714285Y-52833333D01*
X27714285Y-52928571D01*
X28809523Y-52452380D02*
X29142857Y-53452380D01*
X29476190Y-52452380D01*
X30142857Y-52928571D02*
X29809523Y-52928571D01*
X29809523Y-53452380D02*
X29809523Y-52452380D01*
X30285714Y-52452380D01*
X31095238Y-53452380D02*
X31095238Y-52928571D01*
X31047619Y-52833333D01*
X30952380Y-52785714D01*
X30761904Y-52785714D01*
X30666666Y-52833333D01*
X31095238Y-53404761D02*
X31000000Y-53452380D01*
X30761904Y-53452380D01*
X30666666Y-53404761D01*
X30619047Y-53309523D01*
X30619047Y-53214285D01*
X30666666Y-53119047D01*
X30761904Y-53071428D01*
X31000000Y-53071428D01*
X31095238Y-53023809D01*
X32000000Y-52785714D02*
X32000000Y-53452380D01*
X31571428Y-52785714D02*
X31571428Y-53309523D01*
X31619047Y-53404761D01*
X31714285Y-53452380D01*
X31857142Y-53452380D01*
X31952380Y-53404761D01*
X32000000Y-53357142D01*
X32619047Y-53452380D02*
X32523809Y-53404761D01*
X32476190Y-53309523D01*
X32476190Y-52452380D01*
X32857142Y-52785714D02*
X33238095Y-52785714D01*
X33000000Y-52452380D02*
X33000000Y-53309523D01*
X33047619Y-53404761D01*
X33142857Y-53452380D01*
X33238095Y-53452380D01*
X24821428Y-50702380D02*
X25154761Y-51702380D01*
X25488095Y-50702380D01*
X25821428Y-51702380D02*
X25821428Y-50702380D01*
X26202380Y-50702380D01*
X26297619Y-50750000D01*
X26345238Y-50797619D01*
X26392857Y-50892857D01*
X26392857Y-51035714D01*
X26345238Y-51130952D01*
X26297619Y-51178571D01*
X26202380Y-51226190D01*
X25821428Y-51226190D01*
X27345238Y-51702380D02*
X26773809Y-51702380D01*
X27059523Y-51702380D02*
X27059523Y-50702380D01*
X26964285Y-50845238D01*
X26869047Y-50940476D01*
X26773809Y-50988095D01*
X27773809Y-51607142D02*
X27821428Y-51654761D01*
X27773809Y-51702380D01*
X27726190Y-51654761D01*
X27773809Y-51607142D01*
X27773809Y-51702380D01*
X27773809Y-51083333D02*
X27821428Y-51130952D01*
X27773809Y-51178571D01*
X27726190Y-51130952D01*
X27773809Y-51083333D01*
X27773809Y-51178571D01*
X28869047Y-50702380D02*
X29202380Y-51702380D01*
X29535714Y-50702380D01*
X30440476Y-51702380D02*
X30107142Y-51226190D01*
X29869047Y-51702380D02*
X29869047Y-50702380D01*
X30250000Y-50702380D01*
X30345238Y-50750000D01*
X30392857Y-50797619D01*
X30440476Y-50892857D01*
X30440476Y-51035714D01*
X30392857Y-51130952D01*
X30345238Y-51178571D01*
X30250000Y-51226190D01*
X29869047Y-51226190D01*
X31250000Y-51654761D02*
X31154761Y-51702380D01*
X30964285Y-51702380D01*
X30869047Y-51654761D01*
X30821428Y-51559523D01*
X30821428Y-51178571D01*
X30869047Y-51083333D01*
X30964285Y-51035714D01*
X31154761Y-51035714D01*
X31250000Y-51083333D01*
X31297619Y-51178571D01*
X31297619Y-51273809D01*
X30821428Y-51369047D01*
X31583333Y-51035714D02*
X31964285Y-51035714D01*
X31726190Y-51702380D02*
X31726190Y-50845238D01*
X31773809Y-50750000D01*
X31869047Y-50702380D01*
X31964285Y-50702380D01*
X32916666Y-51035714D02*
X33297619Y-51035714D01*
X33059523Y-51702380D02*
X33059523Y-50845238D01*
X33107142Y-50750000D01*
X33202380Y-50702380D01*
X33297619Y-50702380D01*
X33773809Y-51702380D02*
X33678571Y-51654761D01*
X33630952Y-51607142D01*
X33583333Y-51511904D01*
X33583333Y-51226190D01*
X33630952Y-51130952D01*
X33678571Y-51083333D01*
X33773809Y-51035714D01*
X33916666Y-51035714D01*
X34011904Y-51083333D01*
X34059523Y-51130952D01*
X34107142Y-51226190D01*
X34107142Y-51511904D01*
X34059523Y-51607142D01*
X34011904Y-51654761D01*
X33916666Y-51702380D01*
X33773809Y-51702380D01*
X34535714Y-51702380D02*
X34535714Y-51035714D01*
X34535714Y-51226190D02*
X34583333Y-51130952D01*
X34630952Y-51083333D01*
X34726190Y-51035714D01*
X34821428Y-51035714D01*
X35916666Y-51702380D02*
X35916666Y-50702380D01*
X36392857Y-51702380D02*
X36392857Y-51035714D01*
X36392857Y-51130952D02*
X36440476Y-51083333D01*
X36535714Y-51035714D01*
X36678571Y-51035714D01*
X36773809Y-51083333D01*
X36821428Y-51178571D01*
X36821428Y-51702380D01*
X36821428Y-51178571D02*
X36869047Y-51083333D01*
X36964285Y-51035714D01*
X37107142Y-51035714D01*
X37202380Y-51083333D01*
X37250000Y-51178571D01*
X37250000Y-51702380D01*
X38154761Y-51702380D02*
X38154761Y-51178571D01*
X38107142Y-51083333D01*
X38011904Y-51035714D01*
X37821428Y-51035714D01*
X37726190Y-51083333D01*
X38154761Y-51654761D02*
X38059523Y-51702380D01*
X37821428Y-51702380D01*
X37726190Y-51654761D01*
X37678571Y-51559523D01*
X37678571Y-51464285D01*
X37726190Y-51369047D01*
X37821428Y-51321428D01*
X38059523Y-51321428D01*
X38154761Y-51273809D01*
X38630952Y-51702380D02*
X38630952Y-51035714D01*
X38630952Y-50702380D02*
X38583333Y-50750000D01*
X38630952Y-50797619D01*
X38678571Y-50750000D01*
X38630952Y-50702380D01*
X38630952Y-50797619D01*
X39107142Y-51035714D02*
X39107142Y-51702380D01*
X39107142Y-51130952D02*
X39154761Y-51083333D01*
X39250000Y-51035714D01*
X39392857Y-51035714D01*
X39488095Y-51083333D01*
X39535714Y-51178571D01*
X39535714Y-51702380D01*
X42452380Y-78561904D02*
X42719047Y-79361904D01*
X42985714Y-78561904D01*
X43252380Y-79361904D02*
X43252380Y-78561904D01*
X43557142Y-78561904D01*
X43633333Y-78600000D01*
X43671428Y-78638095D01*
X43709523Y-78714285D01*
X43709523Y-78828571D01*
X43671428Y-78904761D01*
X43633333Y-78942857D01*
X43557142Y-78980952D01*
X43252380Y-78980952D01*
X44014285Y-78638095D02*
X44052380Y-78600000D01*
X44128571Y-78561904D01*
X44319047Y-78561904D01*
X44395238Y-78600000D01*
X44433333Y-78638095D01*
X44471428Y-78714285D01*
X44471428Y-78790476D01*
X44433333Y-78904761D01*
X43976190Y-79361904D01*
X44471428Y-79361904D01*
X33952380Y-76561904D02*
X34219047Y-77361904D01*
X34485714Y-76561904D01*
X34752380Y-77361904D02*
X34752380Y-76561904D01*
X35057142Y-76561904D01*
X35133333Y-76600000D01*
X35171428Y-76638095D01*
X35209523Y-76714285D01*
X35209523Y-76828571D01*
X35171428Y-76904761D01*
X35133333Y-76942857D01*
X35057142Y-76980952D01*
X34752380Y-76980952D01*
X35514285Y-76638095D02*
X35552380Y-76600000D01*
X35628571Y-76561904D01*
X35819047Y-76561904D01*
X35895238Y-76600000D01*
X35933333Y-76638095D01*
X35971428Y-76714285D01*
X35971428Y-76790476D01*
X35933333Y-76904761D01*
X35476190Y-77361904D01*
X35971428Y-77361904D01*
X42452380Y-76561904D02*
X42719047Y-77361904D01*
X42985714Y-76561904D01*
X43252380Y-77361904D02*
X43252380Y-76561904D01*
X43557142Y-76561904D01*
X43633333Y-76600000D01*
X43671428Y-76638095D01*
X43709523Y-76714285D01*
X43709523Y-76828571D01*
X43671428Y-76904761D01*
X43633333Y-76942857D01*
X43557142Y-76980952D01*
X43252380Y-76980952D01*
X44471428Y-77361904D02*
X44014285Y-77361904D01*
X44242857Y-77361904D02*
X44242857Y-76561904D01*
X44166666Y-76676190D01*
X44090476Y-76752380D01*
X44014285Y-76790476D01*
X37702380Y-82811904D02*
X37969047Y-83611904D01*
X38235714Y-82811904D01*
X38502380Y-83611904D02*
X38502380Y-82811904D01*
X38807142Y-82811904D01*
X38883333Y-82850000D01*
X38921428Y-82888095D01*
X38959523Y-82964285D01*
X38959523Y-83078571D01*
X38921428Y-83154761D01*
X38883333Y-83192857D01*
X38807142Y-83230952D01*
X38502380Y-83230952D01*
X39721428Y-83611904D02*
X39264285Y-83611904D01*
X39492857Y-83611904D02*
X39492857Y-82811904D01*
X39416666Y-82926190D01*
X39340476Y-83002380D01*
X39264285Y-83040476D01*
X47119047Y-81571428D02*
X47880952Y-81571428D01*
X47500000Y-81952380D02*
X47500000Y-81190476D01*
X33119047Y-75571428D02*
X33880952Y-75571428D01*
X33500000Y-75952380D02*
X33500000Y-75190476D01*
X32619047Y-57071428D02*
X33380952Y-57071428D01*
X33000000Y-57452380D02*
X33000000Y-56690476D01*
X55619047Y-64571428D02*
X56380952Y-64571428D01*
X56000000Y-64952380D02*
X56000000Y-64190476D01*
X48238095Y-61000000D02*
X48142857Y-60952380D01*
X48000000Y-60952380D01*
X47857142Y-61000000D01*
X47761904Y-61095238D01*
X47714285Y-61190476D01*
X47666666Y-61380952D01*
X47666666Y-61523809D01*
X47714285Y-61714285D01*
X47761904Y-61809523D01*
X47857142Y-61904761D01*
X48000000Y-61952380D01*
X48095238Y-61952380D01*
X48238095Y-61904761D01*
X48285714Y-61857142D01*
X48285714Y-61523809D01*
X48095238Y-61523809D01*
X48714285Y-61952380D02*
X48714285Y-60952380D01*
X49285714Y-61952380D01*
X49285714Y-60952380D01*
X49761904Y-61952380D02*
X49761904Y-60952380D01*
X50000000Y-60952380D01*
X50142857Y-61000000D01*
X50238095Y-61095238D01*
X50285714Y-61190476D01*
X50333333Y-61380952D01*
X50333333Y-61523809D01*
X50285714Y-61714285D01*
X50238095Y-61809523D01*
X50142857Y-61904761D01*
X50000000Y-61952380D01*
X49761904Y-61952380D01*
X54750000Y-54630952D02*
X54702380Y-54726190D01*
X54702380Y-54869047D01*
X54750000Y-55011904D01*
X54845238Y-55107142D01*
X54940476Y-55154761D01*
X55130952Y-55202380D01*
X55273809Y-55202380D01*
X55464285Y-55154761D01*
X55559523Y-55107142D01*
X55654761Y-55011904D01*
X55702380Y-54869047D01*
X55702380Y-54773809D01*
X55654761Y-54630952D01*
X55607142Y-54583333D01*
X55273809Y-54583333D01*
X55273809Y-54773809D01*
X55702380Y-53726190D02*
X55178571Y-53726190D01*
X55083333Y-53773809D01*
X55035714Y-53869047D01*
X55035714Y-54059523D01*
X55083333Y-54154761D01*
X55654761Y-53726190D02*
X55702380Y-53821428D01*
X55702380Y-54059523D01*
X55654761Y-54154761D01*
X55559523Y-54202380D01*
X55464285Y-54202380D01*
X55369047Y-54154761D01*
X55321428Y-54059523D01*
X55321428Y-53821428D01*
X55273809Y-53726190D01*
X55035714Y-53392857D02*
X55035714Y-53011904D01*
X54702380Y-53250000D02*
X55559523Y-53250000D01*
X55654761Y-53202380D01*
X55702380Y-53107142D01*
X55702380Y-53011904D01*
X55654761Y-52297619D02*
X55702380Y-52392857D01*
X55702380Y-52583333D01*
X55654761Y-52678571D01*
X55559523Y-52726190D01*
X55178571Y-52726190D01*
X55083333Y-52678571D01*
X55035714Y-52583333D01*
X55035714Y-52392857D01*
X55083333Y-52297619D01*
X55178571Y-52250000D01*
X55273809Y-52250000D01*
X55369047Y-52726190D01*
X54797619Y-51869047D02*
X54750000Y-51821428D01*
X54702380Y-51726190D01*
X54702380Y-51488095D01*
X54750000Y-51392857D01*
X54797619Y-51345238D01*
X54892857Y-51297619D01*
X54988095Y-51297619D01*
X55130952Y-51345238D01*
X55702380Y-51916666D01*
X55702380Y-51297619D01*
X42250000Y-54630952D02*
X42202380Y-54726190D01*
X42202380Y-54869047D01*
X42250000Y-55011904D01*
X42345238Y-55107142D01*
X42440476Y-55154761D01*
X42630952Y-55202380D01*
X42773809Y-55202380D01*
X42964285Y-55154761D01*
X43059523Y-55107142D01*
X43154761Y-55011904D01*
X43202380Y-54869047D01*
X43202380Y-54773809D01*
X43154761Y-54630952D01*
X43107142Y-54583333D01*
X42773809Y-54583333D01*
X42773809Y-54773809D01*
X43202380Y-53726190D02*
X42678571Y-53726190D01*
X42583333Y-53773809D01*
X42535714Y-53869047D01*
X42535714Y-54059523D01*
X42583333Y-54154761D01*
X43154761Y-53726190D02*
X43202380Y-53821428D01*
X43202380Y-54059523D01*
X43154761Y-54154761D01*
X43059523Y-54202380D01*
X42964285Y-54202380D01*
X42869047Y-54154761D01*
X42821428Y-54059523D01*
X42821428Y-53821428D01*
X42773809Y-53726190D01*
X42535714Y-53392857D02*
X42535714Y-53011904D01*
X42202380Y-53250000D02*
X43059523Y-53250000D01*
X43154761Y-53202380D01*
X43202380Y-53107142D01*
X43202380Y-53011904D01*
X43154761Y-52297619D02*
X43202380Y-52392857D01*
X43202380Y-52583333D01*
X43154761Y-52678571D01*
X43059523Y-52726190D01*
X42678571Y-52726190D01*
X42583333Y-52678571D01*
X42535714Y-52583333D01*
X42535714Y-52392857D01*
X42583333Y-52297619D01*
X42678571Y-52250000D01*
X42773809Y-52250000D01*
X42869047Y-52726190D01*
X43202380Y-51297619D02*
X43202380Y-51869047D01*
X43202380Y-51583333D02*
X42202380Y-51583333D01*
X42345238Y-51678571D01*
X42440476Y-51773809D01*
X42488095Y-51869047D01*
X56988095Y-55571428D02*
X57750000Y-55571428D01*
X57369047Y-55952380D02*
X57369047Y-55190476D01*
X58750000Y-55952380D02*
X58178571Y-55952380D01*
X58464285Y-55952380D02*
X58464285Y-54952380D01*
X58369047Y-55095238D01*
X58273809Y-55190476D01*
X58178571Y-55238095D01*
X59130952Y-55047619D02*
X59178571Y-55000000D01*
X59273809Y-54952380D01*
X59511904Y-54952380D01*
X59607142Y-55000000D01*
X59654761Y-55047619D01*
X59702380Y-55142857D01*
X59702380Y-55238095D01*
X59654761Y-55380952D01*
X59083333Y-55952380D01*
X59702380Y-55952380D01*
X59988095Y-54952380D02*
X60321428Y-55952380D01*
X60654761Y-54952380D01*
X27190476Y-73428571D02*
X26857142Y-73428571D01*
X26857142Y-73952380D02*
X26857142Y-72952380D01*
X27333333Y-72952380D01*
X28142857Y-73952380D02*
X28142857Y-73428571D01*
X28095238Y-73333333D01*
X28000000Y-73285714D01*
X27809523Y-73285714D01*
X27714285Y-73333333D01*
X28142857Y-73904761D02*
X28047619Y-73952380D01*
X27809523Y-73952380D01*
X27714285Y-73904761D01*
X27666666Y-73809523D01*
X27666666Y-73714285D01*
X27714285Y-73619047D01*
X27809523Y-73571428D01*
X28047619Y-73571428D01*
X28142857Y-73523809D01*
X29047619Y-73285714D02*
X29047619Y-73952380D01*
X28619047Y-73285714D02*
X28619047Y-73809523D01*
X28666666Y-73904761D01*
X28761904Y-73952380D01*
X28904761Y-73952380D01*
X29000000Y-73904761D01*
X29047619Y-73857142D01*
X29666666Y-73952380D02*
X29571428Y-73904761D01*
X29523809Y-73809523D01*
X29523809Y-72952380D01*
X29904761Y-73285714D02*
X30285714Y-73285714D01*
X30047619Y-72952380D02*
X30047619Y-73809523D01*
X30095238Y-73904761D01*
X30190476Y-73952380D01*
X30285714Y-73952380D01*
X25678571Y-55702380D02*
X25678571Y-54702380D01*
X26869047Y-55654761D02*
X27011904Y-55702380D01*
X27250000Y-55702380D01*
X27345238Y-55654761D01*
X27392857Y-55607142D01*
X27440476Y-55511904D01*
X27440476Y-55416666D01*
X27392857Y-55321428D01*
X27345238Y-55273809D01*
X27250000Y-55226190D01*
X27059523Y-55178571D01*
X26964285Y-55130952D01*
X26916666Y-55083333D01*
X26869047Y-54988095D01*
X26869047Y-54892857D01*
X26916666Y-54797619D01*
X26964285Y-54750000D01*
X27059523Y-54702380D01*
X27297619Y-54702380D01*
X27440476Y-54750000D01*
X28250000Y-55654761D02*
X28154761Y-55702380D01*
X27964285Y-55702380D01*
X27869047Y-55654761D01*
X27821428Y-55559523D01*
X27821428Y-55178571D01*
X27869047Y-55083333D01*
X27964285Y-55035714D01*
X28154761Y-55035714D01*
X28250000Y-55083333D01*
X28297619Y-55178571D01*
X28297619Y-55273809D01*
X27821428Y-55369047D01*
X28726190Y-55035714D02*
X28726190Y-55702380D01*
X28726190Y-55130952D02*
X28773809Y-55083333D01*
X28869047Y-55035714D01*
X29011904Y-55035714D01*
X29107142Y-55083333D01*
X29154761Y-55178571D01*
X29154761Y-55702380D01*
X29583333Y-55654761D02*
X29678571Y-55702380D01*
X29869047Y-55702380D01*
X29964285Y-55654761D01*
X30011904Y-55559523D01*
X30011904Y-55511904D01*
X29964285Y-55416666D01*
X29869047Y-55369047D01*
X29726190Y-55369047D01*
X29630952Y-55321428D01*
X29583333Y-55226190D01*
X29583333Y-55178571D01*
X29630952Y-55083333D01*
X29726190Y-55035714D01*
X29869047Y-55035714D01*
X29964285Y-55083333D01*
X30821428Y-55654761D02*
X30726190Y-55702380D01*
X30535714Y-55702380D01*
X30440476Y-55654761D01*
X30392857Y-55559523D01*
X30392857Y-55178571D01*
X30440476Y-55083333D01*
X30535714Y-55035714D01*
X30726190Y-55035714D01*
X30821428Y-55083333D01*
X30869047Y-55178571D01*
X30869047Y-55273809D01*
X30392857Y-55369047D01*
D11*
X49250000Y-79200000D02*
X48250000Y-79200000D01*
X49250000Y-77800000D02*
X48250000Y-77800000D01*
X48250000Y-77800000D02*
X48250000Y-79200000D01*
X49250000Y-77800000D02*
X49250000Y-79200000D01*
X48950000Y-77800000D02*
X48950000Y-79200000D01*
X46450000Y-64000000D02*
X46450000Y-65355000D01*
X44050000Y-64000000D02*
X44050000Y-65355000D01*
X44050000Y-60645000D02*
X44050000Y-62000000D01*
X44050000Y-60645000D02*
X46450000Y-60645000D01*
X44050000Y-65355000D02*
X46450000Y-65355000D01*
X46450000Y-60645000D02*
X46450000Y-62000000D01*
X51050000Y-62000000D02*
X51050000Y-60645000D01*
X53450000Y-62000000D02*
X53450000Y-60645000D01*
X53450000Y-65355000D02*
X53450000Y-64000000D01*
X53450000Y-65355000D02*
X51050000Y-65355000D01*
X53450000Y-60645000D02*
X51050000Y-60645000D01*
X51050000Y-65355000D02*
X51050000Y-64000000D01*
D12*
X30725000Y-77225000D02*
X33625000Y-77225000D01*
X24525000Y-76675000D02*
X24525000Y-81325000D01*
X30725000Y-82050000D02*
X30725000Y-80775000D01*
X32325000Y-82050000D02*
X30725000Y-82050000D01*
X32325000Y-83050000D02*
X32325000Y-82050000D01*
X28100000Y-83050000D02*
X32325000Y-83050000D01*
X32325000Y-74950000D02*
X28100000Y-74950000D01*
X32325000Y-75950000D02*
X32325000Y-74950000D01*
X30725000Y-75950000D02*
X32325000Y-75950000D01*
X30725000Y-77225000D02*
X30725000Y-75950000D01*
X58875000Y-62525000D02*
X55975000Y-62525000D01*
X65075000Y-63075000D02*
X65075000Y-58425000D01*
X58875000Y-57700000D02*
X58875000Y-58975000D01*
X57275000Y-57700000D02*
X58875000Y-57700000D01*
X57275000Y-56700000D02*
X57275000Y-57700000D01*
X61500000Y-56700000D02*
X57275000Y-56700000D01*
X57275000Y-64800000D02*
X61500000Y-64800000D01*
X57275000Y-63800000D02*
X57275000Y-64800000D01*
X58875000Y-63800000D02*
X57275000Y-63800000D01*
X58875000Y-62525000D02*
X58875000Y-63800000D01*
X30225000Y-58975000D02*
X33125000Y-58975000D01*
X24025000Y-58425000D02*
X24025000Y-63075000D01*
X30225000Y-63800000D02*
X30225000Y-62525000D01*
X31825000Y-63800000D02*
X30225000Y-63800000D01*
X31825000Y-64800000D02*
X31825000Y-63800000D01*
X27600000Y-64800000D02*
X31825000Y-64800000D01*
X31825000Y-56700000D02*
X27600000Y-56700000D01*
X31825000Y-57700000D02*
X31825000Y-56700000D01*
X30225000Y-57700000D02*
X31825000Y-57700000D01*
X30225000Y-58975000D02*
X30225000Y-57700000D01*
X57750000Y-82200000D02*
X59250000Y-82200000D01*
X57750000Y-82200000D02*
X57750000Y-79000000D01*
X59250000Y-79000000D02*
X59250000Y-82200000D01*
D11*
X63520000Y-82535000D02*
X62200000Y-82535000D01*
X61300000Y-82535000D02*
X59980000Y-82535000D01*
X61300000Y-80465000D02*
X59980000Y-80465000D01*
X63520000Y-80465000D02*
X62200000Y-80465000D01*
X63520000Y-80465000D02*
X63520000Y-82535000D01*
X59980000Y-80465000D02*
X59980000Y-82535000D01*
D12*
X51775000Y-56725000D02*
X51775000Y-59625000D01*
X52325000Y-50525000D02*
X45675000Y-50525000D01*
X44950000Y-56725000D02*
X46225000Y-56725000D01*
X44950000Y-58325000D02*
X44950000Y-56725000D01*
X43950000Y-58325000D02*
X44950000Y-58325000D01*
X43950000Y-54100000D02*
X43950000Y-58325000D01*
X54050000Y-58325000D02*
X54050000Y-54100000D01*
X53050000Y-58325000D02*
X54050000Y-58325000D01*
X53050000Y-56725000D02*
X53050000Y-58325000D01*
X51775000Y-56725000D02*
X53050000Y-56725000D01*
D13*
X39400000Y-69600000D02*
X34600000Y-69600000D01*
X39400000Y-72400000D02*
X34600000Y-72400000D01*
X39400000Y-69600000D02*
X39400000Y-72400000D01*
X34600000Y-69600000D02*
X34600000Y-72400000D01*
D14*
X39900000Y-68100000D02*
G75*
G03X39900000Y-68100000I-150000J0D01*
G01*
D15*
X38900000Y-70300000D02*
G75*
G03X38900000Y-70300000I-200000J0D01*
G01*
D13*
X58450000Y-71650000D02*
X58450000Y-74250000D01*
X58450000Y-71650000D02*
X59350000Y-71650000D01*
X63050000Y-71650000D02*
X63050000Y-74250000D01*
X62150000Y-71650000D02*
X63050000Y-71650000D01*
D11*
X52020000Y-82535000D02*
X50700000Y-82535000D01*
X49800000Y-82535000D02*
X48480000Y-82535000D01*
X49800000Y-80465000D02*
X48480000Y-80465000D01*
X52020000Y-80465000D02*
X50700000Y-80465000D01*
X52020000Y-80465000D02*
X52020000Y-82535000D01*
X48480000Y-80465000D02*
X48480000Y-82535000D01*
X38730000Y-64465000D02*
X40050000Y-64465000D01*
X40950000Y-64465000D02*
X42270000Y-64465000D01*
X40950000Y-66535000D02*
X42270000Y-66535000D01*
X38730000Y-66535000D02*
X40050000Y-66535000D01*
X38730000Y-66535000D02*
X38730000Y-64465000D01*
X42270000Y-66535000D02*
X42270000Y-64465000D01*
X36215000Y-79770000D02*
X36215000Y-78450000D01*
X36215000Y-77550000D02*
X36215000Y-76230000D01*
X38285000Y-77550000D02*
X38285000Y-76230000D01*
X38285000Y-79770000D02*
X38285000Y-78450000D01*
X38285000Y-79770000D02*
X36215000Y-79770000D01*
X38285000Y-76230000D02*
X36215000Y-76230000D01*
X39965000Y-79770000D02*
X39965000Y-78450000D01*
X39965000Y-77550000D02*
X39965000Y-76230000D01*
X42035000Y-77550000D02*
X42035000Y-76230000D01*
X42035000Y-79770000D02*
X42035000Y-78450000D01*
X42035000Y-79770000D02*
X39965000Y-79770000D01*
X42035000Y-76230000D02*
X39965000Y-76230000D01*
X38230000Y-80465000D02*
X39550000Y-80465000D01*
X40450000Y-80465000D02*
X41770000Y-80465000D01*
X40450000Y-82535000D02*
X41770000Y-82535000D01*
X38230000Y-82535000D02*
X39550000Y-82535000D01*
X38230000Y-82535000D02*
X38230000Y-80465000D01*
X41770000Y-82535000D02*
X41770000Y-80465000D01*
X46770000Y-82535000D02*
X45450000Y-82535000D01*
X44550000Y-82535000D02*
X43230000Y-82535000D01*
X44550000Y-80465000D02*
X43230000Y-80465000D01*
X46770000Y-80465000D02*
X45450000Y-80465000D01*
X46770000Y-80465000D02*
X46770000Y-82535000D01*
X43230000Y-80465000D02*
X43230000Y-82535000D01*
X27535000Y-66230000D02*
X27535000Y-67550000D01*
X27535000Y-68450000D02*
X27535000Y-69770000D01*
X25465000Y-68450000D02*
X25465000Y-69770000D01*
X25465000Y-66230000D02*
X25465000Y-67550000D01*
X25465000Y-66230000D02*
X27535000Y-66230000D01*
X25465000Y-69770000D02*
X27535000Y-69770000D01*
X34230000Y-64465000D02*
X35550000Y-64465000D01*
X36450000Y-64465000D02*
X37770000Y-64465000D01*
X36450000Y-66535000D02*
X37770000Y-66535000D01*
X34230000Y-66535000D02*
X35550000Y-66535000D01*
X34230000Y-66535000D02*
X34230000Y-64465000D01*
X37770000Y-66535000D02*
X37770000Y-64465000D01*
X30770000Y-72285000D02*
X29450000Y-72285000D01*
X28550000Y-72285000D02*
X27230000Y-72285000D01*
X28550000Y-70215000D02*
X27230000Y-70215000D01*
X30770000Y-70215000D02*
X29450000Y-70215000D01*
X30770000Y-70215000D02*
X30770000Y-72285000D01*
X27230000Y-70215000D02*
X27230000Y-72285000D01*
X38270000Y-55285000D02*
X36950000Y-55285000D01*
X36050000Y-55285000D02*
X34730000Y-55285000D01*
X36050000Y-53215000D02*
X34730000Y-53215000D01*
X38270000Y-53215000D02*
X36950000Y-53215000D01*
X38270000Y-53215000D02*
X38270000Y-55285000D01*
X34730000Y-53215000D02*
X34730000Y-55285000D01*
X54450000Y-81150000D02*
X55050000Y-81150000D01*
D13*
X53290000Y-79600000D02*
X53950000Y-79600000D01*
X53290000Y-79600000D02*
X53290000Y-80415000D01*
X56210000Y-79600000D02*
X56210000Y-80415000D01*
X55550000Y-79600000D02*
X56210000Y-79600000D01*
X55550000Y-79600000D02*
X56210000Y-79600000D01*
X55550000Y-79600000D02*
X56210000Y-79600000D01*
D12*
X52050000Y-74290000D02*
X52650000Y-74290000D01*
X52050000Y-75790000D02*
X52650000Y-75790000D01*
X52050000Y-76290000D02*
X52050000Y-75790000D01*
X52050000Y-72890000D02*
X52050000Y-74290000D01*
X52090000Y-70400000D02*
X52090000Y-71200000D01*
X52090000Y-68200000D02*
X52090000Y-68800000D01*
X52090000Y-66100000D02*
X52090000Y-66600000D01*
X45390000Y-66100000D02*
X52090000Y-66100000D01*
X45390000Y-66600000D02*
X45390000Y-66100000D01*
X45390000Y-68800000D02*
X45390000Y-68200000D01*
X45390000Y-71200000D02*
X45390000Y-70400000D01*
X45390000Y-74200000D02*
X45390000Y-72800000D01*
X45390000Y-76300000D02*
X45390000Y-75800000D01*
X52050000Y-76290000D02*
X45390000Y-76300000D01*
D11*
X59355000Y-68700000D02*
X54645000Y-68700000D01*
X54645000Y-66300000D02*
X54645000Y-68700000D01*
X59355000Y-66300000D02*
X54645000Y-66300000D01*
X59355000Y-66300000D02*
X59355000Y-68700000D01*
X32050000Y-69900000D02*
X32050000Y-68900000D01*
X33450000Y-69900000D02*
X33450000Y-68900000D01*
X33450000Y-68900000D02*
X32050000Y-68900000D01*
X33450000Y-69900000D02*
X32050000Y-69900000D01*
X33450000Y-69600000D02*
X32050000Y-69600000D01*
X41950000Y-59750000D02*
X41950000Y-60750000D01*
X40550000Y-59750000D02*
X40550000Y-60750000D01*
X40550000Y-60750000D02*
X41950000Y-60750000D01*
X40550000Y-59750000D02*
X41950000Y-59750000D01*
X40550000Y-60050000D02*
X41950000Y-60050000D01*
X41115000Y-70980000D02*
X42385000Y-70980000D01*
X40715000Y-71380000D02*
X40715000Y-72300000D01*
X41115000Y-74520000D02*
X42385000Y-74520000D01*
X40715000Y-73200000D02*
X40715000Y-74120000D01*
X42785000Y-73200000D02*
X42785000Y-74120000D01*
X42785000Y-71380000D02*
X42785000Y-72300000D01*
X42385010Y-70980000D02*
G75*
G02X42785010Y-71380000I0J-400000D01*
G01*
X40715000Y-71380000D02*
G75*
G02X41115000Y-70980000I400000J0D01*
G01*
X41115000Y-74520000D02*
G75*
G02X40715000Y-74120000I0J400000D01*
G01*
X42785000Y-74120000D02*
G75*
G02X42385000Y-74520000I-400000J0D01*
G01*
X57200000Y-75205000D02*
X57200000Y-74250000D01*
X57200000Y-72250000D02*
X57200000Y-71295000D01*
X54800000Y-72250000D02*
X54800000Y-71295000D01*
X54800000Y-75205000D02*
X54800000Y-74250000D01*
X56800000Y-70895000D02*
X55200000Y-70895000D01*
X56800000Y-75605000D02*
X55200000Y-75605000D01*
X54800000Y-71295000D02*
G75*
G02X55200000Y-70895000I400000J0D01*
G01*
X56800000Y-70895000D02*
G75*
G02X57200000Y-71295000I0J-400000D01*
G01*
X57200000Y-75205000D02*
G75*
G02X56800000Y-75605000I-400000J0D01*
G01*
X55200000Y-75605000D02*
G75*
G02X54800000Y-75205000I0J400000D01*
G01*
X30885000Y-69770000D02*
X29615000Y-69770000D01*
X31285000Y-69370000D02*
X31285000Y-68450000D01*
X30885000Y-66230000D02*
X29615000Y-66230000D01*
X31285000Y-67550000D02*
X31285000Y-66630000D01*
X29215000Y-67550000D02*
X29215000Y-66630000D01*
X29215000Y-69370000D02*
X29215000Y-68450000D01*
X29614990Y-69770000D02*
G75*
G02X29214990Y-69370000I0J400000D01*
G01*
X31285000Y-69370000D02*
G75*
G02X30885000Y-69770000I-400000J0D01*
G01*
X30885000Y-66230000D02*
G75*
G02X31285000Y-66630000I0J-400000D01*
G01*
X29215000Y-66630000D02*
G75*
G02X29615000Y-66230000I400000J0D01*
G01*
X35045000Y-59450000D02*
X36000000Y-59450000D01*
X38000000Y-59450000D02*
X38955000Y-59450000D01*
X38000000Y-57050000D02*
X38955000Y-57050000D01*
X35045000Y-57050000D02*
X36000000Y-57050000D01*
X39355000Y-59050000D02*
X39355000Y-57450000D01*
X34645000Y-59050000D02*
X34645000Y-57450000D01*
X38955000Y-57050000D02*
G75*
G02X39355000Y-57450000I0J-400000D01*
G01*
X39355000Y-59050000D02*
G75*
G02X38955000Y-59450000I-400000J0D01*
G01*
X35045000Y-59450000D02*
G75*
G02X34645000Y-59050000I0J400000D01*
G01*
X34645000Y-57450000D02*
G75*
G02X35045000Y-57050000I400000J0D01*
G01*
X63520000Y-77865000D02*
X63520000Y-79135000D01*
X63120000Y-77465000D02*
X62200000Y-77465000D01*
X59980000Y-77865000D02*
X59980000Y-79135000D01*
X61300000Y-77465000D02*
X60380000Y-77465000D01*
X61300000Y-79535000D02*
X60380000Y-79535000D01*
X63120000Y-79535000D02*
X62200000Y-79535000D01*
X63520000Y-79135010D02*
G75*
G02X63120000Y-79535010I-400000J0D01*
G01*
X63120000Y-77465000D02*
G75*
G02X63520000Y-77865000I0J-400000D01*
G01*
X59980000Y-77865000D02*
G75*
G02X60380000Y-77465000I400000J0D01*
G01*
X60380000Y-79535000D02*
G75*
G02X59980000Y-79135000I0J400000D01*
G01*
X34730000Y-62385000D02*
X34730000Y-61115000D01*
X35130000Y-62785000D02*
X36050000Y-62785000D01*
X38270000Y-62385000D02*
X38270000Y-61115000D01*
X36950000Y-62785000D02*
X37870000Y-62785000D01*
X36950000Y-60715000D02*
X37870000Y-60715000D01*
X35130000Y-60715000D02*
X36050000Y-60715000D01*
X34730000Y-61114990D02*
G75*
G02X35130000Y-60714990I400000J0D01*
G01*
X35130000Y-62785000D02*
G75*
G02X34730000Y-62385000I0J400000D01*
G01*
X38270000Y-62385000D02*
G75*
G02X37870000Y-62785000I-400000J0D01*
G01*
X37870000Y-60715000D02*
G75*
G02X38270000Y-61115000I0J-400000D01*
G01*
X60045000Y-68700000D02*
X61000000Y-68700000D01*
X63000000Y-68700000D02*
X63955000Y-68700000D01*
X63000000Y-66300000D02*
X63955000Y-66300000D01*
X60045000Y-66300000D02*
X61000000Y-66300000D01*
X64355000Y-68300000D02*
X64355000Y-66700000D01*
X59645000Y-68300000D02*
X59645000Y-66700000D01*
X63955000Y-66300000D02*
G75*
G02X64355000Y-66700000I0J-400000D01*
G01*
X64355000Y-68300000D02*
G75*
G02X63955000Y-68700000I-400000J0D01*
G01*
X60045000Y-68700000D02*
G75*
G02X59645000Y-68300000I0J400000D01*
G01*
X59645000Y-66700000D02*
G75*
G02X60045000Y-66300000I400000J0D01*
G01*
D10*
X51511904Y-78952380D02*
X51511904Y-77952380D01*
X51750000Y-77952380D01*
X51892857Y-78000000D01*
X51988095Y-78095238D01*
X52035714Y-78190476D01*
X52083333Y-78380952D01*
X52083333Y-78523809D01*
X52035714Y-78714285D01*
X51988095Y-78809523D01*
X51892857Y-78904761D01*
X51750000Y-78952380D01*
X51511904Y-78952380D01*
X52940476Y-78285714D02*
X52940476Y-78952380D01*
X52702380Y-77904761D02*
X52464285Y-78619047D01*
X53083333Y-78619047D01*
X43702380Y-63642857D02*
X43226190Y-63976190D01*
X43702380Y-64214285D02*
X42702380Y-64214285D01*
X42702380Y-63833333D01*
X42750000Y-63738095D01*
X42797619Y-63690476D01*
X42892857Y-63642857D01*
X43035714Y-63642857D01*
X43130952Y-63690476D01*
X43178571Y-63738095D01*
X43226190Y-63833333D01*
X43226190Y-64214285D01*
X43702380Y-62690476D02*
X43702380Y-63261904D01*
X43702380Y-62976190D02*
X42702380Y-62976190D01*
X42845238Y-63071428D01*
X42940476Y-63166666D01*
X42988095Y-63261904D01*
X42702380Y-62357142D02*
X42702380Y-61738095D01*
X43083333Y-62071428D01*
X43083333Y-61928571D01*
X43130952Y-61833333D01*
X43178571Y-61785714D01*
X43273809Y-61738095D01*
X43511904Y-61738095D01*
X43607142Y-61785714D01*
X43654761Y-61833333D01*
X43702380Y-61928571D01*
X43702380Y-62214285D01*
X43654761Y-62309523D01*
X43607142Y-62357142D01*
X54427380Y-61083333D02*
X55141666Y-61083333D01*
X55284523Y-61130952D01*
X55379761Y-61226190D01*
X55427380Y-61369047D01*
X55427380Y-61464285D01*
X54522619Y-60654761D02*
X54475000Y-60607142D01*
X54427380Y-60511904D01*
X54427380Y-60273809D01*
X54475000Y-60178571D01*
X54522619Y-60130952D01*
X54617857Y-60083333D01*
X54713095Y-60083333D01*
X54855952Y-60130952D01*
X55427380Y-60702380D01*
X55427380Y-60083333D01*
X57761904Y-83702380D02*
X57761904Y-82702380D01*
X58000000Y-82702380D01*
X58142857Y-82750000D01*
X58238095Y-82845238D01*
X58285714Y-82940476D01*
X58333333Y-83130952D01*
X58333333Y-83273809D01*
X58285714Y-83464285D01*
X58238095Y-83559523D01*
X58142857Y-83654761D01*
X58000000Y-83702380D01*
X57761904Y-83702380D01*
X58666666Y-82702380D02*
X59285714Y-82702380D01*
X58952380Y-83083333D01*
X59095238Y-83083333D01*
X59190476Y-83130952D01*
X59238095Y-83178571D01*
X59285714Y-83273809D01*
X59285714Y-83511904D01*
X59238095Y-83607142D01*
X59190476Y-83654761D01*
X59095238Y-83702380D01*
X58809523Y-83702380D01*
X58714285Y-83654761D01*
X58666666Y-83607142D01*
X61500761Y-83636656D02*
X61167428Y-83160466D01*
X60929333Y-83636656D02*
X60929333Y-82636656D01*
X61310285Y-82636656D01*
X61405523Y-82684276D01*
X61453142Y-82731895D01*
X61500761Y-82827133D01*
X61500761Y-82969990D01*
X61453142Y-83065228D01*
X61405523Y-83112847D01*
X61310285Y-83160466D01*
X60929333Y-83160466D01*
X62453142Y-83636656D02*
X61881714Y-83636656D01*
X62167428Y-83636656D02*
X62167428Y-82636656D01*
X62072190Y-82779514D01*
X61976952Y-82874752D01*
X61881714Y-82922371D01*
X63072190Y-82636656D02*
X63167428Y-82636656D01*
X63262666Y-82684276D01*
X63310285Y-82731895D01*
X63357904Y-82827133D01*
X63405523Y-83017609D01*
X63405523Y-83255704D01*
X63357904Y-83446180D01*
X63310285Y-83541418D01*
X63262666Y-83589037D01*
X63167428Y-83636656D01*
X63072190Y-83636656D01*
X62976952Y-83589037D01*
X62929333Y-83541418D01*
X62881714Y-83446180D01*
X62834095Y-83255704D01*
X62834095Y-83017609D01*
X62881714Y-82827133D01*
X62929333Y-82731895D01*
X62976952Y-82684276D01*
X63072190Y-82636656D01*
X34738095Y-74952380D02*
X34738095Y-75761904D01*
X34785714Y-75857142D01*
X34833333Y-75904761D01*
X34928571Y-75952380D01*
X35119047Y-75952380D01*
X35214285Y-75904761D01*
X35261904Y-75857142D01*
X35309523Y-75761904D01*
X35309523Y-74952380D01*
X35738095Y-75047619D02*
X35785714Y-75000000D01*
X35880952Y-74952380D01*
X36119047Y-74952380D01*
X36214285Y-75000000D01*
X36261904Y-75047619D01*
X36309523Y-75142857D01*
X36309523Y-75238095D01*
X36261904Y-75380952D01*
X35690476Y-75952380D01*
X36309523Y-75952380D01*
X63702380Y-74011904D02*
X64511904Y-74011904D01*
X64607142Y-73964285D01*
X64654761Y-73916666D01*
X64702380Y-73821428D01*
X64702380Y-73630952D01*
X64654761Y-73535714D01*
X64607142Y-73488095D01*
X64511904Y-73440476D01*
X63702380Y-73440476D01*
X64702380Y-72440476D02*
X64702380Y-73011904D01*
X64702380Y-72726190D02*
X63702380Y-72726190D01*
X63845238Y-72821428D01*
X63940476Y-72916666D01*
X63988095Y-73011904D01*
X49607142Y-83702380D02*
X49273809Y-83226190D01*
X49035714Y-83702380D02*
X49035714Y-82702380D01*
X49416666Y-82702380D01*
X49511904Y-82750000D01*
X49559523Y-82797619D01*
X49607142Y-82892857D01*
X49607142Y-83035714D01*
X49559523Y-83130952D01*
X49511904Y-83178571D01*
X49416666Y-83226190D01*
X49035714Y-83226190D01*
X50559523Y-83702380D02*
X49988095Y-83702380D01*
X50273809Y-83702380D02*
X50273809Y-82702380D01*
X50178571Y-82845238D01*
X50083333Y-82940476D01*
X49988095Y-82988095D01*
X51511904Y-83702380D02*
X50940476Y-83702380D01*
X51226190Y-83702380D02*
X51226190Y-82702380D01*
X51130952Y-82845238D01*
X51035714Y-82940476D01*
X50940476Y-82988095D01*
X39939714Y-64268104D02*
X39606381Y-63791914D01*
X39368285Y-64268104D02*
X39368285Y-63268104D01*
X39749238Y-63268104D01*
X39844476Y-63315724D01*
X39892095Y-63363343D01*
X39939714Y-63458581D01*
X39939714Y-63601438D01*
X39892095Y-63696676D01*
X39844476Y-63744295D01*
X39749238Y-63791914D01*
X39368285Y-63791914D01*
X40415904Y-64268104D02*
X40606381Y-64268104D01*
X40701619Y-64220485D01*
X40749238Y-64172866D01*
X40844476Y-64030009D01*
X40892095Y-63839533D01*
X40892095Y-63458581D01*
X40844476Y-63363343D01*
X40796857Y-63315724D01*
X40701619Y-63268104D01*
X40511142Y-63268104D01*
X40415904Y-63315724D01*
X40368285Y-63363343D01*
X40320666Y-63458581D01*
X40320666Y-63696676D01*
X40368285Y-63791914D01*
X40415904Y-63839533D01*
X40511142Y-63887152D01*
X40701619Y-63887152D01*
X40796857Y-63839533D01*
X40844476Y-63791914D01*
X40892095Y-63696676D01*
X36833333Y-81202380D02*
X36500000Y-80726190D01*
X36261904Y-81202380D02*
X36261904Y-80202380D01*
X36642857Y-80202380D01*
X36738095Y-80250000D01*
X36785714Y-80297619D01*
X36833333Y-80392857D01*
X36833333Y-80535714D01*
X36785714Y-80630952D01*
X36738095Y-80678571D01*
X36642857Y-80726190D01*
X36261904Y-80726190D01*
X37404761Y-80630952D02*
X37309523Y-80583333D01*
X37261904Y-80535714D01*
X37214285Y-80440476D01*
X37214285Y-80392857D01*
X37261904Y-80297619D01*
X37309523Y-80250000D01*
X37404761Y-80202380D01*
X37595238Y-80202380D01*
X37690476Y-80250000D01*
X37738095Y-80297619D01*
X37785714Y-80392857D01*
X37785714Y-80440476D01*
X37738095Y-80535714D01*
X37690476Y-80583333D01*
X37595238Y-80630952D01*
X37404761Y-80630952D01*
X37309523Y-80678571D01*
X37261904Y-80726190D01*
X37214285Y-80821428D01*
X37214285Y-81011904D01*
X37261904Y-81107142D01*
X37309523Y-81154761D01*
X37404761Y-81202380D01*
X37595238Y-81202380D01*
X37690476Y-81154761D01*
X37738095Y-81107142D01*
X37785714Y-81011904D01*
X37785714Y-80821428D01*
X37738095Y-80726190D01*
X37690476Y-80678571D01*
X37595238Y-80630952D01*
X39702380Y-78166666D02*
X39226190Y-78500000D01*
X39702380Y-78738095D02*
X38702380Y-78738095D01*
X38702380Y-78357142D01*
X38750000Y-78261904D01*
X38797619Y-78214285D01*
X38892857Y-78166666D01*
X39035714Y-78166666D01*
X39130952Y-78214285D01*
X39178571Y-78261904D01*
X39226190Y-78357142D01*
X39226190Y-78738095D01*
X38702380Y-77833333D02*
X38702380Y-77166666D01*
X39702380Y-77595238D01*
X36833333Y-82702380D02*
X36500000Y-82226190D01*
X36261904Y-82702380D02*
X36261904Y-81702380D01*
X36642857Y-81702380D01*
X36738095Y-81750000D01*
X36785714Y-81797619D01*
X36833333Y-81892857D01*
X36833333Y-82035714D01*
X36785714Y-82130952D01*
X36738095Y-82178571D01*
X36642857Y-82226190D01*
X36261904Y-82226190D01*
X37690476Y-81702380D02*
X37500000Y-81702380D01*
X37404761Y-81750000D01*
X37357142Y-81797619D01*
X37261904Y-81940476D01*
X37214285Y-82130952D01*
X37214285Y-82511904D01*
X37261904Y-82607142D01*
X37309523Y-82654761D01*
X37404761Y-82702380D01*
X37595238Y-82702380D01*
X37690476Y-82654761D01*
X37738095Y-82607142D01*
X37785714Y-82511904D01*
X37785714Y-82273809D01*
X37738095Y-82178571D01*
X37690476Y-82130952D01*
X37595238Y-82083333D01*
X37404761Y-82083333D01*
X37309523Y-82130952D01*
X37261904Y-82178571D01*
X37214285Y-82273809D01*
X45226952Y-83636656D02*
X44893619Y-83160466D01*
X44655523Y-83636656D02*
X44655523Y-82636656D01*
X45036476Y-82636656D01*
X45131714Y-82684276D01*
X45179333Y-82731895D01*
X45226952Y-82827133D01*
X45226952Y-82969990D01*
X45179333Y-83065228D01*
X45131714Y-83112847D01*
X45036476Y-83160466D01*
X44655523Y-83160466D01*
X46131714Y-82636656D02*
X45655523Y-82636656D01*
X45607904Y-83112847D01*
X45655523Y-83065228D01*
X45750761Y-83017609D01*
X45988857Y-83017609D01*
X46084095Y-83065228D01*
X46131714Y-83112847D01*
X46179333Y-83208085D01*
X46179333Y-83446180D01*
X46131714Y-83541418D01*
X46084095Y-83589037D01*
X45988857Y-83636656D01*
X45750761Y-83636656D01*
X45655523Y-83589037D01*
X45607904Y-83541418D01*
X24952380Y-68166666D02*
X24476190Y-68500000D01*
X24952380Y-68738095D02*
X23952380Y-68738095D01*
X23952380Y-68357142D01*
X24000000Y-68261904D01*
X24047619Y-68214285D01*
X24142857Y-68166666D01*
X24285714Y-68166666D01*
X24380952Y-68214285D01*
X24428571Y-68261904D01*
X24476190Y-68357142D01*
X24476190Y-68738095D01*
X24285714Y-67309523D02*
X24952380Y-67309523D01*
X23904761Y-67547619D02*
X24619047Y-67785714D01*
X24619047Y-67166666D01*
X35439714Y-64268104D02*
X35106381Y-63791914D01*
X34868285Y-64268104D02*
X34868285Y-63268104D01*
X35249238Y-63268104D01*
X35344476Y-63315724D01*
X35392095Y-63363343D01*
X35439714Y-63458581D01*
X35439714Y-63601438D01*
X35392095Y-63696676D01*
X35344476Y-63744295D01*
X35249238Y-63791914D01*
X34868285Y-63791914D01*
X35773047Y-63268104D02*
X36392095Y-63268104D01*
X36058761Y-63649057D01*
X36201619Y-63649057D01*
X36296857Y-63696676D01*
X36344476Y-63744295D01*
X36392095Y-63839533D01*
X36392095Y-64077628D01*
X36344476Y-64172866D01*
X36296857Y-64220485D01*
X36201619Y-64268104D01*
X35915904Y-64268104D01*
X35820666Y-64220485D01*
X35773047Y-64172866D01*
X25833333Y-71702380D02*
X25500000Y-71226190D01*
X25261904Y-71702380D02*
X25261904Y-70702380D01*
X25642857Y-70702380D01*
X25738095Y-70750000D01*
X25785714Y-70797619D01*
X25833333Y-70892857D01*
X25833333Y-71035714D01*
X25785714Y-71130952D01*
X25738095Y-71178571D01*
X25642857Y-71226190D01*
X25261904Y-71226190D01*
X26214285Y-70797619D02*
X26261904Y-70750000D01*
X26357142Y-70702380D01*
X26595238Y-70702380D01*
X26690476Y-70750000D01*
X26738095Y-70797619D01*
X26785714Y-70892857D01*
X26785714Y-70988095D01*
X26738095Y-71130952D01*
X26166666Y-71702380D01*
X26785714Y-71702380D01*
X33083333Y-54702380D02*
X32750000Y-54226190D01*
X32511904Y-54702380D02*
X32511904Y-53702380D01*
X32892857Y-53702380D01*
X32988095Y-53750000D01*
X33035714Y-53797619D01*
X33083333Y-53892857D01*
X33083333Y-54035714D01*
X33035714Y-54130952D01*
X32988095Y-54178571D01*
X32892857Y-54226190D01*
X32511904Y-54226190D01*
X34035714Y-54702380D02*
X33464285Y-54702380D01*
X33750000Y-54702380D02*
X33750000Y-53702380D01*
X33654761Y-53845238D01*
X33559523Y-53940476D01*
X33464285Y-53988095D01*
X54654761Y-83797619D02*
X54559523Y-83750000D01*
X54464285Y-83654761D01*
X54321428Y-83511904D01*
X54226190Y-83464285D01*
X54130952Y-83464285D01*
X54178571Y-83702380D02*
X54083333Y-83654761D01*
X53988095Y-83559523D01*
X53940476Y-83369047D01*
X53940476Y-83035714D01*
X53988095Y-82845238D01*
X54083333Y-82750000D01*
X54178571Y-82702380D01*
X54369047Y-82702380D01*
X54464285Y-82750000D01*
X54559523Y-82845238D01*
X54607142Y-83035714D01*
X54607142Y-83369047D01*
X54559523Y-83559523D01*
X54464285Y-83654761D01*
X54369047Y-83702380D01*
X54178571Y-83702380D01*
X55559523Y-83702380D02*
X54988095Y-83702380D01*
X55273809Y-83702380D02*
X55273809Y-82702380D01*
X55178571Y-82845238D01*
X55083333Y-82940476D01*
X54988095Y-82988095D01*
X48011904Y-71702380D02*
X48011904Y-70702380D01*
X48583333Y-71702380D02*
X48154761Y-71130952D01*
X48583333Y-70702380D02*
X48011904Y-71273809D01*
X49535714Y-71702380D02*
X48964285Y-71702380D01*
X49250000Y-71702380D02*
X49250000Y-70702380D01*
X49154761Y-70845238D01*
X49059523Y-70940476D01*
X48964285Y-70988095D01*
X57145285Y-69277847D02*
X56811952Y-69277847D01*
X56811952Y-69801656D02*
X56811952Y-68801656D01*
X57288142Y-68801656D01*
X58002428Y-69277847D02*
X58145285Y-69325466D01*
X58192904Y-69373085D01*
X58240523Y-69468323D01*
X58240523Y-69611180D01*
X58192904Y-69706418D01*
X58145285Y-69754037D01*
X58050047Y-69801656D01*
X57669095Y-69801656D01*
X57669095Y-68801656D01*
X58002428Y-68801656D01*
X58097666Y-68849276D01*
X58145285Y-68896895D01*
X58192904Y-68992133D01*
X58192904Y-69087371D01*
X58145285Y-69182609D01*
X58097666Y-69230228D01*
X58002428Y-69277847D01*
X57669095Y-69277847D01*
X59192904Y-69801656D02*
X58621476Y-69801656D01*
X58907190Y-69801656D02*
X58907190Y-68801656D01*
X58811952Y-68944514D01*
X58716714Y-69039752D01*
X58621476Y-69087371D01*
X33252380Y-73738095D02*
X32252380Y-73738095D01*
X32252380Y-73500000D01*
X32300000Y-73357142D01*
X32395238Y-73261904D01*
X32490476Y-73214285D01*
X32680952Y-73166666D01*
X32823809Y-73166666D01*
X33014285Y-73214285D01*
X33109523Y-73261904D01*
X33204761Y-73357142D01*
X33252380Y-73500000D01*
X33252380Y-73738095D01*
X32347619Y-72785714D02*
X32300000Y-72738095D01*
X32252380Y-72642857D01*
X32252380Y-72404761D01*
X32300000Y-72309523D01*
X32347619Y-72261904D01*
X32442857Y-72214285D01*
X32538095Y-72214285D01*
X32680952Y-72261904D01*
X33252380Y-72833333D01*
X33252380Y-72214285D01*
X41702380Y-57238095D02*
X40702380Y-57238095D01*
X40702380Y-57000000D01*
X40750000Y-56857142D01*
X40845238Y-56761904D01*
X40940476Y-56714285D01*
X41130952Y-56666666D01*
X41273809Y-56666666D01*
X41464285Y-56714285D01*
X41559523Y-56761904D01*
X41654761Y-56857142D01*
X41702380Y-57000000D01*
X41702380Y-57238095D01*
X41702380Y-55714285D02*
X41702380Y-56285714D01*
X41702380Y-56000000D02*
X40702380Y-56000000D01*
X40845238Y-56095238D01*
X40940476Y-56190476D01*
X40988095Y-56285714D01*
X41833333Y-75857142D02*
X41785714Y-75904761D01*
X41642857Y-75952380D01*
X41547619Y-75952380D01*
X41404761Y-75904761D01*
X41309523Y-75809523D01*
X41261904Y-75714285D01*
X41214285Y-75523809D01*
X41214285Y-75380952D01*
X41261904Y-75190476D01*
X41309523Y-75095238D01*
X41404761Y-75000000D01*
X41547619Y-74952380D01*
X41642857Y-74952380D01*
X41785714Y-75000000D01*
X41833333Y-75047619D01*
X42166666Y-74952380D02*
X42833333Y-74952380D01*
X42404761Y-75952380D01*
X56357142Y-76916666D02*
X56404761Y-76964285D01*
X56452380Y-77107142D01*
X56452380Y-77202380D01*
X56404761Y-77345238D01*
X56309523Y-77440476D01*
X56214285Y-77488095D01*
X56023809Y-77535714D01*
X55880952Y-77535714D01*
X55690476Y-77488095D01*
X55595238Y-77440476D01*
X55500000Y-77345238D01*
X55452380Y-77202380D01*
X55452380Y-77107142D01*
X55500000Y-76964285D01*
X55547619Y-76916666D01*
X55452380Y-76059523D02*
X55452380Y-76250000D01*
X55500000Y-76345238D01*
X55547619Y-76392857D01*
X55690476Y-76488095D01*
X55880952Y-76535714D01*
X56261904Y-76535714D01*
X56357142Y-76488095D01*
X56404761Y-76440476D01*
X56452380Y-76345238D01*
X56452380Y-76154761D01*
X56404761Y-76059523D01*
X56357142Y-76011904D01*
X56261904Y-75964285D01*
X56023809Y-75964285D01*
X55928571Y-76011904D01*
X55880952Y-76059523D01*
X55833333Y-76154761D01*
X55833333Y-76345238D01*
X55880952Y-76440476D01*
X55928571Y-76488095D01*
X56023809Y-76535714D01*
X28857142Y-68166666D02*
X28904761Y-68214285D01*
X28952380Y-68357142D01*
X28952380Y-68452380D01*
X28904761Y-68595238D01*
X28809523Y-68690476D01*
X28714285Y-68738095D01*
X28523809Y-68785714D01*
X28380952Y-68785714D01*
X28190476Y-68738095D01*
X28095238Y-68690476D01*
X28000000Y-68595238D01*
X27952380Y-68452380D01*
X27952380Y-68357142D01*
X28000000Y-68214285D01*
X28047619Y-68166666D01*
X27952380Y-67261904D02*
X27952380Y-67738095D01*
X28428571Y-67785714D01*
X28380952Y-67738095D01*
X28333333Y-67642857D01*
X28333333Y-67404761D01*
X28380952Y-67309523D01*
X28428571Y-67261904D01*
X28523809Y-67214285D01*
X28761904Y-67214285D01*
X28857142Y-67261904D01*
X28904761Y-67309523D01*
X28952380Y-67404761D01*
X28952380Y-67642857D01*
X28904761Y-67738095D01*
X28857142Y-67785714D01*
X35854714Y-56757866D02*
X35807095Y-56805485D01*
X35664238Y-56853104D01*
X35569000Y-56853104D01*
X35426142Y-56805485D01*
X35330904Y-56710247D01*
X35283285Y-56615009D01*
X35235666Y-56424533D01*
X35235666Y-56281676D01*
X35283285Y-56091200D01*
X35330904Y-55995962D01*
X35426142Y-55900724D01*
X35569000Y-55853104D01*
X35664238Y-55853104D01*
X35807095Y-55900724D01*
X35854714Y-55948343D01*
X36711857Y-56186438D02*
X36711857Y-56853104D01*
X36473761Y-55805485D02*
X36235666Y-56519771D01*
X36854714Y-56519771D01*
X64857142Y-78666666D02*
X64904761Y-78714285D01*
X64952380Y-78857142D01*
X64952380Y-78952380D01*
X64904761Y-79095238D01*
X64809523Y-79190476D01*
X64714285Y-79238095D01*
X64523809Y-79285714D01*
X64380952Y-79285714D01*
X64190476Y-79238095D01*
X64095238Y-79190476D01*
X64000000Y-79095238D01*
X63952380Y-78952380D01*
X63952380Y-78857142D01*
X64000000Y-78714285D01*
X64047619Y-78666666D01*
X63952380Y-78333333D02*
X63952380Y-77714285D01*
X64333333Y-78047619D01*
X64333333Y-77904761D01*
X64380952Y-77809523D01*
X64428571Y-77761904D01*
X64523809Y-77714285D01*
X64761904Y-77714285D01*
X64857142Y-77761904D01*
X64904761Y-77809523D01*
X64952380Y-77904761D01*
X64952380Y-78190476D01*
X64904761Y-78285714D01*
X64857142Y-78333333D01*
X39083333Y-62107142D02*
X39035714Y-62154761D01*
X38892857Y-62202380D01*
X38797619Y-62202380D01*
X38654761Y-62154761D01*
X38559523Y-62059523D01*
X38511904Y-61964285D01*
X38464285Y-61773809D01*
X38464285Y-61630952D01*
X38511904Y-61440476D01*
X38559523Y-61345238D01*
X38654761Y-61250000D01*
X38797619Y-61202380D01*
X38892857Y-61202380D01*
X39035714Y-61250000D01*
X39083333Y-61297619D01*
X39464285Y-61297619D02*
X39511904Y-61250000D01*
X39607142Y-61202380D01*
X39845238Y-61202380D01*
X39940476Y-61250000D01*
X39988095Y-61297619D01*
X40035714Y-61392857D01*
X40035714Y-61488095D01*
X39988095Y-61630952D01*
X39416666Y-62202380D01*
X40035714Y-62202380D01*
X60854714Y-66007866D02*
X60807095Y-66055485D01*
X60664238Y-66103104D01*
X60569000Y-66103104D01*
X60426142Y-66055485D01*
X60330904Y-65960247D01*
X60283285Y-65865009D01*
X60235666Y-65674533D01*
X60235666Y-65531676D01*
X60283285Y-65341200D01*
X60330904Y-65245962D01*
X60426142Y-65150724D01*
X60569000Y-65103104D01*
X60664238Y-65103104D01*
X60807095Y-65150724D01*
X60854714Y-65198343D01*
X61807095Y-66103104D02*
X61235666Y-66103104D01*
X61521381Y-66103104D02*
X61521381Y-65103104D01*
X61426142Y-65245962D01*
X61330904Y-65341200D01*
X61235666Y-65388819D01*
M02*
