%TF.GenerationSoftware,KiCad,Pcbnew,(5.1.4)-1*%
%TF.CreationDate,2020-02-28T23:00:37+08:00*%
%TF.ProjectId,Relay,52656c61-792e-46b6-9963-61645f706362,rev?*%
%TF.SameCoordinates,Original*%
%TF.FileFunction,Soldermask,Bot*%
%TF.FilePolarity,Negative*%
%FSLAX46Y46*%
G04 Gerber Fmt 4.6, Leading zero omitted, Abs format (unit mm)*
G04 Created by KiCad (PCBNEW (5.1.4)-1) date 2020-02-28 23:00:37*
%MOMM*%
%LPD*%
G04 APERTURE LIST*
%ADD10C,0.350000*%
G04 APERTURE END LIST*
D10*
G36*
X80379487Y-67748996D02*
G01*
X80616253Y-67847068D01*
X80616255Y-67847069D01*
X80829339Y-67989447D01*
X81010553Y-68170661D01*
X81152932Y-68383747D01*
X81251004Y-68620513D01*
X81301000Y-68871861D01*
X81301000Y-69128139D01*
X81251004Y-69379487D01*
X81152932Y-69616253D01*
X81152931Y-69616255D01*
X81010553Y-69829339D01*
X80829339Y-70010553D01*
X80616255Y-70152931D01*
X80616254Y-70152932D01*
X80616253Y-70152932D01*
X80379487Y-70251004D01*
X80128139Y-70301000D01*
X79871861Y-70301000D01*
X79620513Y-70251004D01*
X79383747Y-70152932D01*
X79383746Y-70152932D01*
X79383745Y-70152931D01*
X79170661Y-70010553D01*
X78989447Y-69829339D01*
X78847069Y-69616255D01*
X78847068Y-69616253D01*
X78748996Y-69379487D01*
X78699000Y-69128139D01*
X78699000Y-68871861D01*
X78748996Y-68620513D01*
X78847068Y-68383747D01*
X78989447Y-68170661D01*
X79170661Y-67989447D01*
X79383745Y-67847069D01*
X79383747Y-67847068D01*
X79620513Y-67748996D01*
X79871861Y-67699000D01*
X80128139Y-67699000D01*
X80379487Y-67748996D01*
X80379487Y-67748996D01*
G37*
G36*
X87879487Y-67748996D02*
G01*
X88116253Y-67847068D01*
X88116255Y-67847069D01*
X88329339Y-67989447D01*
X88510553Y-68170661D01*
X88652932Y-68383747D01*
X88751004Y-68620513D01*
X88801000Y-68871861D01*
X88801000Y-69128139D01*
X88751004Y-69379487D01*
X88652932Y-69616253D01*
X88652931Y-69616255D01*
X88510553Y-69829339D01*
X88329339Y-70010553D01*
X88116255Y-70152931D01*
X88116254Y-70152932D01*
X88116253Y-70152932D01*
X87879487Y-70251004D01*
X87628139Y-70301000D01*
X87371861Y-70301000D01*
X87120513Y-70251004D01*
X86883747Y-70152932D01*
X86883746Y-70152932D01*
X86883745Y-70152931D01*
X86670661Y-70010553D01*
X86489447Y-69829339D01*
X86347069Y-69616255D01*
X86347068Y-69616253D01*
X86248996Y-69379487D01*
X86199000Y-69128139D01*
X86199000Y-68871861D01*
X86248996Y-68620513D01*
X86347068Y-68383747D01*
X86489447Y-68170661D01*
X86670661Y-67989447D01*
X86883745Y-67847069D01*
X86883747Y-67847068D01*
X87120513Y-67748996D01*
X87371861Y-67699000D01*
X87628139Y-67699000D01*
X87879487Y-67748996D01*
X87879487Y-67748996D01*
G37*
G36*
X69026000Y-68826000D02*
G01*
X67174000Y-68826000D01*
X67174000Y-66974000D01*
X69026000Y-66974000D01*
X69026000Y-68826000D01*
X69026000Y-68826000D01*
G37*
G36*
X70870104Y-67009585D02*
G01*
X71038626Y-67079389D01*
X71190291Y-67180728D01*
X71319272Y-67309709D01*
X71420611Y-67461374D01*
X71490415Y-67629896D01*
X71526000Y-67808797D01*
X71526000Y-67991203D01*
X71490415Y-68170104D01*
X71420611Y-68338626D01*
X71319272Y-68490291D01*
X71190291Y-68619272D01*
X71038626Y-68720611D01*
X70870104Y-68790415D01*
X70691203Y-68826000D01*
X70508797Y-68826000D01*
X70329896Y-68790415D01*
X70161374Y-68720611D01*
X70009709Y-68619272D01*
X69880728Y-68490291D01*
X69779389Y-68338626D01*
X69709585Y-68170104D01*
X69674000Y-67991203D01*
X69674000Y-67808797D01*
X69709585Y-67629896D01*
X69779389Y-67461374D01*
X69880728Y-67309709D01*
X70009709Y-67180728D01*
X70161374Y-67079389D01*
X70329896Y-67009585D01*
X70508797Y-66974000D01*
X70691203Y-66974000D01*
X70870104Y-67009585D01*
X70870104Y-67009585D01*
G37*
G36*
X96389943Y-58066248D02*
G01*
X96945189Y-58296238D01*
X97117497Y-58411371D01*
X97444899Y-58630134D01*
X97869866Y-59055101D01*
X97869867Y-59055103D01*
X98203762Y-59554811D01*
X98433752Y-60110057D01*
X98551000Y-60699501D01*
X98551000Y-61300499D01*
X98433752Y-61889943D01*
X98203762Y-62445189D01*
X98141872Y-62537814D01*
X97869866Y-62944899D01*
X97444899Y-63369866D01*
X97370736Y-63419420D01*
X96945189Y-63703762D01*
X96389943Y-63933752D01*
X95800499Y-64051000D01*
X95199501Y-64051000D01*
X94610057Y-63933752D01*
X94054811Y-63703762D01*
X93629264Y-63419420D01*
X93555101Y-63369866D01*
X93130134Y-62944899D01*
X92858128Y-62537814D01*
X92796238Y-62445189D01*
X92566248Y-61889943D01*
X92449000Y-61300499D01*
X92449000Y-60699501D01*
X92566248Y-60110057D01*
X92796238Y-59554811D01*
X93130133Y-59055103D01*
X93130134Y-59055101D01*
X93555101Y-58630134D01*
X93882503Y-58411371D01*
X94054811Y-58296238D01*
X94610057Y-58066248D01*
X95199501Y-57949000D01*
X95800499Y-57949000D01*
X96389943Y-58066248D01*
X96389943Y-58066248D01*
G37*
G36*
X72889943Y-58066248D02*
G01*
X73445189Y-58296238D01*
X73617497Y-58411371D01*
X73944899Y-58630134D01*
X74369866Y-59055101D01*
X74369867Y-59055103D01*
X74703762Y-59554811D01*
X74933752Y-60110057D01*
X75051000Y-60699501D01*
X75051000Y-61300499D01*
X74933752Y-61889943D01*
X74703762Y-62445189D01*
X74641872Y-62537814D01*
X74369866Y-62944899D01*
X73944899Y-63369866D01*
X73870736Y-63419420D01*
X73445189Y-63703762D01*
X72889943Y-63933752D01*
X72300499Y-64051000D01*
X71699501Y-64051000D01*
X71110057Y-63933752D01*
X70554811Y-63703762D01*
X70129264Y-63419420D01*
X70055101Y-63369866D01*
X69630134Y-62944899D01*
X69358128Y-62537814D01*
X69296238Y-62445189D01*
X69066248Y-61889943D01*
X68949000Y-61300499D01*
X68949000Y-60699501D01*
X69066248Y-60110057D01*
X69296238Y-59554811D01*
X69630133Y-59055103D01*
X69630134Y-59055101D01*
X70055101Y-58630134D01*
X70382503Y-58411371D01*
X70554811Y-58296238D01*
X71110057Y-58066248D01*
X71699501Y-57949000D01*
X72300499Y-57949000D01*
X72889943Y-58066248D01*
X72889943Y-58066248D01*
G37*
G36*
X80379487Y-52748996D02*
G01*
X80616253Y-52847068D01*
X80616255Y-52847069D01*
X80829339Y-52989447D01*
X81010553Y-53170661D01*
X81152932Y-53383747D01*
X81251004Y-53620513D01*
X81301000Y-53871861D01*
X81301000Y-54128139D01*
X81251004Y-54379487D01*
X81152932Y-54616253D01*
X81152931Y-54616255D01*
X81010553Y-54829339D01*
X80829339Y-55010553D01*
X80616255Y-55152931D01*
X80616254Y-55152932D01*
X80616253Y-55152932D01*
X80379487Y-55251004D01*
X80128139Y-55301000D01*
X79871861Y-55301000D01*
X79620513Y-55251004D01*
X79383747Y-55152932D01*
X79383746Y-55152932D01*
X79383745Y-55152931D01*
X79170661Y-55010553D01*
X78989447Y-54829339D01*
X78847069Y-54616255D01*
X78847068Y-54616253D01*
X78748996Y-54379487D01*
X78699000Y-54128139D01*
X78699000Y-53871861D01*
X78748996Y-53620513D01*
X78847068Y-53383747D01*
X78989447Y-53170661D01*
X79170661Y-52989447D01*
X79383745Y-52847069D01*
X79383747Y-52847068D01*
X79620513Y-52748996D01*
X79871861Y-52699000D01*
X80128139Y-52699000D01*
X80379487Y-52748996D01*
X80379487Y-52748996D01*
G37*
G36*
X87879487Y-52748996D02*
G01*
X88116253Y-52847068D01*
X88116255Y-52847069D01*
X88329339Y-52989447D01*
X88510553Y-53170661D01*
X88652932Y-53383747D01*
X88751004Y-53620513D01*
X88801000Y-53871861D01*
X88801000Y-54128139D01*
X88751004Y-54379487D01*
X88652932Y-54616253D01*
X88652931Y-54616255D01*
X88510553Y-54829339D01*
X88329339Y-55010553D01*
X88116255Y-55152931D01*
X88116254Y-55152932D01*
X88116253Y-55152932D01*
X87879487Y-55251004D01*
X87628139Y-55301000D01*
X87371861Y-55301000D01*
X87120513Y-55251004D01*
X86883747Y-55152932D01*
X86883746Y-55152932D01*
X86883745Y-55152931D01*
X86670661Y-55010553D01*
X86489447Y-54829339D01*
X86347069Y-54616255D01*
X86347068Y-54616253D01*
X86248996Y-54379487D01*
X86199000Y-54128139D01*
X86199000Y-53871861D01*
X86248996Y-53620513D01*
X86347068Y-53383747D01*
X86489447Y-53170661D01*
X86670661Y-52989447D01*
X86883745Y-52847069D01*
X86883747Y-52847068D01*
X87120513Y-52748996D01*
X87371861Y-52699000D01*
X87628139Y-52699000D01*
X87879487Y-52748996D01*
X87879487Y-52748996D01*
G37*
G36*
X87879487Y-47748996D02*
G01*
X88116253Y-47847068D01*
X88116255Y-47847069D01*
X88329339Y-47989447D01*
X88510553Y-48170661D01*
X88652932Y-48383747D01*
X88751004Y-48620513D01*
X88801000Y-48871861D01*
X88801000Y-49128139D01*
X88751004Y-49379487D01*
X88652932Y-49616253D01*
X88652931Y-49616255D01*
X88510553Y-49829339D01*
X88329339Y-50010553D01*
X88116255Y-50152931D01*
X88116254Y-50152932D01*
X88116253Y-50152932D01*
X87879487Y-50251004D01*
X87628139Y-50301000D01*
X87371861Y-50301000D01*
X87120513Y-50251004D01*
X86883747Y-50152932D01*
X86883746Y-50152932D01*
X86883745Y-50152931D01*
X86670661Y-50010553D01*
X86489447Y-49829339D01*
X86347069Y-49616255D01*
X86347068Y-49616253D01*
X86248996Y-49379487D01*
X86199000Y-49128139D01*
X86199000Y-48871861D01*
X86248996Y-48620513D01*
X86347068Y-48383747D01*
X86489447Y-48170661D01*
X86670661Y-47989447D01*
X86883745Y-47847069D01*
X86883747Y-47847068D01*
X87120513Y-47748996D01*
X87371861Y-47699000D01*
X87628139Y-47699000D01*
X87879487Y-47748996D01*
X87879487Y-47748996D01*
G37*
G36*
X80379487Y-47748996D02*
G01*
X80616253Y-47847068D01*
X80616255Y-47847069D01*
X80829339Y-47989447D01*
X81010553Y-48170661D01*
X81152932Y-48383747D01*
X81251004Y-48620513D01*
X81301000Y-48871861D01*
X81301000Y-49128139D01*
X81251004Y-49379487D01*
X81152932Y-49616253D01*
X81152931Y-49616255D01*
X81010553Y-49829339D01*
X80829339Y-50010553D01*
X80616255Y-50152931D01*
X80616254Y-50152932D01*
X80616253Y-50152932D01*
X80379487Y-50251004D01*
X80128139Y-50301000D01*
X79871861Y-50301000D01*
X79620513Y-50251004D01*
X79383747Y-50152932D01*
X79383746Y-50152932D01*
X79383745Y-50152931D01*
X79170661Y-50010553D01*
X78989447Y-49829339D01*
X78847069Y-49616255D01*
X78847068Y-49616253D01*
X78748996Y-49379487D01*
X78699000Y-49128139D01*
X78699000Y-48871861D01*
X78748996Y-48620513D01*
X78847068Y-48383747D01*
X78989447Y-48170661D01*
X79170661Y-47989447D01*
X79383745Y-47847069D01*
X79383747Y-47847068D01*
X79620513Y-47748996D01*
X79871861Y-47699000D01*
X80128139Y-47699000D01*
X80379487Y-47748996D01*
X80379487Y-47748996D01*
G37*
G36*
X80379487Y-42748996D02*
G01*
X80616253Y-42847068D01*
X80616255Y-42847069D01*
X80829339Y-42989447D01*
X81010553Y-43170661D01*
X81152932Y-43383747D01*
X81251004Y-43620513D01*
X81301000Y-43871861D01*
X81301000Y-44128139D01*
X81251004Y-44379487D01*
X81152932Y-44616253D01*
X81152931Y-44616255D01*
X81010553Y-44829339D01*
X80829339Y-45010553D01*
X80616255Y-45152931D01*
X80616254Y-45152932D01*
X80616253Y-45152932D01*
X80379487Y-45251004D01*
X80128139Y-45301000D01*
X79871861Y-45301000D01*
X79620513Y-45251004D01*
X79383747Y-45152932D01*
X79383746Y-45152932D01*
X79383745Y-45152931D01*
X79170661Y-45010553D01*
X78989447Y-44829339D01*
X78847069Y-44616255D01*
X78847068Y-44616253D01*
X78748996Y-44379487D01*
X78699000Y-44128139D01*
X78699000Y-43871861D01*
X78748996Y-43620513D01*
X78847068Y-43383747D01*
X78989447Y-43170661D01*
X79170661Y-42989447D01*
X79383745Y-42847069D01*
X79383747Y-42847068D01*
X79620513Y-42748996D01*
X79871861Y-42699000D01*
X80128139Y-42699000D01*
X80379487Y-42748996D01*
X80379487Y-42748996D01*
G37*
G36*
X87879487Y-42748996D02*
G01*
X88116253Y-42847068D01*
X88116255Y-42847069D01*
X88329339Y-42989447D01*
X88510553Y-43170661D01*
X88652932Y-43383747D01*
X88751004Y-43620513D01*
X88801000Y-43871861D01*
X88801000Y-44128139D01*
X88751004Y-44379487D01*
X88652932Y-44616253D01*
X88652931Y-44616255D01*
X88510553Y-44829339D01*
X88329339Y-45010553D01*
X88116255Y-45152931D01*
X88116254Y-45152932D01*
X88116253Y-45152932D01*
X87879487Y-45251004D01*
X87628139Y-45301000D01*
X87371861Y-45301000D01*
X87120513Y-45251004D01*
X86883747Y-45152932D01*
X86883746Y-45152932D01*
X86883745Y-45152931D01*
X86670661Y-45010553D01*
X86489447Y-44829339D01*
X86347069Y-44616255D01*
X86347068Y-44616253D01*
X86248996Y-44379487D01*
X86199000Y-44128139D01*
X86199000Y-43871861D01*
X86248996Y-43620513D01*
X86347068Y-43383747D01*
X86489447Y-43170661D01*
X86670661Y-42989447D01*
X86883745Y-42847069D01*
X86883747Y-42847068D01*
X87120513Y-42748996D01*
X87371861Y-42699000D01*
X87628139Y-42699000D01*
X87879487Y-42748996D01*
X87879487Y-42748996D01*
G37*
M02*
