M48
; DRILL file {KiCad (5.1.4)-1} date 2020/2/28 23:00:37
; FORMAT={-:-/ absolute / metric / decimal}
; #@! TF.CreationDate,2020-02-28T23:00:37+08:00
; #@! TF.GenerationSoftware,Kicad,Pcbnew,(5.1.4)-1
; #@! TF.FileFunction,Plated,1,2,PTH
FMAT,2
METRIC
T1C0.400
T2C1.050
T3C1.300
T4C3.500
%
G90
G05
T1
X66.0Y-40.5
X66.0Y-43.0
X66.0Y-45.5
X66.0Y-48.0
X66.0Y-50.5
X66.0Y-53.0
X66.0Y-55.5
X66.0Y-58.0
X66.0Y-60.5
X66.0Y-63.0
X67.5Y-40.5
X67.5Y-43.0
X67.5Y-45.5
X67.5Y-53.0
X67.5Y-55.5
X67.5Y-58.0
X67.5Y-60.5
X67.5Y-63.0
X69.5Y-40.5
X69.5Y-43.0
X69.5Y-45.5
X69.5Y-53.0
X69.5Y-55.5
X69.5Y-58.0
X71.5Y-40.5
X71.5Y-43.0
X71.5Y-45.5
X71.5Y-53.0
X71.5Y-55.5
X73.5Y-40.5
X73.5Y-43.0
X73.5Y-45.5
X73.5Y-53.0
X73.5Y-55.5
X73.5Y-58.0
X75.5Y-40.5
X75.5Y-43.0
X75.5Y-45.5
X75.5Y-53.0
X75.5Y-55.5
X75.5Y-58.0
X75.5Y-60.5
X75.5Y-63.0
X77.5Y-40.5
X77.5Y-58.0
X77.5Y-60.5
X77.5Y-63.0
X79.5Y-40.5
X79.5Y-58.0
X79.5Y-60.5
X79.5Y-63.0
X81.5Y-40.5
X81.5Y-58.0
X81.5Y-60.5
X81.5Y-63.0
X83.5Y-40.5
X83.5Y-58.0
X83.5Y-60.5
X83.5Y-63.0
X85.5Y-40.5
X85.5Y-58.0
X85.5Y-60.5
X85.5Y-63.0
X87.5Y-40.5
X87.5Y-58.0
X87.5Y-60.5
X87.5Y-63.0
X89.5Y-40.5
X89.5Y-58.0
X89.5Y-60.5
X89.5Y-63.0
X91.5Y-40.5
X91.5Y-47.5
X91.5Y-50.0
X91.5Y-57.5
X91.5Y-60.0
X91.5Y-63.0
X93.5Y-40.5
X93.5Y-47.5
X93.5Y-50.0
X93.5Y-57.5
X95.5Y-40.5
X95.5Y-47.5
X95.5Y-50.0
X95.5Y-57.5
X97.5Y-40.5
X97.5Y-47.5
X97.5Y-50.0
X97.5Y-57.5
X99.5Y-40.5
X99.5Y-47.5
X99.5Y-50.0
X99.5Y-57.5
X99.5Y-60.0
X99.5Y-63.0
X101.5Y-40.5
X101.5Y-43.0
X101.5Y-45.5
X101.5Y-47.5
X101.5Y-50.0
X101.5Y-52.5
X101.5Y-55.0
X101.5Y-57.5
X101.5Y-60.0
X101.5Y-63.0
X69.943Y-59.812
X69.943Y-62.188
X72.0Y-58.625
X72.0Y-63.375
X74.057Y-59.812
X74.057Y-62.188
X93.443Y-59.812
X93.443Y-62.188
X95.5Y-58.625
X95.5Y-63.375
X97.557Y-59.812
X97.557Y-62.188
T2
X68.1Y-67.9
X70.6Y-67.9
T3
X80.0Y-44.0
X80.0Y-49.0
X80.0Y-54.0
X80.0Y-69.0
X87.5Y-44.0
X87.5Y-49.0
X87.5Y-54.0
X87.5Y-69.0
T4
X72.0Y-61.0
X95.5Y-61.0
T0
M30
