%TF.GenerationSoftware,KiCad,Pcbnew,(5.1.4)-1*%
%TF.CreationDate,2020-02-28T23:00:37+08:00*%
%TF.ProjectId,Relay,52656c61-792e-46b6-9963-61645f706362,rev?*%
%TF.SameCoordinates,Original*%
%TF.FileFunction,Legend,Top*%
%TF.FilePolarity,Positive*%
%FSLAX46Y46*%
G04 Gerber Fmt 4.6, Leading zero omitted, Abs format (unit mm)*
G04 Created by KiCad (PCBNEW (5.1.4)-1) date 2020-02-28 23:00:37*
%MOMM*%
%LPD*%
G04 APERTURE LIST*
%ADD10C,0.150000*%
%ADD11C,0.120000*%
%ADD12C,0.250000*%
%ADD13C,0.254000*%
G04 APERTURE END LIST*
D10*
X96580952Y-65061904D02*
X97114285Y-65861904D01*
X97114285Y-65061904D02*
X96580952Y-65861904D01*
X97419047Y-65861904D02*
X97419047Y-65328571D01*
X97419047Y-65404761D02*
X97457142Y-65366666D01*
X97533333Y-65328571D01*
X97647619Y-65328571D01*
X97723809Y-65366666D01*
X97761904Y-65442857D01*
X97761904Y-65861904D01*
X97761904Y-65442857D02*
X97800000Y-65366666D01*
X97876190Y-65328571D01*
X97990476Y-65328571D01*
X98066666Y-65366666D01*
X98104761Y-65442857D01*
X98104761Y-65861904D01*
X98485714Y-65861904D02*
X98485714Y-65328571D01*
X98485714Y-65061904D02*
X98447619Y-65100000D01*
X98485714Y-65138095D01*
X98523809Y-65100000D01*
X98485714Y-65061904D01*
X98485714Y-65138095D01*
X98752380Y-65328571D02*
X99057142Y-65328571D01*
X98866666Y-65061904D02*
X98866666Y-65747619D01*
X98904761Y-65823809D01*
X98980952Y-65861904D01*
X99057142Y-65861904D01*
X97057142Y-67261904D02*
X96790476Y-66880952D01*
X96600000Y-67261904D02*
X96600000Y-66461904D01*
X96904761Y-66461904D01*
X96980952Y-66500000D01*
X97019047Y-66538095D01*
X97057142Y-66614285D01*
X97057142Y-66728571D01*
X97019047Y-66804761D01*
X96980952Y-66842857D01*
X96904761Y-66880952D01*
X96600000Y-66880952D01*
X97704761Y-67223809D02*
X97628571Y-67261904D01*
X97476190Y-67261904D01*
X97400000Y-67223809D01*
X97361904Y-67147619D01*
X97361904Y-66842857D01*
X97400000Y-66766666D01*
X97476190Y-66728571D01*
X97628571Y-66728571D01*
X97704761Y-66766666D01*
X97742857Y-66842857D01*
X97742857Y-66919047D01*
X97361904Y-66995238D01*
X98428571Y-67223809D02*
X98352380Y-67261904D01*
X98200000Y-67261904D01*
X98123809Y-67223809D01*
X98085714Y-67185714D01*
X98047619Y-67109523D01*
X98047619Y-66880952D01*
X98085714Y-66804761D01*
X98123809Y-66766666D01*
X98200000Y-66728571D01*
X98352380Y-66728571D01*
X98428571Y-66766666D01*
X98695238Y-66728571D02*
X98885714Y-67261904D01*
X99076190Y-66728571D01*
X91945119Y-68611904D02*
X91678452Y-68230952D01*
X91487976Y-68611904D02*
X91487976Y-67811904D01*
X91792738Y-67811904D01*
X91868928Y-67850000D01*
X91907023Y-67888095D01*
X91945119Y-67964285D01*
X91945119Y-68078571D01*
X91907023Y-68154761D01*
X91868928Y-68192857D01*
X91792738Y-68230952D01*
X91487976Y-68230952D01*
X92592738Y-68573809D02*
X92516547Y-68611904D01*
X92364166Y-68611904D01*
X92287976Y-68573809D01*
X92249880Y-68497619D01*
X92249880Y-68192857D01*
X92287976Y-68116666D01*
X92364166Y-68078571D01*
X92516547Y-68078571D01*
X92592738Y-68116666D01*
X92630833Y-68192857D01*
X92630833Y-68269047D01*
X92249880Y-68345238D01*
X93087976Y-68611904D02*
X93011785Y-68573809D01*
X92973690Y-68497619D01*
X92973690Y-67811904D01*
X93735595Y-68611904D02*
X93735595Y-68192857D01*
X93697500Y-68116666D01*
X93621309Y-68078571D01*
X93468928Y-68078571D01*
X93392738Y-68116666D01*
X93735595Y-68573809D02*
X93659404Y-68611904D01*
X93468928Y-68611904D01*
X93392738Y-68573809D01*
X93354642Y-68497619D01*
X93354642Y-68421428D01*
X93392738Y-68345238D01*
X93468928Y-68307142D01*
X93659404Y-68307142D01*
X93735595Y-68269047D01*
X94040357Y-68078571D02*
X94230833Y-68611904D01*
X94421309Y-68078571D02*
X94230833Y-68611904D01*
X94154642Y-68802380D01*
X94116547Y-68840476D01*
X94040357Y-68878571D01*
X95792738Y-68611904D02*
X95526071Y-68230952D01*
X95335595Y-68611904D02*
X95335595Y-67811904D01*
X95640357Y-67811904D01*
X95716547Y-67850000D01*
X95754642Y-67888095D01*
X95792738Y-67964285D01*
X95792738Y-68078571D01*
X95754642Y-68154761D01*
X95716547Y-68192857D01*
X95640357Y-68230952D01*
X95335595Y-68230952D01*
X96402261Y-68192857D02*
X96135595Y-68192857D01*
X96135595Y-68611904D02*
X96135595Y-67811904D01*
X96516547Y-67811904D01*
X97392738Y-68573809D02*
X97507023Y-68611904D01*
X97697500Y-68611904D01*
X97773690Y-68573809D01*
X97811785Y-68535714D01*
X97849880Y-68459523D01*
X97849880Y-68383333D01*
X97811785Y-68307142D01*
X97773690Y-68269047D01*
X97697500Y-68230952D01*
X97545119Y-68192857D01*
X97468928Y-68154761D01*
X97430833Y-68116666D01*
X97392738Y-68040476D01*
X97392738Y-67964285D01*
X97430833Y-67888095D01*
X97468928Y-67850000D01*
X97545119Y-67811904D01*
X97735595Y-67811904D01*
X97849880Y-67850000D01*
X98116547Y-68078571D02*
X98268928Y-68611904D01*
X98421309Y-68230952D01*
X98573690Y-68611904D01*
X98726071Y-68078571D01*
X99030833Y-68611904D02*
X99030833Y-68078571D01*
X99030833Y-67811904D02*
X98992738Y-67850000D01*
X99030833Y-67888095D01*
X99068928Y-67850000D01*
X99030833Y-67811904D01*
X99030833Y-67888095D01*
X99297500Y-68078571D02*
X99602261Y-68078571D01*
X99411785Y-67811904D02*
X99411785Y-68497619D01*
X99449880Y-68573809D01*
X99526071Y-68611904D01*
X99602261Y-68611904D01*
X100211785Y-68573809D02*
X100135595Y-68611904D01*
X99983214Y-68611904D01*
X99907023Y-68573809D01*
X99868928Y-68535714D01*
X99830833Y-68459523D01*
X99830833Y-68230952D01*
X99868928Y-68154761D01*
X99907023Y-68116666D01*
X99983214Y-68078571D01*
X100135595Y-68078571D01*
X100211785Y-68116666D01*
X100554642Y-68611904D02*
X100554642Y-67811904D01*
X100897500Y-68611904D02*
X100897500Y-68192857D01*
X100859404Y-68116666D01*
X100783214Y-68078571D01*
X100668928Y-68078571D01*
X100592738Y-68116666D01*
X100554642Y-68154761D01*
X91411785Y-69161904D02*
X91945119Y-69161904D01*
X91411785Y-69961904D01*
X91945119Y-69961904D01*
X92554642Y-69923809D02*
X92478452Y-69961904D01*
X92326071Y-69961904D01*
X92249880Y-69923809D01*
X92211785Y-69847619D01*
X92211785Y-69542857D01*
X92249880Y-69466666D01*
X92326071Y-69428571D01*
X92478452Y-69428571D01*
X92554642Y-69466666D01*
X92592738Y-69542857D01*
X92592738Y-69619047D01*
X92211785Y-69695238D01*
X92935595Y-69428571D02*
X92935595Y-69961904D01*
X92935595Y-69504761D02*
X92973690Y-69466666D01*
X93049880Y-69428571D01*
X93164166Y-69428571D01*
X93240357Y-69466666D01*
X93278452Y-69542857D01*
X93278452Y-69961904D01*
X93659404Y-69961904D02*
X93659404Y-69428571D01*
X93659404Y-69161904D02*
X93621309Y-69200000D01*
X93659404Y-69238095D01*
X93697500Y-69200000D01*
X93659404Y-69161904D01*
X93659404Y-69238095D01*
X94040357Y-69428571D02*
X94040357Y-69961904D01*
X94040357Y-69504761D02*
X94078452Y-69466666D01*
X94154642Y-69428571D01*
X94268928Y-69428571D01*
X94345119Y-69466666D01*
X94383214Y-69542857D01*
X94383214Y-69961904D01*
X95107023Y-69428571D02*
X95107023Y-70076190D01*
X95068928Y-70152380D01*
X95030833Y-70190476D01*
X94954642Y-70228571D01*
X94840357Y-70228571D01*
X94764166Y-70190476D01*
X95107023Y-69923809D02*
X95030833Y-69961904D01*
X94878452Y-69961904D01*
X94802261Y-69923809D01*
X94764166Y-69885714D01*
X94726071Y-69809523D01*
X94726071Y-69580952D01*
X94764166Y-69504761D01*
X94802261Y-69466666D01*
X94878452Y-69428571D01*
X95030833Y-69428571D01*
X95107023Y-69466666D01*
X96478452Y-69961904D02*
X96097500Y-69961904D01*
X96097500Y-69161904D01*
X97087976Y-69428571D02*
X97087976Y-69961904D01*
X96745119Y-69428571D02*
X96745119Y-69847619D01*
X96783214Y-69923809D01*
X96859404Y-69961904D01*
X96973690Y-69961904D01*
X97049880Y-69923809D01*
X97087976Y-69885714D01*
X91449880Y-70588095D02*
X91487976Y-70550000D01*
X91564166Y-70511904D01*
X91754642Y-70511904D01*
X91830833Y-70550000D01*
X91868928Y-70588095D01*
X91907023Y-70664285D01*
X91907023Y-70740476D01*
X91868928Y-70854761D01*
X91411785Y-71311904D01*
X91907023Y-71311904D01*
X92402261Y-70511904D02*
X92478452Y-70511904D01*
X92554642Y-70550000D01*
X92592738Y-70588095D01*
X92630833Y-70664285D01*
X92668928Y-70816666D01*
X92668928Y-71007142D01*
X92630833Y-71159523D01*
X92592738Y-71235714D01*
X92554642Y-71273809D01*
X92478452Y-71311904D01*
X92402261Y-71311904D01*
X92326071Y-71273809D01*
X92287976Y-71235714D01*
X92249880Y-71159523D01*
X92211785Y-71007142D01*
X92211785Y-70816666D01*
X92249880Y-70664285D01*
X92287976Y-70588095D01*
X92326071Y-70550000D01*
X92402261Y-70511904D01*
X92973690Y-70588095D02*
X93011785Y-70550000D01*
X93087976Y-70511904D01*
X93278452Y-70511904D01*
X93354642Y-70550000D01*
X93392738Y-70588095D01*
X93430833Y-70664285D01*
X93430833Y-70740476D01*
X93392738Y-70854761D01*
X92935595Y-71311904D01*
X93430833Y-71311904D01*
X93926071Y-70511904D02*
X94002261Y-70511904D01*
X94078452Y-70550000D01*
X94116547Y-70588095D01*
X94154642Y-70664285D01*
X94192738Y-70816666D01*
X94192738Y-71007142D01*
X94154642Y-71159523D01*
X94116547Y-71235714D01*
X94078452Y-71273809D01*
X94002261Y-71311904D01*
X93926071Y-71311904D01*
X93849880Y-71273809D01*
X93811785Y-71235714D01*
X93773690Y-71159523D01*
X93735595Y-71007142D01*
X93735595Y-70816666D01*
X93773690Y-70664285D01*
X93811785Y-70588095D01*
X93849880Y-70550000D01*
X93926071Y-70511904D01*
X94535595Y-71235714D02*
X94573690Y-71273809D01*
X94535595Y-71311904D01*
X94497500Y-71273809D01*
X94535595Y-71235714D01*
X94535595Y-71311904D01*
X94878452Y-70588095D02*
X94916547Y-70550000D01*
X94992738Y-70511904D01*
X95183214Y-70511904D01*
X95259404Y-70550000D01*
X95297500Y-70588095D01*
X95335595Y-70664285D01*
X95335595Y-70740476D01*
X95297500Y-70854761D01*
X94840357Y-71311904D01*
X95335595Y-71311904D01*
X95678452Y-71235714D02*
X95716547Y-71273809D01*
X95678452Y-71311904D01*
X95640357Y-71273809D01*
X95678452Y-71235714D01*
X95678452Y-71311904D01*
X96021309Y-70588095D02*
X96059404Y-70550000D01*
X96135595Y-70511904D01*
X96326071Y-70511904D01*
X96402261Y-70550000D01*
X96440357Y-70588095D01*
X96478452Y-70664285D01*
X96478452Y-70740476D01*
X96440357Y-70854761D01*
X95983214Y-71311904D01*
X96478452Y-71311904D01*
X96935595Y-70854761D02*
X96859404Y-70816666D01*
X96821309Y-70778571D01*
X96783214Y-70702380D01*
X96783214Y-70664285D01*
X96821309Y-70588095D01*
X96859404Y-70550000D01*
X96935595Y-70511904D01*
X97087976Y-70511904D01*
X97164166Y-70550000D01*
X97202261Y-70588095D01*
X97240357Y-70664285D01*
X97240357Y-70702380D01*
X97202261Y-70778571D01*
X97164166Y-70816666D01*
X97087976Y-70854761D01*
X96935595Y-70854761D01*
X96859404Y-70892857D01*
X96821309Y-70930952D01*
X96783214Y-71007142D01*
X96783214Y-71159523D01*
X96821309Y-71235714D01*
X96859404Y-71273809D01*
X96935595Y-71311904D01*
X97087976Y-71311904D01*
X97164166Y-71273809D01*
X97202261Y-71235714D01*
X97240357Y-71159523D01*
X97240357Y-71007142D01*
X97202261Y-70930952D01*
X97164166Y-70892857D01*
X97087976Y-70854761D01*
X69990476Y-64300000D02*
X69914285Y-64261904D01*
X69800000Y-64261904D01*
X69685714Y-64300000D01*
X69609523Y-64376190D01*
X69571428Y-64452380D01*
X69533333Y-64604761D01*
X69533333Y-64719047D01*
X69571428Y-64871428D01*
X69609523Y-64947619D01*
X69685714Y-65023809D01*
X69800000Y-65061904D01*
X69876190Y-65061904D01*
X69990476Y-65023809D01*
X70028571Y-64985714D01*
X70028571Y-64719047D01*
X69876190Y-64719047D01*
X70371428Y-65061904D02*
X70371428Y-64261904D01*
X70828571Y-65061904D01*
X70828571Y-64261904D01*
X71209523Y-65061904D02*
X71209523Y-64261904D01*
X71400000Y-64261904D01*
X71514285Y-64300000D01*
X71590476Y-64376190D01*
X71628571Y-64452380D01*
X71666666Y-64604761D01*
X71666666Y-64719047D01*
X71628571Y-64871428D01*
X71590476Y-64947619D01*
X71514285Y-65023809D01*
X71400000Y-65061904D01*
X71209523Y-65061904D01*
X67795238Y-64657142D02*
X68404761Y-64657142D01*
X68100000Y-64961904D02*
X68100000Y-64352380D01*
D11*
X93300000Y-67400000D02*
X93800000Y-66900000D01*
X93300000Y-67400000D02*
X92800000Y-66900000D01*
X93300000Y-66400000D02*
X93300000Y-67400000D01*
X93300000Y-64900000D02*
X93800000Y-65400000D01*
X92800000Y-65400000D02*
X93300000Y-64900000D01*
X93300000Y-64900000D02*
X92800000Y-65400000D01*
X93300000Y-65900000D02*
X93300000Y-64900000D01*
D10*
X93990476Y-65852380D02*
X93990476Y-64852380D01*
X94561904Y-65852380D01*
X94561904Y-64852380D01*
X95228571Y-64852380D02*
X95419047Y-64852380D01*
X95514285Y-64900000D01*
X95609523Y-64995238D01*
X95657142Y-65185714D01*
X95657142Y-65519047D01*
X95609523Y-65709523D01*
X95514285Y-65804761D01*
X95419047Y-65852380D01*
X95228571Y-65852380D01*
X95133333Y-65804761D01*
X95038095Y-65709523D01*
X94990476Y-65519047D01*
X94990476Y-65185714D01*
X95038095Y-64995238D01*
X95133333Y-64900000D01*
X95228571Y-64852380D01*
X94014285Y-67352380D02*
X94014285Y-66352380D01*
X94585714Y-67352380D01*
X94585714Y-66352380D01*
X95633333Y-67257142D02*
X95585714Y-67304761D01*
X95442857Y-67352380D01*
X95347619Y-67352380D01*
X95204761Y-67304761D01*
X95109523Y-67209523D01*
X95061904Y-67114285D01*
X95014285Y-66923809D01*
X95014285Y-66780952D01*
X95061904Y-66590476D01*
X95109523Y-66495238D01*
X95204761Y-66400000D01*
X95347619Y-66352380D01*
X95442857Y-66352380D01*
X95585714Y-66400000D01*
X95633333Y-66447619D01*
D11*
X65250000Y-65150000D02*
X65250000Y-67650000D01*
X67750000Y-65150000D02*
X65250000Y-65150000D01*
X72400000Y-70650000D02*
X69350000Y-70650000D01*
X72400000Y-67700000D02*
X72400000Y-70650000D01*
X73150000Y-67700000D02*
X72400000Y-67700000D01*
X66300000Y-70650000D02*
X69350000Y-70650000D01*
X66300000Y-67700000D02*
X66300000Y-70650000D01*
X65550000Y-67700000D02*
X66300000Y-67700000D01*
X73150000Y-65450000D02*
X71350000Y-65450000D01*
X73150000Y-66200000D02*
X73150000Y-65450000D01*
X71350000Y-66200000D02*
X73150000Y-66200000D01*
X71350000Y-65450000D02*
X71350000Y-66200000D01*
X67350000Y-65450000D02*
X65550000Y-65450000D01*
X67350000Y-66200000D02*
X67350000Y-65450000D01*
X65550000Y-66200000D02*
X67350000Y-66200000D01*
X65550000Y-65450000D02*
X65550000Y-66200000D01*
X69850000Y-65450000D02*
X68850000Y-65450000D01*
X69850000Y-66200000D02*
X69850000Y-65450000D01*
X68850000Y-66200000D02*
X69850000Y-66200000D01*
X68850000Y-65450000D02*
X68850000Y-66200000D01*
X73150000Y-65450000D02*
X65550000Y-65450000D01*
X73150000Y-71400000D02*
X73150000Y-65450000D01*
X65550000Y-71400000D02*
X73150000Y-71400000D01*
X65550000Y-65450000D02*
X65550000Y-71400000D01*
D12*
X77300000Y-41890000D02*
X90200000Y-41890000D01*
X90254000Y-71100000D02*
X90254000Y-41900000D01*
X77300000Y-71100000D02*
X77300000Y-41900000D01*
X77300000Y-71100000D02*
X90200000Y-71100000D01*
D10*
G36*
X74100000Y-64079000D02*
G01*
X74100000Y-64479000D01*
X76300000Y-64479000D01*
X76300000Y-64079000D01*
X74100000Y-64079000D01*
G37*
X74100000Y-64079000D02*
X74100000Y-64479000D01*
X76300000Y-64479000D01*
X76300000Y-64079000D01*
X74100000Y-64079000D01*
D13*
X73600000Y-64775000D02*
X73600000Y-67100000D01*
X76825000Y-69100000D02*
X76825000Y-71425000D01*
X73600000Y-69100000D02*
X73600000Y-71425000D01*
X76825000Y-64775000D02*
X76825000Y-67100000D01*
X73600000Y-71425000D02*
X76825000Y-71425000D01*
X73600000Y-64775000D02*
X76825000Y-64775000D01*
M02*
