M48
; DRILL file {KiCad (5.1.4)-1} date 2020/11/14 2:23:56
; FORMAT={-:-/ absolute / metric / decimal}
; #@! TF.CreationDate,2020-11-14T02:23:56+08:00
; #@! TF.GenerationSoftware,Kicad,Pcbnew,(5.1.4)-1
; #@! TF.FileFunction,Plated,1,2,PTH
FMAT,2
METRIC
T1C0.400
T2C0.500
T3C0.800
T4C1.000
T5C1.200
T6C2.000
T7C3.500
%
G90
G05
T1
X21.3Y-21.95
X21.3Y-24.49
X21.3Y-27.03
X21.3Y-29.57
X21.3Y-32.11
X21.3Y-34.65
X21.3Y-37.19
X21.3Y-39.73
X23.84Y-21.95
X23.84Y-24.49
X23.84Y-27.03
X23.84Y-29.57
X23.84Y-32.11
X23.84Y-34.65
X23.84Y-37.19
X23.84Y-39.73
X26.38Y-21.95
X26.38Y-24.49
X26.38Y-27.03
X26.38Y-29.57
X26.38Y-32.11
X26.38Y-34.65
X26.38Y-37.19
X26.38Y-39.73
X28.92Y-21.95
X28.92Y-24.49
X28.92Y-27.03
X28.92Y-29.57
X28.92Y-32.11
X28.92Y-34.65
X28.92Y-37.19
X28.92Y-39.73
X31.46Y-21.95
X31.46Y-24.49
X31.46Y-27.03
X31.46Y-29.57
X31.46Y-32.11
X31.46Y-34.65
X31.46Y-37.19
X31.46Y-39.73
X34.0Y-21.95
X34.0Y-24.49
X34.0Y-27.03
X34.0Y-29.57
X34.0Y-32.11
X34.0Y-34.65
X34.0Y-37.19
X34.0Y-39.73
X36.54Y-21.95
X36.54Y-24.49
X36.54Y-27.03
X36.54Y-29.57
X36.54Y-32.11
X36.54Y-34.65
X36.54Y-37.19
X36.54Y-39.73
X39.08Y-21.95
X39.08Y-24.49
X39.08Y-27.03
X39.08Y-29.57
X39.08Y-32.11
X39.08Y-34.65
X39.08Y-37.19
X39.08Y-39.73
X41.62Y-21.95
X41.62Y-24.49
X41.62Y-27.03
X41.62Y-29.57
X41.62Y-32.11
X41.62Y-34.65
X41.62Y-37.19
X41.62Y-39.73
X44.16Y-21.95
X44.16Y-24.49
X44.16Y-27.03
X44.16Y-29.57
X44.16Y-32.11
X44.16Y-34.65
X44.16Y-37.19
X44.16Y-39.73
X51.26Y-60.277
X52.324Y-55.88
X54.1Y-39.05
X54.1Y-40.32
X54.1Y-41.59
X54.1Y-42.86
X54.1Y-44.13
X54.1Y-45.4
X54.1Y-46.67
X54.1Y-47.94
X55.626Y-50.927
X56.1Y-39.05
X56.1Y-40.32
X56.1Y-41.59
X56.1Y-42.86
X56.1Y-44.13
X56.1Y-45.4
X56.1Y-46.67
X56.1Y-47.94
X56.25Y-64.75
X58.0Y-63.246
X58.1Y-39.05
X58.1Y-40.32
X58.1Y-41.59
X58.1Y-42.86
X58.1Y-44.13
X58.1Y-45.4
X58.1Y-46.67
X58.1Y-47.94
X58.75Y-64.75
X59.3Y-21.15
X59.3Y-23.69
X59.3Y-26.23
X59.3Y-28.77
X59.3Y-31.31
X60.1Y-39.05
X60.1Y-40.32
X60.1Y-41.59
X60.1Y-42.86
X60.1Y-44.13
X60.1Y-45.4
X60.1Y-46.67
X60.1Y-47.94
X61.0Y-64.75
X61.84Y-21.15
X61.84Y-23.69
X61.84Y-26.23
X61.84Y-28.77
X61.84Y-31.31
X62.1Y-39.05
X62.1Y-40.32
X62.1Y-41.59
X62.1Y-42.86
X62.1Y-44.13
X62.1Y-45.4
X62.1Y-46.67
X62.1Y-47.94
X63.0Y-64.75
X64.1Y-39.05
X64.1Y-40.32
X64.1Y-41.59
X64.1Y-42.86
X64.1Y-44.13
X64.1Y-45.4
X64.1Y-46.67
X64.1Y-47.94
X64.38Y-21.15
X64.38Y-23.69
X64.38Y-31.31
X64.464Y-33.286
X64.75Y-64.75
X65.626Y-31.623
X66.5Y-64.75
X66.92Y-21.15
X66.92Y-23.69
X66.92Y-31.31
X68.0Y-37.75
X68.7Y-64.75
X69.3Y-39.05
X69.3Y-40.32
X69.3Y-41.59
X69.3Y-42.86
X69.3Y-44.13
X69.3Y-45.4
X69.3Y-46.67
X69.46Y-21.15
X69.46Y-23.69
X69.46Y-31.31
X71.3Y-39.05
X71.3Y-40.32
X71.3Y-41.59
X71.3Y-42.86
X71.3Y-44.13
X71.3Y-45.4
X71.3Y-46.67
X71.75Y-53.0
X72.0Y-21.15
X72.0Y-23.69
X72.0Y-31.31
X73.3Y-39.05
X73.3Y-40.32
X73.3Y-41.59
X73.3Y-42.86
X73.3Y-44.13
X73.3Y-45.4
X73.3Y-46.67
X73.9Y-21.15
X73.9Y-23.69
X73.9Y-31.31
X75.138Y-53.753
X75.3Y-39.05
X75.3Y-40.32
X75.3Y-41.59
X75.3Y-42.86
X75.3Y-44.13
X75.3Y-45.4
X75.3Y-46.67
X76.44Y-21.15
X76.44Y-23.69
X76.44Y-31.31
X77.3Y-39.05
X77.3Y-40.32
X77.3Y-41.59
X77.3Y-42.86
X77.3Y-44.13
X77.3Y-45.4
X77.3Y-46.67
X77.471Y-52.327
X77.5Y-53.75
X77.7Y-48.75
X78.98Y-21.15
X78.98Y-23.69
X78.98Y-31.31
X79.3Y-39.05
X79.3Y-40.32
X79.3Y-41.59
X79.3Y-42.86
X79.3Y-44.13
X79.3Y-45.4
X79.3Y-46.67
X80.24Y-48.75
X80.25Y-57.75
X80.7Y-51.15
X81.0Y-59.75
X81.0Y-62.5
X81.0Y-65.25
X81.52Y-21.15
X81.52Y-23.69
X81.52Y-31.31
X82.78Y-48.75
X84.06Y-21.15
X84.06Y-23.69
X84.06Y-26.23
X84.06Y-28.77
X84.06Y-31.31
X85.32Y-48.75
X85.7Y-36.15
X85.7Y-38.69
X85.7Y-41.23
X85.7Y-43.77
X85.7Y-46.31
X86.5Y-55.5
X86.6Y-21.15
X86.6Y-23.69
X86.6Y-26.23
X86.6Y-28.77
X86.6Y-31.31
X87.75Y-56.75
X87.86Y-48.75
X88.24Y-36.15
X88.24Y-38.69
X88.24Y-41.23
X88.24Y-43.77
X88.24Y-46.31
X89.0Y-51.75
X89.14Y-21.15
X89.14Y-23.69
X89.14Y-26.23
X89.14Y-28.77
X89.14Y-31.31
X90.4Y-48.75
X90.78Y-36.15
X90.78Y-38.69
X90.78Y-41.23
X90.78Y-43.77
X90.78Y-46.31
X91.68Y-21.15
X91.68Y-23.69
X91.68Y-26.23
X91.68Y-28.77
X91.68Y-31.31
X92.94Y-48.75
X93.32Y-36.15
X93.32Y-38.69
X93.32Y-41.23
X93.32Y-43.77
X93.32Y-46.31
X94.22Y-21.15
X94.22Y-23.69
X94.22Y-26.23
X94.22Y-28.77
X94.22Y-31.31
X95.48Y-48.75
X95.86Y-36.15
X95.86Y-38.69
X95.86Y-41.23
X95.86Y-43.77
X95.86Y-46.31
X96.76Y-21.15
X96.76Y-23.69
X96.76Y-26.23
X96.76Y-28.77
X96.76Y-31.31
X98.02Y-48.75
X98.4Y-36.15
X98.4Y-38.69
X98.4Y-41.23
X98.4Y-43.77
X98.4Y-46.31
X99.3Y-21.15
X99.3Y-23.69
X99.3Y-26.23
X99.3Y-28.77
X99.3Y-31.31
X100.56Y-48.75
X100.94Y-36.15
X100.94Y-38.69
X100.94Y-41.23
X100.94Y-43.77
X100.94Y-46.31
X101.84Y-21.15
X101.84Y-23.69
X101.84Y-26.23
X101.84Y-28.77
X101.84Y-31.31
X103.48Y-36.15
X103.48Y-38.69
X103.48Y-41.23
X103.48Y-43.77
X103.48Y-46.31
X103.5Y-48.75
X98.193Y-62.312
X98.193Y-64.688
X100.25Y-61.125
X100.25Y-65.875
X102.307Y-62.312
X102.307Y-64.688
X36.943Y-44.812
X36.943Y-47.188
X39.0Y-43.625
X39.0Y-48.375
X41.057Y-44.812
X41.057Y-47.188
T2
X64.21Y-26.72
X64.21Y-27.98
X64.96Y-25.69
X64.96Y-29.01
X66.16Y-25.3
X66.16Y-29.4
X67.49Y-25.3
X67.49Y-29.4
X68.83Y-25.3
X68.83Y-29.4
X70.16Y-25.3
X70.16Y-29.4
X71.36Y-25.69
X71.36Y-29.01
X72.11Y-26.72
X72.11Y-27.98
X74.21Y-26.72
X74.21Y-27.98
X74.96Y-25.69
X74.96Y-29.01
X76.16Y-25.3
X76.16Y-29.4
X77.49Y-25.3
X77.49Y-29.4
X78.83Y-25.3
X78.83Y-29.4
X80.16Y-25.3
X80.16Y-29.4
X81.36Y-25.69
X81.36Y-29.01
X82.11Y-26.72
X82.11Y-27.98
T3
X71.25Y-48.75
X73.16Y-48.75
X75.07Y-48.75
T4
X85.0Y-63.5
X87.5Y-63.5
X90.0Y-63.5
X92.5Y-63.5
T5
X24.75Y-53.25
X24.75Y-57.06
X24.75Y-60.87
X24.75Y-64.68
T7
X100.25Y-63.5
X39.0Y-46.0
T6
G00X66.16Y-27.35
M15
G01X70.16Y-27.35
M16
G05
G00X76.16Y-27.35
M15
G01X80.16Y-27.35
M16
G05
T0
M30
