%TF.GenerationSoftware,KiCad,Pcbnew,(5.1.4)-1*%
%TF.CreationDate,2020-11-14T02:23:56+08:00*%
%TF.ProjectId,power,706f7765-722e-46b6-9963-61645f706362,rev?*%
%TF.SameCoordinates,Original*%
%TF.FileFunction,Soldermask,Top*%
%TF.FilePolarity,Negative*%
%FSLAX46Y46*%
G04 Gerber Fmt 4.6, Leading zero omitted, Abs format (unit mm)*
G04 Created by KiCad (PCBNEW (5.1.4)-1) date 2020-11-14 02:23:56*
%MOMM*%
%LPD*%
G04 APERTURE LIST*
%ADD10C,0.100000*%
%ADD11C,0.350000*%
G04 APERTURE END LIST*
D10*
G36*
X44900000Y-49150000D02*
G01*
X34600000Y-49150000D01*
X34600000Y-40150000D01*
X44900000Y-40150000D01*
X44900000Y-49150000D01*
G37*
X44900000Y-49150000D02*
X34600000Y-49150000D01*
X34600000Y-40150000D01*
X44900000Y-40150000D01*
X44900000Y-49150000D01*
G36*
X102700000Y-31950000D02*
G01*
X73700000Y-31950000D01*
X73700000Y-20950000D01*
X102700000Y-20950000D01*
X102700000Y-31950000D01*
G37*
X102700000Y-31950000D02*
X73700000Y-31950000D01*
X73700000Y-20950000D01*
X102700000Y-20950000D01*
X102700000Y-31950000D01*
G36*
X72500000Y-31950000D02*
G01*
X56100000Y-31950000D01*
X56100000Y-20950000D01*
X72500000Y-20950000D01*
X72500000Y-31950000D01*
G37*
X72500000Y-31950000D02*
X56100000Y-31950000D01*
X56100000Y-20950000D01*
X72500000Y-20950000D01*
X72500000Y-31950000D01*
D11*
G36*
X101139943Y-60566248D02*
G01*
X101695189Y-60796238D01*
X101775856Y-60850138D01*
X102194899Y-61130134D01*
X102619866Y-61555101D01*
X102693000Y-61664554D01*
X102953762Y-62054811D01*
X103183752Y-62610057D01*
X103301000Y-63199501D01*
X103301000Y-63800499D01*
X103183752Y-64389943D01*
X102953762Y-64945189D01*
X102858892Y-65087171D01*
X102619866Y-65444899D01*
X102194899Y-65869866D01*
X102120736Y-65919420D01*
X101695189Y-66203762D01*
X101139943Y-66433752D01*
X100550499Y-66551000D01*
X99949501Y-66551000D01*
X99360057Y-66433752D01*
X98804811Y-66203762D01*
X98379264Y-65919420D01*
X98305101Y-65869866D01*
X97880134Y-65444899D01*
X97641108Y-65087171D01*
X97546238Y-64945189D01*
X97316248Y-64389943D01*
X97199000Y-63800499D01*
X97199000Y-63199501D01*
X97316248Y-62610057D01*
X97546238Y-62054811D01*
X97807000Y-61664554D01*
X97880134Y-61555101D01*
X98305101Y-61130134D01*
X98724144Y-60850138D01*
X98804811Y-60796238D01*
X99360057Y-60566248D01*
X99949501Y-60449000D01*
X100550499Y-60449000D01*
X101139943Y-60566248D01*
X101139943Y-60566248D01*
G37*
G36*
X40001000Y-66251000D02*
G01*
X34499000Y-66251000D01*
X34499000Y-62249000D01*
X40001000Y-62249000D01*
X40001000Y-66251000D01*
X40001000Y-66251000D01*
G37*
G36*
X77336000Y-66036000D02*
G01*
X76074000Y-66036000D01*
X76074000Y-64464000D01*
X77336000Y-64464000D01*
X77336000Y-66036000D01*
X77336000Y-66036000D01*
G37*
G36*
X79116000Y-66036000D02*
G01*
X77854000Y-66036000D01*
X77854000Y-64464000D01*
X79116000Y-64464000D01*
X79116000Y-66036000D01*
X79116000Y-66036000D01*
G37*
G36*
X25836425Y-63742760D02*
G01*
X25836428Y-63742761D01*
X25836429Y-63742761D01*
X26015693Y-63797140D01*
X26015696Y-63797142D01*
X26015697Y-63797142D01*
X26180903Y-63885446D01*
X26325712Y-64004288D01*
X26444554Y-64149097D01*
X26518707Y-64287829D01*
X26532860Y-64314307D01*
X26581263Y-64473871D01*
X26587240Y-64493575D01*
X26605601Y-64680000D01*
X26587240Y-64866425D01*
X26587239Y-64866428D01*
X26587239Y-64866429D01*
X26532860Y-65045693D01*
X26532858Y-65045696D01*
X26532858Y-65045697D01*
X26444554Y-65210903D01*
X26325712Y-65355712D01*
X26180903Y-65474554D01*
X26015697Y-65562858D01*
X26015693Y-65562860D01*
X25836429Y-65617239D01*
X25836428Y-65617239D01*
X25836425Y-65617240D01*
X25696718Y-65631000D01*
X23803282Y-65631000D01*
X23663575Y-65617240D01*
X23663572Y-65617239D01*
X23663571Y-65617239D01*
X23484307Y-65562860D01*
X23484303Y-65562858D01*
X23319097Y-65474554D01*
X23174288Y-65355712D01*
X23055446Y-65210903D01*
X22967142Y-65045697D01*
X22967142Y-65045696D01*
X22967140Y-65045693D01*
X22912761Y-64866429D01*
X22912761Y-64866428D01*
X22912760Y-64866425D01*
X22894399Y-64680000D01*
X22912760Y-64493575D01*
X22918737Y-64473871D01*
X22967140Y-64314307D01*
X22981293Y-64287829D01*
X23055446Y-64149097D01*
X23174288Y-64004288D01*
X23319097Y-63885446D01*
X23484303Y-63797142D01*
X23484304Y-63797142D01*
X23484307Y-63797140D01*
X23663571Y-63742761D01*
X23663572Y-63742761D01*
X23663575Y-63742760D01*
X23803282Y-63729000D01*
X25696718Y-63729000D01*
X25836425Y-63742760D01*
X25836425Y-63742760D01*
G37*
G36*
X74422500Y-65490500D02*
G01*
X71577500Y-65490500D01*
X71577500Y-63229500D01*
X74422500Y-63229500D01*
X74422500Y-65490500D01*
X74422500Y-65490500D01*
G37*
G36*
X55216500Y-64956000D02*
G01*
X52320500Y-64956000D01*
X52320500Y-61044000D01*
X55216500Y-61044000D01*
X55216500Y-64956000D01*
X55216500Y-64956000D01*
G37*
G36*
X48079500Y-64956000D02*
G01*
X45183500Y-64956000D01*
X45183500Y-61044000D01*
X48079500Y-61044000D01*
X48079500Y-64956000D01*
X48079500Y-64956000D01*
G37*
G36*
X90270104Y-62609585D02*
G01*
X90438626Y-62679389D01*
X90590291Y-62780728D01*
X90719272Y-62909709D01*
X90820611Y-63061374D01*
X90890415Y-63229896D01*
X90926000Y-63408797D01*
X90926000Y-63591203D01*
X90890415Y-63770104D01*
X90820611Y-63938626D01*
X90719272Y-64090291D01*
X90590291Y-64219272D01*
X90438626Y-64320611D01*
X90270104Y-64390415D01*
X90091203Y-64426000D01*
X89908797Y-64426000D01*
X89729896Y-64390415D01*
X89561374Y-64320611D01*
X89409709Y-64219272D01*
X89280728Y-64090291D01*
X89179389Y-63938626D01*
X89109585Y-63770104D01*
X89074000Y-63591203D01*
X89074000Y-63408797D01*
X89109585Y-63229896D01*
X89179389Y-63061374D01*
X89280728Y-62909709D01*
X89409709Y-62780728D01*
X89561374Y-62679389D01*
X89729896Y-62609585D01*
X89908797Y-62574000D01*
X90091203Y-62574000D01*
X90270104Y-62609585D01*
X90270104Y-62609585D01*
G37*
G36*
X85926000Y-64426000D02*
G01*
X84074000Y-64426000D01*
X84074000Y-62574000D01*
X85926000Y-62574000D01*
X85926000Y-64426000D01*
X85926000Y-64426000D01*
G37*
G36*
X87770104Y-62609585D02*
G01*
X87938626Y-62679389D01*
X88090291Y-62780728D01*
X88219272Y-62909709D01*
X88320611Y-63061374D01*
X88390415Y-63229896D01*
X88426000Y-63408797D01*
X88426000Y-63591203D01*
X88390415Y-63770104D01*
X88320611Y-63938626D01*
X88219272Y-64090291D01*
X88090291Y-64219272D01*
X87938626Y-64320611D01*
X87770104Y-64390415D01*
X87591203Y-64426000D01*
X87408797Y-64426000D01*
X87229896Y-64390415D01*
X87061374Y-64320611D01*
X86909709Y-64219272D01*
X86780728Y-64090291D01*
X86679389Y-63938626D01*
X86609585Y-63770104D01*
X86574000Y-63591203D01*
X86574000Y-63408797D01*
X86609585Y-63229896D01*
X86679389Y-63061374D01*
X86780728Y-62909709D01*
X86909709Y-62780728D01*
X87061374Y-62679389D01*
X87229896Y-62609585D01*
X87408797Y-62574000D01*
X87591203Y-62574000D01*
X87770104Y-62609585D01*
X87770104Y-62609585D01*
G37*
G36*
X92770104Y-62609585D02*
G01*
X92938626Y-62679389D01*
X93090291Y-62780728D01*
X93219272Y-62909709D01*
X93320611Y-63061374D01*
X93390415Y-63229896D01*
X93426000Y-63408797D01*
X93426000Y-63591203D01*
X93390415Y-63770104D01*
X93320611Y-63938626D01*
X93219272Y-64090291D01*
X93090291Y-64219272D01*
X92938626Y-64320611D01*
X92770104Y-64390415D01*
X92591203Y-64426000D01*
X92408797Y-64426000D01*
X92229896Y-64390415D01*
X92061374Y-64320611D01*
X91909709Y-64219272D01*
X91780728Y-64090291D01*
X91679389Y-63938626D01*
X91609585Y-63770104D01*
X91574000Y-63591203D01*
X91574000Y-63408797D01*
X91609585Y-63229896D01*
X91679389Y-63061374D01*
X91780728Y-62909709D01*
X91909709Y-62780728D01*
X92061374Y-62679389D01*
X92229896Y-62609585D01*
X92408797Y-62574000D01*
X92591203Y-62574000D01*
X92770104Y-62609585D01*
X92770104Y-62609585D01*
G37*
G36*
X77434335Y-62174934D02*
G01*
X77473610Y-62178802D01*
X77524002Y-62194089D01*
X77549199Y-62201732D01*
X77618862Y-62238968D01*
X77679922Y-62289078D01*
X77730032Y-62350138D01*
X77767268Y-62419801D01*
X77767268Y-62419802D01*
X77790198Y-62495390D01*
X77797940Y-62574000D01*
X77790198Y-62652610D01*
X77782074Y-62679389D01*
X77767268Y-62728199D01*
X77730032Y-62797862D01*
X77679922Y-62858922D01*
X77618862Y-62909032D01*
X77549199Y-62946268D01*
X77524002Y-62953911D01*
X77473610Y-62969198D01*
X77434335Y-62973066D01*
X77414699Y-62975000D01*
X76175301Y-62975000D01*
X76155665Y-62973066D01*
X76116390Y-62969198D01*
X76065998Y-62953911D01*
X76040801Y-62946268D01*
X75971138Y-62909032D01*
X75910078Y-62858922D01*
X75859968Y-62797862D01*
X75822732Y-62728199D01*
X75807926Y-62679389D01*
X75799802Y-62652610D01*
X75792060Y-62574000D01*
X75799802Y-62495390D01*
X75822732Y-62419802D01*
X75822732Y-62419801D01*
X75859968Y-62350138D01*
X75910078Y-62289078D01*
X75971138Y-62238968D01*
X76040801Y-62201732D01*
X76065998Y-62194089D01*
X76116390Y-62178802D01*
X76155665Y-62174934D01*
X76175301Y-62173000D01*
X77414699Y-62173000D01*
X77434335Y-62174934D01*
X77434335Y-62174934D01*
G37*
G36*
X69661000Y-62856000D02*
G01*
X66839000Y-62856000D01*
X66839000Y-61594000D01*
X69661000Y-61594000D01*
X69661000Y-62856000D01*
X69661000Y-62856000D01*
G37*
G36*
X65661000Y-62856000D02*
G01*
X62839000Y-62856000D01*
X62839000Y-61594000D01*
X65661000Y-61594000D01*
X65661000Y-62856000D01*
X65661000Y-62856000D01*
G37*
G36*
X61701000Y-62856000D02*
G01*
X59799000Y-62856000D01*
X59799000Y-61624000D01*
X61701000Y-61624000D01*
X61701000Y-62856000D01*
X61701000Y-62856000D01*
G37*
G36*
X58786000Y-62751000D02*
G01*
X57214000Y-62751000D01*
X57214000Y-61489000D01*
X58786000Y-61489000D01*
X58786000Y-62751000D01*
X58786000Y-62751000D01*
G37*
G36*
X80148097Y-60028069D02*
G01*
X80251032Y-60038207D01*
X80449146Y-60098305D01*
X80449149Y-60098306D01*
X80545975Y-60150061D01*
X80631729Y-60195897D01*
X80791765Y-60327235D01*
X80923103Y-60487271D01*
X80965317Y-60566248D01*
X81020694Y-60669851D01*
X81020695Y-60669854D01*
X81080793Y-60867968D01*
X81101085Y-61074000D01*
X81080793Y-61280032D01*
X81041661Y-61409032D01*
X81020694Y-61478149D01*
X80979562Y-61555101D01*
X80923103Y-61660729D01*
X80791765Y-61820765D01*
X80631729Y-61952103D01*
X80545975Y-61997939D01*
X80449149Y-62049694D01*
X80449146Y-62049695D01*
X80251032Y-62109793D01*
X80148097Y-62119931D01*
X80096631Y-62125000D01*
X78493369Y-62125000D01*
X78441903Y-62119931D01*
X78338968Y-62109793D01*
X78140854Y-62049695D01*
X78140851Y-62049694D01*
X78044025Y-61997939D01*
X77958271Y-61952103D01*
X77798235Y-61820765D01*
X77666897Y-61660729D01*
X77602941Y-61541075D01*
X77589328Y-61520701D01*
X77572001Y-61503374D01*
X77551626Y-61489760D01*
X77528987Y-61480382D01*
X77504954Y-61475602D01*
X77492702Y-61475000D01*
X76175301Y-61475000D01*
X76155665Y-61473066D01*
X76116390Y-61469198D01*
X76065998Y-61453911D01*
X76040801Y-61446268D01*
X75971138Y-61409032D01*
X75910078Y-61358922D01*
X75859968Y-61297862D01*
X75822732Y-61228199D01*
X75815089Y-61203002D01*
X75799802Y-61152610D01*
X75792060Y-61074000D01*
X75799802Y-60995390D01*
X75822732Y-60919802D01*
X75822732Y-60919801D01*
X75859968Y-60850138D01*
X75910078Y-60789078D01*
X75971138Y-60738968D01*
X76040801Y-60701732D01*
X76065998Y-60694089D01*
X76116390Y-60678802D01*
X76165148Y-60674000D01*
X76175301Y-60673000D01*
X77492702Y-60673000D01*
X77517088Y-60670598D01*
X77540537Y-60663485D01*
X77562148Y-60651934D01*
X77581090Y-60636389D01*
X77596635Y-60617447D01*
X77602941Y-60606925D01*
X77624683Y-60566248D01*
X77666897Y-60487271D01*
X77798235Y-60327235D01*
X77958271Y-60195897D01*
X78044025Y-60150061D01*
X78140851Y-60098306D01*
X78140854Y-60098305D01*
X78338968Y-60038207D01*
X78441903Y-60028069D01*
X78493369Y-60023000D01*
X80096631Y-60023000D01*
X80148097Y-60028069D01*
X80148097Y-60028069D01*
G37*
G36*
X25836425Y-59932760D02*
G01*
X25836428Y-59932761D01*
X25836429Y-59932761D01*
X26015693Y-59987140D01*
X26015696Y-59987142D01*
X26015697Y-59987142D01*
X26180903Y-60075446D01*
X26325712Y-60194288D01*
X26444554Y-60339097D01*
X26503298Y-60449000D01*
X26532860Y-60504307D01*
X26585792Y-60678802D01*
X26587240Y-60683575D01*
X26605601Y-60870000D01*
X26587240Y-61056425D01*
X26587239Y-61056428D01*
X26587239Y-61056429D01*
X26532860Y-61235693D01*
X26532858Y-61235696D01*
X26532858Y-61235697D01*
X26444554Y-61400903D01*
X26325712Y-61545712D01*
X26180903Y-61664554D01*
X26015697Y-61752858D01*
X26015693Y-61752860D01*
X25836429Y-61807239D01*
X25836428Y-61807239D01*
X25836425Y-61807240D01*
X25696718Y-61821000D01*
X23803282Y-61821000D01*
X23663575Y-61807240D01*
X23663572Y-61807239D01*
X23663571Y-61807239D01*
X23484307Y-61752860D01*
X23484303Y-61752858D01*
X23319097Y-61664554D01*
X23174288Y-61545712D01*
X23055446Y-61400903D01*
X22967142Y-61235697D01*
X22967142Y-61235696D01*
X22967140Y-61235693D01*
X22912761Y-61056429D01*
X22912761Y-61056428D01*
X22912760Y-61056425D01*
X22894399Y-60870000D01*
X22912760Y-60683575D01*
X22914208Y-60678802D01*
X22967140Y-60504307D01*
X22996702Y-60449000D01*
X23055446Y-60339097D01*
X23174288Y-60194288D01*
X23319097Y-60075446D01*
X23484303Y-59987142D01*
X23484304Y-59987142D01*
X23484307Y-59987140D01*
X23663571Y-59932761D01*
X23663572Y-59932761D01*
X23663575Y-59932760D01*
X23803282Y-59919000D01*
X25696718Y-59919000D01*
X25836425Y-59932760D01*
X25836425Y-59932760D01*
G37*
G36*
X74422500Y-61070500D02*
G01*
X71577500Y-61070500D01*
X71577500Y-58809500D01*
X74422500Y-58809500D01*
X74422500Y-61070500D01*
X74422500Y-61070500D01*
G37*
G36*
X58786000Y-60971000D02*
G01*
X57214000Y-60971000D01*
X57214000Y-59709000D01*
X58786000Y-59709000D01*
X58786000Y-60971000D01*
X58786000Y-60971000D01*
G37*
G36*
X77434335Y-59174934D02*
G01*
X77473610Y-59178802D01*
X77524002Y-59194089D01*
X77549199Y-59201732D01*
X77618862Y-59238968D01*
X77679922Y-59289078D01*
X77730032Y-59350138D01*
X77767268Y-59419801D01*
X77767268Y-59419802D01*
X77790198Y-59495390D01*
X77797940Y-59574000D01*
X77790198Y-59652610D01*
X77774911Y-59703002D01*
X77767268Y-59728199D01*
X77730032Y-59797862D01*
X77679922Y-59858922D01*
X77618862Y-59909032D01*
X77549199Y-59946268D01*
X77524002Y-59953911D01*
X77473610Y-59969198D01*
X77434335Y-59973066D01*
X77414699Y-59975000D01*
X76175301Y-59975000D01*
X76155665Y-59973066D01*
X76116390Y-59969198D01*
X76065998Y-59953911D01*
X76040801Y-59946268D01*
X75971138Y-59909032D01*
X75910078Y-59858922D01*
X75859968Y-59797862D01*
X75822732Y-59728199D01*
X75815089Y-59703002D01*
X75799802Y-59652610D01*
X75792060Y-59574000D01*
X75799802Y-59495390D01*
X75822732Y-59419802D01*
X75822732Y-59419801D01*
X75859968Y-59350138D01*
X75910078Y-59289078D01*
X75971138Y-59238968D01*
X76040801Y-59201732D01*
X76065998Y-59194089D01*
X76116390Y-59178802D01*
X76155665Y-59174934D01*
X76175301Y-59173000D01*
X77414699Y-59173000D01*
X77434335Y-59174934D01*
X77434335Y-59174934D01*
G37*
G36*
X69661000Y-59906000D02*
G01*
X66839000Y-59906000D01*
X66839000Y-58644000D01*
X69661000Y-58644000D01*
X69661000Y-59906000D01*
X69661000Y-59906000D01*
G37*
G36*
X65661000Y-59906000D02*
G01*
X62839000Y-59906000D01*
X62839000Y-58644000D01*
X65661000Y-58644000D01*
X65661000Y-59906000D01*
X65661000Y-59906000D01*
G37*
G36*
X61701000Y-59876000D02*
G01*
X59799000Y-59876000D01*
X59799000Y-58644000D01*
X61701000Y-58644000D01*
X61701000Y-59876000D01*
X61701000Y-59876000D01*
G37*
G36*
X47036000Y-58894000D02*
G01*
X45464000Y-58894000D01*
X45464000Y-57632000D01*
X47036000Y-57632000D01*
X47036000Y-58894000D01*
X47036000Y-58894000D01*
G37*
G36*
X50036000Y-58894000D02*
G01*
X48464000Y-58894000D01*
X48464000Y-57632000D01*
X50036000Y-57632000D01*
X50036000Y-58894000D01*
X50036000Y-58894000D01*
G37*
G36*
X55676000Y-58741001D02*
G01*
X53924000Y-58741001D01*
X53924000Y-56259001D01*
X55676000Y-56259001D01*
X55676000Y-58741001D01*
X55676000Y-58741001D01*
G37*
G36*
X53375000Y-58700001D02*
G01*
X51825000Y-58700001D01*
X51825000Y-56300001D01*
X53375000Y-56300001D01*
X53375000Y-58700001D01*
X53375000Y-58700001D01*
G37*
G36*
X57775000Y-58700001D02*
G01*
X56225000Y-58700001D01*
X56225000Y-56300001D01*
X57775000Y-56300001D01*
X57775000Y-58700001D01*
X57775000Y-58700001D01*
G37*
G36*
X84515000Y-58444000D02*
G01*
X83253000Y-58444000D01*
X83253000Y-56872000D01*
X84515000Y-56872000D01*
X84515000Y-58444000D01*
X84515000Y-58444000D01*
G37*
G36*
X82735000Y-58444000D02*
G01*
X81473000Y-58444000D01*
X81473000Y-56872000D01*
X82735000Y-56872000D01*
X82735000Y-58444000D01*
X82735000Y-58444000D01*
G37*
G36*
X77336000Y-58060000D02*
G01*
X76074000Y-58060000D01*
X76074000Y-56488000D01*
X77336000Y-56488000D01*
X77336000Y-58060000D01*
X77336000Y-58060000D01*
G37*
G36*
X79116000Y-58060000D02*
G01*
X77854000Y-58060000D01*
X77854000Y-56488000D01*
X79116000Y-56488000D01*
X79116000Y-58060000D01*
X79116000Y-58060000D01*
G37*
G36*
X25836425Y-56122760D02*
G01*
X25836428Y-56122761D01*
X25836429Y-56122761D01*
X26015693Y-56177140D01*
X26015696Y-56177142D01*
X26015697Y-56177142D01*
X26180903Y-56265446D01*
X26325712Y-56384288D01*
X26444554Y-56529097D01*
X26532858Y-56694303D01*
X26532860Y-56694307D01*
X26586459Y-56871000D01*
X26587240Y-56873575D01*
X26605601Y-57060000D01*
X26587240Y-57246425D01*
X26587239Y-57246428D01*
X26587239Y-57246429D01*
X26532860Y-57425693D01*
X26532858Y-57425696D01*
X26532858Y-57425697D01*
X26444554Y-57590903D01*
X26325712Y-57735712D01*
X26180903Y-57854554D01*
X26015697Y-57942858D01*
X26015693Y-57942860D01*
X25836429Y-57997239D01*
X25836428Y-57997239D01*
X25836425Y-57997240D01*
X25696718Y-58011000D01*
X23803282Y-58011000D01*
X23663575Y-57997240D01*
X23663572Y-57997239D01*
X23663571Y-57997239D01*
X23484307Y-57942860D01*
X23484303Y-57942858D01*
X23319097Y-57854554D01*
X23174288Y-57735712D01*
X23055446Y-57590903D01*
X22967142Y-57425697D01*
X22967142Y-57425696D01*
X22967140Y-57425693D01*
X22912761Y-57246429D01*
X22912761Y-57246428D01*
X22912760Y-57246425D01*
X22894399Y-57060000D01*
X22912760Y-56873575D01*
X22913541Y-56871000D01*
X22967140Y-56694307D01*
X22967142Y-56694303D01*
X23055446Y-56529097D01*
X23174288Y-56384288D01*
X23319097Y-56265446D01*
X23484303Y-56177142D01*
X23484304Y-56177142D01*
X23484307Y-56177140D01*
X23663571Y-56122761D01*
X23663572Y-56122761D01*
X23663575Y-56122760D01*
X23803282Y-56109000D01*
X25696718Y-56109000D01*
X25836425Y-56122760D01*
X25836425Y-56122760D01*
G37*
G36*
X89191000Y-57536000D02*
G01*
X87929000Y-57536000D01*
X87929000Y-55964000D01*
X89191000Y-55964000D01*
X89191000Y-57536000D01*
X89191000Y-57536000D01*
G37*
G36*
X90971000Y-57536000D02*
G01*
X89709000Y-57536000D01*
X89709000Y-55964000D01*
X90971000Y-55964000D01*
X90971000Y-57536000D01*
X90971000Y-57536000D01*
G37*
G36*
X74451000Y-57356000D02*
G01*
X72549000Y-57356000D01*
X72549000Y-56124000D01*
X74451000Y-56124000D01*
X74451000Y-57356000D01*
X74451000Y-57356000D01*
G37*
G36*
X70701000Y-57356000D02*
G01*
X68799000Y-57356000D01*
X68799000Y-56124000D01*
X70701000Y-56124000D01*
X70701000Y-57356000D01*
X70701000Y-57356000D01*
G37*
G36*
X47036000Y-57114000D02*
G01*
X45464000Y-57114000D01*
X45464000Y-55852000D01*
X47036000Y-55852000D01*
X47036000Y-57114000D01*
X47036000Y-57114000D01*
G37*
G36*
X50036000Y-57114000D02*
G01*
X48464000Y-57114000D01*
X48464000Y-55852000D01*
X50036000Y-55852000D01*
X50036000Y-57114000D01*
X50036000Y-57114000D01*
G37*
G36*
X64886000Y-57071000D02*
G01*
X63314000Y-57071000D01*
X63314000Y-55809000D01*
X64886000Y-55809000D01*
X64886000Y-57071000D01*
X64886000Y-57071000D01*
G37*
G36*
X61286000Y-57021000D02*
G01*
X59714000Y-57021000D01*
X59714000Y-55759000D01*
X61286000Y-55759000D01*
X61286000Y-57021000D01*
X61286000Y-57021000D01*
G37*
G36*
X67686000Y-56871000D02*
G01*
X66114000Y-56871000D01*
X66114000Y-55609000D01*
X67686000Y-55609000D01*
X67686000Y-56871000D01*
X67686000Y-56871000D01*
G37*
G36*
X84515000Y-56036000D02*
G01*
X83253000Y-56036000D01*
X83253000Y-54464000D01*
X84515000Y-54464000D01*
X84515000Y-56036000D01*
X84515000Y-56036000D01*
G37*
G36*
X82735000Y-56036000D02*
G01*
X81473000Y-56036000D01*
X81473000Y-54464000D01*
X82735000Y-54464000D01*
X82735000Y-56036000D01*
X82735000Y-56036000D01*
G37*
G36*
X64886000Y-55291000D02*
G01*
X63314000Y-55291000D01*
X63314000Y-54029000D01*
X64886000Y-54029000D01*
X64886000Y-55291000D01*
X64886000Y-55291000D01*
G37*
G36*
X57821000Y-55286000D02*
G01*
X56559000Y-55286000D01*
X56559000Y-53714000D01*
X57821000Y-53714000D01*
X57821000Y-55286000D01*
X57821000Y-55286000D01*
G37*
G36*
X56041000Y-55286000D02*
G01*
X54779000Y-55286000D01*
X54779000Y-53714000D01*
X56041000Y-53714000D01*
X56041000Y-55286000D01*
X56041000Y-55286000D01*
G37*
G36*
X53110000Y-55242000D02*
G01*
X51538000Y-55242000D01*
X51538000Y-53980000D01*
X53110000Y-53980000D01*
X53110000Y-55242000D01*
X53110000Y-55242000D01*
G37*
G36*
X61286000Y-55241000D02*
G01*
X59714000Y-55241000D01*
X59714000Y-53979000D01*
X61286000Y-53979000D01*
X61286000Y-55241000D01*
X61286000Y-55241000D01*
G37*
G36*
X67686000Y-55091000D02*
G01*
X66114000Y-55091000D01*
X66114000Y-53829000D01*
X67686000Y-53829000D01*
X67686000Y-55091000D01*
X67686000Y-55091000D01*
G37*
G36*
X95286000Y-55021000D02*
G01*
X93714000Y-55021000D01*
X93714000Y-53759000D01*
X95286000Y-53759000D01*
X95286000Y-55021000D01*
X95286000Y-55021000D01*
G37*
G36*
X92439335Y-54055934D02*
G01*
X92478610Y-54059802D01*
X92529002Y-54075089D01*
X92554199Y-54082732D01*
X92623862Y-54119968D01*
X92684922Y-54170078D01*
X92735032Y-54231138D01*
X92772268Y-54300801D01*
X92772268Y-54300802D01*
X92795198Y-54376390D01*
X92802940Y-54455000D01*
X92795198Y-54533610D01*
X92779911Y-54584002D01*
X92772268Y-54609199D01*
X92735032Y-54678862D01*
X92684922Y-54739922D01*
X92623862Y-54790032D01*
X92554199Y-54827268D01*
X92529002Y-54834911D01*
X92478610Y-54850198D01*
X92439335Y-54854066D01*
X92419699Y-54856000D01*
X91280301Y-54856000D01*
X91260665Y-54854066D01*
X91221390Y-54850198D01*
X91170998Y-54834911D01*
X91145801Y-54827268D01*
X91076138Y-54790032D01*
X91015078Y-54739922D01*
X90964968Y-54678862D01*
X90927732Y-54609199D01*
X90920089Y-54584002D01*
X90904802Y-54533610D01*
X90897060Y-54455000D01*
X90904802Y-54376390D01*
X90927732Y-54300802D01*
X90927732Y-54300801D01*
X90964968Y-54231138D01*
X91015078Y-54170078D01*
X91076138Y-54119968D01*
X91145801Y-54082732D01*
X91170998Y-54075089D01*
X91221390Y-54059802D01*
X91260665Y-54055934D01*
X91280301Y-54054000D01*
X92419699Y-54054000D01*
X92439335Y-54055934D01*
X92439335Y-54055934D01*
G37*
G36*
X87239335Y-54055934D02*
G01*
X87278610Y-54059802D01*
X87329002Y-54075089D01*
X87354199Y-54082732D01*
X87423862Y-54119968D01*
X87484922Y-54170078D01*
X87535032Y-54231138D01*
X87572268Y-54300801D01*
X87572268Y-54300802D01*
X87595198Y-54376390D01*
X87602940Y-54455000D01*
X87595198Y-54533610D01*
X87579911Y-54584002D01*
X87572268Y-54609199D01*
X87535032Y-54678862D01*
X87484922Y-54739922D01*
X87423862Y-54790032D01*
X87354199Y-54827268D01*
X87329002Y-54834911D01*
X87278610Y-54850198D01*
X87239335Y-54854066D01*
X87219699Y-54856000D01*
X86080301Y-54856000D01*
X86060665Y-54854066D01*
X86021390Y-54850198D01*
X85970998Y-54834911D01*
X85945801Y-54827268D01*
X85876138Y-54790032D01*
X85815078Y-54739922D01*
X85764968Y-54678862D01*
X85727732Y-54609199D01*
X85720089Y-54584002D01*
X85704802Y-54533610D01*
X85697060Y-54455000D01*
X85704802Y-54376390D01*
X85727732Y-54300802D01*
X85727732Y-54300801D01*
X85764968Y-54231138D01*
X85815078Y-54170078D01*
X85876138Y-54119968D01*
X85945801Y-54082732D01*
X85970998Y-54075089D01*
X86021390Y-54059802D01*
X86060665Y-54055934D01*
X86080301Y-54054000D01*
X87219699Y-54054000D01*
X87239335Y-54055934D01*
X87239335Y-54055934D01*
G37*
G36*
X49908000Y-54761000D02*
G01*
X48646000Y-54761000D01*
X48646000Y-53189000D01*
X49908000Y-53189000D01*
X49908000Y-54761000D01*
X49908000Y-54761000D01*
G37*
G36*
X48128000Y-54761000D02*
G01*
X46866000Y-54761000D01*
X46866000Y-53189000D01*
X48128000Y-53189000D01*
X48128000Y-54761000D01*
X48128000Y-54761000D01*
G37*
G36*
X74451000Y-54376000D02*
G01*
X72549000Y-54376000D01*
X72549000Y-53144000D01*
X74451000Y-53144000D01*
X74451000Y-54376000D01*
X74451000Y-54376000D01*
G37*
G36*
X70701000Y-54376000D02*
G01*
X68799000Y-54376000D01*
X68799000Y-53144000D01*
X70701000Y-53144000D01*
X70701000Y-54376000D01*
X70701000Y-54376000D01*
G37*
G36*
X40001000Y-54251000D02*
G01*
X34499000Y-54251000D01*
X34499000Y-50249000D01*
X40001000Y-50249000D01*
X40001000Y-54251000D01*
X40001000Y-54251000D01*
G37*
G36*
X26601000Y-54201000D02*
G01*
X22899000Y-54201000D01*
X22899000Y-52299000D01*
X26601000Y-52299000D01*
X26601000Y-54201000D01*
X26601000Y-54201000D01*
G37*
G36*
X92439335Y-52785934D02*
G01*
X92478610Y-52789802D01*
X92529002Y-52805089D01*
X92554199Y-52812732D01*
X92623862Y-52849968D01*
X92684922Y-52900078D01*
X92735032Y-52961138D01*
X92772268Y-53030801D01*
X92772268Y-53030802D01*
X92795198Y-53106390D01*
X92802940Y-53185000D01*
X92795198Y-53263610D01*
X92792956Y-53271000D01*
X92772268Y-53339199D01*
X92735032Y-53408862D01*
X92684922Y-53469922D01*
X92623862Y-53520032D01*
X92554199Y-53557268D01*
X92529002Y-53564911D01*
X92478610Y-53580198D01*
X92439335Y-53584066D01*
X92419699Y-53586000D01*
X91280301Y-53586000D01*
X91260665Y-53584066D01*
X91221390Y-53580198D01*
X91170998Y-53564911D01*
X91145801Y-53557268D01*
X91076138Y-53520032D01*
X91015078Y-53469922D01*
X90964968Y-53408862D01*
X90927732Y-53339199D01*
X90907044Y-53271000D01*
X90904802Y-53263610D01*
X90897060Y-53185000D01*
X90904802Y-53106390D01*
X90927732Y-53030802D01*
X90927732Y-53030801D01*
X90964968Y-52961138D01*
X91015078Y-52900078D01*
X91076138Y-52849968D01*
X91145801Y-52812732D01*
X91170998Y-52805089D01*
X91221390Y-52789802D01*
X91260665Y-52785934D01*
X91280301Y-52784000D01*
X92419699Y-52784000D01*
X92439335Y-52785934D01*
X92439335Y-52785934D01*
G37*
G36*
X87239335Y-52785934D02*
G01*
X87278610Y-52789802D01*
X87329002Y-52805089D01*
X87354199Y-52812732D01*
X87423862Y-52849968D01*
X87484922Y-52900078D01*
X87535032Y-52961138D01*
X87572268Y-53030801D01*
X87572268Y-53030802D01*
X87595198Y-53106390D01*
X87602940Y-53185000D01*
X87595198Y-53263610D01*
X87592956Y-53271000D01*
X87572268Y-53339199D01*
X87535032Y-53408862D01*
X87484922Y-53469922D01*
X87423862Y-53520032D01*
X87354199Y-53557268D01*
X87329002Y-53564911D01*
X87278610Y-53580198D01*
X87239335Y-53584066D01*
X87219699Y-53586000D01*
X86080301Y-53586000D01*
X86060665Y-53584066D01*
X86021390Y-53580198D01*
X85970998Y-53564911D01*
X85945801Y-53557268D01*
X85876138Y-53520032D01*
X85815078Y-53469922D01*
X85764968Y-53408862D01*
X85727732Y-53339199D01*
X85707044Y-53271000D01*
X85704802Y-53263610D01*
X85697060Y-53185000D01*
X85704802Y-53106390D01*
X85727732Y-53030802D01*
X85727732Y-53030801D01*
X85764968Y-52961138D01*
X85815078Y-52900078D01*
X85876138Y-52849968D01*
X85945801Y-52812732D01*
X85970998Y-52805089D01*
X86021390Y-52789802D01*
X86060665Y-52785934D01*
X86080301Y-52784000D01*
X87219699Y-52784000D01*
X87239335Y-52785934D01*
X87239335Y-52785934D01*
G37*
G36*
X53110000Y-53462000D02*
G01*
X51538000Y-53462000D01*
X51538000Y-52200000D01*
X53110000Y-52200000D01*
X53110000Y-53462000D01*
X53110000Y-53462000D01*
G37*
G36*
X84786000Y-53271000D02*
G01*
X83214000Y-53271000D01*
X83214000Y-52009000D01*
X84786000Y-52009000D01*
X84786000Y-53271000D01*
X84786000Y-53271000D01*
G37*
G36*
X95286000Y-53241000D02*
G01*
X93714000Y-53241000D01*
X93714000Y-51979000D01*
X95286000Y-51979000D01*
X95286000Y-53241000D01*
X95286000Y-53241000D01*
G37*
G36*
X62411000Y-52856000D02*
G01*
X61149000Y-52856000D01*
X61149000Y-51284000D01*
X62411000Y-51284000D01*
X62411000Y-52856000D01*
X62411000Y-52856000D01*
G37*
G36*
X60631000Y-52856000D02*
G01*
X59369000Y-52856000D01*
X59369000Y-51284000D01*
X60631000Y-51284000D01*
X60631000Y-52856000D01*
X60631000Y-52856000D01*
G37*
G36*
X56151000Y-52721000D02*
G01*
X54849000Y-52721000D01*
X54849000Y-51419000D01*
X56151000Y-51419000D01*
X56151000Y-52721000D01*
X56151000Y-52721000D01*
G37*
G36*
X58351000Y-52721000D02*
G01*
X57049000Y-52721000D01*
X57049000Y-51419000D01*
X58351000Y-51419000D01*
X58351000Y-52721000D01*
X58351000Y-52721000D01*
G37*
G36*
X92439335Y-51515934D02*
G01*
X92478610Y-51519802D01*
X92529002Y-51535089D01*
X92554199Y-51542732D01*
X92623862Y-51579968D01*
X92684922Y-51630078D01*
X92735032Y-51691138D01*
X92772268Y-51760801D01*
X92772268Y-51760802D01*
X92795198Y-51836390D01*
X92802940Y-51915000D01*
X92795198Y-51993610D01*
X92790529Y-52009000D01*
X92772268Y-52069199D01*
X92735032Y-52138862D01*
X92684922Y-52199922D01*
X92623862Y-52250032D01*
X92554199Y-52287268D01*
X92529002Y-52294911D01*
X92478610Y-52310198D01*
X92439335Y-52314066D01*
X92419699Y-52316000D01*
X91280301Y-52316000D01*
X91260665Y-52314066D01*
X91221390Y-52310198D01*
X91170998Y-52294911D01*
X91145801Y-52287268D01*
X91076138Y-52250032D01*
X91015078Y-52199922D01*
X90964968Y-52138862D01*
X90927732Y-52069199D01*
X90909471Y-52009000D01*
X90904802Y-51993610D01*
X90897060Y-51915000D01*
X90904802Y-51836390D01*
X90927732Y-51760802D01*
X90927732Y-51760801D01*
X90964968Y-51691138D01*
X91015078Y-51630078D01*
X91076138Y-51579968D01*
X91145801Y-51542732D01*
X91170998Y-51535089D01*
X91221390Y-51519802D01*
X91260665Y-51515934D01*
X91280301Y-51514000D01*
X92419699Y-51514000D01*
X92439335Y-51515934D01*
X92439335Y-51515934D01*
G37*
G36*
X87239335Y-51515934D02*
G01*
X87278610Y-51519802D01*
X87329002Y-51535089D01*
X87354199Y-51542732D01*
X87423862Y-51579968D01*
X87484922Y-51630078D01*
X87535032Y-51691138D01*
X87572268Y-51760801D01*
X87572268Y-51760802D01*
X87595198Y-51836390D01*
X87602940Y-51915000D01*
X87595198Y-51993610D01*
X87590529Y-52009000D01*
X87572268Y-52069199D01*
X87535032Y-52138862D01*
X87484922Y-52199922D01*
X87423862Y-52250032D01*
X87354199Y-52287268D01*
X87329002Y-52294911D01*
X87278610Y-52310198D01*
X87239335Y-52314066D01*
X87219699Y-52316000D01*
X86080301Y-52316000D01*
X86060665Y-52314066D01*
X86021390Y-52310198D01*
X85970998Y-52294911D01*
X85945801Y-52287268D01*
X85876138Y-52250032D01*
X85815078Y-52199922D01*
X85764968Y-52138862D01*
X85727732Y-52069199D01*
X85709471Y-52009000D01*
X85704802Y-51993610D01*
X85697060Y-51915000D01*
X85704802Y-51836390D01*
X85727732Y-51760802D01*
X85727732Y-51760801D01*
X85764968Y-51691138D01*
X85815078Y-51630078D01*
X85876138Y-51579968D01*
X85945801Y-51542732D01*
X85970998Y-51535089D01*
X86021390Y-51519802D01*
X86060665Y-51515934D01*
X86080301Y-51514000D01*
X87219699Y-51514000D01*
X87239335Y-51515934D01*
X87239335Y-51515934D01*
G37*
G36*
X84786000Y-51491000D02*
G01*
X83214000Y-51491000D01*
X83214000Y-50229000D01*
X84786000Y-50229000D01*
X84786000Y-51491000D01*
X84786000Y-51491000D01*
G37*
G36*
X31451000Y-51151000D02*
G01*
X29749000Y-51151000D01*
X29749000Y-47549000D01*
X31451000Y-47549000D01*
X31451000Y-51151000D01*
X31451000Y-51151000D01*
G37*
G36*
X92439335Y-50245934D02*
G01*
X92478610Y-50249802D01*
X92529002Y-50265089D01*
X92554199Y-50272732D01*
X92623862Y-50309968D01*
X92684922Y-50360078D01*
X92735032Y-50421138D01*
X92772268Y-50490801D01*
X92772268Y-50490802D01*
X92795198Y-50566390D01*
X92802940Y-50645000D01*
X92795198Y-50723610D01*
X92779911Y-50774002D01*
X92772268Y-50799199D01*
X92735032Y-50868862D01*
X92684922Y-50929922D01*
X92623862Y-50980032D01*
X92554199Y-51017268D01*
X92529002Y-51024911D01*
X92478610Y-51040198D01*
X92439335Y-51044066D01*
X92419699Y-51046000D01*
X91280301Y-51046000D01*
X91260665Y-51044066D01*
X91221390Y-51040198D01*
X91170998Y-51024911D01*
X91145801Y-51017268D01*
X91076138Y-50980032D01*
X91015078Y-50929922D01*
X90964968Y-50868862D01*
X90927732Y-50799199D01*
X90920089Y-50774002D01*
X90904802Y-50723610D01*
X90897060Y-50645000D01*
X90904802Y-50566390D01*
X90927732Y-50490802D01*
X90927732Y-50490801D01*
X90964968Y-50421138D01*
X91015078Y-50360078D01*
X91076138Y-50309968D01*
X91145801Y-50272732D01*
X91170998Y-50265089D01*
X91221390Y-50249802D01*
X91260665Y-50245934D01*
X91280301Y-50244000D01*
X92419699Y-50244000D01*
X92439335Y-50245934D01*
X92439335Y-50245934D01*
G37*
G36*
X87239335Y-50245934D02*
G01*
X87278610Y-50249802D01*
X87329002Y-50265089D01*
X87354199Y-50272732D01*
X87423862Y-50309968D01*
X87484922Y-50360078D01*
X87535032Y-50421138D01*
X87572268Y-50490801D01*
X87572268Y-50490802D01*
X87595198Y-50566390D01*
X87602940Y-50645000D01*
X87595198Y-50723610D01*
X87579911Y-50774002D01*
X87572268Y-50799199D01*
X87535032Y-50868862D01*
X87484922Y-50929922D01*
X87423862Y-50980032D01*
X87354199Y-51017268D01*
X87329002Y-51024911D01*
X87278610Y-51040198D01*
X87239335Y-51044066D01*
X87219699Y-51046000D01*
X86080301Y-51046000D01*
X86060665Y-51044066D01*
X86021390Y-51040198D01*
X85970998Y-51024911D01*
X85945801Y-51017268D01*
X85876138Y-50980032D01*
X85815078Y-50929922D01*
X85764968Y-50868862D01*
X85727732Y-50799199D01*
X85720089Y-50774002D01*
X85704802Y-50723610D01*
X85697060Y-50645000D01*
X85704802Y-50566390D01*
X85727732Y-50490802D01*
X85727732Y-50490801D01*
X85764968Y-50421138D01*
X85815078Y-50360078D01*
X85876138Y-50309968D01*
X85945801Y-50272732D01*
X85970998Y-50265089D01*
X86021390Y-50249802D01*
X86060665Y-50245934D01*
X86080301Y-50244000D01*
X87219699Y-50244000D01*
X87239335Y-50245934D01*
X87239335Y-50245934D01*
G37*
G36*
X53271000Y-51036000D02*
G01*
X52009000Y-51036000D01*
X52009000Y-49464000D01*
X53271000Y-49464000D01*
X53271000Y-51036000D01*
X53271000Y-51036000D01*
G37*
G36*
X46741000Y-51036000D02*
G01*
X45479000Y-51036000D01*
X45479000Y-49464000D01*
X46741000Y-49464000D01*
X46741000Y-51036000D01*
X46741000Y-51036000D01*
G37*
G36*
X48521000Y-51036000D02*
G01*
X47259000Y-51036000D01*
X47259000Y-49464000D01*
X48521000Y-49464000D01*
X48521000Y-51036000D01*
X48521000Y-51036000D01*
G37*
G36*
X51491000Y-51036000D02*
G01*
X50229000Y-51036000D01*
X50229000Y-49464000D01*
X51491000Y-49464000D01*
X51491000Y-51036000D01*
X51491000Y-51036000D01*
G37*
G36*
X60321000Y-50286000D02*
G01*
X59059000Y-50286000D01*
X59059000Y-48714000D01*
X60321000Y-48714000D01*
X60321000Y-50286000D01*
X60321000Y-50286000D01*
G37*
G36*
X58541000Y-50286000D02*
G01*
X57279000Y-50286000D01*
X57279000Y-48714000D01*
X58541000Y-48714000D01*
X58541000Y-50286000D01*
X58541000Y-50286000D01*
G37*
G36*
X72051000Y-49551000D02*
G01*
X70449000Y-49551000D01*
X70449000Y-47949000D01*
X72051000Y-47949000D01*
X72051000Y-49551000D01*
X72051000Y-49551000D01*
G37*
G36*
X73393642Y-47979781D02*
G01*
X73539414Y-48040162D01*
X73539416Y-48040163D01*
X73670608Y-48127822D01*
X73782178Y-48239392D01*
X73843107Y-48330580D01*
X73869838Y-48370586D01*
X73930219Y-48516358D01*
X73961000Y-48671107D01*
X73961000Y-48828893D01*
X73930219Y-48983642D01*
X73902318Y-49051000D01*
X73869837Y-49129416D01*
X73782178Y-49260608D01*
X73670608Y-49372178D01*
X73539416Y-49459837D01*
X73539415Y-49459838D01*
X73539414Y-49459838D01*
X73393642Y-49520219D01*
X73238893Y-49551000D01*
X73081107Y-49551000D01*
X72926358Y-49520219D01*
X72780586Y-49459838D01*
X72780585Y-49459838D01*
X72780584Y-49459837D01*
X72649392Y-49372178D01*
X72537822Y-49260608D01*
X72450163Y-49129416D01*
X72417682Y-49051000D01*
X72389781Y-48983642D01*
X72359000Y-48828893D01*
X72359000Y-48671107D01*
X72389781Y-48516358D01*
X72450162Y-48370586D01*
X72476893Y-48330580D01*
X72537822Y-48239392D01*
X72649392Y-48127822D01*
X72780584Y-48040163D01*
X72780586Y-48040162D01*
X72926358Y-47979781D01*
X73081107Y-47949000D01*
X73238893Y-47949000D01*
X73393642Y-47979781D01*
X73393642Y-47979781D01*
G37*
G36*
X75303642Y-47979781D02*
G01*
X75449414Y-48040162D01*
X75449416Y-48040163D01*
X75580608Y-48127822D01*
X75692178Y-48239392D01*
X75753107Y-48330580D01*
X75779838Y-48370586D01*
X75840219Y-48516358D01*
X75871000Y-48671107D01*
X75871000Y-48828893D01*
X75840219Y-48983642D01*
X75812318Y-49051000D01*
X75779837Y-49129416D01*
X75692178Y-49260608D01*
X75580608Y-49372178D01*
X75449416Y-49459837D01*
X75449415Y-49459838D01*
X75449414Y-49459838D01*
X75303642Y-49520219D01*
X75148893Y-49551000D01*
X74991107Y-49551000D01*
X74836358Y-49520219D01*
X74690586Y-49459838D01*
X74690585Y-49459838D01*
X74690584Y-49459837D01*
X74559392Y-49372178D01*
X74447822Y-49260608D01*
X74360163Y-49129416D01*
X74327682Y-49051000D01*
X74299781Y-48983642D01*
X74269000Y-48828893D01*
X74269000Y-48671107D01*
X74299781Y-48516358D01*
X74360162Y-48370586D01*
X74386893Y-48330580D01*
X74447822Y-48239392D01*
X74559392Y-48127822D01*
X74690584Y-48040163D01*
X74690586Y-48040162D01*
X74836358Y-47979781D01*
X74991107Y-47949000D01*
X75148893Y-47949000D01*
X75303642Y-47979781D01*
X75303642Y-47979781D01*
G37*
G36*
X68921000Y-49536000D02*
G01*
X67659000Y-49536000D01*
X67659000Y-47964000D01*
X68921000Y-47964000D01*
X68921000Y-49536000D01*
X68921000Y-49536000D01*
G37*
G36*
X67141000Y-49536000D02*
G01*
X65879000Y-49536000D01*
X65879000Y-47964000D01*
X67141000Y-47964000D01*
X67141000Y-49536000D01*
X67141000Y-49536000D01*
G37*
G36*
X39889943Y-43066248D02*
G01*
X40445189Y-43296238D01*
X40617497Y-43411371D01*
X40944899Y-43630134D01*
X41369866Y-44055101D01*
X41369867Y-44055103D01*
X41703762Y-44554811D01*
X41933752Y-45110057D01*
X42051000Y-45699501D01*
X42051000Y-46300499D01*
X41933752Y-46889943D01*
X41703762Y-47445189D01*
X41608892Y-47587171D01*
X41369866Y-47944899D01*
X40944899Y-48369866D01*
X40943824Y-48370584D01*
X40445189Y-48703762D01*
X39889943Y-48933752D01*
X39300499Y-49051000D01*
X38699501Y-49051000D01*
X38110057Y-48933752D01*
X37554811Y-48703762D01*
X37056176Y-48370584D01*
X37055101Y-48369866D01*
X36630134Y-47944899D01*
X36391108Y-47587171D01*
X36296238Y-47445189D01*
X36066248Y-46889943D01*
X35949000Y-46300499D01*
X35949000Y-45699501D01*
X36066248Y-45110057D01*
X36296238Y-44554811D01*
X36630133Y-44055103D01*
X36630134Y-44055101D01*
X37055101Y-43630134D01*
X37382503Y-43411371D01*
X37554811Y-43296238D01*
X38110057Y-43066248D01*
X38699501Y-42949000D01*
X39300499Y-42949000D01*
X39889943Y-43066248D01*
X39889943Y-43066248D01*
G37*
G36*
X93051000Y-46301000D02*
G01*
X84949000Y-46301000D01*
X84949000Y-35199000D01*
X93051000Y-35199000D01*
X93051000Y-46301000D01*
X93051000Y-46301000D01*
G37*
G36*
X103051000Y-46301000D02*
G01*
X94949000Y-46301000D01*
X94949000Y-35199000D01*
X103051000Y-35199000D01*
X103051000Y-46301000D01*
X103051000Y-46301000D01*
G37*
G36*
X31451000Y-45751000D02*
G01*
X29749000Y-45751000D01*
X29749000Y-42149000D01*
X31451000Y-42149000D01*
X31451000Y-45751000D01*
X31451000Y-45751000D01*
G37*
G36*
X32751000Y-40601000D02*
G01*
X21649000Y-40601000D01*
X21649000Y-32499000D01*
X32751000Y-32499000D01*
X32751000Y-40601000D01*
X32751000Y-40601000D01*
G37*
G36*
X45751000Y-40601000D02*
G01*
X34649000Y-40601000D01*
X34649000Y-32499000D01*
X45751000Y-32499000D01*
X45751000Y-40601000D01*
X45751000Y-40601000D01*
G37*
G36*
X61241000Y-38286000D02*
G01*
X59979000Y-38286000D01*
X59979000Y-36714000D01*
X61241000Y-36714000D01*
X61241000Y-38286000D01*
X61241000Y-38286000D01*
G37*
G36*
X63021000Y-38286000D02*
G01*
X61759000Y-38286000D01*
X61759000Y-36714000D01*
X63021000Y-36714000D01*
X63021000Y-38286000D01*
X63021000Y-38286000D01*
G37*
G36*
X54121000Y-37536000D02*
G01*
X52859000Y-37536000D01*
X52859000Y-35964000D01*
X54121000Y-35964000D01*
X54121000Y-37536000D01*
X54121000Y-37536000D01*
G37*
G36*
X52341000Y-37536000D02*
G01*
X51079000Y-37536000D01*
X51079000Y-35964000D01*
X52341000Y-35964000D01*
X52341000Y-37536000D01*
X52341000Y-37536000D01*
G37*
G36*
X50036000Y-36721000D02*
G01*
X48464000Y-36721000D01*
X48464000Y-35459000D01*
X50036000Y-35459000D01*
X50036000Y-36721000D01*
X50036000Y-36721000D01*
G37*
G36*
X58526000Y-35901000D02*
G01*
X57174000Y-35901000D01*
X57174000Y-35099000D01*
X58526000Y-35099000D01*
X58526000Y-35901000D01*
X58526000Y-35901000D01*
G37*
G36*
X60836000Y-35771000D02*
G01*
X59264000Y-35771000D01*
X59264000Y-34509000D01*
X60836000Y-34509000D01*
X60836000Y-35771000D01*
X60836000Y-35771000D01*
G37*
G36*
X63786000Y-35771000D02*
G01*
X62214000Y-35771000D01*
X62214000Y-34509000D01*
X63786000Y-34509000D01*
X63786000Y-35771000D01*
X63786000Y-35771000D01*
G37*
G36*
X56026000Y-34951000D02*
G01*
X54674000Y-34951000D01*
X54674000Y-34149000D01*
X56026000Y-34149000D01*
X56026000Y-34951000D01*
X56026000Y-34951000D01*
G37*
G36*
X50036000Y-34941000D02*
G01*
X48464000Y-34941000D01*
X48464000Y-33679000D01*
X50036000Y-33679000D01*
X50036000Y-34941000D01*
X50036000Y-34941000D01*
G37*
G36*
X52341000Y-34786000D02*
G01*
X51079000Y-34786000D01*
X51079000Y-33214000D01*
X52341000Y-33214000D01*
X52341000Y-34786000D01*
X52341000Y-34786000D01*
G37*
G36*
X54121000Y-34786000D02*
G01*
X52859000Y-34786000D01*
X52859000Y-33214000D01*
X54121000Y-33214000D01*
X54121000Y-34786000D01*
X54121000Y-34786000D01*
G37*
G36*
X58526000Y-34001000D02*
G01*
X57174000Y-34001000D01*
X57174000Y-33199000D01*
X58526000Y-33199000D01*
X58526000Y-34001000D01*
X58526000Y-34001000D01*
G37*
G36*
X60836000Y-33991000D02*
G01*
X59264000Y-33991000D01*
X59264000Y-32729000D01*
X60836000Y-32729000D01*
X60836000Y-33991000D01*
X60836000Y-33991000D01*
G37*
G36*
X63786000Y-33991000D02*
G01*
X62214000Y-33991000D01*
X62214000Y-32729000D01*
X63786000Y-32729000D01*
X63786000Y-33991000D01*
X63786000Y-33991000D01*
G37*
G36*
X93051000Y-32051000D02*
G01*
X84949000Y-32051000D01*
X84949000Y-20949000D01*
X93051000Y-20949000D01*
X93051000Y-32051000D01*
X93051000Y-32051000D01*
G37*
G36*
X103051000Y-32051000D02*
G01*
X94949000Y-32051000D01*
X94949000Y-20949000D01*
X103051000Y-20949000D01*
X103051000Y-32051000D01*
X103051000Y-32051000D01*
G37*
G36*
X58351000Y-31051000D02*
G01*
X55749000Y-31051000D01*
X55749000Y-20949000D01*
X58351000Y-20949000D01*
X58351000Y-31051000D01*
X58351000Y-31051000D01*
G37*
G36*
X54851000Y-31051000D02*
G01*
X53149000Y-31051000D01*
X53149000Y-20949000D01*
X54851000Y-20949000D01*
X54851000Y-31051000D01*
X54851000Y-31051000D01*
G37*
G36*
X52251000Y-31051000D02*
G01*
X49649000Y-31051000D01*
X49649000Y-20949000D01*
X52251000Y-20949000D01*
X52251000Y-31051000D01*
X52251000Y-31051000D01*
G37*
G36*
X45751000Y-30601000D02*
G01*
X34649000Y-30601000D01*
X34649000Y-22499000D01*
X45751000Y-22499000D01*
X45751000Y-30601000D01*
X45751000Y-30601000D01*
G37*
G36*
X32751000Y-30601000D02*
G01*
X21649000Y-30601000D01*
X21649000Y-22499000D01*
X32751000Y-22499000D01*
X32751000Y-30601000D01*
X32751000Y-30601000D01*
G37*
G36*
X70258099Y-24343145D02*
G01*
X70833219Y-24517606D01*
X71363245Y-24800911D01*
X71827822Y-25182178D01*
X72209089Y-25646755D01*
X72492394Y-26176781D01*
X72666855Y-26751901D01*
X72725762Y-27350000D01*
X72666855Y-27948099D01*
X72492394Y-28523219D01*
X72209089Y-29053245D01*
X71827822Y-29517822D01*
X71363245Y-29899089D01*
X70833219Y-30182394D01*
X70258099Y-30356855D01*
X69809884Y-30401000D01*
X66510116Y-30401000D01*
X66061901Y-30356855D01*
X65486781Y-30182394D01*
X64956755Y-29899089D01*
X64492178Y-29517822D01*
X64110911Y-29053245D01*
X63827606Y-28523219D01*
X63653145Y-27948099D01*
X63594238Y-27350000D01*
X63653145Y-26751901D01*
X63827606Y-26176781D01*
X64110911Y-25646755D01*
X64492178Y-25182178D01*
X64956755Y-24800911D01*
X65486781Y-24517606D01*
X66061901Y-24343145D01*
X66510116Y-24299000D01*
X69809884Y-24299000D01*
X70258099Y-24343145D01*
X70258099Y-24343145D01*
G37*
G36*
X80258099Y-24343145D02*
G01*
X80833219Y-24517606D01*
X81363245Y-24800911D01*
X81827822Y-25182178D01*
X82209089Y-25646755D01*
X82492394Y-26176781D01*
X82666855Y-26751901D01*
X82725762Y-27350000D01*
X82666855Y-27948099D01*
X82492394Y-28523219D01*
X82209089Y-29053245D01*
X81827822Y-29517822D01*
X81363245Y-29899089D01*
X80833219Y-30182394D01*
X80258099Y-30356855D01*
X79809884Y-30401000D01*
X76510116Y-30401000D01*
X76061901Y-30356855D01*
X75486781Y-30182394D01*
X74956755Y-29899089D01*
X74492178Y-29517822D01*
X74110911Y-29053245D01*
X73827606Y-28523219D01*
X73653145Y-27948099D01*
X73594238Y-27350000D01*
X73653145Y-26751901D01*
X73827606Y-26176781D01*
X74110911Y-25646755D01*
X74492178Y-25182178D01*
X74956755Y-24800911D01*
X75486781Y-24517606D01*
X76061901Y-24343145D01*
X76510116Y-24299000D01*
X79809884Y-24299000D01*
X80258099Y-24343145D01*
X80258099Y-24343145D01*
G37*
M02*
