%TF.GenerationSoftware,KiCad,Pcbnew,(5.1.4)-1*%
%TF.CreationDate,2020-11-14T02:23:56+08:00*%
%TF.ProjectId,power,706f7765-722e-46b6-9963-61645f706362,rev?*%
%TF.SameCoordinates,Original*%
%TF.FileFunction,Paste,Top*%
%TF.FilePolarity,Positive*%
%FSLAX46Y46*%
G04 Gerber Fmt 4.6, Leading zero omitted, Abs format (unit mm)*
G04 Created by KiCad (PCBNEW (5.1.4)-1) date 2020-11-14 02:23:56*
%MOMM*%
%LPD*%
G04 APERTURE LIST*
%ADD10R,1.470000X1.160000*%
%ADD11R,1.160000X1.470000*%
%ADD12R,1.800000X1.130000*%
%ADD13R,2.720000X1.160000*%
%ADD14R,2.794000X3.810000*%
%ADD15R,1.650000X2.380000*%
%ADD16R,1.450000X0.300000*%
%ADD17O,1.800000X0.700000*%
%ADD18O,1.900000X0.700000*%
%ADD19O,3.500000X2.000000*%
%ADD20O,2.100000X0.700000*%
%ADD21R,2.500000X10.000000*%
%ADD22R,1.600000X10.000000*%
%ADD23R,1.250000X0.700000*%
%ADD24R,5.400000X3.900000*%
%ADD25R,1.200000X1.200000*%
%ADD26R,2.743000X2.159000*%
%ADD27R,1.600000X3.500000*%
G04 APERTURE END LIST*
D10*
X52324000Y-54611000D03*
X52324000Y-52831000D03*
D11*
X52640000Y-50250000D03*
X50860000Y-50250000D03*
X47890000Y-50250000D03*
X46110000Y-50250000D03*
X61780000Y-52070000D03*
X60000000Y-52070000D03*
X57910000Y-49500000D03*
X59690000Y-49500000D03*
X55410000Y-54500000D03*
X57190000Y-54500000D03*
X47497000Y-53975000D03*
X49277000Y-53975000D03*
D10*
X64100000Y-54660000D03*
X64100000Y-56440000D03*
X66900000Y-54460000D03*
X66900000Y-56240000D03*
D11*
X90340000Y-56750000D03*
X88560000Y-56750000D03*
D10*
X94500000Y-54390000D03*
X94500000Y-52610000D03*
D11*
X53490000Y-36750000D03*
X51710000Y-36750000D03*
D10*
X60050000Y-35140000D03*
X60050000Y-33360000D03*
X49250000Y-36090000D03*
X49250000Y-34310000D03*
D11*
X51710000Y-34000000D03*
X53490000Y-34000000D03*
X62390000Y-37500000D03*
X60610000Y-37500000D03*
X82104000Y-57658000D03*
X83884000Y-57658000D03*
X83884000Y-55250000D03*
X82104000Y-55250000D03*
D12*
X69750000Y-56740000D03*
X69750000Y-53760000D03*
X73500000Y-53760000D03*
X73500000Y-56740000D03*
D13*
X68250000Y-62225000D03*
X68250000Y-59275000D03*
X64250000Y-62225000D03*
X64250000Y-59275000D03*
D12*
X60750000Y-62240000D03*
X60750000Y-59260000D03*
D10*
X84000000Y-52640000D03*
X84000000Y-50860000D03*
D11*
X78485000Y-65250000D03*
X76705000Y-65250000D03*
D10*
X58000000Y-60340000D03*
X58000000Y-62120000D03*
X60500000Y-54610000D03*
X60500000Y-56390000D03*
X46250000Y-58263000D03*
X46250000Y-56483000D03*
X49250000Y-58263000D03*
X49250000Y-56483000D03*
D11*
X68290000Y-48750000D03*
X66510000Y-48750000D03*
X78485000Y-57274000D03*
X76705000Y-57274000D03*
D10*
X63000000Y-35140000D03*
X63000000Y-33360000D03*
D14*
X46631500Y-63000000D03*
X53768500Y-63000000D03*
D15*
X54800000Y-57500001D03*
D16*
X52600000Y-58500001D03*
X52600000Y-58000001D03*
X52600000Y-57500001D03*
X52600000Y-57000001D03*
X57000000Y-56500001D03*
X57000000Y-57000001D03*
X57000000Y-57500001D03*
X57000000Y-58000001D03*
X52600000Y-56500001D03*
X57000000Y-58500001D03*
D17*
X91850000Y-50645000D03*
X91850000Y-51915000D03*
X91850000Y-53185000D03*
X91850000Y-54455000D03*
X86650000Y-54455000D03*
X86650000Y-53185000D03*
X86650000Y-51915000D03*
X86650000Y-50645000D03*
D18*
X76795000Y-62574000D03*
D19*
X79295000Y-61074000D03*
D20*
X76895000Y-61074000D03*
D18*
X76795000Y-59574000D03*
D21*
X57050000Y-26000000D03*
D22*
X54000000Y-26000000D03*
D21*
X50950000Y-26000000D03*
D23*
X55350000Y-34550000D03*
X57850000Y-33600000D03*
X57850000Y-35500000D03*
D24*
X37250000Y-64250000D03*
X37250000Y-52250000D03*
D25*
X55500000Y-52070000D03*
X57700000Y-52070000D03*
D26*
X73000000Y-64360000D03*
X73000000Y-59940000D03*
D27*
X30600000Y-43950000D03*
X30600000Y-49350000D03*
M02*
