%TF.GenerationSoftware,KiCad,Pcbnew,(5.1.4)-1*%
%TF.CreationDate,2020-11-14T02:23:56+08:00*%
%TF.ProjectId,power,706f7765-722e-46b6-9963-61645f706362,rev?*%
%TF.SameCoordinates,Original*%
%TF.FileFunction,Copper,L2,Bot*%
%TF.FilePolarity,Positive*%
%FSLAX46Y46*%
G04 Gerber Fmt 4.6, Leading zero omitted, Abs format (unit mm)*
G04 Created by KiCad (PCBNEW (5.1.4)-1) date 2020-11-14 02:23:56*
%MOMM*%
%LPD*%
G04 APERTURE LIST*
%ADD10O,9.000000X6.000000*%
%ADD11R,1.500000X1.500000*%
%ADD12C,1.500000*%
%ADD13C,0.800000*%
%ADD14C,0.800000*%
%ADD15C,1.750000*%
%ADD16R,1.750000X1.750000*%
%ADD17O,3.600000X1.800000*%
%ADD18R,3.600000X1.800000*%
%ADD19C,6.000000*%
%ADD20C,0.381000*%
%ADD21C,0.254000*%
%ADD22C,0.508000*%
%ADD23C,0.350000*%
%ADD24O,6.000000X2.000000*%
G04 APERTURE END LIST*
D10*
X68160000Y-27350000D03*
X78160000Y-27350000D03*
D11*
X71250000Y-48750000D03*
D12*
X75070000Y-48750000D03*
X73160000Y-48750000D03*
D13*
X72110000Y-26720000D03*
D14*
X72110000Y-26720000D02*
X72110000Y-26720000D01*
D13*
X72110000Y-27980000D03*
D14*
X72110000Y-27980000D02*
X72110000Y-27980000D01*
D13*
X71360000Y-29010000D03*
X71360000Y-25690000D03*
X64210000Y-26720000D03*
X64210000Y-27980000D03*
X64960000Y-29010000D03*
X64960000Y-25690000D03*
X68830000Y-29400000D03*
X67490000Y-29400000D03*
X70160000Y-29400000D03*
X66160000Y-29400000D03*
X68830000Y-25300000D03*
X67490000Y-25300000D03*
X66160000Y-25300000D03*
X70160000Y-25300000D03*
X74960000Y-29010000D03*
X74960000Y-25690000D03*
X74210000Y-27980000D03*
D14*
X74210000Y-27980000D02*
X74210000Y-27980000D01*
D13*
X74210000Y-26720000D03*
D14*
X74210000Y-26720000D02*
X74210000Y-26720000D01*
D13*
X81360000Y-29010000D03*
X81360000Y-25690000D03*
X82110000Y-26720000D03*
X80160000Y-29400000D03*
X78830000Y-29400000D03*
X77490000Y-29400000D03*
X76160000Y-29400000D03*
X80160000Y-25300000D03*
X78830000Y-25300000D03*
X77490000Y-25300000D03*
X76160000Y-25300000D03*
X82110000Y-27980000D03*
D15*
X92500000Y-63500000D03*
X90000000Y-63500000D03*
X87500000Y-63500000D03*
D16*
X85000000Y-63500000D03*
D17*
X24750000Y-64680000D03*
X24750000Y-60870000D03*
X24750000Y-57060000D03*
D18*
X24750000Y-53250000D03*
D13*
X102306810Y-62312500D03*
X102306810Y-64687500D03*
X100250000Y-65875000D03*
X98193190Y-64687500D03*
X98193190Y-62312500D03*
X100250000Y-61125000D03*
D19*
X100250000Y-63500000D03*
D13*
X41056810Y-44812500D03*
X41056810Y-47187500D03*
X39000000Y-48375000D03*
X36943190Y-47187500D03*
X36943190Y-44812500D03*
X39000000Y-43625000D03*
D19*
X39000000Y-46000000D03*
D13*
X85700000Y-36150000D03*
X86500000Y-55500000D03*
X87750000Y-56750000D03*
X80250000Y-57750001D03*
X66500000Y-64750000D03*
X64750000Y-64750000D03*
X63000000Y-64750000D03*
X61000000Y-64750000D03*
X58750000Y-64750000D03*
X56250000Y-64750000D03*
X81000000Y-65250000D03*
X81000000Y-59750000D03*
X81000000Y-62500000D03*
X89000000Y-51750000D03*
X51259748Y-60276752D03*
X64463990Y-33286000D03*
X68700000Y-64750000D03*
X77700000Y-48750000D03*
X80240000Y-48750000D03*
X82780000Y-48750000D03*
X85320000Y-48750000D03*
X87860000Y-48750000D03*
X90400000Y-48750000D03*
X92940000Y-48750000D03*
X95480000Y-48750000D03*
X98020000Y-48750000D03*
X100560000Y-48750000D03*
X88240000Y-36150000D03*
X90780000Y-36150000D03*
X93320000Y-36150000D03*
X95860000Y-36150000D03*
X98400000Y-36150000D03*
X100940000Y-36150000D03*
X103480000Y-36150000D03*
X85700000Y-38690000D03*
X88240000Y-38690000D03*
X90780000Y-38690000D03*
X93320000Y-38690000D03*
X95860000Y-38690000D03*
X98400000Y-38690000D03*
X100940000Y-38690000D03*
X103480000Y-38690000D03*
X85700000Y-41230000D03*
X88240000Y-41230000D03*
X90780000Y-41230000D03*
X93320000Y-41230000D03*
X95860000Y-41230000D03*
X98400000Y-41230000D03*
X100940000Y-41230000D03*
X103480000Y-41230000D03*
X85700000Y-43770000D03*
X88240000Y-43770000D03*
X90780000Y-43770000D03*
X93320000Y-43770000D03*
X95860000Y-43770000D03*
X98400000Y-43770000D03*
X100940000Y-43770000D03*
X103480000Y-43770000D03*
X85700000Y-46310000D03*
X88240000Y-46310000D03*
X90780000Y-46310000D03*
X93320000Y-46310000D03*
X95860000Y-46310000D03*
X98400000Y-46310000D03*
X100940000Y-46310000D03*
X103480000Y-46310000D03*
X103500000Y-48750000D03*
X21300000Y-21950000D03*
X23840000Y-21950000D03*
X26380000Y-21950000D03*
X28920000Y-21950000D03*
X31460000Y-21950000D03*
X34000000Y-21950000D03*
X36540000Y-21950000D03*
X39080000Y-21950000D03*
X41620000Y-21950000D03*
X44160000Y-21950000D03*
X21300000Y-24490000D03*
X23840000Y-24490000D03*
X26380000Y-24490000D03*
X28920000Y-24490000D03*
X31460000Y-24490000D03*
X34000000Y-24490000D03*
X36540000Y-24490000D03*
X39080000Y-24490000D03*
X41620000Y-24490000D03*
X44160000Y-24490000D03*
X21300000Y-27030000D03*
X23840000Y-27030000D03*
X26380000Y-27030000D03*
X28920000Y-27030000D03*
X31460000Y-27030000D03*
X34000000Y-27030000D03*
X36540000Y-27030000D03*
X39080000Y-27030000D03*
X41620000Y-27030000D03*
X44160000Y-27030000D03*
X21300000Y-29570000D03*
X23840000Y-29570000D03*
X26380000Y-29570000D03*
X28920000Y-29570000D03*
X31460000Y-29570000D03*
X34000000Y-29570000D03*
X36540000Y-29570000D03*
X39080000Y-29570000D03*
X41620000Y-29570000D03*
X44160000Y-29570000D03*
X21300000Y-32110000D03*
X23840000Y-32110000D03*
X26380000Y-32110000D03*
X28920000Y-32110000D03*
X31460000Y-32110000D03*
X34000000Y-32110000D03*
X36540000Y-32110000D03*
X39080000Y-32110000D03*
X41620000Y-32110000D03*
X44160000Y-32110000D03*
X21300000Y-34650000D03*
X23840000Y-34650000D03*
X26380000Y-34650000D03*
X28920000Y-34650000D03*
X31460000Y-34650000D03*
X34000000Y-34650000D03*
X36540000Y-34650000D03*
X39080000Y-34650000D03*
X41620000Y-34650000D03*
X44160000Y-34650000D03*
X21300000Y-37190000D03*
X23840000Y-37190000D03*
X26380000Y-37190000D03*
X28920000Y-37190000D03*
X31460000Y-37190000D03*
X34000000Y-37190000D03*
X36540000Y-37190000D03*
X39080000Y-37190000D03*
X41620000Y-37190000D03*
X44160000Y-37190000D03*
X21300000Y-39730000D03*
X23840000Y-39730000D03*
X26380000Y-39730000D03*
X28920000Y-39730000D03*
X31460000Y-39730000D03*
X34000000Y-39730000D03*
X36540000Y-39730000D03*
X39080000Y-39730000D03*
X41620000Y-39730000D03*
X44160000Y-39730000D03*
X69300000Y-39050000D03*
X64100000Y-39050000D03*
X71300000Y-39050000D03*
X73300000Y-39050000D03*
X75300000Y-39050000D03*
X77300000Y-39050000D03*
X79300000Y-39050000D03*
X69300000Y-40320000D03*
X71300000Y-40320000D03*
X73300000Y-40320000D03*
X75300000Y-40320000D03*
X77300000Y-40320000D03*
X79300000Y-40320000D03*
X69300000Y-41590000D03*
X71300000Y-41590000D03*
X73300000Y-41590000D03*
X75300000Y-41590000D03*
X77300000Y-41590000D03*
X79300000Y-41590000D03*
X69300000Y-42860000D03*
X71300000Y-42860000D03*
X73300000Y-42860000D03*
X75300000Y-42860000D03*
X77300000Y-42860000D03*
X79300000Y-42860000D03*
X69300000Y-44130000D03*
X71300000Y-44130000D03*
X73300000Y-44130000D03*
X75300000Y-44130000D03*
X77300000Y-44130000D03*
X79300000Y-44130000D03*
X69300000Y-45400000D03*
X71300000Y-45400000D03*
X73300000Y-45400000D03*
X75300000Y-45400000D03*
X77300000Y-45400000D03*
X79300000Y-45400000D03*
X69300000Y-46670000D03*
X71300000Y-46670000D03*
X73300000Y-46670000D03*
X75300000Y-46670000D03*
X77300000Y-46670000D03*
X79300000Y-46670000D03*
X62100000Y-39050000D03*
X60100000Y-39050000D03*
X58100000Y-39050000D03*
X56100000Y-39050000D03*
X54100000Y-39050000D03*
X64100000Y-40320000D03*
X62100000Y-40320000D03*
X60100000Y-40320000D03*
X58100000Y-40320000D03*
X56100000Y-40320000D03*
X54100000Y-40320000D03*
X64100000Y-41590000D03*
X62100000Y-41590000D03*
X60100000Y-41590000D03*
X58100000Y-41590000D03*
X56100000Y-41590000D03*
X54100000Y-41590000D03*
X64100000Y-42860000D03*
X62100000Y-42860000D03*
X60100000Y-42860000D03*
X58100000Y-42860000D03*
X56100000Y-42860000D03*
X54100000Y-42860000D03*
X64100000Y-44130000D03*
X62100000Y-44130000D03*
X60100000Y-44130000D03*
X58100000Y-44130000D03*
X56100000Y-44130000D03*
X54100000Y-44130000D03*
X64100000Y-45400000D03*
X62100000Y-45400000D03*
X60100000Y-45400000D03*
X58100000Y-45400000D03*
X56100000Y-45400000D03*
X54100000Y-45400000D03*
X64100000Y-46670000D03*
X62100000Y-46670000D03*
X60100000Y-46670000D03*
X58100000Y-46670000D03*
X56100000Y-46670000D03*
X54100000Y-46670000D03*
X64100000Y-47940000D03*
X62100000Y-47940000D03*
X60100000Y-47940000D03*
X58100000Y-47940000D03*
X56100000Y-47940000D03*
X54100000Y-47940000D03*
X80700000Y-51150000D03*
X58000000Y-63246000D03*
X52324000Y-55880012D03*
X55626000Y-50927000D03*
X71750000Y-53000000D03*
X65626000Y-31623000D03*
X77500000Y-53750000D03*
X75137990Y-53753204D03*
X59300000Y-21150000D03*
X61840000Y-21150000D03*
X64380000Y-21150000D03*
X66920000Y-21150000D03*
X69460000Y-21150000D03*
X72000000Y-21150000D03*
X59300000Y-23690000D03*
X61840000Y-23690000D03*
X64380000Y-23690000D03*
X66920000Y-23690000D03*
X69460000Y-23690000D03*
X72000000Y-23690000D03*
X59300000Y-26230000D03*
X61840000Y-26230000D03*
X59300000Y-28770000D03*
X61840000Y-28770000D03*
X59300000Y-31310000D03*
X61840000Y-31310000D03*
X64380000Y-31310000D03*
X66920000Y-31310000D03*
X69460000Y-31310000D03*
X72000000Y-31310000D03*
X67999996Y-37750000D03*
X77470694Y-52326654D03*
X73900000Y-21150000D03*
X76440000Y-21150000D03*
X78980000Y-21150000D03*
X81520000Y-21150000D03*
X84060000Y-21150000D03*
X86600000Y-21150000D03*
X89140000Y-21150000D03*
X91680000Y-21150000D03*
X94220000Y-21150000D03*
X96760000Y-21150000D03*
X99300000Y-21150000D03*
X101840000Y-21150000D03*
X73900000Y-23690000D03*
X76440000Y-23690000D03*
X78980000Y-23690000D03*
X81520000Y-23690000D03*
X84060000Y-23690000D03*
X86600000Y-23690000D03*
X89140000Y-23690000D03*
X91680000Y-23690000D03*
X94220000Y-23690000D03*
X96760000Y-23690000D03*
X99300000Y-23690000D03*
X101840000Y-23690000D03*
X84060000Y-26230000D03*
X86600000Y-26230000D03*
X89140000Y-26230000D03*
X91680000Y-26230000D03*
X94220000Y-26230000D03*
X96760000Y-26230000D03*
X99300000Y-26230000D03*
X101840000Y-26230000D03*
X84060000Y-28770000D03*
X86600000Y-28770000D03*
X89140000Y-28770000D03*
X91680000Y-28770000D03*
X94220000Y-28770000D03*
X96760000Y-28770000D03*
X99300000Y-28770000D03*
X101840000Y-28770000D03*
X73900000Y-31310000D03*
X76440000Y-31310000D03*
X78980000Y-31310000D03*
X81520000Y-31310000D03*
X84060000Y-31310000D03*
X86600000Y-31310000D03*
X89140000Y-31310000D03*
X91680000Y-31310000D03*
X94220000Y-31310000D03*
X96760000Y-31310000D03*
X99300000Y-31310000D03*
X101840000Y-31310000D03*
D20*
X81300000Y-51750000D02*
X81099999Y-51549999D01*
X81099999Y-51549999D02*
X80700000Y-51150000D01*
X89000000Y-51750000D02*
X81300000Y-51750000D01*
D21*
X57434315Y-63246000D02*
X58000000Y-63246000D01*
X54228996Y-63246000D02*
X57434315Y-63246000D01*
X51259748Y-60276752D02*
X54228996Y-63246000D01*
X55626000Y-52578012D02*
X55626000Y-51492685D01*
X55626000Y-51492685D02*
X55626000Y-50927000D01*
X52324000Y-55880012D02*
X55626000Y-52578012D01*
D20*
X65626000Y-47691685D02*
X65626000Y-31623000D01*
X70934316Y-53000000D02*
X65626000Y-47691685D01*
X71750000Y-53000000D02*
X70934316Y-53000000D01*
D22*
X77500000Y-53750000D02*
X75141194Y-53750000D01*
X75141194Y-53750000D02*
X75137990Y-53753204D01*
D20*
X72702438Y-52326654D02*
X76905009Y-52326654D01*
X67999996Y-37750000D02*
X67999996Y-47624212D01*
X67999996Y-47624212D02*
X72702438Y-52326654D01*
X76905009Y-52326654D02*
X77470694Y-52326654D01*
G36*
X55051500Y-32250000D02*
G01*
X55064921Y-32386271D01*
X55104670Y-32517304D01*
X55169218Y-32638066D01*
X55256086Y-32743914D01*
X55361934Y-32830782D01*
X55482696Y-32895330D01*
X55613729Y-32935079D01*
X55750000Y-32948500D01*
X64737001Y-32948500D01*
X64737000Y-47648025D01*
X64732700Y-47691685D01*
X64737000Y-47735345D01*
X64737000Y-47735351D01*
X64741421Y-47780238D01*
X64749864Y-47865960D01*
X64765416Y-47917227D01*
X64800697Y-48033535D01*
X64883247Y-48187975D01*
X64994341Y-48323344D01*
X65028264Y-48351184D01*
X70274822Y-53597742D01*
X70302657Y-53631659D01*
X70438025Y-53742753D01*
X70592465Y-53825303D01*
X70684632Y-53853261D01*
X70760041Y-53876136D01*
X70776641Y-53877771D01*
X70890649Y-53889000D01*
X70890656Y-53889000D01*
X70934316Y-53893300D01*
X70977976Y-53889000D01*
X71103234Y-53889000D01*
X71229665Y-53973478D01*
X71429579Y-54056285D01*
X71641807Y-54098500D01*
X71858193Y-54098500D01*
X72070421Y-54056285D01*
X72270335Y-53973478D01*
X72450253Y-53853261D01*
X72603261Y-53700253D01*
X72723478Y-53520335D01*
X72806285Y-53320421D01*
X72848500Y-53108193D01*
X72848500Y-53088654D01*
X74260873Y-53088654D01*
X74164512Y-53232869D01*
X74081705Y-53432783D01*
X74039490Y-53645011D01*
X74039490Y-53861397D01*
X74081705Y-54073625D01*
X74164512Y-54273539D01*
X74284729Y-54453457D01*
X74437737Y-54606465D01*
X74617655Y-54726682D01*
X74817569Y-54809489D01*
X75029797Y-54851704D01*
X75246183Y-54851704D01*
X75458411Y-54809489D01*
X75658325Y-54726682D01*
X75694516Y-54702500D01*
X76948269Y-54702500D01*
X76979665Y-54723478D01*
X77179579Y-54806285D01*
X77391807Y-54848500D01*
X77608193Y-54848500D01*
X77820421Y-54806285D01*
X78020335Y-54723478D01*
X78200253Y-54603261D01*
X78353261Y-54450253D01*
X78473478Y-54270335D01*
X78556285Y-54070421D01*
X78598500Y-53858193D01*
X78598500Y-53641807D01*
X78556285Y-53429579D01*
X78473478Y-53229665D01*
X78353261Y-53049747D01*
X78234983Y-52931469D01*
X78331626Y-52786832D01*
X78404860Y-52610030D01*
X78442194Y-52422338D01*
X78442194Y-52230970D01*
X78404860Y-52043278D01*
X78331626Y-51866476D01*
X78225308Y-51707359D01*
X78089989Y-51572040D01*
X77930872Y-51465722D01*
X77754070Y-51392488D01*
X77566378Y-51355154D01*
X77375010Y-51355154D01*
X77187318Y-51392488D01*
X77010516Y-51465722D01*
X76862453Y-51564654D01*
X73018069Y-51564654D01*
X72507731Y-51054316D01*
X79728500Y-51054316D01*
X79728500Y-51245684D01*
X79765834Y-51433376D01*
X79839068Y-51610178D01*
X79945386Y-51769295D01*
X80080705Y-51904614D01*
X80239822Y-52010932D01*
X80416624Y-52084166D01*
X80591276Y-52118906D01*
X80734716Y-52262346D01*
X80758578Y-52291422D01*
X80874608Y-52386645D01*
X81006985Y-52457402D01*
X81150622Y-52500974D01*
X81262574Y-52512000D01*
X81262576Y-52512000D01*
X81299999Y-52515686D01*
X81337422Y-52512000D01*
X88391759Y-52512000D01*
X88539822Y-52610932D01*
X88716624Y-52684166D01*
X88904316Y-52721500D01*
X89095684Y-52721500D01*
X89283376Y-52684166D01*
X89460178Y-52610932D01*
X89619295Y-52504614D01*
X89754614Y-52369295D01*
X89860932Y-52210178D01*
X89934166Y-52033376D01*
X89971500Y-51845684D01*
X89971500Y-51654316D01*
X89934166Y-51466624D01*
X89860932Y-51289822D01*
X89754614Y-51130705D01*
X89619295Y-50995386D01*
X89460178Y-50889068D01*
X89283376Y-50815834D01*
X89095684Y-50778500D01*
X88904316Y-50778500D01*
X88716624Y-50815834D01*
X88539822Y-50889068D01*
X88391759Y-50988000D01*
X81658309Y-50988000D01*
X81634166Y-50866624D01*
X81560932Y-50689822D01*
X81454614Y-50530705D01*
X81319295Y-50395386D01*
X81160178Y-50289068D01*
X80983376Y-50215834D01*
X80795684Y-50178500D01*
X80604316Y-50178500D01*
X80416624Y-50215834D01*
X80239822Y-50289068D01*
X80080705Y-50395386D01*
X79945386Y-50530705D01*
X79839068Y-50689822D01*
X79765834Y-50866624D01*
X79728500Y-51054316D01*
X72507731Y-51054316D01*
X71527680Y-50074265D01*
X72000000Y-50074265D01*
X72112034Y-50063231D01*
X72219762Y-50030552D01*
X72319045Y-49977484D01*
X72353552Y-49949165D01*
X72356660Y-49963735D01*
X72608885Y-50097137D01*
X72882287Y-50178769D01*
X73166363Y-50205494D01*
X73450193Y-50176286D01*
X73722872Y-50092266D01*
X73963340Y-49963735D01*
X74019707Y-49699509D01*
X73160000Y-48839803D01*
X73145858Y-48853945D01*
X73056055Y-48764142D01*
X73070197Y-48750000D01*
X73249803Y-48750000D01*
X73945488Y-49445686D01*
X74043524Y-49592407D01*
X74227593Y-49776476D01*
X74444035Y-49921098D01*
X74684533Y-50020715D01*
X74939844Y-50071500D01*
X75200156Y-50071500D01*
X75455467Y-50020715D01*
X75695965Y-49921098D01*
X75912407Y-49776476D01*
X76096476Y-49592407D01*
X76241098Y-49375965D01*
X76340715Y-49135467D01*
X76391500Y-48880156D01*
X76391500Y-48619844D01*
X76340715Y-48364533D01*
X76241098Y-48124035D01*
X76096476Y-47907593D01*
X75912407Y-47723524D01*
X75695965Y-47578902D01*
X75455467Y-47479285D01*
X75200156Y-47428500D01*
X74939844Y-47428500D01*
X74684533Y-47479285D01*
X74444035Y-47578902D01*
X74227593Y-47723524D01*
X74043524Y-47907593D01*
X73945488Y-48054314D01*
X73249803Y-48750000D01*
X73070197Y-48750000D01*
X73056055Y-48735858D01*
X73145858Y-48646055D01*
X73160000Y-48660197D01*
X74019707Y-47800491D01*
X73963340Y-47536265D01*
X73711115Y-47402863D01*
X73437713Y-47321231D01*
X73153637Y-47294506D01*
X72869807Y-47323714D01*
X72597128Y-47407734D01*
X72356660Y-47536265D01*
X72353552Y-47550835D01*
X72319045Y-47522516D01*
X72219762Y-47469448D01*
X72112034Y-47436769D01*
X72000000Y-47425735D01*
X70500000Y-47425735D01*
X70387966Y-47436769D01*
X70280238Y-47469448D01*
X70180955Y-47522516D01*
X70093933Y-47593933D01*
X70022516Y-47680955D01*
X69969448Y-47780238D01*
X69936769Y-47887966D01*
X69925735Y-48000000D01*
X69925735Y-48472321D01*
X68761996Y-47308582D01*
X68761996Y-38358241D01*
X68860928Y-38210178D01*
X68934162Y-38033376D01*
X68971496Y-37845684D01*
X68971496Y-37654316D01*
X68934162Y-37466624D01*
X68860928Y-37289822D01*
X68754610Y-37130705D01*
X68619291Y-36995386D01*
X68460174Y-36889068D01*
X68283372Y-36815834D01*
X68095680Y-36778500D01*
X67904312Y-36778500D01*
X67716620Y-36815834D01*
X67539818Y-36889068D01*
X67380701Y-36995386D01*
X67245382Y-37130705D01*
X67139064Y-37289822D01*
X67065830Y-37466624D01*
X67028496Y-37654316D01*
X67028496Y-37845684D01*
X67065830Y-38033376D01*
X67139064Y-38210178D01*
X67237996Y-38358241D01*
X67237997Y-47586779D01*
X67234310Y-47624212D01*
X67249023Y-47773590D01*
X67292595Y-47917227D01*
X67363351Y-48049604D01*
X67434717Y-48136563D01*
X67458575Y-48165634D01*
X67487645Y-48189491D01*
X71296847Y-51998694D01*
X71229665Y-52026522D01*
X71222717Y-52031165D01*
X66515000Y-47323450D01*
X66515000Y-32948500D01*
X72750000Y-32948500D01*
X72886271Y-32935079D01*
X73017304Y-32895330D01*
X73125000Y-32837766D01*
X73232696Y-32895330D01*
X73363729Y-32935079D01*
X73500000Y-32948500D01*
X103000000Y-32948500D01*
X103136271Y-32935079D01*
X103267304Y-32895330D01*
X103388066Y-32830782D01*
X103493914Y-32743914D01*
X103580782Y-32638066D01*
X103645330Y-32517304D01*
X103685079Y-32386271D01*
X103698500Y-32250000D01*
X103698500Y-20821500D01*
X104178500Y-20821500D01*
X104178501Y-67178500D01*
X20821500Y-67178500D01*
X20821500Y-64992581D01*
X22282360Y-64992581D01*
X22348878Y-65233052D01*
X22485617Y-65515280D01*
X22674788Y-65765408D01*
X22909122Y-65973825D01*
X23179614Y-66132521D01*
X23475868Y-66235397D01*
X23786500Y-66278500D01*
X24686500Y-66278500D01*
X24686500Y-64743500D01*
X24813500Y-64743500D01*
X24813500Y-66278500D01*
X25713500Y-66278500D01*
X26024132Y-66235397D01*
X26320386Y-66132521D01*
X26590878Y-65973825D01*
X26825212Y-65765408D01*
X27014383Y-65515280D01*
X27151122Y-65233052D01*
X27217640Y-64992581D01*
X27072458Y-64743500D01*
X24813500Y-64743500D01*
X24686500Y-64743500D01*
X22427542Y-64743500D01*
X22282360Y-64992581D01*
X20821500Y-64992581D01*
X20821500Y-64367419D01*
X22282360Y-64367419D01*
X22427542Y-64616500D01*
X24686500Y-64616500D01*
X24686500Y-63081500D01*
X24813500Y-63081500D01*
X24813500Y-64616500D01*
X27072458Y-64616500D01*
X27217640Y-64367419D01*
X27151122Y-64126948D01*
X27014383Y-63844720D01*
X26825212Y-63594592D01*
X26590878Y-63386175D01*
X26320386Y-63227479D01*
X26024132Y-63124603D01*
X25713500Y-63081500D01*
X24813500Y-63081500D01*
X24686500Y-63081500D01*
X23786500Y-63081500D01*
X23475868Y-63124603D01*
X23179614Y-63227479D01*
X22909122Y-63386175D01*
X22674788Y-63594592D01*
X22485617Y-63844720D01*
X22348878Y-64126948D01*
X22282360Y-64367419D01*
X20821500Y-64367419D01*
X20821500Y-61182581D01*
X22282360Y-61182581D01*
X22348878Y-61423052D01*
X22485617Y-61705280D01*
X22674788Y-61955408D01*
X22909122Y-62163825D01*
X23179614Y-62322521D01*
X23475868Y-62425397D01*
X23786500Y-62468500D01*
X24686500Y-62468500D01*
X24686500Y-60933500D01*
X24813500Y-60933500D01*
X24813500Y-62468500D01*
X25713500Y-62468500D01*
X26024132Y-62425397D01*
X26320386Y-62322521D01*
X26590878Y-62163825D01*
X26825212Y-61955408D01*
X27014383Y-61705280D01*
X27151122Y-61423052D01*
X27217640Y-61182581D01*
X27072458Y-60933500D01*
X24813500Y-60933500D01*
X24686500Y-60933500D01*
X22427542Y-60933500D01*
X22282360Y-61182581D01*
X20821500Y-61182581D01*
X20821500Y-60557419D01*
X22282360Y-60557419D01*
X22427542Y-60806500D01*
X24686500Y-60806500D01*
X24686500Y-59271500D01*
X24813500Y-59271500D01*
X24813500Y-60806500D01*
X27072458Y-60806500D01*
X27217640Y-60557419D01*
X27151122Y-60316948D01*
X27085289Y-60181068D01*
X50288248Y-60181068D01*
X50288248Y-60372436D01*
X50325582Y-60560128D01*
X50398816Y-60736930D01*
X50505134Y-60896047D01*
X50640453Y-61031366D01*
X50799570Y-61137684D01*
X50976372Y-61210918D01*
X51164064Y-61248252D01*
X51243421Y-61248252D01*
X53710825Y-63715657D01*
X53732693Y-63742303D01*
X53759339Y-63764171D01*
X53759342Y-63764174D01*
X53839052Y-63829591D01*
X53867357Y-63844720D01*
X53960399Y-63894452D01*
X54092066Y-63934393D01*
X54194687Y-63944500D01*
X54194698Y-63944500D01*
X54228996Y-63947878D01*
X54263294Y-63944500D01*
X57324591Y-63944500D01*
X57380705Y-64000614D01*
X57539822Y-64106932D01*
X57716624Y-64180166D01*
X57904316Y-64217500D01*
X58095684Y-64217500D01*
X58283376Y-64180166D01*
X58460178Y-64106932D01*
X58619295Y-64000614D01*
X58754614Y-63865295D01*
X58860932Y-63706178D01*
X58934166Y-63529376D01*
X58971500Y-63341684D01*
X58971500Y-63150316D01*
X58934166Y-62962624D01*
X58860932Y-62785822D01*
X58754614Y-62626705D01*
X58752909Y-62625000D01*
X83550735Y-62625000D01*
X83550735Y-64375000D01*
X83561769Y-64487034D01*
X83594448Y-64594762D01*
X83647516Y-64694045D01*
X83718933Y-64781067D01*
X83805955Y-64852484D01*
X83905238Y-64905552D01*
X84012966Y-64938231D01*
X84125000Y-64949265D01*
X85875000Y-64949265D01*
X85987034Y-64938231D01*
X86094762Y-64905552D01*
X86194045Y-64852484D01*
X86281067Y-64781067D01*
X86352484Y-64694045D01*
X86405552Y-64594762D01*
X86438231Y-64487034D01*
X86438513Y-64484173D01*
X86577910Y-64623570D01*
X86814825Y-64781872D01*
X87078072Y-64890912D01*
X87357532Y-64946500D01*
X87642468Y-64946500D01*
X87921928Y-64890912D01*
X88185175Y-64781872D01*
X88422090Y-64623570D01*
X88623570Y-64422090D01*
X88750000Y-64232875D01*
X88876430Y-64422090D01*
X89077910Y-64623570D01*
X89314825Y-64781872D01*
X89578072Y-64890912D01*
X89857532Y-64946500D01*
X90142468Y-64946500D01*
X90421928Y-64890912D01*
X90685175Y-64781872D01*
X90922090Y-64623570D01*
X91007236Y-64538424D01*
X91551378Y-64538424D01*
X91622768Y-64815439D01*
X91896253Y-64961303D01*
X92192940Y-65051010D01*
X92501428Y-65081113D01*
X92809860Y-65050453D01*
X93106384Y-64960212D01*
X93377232Y-64815439D01*
X93448622Y-64538424D01*
X92500000Y-63589803D01*
X91551378Y-64538424D01*
X91007236Y-64538424D01*
X91123570Y-64422090D01*
X91170776Y-64351442D01*
X91184561Y-64377232D01*
X91461576Y-64448622D01*
X92410197Y-63500000D01*
X92589803Y-63500000D01*
X93538424Y-64448622D01*
X93815439Y-64377232D01*
X93961303Y-64103747D01*
X94051010Y-63807060D01*
X94081113Y-63498572D01*
X94050453Y-63190140D01*
X93960212Y-62893616D01*
X93815439Y-62622768D01*
X93538424Y-62551378D01*
X92589803Y-63500000D01*
X92410197Y-63500000D01*
X91461576Y-62551378D01*
X91184561Y-62622768D01*
X91170792Y-62648583D01*
X91123570Y-62577910D01*
X91007236Y-62461576D01*
X91551378Y-62461576D01*
X92500000Y-63410197D01*
X93448622Y-62461576D01*
X93377232Y-62184561D01*
X93103747Y-62038697D01*
X92807060Y-61948990D01*
X92498572Y-61918887D01*
X92190140Y-61949547D01*
X91893616Y-62039788D01*
X91622768Y-62184561D01*
X91551378Y-62461576D01*
X91007236Y-62461576D01*
X90922090Y-62376430D01*
X90685175Y-62218128D01*
X90421928Y-62109088D01*
X90142468Y-62053500D01*
X89857532Y-62053500D01*
X89578072Y-62109088D01*
X89314825Y-62218128D01*
X89077910Y-62376430D01*
X88876430Y-62577910D01*
X88750000Y-62767125D01*
X88623570Y-62577910D01*
X88422090Y-62376430D01*
X88185175Y-62218128D01*
X87921928Y-62109088D01*
X87642468Y-62053500D01*
X87357532Y-62053500D01*
X87078072Y-62109088D01*
X86814825Y-62218128D01*
X86577910Y-62376430D01*
X86438513Y-62515827D01*
X86438231Y-62512966D01*
X86405552Y-62405238D01*
X86352484Y-62305955D01*
X86281067Y-62218933D01*
X86194045Y-62147516D01*
X86094762Y-62094448D01*
X85987034Y-62061769D01*
X85875000Y-62050735D01*
X84125000Y-62050735D01*
X84012966Y-62061769D01*
X83905238Y-62094448D01*
X83805955Y-62147516D01*
X83718933Y-62218933D01*
X83647516Y-62305955D01*
X83594448Y-62405238D01*
X83561769Y-62512966D01*
X83550735Y-62625000D01*
X58752909Y-62625000D01*
X58619295Y-62491386D01*
X58460178Y-62385068D01*
X58283376Y-62311834D01*
X58095684Y-62274500D01*
X57904316Y-62274500D01*
X57716624Y-62311834D01*
X57539822Y-62385068D01*
X57380705Y-62491386D01*
X57324591Y-62547500D01*
X54518324Y-62547500D01*
X52231248Y-60260425D01*
X52231248Y-60181068D01*
X52193914Y-59993376D01*
X52120680Y-59816574D01*
X52014362Y-59657457D01*
X51879043Y-59522138D01*
X51719926Y-59415820D01*
X51543124Y-59342586D01*
X51355432Y-59305252D01*
X51164064Y-59305252D01*
X50976372Y-59342586D01*
X50799570Y-59415820D01*
X50640453Y-59522138D01*
X50505134Y-59657457D01*
X50398816Y-59816574D01*
X50325582Y-59993376D01*
X50288248Y-60181068D01*
X27085289Y-60181068D01*
X27014383Y-60034720D01*
X26825212Y-59784592D01*
X26590878Y-59576175D01*
X26320386Y-59417479D01*
X26024132Y-59314603D01*
X25713500Y-59271500D01*
X24813500Y-59271500D01*
X24686500Y-59271500D01*
X23786500Y-59271500D01*
X23475868Y-59314603D01*
X23179614Y-59417479D01*
X22909122Y-59576175D01*
X22674788Y-59784592D01*
X22485617Y-60034720D01*
X22348878Y-60316948D01*
X22282360Y-60557419D01*
X20821500Y-60557419D01*
X20821500Y-57060000D01*
X22371381Y-57060000D01*
X22399792Y-57348464D01*
X22483934Y-57625843D01*
X22620573Y-57881477D01*
X22804458Y-58105542D01*
X23028523Y-58289427D01*
X23284157Y-58426066D01*
X23561536Y-58510208D01*
X23777719Y-58531500D01*
X25722281Y-58531500D01*
X25938464Y-58510208D01*
X26215843Y-58426066D01*
X26471477Y-58289427D01*
X26695542Y-58105542D01*
X26879427Y-57881477D01*
X27016066Y-57625843D01*
X27100208Y-57348464D01*
X27128619Y-57060000D01*
X27100208Y-56771536D01*
X27016066Y-56494157D01*
X26879427Y-56238523D01*
X26695542Y-56014458D01*
X26471477Y-55830573D01*
X26384959Y-55784328D01*
X51352500Y-55784328D01*
X51352500Y-55975696D01*
X51389834Y-56163388D01*
X51463068Y-56340190D01*
X51569386Y-56499307D01*
X51704705Y-56634626D01*
X51863822Y-56740944D01*
X52040624Y-56814178D01*
X52228316Y-56851512D01*
X52419684Y-56851512D01*
X52607376Y-56814178D01*
X52784178Y-56740944D01*
X52943295Y-56634626D01*
X53078614Y-56499307D01*
X53184932Y-56340190D01*
X53258166Y-56163388D01*
X53295500Y-55975696D01*
X53295500Y-55896339D01*
X56095667Y-53096174D01*
X56122302Y-53074315D01*
X56144162Y-53047679D01*
X56144174Y-53047667D01*
X56209591Y-52967956D01*
X56274451Y-52846611D01*
X56274452Y-52846608D01*
X56314393Y-52714942D01*
X56324500Y-52612321D01*
X56324500Y-52612311D01*
X56327878Y-52578013D01*
X56324500Y-52543715D01*
X56324500Y-51602409D01*
X56380614Y-51546295D01*
X56486932Y-51387178D01*
X56560166Y-51210376D01*
X56597500Y-51022684D01*
X56597500Y-50831316D01*
X56560166Y-50643624D01*
X56486932Y-50466822D01*
X56380614Y-50307705D01*
X56245295Y-50172386D01*
X56086178Y-50066068D01*
X55909376Y-49992834D01*
X55721684Y-49955500D01*
X55530316Y-49955500D01*
X55342624Y-49992834D01*
X55165822Y-50066068D01*
X55006705Y-50172386D01*
X54871386Y-50307705D01*
X54765068Y-50466822D01*
X54691834Y-50643624D01*
X54654500Y-50831316D01*
X54654500Y-51022684D01*
X54691834Y-51210376D01*
X54765068Y-51387178D01*
X54871386Y-51546295D01*
X54927501Y-51602410D01*
X54927500Y-52288683D01*
X52307673Y-54908512D01*
X52228316Y-54908512D01*
X52040624Y-54945846D01*
X51863822Y-55019080D01*
X51704705Y-55125398D01*
X51569386Y-55260717D01*
X51463068Y-55419834D01*
X51389834Y-55596636D01*
X51352500Y-55784328D01*
X26384959Y-55784328D01*
X26215843Y-55693934D01*
X25938464Y-55609792D01*
X25722281Y-55588500D01*
X23777719Y-55588500D01*
X23561536Y-55609792D01*
X23284157Y-55693934D01*
X23028523Y-55830573D01*
X22804458Y-56014458D01*
X22620573Y-56238523D01*
X22483934Y-56494157D01*
X22399792Y-56771536D01*
X22371381Y-57060000D01*
X20821500Y-57060000D01*
X20821500Y-52350000D01*
X22375735Y-52350000D01*
X22375735Y-54150000D01*
X22386769Y-54262034D01*
X22419448Y-54369762D01*
X22472516Y-54469045D01*
X22543933Y-54556067D01*
X22630955Y-54627484D01*
X22730238Y-54680552D01*
X22837966Y-54713231D01*
X22950000Y-54724265D01*
X26550000Y-54724265D01*
X26662034Y-54713231D01*
X26769762Y-54680552D01*
X26869045Y-54627484D01*
X26956067Y-54556067D01*
X27027484Y-54469045D01*
X27080552Y-54369762D01*
X27113231Y-54262034D01*
X27124265Y-54150000D01*
X27124265Y-52350000D01*
X27113231Y-52237966D01*
X27080552Y-52130238D01*
X27027484Y-52030955D01*
X26956067Y-51943933D01*
X26869045Y-51872516D01*
X26769762Y-51819448D01*
X26662034Y-51786769D01*
X26550000Y-51775735D01*
X22950000Y-51775735D01*
X22837966Y-51786769D01*
X22730238Y-51819448D01*
X22630955Y-51872516D01*
X22543933Y-51943933D01*
X22472516Y-52030955D01*
X22419448Y-52130238D01*
X22386769Y-52237966D01*
X22375735Y-52350000D01*
X20821500Y-52350000D01*
X20821500Y-20821500D01*
X55051500Y-20821500D01*
X55051500Y-32250000D01*
X55051500Y-32250000D01*
G37*
X55051500Y-32250000D02*
X55064921Y-32386271D01*
X55104670Y-32517304D01*
X55169218Y-32638066D01*
X55256086Y-32743914D01*
X55361934Y-32830782D01*
X55482696Y-32895330D01*
X55613729Y-32935079D01*
X55750000Y-32948500D01*
X64737001Y-32948500D01*
X64737000Y-47648025D01*
X64732700Y-47691685D01*
X64737000Y-47735345D01*
X64737000Y-47735351D01*
X64741421Y-47780238D01*
X64749864Y-47865960D01*
X64765416Y-47917227D01*
X64800697Y-48033535D01*
X64883247Y-48187975D01*
X64994341Y-48323344D01*
X65028264Y-48351184D01*
X70274822Y-53597742D01*
X70302657Y-53631659D01*
X70438025Y-53742753D01*
X70592465Y-53825303D01*
X70684632Y-53853261D01*
X70760041Y-53876136D01*
X70776641Y-53877771D01*
X70890649Y-53889000D01*
X70890656Y-53889000D01*
X70934316Y-53893300D01*
X70977976Y-53889000D01*
X71103234Y-53889000D01*
X71229665Y-53973478D01*
X71429579Y-54056285D01*
X71641807Y-54098500D01*
X71858193Y-54098500D01*
X72070421Y-54056285D01*
X72270335Y-53973478D01*
X72450253Y-53853261D01*
X72603261Y-53700253D01*
X72723478Y-53520335D01*
X72806285Y-53320421D01*
X72848500Y-53108193D01*
X72848500Y-53088654D01*
X74260873Y-53088654D01*
X74164512Y-53232869D01*
X74081705Y-53432783D01*
X74039490Y-53645011D01*
X74039490Y-53861397D01*
X74081705Y-54073625D01*
X74164512Y-54273539D01*
X74284729Y-54453457D01*
X74437737Y-54606465D01*
X74617655Y-54726682D01*
X74817569Y-54809489D01*
X75029797Y-54851704D01*
X75246183Y-54851704D01*
X75458411Y-54809489D01*
X75658325Y-54726682D01*
X75694516Y-54702500D01*
X76948269Y-54702500D01*
X76979665Y-54723478D01*
X77179579Y-54806285D01*
X77391807Y-54848500D01*
X77608193Y-54848500D01*
X77820421Y-54806285D01*
X78020335Y-54723478D01*
X78200253Y-54603261D01*
X78353261Y-54450253D01*
X78473478Y-54270335D01*
X78556285Y-54070421D01*
X78598500Y-53858193D01*
X78598500Y-53641807D01*
X78556285Y-53429579D01*
X78473478Y-53229665D01*
X78353261Y-53049747D01*
X78234983Y-52931469D01*
X78331626Y-52786832D01*
X78404860Y-52610030D01*
X78442194Y-52422338D01*
X78442194Y-52230970D01*
X78404860Y-52043278D01*
X78331626Y-51866476D01*
X78225308Y-51707359D01*
X78089989Y-51572040D01*
X77930872Y-51465722D01*
X77754070Y-51392488D01*
X77566378Y-51355154D01*
X77375010Y-51355154D01*
X77187318Y-51392488D01*
X77010516Y-51465722D01*
X76862453Y-51564654D01*
X73018069Y-51564654D01*
X72507731Y-51054316D01*
X79728500Y-51054316D01*
X79728500Y-51245684D01*
X79765834Y-51433376D01*
X79839068Y-51610178D01*
X79945386Y-51769295D01*
X80080705Y-51904614D01*
X80239822Y-52010932D01*
X80416624Y-52084166D01*
X80591276Y-52118906D01*
X80734716Y-52262346D01*
X80758578Y-52291422D01*
X80874608Y-52386645D01*
X81006985Y-52457402D01*
X81150622Y-52500974D01*
X81262574Y-52512000D01*
X81262576Y-52512000D01*
X81299999Y-52515686D01*
X81337422Y-52512000D01*
X88391759Y-52512000D01*
X88539822Y-52610932D01*
X88716624Y-52684166D01*
X88904316Y-52721500D01*
X89095684Y-52721500D01*
X89283376Y-52684166D01*
X89460178Y-52610932D01*
X89619295Y-52504614D01*
X89754614Y-52369295D01*
X89860932Y-52210178D01*
X89934166Y-52033376D01*
X89971500Y-51845684D01*
X89971500Y-51654316D01*
X89934166Y-51466624D01*
X89860932Y-51289822D01*
X89754614Y-51130705D01*
X89619295Y-50995386D01*
X89460178Y-50889068D01*
X89283376Y-50815834D01*
X89095684Y-50778500D01*
X88904316Y-50778500D01*
X88716624Y-50815834D01*
X88539822Y-50889068D01*
X88391759Y-50988000D01*
X81658309Y-50988000D01*
X81634166Y-50866624D01*
X81560932Y-50689822D01*
X81454614Y-50530705D01*
X81319295Y-50395386D01*
X81160178Y-50289068D01*
X80983376Y-50215834D01*
X80795684Y-50178500D01*
X80604316Y-50178500D01*
X80416624Y-50215834D01*
X80239822Y-50289068D01*
X80080705Y-50395386D01*
X79945386Y-50530705D01*
X79839068Y-50689822D01*
X79765834Y-50866624D01*
X79728500Y-51054316D01*
X72507731Y-51054316D01*
X71527680Y-50074265D01*
X72000000Y-50074265D01*
X72112034Y-50063231D01*
X72219762Y-50030552D01*
X72319045Y-49977484D01*
X72353552Y-49949165D01*
X72356660Y-49963735D01*
X72608885Y-50097137D01*
X72882287Y-50178769D01*
X73166363Y-50205494D01*
X73450193Y-50176286D01*
X73722872Y-50092266D01*
X73963340Y-49963735D01*
X74019707Y-49699509D01*
X73160000Y-48839803D01*
X73145858Y-48853945D01*
X73056055Y-48764142D01*
X73070197Y-48750000D01*
X73249803Y-48750000D01*
X73945488Y-49445686D01*
X74043524Y-49592407D01*
X74227593Y-49776476D01*
X74444035Y-49921098D01*
X74684533Y-50020715D01*
X74939844Y-50071500D01*
X75200156Y-50071500D01*
X75455467Y-50020715D01*
X75695965Y-49921098D01*
X75912407Y-49776476D01*
X76096476Y-49592407D01*
X76241098Y-49375965D01*
X76340715Y-49135467D01*
X76391500Y-48880156D01*
X76391500Y-48619844D01*
X76340715Y-48364533D01*
X76241098Y-48124035D01*
X76096476Y-47907593D01*
X75912407Y-47723524D01*
X75695965Y-47578902D01*
X75455467Y-47479285D01*
X75200156Y-47428500D01*
X74939844Y-47428500D01*
X74684533Y-47479285D01*
X74444035Y-47578902D01*
X74227593Y-47723524D01*
X74043524Y-47907593D01*
X73945488Y-48054314D01*
X73249803Y-48750000D01*
X73070197Y-48750000D01*
X73056055Y-48735858D01*
X73145858Y-48646055D01*
X73160000Y-48660197D01*
X74019707Y-47800491D01*
X73963340Y-47536265D01*
X73711115Y-47402863D01*
X73437713Y-47321231D01*
X73153637Y-47294506D01*
X72869807Y-47323714D01*
X72597128Y-47407734D01*
X72356660Y-47536265D01*
X72353552Y-47550835D01*
X72319045Y-47522516D01*
X72219762Y-47469448D01*
X72112034Y-47436769D01*
X72000000Y-47425735D01*
X70500000Y-47425735D01*
X70387966Y-47436769D01*
X70280238Y-47469448D01*
X70180955Y-47522516D01*
X70093933Y-47593933D01*
X70022516Y-47680955D01*
X69969448Y-47780238D01*
X69936769Y-47887966D01*
X69925735Y-48000000D01*
X69925735Y-48472321D01*
X68761996Y-47308582D01*
X68761996Y-38358241D01*
X68860928Y-38210178D01*
X68934162Y-38033376D01*
X68971496Y-37845684D01*
X68971496Y-37654316D01*
X68934162Y-37466624D01*
X68860928Y-37289822D01*
X68754610Y-37130705D01*
X68619291Y-36995386D01*
X68460174Y-36889068D01*
X68283372Y-36815834D01*
X68095680Y-36778500D01*
X67904312Y-36778500D01*
X67716620Y-36815834D01*
X67539818Y-36889068D01*
X67380701Y-36995386D01*
X67245382Y-37130705D01*
X67139064Y-37289822D01*
X67065830Y-37466624D01*
X67028496Y-37654316D01*
X67028496Y-37845684D01*
X67065830Y-38033376D01*
X67139064Y-38210178D01*
X67237996Y-38358241D01*
X67237997Y-47586779D01*
X67234310Y-47624212D01*
X67249023Y-47773590D01*
X67292595Y-47917227D01*
X67363351Y-48049604D01*
X67434717Y-48136563D01*
X67458575Y-48165634D01*
X67487645Y-48189491D01*
X71296847Y-51998694D01*
X71229665Y-52026522D01*
X71222717Y-52031165D01*
X66515000Y-47323450D01*
X66515000Y-32948500D01*
X72750000Y-32948500D01*
X72886271Y-32935079D01*
X73017304Y-32895330D01*
X73125000Y-32837766D01*
X73232696Y-32895330D01*
X73363729Y-32935079D01*
X73500000Y-32948500D01*
X103000000Y-32948500D01*
X103136271Y-32935079D01*
X103267304Y-32895330D01*
X103388066Y-32830782D01*
X103493914Y-32743914D01*
X103580782Y-32638066D01*
X103645330Y-32517304D01*
X103685079Y-32386271D01*
X103698500Y-32250000D01*
X103698500Y-20821500D01*
X104178500Y-20821500D01*
X104178501Y-67178500D01*
X20821500Y-67178500D01*
X20821500Y-64992581D01*
X22282360Y-64992581D01*
X22348878Y-65233052D01*
X22485617Y-65515280D01*
X22674788Y-65765408D01*
X22909122Y-65973825D01*
X23179614Y-66132521D01*
X23475868Y-66235397D01*
X23786500Y-66278500D01*
X24686500Y-66278500D01*
X24686500Y-64743500D01*
X24813500Y-64743500D01*
X24813500Y-66278500D01*
X25713500Y-66278500D01*
X26024132Y-66235397D01*
X26320386Y-66132521D01*
X26590878Y-65973825D01*
X26825212Y-65765408D01*
X27014383Y-65515280D01*
X27151122Y-65233052D01*
X27217640Y-64992581D01*
X27072458Y-64743500D01*
X24813500Y-64743500D01*
X24686500Y-64743500D01*
X22427542Y-64743500D01*
X22282360Y-64992581D01*
X20821500Y-64992581D01*
X20821500Y-64367419D01*
X22282360Y-64367419D01*
X22427542Y-64616500D01*
X24686500Y-64616500D01*
X24686500Y-63081500D01*
X24813500Y-63081500D01*
X24813500Y-64616500D01*
X27072458Y-64616500D01*
X27217640Y-64367419D01*
X27151122Y-64126948D01*
X27014383Y-63844720D01*
X26825212Y-63594592D01*
X26590878Y-63386175D01*
X26320386Y-63227479D01*
X26024132Y-63124603D01*
X25713500Y-63081500D01*
X24813500Y-63081500D01*
X24686500Y-63081500D01*
X23786500Y-63081500D01*
X23475868Y-63124603D01*
X23179614Y-63227479D01*
X22909122Y-63386175D01*
X22674788Y-63594592D01*
X22485617Y-63844720D01*
X22348878Y-64126948D01*
X22282360Y-64367419D01*
X20821500Y-64367419D01*
X20821500Y-61182581D01*
X22282360Y-61182581D01*
X22348878Y-61423052D01*
X22485617Y-61705280D01*
X22674788Y-61955408D01*
X22909122Y-62163825D01*
X23179614Y-62322521D01*
X23475868Y-62425397D01*
X23786500Y-62468500D01*
X24686500Y-62468500D01*
X24686500Y-60933500D01*
X24813500Y-60933500D01*
X24813500Y-62468500D01*
X25713500Y-62468500D01*
X26024132Y-62425397D01*
X26320386Y-62322521D01*
X26590878Y-62163825D01*
X26825212Y-61955408D01*
X27014383Y-61705280D01*
X27151122Y-61423052D01*
X27217640Y-61182581D01*
X27072458Y-60933500D01*
X24813500Y-60933500D01*
X24686500Y-60933500D01*
X22427542Y-60933500D01*
X22282360Y-61182581D01*
X20821500Y-61182581D01*
X20821500Y-60557419D01*
X22282360Y-60557419D01*
X22427542Y-60806500D01*
X24686500Y-60806500D01*
X24686500Y-59271500D01*
X24813500Y-59271500D01*
X24813500Y-60806500D01*
X27072458Y-60806500D01*
X27217640Y-60557419D01*
X27151122Y-60316948D01*
X27085289Y-60181068D01*
X50288248Y-60181068D01*
X50288248Y-60372436D01*
X50325582Y-60560128D01*
X50398816Y-60736930D01*
X50505134Y-60896047D01*
X50640453Y-61031366D01*
X50799570Y-61137684D01*
X50976372Y-61210918D01*
X51164064Y-61248252D01*
X51243421Y-61248252D01*
X53710825Y-63715657D01*
X53732693Y-63742303D01*
X53759339Y-63764171D01*
X53759342Y-63764174D01*
X53839052Y-63829591D01*
X53867357Y-63844720D01*
X53960399Y-63894452D01*
X54092066Y-63934393D01*
X54194687Y-63944500D01*
X54194698Y-63944500D01*
X54228996Y-63947878D01*
X54263294Y-63944500D01*
X57324591Y-63944500D01*
X57380705Y-64000614D01*
X57539822Y-64106932D01*
X57716624Y-64180166D01*
X57904316Y-64217500D01*
X58095684Y-64217500D01*
X58283376Y-64180166D01*
X58460178Y-64106932D01*
X58619295Y-64000614D01*
X58754614Y-63865295D01*
X58860932Y-63706178D01*
X58934166Y-63529376D01*
X58971500Y-63341684D01*
X58971500Y-63150316D01*
X58934166Y-62962624D01*
X58860932Y-62785822D01*
X58754614Y-62626705D01*
X58752909Y-62625000D01*
X83550735Y-62625000D01*
X83550735Y-64375000D01*
X83561769Y-64487034D01*
X83594448Y-64594762D01*
X83647516Y-64694045D01*
X83718933Y-64781067D01*
X83805955Y-64852484D01*
X83905238Y-64905552D01*
X84012966Y-64938231D01*
X84125000Y-64949265D01*
X85875000Y-64949265D01*
X85987034Y-64938231D01*
X86094762Y-64905552D01*
X86194045Y-64852484D01*
X86281067Y-64781067D01*
X86352484Y-64694045D01*
X86405552Y-64594762D01*
X86438231Y-64487034D01*
X86438513Y-64484173D01*
X86577910Y-64623570D01*
X86814825Y-64781872D01*
X87078072Y-64890912D01*
X87357532Y-64946500D01*
X87642468Y-64946500D01*
X87921928Y-64890912D01*
X88185175Y-64781872D01*
X88422090Y-64623570D01*
X88623570Y-64422090D01*
X88750000Y-64232875D01*
X88876430Y-64422090D01*
X89077910Y-64623570D01*
X89314825Y-64781872D01*
X89578072Y-64890912D01*
X89857532Y-64946500D01*
X90142468Y-64946500D01*
X90421928Y-64890912D01*
X90685175Y-64781872D01*
X90922090Y-64623570D01*
X91007236Y-64538424D01*
X91551378Y-64538424D01*
X91622768Y-64815439D01*
X91896253Y-64961303D01*
X92192940Y-65051010D01*
X92501428Y-65081113D01*
X92809860Y-65050453D01*
X93106384Y-64960212D01*
X93377232Y-64815439D01*
X93448622Y-64538424D01*
X92500000Y-63589803D01*
X91551378Y-64538424D01*
X91007236Y-64538424D01*
X91123570Y-64422090D01*
X91170776Y-64351442D01*
X91184561Y-64377232D01*
X91461576Y-64448622D01*
X92410197Y-63500000D01*
X92589803Y-63500000D01*
X93538424Y-64448622D01*
X93815439Y-64377232D01*
X93961303Y-64103747D01*
X94051010Y-63807060D01*
X94081113Y-63498572D01*
X94050453Y-63190140D01*
X93960212Y-62893616D01*
X93815439Y-62622768D01*
X93538424Y-62551378D01*
X92589803Y-63500000D01*
X92410197Y-63500000D01*
X91461576Y-62551378D01*
X91184561Y-62622768D01*
X91170792Y-62648583D01*
X91123570Y-62577910D01*
X91007236Y-62461576D01*
X91551378Y-62461576D01*
X92500000Y-63410197D01*
X93448622Y-62461576D01*
X93377232Y-62184561D01*
X93103747Y-62038697D01*
X92807060Y-61948990D01*
X92498572Y-61918887D01*
X92190140Y-61949547D01*
X91893616Y-62039788D01*
X91622768Y-62184561D01*
X91551378Y-62461576D01*
X91007236Y-62461576D01*
X90922090Y-62376430D01*
X90685175Y-62218128D01*
X90421928Y-62109088D01*
X90142468Y-62053500D01*
X89857532Y-62053500D01*
X89578072Y-62109088D01*
X89314825Y-62218128D01*
X89077910Y-62376430D01*
X88876430Y-62577910D01*
X88750000Y-62767125D01*
X88623570Y-62577910D01*
X88422090Y-62376430D01*
X88185175Y-62218128D01*
X87921928Y-62109088D01*
X87642468Y-62053500D01*
X87357532Y-62053500D01*
X87078072Y-62109088D01*
X86814825Y-62218128D01*
X86577910Y-62376430D01*
X86438513Y-62515827D01*
X86438231Y-62512966D01*
X86405552Y-62405238D01*
X86352484Y-62305955D01*
X86281067Y-62218933D01*
X86194045Y-62147516D01*
X86094762Y-62094448D01*
X85987034Y-62061769D01*
X85875000Y-62050735D01*
X84125000Y-62050735D01*
X84012966Y-62061769D01*
X83905238Y-62094448D01*
X83805955Y-62147516D01*
X83718933Y-62218933D01*
X83647516Y-62305955D01*
X83594448Y-62405238D01*
X83561769Y-62512966D01*
X83550735Y-62625000D01*
X58752909Y-62625000D01*
X58619295Y-62491386D01*
X58460178Y-62385068D01*
X58283376Y-62311834D01*
X58095684Y-62274500D01*
X57904316Y-62274500D01*
X57716624Y-62311834D01*
X57539822Y-62385068D01*
X57380705Y-62491386D01*
X57324591Y-62547500D01*
X54518324Y-62547500D01*
X52231248Y-60260425D01*
X52231248Y-60181068D01*
X52193914Y-59993376D01*
X52120680Y-59816574D01*
X52014362Y-59657457D01*
X51879043Y-59522138D01*
X51719926Y-59415820D01*
X51543124Y-59342586D01*
X51355432Y-59305252D01*
X51164064Y-59305252D01*
X50976372Y-59342586D01*
X50799570Y-59415820D01*
X50640453Y-59522138D01*
X50505134Y-59657457D01*
X50398816Y-59816574D01*
X50325582Y-59993376D01*
X50288248Y-60181068D01*
X27085289Y-60181068D01*
X27014383Y-60034720D01*
X26825212Y-59784592D01*
X26590878Y-59576175D01*
X26320386Y-59417479D01*
X26024132Y-59314603D01*
X25713500Y-59271500D01*
X24813500Y-59271500D01*
X24686500Y-59271500D01*
X23786500Y-59271500D01*
X23475868Y-59314603D01*
X23179614Y-59417479D01*
X22909122Y-59576175D01*
X22674788Y-59784592D01*
X22485617Y-60034720D01*
X22348878Y-60316948D01*
X22282360Y-60557419D01*
X20821500Y-60557419D01*
X20821500Y-57060000D01*
X22371381Y-57060000D01*
X22399792Y-57348464D01*
X22483934Y-57625843D01*
X22620573Y-57881477D01*
X22804458Y-58105542D01*
X23028523Y-58289427D01*
X23284157Y-58426066D01*
X23561536Y-58510208D01*
X23777719Y-58531500D01*
X25722281Y-58531500D01*
X25938464Y-58510208D01*
X26215843Y-58426066D01*
X26471477Y-58289427D01*
X26695542Y-58105542D01*
X26879427Y-57881477D01*
X27016066Y-57625843D01*
X27100208Y-57348464D01*
X27128619Y-57060000D01*
X27100208Y-56771536D01*
X27016066Y-56494157D01*
X26879427Y-56238523D01*
X26695542Y-56014458D01*
X26471477Y-55830573D01*
X26384959Y-55784328D01*
X51352500Y-55784328D01*
X51352500Y-55975696D01*
X51389834Y-56163388D01*
X51463068Y-56340190D01*
X51569386Y-56499307D01*
X51704705Y-56634626D01*
X51863822Y-56740944D01*
X52040624Y-56814178D01*
X52228316Y-56851512D01*
X52419684Y-56851512D01*
X52607376Y-56814178D01*
X52784178Y-56740944D01*
X52943295Y-56634626D01*
X53078614Y-56499307D01*
X53184932Y-56340190D01*
X53258166Y-56163388D01*
X53295500Y-55975696D01*
X53295500Y-55896339D01*
X56095667Y-53096174D01*
X56122302Y-53074315D01*
X56144162Y-53047679D01*
X56144174Y-53047667D01*
X56209591Y-52967956D01*
X56274451Y-52846611D01*
X56274452Y-52846608D01*
X56314393Y-52714942D01*
X56324500Y-52612321D01*
X56324500Y-52612311D01*
X56327878Y-52578013D01*
X56324500Y-52543715D01*
X56324500Y-51602409D01*
X56380614Y-51546295D01*
X56486932Y-51387178D01*
X56560166Y-51210376D01*
X56597500Y-51022684D01*
X56597500Y-50831316D01*
X56560166Y-50643624D01*
X56486932Y-50466822D01*
X56380614Y-50307705D01*
X56245295Y-50172386D01*
X56086178Y-50066068D01*
X55909376Y-49992834D01*
X55721684Y-49955500D01*
X55530316Y-49955500D01*
X55342624Y-49992834D01*
X55165822Y-50066068D01*
X55006705Y-50172386D01*
X54871386Y-50307705D01*
X54765068Y-50466822D01*
X54691834Y-50643624D01*
X54654500Y-50831316D01*
X54654500Y-51022684D01*
X54691834Y-51210376D01*
X54765068Y-51387178D01*
X54871386Y-51546295D01*
X54927501Y-51602410D01*
X54927500Y-52288683D01*
X52307673Y-54908512D01*
X52228316Y-54908512D01*
X52040624Y-54945846D01*
X51863822Y-55019080D01*
X51704705Y-55125398D01*
X51569386Y-55260717D01*
X51463068Y-55419834D01*
X51389834Y-55596636D01*
X51352500Y-55784328D01*
X26384959Y-55784328D01*
X26215843Y-55693934D01*
X25938464Y-55609792D01*
X25722281Y-55588500D01*
X23777719Y-55588500D01*
X23561536Y-55609792D01*
X23284157Y-55693934D01*
X23028523Y-55830573D01*
X22804458Y-56014458D01*
X22620573Y-56238523D01*
X22483934Y-56494157D01*
X22399792Y-56771536D01*
X22371381Y-57060000D01*
X20821500Y-57060000D01*
X20821500Y-52350000D01*
X22375735Y-52350000D01*
X22375735Y-54150000D01*
X22386769Y-54262034D01*
X22419448Y-54369762D01*
X22472516Y-54469045D01*
X22543933Y-54556067D01*
X22630955Y-54627484D01*
X22730238Y-54680552D01*
X22837966Y-54713231D01*
X22950000Y-54724265D01*
X26550000Y-54724265D01*
X26662034Y-54713231D01*
X26769762Y-54680552D01*
X26869045Y-54627484D01*
X26956067Y-54556067D01*
X27027484Y-54469045D01*
X27080552Y-54369762D01*
X27113231Y-54262034D01*
X27124265Y-54150000D01*
X27124265Y-52350000D01*
X27113231Y-52237966D01*
X27080552Y-52130238D01*
X27027484Y-52030955D01*
X26956067Y-51943933D01*
X26869045Y-51872516D01*
X26769762Y-51819448D01*
X26662034Y-51786769D01*
X26550000Y-51775735D01*
X22950000Y-51775735D01*
X22837966Y-51786769D01*
X22730238Y-51819448D01*
X22630955Y-51872516D01*
X22543933Y-51943933D01*
X22472516Y-52030955D01*
X22419448Y-52130238D01*
X22386769Y-52237966D01*
X22375735Y-52350000D01*
X20821500Y-52350000D01*
X20821500Y-20821500D01*
X55051500Y-20821500D01*
X55051500Y-32250000D01*
G36*
X102809500Y-32059500D02*
G01*
X73690500Y-32059500D01*
X73690500Y-20940500D01*
X102809500Y-20940500D01*
X102809500Y-32059500D01*
X102809500Y-32059500D01*
G37*
X102809500Y-32059500D02*
X73690500Y-32059500D01*
X73690500Y-20940500D01*
X102809500Y-20940500D01*
X102809500Y-32059500D01*
D21*
G36*
X72623000Y-32123000D02*
G01*
X55877000Y-32123000D01*
X55877000Y-20885000D01*
X72623000Y-20885000D01*
X72623000Y-32123000D01*
X72623000Y-32123000D01*
G37*
X72623000Y-32123000D02*
X55877000Y-32123000D01*
X55877000Y-20885000D01*
X72623000Y-20885000D01*
X72623000Y-32123000D01*
D23*
X85700000Y-36150000D03*
X86500000Y-55500000D03*
X87750000Y-56750000D03*
X80250000Y-57750001D03*
X66500000Y-64750000D03*
X64750000Y-64750000D03*
X63000000Y-64750000D03*
X61000000Y-64750000D03*
X58750000Y-64750000D03*
X56250000Y-64750000D03*
X81000000Y-65250000D03*
X81000000Y-59750000D03*
X81000000Y-62500000D03*
X89000000Y-51750000D03*
X51259748Y-60276752D03*
X64463990Y-33286000D03*
X68700000Y-64750000D03*
X77700000Y-48750000D03*
X80240000Y-48750000D03*
X82780000Y-48750000D03*
X85320000Y-48750000D03*
X87860000Y-48750000D03*
X90400000Y-48750000D03*
X92940000Y-48750000D03*
X95480000Y-48750000D03*
X98020000Y-48750000D03*
X100560000Y-48750000D03*
X88240000Y-36150000D03*
X90780000Y-36150000D03*
X93320000Y-36150000D03*
X95860000Y-36150000D03*
X98400000Y-36150000D03*
X100940000Y-36150000D03*
X103480000Y-36150000D03*
X85700000Y-38690000D03*
X88240000Y-38690000D03*
X90780000Y-38690000D03*
X93320000Y-38690000D03*
X95860000Y-38690000D03*
X98400000Y-38690000D03*
X100940000Y-38690000D03*
X103480000Y-38690000D03*
X85700000Y-41230000D03*
X88240000Y-41230000D03*
X90780000Y-41230000D03*
X93320000Y-41230000D03*
X95860000Y-41230000D03*
X98400000Y-41230000D03*
X100940000Y-41230000D03*
X103480000Y-41230000D03*
X85700000Y-43770000D03*
X88240000Y-43770000D03*
X90780000Y-43770000D03*
X93320000Y-43770000D03*
X95860000Y-43770000D03*
X98400000Y-43770000D03*
X100940000Y-43770000D03*
X103480000Y-43770000D03*
X85700000Y-46310000D03*
X88240000Y-46310000D03*
X90780000Y-46310000D03*
X93320000Y-46310000D03*
X95860000Y-46310000D03*
X98400000Y-46310000D03*
X100940000Y-46310000D03*
X103480000Y-46310000D03*
X103500000Y-48750000D03*
X21300000Y-21950000D03*
X23840000Y-21950000D03*
X26380000Y-21950000D03*
X28920000Y-21950000D03*
X31460000Y-21950000D03*
X34000000Y-21950000D03*
X36540000Y-21950000D03*
X39080000Y-21950000D03*
X41620000Y-21950000D03*
X44160000Y-21950000D03*
X21300000Y-24490000D03*
X23840000Y-24490000D03*
X26380000Y-24490000D03*
X28920000Y-24490000D03*
X31460000Y-24490000D03*
X34000000Y-24490000D03*
X36540000Y-24490000D03*
X39080000Y-24490000D03*
X41620000Y-24490000D03*
X44160000Y-24490000D03*
X21300000Y-27030000D03*
X23840000Y-27030000D03*
X26380000Y-27030000D03*
X28920000Y-27030000D03*
X31460000Y-27030000D03*
X34000000Y-27030000D03*
X36540000Y-27030000D03*
X39080000Y-27030000D03*
X41620000Y-27030000D03*
X44160000Y-27030000D03*
X21300000Y-29570000D03*
X23840000Y-29570000D03*
X26380000Y-29570000D03*
X28920000Y-29570000D03*
X31460000Y-29570000D03*
X34000000Y-29570000D03*
X36540000Y-29570000D03*
X39080000Y-29570000D03*
X41620000Y-29570000D03*
X44160000Y-29570000D03*
X21300000Y-32110000D03*
X23840000Y-32110000D03*
X26380000Y-32110000D03*
X28920000Y-32110000D03*
X31460000Y-32110000D03*
X34000000Y-32110000D03*
X36540000Y-32110000D03*
X39080000Y-32110000D03*
X41620000Y-32110000D03*
X44160000Y-32110000D03*
X21300000Y-34650000D03*
X23840000Y-34650000D03*
X26380000Y-34650000D03*
X28920000Y-34650000D03*
X31460000Y-34650000D03*
X34000000Y-34650000D03*
X36540000Y-34650000D03*
X39080000Y-34650000D03*
X41620000Y-34650000D03*
X44160000Y-34650000D03*
X21300000Y-37190000D03*
X23840000Y-37190000D03*
X26380000Y-37190000D03*
X28920000Y-37190000D03*
X31460000Y-37190000D03*
X34000000Y-37190000D03*
X36540000Y-37190000D03*
X39080000Y-37190000D03*
X41620000Y-37190000D03*
X44160000Y-37190000D03*
X21300000Y-39730000D03*
X23840000Y-39730000D03*
X26380000Y-39730000D03*
X28920000Y-39730000D03*
X31460000Y-39730000D03*
X34000000Y-39730000D03*
X36540000Y-39730000D03*
X39080000Y-39730000D03*
X41620000Y-39730000D03*
X44160000Y-39730000D03*
X69300000Y-39050000D03*
X64100000Y-39050000D03*
X71300000Y-39050000D03*
X73300000Y-39050000D03*
X75300000Y-39050000D03*
X77300000Y-39050000D03*
X79300000Y-39050000D03*
X69300000Y-40320000D03*
X71300000Y-40320000D03*
X73300000Y-40320000D03*
X75300000Y-40320000D03*
X77300000Y-40320000D03*
X79300000Y-40320000D03*
X69300000Y-41590000D03*
X71300000Y-41590000D03*
X73300000Y-41590000D03*
X75300000Y-41590000D03*
X77300000Y-41590000D03*
X79300000Y-41590000D03*
X69300000Y-42860000D03*
X71300000Y-42860000D03*
X73300000Y-42860000D03*
X75300000Y-42860000D03*
X77300000Y-42860000D03*
X79300000Y-42860000D03*
X69300000Y-44130000D03*
X71300000Y-44130000D03*
X73300000Y-44130000D03*
X75300000Y-44130000D03*
X77300000Y-44130000D03*
X79300000Y-44130000D03*
X69300000Y-45400000D03*
X71300000Y-45400000D03*
X73300000Y-45400000D03*
X75300000Y-45400000D03*
X77300000Y-45400000D03*
X79300000Y-45400000D03*
X69300000Y-46670000D03*
X71300000Y-46670000D03*
X73300000Y-46670000D03*
X75300000Y-46670000D03*
X77300000Y-46670000D03*
X79300000Y-46670000D03*
X62100000Y-39050000D03*
X60100000Y-39050000D03*
X58100000Y-39050000D03*
X56100000Y-39050000D03*
X54100000Y-39050000D03*
X64100000Y-40320000D03*
X62100000Y-40320000D03*
X60100000Y-40320000D03*
X58100000Y-40320000D03*
X56100000Y-40320000D03*
X54100000Y-40320000D03*
X64100000Y-41590000D03*
X62100000Y-41590000D03*
X60100000Y-41590000D03*
X58100000Y-41590000D03*
X56100000Y-41590000D03*
X54100000Y-41590000D03*
X64100000Y-42860000D03*
X62100000Y-42860000D03*
X60100000Y-42860000D03*
X58100000Y-42860000D03*
X56100000Y-42860000D03*
X54100000Y-42860000D03*
X64100000Y-44130000D03*
X62100000Y-44130000D03*
X60100000Y-44130000D03*
X58100000Y-44130000D03*
X56100000Y-44130000D03*
X54100000Y-44130000D03*
X64100000Y-45400000D03*
X62100000Y-45400000D03*
X60100000Y-45400000D03*
X58100000Y-45400000D03*
X56100000Y-45400000D03*
X54100000Y-45400000D03*
X64100000Y-46670000D03*
X62100000Y-46670000D03*
X60100000Y-46670000D03*
X58100000Y-46670000D03*
X56100000Y-46670000D03*
X54100000Y-46670000D03*
X64100000Y-47940000D03*
X62100000Y-47940000D03*
X60100000Y-47940000D03*
X58100000Y-47940000D03*
X56100000Y-47940000D03*
X54100000Y-47940000D03*
X80700000Y-51150000D03*
X58000000Y-63246000D03*
X52324000Y-55880012D03*
X55626000Y-50927000D03*
X71750000Y-53000000D03*
X65626000Y-31623000D03*
X77500000Y-53750000D03*
X75137990Y-53753204D03*
X59300000Y-21150000D03*
X61840000Y-21150000D03*
X64380000Y-21150000D03*
X66920000Y-21150000D03*
X69460000Y-21150000D03*
X72000000Y-21150000D03*
X59300000Y-23690000D03*
X61840000Y-23690000D03*
X64380000Y-23690000D03*
X66920000Y-23690000D03*
X69460000Y-23690000D03*
X72000000Y-23690000D03*
X59300000Y-26230000D03*
X61840000Y-26230000D03*
X59300000Y-28770000D03*
X61840000Y-28770000D03*
X59300000Y-31310000D03*
X61840000Y-31310000D03*
X64380000Y-31310000D03*
X66920000Y-31310000D03*
X69460000Y-31310000D03*
X72000000Y-31310000D03*
X67999996Y-37750000D03*
X77470694Y-52326654D03*
X73900000Y-21150000D03*
X76440000Y-21150000D03*
X78980000Y-21150000D03*
X81520000Y-21150000D03*
X84060000Y-21150000D03*
X86600000Y-21150000D03*
X89140000Y-21150000D03*
X91680000Y-21150000D03*
X94220000Y-21150000D03*
X96760000Y-21150000D03*
X99300000Y-21150000D03*
X101840000Y-21150000D03*
X73900000Y-23690000D03*
X76440000Y-23690000D03*
X78980000Y-23690000D03*
X81520000Y-23690000D03*
X84060000Y-23690000D03*
X86600000Y-23690000D03*
X89140000Y-23690000D03*
X91680000Y-23690000D03*
X94220000Y-23690000D03*
X96760000Y-23690000D03*
X99300000Y-23690000D03*
X101840000Y-23690000D03*
X84060000Y-26230000D03*
X86600000Y-26230000D03*
X89140000Y-26230000D03*
X91680000Y-26230000D03*
X94220000Y-26230000D03*
X96760000Y-26230000D03*
X99300000Y-26230000D03*
X101840000Y-26230000D03*
X84060000Y-28770000D03*
X86600000Y-28770000D03*
X89140000Y-28770000D03*
X91680000Y-28770000D03*
X94220000Y-28770000D03*
X96760000Y-28770000D03*
X99300000Y-28770000D03*
X101840000Y-28770000D03*
X73900000Y-31310000D03*
X76440000Y-31310000D03*
X78980000Y-31310000D03*
X81520000Y-31310000D03*
X84060000Y-31310000D03*
X86600000Y-31310000D03*
X89140000Y-31310000D03*
X91680000Y-31310000D03*
X94220000Y-31310000D03*
X96760000Y-31310000D03*
X99300000Y-31310000D03*
X101840000Y-31310000D03*
D24*
X68160000Y-27350000D03*
X78160000Y-27350000D03*
D23*
X71250000Y-48750000D03*
X75070000Y-48750000D03*
X73160000Y-48750000D03*
X72110000Y-26720000D03*
X72110000Y-27980000D03*
X71360000Y-29010000D03*
X71360000Y-25690000D03*
X64210000Y-26720000D03*
X64210000Y-27980000D03*
X64960000Y-29010000D03*
X64960000Y-25690000D03*
X68830000Y-29400000D03*
X67490000Y-29400000D03*
X70160000Y-29400000D03*
X66160000Y-29400000D03*
X68830000Y-25300000D03*
X67490000Y-25300000D03*
X66160000Y-25300000D03*
X70160000Y-25300000D03*
X74960000Y-29010000D03*
X74960000Y-25690000D03*
X74210000Y-27980000D03*
X74210000Y-26720000D03*
X81360000Y-29010000D03*
X81360000Y-25690000D03*
X82110000Y-26720000D03*
X80160000Y-29400000D03*
X78830000Y-29400000D03*
X77490000Y-29400000D03*
X76160000Y-29400000D03*
X80160000Y-25300000D03*
X78830000Y-25300000D03*
X77490000Y-25300000D03*
X76160000Y-25300000D03*
X82110000Y-27980000D03*
X92500000Y-63500000D03*
X90000000Y-63500000D03*
X87500000Y-63500000D03*
X85000000Y-63500000D03*
X24750000Y-64680000D03*
X24750000Y-60870000D03*
X24750000Y-57060000D03*
X24750000Y-53250000D03*
X102306810Y-62312500D03*
X102306810Y-64687500D03*
X100250000Y-65875000D03*
X98193190Y-64687500D03*
X98193190Y-62312500D03*
X100250000Y-61125000D03*
X100250000Y-63500000D03*
X41056810Y-44812500D03*
X41056810Y-47187500D03*
X39000000Y-48375000D03*
X36943190Y-47187500D03*
X36943190Y-44812500D03*
X39000000Y-43625000D03*
X39000000Y-46000000D03*
M02*
