%TF.GenerationSoftware,KiCad,Pcbnew,(5.1.4)-1*%
%TF.CreationDate,2020-11-14T02:23:56+08:00*%
%TF.ProjectId,power,706f7765-722e-46b6-9963-61645f706362,rev?*%
%TF.SameCoordinates,Original*%
%TF.FileFunction,Copper,L1,Top*%
%TF.FilePolarity,Positive*%
%FSLAX46Y46*%
G04 Gerber Fmt 4.6, Leading zero omitted, Abs format (unit mm)*
G04 Created by KiCad (PCBNEW (5.1.4)-1) date 2020-11-14 02:23:56*
%MOMM*%
%LPD*%
G04 APERTURE LIST*
%ADD10R,1.470000X1.160000*%
%ADD11R,1.160000X1.470000*%
%ADD12R,1.800000X1.130000*%
%ADD13R,2.720000X1.160000*%
%ADD14O,9.000000X6.000000*%
%ADD15R,1.500000X1.500000*%
%ADD16C,1.500000*%
%ADD17C,0.800000*%
%ADD18C,0.800000*%
%ADD19C,1.750000*%
%ADD20R,1.750000X1.750000*%
%ADD21O,3.600000X1.800000*%
%ADD22R,3.600000X1.800000*%
%ADD23C,6.000000*%
%ADD24R,2.794000X3.810000*%
%ADD25R,1.650000X2.380000*%
%ADD26R,1.450000X0.300000*%
%ADD27O,1.800000X0.700000*%
%ADD28O,1.900000X0.700000*%
%ADD29O,3.500000X2.000000*%
%ADD30O,2.100000X0.700000*%
%ADD31R,2.500000X10.000000*%
%ADD32R,1.600000X10.000000*%
%ADD33R,1.250000X0.700000*%
%ADD34R,5.400000X3.900000*%
%ADD35R,11.000000X8.000000*%
%ADD36R,8.000000X11.000000*%
%ADD37R,1.200000X1.200000*%
%ADD38R,2.743000X2.159000*%
%ADD39R,1.600000X3.500000*%
%ADD40C,0.254000*%
%ADD41C,0.508000*%
%ADD42C,0.381000*%
%ADD43C,0.762000*%
%ADD44C,0.250000*%
%ADD45C,0.025400*%
%ADD46C,0.350000*%
%ADD47O,6.000000X2.000000*%
G04 APERTURE END LIST*
D10*
X52324000Y-54611000D03*
X52324000Y-52831000D03*
D11*
X52640000Y-50250000D03*
X50860000Y-50250000D03*
X47890000Y-50250000D03*
X46110000Y-50250000D03*
X61780000Y-52070000D03*
X60000000Y-52070000D03*
X57910000Y-49500000D03*
X59690000Y-49500000D03*
X55410000Y-54500000D03*
X57190000Y-54500000D03*
X47497000Y-53975000D03*
X49277000Y-53975000D03*
D10*
X64100000Y-54660000D03*
X64100000Y-56440000D03*
X66900000Y-54460000D03*
X66900000Y-56240000D03*
D11*
X90340000Y-56750000D03*
X88560000Y-56750000D03*
D10*
X94500000Y-54390000D03*
X94500000Y-52610000D03*
D11*
X53490000Y-36750000D03*
X51710000Y-36750000D03*
D10*
X60050000Y-35140000D03*
X60050000Y-33360000D03*
X49250000Y-36090000D03*
X49250000Y-34310000D03*
D11*
X51710000Y-34000000D03*
X53490000Y-34000000D03*
X62390000Y-37500000D03*
X60610000Y-37500000D03*
X82104000Y-57658000D03*
X83884000Y-57658000D03*
X83884000Y-55250000D03*
X82104000Y-55250000D03*
D12*
X69750000Y-56740000D03*
X69750000Y-53760000D03*
X73500000Y-53760000D03*
X73500000Y-56740000D03*
D13*
X68250000Y-62225000D03*
X68250000Y-59275000D03*
X64250000Y-62225000D03*
X64250000Y-59275000D03*
D12*
X60750000Y-62240000D03*
X60750000Y-59260000D03*
D10*
X84000000Y-52640000D03*
X84000000Y-50860000D03*
D11*
X78485000Y-65250000D03*
X76705000Y-65250000D03*
D10*
X58000000Y-60340000D03*
X58000000Y-62120000D03*
X60500000Y-54610000D03*
X60500000Y-56390000D03*
X46250000Y-58263000D03*
X46250000Y-56483000D03*
X49250000Y-58263000D03*
X49250000Y-56483000D03*
D11*
X68290000Y-48750000D03*
X66510000Y-48750000D03*
X78485000Y-57274000D03*
X76705000Y-57274000D03*
D10*
X63000000Y-35140000D03*
X63000000Y-33360000D03*
D14*
X68160000Y-27350000D03*
X78160000Y-27350000D03*
D15*
X71250000Y-48750000D03*
D16*
X75070000Y-48750000D03*
X73160000Y-48750000D03*
D17*
X72110000Y-26720000D03*
D18*
X72110000Y-26720000D02*
X72110000Y-26720000D01*
D17*
X72110000Y-27980000D03*
D18*
X72110000Y-27980000D02*
X72110000Y-27980000D01*
D17*
X71360000Y-29010000D03*
X71360000Y-25690000D03*
X64210000Y-26720000D03*
X64210000Y-27980000D03*
X64960000Y-29010000D03*
X64960000Y-25690000D03*
X68830000Y-29400000D03*
X67490000Y-29400000D03*
X70160000Y-29400000D03*
X66160000Y-29400000D03*
X68830000Y-25300000D03*
X67490000Y-25300000D03*
X66160000Y-25300000D03*
X70160000Y-25300000D03*
X74960000Y-29010000D03*
X74960000Y-25690000D03*
X74210000Y-27980000D03*
D18*
X74210000Y-27980000D02*
X74210000Y-27980000D01*
D17*
X74210000Y-26720000D03*
D18*
X74210000Y-26720000D02*
X74210000Y-26720000D01*
D17*
X81360000Y-29010000D03*
X81360000Y-25690000D03*
X82110000Y-26720000D03*
X80160000Y-29400000D03*
X78830000Y-29400000D03*
X77490000Y-29400000D03*
X76160000Y-29400000D03*
X80160000Y-25300000D03*
X78830000Y-25300000D03*
X77490000Y-25300000D03*
X76160000Y-25300000D03*
X82110000Y-27980000D03*
D19*
X92500000Y-63500000D03*
X90000000Y-63500000D03*
X87500000Y-63500000D03*
D20*
X85000000Y-63500000D03*
D21*
X24750000Y-64680000D03*
X24750000Y-60870000D03*
X24750000Y-57060000D03*
D22*
X24750000Y-53250000D03*
D17*
X102306810Y-62312500D03*
X102306810Y-64687500D03*
X100250000Y-65875000D03*
X98193190Y-64687500D03*
X98193190Y-62312500D03*
X100250000Y-61125000D03*
D23*
X100250000Y-63500000D03*
D17*
X41056810Y-44812500D03*
X41056810Y-47187500D03*
X39000000Y-48375000D03*
X36943190Y-47187500D03*
X36943190Y-44812500D03*
X39000000Y-43625000D03*
D23*
X39000000Y-46000000D03*
D24*
X46631500Y-63000000D03*
X53768500Y-63000000D03*
D25*
X54800000Y-57500001D03*
D26*
X52600000Y-58500001D03*
X52600000Y-58000001D03*
X52600000Y-57500001D03*
X52600000Y-57000001D03*
X57000000Y-56500001D03*
X57000000Y-57000001D03*
X57000000Y-57500001D03*
X57000000Y-58000001D03*
X52600000Y-56500001D03*
X57000000Y-58500001D03*
D27*
X91850000Y-50645000D03*
X91850000Y-51915000D03*
X91850000Y-53185000D03*
X91850000Y-54455000D03*
X86650000Y-54455000D03*
X86650000Y-53185000D03*
X86650000Y-51915000D03*
X86650000Y-50645000D03*
D28*
X76795000Y-62574000D03*
D29*
X79295000Y-61074000D03*
D30*
X76895000Y-61074000D03*
D28*
X76795000Y-59574000D03*
D31*
X57050000Y-26000000D03*
D32*
X54000000Y-26000000D03*
D31*
X50950000Y-26000000D03*
D33*
X55350000Y-34550000D03*
X57850000Y-33600000D03*
X57850000Y-35500000D03*
D34*
X37250000Y-64250000D03*
X37250000Y-52250000D03*
D35*
X27200000Y-36550000D03*
X27200000Y-26550000D03*
X40200000Y-26550000D03*
X40200000Y-36550000D03*
D36*
X99000000Y-26500000D03*
X89000000Y-26500000D03*
X89000000Y-40750000D03*
X99000000Y-40750000D03*
D37*
X55500000Y-52070000D03*
X57700000Y-52070000D03*
D38*
X73000000Y-64360000D03*
X73000000Y-59940000D03*
D39*
X30600000Y-43950000D03*
X30600000Y-49350000D03*
D17*
X85700000Y-36150000D03*
X86500000Y-55500000D03*
X87750000Y-56750000D03*
X80250000Y-57750001D03*
X66500000Y-64750000D03*
X64750000Y-64750000D03*
X63000000Y-64750000D03*
X61000000Y-64750000D03*
X58750000Y-64750000D03*
X56250000Y-64750000D03*
X81000000Y-65250000D03*
X81000000Y-59750000D03*
X81000000Y-62500000D03*
X89000000Y-51750000D03*
X51259748Y-60276752D03*
X64463990Y-33286000D03*
X68700000Y-64750000D03*
X77700000Y-48750000D03*
X80240000Y-48750000D03*
X82780000Y-48750000D03*
X85320000Y-48750000D03*
X87860000Y-48750000D03*
X90400000Y-48750000D03*
X92940000Y-48750000D03*
X95480000Y-48750000D03*
X98020000Y-48750000D03*
X100560000Y-48750000D03*
X88240000Y-36150000D03*
X90780000Y-36150000D03*
X93320000Y-36150000D03*
X95860000Y-36150000D03*
X98400000Y-36150000D03*
X100940000Y-36150000D03*
X103480000Y-36150000D03*
X85700000Y-38690000D03*
X88240000Y-38690000D03*
X90780000Y-38690000D03*
X93320000Y-38690000D03*
X95860000Y-38690000D03*
X98400000Y-38690000D03*
X100940000Y-38690000D03*
X103480000Y-38690000D03*
X85700000Y-41230000D03*
X88240000Y-41230000D03*
X90780000Y-41230000D03*
X93320000Y-41230000D03*
X95860000Y-41230000D03*
X98400000Y-41230000D03*
X100940000Y-41230000D03*
X103480000Y-41230000D03*
X85700000Y-43770000D03*
X88240000Y-43770000D03*
X90780000Y-43770000D03*
X93320000Y-43770000D03*
X95860000Y-43770000D03*
X98400000Y-43770000D03*
X100940000Y-43770000D03*
X103480000Y-43770000D03*
X85700000Y-46310000D03*
X88240000Y-46310000D03*
X90780000Y-46310000D03*
X93320000Y-46310000D03*
X95860000Y-46310000D03*
X98400000Y-46310000D03*
X100940000Y-46310000D03*
X103480000Y-46310000D03*
X103500000Y-48750000D03*
X21300000Y-21950000D03*
X23840000Y-21950000D03*
X26380000Y-21950000D03*
X28920000Y-21950000D03*
X31460000Y-21950000D03*
X34000000Y-21950000D03*
X36540000Y-21950000D03*
X39080000Y-21950000D03*
X41620000Y-21950000D03*
X44160000Y-21950000D03*
X21300000Y-24490000D03*
X23840000Y-24490000D03*
X26380000Y-24490000D03*
X28920000Y-24490000D03*
X31460000Y-24490000D03*
X34000000Y-24490000D03*
X36540000Y-24490000D03*
X39080000Y-24490000D03*
X41620000Y-24490000D03*
X44160000Y-24490000D03*
X21300000Y-27030000D03*
X23840000Y-27030000D03*
X26380000Y-27030000D03*
X28920000Y-27030000D03*
X31460000Y-27030000D03*
X34000000Y-27030000D03*
X36540000Y-27030000D03*
X39080000Y-27030000D03*
X41620000Y-27030000D03*
X44160000Y-27030000D03*
X21300000Y-29570000D03*
X23840000Y-29570000D03*
X26380000Y-29570000D03*
X28920000Y-29570000D03*
X31460000Y-29570000D03*
X34000000Y-29570000D03*
X36540000Y-29570000D03*
X39080000Y-29570000D03*
X41620000Y-29570000D03*
X44160000Y-29570000D03*
X21300000Y-32110000D03*
X23840000Y-32110000D03*
X26380000Y-32110000D03*
X28920000Y-32110000D03*
X31460000Y-32110000D03*
X34000000Y-32110000D03*
X36540000Y-32110000D03*
X39080000Y-32110000D03*
X41620000Y-32110000D03*
X44160000Y-32110000D03*
X21300000Y-34650000D03*
X23840000Y-34650000D03*
X26380000Y-34650000D03*
X28920000Y-34650000D03*
X31460000Y-34650000D03*
X34000000Y-34650000D03*
X36540000Y-34650000D03*
X39080000Y-34650000D03*
X41620000Y-34650000D03*
X44160000Y-34650000D03*
X21300000Y-37190000D03*
X23840000Y-37190000D03*
X26380000Y-37190000D03*
X28920000Y-37190000D03*
X31460000Y-37190000D03*
X34000000Y-37190000D03*
X36540000Y-37190000D03*
X39080000Y-37190000D03*
X41620000Y-37190000D03*
X44160000Y-37190000D03*
X21300000Y-39730000D03*
X23840000Y-39730000D03*
X26380000Y-39730000D03*
X28920000Y-39730000D03*
X31460000Y-39730000D03*
X34000000Y-39730000D03*
X36540000Y-39730000D03*
X39080000Y-39730000D03*
X41620000Y-39730000D03*
X44160000Y-39730000D03*
X69300000Y-39050000D03*
X64100000Y-39050000D03*
X71300000Y-39050000D03*
X73300000Y-39050000D03*
X75300000Y-39050000D03*
X77300000Y-39050000D03*
X79300000Y-39050000D03*
X69300000Y-40320000D03*
X71300000Y-40320000D03*
X73300000Y-40320000D03*
X75300000Y-40320000D03*
X77300000Y-40320000D03*
X79300000Y-40320000D03*
X69300000Y-41590000D03*
X71300000Y-41590000D03*
X73300000Y-41590000D03*
X75300000Y-41590000D03*
X77300000Y-41590000D03*
X79300000Y-41590000D03*
X69300000Y-42860000D03*
X71300000Y-42860000D03*
X73300000Y-42860000D03*
X75300000Y-42860000D03*
X77300000Y-42860000D03*
X79300000Y-42860000D03*
X69300000Y-44130000D03*
X71300000Y-44130000D03*
X73300000Y-44130000D03*
X75300000Y-44130000D03*
X77300000Y-44130000D03*
X79300000Y-44130000D03*
X69300000Y-45400000D03*
X71300000Y-45400000D03*
X73300000Y-45400000D03*
X75300000Y-45400000D03*
X77300000Y-45400000D03*
X79300000Y-45400000D03*
X69300000Y-46670000D03*
X71300000Y-46670000D03*
X73300000Y-46670000D03*
X75300000Y-46670000D03*
X77300000Y-46670000D03*
X79300000Y-46670000D03*
X62100000Y-39050000D03*
X60100000Y-39050000D03*
X58100000Y-39050000D03*
X56100000Y-39050000D03*
X54100000Y-39050000D03*
X64100000Y-40320000D03*
X62100000Y-40320000D03*
X60100000Y-40320000D03*
X58100000Y-40320000D03*
X56100000Y-40320000D03*
X54100000Y-40320000D03*
X64100000Y-41590000D03*
X62100000Y-41590000D03*
X60100000Y-41590000D03*
X58100000Y-41590000D03*
X56100000Y-41590000D03*
X54100000Y-41590000D03*
X64100000Y-42860000D03*
X62100000Y-42860000D03*
X60100000Y-42860000D03*
X58100000Y-42860000D03*
X56100000Y-42860000D03*
X54100000Y-42860000D03*
X64100000Y-44130000D03*
X62100000Y-44130000D03*
X60100000Y-44130000D03*
X58100000Y-44130000D03*
X56100000Y-44130000D03*
X54100000Y-44130000D03*
X64100000Y-45400000D03*
X62100000Y-45400000D03*
X60100000Y-45400000D03*
X58100000Y-45400000D03*
X56100000Y-45400000D03*
X54100000Y-45400000D03*
X64100000Y-46670000D03*
X62100000Y-46670000D03*
X60100000Y-46670000D03*
X58100000Y-46670000D03*
X56100000Y-46670000D03*
X54100000Y-46670000D03*
X64100000Y-47940000D03*
X62100000Y-47940000D03*
X60100000Y-47940000D03*
X58100000Y-47940000D03*
X56100000Y-47940000D03*
X54100000Y-47940000D03*
X80700000Y-51150000D03*
X58000000Y-63246000D03*
X52324000Y-55880012D03*
X55626000Y-50927000D03*
X71750000Y-53000000D03*
X65626000Y-31623000D03*
X77500000Y-53750000D03*
X75137990Y-53753204D03*
X59300000Y-21150000D03*
X61840000Y-21150000D03*
X64380000Y-21150000D03*
X66920000Y-21150000D03*
X69460000Y-21150000D03*
X72000000Y-21150000D03*
X59300000Y-23690000D03*
X61840000Y-23690000D03*
X64380000Y-23690000D03*
X66920000Y-23690000D03*
X69460000Y-23690000D03*
X72000000Y-23690000D03*
X59300000Y-26230000D03*
X61840000Y-26230000D03*
X59300000Y-28770000D03*
X61840000Y-28770000D03*
X59300000Y-31310000D03*
X61840000Y-31310000D03*
X64380000Y-31310000D03*
X66920000Y-31310000D03*
X69460000Y-31310000D03*
X72000000Y-31310000D03*
X67999996Y-37750000D03*
X77470694Y-52326654D03*
X73900000Y-21150000D03*
X76440000Y-21150000D03*
X78980000Y-21150000D03*
X81520000Y-21150000D03*
X84060000Y-21150000D03*
X86600000Y-21150000D03*
X89140000Y-21150000D03*
X91680000Y-21150000D03*
X94220000Y-21150000D03*
X96760000Y-21150000D03*
X99300000Y-21150000D03*
X101840000Y-21150000D03*
X73900000Y-23690000D03*
X76440000Y-23690000D03*
X78980000Y-23690000D03*
X81520000Y-23690000D03*
X84060000Y-23690000D03*
X86600000Y-23690000D03*
X89140000Y-23690000D03*
X91680000Y-23690000D03*
X94220000Y-23690000D03*
X96760000Y-23690000D03*
X99300000Y-23690000D03*
X101840000Y-23690000D03*
X84060000Y-26230000D03*
X86600000Y-26230000D03*
X89140000Y-26230000D03*
X91680000Y-26230000D03*
X94220000Y-26230000D03*
X96760000Y-26230000D03*
X99300000Y-26230000D03*
X101840000Y-26230000D03*
X84060000Y-28770000D03*
X86600000Y-28770000D03*
X89140000Y-28770000D03*
X91680000Y-28770000D03*
X94220000Y-28770000D03*
X96760000Y-28770000D03*
X99300000Y-28770000D03*
X101840000Y-28770000D03*
X73900000Y-31310000D03*
X76440000Y-31310000D03*
X78980000Y-31310000D03*
X81520000Y-31310000D03*
X84060000Y-31310000D03*
X86600000Y-31310000D03*
X89140000Y-31310000D03*
X91680000Y-31310000D03*
X94220000Y-31310000D03*
X96760000Y-31310000D03*
X99300000Y-31310000D03*
X101840000Y-31310000D03*
D40*
X62250000Y-35200000D02*
X62320000Y-35270000D01*
D41*
X63000000Y-35140000D02*
X60050000Y-35140000D01*
X60050000Y-37190000D02*
X60610000Y-37750000D01*
X60050000Y-35140000D02*
X60050000Y-37190000D01*
D40*
X56825000Y-35500000D02*
X57850000Y-35500000D01*
X54175000Y-38150000D02*
X56825000Y-35500000D01*
X50476000Y-38150000D02*
X54175000Y-38150000D01*
X49250000Y-36090000D02*
X49250000Y-36924000D01*
X49250000Y-36924000D02*
X50476000Y-38150000D01*
D42*
X59690000Y-35500000D02*
X60050000Y-35140000D01*
X57850000Y-35500000D02*
X59690000Y-35500000D01*
D40*
X46393999Y-58000001D02*
X46355000Y-58039000D01*
X52600000Y-58000001D02*
X46393999Y-58000001D01*
D41*
X46800001Y-58373000D02*
X49737000Y-58373000D01*
D40*
X59600001Y-54800000D02*
X59300001Y-54500000D01*
X61550000Y-54800000D02*
X59600001Y-54800000D01*
D42*
X55350000Y-54500000D02*
X55350000Y-54200000D01*
X55350000Y-54200000D02*
X56093701Y-53456299D01*
D40*
X54300000Y-58000001D02*
X54800000Y-57500001D01*
X52600000Y-58000001D02*
X54300000Y-58000001D01*
X63206000Y-33250000D02*
X63242000Y-33286000D01*
D41*
X79295000Y-57974000D02*
X78595000Y-57274000D01*
X79295000Y-61074000D02*
X79295000Y-57974000D01*
X76895000Y-61074000D02*
X79295000Y-61074000D01*
X78595000Y-61774000D02*
X79295000Y-61074000D01*
X78595000Y-64803000D02*
X78595000Y-61774000D01*
D43*
X78595000Y-56995000D02*
X78595000Y-57274000D01*
D41*
X84000000Y-51000000D02*
X84000000Y-49750000D01*
X86650000Y-54455000D02*
X86650000Y-55350000D01*
X86650000Y-55350000D02*
X86500000Y-55500000D01*
X73160000Y-48750000D02*
X73160000Y-47410000D01*
X88500000Y-56750000D02*
X87750000Y-56750000D01*
D40*
X80342001Y-57658000D02*
X80250000Y-57750001D01*
X81294000Y-57658000D02*
X80342001Y-57658000D01*
D42*
X76595000Y-59374000D02*
X76795000Y-59574000D01*
X76595000Y-57274000D02*
X76595000Y-59374000D01*
X76591992Y-57270992D02*
X76595000Y-57274000D01*
D41*
X69250000Y-48750000D02*
X71250000Y-48750000D01*
X91850000Y-51915000D02*
X89165000Y-51915000D01*
X89165000Y-51915000D02*
X89000000Y-51750000D01*
X49337000Y-55926000D02*
X49784000Y-56373000D01*
X49337000Y-53975000D02*
X49337000Y-55926000D01*
X52600000Y-58936500D02*
X52600000Y-58607202D01*
X46631500Y-63000000D02*
X48536500Y-63000000D01*
X48536500Y-63000000D02*
X52600000Y-58936500D01*
D40*
X52600000Y-58936500D02*
X51259748Y-60276752D01*
D41*
X37260000Y-52500000D02*
X37465000Y-52705000D01*
X76595000Y-62774000D02*
X76795000Y-62574000D01*
X76595000Y-64802999D02*
X76595000Y-62774000D01*
X39682000Y-51250000D02*
X39624000Y-51308000D01*
D42*
X25650000Y-60870000D02*
X24750000Y-60870000D01*
D41*
X60050000Y-33360000D02*
X63000000Y-33360000D01*
X64389990Y-33360000D02*
X64463990Y-33286000D01*
X63000000Y-33360000D02*
X64389990Y-33360000D01*
D42*
X59810000Y-33600000D02*
X60050000Y-33360000D01*
X57850000Y-33600000D02*
X59810000Y-33600000D01*
X61290000Y-51100000D02*
X61290000Y-52070000D01*
X59690000Y-49500000D02*
X61290000Y-51100000D01*
D41*
X76934315Y-51150000D02*
X80700000Y-51150000D01*
X76300000Y-55626000D02*
X76300000Y-57350000D01*
X76300000Y-51150000D02*
X76934315Y-51150000D01*
X76300000Y-51150000D02*
X76300000Y-55626000D01*
X62868000Y-52070000D02*
X61780000Y-52070000D01*
X67063000Y-52070000D02*
X62868000Y-52070000D01*
X67983000Y-51150000D02*
X67063000Y-52070000D01*
X80700000Y-51150000D02*
X69100000Y-51150000D01*
X71250000Y-48750000D02*
X68290000Y-48750000D01*
X68300000Y-50003000D02*
X68300000Y-51150000D01*
X68290000Y-49993000D02*
X68300000Y-50003000D01*
X68290000Y-48750000D02*
X68290000Y-49993000D01*
X69100000Y-51150000D02*
X68300000Y-51150000D01*
X68300000Y-51150000D02*
X67983000Y-51150000D01*
X68235000Y-59260000D02*
X68250000Y-59275000D01*
D44*
X59150001Y-58000001D02*
X60300000Y-59150000D01*
X57000000Y-58000001D02*
X59150001Y-58000001D01*
D42*
X66900000Y-59170000D02*
X66810000Y-59260000D01*
X66900000Y-56240000D02*
X66900000Y-59170000D01*
D41*
X60250000Y-59260000D02*
X66810000Y-59260000D01*
X66810000Y-59260000D02*
X68235000Y-59260000D01*
D42*
X69535000Y-53760000D02*
X69750000Y-53760000D01*
X67055000Y-56240000D02*
X69535000Y-53760000D01*
X66900000Y-56240000D02*
X67055000Y-56240000D01*
D41*
X66900000Y-56240000D02*
X66900000Y-59150000D01*
D44*
X49405000Y-56483000D02*
X49250000Y-56483000D01*
X50422001Y-57500001D02*
X49405000Y-56483000D01*
X52600000Y-57500001D02*
X50422001Y-57500001D01*
D42*
X46250000Y-55222000D02*
X47497000Y-53975000D01*
X46250000Y-56483000D02*
X46250000Y-55222000D01*
D44*
X59889999Y-57000001D02*
X60500000Y-56390000D01*
X57000000Y-57000001D02*
X59889999Y-57000001D01*
D40*
X57575000Y-58500001D02*
X57000000Y-58500001D01*
X58000000Y-58925001D02*
X57575000Y-58500001D01*
X58000000Y-60340000D02*
X58000000Y-58925001D01*
D41*
X58000000Y-63246000D02*
X58000000Y-62120000D01*
D42*
X29250000Y-52081000D02*
X29250000Y-52500000D01*
X28750000Y-51581000D02*
X29250000Y-52081000D01*
X26750000Y-58500000D02*
X28750000Y-58500000D01*
X28750000Y-58500000D02*
X29250000Y-59000000D01*
X29250000Y-59000000D02*
X29250000Y-65500000D01*
X29250000Y-65500000D02*
X30750000Y-67000000D01*
X76595000Y-64928000D02*
X76595000Y-64803000D01*
X76705000Y-65405000D02*
X75110000Y-67000000D01*
X76705000Y-65250000D02*
X76705000Y-65405000D01*
X30750000Y-67000000D02*
X70000000Y-67000000D01*
D41*
X42500000Y-50250000D02*
X46110000Y-50250000D01*
X41500000Y-51250000D02*
X42500000Y-50250000D01*
X41500000Y-51250000D02*
X39682000Y-51250000D01*
D42*
X71550000Y-67000000D02*
X75110000Y-67000000D01*
X71860000Y-67000000D02*
X71550000Y-67000000D01*
X71550000Y-67000000D02*
X70000000Y-67000000D01*
D41*
X30450000Y-51758000D02*
X30450000Y-52500000D01*
X30600000Y-51608000D02*
X30450000Y-51758000D01*
X30600000Y-49350000D02*
X30600000Y-51608000D01*
X29250000Y-52500000D02*
X30450000Y-52500000D01*
X30450000Y-52500000D02*
X37260000Y-52500000D01*
X69750000Y-56740000D02*
X73500000Y-56740000D01*
X73000000Y-57240000D02*
X73500000Y-56740000D01*
X73000000Y-59790000D02*
X73000000Y-57240000D01*
D40*
X52324000Y-55880012D02*
X52324000Y-56515000D01*
D42*
X55500000Y-51053000D02*
X55626000Y-50927000D01*
X55500000Y-52070000D02*
X55500000Y-51053000D01*
X57053000Y-49500000D02*
X55626000Y-50927000D01*
X57910000Y-49500000D02*
X57053000Y-49500000D01*
D40*
X57700000Y-52070000D02*
X59450000Y-52070000D01*
D41*
X65626000Y-31057315D02*
X65626000Y-31623000D01*
X65753000Y-30940000D02*
X65743315Y-30940000D01*
X65743315Y-30940000D02*
X65626000Y-31057315D01*
D42*
X71750000Y-53565685D02*
X71750000Y-53000000D01*
X71944315Y-53760000D02*
X71750000Y-53565685D01*
X73500000Y-53760000D02*
X71944315Y-53760000D01*
D41*
X82104000Y-55095000D02*
X82104000Y-55250000D01*
X80759000Y-53750000D02*
X82104000Y-55095000D01*
X77500000Y-53750000D02*
X80759000Y-53750000D01*
X75131194Y-53760000D02*
X75137990Y-53753204D01*
X73500000Y-53760000D02*
X75131194Y-53760000D01*
D40*
X53490000Y-33011000D02*
X54751000Y-31750000D01*
X53490000Y-34000000D02*
X53490000Y-33011000D01*
X54751000Y-31750000D02*
X56100000Y-31750000D01*
D41*
X62390000Y-37750000D02*
X67999996Y-37750000D01*
D42*
X85250000Y-54592338D02*
X84778961Y-54121299D01*
X90000000Y-63500000D02*
X85250000Y-58750000D01*
X83457637Y-54121299D02*
X81662992Y-52326654D01*
X81662992Y-52326654D02*
X78036379Y-52326654D01*
X85250000Y-58750000D02*
X85250000Y-54592338D01*
X84778961Y-54121299D02*
X83457637Y-54121299D01*
X78036379Y-52326654D02*
X77470694Y-52326654D01*
D41*
X93865000Y-53185000D02*
X94500000Y-52550000D01*
X91850000Y-53185000D02*
X93865000Y-53185000D01*
D42*
X88512564Y-65750000D02*
X93700000Y-65750000D01*
X87500000Y-64737436D02*
X88512564Y-65750000D01*
X87500000Y-63500000D02*
X87500000Y-64737436D01*
X95616000Y-52610000D02*
X96300000Y-53294000D01*
X94500000Y-52610000D02*
X95616000Y-52610000D01*
X96300000Y-63150000D02*
X95100000Y-64350000D01*
X96300000Y-53294000D02*
X96300000Y-63150000D01*
X93700000Y-65750000D02*
X95100000Y-64350000D01*
D41*
X83944000Y-55753000D02*
X83944000Y-57658000D01*
D42*
X83884000Y-62384000D02*
X85000000Y-63500000D01*
X83884000Y-57658000D02*
X83884000Y-62384000D01*
D40*
X55350000Y-34550000D02*
X55350000Y-35900000D01*
X54500000Y-36750000D02*
X53490000Y-36750000D01*
X55350000Y-35900000D02*
X54500000Y-36750000D01*
X51650000Y-36200000D02*
X51650000Y-34200000D01*
X51600000Y-34250000D02*
X51650000Y-34200000D01*
X49800000Y-34250000D02*
X51600000Y-34250000D01*
D42*
X51650000Y-26700000D02*
X50950000Y-26000000D01*
X51650000Y-34200000D02*
X51650000Y-26700000D01*
D41*
X94500000Y-55308000D02*
X94500000Y-54450000D01*
X93058000Y-56750000D02*
X94500000Y-55308000D01*
X90400000Y-56750000D02*
X93058000Y-56750000D01*
X90400000Y-55592000D02*
X90400000Y-56750000D01*
X90400000Y-55115000D02*
X90400000Y-55592000D01*
X87200000Y-51915000D02*
X90400000Y-55115000D01*
X86650000Y-51915000D02*
X87200000Y-51915000D01*
D44*
X64100000Y-57270000D02*
X64100000Y-56440000D01*
X63869999Y-57500001D02*
X64100000Y-57270000D01*
X57000000Y-57500001D02*
X63869999Y-57500001D01*
D42*
X66235000Y-54460000D02*
X66900000Y-54460000D01*
X64255000Y-56440000D02*
X66235000Y-54460000D01*
X64100000Y-56440000D02*
X64255000Y-56440000D01*
D40*
X57000000Y-54750000D02*
X57250000Y-54500000D01*
X57000000Y-56500001D02*
X57000000Y-54750000D01*
D41*
X47890000Y-50250000D02*
X50860000Y-50250000D01*
D40*
X52600000Y-57000001D02*
X51285001Y-57000001D01*
X51285001Y-57000001D02*
X51000000Y-56715000D01*
D41*
X52640000Y-52515000D02*
X52324000Y-52831000D01*
X52640000Y-50250000D02*
X52640000Y-52515000D01*
D44*
X51000000Y-54000000D02*
X51000000Y-56715000D01*
X52169000Y-52831000D02*
X51000000Y-54000000D01*
X52324000Y-52831000D02*
X52169000Y-52831000D01*
D41*
X86650000Y-53185000D02*
X84065000Y-53185000D01*
D42*
X84545000Y-53185000D02*
X84000000Y-52640000D01*
X86650000Y-53185000D02*
X84545000Y-53185000D01*
X84000000Y-52640000D02*
X83845000Y-52640000D01*
X75070000Y-48750000D02*
X76470000Y-50150000D01*
X81355000Y-50150000D02*
X81527500Y-50322500D01*
X76470000Y-50150000D02*
X81355000Y-50150000D01*
X83845000Y-52640000D02*
X81527500Y-50322500D01*
D40*
G36*
X82623000Y-65873000D02*
G01*
X77877000Y-65873000D01*
X77877000Y-63288378D01*
X78004633Y-63183633D01*
X78111852Y-63052985D01*
X78191524Y-62903931D01*
X78240585Y-62742197D01*
X78257151Y-62574000D01*
X78240585Y-62405803D01*
X78191524Y-62244069D01*
X78111852Y-62095015D01*
X78004633Y-61964367D01*
X77877000Y-61859622D01*
X77877000Y-60288378D01*
X78004633Y-60183633D01*
X78111852Y-60052985D01*
X78191524Y-59903931D01*
X78240585Y-59742197D01*
X78257151Y-59574000D01*
X78240585Y-59405803D01*
X78191524Y-59244069D01*
X78111852Y-59095015D01*
X78004633Y-58964367D01*
X77877000Y-58859622D01*
X77877000Y-56627572D01*
X81088429Y-56641999D01*
X81113217Y-56639670D01*
X81137073Y-56632550D01*
X81147570Y-56627000D01*
X82623000Y-56627000D01*
X82623000Y-65873000D01*
X82623000Y-65873000D01*
G37*
X82623000Y-65873000D02*
X77877000Y-65873000D01*
X77877000Y-63288378D01*
X78004633Y-63183633D01*
X78111852Y-63052985D01*
X78191524Y-62903931D01*
X78240585Y-62742197D01*
X78257151Y-62574000D01*
X78240585Y-62405803D01*
X78191524Y-62244069D01*
X78111852Y-62095015D01*
X78004633Y-61964367D01*
X77877000Y-61859622D01*
X77877000Y-60288378D01*
X78004633Y-60183633D01*
X78111852Y-60052985D01*
X78191524Y-59903931D01*
X78240585Y-59742197D01*
X78257151Y-59574000D01*
X78240585Y-59405803D01*
X78191524Y-59244069D01*
X78111852Y-59095015D01*
X78004633Y-58964367D01*
X77877000Y-58859622D01*
X77877000Y-56627572D01*
X81088429Y-56641999D01*
X81113217Y-56639670D01*
X81137073Y-56632550D01*
X81147570Y-56627000D01*
X82623000Y-56627000D01*
X82623000Y-65873000D01*
G36*
X46101000Y-38481000D02*
G01*
X46103440Y-38505776D01*
X46110667Y-38529601D01*
X46122403Y-38551557D01*
X46138197Y-38570803D01*
X46157443Y-38586597D01*
X46179399Y-38598333D01*
X46203224Y-38605560D01*
X46228000Y-38608000D01*
X50033119Y-38608000D01*
X50049039Y-38621065D01*
X50049043Y-38621069D01*
X50121506Y-38680538D01*
X50231820Y-38739502D01*
X50351518Y-38775812D01*
X50444808Y-38785000D01*
X50444811Y-38785000D01*
X50476000Y-38788072D01*
X50507189Y-38785000D01*
X53213000Y-38785000D01*
X53213000Y-47752000D01*
X53215440Y-47776776D01*
X53222667Y-47800601D01*
X53234403Y-47822557D01*
X53250197Y-47841803D01*
X53504197Y-48095803D01*
X53523443Y-48111597D01*
X53545399Y-48123333D01*
X53569224Y-48130560D01*
X53594000Y-48133000D01*
X54483000Y-48133000D01*
X54483000Y-49530000D01*
X53730457Y-49530000D01*
X53730457Y-49515000D01*
X53720649Y-49415415D01*
X53691601Y-49319657D01*
X53644429Y-49231405D01*
X53580948Y-49154052D01*
X53503595Y-49090571D01*
X53415343Y-49043399D01*
X53319585Y-49014351D01*
X53220000Y-49004543D01*
X52060000Y-49004543D01*
X51960415Y-49014351D01*
X51864657Y-49043399D01*
X51776405Y-49090571D01*
X51750000Y-49112241D01*
X51723595Y-49090571D01*
X51635343Y-49043399D01*
X51539585Y-49014351D01*
X51440000Y-49004543D01*
X50280000Y-49004543D01*
X50180415Y-49014351D01*
X50084657Y-49043399D01*
X49996405Y-49090571D01*
X49919052Y-49154052D01*
X49855571Y-49231405D01*
X49808399Y-49319657D01*
X49779351Y-49415415D01*
X49772202Y-49488000D01*
X48977798Y-49488000D01*
X48970649Y-49415415D01*
X48941601Y-49319657D01*
X48894429Y-49231405D01*
X48830948Y-49154052D01*
X48753595Y-49090571D01*
X48665343Y-49043399D01*
X48569585Y-49014351D01*
X48470000Y-49004543D01*
X47310000Y-49004543D01*
X47210415Y-49014351D01*
X47114657Y-49043399D01*
X47026405Y-49090571D01*
X47000000Y-49112241D01*
X46973595Y-49090571D01*
X46885343Y-49043399D01*
X46789585Y-49014351D01*
X46690000Y-49004543D01*
X45530000Y-49004543D01*
X45430415Y-49014351D01*
X45334657Y-49043399D01*
X45246405Y-49090571D01*
X45169052Y-49154052D01*
X45105571Y-49231405D01*
X45058399Y-49319657D01*
X45029351Y-49415415D01*
X45022202Y-49488000D01*
X42537423Y-49488000D01*
X42500000Y-49484314D01*
X42462577Y-49488000D01*
X42462574Y-49488000D01*
X42350622Y-49499026D01*
X42248515Y-49530000D01*
X31910457Y-49530000D01*
X31910457Y-47600000D01*
X31900649Y-47500415D01*
X31871601Y-47404657D01*
X31824429Y-47316405D01*
X31760948Y-47239052D01*
X31683595Y-47175571D01*
X31595343Y-47128399D01*
X31499585Y-47099351D01*
X31400000Y-47089543D01*
X29800000Y-47089543D01*
X29700415Y-47099351D01*
X29604657Y-47128399D01*
X29516405Y-47175571D01*
X29439052Y-47239052D01*
X29375571Y-47316405D01*
X29328399Y-47404657D01*
X29299351Y-47500415D01*
X29289543Y-47600000D01*
X29289543Y-49530000D01*
X20758000Y-49530000D01*
X20758000Y-45700000D01*
X29161928Y-45700000D01*
X29174188Y-45824482D01*
X29210498Y-45944180D01*
X29269463Y-46054494D01*
X29348815Y-46151185D01*
X29445506Y-46230537D01*
X29555820Y-46289502D01*
X29675518Y-46325812D01*
X29800000Y-46338072D01*
X30314250Y-46335000D01*
X30473000Y-46176250D01*
X30473000Y-44077000D01*
X30727000Y-44077000D01*
X30727000Y-46176250D01*
X30885750Y-46335000D01*
X31400000Y-46338072D01*
X31524482Y-46325812D01*
X31644180Y-46289502D01*
X31754494Y-46230537D01*
X31851185Y-46151185D01*
X31930537Y-46054494D01*
X31989502Y-45944180D01*
X32025812Y-45824482D01*
X32038072Y-45700000D01*
X32035000Y-44235750D01*
X31876250Y-44077000D01*
X30727000Y-44077000D01*
X30473000Y-44077000D01*
X29323750Y-44077000D01*
X29165000Y-44235750D01*
X29161928Y-45700000D01*
X20758000Y-45700000D01*
X20758000Y-42200000D01*
X29161928Y-42200000D01*
X29165000Y-43664250D01*
X29323750Y-43823000D01*
X30473000Y-43823000D01*
X30473000Y-41723750D01*
X30727000Y-41723750D01*
X30727000Y-43823000D01*
X31876250Y-43823000D01*
X32035000Y-43664250D01*
X32038072Y-42200000D01*
X32025812Y-42075518D01*
X31989502Y-41955820D01*
X31930537Y-41845506D01*
X31851185Y-41748815D01*
X31754494Y-41669463D01*
X31644180Y-41610498D01*
X31524482Y-41574188D01*
X31400000Y-41561928D01*
X30885750Y-41565000D01*
X30727000Y-41723750D01*
X30473000Y-41723750D01*
X30314250Y-41565000D01*
X29800000Y-41561928D01*
X29675518Y-41574188D01*
X29555820Y-41610498D01*
X29445506Y-41669463D01*
X29348815Y-41748815D01*
X29269463Y-41845506D01*
X29210498Y-41955820D01*
X29174188Y-42075518D01*
X29161928Y-42200000D01*
X20758000Y-42200000D01*
X20758000Y-21336000D01*
X46101000Y-21336000D01*
X46101000Y-38481000D01*
X46101000Y-38481000D01*
G37*
X46101000Y-38481000D02*
X46103440Y-38505776D01*
X46110667Y-38529601D01*
X46122403Y-38551557D01*
X46138197Y-38570803D01*
X46157443Y-38586597D01*
X46179399Y-38598333D01*
X46203224Y-38605560D01*
X46228000Y-38608000D01*
X50033119Y-38608000D01*
X50049039Y-38621065D01*
X50049043Y-38621069D01*
X50121506Y-38680538D01*
X50231820Y-38739502D01*
X50351518Y-38775812D01*
X50444808Y-38785000D01*
X50444811Y-38785000D01*
X50476000Y-38788072D01*
X50507189Y-38785000D01*
X53213000Y-38785000D01*
X53213000Y-47752000D01*
X53215440Y-47776776D01*
X53222667Y-47800601D01*
X53234403Y-47822557D01*
X53250197Y-47841803D01*
X53504197Y-48095803D01*
X53523443Y-48111597D01*
X53545399Y-48123333D01*
X53569224Y-48130560D01*
X53594000Y-48133000D01*
X54483000Y-48133000D01*
X54483000Y-49530000D01*
X53730457Y-49530000D01*
X53730457Y-49515000D01*
X53720649Y-49415415D01*
X53691601Y-49319657D01*
X53644429Y-49231405D01*
X53580948Y-49154052D01*
X53503595Y-49090571D01*
X53415343Y-49043399D01*
X53319585Y-49014351D01*
X53220000Y-49004543D01*
X52060000Y-49004543D01*
X51960415Y-49014351D01*
X51864657Y-49043399D01*
X51776405Y-49090571D01*
X51750000Y-49112241D01*
X51723595Y-49090571D01*
X51635343Y-49043399D01*
X51539585Y-49014351D01*
X51440000Y-49004543D01*
X50280000Y-49004543D01*
X50180415Y-49014351D01*
X50084657Y-49043399D01*
X49996405Y-49090571D01*
X49919052Y-49154052D01*
X49855571Y-49231405D01*
X49808399Y-49319657D01*
X49779351Y-49415415D01*
X49772202Y-49488000D01*
X48977798Y-49488000D01*
X48970649Y-49415415D01*
X48941601Y-49319657D01*
X48894429Y-49231405D01*
X48830948Y-49154052D01*
X48753595Y-49090571D01*
X48665343Y-49043399D01*
X48569585Y-49014351D01*
X48470000Y-49004543D01*
X47310000Y-49004543D01*
X47210415Y-49014351D01*
X47114657Y-49043399D01*
X47026405Y-49090571D01*
X47000000Y-49112241D01*
X46973595Y-49090571D01*
X46885343Y-49043399D01*
X46789585Y-49014351D01*
X46690000Y-49004543D01*
X45530000Y-49004543D01*
X45430415Y-49014351D01*
X45334657Y-49043399D01*
X45246405Y-49090571D01*
X45169052Y-49154052D01*
X45105571Y-49231405D01*
X45058399Y-49319657D01*
X45029351Y-49415415D01*
X45022202Y-49488000D01*
X42537423Y-49488000D01*
X42500000Y-49484314D01*
X42462577Y-49488000D01*
X42462574Y-49488000D01*
X42350622Y-49499026D01*
X42248515Y-49530000D01*
X31910457Y-49530000D01*
X31910457Y-47600000D01*
X31900649Y-47500415D01*
X31871601Y-47404657D01*
X31824429Y-47316405D01*
X31760948Y-47239052D01*
X31683595Y-47175571D01*
X31595343Y-47128399D01*
X31499585Y-47099351D01*
X31400000Y-47089543D01*
X29800000Y-47089543D01*
X29700415Y-47099351D01*
X29604657Y-47128399D01*
X29516405Y-47175571D01*
X29439052Y-47239052D01*
X29375571Y-47316405D01*
X29328399Y-47404657D01*
X29299351Y-47500415D01*
X29289543Y-47600000D01*
X29289543Y-49530000D01*
X20758000Y-49530000D01*
X20758000Y-45700000D01*
X29161928Y-45700000D01*
X29174188Y-45824482D01*
X29210498Y-45944180D01*
X29269463Y-46054494D01*
X29348815Y-46151185D01*
X29445506Y-46230537D01*
X29555820Y-46289502D01*
X29675518Y-46325812D01*
X29800000Y-46338072D01*
X30314250Y-46335000D01*
X30473000Y-46176250D01*
X30473000Y-44077000D01*
X30727000Y-44077000D01*
X30727000Y-46176250D01*
X30885750Y-46335000D01*
X31400000Y-46338072D01*
X31524482Y-46325812D01*
X31644180Y-46289502D01*
X31754494Y-46230537D01*
X31851185Y-46151185D01*
X31930537Y-46054494D01*
X31989502Y-45944180D01*
X32025812Y-45824482D01*
X32038072Y-45700000D01*
X32035000Y-44235750D01*
X31876250Y-44077000D01*
X30727000Y-44077000D01*
X30473000Y-44077000D01*
X29323750Y-44077000D01*
X29165000Y-44235750D01*
X29161928Y-45700000D01*
X20758000Y-45700000D01*
X20758000Y-42200000D01*
X29161928Y-42200000D01*
X29165000Y-43664250D01*
X29323750Y-43823000D01*
X30473000Y-43823000D01*
X30473000Y-41723750D01*
X30727000Y-41723750D01*
X30727000Y-43823000D01*
X31876250Y-43823000D01*
X32035000Y-43664250D01*
X32038072Y-42200000D01*
X32025812Y-42075518D01*
X31989502Y-41955820D01*
X31930537Y-41845506D01*
X31851185Y-41748815D01*
X31754494Y-41669463D01*
X31644180Y-41610498D01*
X31524482Y-41574188D01*
X31400000Y-41561928D01*
X30885750Y-41565000D01*
X30727000Y-41723750D01*
X30473000Y-41723750D01*
X30314250Y-41565000D01*
X29800000Y-41561928D01*
X29675518Y-41574188D01*
X29555820Y-41610498D01*
X29445506Y-41669463D01*
X29348815Y-41748815D01*
X29269463Y-41845506D01*
X29210498Y-41955820D01*
X29174188Y-42075518D01*
X29161928Y-42200000D01*
X20758000Y-42200000D01*
X20758000Y-21336000D01*
X46101000Y-21336000D01*
X46101000Y-38481000D01*
G36*
X64773000Y-54934173D02*
G01*
X64605936Y-55101237D01*
X58674000Y-55117648D01*
X58674000Y-53848000D01*
X58671560Y-53823224D01*
X58664333Y-53799399D01*
X58652597Y-53777443D01*
X58636803Y-53758197D01*
X58617557Y-53742403D01*
X58595601Y-53730667D01*
X58571776Y-53723440D01*
X58547000Y-53721000D01*
X58276123Y-53721000D01*
X58270649Y-53665415D01*
X58241601Y-53569657D01*
X58194429Y-53481405D01*
X58130948Y-53404052D01*
X58053595Y-53340571D01*
X57965343Y-53293399D01*
X57869585Y-53264351D01*
X57770000Y-53254543D01*
X56610000Y-53254543D01*
X56510415Y-53264351D01*
X56414657Y-53293399D01*
X56326405Y-53340571D01*
X56249052Y-53404052D01*
X56185571Y-53481405D01*
X56138399Y-53569657D01*
X56109351Y-53665415D01*
X56103877Y-53721000D01*
X55753000Y-53721000D01*
X55728224Y-53723440D01*
X55704399Y-53730667D01*
X55682443Y-53742403D01*
X55663197Y-53758197D01*
X55647403Y-53777443D01*
X55635667Y-53799399D01*
X55628440Y-53823224D01*
X55626000Y-53848000D01*
X55626000Y-58674000D01*
X53975000Y-58674000D01*
X53975000Y-55372000D01*
X53972560Y-55347224D01*
X53965333Y-55323399D01*
X53953597Y-55301443D01*
X53937803Y-55282197D01*
X53918557Y-55266403D01*
X53896601Y-55254667D01*
X53872776Y-55247440D01*
X53848000Y-55245000D01*
X52973093Y-55245000D01*
X52902816Y-55174723D01*
X52754099Y-55075353D01*
X52588854Y-55006906D01*
X52413430Y-54972012D01*
X52234570Y-54972012D01*
X52059146Y-55006906D01*
X51893901Y-55075353D01*
X51745184Y-55174723D01*
X51674907Y-55245000D01*
X51633000Y-55245000D01*
X51633000Y-54262197D01*
X51920197Y-53975000D01*
X54864000Y-53975000D01*
X54888776Y-53972560D01*
X54912601Y-53965333D01*
X54934557Y-53953597D01*
X54953803Y-53937803D01*
X54969597Y-53918557D01*
X54981333Y-53896601D01*
X54988560Y-53872776D01*
X54991000Y-53848000D01*
X54991000Y-53212830D01*
X59109466Y-53207321D01*
X59136405Y-53229429D01*
X59224657Y-53276601D01*
X59320415Y-53305649D01*
X59420000Y-53315457D01*
X60580000Y-53315457D01*
X60679585Y-53305649D01*
X60775343Y-53276601D01*
X60863595Y-53229429D01*
X60890000Y-53207759D01*
X60916405Y-53229429D01*
X61004657Y-53276601D01*
X61100415Y-53305649D01*
X61200000Y-53315457D01*
X62360000Y-53315457D01*
X62459585Y-53305649D01*
X62555343Y-53276601D01*
X62643595Y-53229429D01*
X62676347Y-53202550D01*
X64773000Y-53199746D01*
X64773000Y-54934173D01*
X64773000Y-54934173D01*
G37*
X64773000Y-54934173D02*
X64605936Y-55101237D01*
X58674000Y-55117648D01*
X58674000Y-53848000D01*
X58671560Y-53823224D01*
X58664333Y-53799399D01*
X58652597Y-53777443D01*
X58636803Y-53758197D01*
X58617557Y-53742403D01*
X58595601Y-53730667D01*
X58571776Y-53723440D01*
X58547000Y-53721000D01*
X58276123Y-53721000D01*
X58270649Y-53665415D01*
X58241601Y-53569657D01*
X58194429Y-53481405D01*
X58130948Y-53404052D01*
X58053595Y-53340571D01*
X57965343Y-53293399D01*
X57869585Y-53264351D01*
X57770000Y-53254543D01*
X56610000Y-53254543D01*
X56510415Y-53264351D01*
X56414657Y-53293399D01*
X56326405Y-53340571D01*
X56249052Y-53404052D01*
X56185571Y-53481405D01*
X56138399Y-53569657D01*
X56109351Y-53665415D01*
X56103877Y-53721000D01*
X55753000Y-53721000D01*
X55728224Y-53723440D01*
X55704399Y-53730667D01*
X55682443Y-53742403D01*
X55663197Y-53758197D01*
X55647403Y-53777443D01*
X55635667Y-53799399D01*
X55628440Y-53823224D01*
X55626000Y-53848000D01*
X55626000Y-58674000D01*
X53975000Y-58674000D01*
X53975000Y-55372000D01*
X53972560Y-55347224D01*
X53965333Y-55323399D01*
X53953597Y-55301443D01*
X53937803Y-55282197D01*
X53918557Y-55266403D01*
X53896601Y-55254667D01*
X53872776Y-55247440D01*
X53848000Y-55245000D01*
X52973093Y-55245000D01*
X52902816Y-55174723D01*
X52754099Y-55075353D01*
X52588854Y-55006906D01*
X52413430Y-54972012D01*
X52234570Y-54972012D01*
X52059146Y-55006906D01*
X51893901Y-55075353D01*
X51745184Y-55174723D01*
X51674907Y-55245000D01*
X51633000Y-55245000D01*
X51633000Y-54262197D01*
X51920197Y-53975000D01*
X54864000Y-53975000D01*
X54888776Y-53972560D01*
X54912601Y-53965333D01*
X54934557Y-53953597D01*
X54953803Y-53937803D01*
X54969597Y-53918557D01*
X54981333Y-53896601D01*
X54988560Y-53872776D01*
X54991000Y-53848000D01*
X54991000Y-53212830D01*
X59109466Y-53207321D01*
X59136405Y-53229429D01*
X59224657Y-53276601D01*
X59320415Y-53305649D01*
X59420000Y-53315457D01*
X60580000Y-53315457D01*
X60679585Y-53305649D01*
X60775343Y-53276601D01*
X60863595Y-53229429D01*
X60890000Y-53207759D01*
X60916405Y-53229429D01*
X61004657Y-53276601D01*
X61100415Y-53305649D01*
X61200000Y-53315457D01*
X62360000Y-53315457D01*
X62459585Y-53305649D01*
X62555343Y-53276601D01*
X62643595Y-53229429D01*
X62676347Y-53202550D01*
X64773000Y-53199746D01*
X64773000Y-54934173D01*
D42*
G36*
X55626548Y-58918598D02*
G01*
X55689500Y-59036373D01*
X55689500Y-61087000D01*
X55693160Y-61124165D01*
X55704001Y-61159901D01*
X55721605Y-61192836D01*
X55745296Y-61221704D01*
X55774164Y-61245395D01*
X55807099Y-61262999D01*
X55842835Y-61273840D01*
X55880000Y-61277500D01*
X56614698Y-61277500D01*
X56576607Y-61403070D01*
X56563121Y-61540000D01*
X56563121Y-62700000D01*
X56576607Y-62836930D01*
X56616548Y-62968597D01*
X56681409Y-63089943D01*
X56768697Y-63196303D01*
X56875057Y-63283591D01*
X56901500Y-63297725D01*
X56901500Y-63354193D01*
X56943715Y-63566421D01*
X57026522Y-63766335D01*
X57146739Y-63946253D01*
X57299747Y-64099261D01*
X57479665Y-64219478D01*
X57679579Y-64302285D01*
X57891807Y-64344500D01*
X58108193Y-64344500D01*
X58320421Y-64302285D01*
X58520335Y-64219478D01*
X58700253Y-64099261D01*
X58853261Y-63946253D01*
X58973478Y-63766335D01*
X59056285Y-63566421D01*
X59098500Y-63354193D01*
X59098500Y-63297725D01*
X59124943Y-63283591D01*
X59231303Y-63196303D01*
X59318591Y-63089943D01*
X59383452Y-62968597D01*
X59423393Y-62836930D01*
X59436879Y-62700000D01*
X59436879Y-61540000D01*
X59423393Y-61403070D01*
X59385302Y-61277500D01*
X70960954Y-61277500D01*
X70946641Y-66111000D01*
X52246491Y-66111000D01*
X52258666Y-61413768D01*
X52624321Y-60896500D01*
X53848000Y-60896500D01*
X53885165Y-60892840D01*
X53920901Y-60881999D01*
X53953836Y-60864395D01*
X53982704Y-60840704D01*
X54006395Y-60811836D01*
X54023999Y-60778901D01*
X54034840Y-60743165D01*
X54038500Y-60706000D01*
X54038500Y-58864500D01*
X55610137Y-58864500D01*
X55626548Y-58918598D01*
X55626548Y-58918598D01*
G37*
X55626548Y-58918598D02*
X55689500Y-59036373D01*
X55689500Y-61087000D01*
X55693160Y-61124165D01*
X55704001Y-61159901D01*
X55721605Y-61192836D01*
X55745296Y-61221704D01*
X55774164Y-61245395D01*
X55807099Y-61262999D01*
X55842835Y-61273840D01*
X55880000Y-61277500D01*
X56614698Y-61277500D01*
X56576607Y-61403070D01*
X56563121Y-61540000D01*
X56563121Y-62700000D01*
X56576607Y-62836930D01*
X56616548Y-62968597D01*
X56681409Y-63089943D01*
X56768697Y-63196303D01*
X56875057Y-63283591D01*
X56901500Y-63297725D01*
X56901500Y-63354193D01*
X56943715Y-63566421D01*
X57026522Y-63766335D01*
X57146739Y-63946253D01*
X57299747Y-64099261D01*
X57479665Y-64219478D01*
X57679579Y-64302285D01*
X57891807Y-64344500D01*
X58108193Y-64344500D01*
X58320421Y-64302285D01*
X58520335Y-64219478D01*
X58700253Y-64099261D01*
X58853261Y-63946253D01*
X58973478Y-63766335D01*
X59056285Y-63566421D01*
X59098500Y-63354193D01*
X59098500Y-63297725D01*
X59124943Y-63283591D01*
X59231303Y-63196303D01*
X59318591Y-63089943D01*
X59383452Y-62968597D01*
X59423393Y-62836930D01*
X59436879Y-62700000D01*
X59436879Y-61540000D01*
X59423393Y-61403070D01*
X59385302Y-61277500D01*
X70960954Y-61277500D01*
X70946641Y-66111000D01*
X52246491Y-66111000D01*
X52258666Y-61413768D01*
X52624321Y-60896500D01*
X53848000Y-60896500D01*
X53885165Y-60892840D01*
X53920901Y-60881999D01*
X53953836Y-60864395D01*
X53982704Y-60840704D01*
X54006395Y-60811836D01*
X54023999Y-60778901D01*
X54034840Y-60743165D01*
X54038500Y-60706000D01*
X54038500Y-58864500D01*
X55610137Y-58864500D01*
X55626548Y-58918598D01*
D40*
G36*
X48006000Y-65913000D02*
G01*
X34290000Y-65913000D01*
X34290000Y-61087000D01*
X48006000Y-61087000D01*
X48006000Y-65913000D01*
X48006000Y-65913000D01*
G37*
X48006000Y-65913000D02*
X34290000Y-65913000D01*
X34290000Y-61087000D01*
X48006000Y-61087000D01*
X48006000Y-65913000D01*
D45*
G36*
X53327300Y-58669964D02*
G01*
X48126424Y-66027300D01*
X47112700Y-66027300D01*
X47112700Y-60967861D01*
X51945989Y-58559700D01*
X53327300Y-58559700D01*
X53327300Y-58669964D01*
X53327300Y-58669964D01*
G37*
X53327300Y-58669964D02*
X48126424Y-66027300D01*
X47112700Y-66027300D01*
X47112700Y-60967861D01*
X51945989Y-58559700D01*
X53327300Y-58559700D01*
X53327300Y-58669964D01*
D40*
G36*
X39751000Y-54229000D02*
G01*
X27227000Y-54229000D01*
X27227000Y-50673000D01*
X33909000Y-50673000D01*
X33933776Y-50670560D01*
X33957601Y-50663333D01*
X33979557Y-50651597D01*
X33998803Y-50635803D01*
X34469606Y-50165000D01*
X39751000Y-50165000D01*
X39751000Y-54229000D01*
X39751000Y-54229000D01*
G37*
X39751000Y-54229000D02*
X27227000Y-54229000D01*
X27227000Y-50673000D01*
X33909000Y-50673000D01*
X33933776Y-50670560D01*
X33957601Y-50663333D01*
X33979557Y-50651597D01*
X33998803Y-50635803D01*
X34469606Y-50165000D01*
X39751000Y-50165000D01*
X39751000Y-54229000D01*
D42*
G36*
X54419500Y-51156598D02*
G01*
X54369448Y-51250238D01*
X54336769Y-51357966D01*
X54325735Y-51470000D01*
X54325735Y-52670000D01*
X54336769Y-52782034D01*
X54369448Y-52889762D01*
X54419500Y-52983402D01*
X54419500Y-53086000D01*
X54423160Y-53123165D01*
X54434001Y-53158901D01*
X54451605Y-53191836D01*
X54475296Y-53220704D01*
X54504164Y-53244395D01*
X54537099Y-53261999D01*
X54572835Y-53272840D01*
X54610000Y-53276500D01*
X54800500Y-53276500D01*
X54800500Y-53784500D01*
X53491794Y-53784500D01*
X53536484Y-53730045D01*
X53589552Y-53630762D01*
X53622231Y-53523034D01*
X53633265Y-53411000D01*
X53633265Y-52251000D01*
X53622231Y-52138966D01*
X53589552Y-52031238D01*
X53536484Y-51931955D01*
X53465500Y-51845461D01*
X53465500Y-51501795D01*
X53539045Y-51462484D01*
X53626067Y-51391067D01*
X53697484Y-51304045D01*
X53750552Y-51204762D01*
X53783231Y-51097034D01*
X53794265Y-50985000D01*
X53794265Y-49515000D01*
X53783231Y-49402966D01*
X53750552Y-49295238D01*
X53697484Y-49195955D01*
X53626067Y-49108933D01*
X53539045Y-49037516D01*
X53439762Y-48984448D01*
X53332034Y-48951769D01*
X53276500Y-48946300D01*
X53276500Y-48196500D01*
X54419500Y-48196500D01*
X54419500Y-51156598D01*
X54419500Y-51156598D01*
G37*
X54419500Y-51156598D02*
X54369448Y-51250238D01*
X54336769Y-51357966D01*
X54325735Y-51470000D01*
X54325735Y-52670000D01*
X54336769Y-52782034D01*
X54369448Y-52889762D01*
X54419500Y-52983402D01*
X54419500Y-53086000D01*
X54423160Y-53123165D01*
X54434001Y-53158901D01*
X54451605Y-53191836D01*
X54475296Y-53220704D01*
X54504164Y-53244395D01*
X54537099Y-53261999D01*
X54572835Y-53272840D01*
X54610000Y-53276500D01*
X54800500Y-53276500D01*
X54800500Y-53784500D01*
X53491794Y-53784500D01*
X53536484Y-53730045D01*
X53589552Y-53630762D01*
X53622231Y-53523034D01*
X53633265Y-53411000D01*
X53633265Y-52251000D01*
X53622231Y-52138966D01*
X53589552Y-52031238D01*
X53536484Y-51931955D01*
X53465500Y-51845461D01*
X53465500Y-51501795D01*
X53539045Y-51462484D01*
X53626067Y-51391067D01*
X53697484Y-51304045D01*
X53750552Y-51204762D01*
X53783231Y-51097034D01*
X53794265Y-50985000D01*
X53794265Y-49515000D01*
X53783231Y-49402966D01*
X53750552Y-49295238D01*
X53697484Y-49195955D01*
X53626067Y-49108933D01*
X53539045Y-49037516D01*
X53439762Y-48984448D01*
X53332034Y-48951769D01*
X53276500Y-48946300D01*
X53276500Y-48196500D01*
X54419500Y-48196500D01*
X54419500Y-51156598D01*
G36*
X69559500Y-59809500D02*
G01*
X59436879Y-59809500D01*
X59436879Y-59760000D01*
X59423393Y-59623070D01*
X59383452Y-59491403D01*
X59318591Y-59370057D01*
X59231303Y-59263697D01*
X59190500Y-59230211D01*
X59190500Y-58690500D01*
X69559500Y-58690500D01*
X69559500Y-59809500D01*
X69559500Y-59809500D01*
G37*
X69559500Y-59809500D02*
X59436879Y-59809500D01*
X59436879Y-59760000D01*
X59423393Y-59623070D01*
X59383452Y-59491403D01*
X59318591Y-59370057D01*
X59231303Y-59263697D01*
X59190500Y-59230211D01*
X59190500Y-58690500D01*
X69559500Y-58690500D01*
X69559500Y-59809500D01*
D40*
G36*
X52123000Y-31123000D02*
G01*
X47127000Y-31123000D01*
X47127000Y-21127000D01*
X52123000Y-21127000D01*
X52123000Y-31123000D01*
X52123000Y-31123000D01*
G37*
X52123000Y-31123000D02*
X47127000Y-31123000D01*
X47127000Y-21127000D01*
X52123000Y-21127000D01*
X52123000Y-31123000D01*
G36*
X72623000Y-32123000D02*
G01*
X55877000Y-32123000D01*
X55877000Y-20885000D01*
X72623000Y-20885000D01*
X72623000Y-32123000D01*
X72623000Y-32123000D01*
G37*
X72623000Y-32123000D02*
X55877000Y-32123000D01*
X55877000Y-20885000D01*
X72623000Y-20885000D01*
X72623000Y-32123000D01*
G36*
X104115000Y-35400684D02*
G01*
X104115001Y-49698885D01*
X92624620Y-49683816D01*
X92593094Y-49674253D01*
X92448380Y-49660000D01*
X91251620Y-49660000D01*
X91106906Y-49674253D01*
X91082049Y-49681793D01*
X87402041Y-49676967D01*
X87393094Y-49674253D01*
X87248380Y-49660000D01*
X86051620Y-49660000D01*
X85906906Y-49674253D01*
X85904433Y-49675003D01*
X84923861Y-49673717D01*
X84859482Y-49654188D01*
X84735000Y-49641928D01*
X84285750Y-49645000D01*
X84257906Y-49672844D01*
X83741417Y-49672167D01*
X83714250Y-49645000D01*
X83265000Y-49641928D01*
X83140518Y-49654188D01*
X83084092Y-49671305D01*
X82042371Y-49669938D01*
X81967397Y-49594965D01*
X81941541Y-49563459D01*
X81815842Y-49460301D01*
X81672434Y-49383647D01*
X81516826Y-49336444D01*
X81395553Y-49324500D01*
X81395550Y-49324500D01*
X81355000Y-49320506D01*
X81314450Y-49324500D01*
X76811933Y-49324500D01*
X76441535Y-48954103D01*
X76455000Y-48886411D01*
X76455000Y-48613589D01*
X76401775Y-48346011D01*
X76297371Y-48093957D01*
X76145799Y-47867114D01*
X75952886Y-47674201D01*
X75726043Y-47522629D01*
X75473989Y-47418225D01*
X75206411Y-47365000D01*
X74933589Y-47365000D01*
X74666011Y-47418225D01*
X74413957Y-47522629D01*
X74187114Y-47674201D01*
X74119305Y-47742011D01*
X74053843Y-47676549D01*
X73937387Y-47793005D01*
X73871863Y-47554140D01*
X73624884Y-47438240D01*
X73360040Y-47372750D01*
X73087508Y-47360188D01*
X72817762Y-47401035D01*
X72561168Y-47493723D01*
X72453293Y-47551384D01*
X72451185Y-47548815D01*
X72354494Y-47469463D01*
X72244180Y-47410498D01*
X72124482Y-47374188D01*
X72000000Y-47361928D01*
X70500000Y-47361928D01*
X70375518Y-47374188D01*
X70255820Y-47410498D01*
X70145506Y-47469463D01*
X70048815Y-47548815D01*
X69969463Y-47645506D01*
X69910498Y-47755820D01*
X69878592Y-47861000D01*
X69486858Y-47861000D01*
X69459502Y-47770820D01*
X69400537Y-47660506D01*
X69321185Y-47563815D01*
X69224494Y-47484463D01*
X69114180Y-47425498D01*
X68994482Y-47389188D01*
X68870000Y-47376928D01*
X67710000Y-47376928D01*
X67585518Y-47389188D01*
X67465820Y-47425498D01*
X67400000Y-47460680D01*
X67334180Y-47425498D01*
X67214482Y-47389188D01*
X67090000Y-47376928D01*
X66795750Y-47380000D01*
X66637000Y-47538750D01*
X66637000Y-48623000D01*
X66657000Y-48623000D01*
X66657000Y-48877000D01*
X66637000Y-48877000D01*
X66637000Y-48897000D01*
X66383000Y-48897000D01*
X66383000Y-48877000D01*
X65453750Y-48877000D01*
X65295000Y-49035750D01*
X65291928Y-49485000D01*
X65304188Y-49609482D01*
X65315873Y-49648003D01*
X60999776Y-49642343D01*
X60908072Y-49550639D01*
X60908072Y-48765000D01*
X60895812Y-48640518D01*
X60859502Y-48520820D01*
X60800537Y-48410506D01*
X60721185Y-48313815D01*
X60624494Y-48234463D01*
X60514180Y-48175498D01*
X60394482Y-48139188D01*
X60270000Y-48126928D01*
X59110000Y-48126928D01*
X58985518Y-48139188D01*
X58865820Y-48175498D01*
X58800000Y-48210680D01*
X58734180Y-48175498D01*
X58614482Y-48139188D01*
X58490000Y-48126928D01*
X57330000Y-48126928D01*
X57205518Y-48139188D01*
X57085820Y-48175498D01*
X56975506Y-48234463D01*
X56878815Y-48313815D01*
X56799463Y-48410506D01*
X56740498Y-48520820D01*
X56704188Y-48640518D01*
X56692763Y-48756526D01*
X56592157Y-48810301D01*
X56497958Y-48887608D01*
X56497957Y-48887609D01*
X56466459Y-48913459D01*
X56440611Y-48944955D01*
X55750109Y-49635458D01*
X53858072Y-49632977D01*
X53858072Y-49515000D01*
X53845812Y-49390518D01*
X53809502Y-49270820D01*
X53750537Y-49160506D01*
X53671185Y-49063815D01*
X53574494Y-48984463D01*
X53464180Y-48925498D01*
X53344482Y-48889188D01*
X53220000Y-48876928D01*
X52060000Y-48876928D01*
X51935518Y-48889188D01*
X51815820Y-48925498D01*
X51750000Y-48960680D01*
X51684180Y-48925498D01*
X51564482Y-48889188D01*
X51440000Y-48876928D01*
X50280000Y-48876928D01*
X50155518Y-48889188D01*
X50035820Y-48925498D01*
X49925506Y-48984463D01*
X49828815Y-49063815D01*
X49749463Y-49160506D01*
X49690498Y-49270820D01*
X49663142Y-49361000D01*
X49086858Y-49361000D01*
X49059502Y-49270820D01*
X49000537Y-49160506D01*
X48921185Y-49063815D01*
X48824494Y-48984463D01*
X48714180Y-48925498D01*
X48594482Y-48889188D01*
X48470000Y-48876928D01*
X47310000Y-48876928D01*
X47185518Y-48889188D01*
X47065820Y-48925498D01*
X47000000Y-48960680D01*
X46934180Y-48925498D01*
X46814482Y-48889188D01*
X46690000Y-48876928D01*
X46377000Y-48876928D01*
X46377000Y-48015000D01*
X65291928Y-48015000D01*
X65295000Y-48464250D01*
X65453750Y-48623000D01*
X66383000Y-48623000D01*
X66383000Y-47538750D01*
X66224250Y-47380000D01*
X65930000Y-47376928D01*
X65805518Y-47389188D01*
X65685820Y-47425498D01*
X65575506Y-47484463D01*
X65478815Y-47563815D01*
X65399463Y-47660506D01*
X65340498Y-47770820D01*
X65304188Y-47890518D01*
X65291928Y-48015000D01*
X46377000Y-48015000D01*
X46377000Y-38627000D01*
X49875369Y-38627000D01*
X49910721Y-38662352D01*
X49934578Y-38691422D01*
X49963648Y-38715279D01*
X50050607Y-38786645D01*
X50121364Y-38824465D01*
X50182985Y-38857402D01*
X50326622Y-38900974D01*
X50438574Y-38912000D01*
X50438577Y-38912000D01*
X50476000Y-38915686D01*
X50513423Y-38912000D01*
X54137577Y-38912000D01*
X54175000Y-38915686D01*
X54212423Y-38912000D01*
X54212426Y-38912000D01*
X54324378Y-38900974D01*
X54468015Y-38857402D01*
X54600392Y-38786645D01*
X54716422Y-38691422D01*
X54740284Y-38662346D01*
X54775630Y-38627000D01*
X59530243Y-38627000D01*
X59578815Y-38686185D01*
X59675506Y-38765537D01*
X59785820Y-38824502D01*
X59905518Y-38860812D01*
X60030000Y-38873072D01*
X61190000Y-38873072D01*
X61314482Y-38860812D01*
X61434180Y-38824502D01*
X61500000Y-38789320D01*
X61565820Y-38824502D01*
X61685518Y-38860812D01*
X61810000Y-38873072D01*
X62970000Y-38873072D01*
X63094482Y-38860812D01*
X63214180Y-38824502D01*
X63324494Y-38765537D01*
X63421185Y-38686185D01*
X63459909Y-38639000D01*
X67467528Y-38639000D01*
X67509740Y-38667205D01*
X67698098Y-38745226D01*
X67898057Y-38785000D01*
X68101935Y-38785000D01*
X68301894Y-38745226D01*
X68490252Y-38667205D01*
X68550423Y-38627000D01*
X77750000Y-38627000D01*
X77774776Y-38624560D01*
X77798601Y-38617333D01*
X77820557Y-38605597D01*
X77839803Y-38589803D01*
X81052552Y-35377054D01*
X104115000Y-35400684D01*
X104115000Y-35400684D01*
G37*
X104115000Y-35400684D02*
X104115001Y-49698885D01*
X92624620Y-49683816D01*
X92593094Y-49674253D01*
X92448380Y-49660000D01*
X91251620Y-49660000D01*
X91106906Y-49674253D01*
X91082049Y-49681793D01*
X87402041Y-49676967D01*
X87393094Y-49674253D01*
X87248380Y-49660000D01*
X86051620Y-49660000D01*
X85906906Y-49674253D01*
X85904433Y-49675003D01*
X84923861Y-49673717D01*
X84859482Y-49654188D01*
X84735000Y-49641928D01*
X84285750Y-49645000D01*
X84257906Y-49672844D01*
X83741417Y-49672167D01*
X83714250Y-49645000D01*
X83265000Y-49641928D01*
X83140518Y-49654188D01*
X83084092Y-49671305D01*
X82042371Y-49669938D01*
X81967397Y-49594965D01*
X81941541Y-49563459D01*
X81815842Y-49460301D01*
X81672434Y-49383647D01*
X81516826Y-49336444D01*
X81395553Y-49324500D01*
X81395550Y-49324500D01*
X81355000Y-49320506D01*
X81314450Y-49324500D01*
X76811933Y-49324500D01*
X76441535Y-48954103D01*
X76455000Y-48886411D01*
X76455000Y-48613589D01*
X76401775Y-48346011D01*
X76297371Y-48093957D01*
X76145799Y-47867114D01*
X75952886Y-47674201D01*
X75726043Y-47522629D01*
X75473989Y-47418225D01*
X75206411Y-47365000D01*
X74933589Y-47365000D01*
X74666011Y-47418225D01*
X74413957Y-47522629D01*
X74187114Y-47674201D01*
X74119305Y-47742011D01*
X74053843Y-47676549D01*
X73937387Y-47793005D01*
X73871863Y-47554140D01*
X73624884Y-47438240D01*
X73360040Y-47372750D01*
X73087508Y-47360188D01*
X72817762Y-47401035D01*
X72561168Y-47493723D01*
X72453293Y-47551384D01*
X72451185Y-47548815D01*
X72354494Y-47469463D01*
X72244180Y-47410498D01*
X72124482Y-47374188D01*
X72000000Y-47361928D01*
X70500000Y-47361928D01*
X70375518Y-47374188D01*
X70255820Y-47410498D01*
X70145506Y-47469463D01*
X70048815Y-47548815D01*
X69969463Y-47645506D01*
X69910498Y-47755820D01*
X69878592Y-47861000D01*
X69486858Y-47861000D01*
X69459502Y-47770820D01*
X69400537Y-47660506D01*
X69321185Y-47563815D01*
X69224494Y-47484463D01*
X69114180Y-47425498D01*
X68994482Y-47389188D01*
X68870000Y-47376928D01*
X67710000Y-47376928D01*
X67585518Y-47389188D01*
X67465820Y-47425498D01*
X67400000Y-47460680D01*
X67334180Y-47425498D01*
X67214482Y-47389188D01*
X67090000Y-47376928D01*
X66795750Y-47380000D01*
X66637000Y-47538750D01*
X66637000Y-48623000D01*
X66657000Y-48623000D01*
X66657000Y-48877000D01*
X66637000Y-48877000D01*
X66637000Y-48897000D01*
X66383000Y-48897000D01*
X66383000Y-48877000D01*
X65453750Y-48877000D01*
X65295000Y-49035750D01*
X65291928Y-49485000D01*
X65304188Y-49609482D01*
X65315873Y-49648003D01*
X60999776Y-49642343D01*
X60908072Y-49550639D01*
X60908072Y-48765000D01*
X60895812Y-48640518D01*
X60859502Y-48520820D01*
X60800537Y-48410506D01*
X60721185Y-48313815D01*
X60624494Y-48234463D01*
X60514180Y-48175498D01*
X60394482Y-48139188D01*
X60270000Y-48126928D01*
X59110000Y-48126928D01*
X58985518Y-48139188D01*
X58865820Y-48175498D01*
X58800000Y-48210680D01*
X58734180Y-48175498D01*
X58614482Y-48139188D01*
X58490000Y-48126928D01*
X57330000Y-48126928D01*
X57205518Y-48139188D01*
X57085820Y-48175498D01*
X56975506Y-48234463D01*
X56878815Y-48313815D01*
X56799463Y-48410506D01*
X56740498Y-48520820D01*
X56704188Y-48640518D01*
X56692763Y-48756526D01*
X56592157Y-48810301D01*
X56497958Y-48887608D01*
X56497957Y-48887609D01*
X56466459Y-48913459D01*
X56440611Y-48944955D01*
X55750109Y-49635458D01*
X53858072Y-49632977D01*
X53858072Y-49515000D01*
X53845812Y-49390518D01*
X53809502Y-49270820D01*
X53750537Y-49160506D01*
X53671185Y-49063815D01*
X53574494Y-48984463D01*
X53464180Y-48925498D01*
X53344482Y-48889188D01*
X53220000Y-48876928D01*
X52060000Y-48876928D01*
X51935518Y-48889188D01*
X51815820Y-48925498D01*
X51750000Y-48960680D01*
X51684180Y-48925498D01*
X51564482Y-48889188D01*
X51440000Y-48876928D01*
X50280000Y-48876928D01*
X50155518Y-48889188D01*
X50035820Y-48925498D01*
X49925506Y-48984463D01*
X49828815Y-49063815D01*
X49749463Y-49160506D01*
X49690498Y-49270820D01*
X49663142Y-49361000D01*
X49086858Y-49361000D01*
X49059502Y-49270820D01*
X49000537Y-49160506D01*
X48921185Y-49063815D01*
X48824494Y-48984463D01*
X48714180Y-48925498D01*
X48594482Y-48889188D01*
X48470000Y-48876928D01*
X47310000Y-48876928D01*
X47185518Y-48889188D01*
X47065820Y-48925498D01*
X47000000Y-48960680D01*
X46934180Y-48925498D01*
X46814482Y-48889188D01*
X46690000Y-48876928D01*
X46377000Y-48876928D01*
X46377000Y-48015000D01*
X65291928Y-48015000D01*
X65295000Y-48464250D01*
X65453750Y-48623000D01*
X66383000Y-48623000D01*
X66383000Y-47538750D01*
X66224250Y-47380000D01*
X65930000Y-47376928D01*
X65805518Y-47389188D01*
X65685820Y-47425498D01*
X65575506Y-47484463D01*
X65478815Y-47563815D01*
X65399463Y-47660506D01*
X65340498Y-47770820D01*
X65304188Y-47890518D01*
X65291928Y-48015000D01*
X46377000Y-48015000D01*
X46377000Y-38627000D01*
X49875369Y-38627000D01*
X49910721Y-38662352D01*
X49934578Y-38691422D01*
X49963648Y-38715279D01*
X50050607Y-38786645D01*
X50121364Y-38824465D01*
X50182985Y-38857402D01*
X50326622Y-38900974D01*
X50438574Y-38912000D01*
X50438577Y-38912000D01*
X50476000Y-38915686D01*
X50513423Y-38912000D01*
X54137577Y-38912000D01*
X54175000Y-38915686D01*
X54212423Y-38912000D01*
X54212426Y-38912000D01*
X54324378Y-38900974D01*
X54468015Y-38857402D01*
X54600392Y-38786645D01*
X54716422Y-38691422D01*
X54740284Y-38662346D01*
X54775630Y-38627000D01*
X59530243Y-38627000D01*
X59578815Y-38686185D01*
X59675506Y-38765537D01*
X59785820Y-38824502D01*
X59905518Y-38860812D01*
X60030000Y-38873072D01*
X61190000Y-38873072D01*
X61314482Y-38860812D01*
X61434180Y-38824502D01*
X61500000Y-38789320D01*
X61565820Y-38824502D01*
X61685518Y-38860812D01*
X61810000Y-38873072D01*
X62970000Y-38873072D01*
X63094482Y-38860812D01*
X63214180Y-38824502D01*
X63324494Y-38765537D01*
X63421185Y-38686185D01*
X63459909Y-38639000D01*
X67467528Y-38639000D01*
X67509740Y-38667205D01*
X67698098Y-38745226D01*
X67898057Y-38785000D01*
X68101935Y-38785000D01*
X68301894Y-38745226D01*
X68490252Y-38667205D01*
X68550423Y-38627000D01*
X77750000Y-38627000D01*
X77774776Y-38624560D01*
X77798601Y-38617333D01*
X77820557Y-38605597D01*
X77839803Y-38589803D01*
X81052552Y-35377054D01*
X104115000Y-35400684D01*
G36*
X73353748Y-48735858D02*
G01*
X73339605Y-48750000D01*
X73353748Y-48764143D01*
X73174143Y-48943748D01*
X73160000Y-48929605D01*
X73145858Y-48943748D01*
X72966253Y-48764143D01*
X72980395Y-48750000D01*
X72966253Y-48735858D01*
X73145858Y-48556253D01*
X73160000Y-48570395D01*
X73174143Y-48556253D01*
X73353748Y-48735858D01*
X73353748Y-48735858D01*
G37*
X73353748Y-48735858D02*
X73339605Y-48750000D01*
X73353748Y-48764143D01*
X73174143Y-48943748D01*
X73160000Y-48929605D01*
X73145858Y-48943748D01*
X72966253Y-48764143D01*
X72980395Y-48750000D01*
X72966253Y-48735858D01*
X73145858Y-48556253D01*
X73160000Y-48570395D01*
X73174143Y-48556253D01*
X73353748Y-48735858D01*
D42*
G36*
X102809500Y-32059500D02*
G01*
X73690500Y-32059500D01*
X73690500Y-20940500D01*
X102809500Y-20940500D01*
X102809500Y-32059500D01*
X102809500Y-32059500D01*
G37*
X102809500Y-32059500D02*
X73690500Y-32059500D01*
X73690500Y-20940500D01*
X102809500Y-20940500D01*
X102809500Y-32059500D01*
G36*
X27559500Y-58559500D02*
G01*
X22190500Y-58559500D01*
X22190500Y-57352697D01*
X22407904Y-57352697D01*
X22466211Y-57564453D01*
X22591214Y-57824724D01*
X22764591Y-58055607D01*
X22979680Y-58248229D01*
X23228215Y-58395188D01*
X23500645Y-58490837D01*
X23786500Y-58531500D01*
X24686500Y-58531500D01*
X24686500Y-57123500D01*
X24813500Y-57123500D01*
X24813500Y-58531500D01*
X25713500Y-58531500D01*
X25999355Y-58490837D01*
X26271785Y-58395188D01*
X26520320Y-58248229D01*
X26735409Y-58055607D01*
X26908786Y-57824724D01*
X27033789Y-57564453D01*
X27092096Y-57352697D01*
X26977107Y-57123500D01*
X24813500Y-57123500D01*
X24686500Y-57123500D01*
X22522893Y-57123500D01*
X22407904Y-57352697D01*
X22190500Y-57352697D01*
X22190500Y-56767303D01*
X22407904Y-56767303D01*
X22522893Y-56996500D01*
X24686500Y-56996500D01*
X24686500Y-55588500D01*
X24813500Y-55588500D01*
X24813500Y-56996500D01*
X26977107Y-56996500D01*
X27092096Y-56767303D01*
X27033789Y-56555547D01*
X26908786Y-56295276D01*
X26735409Y-56064393D01*
X26520320Y-55871771D01*
X26271785Y-55724812D01*
X25999355Y-55629163D01*
X25713500Y-55588500D01*
X24813500Y-55588500D01*
X24686500Y-55588500D01*
X23786500Y-55588500D01*
X23500645Y-55629163D01*
X23228215Y-55724812D01*
X22979680Y-55871771D01*
X22764591Y-56064393D01*
X22591214Y-56295276D01*
X22466211Y-56555547D01*
X22407904Y-56767303D01*
X22190500Y-56767303D01*
X22190500Y-54150000D01*
X22375735Y-54150000D01*
X22386769Y-54262034D01*
X22419448Y-54369762D01*
X22472516Y-54469045D01*
X22543933Y-54556067D01*
X22630955Y-54627484D01*
X22730238Y-54680552D01*
X22837966Y-54713231D01*
X22950000Y-54724265D01*
X24543625Y-54721500D01*
X24686500Y-54578625D01*
X24686500Y-53313500D01*
X24813500Y-53313500D01*
X24813500Y-54578625D01*
X24956375Y-54721500D01*
X26550000Y-54724265D01*
X26662034Y-54713231D01*
X26769762Y-54680552D01*
X26869045Y-54627484D01*
X26956067Y-54556067D01*
X27027484Y-54469045D01*
X27080552Y-54369762D01*
X27113231Y-54262034D01*
X27124265Y-54150000D01*
X27121500Y-53456375D01*
X26978625Y-53313500D01*
X24813500Y-53313500D01*
X24686500Y-53313500D01*
X22521375Y-53313500D01*
X22378500Y-53456375D01*
X22375735Y-54150000D01*
X22190500Y-54150000D01*
X22190500Y-52350000D01*
X22375735Y-52350000D01*
X22378500Y-53043625D01*
X22521375Y-53186500D01*
X24686500Y-53186500D01*
X24686500Y-51921375D01*
X24813500Y-51921375D01*
X24813500Y-53186500D01*
X26978625Y-53186500D01*
X27121500Y-53043625D01*
X27124265Y-52350000D01*
X27113231Y-52237966D01*
X27080552Y-52130238D01*
X27027484Y-52030955D01*
X26956067Y-51943933D01*
X26869045Y-51872516D01*
X26769762Y-51819448D01*
X26662034Y-51786769D01*
X26550000Y-51775735D01*
X24956375Y-51778500D01*
X24813500Y-51921375D01*
X24686500Y-51921375D01*
X24543625Y-51778500D01*
X22950000Y-51775735D01*
X22837966Y-51786769D01*
X22730238Y-51819448D01*
X22630955Y-51872516D01*
X22543933Y-51943933D01*
X22472516Y-52030955D01*
X22419448Y-52130238D01*
X22386769Y-52237966D01*
X22375735Y-52350000D01*
X22190500Y-52350000D01*
X22190500Y-50690500D01*
X27559500Y-50690500D01*
X27559500Y-58559500D01*
X27559500Y-58559500D01*
G37*
X27559500Y-58559500D02*
X22190500Y-58559500D01*
X22190500Y-57352697D01*
X22407904Y-57352697D01*
X22466211Y-57564453D01*
X22591214Y-57824724D01*
X22764591Y-58055607D01*
X22979680Y-58248229D01*
X23228215Y-58395188D01*
X23500645Y-58490837D01*
X23786500Y-58531500D01*
X24686500Y-58531500D01*
X24686500Y-57123500D01*
X24813500Y-57123500D01*
X24813500Y-58531500D01*
X25713500Y-58531500D01*
X25999355Y-58490837D01*
X26271785Y-58395188D01*
X26520320Y-58248229D01*
X26735409Y-58055607D01*
X26908786Y-57824724D01*
X27033789Y-57564453D01*
X27092096Y-57352697D01*
X26977107Y-57123500D01*
X24813500Y-57123500D01*
X24686500Y-57123500D01*
X22522893Y-57123500D01*
X22407904Y-57352697D01*
X22190500Y-57352697D01*
X22190500Y-56767303D01*
X22407904Y-56767303D01*
X22522893Y-56996500D01*
X24686500Y-56996500D01*
X24686500Y-55588500D01*
X24813500Y-55588500D01*
X24813500Y-56996500D01*
X26977107Y-56996500D01*
X27092096Y-56767303D01*
X27033789Y-56555547D01*
X26908786Y-56295276D01*
X26735409Y-56064393D01*
X26520320Y-55871771D01*
X26271785Y-55724812D01*
X25999355Y-55629163D01*
X25713500Y-55588500D01*
X24813500Y-55588500D01*
X24686500Y-55588500D01*
X23786500Y-55588500D01*
X23500645Y-55629163D01*
X23228215Y-55724812D01*
X22979680Y-55871771D01*
X22764591Y-56064393D01*
X22591214Y-56295276D01*
X22466211Y-56555547D01*
X22407904Y-56767303D01*
X22190500Y-56767303D01*
X22190500Y-54150000D01*
X22375735Y-54150000D01*
X22386769Y-54262034D01*
X22419448Y-54369762D01*
X22472516Y-54469045D01*
X22543933Y-54556067D01*
X22630955Y-54627484D01*
X22730238Y-54680552D01*
X22837966Y-54713231D01*
X22950000Y-54724265D01*
X24543625Y-54721500D01*
X24686500Y-54578625D01*
X24686500Y-53313500D01*
X24813500Y-53313500D01*
X24813500Y-54578625D01*
X24956375Y-54721500D01*
X26550000Y-54724265D01*
X26662034Y-54713231D01*
X26769762Y-54680552D01*
X26869045Y-54627484D01*
X26956067Y-54556067D01*
X27027484Y-54469045D01*
X27080552Y-54369762D01*
X27113231Y-54262034D01*
X27124265Y-54150000D01*
X27121500Y-53456375D01*
X26978625Y-53313500D01*
X24813500Y-53313500D01*
X24686500Y-53313500D01*
X22521375Y-53313500D01*
X22378500Y-53456375D01*
X22375735Y-54150000D01*
X22190500Y-54150000D01*
X22190500Y-52350000D01*
X22375735Y-52350000D01*
X22378500Y-53043625D01*
X22521375Y-53186500D01*
X24686500Y-53186500D01*
X24686500Y-51921375D01*
X24813500Y-51921375D01*
X24813500Y-53186500D01*
X26978625Y-53186500D01*
X27121500Y-53043625D01*
X27124265Y-52350000D01*
X27113231Y-52237966D01*
X27080552Y-52130238D01*
X27027484Y-52030955D01*
X26956067Y-51943933D01*
X26869045Y-51872516D01*
X26769762Y-51819448D01*
X26662034Y-51786769D01*
X26550000Y-51775735D01*
X24956375Y-51778500D01*
X24813500Y-51921375D01*
X24686500Y-51921375D01*
X24543625Y-51778500D01*
X22950000Y-51775735D01*
X22837966Y-51786769D01*
X22730238Y-51819448D01*
X22630955Y-51872516D01*
X22543933Y-51943933D01*
X22472516Y-52030955D01*
X22419448Y-52130238D01*
X22386769Y-52237966D01*
X22375735Y-52350000D01*
X22190500Y-52350000D01*
X22190500Y-50690500D01*
X27559500Y-50690500D01*
X27559500Y-58559500D01*
G36*
X87559500Y-55750000D02*
G01*
X87563160Y-55787165D01*
X87574001Y-55822901D01*
X87591605Y-55855836D01*
X87615296Y-55884704D01*
X87644164Y-55908395D01*
X87677099Y-55925999D01*
X87712835Y-55936840D01*
X87750000Y-55940500D01*
X88809500Y-55940500D01*
X88809500Y-57309500D01*
X86012000Y-57309500D01*
X86012000Y-54629761D01*
X86015686Y-54592338D01*
X86011190Y-54546691D01*
X86000974Y-54442960D01*
X85957402Y-54299323D01*
X85940500Y-54267701D01*
X85940500Y-54190500D01*
X87559500Y-54190500D01*
X87559500Y-55750000D01*
X87559500Y-55750000D01*
G37*
X87559500Y-55750000D02*
X87563160Y-55787165D01*
X87574001Y-55822901D01*
X87591605Y-55855836D01*
X87615296Y-55884704D01*
X87644164Y-55908395D01*
X87677099Y-55925999D01*
X87712835Y-55936840D01*
X87750000Y-55940500D01*
X88809500Y-55940500D01*
X88809500Y-57309500D01*
X86012000Y-57309500D01*
X86012000Y-54629761D01*
X86015686Y-54592338D01*
X86011190Y-54546691D01*
X86000974Y-54442960D01*
X85957402Y-54299323D01*
X85940500Y-54267701D01*
X85940500Y-54190500D01*
X87559500Y-54190500D01*
X87559500Y-55750000D01*
G36*
X27559500Y-67059500D02*
G01*
X22190500Y-67059500D01*
X22190500Y-64972697D01*
X22407904Y-64972697D01*
X22466211Y-65184453D01*
X22591214Y-65444724D01*
X22764591Y-65675607D01*
X22979680Y-65868229D01*
X23228215Y-66015188D01*
X23500645Y-66110837D01*
X23786500Y-66151500D01*
X24686500Y-66151500D01*
X24686500Y-64743500D01*
X24813500Y-64743500D01*
X24813500Y-66151500D01*
X25713500Y-66151500D01*
X25999355Y-66110837D01*
X26271785Y-66015188D01*
X26520320Y-65868229D01*
X26735409Y-65675607D01*
X26908786Y-65444724D01*
X27033789Y-65184453D01*
X27092096Y-64972697D01*
X26977107Y-64743500D01*
X24813500Y-64743500D01*
X24686500Y-64743500D01*
X22522893Y-64743500D01*
X22407904Y-64972697D01*
X22190500Y-64972697D01*
X22190500Y-64387303D01*
X22407904Y-64387303D01*
X22522893Y-64616500D01*
X24686500Y-64616500D01*
X24686500Y-63208500D01*
X24813500Y-63208500D01*
X24813500Y-64616500D01*
X26977107Y-64616500D01*
X27092096Y-64387303D01*
X27033789Y-64175547D01*
X26908786Y-63915276D01*
X26735409Y-63684393D01*
X26520320Y-63491771D01*
X26271785Y-63344812D01*
X25999355Y-63249163D01*
X25713500Y-63208500D01*
X24813500Y-63208500D01*
X24686500Y-63208500D01*
X23786500Y-63208500D01*
X23500645Y-63249163D01*
X23228215Y-63344812D01*
X22979680Y-63491771D01*
X22764591Y-63684393D01*
X22591214Y-63915276D01*
X22466211Y-64175547D01*
X22407904Y-64387303D01*
X22190500Y-64387303D01*
X22190500Y-61162697D01*
X22407904Y-61162697D01*
X22466211Y-61374453D01*
X22591214Y-61634724D01*
X22764591Y-61865607D01*
X22979680Y-62058229D01*
X23228215Y-62205188D01*
X23500645Y-62300837D01*
X23786500Y-62341500D01*
X24686500Y-62341500D01*
X24686500Y-60933500D01*
X24813500Y-60933500D01*
X24813500Y-62341500D01*
X25713500Y-62341500D01*
X25999355Y-62300837D01*
X26271785Y-62205188D01*
X26520320Y-62058229D01*
X26735409Y-61865607D01*
X26908786Y-61634724D01*
X27033789Y-61374453D01*
X27092096Y-61162697D01*
X26977107Y-60933500D01*
X24813500Y-60933500D01*
X24686500Y-60933500D01*
X22522893Y-60933500D01*
X22407904Y-61162697D01*
X22190500Y-61162697D01*
X22190500Y-60577303D01*
X22407904Y-60577303D01*
X22522893Y-60806500D01*
X24686500Y-60806500D01*
X24686500Y-59398500D01*
X24813500Y-59398500D01*
X24813500Y-60806500D01*
X26977107Y-60806500D01*
X27092096Y-60577303D01*
X27033789Y-60365547D01*
X26908786Y-60105276D01*
X26735409Y-59874393D01*
X26520320Y-59681771D01*
X26271785Y-59534812D01*
X25999355Y-59439163D01*
X25713500Y-59398500D01*
X24813500Y-59398500D01*
X24686500Y-59398500D01*
X23786500Y-59398500D01*
X23500645Y-59439163D01*
X23228215Y-59534812D01*
X22979680Y-59681771D01*
X22764591Y-59874393D01*
X22591214Y-60105276D01*
X22466211Y-60365547D01*
X22407904Y-60577303D01*
X22190500Y-60577303D01*
X22190500Y-59321500D01*
X27559500Y-59321500D01*
X27559500Y-67059500D01*
X27559500Y-67059500D01*
G37*
X27559500Y-67059500D02*
X22190500Y-67059500D01*
X22190500Y-64972697D01*
X22407904Y-64972697D01*
X22466211Y-65184453D01*
X22591214Y-65444724D01*
X22764591Y-65675607D01*
X22979680Y-65868229D01*
X23228215Y-66015188D01*
X23500645Y-66110837D01*
X23786500Y-66151500D01*
X24686500Y-66151500D01*
X24686500Y-64743500D01*
X24813500Y-64743500D01*
X24813500Y-66151500D01*
X25713500Y-66151500D01*
X25999355Y-66110837D01*
X26271785Y-66015188D01*
X26520320Y-65868229D01*
X26735409Y-65675607D01*
X26908786Y-65444724D01*
X27033789Y-65184453D01*
X27092096Y-64972697D01*
X26977107Y-64743500D01*
X24813500Y-64743500D01*
X24686500Y-64743500D01*
X22522893Y-64743500D01*
X22407904Y-64972697D01*
X22190500Y-64972697D01*
X22190500Y-64387303D01*
X22407904Y-64387303D01*
X22522893Y-64616500D01*
X24686500Y-64616500D01*
X24686500Y-63208500D01*
X24813500Y-63208500D01*
X24813500Y-64616500D01*
X26977107Y-64616500D01*
X27092096Y-64387303D01*
X27033789Y-64175547D01*
X26908786Y-63915276D01*
X26735409Y-63684393D01*
X26520320Y-63491771D01*
X26271785Y-63344812D01*
X25999355Y-63249163D01*
X25713500Y-63208500D01*
X24813500Y-63208500D01*
X24686500Y-63208500D01*
X23786500Y-63208500D01*
X23500645Y-63249163D01*
X23228215Y-63344812D01*
X22979680Y-63491771D01*
X22764591Y-63684393D01*
X22591214Y-63915276D01*
X22466211Y-64175547D01*
X22407904Y-64387303D01*
X22190500Y-64387303D01*
X22190500Y-61162697D01*
X22407904Y-61162697D01*
X22466211Y-61374453D01*
X22591214Y-61634724D01*
X22764591Y-61865607D01*
X22979680Y-62058229D01*
X23228215Y-62205188D01*
X23500645Y-62300837D01*
X23786500Y-62341500D01*
X24686500Y-62341500D01*
X24686500Y-60933500D01*
X24813500Y-60933500D01*
X24813500Y-62341500D01*
X25713500Y-62341500D01*
X25999355Y-62300837D01*
X26271785Y-62205188D01*
X26520320Y-62058229D01*
X26735409Y-61865607D01*
X26908786Y-61634724D01*
X27033789Y-61374453D01*
X27092096Y-61162697D01*
X26977107Y-60933500D01*
X24813500Y-60933500D01*
X24686500Y-60933500D01*
X22522893Y-60933500D01*
X22407904Y-61162697D01*
X22190500Y-61162697D01*
X22190500Y-60577303D01*
X22407904Y-60577303D01*
X22522893Y-60806500D01*
X24686500Y-60806500D01*
X24686500Y-59398500D01*
X24813500Y-59398500D01*
X24813500Y-60806500D01*
X26977107Y-60806500D01*
X27092096Y-60577303D01*
X27033789Y-60365547D01*
X26908786Y-60105276D01*
X26735409Y-59874393D01*
X26520320Y-59681771D01*
X26271785Y-59534812D01*
X25999355Y-59439163D01*
X25713500Y-59398500D01*
X24813500Y-59398500D01*
X24686500Y-59398500D01*
X23786500Y-59398500D01*
X23500645Y-59439163D01*
X23228215Y-59534812D01*
X22979680Y-59681771D01*
X22764591Y-59874393D01*
X22591214Y-60105276D01*
X22466211Y-60365547D01*
X22407904Y-60577303D01*
X22190500Y-60577303D01*
X22190500Y-59321500D01*
X27559500Y-59321500D01*
X27559500Y-67059500D01*
G36*
X74509500Y-65959500D02*
G01*
X70890500Y-65959500D01*
X70890500Y-63140500D01*
X74509500Y-63140500D01*
X74509500Y-65959500D01*
X74509500Y-65959500D01*
G37*
X74509500Y-65959500D02*
X70890500Y-65959500D01*
X70890500Y-63140500D01*
X74509500Y-63140500D01*
X74509500Y-65959500D01*
G36*
X74309500Y-60759500D02*
G01*
X71690500Y-60759500D01*
X71690500Y-57750000D01*
X71686840Y-57712835D01*
X71675999Y-57677099D01*
X71658395Y-57644164D01*
X71634704Y-57615296D01*
X71605836Y-57591605D01*
X71572901Y-57574001D01*
X71537165Y-57563160D01*
X71500000Y-57559500D01*
X68890500Y-57559500D01*
X68890500Y-56140500D01*
X74309500Y-56140500D01*
X74309500Y-60759500D01*
X74309500Y-60759500D01*
G37*
X74309500Y-60759500D02*
X71690500Y-60759500D01*
X71690500Y-57750000D01*
X71686840Y-57712835D01*
X71675999Y-57677099D01*
X71658395Y-57644164D01*
X71634704Y-57615296D01*
X71605836Y-57591605D01*
X71572901Y-57574001D01*
X71537165Y-57563160D01*
X71500000Y-57559500D01*
X68890500Y-57559500D01*
X68890500Y-56140500D01*
X74309500Y-56140500D01*
X74309500Y-60759500D01*
D46*
X85700000Y-36150000D03*
X86500000Y-55500000D03*
X87750000Y-56750000D03*
X80250000Y-57750001D03*
X66500000Y-64750000D03*
X64750000Y-64750000D03*
X63000000Y-64750000D03*
X61000000Y-64750000D03*
X58750000Y-64750000D03*
X56250000Y-64750000D03*
X81000000Y-65250000D03*
X81000000Y-59750000D03*
X81000000Y-62500000D03*
X89000000Y-51750000D03*
X51259748Y-60276752D03*
X64463990Y-33286000D03*
X68700000Y-64750000D03*
X77700000Y-48750000D03*
X80240000Y-48750000D03*
X82780000Y-48750000D03*
X85320000Y-48750000D03*
X87860000Y-48750000D03*
X90400000Y-48750000D03*
X92940000Y-48750000D03*
X95480000Y-48750000D03*
X98020000Y-48750000D03*
X100560000Y-48750000D03*
X88240000Y-36150000D03*
X90780000Y-36150000D03*
X93320000Y-36150000D03*
X95860000Y-36150000D03*
X98400000Y-36150000D03*
X100940000Y-36150000D03*
X103480000Y-36150000D03*
X85700000Y-38690000D03*
X88240000Y-38690000D03*
X90780000Y-38690000D03*
X93320000Y-38690000D03*
X95860000Y-38690000D03*
X98400000Y-38690000D03*
X100940000Y-38690000D03*
X103480000Y-38690000D03*
X85700000Y-41230000D03*
X88240000Y-41230000D03*
X90780000Y-41230000D03*
X93320000Y-41230000D03*
X95860000Y-41230000D03*
X98400000Y-41230000D03*
X100940000Y-41230000D03*
X103480000Y-41230000D03*
X85700000Y-43770000D03*
X88240000Y-43770000D03*
X90780000Y-43770000D03*
X93320000Y-43770000D03*
X95860000Y-43770000D03*
X98400000Y-43770000D03*
X100940000Y-43770000D03*
X103480000Y-43770000D03*
X85700000Y-46310000D03*
X88240000Y-46310000D03*
X90780000Y-46310000D03*
X93320000Y-46310000D03*
X95860000Y-46310000D03*
X98400000Y-46310000D03*
X100940000Y-46310000D03*
X103480000Y-46310000D03*
X103500000Y-48750000D03*
X21300000Y-21950000D03*
X23840000Y-21950000D03*
X26380000Y-21950000D03*
X28920000Y-21950000D03*
X31460000Y-21950000D03*
X34000000Y-21950000D03*
X36540000Y-21950000D03*
X39080000Y-21950000D03*
X41620000Y-21950000D03*
X44160000Y-21950000D03*
X21300000Y-24490000D03*
X23840000Y-24490000D03*
X26380000Y-24490000D03*
X28920000Y-24490000D03*
X31460000Y-24490000D03*
X34000000Y-24490000D03*
X36540000Y-24490000D03*
X39080000Y-24490000D03*
X41620000Y-24490000D03*
X44160000Y-24490000D03*
X21300000Y-27030000D03*
X23840000Y-27030000D03*
X26380000Y-27030000D03*
X28920000Y-27030000D03*
X31460000Y-27030000D03*
X34000000Y-27030000D03*
X36540000Y-27030000D03*
X39080000Y-27030000D03*
X41620000Y-27030000D03*
X44160000Y-27030000D03*
X21300000Y-29570000D03*
X23840000Y-29570000D03*
X26380000Y-29570000D03*
X28920000Y-29570000D03*
X31460000Y-29570000D03*
X34000000Y-29570000D03*
X36540000Y-29570000D03*
X39080000Y-29570000D03*
X41620000Y-29570000D03*
X44160000Y-29570000D03*
X21300000Y-32110000D03*
X23840000Y-32110000D03*
X26380000Y-32110000D03*
X28920000Y-32110000D03*
X31460000Y-32110000D03*
X34000000Y-32110000D03*
X36540000Y-32110000D03*
X39080000Y-32110000D03*
X41620000Y-32110000D03*
X44160000Y-32110000D03*
X21300000Y-34650000D03*
X23840000Y-34650000D03*
X26380000Y-34650000D03*
X28920000Y-34650000D03*
X31460000Y-34650000D03*
X34000000Y-34650000D03*
X36540000Y-34650000D03*
X39080000Y-34650000D03*
X41620000Y-34650000D03*
X44160000Y-34650000D03*
X21300000Y-37190000D03*
X23840000Y-37190000D03*
X26380000Y-37190000D03*
X28920000Y-37190000D03*
X31460000Y-37190000D03*
X34000000Y-37190000D03*
X36540000Y-37190000D03*
X39080000Y-37190000D03*
X41620000Y-37190000D03*
X44160000Y-37190000D03*
X21300000Y-39730000D03*
X23840000Y-39730000D03*
X26380000Y-39730000D03*
X28920000Y-39730000D03*
X31460000Y-39730000D03*
X34000000Y-39730000D03*
X36540000Y-39730000D03*
X39080000Y-39730000D03*
X41620000Y-39730000D03*
X44160000Y-39730000D03*
X69300000Y-39050000D03*
X64100000Y-39050000D03*
X71300000Y-39050000D03*
X73300000Y-39050000D03*
X75300000Y-39050000D03*
X77300000Y-39050000D03*
X79300000Y-39050000D03*
X69300000Y-40320000D03*
X71300000Y-40320000D03*
X73300000Y-40320000D03*
X75300000Y-40320000D03*
X77300000Y-40320000D03*
X79300000Y-40320000D03*
X69300000Y-41590000D03*
X71300000Y-41590000D03*
X73300000Y-41590000D03*
X75300000Y-41590000D03*
X77300000Y-41590000D03*
X79300000Y-41590000D03*
X69300000Y-42860000D03*
X71300000Y-42860000D03*
X73300000Y-42860000D03*
X75300000Y-42860000D03*
X77300000Y-42860000D03*
X79300000Y-42860000D03*
X69300000Y-44130000D03*
X71300000Y-44130000D03*
X73300000Y-44130000D03*
X75300000Y-44130000D03*
X77300000Y-44130000D03*
X79300000Y-44130000D03*
X69300000Y-45400000D03*
X71300000Y-45400000D03*
X73300000Y-45400000D03*
X75300000Y-45400000D03*
X77300000Y-45400000D03*
X79300000Y-45400000D03*
X69300000Y-46670000D03*
X71300000Y-46670000D03*
X73300000Y-46670000D03*
X75300000Y-46670000D03*
X77300000Y-46670000D03*
X79300000Y-46670000D03*
X62100000Y-39050000D03*
X60100000Y-39050000D03*
X58100000Y-39050000D03*
X56100000Y-39050000D03*
X54100000Y-39050000D03*
X64100000Y-40320000D03*
X62100000Y-40320000D03*
X60100000Y-40320000D03*
X58100000Y-40320000D03*
X56100000Y-40320000D03*
X54100000Y-40320000D03*
X64100000Y-41590000D03*
X62100000Y-41590000D03*
X60100000Y-41590000D03*
X58100000Y-41590000D03*
X56100000Y-41590000D03*
X54100000Y-41590000D03*
X64100000Y-42860000D03*
X62100000Y-42860000D03*
X60100000Y-42860000D03*
X58100000Y-42860000D03*
X56100000Y-42860000D03*
X54100000Y-42860000D03*
X64100000Y-44130000D03*
X62100000Y-44130000D03*
X60100000Y-44130000D03*
X58100000Y-44130000D03*
X56100000Y-44130000D03*
X54100000Y-44130000D03*
X64100000Y-45400000D03*
X62100000Y-45400000D03*
X60100000Y-45400000D03*
X58100000Y-45400000D03*
X56100000Y-45400000D03*
X54100000Y-45400000D03*
X64100000Y-46670000D03*
X62100000Y-46670000D03*
X60100000Y-46670000D03*
X58100000Y-46670000D03*
X56100000Y-46670000D03*
X54100000Y-46670000D03*
X64100000Y-47940000D03*
X62100000Y-47940000D03*
X60100000Y-47940000D03*
X58100000Y-47940000D03*
X56100000Y-47940000D03*
X54100000Y-47940000D03*
X80700000Y-51150000D03*
X58000000Y-63246000D03*
X52324000Y-55880012D03*
X55626000Y-50927000D03*
X71750000Y-53000000D03*
X65626000Y-31623000D03*
X77500000Y-53750000D03*
X75137990Y-53753204D03*
X59300000Y-21150000D03*
X61840000Y-21150000D03*
X64380000Y-21150000D03*
X66920000Y-21150000D03*
X69460000Y-21150000D03*
X72000000Y-21150000D03*
X59300000Y-23690000D03*
X61840000Y-23690000D03*
X64380000Y-23690000D03*
X66920000Y-23690000D03*
X69460000Y-23690000D03*
X72000000Y-23690000D03*
X59300000Y-26230000D03*
X61840000Y-26230000D03*
X59300000Y-28770000D03*
X61840000Y-28770000D03*
X59300000Y-31310000D03*
X61840000Y-31310000D03*
X64380000Y-31310000D03*
X66920000Y-31310000D03*
X69460000Y-31310000D03*
X72000000Y-31310000D03*
X67999996Y-37750000D03*
X77470694Y-52326654D03*
X73900000Y-21150000D03*
X76440000Y-21150000D03*
X78980000Y-21150000D03*
X81520000Y-21150000D03*
X84060000Y-21150000D03*
X86600000Y-21150000D03*
X89140000Y-21150000D03*
X91680000Y-21150000D03*
X94220000Y-21150000D03*
X96760000Y-21150000D03*
X99300000Y-21150000D03*
X101840000Y-21150000D03*
X73900000Y-23690000D03*
X76440000Y-23690000D03*
X78980000Y-23690000D03*
X81520000Y-23690000D03*
X84060000Y-23690000D03*
X86600000Y-23690000D03*
X89140000Y-23690000D03*
X91680000Y-23690000D03*
X94220000Y-23690000D03*
X96760000Y-23690000D03*
X99300000Y-23690000D03*
X101840000Y-23690000D03*
X84060000Y-26230000D03*
X86600000Y-26230000D03*
X89140000Y-26230000D03*
X91680000Y-26230000D03*
X94220000Y-26230000D03*
X96760000Y-26230000D03*
X99300000Y-26230000D03*
X101840000Y-26230000D03*
X84060000Y-28770000D03*
X86600000Y-28770000D03*
X89140000Y-28770000D03*
X91680000Y-28770000D03*
X94220000Y-28770000D03*
X96760000Y-28770000D03*
X99300000Y-28770000D03*
X101840000Y-28770000D03*
X73900000Y-31310000D03*
X76440000Y-31310000D03*
X78980000Y-31310000D03*
X81520000Y-31310000D03*
X84060000Y-31310000D03*
X86600000Y-31310000D03*
X89140000Y-31310000D03*
X91680000Y-31310000D03*
X94220000Y-31310000D03*
X96760000Y-31310000D03*
X99300000Y-31310000D03*
X101840000Y-31310000D03*
D47*
X68160000Y-27350000D03*
X78160000Y-27350000D03*
D46*
X71250000Y-48750000D03*
X75070000Y-48750000D03*
X73160000Y-48750000D03*
X72110000Y-26720000D03*
X72110000Y-27980000D03*
X71360000Y-29010000D03*
X71360000Y-25690000D03*
X64210000Y-26720000D03*
X64210000Y-27980000D03*
X64960000Y-29010000D03*
X64960000Y-25690000D03*
X68830000Y-29400000D03*
X67490000Y-29400000D03*
X70160000Y-29400000D03*
X66160000Y-29400000D03*
X68830000Y-25300000D03*
X67490000Y-25300000D03*
X66160000Y-25300000D03*
X70160000Y-25300000D03*
X74960000Y-29010000D03*
X74960000Y-25690000D03*
X74210000Y-27980000D03*
X74210000Y-26720000D03*
X81360000Y-29010000D03*
X81360000Y-25690000D03*
X82110000Y-26720000D03*
X80160000Y-29400000D03*
X78830000Y-29400000D03*
X77490000Y-29400000D03*
X76160000Y-29400000D03*
X80160000Y-25300000D03*
X78830000Y-25300000D03*
X77490000Y-25300000D03*
X76160000Y-25300000D03*
X82110000Y-27980000D03*
X92500000Y-63500000D03*
X90000000Y-63500000D03*
X87500000Y-63500000D03*
X85000000Y-63500000D03*
X24750000Y-64680000D03*
X24750000Y-60870000D03*
X24750000Y-57060000D03*
X24750000Y-53250000D03*
X102306810Y-62312500D03*
X102306810Y-64687500D03*
X100250000Y-65875000D03*
X98193190Y-64687500D03*
X98193190Y-62312500D03*
X100250000Y-61125000D03*
X100250000Y-63500000D03*
X41056810Y-44812500D03*
X41056810Y-47187500D03*
X39000000Y-48375000D03*
X36943190Y-47187500D03*
X36943190Y-44812500D03*
X39000000Y-43625000D03*
X39000000Y-46000000D03*
M02*
