%TF.GenerationSoftware,KiCad,Pcbnew,(5.1.4)-1*%
%TF.CreationDate,2021-01-21T23:44:22+08:00*%
%TF.ProjectId,Attenuator,41747465-6e75-4617-946f-722e6b696361,rev?*%
%TF.SameCoordinates,Original*%
%TF.FileFunction,Soldermask,Bot*%
%TF.FilePolarity,Negative*%
%FSLAX46Y46*%
G04 Gerber Fmt 4.6, Leading zero omitted, Abs format (unit mm)*
G04 Created by KiCad (PCBNEW (5.1.4)-1) date 2021-01-21 23:44:22*
%MOMM*%
%LPD*%
G04 APERTURE LIST*
%ADD10C,0.350000*%
G04 APERTURE END LIST*
D10*
G36*
X61551000Y-43051000D02*
G01*
X56449000Y-43051000D01*
X56449000Y-35449000D01*
X61551000Y-35449000D01*
X61551000Y-43051000D01*
X61551000Y-43051000D01*
G37*
G36*
X87551000Y-43051000D02*
G01*
X82449000Y-43051000D01*
X82449000Y-35449000D01*
X87551000Y-35449000D01*
X87551000Y-43051000D01*
X87551000Y-43051000D01*
G37*
G36*
X55141000Y-42811000D02*
G01*
X52619000Y-42811000D01*
X52619000Y-37629000D01*
X55141000Y-37629000D01*
X55141000Y-42811000D01*
X55141000Y-42811000D01*
G37*
G36*
X72381000Y-42811000D02*
G01*
X69859000Y-42811000D01*
X69859000Y-37629000D01*
X72381000Y-37629000D01*
X72381000Y-42811000D01*
X72381000Y-42811000D01*
G37*
G36*
X81141000Y-42811000D02*
G01*
X78619000Y-42811000D01*
X78619000Y-37629000D01*
X81141000Y-37629000D01*
X81141000Y-42811000D01*
X81141000Y-42811000D01*
G37*
G36*
X46381000Y-42811000D02*
G01*
X43859000Y-42811000D01*
X43859000Y-37629000D01*
X46381000Y-37629000D01*
X46381000Y-42811000D01*
X46381000Y-42811000D01*
G37*
G36*
X38889943Y-24566248D02*
G01*
X39445189Y-24796238D01*
X39617497Y-24911371D01*
X39944899Y-25130134D01*
X40369866Y-25555101D01*
X40369867Y-25555103D01*
X40703762Y-26054811D01*
X40933752Y-26610057D01*
X41051000Y-27199501D01*
X41051000Y-27800499D01*
X40933752Y-28389943D01*
X40703762Y-28945189D01*
X40641872Y-29037814D01*
X40369866Y-29444899D01*
X39944899Y-29869866D01*
X39870736Y-29919420D01*
X39445189Y-30203762D01*
X38889943Y-30433752D01*
X38300499Y-30551000D01*
X37699501Y-30551000D01*
X37110057Y-30433752D01*
X36554811Y-30203762D01*
X36129264Y-29919420D01*
X36055101Y-29869866D01*
X35630134Y-29444899D01*
X35358128Y-29037814D01*
X35296238Y-28945189D01*
X35066248Y-28389943D01*
X34949000Y-27800499D01*
X34949000Y-27199501D01*
X35066248Y-26610057D01*
X35296238Y-26054811D01*
X35630133Y-25555103D01*
X35630134Y-25555101D01*
X36055101Y-25130134D01*
X36382503Y-24911371D01*
X36554811Y-24796238D01*
X37110057Y-24566248D01*
X37699501Y-24449000D01*
X38300499Y-24449000D01*
X38889943Y-24566248D01*
X38889943Y-24566248D01*
G37*
G36*
X88889943Y-24566248D02*
G01*
X89445189Y-24796238D01*
X89617497Y-24911371D01*
X89944899Y-25130134D01*
X90369866Y-25555101D01*
X90369867Y-25555103D01*
X90703762Y-26054811D01*
X90933752Y-26610057D01*
X91051000Y-27199501D01*
X91051000Y-27800499D01*
X90933752Y-28389943D01*
X90703762Y-28945189D01*
X90641872Y-29037814D01*
X90369866Y-29444899D01*
X89944899Y-29869866D01*
X89870736Y-29919420D01*
X89445189Y-30203762D01*
X88889943Y-30433752D01*
X88300499Y-30551000D01*
X87699501Y-30551000D01*
X87110057Y-30433752D01*
X86554811Y-30203762D01*
X86129264Y-29919420D01*
X86055101Y-29869866D01*
X85630134Y-29444899D01*
X85358128Y-29037814D01*
X85296238Y-28945189D01*
X85066248Y-28389943D01*
X84949000Y-27800499D01*
X84949000Y-27199501D01*
X85066248Y-26610057D01*
X85296238Y-26054811D01*
X85630133Y-25555103D01*
X85630134Y-25555101D01*
X86055101Y-25130134D01*
X86382503Y-24911371D01*
X86554811Y-24796238D01*
X87110057Y-24566248D01*
X87699501Y-24449000D01*
X88300499Y-24449000D01*
X88889943Y-24566248D01*
X88889943Y-24566248D01*
G37*
G36*
X77716669Y-7047686D02*
G01*
X77893058Y-7065059D01*
X78232548Y-7168042D01*
X78232550Y-7168043D01*
X78545422Y-7335277D01*
X78545424Y-7335278D01*
X78545423Y-7335278D01*
X78819661Y-7560339D01*
X79044722Y-7834577D01*
X79211958Y-8147452D01*
X79314941Y-8486942D01*
X79349714Y-8840000D01*
X79314941Y-9193058D01*
X79211958Y-9532548D01*
X79211957Y-9532550D01*
X79044723Y-9845422D01*
X78819661Y-10119661D01*
X78545422Y-10344723D01*
X78232550Y-10511957D01*
X78232548Y-10511958D01*
X77893058Y-10614941D01*
X77716669Y-10632314D01*
X77628476Y-10641000D01*
X77451524Y-10641000D01*
X77363331Y-10632314D01*
X77186942Y-10614941D01*
X76847452Y-10511958D01*
X76847450Y-10511957D01*
X76534578Y-10344723D01*
X76260339Y-10119661D01*
X76035277Y-9845422D01*
X75868043Y-9532550D01*
X75868042Y-9532548D01*
X75765059Y-9193058D01*
X75730286Y-8840000D01*
X75765059Y-8486942D01*
X75868042Y-8147452D01*
X76035278Y-7834577D01*
X76260339Y-7560339D01*
X76534577Y-7335278D01*
X76534576Y-7335278D01*
X76534578Y-7335277D01*
X76847450Y-7168043D01*
X76847452Y-7168042D01*
X77186942Y-7065059D01*
X77363331Y-7047686D01*
X77451524Y-7039000D01*
X77628476Y-7039000D01*
X77716669Y-7047686D01*
X77716669Y-7047686D01*
G37*
G36*
X62716669Y-7047686D02*
G01*
X62893058Y-7065059D01*
X63232548Y-7168042D01*
X63232550Y-7168043D01*
X63545422Y-7335277D01*
X63545424Y-7335278D01*
X63545423Y-7335278D01*
X63819661Y-7560339D01*
X64044722Y-7834577D01*
X64211958Y-8147452D01*
X64314941Y-8486942D01*
X64349714Y-8840000D01*
X64314941Y-9193058D01*
X64211958Y-9532548D01*
X64211957Y-9532550D01*
X64044723Y-9845422D01*
X63819661Y-10119661D01*
X63545422Y-10344723D01*
X63232550Y-10511957D01*
X63232548Y-10511958D01*
X62893058Y-10614941D01*
X62716669Y-10632314D01*
X62628476Y-10641000D01*
X62451524Y-10641000D01*
X62363331Y-10632314D01*
X62186942Y-10614941D01*
X61847452Y-10511958D01*
X61847450Y-10511957D01*
X61534578Y-10344723D01*
X61260339Y-10119661D01*
X61035277Y-9845422D01*
X60868043Y-9532550D01*
X60868042Y-9532548D01*
X60765059Y-9193058D01*
X60730286Y-8840000D01*
X60765059Y-8486942D01*
X60868042Y-8147452D01*
X61035278Y-7834577D01*
X61260339Y-7560339D01*
X61534577Y-7335278D01*
X61534576Y-7335278D01*
X61534578Y-7335277D01*
X61847450Y-7168043D01*
X61847452Y-7168042D01*
X62186942Y-7065059D01*
X62363331Y-7047686D01*
X62451524Y-7039000D01*
X62628476Y-7039000D01*
X62716669Y-7047686D01*
X62716669Y-7047686D01*
G37*
G36*
X47716669Y-7047686D02*
G01*
X47893058Y-7065059D01*
X48232548Y-7168042D01*
X48232550Y-7168043D01*
X48545422Y-7335277D01*
X48545424Y-7335278D01*
X48545423Y-7335278D01*
X48819661Y-7560339D01*
X49044722Y-7834577D01*
X49211958Y-8147452D01*
X49314941Y-8486942D01*
X49349714Y-8840000D01*
X49314941Y-9193058D01*
X49211958Y-9532548D01*
X49211957Y-9532550D01*
X49044723Y-9845422D01*
X48819661Y-10119661D01*
X48545422Y-10344723D01*
X48232550Y-10511957D01*
X48232548Y-10511958D01*
X47893058Y-10614941D01*
X47716669Y-10632314D01*
X47628476Y-10641000D01*
X47451524Y-10641000D01*
X47363331Y-10632314D01*
X47186942Y-10614941D01*
X46847452Y-10511958D01*
X46847450Y-10511957D01*
X46534578Y-10344723D01*
X46260339Y-10119661D01*
X46035277Y-9845422D01*
X45868043Y-9532550D01*
X45868042Y-9532548D01*
X45765059Y-9193058D01*
X45730286Y-8840000D01*
X45765059Y-8486942D01*
X45868042Y-8147452D01*
X46035278Y-7834577D01*
X46260339Y-7560339D01*
X46534577Y-7335278D01*
X46534576Y-7335278D01*
X46534578Y-7335277D01*
X46847450Y-7168043D01*
X46847452Y-7168042D01*
X47186942Y-7065059D01*
X47363331Y-7047686D01*
X47451524Y-7039000D01*
X47628476Y-7039000D01*
X47716669Y-7047686D01*
X47716669Y-7047686D01*
G37*
M02*
