M48
; DRILL file {KiCad (5.1.4)-1} date 2021/1/21 23:44:22
; FORMAT={-:-/ absolute / metric / decimal}
; #@! TF.CreationDate,2021-01-21T23:44:22+08:00
; #@! TF.GenerationSoftware,Kicad,Pcbnew,(5.1.4)-1
; #@! TF.FileFunction,Plated,1,2,PTH
FMAT,2
METRIC
T1C0.400
T2C0.800
T3C3.500
%
G90
G05
T1
X64.3Y-34.38
X64.3Y-36.92
X64.3Y-39.46
X64.3Y-42.0
X65.9Y-34.38
X65.9Y-36.92
X65.9Y-39.46
X65.9Y-42.0
X67.7Y-34.38
X67.7Y-36.92
X67.7Y-39.46
X67.7Y-42.0
X69.5Y-34.38
X69.5Y-36.92
X69.5Y-39.46
X69.5Y-42.0
X71.3Y-34.38
X71.3Y-36.92
X71.3Y-39.46
X71.3Y-42.0
X79.5Y-34.38
X79.5Y-36.92
X79.5Y-39.46
X79.5Y-42.0
X81.1Y-34.38
X81.1Y-36.92
X81.1Y-39.46
X81.1Y-42.0
X82.9Y-34.38
X82.9Y-36.92
X82.9Y-39.46
X82.9Y-42.0
X84.7Y-34.38
X84.7Y-36.92
X84.7Y-39.46
X84.7Y-42.0
X86.5Y-34.38
X86.5Y-36.92
X86.5Y-39.46
X86.5Y-42.0
X35.943Y-26.312
X35.943Y-28.688
X38.0Y-25.125
X38.0Y-29.875
X40.057Y-26.312
X40.057Y-28.688
X85.943Y-26.312
X85.943Y-28.688
X88.0Y-25.125
X88.0Y-29.875
X90.057Y-26.312
X90.057Y-28.688
X38.3Y-34.38
X38.3Y-36.92
X38.3Y-39.46
X38.3Y-42.0
X39.9Y-34.38
X39.9Y-36.92
X39.9Y-39.46
X39.9Y-42.0
X41.7Y-34.38
X41.7Y-36.92
X41.7Y-39.46
X41.7Y-42.0
X43.5Y-34.38
X43.5Y-36.92
X43.5Y-39.46
X43.5Y-42.0
X45.3Y-34.38
X45.3Y-36.92
X45.3Y-39.46
X45.3Y-42.0
X53.5Y-34.38
X53.5Y-36.92
X53.5Y-39.46
X53.5Y-42.0
X55.1Y-34.38
X55.1Y-36.92
X55.1Y-39.46
X55.1Y-42.0
X56.9Y-34.38
X56.9Y-36.92
X56.9Y-39.46
X56.9Y-42.0
X58.7Y-34.38
X58.7Y-36.92
X58.7Y-39.46
X58.7Y-42.0
X60.5Y-34.38
X60.5Y-36.92
X60.5Y-39.46
X60.5Y-42.0
T2
X41.75Y-34.25
X41.75Y-42.0
X83.25Y-34.25
X83.25Y-42.25
T3
X38.0Y-27.5
X88.0Y-27.5
T0
M30
