%TF.GenerationSoftware,KiCad,Pcbnew,(5.1.4)-1*%
%TF.CreationDate,2021-01-21T23:44:22+08:00*%
%TF.ProjectId,Attenuator,41747465-6e75-4617-946f-722e6b696361,rev?*%
%TF.SameCoordinates,Original*%
%TF.FileFunction,Copper,L1,Top*%
%TF.FilePolarity,Positive*%
%FSLAX46Y46*%
G04 Gerber Fmt 4.6, Leading zero omitted, Abs format (unit mm)*
G04 Created by KiCad (PCBNEW (5.1.4)-1) date 2021-01-21 23:44:22*
%MOMM*%
%LPD*%
G04 APERTURE LIST*
%ADD10R,3.000000X5.000000*%
%ADD11R,9.000000X10.000000*%
%ADD12C,0.800000*%
%ADD13R,2.290000X5.080000*%
%ADD14R,0.460000X0.890000*%
%ADD15R,2.420000X5.080000*%
%ADD16R,4.000000X7.500000*%
%ADD17R,5.000000X7.500000*%
%ADD18C,6.000000*%
%ADD19C,1.200000*%
%ADD20C,0.500000*%
%ADD21C,0.254000*%
%ADD22C,1.000000*%
%ADD23C,0.350000*%
G04 APERTURE END LIST*
D10*
X80080000Y-25500000D03*
X75000000Y-25500000D03*
X65080000Y-25500000D03*
X60000000Y-25500000D03*
X50080000Y-25500000D03*
X45000000Y-25500000D03*
D11*
X57000000Y-38000000D03*
X42000000Y-38000000D03*
D12*
X38300000Y-36920000D03*
X38300000Y-34380000D03*
X38300000Y-39460000D03*
X38300000Y-42000000D03*
X39900000Y-36920000D03*
X41700000Y-42000000D03*
X41700000Y-39460000D03*
X41700000Y-34380000D03*
X41700000Y-36920000D03*
X39900000Y-39460000D03*
X39900000Y-42000000D03*
X39900000Y-34380000D03*
X43500000Y-36920000D03*
X43500000Y-34380000D03*
X43500000Y-39460000D03*
X43500000Y-42000000D03*
X45300000Y-42000000D03*
X45300000Y-36920000D03*
X45300000Y-39460000D03*
X45300000Y-34380000D03*
X53500000Y-36920000D03*
X53500000Y-34380000D03*
X53500000Y-39460000D03*
X53500000Y-42000000D03*
X55100000Y-36920000D03*
X56900000Y-42000000D03*
X56900000Y-39460000D03*
X56900000Y-34380000D03*
X56900000Y-36920000D03*
X55100000Y-39460000D03*
X55100000Y-42000000D03*
X55100000Y-34380000D03*
X58700000Y-36920000D03*
X58700000Y-34380000D03*
X58700000Y-39460000D03*
X58700000Y-42000000D03*
X60500000Y-42000000D03*
X60500000Y-36920000D03*
X60500000Y-39460000D03*
X60500000Y-34380000D03*
D13*
X49500000Y-40220000D03*
D14*
X53880000Y-37230000D03*
D15*
X53880000Y-40500000D03*
D14*
X45120000Y-37500000D03*
D15*
X45120000Y-40500000D03*
D16*
X49500000Y-39000000D03*
D17*
X59000000Y-39250000D03*
X40000000Y-39250000D03*
D11*
X83000000Y-38000000D03*
X68000000Y-38000000D03*
D12*
X64300000Y-36920000D03*
X64300000Y-34380000D03*
X64300000Y-39460000D03*
X64300000Y-42000000D03*
X65900000Y-36920000D03*
X67700000Y-42000000D03*
X67700000Y-39460000D03*
X67700000Y-34380000D03*
X67700000Y-36920000D03*
X65900000Y-39460000D03*
X65900000Y-42000000D03*
X65900000Y-34380000D03*
X69500000Y-36920000D03*
X69500000Y-34380000D03*
X69500000Y-39460000D03*
X69500000Y-42000000D03*
X71300000Y-42000000D03*
X71300000Y-36920000D03*
X71300000Y-39460000D03*
X71300000Y-34380000D03*
X79500000Y-36920000D03*
X79500000Y-34380000D03*
X79500000Y-39460000D03*
X79500000Y-42000000D03*
X81100000Y-36920000D03*
X82900000Y-42000000D03*
X82900000Y-39460000D03*
X82900000Y-34380000D03*
X82900000Y-36920000D03*
X81100000Y-39460000D03*
X81100000Y-42000000D03*
X81100000Y-34380000D03*
X84700000Y-36920000D03*
X84700000Y-34380000D03*
X84700000Y-39460000D03*
X84700000Y-42000000D03*
X86500000Y-42000000D03*
X86500000Y-36920000D03*
X86500000Y-39460000D03*
X86500000Y-34380000D03*
D13*
X75500000Y-40220000D03*
D14*
X79880000Y-37230000D03*
D15*
X79880000Y-40500000D03*
D14*
X71120000Y-37500000D03*
D15*
X71120000Y-40500000D03*
D16*
X75500000Y-39000000D03*
D17*
X85000000Y-39250000D03*
X66000000Y-39250000D03*
D12*
X90056810Y-26312500D03*
X90056810Y-28687500D03*
X88000000Y-29875000D03*
X85943190Y-28687500D03*
X85943190Y-26312500D03*
X88000000Y-25125000D03*
D18*
X88000000Y-27500000D03*
D12*
X40056810Y-26312500D03*
X40056810Y-28687500D03*
X38000000Y-29875000D03*
X35943190Y-28687500D03*
X35943190Y-26312500D03*
X38000000Y-25125000D03*
D18*
X38000000Y-27500000D03*
D19*
X83250000Y-42250000D03*
X83250000Y-34250000D03*
X41750000Y-34250000D03*
X41750000Y-42000000D03*
D20*
G36*
X61250000Y-27750000D02*
G01*
X51500000Y-27750000D01*
X51451227Y-27754804D01*
X51404329Y-27769030D01*
X51361107Y-27792133D01*
X51323223Y-27823223D01*
X51292133Y-27861107D01*
X51269030Y-27904329D01*
X51254804Y-27951227D01*
X51250000Y-28000000D01*
X51250000Y-32938595D01*
X51243952Y-33000000D01*
X51243952Y-35750000D01*
X47756048Y-35750000D01*
X47756048Y-33000000D01*
X47750000Y-32938595D01*
X47750000Y-28061405D01*
X47756048Y-28000000D01*
X47756048Y-23275000D01*
X61250000Y-23275000D01*
X61250000Y-27750000D01*
X61250000Y-27750000D01*
G37*
X61250000Y-27750000D02*
X51500000Y-27750000D01*
X51451227Y-27754804D01*
X51404329Y-27769030D01*
X51361107Y-27792133D01*
X51323223Y-27823223D01*
X51292133Y-27861107D01*
X51269030Y-27904329D01*
X51254804Y-27951227D01*
X51250000Y-28000000D01*
X51250000Y-32938595D01*
X51243952Y-33000000D01*
X51243952Y-35750000D01*
X47756048Y-35750000D01*
X47756048Y-33000000D01*
X47750000Y-32938595D01*
X47750000Y-28061405D01*
X47756048Y-28000000D01*
X47756048Y-23275000D01*
X61250000Y-23275000D01*
X61250000Y-27750000D01*
D21*
G36*
X77373000Y-32944635D02*
G01*
X77367547Y-33000000D01*
X77367547Y-35873000D01*
X73632453Y-35873000D01*
X73632453Y-33000000D01*
X73627000Y-32944635D01*
X73627000Y-28000000D01*
X73624560Y-27975224D01*
X73617333Y-27951399D01*
X73605597Y-27929443D01*
X73589803Y-27910197D01*
X73570557Y-27894403D01*
X73548601Y-27882667D01*
X73524776Y-27875440D01*
X73500000Y-27873000D01*
X63627000Y-27873000D01*
X63627000Y-23152000D01*
X77373000Y-23152000D01*
X77373000Y-32944635D01*
X77373000Y-32944635D01*
G37*
X77373000Y-32944635D02*
X77367547Y-33000000D01*
X77367547Y-35873000D01*
X73632453Y-35873000D01*
X73632453Y-33000000D01*
X73627000Y-32944635D01*
X73627000Y-28000000D01*
X73624560Y-27975224D01*
X73617333Y-27951399D01*
X73605597Y-27929443D01*
X73589803Y-27910197D01*
X73570557Y-27894403D01*
X73548601Y-27882667D01*
X73524776Y-27875440D01*
X73500000Y-27873000D01*
X63627000Y-27873000D01*
X63627000Y-23152000D01*
X77373000Y-23152000D01*
X77373000Y-32944635D01*
D22*
G36*
X46000000Y-42475000D02*
G01*
X35025000Y-42475000D01*
X35025000Y-23025000D01*
X46000000Y-23025000D01*
X46000000Y-42475000D01*
X46000000Y-42475000D01*
G37*
X46000000Y-42475000D02*
X35025000Y-42475000D01*
X35025000Y-23025000D01*
X46000000Y-23025000D01*
X46000000Y-42475000D01*
G36*
X62666645Y-29247204D02*
G01*
X62925975Y-29385819D01*
X63207365Y-29471178D01*
X63500000Y-29500000D01*
X72000000Y-29500000D01*
X72000000Y-42475000D01*
X53000000Y-42475000D01*
X53000000Y-29500000D01*
X61500000Y-29500000D01*
X61792635Y-29471178D01*
X62074025Y-29385819D01*
X62333355Y-29247204D01*
X62500000Y-29110442D01*
X62666645Y-29247204D01*
X62666645Y-29247204D01*
G37*
X62666645Y-29247204D02*
X62925975Y-29385819D01*
X63207365Y-29471178D01*
X63500000Y-29500000D01*
X72000000Y-29500000D01*
X72000000Y-42475000D01*
X53000000Y-42475000D01*
X53000000Y-29500000D01*
X61500000Y-29500000D01*
X61792635Y-29471178D01*
X62074025Y-29385819D01*
X62333355Y-29247204D01*
X62500000Y-29110442D01*
X62666645Y-29247204D01*
G36*
X90975001Y-42475000D02*
G01*
X79000000Y-42475000D01*
X79000000Y-23025000D01*
X90975000Y-23025000D01*
X90975001Y-42475000D01*
X90975001Y-42475000D01*
G37*
X90975001Y-42475000D02*
X79000000Y-42475000D01*
X79000000Y-23025000D01*
X90975000Y-23025000D01*
X90975001Y-42475000D01*
D23*
X83250000Y-42250000D03*
X83250000Y-34250000D03*
X41750000Y-34250000D03*
X41750000Y-42000000D03*
X77540000Y-8840000D03*
X62540000Y-8840000D03*
X47540000Y-8840000D03*
X38300000Y-36920000D03*
X38300000Y-34380000D03*
X38300000Y-39460000D03*
X38300000Y-42000000D03*
X39900000Y-36920000D03*
X41700000Y-42000000D03*
X41700000Y-39460000D03*
X41700000Y-34380000D03*
X41700000Y-36920000D03*
X39900000Y-39460000D03*
X39900000Y-42000000D03*
X39900000Y-34380000D03*
X43500000Y-36920000D03*
X43500000Y-34380000D03*
X43500000Y-39460000D03*
X43500000Y-42000000D03*
X45300000Y-42000000D03*
X45300000Y-36920000D03*
X45300000Y-39460000D03*
X45300000Y-34380000D03*
X53500000Y-36920000D03*
X53500000Y-34380000D03*
X53500000Y-39460000D03*
X53500000Y-42000000D03*
X55100000Y-36920000D03*
X56900000Y-42000000D03*
X56900000Y-39460000D03*
X56900000Y-34380000D03*
X56900000Y-36920000D03*
X55100000Y-39460000D03*
X55100000Y-42000000D03*
X55100000Y-34380000D03*
X58700000Y-36920000D03*
X58700000Y-34380000D03*
X58700000Y-39460000D03*
X58700000Y-42000000D03*
X60500000Y-42000000D03*
X60500000Y-36920000D03*
X60500000Y-39460000D03*
X60500000Y-34380000D03*
X64300000Y-36920000D03*
X64300000Y-34380000D03*
X64300000Y-39460000D03*
X64300000Y-42000000D03*
X65900000Y-36920000D03*
X67700000Y-42000000D03*
X67700000Y-39460000D03*
X67700000Y-34380000D03*
X67700000Y-36920000D03*
X65900000Y-39460000D03*
X65900000Y-42000000D03*
X65900000Y-34380000D03*
X69500000Y-36920000D03*
X69500000Y-34380000D03*
X69500000Y-39460000D03*
X69500000Y-42000000D03*
X71300000Y-42000000D03*
X71300000Y-36920000D03*
X71300000Y-39460000D03*
X71300000Y-34380000D03*
X79500000Y-36920000D03*
X79500000Y-34380000D03*
X79500000Y-39460000D03*
X79500000Y-42000000D03*
X81100000Y-36920000D03*
X82900000Y-42000000D03*
X82900000Y-39460000D03*
X82900000Y-34380000D03*
X82900000Y-36920000D03*
X81100000Y-39460000D03*
X81100000Y-42000000D03*
X81100000Y-34380000D03*
X84700000Y-36920000D03*
X84700000Y-34380000D03*
X84700000Y-39460000D03*
X84700000Y-42000000D03*
X86500000Y-42000000D03*
X86500000Y-36920000D03*
X86500000Y-39460000D03*
X86500000Y-34380000D03*
X90056810Y-26312500D03*
X90056810Y-28687500D03*
X88000000Y-29875000D03*
X85943190Y-28687500D03*
X85943190Y-26312500D03*
X88000000Y-25125000D03*
X88000000Y-27500000D03*
X40056810Y-26312500D03*
X40056810Y-28687500D03*
X38000000Y-29875000D03*
X35943190Y-28687500D03*
X35943190Y-26312500D03*
X38000000Y-25125000D03*
X38000000Y-27500000D03*
M02*
