%TF.GenerationSoftware,KiCad,Pcbnew,(5.1.4)-1*%
%TF.CreationDate,2021-01-21T23:44:22+08:00*%
%TF.ProjectId,Attenuator,41747465-6e75-4617-946f-722e6b696361,rev?*%
%TF.SameCoordinates,Original*%
%TF.FileFunction,Legend,Top*%
%TF.FilePolarity,Positive*%
%FSLAX46Y46*%
G04 Gerber Fmt 4.6, Leading zero omitted, Abs format (unit mm)*
G04 Created by KiCad (PCBNEW (5.1.4)-1) date 2021-01-21 23:44:22*
%MOMM*%
%LPD*%
G04 APERTURE LIST*
%ADD10C,0.150000*%
%ADD11C,0.120000*%
G04 APERTURE END LIST*
D10*
X67671428Y-32057142D02*
X68280952Y-32057142D01*
X69080952Y-32361904D02*
X68623809Y-32361904D01*
X68852380Y-32361904D02*
X68852380Y-31561904D01*
X68776190Y-31676190D01*
X68700000Y-31752380D01*
X68623809Y-31790476D01*
X69766666Y-31561904D02*
X69614285Y-31561904D01*
X69538095Y-31600000D01*
X69500000Y-31638095D01*
X69423809Y-31752380D01*
X69385714Y-31904761D01*
X69385714Y-32209523D01*
X69423809Y-32285714D01*
X69461904Y-32323809D01*
X69538095Y-32361904D01*
X69690476Y-32361904D01*
X69766666Y-32323809D01*
X69804761Y-32285714D01*
X69842857Y-32209523D01*
X69842857Y-32019047D01*
X69804761Y-31942857D01*
X69766666Y-31904761D01*
X69690476Y-31866666D01*
X69538095Y-31866666D01*
X69461904Y-31904761D01*
X69423809Y-31942857D01*
X69385714Y-32019047D01*
X70528571Y-32361904D02*
X70528571Y-31561904D01*
X70528571Y-32323809D02*
X70452380Y-32361904D01*
X70300000Y-32361904D01*
X70223809Y-32323809D01*
X70185714Y-32285714D01*
X70147619Y-32209523D01*
X70147619Y-31980952D01*
X70185714Y-31904761D01*
X70223809Y-31866666D01*
X70300000Y-31828571D01*
X70452380Y-31828571D01*
X70528571Y-31866666D01*
X71176190Y-31942857D02*
X71290476Y-31980952D01*
X71328571Y-32019047D01*
X71366666Y-32095238D01*
X71366666Y-32209523D01*
X71328571Y-32285714D01*
X71290476Y-32323809D01*
X71214285Y-32361904D01*
X70909523Y-32361904D01*
X70909523Y-31561904D01*
X71176190Y-31561904D01*
X71252380Y-31600000D01*
X71290476Y-31638095D01*
X71328571Y-31714285D01*
X71328571Y-31790476D01*
X71290476Y-31866666D01*
X71252380Y-31904761D01*
X71176190Y-31942857D01*
X70909523Y-31942857D01*
D11*
X66000000Y-31500000D02*
X66000000Y-32500000D01*
X67000000Y-32500000D02*
X67000000Y-31500000D01*
X67000000Y-31500000D02*
X66000000Y-31500000D01*
X66000000Y-32500000D02*
X67000000Y-32500000D01*
D10*
X61671428Y-32057142D02*
X62280952Y-32057142D01*
X63080952Y-32361904D02*
X62623809Y-32361904D01*
X62852380Y-32361904D02*
X62852380Y-31561904D01*
X62776190Y-31676190D01*
X62700000Y-31752380D01*
X62623809Y-31790476D01*
X63347619Y-31561904D02*
X63842857Y-31561904D01*
X63576190Y-31866666D01*
X63690476Y-31866666D01*
X63766666Y-31904761D01*
X63804761Y-31942857D01*
X63842857Y-32019047D01*
X63842857Y-32209523D01*
X63804761Y-32285714D01*
X63766666Y-32323809D01*
X63690476Y-32361904D01*
X63461904Y-32361904D01*
X63385714Y-32323809D01*
X63347619Y-32285714D01*
X64528571Y-32361904D02*
X64528571Y-31561904D01*
X64528571Y-32323809D02*
X64452380Y-32361904D01*
X64300000Y-32361904D01*
X64223809Y-32323809D01*
X64185714Y-32285714D01*
X64147619Y-32209523D01*
X64147619Y-31980952D01*
X64185714Y-31904761D01*
X64223809Y-31866666D01*
X64300000Y-31828571D01*
X64452380Y-31828571D01*
X64528571Y-31866666D01*
X65176190Y-31942857D02*
X65290476Y-31980952D01*
X65328571Y-32019047D01*
X65366666Y-32095238D01*
X65366666Y-32209523D01*
X65328571Y-32285714D01*
X65290476Y-32323809D01*
X65214285Y-32361904D01*
X64909523Y-32361904D01*
X64909523Y-31561904D01*
X65176190Y-31561904D01*
X65252380Y-31600000D01*
X65290476Y-31638095D01*
X65328571Y-31714285D01*
X65328571Y-31790476D01*
X65290476Y-31866666D01*
X65252380Y-31904761D01*
X65176190Y-31942857D01*
X64909523Y-31942857D01*
D11*
X60000000Y-31500000D02*
X60000000Y-32500000D01*
X61000000Y-32500000D02*
X61000000Y-31500000D01*
X61000000Y-31500000D02*
X60000000Y-31500000D01*
X60000000Y-32500000D02*
X61000000Y-32500000D01*
X55000000Y-31500000D02*
X54000000Y-31500000D01*
X55000000Y-32500000D02*
X55000000Y-31500000D01*
X54000000Y-32500000D02*
X55000000Y-32500000D01*
X54000000Y-31500000D02*
X54000000Y-32500000D01*
D10*
X55671428Y-32057142D02*
X56280952Y-32057142D01*
X57080952Y-32361904D02*
X56623809Y-32361904D01*
X56852380Y-32361904D02*
X56852380Y-31561904D01*
X56776190Y-31676190D01*
X56700000Y-31752380D01*
X56623809Y-31790476D01*
X57576190Y-31561904D02*
X57652380Y-31561904D01*
X57728571Y-31600000D01*
X57766666Y-31638095D01*
X57804761Y-31714285D01*
X57842857Y-31866666D01*
X57842857Y-32057142D01*
X57804761Y-32209523D01*
X57766666Y-32285714D01*
X57728571Y-32323809D01*
X57652380Y-32361904D01*
X57576190Y-32361904D01*
X57500000Y-32323809D01*
X57461904Y-32285714D01*
X57423809Y-32209523D01*
X57385714Y-32057142D01*
X57385714Y-31866666D01*
X57423809Y-31714285D01*
X57461904Y-31638095D01*
X57500000Y-31600000D01*
X57576190Y-31561904D01*
X58528571Y-32361904D02*
X58528571Y-31561904D01*
X58528571Y-32323809D02*
X58452380Y-32361904D01*
X58300000Y-32361904D01*
X58223809Y-32323809D01*
X58185714Y-32285714D01*
X58147619Y-32209523D01*
X58147619Y-31980952D01*
X58185714Y-31904761D01*
X58223809Y-31866666D01*
X58300000Y-31828571D01*
X58452380Y-31828571D01*
X58528571Y-31866666D01*
X59176190Y-31942857D02*
X59290476Y-31980952D01*
X59328571Y-32019047D01*
X59366666Y-32095238D01*
X59366666Y-32209523D01*
X59328571Y-32285714D01*
X59290476Y-32323809D01*
X59214285Y-32361904D01*
X58909523Y-32361904D01*
X58909523Y-31561904D01*
X59176190Y-31561904D01*
X59252380Y-31600000D01*
X59290476Y-31638095D01*
X59328571Y-31714285D01*
X59328571Y-31790476D01*
X59290476Y-31866666D01*
X59252380Y-31904761D01*
X59176190Y-31942857D01*
X58909523Y-31942857D01*
X35561904Y-41814285D02*
X36133333Y-41814285D01*
X36247619Y-41852380D01*
X36323809Y-41928571D01*
X36361904Y-42042857D01*
X36361904Y-42119047D01*
X36361904Y-41090476D02*
X35942857Y-41090476D01*
X35866666Y-41128571D01*
X35828571Y-41204761D01*
X35828571Y-41357142D01*
X35866666Y-41433333D01*
X36323809Y-41090476D02*
X36361904Y-41166666D01*
X36361904Y-41357142D01*
X36323809Y-41433333D01*
X36247619Y-41471428D01*
X36171428Y-41471428D01*
X36095238Y-41433333D01*
X36057142Y-41357142D01*
X36057142Y-41166666D01*
X36019047Y-41090476D01*
X35828571Y-40709523D02*
X36361904Y-40709523D01*
X35904761Y-40709523D02*
X35866666Y-40671428D01*
X35828571Y-40595238D01*
X35828571Y-40480952D01*
X35866666Y-40404761D01*
X35942857Y-40366666D01*
X36361904Y-40366666D01*
X36361904Y-38957142D02*
X36361904Y-39414285D01*
X36361904Y-39185714D02*
X35561904Y-39185714D01*
X35676190Y-39261904D01*
X35752380Y-39338095D01*
X35790476Y-39414285D01*
X36323809Y-38576190D02*
X36361904Y-38576190D01*
X36438095Y-38614285D01*
X36476190Y-38652380D01*
X35638095Y-37661904D02*
X35600000Y-37623809D01*
X35561904Y-37547619D01*
X35561904Y-37357142D01*
X35600000Y-37280952D01*
X35638095Y-37242857D01*
X35714285Y-37204761D01*
X35790476Y-37204761D01*
X35904761Y-37242857D01*
X36361904Y-37700000D01*
X36361904Y-37204761D01*
X35561904Y-36709523D02*
X35561904Y-36633333D01*
X35600000Y-36557142D01*
X35638095Y-36519047D01*
X35714285Y-36480952D01*
X35866666Y-36442857D01*
X36057142Y-36442857D01*
X36209523Y-36480952D01*
X36285714Y-36519047D01*
X36323809Y-36557142D01*
X36361904Y-36633333D01*
X36361904Y-36709523D01*
X36323809Y-36785714D01*
X36285714Y-36823809D01*
X36209523Y-36861904D01*
X36057142Y-36900000D01*
X35866666Y-36900000D01*
X35714285Y-36861904D01*
X35638095Y-36823809D01*
X35600000Y-36785714D01*
X35561904Y-36709523D01*
X35638095Y-36138095D02*
X35600000Y-36100000D01*
X35561904Y-36023809D01*
X35561904Y-35833333D01*
X35600000Y-35757142D01*
X35638095Y-35719047D01*
X35714285Y-35680952D01*
X35790476Y-35680952D01*
X35904761Y-35719047D01*
X36361904Y-36176190D01*
X36361904Y-35680952D01*
X36361904Y-34919047D02*
X36361904Y-35376190D01*
X36361904Y-35147619D02*
X35561904Y-35147619D01*
X35676190Y-35223809D01*
X35752380Y-35300000D01*
X35790476Y-35376190D01*
X88767857Y-41800000D02*
X88805952Y-41685714D01*
X88844047Y-41647619D01*
X88920238Y-41609523D01*
X89034523Y-41609523D01*
X89110714Y-41647619D01*
X89148809Y-41685714D01*
X89186904Y-41761904D01*
X89186904Y-42066666D01*
X88386904Y-42066666D01*
X88386904Y-41800000D01*
X88425000Y-41723809D01*
X88463095Y-41685714D01*
X88539285Y-41647619D01*
X88615476Y-41647619D01*
X88691666Y-41685714D01*
X88729761Y-41723809D01*
X88767857Y-41800000D01*
X88767857Y-42066666D01*
X88653571Y-41342857D02*
X89186904Y-41152380D01*
X88653571Y-40961904D02*
X89186904Y-41152380D01*
X89377380Y-41228571D01*
X89415476Y-41266666D01*
X89453571Y-41342857D01*
X88767857Y-39780952D02*
X88805952Y-39666666D01*
X88844047Y-39628571D01*
X88920238Y-39590476D01*
X89034523Y-39590476D01*
X89110714Y-39628571D01*
X89148809Y-39666666D01*
X89186904Y-39742857D01*
X89186904Y-40047619D01*
X88386904Y-40047619D01*
X88386904Y-39780952D01*
X88425000Y-39704761D01*
X88463095Y-39666666D01*
X88539285Y-39628571D01*
X88615476Y-39628571D01*
X88691666Y-39666666D01*
X88729761Y-39704761D01*
X88767857Y-39780952D01*
X88767857Y-40047619D01*
X89186904Y-39247619D02*
X88386904Y-39247619D01*
X88653571Y-38523809D02*
X89186904Y-38523809D01*
X88348809Y-38714285D02*
X88920238Y-38904761D01*
X88920238Y-38409523D01*
X88386904Y-38180952D02*
X89186904Y-37990476D01*
X88615476Y-37838095D01*
X89186904Y-37685714D01*
X88386904Y-37495238D01*
X88386904Y-37038095D02*
X88386904Y-36885714D01*
X88425000Y-36809523D01*
X88501190Y-36733333D01*
X88653571Y-36695238D01*
X88920238Y-36695238D01*
X89072619Y-36733333D01*
X89148809Y-36809523D01*
X89186904Y-36885714D01*
X89186904Y-37038095D01*
X89148809Y-37114285D01*
X89072619Y-37190476D01*
X88920238Y-37228571D01*
X88653571Y-37228571D01*
X88501190Y-37190476D01*
X88425000Y-37114285D01*
X88386904Y-37038095D01*
X89186904Y-36352380D02*
X88386904Y-36352380D01*
X88386904Y-36047619D01*
X88425000Y-35971428D01*
X88463095Y-35933333D01*
X88539285Y-35895238D01*
X88653571Y-35895238D01*
X88729761Y-35933333D01*
X88767857Y-35971428D01*
X88805952Y-36047619D01*
X88805952Y-36352380D01*
X90536904Y-41609523D02*
X90536904Y-41990476D01*
X89736904Y-41990476D01*
X90003571Y-41000000D02*
X90536904Y-41000000D01*
X90003571Y-41342857D02*
X90422619Y-41342857D01*
X90498809Y-41304761D01*
X90536904Y-41228571D01*
X90536904Y-41114285D01*
X90498809Y-41038095D01*
X90460714Y-41000000D01*
X90498809Y-40580952D02*
X90536904Y-40580952D01*
X90613095Y-40619047D01*
X90651190Y-40657142D01*
X89736904Y-39704761D02*
X89736904Y-39171428D01*
X90536904Y-39704761D01*
X90536904Y-39171428D01*
X90498809Y-38561904D02*
X90536904Y-38638095D01*
X90536904Y-38790476D01*
X90498809Y-38866666D01*
X90422619Y-38904761D01*
X90117857Y-38904761D01*
X90041666Y-38866666D01*
X90003571Y-38790476D01*
X90003571Y-38638095D01*
X90041666Y-38561904D01*
X90117857Y-38523809D01*
X90194047Y-38523809D01*
X90270238Y-38904761D01*
X90003571Y-38180952D02*
X90536904Y-38180952D01*
X90079761Y-38180952D02*
X90041666Y-38142857D01*
X90003571Y-38066666D01*
X90003571Y-37952380D01*
X90041666Y-37876190D01*
X90117857Y-37838095D01*
X90536904Y-37838095D01*
X90536904Y-37457142D02*
X90003571Y-37457142D01*
X89736904Y-37457142D02*
X89775000Y-37495238D01*
X89813095Y-37457142D01*
X89775000Y-37419047D01*
X89736904Y-37457142D01*
X89813095Y-37457142D01*
X90003571Y-37076190D02*
X90536904Y-37076190D01*
X90079761Y-37076190D02*
X90041666Y-37038095D01*
X90003571Y-36961904D01*
X90003571Y-36847619D01*
X90041666Y-36771428D01*
X90117857Y-36733333D01*
X90536904Y-36733333D01*
X90003571Y-36009523D02*
X90651190Y-36009523D01*
X90727380Y-36047619D01*
X90765476Y-36085714D01*
X90803571Y-36161904D01*
X90803571Y-36276190D01*
X90765476Y-36352380D01*
X90498809Y-36009523D02*
X90536904Y-36085714D01*
X90536904Y-36238095D01*
X90498809Y-36314285D01*
X90460714Y-36352380D01*
X90384523Y-36390476D01*
X90155952Y-36390476D01*
X90079761Y-36352380D01*
X90041666Y-36314285D01*
X90003571Y-36238095D01*
X90003571Y-36085714D01*
X90041666Y-36009523D01*
X58166666Y-30452380D02*
X57833333Y-29976190D01*
X57595238Y-30452380D02*
X57595238Y-29452380D01*
X57976190Y-29452380D01*
X58071428Y-29500000D01*
X58119047Y-29547619D01*
X58166666Y-29642857D01*
X58166666Y-29785714D01*
X58119047Y-29880952D01*
X58071428Y-29928571D01*
X57976190Y-29976190D01*
X57595238Y-29976190D01*
X58928571Y-29928571D02*
X58595238Y-29928571D01*
X58595238Y-30452380D02*
X58595238Y-29452380D01*
X59071428Y-29452380D01*
X60166666Y-30166666D02*
X60642857Y-30166666D01*
X60071428Y-30452380D02*
X60404761Y-29452380D01*
X60738095Y-30452380D01*
X60928571Y-29785714D02*
X61309523Y-29785714D01*
X61071428Y-29452380D02*
X61071428Y-30309523D01*
X61119047Y-30404761D01*
X61214285Y-30452380D01*
X61309523Y-30452380D01*
X61500000Y-29785714D02*
X61880952Y-29785714D01*
X61642857Y-29452380D02*
X61642857Y-30309523D01*
X61690476Y-30404761D01*
X61785714Y-30452380D01*
X61880952Y-30452380D01*
X62595238Y-30404761D02*
X62500000Y-30452380D01*
X62309523Y-30452380D01*
X62214285Y-30404761D01*
X62166666Y-30309523D01*
X62166666Y-29928571D01*
X62214285Y-29833333D01*
X62309523Y-29785714D01*
X62500000Y-29785714D01*
X62595238Y-29833333D01*
X62642857Y-29928571D01*
X62642857Y-30023809D01*
X62166666Y-30119047D01*
X63071428Y-29785714D02*
X63071428Y-30452380D01*
X63071428Y-29880952D02*
X63119047Y-29833333D01*
X63214285Y-29785714D01*
X63357142Y-29785714D01*
X63452380Y-29833333D01*
X63500000Y-29928571D01*
X63500000Y-30452380D01*
X64404761Y-29785714D02*
X64404761Y-30452380D01*
X63976190Y-29785714D02*
X63976190Y-30309523D01*
X64023809Y-30404761D01*
X64119047Y-30452380D01*
X64261904Y-30452380D01*
X64357142Y-30404761D01*
X64404761Y-30357142D01*
X65309523Y-30452380D02*
X65309523Y-29928571D01*
X65261904Y-29833333D01*
X65166666Y-29785714D01*
X64976190Y-29785714D01*
X64880952Y-29833333D01*
X65309523Y-30404761D02*
X65214285Y-30452380D01*
X64976190Y-30452380D01*
X64880952Y-30404761D01*
X64833333Y-30309523D01*
X64833333Y-30214285D01*
X64880952Y-30119047D01*
X64976190Y-30071428D01*
X65214285Y-30071428D01*
X65309523Y-30023809D01*
X65642857Y-29785714D02*
X66023809Y-29785714D01*
X65785714Y-29452380D02*
X65785714Y-30309523D01*
X65833333Y-30404761D01*
X65928571Y-30452380D01*
X66023809Y-30452380D01*
X66500000Y-30452380D02*
X66404761Y-30404761D01*
X66357142Y-30357142D01*
X66309523Y-30261904D01*
X66309523Y-29976190D01*
X66357142Y-29880952D01*
X66404761Y-29833333D01*
X66500000Y-29785714D01*
X66642857Y-29785714D01*
X66738095Y-29833333D01*
X66785714Y-29880952D01*
X66833333Y-29976190D01*
X66833333Y-30261904D01*
X66785714Y-30357142D01*
X66738095Y-30404761D01*
X66642857Y-30452380D01*
X66500000Y-30452380D01*
X67261904Y-30452380D02*
X67261904Y-29785714D01*
X67261904Y-29976190D02*
X67309523Y-29880952D01*
X67357142Y-29833333D01*
X67452380Y-29785714D01*
X67547619Y-29785714D01*
X73809523Y-32452380D02*
X73476190Y-31976190D01*
X73238095Y-32452380D02*
X73238095Y-31452380D01*
X73619047Y-31452380D01*
X73714285Y-31500000D01*
X73761904Y-31547619D01*
X73809523Y-31642857D01*
X73809523Y-31785714D01*
X73761904Y-31880952D01*
X73714285Y-31928571D01*
X73619047Y-31976190D01*
X73238095Y-31976190D01*
X74571428Y-31928571D02*
X74238095Y-31928571D01*
X74238095Y-32452380D02*
X74238095Y-31452380D01*
X74714285Y-31452380D01*
X76000000Y-32452380D02*
X75904761Y-32404761D01*
X75857142Y-32357142D01*
X75809523Y-32261904D01*
X75809523Y-31976190D01*
X75857142Y-31880952D01*
X75904761Y-31833333D01*
X76000000Y-31785714D01*
X76142857Y-31785714D01*
X76238095Y-31833333D01*
X76285714Y-31880952D01*
X76333333Y-31976190D01*
X76333333Y-32261904D01*
X76285714Y-32357142D01*
X76238095Y-32404761D01*
X76142857Y-32452380D01*
X76000000Y-32452380D01*
X77190476Y-31785714D02*
X77190476Y-32452380D01*
X76761904Y-31785714D02*
X76761904Y-32309523D01*
X76809523Y-32404761D01*
X76904761Y-32452380D01*
X77047619Y-32452380D01*
X77142857Y-32404761D01*
X77190476Y-32357142D01*
X77523809Y-31785714D02*
X77904761Y-31785714D01*
X77666666Y-31452380D02*
X77666666Y-32309523D01*
X77714285Y-32404761D01*
X77809523Y-32452380D01*
X77904761Y-32452380D01*
X48309523Y-32452380D02*
X47976190Y-31976190D01*
X47738095Y-32452380D02*
X47738095Y-31452380D01*
X48119047Y-31452380D01*
X48214285Y-31500000D01*
X48261904Y-31547619D01*
X48309523Y-31642857D01*
X48309523Y-31785714D01*
X48261904Y-31880952D01*
X48214285Y-31928571D01*
X48119047Y-31976190D01*
X47738095Y-31976190D01*
X49071428Y-31928571D02*
X48738095Y-31928571D01*
X48738095Y-32452380D02*
X48738095Y-31452380D01*
X49214285Y-31452380D01*
X50357142Y-32452380D02*
X50357142Y-31785714D01*
X50357142Y-31452380D02*
X50309523Y-31500000D01*
X50357142Y-31547619D01*
X50404761Y-31500000D01*
X50357142Y-31452380D01*
X50357142Y-31547619D01*
X50833333Y-31785714D02*
X50833333Y-32452380D01*
X50833333Y-31880952D02*
X50880952Y-31833333D01*
X50976190Y-31785714D01*
X51119047Y-31785714D01*
X51214285Y-31833333D01*
X51261904Y-31928571D01*
X51261904Y-32452380D01*
D11*
X80080000Y-21810000D02*
X80080000Y-24434000D01*
X77540000Y-21810000D02*
X77540000Y-24434000D01*
X75000000Y-21810000D02*
X75000000Y-24450000D01*
X82660000Y-5920000D02*
X82660000Y-21810000D01*
X72420000Y-5920000D02*
X72420000Y-21810000D01*
X72420000Y-5920000D02*
X82660000Y-5920000D01*
X72420000Y-21810000D02*
X82660000Y-21810000D01*
X65080000Y-21810000D02*
X65080000Y-24434000D01*
X62540000Y-21810000D02*
X62540000Y-24434000D01*
X60000000Y-21810000D02*
X60000000Y-24450000D01*
X67660000Y-5920000D02*
X67660000Y-21810000D01*
X57420000Y-5920000D02*
X57420000Y-21810000D01*
X57420000Y-5920000D02*
X67660000Y-5920000D01*
X57420000Y-21810000D02*
X67660000Y-21810000D01*
X50080000Y-21810000D02*
X50080000Y-24434000D01*
X47540000Y-21810000D02*
X47540000Y-24434000D01*
X45000000Y-21810000D02*
X45000000Y-24450000D01*
X52660000Y-5920000D02*
X52660000Y-21810000D01*
X42420000Y-5920000D02*
X42420000Y-21810000D01*
X42420000Y-5920000D02*
X52660000Y-5920000D01*
X42420000Y-21810000D02*
X52660000Y-21810000D01*
X51000000Y-43000000D02*
X51000000Y-35500000D01*
X51000000Y-35500000D02*
X50500000Y-35500000D01*
X50500000Y-35500000D02*
X47500000Y-38000000D01*
X47500000Y-38000000D02*
X47500000Y-43000000D01*
X47500000Y-43000000D02*
X41000000Y-43000000D01*
X41000000Y-43000000D02*
X41000000Y-43500000D01*
X41000000Y-43500000D02*
X58000000Y-43500000D01*
X58000000Y-43500000D02*
X58000000Y-43000000D01*
X58000000Y-43000000D02*
X51000000Y-43000000D01*
X58000000Y-43500000D02*
X58000000Y-39000000D01*
X58000000Y-39000000D02*
X58500000Y-39000000D01*
X58500000Y-39000000D02*
X58500000Y-43500000D01*
X58500000Y-43500000D02*
X58000000Y-43500000D01*
X42000000Y-43500000D02*
X42000000Y-51000000D01*
X42000000Y-51000000D02*
X41500000Y-51500000D01*
X41500000Y-51500000D02*
X42000000Y-52000000D01*
X42000000Y-52000000D02*
X41500000Y-52500000D01*
X41500000Y-52500000D02*
X42000000Y-53000000D01*
X42000000Y-53000000D02*
X41500000Y-53500000D01*
X41500000Y-53500000D02*
X42000000Y-54000000D01*
X42000000Y-54000000D02*
X42000000Y-54500000D01*
X42000000Y-54500000D02*
X43000000Y-54500000D01*
X43000000Y-54500000D02*
X43000000Y-54000000D01*
X43000000Y-54000000D02*
X49500000Y-54000000D01*
X56000000Y-54000000D02*
X49500000Y-54000000D01*
X56000000Y-54500000D02*
X56000000Y-54000000D01*
X57000000Y-54000000D02*
X57000000Y-54500000D01*
X57000000Y-54500000D02*
X56000000Y-54500000D01*
X57500000Y-53500000D02*
X57000000Y-54000000D01*
X57500000Y-52500000D02*
X57000000Y-53000000D01*
X57000000Y-52000000D02*
X57500000Y-52500000D01*
X57000000Y-53000000D02*
X57500000Y-53500000D01*
X57500000Y-51500000D02*
X57000000Y-52000000D01*
X57000000Y-51000000D02*
X57500000Y-51500000D01*
X57000000Y-43500000D02*
X57000000Y-51000000D01*
X37500000Y-43000000D02*
X61500000Y-43000000D01*
X61500000Y-43000000D02*
X61500000Y-33000000D01*
X61500000Y-33000000D02*
X37500000Y-33000000D01*
X37500000Y-33000000D02*
X37500000Y-43000000D01*
X77000000Y-43000000D02*
X77000000Y-35500000D01*
X77000000Y-35500000D02*
X76500000Y-35500000D01*
X76500000Y-35500000D02*
X73500000Y-38000000D01*
X73500000Y-38000000D02*
X73500000Y-43000000D01*
X73500000Y-43000000D02*
X67000000Y-43000000D01*
X67000000Y-43000000D02*
X67000000Y-43500000D01*
X67000000Y-43500000D02*
X84000000Y-43500000D01*
X84000000Y-43500000D02*
X84000000Y-43000000D01*
X84000000Y-43000000D02*
X77000000Y-43000000D01*
X84000000Y-43500000D02*
X84000000Y-39000000D01*
X84000000Y-39000000D02*
X84500000Y-39000000D01*
X84500000Y-39000000D02*
X84500000Y-43500000D01*
X84500000Y-43500000D02*
X84000000Y-43500000D01*
X68000000Y-43500000D02*
X68000000Y-51000000D01*
X68000000Y-51000000D02*
X67500000Y-51500000D01*
X67500000Y-51500000D02*
X68000000Y-52000000D01*
X68000000Y-52000000D02*
X67500000Y-52500000D01*
X67500000Y-52500000D02*
X68000000Y-53000000D01*
X68000000Y-53000000D02*
X67500000Y-53500000D01*
X67500000Y-53500000D02*
X68000000Y-54000000D01*
X68000000Y-54000000D02*
X68000000Y-54500000D01*
X68000000Y-54500000D02*
X69000000Y-54500000D01*
X69000000Y-54500000D02*
X69000000Y-54000000D01*
X69000000Y-54000000D02*
X75500000Y-54000000D01*
X82000000Y-54000000D02*
X75500000Y-54000000D01*
X82000000Y-54500000D02*
X82000000Y-54000000D01*
X83000000Y-54000000D02*
X83000000Y-54500000D01*
X83000000Y-54500000D02*
X82000000Y-54500000D01*
X83500000Y-53500000D02*
X83000000Y-54000000D01*
X83500000Y-52500000D02*
X83000000Y-53000000D01*
X83000000Y-52000000D02*
X83500000Y-52500000D01*
X83000000Y-53000000D02*
X83500000Y-53500000D01*
X83500000Y-51500000D02*
X83000000Y-52000000D01*
X83000000Y-51000000D02*
X83500000Y-51500000D01*
X83000000Y-43500000D02*
X83000000Y-51000000D01*
X63500000Y-43000000D02*
X87500000Y-43000000D01*
X87500000Y-43000000D02*
X87500000Y-33000000D01*
X87500000Y-33000000D02*
X63500000Y-33000000D01*
X63500000Y-33000000D02*
X63500000Y-43000000D01*
D10*
X72952380Y-25666666D02*
X72476190Y-26000000D01*
X72952380Y-26238095D02*
X71952380Y-26238095D01*
X71952380Y-25857142D01*
X72000000Y-25761904D01*
X72047619Y-25714285D01*
X72142857Y-25666666D01*
X72285714Y-25666666D01*
X72380952Y-25714285D01*
X72428571Y-25761904D01*
X72476190Y-25857142D01*
X72476190Y-26238095D01*
X71952380Y-25333333D02*
X71952380Y-24714285D01*
X72333333Y-25047619D01*
X72333333Y-24904761D01*
X72380952Y-24809523D01*
X72428571Y-24761904D01*
X72523809Y-24714285D01*
X72761904Y-24714285D01*
X72857142Y-24761904D01*
X72904761Y-24809523D01*
X72952380Y-24904761D01*
X72952380Y-25190476D01*
X72904761Y-25285714D01*
X72857142Y-25333333D01*
X57452380Y-25666666D02*
X56976190Y-26000000D01*
X57452380Y-26238095D02*
X56452380Y-26238095D01*
X56452380Y-25857142D01*
X56500000Y-25761904D01*
X56547619Y-25714285D01*
X56642857Y-25666666D01*
X56785714Y-25666666D01*
X56880952Y-25714285D01*
X56928571Y-25761904D01*
X56976190Y-25857142D01*
X56976190Y-26238095D01*
X56547619Y-25285714D02*
X56500000Y-25238095D01*
X56452380Y-25142857D01*
X56452380Y-24904761D01*
X56500000Y-24809523D01*
X56547619Y-24761904D01*
X56642857Y-24714285D01*
X56738095Y-24714285D01*
X56880952Y-24761904D01*
X57452380Y-25333333D01*
X57452380Y-24714285D01*
X42452380Y-25666666D02*
X41976190Y-26000000D01*
X42452380Y-26238095D02*
X41452380Y-26238095D01*
X41452380Y-25857142D01*
X41500000Y-25761904D01*
X41547619Y-25714285D01*
X41642857Y-25666666D01*
X41785714Y-25666666D01*
X41880952Y-25714285D01*
X41928571Y-25761904D01*
X41976190Y-25857142D01*
X41976190Y-26238095D01*
X42452380Y-24714285D02*
X42452380Y-25285714D01*
X42452380Y-25000000D02*
X41452380Y-25000000D01*
X41595238Y-25095238D01*
X41690476Y-25190476D01*
X41738095Y-25285714D01*
M02*
