%TF.GenerationSoftware,KiCad,Pcbnew,(5.1.4)-1*%
%TF.CreationDate,2021-01-21T23:44:22+08:00*%
%TF.ProjectId,Attenuator,41747465-6e75-4617-946f-722e6b696361,rev?*%
%TF.SameCoordinates,Original*%
%TF.FileFunction,Copper,L2,Bot*%
%TF.FilePolarity,Positive*%
%FSLAX46Y46*%
G04 Gerber Fmt 4.6, Leading zero omitted, Abs format (unit mm)*
G04 Created by KiCad (PCBNEW (5.1.4)-1) date 2021-01-21 23:44:22*
%MOMM*%
%LPD*%
G04 APERTURE LIST*
%ADD10R,5.000000X7.500000*%
%ADD11C,0.800000*%
%ADD12R,2.420000X5.080000*%
%ADD13C,6.000000*%
%ADD14C,1.200000*%
%ADD15C,1.000000*%
%ADD16C,0.350000*%
G04 APERTURE END LIST*
D10*
X59000000Y-39250000D03*
D11*
X38300000Y-36920000D03*
X38300000Y-34380000D03*
X38300000Y-39460000D03*
X38300000Y-42000000D03*
X39900000Y-36920000D03*
X41700000Y-42000000D03*
X41700000Y-39460000D03*
X41700000Y-34380000D03*
X41700000Y-36920000D03*
X39900000Y-39460000D03*
X39900000Y-42000000D03*
X39900000Y-34380000D03*
X43500000Y-36920000D03*
X43500000Y-34380000D03*
X43500000Y-39460000D03*
X43500000Y-42000000D03*
X45300000Y-42000000D03*
X45300000Y-36920000D03*
X45300000Y-39460000D03*
X45300000Y-34380000D03*
X53500000Y-36920000D03*
X53500000Y-34380000D03*
X53500000Y-39460000D03*
X53500000Y-42000000D03*
X55100000Y-36920000D03*
X56900000Y-42000000D03*
X56900000Y-39460000D03*
X56900000Y-34380000D03*
X56900000Y-36920000D03*
X55100000Y-39460000D03*
X55100000Y-42000000D03*
X55100000Y-34380000D03*
X58700000Y-36920000D03*
X58700000Y-34380000D03*
X58700000Y-39460000D03*
X58700000Y-42000000D03*
X60500000Y-42000000D03*
X60500000Y-36920000D03*
X60500000Y-39460000D03*
X60500000Y-34380000D03*
D12*
X53880000Y-40220000D03*
X45120000Y-40220000D03*
D10*
X85000000Y-39250000D03*
D11*
X64300000Y-36920000D03*
X64300000Y-34380000D03*
X64300000Y-39460000D03*
X64300000Y-42000000D03*
X65900000Y-36920000D03*
X67700000Y-42000000D03*
X67700000Y-39460000D03*
X67700000Y-34380000D03*
X67700000Y-36920000D03*
X65900000Y-39460000D03*
X65900000Y-42000000D03*
X65900000Y-34380000D03*
X69500000Y-36920000D03*
X69500000Y-34380000D03*
X69500000Y-39460000D03*
X69500000Y-42000000D03*
X71300000Y-42000000D03*
X71300000Y-36920000D03*
X71300000Y-39460000D03*
X71300000Y-34380000D03*
X79500000Y-36920000D03*
X79500000Y-34380000D03*
X79500000Y-39460000D03*
X79500000Y-42000000D03*
X81100000Y-36920000D03*
X82900000Y-42000000D03*
X82900000Y-39460000D03*
X82900000Y-34380000D03*
X82900000Y-36920000D03*
X81100000Y-39460000D03*
X81100000Y-42000000D03*
X81100000Y-34380000D03*
X84700000Y-36920000D03*
X84700000Y-34380000D03*
X84700000Y-39460000D03*
X84700000Y-42000000D03*
X86500000Y-42000000D03*
X86500000Y-36920000D03*
X86500000Y-39460000D03*
X86500000Y-34380000D03*
D12*
X79880000Y-40220000D03*
X71120000Y-40220000D03*
D11*
X90056810Y-26312500D03*
X90056810Y-28687500D03*
X88000000Y-29875000D03*
X85943190Y-28687500D03*
X85943190Y-26312500D03*
X88000000Y-25125000D03*
D13*
X88000000Y-27500000D03*
D11*
X40056810Y-26312500D03*
X40056810Y-28687500D03*
X38000000Y-29875000D03*
X35943190Y-28687500D03*
X35943190Y-26312500D03*
X38000000Y-25125000D03*
D13*
X38000000Y-27500000D03*
D14*
X83250000Y-42250000D03*
X83250000Y-34250000D03*
X41750000Y-34250000D03*
X41750000Y-42000000D03*
D15*
G36*
X90975001Y-42475000D02*
G01*
X35025000Y-42475000D01*
X35025000Y-23025000D01*
X90975000Y-23025000D01*
X90975001Y-42475000D01*
X90975001Y-42475000D01*
G37*
X90975001Y-42475000D02*
X35025000Y-42475000D01*
X35025000Y-23025000D01*
X90975000Y-23025000D01*
X90975001Y-42475000D01*
D16*
X83250000Y-42250000D03*
X83250000Y-34250000D03*
X41750000Y-34250000D03*
X41750000Y-42000000D03*
X77540000Y-8840000D03*
X62540000Y-8840000D03*
X47540000Y-8840000D03*
X38300000Y-36920000D03*
X38300000Y-34380000D03*
X38300000Y-39460000D03*
X38300000Y-42000000D03*
X39900000Y-36920000D03*
X41700000Y-42000000D03*
X41700000Y-39460000D03*
X41700000Y-34380000D03*
X41700000Y-36920000D03*
X39900000Y-39460000D03*
X39900000Y-42000000D03*
X39900000Y-34380000D03*
X43500000Y-36920000D03*
X43500000Y-34380000D03*
X43500000Y-39460000D03*
X43500000Y-42000000D03*
X45300000Y-42000000D03*
X45300000Y-36920000D03*
X45300000Y-39460000D03*
X45300000Y-34380000D03*
X53500000Y-36920000D03*
X53500000Y-34380000D03*
X53500000Y-39460000D03*
X53500000Y-42000000D03*
X55100000Y-36920000D03*
X56900000Y-42000000D03*
X56900000Y-39460000D03*
X56900000Y-34380000D03*
X56900000Y-36920000D03*
X55100000Y-39460000D03*
X55100000Y-42000000D03*
X55100000Y-34380000D03*
X58700000Y-36920000D03*
X58700000Y-34380000D03*
X58700000Y-39460000D03*
X58700000Y-42000000D03*
X60500000Y-42000000D03*
X60500000Y-36920000D03*
X60500000Y-39460000D03*
X60500000Y-34380000D03*
X64300000Y-36920000D03*
X64300000Y-34380000D03*
X64300000Y-39460000D03*
X64300000Y-42000000D03*
X65900000Y-36920000D03*
X67700000Y-42000000D03*
X67700000Y-39460000D03*
X67700000Y-34380000D03*
X67700000Y-36920000D03*
X65900000Y-39460000D03*
X65900000Y-42000000D03*
X65900000Y-34380000D03*
X69500000Y-36920000D03*
X69500000Y-34380000D03*
X69500000Y-39460000D03*
X69500000Y-42000000D03*
X71300000Y-42000000D03*
X71300000Y-36920000D03*
X71300000Y-39460000D03*
X71300000Y-34380000D03*
X79500000Y-36920000D03*
X79500000Y-34380000D03*
X79500000Y-39460000D03*
X79500000Y-42000000D03*
X81100000Y-36920000D03*
X82900000Y-42000000D03*
X82900000Y-39460000D03*
X82900000Y-34380000D03*
X82900000Y-36920000D03*
X81100000Y-39460000D03*
X81100000Y-42000000D03*
X81100000Y-34380000D03*
X84700000Y-36920000D03*
X84700000Y-34380000D03*
X84700000Y-39460000D03*
X84700000Y-42000000D03*
X86500000Y-42000000D03*
X86500000Y-36920000D03*
X86500000Y-39460000D03*
X86500000Y-34380000D03*
X90056810Y-26312500D03*
X90056810Y-28687500D03*
X88000000Y-29875000D03*
X85943190Y-28687500D03*
X85943190Y-26312500D03*
X88000000Y-25125000D03*
X88000000Y-27500000D03*
X40056810Y-26312500D03*
X40056810Y-28687500D03*
X38000000Y-29875000D03*
X35943190Y-28687500D03*
X35943190Y-26312500D03*
X38000000Y-25125000D03*
X38000000Y-27500000D03*
M02*
