%TF.GenerationSoftware,KiCad,Pcbnew,(5.1.4)-1*%
%TF.CreationDate,2021-02-25T21:00:52+08:00*%
%TF.ProjectId,Coax_fix,436f6178-5f66-4697-982e-6b696361645f,rev?*%
%TF.SameCoordinates,Original*%
%TF.FileFunction,Legend,Top*%
%TF.FilePolarity,Positive*%
%FSLAX46Y46*%
G04 Gerber Fmt 4.6, Leading zero omitted, Abs format (unit mm)*
G04 Created by KiCad (PCBNEW (5.1.4)-1) date 2021-02-25 21:00:52*
%MOMM*%
%LPD*%
G04 APERTURE LIST*
%ADD10C,0.120000*%
%ADD11C,0.150000*%
G04 APERTURE END LIST*
D10*
X106600000Y-115140000D02*
X109400000Y-115140000D01*
X109400000Y-115140000D02*
X109400000Y-99560000D01*
X109400000Y-99560000D02*
X106600000Y-99560000D01*
X106600000Y-99560000D02*
X106600000Y-115140000D01*
X106600000Y-112430000D02*
X109400000Y-112430000D01*
X106600000Y-51140000D02*
X109400000Y-51140000D01*
X109400000Y-51140000D02*
X109400000Y-35560000D01*
X109400000Y-35560000D02*
X106600000Y-35560000D01*
X106600000Y-35560000D02*
X106600000Y-51140000D01*
X106600000Y-48430000D02*
X109400000Y-48430000D01*
X73600000Y-115140000D02*
X76400000Y-115140000D01*
X76400000Y-115140000D02*
X76400000Y-99560000D01*
X76400000Y-99560000D02*
X73600000Y-99560000D01*
X73600000Y-99560000D02*
X73600000Y-115140000D01*
X73600000Y-112430000D02*
X76400000Y-112430000D01*
X73600000Y-100140000D02*
X76400000Y-100140000D01*
X76400000Y-100140000D02*
X76400000Y-84560000D01*
X76400000Y-84560000D02*
X73600000Y-84560000D01*
X73600000Y-84560000D02*
X73600000Y-100140000D01*
X73600000Y-97430000D02*
X76400000Y-97430000D01*
X73600000Y-84140000D02*
X76400000Y-84140000D01*
X76400000Y-84140000D02*
X76400000Y-68560000D01*
X76400000Y-68560000D02*
X73600000Y-68560000D01*
X73600000Y-68560000D02*
X73600000Y-84140000D01*
X73600000Y-81430000D02*
X76400000Y-81430000D01*
X125000000Y-100050000D02*
X125000000Y-98550000D01*
X124250000Y-99300000D02*
X125750000Y-99300000D01*
X122690000Y-101560000D02*
X127310000Y-101560000D01*
X122690000Y-91440000D02*
X127310000Y-91440000D01*
X122690000Y-101560000D02*
X122690000Y-100060000D01*
X122690000Y-100060000D02*
X123440000Y-99310000D01*
X123440000Y-99310000D02*
X122690000Y-98560000D01*
X122690000Y-98560000D02*
X122690000Y-91440000D01*
X127310000Y-101560000D02*
X127310000Y-100060000D01*
X127310000Y-100060000D02*
X126560000Y-99310000D01*
X126560000Y-99310000D02*
X127310000Y-98560000D01*
X127310000Y-98560000D02*
X127310000Y-91440000D01*
X125000000Y-102820000D02*
X125000000Y-101560000D01*
X125000000Y-90180000D02*
X125000000Y-91440000D01*
X92000000Y-99050000D02*
X92000000Y-97550000D01*
X91250000Y-98300000D02*
X92750000Y-98300000D01*
X89690000Y-100560000D02*
X94310000Y-100560000D01*
X89690000Y-90440000D02*
X94310000Y-90440000D01*
X89690000Y-100560000D02*
X89690000Y-99060000D01*
X89690000Y-99060000D02*
X90440000Y-98310000D01*
X90440000Y-98310000D02*
X89690000Y-97560000D01*
X89690000Y-97560000D02*
X89690000Y-90440000D01*
X94310000Y-100560000D02*
X94310000Y-99060000D01*
X94310000Y-99060000D02*
X93560000Y-98310000D01*
X93560000Y-98310000D02*
X94310000Y-97560000D01*
X94310000Y-97560000D02*
X94310000Y-90440000D01*
X92000000Y-101820000D02*
X92000000Y-100560000D01*
X92000000Y-89180000D02*
X92000000Y-90440000D01*
X59000000Y-99050000D02*
X59000000Y-97550000D01*
X58250000Y-98300000D02*
X59750000Y-98300000D01*
X56690000Y-100560000D02*
X61310000Y-100560000D01*
X56690000Y-90440000D02*
X61310000Y-90440000D01*
X56690000Y-100560000D02*
X56690000Y-99060000D01*
X56690000Y-99060000D02*
X57440000Y-98310000D01*
X57440000Y-98310000D02*
X56690000Y-97560000D01*
X56690000Y-97560000D02*
X56690000Y-90440000D01*
X61310000Y-100560000D02*
X61310000Y-99060000D01*
X61310000Y-99060000D02*
X60560000Y-98310000D01*
X60560000Y-98310000D02*
X61310000Y-97560000D01*
X61310000Y-97560000D02*
X61310000Y-90440000D01*
X59000000Y-101820000D02*
X59000000Y-100560000D01*
X59000000Y-89180000D02*
X59000000Y-90440000D01*
X59000000Y-79050000D02*
X59000000Y-77550000D01*
X58250000Y-78300000D02*
X59750000Y-78300000D01*
X56690000Y-80560000D02*
X61310000Y-80560000D01*
X56690000Y-70440000D02*
X61310000Y-70440000D01*
X56690000Y-80560000D02*
X56690000Y-79060000D01*
X56690000Y-79060000D02*
X57440000Y-78310000D01*
X57440000Y-78310000D02*
X56690000Y-77560000D01*
X56690000Y-77560000D02*
X56690000Y-70440000D01*
X61310000Y-80560000D02*
X61310000Y-79060000D01*
X61310000Y-79060000D02*
X60560000Y-78310000D01*
X60560000Y-78310000D02*
X61310000Y-77560000D01*
X61310000Y-77560000D02*
X61310000Y-70440000D01*
X59000000Y-81820000D02*
X59000000Y-80560000D01*
X59000000Y-69180000D02*
X59000000Y-70440000D01*
X92000000Y-79050000D02*
X92000000Y-77550000D01*
X91250000Y-78300000D02*
X92750000Y-78300000D01*
X89690000Y-80560000D02*
X94310000Y-80560000D01*
X89690000Y-70440000D02*
X94310000Y-70440000D01*
X89690000Y-80560000D02*
X89690000Y-79060000D01*
X89690000Y-79060000D02*
X90440000Y-78310000D01*
X90440000Y-78310000D02*
X89690000Y-77560000D01*
X89690000Y-77560000D02*
X89690000Y-70440000D01*
X94310000Y-80560000D02*
X94310000Y-79060000D01*
X94310000Y-79060000D02*
X93560000Y-78310000D01*
X93560000Y-78310000D02*
X94310000Y-77560000D01*
X94310000Y-77560000D02*
X94310000Y-70440000D01*
X92000000Y-81820000D02*
X92000000Y-80560000D01*
X92000000Y-69180000D02*
X92000000Y-70440000D01*
X125000000Y-79050000D02*
X125000000Y-77550000D01*
X124250000Y-78300000D02*
X125750000Y-78300000D01*
X122690000Y-80560000D02*
X127310000Y-80560000D01*
X122690000Y-70440000D02*
X127310000Y-70440000D01*
X122690000Y-80560000D02*
X122690000Y-79060000D01*
X122690000Y-79060000D02*
X123440000Y-78310000D01*
X123440000Y-78310000D02*
X122690000Y-77560000D01*
X122690000Y-77560000D02*
X122690000Y-70440000D01*
X127310000Y-80560000D02*
X127310000Y-79060000D01*
X127310000Y-79060000D02*
X126560000Y-78310000D01*
X126560000Y-78310000D02*
X127310000Y-77560000D01*
X127310000Y-77560000D02*
X127310000Y-70440000D01*
X125000000Y-81820000D02*
X125000000Y-80560000D01*
X125000000Y-69180000D02*
X125000000Y-70440000D01*
X125000000Y-58050000D02*
X125000000Y-56550000D01*
X124250000Y-57300000D02*
X125750000Y-57300000D01*
X122690000Y-59560000D02*
X127310000Y-59560000D01*
X122690000Y-49440000D02*
X127310000Y-49440000D01*
X122690000Y-59560000D02*
X122690000Y-58060000D01*
X122690000Y-58060000D02*
X123440000Y-57310000D01*
X123440000Y-57310000D02*
X122690000Y-56560000D01*
X122690000Y-56560000D02*
X122690000Y-49440000D01*
X127310000Y-59560000D02*
X127310000Y-58060000D01*
X127310000Y-58060000D02*
X126560000Y-57310000D01*
X126560000Y-57310000D02*
X127310000Y-56560000D01*
X127310000Y-56560000D02*
X127310000Y-49440000D01*
X125000000Y-60820000D02*
X125000000Y-59560000D01*
X125000000Y-48180000D02*
X125000000Y-49440000D01*
X92000000Y-58050000D02*
X92000000Y-56550000D01*
X91250000Y-57300000D02*
X92750000Y-57300000D01*
X89690000Y-59560000D02*
X94310000Y-59560000D01*
X89690000Y-49440000D02*
X94310000Y-49440000D01*
X89690000Y-59560000D02*
X89690000Y-58060000D01*
X89690000Y-58060000D02*
X90440000Y-57310000D01*
X90440000Y-57310000D02*
X89690000Y-56560000D01*
X89690000Y-56560000D02*
X89690000Y-49440000D01*
X94310000Y-59560000D02*
X94310000Y-58060000D01*
X94310000Y-58060000D02*
X93560000Y-57310000D01*
X93560000Y-57310000D02*
X94310000Y-56560000D01*
X94310000Y-56560000D02*
X94310000Y-49440000D01*
X92000000Y-60820000D02*
X92000000Y-59560000D01*
X92000000Y-48180000D02*
X92000000Y-49440000D01*
X59000000Y-48180000D02*
X59000000Y-49440000D01*
X59000000Y-60820000D02*
X59000000Y-59560000D01*
X61310000Y-56560000D02*
X61310000Y-49440000D01*
X60560000Y-57310000D02*
X61310000Y-56560000D01*
X61310000Y-58060000D02*
X60560000Y-57310000D01*
X61310000Y-59560000D02*
X61310000Y-58060000D01*
X56690000Y-56560000D02*
X56690000Y-49440000D01*
X57440000Y-57310000D02*
X56690000Y-56560000D01*
X56690000Y-58060000D02*
X57440000Y-57310000D01*
X56690000Y-59560000D02*
X56690000Y-58060000D01*
X56690000Y-49440000D02*
X61310000Y-49440000D01*
X56690000Y-59560000D02*
X61310000Y-59560000D01*
X58250000Y-57300000D02*
X59750000Y-57300000D01*
X59000000Y-58050000D02*
X59000000Y-56550000D01*
X106600000Y-99140000D02*
X109400000Y-99140000D01*
X109400000Y-99140000D02*
X109400000Y-83560000D01*
X109400000Y-83560000D02*
X106600000Y-83560000D01*
X106600000Y-83560000D02*
X106600000Y-99140000D01*
X106600000Y-96430000D02*
X109400000Y-96430000D01*
X106600000Y-83140000D02*
X109400000Y-83140000D01*
X109400000Y-83140000D02*
X109400000Y-67560000D01*
X109400000Y-67560000D02*
X106600000Y-67560000D01*
X106600000Y-67560000D02*
X106600000Y-83140000D01*
X106600000Y-80430000D02*
X109400000Y-80430000D01*
X73600000Y-51440000D02*
X76400000Y-51440000D01*
X76400000Y-51440000D02*
X76400000Y-35860000D01*
X76400000Y-35860000D02*
X73600000Y-35860000D01*
X73600000Y-35860000D02*
X73600000Y-51440000D01*
X73600000Y-48730000D02*
X76400000Y-48730000D01*
X106600000Y-67440000D02*
X109400000Y-67440000D01*
X109400000Y-67440000D02*
X109400000Y-51860000D01*
X109400000Y-51860000D02*
X106600000Y-51860000D01*
X106600000Y-51860000D02*
X106600000Y-67440000D01*
X106600000Y-64730000D02*
X109400000Y-64730000D01*
X73600000Y-65430000D02*
X76400000Y-65430000D01*
X73600000Y-52560000D02*
X73600000Y-68140000D01*
X76400000Y-52560000D02*
X73600000Y-52560000D01*
X76400000Y-68140000D02*
X76400000Y-52560000D01*
X73600000Y-68140000D02*
X76400000Y-68140000D01*
X79000000Y-95000000D02*
X87000000Y-95000000D01*
X83000000Y-96000000D02*
X83000000Y-97000000D01*
X83000000Y-85000000D02*
X83000000Y-83000000D01*
X79000000Y-85000000D02*
X87000000Y-85000000D01*
X87000000Y-85000000D02*
X87000000Y-96000000D01*
X79000000Y-96000000D02*
X87000000Y-96000000D01*
X79000000Y-85000000D02*
X79000000Y-96000000D01*
X130000000Y-55000000D02*
X138000000Y-55000000D01*
X134000000Y-56000000D02*
X134000000Y-57000000D01*
X134000000Y-45000000D02*
X134000000Y-43000000D01*
X130000000Y-45000000D02*
X138000000Y-45000000D01*
X138000000Y-45000000D02*
X138000000Y-56000000D01*
X130000000Y-56000000D02*
X138000000Y-56000000D01*
X130000000Y-45000000D02*
X130000000Y-56000000D01*
X130000000Y-85000000D02*
X130000000Y-96000000D01*
X130000000Y-96000000D02*
X138000000Y-96000000D01*
X138000000Y-85000000D02*
X138000000Y-96000000D01*
X130000000Y-85000000D02*
X138000000Y-85000000D01*
X134000000Y-85000000D02*
X134000000Y-83000000D01*
X134000000Y-96000000D02*
X134000000Y-97000000D01*
X130000000Y-95000000D02*
X138000000Y-95000000D01*
X112000000Y-45000000D02*
X112000000Y-56000000D01*
X112000000Y-56000000D02*
X120000000Y-56000000D01*
X120000000Y-45000000D02*
X120000000Y-56000000D01*
X112000000Y-45000000D02*
X120000000Y-45000000D01*
X116000000Y-45000000D02*
X116000000Y-43000000D01*
X116000000Y-56000000D02*
X116000000Y-57000000D01*
X112000000Y-55000000D02*
X120000000Y-55000000D01*
X112000000Y-95000000D02*
X120000000Y-95000000D01*
X116000000Y-96000000D02*
X116000000Y-97000000D01*
X116000000Y-85000000D02*
X116000000Y-83000000D01*
X112000000Y-85000000D02*
X120000000Y-85000000D01*
X120000000Y-85000000D02*
X120000000Y-96000000D01*
X112000000Y-96000000D02*
X120000000Y-96000000D01*
X112000000Y-85000000D02*
X112000000Y-96000000D01*
X97000000Y-55000000D02*
X105000000Y-55000000D01*
X101000000Y-56000000D02*
X101000000Y-57000000D01*
X101000000Y-45000000D02*
X101000000Y-43000000D01*
X97000000Y-45000000D02*
X105000000Y-45000000D01*
X105000000Y-45000000D02*
X105000000Y-56000000D01*
X97000000Y-56000000D02*
X105000000Y-56000000D01*
X97000000Y-45000000D02*
X97000000Y-56000000D01*
X97000000Y-85000000D02*
X97000000Y-96000000D01*
X97000000Y-96000000D02*
X105000000Y-96000000D01*
X105000000Y-85000000D02*
X105000000Y-96000000D01*
X97000000Y-85000000D02*
X105000000Y-85000000D01*
X101000000Y-85000000D02*
X101000000Y-83000000D01*
X101000000Y-96000000D02*
X101000000Y-97000000D01*
X97000000Y-95000000D02*
X105000000Y-95000000D01*
X79000000Y-45000000D02*
X79000000Y-56000000D01*
X79000000Y-56000000D02*
X87000000Y-56000000D01*
X87000000Y-45000000D02*
X87000000Y-56000000D01*
X79000000Y-45000000D02*
X87000000Y-45000000D01*
X83000000Y-45000000D02*
X83000000Y-43000000D01*
X83000000Y-56000000D02*
X83000000Y-57000000D01*
X79000000Y-55000000D02*
X87000000Y-55000000D01*
X64000000Y-95000000D02*
X72000000Y-95000000D01*
X68000000Y-96000000D02*
X68000000Y-97000000D01*
X68000000Y-85000000D02*
X68000000Y-83000000D01*
X64000000Y-85000000D02*
X72000000Y-85000000D01*
X72000000Y-85000000D02*
X72000000Y-96000000D01*
X64000000Y-96000000D02*
X72000000Y-96000000D01*
X64000000Y-85000000D02*
X64000000Y-96000000D01*
X46000000Y-85000000D02*
X46000000Y-96000000D01*
X46000000Y-96000000D02*
X54000000Y-96000000D01*
X54000000Y-85000000D02*
X54000000Y-96000000D01*
X46000000Y-85000000D02*
X54000000Y-85000000D01*
X50000000Y-85000000D02*
X50000000Y-83000000D01*
X50000000Y-96000000D02*
X50000000Y-97000000D01*
X46000000Y-95000000D02*
X54000000Y-95000000D01*
X64000000Y-45000000D02*
X64000000Y-56000000D01*
X64000000Y-56000000D02*
X72000000Y-56000000D01*
X72000000Y-45000000D02*
X72000000Y-56000000D01*
X64000000Y-45000000D02*
X72000000Y-45000000D01*
X68000000Y-45000000D02*
X68000000Y-43000000D01*
X68000000Y-56000000D02*
X68000000Y-57000000D01*
X64000000Y-55000000D02*
X72000000Y-55000000D01*
X46000000Y-55000000D02*
X54000000Y-55000000D01*
X50000000Y-56000000D02*
X50000000Y-57000000D01*
X50000000Y-45000000D02*
X50000000Y-43000000D01*
X46000000Y-45000000D02*
X54000000Y-45000000D01*
X54000000Y-45000000D02*
X54000000Y-56000000D01*
X46000000Y-56000000D02*
X54000000Y-56000000D01*
X46000000Y-45000000D02*
X46000000Y-56000000D01*
D11*
X106052380Y-107413333D02*
X105576190Y-107746666D01*
X106052380Y-107984761D02*
X105052380Y-107984761D01*
X105052380Y-107603809D01*
X105100000Y-107508571D01*
X105147619Y-107460952D01*
X105242857Y-107413333D01*
X105385714Y-107413333D01*
X105480952Y-107460952D01*
X105528571Y-107508571D01*
X105576190Y-107603809D01*
X105576190Y-107984761D01*
X105528571Y-106984761D02*
X105528571Y-106651428D01*
X106052380Y-106508571D02*
X106052380Y-106984761D01*
X105052380Y-106984761D01*
X105052380Y-106508571D01*
X105528571Y-105746666D02*
X105528571Y-106080000D01*
X106052380Y-106080000D02*
X105052380Y-106080000D01*
X105052380Y-105603809D01*
X105052380Y-105080000D02*
X105290476Y-105080000D01*
X105195238Y-105318095D02*
X105290476Y-105080000D01*
X105195238Y-104841904D01*
X105480952Y-105222857D02*
X105290476Y-105080000D01*
X105480952Y-104937142D01*
X105052380Y-104318095D02*
X105290476Y-104318095D01*
X105195238Y-104556190D02*
X105290476Y-104318095D01*
X105195238Y-104080000D01*
X105480952Y-104460952D02*
X105290476Y-104318095D01*
X105480952Y-104175238D01*
X106052380Y-43413333D02*
X105576190Y-43746666D01*
X106052380Y-43984761D02*
X105052380Y-43984761D01*
X105052380Y-43603809D01*
X105100000Y-43508571D01*
X105147619Y-43460952D01*
X105242857Y-43413333D01*
X105385714Y-43413333D01*
X105480952Y-43460952D01*
X105528571Y-43508571D01*
X105576190Y-43603809D01*
X105576190Y-43984761D01*
X105528571Y-42984761D02*
X105528571Y-42651428D01*
X106052380Y-42508571D02*
X106052380Y-42984761D01*
X105052380Y-42984761D01*
X105052380Y-42508571D01*
X105528571Y-41746666D02*
X105528571Y-42080000D01*
X106052380Y-42080000D02*
X105052380Y-42080000D01*
X105052380Y-41603809D01*
X105052380Y-41080000D02*
X105290476Y-41080000D01*
X105195238Y-41318095D02*
X105290476Y-41080000D01*
X105195238Y-40841904D01*
X105480952Y-41222857D02*
X105290476Y-41080000D01*
X105480952Y-40937142D01*
X105052380Y-40318095D02*
X105290476Y-40318095D01*
X105195238Y-40556190D02*
X105290476Y-40318095D01*
X105195238Y-40080000D01*
X105480952Y-40460952D02*
X105290476Y-40318095D01*
X105480952Y-40175238D01*
X73052380Y-107413333D02*
X72576190Y-107746666D01*
X73052380Y-107984761D02*
X72052380Y-107984761D01*
X72052380Y-107603809D01*
X72100000Y-107508571D01*
X72147619Y-107460952D01*
X72242857Y-107413333D01*
X72385714Y-107413333D01*
X72480952Y-107460952D01*
X72528571Y-107508571D01*
X72576190Y-107603809D01*
X72576190Y-107984761D01*
X72528571Y-106984761D02*
X72528571Y-106651428D01*
X73052380Y-106508571D02*
X73052380Y-106984761D01*
X72052380Y-106984761D01*
X72052380Y-106508571D01*
X72528571Y-105746666D02*
X72528571Y-106080000D01*
X73052380Y-106080000D02*
X72052380Y-106080000D01*
X72052380Y-105603809D01*
X72052380Y-105080000D02*
X72290476Y-105080000D01*
X72195238Y-105318095D02*
X72290476Y-105080000D01*
X72195238Y-104841904D01*
X72480952Y-105222857D02*
X72290476Y-105080000D01*
X72480952Y-104937142D01*
X72052380Y-104318095D02*
X72290476Y-104318095D01*
X72195238Y-104556190D02*
X72290476Y-104318095D01*
X72195238Y-104080000D01*
X72480952Y-104460952D02*
X72290476Y-104318095D01*
X72480952Y-104175238D01*
X73052380Y-92413333D02*
X72576190Y-92746666D01*
X73052380Y-92984761D02*
X72052380Y-92984761D01*
X72052380Y-92603809D01*
X72100000Y-92508571D01*
X72147619Y-92460952D01*
X72242857Y-92413333D01*
X72385714Y-92413333D01*
X72480952Y-92460952D01*
X72528571Y-92508571D01*
X72576190Y-92603809D01*
X72576190Y-92984761D01*
X72528571Y-91984761D02*
X72528571Y-91651428D01*
X73052380Y-91508571D02*
X73052380Y-91984761D01*
X72052380Y-91984761D01*
X72052380Y-91508571D01*
X72528571Y-90746666D02*
X72528571Y-91080000D01*
X73052380Y-91080000D02*
X72052380Y-91080000D01*
X72052380Y-90603809D01*
X72052380Y-90080000D02*
X72290476Y-90080000D01*
X72195238Y-90318095D02*
X72290476Y-90080000D01*
X72195238Y-89841904D01*
X72480952Y-90222857D02*
X72290476Y-90080000D01*
X72480952Y-89937142D01*
X72052380Y-89318095D02*
X72290476Y-89318095D01*
X72195238Y-89556190D02*
X72290476Y-89318095D01*
X72195238Y-89080000D01*
X72480952Y-89460952D02*
X72290476Y-89318095D01*
X72480952Y-89175238D01*
X73052380Y-76413333D02*
X72576190Y-76746666D01*
X73052380Y-76984761D02*
X72052380Y-76984761D01*
X72052380Y-76603809D01*
X72100000Y-76508571D01*
X72147619Y-76460952D01*
X72242857Y-76413333D01*
X72385714Y-76413333D01*
X72480952Y-76460952D01*
X72528571Y-76508571D01*
X72576190Y-76603809D01*
X72576190Y-76984761D01*
X72528571Y-75984761D02*
X72528571Y-75651428D01*
X73052380Y-75508571D02*
X73052380Y-75984761D01*
X72052380Y-75984761D01*
X72052380Y-75508571D01*
X72528571Y-74746666D02*
X72528571Y-75080000D01*
X73052380Y-75080000D02*
X72052380Y-75080000D01*
X72052380Y-74603809D01*
X72052380Y-74080000D02*
X72290476Y-74080000D01*
X72195238Y-74318095D02*
X72290476Y-74080000D01*
X72195238Y-73841904D01*
X72480952Y-74222857D02*
X72290476Y-74080000D01*
X72480952Y-73937142D01*
X72052380Y-73318095D02*
X72290476Y-73318095D01*
X72195238Y-73556190D02*
X72290476Y-73318095D01*
X72195238Y-73080000D01*
X72480952Y-73460952D02*
X72290476Y-73318095D01*
X72480952Y-73175238D01*
X122142380Y-97833333D02*
X121666190Y-98166666D01*
X122142380Y-98404761D02*
X121142380Y-98404761D01*
X121142380Y-98023809D01*
X121190000Y-97928571D01*
X121237619Y-97880952D01*
X121332857Y-97833333D01*
X121475714Y-97833333D01*
X121570952Y-97880952D01*
X121618571Y-97928571D01*
X121666190Y-98023809D01*
X121666190Y-98404761D01*
X121618571Y-97404761D02*
X121618571Y-97071428D01*
X122142380Y-96928571D02*
X122142380Y-97404761D01*
X121142380Y-97404761D01*
X121142380Y-96928571D01*
X121618571Y-96166666D02*
X121618571Y-96500000D01*
X122142380Y-96500000D02*
X121142380Y-96500000D01*
X121142380Y-96023809D01*
X121142380Y-95500000D02*
X121380476Y-95500000D01*
X121285238Y-95738095D02*
X121380476Y-95500000D01*
X121285238Y-95261904D01*
X121570952Y-95642857D02*
X121380476Y-95500000D01*
X121570952Y-95357142D01*
X121142380Y-94738095D02*
X121380476Y-94738095D01*
X121285238Y-94976190D02*
X121380476Y-94738095D01*
X121285238Y-94500000D01*
X121570952Y-94880952D02*
X121380476Y-94738095D01*
X121570952Y-94595238D01*
X89142380Y-96833333D02*
X88666190Y-97166666D01*
X89142380Y-97404761D02*
X88142380Y-97404761D01*
X88142380Y-97023809D01*
X88190000Y-96928571D01*
X88237619Y-96880952D01*
X88332857Y-96833333D01*
X88475714Y-96833333D01*
X88570952Y-96880952D01*
X88618571Y-96928571D01*
X88666190Y-97023809D01*
X88666190Y-97404761D01*
X88618571Y-96404761D02*
X88618571Y-96071428D01*
X89142380Y-95928571D02*
X89142380Y-96404761D01*
X88142380Y-96404761D01*
X88142380Y-95928571D01*
X88618571Y-95166666D02*
X88618571Y-95500000D01*
X89142380Y-95500000D02*
X88142380Y-95500000D01*
X88142380Y-95023809D01*
X88142380Y-94500000D02*
X88380476Y-94500000D01*
X88285238Y-94738095D02*
X88380476Y-94500000D01*
X88285238Y-94261904D01*
X88570952Y-94642857D02*
X88380476Y-94500000D01*
X88570952Y-94357142D01*
X88142380Y-93738095D02*
X88380476Y-93738095D01*
X88285238Y-93976190D02*
X88380476Y-93738095D01*
X88285238Y-93500000D01*
X88570952Y-93880952D02*
X88380476Y-93738095D01*
X88570952Y-93595238D01*
X56142380Y-96833333D02*
X55666190Y-97166666D01*
X56142380Y-97404761D02*
X55142380Y-97404761D01*
X55142380Y-97023809D01*
X55190000Y-96928571D01*
X55237619Y-96880952D01*
X55332857Y-96833333D01*
X55475714Y-96833333D01*
X55570952Y-96880952D01*
X55618571Y-96928571D01*
X55666190Y-97023809D01*
X55666190Y-97404761D01*
X55618571Y-96404761D02*
X55618571Y-96071428D01*
X56142380Y-95928571D02*
X56142380Y-96404761D01*
X55142380Y-96404761D01*
X55142380Y-95928571D01*
X55618571Y-95166666D02*
X55618571Y-95500000D01*
X56142380Y-95500000D02*
X55142380Y-95500000D01*
X55142380Y-95023809D01*
X55142380Y-94500000D02*
X55380476Y-94500000D01*
X55285238Y-94738095D02*
X55380476Y-94500000D01*
X55285238Y-94261904D01*
X55570952Y-94642857D02*
X55380476Y-94500000D01*
X55570952Y-94357142D01*
X55142380Y-93738095D02*
X55380476Y-93738095D01*
X55285238Y-93976190D02*
X55380476Y-93738095D01*
X55285238Y-93500000D01*
X55570952Y-93880952D02*
X55380476Y-93738095D01*
X55570952Y-93595238D01*
X56142380Y-76833333D02*
X55666190Y-77166666D01*
X56142380Y-77404761D02*
X55142380Y-77404761D01*
X55142380Y-77023809D01*
X55190000Y-76928571D01*
X55237619Y-76880952D01*
X55332857Y-76833333D01*
X55475714Y-76833333D01*
X55570952Y-76880952D01*
X55618571Y-76928571D01*
X55666190Y-77023809D01*
X55666190Y-77404761D01*
X55618571Y-76404761D02*
X55618571Y-76071428D01*
X56142380Y-75928571D02*
X56142380Y-76404761D01*
X55142380Y-76404761D01*
X55142380Y-75928571D01*
X55618571Y-75166666D02*
X55618571Y-75500000D01*
X56142380Y-75500000D02*
X55142380Y-75500000D01*
X55142380Y-75023809D01*
X55142380Y-74500000D02*
X55380476Y-74500000D01*
X55285238Y-74738095D02*
X55380476Y-74500000D01*
X55285238Y-74261904D01*
X55570952Y-74642857D02*
X55380476Y-74500000D01*
X55570952Y-74357142D01*
X55142380Y-73738095D02*
X55380476Y-73738095D01*
X55285238Y-73976190D02*
X55380476Y-73738095D01*
X55285238Y-73500000D01*
X55570952Y-73880952D02*
X55380476Y-73738095D01*
X55570952Y-73595238D01*
X89142380Y-76833333D02*
X88666190Y-77166666D01*
X89142380Y-77404761D02*
X88142380Y-77404761D01*
X88142380Y-77023809D01*
X88190000Y-76928571D01*
X88237619Y-76880952D01*
X88332857Y-76833333D01*
X88475714Y-76833333D01*
X88570952Y-76880952D01*
X88618571Y-76928571D01*
X88666190Y-77023809D01*
X88666190Y-77404761D01*
X88618571Y-76404761D02*
X88618571Y-76071428D01*
X89142380Y-75928571D02*
X89142380Y-76404761D01*
X88142380Y-76404761D01*
X88142380Y-75928571D01*
X88618571Y-75166666D02*
X88618571Y-75500000D01*
X89142380Y-75500000D02*
X88142380Y-75500000D01*
X88142380Y-75023809D01*
X88142380Y-74500000D02*
X88380476Y-74500000D01*
X88285238Y-74738095D02*
X88380476Y-74500000D01*
X88285238Y-74261904D01*
X88570952Y-74642857D02*
X88380476Y-74500000D01*
X88570952Y-74357142D01*
X88142380Y-73738095D02*
X88380476Y-73738095D01*
X88285238Y-73976190D02*
X88380476Y-73738095D01*
X88285238Y-73500000D01*
X88570952Y-73880952D02*
X88380476Y-73738095D01*
X88570952Y-73595238D01*
X122142380Y-76833333D02*
X121666190Y-77166666D01*
X122142380Y-77404761D02*
X121142380Y-77404761D01*
X121142380Y-77023809D01*
X121190000Y-76928571D01*
X121237619Y-76880952D01*
X121332857Y-76833333D01*
X121475714Y-76833333D01*
X121570952Y-76880952D01*
X121618571Y-76928571D01*
X121666190Y-77023809D01*
X121666190Y-77404761D01*
X121618571Y-76404761D02*
X121618571Y-76071428D01*
X122142380Y-75928571D02*
X122142380Y-76404761D01*
X121142380Y-76404761D01*
X121142380Y-75928571D01*
X121618571Y-75166666D02*
X121618571Y-75500000D01*
X122142380Y-75500000D02*
X121142380Y-75500000D01*
X121142380Y-75023809D01*
X121142380Y-74500000D02*
X121380476Y-74500000D01*
X121285238Y-74738095D02*
X121380476Y-74500000D01*
X121285238Y-74261904D01*
X121570952Y-74642857D02*
X121380476Y-74500000D01*
X121570952Y-74357142D01*
X121142380Y-73738095D02*
X121380476Y-73738095D01*
X121285238Y-73976190D02*
X121380476Y-73738095D01*
X121285238Y-73500000D01*
X121570952Y-73880952D02*
X121380476Y-73738095D01*
X121570952Y-73595238D01*
X122142380Y-55833333D02*
X121666190Y-56166666D01*
X122142380Y-56404761D02*
X121142380Y-56404761D01*
X121142380Y-56023809D01*
X121190000Y-55928571D01*
X121237619Y-55880952D01*
X121332857Y-55833333D01*
X121475714Y-55833333D01*
X121570952Y-55880952D01*
X121618571Y-55928571D01*
X121666190Y-56023809D01*
X121666190Y-56404761D01*
X121618571Y-55404761D02*
X121618571Y-55071428D01*
X122142380Y-54928571D02*
X122142380Y-55404761D01*
X121142380Y-55404761D01*
X121142380Y-54928571D01*
X121618571Y-54166666D02*
X121618571Y-54500000D01*
X122142380Y-54500000D02*
X121142380Y-54500000D01*
X121142380Y-54023809D01*
X121142380Y-53500000D02*
X121380476Y-53500000D01*
X121285238Y-53738095D02*
X121380476Y-53500000D01*
X121285238Y-53261904D01*
X121570952Y-53642857D02*
X121380476Y-53500000D01*
X121570952Y-53357142D01*
X121142380Y-52738095D02*
X121380476Y-52738095D01*
X121285238Y-52976190D02*
X121380476Y-52738095D01*
X121285238Y-52500000D01*
X121570952Y-52880952D02*
X121380476Y-52738095D01*
X121570952Y-52595238D01*
X89142380Y-55833333D02*
X88666190Y-56166666D01*
X89142380Y-56404761D02*
X88142380Y-56404761D01*
X88142380Y-56023809D01*
X88190000Y-55928571D01*
X88237619Y-55880952D01*
X88332857Y-55833333D01*
X88475714Y-55833333D01*
X88570952Y-55880952D01*
X88618571Y-55928571D01*
X88666190Y-56023809D01*
X88666190Y-56404761D01*
X88618571Y-55404761D02*
X88618571Y-55071428D01*
X89142380Y-54928571D02*
X89142380Y-55404761D01*
X88142380Y-55404761D01*
X88142380Y-54928571D01*
X88618571Y-54166666D02*
X88618571Y-54500000D01*
X89142380Y-54500000D02*
X88142380Y-54500000D01*
X88142380Y-54023809D01*
X88142380Y-53500000D02*
X88380476Y-53500000D01*
X88285238Y-53738095D02*
X88380476Y-53500000D01*
X88285238Y-53261904D01*
X88570952Y-53642857D02*
X88380476Y-53500000D01*
X88570952Y-53357142D01*
X88142380Y-52738095D02*
X88380476Y-52738095D01*
X88285238Y-52976190D02*
X88380476Y-52738095D01*
X88285238Y-52500000D01*
X88570952Y-52880952D02*
X88380476Y-52738095D01*
X88570952Y-52595238D01*
X56142380Y-55833333D02*
X55666190Y-56166666D01*
X56142380Y-56404761D02*
X55142380Y-56404761D01*
X55142380Y-56023809D01*
X55190000Y-55928571D01*
X55237619Y-55880952D01*
X55332857Y-55833333D01*
X55475714Y-55833333D01*
X55570952Y-55880952D01*
X55618571Y-55928571D01*
X55666190Y-56023809D01*
X55666190Y-56404761D01*
X55618571Y-55404761D02*
X55618571Y-55071428D01*
X56142380Y-54928571D02*
X56142380Y-55404761D01*
X55142380Y-55404761D01*
X55142380Y-54928571D01*
X55618571Y-54166666D02*
X55618571Y-54500000D01*
X56142380Y-54500000D02*
X55142380Y-54500000D01*
X55142380Y-54023809D01*
X55142380Y-53500000D02*
X55380476Y-53500000D01*
X55285238Y-53738095D02*
X55380476Y-53500000D01*
X55285238Y-53261904D01*
X55570952Y-53642857D02*
X55380476Y-53500000D01*
X55570952Y-53357142D01*
X55142380Y-52738095D02*
X55380476Y-52738095D01*
X55285238Y-52976190D02*
X55380476Y-52738095D01*
X55285238Y-52500000D01*
X55570952Y-52880952D02*
X55380476Y-52738095D01*
X55570952Y-52595238D01*
X106052380Y-91413333D02*
X105576190Y-91746666D01*
X106052380Y-91984761D02*
X105052380Y-91984761D01*
X105052380Y-91603809D01*
X105100000Y-91508571D01*
X105147619Y-91460952D01*
X105242857Y-91413333D01*
X105385714Y-91413333D01*
X105480952Y-91460952D01*
X105528571Y-91508571D01*
X105576190Y-91603809D01*
X105576190Y-91984761D01*
X105528571Y-90984761D02*
X105528571Y-90651428D01*
X106052380Y-90508571D02*
X106052380Y-90984761D01*
X105052380Y-90984761D01*
X105052380Y-90508571D01*
X105528571Y-89746666D02*
X105528571Y-90080000D01*
X106052380Y-90080000D02*
X105052380Y-90080000D01*
X105052380Y-89603809D01*
X105052380Y-89080000D02*
X105290476Y-89080000D01*
X105195238Y-89318095D02*
X105290476Y-89080000D01*
X105195238Y-88841904D01*
X105480952Y-89222857D02*
X105290476Y-89080000D01*
X105480952Y-88937142D01*
X105052380Y-88318095D02*
X105290476Y-88318095D01*
X105195238Y-88556190D02*
X105290476Y-88318095D01*
X105195238Y-88080000D01*
X105480952Y-88460952D02*
X105290476Y-88318095D01*
X105480952Y-88175238D01*
X106052380Y-75413333D02*
X105576190Y-75746666D01*
X106052380Y-75984761D02*
X105052380Y-75984761D01*
X105052380Y-75603809D01*
X105100000Y-75508571D01*
X105147619Y-75460952D01*
X105242857Y-75413333D01*
X105385714Y-75413333D01*
X105480952Y-75460952D01*
X105528571Y-75508571D01*
X105576190Y-75603809D01*
X105576190Y-75984761D01*
X105528571Y-74984761D02*
X105528571Y-74651428D01*
X106052380Y-74508571D02*
X106052380Y-74984761D01*
X105052380Y-74984761D01*
X105052380Y-74508571D01*
X105528571Y-73746666D02*
X105528571Y-74080000D01*
X106052380Y-74080000D02*
X105052380Y-74080000D01*
X105052380Y-73603809D01*
X105052380Y-73080000D02*
X105290476Y-73080000D01*
X105195238Y-73318095D02*
X105290476Y-73080000D01*
X105195238Y-72841904D01*
X105480952Y-73222857D02*
X105290476Y-73080000D01*
X105480952Y-72937142D01*
X105052380Y-72318095D02*
X105290476Y-72318095D01*
X105195238Y-72556190D02*
X105290476Y-72318095D01*
X105195238Y-72080000D01*
X105480952Y-72460952D02*
X105290476Y-72318095D01*
X105480952Y-72175238D01*
X73052380Y-43713333D02*
X72576190Y-44046666D01*
X73052380Y-44284761D02*
X72052380Y-44284761D01*
X72052380Y-43903809D01*
X72100000Y-43808571D01*
X72147619Y-43760952D01*
X72242857Y-43713333D01*
X72385714Y-43713333D01*
X72480952Y-43760952D01*
X72528571Y-43808571D01*
X72576190Y-43903809D01*
X72576190Y-44284761D01*
X72528571Y-43284761D02*
X72528571Y-42951428D01*
X73052380Y-42808571D02*
X73052380Y-43284761D01*
X72052380Y-43284761D01*
X72052380Y-42808571D01*
X72528571Y-42046666D02*
X72528571Y-42380000D01*
X73052380Y-42380000D02*
X72052380Y-42380000D01*
X72052380Y-41903809D01*
X72052380Y-41380000D02*
X72290476Y-41380000D01*
X72195238Y-41618095D02*
X72290476Y-41380000D01*
X72195238Y-41141904D01*
X72480952Y-41522857D02*
X72290476Y-41380000D01*
X72480952Y-41237142D01*
X72052380Y-40618095D02*
X72290476Y-40618095D01*
X72195238Y-40856190D02*
X72290476Y-40618095D01*
X72195238Y-40380000D01*
X72480952Y-40760952D02*
X72290476Y-40618095D01*
X72480952Y-40475238D01*
X106052380Y-59713333D02*
X105576190Y-60046666D01*
X106052380Y-60284761D02*
X105052380Y-60284761D01*
X105052380Y-59903809D01*
X105100000Y-59808571D01*
X105147619Y-59760952D01*
X105242857Y-59713333D01*
X105385714Y-59713333D01*
X105480952Y-59760952D01*
X105528571Y-59808571D01*
X105576190Y-59903809D01*
X105576190Y-60284761D01*
X105528571Y-59284761D02*
X105528571Y-58951428D01*
X106052380Y-58808571D02*
X106052380Y-59284761D01*
X105052380Y-59284761D01*
X105052380Y-58808571D01*
X105528571Y-58046666D02*
X105528571Y-58380000D01*
X106052380Y-58380000D02*
X105052380Y-58380000D01*
X105052380Y-57903809D01*
X105052380Y-57380000D02*
X105290476Y-57380000D01*
X105195238Y-57618095D02*
X105290476Y-57380000D01*
X105195238Y-57141904D01*
X105480952Y-57522857D02*
X105290476Y-57380000D01*
X105480952Y-57237142D01*
X105052380Y-56618095D02*
X105290476Y-56618095D01*
X105195238Y-56856190D02*
X105290476Y-56618095D01*
X105195238Y-56380000D01*
X105480952Y-56760952D02*
X105290476Y-56618095D01*
X105480952Y-56475238D01*
X73052380Y-60413333D02*
X72576190Y-60746666D01*
X73052380Y-60984761D02*
X72052380Y-60984761D01*
X72052380Y-60603809D01*
X72100000Y-60508571D01*
X72147619Y-60460952D01*
X72242857Y-60413333D01*
X72385714Y-60413333D01*
X72480952Y-60460952D01*
X72528571Y-60508571D01*
X72576190Y-60603809D01*
X72576190Y-60984761D01*
X72528571Y-59984761D02*
X72528571Y-59651428D01*
X73052380Y-59508571D02*
X73052380Y-59984761D01*
X72052380Y-59984761D01*
X72052380Y-59508571D01*
X72528571Y-58746666D02*
X72528571Y-59080000D01*
X73052380Y-59080000D02*
X72052380Y-59080000D01*
X72052380Y-58603809D01*
X72052380Y-58080000D02*
X72290476Y-58080000D01*
X72195238Y-58318095D02*
X72290476Y-58080000D01*
X72195238Y-57841904D01*
X72480952Y-58222857D02*
X72290476Y-58080000D01*
X72480952Y-57937142D01*
X72052380Y-57318095D02*
X72290476Y-57318095D01*
X72195238Y-57556190D02*
X72290476Y-57318095D01*
X72195238Y-57080000D01*
X72480952Y-57460952D02*
X72290476Y-57318095D01*
X72480952Y-57175238D01*
X82547619Y-75452380D02*
X82214285Y-74976190D01*
X81976190Y-75452380D02*
X81976190Y-74452380D01*
X82357142Y-74452380D01*
X82452380Y-74500000D01*
X82500000Y-74547619D01*
X82547619Y-74642857D01*
X82547619Y-74785714D01*
X82500000Y-74880952D01*
X82452380Y-74928571D01*
X82357142Y-74976190D01*
X81976190Y-74976190D01*
X83119047Y-74452380D02*
X83119047Y-74690476D01*
X82880952Y-74595238D02*
X83119047Y-74690476D01*
X83357142Y-74595238D01*
X82976190Y-74880952D02*
X83119047Y-74690476D01*
X83261904Y-74880952D01*
X83880952Y-74452380D02*
X83880952Y-74690476D01*
X83642857Y-74595238D02*
X83880952Y-74690476D01*
X84119047Y-74595238D01*
X83738095Y-74880952D02*
X83880952Y-74690476D01*
X84023809Y-74880952D01*
X133547619Y-35452380D02*
X133214285Y-34976190D01*
X132976190Y-35452380D02*
X132976190Y-34452380D01*
X133357142Y-34452380D01*
X133452380Y-34500000D01*
X133500000Y-34547619D01*
X133547619Y-34642857D01*
X133547619Y-34785714D01*
X133500000Y-34880952D01*
X133452380Y-34928571D01*
X133357142Y-34976190D01*
X132976190Y-34976190D01*
X134119047Y-34452380D02*
X134119047Y-34690476D01*
X133880952Y-34595238D02*
X134119047Y-34690476D01*
X134357142Y-34595238D01*
X133976190Y-34880952D02*
X134119047Y-34690476D01*
X134261904Y-34880952D01*
X134880952Y-34452380D02*
X134880952Y-34690476D01*
X134642857Y-34595238D02*
X134880952Y-34690476D01*
X135119047Y-34595238D01*
X134738095Y-34880952D02*
X134880952Y-34690476D01*
X135023809Y-34880952D01*
X133547619Y-75452380D02*
X133214285Y-74976190D01*
X132976190Y-75452380D02*
X132976190Y-74452380D01*
X133357142Y-74452380D01*
X133452380Y-74500000D01*
X133500000Y-74547619D01*
X133547619Y-74642857D01*
X133547619Y-74785714D01*
X133500000Y-74880952D01*
X133452380Y-74928571D01*
X133357142Y-74976190D01*
X132976190Y-74976190D01*
X134119047Y-74452380D02*
X134119047Y-74690476D01*
X133880952Y-74595238D02*
X134119047Y-74690476D01*
X134357142Y-74595238D01*
X133976190Y-74880952D02*
X134119047Y-74690476D01*
X134261904Y-74880952D01*
X134880952Y-74452380D02*
X134880952Y-74690476D01*
X134642857Y-74595238D02*
X134880952Y-74690476D01*
X135119047Y-74595238D01*
X134738095Y-74880952D02*
X134880952Y-74690476D01*
X135023809Y-74880952D01*
X115547619Y-35452380D02*
X115214285Y-34976190D01*
X114976190Y-35452380D02*
X114976190Y-34452380D01*
X115357142Y-34452380D01*
X115452380Y-34500000D01*
X115500000Y-34547619D01*
X115547619Y-34642857D01*
X115547619Y-34785714D01*
X115500000Y-34880952D01*
X115452380Y-34928571D01*
X115357142Y-34976190D01*
X114976190Y-34976190D01*
X116119047Y-34452380D02*
X116119047Y-34690476D01*
X115880952Y-34595238D02*
X116119047Y-34690476D01*
X116357142Y-34595238D01*
X115976190Y-34880952D02*
X116119047Y-34690476D01*
X116261904Y-34880952D01*
X116880952Y-34452380D02*
X116880952Y-34690476D01*
X116642857Y-34595238D02*
X116880952Y-34690476D01*
X117119047Y-34595238D01*
X116738095Y-34880952D02*
X116880952Y-34690476D01*
X117023809Y-34880952D01*
X115547619Y-75452380D02*
X115214285Y-74976190D01*
X114976190Y-75452380D02*
X114976190Y-74452380D01*
X115357142Y-74452380D01*
X115452380Y-74500000D01*
X115500000Y-74547619D01*
X115547619Y-74642857D01*
X115547619Y-74785714D01*
X115500000Y-74880952D01*
X115452380Y-74928571D01*
X115357142Y-74976190D01*
X114976190Y-74976190D01*
X116119047Y-74452380D02*
X116119047Y-74690476D01*
X115880952Y-74595238D02*
X116119047Y-74690476D01*
X116357142Y-74595238D01*
X115976190Y-74880952D02*
X116119047Y-74690476D01*
X116261904Y-74880952D01*
X116880952Y-74452380D02*
X116880952Y-74690476D01*
X116642857Y-74595238D02*
X116880952Y-74690476D01*
X117119047Y-74595238D01*
X116738095Y-74880952D02*
X116880952Y-74690476D01*
X117023809Y-74880952D01*
X100547619Y-35452380D02*
X100214285Y-34976190D01*
X99976190Y-35452380D02*
X99976190Y-34452380D01*
X100357142Y-34452380D01*
X100452380Y-34500000D01*
X100500000Y-34547619D01*
X100547619Y-34642857D01*
X100547619Y-34785714D01*
X100500000Y-34880952D01*
X100452380Y-34928571D01*
X100357142Y-34976190D01*
X99976190Y-34976190D01*
X101119047Y-34452380D02*
X101119047Y-34690476D01*
X100880952Y-34595238D02*
X101119047Y-34690476D01*
X101357142Y-34595238D01*
X100976190Y-34880952D02*
X101119047Y-34690476D01*
X101261904Y-34880952D01*
X101880952Y-34452380D02*
X101880952Y-34690476D01*
X101642857Y-34595238D02*
X101880952Y-34690476D01*
X102119047Y-34595238D01*
X101738095Y-34880952D02*
X101880952Y-34690476D01*
X102023809Y-34880952D01*
X100547619Y-75452380D02*
X100214285Y-74976190D01*
X99976190Y-75452380D02*
X99976190Y-74452380D01*
X100357142Y-74452380D01*
X100452380Y-74500000D01*
X100500000Y-74547619D01*
X100547619Y-74642857D01*
X100547619Y-74785714D01*
X100500000Y-74880952D01*
X100452380Y-74928571D01*
X100357142Y-74976190D01*
X99976190Y-74976190D01*
X101119047Y-74452380D02*
X101119047Y-74690476D01*
X100880952Y-74595238D02*
X101119047Y-74690476D01*
X101357142Y-74595238D01*
X100976190Y-74880952D02*
X101119047Y-74690476D01*
X101261904Y-74880952D01*
X101880952Y-74452380D02*
X101880952Y-74690476D01*
X101642857Y-74595238D02*
X101880952Y-74690476D01*
X102119047Y-74595238D01*
X101738095Y-74880952D02*
X101880952Y-74690476D01*
X102023809Y-74880952D01*
X82547619Y-35452380D02*
X82214285Y-34976190D01*
X81976190Y-35452380D02*
X81976190Y-34452380D01*
X82357142Y-34452380D01*
X82452380Y-34500000D01*
X82500000Y-34547619D01*
X82547619Y-34642857D01*
X82547619Y-34785714D01*
X82500000Y-34880952D01*
X82452380Y-34928571D01*
X82357142Y-34976190D01*
X81976190Y-34976190D01*
X83119047Y-34452380D02*
X83119047Y-34690476D01*
X82880952Y-34595238D02*
X83119047Y-34690476D01*
X83357142Y-34595238D01*
X82976190Y-34880952D02*
X83119047Y-34690476D01*
X83261904Y-34880952D01*
X83880952Y-34452380D02*
X83880952Y-34690476D01*
X83642857Y-34595238D02*
X83880952Y-34690476D01*
X84119047Y-34595238D01*
X83738095Y-34880952D02*
X83880952Y-34690476D01*
X84023809Y-34880952D01*
X67547619Y-75452380D02*
X67214285Y-74976190D01*
X66976190Y-75452380D02*
X66976190Y-74452380D01*
X67357142Y-74452380D01*
X67452380Y-74500000D01*
X67500000Y-74547619D01*
X67547619Y-74642857D01*
X67547619Y-74785714D01*
X67500000Y-74880952D01*
X67452380Y-74928571D01*
X67357142Y-74976190D01*
X66976190Y-74976190D01*
X68119047Y-74452380D02*
X68119047Y-74690476D01*
X67880952Y-74595238D02*
X68119047Y-74690476D01*
X68357142Y-74595238D01*
X67976190Y-74880952D02*
X68119047Y-74690476D01*
X68261904Y-74880952D01*
X68880952Y-74452380D02*
X68880952Y-74690476D01*
X68642857Y-74595238D02*
X68880952Y-74690476D01*
X69119047Y-74595238D01*
X68738095Y-74880952D02*
X68880952Y-74690476D01*
X69023809Y-74880952D01*
X49547619Y-75452380D02*
X49214285Y-74976190D01*
X48976190Y-75452380D02*
X48976190Y-74452380D01*
X49357142Y-74452380D01*
X49452380Y-74500000D01*
X49500000Y-74547619D01*
X49547619Y-74642857D01*
X49547619Y-74785714D01*
X49500000Y-74880952D01*
X49452380Y-74928571D01*
X49357142Y-74976190D01*
X48976190Y-74976190D01*
X50119047Y-74452380D02*
X50119047Y-74690476D01*
X49880952Y-74595238D02*
X50119047Y-74690476D01*
X50357142Y-74595238D01*
X49976190Y-74880952D02*
X50119047Y-74690476D01*
X50261904Y-74880952D01*
X50880952Y-74452380D02*
X50880952Y-74690476D01*
X50642857Y-74595238D02*
X50880952Y-74690476D01*
X51119047Y-74595238D01*
X50738095Y-74880952D02*
X50880952Y-74690476D01*
X51023809Y-74880952D01*
X67547619Y-35452380D02*
X67214285Y-34976190D01*
X66976190Y-35452380D02*
X66976190Y-34452380D01*
X67357142Y-34452380D01*
X67452380Y-34500000D01*
X67500000Y-34547619D01*
X67547619Y-34642857D01*
X67547619Y-34785714D01*
X67500000Y-34880952D01*
X67452380Y-34928571D01*
X67357142Y-34976190D01*
X66976190Y-34976190D01*
X68119047Y-34452380D02*
X68119047Y-34690476D01*
X67880952Y-34595238D02*
X68119047Y-34690476D01*
X68357142Y-34595238D01*
X67976190Y-34880952D02*
X68119047Y-34690476D01*
X68261904Y-34880952D01*
X68880952Y-34452380D02*
X68880952Y-34690476D01*
X68642857Y-34595238D02*
X68880952Y-34690476D01*
X69119047Y-34595238D01*
X68738095Y-34880952D02*
X68880952Y-34690476D01*
X69023809Y-34880952D01*
X49547619Y-35452380D02*
X49214285Y-34976190D01*
X48976190Y-35452380D02*
X48976190Y-34452380D01*
X49357142Y-34452380D01*
X49452380Y-34500000D01*
X49500000Y-34547619D01*
X49547619Y-34642857D01*
X49547619Y-34785714D01*
X49500000Y-34880952D01*
X49452380Y-34928571D01*
X49357142Y-34976190D01*
X48976190Y-34976190D01*
X50119047Y-34452380D02*
X50119047Y-34690476D01*
X49880952Y-34595238D02*
X50119047Y-34690476D01*
X50357142Y-34595238D01*
X49976190Y-34880952D02*
X50119047Y-34690476D01*
X50261904Y-34880952D01*
X50880952Y-34452380D02*
X50880952Y-34690476D01*
X50642857Y-34595238D02*
X50880952Y-34690476D01*
X51119047Y-34595238D01*
X50738095Y-34880952D02*
X50880952Y-34690476D01*
X51023809Y-34880952D01*
M02*
