%TF.GenerationSoftware,KiCad,Pcbnew,(5.1.4)-1*%
%TF.CreationDate,2021-02-25T21:00:52+08:00*%
%TF.ProjectId,Coax_fix,436f6178-5f66-4697-982e-6b696361645f,rev?*%
%TF.SameCoordinates,Original*%
%TF.FileFunction,Soldermask,Bot*%
%TF.FilePolarity,Negative*%
%FSLAX46Y46*%
G04 Gerber Fmt 4.6, Leading zero omitted, Abs format (unit mm)*
G04 Created by KiCad (PCBNEW (5.1.4)-1) date 2021-02-25 21:00:52*
%MOMM*%
%LPD*%
G04 APERTURE LIST*
%ADD10C,0.350000*%
G04 APERTURE END LIST*
D10*
G36*
X108851000Y-114551000D02*
G01*
X107149000Y-114551000D01*
X107149000Y-112849000D01*
X108851000Y-112849000D01*
X108851000Y-114551000D01*
X108851000Y-114551000D01*
G37*
G36*
X75851000Y-114551000D02*
G01*
X74149000Y-114551000D01*
X74149000Y-112849000D01*
X75851000Y-112849000D01*
X75851000Y-114551000D01*
X75851000Y-114551000D01*
G37*
G36*
X75166823Y-110321313D02*
G01*
X75327242Y-110369976D01*
X75459906Y-110440886D01*
X75475078Y-110448996D01*
X75604659Y-110555341D01*
X75711004Y-110684922D01*
X75711005Y-110684924D01*
X75790024Y-110832758D01*
X75838687Y-110993177D01*
X75855117Y-111160000D01*
X75838687Y-111326823D01*
X75790024Y-111487242D01*
X75719114Y-111619906D01*
X75711004Y-111635078D01*
X75604659Y-111764659D01*
X75475078Y-111871004D01*
X75475076Y-111871005D01*
X75327242Y-111950024D01*
X75166823Y-111998687D01*
X75041804Y-112011000D01*
X74958196Y-112011000D01*
X74833177Y-111998687D01*
X74672758Y-111950024D01*
X74524924Y-111871005D01*
X74524922Y-111871004D01*
X74395341Y-111764659D01*
X74288996Y-111635078D01*
X74280886Y-111619906D01*
X74209976Y-111487242D01*
X74161313Y-111326823D01*
X74144883Y-111160000D01*
X74161313Y-110993177D01*
X74209976Y-110832758D01*
X74288995Y-110684924D01*
X74288996Y-110684922D01*
X74395341Y-110555341D01*
X74524922Y-110448996D01*
X74540094Y-110440886D01*
X74672758Y-110369976D01*
X74833177Y-110321313D01*
X74958196Y-110309000D01*
X75041804Y-110309000D01*
X75166823Y-110321313D01*
X75166823Y-110321313D01*
G37*
G36*
X108166823Y-110321313D02*
G01*
X108327242Y-110369976D01*
X108459906Y-110440886D01*
X108475078Y-110448996D01*
X108604659Y-110555341D01*
X108711004Y-110684922D01*
X108711005Y-110684924D01*
X108790024Y-110832758D01*
X108838687Y-110993177D01*
X108855117Y-111160000D01*
X108838687Y-111326823D01*
X108790024Y-111487242D01*
X108719114Y-111619906D01*
X108711004Y-111635078D01*
X108604659Y-111764659D01*
X108475078Y-111871004D01*
X108475076Y-111871005D01*
X108327242Y-111950024D01*
X108166823Y-111998687D01*
X108041804Y-112011000D01*
X107958196Y-112011000D01*
X107833177Y-111998687D01*
X107672758Y-111950024D01*
X107524924Y-111871005D01*
X107524922Y-111871004D01*
X107395341Y-111764659D01*
X107288996Y-111635078D01*
X107280886Y-111619906D01*
X107209976Y-111487242D01*
X107161313Y-111326823D01*
X107144883Y-111160000D01*
X107161313Y-110993177D01*
X107209976Y-110832758D01*
X107288995Y-110684924D01*
X107288996Y-110684922D01*
X107395341Y-110555341D01*
X107524922Y-110448996D01*
X107540094Y-110440886D01*
X107672758Y-110369976D01*
X107833177Y-110321313D01*
X107958196Y-110309000D01*
X108041804Y-110309000D01*
X108166823Y-110321313D01*
X108166823Y-110321313D01*
G37*
G36*
X108166823Y-107781313D02*
G01*
X108327242Y-107829976D01*
X108459906Y-107900886D01*
X108475078Y-107908996D01*
X108604659Y-108015341D01*
X108711004Y-108144922D01*
X108711005Y-108144924D01*
X108790024Y-108292758D01*
X108838687Y-108453177D01*
X108855117Y-108620000D01*
X108838687Y-108786823D01*
X108790024Y-108947242D01*
X108719114Y-109079906D01*
X108711004Y-109095078D01*
X108604659Y-109224659D01*
X108475078Y-109331004D01*
X108475076Y-109331005D01*
X108327242Y-109410024D01*
X108166823Y-109458687D01*
X108041804Y-109471000D01*
X107958196Y-109471000D01*
X107833177Y-109458687D01*
X107672758Y-109410024D01*
X107524924Y-109331005D01*
X107524922Y-109331004D01*
X107395341Y-109224659D01*
X107288996Y-109095078D01*
X107280886Y-109079906D01*
X107209976Y-108947242D01*
X107161313Y-108786823D01*
X107144883Y-108620000D01*
X107161313Y-108453177D01*
X107209976Y-108292758D01*
X107288995Y-108144924D01*
X107288996Y-108144922D01*
X107395341Y-108015341D01*
X107524922Y-107908996D01*
X107540094Y-107900886D01*
X107672758Y-107829976D01*
X107833177Y-107781313D01*
X107958196Y-107769000D01*
X108041804Y-107769000D01*
X108166823Y-107781313D01*
X108166823Y-107781313D01*
G37*
G36*
X75166823Y-107781313D02*
G01*
X75327242Y-107829976D01*
X75459906Y-107900886D01*
X75475078Y-107908996D01*
X75604659Y-108015341D01*
X75711004Y-108144922D01*
X75711005Y-108144924D01*
X75790024Y-108292758D01*
X75838687Y-108453177D01*
X75855117Y-108620000D01*
X75838687Y-108786823D01*
X75790024Y-108947242D01*
X75719114Y-109079906D01*
X75711004Y-109095078D01*
X75604659Y-109224659D01*
X75475078Y-109331004D01*
X75475076Y-109331005D01*
X75327242Y-109410024D01*
X75166823Y-109458687D01*
X75041804Y-109471000D01*
X74958196Y-109471000D01*
X74833177Y-109458687D01*
X74672758Y-109410024D01*
X74524924Y-109331005D01*
X74524922Y-109331004D01*
X74395341Y-109224659D01*
X74288996Y-109095078D01*
X74280886Y-109079906D01*
X74209976Y-108947242D01*
X74161313Y-108786823D01*
X74144883Y-108620000D01*
X74161313Y-108453177D01*
X74209976Y-108292758D01*
X74288995Y-108144924D01*
X74288996Y-108144922D01*
X74395341Y-108015341D01*
X74524922Y-107908996D01*
X74540094Y-107900886D01*
X74672758Y-107829976D01*
X74833177Y-107781313D01*
X74958196Y-107769000D01*
X75041804Y-107769000D01*
X75166823Y-107781313D01*
X75166823Y-107781313D01*
G37*
G36*
X75166823Y-105241313D02*
G01*
X75327242Y-105289976D01*
X75459906Y-105360886D01*
X75475078Y-105368996D01*
X75604659Y-105475341D01*
X75711004Y-105604922D01*
X75711005Y-105604924D01*
X75790024Y-105752758D01*
X75838687Y-105913177D01*
X75855117Y-106080000D01*
X75838687Y-106246823D01*
X75790024Y-106407242D01*
X75719114Y-106539906D01*
X75711004Y-106555078D01*
X75604659Y-106684659D01*
X75475078Y-106791004D01*
X75475076Y-106791005D01*
X75327242Y-106870024D01*
X75166823Y-106918687D01*
X75041804Y-106931000D01*
X74958196Y-106931000D01*
X74833177Y-106918687D01*
X74672758Y-106870024D01*
X74524924Y-106791005D01*
X74524922Y-106791004D01*
X74395341Y-106684659D01*
X74288996Y-106555078D01*
X74280886Y-106539906D01*
X74209976Y-106407242D01*
X74161313Y-106246823D01*
X74144883Y-106080000D01*
X74161313Y-105913177D01*
X74209976Y-105752758D01*
X74288995Y-105604924D01*
X74288996Y-105604922D01*
X74395341Y-105475341D01*
X74524922Y-105368996D01*
X74540094Y-105360886D01*
X74672758Y-105289976D01*
X74833177Y-105241313D01*
X74958196Y-105229000D01*
X75041804Y-105229000D01*
X75166823Y-105241313D01*
X75166823Y-105241313D01*
G37*
G36*
X108166823Y-105241313D02*
G01*
X108327242Y-105289976D01*
X108459906Y-105360886D01*
X108475078Y-105368996D01*
X108604659Y-105475341D01*
X108711004Y-105604922D01*
X108711005Y-105604924D01*
X108790024Y-105752758D01*
X108838687Y-105913177D01*
X108855117Y-106080000D01*
X108838687Y-106246823D01*
X108790024Y-106407242D01*
X108719114Y-106539906D01*
X108711004Y-106555078D01*
X108604659Y-106684659D01*
X108475078Y-106791004D01*
X108475076Y-106791005D01*
X108327242Y-106870024D01*
X108166823Y-106918687D01*
X108041804Y-106931000D01*
X107958196Y-106931000D01*
X107833177Y-106918687D01*
X107672758Y-106870024D01*
X107524924Y-106791005D01*
X107524922Y-106791004D01*
X107395341Y-106684659D01*
X107288996Y-106555078D01*
X107280886Y-106539906D01*
X107209976Y-106407242D01*
X107161313Y-106246823D01*
X107144883Y-106080000D01*
X107161313Y-105913177D01*
X107209976Y-105752758D01*
X107288995Y-105604924D01*
X107288996Y-105604922D01*
X107395341Y-105475341D01*
X107524922Y-105368996D01*
X107540094Y-105360886D01*
X107672758Y-105289976D01*
X107833177Y-105241313D01*
X107958196Y-105229000D01*
X108041804Y-105229000D01*
X108166823Y-105241313D01*
X108166823Y-105241313D01*
G37*
G36*
X126051000Y-105051000D02*
G01*
X123949000Y-105051000D01*
X123949000Y-102949000D01*
X126051000Y-102949000D01*
X126051000Y-105051000D01*
X126051000Y-105051000D01*
G37*
G36*
X108166823Y-102701313D02*
G01*
X108327242Y-102749976D01*
X108437047Y-102808668D01*
X108475078Y-102828996D01*
X108604659Y-102935341D01*
X108711004Y-103064922D01*
X108711005Y-103064924D01*
X108790024Y-103212758D01*
X108838687Y-103373177D01*
X108855117Y-103540000D01*
X108838687Y-103706823D01*
X108790024Y-103867242D01*
X108719114Y-103999906D01*
X108711004Y-104015078D01*
X108604659Y-104144659D01*
X108475078Y-104251004D01*
X108475076Y-104251005D01*
X108327242Y-104330024D01*
X108166823Y-104378687D01*
X108041804Y-104391000D01*
X107958196Y-104391000D01*
X107833177Y-104378687D01*
X107672758Y-104330024D01*
X107524924Y-104251005D01*
X107524922Y-104251004D01*
X107395341Y-104144659D01*
X107288996Y-104015078D01*
X107280886Y-103999906D01*
X107209976Y-103867242D01*
X107161313Y-103706823D01*
X107144883Y-103540000D01*
X107161313Y-103373177D01*
X107209976Y-103212758D01*
X107288995Y-103064924D01*
X107288996Y-103064922D01*
X107395341Y-102935341D01*
X107524922Y-102828996D01*
X107562953Y-102808668D01*
X107672758Y-102749976D01*
X107833177Y-102701313D01*
X107958196Y-102689000D01*
X108041804Y-102689000D01*
X108166823Y-102701313D01*
X108166823Y-102701313D01*
G37*
G36*
X75166823Y-102701313D02*
G01*
X75327242Y-102749976D01*
X75437047Y-102808668D01*
X75475078Y-102828996D01*
X75604659Y-102935341D01*
X75711004Y-103064922D01*
X75711005Y-103064924D01*
X75790024Y-103212758D01*
X75838687Y-103373177D01*
X75855117Y-103540000D01*
X75838687Y-103706823D01*
X75790024Y-103867242D01*
X75719114Y-103999906D01*
X75711004Y-104015078D01*
X75604659Y-104144659D01*
X75475078Y-104251004D01*
X75475076Y-104251005D01*
X75327242Y-104330024D01*
X75166823Y-104378687D01*
X75041804Y-104391000D01*
X74958196Y-104391000D01*
X74833177Y-104378687D01*
X74672758Y-104330024D01*
X74524924Y-104251005D01*
X74524922Y-104251004D01*
X74395341Y-104144659D01*
X74288996Y-104015078D01*
X74280886Y-103999906D01*
X74209976Y-103867242D01*
X74161313Y-103706823D01*
X74144883Y-103540000D01*
X74161313Y-103373177D01*
X74209976Y-103212758D01*
X74288995Y-103064924D01*
X74288996Y-103064922D01*
X74395341Y-102935341D01*
X74524922Y-102828996D01*
X74562953Y-102808668D01*
X74672758Y-102749976D01*
X74833177Y-102701313D01*
X74958196Y-102689000D01*
X75041804Y-102689000D01*
X75166823Y-102701313D01*
X75166823Y-102701313D01*
G37*
G36*
X60051000Y-104051000D02*
G01*
X57949000Y-104051000D01*
X57949000Y-101949000D01*
X60051000Y-101949000D01*
X60051000Y-104051000D01*
X60051000Y-104051000D01*
G37*
G36*
X93051000Y-104051000D02*
G01*
X90949000Y-104051000D01*
X90949000Y-101949000D01*
X93051000Y-101949000D01*
X93051000Y-104051000D01*
X93051000Y-104051000D01*
G37*
G36*
X68889943Y-97066248D02*
G01*
X69445189Y-97296238D01*
X69617497Y-97411371D01*
X69944899Y-97630134D01*
X70369866Y-98055101D01*
X70369867Y-98055103D01*
X70703762Y-98554811D01*
X70933752Y-99110057D01*
X71051000Y-99699501D01*
X71051000Y-100300499D01*
X70933752Y-100889943D01*
X70703762Y-101445189D01*
X70641872Y-101537814D01*
X70369866Y-101944899D01*
X69944899Y-102369866D01*
X69870736Y-102419420D01*
X69445189Y-102703762D01*
X68889943Y-102933752D01*
X68300499Y-103051000D01*
X67699501Y-103051000D01*
X67110057Y-102933752D01*
X66554811Y-102703762D01*
X66129264Y-102419420D01*
X66055101Y-102369866D01*
X65630134Y-101944899D01*
X65358128Y-101537814D01*
X65296238Y-101445189D01*
X65066248Y-100889943D01*
X64949000Y-100300499D01*
X64949000Y-99699501D01*
X65066248Y-99110057D01*
X65296238Y-98554811D01*
X65630133Y-98055103D01*
X65630134Y-98055101D01*
X66055101Y-97630134D01*
X66382503Y-97411371D01*
X66554811Y-97296238D01*
X67110057Y-97066248D01*
X67699501Y-96949000D01*
X68300499Y-96949000D01*
X68889943Y-97066248D01*
X68889943Y-97066248D01*
G37*
G36*
X50889943Y-97066248D02*
G01*
X51445189Y-97296238D01*
X51617497Y-97411371D01*
X51944899Y-97630134D01*
X52369866Y-98055101D01*
X52369867Y-98055103D01*
X52703762Y-98554811D01*
X52933752Y-99110057D01*
X53051000Y-99699501D01*
X53051000Y-100300499D01*
X52933752Y-100889943D01*
X52703762Y-101445189D01*
X52641872Y-101537814D01*
X52369866Y-101944899D01*
X51944899Y-102369866D01*
X51870736Y-102419420D01*
X51445189Y-102703762D01*
X50889943Y-102933752D01*
X50300499Y-103051000D01*
X49699501Y-103051000D01*
X49110057Y-102933752D01*
X48554811Y-102703762D01*
X48129264Y-102419420D01*
X48055101Y-102369866D01*
X47630134Y-101944899D01*
X47358128Y-101537814D01*
X47296238Y-101445189D01*
X47066248Y-100889943D01*
X46949000Y-100300499D01*
X46949000Y-99699501D01*
X47066248Y-99110057D01*
X47296238Y-98554811D01*
X47630133Y-98055103D01*
X47630134Y-98055101D01*
X48055101Y-97630134D01*
X48382503Y-97411371D01*
X48554811Y-97296238D01*
X49110057Y-97066248D01*
X49699501Y-96949000D01*
X50300499Y-96949000D01*
X50889943Y-97066248D01*
X50889943Y-97066248D01*
G37*
G36*
X116889943Y-97066248D02*
G01*
X117445189Y-97296238D01*
X117617497Y-97411371D01*
X117944899Y-97630134D01*
X118369866Y-98055101D01*
X118369867Y-98055103D01*
X118703762Y-98554811D01*
X118933752Y-99110057D01*
X119051000Y-99699501D01*
X119051000Y-100300499D01*
X118933752Y-100889943D01*
X118703762Y-101445189D01*
X118641872Y-101537814D01*
X118369866Y-101944899D01*
X117944899Y-102369866D01*
X117870736Y-102419420D01*
X117445189Y-102703762D01*
X116889943Y-102933752D01*
X116300499Y-103051000D01*
X115699501Y-103051000D01*
X115110057Y-102933752D01*
X114554811Y-102703762D01*
X114129264Y-102419420D01*
X114055101Y-102369866D01*
X113630134Y-101944899D01*
X113358128Y-101537814D01*
X113296238Y-101445189D01*
X113066248Y-100889943D01*
X112949000Y-100300499D01*
X112949000Y-99699501D01*
X113066248Y-99110057D01*
X113296238Y-98554811D01*
X113630133Y-98055103D01*
X113630134Y-98055101D01*
X114055101Y-97630134D01*
X114382503Y-97411371D01*
X114554811Y-97296238D01*
X115110057Y-97066248D01*
X115699501Y-96949000D01*
X116300499Y-96949000D01*
X116889943Y-97066248D01*
X116889943Y-97066248D01*
G37*
G36*
X134889943Y-97066248D02*
G01*
X135445189Y-97296238D01*
X135617497Y-97411371D01*
X135944899Y-97630134D01*
X136369866Y-98055101D01*
X136369867Y-98055103D01*
X136703762Y-98554811D01*
X136933752Y-99110057D01*
X137051000Y-99699501D01*
X137051000Y-100300499D01*
X136933752Y-100889943D01*
X136703762Y-101445189D01*
X136641872Y-101537814D01*
X136369866Y-101944899D01*
X135944899Y-102369866D01*
X135870736Y-102419420D01*
X135445189Y-102703762D01*
X134889943Y-102933752D01*
X134300499Y-103051000D01*
X133699501Y-103051000D01*
X133110057Y-102933752D01*
X132554811Y-102703762D01*
X132129264Y-102419420D01*
X132055101Y-102369866D01*
X131630134Y-101944899D01*
X131358128Y-101537814D01*
X131296238Y-101445189D01*
X131066248Y-100889943D01*
X130949000Y-100300499D01*
X130949000Y-99699501D01*
X131066248Y-99110057D01*
X131296238Y-98554811D01*
X131630133Y-98055103D01*
X131630134Y-98055101D01*
X132055101Y-97630134D01*
X132382503Y-97411371D01*
X132554811Y-97296238D01*
X133110057Y-97066248D01*
X133699501Y-96949000D01*
X134300499Y-96949000D01*
X134889943Y-97066248D01*
X134889943Y-97066248D01*
G37*
G36*
X83889943Y-97066248D02*
G01*
X84445189Y-97296238D01*
X84617497Y-97411371D01*
X84944899Y-97630134D01*
X85369866Y-98055101D01*
X85369867Y-98055103D01*
X85703762Y-98554811D01*
X85933752Y-99110057D01*
X86051000Y-99699501D01*
X86051000Y-100300499D01*
X85933752Y-100889943D01*
X85703762Y-101445189D01*
X85641872Y-101537814D01*
X85369866Y-101944899D01*
X84944899Y-102369866D01*
X84870736Y-102419420D01*
X84445189Y-102703762D01*
X83889943Y-102933752D01*
X83300499Y-103051000D01*
X82699501Y-103051000D01*
X82110057Y-102933752D01*
X81554811Y-102703762D01*
X81129264Y-102419420D01*
X81055101Y-102369866D01*
X80630134Y-101944899D01*
X80358128Y-101537814D01*
X80296238Y-101445189D01*
X80066248Y-100889943D01*
X79949000Y-100300499D01*
X79949000Y-99699501D01*
X80066248Y-99110057D01*
X80296238Y-98554811D01*
X80630133Y-98055103D01*
X80630134Y-98055101D01*
X81055101Y-97630134D01*
X81382503Y-97411371D01*
X81554811Y-97296238D01*
X82110057Y-97066248D01*
X82699501Y-96949000D01*
X83300499Y-96949000D01*
X83889943Y-97066248D01*
X83889943Y-97066248D01*
G37*
G36*
X101889943Y-97066248D02*
G01*
X102445189Y-97296238D01*
X102617497Y-97411371D01*
X102944899Y-97630134D01*
X103369866Y-98055101D01*
X103369867Y-98055103D01*
X103703762Y-98554811D01*
X103933752Y-99110057D01*
X104051000Y-99699501D01*
X104051000Y-100300499D01*
X103933752Y-100889943D01*
X103703762Y-101445189D01*
X103641872Y-101537814D01*
X103369866Y-101944899D01*
X102944899Y-102369866D01*
X102870736Y-102419420D01*
X102445189Y-102703762D01*
X101889943Y-102933752D01*
X101300499Y-103051000D01*
X100699501Y-103051000D01*
X100110057Y-102933752D01*
X99554811Y-102703762D01*
X99129264Y-102419420D01*
X99055101Y-102369866D01*
X98630134Y-101944899D01*
X98358128Y-101537814D01*
X98296238Y-101445189D01*
X98066248Y-100889943D01*
X97949000Y-100300499D01*
X97949000Y-99699501D01*
X98066248Y-99110057D01*
X98296238Y-98554811D01*
X98630133Y-98055103D01*
X98630134Y-98055101D01*
X99055101Y-97630134D01*
X99382503Y-97411371D01*
X99554811Y-97296238D01*
X100110057Y-97066248D01*
X100699501Y-96949000D01*
X101300499Y-96949000D01*
X101889943Y-97066248D01*
X101889943Y-97066248D01*
G37*
G36*
X108166823Y-100161313D02*
G01*
X108327242Y-100209976D01*
X108459906Y-100280886D01*
X108475078Y-100288996D01*
X108604659Y-100395341D01*
X108711004Y-100524922D01*
X108711005Y-100524924D01*
X108790024Y-100672758D01*
X108838687Y-100833177D01*
X108855117Y-101000000D01*
X108838687Y-101166823D01*
X108790024Y-101327242D01*
X108726980Y-101445189D01*
X108711004Y-101475078D01*
X108604659Y-101604659D01*
X108475078Y-101711004D01*
X108475076Y-101711005D01*
X108327242Y-101790024D01*
X108166823Y-101838687D01*
X108041804Y-101851000D01*
X107958196Y-101851000D01*
X107833177Y-101838687D01*
X107672758Y-101790024D01*
X107524924Y-101711005D01*
X107524922Y-101711004D01*
X107395341Y-101604659D01*
X107288996Y-101475078D01*
X107273020Y-101445189D01*
X107209976Y-101327242D01*
X107161313Y-101166823D01*
X107144883Y-101000000D01*
X107161313Y-100833177D01*
X107209976Y-100672758D01*
X107288995Y-100524924D01*
X107288996Y-100524922D01*
X107395341Y-100395341D01*
X107524922Y-100288996D01*
X107540094Y-100280886D01*
X107672758Y-100209976D01*
X107833177Y-100161313D01*
X107958196Y-100149000D01*
X108041804Y-100149000D01*
X108166823Y-100161313D01*
X108166823Y-100161313D01*
G37*
G36*
X75166823Y-100161313D02*
G01*
X75327242Y-100209976D01*
X75459906Y-100280886D01*
X75475078Y-100288996D01*
X75604659Y-100395341D01*
X75711004Y-100524922D01*
X75711005Y-100524924D01*
X75790024Y-100672758D01*
X75838687Y-100833177D01*
X75855117Y-101000000D01*
X75838687Y-101166823D01*
X75790024Y-101327242D01*
X75726980Y-101445189D01*
X75711004Y-101475078D01*
X75604659Y-101604659D01*
X75475078Y-101711004D01*
X75475076Y-101711005D01*
X75327242Y-101790024D01*
X75166823Y-101838687D01*
X75041804Y-101851000D01*
X74958196Y-101851000D01*
X74833177Y-101838687D01*
X74672758Y-101790024D01*
X74524924Y-101711005D01*
X74524922Y-101711004D01*
X74395341Y-101604659D01*
X74288996Y-101475078D01*
X74273020Y-101445189D01*
X74209976Y-101327242D01*
X74161313Y-101166823D01*
X74144883Y-101000000D01*
X74161313Y-100833177D01*
X74209976Y-100672758D01*
X74288995Y-100524924D01*
X74288996Y-100524922D01*
X74395341Y-100395341D01*
X74524922Y-100288996D01*
X74540094Y-100280886D01*
X74672758Y-100209976D01*
X74833177Y-100161313D01*
X74958196Y-100149000D01*
X75041804Y-100149000D01*
X75166823Y-100161313D01*
X75166823Y-100161313D01*
G37*
G36*
X75851000Y-99551000D02*
G01*
X74149000Y-99551000D01*
X74149000Y-97849000D01*
X75851000Y-97849000D01*
X75851000Y-99551000D01*
X75851000Y-99551000D01*
G37*
G36*
X108851000Y-98551000D02*
G01*
X107149000Y-98551000D01*
X107149000Y-96849000D01*
X108851000Y-96849000D01*
X108851000Y-98551000D01*
X108851000Y-98551000D01*
G37*
G36*
X75166823Y-95321313D02*
G01*
X75327242Y-95369976D01*
X75459906Y-95440886D01*
X75475078Y-95448996D01*
X75604659Y-95555341D01*
X75711004Y-95684922D01*
X75711005Y-95684924D01*
X75790024Y-95832758D01*
X75838687Y-95993177D01*
X75855117Y-96160000D01*
X75838687Y-96326823D01*
X75790024Y-96487242D01*
X75719114Y-96619906D01*
X75711004Y-96635078D01*
X75604659Y-96764659D01*
X75475078Y-96871004D01*
X75475076Y-96871005D01*
X75327242Y-96950024D01*
X75166823Y-96998687D01*
X75041804Y-97011000D01*
X74958196Y-97011000D01*
X74833177Y-96998687D01*
X74672758Y-96950024D01*
X74524924Y-96871005D01*
X74524922Y-96871004D01*
X74395341Y-96764659D01*
X74288996Y-96635078D01*
X74280886Y-96619906D01*
X74209976Y-96487242D01*
X74161313Y-96326823D01*
X74144883Y-96160000D01*
X74161313Y-95993177D01*
X74209976Y-95832758D01*
X74288995Y-95684924D01*
X74288996Y-95684922D01*
X74395341Y-95555341D01*
X74524922Y-95448996D01*
X74540094Y-95440886D01*
X74672758Y-95369976D01*
X74833177Y-95321313D01*
X74958196Y-95309000D01*
X75041804Y-95309000D01*
X75166823Y-95321313D01*
X75166823Y-95321313D01*
G37*
G36*
X108166823Y-94321313D02*
G01*
X108327242Y-94369976D01*
X108402166Y-94410024D01*
X108475078Y-94448996D01*
X108604659Y-94555341D01*
X108711004Y-94684922D01*
X108711005Y-94684924D01*
X108790024Y-94832758D01*
X108838687Y-94993177D01*
X108855117Y-95160000D01*
X108838687Y-95326823D01*
X108790024Y-95487242D01*
X108753624Y-95555341D01*
X108711004Y-95635078D01*
X108604659Y-95764659D01*
X108475078Y-95871004D01*
X108475076Y-95871005D01*
X108327242Y-95950024D01*
X108166823Y-95998687D01*
X108041804Y-96011000D01*
X107958196Y-96011000D01*
X107833177Y-95998687D01*
X107672758Y-95950024D01*
X107524924Y-95871005D01*
X107524922Y-95871004D01*
X107395341Y-95764659D01*
X107288996Y-95635078D01*
X107246376Y-95555341D01*
X107209976Y-95487242D01*
X107161313Y-95326823D01*
X107144883Y-95160000D01*
X107161313Y-94993177D01*
X107209976Y-94832758D01*
X107288995Y-94684924D01*
X107288996Y-94684922D01*
X107395341Y-94555341D01*
X107524922Y-94448996D01*
X107597834Y-94410024D01*
X107672758Y-94369976D01*
X107833177Y-94321313D01*
X107958196Y-94309000D01*
X108041804Y-94309000D01*
X108166823Y-94321313D01*
X108166823Y-94321313D01*
G37*
G36*
X75166823Y-92781313D02*
G01*
X75327242Y-92829976D01*
X75459906Y-92900886D01*
X75475078Y-92908996D01*
X75604659Y-93015341D01*
X75711004Y-93144922D01*
X75711005Y-93144924D01*
X75790024Y-93292758D01*
X75838687Y-93453177D01*
X75855117Y-93620000D01*
X75838687Y-93786823D01*
X75790024Y-93947242D01*
X75719114Y-94079906D01*
X75711004Y-94095078D01*
X75604659Y-94224659D01*
X75475078Y-94331004D01*
X75475076Y-94331005D01*
X75327242Y-94410024D01*
X75166823Y-94458687D01*
X75041804Y-94471000D01*
X74958196Y-94471000D01*
X74833177Y-94458687D01*
X74672758Y-94410024D01*
X74524924Y-94331005D01*
X74524922Y-94331004D01*
X74395341Y-94224659D01*
X74288996Y-94095078D01*
X74280886Y-94079906D01*
X74209976Y-93947242D01*
X74161313Y-93786823D01*
X74144883Y-93620000D01*
X74161313Y-93453177D01*
X74209976Y-93292758D01*
X74288995Y-93144924D01*
X74288996Y-93144922D01*
X74395341Y-93015341D01*
X74524922Y-92908996D01*
X74540094Y-92900886D01*
X74672758Y-92829976D01*
X74833177Y-92781313D01*
X74958196Y-92769000D01*
X75041804Y-92769000D01*
X75166823Y-92781313D01*
X75166823Y-92781313D01*
G37*
G36*
X108166823Y-91781313D02*
G01*
X108327242Y-91829976D01*
X108402166Y-91870024D01*
X108475078Y-91908996D01*
X108604659Y-92015341D01*
X108711004Y-92144922D01*
X108711005Y-92144924D01*
X108790024Y-92292758D01*
X108838687Y-92453177D01*
X108855117Y-92620000D01*
X108838687Y-92786823D01*
X108790024Y-92947242D01*
X108753624Y-93015341D01*
X108711004Y-93095078D01*
X108604659Y-93224659D01*
X108475078Y-93331004D01*
X108475076Y-93331005D01*
X108327242Y-93410024D01*
X108166823Y-93458687D01*
X108041804Y-93471000D01*
X107958196Y-93471000D01*
X107833177Y-93458687D01*
X107672758Y-93410024D01*
X107524924Y-93331005D01*
X107524922Y-93331004D01*
X107395341Y-93224659D01*
X107288996Y-93095078D01*
X107246376Y-93015341D01*
X107209976Y-92947242D01*
X107161313Y-92786823D01*
X107144883Y-92620000D01*
X107161313Y-92453177D01*
X107209976Y-92292758D01*
X107288995Y-92144924D01*
X107288996Y-92144922D01*
X107395341Y-92015341D01*
X107524922Y-91908996D01*
X107597834Y-91870024D01*
X107672758Y-91829976D01*
X107833177Y-91781313D01*
X107958196Y-91769000D01*
X108041804Y-91769000D01*
X108166823Y-91781313D01*
X108166823Y-91781313D01*
G37*
G36*
X75166823Y-90241313D02*
G01*
X75327242Y-90289976D01*
X75459906Y-90360886D01*
X75475078Y-90368996D01*
X75604659Y-90475341D01*
X75711004Y-90604922D01*
X75711005Y-90604924D01*
X75790024Y-90752758D01*
X75838687Y-90913177D01*
X75855117Y-91080000D01*
X75838687Y-91246823D01*
X75790024Y-91407242D01*
X75719114Y-91539906D01*
X75711004Y-91555078D01*
X75604659Y-91684659D01*
X75475078Y-91791004D01*
X75475076Y-91791005D01*
X75327242Y-91870024D01*
X75166823Y-91918687D01*
X75041804Y-91931000D01*
X74958196Y-91931000D01*
X74833177Y-91918687D01*
X74672758Y-91870024D01*
X74524924Y-91791005D01*
X74524922Y-91791004D01*
X74395341Y-91684659D01*
X74288996Y-91555078D01*
X74280886Y-91539906D01*
X74209976Y-91407242D01*
X74161313Y-91246823D01*
X74144883Y-91080000D01*
X74161313Y-90913177D01*
X74209976Y-90752758D01*
X74288995Y-90604924D01*
X74288996Y-90604922D01*
X74395341Y-90475341D01*
X74524922Y-90368996D01*
X74540094Y-90360886D01*
X74672758Y-90289976D01*
X74833177Y-90241313D01*
X74958196Y-90229000D01*
X75041804Y-90229000D01*
X75166823Y-90241313D01*
X75166823Y-90241313D01*
G37*
G36*
X108166823Y-89241313D02*
G01*
X108327242Y-89289976D01*
X108402166Y-89330024D01*
X108475078Y-89368996D01*
X108604659Y-89475341D01*
X108711004Y-89604922D01*
X108711005Y-89604924D01*
X108790024Y-89752758D01*
X108838687Y-89913177D01*
X108855117Y-90080000D01*
X108838687Y-90246823D01*
X108790024Y-90407242D01*
X108753624Y-90475341D01*
X108711004Y-90555078D01*
X108604659Y-90684659D01*
X108475078Y-90791004D01*
X108475076Y-90791005D01*
X108327242Y-90870024D01*
X108166823Y-90918687D01*
X108041804Y-90931000D01*
X107958196Y-90931000D01*
X107833177Y-90918687D01*
X107672758Y-90870024D01*
X107524924Y-90791005D01*
X107524922Y-90791004D01*
X107395341Y-90684659D01*
X107288996Y-90555078D01*
X107246376Y-90475341D01*
X107209976Y-90407242D01*
X107161313Y-90246823D01*
X107144883Y-90080000D01*
X107161313Y-89913177D01*
X107209976Y-89752758D01*
X107288995Y-89604924D01*
X107288996Y-89604922D01*
X107395341Y-89475341D01*
X107524922Y-89368996D01*
X107597834Y-89330024D01*
X107672758Y-89289976D01*
X107833177Y-89241313D01*
X107958196Y-89229000D01*
X108041804Y-89229000D01*
X108166823Y-89241313D01*
X108166823Y-89241313D01*
G37*
G36*
X125103097Y-87954069D02*
G01*
X125206032Y-87964207D01*
X125404146Y-88024305D01*
X125404149Y-88024306D01*
X125500975Y-88076061D01*
X125586729Y-88121897D01*
X125746765Y-88253235D01*
X125878103Y-88413271D01*
X125923939Y-88499025D01*
X125975694Y-88595851D01*
X125975695Y-88595854D01*
X126035793Y-88793968D01*
X126056085Y-89000000D01*
X126035793Y-89206032D01*
X125986358Y-89368995D01*
X125975694Y-89404149D01*
X125937641Y-89475341D01*
X125878103Y-89586729D01*
X125746765Y-89746765D01*
X125586729Y-89878103D01*
X125500975Y-89923939D01*
X125404149Y-89975694D01*
X125404146Y-89975695D01*
X125206032Y-90035793D01*
X125103097Y-90045931D01*
X125051631Y-90051000D01*
X124948369Y-90051000D01*
X124896903Y-90045931D01*
X124793968Y-90035793D01*
X124595854Y-89975695D01*
X124595851Y-89975694D01*
X124499025Y-89923939D01*
X124413271Y-89878103D01*
X124253235Y-89746765D01*
X124121897Y-89586729D01*
X124062359Y-89475341D01*
X124024306Y-89404149D01*
X124013642Y-89368995D01*
X123964207Y-89206032D01*
X123943915Y-89000000D01*
X123964207Y-88793968D01*
X124024305Y-88595854D01*
X124024306Y-88595851D01*
X124076061Y-88499025D01*
X124121897Y-88413271D01*
X124253235Y-88253235D01*
X124413271Y-88121897D01*
X124499025Y-88076061D01*
X124595851Y-88024306D01*
X124595854Y-88024305D01*
X124793968Y-87964207D01*
X124896903Y-87954069D01*
X124948369Y-87949000D01*
X125051631Y-87949000D01*
X125103097Y-87954069D01*
X125103097Y-87954069D01*
G37*
G36*
X75166823Y-87701313D02*
G01*
X75327242Y-87749976D01*
X75459906Y-87820886D01*
X75475078Y-87828996D01*
X75604659Y-87935341D01*
X75711004Y-88064922D01*
X75711005Y-88064924D01*
X75790024Y-88212758D01*
X75838687Y-88373177D01*
X75855117Y-88540000D01*
X75838687Y-88706823D01*
X75790024Y-88867242D01*
X75719114Y-88999906D01*
X75711004Y-89015078D01*
X75604659Y-89144659D01*
X75475078Y-89251004D01*
X75475076Y-89251005D01*
X75327242Y-89330024D01*
X75166823Y-89378687D01*
X75041804Y-89391000D01*
X74958196Y-89391000D01*
X74833177Y-89378687D01*
X74672758Y-89330024D01*
X74524924Y-89251005D01*
X74524922Y-89251004D01*
X74395341Y-89144659D01*
X74288996Y-89015078D01*
X74280886Y-88999906D01*
X74209976Y-88867242D01*
X74161313Y-88706823D01*
X74144883Y-88540000D01*
X74161313Y-88373177D01*
X74209976Y-88212758D01*
X74288995Y-88064924D01*
X74288996Y-88064922D01*
X74395341Y-87935341D01*
X74524922Y-87828996D01*
X74540094Y-87820886D01*
X74672758Y-87749976D01*
X74833177Y-87701313D01*
X74958196Y-87689000D01*
X75041804Y-87689000D01*
X75166823Y-87701313D01*
X75166823Y-87701313D01*
G37*
G36*
X59103097Y-86954069D02*
G01*
X59206032Y-86964207D01*
X59404146Y-87024305D01*
X59404149Y-87024306D01*
X59500975Y-87076061D01*
X59586729Y-87121897D01*
X59746765Y-87253235D01*
X59878103Y-87413271D01*
X59923939Y-87499025D01*
X59975694Y-87595851D01*
X59975695Y-87595854D01*
X60035793Y-87793968D01*
X60056085Y-88000000D01*
X60035793Y-88206032D01*
X59985090Y-88373175D01*
X59975694Y-88404149D01*
X59923939Y-88500975D01*
X59878103Y-88586729D01*
X59746765Y-88746765D01*
X59586729Y-88878103D01*
X59500975Y-88923939D01*
X59404149Y-88975694D01*
X59404146Y-88975695D01*
X59206032Y-89035793D01*
X59103097Y-89045931D01*
X59051631Y-89051000D01*
X58948369Y-89051000D01*
X58896903Y-89045931D01*
X58793968Y-89035793D01*
X58595854Y-88975695D01*
X58595851Y-88975694D01*
X58499025Y-88923939D01*
X58413271Y-88878103D01*
X58253235Y-88746765D01*
X58121897Y-88586729D01*
X58076061Y-88500975D01*
X58024306Y-88404149D01*
X58014910Y-88373175D01*
X57964207Y-88206032D01*
X57943915Y-88000000D01*
X57964207Y-87793968D01*
X58024305Y-87595854D01*
X58024306Y-87595851D01*
X58076061Y-87499025D01*
X58121897Y-87413271D01*
X58253235Y-87253235D01*
X58413271Y-87121897D01*
X58499025Y-87076061D01*
X58595851Y-87024306D01*
X58595854Y-87024305D01*
X58793968Y-86964207D01*
X58896903Y-86954069D01*
X58948369Y-86949000D01*
X59051631Y-86949000D01*
X59103097Y-86954069D01*
X59103097Y-86954069D01*
G37*
G36*
X92103097Y-86954069D02*
G01*
X92206032Y-86964207D01*
X92404146Y-87024305D01*
X92404149Y-87024306D01*
X92500975Y-87076061D01*
X92586729Y-87121897D01*
X92746765Y-87253235D01*
X92878103Y-87413271D01*
X92923939Y-87499025D01*
X92975694Y-87595851D01*
X92975695Y-87595854D01*
X93035793Y-87793968D01*
X93056085Y-88000000D01*
X93035793Y-88206032D01*
X92985090Y-88373175D01*
X92975694Y-88404149D01*
X92923939Y-88500975D01*
X92878103Y-88586729D01*
X92746765Y-88746765D01*
X92586729Y-88878103D01*
X92500975Y-88923939D01*
X92404149Y-88975694D01*
X92404146Y-88975695D01*
X92206032Y-89035793D01*
X92103097Y-89045931D01*
X92051631Y-89051000D01*
X91948369Y-89051000D01*
X91896903Y-89045931D01*
X91793968Y-89035793D01*
X91595854Y-88975695D01*
X91595851Y-88975694D01*
X91499025Y-88923939D01*
X91413271Y-88878103D01*
X91253235Y-88746765D01*
X91121897Y-88586729D01*
X91076061Y-88500975D01*
X91024306Y-88404149D01*
X91014910Y-88373175D01*
X90964207Y-88206032D01*
X90943915Y-88000000D01*
X90964207Y-87793968D01*
X91024305Y-87595854D01*
X91024306Y-87595851D01*
X91076061Y-87499025D01*
X91121897Y-87413271D01*
X91253235Y-87253235D01*
X91413271Y-87121897D01*
X91499025Y-87076061D01*
X91595851Y-87024306D01*
X91595854Y-87024305D01*
X91793968Y-86964207D01*
X91896903Y-86954069D01*
X91948369Y-86949000D01*
X92051631Y-86949000D01*
X92103097Y-86954069D01*
X92103097Y-86954069D01*
G37*
G36*
X108166823Y-86701313D02*
G01*
X108327242Y-86749976D01*
X108402166Y-86790024D01*
X108475078Y-86828996D01*
X108604659Y-86935341D01*
X108711004Y-87064922D01*
X108711005Y-87064924D01*
X108790024Y-87212758D01*
X108838687Y-87373177D01*
X108855117Y-87540000D01*
X108838687Y-87706823D01*
X108790024Y-87867242D01*
X108753624Y-87935341D01*
X108711004Y-88015078D01*
X108604659Y-88144659D01*
X108475078Y-88251004D01*
X108475076Y-88251005D01*
X108327242Y-88330024D01*
X108166823Y-88378687D01*
X108041804Y-88391000D01*
X107958196Y-88391000D01*
X107833177Y-88378687D01*
X107672758Y-88330024D01*
X107524924Y-88251005D01*
X107524922Y-88251004D01*
X107395341Y-88144659D01*
X107288996Y-88015078D01*
X107246376Y-87935341D01*
X107209976Y-87867242D01*
X107161313Y-87706823D01*
X107144883Y-87540000D01*
X107161313Y-87373177D01*
X107209976Y-87212758D01*
X107288995Y-87064924D01*
X107288996Y-87064922D01*
X107395341Y-86935341D01*
X107524922Y-86828996D01*
X107597834Y-86790024D01*
X107672758Y-86749976D01*
X107833177Y-86701313D01*
X107958196Y-86689000D01*
X108041804Y-86689000D01*
X108166823Y-86701313D01*
X108166823Y-86701313D01*
G37*
G36*
X75166823Y-85161313D02*
G01*
X75327242Y-85209976D01*
X75459906Y-85280886D01*
X75475078Y-85288996D01*
X75604659Y-85395341D01*
X75711004Y-85524922D01*
X75711005Y-85524924D01*
X75790024Y-85672758D01*
X75838687Y-85833177D01*
X75855117Y-86000000D01*
X75838687Y-86166823D01*
X75790024Y-86327242D01*
X75719114Y-86459906D01*
X75711004Y-86475078D01*
X75604659Y-86604659D01*
X75475078Y-86711004D01*
X75475076Y-86711005D01*
X75327242Y-86790024D01*
X75166823Y-86838687D01*
X75041804Y-86851000D01*
X74958196Y-86851000D01*
X74833177Y-86838687D01*
X74672758Y-86790024D01*
X74524924Y-86711005D01*
X74524922Y-86711004D01*
X74395341Y-86604659D01*
X74288996Y-86475078D01*
X74280886Y-86459906D01*
X74209976Y-86327242D01*
X74161313Y-86166823D01*
X74144883Y-86000000D01*
X74161313Y-85833177D01*
X74209976Y-85672758D01*
X74288995Y-85524924D01*
X74288996Y-85524922D01*
X74395341Y-85395341D01*
X74524922Y-85288996D01*
X74540094Y-85280886D01*
X74672758Y-85209976D01*
X74833177Y-85161313D01*
X74958196Y-85149000D01*
X75041804Y-85149000D01*
X75166823Y-85161313D01*
X75166823Y-85161313D01*
G37*
G36*
X108166823Y-84161313D02*
G01*
X108327242Y-84209976D01*
X108459906Y-84280886D01*
X108475078Y-84288996D01*
X108604659Y-84395341D01*
X108711004Y-84524922D01*
X108711005Y-84524924D01*
X108790024Y-84672758D01*
X108838687Y-84833177D01*
X108855117Y-85000000D01*
X108838687Y-85166823D01*
X108790024Y-85327242D01*
X108753624Y-85395341D01*
X108711004Y-85475078D01*
X108604659Y-85604659D01*
X108475078Y-85711004D01*
X108475076Y-85711005D01*
X108327242Y-85790024D01*
X108166823Y-85838687D01*
X108041804Y-85851000D01*
X107958196Y-85851000D01*
X107833177Y-85838687D01*
X107672758Y-85790024D01*
X107524924Y-85711005D01*
X107524922Y-85711004D01*
X107395341Y-85604659D01*
X107288996Y-85475078D01*
X107246376Y-85395341D01*
X107209976Y-85327242D01*
X107161313Y-85166823D01*
X107144883Y-85000000D01*
X107161313Y-84833177D01*
X107209976Y-84672758D01*
X107288995Y-84524924D01*
X107288996Y-84524922D01*
X107395341Y-84395341D01*
X107524922Y-84288996D01*
X107540094Y-84280886D01*
X107672758Y-84209976D01*
X107833177Y-84161313D01*
X107958196Y-84149000D01*
X108041804Y-84149000D01*
X108166823Y-84161313D01*
X108166823Y-84161313D01*
G37*
G36*
X60051000Y-84051000D02*
G01*
X57949000Y-84051000D01*
X57949000Y-81949000D01*
X60051000Y-81949000D01*
X60051000Y-84051000D01*
X60051000Y-84051000D01*
G37*
G36*
X93051000Y-84051000D02*
G01*
X90949000Y-84051000D01*
X90949000Y-81949000D01*
X93051000Y-81949000D01*
X93051000Y-84051000D01*
X93051000Y-84051000D01*
G37*
G36*
X126051000Y-84051000D02*
G01*
X123949000Y-84051000D01*
X123949000Y-81949000D01*
X126051000Y-81949000D01*
X126051000Y-84051000D01*
X126051000Y-84051000D01*
G37*
G36*
X75851000Y-83551000D02*
G01*
X74149000Y-83551000D01*
X74149000Y-81849000D01*
X75851000Y-81849000D01*
X75851000Y-83551000D01*
X75851000Y-83551000D01*
G37*
G36*
X83889943Y-77066248D02*
G01*
X84445189Y-77296238D01*
X84615481Y-77410024D01*
X84944899Y-77630134D01*
X85369866Y-78055101D01*
X85369867Y-78055103D01*
X85703762Y-78554811D01*
X85933752Y-79110057D01*
X86051000Y-79699501D01*
X86051000Y-80300499D01*
X85933752Y-80889943D01*
X85703762Y-81445189D01*
X85641872Y-81537814D01*
X85369866Y-81944899D01*
X84944899Y-82369866D01*
X84870736Y-82419420D01*
X84445189Y-82703762D01*
X83889943Y-82933752D01*
X83300499Y-83051000D01*
X82699501Y-83051000D01*
X82110057Y-82933752D01*
X81554811Y-82703762D01*
X81129264Y-82419420D01*
X81055101Y-82369866D01*
X80630134Y-81944899D01*
X80358128Y-81537814D01*
X80296238Y-81445189D01*
X80066248Y-80889943D01*
X79949000Y-80300499D01*
X79949000Y-79699501D01*
X80066248Y-79110057D01*
X80296238Y-78554811D01*
X80630133Y-78055103D01*
X80630134Y-78055101D01*
X81055101Y-77630134D01*
X81384519Y-77410024D01*
X81554811Y-77296238D01*
X82110057Y-77066248D01*
X82699501Y-76949000D01*
X83300499Y-76949000D01*
X83889943Y-77066248D01*
X83889943Y-77066248D01*
G37*
G36*
X116889943Y-77066248D02*
G01*
X117445189Y-77296238D01*
X117615481Y-77410024D01*
X117944899Y-77630134D01*
X118369866Y-78055101D01*
X118369867Y-78055103D01*
X118703762Y-78554811D01*
X118933752Y-79110057D01*
X119051000Y-79699501D01*
X119051000Y-80300499D01*
X118933752Y-80889943D01*
X118703762Y-81445189D01*
X118641872Y-81537814D01*
X118369866Y-81944899D01*
X117944899Y-82369866D01*
X117870736Y-82419420D01*
X117445189Y-82703762D01*
X116889943Y-82933752D01*
X116300499Y-83051000D01*
X115699501Y-83051000D01*
X115110057Y-82933752D01*
X114554811Y-82703762D01*
X114129264Y-82419420D01*
X114055101Y-82369866D01*
X113630134Y-81944899D01*
X113358128Y-81537814D01*
X113296238Y-81445189D01*
X113066248Y-80889943D01*
X112949000Y-80300499D01*
X112949000Y-79699501D01*
X113066248Y-79110057D01*
X113296238Y-78554811D01*
X113630133Y-78055103D01*
X113630134Y-78055101D01*
X114055101Y-77630134D01*
X114384519Y-77410024D01*
X114554811Y-77296238D01*
X115110057Y-77066248D01*
X115699501Y-76949000D01*
X116300499Y-76949000D01*
X116889943Y-77066248D01*
X116889943Y-77066248D01*
G37*
G36*
X134889943Y-77066248D02*
G01*
X135445189Y-77296238D01*
X135615481Y-77410024D01*
X135944899Y-77630134D01*
X136369866Y-78055101D01*
X136369867Y-78055103D01*
X136703762Y-78554811D01*
X136933752Y-79110057D01*
X137051000Y-79699501D01*
X137051000Y-80300499D01*
X136933752Y-80889943D01*
X136703762Y-81445189D01*
X136641872Y-81537814D01*
X136369866Y-81944899D01*
X135944899Y-82369866D01*
X135870736Y-82419420D01*
X135445189Y-82703762D01*
X134889943Y-82933752D01*
X134300499Y-83051000D01*
X133699501Y-83051000D01*
X133110057Y-82933752D01*
X132554811Y-82703762D01*
X132129264Y-82419420D01*
X132055101Y-82369866D01*
X131630134Y-81944899D01*
X131358128Y-81537814D01*
X131296238Y-81445189D01*
X131066248Y-80889943D01*
X130949000Y-80300499D01*
X130949000Y-79699501D01*
X131066248Y-79110057D01*
X131296238Y-78554811D01*
X131630133Y-78055103D01*
X131630134Y-78055101D01*
X132055101Y-77630134D01*
X132384519Y-77410024D01*
X132554811Y-77296238D01*
X133110057Y-77066248D01*
X133699501Y-76949000D01*
X134300499Y-76949000D01*
X134889943Y-77066248D01*
X134889943Y-77066248D01*
G37*
G36*
X101889943Y-77066248D02*
G01*
X102445189Y-77296238D01*
X102615481Y-77410024D01*
X102944899Y-77630134D01*
X103369866Y-78055101D01*
X103369867Y-78055103D01*
X103703762Y-78554811D01*
X103933752Y-79110057D01*
X104051000Y-79699501D01*
X104051000Y-80300499D01*
X103933752Y-80889943D01*
X103703762Y-81445189D01*
X103641872Y-81537814D01*
X103369866Y-81944899D01*
X102944899Y-82369866D01*
X102870736Y-82419420D01*
X102445189Y-82703762D01*
X101889943Y-82933752D01*
X101300499Y-83051000D01*
X100699501Y-83051000D01*
X100110057Y-82933752D01*
X99554811Y-82703762D01*
X99129264Y-82419420D01*
X99055101Y-82369866D01*
X98630134Y-81944899D01*
X98358128Y-81537814D01*
X98296238Y-81445189D01*
X98066248Y-80889943D01*
X97949000Y-80300499D01*
X97949000Y-79699501D01*
X98066248Y-79110057D01*
X98296238Y-78554811D01*
X98630133Y-78055103D01*
X98630134Y-78055101D01*
X99055101Y-77630134D01*
X99384519Y-77410024D01*
X99554811Y-77296238D01*
X100110057Y-77066248D01*
X100699501Y-76949000D01*
X101300499Y-76949000D01*
X101889943Y-77066248D01*
X101889943Y-77066248D01*
G37*
G36*
X68889943Y-77066248D02*
G01*
X69445189Y-77296238D01*
X69615481Y-77410024D01*
X69944899Y-77630134D01*
X70369866Y-78055101D01*
X70369867Y-78055103D01*
X70703762Y-78554811D01*
X70933752Y-79110057D01*
X71051000Y-79699501D01*
X71051000Y-80300499D01*
X70933752Y-80889943D01*
X70703762Y-81445189D01*
X70641872Y-81537814D01*
X70369866Y-81944899D01*
X69944899Y-82369866D01*
X69870736Y-82419420D01*
X69445189Y-82703762D01*
X68889943Y-82933752D01*
X68300499Y-83051000D01*
X67699501Y-83051000D01*
X67110057Y-82933752D01*
X66554811Y-82703762D01*
X66129264Y-82419420D01*
X66055101Y-82369866D01*
X65630134Y-81944899D01*
X65358128Y-81537814D01*
X65296238Y-81445189D01*
X65066248Y-80889943D01*
X64949000Y-80300499D01*
X64949000Y-79699501D01*
X65066248Y-79110057D01*
X65296238Y-78554811D01*
X65630133Y-78055103D01*
X65630134Y-78055101D01*
X66055101Y-77630134D01*
X66384519Y-77410024D01*
X66554811Y-77296238D01*
X67110057Y-77066248D01*
X67699501Y-76949000D01*
X68300499Y-76949000D01*
X68889943Y-77066248D01*
X68889943Y-77066248D01*
G37*
G36*
X50889943Y-77066248D02*
G01*
X51445189Y-77296238D01*
X51615481Y-77410024D01*
X51944899Y-77630134D01*
X52369866Y-78055101D01*
X52369867Y-78055103D01*
X52703762Y-78554811D01*
X52933752Y-79110057D01*
X53051000Y-79699501D01*
X53051000Y-80300499D01*
X52933752Y-80889943D01*
X52703762Y-81445189D01*
X52641872Y-81537814D01*
X52369866Y-81944899D01*
X51944899Y-82369866D01*
X51870736Y-82419420D01*
X51445189Y-82703762D01*
X50889943Y-82933752D01*
X50300499Y-83051000D01*
X49699501Y-83051000D01*
X49110057Y-82933752D01*
X48554811Y-82703762D01*
X48129264Y-82419420D01*
X48055101Y-82369866D01*
X47630134Y-81944899D01*
X47358128Y-81537814D01*
X47296238Y-81445189D01*
X47066248Y-80889943D01*
X46949000Y-80300499D01*
X46949000Y-79699501D01*
X47066248Y-79110057D01*
X47296238Y-78554811D01*
X47630133Y-78055103D01*
X47630134Y-78055101D01*
X48055101Y-77630134D01*
X48384519Y-77410024D01*
X48554811Y-77296238D01*
X49110057Y-77066248D01*
X49699501Y-76949000D01*
X50300499Y-76949000D01*
X50889943Y-77066248D01*
X50889943Y-77066248D01*
G37*
G36*
X108851000Y-82551000D02*
G01*
X107149000Y-82551000D01*
X107149000Y-80849000D01*
X108851000Y-80849000D01*
X108851000Y-82551000D01*
X108851000Y-82551000D01*
G37*
G36*
X75166823Y-79321313D02*
G01*
X75327242Y-79369976D01*
X75459906Y-79440886D01*
X75475078Y-79448996D01*
X75604659Y-79555341D01*
X75711004Y-79684922D01*
X75711005Y-79684924D01*
X75790024Y-79832758D01*
X75838687Y-79993177D01*
X75855117Y-80160000D01*
X75838687Y-80326823D01*
X75790024Y-80487242D01*
X75719114Y-80619906D01*
X75711004Y-80635078D01*
X75604659Y-80764659D01*
X75475078Y-80871004D01*
X75475076Y-80871005D01*
X75327242Y-80950024D01*
X75166823Y-80998687D01*
X75041804Y-81011000D01*
X74958196Y-81011000D01*
X74833177Y-80998687D01*
X74672758Y-80950024D01*
X74524924Y-80871005D01*
X74524922Y-80871004D01*
X74395341Y-80764659D01*
X74288996Y-80635078D01*
X74280886Y-80619906D01*
X74209976Y-80487242D01*
X74161313Y-80326823D01*
X74144883Y-80160000D01*
X74161313Y-79993177D01*
X74209976Y-79832758D01*
X74288995Y-79684924D01*
X74288996Y-79684922D01*
X74395341Y-79555341D01*
X74524922Y-79448996D01*
X74540094Y-79440886D01*
X74672758Y-79369976D01*
X74833177Y-79321313D01*
X74958196Y-79309000D01*
X75041804Y-79309000D01*
X75166823Y-79321313D01*
X75166823Y-79321313D01*
G37*
G36*
X108166823Y-78321313D02*
G01*
X108327242Y-78369976D01*
X108402166Y-78410024D01*
X108475078Y-78448996D01*
X108604659Y-78555341D01*
X108711004Y-78684922D01*
X108711005Y-78684924D01*
X108790024Y-78832758D01*
X108838687Y-78993177D01*
X108855117Y-79160000D01*
X108838687Y-79326823D01*
X108790024Y-79487242D01*
X108753624Y-79555341D01*
X108711004Y-79635078D01*
X108604659Y-79764659D01*
X108475078Y-79871004D01*
X108475076Y-79871005D01*
X108327242Y-79950024D01*
X108166823Y-79998687D01*
X108041804Y-80011000D01*
X107958196Y-80011000D01*
X107833177Y-79998687D01*
X107672758Y-79950024D01*
X107524924Y-79871005D01*
X107524922Y-79871004D01*
X107395341Y-79764659D01*
X107288996Y-79635078D01*
X107246376Y-79555341D01*
X107209976Y-79487242D01*
X107161313Y-79326823D01*
X107144883Y-79160000D01*
X107161313Y-78993177D01*
X107209976Y-78832758D01*
X107288995Y-78684924D01*
X107288996Y-78684922D01*
X107395341Y-78555341D01*
X107524922Y-78448996D01*
X107597834Y-78410024D01*
X107672758Y-78369976D01*
X107833177Y-78321313D01*
X107958196Y-78309000D01*
X108041804Y-78309000D01*
X108166823Y-78321313D01*
X108166823Y-78321313D01*
G37*
G36*
X75166823Y-76781313D02*
G01*
X75327242Y-76829976D01*
X75459906Y-76900886D01*
X75475078Y-76908996D01*
X75604659Y-77015341D01*
X75711004Y-77144922D01*
X75711005Y-77144924D01*
X75790024Y-77292758D01*
X75838687Y-77453177D01*
X75855117Y-77620000D01*
X75838687Y-77786823D01*
X75790024Y-77947242D01*
X75721201Y-78076000D01*
X75711004Y-78095078D01*
X75604659Y-78224659D01*
X75475078Y-78331004D01*
X75475076Y-78331005D01*
X75327242Y-78410024D01*
X75166823Y-78458687D01*
X75041804Y-78471000D01*
X74958196Y-78471000D01*
X74833177Y-78458687D01*
X74672758Y-78410024D01*
X74524924Y-78331005D01*
X74524922Y-78331004D01*
X74395341Y-78224659D01*
X74288996Y-78095078D01*
X74278799Y-78076000D01*
X74209976Y-77947242D01*
X74161313Y-77786823D01*
X74144883Y-77620000D01*
X74161313Y-77453177D01*
X74209976Y-77292758D01*
X74288995Y-77144924D01*
X74288996Y-77144922D01*
X74395341Y-77015341D01*
X74524922Y-76908996D01*
X74540094Y-76900886D01*
X74672758Y-76829976D01*
X74833177Y-76781313D01*
X74958196Y-76769000D01*
X75041804Y-76769000D01*
X75166823Y-76781313D01*
X75166823Y-76781313D01*
G37*
G36*
X108166823Y-75781313D02*
G01*
X108327242Y-75829976D01*
X108402166Y-75870024D01*
X108475078Y-75908996D01*
X108604659Y-76015341D01*
X108711004Y-76144922D01*
X108711005Y-76144924D01*
X108790024Y-76292758D01*
X108838687Y-76453177D01*
X108855117Y-76620000D01*
X108838687Y-76786823D01*
X108790024Y-76947242D01*
X108789084Y-76949000D01*
X108711004Y-77095078D01*
X108604659Y-77224659D01*
X108475078Y-77331004D01*
X108475076Y-77331005D01*
X108327242Y-77410024D01*
X108166823Y-77458687D01*
X108041804Y-77471000D01*
X107958196Y-77471000D01*
X107833177Y-77458687D01*
X107672758Y-77410024D01*
X107524924Y-77331005D01*
X107524922Y-77331004D01*
X107395341Y-77224659D01*
X107288996Y-77095078D01*
X107210916Y-76949000D01*
X107209976Y-76947242D01*
X107161313Y-76786823D01*
X107144883Y-76620000D01*
X107161313Y-76453177D01*
X107209976Y-76292758D01*
X107288995Y-76144924D01*
X107288996Y-76144922D01*
X107395341Y-76015341D01*
X107524922Y-75908996D01*
X107597834Y-75870024D01*
X107672758Y-75829976D01*
X107833177Y-75781313D01*
X107958196Y-75769000D01*
X108041804Y-75769000D01*
X108166823Y-75781313D01*
X108166823Y-75781313D01*
G37*
G36*
X75166823Y-74241313D02*
G01*
X75327242Y-74289976D01*
X75459906Y-74360886D01*
X75475078Y-74368996D01*
X75604659Y-74475341D01*
X75711004Y-74604922D01*
X75711005Y-74604924D01*
X75790024Y-74752758D01*
X75838687Y-74913177D01*
X75855117Y-75080000D01*
X75838687Y-75246823D01*
X75790024Y-75407242D01*
X75719114Y-75539906D01*
X75711004Y-75555078D01*
X75604659Y-75684659D01*
X75475078Y-75791004D01*
X75475076Y-75791005D01*
X75327242Y-75870024D01*
X75166823Y-75918687D01*
X75041804Y-75931000D01*
X74958196Y-75931000D01*
X74833177Y-75918687D01*
X74672758Y-75870024D01*
X74524924Y-75791005D01*
X74524922Y-75791004D01*
X74395341Y-75684659D01*
X74288996Y-75555078D01*
X74280886Y-75539906D01*
X74209976Y-75407242D01*
X74161313Y-75246823D01*
X74144883Y-75080000D01*
X74161313Y-74913177D01*
X74209976Y-74752758D01*
X74288995Y-74604924D01*
X74288996Y-74604922D01*
X74395341Y-74475341D01*
X74524922Y-74368996D01*
X74540094Y-74360886D01*
X74672758Y-74289976D01*
X74833177Y-74241313D01*
X74958196Y-74229000D01*
X75041804Y-74229000D01*
X75166823Y-74241313D01*
X75166823Y-74241313D01*
G37*
G36*
X108166823Y-73241313D02*
G01*
X108327242Y-73289976D01*
X108402166Y-73330024D01*
X108475078Y-73368996D01*
X108604659Y-73475341D01*
X108711004Y-73604922D01*
X108711005Y-73604924D01*
X108790024Y-73752758D01*
X108838687Y-73913177D01*
X108855117Y-74080000D01*
X108838687Y-74246823D01*
X108790024Y-74407242D01*
X108753624Y-74475341D01*
X108711004Y-74555078D01*
X108604659Y-74684659D01*
X108475078Y-74791004D01*
X108475076Y-74791005D01*
X108327242Y-74870024D01*
X108166823Y-74918687D01*
X108041804Y-74931000D01*
X107958196Y-74931000D01*
X107833177Y-74918687D01*
X107672758Y-74870024D01*
X107524924Y-74791005D01*
X107524922Y-74791004D01*
X107395341Y-74684659D01*
X107288996Y-74555078D01*
X107246376Y-74475341D01*
X107209976Y-74407242D01*
X107161313Y-74246823D01*
X107144883Y-74080000D01*
X107161313Y-73913177D01*
X107209976Y-73752758D01*
X107288995Y-73604924D01*
X107288996Y-73604922D01*
X107395341Y-73475341D01*
X107524922Y-73368996D01*
X107597834Y-73330024D01*
X107672758Y-73289976D01*
X107833177Y-73241313D01*
X107958196Y-73229000D01*
X108041804Y-73229000D01*
X108166823Y-73241313D01*
X108166823Y-73241313D01*
G37*
G36*
X75166823Y-71701313D02*
G01*
X75327242Y-71749976D01*
X75459906Y-71820886D01*
X75475078Y-71828996D01*
X75604659Y-71935341D01*
X75711004Y-72064922D01*
X75711005Y-72064924D01*
X75790024Y-72212758D01*
X75838687Y-72373177D01*
X75855117Y-72540000D01*
X75838687Y-72706823D01*
X75790024Y-72867242D01*
X75719114Y-72999906D01*
X75711004Y-73015078D01*
X75604659Y-73144659D01*
X75475078Y-73251004D01*
X75475076Y-73251005D01*
X75327242Y-73330024D01*
X75166823Y-73378687D01*
X75041804Y-73391000D01*
X74958196Y-73391000D01*
X74833177Y-73378687D01*
X74672758Y-73330024D01*
X74524924Y-73251005D01*
X74524922Y-73251004D01*
X74395341Y-73144659D01*
X74288996Y-73015078D01*
X74280886Y-72999906D01*
X74209976Y-72867242D01*
X74161313Y-72706823D01*
X74144883Y-72540000D01*
X74161313Y-72373177D01*
X74209976Y-72212758D01*
X74288995Y-72064924D01*
X74288996Y-72064922D01*
X74395341Y-71935341D01*
X74524922Y-71828996D01*
X74540094Y-71820886D01*
X74672758Y-71749976D01*
X74833177Y-71701313D01*
X74958196Y-71689000D01*
X75041804Y-71689000D01*
X75166823Y-71701313D01*
X75166823Y-71701313D01*
G37*
G36*
X108166823Y-70701313D02*
G01*
X108327242Y-70749976D01*
X108402166Y-70790024D01*
X108475078Y-70828996D01*
X108604659Y-70935341D01*
X108711004Y-71064922D01*
X108711005Y-71064924D01*
X108790024Y-71212758D01*
X108838687Y-71373177D01*
X108855117Y-71540000D01*
X108838687Y-71706823D01*
X108790024Y-71867242D01*
X108753624Y-71935341D01*
X108711004Y-72015078D01*
X108604659Y-72144659D01*
X108475078Y-72251004D01*
X108475076Y-72251005D01*
X108327242Y-72330024D01*
X108166823Y-72378687D01*
X108041804Y-72391000D01*
X107958196Y-72391000D01*
X107833177Y-72378687D01*
X107672758Y-72330024D01*
X107524924Y-72251005D01*
X107524922Y-72251004D01*
X107395341Y-72144659D01*
X107288996Y-72015078D01*
X107246376Y-71935341D01*
X107209976Y-71867242D01*
X107161313Y-71706823D01*
X107144883Y-71540000D01*
X107161313Y-71373177D01*
X107209976Y-71212758D01*
X107288995Y-71064924D01*
X107288996Y-71064922D01*
X107395341Y-70935341D01*
X107524922Y-70828996D01*
X107597834Y-70790024D01*
X107672758Y-70749976D01*
X107833177Y-70701313D01*
X107958196Y-70689000D01*
X108041804Y-70689000D01*
X108166823Y-70701313D01*
X108166823Y-70701313D01*
G37*
G36*
X75166823Y-69161313D02*
G01*
X75327242Y-69209976D01*
X75459906Y-69280886D01*
X75475078Y-69288996D01*
X75604659Y-69395341D01*
X75711004Y-69524922D01*
X75711005Y-69524924D01*
X75790024Y-69672758D01*
X75838687Y-69833177D01*
X75855117Y-70000000D01*
X75838687Y-70166823D01*
X75790024Y-70327242D01*
X75719114Y-70459906D01*
X75711004Y-70475078D01*
X75604659Y-70604659D01*
X75475078Y-70711004D01*
X75475076Y-70711005D01*
X75327242Y-70790024D01*
X75166823Y-70838687D01*
X75041804Y-70851000D01*
X74958196Y-70851000D01*
X74833177Y-70838687D01*
X74672758Y-70790024D01*
X74524924Y-70711005D01*
X74524922Y-70711004D01*
X74395341Y-70604659D01*
X74288996Y-70475078D01*
X74280886Y-70459906D01*
X74209976Y-70327242D01*
X74161313Y-70166823D01*
X74144883Y-70000000D01*
X74161313Y-69833177D01*
X74209976Y-69672758D01*
X74288995Y-69524924D01*
X74288996Y-69524922D01*
X74395341Y-69395341D01*
X74524922Y-69288996D01*
X74540094Y-69280886D01*
X74672758Y-69209976D01*
X74833177Y-69161313D01*
X74958196Y-69149000D01*
X75041804Y-69149000D01*
X75166823Y-69161313D01*
X75166823Y-69161313D01*
G37*
G36*
X108166823Y-68161313D02*
G01*
X108297380Y-68200917D01*
X108314241Y-68206032D01*
X108327242Y-68209976D01*
X108459906Y-68280886D01*
X108475078Y-68288996D01*
X108604659Y-68395341D01*
X108711004Y-68524922D01*
X108711005Y-68524924D01*
X108790024Y-68672758D01*
X108838687Y-68833177D01*
X108855117Y-69000000D01*
X108838687Y-69166823D01*
X108790024Y-69327242D01*
X108753624Y-69395341D01*
X108711004Y-69475078D01*
X108604659Y-69604659D01*
X108475078Y-69711004D01*
X108475076Y-69711005D01*
X108327242Y-69790024D01*
X108166823Y-69838687D01*
X108041804Y-69851000D01*
X107958196Y-69851000D01*
X107833177Y-69838687D01*
X107672758Y-69790024D01*
X107524924Y-69711005D01*
X107524922Y-69711004D01*
X107395341Y-69604659D01*
X107288996Y-69475078D01*
X107246376Y-69395341D01*
X107209976Y-69327242D01*
X107161313Y-69166823D01*
X107144883Y-69000000D01*
X107161313Y-68833177D01*
X107209976Y-68672758D01*
X107288995Y-68524924D01*
X107288996Y-68524922D01*
X107395341Y-68395341D01*
X107524922Y-68288996D01*
X107540094Y-68280886D01*
X107672758Y-68209976D01*
X107685760Y-68206032D01*
X107702620Y-68200917D01*
X107833177Y-68161313D01*
X107958196Y-68149000D01*
X108041804Y-68149000D01*
X108166823Y-68161313D01*
X108166823Y-68161313D01*
G37*
G36*
X92103097Y-66954069D02*
G01*
X92206032Y-66964207D01*
X92404146Y-67024305D01*
X92404149Y-67024306D01*
X92500975Y-67076061D01*
X92586729Y-67121897D01*
X92746765Y-67253235D01*
X92878103Y-67413271D01*
X92923939Y-67499025D01*
X92975694Y-67595851D01*
X92975695Y-67595854D01*
X93035793Y-67793968D01*
X93056085Y-68000000D01*
X93035793Y-68206032D01*
X92978366Y-68395341D01*
X92975694Y-68404149D01*
X92923939Y-68500975D01*
X92878103Y-68586729D01*
X92746765Y-68746765D01*
X92586729Y-68878103D01*
X92500975Y-68923939D01*
X92404149Y-68975694D01*
X92404146Y-68975695D01*
X92206032Y-69035793D01*
X92103097Y-69045931D01*
X92051631Y-69051000D01*
X91948369Y-69051000D01*
X91896903Y-69045931D01*
X91793968Y-69035793D01*
X91595854Y-68975695D01*
X91595851Y-68975694D01*
X91499025Y-68923939D01*
X91413271Y-68878103D01*
X91253235Y-68746765D01*
X91121897Y-68586729D01*
X91076061Y-68500975D01*
X91024306Y-68404149D01*
X91021634Y-68395341D01*
X90964207Y-68206032D01*
X90943915Y-68000000D01*
X90964207Y-67793968D01*
X91024305Y-67595854D01*
X91024306Y-67595851D01*
X91076061Y-67499025D01*
X91121897Y-67413271D01*
X91253235Y-67253235D01*
X91413271Y-67121897D01*
X91499025Y-67076061D01*
X91595851Y-67024306D01*
X91595854Y-67024305D01*
X91793968Y-66964207D01*
X91896903Y-66954069D01*
X91948369Y-66949000D01*
X92051631Y-66949000D01*
X92103097Y-66954069D01*
X92103097Y-66954069D01*
G37*
G36*
X125103097Y-66954069D02*
G01*
X125206032Y-66964207D01*
X125404146Y-67024305D01*
X125404149Y-67024306D01*
X125500975Y-67076061D01*
X125586729Y-67121897D01*
X125746765Y-67253235D01*
X125878103Y-67413271D01*
X125923939Y-67499025D01*
X125975694Y-67595851D01*
X125975695Y-67595854D01*
X126035793Y-67793968D01*
X126056085Y-68000000D01*
X126035793Y-68206032D01*
X125978366Y-68395341D01*
X125975694Y-68404149D01*
X125923939Y-68500975D01*
X125878103Y-68586729D01*
X125746765Y-68746765D01*
X125586729Y-68878103D01*
X125500975Y-68923939D01*
X125404149Y-68975694D01*
X125404146Y-68975695D01*
X125206032Y-69035793D01*
X125103097Y-69045931D01*
X125051631Y-69051000D01*
X124948369Y-69051000D01*
X124896903Y-69045931D01*
X124793968Y-69035793D01*
X124595854Y-68975695D01*
X124595851Y-68975694D01*
X124499025Y-68923939D01*
X124413271Y-68878103D01*
X124253235Y-68746765D01*
X124121897Y-68586729D01*
X124076061Y-68500975D01*
X124024306Y-68404149D01*
X124021634Y-68395341D01*
X123964207Y-68206032D01*
X123943915Y-68000000D01*
X123964207Y-67793968D01*
X124024305Y-67595854D01*
X124024306Y-67595851D01*
X124076061Y-67499025D01*
X124121897Y-67413271D01*
X124253235Y-67253235D01*
X124413271Y-67121897D01*
X124499025Y-67076061D01*
X124595851Y-67024306D01*
X124595854Y-67024305D01*
X124793968Y-66964207D01*
X124896903Y-66954069D01*
X124948369Y-66949000D01*
X125051631Y-66949000D01*
X125103097Y-66954069D01*
X125103097Y-66954069D01*
G37*
G36*
X59103097Y-66954069D02*
G01*
X59206032Y-66964207D01*
X59404146Y-67024305D01*
X59404149Y-67024306D01*
X59500975Y-67076061D01*
X59586729Y-67121897D01*
X59746765Y-67253235D01*
X59878103Y-67413271D01*
X59923939Y-67499025D01*
X59975694Y-67595851D01*
X59975695Y-67595854D01*
X60035793Y-67793968D01*
X60056085Y-68000000D01*
X60035793Y-68206032D01*
X59978366Y-68395341D01*
X59975694Y-68404149D01*
X59923939Y-68500975D01*
X59878103Y-68586729D01*
X59746765Y-68746765D01*
X59586729Y-68878103D01*
X59500975Y-68923939D01*
X59404149Y-68975694D01*
X59404146Y-68975695D01*
X59206032Y-69035793D01*
X59103097Y-69045931D01*
X59051631Y-69051000D01*
X58948369Y-69051000D01*
X58896903Y-69045931D01*
X58793968Y-69035793D01*
X58595854Y-68975695D01*
X58595851Y-68975694D01*
X58499025Y-68923939D01*
X58413271Y-68878103D01*
X58253235Y-68746765D01*
X58121897Y-68586729D01*
X58076061Y-68500975D01*
X58024306Y-68404149D01*
X58021634Y-68395341D01*
X57964207Y-68206032D01*
X57943915Y-68000000D01*
X57964207Y-67793968D01*
X58024305Y-67595854D01*
X58024306Y-67595851D01*
X58076061Y-67499025D01*
X58121897Y-67413271D01*
X58253235Y-67253235D01*
X58413271Y-67121897D01*
X58499025Y-67076061D01*
X58595851Y-67024306D01*
X58595854Y-67024305D01*
X58793968Y-66964207D01*
X58896903Y-66954069D01*
X58948369Y-66949000D01*
X59051631Y-66949000D01*
X59103097Y-66954069D01*
X59103097Y-66954069D01*
G37*
G36*
X75851000Y-67551000D02*
G01*
X74149000Y-67551000D01*
X74149000Y-65849000D01*
X75851000Y-65849000D01*
X75851000Y-67551000D01*
X75851000Y-67551000D01*
G37*
G36*
X108851000Y-66851000D02*
G01*
X107149000Y-66851000D01*
X107149000Y-65149000D01*
X108851000Y-65149000D01*
X108851000Y-66851000D01*
X108851000Y-66851000D01*
G37*
G36*
X75166823Y-63321313D02*
G01*
X75327242Y-63369976D01*
X75459906Y-63440886D01*
X75475078Y-63448996D01*
X75604659Y-63555341D01*
X75711004Y-63684922D01*
X75711005Y-63684924D01*
X75790024Y-63832758D01*
X75838687Y-63993177D01*
X75855117Y-64160000D01*
X75838687Y-64326823D01*
X75790024Y-64487242D01*
X75719114Y-64619906D01*
X75711004Y-64635078D01*
X75604659Y-64764659D01*
X75475078Y-64871004D01*
X75475076Y-64871005D01*
X75327242Y-64950024D01*
X75166823Y-64998687D01*
X75041804Y-65011000D01*
X74958196Y-65011000D01*
X74833177Y-64998687D01*
X74672758Y-64950024D01*
X74524924Y-64871005D01*
X74524922Y-64871004D01*
X74395341Y-64764659D01*
X74288996Y-64635078D01*
X74280886Y-64619906D01*
X74209976Y-64487242D01*
X74161313Y-64326823D01*
X74144883Y-64160000D01*
X74161313Y-63993177D01*
X74209976Y-63832758D01*
X74288995Y-63684924D01*
X74288996Y-63684922D01*
X74395341Y-63555341D01*
X74524922Y-63448996D01*
X74540094Y-63440886D01*
X74672758Y-63369976D01*
X74833177Y-63321313D01*
X74958196Y-63309000D01*
X75041804Y-63309000D01*
X75166823Y-63321313D01*
X75166823Y-63321313D01*
G37*
G36*
X108166823Y-62621313D02*
G01*
X108327242Y-62669976D01*
X108390449Y-62703761D01*
X108475078Y-62748996D01*
X108604659Y-62855341D01*
X108711004Y-62984922D01*
X108711005Y-62984924D01*
X108790024Y-63132758D01*
X108838687Y-63293177D01*
X108855117Y-63460000D01*
X108838687Y-63626823D01*
X108790024Y-63787242D01*
X108719114Y-63919906D01*
X108711004Y-63935078D01*
X108604659Y-64064659D01*
X108475078Y-64171004D01*
X108475076Y-64171005D01*
X108327242Y-64250024D01*
X108166823Y-64298687D01*
X108041804Y-64311000D01*
X107958196Y-64311000D01*
X107833177Y-64298687D01*
X107672758Y-64250024D01*
X107524924Y-64171005D01*
X107524922Y-64171004D01*
X107395341Y-64064659D01*
X107288996Y-63935078D01*
X107280886Y-63919906D01*
X107209976Y-63787242D01*
X107161313Y-63626823D01*
X107144883Y-63460000D01*
X107161313Y-63293177D01*
X107209976Y-63132758D01*
X107288995Y-62984924D01*
X107288996Y-62984922D01*
X107395341Y-62855341D01*
X107524922Y-62748996D01*
X107609551Y-62703761D01*
X107672758Y-62669976D01*
X107833177Y-62621313D01*
X107958196Y-62609000D01*
X108041804Y-62609000D01*
X108166823Y-62621313D01*
X108166823Y-62621313D01*
G37*
G36*
X101889943Y-57066248D02*
G01*
X102445189Y-57296238D01*
X102568581Y-57378686D01*
X102944899Y-57630134D01*
X103369866Y-58055101D01*
X103537948Y-58306653D01*
X103703762Y-58554811D01*
X103933752Y-59110057D01*
X104051000Y-59699501D01*
X104051000Y-60300499D01*
X103933752Y-60889943D01*
X103703762Y-61445189D01*
X103641872Y-61537814D01*
X103369866Y-61944899D01*
X102944899Y-62369866D01*
X102811969Y-62458687D01*
X102445189Y-62703762D01*
X101889943Y-62933752D01*
X101300499Y-63051000D01*
X100699501Y-63051000D01*
X100110057Y-62933752D01*
X99554811Y-62703762D01*
X99188031Y-62458687D01*
X99055101Y-62369866D01*
X98630134Y-61944899D01*
X98358128Y-61537814D01*
X98296238Y-61445189D01*
X98066248Y-60889943D01*
X97949000Y-60300499D01*
X97949000Y-59699501D01*
X98066248Y-59110057D01*
X98296238Y-58554811D01*
X98462052Y-58306653D01*
X98630134Y-58055101D01*
X99055101Y-57630134D01*
X99431419Y-57378686D01*
X99554811Y-57296238D01*
X100110057Y-57066248D01*
X100699501Y-56949000D01*
X101300499Y-56949000D01*
X101889943Y-57066248D01*
X101889943Y-57066248D01*
G37*
G36*
X134889943Y-57066248D02*
G01*
X135445189Y-57296238D01*
X135568581Y-57378686D01*
X135944899Y-57630134D01*
X136369866Y-58055101D01*
X136537948Y-58306653D01*
X136703762Y-58554811D01*
X136933752Y-59110057D01*
X137051000Y-59699501D01*
X137051000Y-60300499D01*
X136933752Y-60889943D01*
X136703762Y-61445189D01*
X136641872Y-61537814D01*
X136369866Y-61944899D01*
X135944899Y-62369866D01*
X135811969Y-62458687D01*
X135445189Y-62703762D01*
X134889943Y-62933752D01*
X134300499Y-63051000D01*
X133699501Y-63051000D01*
X133110057Y-62933752D01*
X132554811Y-62703762D01*
X132188031Y-62458687D01*
X132055101Y-62369866D01*
X131630134Y-61944899D01*
X131358128Y-61537814D01*
X131296238Y-61445189D01*
X131066248Y-60889943D01*
X130949000Y-60300499D01*
X130949000Y-59699501D01*
X131066248Y-59110057D01*
X131296238Y-58554811D01*
X131462052Y-58306653D01*
X131630134Y-58055101D01*
X132055101Y-57630134D01*
X132431419Y-57378686D01*
X132554811Y-57296238D01*
X133110057Y-57066248D01*
X133699501Y-56949000D01*
X134300499Y-56949000D01*
X134889943Y-57066248D01*
X134889943Y-57066248D01*
G37*
G36*
X50889943Y-57066248D02*
G01*
X51445189Y-57296238D01*
X51568581Y-57378686D01*
X51944899Y-57630134D01*
X52369866Y-58055101D01*
X52537948Y-58306653D01*
X52703762Y-58554811D01*
X52933752Y-59110057D01*
X53051000Y-59699501D01*
X53051000Y-60300499D01*
X52933752Y-60889943D01*
X52703762Y-61445189D01*
X52641872Y-61537814D01*
X52369866Y-61944899D01*
X51944899Y-62369866D01*
X51811969Y-62458687D01*
X51445189Y-62703762D01*
X50889943Y-62933752D01*
X50300499Y-63051000D01*
X49699501Y-63051000D01*
X49110057Y-62933752D01*
X48554811Y-62703762D01*
X48188031Y-62458687D01*
X48055101Y-62369866D01*
X47630134Y-61944899D01*
X47358128Y-61537814D01*
X47296238Y-61445189D01*
X47066248Y-60889943D01*
X46949000Y-60300499D01*
X46949000Y-59699501D01*
X47066248Y-59110057D01*
X47296238Y-58554811D01*
X47462052Y-58306653D01*
X47630134Y-58055101D01*
X48055101Y-57630134D01*
X48431419Y-57378686D01*
X48554811Y-57296238D01*
X49110057Y-57066248D01*
X49699501Y-56949000D01*
X50300499Y-56949000D01*
X50889943Y-57066248D01*
X50889943Y-57066248D01*
G37*
G36*
X68889943Y-57066248D02*
G01*
X69445189Y-57296238D01*
X69568581Y-57378686D01*
X69944899Y-57630134D01*
X70369866Y-58055101D01*
X70537948Y-58306653D01*
X70703762Y-58554811D01*
X70933752Y-59110057D01*
X71051000Y-59699501D01*
X71051000Y-60300499D01*
X70933752Y-60889943D01*
X70703762Y-61445189D01*
X70641872Y-61537814D01*
X70369866Y-61944899D01*
X69944899Y-62369866D01*
X69811969Y-62458687D01*
X69445189Y-62703762D01*
X68889943Y-62933752D01*
X68300499Y-63051000D01*
X67699501Y-63051000D01*
X67110057Y-62933752D01*
X66554811Y-62703762D01*
X66188031Y-62458687D01*
X66055101Y-62369866D01*
X65630134Y-61944899D01*
X65358128Y-61537814D01*
X65296238Y-61445189D01*
X65066248Y-60889943D01*
X64949000Y-60300499D01*
X64949000Y-59699501D01*
X65066248Y-59110057D01*
X65296238Y-58554811D01*
X65462052Y-58306653D01*
X65630134Y-58055101D01*
X66055101Y-57630134D01*
X66431419Y-57378686D01*
X66554811Y-57296238D01*
X67110057Y-57066248D01*
X67699501Y-56949000D01*
X68300499Y-56949000D01*
X68889943Y-57066248D01*
X68889943Y-57066248D01*
G37*
G36*
X83889943Y-57066248D02*
G01*
X84445189Y-57296238D01*
X84568581Y-57378686D01*
X84944899Y-57630134D01*
X85369866Y-58055101D01*
X85537948Y-58306653D01*
X85703762Y-58554811D01*
X85933752Y-59110057D01*
X86051000Y-59699501D01*
X86051000Y-60300499D01*
X85933752Y-60889943D01*
X85703762Y-61445189D01*
X85641872Y-61537814D01*
X85369866Y-61944899D01*
X84944899Y-62369866D01*
X84811969Y-62458687D01*
X84445189Y-62703762D01*
X83889943Y-62933752D01*
X83300499Y-63051000D01*
X82699501Y-63051000D01*
X82110057Y-62933752D01*
X81554811Y-62703762D01*
X81188031Y-62458687D01*
X81055101Y-62369866D01*
X80630134Y-61944899D01*
X80358128Y-61537814D01*
X80296238Y-61445189D01*
X80066248Y-60889943D01*
X79949000Y-60300499D01*
X79949000Y-59699501D01*
X80066248Y-59110057D01*
X80296238Y-58554811D01*
X80462052Y-58306653D01*
X80630134Y-58055101D01*
X81055101Y-57630134D01*
X81431419Y-57378686D01*
X81554811Y-57296238D01*
X82110057Y-57066248D01*
X82699501Y-56949000D01*
X83300499Y-56949000D01*
X83889943Y-57066248D01*
X83889943Y-57066248D01*
G37*
G36*
X60051000Y-63051000D02*
G01*
X57949000Y-63051000D01*
X57949000Y-60949000D01*
X60051000Y-60949000D01*
X60051000Y-63051000D01*
X60051000Y-63051000D01*
G37*
G36*
X93051000Y-63051000D02*
G01*
X90949000Y-63051000D01*
X90949000Y-60949000D01*
X93051000Y-60949000D01*
X93051000Y-63051000D01*
X93051000Y-63051000D01*
G37*
G36*
X116889943Y-57066248D02*
G01*
X117445189Y-57296238D01*
X117568581Y-57378686D01*
X117944899Y-57630134D01*
X118369866Y-58055101D01*
X118537948Y-58306653D01*
X118703762Y-58554811D01*
X118933752Y-59110057D01*
X119051000Y-59699501D01*
X119051000Y-60300499D01*
X118933752Y-60889943D01*
X118703762Y-61445189D01*
X118641872Y-61537814D01*
X118369866Y-61944899D01*
X117944899Y-62369866D01*
X117811969Y-62458687D01*
X117445189Y-62703762D01*
X116889943Y-62933752D01*
X116300499Y-63051000D01*
X115699501Y-63051000D01*
X115110057Y-62933752D01*
X114554811Y-62703762D01*
X114188031Y-62458687D01*
X114055101Y-62369866D01*
X113630134Y-61944899D01*
X113358128Y-61537814D01*
X113296238Y-61445189D01*
X113066248Y-60889943D01*
X112949000Y-60300499D01*
X112949000Y-59699501D01*
X113066248Y-59110057D01*
X113296238Y-58554811D01*
X113462052Y-58306653D01*
X113630134Y-58055101D01*
X114055101Y-57630134D01*
X114431419Y-57378686D01*
X114554811Y-57296238D01*
X115110057Y-57066248D01*
X115699501Y-56949000D01*
X116300499Y-56949000D01*
X116889943Y-57066248D01*
X116889943Y-57066248D01*
G37*
G36*
X126051000Y-63051000D02*
G01*
X123949000Y-63051000D01*
X123949000Y-60949000D01*
X126051000Y-60949000D01*
X126051000Y-63051000D01*
X126051000Y-63051000D01*
G37*
G36*
X75166823Y-60781313D02*
G01*
X75327242Y-60829976D01*
X75439432Y-60889943D01*
X75475078Y-60908996D01*
X75604659Y-61015341D01*
X75711004Y-61144922D01*
X75711005Y-61144924D01*
X75790024Y-61292758D01*
X75838687Y-61453177D01*
X75855117Y-61620000D01*
X75838687Y-61786823D01*
X75790024Y-61947242D01*
X75775011Y-61975329D01*
X75711004Y-62095078D01*
X75604659Y-62224659D01*
X75475078Y-62331004D01*
X75475076Y-62331005D01*
X75327242Y-62410024D01*
X75166823Y-62458687D01*
X75041804Y-62471000D01*
X74958196Y-62471000D01*
X74833177Y-62458687D01*
X74672758Y-62410024D01*
X74524924Y-62331005D01*
X74524922Y-62331004D01*
X74395341Y-62224659D01*
X74288996Y-62095078D01*
X74224989Y-61975329D01*
X74209976Y-61947242D01*
X74161313Y-61786823D01*
X74144883Y-61620000D01*
X74161313Y-61453177D01*
X74209976Y-61292758D01*
X74288995Y-61144924D01*
X74288996Y-61144922D01*
X74395341Y-61015341D01*
X74524922Y-60908996D01*
X74560568Y-60889943D01*
X74672758Y-60829976D01*
X74833177Y-60781313D01*
X74958196Y-60769000D01*
X75041804Y-60769000D01*
X75166823Y-60781313D01*
X75166823Y-60781313D01*
G37*
G36*
X108166823Y-60081313D02*
G01*
X108327242Y-60129976D01*
X108459906Y-60200886D01*
X108475078Y-60208996D01*
X108604659Y-60315341D01*
X108711004Y-60444922D01*
X108711005Y-60444924D01*
X108790024Y-60592758D01*
X108838687Y-60753177D01*
X108855117Y-60920000D01*
X108838687Y-61086823D01*
X108790024Y-61247242D01*
X108719114Y-61379906D01*
X108711004Y-61395078D01*
X108604659Y-61524659D01*
X108475078Y-61631004D01*
X108475076Y-61631005D01*
X108327242Y-61710024D01*
X108166823Y-61758687D01*
X108041804Y-61771000D01*
X107958196Y-61771000D01*
X107833177Y-61758687D01*
X107672758Y-61710024D01*
X107524924Y-61631005D01*
X107524922Y-61631004D01*
X107395341Y-61524659D01*
X107288996Y-61395078D01*
X107280886Y-61379906D01*
X107209976Y-61247242D01*
X107161313Y-61086823D01*
X107144883Y-60920000D01*
X107161313Y-60753177D01*
X107209976Y-60592758D01*
X107288995Y-60444924D01*
X107288996Y-60444922D01*
X107395341Y-60315341D01*
X107524922Y-60208996D01*
X107540094Y-60200886D01*
X107672758Y-60129976D01*
X107833177Y-60081313D01*
X107958196Y-60069000D01*
X108041804Y-60069000D01*
X108166823Y-60081313D01*
X108166823Y-60081313D01*
G37*
G36*
X75166823Y-58241313D02*
G01*
X75327242Y-58289976D01*
X75459906Y-58360886D01*
X75475078Y-58368996D01*
X75604659Y-58475341D01*
X75711004Y-58604922D01*
X75711005Y-58604924D01*
X75790024Y-58752758D01*
X75838687Y-58913177D01*
X75855117Y-59080000D01*
X75838687Y-59246823D01*
X75790024Y-59407242D01*
X75719114Y-59539906D01*
X75711004Y-59555078D01*
X75604659Y-59684659D01*
X75475078Y-59791004D01*
X75475076Y-59791005D01*
X75327242Y-59870024D01*
X75166823Y-59918687D01*
X75041804Y-59931000D01*
X74958196Y-59931000D01*
X74833177Y-59918687D01*
X74672758Y-59870024D01*
X74524924Y-59791005D01*
X74524922Y-59791004D01*
X74395341Y-59684659D01*
X74288996Y-59555078D01*
X74280886Y-59539906D01*
X74209976Y-59407242D01*
X74161313Y-59246823D01*
X74144883Y-59080000D01*
X74161313Y-58913177D01*
X74209976Y-58752758D01*
X74288995Y-58604924D01*
X74288996Y-58604922D01*
X74395341Y-58475341D01*
X74524922Y-58368996D01*
X74540094Y-58360886D01*
X74672758Y-58289976D01*
X74833177Y-58241313D01*
X74958196Y-58229000D01*
X75041804Y-58229000D01*
X75166823Y-58241313D01*
X75166823Y-58241313D01*
G37*
G36*
X108166823Y-57541313D02*
G01*
X108327242Y-57589976D01*
X108402370Y-57630133D01*
X108475078Y-57668996D01*
X108604659Y-57775341D01*
X108711004Y-57904922D01*
X108711005Y-57904924D01*
X108790024Y-58052758D01*
X108838687Y-58213177D01*
X108855117Y-58380000D01*
X108838687Y-58546823D01*
X108790024Y-58707242D01*
X108757505Y-58768080D01*
X108711004Y-58855078D01*
X108604659Y-58984659D01*
X108475078Y-59091004D01*
X108475076Y-59091005D01*
X108327242Y-59170024D01*
X108166823Y-59218687D01*
X108041804Y-59231000D01*
X107958196Y-59231000D01*
X107833177Y-59218687D01*
X107672758Y-59170024D01*
X107524924Y-59091005D01*
X107524922Y-59091004D01*
X107395341Y-58984659D01*
X107288996Y-58855078D01*
X107242495Y-58768080D01*
X107209976Y-58707242D01*
X107161313Y-58546823D01*
X107144883Y-58380000D01*
X107161313Y-58213177D01*
X107209976Y-58052758D01*
X107288995Y-57904924D01*
X107288996Y-57904922D01*
X107395341Y-57775341D01*
X107524922Y-57668996D01*
X107597630Y-57630133D01*
X107672758Y-57589976D01*
X107833177Y-57541313D01*
X107958196Y-57529000D01*
X108041804Y-57529000D01*
X108166823Y-57541313D01*
X108166823Y-57541313D01*
G37*
G36*
X75166823Y-55701313D02*
G01*
X75327242Y-55749976D01*
X75459906Y-55820886D01*
X75475078Y-55828996D01*
X75604659Y-55935341D01*
X75711004Y-56064922D01*
X75711005Y-56064924D01*
X75790024Y-56212758D01*
X75838687Y-56373177D01*
X75855117Y-56540000D01*
X75838687Y-56706823D01*
X75790024Y-56867242D01*
X75746323Y-56949000D01*
X75711004Y-57015078D01*
X75604659Y-57144659D01*
X75475078Y-57251004D01*
X75475076Y-57251005D01*
X75327242Y-57330024D01*
X75166823Y-57378687D01*
X75041804Y-57391000D01*
X74958196Y-57391000D01*
X74833177Y-57378687D01*
X74672758Y-57330024D01*
X74524924Y-57251005D01*
X74524922Y-57251004D01*
X74395341Y-57144659D01*
X74288996Y-57015078D01*
X74253677Y-56949000D01*
X74209976Y-56867242D01*
X74161313Y-56706823D01*
X74144883Y-56540000D01*
X74161313Y-56373177D01*
X74209976Y-56212758D01*
X74288995Y-56064924D01*
X74288996Y-56064922D01*
X74395341Y-55935341D01*
X74524922Y-55828996D01*
X74540094Y-55820886D01*
X74672758Y-55749976D01*
X74833177Y-55701313D01*
X74958196Y-55689000D01*
X75041804Y-55689000D01*
X75166823Y-55701313D01*
X75166823Y-55701313D01*
G37*
G36*
X108166823Y-55001313D02*
G01*
X108327242Y-55049976D01*
X108459906Y-55120886D01*
X108475078Y-55128996D01*
X108604659Y-55235341D01*
X108711004Y-55364922D01*
X108711005Y-55364924D01*
X108790024Y-55512758D01*
X108838687Y-55673177D01*
X108855117Y-55840000D01*
X108838687Y-56006823D01*
X108790024Y-56167242D01*
X108719114Y-56299906D01*
X108711004Y-56315078D01*
X108604659Y-56444659D01*
X108475078Y-56551004D01*
X108475076Y-56551005D01*
X108327242Y-56630024D01*
X108166823Y-56678687D01*
X108041804Y-56691000D01*
X107958196Y-56691000D01*
X107833177Y-56678687D01*
X107672758Y-56630024D01*
X107524924Y-56551005D01*
X107524922Y-56551004D01*
X107395341Y-56444659D01*
X107288996Y-56315078D01*
X107280886Y-56299906D01*
X107209976Y-56167242D01*
X107161313Y-56006823D01*
X107144883Y-55840000D01*
X107161313Y-55673177D01*
X107209976Y-55512758D01*
X107288995Y-55364924D01*
X107288996Y-55364922D01*
X107395341Y-55235341D01*
X107524922Y-55128996D01*
X107540094Y-55120886D01*
X107672758Y-55049976D01*
X107833177Y-55001313D01*
X107958196Y-54989000D01*
X108041804Y-54989000D01*
X108166823Y-55001313D01*
X108166823Y-55001313D01*
G37*
G36*
X75166823Y-53161313D02*
G01*
X75327242Y-53209976D01*
X75459906Y-53280886D01*
X75475078Y-53288996D01*
X75604659Y-53395341D01*
X75711004Y-53524922D01*
X75711005Y-53524924D01*
X75790024Y-53672758D01*
X75838687Y-53833177D01*
X75855117Y-54000000D01*
X75838687Y-54166823D01*
X75790024Y-54327242D01*
X75719114Y-54459906D01*
X75711004Y-54475078D01*
X75604659Y-54604659D01*
X75475078Y-54711004D01*
X75475076Y-54711005D01*
X75327242Y-54790024D01*
X75166823Y-54838687D01*
X75041804Y-54851000D01*
X74958196Y-54851000D01*
X74833177Y-54838687D01*
X74672758Y-54790024D01*
X74524924Y-54711005D01*
X74524922Y-54711004D01*
X74395341Y-54604659D01*
X74288996Y-54475078D01*
X74280886Y-54459906D01*
X74209976Y-54327242D01*
X74161313Y-54166823D01*
X74144883Y-54000000D01*
X74161313Y-53833177D01*
X74209976Y-53672758D01*
X74288995Y-53524924D01*
X74288996Y-53524922D01*
X74395341Y-53395341D01*
X74524922Y-53288996D01*
X74540094Y-53280886D01*
X74672758Y-53209976D01*
X74833177Y-53161313D01*
X74958196Y-53149000D01*
X75041804Y-53149000D01*
X75166823Y-53161313D01*
X75166823Y-53161313D01*
G37*
G36*
X108166823Y-52461313D02*
G01*
X108327242Y-52509976D01*
X108459906Y-52580886D01*
X108475078Y-52588996D01*
X108604659Y-52695341D01*
X108711004Y-52824922D01*
X108711005Y-52824924D01*
X108790024Y-52972758D01*
X108838687Y-53133177D01*
X108855117Y-53300000D01*
X108838687Y-53466823D01*
X108790024Y-53627242D01*
X108719114Y-53759906D01*
X108711004Y-53775078D01*
X108604659Y-53904659D01*
X108475078Y-54011004D01*
X108475076Y-54011005D01*
X108327242Y-54090024D01*
X108166823Y-54138687D01*
X108041804Y-54151000D01*
X107958196Y-54151000D01*
X107833177Y-54138687D01*
X107672758Y-54090024D01*
X107524924Y-54011005D01*
X107524922Y-54011004D01*
X107395341Y-53904659D01*
X107288996Y-53775078D01*
X107280886Y-53759906D01*
X107209976Y-53627242D01*
X107161313Y-53466823D01*
X107144883Y-53300000D01*
X107161313Y-53133177D01*
X107209976Y-52972758D01*
X107288995Y-52824924D01*
X107288996Y-52824922D01*
X107395341Y-52695341D01*
X107524922Y-52588996D01*
X107540094Y-52580886D01*
X107672758Y-52509976D01*
X107833177Y-52461313D01*
X107958196Y-52449000D01*
X108041804Y-52449000D01*
X108166823Y-52461313D01*
X108166823Y-52461313D01*
G37*
G36*
X75851000Y-50851000D02*
G01*
X74149000Y-50851000D01*
X74149000Y-49149000D01*
X75851000Y-49149000D01*
X75851000Y-50851000D01*
X75851000Y-50851000D01*
G37*
G36*
X108851000Y-50551000D02*
G01*
X107149000Y-50551000D01*
X107149000Y-48849000D01*
X108851000Y-48849000D01*
X108851000Y-50551000D01*
X108851000Y-50551000D01*
G37*
G36*
X75166823Y-46621313D02*
G01*
X75327242Y-46669976D01*
X75459906Y-46740886D01*
X75475078Y-46748996D01*
X75604659Y-46855341D01*
X75711004Y-46984922D01*
X75711005Y-46984924D01*
X75790024Y-47132758D01*
X75838687Y-47293177D01*
X75855117Y-47460000D01*
X75838687Y-47626823D01*
X75790024Y-47787242D01*
X75741458Y-47878103D01*
X75711004Y-47935078D01*
X75604659Y-48064659D01*
X75475078Y-48171004D01*
X75475076Y-48171005D01*
X75327242Y-48250024D01*
X75166823Y-48298687D01*
X75041804Y-48311000D01*
X74958196Y-48311000D01*
X74833177Y-48298687D01*
X74672758Y-48250024D01*
X74524924Y-48171005D01*
X74524922Y-48171004D01*
X74395341Y-48064659D01*
X74288996Y-47935078D01*
X74258542Y-47878103D01*
X74209976Y-47787242D01*
X74161313Y-47626823D01*
X74144883Y-47460000D01*
X74161313Y-47293177D01*
X74209976Y-47132758D01*
X74288995Y-46984924D01*
X74288996Y-46984922D01*
X74395341Y-46855341D01*
X74524922Y-46748996D01*
X74540094Y-46740886D01*
X74672758Y-46669976D01*
X74833177Y-46621313D01*
X74958196Y-46609000D01*
X75041804Y-46609000D01*
X75166823Y-46621313D01*
X75166823Y-46621313D01*
G37*
G36*
X92103097Y-45954069D02*
G01*
X92206032Y-45964207D01*
X92404146Y-46024305D01*
X92404149Y-46024306D01*
X92500975Y-46076061D01*
X92586729Y-46121897D01*
X92746765Y-46253235D01*
X92878103Y-46413271D01*
X92897198Y-46448996D01*
X92975694Y-46595851D01*
X92975695Y-46595854D01*
X93035793Y-46793968D01*
X93056085Y-47000000D01*
X93035793Y-47206032D01*
X92999151Y-47326823D01*
X92975694Y-47404149D01*
X92945841Y-47460000D01*
X92878103Y-47586729D01*
X92746765Y-47746765D01*
X92586729Y-47878103D01*
X92500975Y-47923939D01*
X92404149Y-47975694D01*
X92404146Y-47975695D01*
X92206032Y-48035793D01*
X92103097Y-48045931D01*
X92051631Y-48051000D01*
X91948369Y-48051000D01*
X91896903Y-48045931D01*
X91793968Y-48035793D01*
X91595854Y-47975695D01*
X91595851Y-47975694D01*
X91499025Y-47923939D01*
X91413271Y-47878103D01*
X91253235Y-47746765D01*
X91121897Y-47586729D01*
X91054159Y-47460000D01*
X91024306Y-47404149D01*
X91000849Y-47326823D01*
X90964207Y-47206032D01*
X90943915Y-47000000D01*
X90964207Y-46793968D01*
X91024305Y-46595854D01*
X91024306Y-46595851D01*
X91102802Y-46448996D01*
X91121897Y-46413271D01*
X91253235Y-46253235D01*
X91413271Y-46121897D01*
X91499025Y-46076061D01*
X91595851Y-46024306D01*
X91595854Y-46024305D01*
X91793968Y-45964207D01*
X91896903Y-45954069D01*
X91948369Y-45949000D01*
X92051631Y-45949000D01*
X92103097Y-45954069D01*
X92103097Y-45954069D01*
G37*
G36*
X125103097Y-45954069D02*
G01*
X125206032Y-45964207D01*
X125404146Y-46024305D01*
X125404149Y-46024306D01*
X125500975Y-46076061D01*
X125586729Y-46121897D01*
X125746765Y-46253235D01*
X125878103Y-46413271D01*
X125897198Y-46448996D01*
X125975694Y-46595851D01*
X125975695Y-46595854D01*
X126035793Y-46793968D01*
X126056085Y-47000000D01*
X126035793Y-47206032D01*
X125999151Y-47326823D01*
X125975694Y-47404149D01*
X125945841Y-47460000D01*
X125878103Y-47586729D01*
X125746765Y-47746765D01*
X125586729Y-47878103D01*
X125500975Y-47923939D01*
X125404149Y-47975694D01*
X125404146Y-47975695D01*
X125206032Y-48035793D01*
X125103097Y-48045931D01*
X125051631Y-48051000D01*
X124948369Y-48051000D01*
X124896903Y-48045931D01*
X124793968Y-48035793D01*
X124595854Y-47975695D01*
X124595851Y-47975694D01*
X124499025Y-47923939D01*
X124413271Y-47878103D01*
X124253235Y-47746765D01*
X124121897Y-47586729D01*
X124054159Y-47460000D01*
X124024306Y-47404149D01*
X124000849Y-47326823D01*
X123964207Y-47206032D01*
X123943915Y-47000000D01*
X123964207Y-46793968D01*
X124024305Y-46595854D01*
X124024306Y-46595851D01*
X124102802Y-46448996D01*
X124121897Y-46413271D01*
X124253235Y-46253235D01*
X124413271Y-46121897D01*
X124499025Y-46076061D01*
X124595851Y-46024306D01*
X124595854Y-46024305D01*
X124793968Y-45964207D01*
X124896903Y-45954069D01*
X124948369Y-45949000D01*
X125051631Y-45949000D01*
X125103097Y-45954069D01*
X125103097Y-45954069D01*
G37*
G36*
X59103097Y-45954069D02*
G01*
X59206032Y-45964207D01*
X59404146Y-46024305D01*
X59404149Y-46024306D01*
X59500975Y-46076061D01*
X59586729Y-46121897D01*
X59746765Y-46253235D01*
X59878103Y-46413271D01*
X59897198Y-46448996D01*
X59975694Y-46595851D01*
X59975695Y-46595854D01*
X60035793Y-46793968D01*
X60056085Y-47000000D01*
X60035793Y-47206032D01*
X59999151Y-47326823D01*
X59975694Y-47404149D01*
X59945841Y-47460000D01*
X59878103Y-47586729D01*
X59746765Y-47746765D01*
X59586729Y-47878103D01*
X59500975Y-47923939D01*
X59404149Y-47975694D01*
X59404146Y-47975695D01*
X59206032Y-48035793D01*
X59103097Y-48045931D01*
X59051631Y-48051000D01*
X58948369Y-48051000D01*
X58896903Y-48045931D01*
X58793968Y-48035793D01*
X58595854Y-47975695D01*
X58595851Y-47975694D01*
X58499025Y-47923939D01*
X58413271Y-47878103D01*
X58253235Y-47746765D01*
X58121897Y-47586729D01*
X58054159Y-47460000D01*
X58024306Y-47404149D01*
X58000849Y-47326823D01*
X57964207Y-47206032D01*
X57943915Y-47000000D01*
X57964207Y-46793968D01*
X58024305Y-46595854D01*
X58024306Y-46595851D01*
X58102802Y-46448996D01*
X58121897Y-46413271D01*
X58253235Y-46253235D01*
X58413271Y-46121897D01*
X58499025Y-46076061D01*
X58595851Y-46024306D01*
X58595854Y-46024305D01*
X58793968Y-45964207D01*
X58896903Y-45954069D01*
X58948369Y-45949000D01*
X59051631Y-45949000D01*
X59103097Y-45954069D01*
X59103097Y-45954069D01*
G37*
G36*
X108166823Y-46321313D02*
G01*
X108327242Y-46369976D01*
X108408241Y-46413271D01*
X108475078Y-46448996D01*
X108604659Y-46555341D01*
X108711004Y-46684922D01*
X108711005Y-46684924D01*
X108790024Y-46832758D01*
X108838687Y-46993177D01*
X108855117Y-47160000D01*
X108838687Y-47326823D01*
X108790024Y-47487242D01*
X108736847Y-47586729D01*
X108711004Y-47635078D01*
X108604659Y-47764659D01*
X108475078Y-47871004D01*
X108475076Y-47871005D01*
X108327242Y-47950024D01*
X108166823Y-47998687D01*
X108041804Y-48011000D01*
X107958196Y-48011000D01*
X107833177Y-47998687D01*
X107672758Y-47950024D01*
X107524924Y-47871005D01*
X107524922Y-47871004D01*
X107395341Y-47764659D01*
X107288996Y-47635078D01*
X107263153Y-47586729D01*
X107209976Y-47487242D01*
X107161313Y-47326823D01*
X107144883Y-47160000D01*
X107161313Y-46993177D01*
X107209976Y-46832758D01*
X107288995Y-46684924D01*
X107288996Y-46684922D01*
X107395341Y-46555341D01*
X107524922Y-46448996D01*
X107591759Y-46413271D01*
X107672758Y-46369976D01*
X107833177Y-46321313D01*
X107958196Y-46309000D01*
X108041804Y-46309000D01*
X108166823Y-46321313D01*
X108166823Y-46321313D01*
G37*
G36*
X75166823Y-44081313D02*
G01*
X75327242Y-44129976D01*
X75459906Y-44200886D01*
X75475078Y-44208996D01*
X75604659Y-44315341D01*
X75711004Y-44444922D01*
X75711005Y-44444924D01*
X75790024Y-44592758D01*
X75838687Y-44753177D01*
X75855117Y-44920000D01*
X75838687Y-45086823D01*
X75790024Y-45247242D01*
X75719114Y-45379906D01*
X75711004Y-45395078D01*
X75604659Y-45524659D01*
X75475078Y-45631004D01*
X75475076Y-45631005D01*
X75327242Y-45710024D01*
X75166823Y-45758687D01*
X75041804Y-45771000D01*
X74958196Y-45771000D01*
X74833177Y-45758687D01*
X74672758Y-45710024D01*
X74524924Y-45631005D01*
X74524922Y-45631004D01*
X74395341Y-45524659D01*
X74288996Y-45395078D01*
X74280886Y-45379906D01*
X74209976Y-45247242D01*
X74161313Y-45086823D01*
X74144883Y-44920000D01*
X74161313Y-44753177D01*
X74209976Y-44592758D01*
X74288995Y-44444924D01*
X74288996Y-44444922D01*
X74395341Y-44315341D01*
X74524922Y-44208996D01*
X74540094Y-44200886D01*
X74672758Y-44129976D01*
X74833177Y-44081313D01*
X74958196Y-44069000D01*
X75041804Y-44069000D01*
X75166823Y-44081313D01*
X75166823Y-44081313D01*
G37*
G36*
X108166823Y-43781313D02*
G01*
X108327242Y-43829976D01*
X108459906Y-43900886D01*
X108475078Y-43908996D01*
X108604659Y-44015341D01*
X108711004Y-44144922D01*
X108711005Y-44144924D01*
X108790024Y-44292758D01*
X108838687Y-44453177D01*
X108855117Y-44620000D01*
X108838687Y-44786823D01*
X108790024Y-44947242D01*
X108719114Y-45079906D01*
X108711004Y-45095078D01*
X108604659Y-45224659D01*
X108475078Y-45331004D01*
X108475076Y-45331005D01*
X108327242Y-45410024D01*
X108166823Y-45458687D01*
X108041804Y-45471000D01*
X107958196Y-45471000D01*
X107833177Y-45458687D01*
X107672758Y-45410024D01*
X107524924Y-45331005D01*
X107524922Y-45331004D01*
X107395341Y-45224659D01*
X107288996Y-45095078D01*
X107280886Y-45079906D01*
X107209976Y-44947242D01*
X107161313Y-44786823D01*
X107144883Y-44620000D01*
X107161313Y-44453177D01*
X107209976Y-44292758D01*
X107288995Y-44144924D01*
X107288996Y-44144922D01*
X107395341Y-44015341D01*
X107524922Y-43908996D01*
X107540094Y-43900886D01*
X107672758Y-43829976D01*
X107833177Y-43781313D01*
X107958196Y-43769000D01*
X108041804Y-43769000D01*
X108166823Y-43781313D01*
X108166823Y-43781313D01*
G37*
G36*
X75166823Y-41541313D02*
G01*
X75327242Y-41589976D01*
X75418024Y-41638500D01*
X75475078Y-41668996D01*
X75604659Y-41775341D01*
X75711004Y-41904922D01*
X75711005Y-41904924D01*
X75790024Y-42052758D01*
X75838687Y-42213177D01*
X75855117Y-42380000D01*
X75838687Y-42546823D01*
X75790024Y-42707242D01*
X75726546Y-42826000D01*
X75711004Y-42855078D01*
X75604659Y-42984659D01*
X75475078Y-43091004D01*
X75475076Y-43091005D01*
X75327242Y-43170024D01*
X75166823Y-43218687D01*
X75041804Y-43231000D01*
X74958196Y-43231000D01*
X74833177Y-43218687D01*
X74672758Y-43170024D01*
X74524924Y-43091005D01*
X74524922Y-43091004D01*
X74395341Y-42984659D01*
X74288996Y-42855078D01*
X74273454Y-42826000D01*
X74209976Y-42707242D01*
X74161313Y-42546823D01*
X74144883Y-42380000D01*
X74161313Y-42213177D01*
X74209976Y-42052758D01*
X74288995Y-41904924D01*
X74288996Y-41904922D01*
X74395341Y-41775341D01*
X74524922Y-41668996D01*
X74581976Y-41638500D01*
X74672758Y-41589976D01*
X74833177Y-41541313D01*
X74958196Y-41529000D01*
X75041804Y-41529000D01*
X75166823Y-41541313D01*
X75166823Y-41541313D01*
G37*
G36*
X134889943Y-37066248D02*
G01*
X135445189Y-37296238D01*
X135617497Y-37411371D01*
X135944899Y-37630134D01*
X136369866Y-38055101D01*
X136537948Y-38306653D01*
X136703762Y-38554811D01*
X136933752Y-39110057D01*
X137051000Y-39699501D01*
X137051000Y-40300499D01*
X136933752Y-40889943D01*
X136703762Y-41445189D01*
X136597030Y-41604924D01*
X136369866Y-41944899D01*
X135944899Y-42369866D01*
X135870736Y-42419420D01*
X135445189Y-42703762D01*
X134889943Y-42933752D01*
X134300499Y-43051000D01*
X133699501Y-43051000D01*
X133110057Y-42933752D01*
X132554811Y-42703762D01*
X132129264Y-42419420D01*
X132055101Y-42369866D01*
X131630134Y-41944899D01*
X131402970Y-41604924D01*
X131296238Y-41445189D01*
X131066248Y-40889943D01*
X130949000Y-40300499D01*
X130949000Y-39699501D01*
X131066248Y-39110057D01*
X131296238Y-38554811D01*
X131462052Y-38306653D01*
X131630134Y-38055101D01*
X132055101Y-37630134D01*
X132382503Y-37411371D01*
X132554811Y-37296238D01*
X133110057Y-37066248D01*
X133699501Y-36949000D01*
X134300499Y-36949000D01*
X134889943Y-37066248D01*
X134889943Y-37066248D01*
G37*
G36*
X50889943Y-37066248D02*
G01*
X51445189Y-37296238D01*
X51617497Y-37411371D01*
X51944899Y-37630134D01*
X52369866Y-38055101D01*
X52537948Y-38306653D01*
X52703762Y-38554811D01*
X52933752Y-39110057D01*
X53051000Y-39699501D01*
X53051000Y-40300499D01*
X52933752Y-40889943D01*
X52703762Y-41445189D01*
X52597030Y-41604924D01*
X52369866Y-41944899D01*
X51944899Y-42369866D01*
X51870736Y-42419420D01*
X51445189Y-42703762D01*
X50889943Y-42933752D01*
X50300499Y-43051000D01*
X49699501Y-43051000D01*
X49110057Y-42933752D01*
X48554811Y-42703762D01*
X48129264Y-42419420D01*
X48055101Y-42369866D01*
X47630134Y-41944899D01*
X47402970Y-41604924D01*
X47296238Y-41445189D01*
X47066248Y-40889943D01*
X46949000Y-40300499D01*
X46949000Y-39699501D01*
X47066248Y-39110057D01*
X47296238Y-38554811D01*
X47462052Y-38306653D01*
X47630134Y-38055101D01*
X48055101Y-37630134D01*
X48382503Y-37411371D01*
X48554811Y-37296238D01*
X49110057Y-37066248D01*
X49699501Y-36949000D01*
X50300499Y-36949000D01*
X50889943Y-37066248D01*
X50889943Y-37066248D01*
G37*
G36*
X68889943Y-37066248D02*
G01*
X69445189Y-37296238D01*
X69617497Y-37411371D01*
X69944899Y-37630134D01*
X70369866Y-38055101D01*
X70537948Y-38306653D01*
X70703762Y-38554811D01*
X70933752Y-39110057D01*
X71051000Y-39699501D01*
X71051000Y-40300499D01*
X70933752Y-40889943D01*
X70703762Y-41445189D01*
X70597030Y-41604924D01*
X70369866Y-41944899D01*
X69944899Y-42369866D01*
X69870736Y-42419420D01*
X69445189Y-42703762D01*
X68889943Y-42933752D01*
X68300499Y-43051000D01*
X67699501Y-43051000D01*
X67110057Y-42933752D01*
X66554811Y-42703762D01*
X66129264Y-42419420D01*
X66055101Y-42369866D01*
X65630134Y-41944899D01*
X65402970Y-41604924D01*
X65296238Y-41445189D01*
X65066248Y-40889943D01*
X64949000Y-40300499D01*
X64949000Y-39699501D01*
X65066248Y-39110057D01*
X65296238Y-38554811D01*
X65462052Y-38306653D01*
X65630134Y-38055101D01*
X66055101Y-37630134D01*
X66382503Y-37411371D01*
X66554811Y-37296238D01*
X67110057Y-37066248D01*
X67699501Y-36949000D01*
X68300499Y-36949000D01*
X68889943Y-37066248D01*
X68889943Y-37066248D01*
G37*
G36*
X83889943Y-37066248D02*
G01*
X84445189Y-37296238D01*
X84617497Y-37411371D01*
X84944899Y-37630134D01*
X85369866Y-38055101D01*
X85537948Y-38306653D01*
X85703762Y-38554811D01*
X85933752Y-39110057D01*
X86051000Y-39699501D01*
X86051000Y-40300499D01*
X85933752Y-40889943D01*
X85703762Y-41445189D01*
X85597030Y-41604924D01*
X85369866Y-41944899D01*
X84944899Y-42369866D01*
X84870736Y-42419420D01*
X84445189Y-42703762D01*
X83889943Y-42933752D01*
X83300499Y-43051000D01*
X82699501Y-43051000D01*
X82110057Y-42933752D01*
X81554811Y-42703762D01*
X81129264Y-42419420D01*
X81055101Y-42369866D01*
X80630134Y-41944899D01*
X80402970Y-41604924D01*
X80296238Y-41445189D01*
X80066248Y-40889943D01*
X79949000Y-40300499D01*
X79949000Y-39699501D01*
X80066248Y-39110057D01*
X80296238Y-38554811D01*
X80462052Y-38306653D01*
X80630134Y-38055101D01*
X81055101Y-37630134D01*
X81382503Y-37411371D01*
X81554811Y-37296238D01*
X82110057Y-37066248D01*
X82699501Y-36949000D01*
X83300499Y-36949000D01*
X83889943Y-37066248D01*
X83889943Y-37066248D01*
G37*
G36*
X101889943Y-37066248D02*
G01*
X102445189Y-37296238D01*
X102617497Y-37411371D01*
X102944899Y-37630134D01*
X103369866Y-38055101D01*
X103537948Y-38306653D01*
X103703762Y-38554811D01*
X103933752Y-39110057D01*
X104051000Y-39699501D01*
X104051000Y-40300499D01*
X103933752Y-40889943D01*
X103703762Y-41445189D01*
X103597030Y-41604924D01*
X103369866Y-41944899D01*
X102944899Y-42369866D01*
X102870736Y-42419420D01*
X102445189Y-42703762D01*
X101889943Y-42933752D01*
X101300499Y-43051000D01*
X100699501Y-43051000D01*
X100110057Y-42933752D01*
X99554811Y-42703762D01*
X99129264Y-42419420D01*
X99055101Y-42369866D01*
X98630134Y-41944899D01*
X98402970Y-41604924D01*
X98296238Y-41445189D01*
X98066248Y-40889943D01*
X97949000Y-40300499D01*
X97949000Y-39699501D01*
X98066248Y-39110057D01*
X98296238Y-38554811D01*
X98462052Y-38306653D01*
X98630134Y-38055101D01*
X99055101Y-37630134D01*
X99382503Y-37411371D01*
X99554811Y-37296238D01*
X100110057Y-37066248D01*
X100699501Y-36949000D01*
X101300499Y-36949000D01*
X101889943Y-37066248D01*
X101889943Y-37066248D01*
G37*
G36*
X116889943Y-37066248D02*
G01*
X117445189Y-37296238D01*
X117617497Y-37411371D01*
X117944899Y-37630134D01*
X118369866Y-38055101D01*
X118537948Y-38306653D01*
X118703762Y-38554811D01*
X118933752Y-39110057D01*
X119051000Y-39699501D01*
X119051000Y-40300499D01*
X118933752Y-40889943D01*
X118703762Y-41445189D01*
X118597030Y-41604924D01*
X118369866Y-41944899D01*
X117944899Y-42369866D01*
X117870736Y-42419420D01*
X117445189Y-42703762D01*
X116889943Y-42933752D01*
X116300499Y-43051000D01*
X115699501Y-43051000D01*
X115110057Y-42933752D01*
X114554811Y-42703762D01*
X114129264Y-42419420D01*
X114055101Y-42369866D01*
X113630134Y-41944899D01*
X113402970Y-41604924D01*
X113296238Y-41445189D01*
X113066248Y-40889943D01*
X112949000Y-40300499D01*
X112949000Y-39699501D01*
X113066248Y-39110057D01*
X113296238Y-38554811D01*
X113462052Y-38306653D01*
X113630134Y-38055101D01*
X114055101Y-37630134D01*
X114382503Y-37411371D01*
X114554811Y-37296238D01*
X115110057Y-37066248D01*
X115699501Y-36949000D01*
X116300499Y-36949000D01*
X116889943Y-37066248D01*
X116889943Y-37066248D01*
G37*
G36*
X108166823Y-41241313D02*
G01*
X108327242Y-41289976D01*
X108381639Y-41319052D01*
X108475078Y-41368996D01*
X108604659Y-41475341D01*
X108711004Y-41604922D01*
X108711005Y-41604924D01*
X108790024Y-41752758D01*
X108838687Y-41913177D01*
X108855117Y-42080000D01*
X108838687Y-42246823D01*
X108790024Y-42407242D01*
X108719114Y-42539906D01*
X108711004Y-42555078D01*
X108604659Y-42684659D01*
X108475078Y-42791004D01*
X108475076Y-42791005D01*
X108327242Y-42870024D01*
X108166823Y-42918687D01*
X108041804Y-42931000D01*
X107958196Y-42931000D01*
X107833177Y-42918687D01*
X107672758Y-42870024D01*
X107524924Y-42791005D01*
X107524922Y-42791004D01*
X107395341Y-42684659D01*
X107288996Y-42555078D01*
X107280886Y-42539906D01*
X107209976Y-42407242D01*
X107161313Y-42246823D01*
X107144883Y-42080000D01*
X107161313Y-41913177D01*
X107209976Y-41752758D01*
X107288995Y-41604924D01*
X107288996Y-41604922D01*
X107395341Y-41475341D01*
X107524922Y-41368996D01*
X107618361Y-41319052D01*
X107672758Y-41289976D01*
X107833177Y-41241313D01*
X107958196Y-41229000D01*
X108041804Y-41229000D01*
X108166823Y-41241313D01*
X108166823Y-41241313D01*
G37*
G36*
X75166823Y-39001313D02*
G01*
X75327242Y-39049976D01*
X75459906Y-39120886D01*
X75475078Y-39128996D01*
X75604659Y-39235341D01*
X75711004Y-39364922D01*
X75711005Y-39364924D01*
X75790024Y-39512758D01*
X75838687Y-39673177D01*
X75855117Y-39840000D01*
X75838687Y-40006823D01*
X75790024Y-40167242D01*
X75719114Y-40299906D01*
X75711004Y-40315078D01*
X75604659Y-40444659D01*
X75475078Y-40551004D01*
X75475076Y-40551005D01*
X75327242Y-40630024D01*
X75166823Y-40678687D01*
X75041804Y-40691000D01*
X74958196Y-40691000D01*
X74833177Y-40678687D01*
X74672758Y-40630024D01*
X74524924Y-40551005D01*
X74524922Y-40551004D01*
X74395341Y-40444659D01*
X74288996Y-40315078D01*
X74280886Y-40299906D01*
X74209976Y-40167242D01*
X74161313Y-40006823D01*
X74144883Y-39840000D01*
X74161313Y-39673177D01*
X74209976Y-39512758D01*
X74288995Y-39364924D01*
X74288996Y-39364922D01*
X74395341Y-39235341D01*
X74524922Y-39128996D01*
X74540094Y-39120886D01*
X74672758Y-39049976D01*
X74833177Y-39001313D01*
X74958196Y-38989000D01*
X75041804Y-38989000D01*
X75166823Y-39001313D01*
X75166823Y-39001313D01*
G37*
G36*
X108166823Y-38701313D02*
G01*
X108327242Y-38749976D01*
X108459906Y-38820886D01*
X108475078Y-38828996D01*
X108604659Y-38935341D01*
X108711004Y-39064922D01*
X108711005Y-39064924D01*
X108790024Y-39212758D01*
X108838687Y-39373177D01*
X108855117Y-39540000D01*
X108838687Y-39706823D01*
X108790024Y-39867242D01*
X108719114Y-39999906D01*
X108711004Y-40015078D01*
X108604659Y-40144659D01*
X108475078Y-40251004D01*
X108475076Y-40251005D01*
X108327242Y-40330024D01*
X108166823Y-40378687D01*
X108041804Y-40391000D01*
X107958196Y-40391000D01*
X107833177Y-40378687D01*
X107672758Y-40330024D01*
X107524924Y-40251005D01*
X107524922Y-40251004D01*
X107395341Y-40144659D01*
X107288996Y-40015078D01*
X107280886Y-39999906D01*
X107209976Y-39867242D01*
X107161313Y-39706823D01*
X107144883Y-39540000D01*
X107161313Y-39373177D01*
X107209976Y-39212758D01*
X107288995Y-39064924D01*
X107288996Y-39064922D01*
X107395341Y-38935341D01*
X107524922Y-38828996D01*
X107540094Y-38820886D01*
X107672758Y-38749976D01*
X107833177Y-38701313D01*
X107958196Y-38689000D01*
X108041804Y-38689000D01*
X108166823Y-38701313D01*
X108166823Y-38701313D01*
G37*
G36*
X75166823Y-36461313D02*
G01*
X75327242Y-36509976D01*
X75459906Y-36580886D01*
X75475078Y-36588996D01*
X75604659Y-36695341D01*
X75711004Y-36824922D01*
X75711005Y-36824924D01*
X75790024Y-36972758D01*
X75838687Y-37133177D01*
X75855117Y-37300000D01*
X75838687Y-37466823D01*
X75790024Y-37627242D01*
X75720906Y-37756552D01*
X75711004Y-37775078D01*
X75604659Y-37904659D01*
X75475078Y-38011004D01*
X75475076Y-38011005D01*
X75327242Y-38090024D01*
X75166823Y-38138687D01*
X75041804Y-38151000D01*
X74958196Y-38151000D01*
X74833177Y-38138687D01*
X74672758Y-38090024D01*
X74524924Y-38011005D01*
X74524922Y-38011004D01*
X74395341Y-37904659D01*
X74288996Y-37775078D01*
X74279094Y-37756552D01*
X74209976Y-37627242D01*
X74161313Y-37466823D01*
X74144883Y-37300000D01*
X74161313Y-37133177D01*
X74209976Y-36972758D01*
X74288995Y-36824924D01*
X74288996Y-36824922D01*
X74395341Y-36695341D01*
X74524922Y-36588996D01*
X74540094Y-36580886D01*
X74672758Y-36509976D01*
X74833177Y-36461313D01*
X74958196Y-36449000D01*
X75041804Y-36449000D01*
X75166823Y-36461313D01*
X75166823Y-36461313D01*
G37*
G36*
X108166823Y-36161313D02*
G01*
X108327242Y-36209976D01*
X108459906Y-36280886D01*
X108475078Y-36288996D01*
X108604659Y-36395341D01*
X108711004Y-36524922D01*
X108711005Y-36524924D01*
X108790024Y-36672758D01*
X108838687Y-36833177D01*
X108855117Y-37000000D01*
X108838687Y-37166823D01*
X108790024Y-37327242D01*
X108745056Y-37411371D01*
X108711004Y-37475078D01*
X108604659Y-37604659D01*
X108475078Y-37711004D01*
X108475076Y-37711005D01*
X108327242Y-37790024D01*
X108166823Y-37838687D01*
X108041804Y-37851000D01*
X107958196Y-37851000D01*
X107833177Y-37838687D01*
X107672758Y-37790024D01*
X107524924Y-37711005D01*
X107524922Y-37711004D01*
X107395341Y-37604659D01*
X107288996Y-37475078D01*
X107254944Y-37411371D01*
X107209976Y-37327242D01*
X107161313Y-37166823D01*
X107144883Y-37000000D01*
X107161313Y-36833177D01*
X107209976Y-36672758D01*
X107288995Y-36524924D01*
X107288996Y-36524922D01*
X107395341Y-36395341D01*
X107524922Y-36288996D01*
X107540094Y-36280886D01*
X107672758Y-36209976D01*
X107833177Y-36161313D01*
X107958196Y-36149000D01*
X108041804Y-36149000D01*
X108166823Y-36161313D01*
X108166823Y-36161313D01*
G37*
M02*
