M48
; DRILL file {KiCad (5.1.4)-1} date 2021/2/25 21:00:52
; FORMAT={-:-/ absolute / metric / decimal}
; #@! TF.CreationDate,2021-02-25T21:00:52+08:00
; #@! TF.GenerationSoftware,Kicad,Pcbnew,(5.1.4)-1
; #@! TF.FileFunction,Plated,1,2,PTH
FMAT,2
METRIC
T1C0.400
T2C0.800
T3C1.000
T4C3.500
%
G90
G05
T1
X46.0Y-55.0
X46.0Y-75.0
X46.0Y-95.0
X47.0Y-51.0
X47.0Y-71.0
X47.0Y-91.0
X48.0Y-46.0
X48.0Y-50.0
X48.0Y-66.0
X48.0Y-70.0
X48.0Y-86.0
X48.0Y-90.0
X48.0Y-109.0
X48.0Y-113.0
X48.54Y-55.0
X48.54Y-75.0
X48.54Y-95.0
X49.54Y-51.0
X49.54Y-71.0
X49.54Y-91.0
X51.08Y-55.0
X51.08Y-75.0
X51.08Y-95.0
X52.0Y-46.0
X52.0Y-50.0
X52.0Y-66.0
X52.0Y-70.0
X52.0Y-86.0
X52.0Y-90.0
X52.0Y-109.0
X52.0Y-113.0
X52.08Y-51.0
X52.08Y-71.0
X52.08Y-91.0
X53.62Y-55.0
X53.62Y-75.0
X53.62Y-95.0
X54.62Y-51.0
X54.62Y-71.0
X54.62Y-91.0
X56.0Y-46.0
X56.0Y-50.0
X56.0Y-66.0
X56.0Y-70.0
X56.0Y-86.0
X56.0Y-90.0
X56.0Y-109.0
X56.0Y-113.0
X56.16Y-55.0
X56.16Y-75.0
X56.16Y-95.0
X57.16Y-51.0
X57.16Y-71.0
X57.16Y-91.0
X58.7Y-55.0
X58.7Y-75.0
X58.7Y-95.0
X59.7Y-51.0
X59.7Y-71.0
X59.7Y-91.0
X61.0Y-46.0
X61.0Y-50.0
X61.0Y-66.0
X61.0Y-70.0
X61.0Y-86.0
X61.0Y-90.0
X61.0Y-109.0
X61.0Y-113.0
X61.24Y-55.0
X61.24Y-75.0
X61.24Y-95.0
X62.24Y-51.0
X62.24Y-71.0
X62.24Y-91.0
X63.78Y-55.0
X63.78Y-75.0
X63.78Y-95.0
X64.78Y-51.0
X64.78Y-71.0
X64.78Y-91.0
X65.0Y-46.0
X65.0Y-50.0
X65.0Y-66.0
X65.0Y-70.0
X65.0Y-86.0
X65.0Y-90.0
X65.0Y-109.0
X65.0Y-113.0
X66.32Y-55.0
X66.32Y-75.0
X66.32Y-95.0
X67.32Y-51.0
X67.32Y-71.0
X67.32Y-91.0
X68.86Y-55.0
X68.86Y-75.0
X68.86Y-95.0
X69.86Y-51.0
X69.86Y-71.0
X69.86Y-91.0
X70.0Y-46.0
X70.0Y-50.0
X70.0Y-66.0
X70.0Y-70.0
X70.0Y-86.0
X70.0Y-90.0
X70.0Y-109.0
X70.0Y-113.0
X71.4Y-55.0
X71.4Y-75.0
X71.4Y-95.0
X72.4Y-51.0
X72.4Y-71.0
X72.4Y-91.0
X73.94Y-55.0
X73.94Y-75.0
X73.94Y-95.0
X74.94Y-51.0
X74.94Y-71.0
X74.94Y-91.0
X76.48Y-55.0
X76.48Y-75.0
X76.48Y-95.0
X77.48Y-51.0
X77.48Y-71.0
X77.48Y-91.0
X79.02Y-55.0
X79.02Y-75.0
X79.02Y-95.0
X80.02Y-51.0
X80.02Y-71.0
X80.02Y-91.0
X81.0Y-46.0
X81.0Y-50.0
X81.0Y-66.0
X81.0Y-70.0
X81.0Y-86.0
X81.0Y-90.0
X81.0Y-109.0
X81.0Y-113.0
X81.56Y-55.0
X81.56Y-75.0
X81.56Y-95.0
X82.56Y-51.0
X82.56Y-71.0
X82.56Y-91.0
X84.1Y-55.0
X84.1Y-75.0
X84.1Y-95.0
X85.0Y-46.0
X85.0Y-50.0
X85.0Y-66.0
X85.0Y-70.0
X85.0Y-86.0
X85.0Y-90.0
X85.0Y-109.0
X85.0Y-113.0
X85.1Y-51.0
X85.1Y-71.0
X85.1Y-91.0
X86.64Y-55.0
X86.64Y-75.0
X86.64Y-95.0
X87.64Y-51.0
X87.64Y-71.0
X87.64Y-91.0
X89.0Y-46.0
X89.0Y-50.0
X89.0Y-66.0
X89.0Y-70.0
X89.0Y-86.0
X89.0Y-90.0
X89.0Y-109.0
X89.0Y-113.0
X89.18Y-55.0
X89.18Y-75.0
X89.18Y-95.0
X90.18Y-51.0
X90.18Y-71.0
X90.18Y-91.0
X91.72Y-55.0
X91.72Y-75.0
X91.72Y-95.0
X92.72Y-51.0
X92.72Y-71.0
X92.72Y-91.0
X94.0Y-46.0
X94.0Y-50.0
X94.0Y-66.0
X94.0Y-70.0
X94.0Y-86.0
X94.0Y-90.0
X94.0Y-109.0
X94.0Y-113.0
X94.26Y-55.0
X94.26Y-75.0
X94.26Y-95.0
X95.26Y-51.0
X95.26Y-71.0
X95.26Y-91.0
X96.8Y-55.0
X96.8Y-75.0
X96.8Y-95.0
X97.8Y-51.0
X97.8Y-71.0
X97.8Y-91.0
X98.0Y-46.0
X98.0Y-50.0
X98.0Y-66.0
X98.0Y-70.0
X98.0Y-86.0
X98.0Y-90.0
X98.0Y-109.0
X98.0Y-113.0
X99.34Y-55.0
X99.34Y-75.0
X99.34Y-95.0
X100.34Y-51.0
X100.34Y-71.0
X100.34Y-91.0
X101.88Y-55.0
X101.88Y-75.0
X101.88Y-95.0
X102.88Y-51.0
X102.88Y-71.0
X102.88Y-91.0
X103.0Y-46.0
X103.0Y-50.0
X103.0Y-66.0
X103.0Y-70.0
X103.0Y-86.0
X103.0Y-90.0
X103.0Y-109.0
X103.0Y-113.0
X104.42Y-55.0
X104.42Y-75.0
X104.42Y-95.0
X105.42Y-51.0
X105.42Y-71.0
X105.42Y-91.0
X106.96Y-55.0
X106.96Y-75.0
X106.96Y-95.0
X107.96Y-51.0
X107.96Y-71.0
X107.96Y-91.0
X109.5Y-55.0
X109.5Y-75.0
X109.5Y-95.0
X110.5Y-51.0
X110.5Y-71.0
X110.5Y-91.0
X112.04Y-55.0
X112.04Y-75.0
X112.04Y-95.0
X113.04Y-51.0
X113.04Y-71.0
X113.04Y-91.0
X114.0Y-46.0
X114.0Y-50.0
X114.0Y-66.0
X114.0Y-70.0
X114.0Y-86.0
X114.0Y-90.0
X114.0Y-109.0
X114.0Y-113.0
X114.58Y-55.0
X114.58Y-75.0
X114.58Y-95.0
X115.58Y-51.0
X115.58Y-71.0
X115.58Y-91.0
X117.12Y-55.0
X117.12Y-75.0
X117.12Y-95.0
X118.0Y-46.0
X118.0Y-50.0
X118.0Y-66.0
X118.0Y-70.0
X118.0Y-86.0
X118.0Y-90.0
X118.0Y-109.0
X118.0Y-113.0
X118.12Y-51.0
X118.12Y-71.0
X118.12Y-91.0
X119.66Y-55.0
X119.66Y-75.0
X119.66Y-95.0
X120.66Y-51.0
X120.66Y-71.0
X120.66Y-91.0
X122.0Y-46.0
X122.0Y-50.0
X122.0Y-66.0
X122.0Y-70.0
X122.0Y-86.0
X122.0Y-90.0
X122.0Y-109.0
X122.0Y-113.0
X122.2Y-55.0
X122.2Y-75.0
X122.2Y-95.0
X123.2Y-51.0
X123.2Y-71.0
X123.2Y-91.0
X124.74Y-55.0
X124.74Y-75.0
X124.74Y-95.0
X125.74Y-51.0
X125.74Y-71.0
X125.74Y-91.0
X127.0Y-46.0
X127.0Y-50.0
X127.0Y-66.0
X127.0Y-70.0
X127.0Y-86.0
X127.0Y-90.0
X127.0Y-109.0
X127.0Y-113.0
X127.28Y-55.0
X127.28Y-75.0
X127.28Y-95.0
X128.28Y-51.0
X128.28Y-71.0
X128.28Y-91.0
X129.82Y-55.0
X129.82Y-75.0
X129.82Y-95.0
X130.82Y-51.0
X130.82Y-71.0
X130.82Y-91.0
X131.0Y-46.0
X131.0Y-50.0
X131.0Y-66.0
X131.0Y-70.0
X131.0Y-86.0
X131.0Y-90.0
X131.0Y-109.0
X131.0Y-113.0
X132.36Y-55.0
X132.36Y-75.0
X132.36Y-95.0
X133.36Y-51.0
X133.36Y-71.0
X133.36Y-91.0
X134.9Y-55.0
X134.9Y-75.0
X134.9Y-95.0
X135.9Y-51.0
X135.9Y-71.0
X135.9Y-91.0
X136.0Y-46.0
X136.0Y-50.0
X136.0Y-66.0
X136.0Y-70.0
X136.0Y-86.0
X136.0Y-90.0
X136.0Y-109.0
X136.0Y-113.0
X137.44Y-55.0
X137.44Y-75.0
X137.44Y-95.0
X138.44Y-51.0
X138.44Y-71.0
X138.44Y-91.0
X65.943Y-38.812
X65.943Y-41.188
X65.943Y-58.812
X65.943Y-61.188
X68.0Y-37.625
X68.0Y-42.375
X68.0Y-57.625
X68.0Y-62.375
X70.057Y-38.812
X70.057Y-41.188
X70.057Y-58.812
X70.057Y-61.188
X131.943Y-38.812
X131.943Y-41.188
X131.943Y-58.812
X131.943Y-61.188
X134.0Y-37.625
X134.0Y-42.375
X134.0Y-57.625
X134.0Y-62.375
X136.057Y-38.812
X136.057Y-41.188
X136.057Y-58.812
X136.057Y-61.188
X65.943Y-78.812
X65.943Y-81.188
X65.943Y-98.812
X65.943Y-101.188
X68.0Y-77.625
X68.0Y-82.375
X68.0Y-97.625
X68.0Y-102.375
X70.057Y-78.812
X70.057Y-81.188
X70.057Y-98.812
X70.057Y-101.188
X80.943Y-38.812
X80.943Y-41.188
X80.943Y-58.812
X80.943Y-61.188
X83.0Y-37.625
X83.0Y-42.375
X83.0Y-57.625
X83.0Y-62.375
X85.057Y-38.812
X85.057Y-41.188
X85.057Y-58.812
X85.057Y-61.188
X98.943Y-38.812
X98.943Y-41.188
X98.943Y-58.812
X98.943Y-61.188
X101.0Y-37.625
X101.0Y-42.375
X101.0Y-57.625
X101.0Y-62.375
X103.057Y-38.812
X103.057Y-41.188
X103.057Y-58.812
X103.057Y-61.188
X47.943Y-78.812
X47.943Y-81.188
X47.943Y-98.812
X47.943Y-101.188
X50.0Y-77.625
X50.0Y-82.375
X50.0Y-97.625
X50.0Y-102.375
X52.057Y-78.812
X52.057Y-81.188
X52.057Y-98.812
X52.057Y-101.188
X113.943Y-38.812
X113.943Y-41.188
X113.943Y-58.812
X113.943Y-61.188
X116.0Y-37.625
X116.0Y-42.375
X116.0Y-57.625
X116.0Y-62.375
X118.057Y-38.812
X118.057Y-41.188
X118.057Y-58.812
X118.057Y-61.188
X47.943Y-38.812
X47.943Y-41.188
X47.943Y-58.812
X47.943Y-61.188
X50.0Y-37.625
X50.0Y-42.375
X50.0Y-57.625
X50.0Y-62.375
X52.057Y-38.812
X52.057Y-41.188
X52.057Y-58.812
X52.057Y-61.188
X80.943Y-78.812
X80.943Y-81.188
X80.943Y-98.812
X80.943Y-101.188
X83.0Y-77.625
X83.0Y-82.375
X83.0Y-97.625
X83.0Y-102.375
X85.057Y-78.812
X85.057Y-81.188
X85.057Y-98.812
X85.057Y-101.188
X98.943Y-78.812
X98.943Y-81.188
X98.943Y-98.812
X98.943Y-101.188
X101.0Y-77.625
X101.0Y-82.375
X101.0Y-97.625
X101.0Y-102.375
X103.057Y-78.812
X103.057Y-81.188
X103.057Y-98.812
X103.057Y-101.188
X113.943Y-78.812
X113.943Y-81.188
X113.943Y-98.812
X113.943Y-101.188
X116.0Y-77.625
X116.0Y-82.375
X116.0Y-97.625
X116.0Y-102.375
X118.057Y-78.812
X118.057Y-81.188
X118.057Y-98.812
X118.057Y-101.188
X131.943Y-78.812
X131.943Y-81.188
X131.943Y-98.812
X131.943Y-101.188
X134.0Y-77.625
X134.0Y-82.375
X134.0Y-97.625
X134.0Y-102.375
X136.057Y-78.812
X136.057Y-81.188
X136.057Y-98.812
X136.057Y-101.188
T2
X75.0Y-70.0
X75.0Y-72.54
X75.0Y-75.08
X75.0Y-77.62
X75.0Y-80.16
X75.0Y-82.7
X75.0Y-101.0
X75.0Y-103.54
X75.0Y-106.08
X75.0Y-108.62
X75.0Y-111.16
X75.0Y-113.7
X108.0Y-53.3
X108.0Y-55.84
X108.0Y-58.38
X108.0Y-60.92
X108.0Y-63.46
X108.0Y-66.0
X75.0Y-37.3
X75.0Y-39.84
X75.0Y-42.38
X75.0Y-44.92
X75.0Y-47.46
X75.0Y-50.0
X108.0Y-101.0
X108.0Y-103.54
X108.0Y-106.08
X108.0Y-108.62
X108.0Y-111.16
X108.0Y-113.7
X108.0Y-37.0
X108.0Y-39.54
X108.0Y-42.08
X108.0Y-44.62
X108.0Y-47.16
X108.0Y-49.7
X75.0Y-54.0
X75.0Y-56.54
X75.0Y-59.08
X75.0Y-61.62
X75.0Y-64.16
X75.0Y-66.7
X108.0Y-69.0
X108.0Y-71.54
X108.0Y-74.08
X108.0Y-76.62
X108.0Y-79.16
X108.0Y-81.7
X108.0Y-85.0
X108.0Y-87.54
X108.0Y-90.08
X108.0Y-92.62
X108.0Y-95.16
X108.0Y-97.7
X75.0Y-86.0
X75.0Y-88.54
X75.0Y-91.08
X75.0Y-93.62
X75.0Y-96.16
X75.0Y-98.7
T3
X125.0Y-68.0
X125.0Y-83.0
X92.0Y-47.0
X92.0Y-62.0
X92.0Y-68.0
X92.0Y-83.0
X92.0Y-88.0
X92.0Y-103.0
X59.0Y-47.0
X59.0Y-62.0
X125.0Y-47.0
X125.0Y-62.0
X125.0Y-89.0
X125.0Y-104.0
X59.0Y-68.0
X59.0Y-83.0
X59.0Y-88.0
X59.0Y-103.0
T4
X68.0Y-40.0
X68.0Y-60.0
X134.0Y-40.0
X134.0Y-60.0
X68.0Y-80.0
X68.0Y-100.0
X83.0Y-40.0
X83.0Y-60.0
X101.0Y-40.0
X101.0Y-60.0
X50.0Y-80.0
X50.0Y-100.0
X116.0Y-40.0
X116.0Y-60.0
X50.0Y-40.0
X50.0Y-60.0
X83.0Y-80.0
X83.0Y-100.0
X101.0Y-80.0
X101.0Y-100.0
X116.0Y-80.0
X116.0Y-100.0
X134.0Y-80.0
X134.0Y-100.0
T0
M30
