%TF.GenerationSoftware,KiCad,Pcbnew,(5.1.4)-1*%
%TF.CreationDate,2019-12-10T14:49:21+08:00*%
%TF.ProjectId,RF_output,52465f6f-7574-4707-9574-2e6b69636164,rev?*%
%TF.SameCoordinates,Original*%
%TF.FileFunction,Soldermask,Bot*%
%TF.FilePolarity,Negative*%
%FSLAX46Y46*%
G04 Gerber Fmt 4.6, Leading zero omitted, Abs format (unit mm)*
G04 Created by KiCad (PCBNEW (5.1.4)-1) date 2019-12-10 14:49:21*
%MOMM*%
%LPD*%
G04 APERTURE LIST*
%ADD10C,0.350000*%
G04 APERTURE END LIST*
D10*
G36*
X145889943Y-142066248D02*
G01*
X146445189Y-142296238D01*
X146617497Y-142411371D01*
X146944899Y-142630134D01*
X147369866Y-143055101D01*
X147369867Y-143055103D01*
X147703762Y-143554811D01*
X147933752Y-144110057D01*
X148051000Y-144699501D01*
X148051000Y-145300499D01*
X147933752Y-145889943D01*
X147703762Y-146445189D01*
X147641872Y-146537814D01*
X147369866Y-146944899D01*
X146944899Y-147369866D01*
X146870736Y-147419420D01*
X146445189Y-147703762D01*
X145889943Y-147933752D01*
X145300499Y-148051000D01*
X144699501Y-148051000D01*
X144110057Y-147933752D01*
X143554811Y-147703762D01*
X143129264Y-147419420D01*
X143055101Y-147369866D01*
X142630134Y-146944899D01*
X142358128Y-146537814D01*
X142296238Y-146445189D01*
X142066248Y-145889943D01*
X141949000Y-145300499D01*
X141949000Y-144699501D01*
X142066248Y-144110057D01*
X142296238Y-143554811D01*
X142630133Y-143055103D01*
X142630134Y-143055101D01*
X143055101Y-142630134D01*
X143382503Y-142411371D01*
X143554811Y-142296238D01*
X144110057Y-142066248D01*
X144699501Y-141949000D01*
X145300499Y-141949000D01*
X145889943Y-142066248D01*
X145889943Y-142066248D01*
G37*
G36*
X55889943Y-142066248D02*
G01*
X56445189Y-142296238D01*
X56617497Y-142411371D01*
X56944899Y-142630134D01*
X57369866Y-143055101D01*
X57369867Y-143055103D01*
X57703762Y-143554811D01*
X57933752Y-144110057D01*
X58051000Y-144699501D01*
X58051000Y-145300499D01*
X57933752Y-145889943D01*
X57703762Y-146445189D01*
X57641872Y-146537814D01*
X57369866Y-146944899D01*
X56944899Y-147369866D01*
X56870736Y-147419420D01*
X56445189Y-147703762D01*
X55889943Y-147933752D01*
X55300499Y-148051000D01*
X54699501Y-148051000D01*
X54110057Y-147933752D01*
X53554811Y-147703762D01*
X53129264Y-147419420D01*
X53055101Y-147369866D01*
X52630134Y-146944899D01*
X52358128Y-146537814D01*
X52296238Y-146445189D01*
X52066248Y-145889943D01*
X51949000Y-145300499D01*
X51949000Y-144699501D01*
X52066248Y-144110057D01*
X52296238Y-143554811D01*
X52630133Y-143055103D01*
X52630134Y-143055101D01*
X53055101Y-142630134D01*
X53382503Y-142411371D01*
X53554811Y-142296238D01*
X54110057Y-142066248D01*
X54699501Y-141949000D01*
X55300499Y-141949000D01*
X55889943Y-142066248D01*
X55889943Y-142066248D01*
G37*
G36*
X60889943Y-117066248D02*
G01*
X61445189Y-117296238D01*
X61617497Y-117411371D01*
X61944899Y-117630134D01*
X62369866Y-118055101D01*
X62369867Y-118055103D01*
X62703762Y-118554811D01*
X62933752Y-119110057D01*
X63051000Y-119699501D01*
X63051000Y-120300499D01*
X62933752Y-120889943D01*
X62703762Y-121445189D01*
X62641872Y-121537814D01*
X62369866Y-121944899D01*
X61944899Y-122369866D01*
X61870736Y-122419420D01*
X61445189Y-122703762D01*
X60889943Y-122933752D01*
X60300499Y-123051000D01*
X59699501Y-123051000D01*
X59110057Y-122933752D01*
X58554811Y-122703762D01*
X58129264Y-122419420D01*
X58055101Y-122369866D01*
X57630134Y-121944899D01*
X57358128Y-121537814D01*
X57296238Y-121445189D01*
X57066248Y-120889943D01*
X56949000Y-120300499D01*
X56949000Y-119699501D01*
X57066248Y-119110057D01*
X57296238Y-118554811D01*
X57630133Y-118055103D01*
X57630134Y-118055101D01*
X58055101Y-117630134D01*
X58382503Y-117411371D01*
X58554811Y-117296238D01*
X59110057Y-117066248D01*
X59699501Y-116949000D01*
X60300499Y-116949000D01*
X60889943Y-117066248D01*
X60889943Y-117066248D01*
G37*
G36*
X138711552Y-106932331D02*
G01*
X138793627Y-106966328D01*
X138793629Y-106966329D01*
X138830813Y-106991175D01*
X138867495Y-107015685D01*
X138930315Y-107078505D01*
X138979672Y-107152373D01*
X139013669Y-107234448D01*
X139031000Y-107321579D01*
X139031000Y-107410421D01*
X139013669Y-107497552D01*
X138979672Y-107579627D01*
X138979671Y-107579629D01*
X138930314Y-107653496D01*
X138867496Y-107716314D01*
X138793629Y-107765671D01*
X138793628Y-107765672D01*
X138793627Y-107765672D01*
X138711552Y-107799669D01*
X138624421Y-107817000D01*
X138535579Y-107817000D01*
X138448448Y-107799669D01*
X138366373Y-107765672D01*
X138366372Y-107765672D01*
X138366371Y-107765671D01*
X138292504Y-107716314D01*
X138229686Y-107653496D01*
X138180329Y-107579629D01*
X138180328Y-107579627D01*
X138146331Y-107497552D01*
X138129000Y-107410421D01*
X138129000Y-107321579D01*
X138146331Y-107234448D01*
X138180328Y-107152373D01*
X138229685Y-107078505D01*
X138292505Y-107015685D01*
X138329187Y-106991175D01*
X138366371Y-106966329D01*
X138366373Y-106966328D01*
X138448448Y-106932331D01*
X138535579Y-106915000D01*
X138624421Y-106915000D01*
X138711552Y-106932331D01*
X138711552Y-106932331D01*
G37*
G36*
X140711552Y-106932331D02*
G01*
X140793627Y-106966328D01*
X140793629Y-106966329D01*
X140830813Y-106991175D01*
X140867495Y-107015685D01*
X140930315Y-107078505D01*
X140979672Y-107152373D01*
X141013669Y-107234448D01*
X141031000Y-107321579D01*
X141031000Y-107410421D01*
X141013669Y-107497552D01*
X140979672Y-107579627D01*
X140979671Y-107579629D01*
X140930314Y-107653496D01*
X140867496Y-107716314D01*
X140793629Y-107765671D01*
X140793628Y-107765672D01*
X140793627Y-107765672D01*
X140711552Y-107799669D01*
X140624421Y-107817000D01*
X140535579Y-107817000D01*
X140448448Y-107799669D01*
X140366373Y-107765672D01*
X140366372Y-107765672D01*
X140366371Y-107765671D01*
X140292504Y-107716314D01*
X140229686Y-107653496D01*
X140180329Y-107579629D01*
X140180328Y-107579627D01*
X140146331Y-107497552D01*
X140129000Y-107410421D01*
X140129000Y-107321579D01*
X140146331Y-107234448D01*
X140180328Y-107152373D01*
X140229685Y-107078505D01*
X140292505Y-107015685D01*
X140329187Y-106991175D01*
X140366371Y-106966329D01*
X140366373Y-106966328D01*
X140448448Y-106932331D01*
X140535579Y-106915000D01*
X140624421Y-106915000D01*
X140711552Y-106932331D01*
X140711552Y-106932331D01*
G37*
G36*
X148711552Y-106932331D02*
G01*
X148793627Y-106966328D01*
X148793629Y-106966329D01*
X148830813Y-106991175D01*
X148867495Y-107015685D01*
X148930315Y-107078505D01*
X148979672Y-107152373D01*
X149013669Y-107234448D01*
X149031000Y-107321579D01*
X149031000Y-107410421D01*
X149013669Y-107497552D01*
X148979672Y-107579627D01*
X148979671Y-107579629D01*
X148930314Y-107653496D01*
X148867496Y-107716314D01*
X148793629Y-107765671D01*
X148793628Y-107765672D01*
X148793627Y-107765672D01*
X148711552Y-107799669D01*
X148624421Y-107817000D01*
X148535579Y-107817000D01*
X148448448Y-107799669D01*
X148366373Y-107765672D01*
X148366372Y-107765672D01*
X148366371Y-107765671D01*
X148292504Y-107716314D01*
X148229686Y-107653496D01*
X148180329Y-107579629D01*
X148180328Y-107579627D01*
X148146331Y-107497552D01*
X148129000Y-107410421D01*
X148129000Y-107321579D01*
X148146331Y-107234448D01*
X148180328Y-107152373D01*
X148229685Y-107078505D01*
X148292505Y-107015685D01*
X148329187Y-106991175D01*
X148366371Y-106966329D01*
X148366373Y-106966328D01*
X148448448Y-106932331D01*
X148535579Y-106915000D01*
X148624421Y-106915000D01*
X148711552Y-106932331D01*
X148711552Y-106932331D01*
G37*
G36*
X142711552Y-106932331D02*
G01*
X142793627Y-106966328D01*
X142793629Y-106966329D01*
X142830813Y-106991175D01*
X142867495Y-107015685D01*
X142930315Y-107078505D01*
X142979672Y-107152373D01*
X143013669Y-107234448D01*
X143031000Y-107321579D01*
X143031000Y-107410421D01*
X143013669Y-107497552D01*
X142979672Y-107579627D01*
X142979671Y-107579629D01*
X142930314Y-107653496D01*
X142867496Y-107716314D01*
X142793629Y-107765671D01*
X142793628Y-107765672D01*
X142793627Y-107765672D01*
X142711552Y-107799669D01*
X142624421Y-107817000D01*
X142535579Y-107817000D01*
X142448448Y-107799669D01*
X142366373Y-107765672D01*
X142366372Y-107765672D01*
X142366371Y-107765671D01*
X142292504Y-107716314D01*
X142229686Y-107653496D01*
X142180329Y-107579629D01*
X142180328Y-107579627D01*
X142146331Y-107497552D01*
X142129000Y-107410421D01*
X142129000Y-107321579D01*
X142146331Y-107234448D01*
X142180328Y-107152373D01*
X142229685Y-107078505D01*
X142292505Y-107015685D01*
X142329187Y-106991175D01*
X142366371Y-106966329D01*
X142366373Y-106966328D01*
X142448448Y-106932331D01*
X142535579Y-106915000D01*
X142624421Y-106915000D01*
X142711552Y-106932331D01*
X142711552Y-106932331D01*
G37*
G36*
X144711552Y-106932331D02*
G01*
X144793627Y-106966328D01*
X144793629Y-106966329D01*
X144830813Y-106991175D01*
X144867495Y-107015685D01*
X144930315Y-107078505D01*
X144979672Y-107152373D01*
X145013669Y-107234448D01*
X145031000Y-107321579D01*
X145031000Y-107410421D01*
X145013669Y-107497552D01*
X144979672Y-107579627D01*
X144979671Y-107579629D01*
X144930314Y-107653496D01*
X144867496Y-107716314D01*
X144793629Y-107765671D01*
X144793628Y-107765672D01*
X144793627Y-107765672D01*
X144711552Y-107799669D01*
X144624421Y-107817000D01*
X144535579Y-107817000D01*
X144448448Y-107799669D01*
X144366373Y-107765672D01*
X144366372Y-107765672D01*
X144366371Y-107765671D01*
X144292504Y-107716314D01*
X144229686Y-107653496D01*
X144180329Y-107579629D01*
X144180328Y-107579627D01*
X144146331Y-107497552D01*
X144129000Y-107410421D01*
X144129000Y-107321579D01*
X144146331Y-107234448D01*
X144180328Y-107152373D01*
X144229685Y-107078505D01*
X144292505Y-107015685D01*
X144329187Y-106991175D01*
X144366371Y-106966329D01*
X144366373Y-106966328D01*
X144448448Y-106932331D01*
X144535579Y-106915000D01*
X144624421Y-106915000D01*
X144711552Y-106932331D01*
X144711552Y-106932331D01*
G37*
G36*
X146711552Y-106932331D02*
G01*
X146793627Y-106966328D01*
X146793629Y-106966329D01*
X146830813Y-106991175D01*
X146867495Y-107015685D01*
X146930315Y-107078505D01*
X146979672Y-107152373D01*
X147013669Y-107234448D01*
X147031000Y-107321579D01*
X147031000Y-107410421D01*
X147013669Y-107497552D01*
X146979672Y-107579627D01*
X146979671Y-107579629D01*
X146930314Y-107653496D01*
X146867496Y-107716314D01*
X146793629Y-107765671D01*
X146793628Y-107765672D01*
X146793627Y-107765672D01*
X146711552Y-107799669D01*
X146624421Y-107817000D01*
X146535579Y-107817000D01*
X146448448Y-107799669D01*
X146366373Y-107765672D01*
X146366372Y-107765672D01*
X146366371Y-107765671D01*
X146292504Y-107716314D01*
X146229686Y-107653496D01*
X146180329Y-107579629D01*
X146180328Y-107579627D01*
X146146331Y-107497552D01*
X146129000Y-107410421D01*
X146129000Y-107321579D01*
X146146331Y-107234448D01*
X146180328Y-107152373D01*
X146229685Y-107078505D01*
X146292505Y-107015685D01*
X146329187Y-106991175D01*
X146366371Y-106966329D01*
X146366373Y-106966328D01*
X146448448Y-106932331D01*
X146535579Y-106915000D01*
X146624421Y-106915000D01*
X146711552Y-106932331D01*
X146711552Y-106932331D01*
G37*
G36*
X146711552Y-105154331D02*
G01*
X146793627Y-105188328D01*
X146793629Y-105188329D01*
X146830813Y-105213175D01*
X146867495Y-105237685D01*
X146930315Y-105300505D01*
X146979672Y-105374373D01*
X147013669Y-105456448D01*
X147031000Y-105543579D01*
X147031000Y-105632421D01*
X147013669Y-105719552D01*
X146979672Y-105801627D01*
X146979671Y-105801629D01*
X146930314Y-105875496D01*
X146867496Y-105938314D01*
X146793629Y-105987671D01*
X146793628Y-105987672D01*
X146793627Y-105987672D01*
X146711552Y-106021669D01*
X146624421Y-106039000D01*
X146535579Y-106039000D01*
X146448448Y-106021669D01*
X146366373Y-105987672D01*
X146366372Y-105987672D01*
X146366371Y-105987671D01*
X146292504Y-105938314D01*
X146229686Y-105875496D01*
X146180329Y-105801629D01*
X146180328Y-105801627D01*
X146146331Y-105719552D01*
X146129000Y-105632421D01*
X146129000Y-105543579D01*
X146146331Y-105456448D01*
X146180328Y-105374373D01*
X146229685Y-105300505D01*
X146292505Y-105237685D01*
X146329187Y-105213175D01*
X146366371Y-105188329D01*
X146366373Y-105188328D01*
X146448448Y-105154331D01*
X146535579Y-105137000D01*
X146624421Y-105137000D01*
X146711552Y-105154331D01*
X146711552Y-105154331D01*
G37*
G36*
X148711552Y-105154331D02*
G01*
X148793627Y-105188328D01*
X148793629Y-105188329D01*
X148830813Y-105213175D01*
X148867495Y-105237685D01*
X148930315Y-105300505D01*
X148979672Y-105374373D01*
X149013669Y-105456448D01*
X149031000Y-105543579D01*
X149031000Y-105632421D01*
X149013669Y-105719552D01*
X148979672Y-105801627D01*
X148979671Y-105801629D01*
X148930314Y-105875496D01*
X148867496Y-105938314D01*
X148793629Y-105987671D01*
X148793628Y-105987672D01*
X148793627Y-105987672D01*
X148711552Y-106021669D01*
X148624421Y-106039000D01*
X148535579Y-106039000D01*
X148448448Y-106021669D01*
X148366373Y-105987672D01*
X148366372Y-105987672D01*
X148366371Y-105987671D01*
X148292504Y-105938314D01*
X148229686Y-105875496D01*
X148180329Y-105801629D01*
X148180328Y-105801627D01*
X148146331Y-105719552D01*
X148129000Y-105632421D01*
X148129000Y-105543579D01*
X148146331Y-105456448D01*
X148180328Y-105374373D01*
X148229685Y-105300505D01*
X148292505Y-105237685D01*
X148329187Y-105213175D01*
X148366371Y-105188329D01*
X148366373Y-105188328D01*
X148448448Y-105154331D01*
X148535579Y-105137000D01*
X148624421Y-105137000D01*
X148711552Y-105154331D01*
X148711552Y-105154331D01*
G37*
G36*
X142711552Y-105154331D02*
G01*
X142793627Y-105188328D01*
X142793629Y-105188329D01*
X142830813Y-105213175D01*
X142867495Y-105237685D01*
X142930315Y-105300505D01*
X142979672Y-105374373D01*
X143013669Y-105456448D01*
X143031000Y-105543579D01*
X143031000Y-105632421D01*
X143013669Y-105719552D01*
X142979672Y-105801627D01*
X142979671Y-105801629D01*
X142930314Y-105875496D01*
X142867496Y-105938314D01*
X142793629Y-105987671D01*
X142793628Y-105987672D01*
X142793627Y-105987672D01*
X142711552Y-106021669D01*
X142624421Y-106039000D01*
X142535579Y-106039000D01*
X142448448Y-106021669D01*
X142366373Y-105987672D01*
X142366372Y-105987672D01*
X142366371Y-105987671D01*
X142292504Y-105938314D01*
X142229686Y-105875496D01*
X142180329Y-105801629D01*
X142180328Y-105801627D01*
X142146331Y-105719552D01*
X142129000Y-105632421D01*
X142129000Y-105543579D01*
X142146331Y-105456448D01*
X142180328Y-105374373D01*
X142229685Y-105300505D01*
X142292505Y-105237685D01*
X142329187Y-105213175D01*
X142366371Y-105188329D01*
X142366373Y-105188328D01*
X142448448Y-105154331D01*
X142535579Y-105137000D01*
X142624421Y-105137000D01*
X142711552Y-105154331D01*
X142711552Y-105154331D01*
G37*
G36*
X144711552Y-105154331D02*
G01*
X144793627Y-105188328D01*
X144793629Y-105188329D01*
X144830813Y-105213175D01*
X144867495Y-105237685D01*
X144930315Y-105300505D01*
X144979672Y-105374373D01*
X145013669Y-105456448D01*
X145031000Y-105543579D01*
X145031000Y-105632421D01*
X145013669Y-105719552D01*
X144979672Y-105801627D01*
X144979671Y-105801629D01*
X144930314Y-105875496D01*
X144867496Y-105938314D01*
X144793629Y-105987671D01*
X144793628Y-105987672D01*
X144793627Y-105987672D01*
X144711552Y-106021669D01*
X144624421Y-106039000D01*
X144535579Y-106039000D01*
X144448448Y-106021669D01*
X144366373Y-105987672D01*
X144366372Y-105987672D01*
X144366371Y-105987671D01*
X144292504Y-105938314D01*
X144229686Y-105875496D01*
X144180329Y-105801629D01*
X144180328Y-105801627D01*
X144146331Y-105719552D01*
X144129000Y-105632421D01*
X144129000Y-105543579D01*
X144146331Y-105456448D01*
X144180328Y-105374373D01*
X144229685Y-105300505D01*
X144292505Y-105237685D01*
X144329187Y-105213175D01*
X144366371Y-105188329D01*
X144366373Y-105188328D01*
X144448448Y-105154331D01*
X144535579Y-105137000D01*
X144624421Y-105137000D01*
X144711552Y-105154331D01*
X144711552Y-105154331D01*
G37*
G36*
X140711552Y-105154331D02*
G01*
X140793627Y-105188328D01*
X140793629Y-105188329D01*
X140830813Y-105213175D01*
X140867495Y-105237685D01*
X140930315Y-105300505D01*
X140979672Y-105374373D01*
X141013669Y-105456448D01*
X141031000Y-105543579D01*
X141031000Y-105632421D01*
X141013669Y-105719552D01*
X140979672Y-105801627D01*
X140979671Y-105801629D01*
X140930314Y-105875496D01*
X140867496Y-105938314D01*
X140793629Y-105987671D01*
X140793628Y-105987672D01*
X140793627Y-105987672D01*
X140711552Y-106021669D01*
X140624421Y-106039000D01*
X140535579Y-106039000D01*
X140448448Y-106021669D01*
X140366373Y-105987672D01*
X140366372Y-105987672D01*
X140366371Y-105987671D01*
X140292504Y-105938314D01*
X140229686Y-105875496D01*
X140180329Y-105801629D01*
X140180328Y-105801627D01*
X140146331Y-105719552D01*
X140129000Y-105632421D01*
X140129000Y-105543579D01*
X140146331Y-105456448D01*
X140180328Y-105374373D01*
X140229685Y-105300505D01*
X140292505Y-105237685D01*
X140329187Y-105213175D01*
X140366371Y-105188329D01*
X140366373Y-105188328D01*
X140448448Y-105154331D01*
X140535579Y-105137000D01*
X140624421Y-105137000D01*
X140711552Y-105154331D01*
X140711552Y-105154331D01*
G37*
G36*
X138711552Y-105154331D02*
G01*
X138793627Y-105188328D01*
X138793629Y-105188329D01*
X138830813Y-105213175D01*
X138867495Y-105237685D01*
X138930315Y-105300505D01*
X138979672Y-105374373D01*
X139013669Y-105456448D01*
X139031000Y-105543579D01*
X139031000Y-105632421D01*
X139013669Y-105719552D01*
X138979672Y-105801627D01*
X138979671Y-105801629D01*
X138930314Y-105875496D01*
X138867496Y-105938314D01*
X138793629Y-105987671D01*
X138793628Y-105987672D01*
X138793627Y-105987672D01*
X138711552Y-106021669D01*
X138624421Y-106039000D01*
X138535579Y-106039000D01*
X138448448Y-106021669D01*
X138366373Y-105987672D01*
X138366372Y-105987672D01*
X138366371Y-105987671D01*
X138292504Y-105938314D01*
X138229686Y-105875496D01*
X138180329Y-105801629D01*
X138180328Y-105801627D01*
X138146331Y-105719552D01*
X138129000Y-105632421D01*
X138129000Y-105543579D01*
X138146331Y-105456448D01*
X138180328Y-105374373D01*
X138229685Y-105300505D01*
X138292505Y-105237685D01*
X138329187Y-105213175D01*
X138366371Y-105188329D01*
X138366373Y-105188328D01*
X138448448Y-105154331D01*
X138535579Y-105137000D01*
X138624421Y-105137000D01*
X138711552Y-105154331D01*
X138711552Y-105154331D01*
G37*
G36*
X140711552Y-103376331D02*
G01*
X140793627Y-103410328D01*
X140793629Y-103410329D01*
X140830813Y-103435175D01*
X140867495Y-103459685D01*
X140930315Y-103522505D01*
X140979672Y-103596373D01*
X141013669Y-103678448D01*
X141031000Y-103765579D01*
X141031000Y-103854421D01*
X141013669Y-103941552D01*
X140979672Y-104023627D01*
X140979671Y-104023629D01*
X140930314Y-104097496D01*
X140867496Y-104160314D01*
X140793629Y-104209671D01*
X140793628Y-104209672D01*
X140793627Y-104209672D01*
X140711552Y-104243669D01*
X140624421Y-104261000D01*
X140535579Y-104261000D01*
X140448448Y-104243669D01*
X140366373Y-104209672D01*
X140366372Y-104209672D01*
X140366371Y-104209671D01*
X140292504Y-104160314D01*
X140229686Y-104097496D01*
X140180329Y-104023629D01*
X140180328Y-104023627D01*
X140146331Y-103941552D01*
X140129000Y-103854421D01*
X140129000Y-103765579D01*
X140146331Y-103678448D01*
X140180328Y-103596373D01*
X140229685Y-103522505D01*
X140292505Y-103459685D01*
X140329187Y-103435175D01*
X140366371Y-103410329D01*
X140366373Y-103410328D01*
X140448448Y-103376331D01*
X140535579Y-103359000D01*
X140624421Y-103359000D01*
X140711552Y-103376331D01*
X140711552Y-103376331D01*
G37*
G36*
X138711552Y-103376331D02*
G01*
X138793627Y-103410328D01*
X138793629Y-103410329D01*
X138830813Y-103435175D01*
X138867495Y-103459685D01*
X138930315Y-103522505D01*
X138979672Y-103596373D01*
X139013669Y-103678448D01*
X139031000Y-103765579D01*
X139031000Y-103854421D01*
X139013669Y-103941552D01*
X138979672Y-104023627D01*
X138979671Y-104023629D01*
X138930314Y-104097496D01*
X138867496Y-104160314D01*
X138793629Y-104209671D01*
X138793628Y-104209672D01*
X138793627Y-104209672D01*
X138711552Y-104243669D01*
X138624421Y-104261000D01*
X138535579Y-104261000D01*
X138448448Y-104243669D01*
X138366373Y-104209672D01*
X138366372Y-104209672D01*
X138366371Y-104209671D01*
X138292504Y-104160314D01*
X138229686Y-104097496D01*
X138180329Y-104023629D01*
X138180328Y-104023627D01*
X138146331Y-103941552D01*
X138129000Y-103854421D01*
X138129000Y-103765579D01*
X138146331Y-103678448D01*
X138180328Y-103596373D01*
X138229685Y-103522505D01*
X138292505Y-103459685D01*
X138329187Y-103435175D01*
X138366371Y-103410329D01*
X138366373Y-103410328D01*
X138448448Y-103376331D01*
X138535579Y-103359000D01*
X138624421Y-103359000D01*
X138711552Y-103376331D01*
X138711552Y-103376331D01*
G37*
G36*
X146711552Y-103376331D02*
G01*
X146793627Y-103410328D01*
X146793629Y-103410329D01*
X146830813Y-103435175D01*
X146867495Y-103459685D01*
X146930315Y-103522505D01*
X146979672Y-103596373D01*
X147013669Y-103678448D01*
X147031000Y-103765579D01*
X147031000Y-103854421D01*
X147013669Y-103941552D01*
X146979672Y-104023627D01*
X146979671Y-104023629D01*
X146930314Y-104097496D01*
X146867496Y-104160314D01*
X146793629Y-104209671D01*
X146793628Y-104209672D01*
X146793627Y-104209672D01*
X146711552Y-104243669D01*
X146624421Y-104261000D01*
X146535579Y-104261000D01*
X146448448Y-104243669D01*
X146366373Y-104209672D01*
X146366372Y-104209672D01*
X146366371Y-104209671D01*
X146292504Y-104160314D01*
X146229686Y-104097496D01*
X146180329Y-104023629D01*
X146180328Y-104023627D01*
X146146331Y-103941552D01*
X146129000Y-103854421D01*
X146129000Y-103765579D01*
X146146331Y-103678448D01*
X146180328Y-103596373D01*
X146229685Y-103522505D01*
X146292505Y-103459685D01*
X146329187Y-103435175D01*
X146366371Y-103410329D01*
X146366373Y-103410328D01*
X146448448Y-103376331D01*
X146535579Y-103359000D01*
X146624421Y-103359000D01*
X146711552Y-103376331D01*
X146711552Y-103376331D01*
G37*
G36*
X144711552Y-103376331D02*
G01*
X144793627Y-103410328D01*
X144793629Y-103410329D01*
X144830813Y-103435175D01*
X144867495Y-103459685D01*
X144930315Y-103522505D01*
X144979672Y-103596373D01*
X145013669Y-103678448D01*
X145031000Y-103765579D01*
X145031000Y-103854421D01*
X145013669Y-103941552D01*
X144979672Y-104023627D01*
X144979671Y-104023629D01*
X144930314Y-104097496D01*
X144867496Y-104160314D01*
X144793629Y-104209671D01*
X144793628Y-104209672D01*
X144793627Y-104209672D01*
X144711552Y-104243669D01*
X144624421Y-104261000D01*
X144535579Y-104261000D01*
X144448448Y-104243669D01*
X144366373Y-104209672D01*
X144366372Y-104209672D01*
X144366371Y-104209671D01*
X144292504Y-104160314D01*
X144229686Y-104097496D01*
X144180329Y-104023629D01*
X144180328Y-104023627D01*
X144146331Y-103941552D01*
X144129000Y-103854421D01*
X144129000Y-103765579D01*
X144146331Y-103678448D01*
X144180328Y-103596373D01*
X144229685Y-103522505D01*
X144292505Y-103459685D01*
X144329187Y-103435175D01*
X144366371Y-103410329D01*
X144366373Y-103410328D01*
X144448448Y-103376331D01*
X144535579Y-103359000D01*
X144624421Y-103359000D01*
X144711552Y-103376331D01*
X144711552Y-103376331D01*
G37*
G36*
X148711552Y-103376331D02*
G01*
X148793627Y-103410328D01*
X148793629Y-103410329D01*
X148830813Y-103435175D01*
X148867495Y-103459685D01*
X148930315Y-103522505D01*
X148979672Y-103596373D01*
X149013669Y-103678448D01*
X149031000Y-103765579D01*
X149031000Y-103854421D01*
X149013669Y-103941552D01*
X148979672Y-104023627D01*
X148979671Y-104023629D01*
X148930314Y-104097496D01*
X148867496Y-104160314D01*
X148793629Y-104209671D01*
X148793628Y-104209672D01*
X148793627Y-104209672D01*
X148711552Y-104243669D01*
X148624421Y-104261000D01*
X148535579Y-104261000D01*
X148448448Y-104243669D01*
X148366373Y-104209672D01*
X148366372Y-104209672D01*
X148366371Y-104209671D01*
X148292504Y-104160314D01*
X148229686Y-104097496D01*
X148180329Y-104023629D01*
X148180328Y-104023627D01*
X148146331Y-103941552D01*
X148129000Y-103854421D01*
X148129000Y-103765579D01*
X148146331Y-103678448D01*
X148180328Y-103596373D01*
X148229685Y-103522505D01*
X148292505Y-103459685D01*
X148329187Y-103435175D01*
X148366371Y-103410329D01*
X148366373Y-103410328D01*
X148448448Y-103376331D01*
X148535579Y-103359000D01*
X148624421Y-103359000D01*
X148711552Y-103376331D01*
X148711552Y-103376331D01*
G37*
G36*
X142711552Y-103376331D02*
G01*
X142793627Y-103410328D01*
X142793629Y-103410329D01*
X142830813Y-103435175D01*
X142867495Y-103459685D01*
X142930315Y-103522505D01*
X142979672Y-103596373D01*
X143013669Y-103678448D01*
X143031000Y-103765579D01*
X143031000Y-103854421D01*
X143013669Y-103941552D01*
X142979672Y-104023627D01*
X142979671Y-104023629D01*
X142930314Y-104097496D01*
X142867496Y-104160314D01*
X142793629Y-104209671D01*
X142793628Y-104209672D01*
X142793627Y-104209672D01*
X142711552Y-104243669D01*
X142624421Y-104261000D01*
X142535579Y-104261000D01*
X142448448Y-104243669D01*
X142366373Y-104209672D01*
X142366372Y-104209672D01*
X142366371Y-104209671D01*
X142292504Y-104160314D01*
X142229686Y-104097496D01*
X142180329Y-104023629D01*
X142180328Y-104023627D01*
X142146331Y-103941552D01*
X142129000Y-103854421D01*
X142129000Y-103765579D01*
X142146331Y-103678448D01*
X142180328Y-103596373D01*
X142229685Y-103522505D01*
X142292505Y-103459685D01*
X142329187Y-103435175D01*
X142366371Y-103410329D01*
X142366373Y-103410328D01*
X142448448Y-103376331D01*
X142535579Y-103359000D01*
X142624421Y-103359000D01*
X142711552Y-103376331D01*
X142711552Y-103376331D01*
G37*
G36*
X144711552Y-95756331D02*
G01*
X144793627Y-95790328D01*
X144793629Y-95790329D01*
X144830813Y-95815175D01*
X144867495Y-95839685D01*
X144930315Y-95902505D01*
X144979672Y-95976373D01*
X145013669Y-96058448D01*
X145031000Y-96145579D01*
X145031000Y-96234421D01*
X145013669Y-96321552D01*
X144979672Y-96403627D01*
X144979671Y-96403629D01*
X144930314Y-96477496D01*
X144867496Y-96540314D01*
X144793629Y-96589671D01*
X144793628Y-96589672D01*
X144793627Y-96589672D01*
X144711552Y-96623669D01*
X144624421Y-96641000D01*
X144535579Y-96641000D01*
X144448448Y-96623669D01*
X144366373Y-96589672D01*
X144366372Y-96589672D01*
X144366371Y-96589671D01*
X144292504Y-96540314D01*
X144229686Y-96477496D01*
X144180329Y-96403629D01*
X144180328Y-96403627D01*
X144146331Y-96321552D01*
X144129000Y-96234421D01*
X144129000Y-96145579D01*
X144146331Y-96058448D01*
X144180328Y-95976373D01*
X144229685Y-95902505D01*
X144292505Y-95839685D01*
X144329187Y-95815175D01*
X144366371Y-95790329D01*
X144366373Y-95790328D01*
X144448448Y-95756331D01*
X144535579Y-95739000D01*
X144624421Y-95739000D01*
X144711552Y-95756331D01*
X144711552Y-95756331D01*
G37*
G36*
X138711552Y-95756331D02*
G01*
X138793627Y-95790328D01*
X138793629Y-95790329D01*
X138830813Y-95815175D01*
X138867495Y-95839685D01*
X138930315Y-95902505D01*
X138979672Y-95976373D01*
X139013669Y-96058448D01*
X139031000Y-96145579D01*
X139031000Y-96234421D01*
X139013669Y-96321552D01*
X138979672Y-96403627D01*
X138979671Y-96403629D01*
X138930314Y-96477496D01*
X138867496Y-96540314D01*
X138793629Y-96589671D01*
X138793628Y-96589672D01*
X138793627Y-96589672D01*
X138711552Y-96623669D01*
X138624421Y-96641000D01*
X138535579Y-96641000D01*
X138448448Y-96623669D01*
X138366373Y-96589672D01*
X138366372Y-96589672D01*
X138366371Y-96589671D01*
X138292504Y-96540314D01*
X138229686Y-96477496D01*
X138180329Y-96403629D01*
X138180328Y-96403627D01*
X138146331Y-96321552D01*
X138129000Y-96234421D01*
X138129000Y-96145579D01*
X138146331Y-96058448D01*
X138180328Y-95976373D01*
X138229685Y-95902505D01*
X138292505Y-95839685D01*
X138329187Y-95815175D01*
X138366371Y-95790329D01*
X138366373Y-95790328D01*
X138448448Y-95756331D01*
X138535579Y-95739000D01*
X138624421Y-95739000D01*
X138711552Y-95756331D01*
X138711552Y-95756331D01*
G37*
G36*
X142711552Y-95756331D02*
G01*
X142793627Y-95790328D01*
X142793629Y-95790329D01*
X142830813Y-95815175D01*
X142867495Y-95839685D01*
X142930315Y-95902505D01*
X142979672Y-95976373D01*
X143013669Y-96058448D01*
X143031000Y-96145579D01*
X143031000Y-96234421D01*
X143013669Y-96321552D01*
X142979672Y-96403627D01*
X142979671Y-96403629D01*
X142930314Y-96477496D01*
X142867496Y-96540314D01*
X142793629Y-96589671D01*
X142793628Y-96589672D01*
X142793627Y-96589672D01*
X142711552Y-96623669D01*
X142624421Y-96641000D01*
X142535579Y-96641000D01*
X142448448Y-96623669D01*
X142366373Y-96589672D01*
X142366372Y-96589672D01*
X142366371Y-96589671D01*
X142292504Y-96540314D01*
X142229686Y-96477496D01*
X142180329Y-96403629D01*
X142180328Y-96403627D01*
X142146331Y-96321552D01*
X142129000Y-96234421D01*
X142129000Y-96145579D01*
X142146331Y-96058448D01*
X142180328Y-95976373D01*
X142229685Y-95902505D01*
X142292505Y-95839685D01*
X142329187Y-95815175D01*
X142366371Y-95790329D01*
X142366373Y-95790328D01*
X142448448Y-95756331D01*
X142535579Y-95739000D01*
X142624421Y-95739000D01*
X142711552Y-95756331D01*
X142711552Y-95756331D01*
G37*
G36*
X146711552Y-95756331D02*
G01*
X146793627Y-95790328D01*
X146793629Y-95790329D01*
X146830813Y-95815175D01*
X146867495Y-95839685D01*
X146930315Y-95902505D01*
X146979672Y-95976373D01*
X147013669Y-96058448D01*
X147031000Y-96145579D01*
X147031000Y-96234421D01*
X147013669Y-96321552D01*
X146979672Y-96403627D01*
X146979671Y-96403629D01*
X146930314Y-96477496D01*
X146867496Y-96540314D01*
X146793629Y-96589671D01*
X146793628Y-96589672D01*
X146793627Y-96589672D01*
X146711552Y-96623669D01*
X146624421Y-96641000D01*
X146535579Y-96641000D01*
X146448448Y-96623669D01*
X146366373Y-96589672D01*
X146366372Y-96589672D01*
X146366371Y-96589671D01*
X146292504Y-96540314D01*
X146229686Y-96477496D01*
X146180329Y-96403629D01*
X146180328Y-96403627D01*
X146146331Y-96321552D01*
X146129000Y-96234421D01*
X146129000Y-96145579D01*
X146146331Y-96058448D01*
X146180328Y-95976373D01*
X146229685Y-95902505D01*
X146292505Y-95839685D01*
X146329187Y-95815175D01*
X146366371Y-95790329D01*
X146366373Y-95790328D01*
X146448448Y-95756331D01*
X146535579Y-95739000D01*
X146624421Y-95739000D01*
X146711552Y-95756331D01*
X146711552Y-95756331D01*
G37*
G36*
X148711552Y-95756331D02*
G01*
X148793627Y-95790328D01*
X148793629Y-95790329D01*
X148830813Y-95815175D01*
X148867495Y-95839685D01*
X148930315Y-95902505D01*
X148979672Y-95976373D01*
X149013669Y-96058448D01*
X149031000Y-96145579D01*
X149031000Y-96234421D01*
X149013669Y-96321552D01*
X148979672Y-96403627D01*
X148979671Y-96403629D01*
X148930314Y-96477496D01*
X148867496Y-96540314D01*
X148793629Y-96589671D01*
X148793628Y-96589672D01*
X148793627Y-96589672D01*
X148711552Y-96623669D01*
X148624421Y-96641000D01*
X148535579Y-96641000D01*
X148448448Y-96623669D01*
X148366373Y-96589672D01*
X148366372Y-96589672D01*
X148366371Y-96589671D01*
X148292504Y-96540314D01*
X148229686Y-96477496D01*
X148180329Y-96403629D01*
X148180328Y-96403627D01*
X148146331Y-96321552D01*
X148129000Y-96234421D01*
X148129000Y-96145579D01*
X148146331Y-96058448D01*
X148180328Y-95976373D01*
X148229685Y-95902505D01*
X148292505Y-95839685D01*
X148329187Y-95815175D01*
X148366371Y-95790329D01*
X148366373Y-95790328D01*
X148448448Y-95756331D01*
X148535579Y-95739000D01*
X148624421Y-95739000D01*
X148711552Y-95756331D01*
X148711552Y-95756331D01*
G37*
G36*
X140711552Y-95756331D02*
G01*
X140793627Y-95790328D01*
X140793629Y-95790329D01*
X140830813Y-95815175D01*
X140867495Y-95839685D01*
X140930315Y-95902505D01*
X140979672Y-95976373D01*
X141013669Y-96058448D01*
X141031000Y-96145579D01*
X141031000Y-96234421D01*
X141013669Y-96321552D01*
X140979672Y-96403627D01*
X140979671Y-96403629D01*
X140930314Y-96477496D01*
X140867496Y-96540314D01*
X140793629Y-96589671D01*
X140793628Y-96589672D01*
X140793627Y-96589672D01*
X140711552Y-96623669D01*
X140624421Y-96641000D01*
X140535579Y-96641000D01*
X140448448Y-96623669D01*
X140366373Y-96589672D01*
X140366372Y-96589672D01*
X140366371Y-96589671D01*
X140292504Y-96540314D01*
X140229686Y-96477496D01*
X140180329Y-96403629D01*
X140180328Y-96403627D01*
X140146331Y-96321552D01*
X140129000Y-96234421D01*
X140129000Y-96145579D01*
X140146331Y-96058448D01*
X140180328Y-95976373D01*
X140229685Y-95902505D01*
X140292505Y-95839685D01*
X140329187Y-95815175D01*
X140366371Y-95790329D01*
X140366373Y-95790328D01*
X140448448Y-95756331D01*
X140535579Y-95739000D01*
X140624421Y-95739000D01*
X140711552Y-95756331D01*
X140711552Y-95756331D01*
G37*
G36*
X146711552Y-93978331D02*
G01*
X146793627Y-94012328D01*
X146793629Y-94012329D01*
X146830813Y-94037175D01*
X146867495Y-94061685D01*
X146930315Y-94124505D01*
X146979672Y-94198373D01*
X147013669Y-94280448D01*
X147031000Y-94367579D01*
X147031000Y-94456421D01*
X147013669Y-94543552D01*
X146979672Y-94625627D01*
X146979671Y-94625629D01*
X146930314Y-94699496D01*
X146867496Y-94762314D01*
X146793629Y-94811671D01*
X146793628Y-94811672D01*
X146793627Y-94811672D01*
X146711552Y-94845669D01*
X146624421Y-94863000D01*
X146535579Y-94863000D01*
X146448448Y-94845669D01*
X146366373Y-94811672D01*
X146366372Y-94811672D01*
X146366371Y-94811671D01*
X146292504Y-94762314D01*
X146229686Y-94699496D01*
X146180329Y-94625629D01*
X146180328Y-94625627D01*
X146146331Y-94543552D01*
X146129000Y-94456421D01*
X146129000Y-94367579D01*
X146146331Y-94280448D01*
X146180328Y-94198373D01*
X146229685Y-94124505D01*
X146292505Y-94061685D01*
X146329187Y-94037175D01*
X146366371Y-94012329D01*
X146366373Y-94012328D01*
X146448448Y-93978331D01*
X146535579Y-93961000D01*
X146624421Y-93961000D01*
X146711552Y-93978331D01*
X146711552Y-93978331D01*
G37*
G36*
X140711552Y-93978331D02*
G01*
X140793627Y-94012328D01*
X140793629Y-94012329D01*
X140830813Y-94037175D01*
X140867495Y-94061685D01*
X140930315Y-94124505D01*
X140979672Y-94198373D01*
X141013669Y-94280448D01*
X141031000Y-94367579D01*
X141031000Y-94456421D01*
X141013669Y-94543552D01*
X140979672Y-94625627D01*
X140979671Y-94625629D01*
X140930314Y-94699496D01*
X140867496Y-94762314D01*
X140793629Y-94811671D01*
X140793628Y-94811672D01*
X140793627Y-94811672D01*
X140711552Y-94845669D01*
X140624421Y-94863000D01*
X140535579Y-94863000D01*
X140448448Y-94845669D01*
X140366373Y-94811672D01*
X140366372Y-94811672D01*
X140366371Y-94811671D01*
X140292504Y-94762314D01*
X140229686Y-94699496D01*
X140180329Y-94625629D01*
X140180328Y-94625627D01*
X140146331Y-94543552D01*
X140129000Y-94456421D01*
X140129000Y-94367579D01*
X140146331Y-94280448D01*
X140180328Y-94198373D01*
X140229685Y-94124505D01*
X140292505Y-94061685D01*
X140329187Y-94037175D01*
X140366371Y-94012329D01*
X140366373Y-94012328D01*
X140448448Y-93978331D01*
X140535579Y-93961000D01*
X140624421Y-93961000D01*
X140711552Y-93978331D01*
X140711552Y-93978331D01*
G37*
G36*
X138711552Y-93978331D02*
G01*
X138793627Y-94012328D01*
X138793629Y-94012329D01*
X138830813Y-94037175D01*
X138867495Y-94061685D01*
X138930315Y-94124505D01*
X138979672Y-94198373D01*
X139013669Y-94280448D01*
X139031000Y-94367579D01*
X139031000Y-94456421D01*
X139013669Y-94543552D01*
X138979672Y-94625627D01*
X138979671Y-94625629D01*
X138930314Y-94699496D01*
X138867496Y-94762314D01*
X138793629Y-94811671D01*
X138793628Y-94811672D01*
X138793627Y-94811672D01*
X138711552Y-94845669D01*
X138624421Y-94863000D01*
X138535579Y-94863000D01*
X138448448Y-94845669D01*
X138366373Y-94811672D01*
X138366372Y-94811672D01*
X138366371Y-94811671D01*
X138292504Y-94762314D01*
X138229686Y-94699496D01*
X138180329Y-94625629D01*
X138180328Y-94625627D01*
X138146331Y-94543552D01*
X138129000Y-94456421D01*
X138129000Y-94367579D01*
X138146331Y-94280448D01*
X138180328Y-94198373D01*
X138229685Y-94124505D01*
X138292505Y-94061685D01*
X138329187Y-94037175D01*
X138366371Y-94012329D01*
X138366373Y-94012328D01*
X138448448Y-93978331D01*
X138535579Y-93961000D01*
X138624421Y-93961000D01*
X138711552Y-93978331D01*
X138711552Y-93978331D01*
G37*
G36*
X142711552Y-93978331D02*
G01*
X142793627Y-94012328D01*
X142793629Y-94012329D01*
X142830813Y-94037175D01*
X142867495Y-94061685D01*
X142930315Y-94124505D01*
X142979672Y-94198373D01*
X143013669Y-94280448D01*
X143031000Y-94367579D01*
X143031000Y-94456421D01*
X143013669Y-94543552D01*
X142979672Y-94625627D01*
X142979671Y-94625629D01*
X142930314Y-94699496D01*
X142867496Y-94762314D01*
X142793629Y-94811671D01*
X142793628Y-94811672D01*
X142793627Y-94811672D01*
X142711552Y-94845669D01*
X142624421Y-94863000D01*
X142535579Y-94863000D01*
X142448448Y-94845669D01*
X142366373Y-94811672D01*
X142366372Y-94811672D01*
X142366371Y-94811671D01*
X142292504Y-94762314D01*
X142229686Y-94699496D01*
X142180329Y-94625629D01*
X142180328Y-94625627D01*
X142146331Y-94543552D01*
X142129000Y-94456421D01*
X142129000Y-94367579D01*
X142146331Y-94280448D01*
X142180328Y-94198373D01*
X142229685Y-94124505D01*
X142292505Y-94061685D01*
X142329187Y-94037175D01*
X142366371Y-94012329D01*
X142366373Y-94012328D01*
X142448448Y-93978331D01*
X142535579Y-93961000D01*
X142624421Y-93961000D01*
X142711552Y-93978331D01*
X142711552Y-93978331D01*
G37*
G36*
X148711552Y-93978331D02*
G01*
X148793627Y-94012328D01*
X148793629Y-94012329D01*
X148830813Y-94037175D01*
X148867495Y-94061685D01*
X148930315Y-94124505D01*
X148979672Y-94198373D01*
X149013669Y-94280448D01*
X149031000Y-94367579D01*
X149031000Y-94456421D01*
X149013669Y-94543552D01*
X148979672Y-94625627D01*
X148979671Y-94625629D01*
X148930314Y-94699496D01*
X148867496Y-94762314D01*
X148793629Y-94811671D01*
X148793628Y-94811672D01*
X148793627Y-94811672D01*
X148711552Y-94845669D01*
X148624421Y-94863000D01*
X148535579Y-94863000D01*
X148448448Y-94845669D01*
X148366373Y-94811672D01*
X148366372Y-94811672D01*
X148366371Y-94811671D01*
X148292504Y-94762314D01*
X148229686Y-94699496D01*
X148180329Y-94625629D01*
X148180328Y-94625627D01*
X148146331Y-94543552D01*
X148129000Y-94456421D01*
X148129000Y-94367579D01*
X148146331Y-94280448D01*
X148180328Y-94198373D01*
X148229685Y-94124505D01*
X148292505Y-94061685D01*
X148329187Y-94037175D01*
X148366371Y-94012329D01*
X148366373Y-94012328D01*
X148448448Y-93978331D01*
X148535579Y-93961000D01*
X148624421Y-93961000D01*
X148711552Y-93978331D01*
X148711552Y-93978331D01*
G37*
G36*
X144711552Y-93978331D02*
G01*
X144793627Y-94012328D01*
X144793629Y-94012329D01*
X144830813Y-94037175D01*
X144867495Y-94061685D01*
X144930315Y-94124505D01*
X144979672Y-94198373D01*
X145013669Y-94280448D01*
X145031000Y-94367579D01*
X145031000Y-94456421D01*
X145013669Y-94543552D01*
X144979672Y-94625627D01*
X144979671Y-94625629D01*
X144930314Y-94699496D01*
X144867496Y-94762314D01*
X144793629Y-94811671D01*
X144793628Y-94811672D01*
X144793627Y-94811672D01*
X144711552Y-94845669D01*
X144624421Y-94863000D01*
X144535579Y-94863000D01*
X144448448Y-94845669D01*
X144366373Y-94811672D01*
X144366372Y-94811672D01*
X144366371Y-94811671D01*
X144292504Y-94762314D01*
X144229686Y-94699496D01*
X144180329Y-94625629D01*
X144180328Y-94625627D01*
X144146331Y-94543552D01*
X144129000Y-94456421D01*
X144129000Y-94367579D01*
X144146331Y-94280448D01*
X144180328Y-94198373D01*
X144229685Y-94124505D01*
X144292505Y-94061685D01*
X144329187Y-94037175D01*
X144366371Y-94012329D01*
X144366373Y-94012328D01*
X144448448Y-93978331D01*
X144535579Y-93961000D01*
X144624421Y-93961000D01*
X144711552Y-93978331D01*
X144711552Y-93978331D01*
G37*
G36*
X144711552Y-92200331D02*
G01*
X144793627Y-92234328D01*
X144793629Y-92234329D01*
X144830813Y-92259175D01*
X144867495Y-92283685D01*
X144930315Y-92346505D01*
X144979672Y-92420373D01*
X145013669Y-92502448D01*
X145031000Y-92589579D01*
X145031000Y-92678421D01*
X145013669Y-92765552D01*
X144979672Y-92847627D01*
X144979671Y-92847629D01*
X144930314Y-92921496D01*
X144867496Y-92984314D01*
X144793629Y-93033671D01*
X144793628Y-93033672D01*
X144793627Y-93033672D01*
X144711552Y-93067669D01*
X144624421Y-93085000D01*
X144535579Y-93085000D01*
X144448448Y-93067669D01*
X144366373Y-93033672D01*
X144366372Y-93033672D01*
X144366371Y-93033671D01*
X144292504Y-92984314D01*
X144229686Y-92921496D01*
X144180329Y-92847629D01*
X144180328Y-92847627D01*
X144146331Y-92765552D01*
X144129000Y-92678421D01*
X144129000Y-92589579D01*
X144146331Y-92502448D01*
X144180328Y-92420373D01*
X144229685Y-92346505D01*
X144292505Y-92283685D01*
X144329187Y-92259175D01*
X144366371Y-92234329D01*
X144366373Y-92234328D01*
X144448448Y-92200331D01*
X144535579Y-92183000D01*
X144624421Y-92183000D01*
X144711552Y-92200331D01*
X144711552Y-92200331D01*
G37*
G36*
X142711552Y-92200331D02*
G01*
X142793627Y-92234328D01*
X142793629Y-92234329D01*
X142830813Y-92259175D01*
X142867495Y-92283685D01*
X142930315Y-92346505D01*
X142979672Y-92420373D01*
X143013669Y-92502448D01*
X143031000Y-92589579D01*
X143031000Y-92678421D01*
X143013669Y-92765552D01*
X142979672Y-92847627D01*
X142979671Y-92847629D01*
X142930314Y-92921496D01*
X142867496Y-92984314D01*
X142793629Y-93033671D01*
X142793628Y-93033672D01*
X142793627Y-93033672D01*
X142711552Y-93067669D01*
X142624421Y-93085000D01*
X142535579Y-93085000D01*
X142448448Y-93067669D01*
X142366373Y-93033672D01*
X142366372Y-93033672D01*
X142366371Y-93033671D01*
X142292504Y-92984314D01*
X142229686Y-92921496D01*
X142180329Y-92847629D01*
X142180328Y-92847627D01*
X142146331Y-92765552D01*
X142129000Y-92678421D01*
X142129000Y-92589579D01*
X142146331Y-92502448D01*
X142180328Y-92420373D01*
X142229685Y-92346505D01*
X142292505Y-92283685D01*
X142329187Y-92259175D01*
X142366371Y-92234329D01*
X142366373Y-92234328D01*
X142448448Y-92200331D01*
X142535579Y-92183000D01*
X142624421Y-92183000D01*
X142711552Y-92200331D01*
X142711552Y-92200331D01*
G37*
G36*
X140711552Y-92200331D02*
G01*
X140793627Y-92234328D01*
X140793629Y-92234329D01*
X140830813Y-92259175D01*
X140867495Y-92283685D01*
X140930315Y-92346505D01*
X140979672Y-92420373D01*
X141013669Y-92502448D01*
X141031000Y-92589579D01*
X141031000Y-92678421D01*
X141013669Y-92765552D01*
X140979672Y-92847627D01*
X140979671Y-92847629D01*
X140930314Y-92921496D01*
X140867496Y-92984314D01*
X140793629Y-93033671D01*
X140793628Y-93033672D01*
X140793627Y-93033672D01*
X140711552Y-93067669D01*
X140624421Y-93085000D01*
X140535579Y-93085000D01*
X140448448Y-93067669D01*
X140366373Y-93033672D01*
X140366372Y-93033672D01*
X140366371Y-93033671D01*
X140292504Y-92984314D01*
X140229686Y-92921496D01*
X140180329Y-92847629D01*
X140180328Y-92847627D01*
X140146331Y-92765552D01*
X140129000Y-92678421D01*
X140129000Y-92589579D01*
X140146331Y-92502448D01*
X140180328Y-92420373D01*
X140229685Y-92346505D01*
X140292505Y-92283685D01*
X140329187Y-92259175D01*
X140366371Y-92234329D01*
X140366373Y-92234328D01*
X140448448Y-92200331D01*
X140535579Y-92183000D01*
X140624421Y-92183000D01*
X140711552Y-92200331D01*
X140711552Y-92200331D01*
G37*
G36*
X148711552Y-92200331D02*
G01*
X148793627Y-92234328D01*
X148793629Y-92234329D01*
X148830813Y-92259175D01*
X148867495Y-92283685D01*
X148930315Y-92346505D01*
X148979672Y-92420373D01*
X149013669Y-92502448D01*
X149031000Y-92589579D01*
X149031000Y-92678421D01*
X149013669Y-92765552D01*
X148979672Y-92847627D01*
X148979671Y-92847629D01*
X148930314Y-92921496D01*
X148867496Y-92984314D01*
X148793629Y-93033671D01*
X148793628Y-93033672D01*
X148793627Y-93033672D01*
X148711552Y-93067669D01*
X148624421Y-93085000D01*
X148535579Y-93085000D01*
X148448448Y-93067669D01*
X148366373Y-93033672D01*
X148366372Y-93033672D01*
X148366371Y-93033671D01*
X148292504Y-92984314D01*
X148229686Y-92921496D01*
X148180329Y-92847629D01*
X148180328Y-92847627D01*
X148146331Y-92765552D01*
X148129000Y-92678421D01*
X148129000Y-92589579D01*
X148146331Y-92502448D01*
X148180328Y-92420373D01*
X148229685Y-92346505D01*
X148292505Y-92283685D01*
X148329187Y-92259175D01*
X148366371Y-92234329D01*
X148366373Y-92234328D01*
X148448448Y-92200331D01*
X148535579Y-92183000D01*
X148624421Y-92183000D01*
X148711552Y-92200331D01*
X148711552Y-92200331D01*
G37*
G36*
X138711552Y-92200331D02*
G01*
X138793627Y-92234328D01*
X138793629Y-92234329D01*
X138830813Y-92259175D01*
X138867495Y-92283685D01*
X138930315Y-92346505D01*
X138979672Y-92420373D01*
X139013669Y-92502448D01*
X139031000Y-92589579D01*
X139031000Y-92678421D01*
X139013669Y-92765552D01*
X138979672Y-92847627D01*
X138979671Y-92847629D01*
X138930314Y-92921496D01*
X138867496Y-92984314D01*
X138793629Y-93033671D01*
X138793628Y-93033672D01*
X138793627Y-93033672D01*
X138711552Y-93067669D01*
X138624421Y-93085000D01*
X138535579Y-93085000D01*
X138448448Y-93067669D01*
X138366373Y-93033672D01*
X138366372Y-93033672D01*
X138366371Y-93033671D01*
X138292504Y-92984314D01*
X138229686Y-92921496D01*
X138180329Y-92847629D01*
X138180328Y-92847627D01*
X138146331Y-92765552D01*
X138129000Y-92678421D01*
X138129000Y-92589579D01*
X138146331Y-92502448D01*
X138180328Y-92420373D01*
X138229685Y-92346505D01*
X138292505Y-92283685D01*
X138329187Y-92259175D01*
X138366371Y-92234329D01*
X138366373Y-92234328D01*
X138448448Y-92200331D01*
X138535579Y-92183000D01*
X138624421Y-92183000D01*
X138711552Y-92200331D01*
X138711552Y-92200331D01*
G37*
G36*
X146711552Y-92200331D02*
G01*
X146793627Y-92234328D01*
X146793629Y-92234329D01*
X146830813Y-92259175D01*
X146867495Y-92283685D01*
X146930315Y-92346505D01*
X146979672Y-92420373D01*
X147013669Y-92502448D01*
X147031000Y-92589579D01*
X147031000Y-92678421D01*
X147013669Y-92765552D01*
X146979672Y-92847627D01*
X146979671Y-92847629D01*
X146930314Y-92921496D01*
X146867496Y-92984314D01*
X146793629Y-93033671D01*
X146793628Y-93033672D01*
X146793627Y-93033672D01*
X146711552Y-93067669D01*
X146624421Y-93085000D01*
X146535579Y-93085000D01*
X146448448Y-93067669D01*
X146366373Y-93033672D01*
X146366372Y-93033672D01*
X146366371Y-93033671D01*
X146292504Y-92984314D01*
X146229686Y-92921496D01*
X146180329Y-92847629D01*
X146180328Y-92847627D01*
X146146331Y-92765552D01*
X146129000Y-92678421D01*
X146129000Y-92589579D01*
X146146331Y-92502448D01*
X146180328Y-92420373D01*
X146229685Y-92346505D01*
X146292505Y-92283685D01*
X146329187Y-92259175D01*
X146366371Y-92234329D01*
X146366373Y-92234328D01*
X146448448Y-92200331D01*
X146535579Y-92183000D01*
X146624421Y-92183000D01*
X146711552Y-92200331D01*
X146711552Y-92200331D01*
G37*
G36*
X60889943Y-77066248D02*
G01*
X61445189Y-77296238D01*
X61617497Y-77411371D01*
X61944899Y-77630134D01*
X62369866Y-78055101D01*
X62369867Y-78055103D01*
X62703762Y-78554811D01*
X62933752Y-79110057D01*
X63051000Y-79699501D01*
X63051000Y-80300499D01*
X62933752Y-80889943D01*
X62703762Y-81445189D01*
X62641872Y-81537814D01*
X62369866Y-81944899D01*
X61944899Y-82369866D01*
X61870736Y-82419420D01*
X61445189Y-82703762D01*
X60889943Y-82933752D01*
X60300499Y-83051000D01*
X59699501Y-83051000D01*
X59110057Y-82933752D01*
X58554811Y-82703762D01*
X58129264Y-82419420D01*
X58055101Y-82369866D01*
X57630134Y-81944899D01*
X57358128Y-81537814D01*
X57296238Y-81445189D01*
X57066248Y-80889943D01*
X56949000Y-80300499D01*
X56949000Y-79699501D01*
X57066248Y-79110057D01*
X57296238Y-78554811D01*
X57630133Y-78055103D01*
X57630134Y-78055101D01*
X58055101Y-77630134D01*
X58382503Y-77411371D01*
X58554811Y-77296238D01*
X59110057Y-77066248D01*
X59699501Y-76949000D01*
X60300499Y-76949000D01*
X60889943Y-77066248D01*
X60889943Y-77066248D01*
G37*
G36*
X145889943Y-52066248D02*
G01*
X146445189Y-52296238D01*
X146617497Y-52411371D01*
X146944899Y-52630134D01*
X147369866Y-53055101D01*
X147369867Y-53055103D01*
X147703762Y-53554811D01*
X147933752Y-54110057D01*
X148051000Y-54699501D01*
X148051000Y-55300499D01*
X147933752Y-55889943D01*
X147703762Y-56445189D01*
X147641872Y-56537814D01*
X147369866Y-56944899D01*
X146944899Y-57369866D01*
X146870736Y-57419420D01*
X146445189Y-57703762D01*
X145889943Y-57933752D01*
X145300499Y-58051000D01*
X144699501Y-58051000D01*
X144110057Y-57933752D01*
X143554811Y-57703762D01*
X143129264Y-57419420D01*
X143055101Y-57369866D01*
X142630134Y-56944899D01*
X142358128Y-56537814D01*
X142296238Y-56445189D01*
X142066248Y-55889943D01*
X141949000Y-55300499D01*
X141949000Y-54699501D01*
X142066248Y-54110057D01*
X142296238Y-53554811D01*
X142630133Y-53055103D01*
X142630134Y-53055101D01*
X143055101Y-52630134D01*
X143382503Y-52411371D01*
X143554811Y-52296238D01*
X144110057Y-52066248D01*
X144699501Y-51949000D01*
X145300499Y-51949000D01*
X145889943Y-52066248D01*
X145889943Y-52066248D01*
G37*
G36*
X55889943Y-52066248D02*
G01*
X56445189Y-52296238D01*
X56617497Y-52411371D01*
X56944899Y-52630134D01*
X57369866Y-53055101D01*
X57369867Y-53055103D01*
X57703762Y-53554811D01*
X57933752Y-54110057D01*
X58051000Y-54699501D01*
X58051000Y-55300499D01*
X57933752Y-55889943D01*
X57703762Y-56445189D01*
X57641872Y-56537814D01*
X57369866Y-56944899D01*
X56944899Y-57369866D01*
X56870736Y-57419420D01*
X56445189Y-57703762D01*
X55889943Y-57933752D01*
X55300499Y-58051000D01*
X54699501Y-58051000D01*
X54110057Y-57933752D01*
X53554811Y-57703762D01*
X53129264Y-57419420D01*
X53055101Y-57369866D01*
X52630134Y-56944899D01*
X52358128Y-56537814D01*
X52296238Y-56445189D01*
X52066248Y-55889943D01*
X51949000Y-55300499D01*
X51949000Y-54699501D01*
X52066248Y-54110057D01*
X52296238Y-53554811D01*
X52630133Y-53055103D01*
X52630134Y-53055101D01*
X53055101Y-52630134D01*
X53382503Y-52411371D01*
X53554811Y-52296238D01*
X54110057Y-52066248D01*
X54699501Y-51949000D01*
X55300499Y-51949000D01*
X55889943Y-52066248D01*
X55889943Y-52066248D01*
G37*
M02*
