%TF.GenerationSoftware,KiCad,Pcbnew,(5.1.4)-1*%
%TF.CreationDate,2019-12-10T14:49:21+08:00*%
%TF.ProjectId,RF_output,52465f6f-7574-4707-9574-2e6b69636164,rev?*%
%TF.SameCoordinates,Original*%
%TF.FileFunction,Paste,Top*%
%TF.FilePolarity,Positive*%
%FSLAX46Y46*%
G04 Gerber Fmt 4.6, Leading zero omitted, Abs format (unit mm)*
G04 Created by KiCad (PCBNEW (5.1.4)-1) date 2019-12-10 14:49:21*
%MOMM*%
%LPD*%
G04 APERTURE LIST*
%ADD10R,5.500000X12.800000*%
%ADD11R,4.000000X2.500000*%
%ADD12R,2.500000X2.000000*%
%ADD13R,2.000000X1.600000*%
G04 APERTURE END LIST*
D10*
X53340000Y-107366000D03*
X53340000Y-92634000D03*
D11*
X140000000Y-119000000D03*
X132000000Y-119000000D03*
D12*
X139000000Y-100000000D03*
X139000000Y-96000000D03*
D13*
X101000000Y-113000000D03*
X97000000Y-113000000D03*
X101000000Y-110500000D03*
X97000000Y-110500000D03*
X101000000Y-108000000D03*
X97000000Y-108000000D03*
X101000000Y-105500000D03*
X97000000Y-105500000D03*
X101030000Y-103000000D03*
X97030000Y-103000000D03*
X101000000Y-97000000D03*
X97000000Y-97000000D03*
X101000000Y-94500000D03*
X97000000Y-94500000D03*
X101000000Y-92000000D03*
X97000000Y-92000000D03*
X101000000Y-89500000D03*
X97000000Y-89500000D03*
X101000000Y-87000000D03*
X97000000Y-87000000D03*
D11*
X140000000Y-80000000D03*
X132000000Y-80000000D03*
D13*
X102000000Y-75000000D03*
X106000000Y-75000000D03*
X102000000Y-78500000D03*
X106000000Y-78500000D03*
X102000000Y-122000000D03*
X106000000Y-122000000D03*
X102000000Y-125500000D03*
X106000000Y-125500000D03*
D12*
X65000000Y-117500000D03*
X65000000Y-113500000D03*
X69500000Y-82500000D03*
X69500000Y-86500000D03*
X69500000Y-117500000D03*
X69500000Y-113500000D03*
X65000000Y-82500000D03*
X65000000Y-86500000D03*
M02*
