M48
; DRILL file {KiCad (5.1.4)-1} date 2019/12/10 14:49:21
; FORMAT={-:-/ absolute / metric / decimal}
; #@! TF.CreationDate,2019-12-10T14:49:21+08:00
; #@! TF.GenerationSoftware,Kicad,Pcbnew,(5.1.4)-1
; #@! TF.FileFunction,Plated,1,2,PTH
FMAT,2
METRIC
T1C0.400
T2C3.500
%
G90
G05
T1
X53.086Y-59.182
X53.086Y-61.722
X53.086Y-64.262
X53.086Y-66.802
X53.086Y-69.342
X53.086Y-71.882
X53.086Y-74.422
X53.086Y-76.962
X53.086Y-79.502
X53.086Y-120.396
X53.086Y-122.936
X53.086Y-125.476
X53.086Y-128.016
X53.086Y-130.556
X53.086Y-133.096
X53.086Y-135.636
X53.086Y-138.176
X53.086Y-140.716
X53.34Y-82.042
X53.34Y-118.11
X54.61Y-60.96
X54.61Y-63.5
X54.61Y-66.04
X54.61Y-68.58
X54.61Y-71.12
X54.61Y-73.66
X54.61Y-76.2
X54.61Y-121.92
X54.61Y-124.46
X54.61Y-127.0
X54.61Y-129.54
X54.61Y-132.08
X54.61Y-134.62
X54.61Y-137.16
X55.58Y-118.11
X55.88Y-78.74
X55.88Y-139.7
X56.0Y-82.042
X57.15Y-60.96
X57.15Y-63.5
X57.15Y-66.04
X57.15Y-68.58
X57.15Y-71.12
X57.15Y-73.66
X57.15Y-76.2
X57.15Y-124.46
X57.15Y-127.0
X57.15Y-129.54
X57.15Y-132.08
X57.15Y-134.62
X57.15Y-137.16
X58.42Y-58.42
X58.42Y-140.97
X59.69Y-72.39
X59.69Y-74.93
X59.69Y-124.46
X59.69Y-127.0
X59.944Y-52.832
X59.944Y-55.372
X59.944Y-57.912
X59.944Y-60.452
X59.944Y-62.992
X59.944Y-65.532
X59.944Y-68.072
X60.198Y-131.826
X60.198Y-134.366
X60.198Y-136.906
X60.198Y-139.446
X60.198Y-141.986
X60.198Y-144.526
X60.198Y-147.066
X61.214Y-69.85
X61.976Y-130.048
X62.23Y-72.39
X62.23Y-74.93
X62.23Y-124.46
X62.23Y-127.0
X63.754Y-69.85
X64.516Y-130.048
X64.77Y-72.39
X64.77Y-74.93
X64.77Y-77.47
X64.77Y-80.01
X64.77Y-120.65
X64.77Y-123.19
X64.77Y-125.73
X64.77Y-128.27
X66.294Y-69.85
X67.056Y-130.048
X67.31Y-72.39
X67.31Y-74.93
X67.31Y-77.47
X67.31Y-80.01
X67.31Y-120.65
X67.31Y-123.19
X67.31Y-125.73
X67.31Y-128.27
X68.834Y-69.85
X69.596Y-130.048
X69.85Y-72.39
X69.85Y-74.93
X69.85Y-77.47
X69.85Y-80.01
X69.85Y-120.65
X69.85Y-123.19
X69.85Y-125.73
X69.85Y-128.27
X71.374Y-69.85
X72.136Y-130.048
X72.39Y-72.39
X72.39Y-74.93
X72.39Y-77.47
X72.39Y-80.01
X72.39Y-120.65
X72.39Y-123.19
X72.39Y-125.73
X72.39Y-128.27
X73.66Y-82.042
X73.66Y-118.11
X73.914Y-69.85
X74.676Y-130.048
X74.93Y-72.39
X74.93Y-74.93
X74.93Y-77.47
X74.93Y-80.01
X74.93Y-120.65
X74.93Y-123.19
X74.93Y-125.73
X74.93Y-128.27
X76.2Y-82.042
X76.2Y-118.11
X76.454Y-69.85
X77.216Y-130.048
X77.47Y-72.39
X77.47Y-74.93
X77.47Y-77.47
X77.47Y-80.01
X77.47Y-120.65
X77.47Y-123.19
X77.47Y-125.73
X77.47Y-128.27
X78.74Y-82.042
X78.74Y-118.11
X78.994Y-69.85
X79.756Y-130.048
X80.01Y-72.39
X80.01Y-74.93
X80.01Y-77.47
X80.01Y-80.01
X80.01Y-120.65
X80.01Y-123.19
X80.01Y-125.73
X80.01Y-128.27
X81.28Y-82.042
X81.28Y-118.11
X81.534Y-69.85
X82.296Y-130.048
X82.55Y-72.39
X82.55Y-74.93
X82.55Y-77.47
X82.55Y-80.01
X82.55Y-120.65
X82.55Y-123.19
X82.55Y-125.73
X82.55Y-128.27
X83.82Y-82.042
X83.82Y-118.11
X84.074Y-69.85
X84.836Y-130.048
X85.09Y-71.38
X85.09Y-72.65
X85.09Y-73.92
X85.09Y-75.19
X85.09Y-76.46
X85.09Y-77.73
X85.09Y-79.0
X85.09Y-80.27
X85.09Y-119.38
X85.09Y-120.65
X85.09Y-121.92
X85.09Y-123.19
X85.09Y-124.46
X85.09Y-125.73
X85.09Y-127.0
X85.09Y-128.27
X86.36Y-82.042
X86.36Y-118.11
X86.614Y-69.85
X87.13Y-71.38
X87.13Y-72.65
X87.13Y-73.92
X87.13Y-75.19
X87.13Y-76.46
X87.13Y-77.73
X87.13Y-79.0
X87.13Y-80.27
X87.13Y-119.38
X87.13Y-120.65
X87.13Y-121.92
X87.13Y-123.19
X87.13Y-124.46
X87.13Y-125.73
X87.13Y-127.0
X87.13Y-128.27
X87.376Y-130.048
X105.0Y-118.0
X105.0Y-130.0
X105.59Y-71.38
X105.59Y-72.65
X105.59Y-73.92
X105.59Y-75.19
X105.59Y-76.46
X105.59Y-77.73
X105.59Y-79.0
X105.59Y-80.27
X105.59Y-119.38
X105.59Y-120.65
X105.59Y-121.92
X105.59Y-123.19
X105.59Y-124.46
X105.59Y-125.73
X105.59Y-127.0
X105.59Y-128.27
X106.68Y-82.042
X106.934Y-69.85
X107.5Y-118.0
X107.5Y-130.0
X107.63Y-71.38
X107.63Y-72.65
X107.63Y-73.92
X107.63Y-75.19
X107.63Y-76.46
X107.63Y-77.73
X107.63Y-79.0
X107.63Y-80.27
X107.63Y-119.38
X107.63Y-120.65
X107.63Y-121.92
X107.63Y-123.19
X107.63Y-124.46
X107.63Y-125.73
X107.63Y-127.0
X107.63Y-128.27
X109.22Y-82.042
X109.22Y-118.11
X109.474Y-69.85
X109.982Y-130.048
X110.49Y-72.39
X110.49Y-74.93
X110.49Y-77.47
X110.49Y-80.01
X110.49Y-120.65
X110.49Y-123.19
X110.49Y-125.73
X110.49Y-128.27
X111.76Y-82.042
X111.76Y-85.09
X111.76Y-87.63
X111.76Y-90.17
X111.76Y-92.71
X111.76Y-95.25
X111.76Y-97.79
X111.76Y-100.33
X111.76Y-102.87
X111.76Y-105.41
X111.76Y-107.95
X111.76Y-110.49
X111.76Y-113.03
X111.76Y-115.57
X111.76Y-118.11
X112.014Y-69.85
X112.522Y-130.048
X113.03Y-71.12
X113.03Y-73.66
X113.03Y-76.2
X113.03Y-78.74
X113.03Y-81.28
X113.03Y-83.82
X113.03Y-86.36
X113.03Y-88.9
X113.03Y-91.44
X113.03Y-93.98
X113.03Y-96.52
X113.03Y-99.06
X113.03Y-101.6
X113.03Y-104.14
X113.03Y-106.68
X113.03Y-109.22
X113.03Y-111.76
X113.03Y-114.3
X113.03Y-116.84
X113.03Y-119.38
X113.03Y-121.92
X113.03Y-124.46
X113.03Y-127.0
X114.554Y-69.85
X115.062Y-130.048
X115.57Y-71.12
X115.57Y-73.66
X115.57Y-76.2
X115.57Y-78.74
X115.57Y-81.28
X115.57Y-83.82
X115.57Y-86.36
X115.57Y-88.9
X115.57Y-91.44
X115.57Y-93.98
X115.57Y-96.52
X115.57Y-99.06
X115.57Y-101.6
X115.57Y-104.14
X115.57Y-106.68
X115.57Y-109.22
X115.57Y-111.76
X115.57Y-114.3
X115.57Y-116.84
X115.57Y-119.38
X115.57Y-121.92
X115.57Y-124.46
X115.57Y-127.0
X117.094Y-69.85
X117.602Y-130.048
X118.11Y-71.12
X118.11Y-73.66
X118.11Y-76.2
X118.11Y-78.74
X118.11Y-81.28
X118.11Y-83.82
X118.11Y-86.36
X118.11Y-88.9
X118.11Y-91.44
X118.11Y-93.98
X118.11Y-96.52
X118.11Y-99.06
X118.11Y-101.6
X118.11Y-104.14
X118.11Y-106.68
X118.11Y-109.22
X118.11Y-111.76
X118.11Y-114.3
X118.11Y-116.84
X118.11Y-119.38
X118.11Y-121.92
X118.11Y-124.46
X118.11Y-127.0
X119.634Y-69.85
X120.142Y-130.048
X120.904Y-71.882
X120.904Y-74.422
X120.904Y-76.962
X120.904Y-79.502
X120.904Y-82.042
X120.904Y-84.582
X120.904Y-87.122
X120.904Y-89.662
X120.904Y-92.202
X120.904Y-94.996
X120.904Y-97.536
X120.904Y-100.076
X120.904Y-102.616
X120.904Y-105.156
X120.904Y-107.696
X120.904Y-110.236
X120.904Y-112.776
X120.904Y-115.316
X120.904Y-117.856
X120.904Y-120.396
X120.904Y-122.936
X120.904Y-125.476
X120.904Y-128.016
X138.43Y-53.34
X138.43Y-55.88
X138.43Y-58.42
X138.43Y-60.96
X138.43Y-63.5
X138.43Y-66.04
X138.43Y-68.58
X138.43Y-71.12
X138.43Y-73.66
X138.43Y-76.2
X138.43Y-78.74
X138.43Y-81.28
X138.43Y-83.82
X138.43Y-86.36
X138.43Y-88.9
X138.43Y-110.49
X138.43Y-113.03
X138.43Y-115.57
X138.43Y-118.11
X138.43Y-120.65
X138.43Y-123.19
X138.43Y-125.73
X138.43Y-128.27
X138.43Y-130.81
X138.43Y-133.35
X138.43Y-135.89
X138.43Y-138.43
X138.43Y-140.97
X138.43Y-143.51
X138.43Y-146.05
X140.97Y-53.34
X140.97Y-55.88
X140.97Y-58.42
X140.97Y-60.96
X140.97Y-63.5
X140.97Y-66.04
X140.97Y-68.58
X140.97Y-71.12
X140.97Y-73.66
X140.97Y-76.2
X140.97Y-78.74
X140.97Y-81.28
X140.97Y-83.82
X140.97Y-86.36
X140.97Y-88.9
X140.97Y-110.49
X140.97Y-113.03
X140.97Y-115.57
X140.97Y-118.11
X140.97Y-120.65
X140.97Y-123.19
X140.97Y-125.73
X140.97Y-128.27
X140.97Y-130.81
X140.97Y-133.35
X140.97Y-135.89
X140.97Y-138.43
X140.97Y-140.97
X140.97Y-143.51
X140.97Y-146.05
X143.51Y-58.42
X143.51Y-60.96
X143.51Y-63.5
X143.51Y-66.04
X143.51Y-68.58
X143.51Y-71.12
X143.51Y-73.66
X143.51Y-76.2
X143.51Y-78.74
X143.51Y-81.28
X143.51Y-83.82
X143.51Y-86.36
X143.51Y-88.9
X143.51Y-110.49
X143.51Y-113.03
X143.51Y-115.57
X143.51Y-118.11
X143.51Y-120.65
X143.51Y-123.19
X143.51Y-125.73
X143.51Y-128.27
X143.51Y-130.81
X143.51Y-133.35
X143.51Y-135.89
X143.51Y-138.43
X143.51Y-140.97
X146.05Y-58.42
X146.05Y-60.96
X146.05Y-63.5
X146.05Y-66.04
X146.05Y-68.58
X146.05Y-71.12
X146.05Y-73.66
X146.05Y-76.2
X146.05Y-78.74
X146.05Y-81.28
X146.05Y-83.82
X146.05Y-86.36
X146.05Y-88.9
X146.05Y-110.49
X146.05Y-113.03
X146.05Y-115.57
X146.05Y-118.11
X146.05Y-120.65
X146.05Y-123.19
X146.05Y-125.73
X146.05Y-128.27
X146.05Y-130.81
X146.05Y-133.35
X146.05Y-135.89
X146.05Y-138.43
X146.05Y-140.97
X148.59Y-53.34
X148.59Y-55.88
X148.59Y-58.42
X148.59Y-60.96
X148.59Y-63.5
X148.59Y-66.04
X148.59Y-68.58
X148.59Y-71.12
X148.59Y-73.66
X148.59Y-76.2
X148.59Y-78.74
X148.59Y-81.28
X148.59Y-83.82
X148.59Y-86.36
X148.59Y-88.9
X148.59Y-110.49
X148.59Y-113.03
X148.59Y-115.57
X148.59Y-118.11
X148.59Y-120.65
X148.59Y-123.19
X148.59Y-125.73
X148.59Y-128.27
X148.59Y-130.81
X148.59Y-133.35
X148.59Y-135.89
X148.59Y-138.43
X148.59Y-140.97
X148.59Y-143.51
X148.59Y-146.05
X142.943Y-143.812
X142.943Y-146.188
X145.0Y-142.625
X145.0Y-147.375
X147.057Y-143.812
X147.057Y-146.188
X52.943Y-53.812
X52.943Y-56.188
X55.0Y-52.625
X55.0Y-57.375
X57.057Y-53.812
X57.057Y-56.188
X138.58Y-92.634
X138.58Y-94.412
X138.58Y-96.19
X138.58Y-103.81
X138.58Y-105.588
X138.58Y-107.366
X140.58Y-92.634
X140.58Y-94.412
X140.58Y-96.19
X140.58Y-103.81
X140.58Y-105.588
X140.58Y-107.366
X142.58Y-92.634
X142.58Y-94.412
X142.58Y-96.19
X142.58Y-103.81
X142.58Y-105.588
X142.58Y-107.366
X144.58Y-92.634
X144.58Y-94.412
X144.58Y-96.19
X144.58Y-103.81
X144.58Y-105.588
X144.58Y-107.366
X146.58Y-92.634
X146.58Y-94.412
X146.58Y-96.19
X146.58Y-103.81
X146.58Y-105.588
X146.58Y-107.366
X148.58Y-92.634
X148.58Y-94.412
X148.58Y-96.19
X148.58Y-103.81
X148.58Y-105.588
X148.58Y-107.366
X57.943Y-78.812
X57.943Y-81.188
X60.0Y-77.625
X60.0Y-82.375
X62.057Y-78.812
X62.057Y-81.188
X52.943Y-143.812
X52.943Y-146.188
X55.0Y-142.625
X55.0Y-147.375
X57.057Y-143.812
X57.057Y-146.188
X57.943Y-118.812
X57.943Y-121.188
X60.0Y-117.625
X60.0Y-122.375
X62.057Y-118.812
X62.057Y-121.188
X142.943Y-53.812
X142.943Y-56.188
X145.0Y-52.625
X145.0Y-57.375
X147.057Y-53.812
X147.057Y-56.188
T2
X145.0Y-145.0
X55.0Y-55.0
X60.0Y-80.0
X55.0Y-145.0
X60.0Y-120.0
X145.0Y-55.0
T0
M30
