%TF.GenerationSoftware,KiCad,Pcbnew,(5.1.4)-1*%
%TF.CreationDate,2019-12-10T14:49:21+08:00*%
%TF.ProjectId,RF_output,52465f6f-7574-4707-9574-2e6b69636164,rev?*%
%TF.SameCoordinates,Original*%
%TF.FileFunction,Copper,L2,Bot*%
%TF.FilePolarity,Positive*%
%FSLAX46Y46*%
G04 Gerber Fmt 4.6, Leading zero omitted, Abs format (unit mm)*
G04 Created by KiCad (PCBNEW (5.1.4)-1) date 2019-12-10 14:49:21*
%MOMM*%
%LPD*%
G04 APERTURE LIST*
%ADD10C,0.800000*%
%ADD11C,6.000000*%
%ADD12C,0.254000*%
%ADD13C,0.350000*%
G04 APERTURE END LIST*
D10*
X57056810Y-143812500D03*
X57056810Y-146187500D03*
X55000000Y-147375000D03*
X52943190Y-146187500D03*
X52943190Y-143812500D03*
X55000000Y-142625000D03*
D11*
X55000000Y-145000000D03*
D10*
X57056810Y-53812500D03*
X57056810Y-56187500D03*
X55000000Y-57375000D03*
X52943190Y-56187500D03*
X52943190Y-53812500D03*
X55000000Y-52625000D03*
D11*
X55000000Y-55000000D03*
D10*
X147056810Y-143812500D03*
X147056810Y-146187500D03*
X145000000Y-147375000D03*
X142943190Y-146187500D03*
X142943190Y-143812500D03*
X145000000Y-142625000D03*
D11*
X145000000Y-145000000D03*
D10*
X62056810Y-118812500D03*
X62056810Y-121187500D03*
X60000000Y-122375000D03*
X57943190Y-121187500D03*
X57943190Y-118812500D03*
X60000000Y-117625000D03*
D11*
X60000000Y-120000000D03*
D10*
X147056810Y-53812500D03*
X147056810Y-56187500D03*
X145000000Y-57375000D03*
X142943190Y-56187500D03*
X142943190Y-53812500D03*
X145000000Y-52625000D03*
D11*
X145000000Y-55000000D03*
D10*
X62056810Y-78812500D03*
X62056810Y-81187500D03*
X60000000Y-82375000D03*
X57943190Y-81187500D03*
X57943190Y-78812500D03*
X60000000Y-77625000D03*
D11*
X60000000Y-80000000D03*
D10*
X142580000Y-92634000D03*
X140580000Y-92634000D03*
X138580000Y-94412000D03*
X140580000Y-94412000D03*
X144580000Y-96190000D03*
X142580000Y-94412000D03*
X148580000Y-92634000D03*
X138580000Y-92634000D03*
X148580000Y-96190000D03*
X146580000Y-96190000D03*
X140580000Y-96190000D03*
X148580000Y-94412000D03*
X146580000Y-94412000D03*
X142580000Y-96190000D03*
X144580000Y-92634000D03*
X146580000Y-92634000D03*
X138580000Y-96190000D03*
X144580000Y-94412000D03*
X146580000Y-105588000D03*
X144580000Y-105588000D03*
X140580000Y-105588000D03*
X138580000Y-105588000D03*
X148580000Y-105588000D03*
X142580000Y-105588000D03*
X146580000Y-103810000D03*
X144580000Y-103810000D03*
X140580000Y-103810000D03*
X138580000Y-103810000D03*
X148580000Y-103810000D03*
X142580000Y-103810000D03*
X138580000Y-107366000D03*
X140580000Y-107366000D03*
X142580000Y-107366000D03*
X144580000Y-107366000D03*
X146580000Y-107366000D03*
X148580000Y-107366000D03*
X115570000Y-88900000D03*
X118110000Y-93980000D03*
X113030000Y-101600000D03*
X118110000Y-96520000D03*
X115570000Y-93980000D03*
X113030000Y-96520000D03*
X115570000Y-101600000D03*
X118110000Y-101600000D03*
X115570000Y-99060000D03*
X113030000Y-93980000D03*
X118110000Y-99060000D03*
X113030000Y-99060000D03*
X115570000Y-96520000D03*
X113030000Y-91440000D03*
X113030000Y-88900000D03*
X115570000Y-91440000D03*
X118110000Y-91440000D03*
X118110000Y-88900000D03*
X115570000Y-104140000D03*
X118110000Y-109220000D03*
X113030000Y-116840000D03*
X118110000Y-111760000D03*
X115570000Y-109220000D03*
X113030000Y-111760000D03*
X115570000Y-116840000D03*
X118110000Y-116840000D03*
X115570000Y-114300000D03*
X113030000Y-109220000D03*
X118110000Y-114300000D03*
X113030000Y-114300000D03*
X115570000Y-111760000D03*
X113030000Y-106680000D03*
X113030000Y-104140000D03*
X115570000Y-106680000D03*
X118110000Y-106680000D03*
X118110000Y-104140000D03*
X115570000Y-124460000D03*
X118110000Y-121920000D03*
X113030000Y-127000000D03*
X118110000Y-124460000D03*
X115570000Y-121920000D03*
X113030000Y-119380000D03*
X115570000Y-127000000D03*
X115570000Y-119380000D03*
X118110000Y-127000000D03*
X113030000Y-124460000D03*
X113030000Y-121920000D03*
X118110000Y-119380000D03*
X80010000Y-77470000D03*
X77470000Y-80010000D03*
X72390000Y-74930000D03*
X77470000Y-72390000D03*
X67310000Y-77470000D03*
X74930000Y-74930000D03*
X80010000Y-74930000D03*
X80010000Y-80010000D03*
X82550000Y-74930000D03*
X67310000Y-74930000D03*
X69850000Y-77470000D03*
X64770000Y-80010000D03*
X72390000Y-80010000D03*
X64770000Y-77470000D03*
X82550000Y-77470000D03*
X72390000Y-77470000D03*
X69850000Y-74930000D03*
X69850000Y-72390000D03*
X77470000Y-74930000D03*
X77470000Y-77470000D03*
X64770000Y-74930000D03*
X82550000Y-72390000D03*
X74930000Y-77470000D03*
X80010000Y-72390000D03*
X74930000Y-72390000D03*
X82550000Y-80010000D03*
X74930000Y-80010000D03*
X67310000Y-80010000D03*
X72390000Y-72390000D03*
X67310000Y-72390000D03*
X69850000Y-80010000D03*
X64770000Y-72390000D03*
X57150000Y-63500000D03*
X54610000Y-63500000D03*
X54610000Y-73660000D03*
X57150000Y-71120000D03*
X57150000Y-73660000D03*
X57150000Y-68580000D03*
X57150000Y-76200000D03*
X54610000Y-76200000D03*
X54610000Y-71120000D03*
X54610000Y-60960000D03*
X54610000Y-66040000D03*
X57150000Y-66040000D03*
X54610000Y-68580000D03*
X80010000Y-123190000D03*
X80010000Y-125730000D03*
X80010000Y-120650000D03*
X80010000Y-128270000D03*
X77470000Y-123190000D03*
X77470000Y-125730000D03*
X77470000Y-120650000D03*
X77470000Y-128270000D03*
X74930000Y-123190000D03*
X74930000Y-125730000D03*
X74930000Y-120650000D03*
X74930000Y-128270000D03*
X72390000Y-123190000D03*
X72390000Y-125730000D03*
X72390000Y-120650000D03*
X72390000Y-128270000D03*
X69850000Y-123190000D03*
X69850000Y-125730000D03*
X69850000Y-120650000D03*
X69850000Y-128270000D03*
X67310000Y-123190000D03*
X67310000Y-125730000D03*
X67310000Y-120650000D03*
X67310000Y-128270000D03*
X64770000Y-123190000D03*
X64770000Y-125730000D03*
X64770000Y-120650000D03*
X64770000Y-128270000D03*
X57150000Y-124460000D03*
X59690000Y-124460000D03*
X54610000Y-124460000D03*
X62230000Y-124460000D03*
X57150000Y-127000000D03*
X59690000Y-127000000D03*
X54610000Y-127000000D03*
X62230000Y-127000000D03*
X54610000Y-134620000D03*
X54610000Y-132080000D03*
X54610000Y-137160000D03*
X54610000Y-129540000D03*
X57150000Y-132080000D03*
X57150000Y-134620000D03*
X57150000Y-129540000D03*
X57150000Y-137160000D03*
X107630000Y-75190000D03*
X105590000Y-79000000D03*
X105590000Y-72650000D03*
X107630000Y-76460000D03*
X105590000Y-80270000D03*
X105590000Y-73920000D03*
X105590000Y-75190000D03*
X107630000Y-73920000D03*
X107630000Y-79000000D03*
X105590000Y-76460000D03*
X107630000Y-72650000D03*
X105590000Y-71380000D03*
X107630000Y-71380000D03*
X107630000Y-80270000D03*
X105590000Y-77730000D03*
X107630000Y-77730000D03*
X87130000Y-75190000D03*
X85090000Y-79000000D03*
X85090000Y-72650000D03*
X87130000Y-76460000D03*
X85090000Y-80270000D03*
X85090000Y-73920000D03*
X85090000Y-75190000D03*
X87130000Y-73920000D03*
X87130000Y-79000000D03*
X85090000Y-76460000D03*
X87130000Y-72650000D03*
X85090000Y-71380000D03*
X87130000Y-71380000D03*
X87130000Y-80270000D03*
X85090000Y-77730000D03*
X87130000Y-77730000D03*
X107630000Y-123190000D03*
X105590000Y-127000000D03*
X105590000Y-120650000D03*
X107630000Y-124460000D03*
X105590000Y-128270000D03*
X105590000Y-121920000D03*
X105590000Y-123190000D03*
X107630000Y-121920000D03*
X107630000Y-127000000D03*
X105590000Y-124460000D03*
X107630000Y-120650000D03*
X105590000Y-119380000D03*
X107630000Y-119380000D03*
X107630000Y-128270000D03*
X105590000Y-125730000D03*
X107630000Y-125730000D03*
X105000000Y-118000000D03*
X118110000Y-71120000D03*
X115570000Y-71120000D03*
X113030000Y-71120000D03*
X113030000Y-73660000D03*
X115570000Y-73660000D03*
X118110000Y-73660000D03*
X118110000Y-76200000D03*
X115570000Y-76200000D03*
X113030000Y-76200000D03*
X118110000Y-81280000D03*
X115570000Y-81280000D03*
X113030000Y-81280000D03*
X113030000Y-83820000D03*
X115570000Y-83820000D03*
X118110000Y-83820000D03*
X118110000Y-86360000D03*
X115570000Y-86360000D03*
X113030000Y-86360000D03*
X59944000Y-65532000D03*
X59944000Y-68072000D03*
X59944000Y-57912000D03*
X59944000Y-52832000D03*
X59944000Y-62992000D03*
X59944000Y-60452000D03*
X59944000Y-55372000D03*
X53086000Y-59182000D03*
X53086000Y-71882000D03*
X53086000Y-69342000D03*
X53086000Y-64262000D03*
X53086000Y-61722000D03*
X53086000Y-74422000D03*
X53086000Y-76962000D03*
X53086000Y-79502000D03*
X53086000Y-66802000D03*
X119634000Y-69850000D03*
X81534000Y-69850000D03*
X84074000Y-69850000D03*
X76454000Y-69850000D03*
X86614000Y-69850000D03*
X112014000Y-69850000D03*
X109474000Y-69850000D03*
X117094000Y-69850000D03*
X114554000Y-69850000D03*
X78994000Y-69850000D03*
X106934000Y-69850000D03*
X73914000Y-69850000D03*
X66294000Y-69850000D03*
X63754000Y-69850000D03*
X71374000Y-69850000D03*
X68834000Y-69850000D03*
X61214000Y-69850000D03*
X120904000Y-71882000D03*
X120904000Y-84582000D03*
X120904000Y-82042000D03*
X120904000Y-76962000D03*
X120904000Y-79502000D03*
X120904000Y-74422000D03*
X120904000Y-87122000D03*
X120904000Y-89662000D03*
X120904000Y-92202000D03*
X120904000Y-117856000D03*
X120904000Y-125476000D03*
X120904000Y-102616000D03*
X120904000Y-107696000D03*
X120904000Y-112776000D03*
X120904000Y-115316000D03*
X120904000Y-122936000D03*
X120904000Y-97536000D03*
X120904000Y-105156000D03*
X120904000Y-110236000D03*
X120904000Y-120396000D03*
X120904000Y-100076000D03*
X120904000Y-94996000D03*
X120904000Y-128016000D03*
X73660000Y-82042000D03*
X78740000Y-82042000D03*
X111760000Y-82042000D03*
X76200000Y-82042000D03*
X56000000Y-82042000D03*
X83820000Y-82042000D03*
X86360000Y-82042000D03*
X81280000Y-82042000D03*
X109220000Y-82042000D03*
X106680000Y-82042000D03*
X53340000Y-82042000D03*
X53086000Y-125476000D03*
X53086000Y-133096000D03*
X53086000Y-120396000D03*
X53086000Y-122936000D03*
X53086000Y-130556000D03*
X53086000Y-128016000D03*
X53086000Y-135636000D03*
X53086000Y-138176000D03*
X53086000Y-140716000D03*
X60198000Y-136906000D03*
X60198000Y-144526000D03*
X60198000Y-131826000D03*
X60198000Y-134366000D03*
X60198000Y-141986000D03*
X60198000Y-139446000D03*
X60198000Y-147066000D03*
X67056000Y-130048000D03*
X64516000Y-130048000D03*
X72136000Y-130048000D03*
X69596000Y-130048000D03*
X61976000Y-130048000D03*
X77216000Y-130048000D03*
X79756000Y-130048000D03*
X84836000Y-130048000D03*
X87376000Y-130048000D03*
X74676000Y-130048000D03*
X82296000Y-130048000D03*
X115062000Y-130048000D03*
X112522000Y-130048000D03*
X120142000Y-130048000D03*
X117602000Y-130048000D03*
X53340000Y-118110000D03*
X55580000Y-118110000D03*
X73660000Y-118110000D03*
X76200000Y-118110000D03*
X78740000Y-118110000D03*
X81280000Y-118110000D03*
X83820000Y-118110000D03*
X86360000Y-118110000D03*
X111760000Y-118110000D03*
X111760000Y-115570000D03*
X111760000Y-113030000D03*
X111760000Y-110490000D03*
X111760000Y-107950000D03*
X111760000Y-105410000D03*
X111760000Y-102870000D03*
X111760000Y-100330000D03*
X111760000Y-97790000D03*
X111760000Y-95250000D03*
X111760000Y-92710000D03*
X111760000Y-90170000D03*
X111760000Y-87630000D03*
X111760000Y-85090000D03*
X118110000Y-78740000D03*
X115570000Y-78740000D03*
X113030000Y-78740000D03*
X87130000Y-128270000D03*
X87130000Y-127000000D03*
X87130000Y-125730000D03*
X87130000Y-123190000D03*
X87130000Y-124460000D03*
X87130000Y-121920000D03*
X87130000Y-120650000D03*
X87130000Y-119380000D03*
X85090000Y-119380000D03*
X85090000Y-120650000D03*
X85090000Y-121920000D03*
X85090000Y-123190000D03*
X85090000Y-124460000D03*
X85090000Y-125730000D03*
X85090000Y-127000000D03*
X85090000Y-128270000D03*
X109220000Y-118110000D03*
X109982000Y-130048000D03*
X107500000Y-130000000D03*
X105000000Y-130000000D03*
X107500000Y-118000000D03*
X82550000Y-120650000D03*
X82550000Y-123190000D03*
X82550000Y-125730000D03*
X82550000Y-128270000D03*
X54610000Y-121920000D03*
X55880000Y-139700000D03*
X58420000Y-140970000D03*
X55880000Y-78740000D03*
X59690000Y-74930000D03*
X62230000Y-74930000D03*
X62230000Y-72390000D03*
X59690000Y-72390000D03*
X57150000Y-60960000D03*
X58420000Y-58420000D03*
X110490000Y-128270000D03*
X110490000Y-125730000D03*
X110490000Y-123190000D03*
X110490000Y-120650000D03*
X110490000Y-80010000D03*
X110490000Y-77470000D03*
X110490000Y-74930000D03*
X110490000Y-72390000D03*
X138430000Y-110490000D03*
X140970000Y-110490000D03*
X143510000Y-110490000D03*
X146050000Y-110490000D03*
X148590000Y-110490000D03*
X138430000Y-113030000D03*
X140970000Y-113030000D03*
X143510000Y-113030000D03*
X146050000Y-113030000D03*
X148590000Y-113030000D03*
X138430000Y-115570000D03*
X140970000Y-115570000D03*
X143510000Y-115570000D03*
X146050000Y-115570000D03*
X148590000Y-115570000D03*
X138430000Y-118110000D03*
X140970000Y-118110000D03*
X143510000Y-118110000D03*
X146050000Y-118110000D03*
X148590000Y-118110000D03*
X138430000Y-120650000D03*
X140970000Y-120650000D03*
X143510000Y-120650000D03*
X146050000Y-120650000D03*
X148590000Y-120650000D03*
X138430000Y-123190000D03*
X140970000Y-123190000D03*
X143510000Y-123190000D03*
X146050000Y-123190000D03*
X148590000Y-123190000D03*
X138430000Y-125730000D03*
X140970000Y-125730000D03*
X143510000Y-125730000D03*
X146050000Y-125730000D03*
X148590000Y-125730000D03*
X138430000Y-128270000D03*
X140970000Y-128270000D03*
X143510000Y-128270000D03*
X146050000Y-128270000D03*
X148590000Y-128270000D03*
X138430000Y-130810000D03*
X140970000Y-130810000D03*
X143510000Y-130810000D03*
X146050000Y-130810000D03*
X148590000Y-130810000D03*
X138430000Y-133350000D03*
X140970000Y-133350000D03*
X143510000Y-133350000D03*
X146050000Y-133350000D03*
X148590000Y-133350000D03*
X138430000Y-135890000D03*
X140970000Y-135890000D03*
X143510000Y-135890000D03*
X146050000Y-135890000D03*
X148590000Y-135890000D03*
X138430000Y-138430000D03*
X140970000Y-138430000D03*
X143510000Y-138430000D03*
X146050000Y-138430000D03*
X148590000Y-138430000D03*
X138430000Y-140970000D03*
X140970000Y-140970000D03*
X143510000Y-140970000D03*
X146050000Y-140970000D03*
X148590000Y-140970000D03*
X138430000Y-143510000D03*
X140970000Y-143510000D03*
X148590000Y-143510000D03*
X138430000Y-146050000D03*
X140970000Y-146050000D03*
X148590000Y-146050000D03*
X138430000Y-88900000D03*
X140970000Y-88900000D03*
X143510000Y-88900000D03*
X146050000Y-88900000D03*
X148590000Y-88900000D03*
X138430000Y-86360000D03*
X140970000Y-86360000D03*
X143510000Y-86360000D03*
X146050000Y-86360000D03*
X148590000Y-86360000D03*
X138430000Y-83820000D03*
X140970000Y-83820000D03*
X143510000Y-83820000D03*
X146050000Y-83820000D03*
X148590000Y-83820000D03*
X138430000Y-81280000D03*
X140970000Y-81280000D03*
X143510000Y-81280000D03*
X146050000Y-81280000D03*
X148590000Y-81280000D03*
X138430000Y-78740000D03*
X140970000Y-78740000D03*
X143510000Y-78740000D03*
X146050000Y-78740000D03*
X148590000Y-78740000D03*
X138430000Y-76200000D03*
X140970000Y-76200000D03*
X143510000Y-76200000D03*
X146050000Y-76200000D03*
X148590000Y-76200000D03*
X138430000Y-73660000D03*
X140970000Y-73660000D03*
X143510000Y-73660000D03*
X146050000Y-73660000D03*
X148590000Y-73660000D03*
X138430000Y-71120000D03*
X140970000Y-71120000D03*
X143510000Y-71120000D03*
X146050000Y-71120000D03*
X148590000Y-71120000D03*
X138430000Y-68580000D03*
X140970000Y-68580000D03*
X143510000Y-68580000D03*
X146050000Y-68580000D03*
X148590000Y-68580000D03*
X138430000Y-66040000D03*
X140970000Y-66040000D03*
X143510000Y-66040000D03*
X146050000Y-66040000D03*
X148590000Y-66040000D03*
X138430000Y-63500000D03*
X140970000Y-63500000D03*
X143510000Y-63500000D03*
X146050000Y-63500000D03*
X148590000Y-63500000D03*
X138430000Y-60960000D03*
X140970000Y-60960000D03*
X143510000Y-60960000D03*
X146050000Y-60960000D03*
X148590000Y-60960000D03*
X138430000Y-58420000D03*
X140970000Y-58420000D03*
X143510000Y-58420000D03*
X146050000Y-58420000D03*
X148590000Y-58420000D03*
X138430000Y-55880000D03*
X140970000Y-55880000D03*
X148590000Y-55880000D03*
X138430000Y-53340000D03*
X140970000Y-53340000D03*
X148590000Y-53340000D03*
D12*
G36*
X149123000Y-149123000D02*
G01*
X50877000Y-149123000D01*
X50877000Y-50877000D01*
X149123001Y-50877000D01*
X149123000Y-149123000D01*
X149123000Y-149123000D01*
G37*
X149123000Y-149123000D02*
X50877000Y-149123000D01*
X50877000Y-50877000D01*
X149123001Y-50877000D01*
X149123000Y-149123000D01*
D13*
X115570000Y-88900000D03*
X118110000Y-93980000D03*
X113030000Y-101600000D03*
X118110000Y-96520000D03*
X115570000Y-93980000D03*
X113030000Y-96520000D03*
X115570000Y-101600000D03*
X118110000Y-101600000D03*
X115570000Y-99060000D03*
X113030000Y-93980000D03*
X118110000Y-99060000D03*
X113030000Y-99060000D03*
X115570000Y-96520000D03*
X113030000Y-91440000D03*
X113030000Y-88900000D03*
X115570000Y-91440000D03*
X118110000Y-91440000D03*
X118110000Y-88900000D03*
X115570000Y-104140000D03*
X118110000Y-109220000D03*
X113030000Y-116840000D03*
X118110000Y-111760000D03*
X115570000Y-109220000D03*
X113030000Y-111760000D03*
X115570000Y-116840000D03*
X118110000Y-116840000D03*
X115570000Y-114300000D03*
X113030000Y-109220000D03*
X118110000Y-114300000D03*
X113030000Y-114300000D03*
X115570000Y-111760000D03*
X113030000Y-106680000D03*
X113030000Y-104140000D03*
X115570000Y-106680000D03*
X118110000Y-106680000D03*
X118110000Y-104140000D03*
X115570000Y-124460000D03*
X118110000Y-121920000D03*
X113030000Y-127000000D03*
X118110000Y-124460000D03*
X115570000Y-121920000D03*
X113030000Y-119380000D03*
X115570000Y-127000000D03*
X115570000Y-119380000D03*
X118110000Y-127000000D03*
X113030000Y-124460000D03*
X113030000Y-121920000D03*
X118110000Y-119380000D03*
X80010000Y-77470000D03*
X77470000Y-80010000D03*
X72390000Y-74930000D03*
X77470000Y-72390000D03*
X67310000Y-77470000D03*
X74930000Y-74930000D03*
X80010000Y-74930000D03*
X80010000Y-80010000D03*
X82550000Y-74930000D03*
X67310000Y-74930000D03*
X69850000Y-77470000D03*
X64770000Y-80010000D03*
X72390000Y-80010000D03*
X64770000Y-77470000D03*
X82550000Y-77470000D03*
X72390000Y-77470000D03*
X69850000Y-74930000D03*
X69850000Y-72390000D03*
X77470000Y-74930000D03*
X77470000Y-77470000D03*
X64770000Y-74930000D03*
X82550000Y-72390000D03*
X74930000Y-77470000D03*
X80010000Y-72390000D03*
X74930000Y-72390000D03*
X82550000Y-80010000D03*
X74930000Y-80010000D03*
X67310000Y-80010000D03*
X72390000Y-72390000D03*
X67310000Y-72390000D03*
X69850000Y-80010000D03*
X64770000Y-72390000D03*
X57150000Y-63500000D03*
X54610000Y-63500000D03*
X54610000Y-73660000D03*
X57150000Y-71120000D03*
X57150000Y-73660000D03*
X57150000Y-68580000D03*
X57150000Y-76200000D03*
X54610000Y-76200000D03*
X54610000Y-71120000D03*
X54610000Y-60960000D03*
X54610000Y-66040000D03*
X57150000Y-66040000D03*
X54610000Y-68580000D03*
X80010000Y-123190000D03*
X80010000Y-125730000D03*
X80010000Y-120650000D03*
X80010000Y-128270000D03*
X77470000Y-123190000D03*
X77470000Y-125730000D03*
X77470000Y-120650000D03*
X77470000Y-128270000D03*
X74930000Y-123190000D03*
X74930000Y-125730000D03*
X74930000Y-120650000D03*
X74930000Y-128270000D03*
X72390000Y-123190000D03*
X72390000Y-125730000D03*
X72390000Y-120650000D03*
X72390000Y-128270000D03*
X69850000Y-123190000D03*
X69850000Y-125730000D03*
X69850000Y-120650000D03*
X69850000Y-128270000D03*
X67310000Y-123190000D03*
X67310000Y-125730000D03*
X67310000Y-120650000D03*
X67310000Y-128270000D03*
X64770000Y-123190000D03*
X64770000Y-125730000D03*
X64770000Y-120650000D03*
X64770000Y-128270000D03*
X57150000Y-124460000D03*
X59690000Y-124460000D03*
X54610000Y-124460000D03*
X62230000Y-124460000D03*
X57150000Y-127000000D03*
X59690000Y-127000000D03*
X54610000Y-127000000D03*
X62230000Y-127000000D03*
X54610000Y-134620000D03*
X54610000Y-132080000D03*
X54610000Y-137160000D03*
X54610000Y-129540000D03*
X57150000Y-132080000D03*
X57150000Y-134620000D03*
X57150000Y-129540000D03*
X57150000Y-137160000D03*
X107630000Y-75190000D03*
X105590000Y-79000000D03*
X105590000Y-72650000D03*
X107630000Y-76460000D03*
X105590000Y-80270000D03*
X105590000Y-73920000D03*
X105590000Y-75190000D03*
X107630000Y-73920000D03*
X107630000Y-79000000D03*
X105590000Y-76460000D03*
X107630000Y-72650000D03*
X105590000Y-71380000D03*
X107630000Y-71380000D03*
X107630000Y-80270000D03*
X105590000Y-77730000D03*
X107630000Y-77730000D03*
X87130000Y-75190000D03*
X85090000Y-79000000D03*
X85090000Y-72650000D03*
X87130000Y-76460000D03*
X85090000Y-80270000D03*
X85090000Y-73920000D03*
X85090000Y-75190000D03*
X87130000Y-73920000D03*
X87130000Y-79000000D03*
X85090000Y-76460000D03*
X87130000Y-72650000D03*
X85090000Y-71380000D03*
X87130000Y-71380000D03*
X87130000Y-80270000D03*
X85090000Y-77730000D03*
X87130000Y-77730000D03*
X107630000Y-123190000D03*
X105590000Y-127000000D03*
X105590000Y-120650000D03*
X107630000Y-124460000D03*
X105590000Y-128270000D03*
X105590000Y-121920000D03*
X105590000Y-123190000D03*
X107630000Y-121920000D03*
X107630000Y-127000000D03*
X105590000Y-124460000D03*
X107630000Y-120650000D03*
X105590000Y-119380000D03*
X107630000Y-119380000D03*
X107630000Y-128270000D03*
X105590000Y-125730000D03*
X107630000Y-125730000D03*
X105000000Y-118000000D03*
X118110000Y-71120000D03*
X115570000Y-71120000D03*
X113030000Y-71120000D03*
X113030000Y-73660000D03*
X115570000Y-73660000D03*
X118110000Y-73660000D03*
X118110000Y-76200000D03*
X115570000Y-76200000D03*
X113030000Y-76200000D03*
X118110000Y-81280000D03*
X115570000Y-81280000D03*
X113030000Y-81280000D03*
X113030000Y-83820000D03*
X115570000Y-83820000D03*
X118110000Y-83820000D03*
X118110000Y-86360000D03*
X115570000Y-86360000D03*
X113030000Y-86360000D03*
X59944000Y-65532000D03*
X59944000Y-68072000D03*
X59944000Y-57912000D03*
X59944000Y-52832000D03*
X59944000Y-62992000D03*
X59944000Y-60452000D03*
X59944000Y-55372000D03*
X53086000Y-59182000D03*
X53086000Y-71882000D03*
X53086000Y-69342000D03*
X53086000Y-64262000D03*
X53086000Y-61722000D03*
X53086000Y-74422000D03*
X53086000Y-76962000D03*
X53086000Y-79502000D03*
X53086000Y-66802000D03*
X119634000Y-69850000D03*
X81534000Y-69850000D03*
X84074000Y-69850000D03*
X76454000Y-69850000D03*
X86614000Y-69850000D03*
X112014000Y-69850000D03*
X109474000Y-69850000D03*
X117094000Y-69850000D03*
X114554000Y-69850000D03*
X78994000Y-69850000D03*
X106934000Y-69850000D03*
X73914000Y-69850000D03*
X66294000Y-69850000D03*
X63754000Y-69850000D03*
X71374000Y-69850000D03*
X68834000Y-69850000D03*
X61214000Y-69850000D03*
X120904000Y-71882000D03*
X120904000Y-84582000D03*
X120904000Y-82042000D03*
X120904000Y-76962000D03*
X120904000Y-79502000D03*
X120904000Y-74422000D03*
X120904000Y-87122000D03*
X120904000Y-89662000D03*
X120904000Y-92202000D03*
X120904000Y-117856000D03*
X120904000Y-125476000D03*
X120904000Y-102616000D03*
X120904000Y-107696000D03*
X120904000Y-112776000D03*
X120904000Y-115316000D03*
X120904000Y-122936000D03*
X120904000Y-97536000D03*
X120904000Y-105156000D03*
X120904000Y-110236000D03*
X120904000Y-120396000D03*
X120904000Y-100076000D03*
X120904000Y-94996000D03*
X120904000Y-128016000D03*
X73660000Y-82042000D03*
X78740000Y-82042000D03*
X111760000Y-82042000D03*
X76200000Y-82042000D03*
X56000000Y-82042000D03*
X83820000Y-82042000D03*
X86360000Y-82042000D03*
X81280000Y-82042000D03*
X109220000Y-82042000D03*
X106680000Y-82042000D03*
X53340000Y-82042000D03*
X53086000Y-125476000D03*
X53086000Y-133096000D03*
X53086000Y-120396000D03*
X53086000Y-122936000D03*
X53086000Y-130556000D03*
X53086000Y-128016000D03*
X53086000Y-135636000D03*
X53086000Y-138176000D03*
X53086000Y-140716000D03*
X60198000Y-136906000D03*
X60198000Y-144526000D03*
X60198000Y-131826000D03*
X60198000Y-134366000D03*
X60198000Y-141986000D03*
X60198000Y-139446000D03*
X60198000Y-147066000D03*
X67056000Y-130048000D03*
X64516000Y-130048000D03*
X72136000Y-130048000D03*
X69596000Y-130048000D03*
X61976000Y-130048000D03*
X77216000Y-130048000D03*
X79756000Y-130048000D03*
X84836000Y-130048000D03*
X87376000Y-130048000D03*
X74676000Y-130048000D03*
X82296000Y-130048000D03*
X115062000Y-130048000D03*
X112522000Y-130048000D03*
X120142000Y-130048000D03*
X117602000Y-130048000D03*
X53340000Y-118110000D03*
X55580000Y-118110000D03*
X73660000Y-118110000D03*
X76200000Y-118110000D03*
X78740000Y-118110000D03*
X81280000Y-118110000D03*
X83820000Y-118110000D03*
X86360000Y-118110000D03*
X111760000Y-118110000D03*
X111760000Y-115570000D03*
X111760000Y-113030000D03*
X111760000Y-110490000D03*
X111760000Y-107950000D03*
X111760000Y-105410000D03*
X111760000Y-102870000D03*
X111760000Y-100330000D03*
X111760000Y-97790000D03*
X111760000Y-95250000D03*
X111760000Y-92710000D03*
X111760000Y-90170000D03*
X111760000Y-87630000D03*
X111760000Y-85090000D03*
X118110000Y-78740000D03*
X115570000Y-78740000D03*
X113030000Y-78740000D03*
X87130000Y-128270000D03*
X87130000Y-127000000D03*
X87130000Y-125730000D03*
X87130000Y-123190000D03*
X87130000Y-124460000D03*
X87130000Y-121920000D03*
X87130000Y-120650000D03*
X87130000Y-119380000D03*
X85090000Y-119380000D03*
X85090000Y-120650000D03*
X85090000Y-121920000D03*
X85090000Y-123190000D03*
X85090000Y-124460000D03*
X85090000Y-125730000D03*
X85090000Y-127000000D03*
X85090000Y-128270000D03*
X109220000Y-118110000D03*
X109982000Y-130048000D03*
X107500000Y-130000000D03*
X105000000Y-130000000D03*
X107500000Y-118000000D03*
X82550000Y-120650000D03*
X82550000Y-123190000D03*
X82550000Y-125730000D03*
X82550000Y-128270000D03*
X54610000Y-121920000D03*
X55880000Y-139700000D03*
X58420000Y-140970000D03*
X55880000Y-78740000D03*
X59690000Y-74930000D03*
X62230000Y-74930000D03*
X62230000Y-72390000D03*
X59690000Y-72390000D03*
X57150000Y-60960000D03*
X58420000Y-58420000D03*
X110490000Y-128270000D03*
X110490000Y-125730000D03*
X110490000Y-123190000D03*
X110490000Y-120650000D03*
X110490000Y-80010000D03*
X110490000Y-77470000D03*
X110490000Y-74930000D03*
X110490000Y-72390000D03*
X138430000Y-110490000D03*
X140970000Y-110490000D03*
X143510000Y-110490000D03*
X146050000Y-110490000D03*
X148590000Y-110490000D03*
X138430000Y-113030000D03*
X140970000Y-113030000D03*
X143510000Y-113030000D03*
X146050000Y-113030000D03*
X148590000Y-113030000D03*
X138430000Y-115570000D03*
X140970000Y-115570000D03*
X143510000Y-115570000D03*
X146050000Y-115570000D03*
X148590000Y-115570000D03*
X138430000Y-118110000D03*
X140970000Y-118110000D03*
X143510000Y-118110000D03*
X146050000Y-118110000D03*
X148590000Y-118110000D03*
X138430000Y-120650000D03*
X140970000Y-120650000D03*
X143510000Y-120650000D03*
X146050000Y-120650000D03*
X148590000Y-120650000D03*
X138430000Y-123190000D03*
X140970000Y-123190000D03*
X143510000Y-123190000D03*
X146050000Y-123190000D03*
X148590000Y-123190000D03*
X138430000Y-125730000D03*
X140970000Y-125730000D03*
X143510000Y-125730000D03*
X146050000Y-125730000D03*
X148590000Y-125730000D03*
X138430000Y-128270000D03*
X140970000Y-128270000D03*
X143510000Y-128270000D03*
X146050000Y-128270000D03*
X148590000Y-128270000D03*
X138430000Y-130810000D03*
X140970000Y-130810000D03*
X143510000Y-130810000D03*
X146050000Y-130810000D03*
X148590000Y-130810000D03*
X138430000Y-133350000D03*
X140970000Y-133350000D03*
X143510000Y-133350000D03*
X146050000Y-133350000D03*
X148590000Y-133350000D03*
X138430000Y-135890000D03*
X140970000Y-135890000D03*
X143510000Y-135890000D03*
X146050000Y-135890000D03*
X148590000Y-135890000D03*
X138430000Y-138430000D03*
X140970000Y-138430000D03*
X143510000Y-138430000D03*
X146050000Y-138430000D03*
X148590000Y-138430000D03*
X138430000Y-140970000D03*
X140970000Y-140970000D03*
X143510000Y-140970000D03*
X146050000Y-140970000D03*
X148590000Y-140970000D03*
X138430000Y-143510000D03*
X140970000Y-143510000D03*
X148590000Y-143510000D03*
X138430000Y-146050000D03*
X140970000Y-146050000D03*
X148590000Y-146050000D03*
X138430000Y-88900000D03*
X140970000Y-88900000D03*
X143510000Y-88900000D03*
X146050000Y-88900000D03*
X148590000Y-88900000D03*
X138430000Y-86360000D03*
X140970000Y-86360000D03*
X143510000Y-86360000D03*
X146050000Y-86360000D03*
X148590000Y-86360000D03*
X138430000Y-83820000D03*
X140970000Y-83820000D03*
X143510000Y-83820000D03*
X146050000Y-83820000D03*
X148590000Y-83820000D03*
X138430000Y-81280000D03*
X140970000Y-81280000D03*
X143510000Y-81280000D03*
X146050000Y-81280000D03*
X148590000Y-81280000D03*
X138430000Y-78740000D03*
X140970000Y-78740000D03*
X143510000Y-78740000D03*
X146050000Y-78740000D03*
X148590000Y-78740000D03*
X138430000Y-76200000D03*
X140970000Y-76200000D03*
X143510000Y-76200000D03*
X146050000Y-76200000D03*
X148590000Y-76200000D03*
X138430000Y-73660000D03*
X140970000Y-73660000D03*
X143510000Y-73660000D03*
X146050000Y-73660000D03*
X148590000Y-73660000D03*
X138430000Y-71120000D03*
X140970000Y-71120000D03*
X143510000Y-71120000D03*
X146050000Y-71120000D03*
X148590000Y-71120000D03*
X138430000Y-68580000D03*
X140970000Y-68580000D03*
X143510000Y-68580000D03*
X146050000Y-68580000D03*
X148590000Y-68580000D03*
X138430000Y-66040000D03*
X140970000Y-66040000D03*
X143510000Y-66040000D03*
X146050000Y-66040000D03*
X148590000Y-66040000D03*
X138430000Y-63500000D03*
X140970000Y-63500000D03*
X143510000Y-63500000D03*
X146050000Y-63500000D03*
X148590000Y-63500000D03*
X138430000Y-60960000D03*
X140970000Y-60960000D03*
X143510000Y-60960000D03*
X146050000Y-60960000D03*
X148590000Y-60960000D03*
X138430000Y-58420000D03*
X140970000Y-58420000D03*
X143510000Y-58420000D03*
X146050000Y-58420000D03*
X148590000Y-58420000D03*
X138430000Y-55880000D03*
X140970000Y-55880000D03*
X148590000Y-55880000D03*
X138430000Y-53340000D03*
X140970000Y-53340000D03*
X148590000Y-53340000D03*
X57056810Y-143812500D03*
X57056810Y-146187500D03*
X55000000Y-147375000D03*
X52943190Y-146187500D03*
X52943190Y-143812500D03*
X55000000Y-142625000D03*
X55000000Y-145000000D03*
X57056810Y-53812500D03*
X57056810Y-56187500D03*
X55000000Y-57375000D03*
X52943190Y-56187500D03*
X52943190Y-53812500D03*
X55000000Y-52625000D03*
X55000000Y-55000000D03*
X147056810Y-143812500D03*
X147056810Y-146187500D03*
X145000000Y-147375000D03*
X142943190Y-146187500D03*
X142943190Y-143812500D03*
X145000000Y-142625000D03*
X145000000Y-145000000D03*
X62056810Y-118812500D03*
X62056810Y-121187500D03*
X60000000Y-122375000D03*
X57943190Y-121187500D03*
X57943190Y-118812500D03*
X60000000Y-117625000D03*
X60000000Y-120000000D03*
X147056810Y-53812500D03*
X147056810Y-56187500D03*
X145000000Y-57375000D03*
X142943190Y-56187500D03*
X142943190Y-53812500D03*
X145000000Y-52625000D03*
X145000000Y-55000000D03*
X62056810Y-78812500D03*
X62056810Y-81187500D03*
X60000000Y-82375000D03*
X57943190Y-81187500D03*
X57943190Y-78812500D03*
X60000000Y-77625000D03*
X60000000Y-80000000D03*
X142580000Y-92634000D03*
X140580000Y-92634000D03*
X138580000Y-94412000D03*
X140580000Y-94412000D03*
X144580000Y-96190000D03*
X142580000Y-94412000D03*
X148580000Y-92634000D03*
X138580000Y-92634000D03*
X148580000Y-96190000D03*
X146580000Y-96190000D03*
X140580000Y-96190000D03*
X148580000Y-94412000D03*
X146580000Y-94412000D03*
X142580000Y-96190000D03*
X144580000Y-92634000D03*
X146580000Y-92634000D03*
X138580000Y-96190000D03*
X144580000Y-94412000D03*
X146580000Y-105588000D03*
X144580000Y-105588000D03*
X140580000Y-105588000D03*
X138580000Y-105588000D03*
X148580000Y-105588000D03*
X142580000Y-105588000D03*
X146580000Y-103810000D03*
X144580000Y-103810000D03*
X140580000Y-103810000D03*
X138580000Y-103810000D03*
X148580000Y-103810000D03*
X142580000Y-103810000D03*
X138580000Y-107366000D03*
X140580000Y-107366000D03*
X142580000Y-107366000D03*
X144580000Y-107366000D03*
X146580000Y-107366000D03*
X148580000Y-107366000D03*
M02*
