%TF.GenerationSoftware,KiCad,Pcbnew,(5.1.4)-1*%
%TF.CreationDate,2019-12-28T21:17:41+08:00*%
%TF.ProjectId,LPF,4c50462e-6b69-4636-9164-5f7063625858,rev?*%
%TF.SameCoordinates,Original*%
%TF.FileFunction,Legend,Top*%
%TF.FilePolarity,Positive*%
%FSLAX46Y46*%
G04 Gerber Fmt 4.6, Leading zero omitted, Abs format (unit mm)*
G04 Created by KiCad (PCBNEW (5.1.4)-1) date 2019-12-28 21:17:41*
%MOMM*%
%LPD*%
G04 APERTURE LIST*
%ADD10C,0.150000*%
%ADD11C,0.200000*%
%ADD12C,0.120000*%
%ADD13C,0.100000*%
%ADD14C,0.250000*%
%ADD15C,0.300000*%
G04 APERTURE END LIST*
D10*
X32240357Y-21802380D02*
X32907023Y-21802380D01*
X32478452Y-22802380D01*
X33145119Y-22135714D02*
X33526071Y-22135714D01*
X33287976Y-21802380D02*
X33287976Y-22659523D01*
X33335595Y-22754761D01*
X33430833Y-22802380D01*
X33526071Y-22802380D01*
X33859404Y-22802380D02*
X33859404Y-21802380D01*
X34287976Y-22802380D02*
X34287976Y-22278571D01*
X34240357Y-22183333D01*
X34145119Y-22135714D01*
X34002261Y-22135714D01*
X33907023Y-22183333D01*
X33859404Y-22230952D01*
X34764166Y-22421428D02*
X35526071Y-22421428D01*
X36192738Y-21802380D02*
X36383214Y-21802380D01*
X36478452Y-21850000D01*
X36573690Y-21945238D01*
X36621309Y-22135714D01*
X36621309Y-22469047D01*
X36573690Y-22659523D01*
X36478452Y-22754761D01*
X36383214Y-22802380D01*
X36192738Y-22802380D01*
X36097500Y-22754761D01*
X36002261Y-22659523D01*
X35954642Y-22469047D01*
X35954642Y-22135714D01*
X36002261Y-21945238D01*
X36097500Y-21850000D01*
X36192738Y-21802380D01*
X37049880Y-22802380D02*
X37049880Y-22135714D01*
X37049880Y-22326190D02*
X37097500Y-22230952D01*
X37145119Y-22183333D01*
X37240357Y-22135714D01*
X37335595Y-22135714D01*
X38097500Y-22802380D02*
X38097500Y-21802380D01*
X38097500Y-22754761D02*
X38002261Y-22802380D01*
X37811785Y-22802380D01*
X37716547Y-22754761D01*
X37668928Y-22707142D01*
X37621309Y-22611904D01*
X37621309Y-22326190D01*
X37668928Y-22230952D01*
X37716547Y-22183333D01*
X37811785Y-22135714D01*
X38002261Y-22135714D01*
X38097500Y-22183333D01*
X38954642Y-22754761D02*
X38859404Y-22802380D01*
X38668928Y-22802380D01*
X38573690Y-22754761D01*
X38526071Y-22659523D01*
X38526071Y-22278571D01*
X38573690Y-22183333D01*
X38668928Y-22135714D01*
X38859404Y-22135714D01*
X38954642Y-22183333D01*
X39002261Y-22278571D01*
X39002261Y-22373809D01*
X38526071Y-22469047D01*
X39430833Y-22802380D02*
X39430833Y-22135714D01*
X39430833Y-22326190D02*
X39478452Y-22230952D01*
X39526071Y-22183333D01*
X39621309Y-22135714D01*
X39716547Y-22135714D01*
X41383214Y-22707142D02*
X41335595Y-22754761D01*
X41192738Y-22802380D01*
X41097500Y-22802380D01*
X40954642Y-22754761D01*
X40859404Y-22659523D01*
X40811785Y-22564285D01*
X40764166Y-22373809D01*
X40764166Y-22230952D01*
X40811785Y-22040476D01*
X40859404Y-21945238D01*
X40954642Y-21850000D01*
X41097500Y-21802380D01*
X41192738Y-21802380D01*
X41335595Y-21850000D01*
X41383214Y-21897619D01*
X41811785Y-22802380D02*
X41811785Y-21802380D01*
X42240357Y-22802380D02*
X42240357Y-22278571D01*
X42192738Y-22183333D01*
X42097500Y-22135714D01*
X41954642Y-22135714D01*
X41859404Y-22183333D01*
X41811785Y-22230952D01*
X43097500Y-22754761D02*
X43002261Y-22802380D01*
X42811785Y-22802380D01*
X42716547Y-22754761D01*
X42668928Y-22659523D01*
X42668928Y-22278571D01*
X42716547Y-22183333D01*
X42811785Y-22135714D01*
X43002261Y-22135714D01*
X43097500Y-22183333D01*
X43145119Y-22278571D01*
X43145119Y-22373809D01*
X42668928Y-22469047D01*
X43573690Y-22802380D02*
X43573690Y-21802380D01*
X43573690Y-22183333D02*
X43668928Y-22135714D01*
X43859404Y-22135714D01*
X43954642Y-22183333D01*
X44002261Y-22230952D01*
X44049880Y-22326190D01*
X44049880Y-22611904D01*
X44002261Y-22707142D01*
X43954642Y-22754761D01*
X43859404Y-22802380D01*
X43668928Y-22802380D01*
X43573690Y-22754761D01*
X44383214Y-22135714D02*
X44621309Y-22802380D01*
X44859404Y-22135714D02*
X44621309Y-22802380D01*
X44526071Y-23040476D01*
X44478452Y-23088095D01*
X44383214Y-23135714D01*
X45192738Y-22754761D02*
X45287976Y-22802380D01*
X45478452Y-22802380D01*
X45573690Y-22754761D01*
X45621309Y-22659523D01*
X45621309Y-22611904D01*
X45573690Y-22516666D01*
X45478452Y-22469047D01*
X45335595Y-22469047D01*
X45240357Y-22421428D01*
X45192738Y-22326190D01*
X45192738Y-22278571D01*
X45240357Y-22183333D01*
X45335595Y-22135714D01*
X45478452Y-22135714D01*
X45573690Y-22183333D01*
X46049880Y-22802380D02*
X46049880Y-21802380D01*
X46478452Y-22802380D02*
X46478452Y-22278571D01*
X46430833Y-22183333D01*
X46335595Y-22135714D01*
X46192738Y-22135714D01*
X46097500Y-22183333D01*
X46049880Y-22230952D01*
X47335595Y-22754761D02*
X47240357Y-22802380D01*
X47049880Y-22802380D01*
X46954642Y-22754761D01*
X46907023Y-22659523D01*
X46907023Y-22278571D01*
X46954642Y-22183333D01*
X47049880Y-22135714D01*
X47240357Y-22135714D01*
X47335595Y-22183333D01*
X47383214Y-22278571D01*
X47383214Y-22373809D01*
X46907023Y-22469047D01*
X47716547Y-22135714D02*
X47954642Y-22802380D01*
X48192738Y-22135714D01*
X48859404Y-23183333D02*
X48811785Y-23135714D01*
X48716547Y-22992857D01*
X48668928Y-22897619D01*
X48621309Y-22754761D01*
X48573690Y-22516666D01*
X48573690Y-22326190D01*
X48621309Y-22088095D01*
X48668928Y-21945238D01*
X48716547Y-21850000D01*
X48811785Y-21707142D01*
X48859404Y-21659523D01*
X49240357Y-22802380D02*
X49240357Y-21802380D01*
X49621309Y-23183333D02*
X49668928Y-23135714D01*
X49764166Y-22992857D01*
X49811785Y-22897619D01*
X49859404Y-22754761D01*
X49907023Y-22516666D01*
X49907023Y-22326190D01*
X49859404Y-22088095D01*
X49811785Y-21945238D01*
X49764166Y-21850000D01*
X49668928Y-21707142D01*
X49621309Y-21659523D01*
X51621309Y-22802380D02*
X51145119Y-22802380D01*
X51145119Y-21802380D01*
X52097500Y-22802380D02*
X52002261Y-22754761D01*
X51954642Y-22707142D01*
X51907023Y-22611904D01*
X51907023Y-22326190D01*
X51954642Y-22230952D01*
X52002261Y-22183333D01*
X52097500Y-22135714D01*
X52240357Y-22135714D01*
X52335595Y-22183333D01*
X52383214Y-22230952D01*
X52430833Y-22326190D01*
X52430833Y-22611904D01*
X52383214Y-22707142D01*
X52335595Y-22754761D01*
X52240357Y-22802380D01*
X52097500Y-22802380D01*
X52764166Y-22135714D02*
X52954642Y-22802380D01*
X53145119Y-22326190D01*
X53335595Y-22802380D01*
X53526071Y-22135714D01*
X54668928Y-22802380D02*
X54668928Y-21802380D01*
X55049880Y-21802380D01*
X55145119Y-21850000D01*
X55192738Y-21897619D01*
X55240357Y-21992857D01*
X55240357Y-22135714D01*
X55192738Y-22230952D01*
X55145119Y-22278571D01*
X55049880Y-22326190D01*
X54668928Y-22326190D01*
X56097500Y-22802380D02*
X56097500Y-22278571D01*
X56049880Y-22183333D01*
X55954642Y-22135714D01*
X55764166Y-22135714D01*
X55668928Y-22183333D01*
X56097500Y-22754761D02*
X56002261Y-22802380D01*
X55764166Y-22802380D01*
X55668928Y-22754761D01*
X55621309Y-22659523D01*
X55621309Y-22564285D01*
X55668928Y-22469047D01*
X55764166Y-22421428D01*
X56002261Y-22421428D01*
X56097500Y-22373809D01*
X56526071Y-22754761D02*
X56621309Y-22802380D01*
X56811785Y-22802380D01*
X56907023Y-22754761D01*
X56954642Y-22659523D01*
X56954642Y-22611904D01*
X56907023Y-22516666D01*
X56811785Y-22469047D01*
X56668928Y-22469047D01*
X56573690Y-22421428D01*
X56526071Y-22326190D01*
X56526071Y-22278571D01*
X56573690Y-22183333D01*
X56668928Y-22135714D01*
X56811785Y-22135714D01*
X56907023Y-22183333D01*
X57335595Y-22754761D02*
X57430833Y-22802380D01*
X57621309Y-22802380D01*
X57716547Y-22754761D01*
X57764166Y-22659523D01*
X57764166Y-22611904D01*
X57716547Y-22516666D01*
X57621309Y-22469047D01*
X57478452Y-22469047D01*
X57383214Y-22421428D01*
X57335595Y-22326190D01*
X57335595Y-22278571D01*
X57383214Y-22183333D01*
X57478452Y-22135714D01*
X57621309Y-22135714D01*
X57716547Y-22183333D01*
X59287976Y-22278571D02*
X58954642Y-22278571D01*
X58954642Y-22802380D02*
X58954642Y-21802380D01*
X59430833Y-21802380D01*
X59811785Y-22802380D02*
X59811785Y-22135714D01*
X59811785Y-21802380D02*
X59764166Y-21850000D01*
X59811785Y-21897619D01*
X59859404Y-21850000D01*
X59811785Y-21802380D01*
X59811785Y-21897619D01*
X60430833Y-22802380D02*
X60335595Y-22754761D01*
X60287976Y-22659523D01*
X60287976Y-21802380D01*
X60668928Y-22135714D02*
X61049880Y-22135714D01*
X60811785Y-21802380D02*
X60811785Y-22659523D01*
X60859404Y-22754761D01*
X60954642Y-22802380D01*
X61049880Y-22802380D01*
X61764166Y-22754761D02*
X61668928Y-22802380D01*
X61478452Y-22802380D01*
X61383214Y-22754761D01*
X61335595Y-22659523D01*
X61335595Y-22278571D01*
X61383214Y-22183333D01*
X61478452Y-22135714D01*
X61668928Y-22135714D01*
X61764166Y-22183333D01*
X61811785Y-22278571D01*
X61811785Y-22373809D01*
X61335595Y-22469047D01*
X62240357Y-22802380D02*
X62240357Y-22135714D01*
X62240357Y-22326190D02*
X62287976Y-22230952D01*
X62335595Y-22183333D01*
X62430833Y-22135714D01*
X62526071Y-22135714D01*
X32240357Y-23452380D02*
X32907023Y-23452380D01*
X32240357Y-24452380D01*
X32907023Y-24452380D01*
X33668928Y-24404761D02*
X33573690Y-24452380D01*
X33383214Y-24452380D01*
X33287976Y-24404761D01*
X33240357Y-24309523D01*
X33240357Y-23928571D01*
X33287976Y-23833333D01*
X33383214Y-23785714D01*
X33573690Y-23785714D01*
X33668928Y-23833333D01*
X33716547Y-23928571D01*
X33716547Y-24023809D01*
X33240357Y-24119047D01*
X34145119Y-23785714D02*
X34145119Y-24452380D01*
X34145119Y-23880952D02*
X34192738Y-23833333D01*
X34287976Y-23785714D01*
X34430833Y-23785714D01*
X34526071Y-23833333D01*
X34573690Y-23928571D01*
X34573690Y-24452380D01*
X35049880Y-24452380D02*
X35049880Y-23785714D01*
X35049880Y-23452380D02*
X35002261Y-23500000D01*
X35049880Y-23547619D01*
X35097500Y-23500000D01*
X35049880Y-23452380D01*
X35049880Y-23547619D01*
X35526071Y-23785714D02*
X35526071Y-24452380D01*
X35526071Y-23880952D02*
X35573690Y-23833333D01*
X35668928Y-23785714D01*
X35811785Y-23785714D01*
X35907023Y-23833333D01*
X35954642Y-23928571D01*
X35954642Y-24452380D01*
X36859404Y-23785714D02*
X36859404Y-24595238D01*
X36811785Y-24690476D01*
X36764166Y-24738095D01*
X36668928Y-24785714D01*
X36526071Y-24785714D01*
X36430833Y-24738095D01*
X36859404Y-24404761D02*
X36764166Y-24452380D01*
X36573690Y-24452380D01*
X36478452Y-24404761D01*
X36430833Y-24357142D01*
X36383214Y-24261904D01*
X36383214Y-23976190D01*
X36430833Y-23880952D01*
X36478452Y-23833333D01*
X36573690Y-23785714D01*
X36764166Y-23785714D01*
X36859404Y-23833333D01*
X38573690Y-24452380D02*
X38097500Y-24452380D01*
X38097500Y-23452380D01*
X39335595Y-23785714D02*
X39335595Y-24452380D01*
X38907023Y-23785714D02*
X38907023Y-24309523D01*
X38954642Y-24404761D01*
X39049880Y-24452380D01*
X39192738Y-24452380D01*
X39287976Y-24404761D01*
X39335595Y-24357142D01*
X40859404Y-24833333D02*
X40811785Y-24785714D01*
X40716547Y-24642857D01*
X40668928Y-24547619D01*
X40621309Y-24404761D01*
X40573690Y-24166666D01*
X40573690Y-23976190D01*
X40621309Y-23738095D01*
X40668928Y-23595238D01*
X40716547Y-23500000D01*
X40811785Y-23357142D01*
X40859404Y-23309523D01*
X41573690Y-23928571D02*
X41716547Y-23976190D01*
X41764166Y-24023809D01*
X41811785Y-24119047D01*
X41811785Y-24261904D01*
X41764166Y-24357142D01*
X41716547Y-24404761D01*
X41621309Y-24452380D01*
X41240357Y-24452380D01*
X41240357Y-23452380D01*
X41573690Y-23452380D01*
X41668928Y-23500000D01*
X41716547Y-23547619D01*
X41764166Y-23642857D01*
X41764166Y-23738095D01*
X41716547Y-23833333D01*
X41668928Y-23880952D01*
X41573690Y-23928571D01*
X41240357Y-23928571D01*
X42240357Y-24452380D02*
X42240357Y-23452380D01*
X43145119Y-23785714D02*
X43145119Y-24452380D01*
X42907023Y-23404761D02*
X42668928Y-24119047D01*
X43287976Y-24119047D01*
X43573690Y-23452380D02*
X43811785Y-24452380D01*
X44002261Y-23738095D01*
X44192738Y-24452380D01*
X44430833Y-23452380D01*
X45002261Y-23452380D02*
X45192738Y-23452380D01*
X45287976Y-23500000D01*
X45383214Y-23595238D01*
X45430833Y-23785714D01*
X45430833Y-24119047D01*
X45383214Y-24309523D01*
X45287976Y-24404761D01*
X45192738Y-24452380D01*
X45002261Y-24452380D01*
X44907023Y-24404761D01*
X44811785Y-24309523D01*
X44764166Y-24119047D01*
X44764166Y-23785714D01*
X44811785Y-23595238D01*
X44907023Y-23500000D01*
X45002261Y-23452380D01*
X45859404Y-24452380D02*
X45859404Y-23452380D01*
X46240357Y-23452380D01*
X46335595Y-23500000D01*
X46383214Y-23547619D01*
X46430833Y-23642857D01*
X46430833Y-23785714D01*
X46383214Y-23880952D01*
X46335595Y-23928571D01*
X46240357Y-23976190D01*
X45859404Y-23976190D01*
X46764166Y-24833333D02*
X46811785Y-24785714D01*
X46907023Y-24642857D01*
X46954642Y-24547619D01*
X47002261Y-24404761D01*
X47049880Y-24166666D01*
X47049880Y-23976190D01*
X47002261Y-23738095D01*
X46954642Y-23595238D01*
X46907023Y-23500000D01*
X46811785Y-23357142D01*
X46764166Y-23309523D01*
X32335595Y-26102380D02*
X32335595Y-25102380D01*
X32573690Y-25102380D01*
X32716547Y-25150000D01*
X32811785Y-25245238D01*
X32859404Y-25340476D01*
X32907023Y-25530952D01*
X32907023Y-25673809D01*
X32859404Y-25864285D01*
X32811785Y-25959523D01*
X32716547Y-26054761D01*
X32573690Y-26102380D01*
X32335595Y-26102380D01*
X33716547Y-26054761D02*
X33621309Y-26102380D01*
X33430833Y-26102380D01*
X33335595Y-26054761D01*
X33287976Y-25959523D01*
X33287976Y-25578571D01*
X33335595Y-25483333D01*
X33430833Y-25435714D01*
X33621309Y-25435714D01*
X33716547Y-25483333D01*
X33764166Y-25578571D01*
X33764166Y-25673809D01*
X33287976Y-25769047D01*
X34621309Y-26054761D02*
X34526071Y-26102380D01*
X34335595Y-26102380D01*
X34240357Y-26054761D01*
X34192738Y-26007142D01*
X34145119Y-25911904D01*
X34145119Y-25626190D01*
X34192738Y-25530952D01*
X34240357Y-25483333D01*
X34335595Y-25435714D01*
X34526071Y-25435714D01*
X34621309Y-25483333D01*
X35049880Y-26007142D02*
X35097500Y-26054761D01*
X35049880Y-26102380D01*
X35002261Y-26054761D01*
X35049880Y-26007142D01*
X35049880Y-26102380D01*
X36240357Y-25197619D02*
X36287976Y-25150000D01*
X36383214Y-25102380D01*
X36621309Y-25102380D01*
X36716547Y-25150000D01*
X36764166Y-25197619D01*
X36811785Y-25292857D01*
X36811785Y-25388095D01*
X36764166Y-25530952D01*
X36192738Y-26102380D01*
X36811785Y-26102380D01*
X37383214Y-25530952D02*
X37287976Y-25483333D01*
X37240357Y-25435714D01*
X37192738Y-25340476D01*
X37192738Y-25292857D01*
X37240357Y-25197619D01*
X37287976Y-25150000D01*
X37383214Y-25102380D01*
X37573690Y-25102380D01*
X37668928Y-25150000D01*
X37716547Y-25197619D01*
X37764166Y-25292857D01*
X37764166Y-25340476D01*
X37716547Y-25435714D01*
X37668928Y-25483333D01*
X37573690Y-25530952D01*
X37383214Y-25530952D01*
X37287976Y-25578571D01*
X37240357Y-25626190D01*
X37192738Y-25721428D01*
X37192738Y-25911904D01*
X37240357Y-26007142D01*
X37287976Y-26054761D01*
X37383214Y-26102380D01*
X37573690Y-26102380D01*
X37668928Y-26054761D01*
X37716547Y-26007142D01*
X37764166Y-25911904D01*
X37764166Y-25721428D01*
X37716547Y-25626190D01*
X37668928Y-25578571D01*
X37573690Y-25530952D01*
X38240357Y-26054761D02*
X38240357Y-26102380D01*
X38192738Y-26197619D01*
X38145119Y-26245238D01*
X39383214Y-25197619D02*
X39430833Y-25150000D01*
X39526071Y-25102380D01*
X39764166Y-25102380D01*
X39859404Y-25150000D01*
X39907023Y-25197619D01*
X39954642Y-25292857D01*
X39954642Y-25388095D01*
X39907023Y-25530952D01*
X39335595Y-26102380D01*
X39954642Y-26102380D01*
X40573690Y-25102380D02*
X40668928Y-25102380D01*
X40764166Y-25150000D01*
X40811785Y-25197619D01*
X40859404Y-25292857D01*
X40907023Y-25483333D01*
X40907023Y-25721428D01*
X40859404Y-25911904D01*
X40811785Y-26007142D01*
X40764166Y-26054761D01*
X40668928Y-26102380D01*
X40573690Y-26102380D01*
X40478452Y-26054761D01*
X40430833Y-26007142D01*
X40383214Y-25911904D01*
X40335595Y-25721428D01*
X40335595Y-25483333D01*
X40383214Y-25292857D01*
X40430833Y-25197619D01*
X40478452Y-25150000D01*
X40573690Y-25102380D01*
X41859404Y-26102380D02*
X41287976Y-26102380D01*
X41573690Y-26102380D02*
X41573690Y-25102380D01*
X41478452Y-25245238D01*
X41383214Y-25340476D01*
X41287976Y-25388095D01*
X42335595Y-26102380D02*
X42526071Y-26102380D01*
X42621309Y-26054761D01*
X42668928Y-26007142D01*
X42764166Y-25864285D01*
X42811785Y-25673809D01*
X42811785Y-25292857D01*
X42764166Y-25197619D01*
X42716547Y-25150000D01*
X42621309Y-25102380D01*
X42430833Y-25102380D01*
X42335595Y-25150000D01*
X42287976Y-25197619D01*
X42240357Y-25292857D01*
X42240357Y-25530952D01*
X42287976Y-25626190D01*
X42335595Y-25673809D01*
X42430833Y-25721428D01*
X42621309Y-25721428D01*
X42716547Y-25673809D01*
X42764166Y-25626190D01*
X42811785Y-25530952D01*
D11*
X164366666Y-62914285D02*
X164000000Y-62914285D01*
X164000000Y-63542857D02*
X164000000Y-62342857D01*
X164523809Y-62342857D01*
X165466666Y-62342857D02*
X164942857Y-62342857D01*
X164890476Y-62914285D01*
X164942857Y-62857142D01*
X165047619Y-62800000D01*
X165309523Y-62800000D01*
X165414285Y-62857142D01*
X165466666Y-62914285D01*
X165519047Y-63028571D01*
X165519047Y-63314285D01*
X165466666Y-63428571D01*
X165414285Y-63485714D01*
X165309523Y-63542857D01*
X165047619Y-63542857D01*
X164942857Y-63485714D01*
X164890476Y-63428571D01*
X167404761Y-63542857D02*
X166776190Y-63542857D01*
X167090476Y-63542857D02*
X167090476Y-62342857D01*
X166985714Y-62514285D01*
X166880952Y-62628571D01*
X166776190Y-62685714D01*
X168347619Y-62342857D02*
X168138095Y-62342857D01*
X168033333Y-62400000D01*
X167980952Y-62457142D01*
X167876190Y-62628571D01*
X167823809Y-62857142D01*
X167823809Y-63314285D01*
X167876190Y-63428571D01*
X167928571Y-63485714D01*
X168033333Y-63542857D01*
X168242857Y-63542857D01*
X168347619Y-63485714D01*
X168400000Y-63428571D01*
X168452380Y-63314285D01*
X168452380Y-63028571D01*
X168400000Y-62914285D01*
X168347619Y-62857142D01*
X168242857Y-62800000D01*
X168033333Y-62800000D01*
X167928571Y-62857142D01*
X167876190Y-62914285D01*
X167823809Y-63028571D01*
X169133333Y-62342857D02*
X169238095Y-62342857D01*
X169342857Y-62400000D01*
X169395238Y-62457142D01*
X169447619Y-62571428D01*
X169500000Y-62800000D01*
X169500000Y-63085714D01*
X169447619Y-63314285D01*
X169395238Y-63428571D01*
X169342857Y-63485714D01*
X169238095Y-63542857D01*
X169133333Y-63542857D01*
X169028571Y-63485714D01*
X168976190Y-63428571D01*
X168923809Y-63314285D01*
X168871428Y-63085714D01*
X168871428Y-62800000D01*
X168923809Y-62571428D01*
X168976190Y-62457142D01*
X169028571Y-62400000D01*
X169133333Y-62342857D01*
X169971428Y-63542857D02*
X169971428Y-62742857D01*
X169971428Y-62857142D02*
X170023809Y-62800000D01*
X170128571Y-62742857D01*
X170285714Y-62742857D01*
X170390476Y-62800000D01*
X170442857Y-62914285D01*
X170442857Y-63542857D01*
X170442857Y-62914285D02*
X170495238Y-62800000D01*
X170600000Y-62742857D01*
X170757142Y-62742857D01*
X170861904Y-62800000D01*
X170914285Y-62914285D01*
X170914285Y-63542857D01*
X171857142Y-63485714D02*
X171752380Y-63542857D01*
X171542857Y-63542857D01*
X171438095Y-63485714D01*
X171385714Y-63371428D01*
X171385714Y-62914285D01*
X171438095Y-62800000D01*
X171542857Y-62742857D01*
X171752380Y-62742857D01*
X171857142Y-62800000D01*
X171909523Y-62914285D01*
X171909523Y-63028571D01*
X171385714Y-63142857D01*
X172223809Y-62742857D02*
X172642857Y-62742857D01*
X172380952Y-62342857D02*
X172380952Y-63371428D01*
X172433333Y-63485714D01*
X172538095Y-63542857D01*
X172642857Y-63542857D01*
X173428571Y-63485714D02*
X173323809Y-63542857D01*
X173114285Y-63542857D01*
X173009523Y-63485714D01*
X172957142Y-63371428D01*
X172957142Y-62914285D01*
X173009523Y-62800000D01*
X173114285Y-62742857D01*
X173323809Y-62742857D01*
X173428571Y-62800000D01*
X173480952Y-62914285D01*
X173480952Y-63028571D01*
X172957142Y-63142857D01*
X173952380Y-63542857D02*
X173952380Y-62742857D01*
X173952380Y-62971428D02*
X174004761Y-62857142D01*
X174057142Y-62800000D01*
X174161904Y-62742857D01*
X174266666Y-62742857D01*
X174580952Y-63485714D02*
X174685714Y-63542857D01*
X174895238Y-63542857D01*
X175000000Y-63485714D01*
X175052380Y-63371428D01*
X175052380Y-63314285D01*
X175000000Y-63200000D01*
X174895238Y-63142857D01*
X174738095Y-63142857D01*
X174633333Y-63085714D01*
X174580952Y-62971428D01*
X174580952Y-62914285D01*
X174633333Y-62800000D01*
X174738095Y-62742857D01*
X174895238Y-62742857D01*
X175000000Y-62800000D01*
X120995238Y-62914285D02*
X120628571Y-62914285D01*
X120628571Y-63542857D02*
X120628571Y-62342857D01*
X121152380Y-62342857D01*
X122042857Y-62742857D02*
X122042857Y-63542857D01*
X121780952Y-62285714D02*
X121519047Y-63142857D01*
X122200000Y-63142857D01*
X123614285Y-62857142D02*
X123509523Y-62800000D01*
X123457142Y-62742857D01*
X123404761Y-62628571D01*
X123404761Y-62571428D01*
X123457142Y-62457142D01*
X123509523Y-62400000D01*
X123614285Y-62342857D01*
X123823809Y-62342857D01*
X123928571Y-62400000D01*
X123980952Y-62457142D01*
X124033333Y-62571428D01*
X124033333Y-62628571D01*
X123980952Y-62742857D01*
X123928571Y-62800000D01*
X123823809Y-62857142D01*
X123614285Y-62857142D01*
X123509523Y-62914285D01*
X123457142Y-62971428D01*
X123404761Y-63085714D01*
X123404761Y-63314285D01*
X123457142Y-63428571D01*
X123509523Y-63485714D01*
X123614285Y-63542857D01*
X123823809Y-63542857D01*
X123928571Y-63485714D01*
X123980952Y-63428571D01*
X124033333Y-63314285D01*
X124033333Y-63085714D01*
X123980952Y-62971428D01*
X123928571Y-62914285D01*
X123823809Y-62857142D01*
X124714285Y-62342857D02*
X124819047Y-62342857D01*
X124923809Y-62400000D01*
X124976190Y-62457142D01*
X125028571Y-62571428D01*
X125080952Y-62800000D01*
X125080952Y-63085714D01*
X125028571Y-63314285D01*
X124976190Y-63428571D01*
X124923809Y-63485714D01*
X124819047Y-63542857D01*
X124714285Y-63542857D01*
X124609523Y-63485714D01*
X124557142Y-63428571D01*
X124504761Y-63314285D01*
X124452380Y-63085714D01*
X124452380Y-62800000D01*
X124504761Y-62571428D01*
X124557142Y-62457142D01*
X124609523Y-62400000D01*
X124714285Y-62342857D01*
X125552380Y-63542857D02*
X125552380Y-62342857D01*
X125919047Y-63200000D01*
X126285714Y-62342857D01*
X126285714Y-63542857D01*
X127228571Y-63485714D02*
X127123809Y-63542857D01*
X126914285Y-63542857D01*
X126809523Y-63485714D01*
X126757142Y-63371428D01*
X126757142Y-62914285D01*
X126809523Y-62800000D01*
X126914285Y-62742857D01*
X127123809Y-62742857D01*
X127228571Y-62800000D01*
X127280952Y-62914285D01*
X127280952Y-63028571D01*
X126757142Y-63142857D01*
X127595238Y-62742857D02*
X128014285Y-62742857D01*
X127752380Y-62342857D02*
X127752380Y-63371428D01*
X127804761Y-63485714D01*
X127909523Y-63542857D01*
X128014285Y-63542857D01*
X128800000Y-63485714D02*
X128695238Y-63542857D01*
X128485714Y-63542857D01*
X128380952Y-63485714D01*
X128328571Y-63371428D01*
X128328571Y-62914285D01*
X128380952Y-62800000D01*
X128485714Y-62742857D01*
X128695238Y-62742857D01*
X128800000Y-62800000D01*
X128852380Y-62914285D01*
X128852380Y-63028571D01*
X128328571Y-63142857D01*
X129323809Y-63542857D02*
X129323809Y-62742857D01*
X129323809Y-62971428D02*
X129376190Y-62857142D01*
X129428571Y-62800000D01*
X129533333Y-62742857D01*
X129638095Y-62742857D01*
X129952380Y-63485714D02*
X130057142Y-63542857D01*
X130266666Y-63542857D01*
X130371428Y-63485714D01*
X130423809Y-63371428D01*
X130423809Y-63314285D01*
X130371428Y-63200000D01*
X130266666Y-63142857D01*
X130109523Y-63142857D01*
X130004761Y-63085714D01*
X129952380Y-62971428D01*
X129952380Y-62914285D01*
X130004761Y-62800000D01*
X130109523Y-62742857D01*
X130266666Y-62742857D01*
X130371428Y-62800000D01*
X73161904Y-62914285D02*
X72795238Y-62914285D01*
X72795238Y-63542857D02*
X72795238Y-62342857D01*
X73319047Y-62342857D01*
X73633333Y-62342857D02*
X74314285Y-62342857D01*
X73947619Y-62800000D01*
X74104761Y-62800000D01*
X74209523Y-62857142D01*
X74261904Y-62914285D01*
X74314285Y-63028571D01*
X74314285Y-63314285D01*
X74261904Y-63428571D01*
X74209523Y-63485714D01*
X74104761Y-63542857D01*
X73790476Y-63542857D01*
X73685714Y-63485714D01*
X73633333Y-63428571D01*
X75519047Y-62342857D02*
X76200000Y-62342857D01*
X75833333Y-62800000D01*
X75990476Y-62800000D01*
X76095238Y-62857142D01*
X76147619Y-62914285D01*
X76200000Y-63028571D01*
X76200000Y-63314285D01*
X76147619Y-63428571D01*
X76095238Y-63485714D01*
X75990476Y-63542857D01*
X75676190Y-63542857D01*
X75571428Y-63485714D01*
X75519047Y-63428571D01*
X76880952Y-62342857D02*
X76985714Y-62342857D01*
X77090476Y-62400000D01*
X77142857Y-62457142D01*
X77195238Y-62571428D01*
X77247619Y-62800000D01*
X77247619Y-63085714D01*
X77195238Y-63314285D01*
X77142857Y-63428571D01*
X77090476Y-63485714D01*
X76985714Y-63542857D01*
X76880952Y-63542857D01*
X76776190Y-63485714D01*
X76723809Y-63428571D01*
X76671428Y-63314285D01*
X76619047Y-63085714D01*
X76619047Y-62800000D01*
X76671428Y-62571428D01*
X76723809Y-62457142D01*
X76776190Y-62400000D01*
X76880952Y-62342857D01*
X77719047Y-63085714D02*
X78557142Y-63085714D01*
X79552380Y-62742857D02*
X79552380Y-63542857D01*
X79290476Y-62285714D02*
X79028571Y-63142857D01*
X79709523Y-63142857D01*
X80338095Y-62342857D02*
X80442857Y-62342857D01*
X80547619Y-62400000D01*
X80600000Y-62457142D01*
X80652380Y-62571428D01*
X80704761Y-62800000D01*
X80704761Y-63085714D01*
X80652380Y-63314285D01*
X80600000Y-63428571D01*
X80547619Y-63485714D01*
X80442857Y-63542857D01*
X80338095Y-63542857D01*
X80233333Y-63485714D01*
X80180952Y-63428571D01*
X80128571Y-63314285D01*
X80076190Y-63085714D01*
X80076190Y-62800000D01*
X80128571Y-62571428D01*
X80180952Y-62457142D01*
X80233333Y-62400000D01*
X80338095Y-62342857D01*
X81176190Y-63542857D02*
X81176190Y-62742857D01*
X81176190Y-62857142D02*
X81228571Y-62800000D01*
X81333333Y-62742857D01*
X81490476Y-62742857D01*
X81595238Y-62800000D01*
X81647619Y-62914285D01*
X81647619Y-63542857D01*
X81647619Y-62914285D02*
X81700000Y-62800000D01*
X81804761Y-62742857D01*
X81961904Y-62742857D01*
X82066666Y-62800000D01*
X82119047Y-62914285D01*
X82119047Y-63542857D01*
X83061904Y-63485714D02*
X82957142Y-63542857D01*
X82747619Y-63542857D01*
X82642857Y-63485714D01*
X82590476Y-63371428D01*
X82590476Y-62914285D01*
X82642857Y-62800000D01*
X82747619Y-62742857D01*
X82957142Y-62742857D01*
X83061904Y-62800000D01*
X83114285Y-62914285D01*
X83114285Y-63028571D01*
X82590476Y-63142857D01*
X83428571Y-62742857D02*
X83847619Y-62742857D01*
X83585714Y-62342857D02*
X83585714Y-63371428D01*
X83638095Y-63485714D01*
X83742857Y-63542857D01*
X83847619Y-63542857D01*
X84633333Y-63485714D02*
X84528571Y-63542857D01*
X84319047Y-63542857D01*
X84214285Y-63485714D01*
X84161904Y-63371428D01*
X84161904Y-62914285D01*
X84214285Y-62800000D01*
X84319047Y-62742857D01*
X84528571Y-62742857D01*
X84633333Y-62800000D01*
X84685714Y-62914285D01*
X84685714Y-63028571D01*
X84161904Y-63142857D01*
X85157142Y-63542857D02*
X85157142Y-62742857D01*
X85157142Y-62971428D02*
X85209523Y-62857142D01*
X85261904Y-62800000D01*
X85366666Y-62742857D01*
X85471428Y-62742857D01*
X85785714Y-63485714D02*
X85890476Y-63542857D01*
X86100000Y-63542857D01*
X86204761Y-63485714D01*
X86257142Y-63371428D01*
X86257142Y-63314285D01*
X86204761Y-63200000D01*
X86100000Y-63142857D01*
X85942857Y-63142857D01*
X85838095Y-63085714D01*
X85785714Y-62971428D01*
X85785714Y-62914285D01*
X85838095Y-62800000D01*
X85942857Y-62742857D01*
X86100000Y-62742857D01*
X86204761Y-62800000D01*
X31890476Y-62914285D02*
X31523809Y-62914285D01*
X31523809Y-63542857D02*
X31523809Y-62342857D01*
X32047619Y-62342857D01*
X32414285Y-62457142D02*
X32466666Y-62400000D01*
X32571428Y-62342857D01*
X32833333Y-62342857D01*
X32938095Y-62400000D01*
X32990476Y-62457142D01*
X33042857Y-62571428D01*
X33042857Y-62685714D01*
X32990476Y-62857142D01*
X32361904Y-63542857D01*
X33042857Y-63542857D01*
X34300000Y-62457142D02*
X34352380Y-62400000D01*
X34457142Y-62342857D01*
X34719047Y-62342857D01*
X34823809Y-62400000D01*
X34876190Y-62457142D01*
X34928571Y-62571428D01*
X34928571Y-62685714D01*
X34876190Y-62857142D01*
X34247619Y-63542857D01*
X34928571Y-63542857D01*
X35609523Y-62342857D02*
X35714285Y-62342857D01*
X35819047Y-62400000D01*
X35871428Y-62457142D01*
X35923809Y-62571428D01*
X35976190Y-62800000D01*
X35976190Y-63085714D01*
X35923809Y-63314285D01*
X35871428Y-63428571D01*
X35819047Y-63485714D01*
X35714285Y-63542857D01*
X35609523Y-63542857D01*
X35504761Y-63485714D01*
X35452380Y-63428571D01*
X35400000Y-63314285D01*
X35347619Y-63085714D01*
X35347619Y-62800000D01*
X35400000Y-62571428D01*
X35452380Y-62457142D01*
X35504761Y-62400000D01*
X35609523Y-62342857D01*
X36447619Y-63542857D02*
X36447619Y-62742857D01*
X36447619Y-62857142D02*
X36500000Y-62800000D01*
X36604761Y-62742857D01*
X36761904Y-62742857D01*
X36866666Y-62800000D01*
X36919047Y-62914285D01*
X36919047Y-63542857D01*
X36919047Y-62914285D02*
X36971428Y-62800000D01*
X37076190Y-62742857D01*
X37233333Y-62742857D01*
X37338095Y-62800000D01*
X37390476Y-62914285D01*
X37390476Y-63542857D01*
X38333333Y-63485714D02*
X38228571Y-63542857D01*
X38019047Y-63542857D01*
X37914285Y-63485714D01*
X37861904Y-63371428D01*
X37861904Y-62914285D01*
X37914285Y-62800000D01*
X38019047Y-62742857D01*
X38228571Y-62742857D01*
X38333333Y-62800000D01*
X38385714Y-62914285D01*
X38385714Y-63028571D01*
X37861904Y-63142857D01*
X38700000Y-62742857D02*
X39119047Y-62742857D01*
X38857142Y-62342857D02*
X38857142Y-63371428D01*
X38909523Y-63485714D01*
X39014285Y-63542857D01*
X39119047Y-63542857D01*
X39904761Y-63485714D02*
X39800000Y-63542857D01*
X39590476Y-63542857D01*
X39485714Y-63485714D01*
X39433333Y-63371428D01*
X39433333Y-62914285D01*
X39485714Y-62800000D01*
X39590476Y-62742857D01*
X39800000Y-62742857D01*
X39904761Y-62800000D01*
X39957142Y-62914285D01*
X39957142Y-63028571D01*
X39433333Y-63142857D01*
X40428571Y-63542857D02*
X40428571Y-62742857D01*
X40428571Y-62971428D02*
X40480952Y-62857142D01*
X40533333Y-62800000D01*
X40638095Y-62742857D01*
X40742857Y-62742857D01*
X41057142Y-63485714D02*
X41161904Y-63542857D01*
X41371428Y-63542857D01*
X41476190Y-63485714D01*
X41528571Y-63371428D01*
X41528571Y-63314285D01*
X41476190Y-63200000D01*
X41371428Y-63142857D01*
X41214285Y-63142857D01*
X41109523Y-63085714D01*
X41057142Y-62971428D01*
X41057142Y-62914285D01*
X41109523Y-62800000D01*
X41214285Y-62742857D01*
X41371428Y-62742857D01*
X41476190Y-62800000D01*
X-8338095Y-62914285D02*
X-8704761Y-62914285D01*
X-8704761Y-63542857D02*
X-8704761Y-62342857D01*
X-8180952Y-62342857D01*
X-7185714Y-63542857D02*
X-7814285Y-63542857D01*
X-7500000Y-63542857D02*
X-7500000Y-62342857D01*
X-7604761Y-62514285D01*
X-7709523Y-62628571D01*
X-7814285Y-62685714D01*
X-5300000Y-63542857D02*
X-5928571Y-63542857D01*
X-5614285Y-63542857D02*
X-5614285Y-62342857D01*
X-5719047Y-62514285D01*
X-5823809Y-62628571D01*
X-5928571Y-62685714D01*
X-4619047Y-62342857D02*
X-4514285Y-62342857D01*
X-4409523Y-62400000D01*
X-4357142Y-62457142D01*
X-4304761Y-62571428D01*
X-4252380Y-62800000D01*
X-4252380Y-63085714D01*
X-4304761Y-63314285D01*
X-4357142Y-63428571D01*
X-4409523Y-63485714D01*
X-4514285Y-63542857D01*
X-4619047Y-63542857D01*
X-4723809Y-63485714D01*
X-4776190Y-63428571D01*
X-4828571Y-63314285D01*
X-4880952Y-63085714D01*
X-4880952Y-62800000D01*
X-4828571Y-62571428D01*
X-4776190Y-62457142D01*
X-4723809Y-62400000D01*
X-4619047Y-62342857D01*
X-3780952Y-63085714D02*
X-2942857Y-63085714D01*
X-1842857Y-63542857D02*
X-2471428Y-63542857D01*
X-2157142Y-63542857D02*
X-2157142Y-62342857D01*
X-2261904Y-62514285D01*
X-2366666Y-62628571D01*
X-2471428Y-62685714D01*
X-847619Y-62342857D02*
X-1371428Y-62342857D01*
X-1423809Y-62914285D01*
X-1371428Y-62857142D01*
X-1266666Y-62800000D01*
X-1004761Y-62800000D01*
X-900000Y-62857142D01*
X-847619Y-62914285D01*
X-795238Y-63028571D01*
X-795238Y-63314285D01*
X-847619Y-63428571D01*
X-900000Y-63485714D01*
X-1004761Y-63542857D01*
X-1266666Y-63542857D01*
X-1371428Y-63485714D01*
X-1423809Y-63428571D01*
X-323809Y-63542857D02*
X-323809Y-62742857D01*
X-323809Y-62857142D02*
X-271428Y-62800000D01*
X-166666Y-62742857D01*
X-9523Y-62742857D01*
X95238Y-62800000D01*
X147619Y-62914285D01*
X147619Y-63542857D01*
X147619Y-62914285D02*
X199999Y-62800000D01*
X304761Y-62742857D01*
X461904Y-62742857D01*
X566666Y-62800000D01*
X619047Y-62914285D01*
X619047Y-63542857D01*
X1561904Y-63485714D02*
X1457142Y-63542857D01*
X1247619Y-63542857D01*
X1142857Y-63485714D01*
X1090476Y-63371428D01*
X1090476Y-62914285D01*
X1142857Y-62800000D01*
X1247619Y-62742857D01*
X1457142Y-62742857D01*
X1561904Y-62800000D01*
X1614285Y-62914285D01*
X1614285Y-63028571D01*
X1090476Y-63142857D01*
X1928571Y-62742857D02*
X2347619Y-62742857D01*
X2085714Y-62342857D02*
X2085714Y-63371428D01*
X2138095Y-63485714D01*
X2242857Y-63542857D01*
X2347619Y-63542857D01*
X3133333Y-63485714D02*
X3028571Y-63542857D01*
X2819047Y-63542857D01*
X2714285Y-63485714D01*
X2661904Y-63371428D01*
X2661904Y-62914285D01*
X2714285Y-62800000D01*
X2819047Y-62742857D01*
X3028571Y-62742857D01*
X3133333Y-62800000D01*
X3185714Y-62914285D01*
X3185714Y-63028571D01*
X2661904Y-63142857D01*
X3657142Y-63542857D02*
X3657142Y-62742857D01*
X3657142Y-62971428D02*
X3709523Y-62857142D01*
X3761904Y-62800000D01*
X3866666Y-62742857D01*
X3971428Y-62742857D01*
X4285714Y-63485714D02*
X4390476Y-63542857D01*
X4600000Y-63542857D01*
X4704761Y-63485714D01*
X4757142Y-63371428D01*
X4757142Y-63314285D01*
X4704761Y-63200000D01*
X4600000Y-63142857D01*
X4442857Y-63142857D01*
X4338095Y-63085714D01*
X4285714Y-62971428D01*
X4285714Y-62914285D01*
X4338095Y-62800000D01*
X4442857Y-62742857D01*
X4600000Y-62742857D01*
X4704761Y-62800000D01*
D12*
X181500000Y-27000000D02*
X181500000Y-28000000D01*
X171500000Y-27000000D02*
X171500000Y-28000000D01*
D10*
X184890476Y-27100000D02*
X184814285Y-27061904D01*
X184700000Y-27061904D01*
X184585714Y-27100000D01*
X184509523Y-27176190D01*
X184471428Y-27252380D01*
X184433333Y-27404761D01*
X184433333Y-27519047D01*
X184471428Y-27671428D01*
X184509523Y-27747619D01*
X184585714Y-27823809D01*
X184700000Y-27861904D01*
X184776190Y-27861904D01*
X184890476Y-27823809D01*
X184928571Y-27785714D01*
X184928571Y-27519047D01*
X184776190Y-27519047D01*
X185271428Y-27861904D02*
X185271428Y-27061904D01*
X185728571Y-27861904D01*
X185728571Y-27061904D01*
X186109523Y-27861904D02*
X186109523Y-27061904D01*
X186300000Y-27061904D01*
X186414285Y-27100000D01*
X186490476Y-27176190D01*
X186528571Y-27252380D01*
X186566666Y-27404761D01*
X186566666Y-27519047D01*
X186528571Y-27671428D01*
X186490476Y-27747619D01*
X186414285Y-27823809D01*
X186300000Y-27861904D01*
X186109523Y-27861904D01*
X175014285Y-27442857D02*
X174747619Y-27442857D01*
X174747619Y-27861904D02*
X174747619Y-27061904D01*
X175128571Y-27061904D01*
X175852380Y-27861904D02*
X175395238Y-27861904D01*
X175623809Y-27861904D02*
X175623809Y-27061904D01*
X175547619Y-27176190D01*
X175471428Y-27252380D01*
X175395238Y-27290476D01*
X176195238Y-27557142D02*
X176804761Y-27557142D01*
X177452380Y-27442857D02*
X177185714Y-27442857D01*
X177185714Y-27861904D02*
X177185714Y-27061904D01*
X177566666Y-27061904D01*
X178214285Y-27328571D02*
X178214285Y-27861904D01*
X178023809Y-27023809D02*
X177833333Y-27595238D01*
X178328571Y-27595238D01*
X168090476Y-27557142D02*
X168700000Y-27557142D01*
X168395238Y-27861904D02*
X168395238Y-27252380D01*
X169500000Y-27861904D02*
X169042857Y-27861904D01*
X169271428Y-27861904D02*
X169271428Y-27061904D01*
X169195238Y-27176190D01*
X169119047Y-27252380D01*
X169042857Y-27290476D01*
X169804761Y-27138095D02*
X169842857Y-27100000D01*
X169919047Y-27061904D01*
X170109523Y-27061904D01*
X170185714Y-27100000D01*
X170223809Y-27138095D01*
X170261904Y-27214285D01*
X170261904Y-27290476D01*
X170223809Y-27404761D01*
X169766666Y-27861904D01*
X170261904Y-27861904D01*
X170490476Y-27061904D02*
X170757142Y-27861904D01*
X171023809Y-27061904D01*
X177476190Y-29285714D02*
X177438095Y-29323809D01*
X177323809Y-29361904D01*
X177247619Y-29361904D01*
X177133333Y-29323809D01*
X177057142Y-29247619D01*
X177019047Y-29171428D01*
X176980952Y-29019047D01*
X176980952Y-28904761D01*
X177019047Y-28752380D01*
X177057142Y-28676190D01*
X177133333Y-28600000D01*
X177247619Y-28561904D01*
X177323809Y-28561904D01*
X177438095Y-28600000D01*
X177476190Y-28638095D01*
X177933333Y-29361904D02*
X177857142Y-29323809D01*
X177819047Y-29285714D01*
X177780952Y-29209523D01*
X177780952Y-28980952D01*
X177819047Y-28904761D01*
X177857142Y-28866666D01*
X177933333Y-28828571D01*
X178047619Y-28828571D01*
X178123809Y-28866666D01*
X178161904Y-28904761D01*
X178200000Y-28980952D01*
X178200000Y-29209523D01*
X178161904Y-29285714D01*
X178123809Y-29323809D01*
X178047619Y-29361904D01*
X177933333Y-29361904D01*
X178542857Y-28828571D02*
X178542857Y-29361904D01*
X178542857Y-28904761D02*
X178580952Y-28866666D01*
X178657142Y-28828571D01*
X178771428Y-28828571D01*
X178847619Y-28866666D01*
X178885714Y-28942857D01*
X178885714Y-29361904D01*
X179152380Y-28828571D02*
X179457142Y-28828571D01*
X179266666Y-28561904D02*
X179266666Y-29247619D01*
X179304761Y-29323809D01*
X179380952Y-29361904D01*
X179457142Y-29361904D01*
X179723809Y-29361904D02*
X179723809Y-28828571D01*
X179723809Y-28980952D02*
X179761904Y-28904761D01*
X179800000Y-28866666D01*
X179876190Y-28828571D01*
X179952380Y-28828571D01*
X180333333Y-29361904D02*
X180257142Y-29323809D01*
X180219047Y-29285714D01*
X180180952Y-29209523D01*
X180180952Y-28980952D01*
X180219047Y-28904761D01*
X180257142Y-28866666D01*
X180333333Y-28828571D01*
X180447619Y-28828571D01*
X180523809Y-28866666D01*
X180561904Y-28904761D01*
X180600000Y-28980952D01*
X180600000Y-29209523D01*
X180561904Y-29285714D01*
X180523809Y-29323809D01*
X180447619Y-29361904D01*
X180333333Y-29361904D01*
X181057142Y-29361904D02*
X180980952Y-29323809D01*
X180942857Y-29247619D01*
X180942857Y-28561904D01*
X-5212183Y-166299627D02*
X-5131370Y-165841691D01*
X-5535431Y-165976378D02*
X-4969746Y-165410693D01*
X-4754247Y-165626192D01*
X-4727309Y-165707004D01*
X-4727309Y-165760879D01*
X-4754247Y-165841691D01*
X-4835059Y-165922503D01*
X-4915871Y-165949441D01*
X-4969746Y-165949441D01*
X-5050558Y-165922503D01*
X-5266057Y-165707004D01*
X-4484873Y-166434314D02*
X-4673435Y-166245752D01*
X-4969746Y-166542064D02*
X-4404061Y-165976378D01*
X-4134687Y-166245752D01*
X-3973062Y-167538748D02*
X-3999999Y-167457935D01*
X-4000000Y-167404061D01*
X-3973062Y-167323248D01*
X-3811438Y-167161624D01*
X-3730625Y-167134687D01*
X-3676751Y-167134687D01*
X-3595938Y-167161624D01*
X-3515126Y-167242436D01*
X-3488189Y-167323248D01*
X-3488189Y-167377123D01*
X-3515126Y-167457935D01*
X-3676751Y-167619560D01*
X-3757563Y-167646497D01*
X-3811438Y-167646497D01*
X-3892250Y-167619560D01*
X-3973062Y-167538748D01*
X-2922503Y-167835059D02*
X-3299627Y-168212183D01*
X-3164940Y-167592622D02*
X-3461251Y-167888934D01*
X-3488189Y-167969746D01*
X-3461251Y-168050558D01*
X-3380439Y-168131370D01*
X-3299627Y-168158308D01*
X-3245752Y-168158308D01*
X-2733942Y-168023621D02*
X-2518442Y-168239120D01*
X-2464568Y-167915871D02*
X-2949441Y-168400744D01*
X-2976378Y-168481557D01*
X-2949441Y-168562369D01*
X-2895566Y-168616244D01*
X-9417529Y-31429340D02*
X-9875465Y-31348528D01*
X-9740778Y-31752589D02*
X-10306463Y-31186903D01*
X-10090964Y-30971404D01*
X-10010152Y-30944467D01*
X-9956277Y-30944467D01*
X-9875465Y-30971404D01*
X-9794653Y-31052216D01*
X-9767715Y-31133028D01*
X-9767715Y-31186903D01*
X-9794653Y-31267715D01*
X-10010152Y-31483215D01*
X-9282842Y-30702030D02*
X-9471404Y-30890592D01*
X-9175093Y-31186903D02*
X-9740778Y-30621218D01*
X-9471404Y-30351844D01*
X-8259221Y-30271032D02*
X-8636345Y-29893908D01*
X-8824906Y-29705346D02*
X-8824906Y-29759221D01*
X-8771032Y-29759221D01*
X-8771032Y-29705346D01*
X-8824906Y-29705346D01*
X-8771032Y-29759221D01*
X-8366971Y-29624534D02*
X-7989847Y-30001658D01*
X-8313096Y-29678409D02*
X-8313096Y-29624534D01*
X-8286158Y-29543722D01*
X-8205346Y-29462910D01*
X-8124534Y-29435972D01*
X-8043722Y-29462910D01*
X-7747410Y-29759221D01*
D13*
G36*
X205306349Y-127721825D02*
G01*
X200710155Y-132318019D01*
X192931981Y-124539845D01*
X197528175Y-119943651D01*
X205306349Y-127721825D01*
G37*
X205306349Y-127721825D02*
X200710155Y-132318019D01*
X192931981Y-124539845D01*
X197528175Y-119943651D01*
X205306349Y-127721825D01*
G36*
X181971825Y-151056349D02*
G01*
X186568019Y-146460155D01*
X178789845Y-138681981D01*
X174193651Y-143278175D01*
X181971825Y-151056349D01*
G37*
X181971825Y-151056349D02*
X186568019Y-146460155D01*
X178789845Y-138681981D01*
X174193651Y-143278175D01*
X181971825Y-151056349D01*
D12*
X205306349Y-127721825D02*
X181971825Y-151056349D01*
X197528175Y-119943651D02*
X205306349Y-127721825D01*
X174193651Y-143278175D02*
X197528175Y-119943651D01*
X181971825Y-151056349D02*
X174193651Y-143278175D01*
D13*
G36*
X183528175Y-123056349D02*
G01*
X178931981Y-118460155D01*
X186710155Y-110681981D01*
X191306349Y-115278175D01*
X183528175Y-123056349D01*
G37*
X183528175Y-123056349D02*
X178931981Y-118460155D01*
X186710155Y-110681981D01*
X191306349Y-115278175D01*
X183528175Y-123056349D01*
G36*
X160193651Y-99721825D02*
G01*
X164789845Y-104318019D01*
X172568019Y-96539845D01*
X167971825Y-91943651D01*
X160193651Y-99721825D01*
G37*
X160193651Y-99721825D02*
X164789845Y-104318019D01*
X172568019Y-96539845D01*
X167971825Y-91943651D01*
X160193651Y-99721825D01*
D12*
X183528175Y-123056349D02*
X160193651Y-99721825D01*
X191306349Y-115278175D02*
X183528175Y-123056349D01*
X167971825Y-91943651D02*
X191306349Y-115278175D01*
X160193651Y-99721825D02*
X167971825Y-91943651D01*
D13*
G36*
X205306349Y-71721825D02*
G01*
X200710155Y-76318019D01*
X192931981Y-68539845D01*
X197528175Y-63943651D01*
X205306349Y-71721825D01*
G37*
X205306349Y-71721825D02*
X200710155Y-76318019D01*
X192931981Y-68539845D01*
X197528175Y-63943651D01*
X205306349Y-71721825D01*
G36*
X181971825Y-95056349D02*
G01*
X186568019Y-90460155D01*
X178789845Y-82681981D01*
X174193651Y-87278175D01*
X181971825Y-95056349D01*
G37*
X181971825Y-95056349D02*
X186568019Y-90460155D01*
X178789845Y-82681981D01*
X174193651Y-87278175D01*
X181971825Y-95056349D01*
D12*
X205306349Y-71721825D02*
X181971825Y-95056349D01*
X197528175Y-63943651D02*
X205306349Y-71721825D01*
X174193651Y-87278175D02*
X197528175Y-63943651D01*
X181971825Y-95056349D02*
X174193651Y-87278175D01*
D13*
G36*
X183334175Y-67056349D02*
G01*
X178737981Y-62460155D01*
X186516155Y-54681981D01*
X191112349Y-59278175D01*
X183334175Y-67056349D01*
G37*
X183334175Y-67056349D02*
X178737981Y-62460155D01*
X186516155Y-54681981D01*
X191112349Y-59278175D01*
X183334175Y-67056349D01*
G36*
X159999651Y-43721825D02*
G01*
X164595845Y-48318019D01*
X172374019Y-40539845D01*
X167777825Y-35943651D01*
X159999651Y-43721825D01*
G37*
X159999651Y-43721825D02*
X164595845Y-48318019D01*
X172374019Y-40539845D01*
X167777825Y-35943651D01*
X159999651Y-43721825D01*
D12*
X183334175Y-67056349D02*
X159999651Y-43721825D01*
X191112349Y-59278175D02*
X183334175Y-67056349D01*
X167777825Y-35943651D02*
X191112349Y-59278175D01*
X159999651Y-43721825D02*
X167777825Y-35943651D01*
D13*
G36*
X155185029Y-127343146D02*
G01*
X150942388Y-131585786D01*
X143164214Y-123807612D01*
X147406854Y-119564971D01*
X155185029Y-127343146D01*
G37*
X155185029Y-127343146D02*
X150942388Y-131585786D01*
X143164214Y-123807612D01*
X147406854Y-119564971D01*
X155185029Y-127343146D01*
G36*
X136093146Y-146435029D02*
G01*
X128314971Y-138656854D01*
X132557612Y-134414214D01*
X140335786Y-142192388D01*
X136093146Y-146435029D01*
G37*
X136093146Y-146435029D02*
X128314971Y-138656854D01*
X132557612Y-134414214D01*
X140335786Y-142192388D01*
X136093146Y-146435029D01*
D12*
X136093146Y-146435029D02*
X155185029Y-127343146D01*
X128314971Y-138656854D02*
X136093146Y-146435029D01*
X147406854Y-119564971D02*
X128314971Y-138656854D01*
X155185029Y-127343146D02*
X147406854Y-119564971D01*
D13*
G36*
X133406854Y-117435029D02*
G01*
X129164214Y-113192388D01*
X136942388Y-105414214D01*
X141185029Y-109656854D01*
X133406854Y-117435029D01*
G37*
X133406854Y-117435029D02*
X129164214Y-113192388D01*
X136942388Y-105414214D01*
X141185029Y-109656854D01*
X133406854Y-117435029D01*
G36*
X114314971Y-98343146D02*
G01*
X122093146Y-90564971D01*
X126335786Y-94807612D01*
X118557612Y-102585786D01*
X114314971Y-98343146D01*
G37*
X114314971Y-98343146D02*
X122093146Y-90564971D01*
X126335786Y-94807612D01*
X118557612Y-102585786D01*
X114314971Y-98343146D01*
D12*
X114314971Y-98343146D02*
X133406854Y-117435029D01*
X122093146Y-90564971D02*
X114314971Y-98343146D01*
X141185029Y-109656854D02*
X122093146Y-90564971D01*
X133406854Y-117435029D02*
X141185029Y-109656854D01*
D13*
G36*
X155185029Y-69843146D02*
G01*
X150942388Y-74085786D01*
X143164214Y-66307612D01*
X147406854Y-62064971D01*
X155185029Y-69843146D01*
G37*
X155185029Y-69843146D02*
X150942388Y-74085786D01*
X143164214Y-66307612D01*
X147406854Y-62064971D01*
X155185029Y-69843146D01*
G36*
X136093146Y-88935029D02*
G01*
X128314971Y-81156854D01*
X132557612Y-76914214D01*
X140335786Y-84692388D01*
X136093146Y-88935029D01*
G37*
X136093146Y-88935029D02*
X128314971Y-81156854D01*
X132557612Y-76914214D01*
X140335786Y-84692388D01*
X136093146Y-88935029D01*
D12*
X136093146Y-88935029D02*
X155185029Y-69843146D01*
X128314971Y-81156854D02*
X136093146Y-88935029D01*
X147406854Y-62064971D02*
X128314971Y-81156854D01*
X155185029Y-69843146D02*
X147406854Y-62064971D01*
D13*
G36*
X111435029Y-127343146D02*
G01*
X107192388Y-131585786D01*
X99414214Y-123807612D01*
X103656854Y-119564971D01*
X111435029Y-127343146D01*
G37*
X111435029Y-127343146D02*
X107192388Y-131585786D01*
X99414214Y-123807612D01*
X103656854Y-119564971D01*
X111435029Y-127343146D01*
G36*
X92343146Y-146435029D02*
G01*
X84564971Y-138656854D01*
X88807612Y-134414214D01*
X96585786Y-142192388D01*
X92343146Y-146435029D01*
G37*
X92343146Y-146435029D02*
X84564971Y-138656854D01*
X88807612Y-134414214D01*
X96585786Y-142192388D01*
X92343146Y-146435029D01*
D12*
X92343146Y-146435029D02*
X111435029Y-127343146D01*
X84564971Y-138656854D02*
X92343146Y-146435029D01*
X103656854Y-119564971D02*
X84564971Y-138656854D01*
X111435029Y-127343146D02*
X103656854Y-119564971D01*
D13*
G36*
X89406854Y-117435029D02*
G01*
X85164214Y-113192388D01*
X92942388Y-105414214D01*
X97185029Y-109656854D01*
X89406854Y-117435029D01*
G37*
X89406854Y-117435029D02*
X85164214Y-113192388D01*
X92942388Y-105414214D01*
X97185029Y-109656854D01*
X89406854Y-117435029D01*
G36*
X70314971Y-98343146D02*
G01*
X78093146Y-90564971D01*
X82335786Y-94807612D01*
X74557612Y-102585786D01*
X70314971Y-98343146D01*
G37*
X70314971Y-98343146D02*
X78093146Y-90564971D01*
X82335786Y-94807612D01*
X74557612Y-102585786D01*
X70314971Y-98343146D01*
D12*
X70314971Y-98343146D02*
X89406854Y-117435029D01*
X78093146Y-90564971D02*
X70314971Y-98343146D01*
X97185029Y-109656854D02*
X78093146Y-90564971D01*
X89406854Y-117435029D02*
X97185029Y-109656854D01*
D13*
G36*
X111185029Y-69843146D02*
G01*
X106942388Y-74085786D01*
X99164214Y-66307612D01*
X103406854Y-62064971D01*
X111185029Y-69843146D01*
G37*
X111185029Y-69843146D02*
X106942388Y-74085786D01*
X99164214Y-66307612D01*
X103406854Y-62064971D01*
X111185029Y-69843146D01*
G36*
X92093146Y-88935029D02*
G01*
X84314971Y-81156854D01*
X88557612Y-76914214D01*
X96335786Y-84692388D01*
X92093146Y-88935029D01*
G37*
X92093146Y-88935029D02*
X84314971Y-81156854D01*
X88557612Y-76914214D01*
X96335786Y-84692388D01*
X92093146Y-88935029D01*
D12*
X92093146Y-88935029D02*
X111185029Y-69843146D01*
X84314971Y-81156854D02*
X92093146Y-88935029D01*
X103406854Y-62064971D02*
X84314971Y-81156854D01*
X111185029Y-69843146D02*
X103406854Y-62064971D01*
D13*
G36*
X66935029Y-127343146D02*
G01*
X62692388Y-131585786D01*
X54914214Y-123807612D01*
X59156854Y-119564971D01*
X66935029Y-127343146D01*
G37*
X66935029Y-127343146D02*
X62692388Y-131585786D01*
X54914214Y-123807612D01*
X59156854Y-119564971D01*
X66935029Y-127343146D01*
G36*
X47843146Y-146435029D02*
G01*
X40064971Y-138656854D01*
X44307612Y-134414214D01*
X52085786Y-142192388D01*
X47843146Y-146435029D01*
G37*
X47843146Y-146435029D02*
X40064971Y-138656854D01*
X44307612Y-134414214D01*
X52085786Y-142192388D01*
X47843146Y-146435029D01*
D12*
X47843146Y-146435029D02*
X66935029Y-127343146D01*
X40064971Y-138656854D02*
X47843146Y-146435029D01*
X59156854Y-119564971D02*
X40064971Y-138656854D01*
X66935029Y-127343146D02*
X59156854Y-119564971D01*
D13*
G36*
X44906854Y-117435029D02*
G01*
X40664214Y-113192388D01*
X48442388Y-105414214D01*
X52685029Y-109656854D01*
X44906854Y-117435029D01*
G37*
X44906854Y-117435029D02*
X40664214Y-113192388D01*
X48442388Y-105414214D01*
X52685029Y-109656854D01*
X44906854Y-117435029D01*
G36*
X25814971Y-98343146D02*
G01*
X33593146Y-90564971D01*
X37835786Y-94807612D01*
X30057612Y-102585786D01*
X25814971Y-98343146D01*
G37*
X25814971Y-98343146D02*
X33593146Y-90564971D01*
X37835786Y-94807612D01*
X30057612Y-102585786D01*
X25814971Y-98343146D01*
D12*
X25814971Y-98343146D02*
X44906854Y-117435029D01*
X33593146Y-90564971D02*
X25814971Y-98343146D01*
X52685029Y-109656854D02*
X33593146Y-90564971D01*
X44906854Y-117435029D02*
X52685029Y-109656854D01*
D13*
G36*
X66935029Y-69843146D02*
G01*
X62692388Y-74085786D01*
X54914214Y-66307612D01*
X59156854Y-62064971D01*
X66935029Y-69843146D01*
G37*
X66935029Y-69843146D02*
X62692388Y-74085786D01*
X54914214Y-66307612D01*
X59156854Y-62064971D01*
X66935029Y-69843146D01*
G36*
X47843146Y-88935029D02*
G01*
X40064971Y-81156854D01*
X44307612Y-76914214D01*
X52085786Y-84692388D01*
X47843146Y-88935029D01*
G37*
X47843146Y-88935029D02*
X40064971Y-81156854D01*
X44307612Y-76914214D01*
X52085786Y-84692388D01*
X47843146Y-88935029D01*
D12*
X47843146Y-88935029D02*
X66935029Y-69843146D01*
X40064971Y-81156854D02*
X47843146Y-88935029D01*
X59156854Y-62064971D02*
X40064971Y-81156854D01*
X66935029Y-69843146D02*
X59156854Y-62064971D01*
D13*
G36*
X22435029Y-127343146D02*
G01*
X18192388Y-131585786D01*
X10414214Y-123807612D01*
X14656854Y-119564971D01*
X22435029Y-127343146D01*
G37*
X22435029Y-127343146D02*
X18192388Y-131585786D01*
X10414214Y-123807612D01*
X14656854Y-119564971D01*
X22435029Y-127343146D01*
G36*
X3343146Y-146435029D02*
G01*
X-4435029Y-138656854D01*
X-192388Y-134414214D01*
X7585786Y-142192388D01*
X3343146Y-146435029D01*
G37*
X3343146Y-146435029D02*
X-4435029Y-138656854D01*
X-192388Y-134414214D01*
X7585786Y-142192388D01*
X3343146Y-146435029D01*
D12*
X3343146Y-146435029D02*
X22435029Y-127343146D01*
X-4435029Y-138656854D02*
X3343146Y-146435029D01*
X14656854Y-119564971D02*
X-4435029Y-138656854D01*
X22435029Y-127343146D02*
X14656854Y-119564971D01*
D13*
G36*
X406854Y-117435029D02*
G01*
X-3835786Y-113192388D01*
X3942388Y-105414214D01*
X8185029Y-109656854D01*
X406854Y-117435029D01*
G37*
X406854Y-117435029D02*
X-3835786Y-113192388D01*
X3942388Y-105414214D01*
X8185029Y-109656854D01*
X406854Y-117435029D01*
G36*
X-18685029Y-98343146D02*
G01*
X-10906854Y-90564971D01*
X-6664214Y-94807612D01*
X-14442388Y-102585786D01*
X-18685029Y-98343146D01*
G37*
X-18685029Y-98343146D02*
X-10906854Y-90564971D01*
X-6664214Y-94807612D01*
X-14442388Y-102585786D01*
X-18685029Y-98343146D01*
D12*
X-18685029Y-98343146D02*
X406854Y-117435029D01*
X-10906854Y-90564971D02*
X-18685029Y-98343146D01*
X8185029Y-109656854D02*
X-10906854Y-90564971D01*
X406854Y-117435029D02*
X8185029Y-109656854D01*
D13*
G36*
X22435029Y-69843146D02*
G01*
X18192388Y-74085786D01*
X10414214Y-66307612D01*
X14656854Y-62064971D01*
X22435029Y-69843146D01*
G37*
X22435029Y-69843146D02*
X18192388Y-74085786D01*
X10414214Y-66307612D01*
X14656854Y-62064971D01*
X22435029Y-69843146D01*
G36*
X3343146Y-88935029D02*
G01*
X-4435029Y-81156854D01*
X-192388Y-76914214D01*
X7585786Y-84692388D01*
X3343146Y-88935029D01*
G37*
X3343146Y-88935029D02*
X-4435029Y-81156854D01*
X-192388Y-76914214D01*
X7585786Y-84692388D01*
X3343146Y-88935029D01*
D12*
X3343146Y-88935029D02*
X22435029Y-69843146D01*
X-4435029Y-81156854D02*
X3343146Y-88935029D01*
X14656854Y-62064971D02*
X-4435029Y-81156854D01*
X22435029Y-69843146D02*
X14656854Y-62064971D01*
D13*
G36*
X133406854Y-60935029D02*
G01*
X129164214Y-56692388D01*
X136942388Y-48914214D01*
X141185029Y-53156854D01*
X133406854Y-60935029D01*
G37*
X133406854Y-60935029D02*
X129164214Y-56692388D01*
X136942388Y-48914214D01*
X141185029Y-53156854D01*
X133406854Y-60935029D01*
G36*
X114314971Y-41843146D02*
G01*
X122093146Y-34064971D01*
X126335786Y-38307612D01*
X118557612Y-46085786D01*
X114314971Y-41843146D01*
G37*
X114314971Y-41843146D02*
X122093146Y-34064971D01*
X126335786Y-38307612D01*
X118557612Y-46085786D01*
X114314971Y-41843146D01*
D12*
X114314971Y-41843146D02*
X133406854Y-60935029D01*
X122093146Y-34064971D02*
X114314971Y-41843146D01*
X141185029Y-53156854D02*
X122093146Y-34064971D01*
X133406854Y-60935029D02*
X141185029Y-53156854D01*
D13*
G36*
X89406854Y-60935029D02*
G01*
X85164214Y-56692388D01*
X92942388Y-48914214D01*
X97185029Y-53156854D01*
X89406854Y-60935029D01*
G37*
X89406854Y-60935029D02*
X85164214Y-56692388D01*
X92942388Y-48914214D01*
X97185029Y-53156854D01*
X89406854Y-60935029D01*
G36*
X70314971Y-41843146D02*
G01*
X78093146Y-34064971D01*
X82335786Y-38307612D01*
X74557612Y-46085786D01*
X70314971Y-41843146D01*
G37*
X70314971Y-41843146D02*
X78093146Y-34064971D01*
X82335786Y-38307612D01*
X74557612Y-46085786D01*
X70314971Y-41843146D01*
D12*
X70314971Y-41843146D02*
X89406854Y-60935029D01*
X78093146Y-34064971D02*
X70314971Y-41843146D01*
X97185029Y-53156854D02*
X78093146Y-34064971D01*
X89406854Y-60935029D02*
X97185029Y-53156854D01*
D13*
G36*
X44906854Y-61185029D02*
G01*
X40664214Y-56942388D01*
X48442388Y-49164214D01*
X52685029Y-53406854D01*
X44906854Y-61185029D01*
G37*
X44906854Y-61185029D02*
X40664214Y-56942388D01*
X48442388Y-49164214D01*
X52685029Y-53406854D01*
X44906854Y-61185029D01*
G36*
X25814971Y-42093146D02*
G01*
X33593146Y-34314971D01*
X37835786Y-38557612D01*
X30057612Y-46335786D01*
X25814971Y-42093146D01*
G37*
X25814971Y-42093146D02*
X33593146Y-34314971D01*
X37835786Y-38557612D01*
X30057612Y-46335786D01*
X25814971Y-42093146D01*
D12*
X25814971Y-42093146D02*
X44906854Y-61185029D01*
X33593146Y-34314971D02*
X25814971Y-42093146D01*
X52685029Y-53406854D02*
X33593146Y-34314971D01*
X44906854Y-61185029D02*
X52685029Y-53406854D01*
D13*
G36*
X-10906854Y-34064971D02*
G01*
X-6664214Y-38307612D01*
X-14442388Y-46085786D01*
X-18685029Y-41843146D01*
X-10906854Y-34064971D01*
G37*
X-10906854Y-34064971D02*
X-6664214Y-38307612D01*
X-14442388Y-46085786D01*
X-18685029Y-41843146D01*
X-10906854Y-34064971D01*
G36*
X8185029Y-53156854D02*
G01*
X406854Y-60935029D01*
X-3835786Y-56692388D01*
X3942388Y-48914214D01*
X8185029Y-53156854D01*
G37*
X8185029Y-53156854D02*
X406854Y-60935029D01*
X-3835786Y-56692388D01*
X3942388Y-48914214D01*
X8185029Y-53156854D01*
D12*
X8185029Y-53156854D02*
X-10906854Y-34064971D01*
X406854Y-60935029D02*
X8185029Y-53156854D01*
X-18685029Y-41843146D02*
X406854Y-60935029D01*
X-10906854Y-34064971D02*
X-18685029Y-41843146D01*
D14*
X55739523Y-53328853D02*
X46617846Y-44207176D01*
X67234251Y-23514403D02*
X46586733Y-44161921D01*
X76394113Y-32674264D02*
X55746595Y-53321782D01*
X76394113Y-32674264D02*
X67272435Y-23552587D01*
X30010477Y-139171147D02*
X39132154Y-148292824D01*
X18515749Y-168985597D02*
X39163267Y-148338079D01*
X9355887Y-159825736D02*
X30003405Y-139178218D01*
X9355887Y-159825736D02*
X18477565Y-168947413D01*
X144489523Y-53078853D02*
X135367846Y-43957176D01*
X155984251Y-23264403D02*
X135336733Y-43911921D01*
X165144113Y-32424264D02*
X144496595Y-53071782D01*
X165144113Y-32424264D02*
X156022435Y-23302587D01*
X99989523Y-53078853D02*
X90867846Y-43957176D01*
X111484251Y-23264403D02*
X90836733Y-43911921D01*
X120644113Y-32424264D02*
X99996595Y-53071782D01*
X120644113Y-32424264D02*
X111522435Y-23302587D01*
X161260477Y-139671147D02*
X170382154Y-148792824D01*
X149765749Y-169485597D02*
X170413267Y-148838079D01*
X140605887Y-160325736D02*
X161253405Y-139678218D01*
X140605887Y-160325736D02*
X149727565Y-169447413D01*
X117510477Y-139171147D02*
X126632154Y-148292824D01*
X106015749Y-168985597D02*
X126663267Y-148338079D01*
X96855887Y-159825736D02*
X117503405Y-139178218D01*
X96855887Y-159825736D02*
X105977565Y-168947413D01*
X74760477Y-138921147D02*
X83882154Y-148042824D01*
X63265749Y-168735597D02*
X83913267Y-148088079D01*
X54105887Y-159575736D02*
X74753405Y-138928218D01*
X54105887Y-159575736D02*
X63227565Y-168697413D01*
X11239523Y-53328853D02*
X2117846Y-44207176D01*
X22734251Y-23514403D02*
X2086733Y-44161921D01*
X31894113Y-32674264D02*
X11246595Y-53321782D01*
X31894113Y-32674264D02*
X22772435Y-23552587D01*
D12*
X190600000Y-27000000D02*
X190600000Y-24500000D01*
X188100000Y-27000000D02*
X190600000Y-27000000D01*
X168450000Y-21500000D02*
X179000000Y-21500000D01*
X168450000Y-24450000D02*
X168450000Y-21500000D01*
X167700000Y-24450000D02*
X168450000Y-24450000D01*
X189550000Y-21500000D02*
X179000000Y-21500000D01*
X189550000Y-24450000D02*
X189550000Y-21500000D01*
X190300000Y-24450000D02*
X189550000Y-24450000D01*
X167700000Y-26700000D02*
X169500000Y-26700000D01*
X167700000Y-25950000D02*
X167700000Y-26700000D01*
X169500000Y-25950000D02*
X167700000Y-25950000D01*
X169500000Y-26700000D02*
X169500000Y-25950000D01*
X188500000Y-26700000D02*
X190300000Y-26700000D01*
X188500000Y-25950000D02*
X188500000Y-26700000D01*
X190300000Y-25950000D02*
X188500000Y-25950000D01*
X190300000Y-26700000D02*
X190300000Y-25950000D01*
X171000000Y-26700000D02*
X187000000Y-26700000D01*
X171000000Y-25950000D02*
X171000000Y-26700000D01*
X187000000Y-25950000D02*
X171000000Y-25950000D01*
X187000000Y-26700000D02*
X187000000Y-25950000D01*
X167700000Y-26700000D02*
X190300000Y-26700000D01*
X167700000Y-20750000D02*
X167700000Y-26700000D01*
X190300000Y-20750000D02*
X167700000Y-20750000D01*
X190300000Y-26700000D02*
X190300000Y-20750000D01*
X2909188Y-20464109D02*
X-1696905Y-25070203D01*
X-1696905Y-25070203D02*
X-1272641Y-25494467D01*
X-1272641Y-25494467D02*
X-4656854Y-28878680D01*
X-4685139Y-28906964D02*
X-5109403Y-28482700D01*
X-5081118Y-28454416D02*
X-9535891Y-32909188D01*
X-9535891Y-32909188D02*
X-2394113Y-40050967D01*
X-2394113Y-40050967D02*
X10050967Y-27605887D01*
X10050967Y-27605887D02*
X2909188Y-20464109D01*
D15*
X-2535534Y-27464466D02*
X-1817113Y-28182887D01*
D13*
G36*
X-1991062Y-26212887D02*
G01*
X-1283955Y-26919994D01*
X-3080006Y-28716045D01*
X-3787113Y-28008938D01*
X-1991062Y-26212887D01*
G37*
X-1991062Y-26212887D02*
X-1283955Y-26919994D01*
X-3080006Y-28716045D01*
X-3787113Y-28008938D01*
X-1991062Y-26212887D01*
D12*
X-1668621Y-25041918D02*
X-5081118Y-28454416D01*
X-13785891Y-155590812D02*
X-9179797Y-160196905D01*
X-9179797Y-160196905D02*
X-8755533Y-159772641D01*
X-8755533Y-159772641D02*
X-5371320Y-163156854D01*
X-5343036Y-163185139D02*
X-5767300Y-163609403D01*
X-5795584Y-163581118D02*
X-1340812Y-168035891D01*
X-1340812Y-168035891D02*
X5800967Y-160894113D01*
X5800967Y-160894113D02*
X-6644113Y-148449033D01*
X-6644113Y-148449033D02*
X-13785891Y-155590812D01*
D15*
X-6785534Y-161035534D02*
X-6067113Y-160317113D01*
D13*
G36*
X-8037113Y-160491062D02*
G01*
X-7330006Y-159783955D01*
X-5533955Y-161580006D01*
X-6241062Y-162287113D01*
X-8037113Y-160491062D01*
G37*
X-8037113Y-160491062D02*
X-7330006Y-159783955D01*
X-5533955Y-161580006D01*
X-6241062Y-162287113D01*
X-8037113Y-160491062D01*
D12*
X-9208082Y-160168621D02*
X-5795584Y-163581118D01*
X190650000Y-27900000D02*
X189350000Y-27900000D01*
X190000000Y-27300000D02*
X190000000Y-28500000D01*
X190354000Y-33311000D02*
X189646000Y-33311000D01*
X190559000Y-33271000D02*
X189441000Y-33271000D01*
X190707000Y-33231000D02*
X189293000Y-33231000D01*
X190829000Y-33191000D02*
X189171000Y-33191000D01*
X190934000Y-33151000D02*
X189066000Y-33151000D01*
X191028000Y-33111000D02*
X188972000Y-33111000D01*
X191112000Y-33071000D02*
X188888000Y-33071000D01*
X191189000Y-33031000D02*
X188811000Y-33031000D01*
X191261000Y-32991000D02*
X188739000Y-32991000D01*
X189020000Y-32951000D02*
X188673000Y-32951000D01*
X191327000Y-32951000D02*
X190980000Y-32951000D01*
X189020000Y-32911000D02*
X188610000Y-32911000D01*
X191390000Y-32911000D02*
X190980000Y-32911000D01*
X189020000Y-32871000D02*
X188552000Y-32871000D01*
X191448000Y-32871000D02*
X190980000Y-32871000D01*
X189020000Y-32831000D02*
X188496000Y-32831000D01*
X191504000Y-32831000D02*
X190980000Y-32831000D01*
X189020000Y-32791000D02*
X188444000Y-32791000D01*
X191556000Y-32791000D02*
X190980000Y-32791000D01*
X189020000Y-32751000D02*
X188394000Y-32751000D01*
X191606000Y-32751000D02*
X190980000Y-32751000D01*
X189020000Y-32711000D02*
X188346000Y-32711000D01*
X191654000Y-32711000D02*
X190980000Y-32711000D01*
X189020000Y-32671000D02*
X188301000Y-32671000D01*
X191699000Y-32671000D02*
X190980000Y-32671000D01*
X189020000Y-32631000D02*
X188258000Y-32631000D01*
X191742000Y-32631000D02*
X190980000Y-32631000D01*
X189020000Y-32591000D02*
X188217000Y-32591000D01*
X191783000Y-32591000D02*
X190980000Y-32591000D01*
X189020000Y-32551000D02*
X188177000Y-32551000D01*
X191823000Y-32551000D02*
X190980000Y-32551000D01*
X189020000Y-32511000D02*
X188139000Y-32511000D01*
X191861000Y-32511000D02*
X190980000Y-32511000D01*
X189020000Y-32471000D02*
X188103000Y-32471000D01*
X191897000Y-32471000D02*
X190980000Y-32471000D01*
X189020000Y-32431000D02*
X188068000Y-32431000D01*
X191932000Y-32431000D02*
X190980000Y-32431000D01*
X189020000Y-32391000D02*
X188035000Y-32391000D01*
X191965000Y-32391000D02*
X190980000Y-32391000D01*
X189020000Y-32351000D02*
X188003000Y-32351000D01*
X191997000Y-32351000D02*
X190980000Y-32351000D01*
X189020000Y-32311000D02*
X187972000Y-32311000D01*
X192028000Y-32311000D02*
X190980000Y-32311000D01*
X189020000Y-32271000D02*
X187942000Y-32271000D01*
X192058000Y-32271000D02*
X190980000Y-32271000D01*
X189020000Y-32231000D02*
X187914000Y-32231000D01*
X192086000Y-32231000D02*
X190980000Y-32231000D01*
X189020000Y-32191000D02*
X187887000Y-32191000D01*
X192113000Y-32191000D02*
X190980000Y-32191000D01*
X189020000Y-32151000D02*
X187860000Y-32151000D01*
X192140000Y-32151000D02*
X190980000Y-32151000D01*
X189020000Y-32111000D02*
X187835000Y-32111000D01*
X192165000Y-32111000D02*
X190980000Y-32111000D01*
X189020000Y-32071000D02*
X187811000Y-32071000D01*
X192189000Y-32071000D02*
X190980000Y-32071000D01*
X189020000Y-32031000D02*
X187788000Y-32031000D01*
X192212000Y-32031000D02*
X190980000Y-32031000D01*
X189020000Y-31991000D02*
X187766000Y-31991000D01*
X192234000Y-31991000D02*
X190980000Y-31991000D01*
X189020000Y-31951000D02*
X187744000Y-31951000D01*
X192256000Y-31951000D02*
X190980000Y-31951000D01*
X189020000Y-31911000D02*
X187724000Y-31911000D01*
X192276000Y-31911000D02*
X190980000Y-31911000D01*
X189020000Y-31871000D02*
X187704000Y-31871000D01*
X192296000Y-31871000D02*
X190980000Y-31871000D01*
X189020000Y-31831000D02*
X187685000Y-31831000D01*
X192315000Y-31831000D02*
X190980000Y-31831000D01*
X189020000Y-31791000D02*
X187667000Y-31791000D01*
X192333000Y-31791000D02*
X190980000Y-31791000D01*
X189020000Y-31751000D02*
X187650000Y-31751000D01*
X192350000Y-31751000D02*
X190980000Y-31751000D01*
X189020000Y-31711000D02*
X187634000Y-31711000D01*
X192366000Y-31711000D02*
X190980000Y-31711000D01*
X189020000Y-31671000D02*
X187618000Y-31671000D01*
X192382000Y-31671000D02*
X190980000Y-31671000D01*
X189020000Y-31631000D02*
X187604000Y-31631000D01*
X192396000Y-31631000D02*
X190980000Y-31631000D01*
X189020000Y-31591000D02*
X187590000Y-31591000D01*
X192410000Y-31591000D02*
X190980000Y-31591000D01*
X189020000Y-31551000D02*
X187576000Y-31551000D01*
X192424000Y-31551000D02*
X190980000Y-31551000D01*
X189020000Y-31511000D02*
X187564000Y-31511000D01*
X192436000Y-31511000D02*
X190980000Y-31511000D01*
X189020000Y-31471000D02*
X187552000Y-31471000D01*
X192448000Y-31471000D02*
X190980000Y-31471000D01*
X189020000Y-31430000D02*
X187540000Y-31430000D01*
X192460000Y-31430000D02*
X190980000Y-31430000D01*
X189020000Y-31390000D02*
X187530000Y-31390000D01*
X192470000Y-31390000D02*
X190980000Y-31390000D01*
X189020000Y-31350000D02*
X187520000Y-31350000D01*
X192480000Y-31350000D02*
X190980000Y-31350000D01*
X189020000Y-31310000D02*
X187511000Y-31310000D01*
X192489000Y-31310000D02*
X190980000Y-31310000D01*
X189020000Y-31270000D02*
X187502000Y-31270000D01*
X192498000Y-31270000D02*
X190980000Y-31270000D01*
X189020000Y-31230000D02*
X187494000Y-31230000D01*
X192506000Y-31230000D02*
X190980000Y-31230000D01*
X189020000Y-31190000D02*
X187487000Y-31190000D01*
X192513000Y-31190000D02*
X190980000Y-31190000D01*
X189020000Y-31150000D02*
X187481000Y-31150000D01*
X192519000Y-31150000D02*
X190980000Y-31150000D01*
X189020000Y-31110000D02*
X187475000Y-31110000D01*
X192525000Y-31110000D02*
X190980000Y-31110000D01*
X189020000Y-31070000D02*
X187469000Y-31070000D01*
X192531000Y-31070000D02*
X190980000Y-31070000D01*
X189020000Y-31030000D02*
X187465000Y-31030000D01*
X192535000Y-31030000D02*
X190980000Y-31030000D01*
X192539000Y-30990000D02*
X187461000Y-30990000D01*
X192543000Y-30950000D02*
X187457000Y-30950000D01*
X192546000Y-30910000D02*
X187454000Y-30910000D01*
X192548000Y-30870000D02*
X187452000Y-30870000D01*
X192549000Y-30830000D02*
X187451000Y-30830000D01*
X192550000Y-30790000D02*
X187450000Y-30790000D01*
X192550000Y-30750000D02*
X187450000Y-30750000D01*
X188820277Y-33055722D02*
G75*
G03X191180000Y-33055580I1179723J2305722D01*
G01*
X188820277Y-33055722D02*
G75*
G02X188820000Y-28444420I1179723J2305722D01*
G01*
X191179723Y-33055722D02*
G75*
G03X191180000Y-28444420I-1179723J2305722D01*
G01*
D10*
X176601180Y-147739681D02*
X176264463Y-147402964D01*
X176971569Y-146695857D01*
X177207272Y-148345773D02*
X176803211Y-147941712D01*
X177005241Y-148143743D02*
X177712348Y-147436636D01*
X177543989Y-147470307D01*
X177409302Y-147470307D01*
X177308287Y-147436636D01*
X178554142Y-148278430D02*
X178217424Y-147941712D01*
X177847035Y-148244758D01*
X177914379Y-148244758D01*
X178015394Y-148278430D01*
X178183753Y-148446788D01*
X178217424Y-148547804D01*
X178217424Y-148615147D01*
X178183753Y-148716162D01*
X178015394Y-148884521D01*
X177914379Y-148918193D01*
X177847035Y-148918193D01*
X177746020Y-148884521D01*
X177577661Y-148716162D01*
X177543989Y-148615147D01*
X177543989Y-148547804D01*
X163240943Y-95900081D02*
X162904226Y-96236798D01*
X162197119Y-95529692D01*
X163847035Y-95293989D02*
X163442974Y-95698050D01*
X163645005Y-95496020D02*
X162937898Y-94788913D01*
X162971569Y-94957272D01*
X162971569Y-95091959D01*
X162937898Y-95192974D01*
X163981722Y-94216493D02*
X164453127Y-94687898D01*
X163543989Y-94115478D02*
X163880707Y-94788913D01*
X164318440Y-94351180D01*
X176601180Y-91739681D02*
X176264463Y-91402964D01*
X176971569Y-90695857D01*
X177207272Y-92345773D02*
X176803211Y-91941712D01*
X177005241Y-92143743D02*
X177712348Y-91436636D01*
X177543989Y-91470307D01*
X177409302Y-91470307D01*
X177308287Y-91436636D01*
X178150081Y-91874369D02*
X178587814Y-92312101D01*
X178082737Y-92345773D01*
X178183753Y-92446788D01*
X178217424Y-92547804D01*
X178217424Y-92615147D01*
X178183753Y-92716162D01*
X178015394Y-92884521D01*
X177914379Y-92918193D01*
X177847035Y-92918193D01*
X177746020Y-92884521D01*
X177543989Y-92682491D01*
X177510318Y-92581475D01*
X177510318Y-92514132D01*
X162205150Y-39327661D02*
X162710226Y-39832737D01*
X162777569Y-39967424D01*
X162777569Y-40102111D01*
X162710226Y-40236798D01*
X162642882Y-40304142D01*
X163248974Y-39698050D02*
X162541867Y-38990943D01*
X162811241Y-38721569D01*
X162912256Y-38687898D01*
X162979600Y-38687898D01*
X163080615Y-38721569D01*
X163181631Y-38822585D01*
X163215302Y-38923600D01*
X163215302Y-38990943D01*
X163181631Y-39091959D01*
X162912256Y-39361333D01*
X163585692Y-37947119D02*
X163248974Y-38283837D01*
X163552020Y-38654226D01*
X163552020Y-38586882D01*
X163585692Y-38485867D01*
X163754050Y-38317508D01*
X163855066Y-38283837D01*
X163922409Y-38283837D01*
X164023424Y-38317508D01*
X164191783Y-38485867D01*
X164225455Y-38586882D01*
X164225455Y-38654226D01*
X164191783Y-38755241D01*
X164023424Y-38923600D01*
X163922409Y-38957272D01*
X163855066Y-38957272D01*
X130368947Y-143471914D02*
X130032230Y-143135197D01*
X130739336Y-142428090D01*
X130975039Y-144078006D02*
X130570978Y-143673945D01*
X130773008Y-143875976D02*
X131480115Y-143168869D01*
X131311756Y-143202540D01*
X131177069Y-143202540D01*
X131076054Y-143168869D01*
X131884176Y-143707617D02*
X131951520Y-143707617D01*
X132052535Y-143741289D01*
X132220894Y-143909647D01*
X132254565Y-144010663D01*
X132254565Y-144078006D01*
X132220894Y-144179021D01*
X132153550Y-144246365D01*
X132018863Y-144313708D01*
X131210741Y-144313708D01*
X131648474Y-144751441D01*
X117008710Y-94167848D02*
X116671993Y-94504565D01*
X115964886Y-93797459D01*
X117614802Y-93561756D02*
X117210741Y-93965817D01*
X117412772Y-93763787D02*
X116705665Y-93056680D01*
X116739336Y-93225039D01*
X116739336Y-93359726D01*
X116705665Y-93460741D01*
X118288237Y-92888321D02*
X117884176Y-93292382D01*
X118086207Y-93090352D02*
X117379100Y-92383245D01*
X117412772Y-92551604D01*
X117412772Y-92686291D01*
X117379100Y-92787306D01*
X130368947Y-85971914D02*
X130032230Y-85635197D01*
X130739336Y-84928090D01*
X130975039Y-86578006D02*
X130570978Y-86173945D01*
X130773008Y-86375976D02*
X131480115Y-85668869D01*
X131311756Y-85702540D01*
X131177069Y-85702540D01*
X131076054Y-85668869D01*
X132119878Y-86308632D02*
X132187222Y-86375976D01*
X132220894Y-86476991D01*
X132220894Y-86544334D01*
X132187222Y-86645350D01*
X132086207Y-86813708D01*
X131917848Y-86982067D01*
X131749489Y-87083082D01*
X131648474Y-87116754D01*
X131581130Y-87116754D01*
X131480115Y-87083082D01*
X131412772Y-87015739D01*
X131379100Y-86914724D01*
X131379100Y-86847380D01*
X131412772Y-86746365D01*
X131513787Y-86578006D01*
X131682146Y-86409647D01*
X131850504Y-86308632D01*
X131951520Y-86274960D01*
X132018863Y-86274960D01*
X132119878Y-86308632D01*
X86955665Y-143808632D02*
X86618947Y-143471914D01*
X87326054Y-142764808D01*
X87225039Y-144078006D02*
X87359726Y-144212693D01*
X87460741Y-144246365D01*
X87528085Y-144246365D01*
X87696443Y-144212693D01*
X87864802Y-144111678D01*
X88134176Y-143842304D01*
X88167848Y-143741289D01*
X88167848Y-143673945D01*
X88134176Y-143572930D01*
X87999489Y-143438243D01*
X87898474Y-143404571D01*
X87831130Y-143404571D01*
X87730115Y-143438243D01*
X87561756Y-143606602D01*
X87528085Y-143707617D01*
X87528085Y-143774960D01*
X87561756Y-143875976D01*
X87696443Y-144010663D01*
X87797459Y-144044334D01*
X87864802Y-144044334D01*
X87965817Y-144010663D01*
X73345428Y-93831130D02*
X73008710Y-94167848D01*
X72301604Y-93460741D01*
X73278085Y-93090352D02*
X73177069Y-93124023D01*
X73109726Y-93124023D01*
X73008710Y-93090352D01*
X72975039Y-93056680D01*
X72941367Y-92955665D01*
X72941367Y-92888321D01*
X72975039Y-92787306D01*
X73109726Y-92652619D01*
X73210741Y-92618947D01*
X73278085Y-92618947D01*
X73379100Y-92652619D01*
X73412772Y-92686291D01*
X73446443Y-92787306D01*
X73446443Y-92854649D01*
X73412772Y-92955665D01*
X73278085Y-93090352D01*
X73244413Y-93191367D01*
X73244413Y-93258710D01*
X73278085Y-93359726D01*
X73412772Y-93494413D01*
X73513787Y-93528085D01*
X73581130Y-93528085D01*
X73682146Y-93494413D01*
X73816833Y-93359726D01*
X73850504Y-93258710D01*
X73850504Y-93191367D01*
X73816833Y-93090352D01*
X73682146Y-92955665D01*
X73581130Y-92921993D01*
X73513787Y-92921993D01*
X73412772Y-92955665D01*
X86705665Y-86308632D02*
X86368947Y-85971914D01*
X87076054Y-85264808D01*
X87581130Y-85769884D02*
X88052535Y-86241289D01*
X87042382Y-86645350D01*
X42455665Y-143808632D02*
X42118947Y-143471914D01*
X42826054Y-142764808D01*
X43701520Y-143640273D02*
X43566833Y-143505586D01*
X43465817Y-143471914D01*
X43398474Y-143471914D01*
X43230115Y-143505586D01*
X43061756Y-143606602D01*
X42792382Y-143875976D01*
X42758710Y-143976991D01*
X42758710Y-144044334D01*
X42792382Y-144145350D01*
X42927069Y-144280037D01*
X43028085Y-144313708D01*
X43095428Y-144313708D01*
X43196443Y-144280037D01*
X43364802Y-144111678D01*
X43398474Y-144010663D01*
X43398474Y-143943319D01*
X43364802Y-143842304D01*
X43230115Y-143707617D01*
X43129100Y-143673945D01*
X43061756Y-143673945D01*
X42960741Y-143707617D01*
X28845428Y-93831130D02*
X28508710Y-94167848D01*
X27801604Y-93460741D01*
X28710741Y-92551604D02*
X28374023Y-92888321D01*
X28677069Y-93258710D01*
X28677069Y-93191367D01*
X28710741Y-93090352D01*
X28879100Y-92921993D01*
X28980115Y-92888321D01*
X29047459Y-92888321D01*
X29148474Y-92921993D01*
X29316833Y-93090352D01*
X29350504Y-93191367D01*
X29350504Y-93258710D01*
X29316833Y-93359726D01*
X29148474Y-93528085D01*
X29047459Y-93561756D01*
X28980115Y-93561756D01*
X42455665Y-86308632D02*
X42118947Y-85971914D01*
X42826054Y-85264808D01*
X43465817Y-86375976D02*
X42994413Y-86847380D01*
X43566833Y-85938243D02*
X42893398Y-86274960D01*
X43331130Y-86712693D01*
X-2044334Y-143808632D02*
X-2381052Y-143471914D01*
X-1673945Y-142764808D01*
X-1168869Y-143269884D02*
X-731136Y-143707617D01*
X-1236212Y-143741289D01*
X-1135197Y-143842304D01*
X-1101525Y-143943319D01*
X-1101525Y-144010663D01*
X-1135197Y-144111678D01*
X-1303556Y-144280037D01*
X-1404571Y-144313708D01*
X-1471914Y-144313708D01*
X-1572930Y-144280037D01*
X-1774960Y-144078006D01*
X-1808632Y-143976991D01*
X-1808632Y-143909647D01*
X-15654571Y-93831130D02*
X-15991289Y-94167848D01*
X-16698395Y-93460741D01*
X-16092304Y-92989336D02*
X-16092304Y-92921993D01*
X-16058632Y-92820978D01*
X-15890273Y-92652619D01*
X-15789258Y-92618947D01*
X-15721914Y-92618947D01*
X-15620899Y-92652619D01*
X-15553556Y-92719962D01*
X-15486212Y-92854649D01*
X-15486212Y-93662772D01*
X-15048479Y-93225039D01*
X-2044334Y-86308632D02*
X-2381052Y-85971914D01*
X-1673945Y-85264808D01*
X-1438243Y-86914724D02*
X-1842304Y-86510663D01*
X-1640273Y-86712693D02*
X-933166Y-86005586D01*
X-1101525Y-86039258D01*
X-1236212Y-86039258D01*
X-1337227Y-86005586D01*
X116166917Y-37095428D02*
X116671993Y-37600504D01*
X116739336Y-37735191D01*
X116739336Y-37869878D01*
X116671993Y-38004565D01*
X116604649Y-38071909D01*
X117210741Y-37465817D02*
X116503634Y-36758710D01*
X116773008Y-36489336D01*
X116874023Y-36455665D01*
X116941367Y-36455665D01*
X117042382Y-36489336D01*
X117143398Y-36590352D01*
X117177069Y-36691367D01*
X117177069Y-36758710D01*
X117143398Y-36859726D01*
X116874023Y-37129100D01*
X117749489Y-35984260D02*
X118220894Y-36455665D01*
X117311756Y-35883245D02*
X117648474Y-36556680D01*
X118086207Y-36118947D01*
X72166917Y-37095428D02*
X72671993Y-37600504D01*
X72739336Y-37735191D01*
X72739336Y-37869878D01*
X72671993Y-38004565D01*
X72604649Y-38071909D01*
X73210741Y-37465817D02*
X72503634Y-36758710D01*
X72773008Y-36489336D01*
X72874023Y-36455665D01*
X72941367Y-36455665D01*
X73042382Y-36489336D01*
X73143398Y-36590352D01*
X73177069Y-36691367D01*
X73177069Y-36758710D01*
X73143398Y-36859726D01*
X72874023Y-37129100D01*
X73143398Y-36118947D02*
X73581130Y-35681214D01*
X73614802Y-36186291D01*
X73715817Y-36085275D01*
X73816833Y-36051604D01*
X73884176Y-36051604D01*
X73985191Y-36085275D01*
X74153550Y-36253634D01*
X74187222Y-36354649D01*
X74187222Y-36421993D01*
X74153550Y-36523008D01*
X73951520Y-36725039D01*
X73850504Y-36758710D01*
X73783161Y-36758710D01*
X27666917Y-37345428D02*
X28171993Y-37850504D01*
X28239336Y-37985191D01*
X28239336Y-38119878D01*
X28171993Y-38254565D01*
X28104649Y-38321909D01*
X28710741Y-37715817D02*
X28003634Y-37008710D01*
X28273008Y-36739336D01*
X28374023Y-36705665D01*
X28441367Y-36705665D01*
X28542382Y-36739336D01*
X28643397Y-36840352D01*
X28677069Y-36941367D01*
X28677069Y-37008710D01*
X28643398Y-37109726D01*
X28374023Y-37379100D01*
X28744413Y-36402619D02*
X28744413Y-36335275D01*
X28778085Y-36234260D01*
X28946443Y-36065901D01*
X29047459Y-36032230D01*
X29114802Y-36032230D01*
X29215817Y-36065901D01*
X29283161Y-36133245D01*
X29350504Y-36267932D01*
X29350504Y-37076054D01*
X29788237Y-36638321D01*
X4380121Y-58308632D02*
X4885197Y-58813708D01*
X4952540Y-58948395D01*
X4952540Y-59083082D01*
X4885197Y-59217769D01*
X4817853Y-59285113D01*
X5423945Y-58679021D02*
X4716838Y-57971914D01*
X4986212Y-57702540D01*
X5087227Y-57668869D01*
X5154571Y-57668869D01*
X5255586Y-57702540D01*
X5356601Y-57803556D01*
X5390273Y-57904571D01*
X5390273Y-57971914D01*
X5356602Y-58072930D01*
X5087227Y-58342304D01*
X6501441Y-57601525D02*
X6097380Y-58005586D01*
X6299411Y-57803556D02*
X5592304Y-57096449D01*
X5625976Y-57264808D01*
X5625976Y-57399495D01*
X5592304Y-57500510D01*
X75312441Y-35606265D02*
X74605334Y-34899159D01*
X75716502Y-35202204D02*
X75009395Y-35101189D01*
X75009395Y-34495097D02*
X75009395Y-35303220D01*
X75851189Y-34124708D02*
X76322594Y-34596113D01*
X75413456Y-34023693D02*
X75750174Y-34697128D01*
X76187907Y-34259395D01*
X10033497Y-158577321D02*
X9326390Y-157870215D01*
X10437558Y-158173260D02*
X9730451Y-158072245D01*
X9730451Y-157466153D02*
X9730451Y-158274276D01*
X11110993Y-157499825D02*
X10706932Y-157903886D01*
X10908963Y-157701856D02*
X10201856Y-156994749D01*
X10235527Y-157163108D01*
X10235527Y-157297795D01*
X10201856Y-157398810D01*
X164062441Y-35356265D02*
X163355334Y-34649159D01*
X164466502Y-34952204D02*
X163759395Y-34851189D01*
X163759395Y-34245097D02*
X163759395Y-35053220D01*
X164466502Y-34144082D02*
X164365487Y-34177754D01*
X164298143Y-34177754D01*
X164197128Y-34144082D01*
X164163456Y-34110410D01*
X164129784Y-34009395D01*
X164129784Y-33942052D01*
X164163456Y-33841036D01*
X164298143Y-33706349D01*
X164399159Y-33672678D01*
X164466502Y-33672678D01*
X164567517Y-33706349D01*
X164601189Y-33740021D01*
X164634861Y-33841036D01*
X164634861Y-33908380D01*
X164601189Y-34009395D01*
X164466502Y-34144082D01*
X164432830Y-34245097D01*
X164432830Y-34312441D01*
X164466502Y-34413456D01*
X164601189Y-34548143D01*
X164702204Y-34581815D01*
X164769548Y-34581815D01*
X164870563Y-34548143D01*
X165005250Y-34413456D01*
X165038922Y-34312441D01*
X165038922Y-34245097D01*
X165005250Y-34144082D01*
X164870563Y-34009395D01*
X164769548Y-33975723D01*
X164702204Y-33975723D01*
X164601189Y-34009395D01*
X119562441Y-35356265D02*
X118855334Y-34649159D01*
X119966502Y-34952204D02*
X119259395Y-34851189D01*
X119259395Y-34245097D02*
X119259395Y-35053220D01*
X119495097Y-34009395D02*
X119966502Y-33537991D01*
X120370563Y-34548143D01*
X141283497Y-159077321D02*
X140576390Y-158370215D01*
X141687558Y-158673260D02*
X140980451Y-158572245D01*
X140980451Y-157966153D02*
X140980451Y-158774276D01*
X141586543Y-157360062D02*
X141451856Y-157494749D01*
X141418184Y-157595764D01*
X141418184Y-157663108D01*
X141451856Y-157831466D01*
X141552871Y-157999825D01*
X141822245Y-158269199D01*
X141923260Y-158302871D01*
X141990604Y-158302871D01*
X142091619Y-158269199D01*
X142226306Y-158134512D01*
X142259978Y-158033497D01*
X142259978Y-157966153D01*
X142226306Y-157865138D01*
X142057947Y-157696779D01*
X141956932Y-157663108D01*
X141889589Y-157663108D01*
X141788573Y-157696779D01*
X141653886Y-157831466D01*
X141620215Y-157932482D01*
X141620215Y-157999825D01*
X141653886Y-158100840D01*
X97533497Y-158577321D02*
X96826390Y-157870215D01*
X97937558Y-158173260D02*
X97230451Y-158072245D01*
X97230451Y-157466153D02*
X97230451Y-158274276D01*
X97870215Y-156826390D02*
X97533497Y-157163108D01*
X97836543Y-157533497D01*
X97836543Y-157466153D01*
X97870215Y-157365138D01*
X98038573Y-157196779D01*
X98139589Y-157163108D01*
X98206932Y-157163108D01*
X98307947Y-157196779D01*
X98476306Y-157365138D01*
X98509978Y-157466153D01*
X98509978Y-157533497D01*
X98476306Y-157634512D01*
X98307947Y-157802871D01*
X98206932Y-157836543D01*
X98139589Y-157836543D01*
X54783497Y-158327321D02*
X54076390Y-157620215D01*
X55187558Y-157923260D02*
X54480451Y-157822245D01*
X54480451Y-157216153D02*
X54480451Y-158024276D01*
X54716153Y-156980451D02*
X55153886Y-156542718D01*
X55187558Y-157047795D01*
X55288573Y-156946779D01*
X55389589Y-156913108D01*
X55456932Y-156913108D01*
X55557947Y-156946779D01*
X55726306Y-157115138D01*
X55759978Y-157216153D01*
X55759978Y-157283497D01*
X55726306Y-157384512D01*
X55524276Y-157586543D01*
X55423260Y-157620215D01*
X55355917Y-157620215D01*
X30812441Y-35606265D02*
X30105334Y-34899159D01*
X31216502Y-35202204D02*
X30509395Y-35101189D01*
X30509395Y-34495097D02*
X30509395Y-35303220D01*
X30846113Y-34293067D02*
X30846113Y-34225723D01*
X30879784Y-34124708D01*
X31048143Y-33956349D01*
X31149159Y-33922678D01*
X31216502Y-33922678D01*
X31317517Y-33956349D01*
X31384861Y-34023693D01*
X31452204Y-34158380D01*
X31452204Y-34966502D01*
X31889937Y-34528769D01*
X193439610Y-30884687D02*
X193372267Y-30884687D01*
X193237580Y-30817343D01*
X193170236Y-30749999D01*
X193102893Y-30615312D01*
X193102893Y-30480625D01*
X193136564Y-30379610D01*
X193237580Y-30211251D01*
X193338595Y-30110236D01*
X193506954Y-30009221D01*
X193607969Y-29975549D01*
X193742656Y-29975549D01*
X193877343Y-30042893D01*
X193944687Y-30110236D01*
X194012030Y-30244923D01*
X194012030Y-30312267D01*
X194045702Y-31625465D02*
X193641641Y-31221404D01*
X193843671Y-31423435D02*
X194550778Y-30716328D01*
X194382419Y-30750000D01*
X194247732Y-30750000D01*
X194146717Y-30716328D01*
M02*
