%TF.GenerationSoftware,KiCad,Pcbnew,(5.1.4)-1*%
%TF.CreationDate,2020-02-28T22:37:56+08:00*%
%TF.ProjectId,power,706f7765-722e-46b6-9963-61645f706362,rev?*%
%TF.SameCoordinates,Original*%
%TF.FileFunction,Legend,Top*%
%TF.FilePolarity,Positive*%
%FSLAX46Y46*%
G04 Gerber Fmt 4.6, Leading zero omitted, Abs format (unit mm)*
G04 Created by KiCad (PCBNEW (5.1.4)-1) date 2020-02-28 22:37:56*
%MOMM*%
%LPD*%
G04 APERTURE LIST*
%ADD10C,0.150000*%
%ADD11C,0.120000*%
%ADD12C,0.254000*%
%ADD13C,0.100000*%
%ADD14C,0.300000*%
%ADD15C,0.400000*%
%ADD16C,0.200000*%
%ADD17C,0.250000*%
G04 APERTURE END LIST*
D10*
X48566666Y-36683333D02*
X48233333Y-36916666D01*
X48566666Y-37083333D02*
X47866666Y-37083333D01*
X47866666Y-36816666D01*
X47900000Y-36750000D01*
X47933333Y-36716666D01*
X48000000Y-36683333D01*
X48100000Y-36683333D01*
X48166666Y-36716666D01*
X48200000Y-36750000D01*
X48233333Y-36816666D01*
X48233333Y-37083333D01*
X48533333Y-36116666D02*
X48566666Y-36183333D01*
X48566666Y-36316666D01*
X48533333Y-36383333D01*
X48466666Y-36416666D01*
X48200000Y-36416666D01*
X48133333Y-36383333D01*
X48100000Y-36316666D01*
X48100000Y-36183333D01*
X48133333Y-36116666D01*
X48200000Y-36083333D01*
X48266666Y-36083333D01*
X48333333Y-36416666D01*
X48566666Y-35783333D02*
X48100000Y-35783333D01*
X48166666Y-35783333D02*
X48133333Y-35750000D01*
X48100000Y-35683333D01*
X48100000Y-35583333D01*
X48133333Y-35516666D01*
X48200000Y-35483333D01*
X48566666Y-35483333D01*
X48200000Y-35483333D02*
X48133333Y-35450000D01*
X48100000Y-35383333D01*
X48100000Y-35283333D01*
X48133333Y-35216666D01*
X48200000Y-35183333D01*
X48566666Y-35183333D01*
X48566666Y-34750000D02*
X48533333Y-34816666D01*
X48500000Y-34850000D01*
X48433333Y-34883333D01*
X48233333Y-34883333D01*
X48166666Y-34850000D01*
X48133333Y-34816666D01*
X48100000Y-34750000D01*
X48100000Y-34650000D01*
X48133333Y-34583333D01*
X48166666Y-34550000D01*
X48233333Y-34516666D01*
X48433333Y-34516666D01*
X48500000Y-34550000D01*
X48533333Y-34583333D01*
X48566666Y-34650000D01*
X48566666Y-34750000D01*
X48100000Y-34283333D02*
X48566666Y-34116666D01*
X48100000Y-33950000D01*
X48533333Y-33416666D02*
X48566666Y-33483333D01*
X48566666Y-33616666D01*
X48533333Y-33683333D01*
X48466666Y-33716666D01*
X48200000Y-33716666D01*
X48133333Y-33683333D01*
X48100000Y-33616666D01*
X48100000Y-33483333D01*
X48133333Y-33416666D01*
X48200000Y-33383333D01*
X48266666Y-33383333D01*
X48333333Y-33716666D01*
X58633333Y-64416666D02*
X58766666Y-64416666D01*
X58833333Y-64450000D01*
X58900000Y-64516666D01*
X58933333Y-64650000D01*
X58933333Y-64883333D01*
X58900000Y-65016666D01*
X58833333Y-65083333D01*
X58766666Y-65116666D01*
X58633333Y-65116666D01*
X58566666Y-65083333D01*
X58500000Y-65016666D01*
X58466666Y-64883333D01*
X58466666Y-64650000D01*
X58500000Y-64516666D01*
X58566666Y-64450000D01*
X58633333Y-64416666D01*
X59233333Y-65116666D02*
X59233333Y-64416666D01*
X59500000Y-64416666D01*
X59566666Y-64450000D01*
X59600000Y-64483333D01*
X59633333Y-64550000D01*
X59633333Y-64650000D01*
X59600000Y-64716666D01*
X59566666Y-64750000D01*
X59500000Y-64783333D01*
X59233333Y-64783333D01*
X59900000Y-64916666D02*
X60233333Y-64916666D01*
X59833333Y-65116666D02*
X60066666Y-64416666D01*
X60300000Y-65116666D01*
X60900000Y-65116666D02*
X60500000Y-65116666D01*
X60700000Y-65116666D02*
X60700000Y-64416666D01*
X60633333Y-64516666D01*
X60566666Y-64583333D01*
X60500000Y-64616666D01*
X61333333Y-64416666D02*
X61400000Y-64416666D01*
X61466666Y-64450000D01*
X61500000Y-64483333D01*
X61533333Y-64550000D01*
X61566666Y-64683333D01*
X61566666Y-64850000D01*
X61533333Y-64983333D01*
X61500000Y-65050000D01*
X61466666Y-65083333D01*
X61400000Y-65116666D01*
X61333333Y-65116666D01*
X61266666Y-65083333D01*
X61233333Y-65050000D01*
X61200000Y-64983333D01*
X61166666Y-64850000D01*
X61166666Y-64683333D01*
X61200000Y-64550000D01*
X61233333Y-64483333D01*
X61266666Y-64450000D01*
X61333333Y-64416666D01*
X62000000Y-64416666D02*
X62066666Y-64416666D01*
X62133333Y-64450000D01*
X62166666Y-64483333D01*
X62200000Y-64550000D01*
X62233333Y-64683333D01*
X62233333Y-64850000D01*
X62200000Y-64983333D01*
X62166666Y-65050000D01*
X62133333Y-65083333D01*
X62066666Y-65116666D01*
X62000000Y-65116666D01*
X61933333Y-65083333D01*
X61900000Y-65050000D01*
X61866666Y-64983333D01*
X61833333Y-64850000D01*
X61833333Y-64683333D01*
X61866666Y-64550000D01*
X61900000Y-64483333D01*
X61933333Y-64450000D01*
X62000000Y-64416666D01*
X62666666Y-64416666D02*
X62733333Y-64416666D01*
X62800000Y-64450000D01*
X62833333Y-64483333D01*
X62866666Y-64550000D01*
X62900000Y-64683333D01*
X62900000Y-64850000D01*
X62866666Y-64983333D01*
X62833333Y-65050000D01*
X62800000Y-65083333D01*
X62733333Y-65116666D01*
X62666666Y-65116666D01*
X62600000Y-65083333D01*
X62566666Y-65050000D01*
X62533333Y-64983333D01*
X62500000Y-64850000D01*
X62500000Y-64683333D01*
X62533333Y-64550000D01*
X62566666Y-64483333D01*
X62600000Y-64450000D01*
X62666666Y-64416666D01*
X63733333Y-65116666D02*
X63733333Y-64416666D01*
X64000000Y-64416666D01*
X64066666Y-64450000D01*
X64100000Y-64483333D01*
X64133333Y-64550000D01*
X64133333Y-64650000D01*
X64100000Y-64716666D01*
X64066666Y-64750000D01*
X64000000Y-64783333D01*
X63733333Y-64783333D01*
X64533333Y-65116666D02*
X64466666Y-65083333D01*
X64433333Y-65050000D01*
X64400000Y-64983333D01*
X64400000Y-64783333D01*
X64433333Y-64716666D01*
X64466666Y-64683333D01*
X64533333Y-64650000D01*
X64633333Y-64650000D01*
X64700000Y-64683333D01*
X64733333Y-64716666D01*
X64766666Y-64783333D01*
X64766666Y-64983333D01*
X64733333Y-65050000D01*
X64700000Y-65083333D01*
X64633333Y-65116666D01*
X64533333Y-65116666D01*
X65000000Y-64650000D02*
X65133333Y-65116666D01*
X65266666Y-64783333D01*
X65400000Y-65116666D01*
X65533333Y-64650000D01*
X66066666Y-65083333D02*
X66000000Y-65116666D01*
X65866666Y-65116666D01*
X65800000Y-65083333D01*
X65766666Y-65016666D01*
X65766666Y-64750000D01*
X65800000Y-64683333D01*
X65866666Y-64650000D01*
X66000000Y-64650000D01*
X66066666Y-64683333D01*
X66100000Y-64750000D01*
X66100000Y-64816666D01*
X65766666Y-64883333D01*
X66400000Y-65116666D02*
X66400000Y-64650000D01*
X66400000Y-64783333D02*
X66433333Y-64716666D01*
X66466666Y-64683333D01*
X66533333Y-64650000D01*
X66600000Y-64650000D01*
X60933333Y-65950000D02*
X61033333Y-65983333D01*
X61066666Y-66016666D01*
X61100000Y-66083333D01*
X61100000Y-66183333D01*
X61066666Y-66250000D01*
X61033333Y-66283333D01*
X60966666Y-66316666D01*
X60700000Y-66316666D01*
X60700000Y-65616666D01*
X60933333Y-65616666D01*
X61000000Y-65650000D01*
X61033333Y-65683333D01*
X61066666Y-65750000D01*
X61066666Y-65816666D01*
X61033333Y-65883333D01*
X61000000Y-65916666D01*
X60933333Y-65950000D01*
X60700000Y-65950000D01*
X61400000Y-66316666D02*
X61400000Y-65616666D01*
X62033333Y-65850000D02*
X62033333Y-66316666D01*
X61866666Y-65583333D02*
X61700000Y-66083333D01*
X62133333Y-66083333D01*
X62333333Y-65616666D02*
X62500000Y-66316666D01*
X62633333Y-65816666D01*
X62766666Y-66316666D01*
X62933333Y-65616666D01*
X63333333Y-65616666D02*
X63466666Y-65616666D01*
X63533333Y-65650000D01*
X63600000Y-65716666D01*
X63633333Y-65850000D01*
X63633333Y-66083333D01*
X63600000Y-66216666D01*
X63533333Y-66283333D01*
X63466666Y-66316666D01*
X63333333Y-66316666D01*
X63266666Y-66283333D01*
X63200000Y-66216666D01*
X63166666Y-66083333D01*
X63166666Y-65850000D01*
X63200000Y-65716666D01*
X63266666Y-65650000D01*
X63333333Y-65616666D01*
X63933333Y-66316666D02*
X63933333Y-65616666D01*
X64200000Y-65616666D01*
X64266666Y-65650000D01*
X64300000Y-65683333D01*
X64333333Y-65750000D01*
X64333333Y-65850000D01*
X64300000Y-65916666D01*
X64266666Y-65950000D01*
X64200000Y-65983333D01*
X63933333Y-65983333D01*
X59966666Y-66883333D02*
X60000000Y-66850000D01*
X60066666Y-66816666D01*
X60233333Y-66816666D01*
X60300000Y-66850000D01*
X60333333Y-66883333D01*
X60366666Y-66950000D01*
X60366666Y-67016666D01*
X60333333Y-67116666D01*
X59933333Y-67516666D01*
X60366666Y-67516666D01*
X60800000Y-66816666D02*
X60866666Y-66816666D01*
X60933333Y-66850000D01*
X60966666Y-66883333D01*
X61000000Y-66950000D01*
X61033333Y-67083333D01*
X61033333Y-67250000D01*
X61000000Y-67383333D01*
X60966666Y-67450000D01*
X60933333Y-67483333D01*
X60866666Y-67516666D01*
X60800000Y-67516666D01*
X60733333Y-67483333D01*
X60700000Y-67450000D01*
X60666666Y-67383333D01*
X60633333Y-67250000D01*
X60633333Y-67083333D01*
X60666666Y-66950000D01*
X60700000Y-66883333D01*
X60733333Y-66850000D01*
X60800000Y-66816666D01*
X61300000Y-66883333D02*
X61333333Y-66850000D01*
X61400000Y-66816666D01*
X61566666Y-66816666D01*
X61633333Y-66850000D01*
X61666666Y-66883333D01*
X61700000Y-66950000D01*
X61700000Y-67016666D01*
X61666666Y-67116666D01*
X61266666Y-67516666D01*
X61700000Y-67516666D01*
X62133333Y-66816666D02*
X62200000Y-66816666D01*
X62266666Y-66850000D01*
X62300000Y-66883333D01*
X62333333Y-66950000D01*
X62366666Y-67083333D01*
X62366666Y-67250000D01*
X62333333Y-67383333D01*
X62300000Y-67450000D01*
X62266666Y-67483333D01*
X62200000Y-67516666D01*
X62133333Y-67516666D01*
X62066666Y-67483333D01*
X62033333Y-67450000D01*
X62000000Y-67383333D01*
X61966666Y-67250000D01*
X61966666Y-67083333D01*
X62000000Y-66950000D01*
X62033333Y-66883333D01*
X62066666Y-66850000D01*
X62133333Y-66816666D01*
X62666666Y-67450000D02*
X62700000Y-67483333D01*
X62666666Y-67516666D01*
X62633333Y-67483333D01*
X62666666Y-67450000D01*
X62666666Y-67516666D01*
X62966666Y-66883333D02*
X63000000Y-66850000D01*
X63066666Y-66816666D01*
X63233333Y-66816666D01*
X63300000Y-66850000D01*
X63333333Y-66883333D01*
X63366666Y-66950000D01*
X63366666Y-67016666D01*
X63333333Y-67116666D01*
X62933333Y-67516666D01*
X63366666Y-67516666D01*
X63666666Y-67450000D02*
X63700000Y-67483333D01*
X63666666Y-67516666D01*
X63633333Y-67483333D01*
X63666666Y-67450000D01*
X63666666Y-67516666D01*
X63966666Y-66883333D02*
X64000000Y-66850000D01*
X64066666Y-66816666D01*
X64233333Y-66816666D01*
X64300000Y-66850000D01*
X64333333Y-66883333D01*
X64366666Y-66950000D01*
X64366666Y-67016666D01*
X64333333Y-67116666D01*
X63933333Y-67516666D01*
X64366666Y-67516666D01*
X64600000Y-66816666D02*
X65066666Y-66816666D01*
X64766666Y-67516666D01*
X76900000Y-67073809D02*
X77014285Y-67111904D01*
X77204761Y-67111904D01*
X77280952Y-67073809D01*
X77319047Y-67035714D01*
X77357142Y-66959523D01*
X77357142Y-66883333D01*
X77319047Y-66807142D01*
X77280952Y-66769047D01*
X77204761Y-66730952D01*
X77052380Y-66692857D01*
X76976190Y-66654761D01*
X76938095Y-66616666D01*
X76900000Y-66540476D01*
X76900000Y-66464285D01*
X76938095Y-66388095D01*
X76976190Y-66350000D01*
X77052380Y-66311904D01*
X77242857Y-66311904D01*
X77357142Y-66350000D01*
X78004761Y-67073809D02*
X77928571Y-67111904D01*
X77776190Y-67111904D01*
X77700000Y-67073809D01*
X77661904Y-66997619D01*
X77661904Y-66692857D01*
X77700000Y-66616666D01*
X77776190Y-66578571D01*
X77928571Y-66578571D01*
X78004761Y-66616666D01*
X78042857Y-66692857D01*
X78042857Y-66769047D01*
X77661904Y-66845238D01*
X78385714Y-66578571D02*
X78385714Y-67111904D01*
X78385714Y-66654761D02*
X78423809Y-66616666D01*
X78500000Y-66578571D01*
X78614285Y-66578571D01*
X78690476Y-66616666D01*
X78728571Y-66692857D01*
X78728571Y-67111904D01*
X79071428Y-67073809D02*
X79147619Y-67111904D01*
X79300000Y-67111904D01*
X79376190Y-67073809D01*
X79414285Y-66997619D01*
X79414285Y-66959523D01*
X79376190Y-66883333D01*
X79300000Y-66845238D01*
X79185714Y-66845238D01*
X79109523Y-66807142D01*
X79071428Y-66730952D01*
X79071428Y-66692857D01*
X79109523Y-66616666D01*
X79185714Y-66578571D01*
X79300000Y-66578571D01*
X79376190Y-66616666D01*
X80061904Y-67073809D02*
X79985714Y-67111904D01*
X79833333Y-67111904D01*
X79757142Y-67073809D01*
X79719047Y-66997619D01*
X79719047Y-66692857D01*
X79757142Y-66616666D01*
X79833333Y-66578571D01*
X79985714Y-66578571D01*
X80061904Y-66616666D01*
X80100000Y-66692857D01*
X80100000Y-66769047D01*
X79719047Y-66845238D01*
X79140476Y-64350000D02*
X79064285Y-64311904D01*
X78950000Y-64311904D01*
X78835714Y-64350000D01*
X78759523Y-64426190D01*
X78721428Y-64502380D01*
X78683333Y-64654761D01*
X78683333Y-64769047D01*
X78721428Y-64921428D01*
X78759523Y-64997619D01*
X78835714Y-65073809D01*
X78950000Y-65111904D01*
X79026190Y-65111904D01*
X79140476Y-65073809D01*
X79178571Y-65035714D01*
X79178571Y-64769047D01*
X79026190Y-64769047D01*
X79521428Y-65111904D02*
X79521428Y-64311904D01*
X79978571Y-65111904D01*
X79978571Y-64311904D01*
X80359523Y-65111904D02*
X80359523Y-64311904D01*
X80550000Y-64311904D01*
X80664285Y-64350000D01*
X80740476Y-64426190D01*
X80778571Y-64502380D01*
X80816666Y-64654761D01*
X80816666Y-64769047D01*
X80778571Y-64921428D01*
X80740476Y-64997619D01*
X80664285Y-65073809D01*
X80550000Y-65111904D01*
X80359523Y-65111904D01*
X79009523Y-61811904D02*
X79161904Y-61811904D01*
X79238095Y-61850000D01*
X79314285Y-61926190D01*
X79352380Y-62078571D01*
X79352380Y-62345238D01*
X79314285Y-62497619D01*
X79238095Y-62573809D01*
X79161904Y-62611904D01*
X79009523Y-62611904D01*
X78933333Y-62573809D01*
X78857142Y-62497619D01*
X78819047Y-62345238D01*
X78819047Y-62078571D01*
X78857142Y-61926190D01*
X78933333Y-61850000D01*
X79009523Y-61811904D01*
X79695238Y-62611904D02*
X79695238Y-61811904D01*
X80152380Y-62611904D01*
X80152380Y-61811904D01*
X80533333Y-62307142D02*
X81142857Y-62307142D01*
X80838095Y-62611904D02*
X80838095Y-62002380D01*
X78664285Y-60361904D02*
X78664285Y-59561904D01*
X78969047Y-60361904D02*
X79388095Y-59828571D01*
X78969047Y-59828571D02*
X79388095Y-60361904D01*
X80035714Y-59828571D02*
X80035714Y-60361904D01*
X79845238Y-59523809D02*
X79654761Y-60095238D01*
X80150000Y-60095238D01*
X80569047Y-59904761D02*
X80492857Y-59866666D01*
X80454761Y-59828571D01*
X80416666Y-59752380D01*
X80416666Y-59714285D01*
X80454761Y-59638095D01*
X80492857Y-59600000D01*
X80569047Y-59561904D01*
X80721428Y-59561904D01*
X80797619Y-59600000D01*
X80835714Y-59638095D01*
X80873809Y-59714285D01*
X80873809Y-59752380D01*
X80835714Y-59828571D01*
X80797619Y-59866666D01*
X80721428Y-59904761D01*
X80569047Y-59904761D01*
X80492857Y-59942857D01*
X80454761Y-59980952D01*
X80416666Y-60057142D01*
X80416666Y-60209523D01*
X80454761Y-60285714D01*
X80492857Y-60323809D01*
X80569047Y-60361904D01*
X80721428Y-60361904D01*
X80797619Y-60323809D01*
X80835714Y-60285714D01*
X80873809Y-60209523D01*
X80873809Y-60057142D01*
X80835714Y-59980952D01*
X80797619Y-59942857D01*
X80721428Y-59904761D01*
X84147619Y-53311904D02*
X84414285Y-54111904D01*
X84680952Y-53311904D01*
X84871428Y-54111904D02*
X85290476Y-53578571D01*
X84871428Y-53578571D02*
X85290476Y-54111904D01*
X85938095Y-53578571D02*
X85938095Y-54111904D01*
X85747619Y-53273809D02*
X85557142Y-53845238D01*
X86052380Y-53845238D01*
X86738095Y-53311904D02*
X86357142Y-53311904D01*
X86319047Y-53692857D01*
X86357142Y-53654761D01*
X86433333Y-53616666D01*
X86623809Y-53616666D01*
X86700000Y-53654761D01*
X86738095Y-53692857D01*
X86776190Y-53769047D01*
X86776190Y-53959523D01*
X86738095Y-54035714D01*
X86700000Y-54073809D01*
X86623809Y-54111904D01*
X86433333Y-54111904D01*
X86357142Y-54073809D01*
X86319047Y-54035714D01*
X84500000Y-29500000D02*
X84750000Y-29250001D01*
X84750000Y-29500000D02*
X84500000Y-29500000D01*
X85750000Y-29500000D02*
X84750000Y-29500000D01*
X84750000Y-29250001D02*
X84500000Y-29500000D01*
X84500000Y-29500000D02*
X84750000Y-29750000D01*
X78250000Y-34500000D02*
X78500000Y-34250000D01*
X78000000Y-34250000D02*
X78250000Y-34500000D01*
X78250000Y-34500000D02*
X78000000Y-34250000D01*
X78250000Y-34250000D02*
X78250000Y-34500000D01*
X78250000Y-33250000D02*
X78250000Y-34250000D01*
X79369047Y-33250000D02*
X79273809Y-33202380D01*
X79130952Y-33202380D01*
X78988095Y-33250000D01*
X78892857Y-33345238D01*
X78845238Y-33440476D01*
X78797619Y-33630952D01*
X78797619Y-33773809D01*
X78845238Y-33964285D01*
X78892857Y-34059523D01*
X78988095Y-34154761D01*
X79130952Y-34202380D01*
X79226190Y-34202380D01*
X79369047Y-34154761D01*
X79416666Y-34107142D01*
X79416666Y-33773809D01*
X79226190Y-33773809D01*
X79845238Y-34202380D02*
X79845238Y-33202380D01*
X80416666Y-34202380D01*
X80416666Y-33202380D01*
X80892857Y-34202380D02*
X80892857Y-33202380D01*
X81130952Y-33202380D01*
X81273809Y-33250000D01*
X81369047Y-33345238D01*
X81416666Y-33440476D01*
X81464285Y-33630952D01*
X81464285Y-33773809D01*
X81416666Y-33964285D01*
X81369047Y-34059523D01*
X81273809Y-34154761D01*
X81130952Y-34202380D01*
X80892857Y-34202380D01*
X81892857Y-33821428D02*
X82654761Y-33821428D01*
X83130952Y-34202380D02*
X83130952Y-33202380D01*
X83511904Y-33202380D01*
X83607142Y-33250000D01*
X83654761Y-33297619D01*
X83702380Y-33392857D01*
X83702380Y-33535714D01*
X83654761Y-33630952D01*
X83607142Y-33678571D01*
X83511904Y-33726190D01*
X83130952Y-33726190D01*
X84083333Y-34154761D02*
X84226190Y-34202380D01*
X84464285Y-34202380D01*
X84559523Y-34154761D01*
X84607142Y-34107142D01*
X84654761Y-34011904D01*
X84654761Y-33916666D01*
X84607142Y-33821428D01*
X84559523Y-33773809D01*
X84464285Y-33726190D01*
X84273809Y-33678571D01*
X84178571Y-33630952D01*
X84130952Y-33583333D01*
X84083333Y-33488095D01*
X84083333Y-33392857D01*
X84130952Y-33297619D01*
X84178571Y-33250000D01*
X84273809Y-33202380D01*
X84511904Y-33202380D01*
X84654761Y-33250000D01*
X85083333Y-33202380D02*
X85083333Y-34011904D01*
X85130952Y-34107142D01*
X85178571Y-34154761D01*
X85273809Y-34202380D01*
X85464285Y-34202380D01*
X85559523Y-34154761D01*
X85607142Y-34107142D01*
X85654761Y-34011904D01*
X85654761Y-33202380D01*
X84702380Y-28238095D02*
X84702380Y-28714285D01*
X85178571Y-28761904D01*
X85130952Y-28714285D01*
X85083333Y-28619047D01*
X85083333Y-28380952D01*
X85130952Y-28285714D01*
X85178571Y-28238095D01*
X85273809Y-28190476D01*
X85511904Y-28190476D01*
X85607142Y-28238095D01*
X85654761Y-28285714D01*
X85702380Y-28380952D01*
X85702380Y-28619047D01*
X85654761Y-28714285D01*
X85607142Y-28761904D01*
X84702380Y-27571428D02*
X84702380Y-27476190D01*
X84750000Y-27380952D01*
X84797619Y-27333333D01*
X84892857Y-27285714D01*
X85083333Y-27238095D01*
X85321428Y-27238095D01*
X85511904Y-27285714D01*
X85607142Y-27333333D01*
X85654761Y-27380952D01*
X85702380Y-27476190D01*
X85702380Y-27571428D01*
X85654761Y-27666666D01*
X85607142Y-27714285D01*
X85511904Y-27761904D01*
X85321428Y-27809523D01*
X85083333Y-27809523D01*
X84892857Y-27761904D01*
X84797619Y-27714285D01*
X84750000Y-27666666D01*
X84702380Y-27571428D01*
X84702380Y-26952380D02*
X85702380Y-26619047D01*
X84702380Y-26285714D01*
X85702380Y-25190476D02*
X85035714Y-25190476D01*
X84702380Y-25190476D02*
X84750000Y-25238095D01*
X84797619Y-25190476D01*
X84750000Y-25142857D01*
X84702380Y-25190476D01*
X84797619Y-25190476D01*
X85035714Y-24714285D02*
X85702380Y-24714285D01*
X85130952Y-24714285D02*
X85083333Y-24666666D01*
X85035714Y-24571428D01*
X85035714Y-24428571D01*
X85083333Y-24333333D01*
X85178571Y-24285714D01*
X85702380Y-24285714D01*
X46283333Y-22936904D02*
X46283333Y-22136904D01*
X46588095Y-22136904D01*
X46664285Y-22175000D01*
X46702380Y-22213095D01*
X46740476Y-22289285D01*
X46740476Y-22403571D01*
X46702380Y-22479761D01*
X46664285Y-22517857D01*
X46588095Y-22555952D01*
X46283333Y-22555952D01*
X47083333Y-22936904D02*
X47083333Y-22136904D01*
X47350000Y-22708333D01*
X47616666Y-22136904D01*
X47616666Y-22936904D01*
X48150000Y-22136904D02*
X48302380Y-22136904D01*
X48378571Y-22175000D01*
X48454761Y-22251190D01*
X48492857Y-22403571D01*
X48492857Y-22670238D01*
X48454761Y-22822619D01*
X48378571Y-22898809D01*
X48302380Y-22936904D01*
X48150000Y-22936904D01*
X48073809Y-22898809D01*
X47997619Y-22822619D01*
X47959523Y-22670238D01*
X47959523Y-22403571D01*
X47997619Y-22251190D01*
X48073809Y-22175000D01*
X48150000Y-22136904D01*
X48797619Y-22898809D02*
X48911904Y-22936904D01*
X49102380Y-22936904D01*
X49178571Y-22898809D01*
X49216666Y-22860714D01*
X49254761Y-22784523D01*
X49254761Y-22708333D01*
X49216666Y-22632142D01*
X49178571Y-22594047D01*
X49102380Y-22555952D01*
X48950000Y-22517857D01*
X48873809Y-22479761D01*
X48835714Y-22441666D01*
X48797619Y-22365476D01*
X48797619Y-22289285D01*
X48835714Y-22213095D01*
X48873809Y-22175000D01*
X48950000Y-22136904D01*
X49140476Y-22136904D01*
X49254761Y-22175000D01*
X47064285Y-24248809D02*
X47178571Y-24286904D01*
X47369047Y-24286904D01*
X47445238Y-24248809D01*
X47483333Y-24210714D01*
X47521428Y-24134523D01*
X47521428Y-24058333D01*
X47483333Y-23982142D01*
X47445238Y-23944047D01*
X47369047Y-23905952D01*
X47216666Y-23867857D01*
X47140476Y-23829761D01*
X47102380Y-23791666D01*
X47064285Y-23715476D01*
X47064285Y-23639285D01*
X47102380Y-23563095D01*
X47140476Y-23525000D01*
X47216666Y-23486904D01*
X47407142Y-23486904D01*
X47521428Y-23525000D01*
X47788095Y-23486904D02*
X47978571Y-24286904D01*
X48130952Y-23715476D01*
X48283333Y-24286904D01*
X48473809Y-23486904D01*
X49011904Y-30000000D02*
X48916666Y-29952380D01*
X48773809Y-29952380D01*
X48630952Y-30000000D01*
X48535714Y-30095238D01*
X48488095Y-30190476D01*
X48440476Y-30380952D01*
X48440476Y-30523809D01*
X48488095Y-30714285D01*
X48535714Y-30809523D01*
X48630952Y-30904761D01*
X48773809Y-30952380D01*
X48869047Y-30952380D01*
X49011904Y-30904761D01*
X49059523Y-30857142D01*
X49059523Y-30523809D01*
X48869047Y-30523809D01*
X59214285Y-30654761D02*
X59357142Y-30702380D01*
X59595238Y-30702380D01*
X59690476Y-30654761D01*
X59738095Y-30607142D01*
X59785714Y-30511904D01*
X59785714Y-30416666D01*
X59738095Y-30321428D01*
X59690476Y-30273809D01*
X59595238Y-30226190D01*
X59404761Y-30178571D01*
X59309523Y-30130952D01*
X59261904Y-30083333D01*
X59214285Y-29988095D01*
X59214285Y-29892857D01*
X59261904Y-29797619D01*
X59309523Y-29750000D01*
X59404761Y-29702380D01*
X59642857Y-29702380D01*
X59785714Y-29750000D01*
X21488095Y-66250000D02*
X21392857Y-66202380D01*
X21250000Y-66202380D01*
X21107142Y-66250000D01*
X21011904Y-66345238D01*
X20964285Y-66440476D01*
X20916666Y-66630952D01*
X20916666Y-66773809D01*
X20964285Y-66964285D01*
X21011904Y-67059523D01*
X21107142Y-67154761D01*
X21250000Y-67202380D01*
X21345238Y-67202380D01*
X21488095Y-67154761D01*
X21535714Y-67107142D01*
X21535714Y-66773809D01*
X21345238Y-66773809D01*
X21964285Y-67202380D02*
X21964285Y-66202380D01*
X22535714Y-67202380D01*
X22535714Y-66202380D01*
X23011904Y-67202380D02*
X23011904Y-66202380D01*
X23250000Y-66202380D01*
X23392857Y-66250000D01*
X23488095Y-66345238D01*
X23535714Y-66440476D01*
X23583333Y-66630952D01*
X23583333Y-66773809D01*
X23535714Y-66964285D01*
X23488095Y-67059523D01*
X23392857Y-67154761D01*
X23250000Y-67202380D01*
X23011904Y-67202380D01*
X20869047Y-54571428D02*
X21630952Y-54571428D01*
X21250000Y-54952380D02*
X21250000Y-54190476D01*
X29702380Y-61619047D02*
X29702380Y-62190476D01*
X29702380Y-61904761D02*
X28702380Y-61904761D01*
X28845238Y-62000000D01*
X28940476Y-62095238D01*
X28988095Y-62190476D01*
X28797619Y-61238095D02*
X28750000Y-61190476D01*
X28702380Y-61095238D01*
X28702380Y-60857142D01*
X28750000Y-60761904D01*
X28797619Y-60714285D01*
X28892857Y-60666666D01*
X28988095Y-60666666D01*
X29130952Y-60714285D01*
X29702380Y-61285714D01*
X29702380Y-60666666D01*
X28702380Y-60380952D02*
X29702380Y-60047619D01*
X28702380Y-59714285D01*
X40440476Y-42250000D02*
X40345238Y-42202380D01*
X40202380Y-42202380D01*
X40059523Y-42250000D01*
X39964285Y-42345238D01*
X39916666Y-42440476D01*
X39869047Y-42630952D01*
X39869047Y-42773809D01*
X39916666Y-42964285D01*
X39964285Y-43059523D01*
X40059523Y-43154761D01*
X40202380Y-43202380D01*
X40297619Y-43202380D01*
X40440476Y-43154761D01*
X40488095Y-43107142D01*
X40488095Y-42773809D01*
X40297619Y-42773809D01*
X40916666Y-43202380D02*
X40916666Y-42202380D01*
X41488095Y-43202380D01*
X41488095Y-42202380D01*
X41964285Y-43202380D02*
X41964285Y-42202380D01*
X42202380Y-42202380D01*
X42345238Y-42250000D01*
X42440476Y-42345238D01*
X42488095Y-42440476D01*
X42535714Y-42630952D01*
X42535714Y-42773809D01*
X42488095Y-42964285D01*
X42440476Y-43059523D01*
X42345238Y-43154761D01*
X42202380Y-43202380D01*
X41964285Y-43202380D01*
X42964285Y-42821428D02*
X43726190Y-42821428D01*
X44773809Y-43202380D02*
X44440476Y-42726190D01*
X44202380Y-43202380D02*
X44202380Y-42202380D01*
X44583333Y-42202380D01*
X44678571Y-42250000D01*
X44726190Y-42297619D01*
X44773809Y-42392857D01*
X44773809Y-42535714D01*
X44726190Y-42630952D01*
X44678571Y-42678571D01*
X44583333Y-42726190D01*
X44202380Y-42726190D01*
X45535714Y-42678571D02*
X45202380Y-42678571D01*
X45202380Y-43202380D02*
X45202380Y-42202380D01*
X45678571Y-42202380D01*
X25190476Y-42500000D02*
X25095238Y-42452380D01*
X24952380Y-42452380D01*
X24809523Y-42500000D01*
X24714285Y-42595238D01*
X24666666Y-42690476D01*
X24619047Y-42880952D01*
X24619047Y-43023809D01*
X24666666Y-43214285D01*
X24714285Y-43309523D01*
X24809523Y-43404761D01*
X24952380Y-43452380D01*
X25047619Y-43452380D01*
X25190476Y-43404761D01*
X25238095Y-43357142D01*
X25238095Y-43023809D01*
X25047619Y-43023809D01*
X25666666Y-43452380D02*
X25666666Y-42452380D01*
X26238095Y-43452380D01*
X26238095Y-42452380D01*
X26714285Y-43452380D02*
X26714285Y-42452380D01*
X26952380Y-42452380D01*
X27095238Y-42500000D01*
X27190476Y-42595238D01*
X27238095Y-42690476D01*
X27285714Y-42880952D01*
X27285714Y-43023809D01*
X27238095Y-43214285D01*
X27190476Y-43309523D01*
X27095238Y-43404761D01*
X26952380Y-43452380D01*
X26714285Y-43452380D01*
X27714285Y-43071428D02*
X28476190Y-43071428D01*
X29523809Y-43452380D02*
X29190476Y-42976190D01*
X28952380Y-43452380D02*
X28952380Y-42452380D01*
X29333333Y-42452380D01*
X29428571Y-42500000D01*
X29476190Y-42547619D01*
X29523809Y-42642857D01*
X29523809Y-42785714D01*
X29476190Y-42880952D01*
X29428571Y-42928571D01*
X29333333Y-42976190D01*
X28952380Y-42976190D01*
X30285714Y-42928571D02*
X29952380Y-42928571D01*
X29952380Y-43452380D02*
X29952380Y-42452380D01*
X30428571Y-42452380D01*
D11*
X73845000Y-65653000D02*
X74845000Y-65653000D01*
X74845000Y-63953000D02*
X73845000Y-63953000D01*
D12*
X48400000Y-66100000D02*
X48400000Y-59900000D01*
X53900000Y-66100000D02*
X53900000Y-65300000D01*
X46500000Y-66100000D02*
X53900000Y-66100000D01*
X46500000Y-66100000D02*
X46500000Y-65300000D01*
X53900000Y-60700000D02*
X53900000Y-59900000D01*
X46500000Y-59900000D02*
X53900000Y-59900000D01*
X46500000Y-60700000D02*
X46500000Y-59900000D01*
D13*
X56400000Y-58800001D02*
X57600000Y-58800001D01*
X56100000Y-59100001D02*
X56400000Y-58800001D01*
X56400000Y-55900001D02*
X56400000Y-56200001D01*
X56100000Y-55900001D02*
X56400000Y-55900001D01*
X53200000Y-55900001D02*
X53500000Y-55900001D01*
X53200000Y-56200001D02*
X53200000Y-55900001D01*
X53200000Y-59100001D02*
X53200000Y-58800001D01*
X53500000Y-59100001D02*
X53200000Y-59100001D01*
D12*
X71600000Y-47400000D02*
X71600000Y-52200000D01*
X74400000Y-47400000D02*
X74400000Y-52200000D01*
X71600000Y-47400000D02*
X74400000Y-47400000D01*
X71600000Y-52200000D02*
X74400000Y-52200000D01*
D14*
X70250000Y-47050000D02*
G75*
G03X70250000Y-47050000I-150000J0D01*
G01*
D15*
X72500000Y-48100000D02*
G75*
G03X72500000Y-48100000I-200000J0D01*
G01*
D12*
X76645000Y-58774000D02*
X74045000Y-58774000D01*
X76645000Y-58774000D02*
X76645000Y-59674000D01*
X76645000Y-63374000D02*
X74045000Y-63374000D01*
X76645000Y-62474000D02*
X76645000Y-63374000D01*
D11*
X53204000Y-53121000D02*
X53204000Y-54321000D01*
X51444000Y-54321000D02*
X51444000Y-53121000D01*
X49450000Y-50370000D02*
X50650000Y-50370000D01*
X50650000Y-52130000D02*
X49450000Y-52130000D01*
X45950000Y-50370000D02*
X47150000Y-50370000D01*
X47150000Y-52130000D02*
X45950000Y-52130000D01*
X59800000Y-51190000D02*
X61000000Y-51190000D01*
X61000000Y-52950000D02*
X59800000Y-52950000D01*
X59400000Y-51080000D02*
X58200000Y-51080000D01*
X58200000Y-49320000D02*
X59400000Y-49320000D01*
X56900000Y-55380000D02*
X55700000Y-55380000D01*
X55700000Y-53620000D02*
X56900000Y-53620000D01*
X48987000Y-54855000D02*
X47787000Y-54855000D01*
X47787000Y-53095000D02*
X48987000Y-53095000D01*
X48000000Y-47850000D02*
X63300000Y-47850000D01*
X47950000Y-38650000D02*
X63250000Y-38650000D01*
X64354000Y-51934000D02*
X63154000Y-51934000D01*
X63154000Y-50174000D02*
X64354000Y-50174000D01*
X60670000Y-56350000D02*
X60670000Y-55150000D01*
X62430000Y-55150000D02*
X62430000Y-56350000D01*
X62920000Y-56350000D02*
X62920000Y-55150000D01*
X64680000Y-55150000D02*
X64680000Y-56350000D01*
X72600000Y-52720000D02*
X73800000Y-52720000D01*
X73800000Y-54480000D02*
X72600000Y-54480000D01*
X78680000Y-51000000D02*
X78680000Y-52200000D01*
X76920000Y-52200000D02*
X76920000Y-51000000D01*
X52000000Y-35320000D02*
X53200000Y-35320000D01*
X53200000Y-37080000D02*
X52000000Y-37080000D01*
X60680000Y-34400000D02*
X60680000Y-35600000D01*
X58920000Y-35600000D02*
X58920000Y-34400000D01*
X50680000Y-34600000D02*
X50680000Y-35800000D01*
X48920000Y-35800000D02*
X48920000Y-34600000D01*
X53200000Y-35080000D02*
X52000000Y-35080000D01*
X52000000Y-33320000D02*
X53200000Y-33320000D01*
X57463000Y-37408000D02*
X56263000Y-37408000D01*
X56263000Y-35648000D02*
X57463000Y-35648000D01*
X79594000Y-58538000D02*
X78394000Y-58538000D01*
X78394000Y-56778000D02*
X79594000Y-56778000D01*
X78394000Y-54873000D02*
X79594000Y-54873000D01*
X79594000Y-56633000D02*
X78394000Y-56633000D01*
D16*
X57500000Y-34100000D02*
X57500000Y-33500000D01*
D12*
X55950000Y-35260000D02*
X55950000Y-34600000D01*
X55950000Y-35260000D02*
X56765000Y-35260000D01*
X55950000Y-32340000D02*
X56765000Y-32340000D01*
X55950000Y-33000000D02*
X55950000Y-32340000D01*
X55950000Y-33000000D02*
X55950000Y-32340000D01*
X55950000Y-33000000D02*
X55950000Y-32340000D01*
D11*
X30484000Y-51312000D02*
X34084000Y-51312000D01*
X30484000Y-64512000D02*
X30484000Y-51312000D01*
X34084000Y-64512000D02*
X30484000Y-64512000D01*
X43684000Y-64512000D02*
X40084000Y-64512000D01*
X43684000Y-51312000D02*
X43684000Y-64512000D01*
X40084000Y-51312000D02*
X43684000Y-51312000D01*
X21060000Y-64346000D02*
X20425000Y-64854000D01*
X20425000Y-61552000D02*
X21060000Y-62060000D01*
X21060000Y-62060000D02*
X21060000Y-64346000D01*
X21060000Y-59393000D02*
X20425000Y-59901000D01*
X21060000Y-57107000D02*
X21060000Y-59393000D01*
X20425000Y-56599000D02*
X21060000Y-57107000D01*
D17*
X20400000Y-55750000D02*
X20400000Y-65750000D01*
X28100000Y-65750000D02*
X20400000Y-65750000D01*
X28100000Y-55750000D02*
X28100000Y-65750000D01*
X28100000Y-55750000D02*
X20400000Y-55750000D01*
D11*
X27708000Y-31550000D02*
X26438000Y-31550000D01*
X26946000Y-31042000D02*
X26946000Y-32058000D01*
X33042000Y-41710000D02*
X33042000Y-21390000D01*
X29740000Y-41710000D02*
X33042000Y-41710000D01*
X29740000Y-40948000D02*
X29740000Y-41710000D01*
X24660000Y-40948000D02*
X29740000Y-40948000D01*
X24660000Y-41710000D02*
X24660000Y-40948000D01*
X21612000Y-41710000D02*
X24660000Y-41710000D01*
X21612000Y-21390000D02*
X21612000Y-41710000D01*
X24660000Y-21390000D02*
X21612000Y-21390000D01*
X24660000Y-22152000D02*
X24660000Y-21390000D01*
X29740000Y-22152000D02*
X24660000Y-22152000D01*
X29740000Y-21390000D02*
X29740000Y-22152000D01*
X33042000Y-21390000D02*
X29740000Y-21390000D01*
X33042000Y-22152000D02*
X33042000Y-21390000D01*
X29693430Y-31550000D02*
G75*
G03X29693430Y-31550000I-2747430J0D01*
G01*
X39692000Y-31550000D02*
X40962000Y-31550000D01*
X40454000Y-32058000D02*
X40454000Y-31042000D01*
X34358000Y-21390000D02*
X34358000Y-41710000D01*
X37660000Y-21390000D02*
X34358000Y-21390000D01*
X37660000Y-22152000D02*
X37660000Y-21390000D01*
X42740000Y-22152000D02*
X37660000Y-22152000D01*
X42740000Y-21390000D02*
X42740000Y-22152000D01*
X45788000Y-21390000D02*
X42740000Y-21390000D01*
X45788000Y-41710000D02*
X45788000Y-21390000D01*
X42740000Y-41710000D02*
X45788000Y-41710000D01*
X42740000Y-40948000D02*
X42740000Y-41710000D01*
X37660000Y-40948000D02*
X42740000Y-40948000D01*
X37660000Y-41710000D02*
X37660000Y-40948000D01*
X34358000Y-41710000D02*
X37660000Y-41710000D01*
X34358000Y-40948000D02*
X34358000Y-41710000D01*
X43201430Y-31550000D02*
G75*
G03X43201430Y-31550000I-2747430J0D01*
G01*
X87550000Y-54400000D02*
X85050000Y-54400000D01*
X87550000Y-56900000D02*
X87550000Y-54400000D01*
X82050000Y-66550000D02*
X82050000Y-61000000D01*
X85000000Y-66550000D02*
X82050000Y-66550000D01*
X85000000Y-67300000D02*
X85000000Y-66550000D01*
X82050000Y-55450000D02*
X82050000Y-61000000D01*
X85000000Y-55450000D02*
X82050000Y-55450000D01*
X85000000Y-54700000D02*
X85000000Y-55450000D01*
X87250000Y-67300000D02*
X87250000Y-65500000D01*
X86500000Y-67300000D02*
X87250000Y-67300000D01*
X86500000Y-65500000D02*
X86500000Y-67300000D01*
X87250000Y-65500000D02*
X86500000Y-65500000D01*
X87250000Y-56500000D02*
X87250000Y-54700000D01*
X86500000Y-56500000D02*
X87250000Y-56500000D01*
X86500000Y-54700000D02*
X86500000Y-56500000D01*
X87250000Y-54700000D02*
X86500000Y-54700000D01*
X87250000Y-64000000D02*
X87250000Y-58000000D01*
X86500000Y-64000000D02*
X87250000Y-64000000D01*
X86500000Y-58000000D02*
X86500000Y-64000000D01*
X87250000Y-58000000D02*
X86500000Y-58000000D01*
X87250000Y-67300000D02*
X87250000Y-54700000D01*
X81300000Y-67300000D02*
X87250000Y-67300000D01*
X81300000Y-54700000D02*
X81300000Y-67300000D01*
X87250000Y-54700000D02*
X81300000Y-54700000D01*
X73800000Y-25742000D02*
X73800000Y-27012000D01*
X73292000Y-26504000D02*
X74308000Y-26504000D01*
X83960000Y-20408000D02*
X63640000Y-20408000D01*
X83960000Y-23710000D02*
X83960000Y-20408000D01*
X83198000Y-23710000D02*
X83960000Y-23710000D01*
X83198000Y-28790000D02*
X83198000Y-23710000D01*
X83960000Y-28790000D02*
X83198000Y-28790000D01*
X83960000Y-31838000D02*
X83960000Y-28790000D01*
X63640000Y-31838000D02*
X83960000Y-31838000D01*
X63640000Y-28790000D02*
X63640000Y-31838000D01*
X64402000Y-28790000D02*
X63640000Y-28790000D01*
X64402000Y-23710000D02*
X64402000Y-28790000D01*
X63640000Y-23710000D02*
X64402000Y-23710000D01*
X63640000Y-20408000D02*
X63640000Y-23710000D01*
X64402000Y-20408000D02*
X63640000Y-20408000D01*
X76547430Y-26504000D02*
G75*
G03X76547430Y-26504000I-2747430J0D01*
G01*
X76400000Y-40958000D02*
X76400000Y-39688000D01*
X76908000Y-40196000D02*
X75892000Y-40196000D01*
X66240000Y-46292000D02*
X86560000Y-46292000D01*
X66240000Y-42990000D02*
X66240000Y-46292000D01*
X67002000Y-42990000D02*
X66240000Y-42990000D01*
X67002000Y-37910000D02*
X67002000Y-42990000D01*
X66240000Y-37910000D02*
X67002000Y-37910000D01*
X66240000Y-34862000D02*
X66240000Y-37910000D01*
X86560000Y-34862000D02*
X66240000Y-34862000D01*
X86560000Y-37910000D02*
X86560000Y-34862000D01*
X85798000Y-37910000D02*
X86560000Y-37910000D01*
X85798000Y-42990000D02*
X85798000Y-37910000D01*
X86560000Y-42990000D02*
X85798000Y-42990000D01*
X86560000Y-46292000D02*
X86560000Y-42990000D01*
X85798000Y-46292000D02*
X86560000Y-46292000D01*
X79147430Y-40196000D02*
G75*
G03X79147430Y-40196000I-2747430J0D01*
G01*
X67120000Y-54250000D02*
X67120000Y-56250000D01*
X64980000Y-56250000D02*
X64980000Y-54250000D01*
X67731000Y-56324000D02*
X67731000Y-54324000D01*
X69871000Y-54324000D02*
X69871000Y-56324000D01*
X54800000Y-51370000D02*
X57600000Y-51370000D01*
X54800000Y-52770000D02*
X57600000Y-52770000D01*
X54800000Y-51370000D02*
X54800000Y-52770000D01*
D10*
G36*
X71163000Y-67494000D02*
G01*
X71163000Y-67094000D01*
X67963000Y-67094000D01*
X67963000Y-67494000D01*
X71163000Y-67494000D01*
G37*
X71163000Y-67494000D02*
X71163000Y-67094000D01*
X67963000Y-67094000D01*
X67963000Y-67494000D01*
X71163000Y-67494000D01*
D12*
X71163000Y-66823000D02*
X71663000Y-66298000D01*
X67963000Y-66823000D02*
X67463000Y-66298000D01*
X67463000Y-61998000D02*
X67463000Y-59573000D01*
X71663000Y-61998000D02*
X71663000Y-59573000D01*
X71663000Y-66298000D02*
X71663000Y-64398000D01*
X67463000Y-66298000D02*
X67463000Y-64398000D01*
X71663000Y-59573000D02*
X67463000Y-59573000D01*
X71163000Y-66823000D02*
X67963000Y-66823000D01*
D11*
X22700000Y-52340000D02*
X22700000Y-46500000D01*
X23460000Y-53100000D02*
X22700000Y-52340000D01*
X29300000Y-52340000D02*
X28540000Y-53100000D01*
X29300000Y-46500000D02*
X29300000Y-52340000D01*
X23460000Y-53100000D02*
X24880000Y-53100000D01*
X28540000Y-53100000D02*
X27120000Y-53100000D01*
X22700000Y-46500000D02*
X24880000Y-46500000D01*
X29300000Y-46500000D02*
X27120000Y-46500000D01*
X58254000Y-61730000D02*
X58254000Y-60730000D01*
X56554000Y-60730000D02*
X56554000Y-61730000D01*
X60150001Y-56000000D02*
X60150001Y-55000000D01*
X58450001Y-55000000D02*
X58450001Y-56000000D01*
X45950001Y-56873000D02*
X45950001Y-57873000D01*
X47650001Y-57873000D02*
X47650001Y-56873000D01*
X48934000Y-56873000D02*
X48934000Y-57873000D01*
X50634000Y-57873000D02*
X50634000Y-56873000D01*
X67350000Y-49719000D02*
X67350000Y-50719000D01*
X69050000Y-50719000D02*
X69050000Y-49719000D01*
X63820000Y-59254000D02*
X63820000Y-61254000D01*
X66780000Y-61254000D02*
X66780000Y-59254000D01*
X60570000Y-59254000D02*
X60570000Y-61254000D01*
X63530000Y-61254000D02*
X63530000Y-59254000D01*
X58280001Y-59254000D02*
X58280001Y-61254000D01*
X60320001Y-61254000D02*
X60320001Y-59254000D01*
X73845000Y-58124000D02*
X74845000Y-58124000D01*
X74845000Y-56424000D02*
X73845000Y-56424000D01*
X60950000Y-34500000D02*
X60950000Y-35500000D01*
X62650000Y-35500000D02*
X62650000Y-34500000D01*
D10*
X73830714Y-66785714D02*
X73792619Y-66823809D01*
X73678333Y-66861904D01*
X73602142Y-66861904D01*
X73487857Y-66823809D01*
X73411666Y-66747619D01*
X73373571Y-66671428D01*
X73335476Y-66519047D01*
X73335476Y-66404761D01*
X73373571Y-66252380D01*
X73411666Y-66176190D01*
X73487857Y-66100000D01*
X73602142Y-66061904D01*
X73678333Y-66061904D01*
X73792619Y-66100000D01*
X73830714Y-66138095D01*
X74592619Y-66861904D02*
X74135476Y-66861904D01*
X74364047Y-66861904D02*
X74364047Y-66061904D01*
X74287857Y-66176190D01*
X74211666Y-66252380D01*
X74135476Y-66290476D01*
X74897380Y-66138095D02*
X74935476Y-66100000D01*
X75011666Y-66061904D01*
X75202142Y-66061904D01*
X75278333Y-66100000D01*
X75316428Y-66138095D01*
X75354523Y-66214285D01*
X75354523Y-66290476D01*
X75316428Y-66404761D01*
X74859285Y-66861904D01*
X75354523Y-66861904D01*
X50159523Y-67361904D02*
X50159523Y-66561904D01*
X50350000Y-66561904D01*
X50464285Y-66600000D01*
X50540476Y-66676190D01*
X50578571Y-66752380D01*
X50616666Y-66904761D01*
X50616666Y-67019047D01*
X50578571Y-67171428D01*
X50540476Y-67247619D01*
X50464285Y-67323809D01*
X50350000Y-67361904D01*
X50159523Y-67361904D01*
X50921428Y-66638095D02*
X50959523Y-66600000D01*
X51035714Y-66561904D01*
X51226190Y-66561904D01*
X51302380Y-66600000D01*
X51340476Y-66638095D01*
X51378571Y-66714285D01*
X51378571Y-66790476D01*
X51340476Y-66904761D01*
X50883333Y-67361904D01*
X51378571Y-67361904D01*
X53390476Y-54811904D02*
X53390476Y-55459523D01*
X53428571Y-55535714D01*
X53466666Y-55573809D01*
X53542857Y-55611904D01*
X53695238Y-55611904D01*
X53771428Y-55573809D01*
X53809523Y-55535714D01*
X53847619Y-55459523D01*
X53847619Y-54811904D01*
X54152380Y-54811904D02*
X54647619Y-54811904D01*
X54380952Y-55116666D01*
X54495238Y-55116666D01*
X54571428Y-55154761D01*
X54609523Y-55192857D01*
X54647619Y-55269047D01*
X54647619Y-55459523D01*
X54609523Y-55535714D01*
X54571428Y-55573809D01*
X54495238Y-55611904D01*
X54266666Y-55611904D01*
X54190476Y-55573809D01*
X54152380Y-55535714D01*
X77061904Y-49609523D02*
X77709523Y-49609523D01*
X77785714Y-49571428D01*
X77823809Y-49533333D01*
X77861904Y-49457142D01*
X77861904Y-49304761D01*
X77823809Y-49228571D01*
X77785714Y-49190476D01*
X77709523Y-49152380D01*
X77061904Y-49152380D01*
X77138095Y-48809523D02*
X77100000Y-48771428D01*
X77061904Y-48695238D01*
X77061904Y-48504761D01*
X77100000Y-48428571D01*
X77138095Y-48390476D01*
X77214285Y-48352380D01*
X77290476Y-48352380D01*
X77404761Y-48390476D01*
X77861904Y-48847619D01*
X77861904Y-48352380D01*
X76640476Y-64061904D02*
X76640476Y-64709523D01*
X76678571Y-64785714D01*
X76716666Y-64823809D01*
X76792857Y-64861904D01*
X76945238Y-64861904D01*
X77021428Y-64823809D01*
X77059523Y-64785714D01*
X77097619Y-64709523D01*
X77097619Y-64061904D01*
X77897619Y-64861904D02*
X77440476Y-64861904D01*
X77669047Y-64861904D02*
X77669047Y-64061904D01*
X77592857Y-64176190D01*
X77516666Y-64252380D01*
X77440476Y-64290476D01*
X54335904Y-53764285D02*
X53954952Y-54030952D01*
X54335904Y-54221428D02*
X53535904Y-54221428D01*
X53535904Y-53916666D01*
X53574000Y-53840476D01*
X53612095Y-53802380D01*
X53688285Y-53764285D01*
X53802571Y-53764285D01*
X53878761Y-53802380D01*
X53916857Y-53840476D01*
X53954952Y-53916666D01*
X53954952Y-54221428D01*
X53612095Y-53459523D02*
X53574000Y-53421428D01*
X53535904Y-53345238D01*
X53535904Y-53154761D01*
X53574000Y-53078571D01*
X53612095Y-53040476D01*
X53688285Y-53002380D01*
X53764476Y-53002380D01*
X53878761Y-53040476D01*
X54335904Y-53497619D01*
X54335904Y-53002380D01*
X53535904Y-52507142D02*
X53535904Y-52430952D01*
X53574000Y-52354761D01*
X53612095Y-52316666D01*
X53688285Y-52278571D01*
X53840666Y-52240476D01*
X54031142Y-52240476D01*
X54183523Y-52278571D01*
X54259714Y-52316666D01*
X54297809Y-52354761D01*
X54335904Y-52430952D01*
X54335904Y-52507142D01*
X54297809Y-52583333D01*
X54259714Y-52621428D01*
X54183523Y-52659523D01*
X54031142Y-52697619D01*
X53840666Y-52697619D01*
X53688285Y-52659523D01*
X53612095Y-52621428D01*
X53574000Y-52583333D01*
X53535904Y-52507142D01*
X49535714Y-49961904D02*
X49269047Y-49580952D01*
X49078571Y-49961904D02*
X49078571Y-49161904D01*
X49383333Y-49161904D01*
X49459523Y-49200000D01*
X49497619Y-49238095D01*
X49535714Y-49314285D01*
X49535714Y-49428571D01*
X49497619Y-49504761D01*
X49459523Y-49542857D01*
X49383333Y-49580952D01*
X49078571Y-49580952D01*
X50297619Y-49961904D02*
X49840476Y-49961904D01*
X50069047Y-49961904D02*
X50069047Y-49161904D01*
X49992857Y-49276190D01*
X49916666Y-49352380D01*
X49840476Y-49390476D01*
X50678571Y-49961904D02*
X50830952Y-49961904D01*
X50907142Y-49923809D01*
X50945238Y-49885714D01*
X51021428Y-49771428D01*
X51059523Y-49619047D01*
X51059523Y-49314285D01*
X51021428Y-49238095D01*
X50983333Y-49200000D01*
X50907142Y-49161904D01*
X50754761Y-49161904D01*
X50678571Y-49200000D01*
X50640476Y-49238095D01*
X50602380Y-49314285D01*
X50602380Y-49504761D01*
X50640476Y-49580952D01*
X50678571Y-49619047D01*
X50754761Y-49657142D01*
X50907142Y-49657142D01*
X50983333Y-49619047D01*
X51021428Y-49580952D01*
X51059523Y-49504761D01*
X46035714Y-49961904D02*
X45769047Y-49580952D01*
X45578571Y-49961904D02*
X45578571Y-49161904D01*
X45883333Y-49161904D01*
X45959523Y-49200000D01*
X45997619Y-49238095D01*
X46035714Y-49314285D01*
X46035714Y-49428571D01*
X45997619Y-49504761D01*
X45959523Y-49542857D01*
X45883333Y-49580952D01*
X45578571Y-49580952D01*
X46797619Y-49961904D02*
X46340476Y-49961904D01*
X46569047Y-49961904D02*
X46569047Y-49161904D01*
X46492857Y-49276190D01*
X46416666Y-49352380D01*
X46340476Y-49390476D01*
X47254761Y-49504761D02*
X47178571Y-49466666D01*
X47140476Y-49428571D01*
X47102380Y-49352380D01*
X47102380Y-49314285D01*
X47140476Y-49238095D01*
X47178571Y-49200000D01*
X47254761Y-49161904D01*
X47407142Y-49161904D01*
X47483333Y-49200000D01*
X47521428Y-49238095D01*
X47559523Y-49314285D01*
X47559523Y-49352380D01*
X47521428Y-49428571D01*
X47483333Y-49466666D01*
X47407142Y-49504761D01*
X47254761Y-49504761D01*
X47178571Y-49542857D01*
X47140476Y-49580952D01*
X47102380Y-49657142D01*
X47102380Y-49809523D01*
X47140476Y-49885714D01*
X47178571Y-49923809D01*
X47254761Y-49961904D01*
X47407142Y-49961904D01*
X47483333Y-49923809D01*
X47521428Y-49885714D01*
X47559523Y-49809523D01*
X47559523Y-49657142D01*
X47521428Y-49580952D01*
X47483333Y-49542857D01*
X47407142Y-49504761D01*
X60735714Y-50861904D02*
X60469047Y-50480952D01*
X60278571Y-50861904D02*
X60278571Y-50061904D01*
X60583333Y-50061904D01*
X60659523Y-50100000D01*
X60697619Y-50138095D01*
X60735714Y-50214285D01*
X60735714Y-50328571D01*
X60697619Y-50404761D01*
X60659523Y-50442857D01*
X60583333Y-50480952D01*
X60278571Y-50480952D01*
X61497619Y-50861904D02*
X61040476Y-50861904D01*
X61269047Y-50861904D02*
X61269047Y-50061904D01*
X61192857Y-50176190D01*
X61116666Y-50252380D01*
X61040476Y-50290476D01*
X61764285Y-50061904D02*
X62297619Y-50061904D01*
X61954761Y-50861904D01*
X58285714Y-49111904D02*
X58019047Y-48730952D01*
X57828571Y-49111904D02*
X57828571Y-48311904D01*
X58133333Y-48311904D01*
X58209523Y-48350000D01*
X58247619Y-48388095D01*
X58285714Y-48464285D01*
X58285714Y-48578571D01*
X58247619Y-48654761D01*
X58209523Y-48692857D01*
X58133333Y-48730952D01*
X57828571Y-48730952D01*
X59047619Y-49111904D02*
X58590476Y-49111904D01*
X58819047Y-49111904D02*
X58819047Y-48311904D01*
X58742857Y-48426190D01*
X58666666Y-48502380D01*
X58590476Y-48540476D01*
X59733333Y-48311904D02*
X59580952Y-48311904D01*
X59504761Y-48350000D01*
X59466666Y-48388095D01*
X59390476Y-48502380D01*
X59352380Y-48654761D01*
X59352380Y-48959523D01*
X59390476Y-49035714D01*
X59428571Y-49073809D01*
X59504761Y-49111904D01*
X59657142Y-49111904D01*
X59733333Y-49073809D01*
X59771428Y-49035714D01*
X59809523Y-48959523D01*
X59809523Y-48769047D01*
X59771428Y-48692857D01*
X59733333Y-48654761D01*
X59657142Y-48616666D01*
X59504761Y-48616666D01*
X59428571Y-48654761D01*
X59390476Y-48692857D01*
X59352380Y-48769047D01*
X57735714Y-53611904D02*
X57469047Y-53230952D01*
X57278571Y-53611904D02*
X57278571Y-52811904D01*
X57583333Y-52811904D01*
X57659523Y-52850000D01*
X57697619Y-52888095D01*
X57735714Y-52964285D01*
X57735714Y-53078571D01*
X57697619Y-53154761D01*
X57659523Y-53192857D01*
X57583333Y-53230952D01*
X57278571Y-53230952D01*
X58497619Y-53611904D02*
X58040476Y-53611904D01*
X58269047Y-53611904D02*
X58269047Y-52811904D01*
X58192857Y-52926190D01*
X58116666Y-53002380D01*
X58040476Y-53040476D01*
X59221428Y-52811904D02*
X58840476Y-52811904D01*
X58802380Y-53192857D01*
X58840476Y-53154761D01*
X58916666Y-53116666D01*
X59107142Y-53116666D01*
X59183333Y-53154761D01*
X59221428Y-53192857D01*
X59259523Y-53269047D01*
X59259523Y-53459523D01*
X59221428Y-53535714D01*
X59183333Y-53573809D01*
X59107142Y-53611904D01*
X58916666Y-53611904D01*
X58840476Y-53573809D01*
X58802380Y-53535714D01*
X44985714Y-54361904D02*
X44719047Y-53980952D01*
X44528571Y-54361904D02*
X44528571Y-53561904D01*
X44833333Y-53561904D01*
X44909523Y-53600000D01*
X44947619Y-53638095D01*
X44985714Y-53714285D01*
X44985714Y-53828571D01*
X44947619Y-53904761D01*
X44909523Y-53942857D01*
X44833333Y-53980952D01*
X44528571Y-53980952D01*
X45747619Y-54361904D02*
X45290476Y-54361904D01*
X45519047Y-54361904D02*
X45519047Y-53561904D01*
X45442857Y-53676190D01*
X45366666Y-53752380D01*
X45290476Y-53790476D01*
X46433333Y-53828571D02*
X46433333Y-54361904D01*
X46242857Y-53523809D02*
X46052380Y-54095238D01*
X46547619Y-54095238D01*
X55085714Y-44111904D02*
X54819047Y-43730952D01*
X54628571Y-44111904D02*
X54628571Y-43311904D01*
X54933333Y-43311904D01*
X55009523Y-43350000D01*
X55047619Y-43388095D01*
X55085714Y-43464285D01*
X55085714Y-43578571D01*
X55047619Y-43654761D01*
X55009523Y-43692857D01*
X54933333Y-43730952D01*
X54628571Y-43730952D01*
X55847619Y-44111904D02*
X55390476Y-44111904D01*
X55619047Y-44111904D02*
X55619047Y-43311904D01*
X55542857Y-43426190D01*
X55466666Y-43502380D01*
X55390476Y-43540476D01*
X56114285Y-43311904D02*
X56609523Y-43311904D01*
X56342857Y-43616666D01*
X56457142Y-43616666D01*
X56533333Y-43654761D01*
X56571428Y-43692857D01*
X56609523Y-43769047D01*
X56609523Y-43959523D01*
X56571428Y-44035714D01*
X56533333Y-44073809D01*
X56457142Y-44111904D01*
X56228571Y-44111904D01*
X56152380Y-44073809D01*
X56114285Y-44035714D01*
X63235714Y-49861904D02*
X62969047Y-49480952D01*
X62778571Y-49861904D02*
X62778571Y-49061904D01*
X63083333Y-49061904D01*
X63159523Y-49100000D01*
X63197619Y-49138095D01*
X63235714Y-49214285D01*
X63235714Y-49328571D01*
X63197619Y-49404761D01*
X63159523Y-49442857D01*
X63083333Y-49480952D01*
X62778571Y-49480952D01*
X63997619Y-49861904D02*
X63540476Y-49861904D01*
X63769047Y-49861904D02*
X63769047Y-49061904D01*
X63692857Y-49176190D01*
X63616666Y-49252380D01*
X63540476Y-49290476D01*
X64302380Y-49138095D02*
X64340476Y-49100000D01*
X64416666Y-49061904D01*
X64607142Y-49061904D01*
X64683333Y-49100000D01*
X64721428Y-49138095D01*
X64759523Y-49214285D01*
X64759523Y-49290476D01*
X64721428Y-49404761D01*
X64264285Y-49861904D01*
X64759523Y-49861904D01*
X61550000Y-54066666D02*
X61316666Y-53733333D01*
X61150000Y-54066666D02*
X61150000Y-53366666D01*
X61416666Y-53366666D01*
X61483333Y-53400000D01*
X61516666Y-53433333D01*
X61550000Y-53500000D01*
X61550000Y-53600000D01*
X61516666Y-53666666D01*
X61483333Y-53700000D01*
X61416666Y-53733333D01*
X61150000Y-53733333D01*
X62216666Y-54066666D02*
X61816666Y-54066666D01*
X62016666Y-54066666D02*
X62016666Y-53366666D01*
X61950000Y-53466666D01*
X61883333Y-53533333D01*
X61816666Y-53566666D01*
X62883333Y-54066666D02*
X62483333Y-54066666D01*
X62683333Y-54066666D02*
X62683333Y-53366666D01*
X62616666Y-53466666D01*
X62550000Y-53533333D01*
X62483333Y-53566666D01*
X63550000Y-54066666D02*
X63316666Y-53733333D01*
X63150000Y-54066666D02*
X63150000Y-53366666D01*
X63416666Y-53366666D01*
X63483333Y-53400000D01*
X63516666Y-53433333D01*
X63550000Y-53500000D01*
X63550000Y-53600000D01*
X63516666Y-53666666D01*
X63483333Y-53700000D01*
X63416666Y-53733333D01*
X63150000Y-53733333D01*
X64216666Y-54066666D02*
X63816666Y-54066666D01*
X64016666Y-54066666D02*
X64016666Y-53366666D01*
X63950000Y-53466666D01*
X63883333Y-53533333D01*
X63816666Y-53566666D01*
X64650000Y-53366666D02*
X64716666Y-53366666D01*
X64783333Y-53400000D01*
X64816666Y-53433333D01*
X64850000Y-53500000D01*
X64883333Y-53633333D01*
X64883333Y-53800000D01*
X64850000Y-53933333D01*
X64816666Y-54000000D01*
X64783333Y-54033333D01*
X64716666Y-54066666D01*
X64650000Y-54066666D01*
X64583333Y-54033333D01*
X64550000Y-54000000D01*
X64516666Y-53933333D01*
X64483333Y-53800000D01*
X64483333Y-53633333D01*
X64516666Y-53500000D01*
X64550000Y-53433333D01*
X64583333Y-53400000D01*
X64650000Y-53366666D01*
X75616666Y-53861904D02*
X75350000Y-53480952D01*
X75159523Y-53861904D02*
X75159523Y-53061904D01*
X75464285Y-53061904D01*
X75540476Y-53100000D01*
X75578571Y-53138095D01*
X75616666Y-53214285D01*
X75616666Y-53328571D01*
X75578571Y-53404761D01*
X75540476Y-53442857D01*
X75464285Y-53480952D01*
X75159523Y-53480952D01*
X75997619Y-53861904D02*
X76150000Y-53861904D01*
X76226190Y-53823809D01*
X76264285Y-53785714D01*
X76340476Y-53671428D01*
X76378571Y-53519047D01*
X76378571Y-53214285D01*
X76340476Y-53138095D01*
X76302380Y-53100000D01*
X76226190Y-53061904D01*
X76073809Y-53061904D01*
X75997619Y-53100000D01*
X75959523Y-53138095D01*
X75921428Y-53214285D01*
X75921428Y-53404761D01*
X75959523Y-53480952D01*
X75997619Y-53519047D01*
X76073809Y-53557142D01*
X76226190Y-53557142D01*
X76302380Y-53519047D01*
X76340476Y-53480952D01*
X76378571Y-53404761D01*
X79811904Y-51733333D02*
X79430952Y-52000000D01*
X79811904Y-52190476D02*
X79011904Y-52190476D01*
X79011904Y-51885714D01*
X79050000Y-51809523D01*
X79088095Y-51771428D01*
X79164285Y-51733333D01*
X79278571Y-51733333D01*
X79354761Y-51771428D01*
X79392857Y-51809523D01*
X79430952Y-51885714D01*
X79430952Y-52190476D01*
X79354761Y-51276190D02*
X79316666Y-51352380D01*
X79278571Y-51390476D01*
X79202380Y-51428571D01*
X79164285Y-51428571D01*
X79088095Y-51390476D01*
X79050000Y-51352380D01*
X79011904Y-51276190D01*
X79011904Y-51123809D01*
X79050000Y-51047619D01*
X79088095Y-51009523D01*
X79164285Y-50971428D01*
X79202380Y-50971428D01*
X79278571Y-51009523D01*
X79316666Y-51047619D01*
X79354761Y-51123809D01*
X79354761Y-51276190D01*
X79392857Y-51352380D01*
X79430952Y-51390476D01*
X79507142Y-51428571D01*
X79659523Y-51428571D01*
X79735714Y-51390476D01*
X79773809Y-51352380D01*
X79811904Y-51276190D01*
X79811904Y-51123809D01*
X79773809Y-51047619D01*
X79735714Y-51009523D01*
X79659523Y-50971428D01*
X79507142Y-50971428D01*
X79430952Y-51009523D01*
X79392857Y-51047619D01*
X79354761Y-51123809D01*
X52466666Y-33111904D02*
X52200000Y-32730952D01*
X52009523Y-33111904D02*
X52009523Y-32311904D01*
X52314285Y-32311904D01*
X52390476Y-32350000D01*
X52428571Y-32388095D01*
X52466666Y-32464285D01*
X52466666Y-32578571D01*
X52428571Y-32654761D01*
X52390476Y-32692857D01*
X52314285Y-32730952D01*
X52009523Y-32730952D01*
X52733333Y-32311904D02*
X53266666Y-32311904D01*
X52923809Y-33111904D01*
X60111904Y-37633333D02*
X59730952Y-37900000D01*
X60111904Y-38090476D02*
X59311904Y-38090476D01*
X59311904Y-37785714D01*
X59350000Y-37709523D01*
X59388095Y-37671428D01*
X59464285Y-37633333D01*
X59578571Y-37633333D01*
X59654761Y-37671428D01*
X59692857Y-37709523D01*
X59730952Y-37785714D01*
X59730952Y-38090476D01*
X59311904Y-36947619D02*
X59311904Y-37100000D01*
X59350000Y-37176190D01*
X59388095Y-37214285D01*
X59502380Y-37290476D01*
X59654761Y-37328571D01*
X59959523Y-37328571D01*
X60035714Y-37290476D01*
X60073809Y-37252380D01*
X60111904Y-37176190D01*
X60111904Y-37023809D01*
X60073809Y-36947619D01*
X60035714Y-36909523D01*
X59959523Y-36871428D01*
X59769047Y-36871428D01*
X59692857Y-36909523D01*
X59654761Y-36947619D01*
X59616666Y-37023809D01*
X59616666Y-37176190D01*
X59654761Y-37252380D01*
X59692857Y-37290476D01*
X59769047Y-37328571D01*
X50111904Y-32883333D02*
X49730952Y-33150000D01*
X50111904Y-33340476D02*
X49311904Y-33340476D01*
X49311904Y-33035714D01*
X49350000Y-32959523D01*
X49388095Y-32921428D01*
X49464285Y-32883333D01*
X49578571Y-32883333D01*
X49654761Y-32921428D01*
X49692857Y-32959523D01*
X49730952Y-33035714D01*
X49730952Y-33340476D01*
X49311904Y-32159523D02*
X49311904Y-32540476D01*
X49692857Y-32578571D01*
X49654761Y-32540476D01*
X49616666Y-32464285D01*
X49616666Y-32273809D01*
X49654761Y-32197619D01*
X49692857Y-32159523D01*
X49769047Y-32121428D01*
X49959523Y-32121428D01*
X50035714Y-32159523D01*
X50073809Y-32197619D01*
X50111904Y-32273809D01*
X50111904Y-32464285D01*
X50073809Y-32540476D01*
X50035714Y-32578571D01*
X52466666Y-38111904D02*
X52200000Y-37730952D01*
X52009523Y-38111904D02*
X52009523Y-37311904D01*
X52314285Y-37311904D01*
X52390476Y-37350000D01*
X52428571Y-37388095D01*
X52466666Y-37464285D01*
X52466666Y-37578571D01*
X52428571Y-37654761D01*
X52390476Y-37692857D01*
X52314285Y-37730952D01*
X52009523Y-37730952D01*
X53152380Y-37578571D02*
X53152380Y-38111904D01*
X52961904Y-37273809D02*
X52771428Y-37845238D01*
X53266666Y-37845238D01*
X56729666Y-38361904D02*
X56463000Y-37980952D01*
X56272523Y-38361904D02*
X56272523Y-37561904D01*
X56577285Y-37561904D01*
X56653476Y-37600000D01*
X56691571Y-37638095D01*
X56729666Y-37714285D01*
X56729666Y-37828571D01*
X56691571Y-37904761D01*
X56653476Y-37942857D01*
X56577285Y-37980952D01*
X56272523Y-37980952D01*
X56996333Y-37561904D02*
X57491571Y-37561904D01*
X57224904Y-37866666D01*
X57339190Y-37866666D01*
X57415380Y-37904761D01*
X57453476Y-37942857D01*
X57491571Y-38019047D01*
X57491571Y-38209523D01*
X57453476Y-38285714D01*
X57415380Y-38323809D01*
X57339190Y-38361904D01*
X57110619Y-38361904D01*
X57034428Y-38323809D01*
X56996333Y-38285714D01*
X77361904Y-57883333D02*
X76980952Y-58150000D01*
X77361904Y-58340476D02*
X76561904Y-58340476D01*
X76561904Y-58035714D01*
X76600000Y-57959523D01*
X76638095Y-57921428D01*
X76714285Y-57883333D01*
X76828571Y-57883333D01*
X76904761Y-57921428D01*
X76942857Y-57959523D01*
X76980952Y-58035714D01*
X76980952Y-58340476D01*
X76638095Y-57578571D02*
X76600000Y-57540476D01*
X76561904Y-57464285D01*
X76561904Y-57273809D01*
X76600000Y-57197619D01*
X76638095Y-57159523D01*
X76714285Y-57121428D01*
X76790476Y-57121428D01*
X76904761Y-57159523D01*
X77361904Y-57616666D01*
X77361904Y-57121428D01*
X78860666Y-54464904D02*
X78594000Y-54083952D01*
X78403523Y-54464904D02*
X78403523Y-53664904D01*
X78708285Y-53664904D01*
X78784476Y-53703000D01*
X78822571Y-53741095D01*
X78860666Y-53817285D01*
X78860666Y-53931571D01*
X78822571Y-54007761D01*
X78784476Y-54045857D01*
X78708285Y-54083952D01*
X78403523Y-54083952D01*
X79622571Y-54464904D02*
X79165428Y-54464904D01*
X79394000Y-54464904D02*
X79394000Y-53664904D01*
X79317809Y-53779190D01*
X79241619Y-53855380D01*
X79165428Y-53893476D01*
X54438095Y-32326190D02*
X54400000Y-32402380D01*
X54323809Y-32478571D01*
X54209523Y-32592857D01*
X54171428Y-32669047D01*
X54171428Y-32745238D01*
X54361904Y-32707142D02*
X54323809Y-32783333D01*
X54247619Y-32859523D01*
X54095238Y-32897619D01*
X53828571Y-32897619D01*
X53676190Y-32859523D01*
X53600000Y-32783333D01*
X53561904Y-32707142D01*
X53561904Y-32554761D01*
X53600000Y-32478571D01*
X53676190Y-32402380D01*
X53828571Y-32364285D01*
X54095238Y-32364285D01*
X54247619Y-32402380D01*
X54323809Y-32478571D01*
X54361904Y-32554761D01*
X54361904Y-32707142D01*
X54361904Y-31602380D02*
X54361904Y-32059523D01*
X54361904Y-31830952D02*
X53561904Y-31830952D01*
X53676190Y-31907142D01*
X53752380Y-31983333D01*
X53790476Y-32059523D01*
X42116666Y-49611904D02*
X41735714Y-49611904D01*
X41735714Y-48811904D01*
X42802380Y-49611904D02*
X42345238Y-49611904D01*
X42573809Y-49611904D02*
X42573809Y-48811904D01*
X42497619Y-48926190D01*
X42421428Y-49002380D01*
X42345238Y-49040476D01*
X73533333Y-18445904D02*
X73533333Y-19017333D01*
X73495238Y-19131619D01*
X73419047Y-19207809D01*
X73304761Y-19245904D01*
X73228571Y-19245904D01*
X73838095Y-18445904D02*
X74333333Y-18445904D01*
X74066666Y-18750666D01*
X74180952Y-18750666D01*
X74257142Y-18788761D01*
X74295238Y-18826857D01*
X74333333Y-18903047D01*
X74333333Y-19093523D01*
X74295238Y-19169714D01*
X74257142Y-19207809D01*
X74180952Y-19245904D01*
X73952380Y-19245904D01*
X73876190Y-19207809D01*
X73838095Y-19169714D01*
X66192857Y-52666666D02*
X66192857Y-52933333D01*
X66611904Y-52933333D02*
X65811904Y-52933333D01*
X65811904Y-52552380D01*
X66192857Y-51980952D02*
X66230952Y-51866666D01*
X66269047Y-51828571D01*
X66345238Y-51790476D01*
X66459523Y-51790476D01*
X66535714Y-51828571D01*
X66573809Y-51866666D01*
X66611904Y-51942857D01*
X66611904Y-52247619D01*
X65811904Y-52247619D01*
X65811904Y-51980952D01*
X65850000Y-51904761D01*
X65888095Y-51866666D01*
X65964285Y-51828571D01*
X66040476Y-51828571D01*
X66116666Y-51866666D01*
X66154761Y-51904761D01*
X66192857Y-51980952D01*
X66192857Y-52247619D01*
X66611904Y-51028571D02*
X66611904Y-51485714D01*
X66611904Y-51257142D02*
X65811904Y-51257142D01*
X65926190Y-51333333D01*
X66002380Y-51409523D01*
X66040476Y-51485714D01*
X70442857Y-57016666D02*
X70442857Y-57283333D01*
X70861904Y-57283333D02*
X70061904Y-57283333D01*
X70061904Y-56902380D01*
X70861904Y-56178571D02*
X70861904Y-56635714D01*
X70861904Y-56407142D02*
X70061904Y-56407142D01*
X70176190Y-56483333D01*
X70252380Y-56559523D01*
X70290476Y-56635714D01*
X56009523Y-50981904D02*
X56009523Y-50181904D01*
X56200000Y-50181904D01*
X56314285Y-50220000D01*
X56390476Y-50296190D01*
X56428571Y-50372380D01*
X56466666Y-50524761D01*
X56466666Y-50639047D01*
X56428571Y-50791428D01*
X56390476Y-50867619D01*
X56314285Y-50943809D01*
X56200000Y-50981904D01*
X56009523Y-50981904D01*
X56733333Y-50181904D02*
X57228571Y-50181904D01*
X56961904Y-50486666D01*
X57076190Y-50486666D01*
X57152380Y-50524761D01*
X57190476Y-50562857D01*
X57228571Y-50639047D01*
X57228571Y-50829523D01*
X57190476Y-50905714D01*
X57152380Y-50943809D01*
X57076190Y-50981904D01*
X56847619Y-50981904D01*
X56771428Y-50943809D01*
X56733333Y-50905714D01*
X67148628Y-67013695D02*
X66348628Y-67013695D01*
X66348628Y-66823219D01*
X66386724Y-66708933D01*
X66462914Y-66632742D01*
X66539104Y-66594647D01*
X66691485Y-66556552D01*
X66805771Y-66556552D01*
X66958152Y-66594647D01*
X67034343Y-66632742D01*
X67110533Y-66708933D01*
X67148628Y-66823219D01*
X67148628Y-67013695D01*
X67148628Y-65794647D02*
X67148628Y-66251790D01*
X67148628Y-66023219D02*
X66348628Y-66023219D01*
X66462914Y-66099409D01*
X66539104Y-66175599D01*
X66577200Y-66251790D01*
X22985714Y-44535714D02*
X22947619Y-44573809D01*
X22833333Y-44611904D01*
X22757142Y-44611904D01*
X22642857Y-44573809D01*
X22566666Y-44497619D01*
X22528571Y-44421428D01*
X22490476Y-44269047D01*
X22490476Y-44154761D01*
X22528571Y-44002380D01*
X22566666Y-43926190D01*
X22642857Y-43850000D01*
X22757142Y-43811904D01*
X22833333Y-43811904D01*
X22947619Y-43850000D01*
X22985714Y-43888095D01*
X23747619Y-44611904D02*
X23290476Y-44611904D01*
X23519047Y-44611904D02*
X23519047Y-43811904D01*
X23442857Y-43926190D01*
X23366666Y-44002380D01*
X23290476Y-44040476D01*
X24509523Y-44611904D02*
X24052380Y-44611904D01*
X24280952Y-44611904D02*
X24280952Y-43811904D01*
X24204761Y-43926190D01*
X24128571Y-44002380D01*
X24052380Y-44040476D01*
X29081428Y-54460952D02*
X29081428Y-53699047D01*
X29462380Y-54080000D02*
X28700476Y-54080000D01*
X57785714Y-65514285D02*
X57823809Y-65552380D01*
X57861904Y-65666666D01*
X57861904Y-65742857D01*
X57823809Y-65857142D01*
X57747619Y-65933333D01*
X57671428Y-65971428D01*
X57519047Y-66009523D01*
X57404761Y-66009523D01*
X57252380Y-65971428D01*
X57176190Y-65933333D01*
X57100000Y-65857142D01*
X57061904Y-65742857D01*
X57061904Y-65666666D01*
X57100000Y-65552380D01*
X57138095Y-65514285D01*
X57861904Y-64752380D02*
X57861904Y-65209523D01*
X57861904Y-64980952D02*
X57061904Y-64980952D01*
X57176190Y-65057142D01*
X57252380Y-65133333D01*
X57290476Y-65209523D01*
X57061904Y-64257142D02*
X57061904Y-64180952D01*
X57100000Y-64104761D01*
X57138095Y-64066666D01*
X57214285Y-64028571D01*
X57366666Y-63990476D01*
X57557142Y-63990476D01*
X57709523Y-64028571D01*
X57785714Y-64066666D01*
X57823809Y-64104761D01*
X57861904Y-64180952D01*
X57861904Y-64257142D01*
X57823809Y-64333333D01*
X57785714Y-64371428D01*
X57709523Y-64409523D01*
X57557142Y-64447619D01*
X57366666Y-64447619D01*
X57214285Y-64409523D01*
X57138095Y-64371428D01*
X57100000Y-64333333D01*
X57061904Y-64257142D01*
X60750000Y-53866666D02*
X60783333Y-53900000D01*
X60816666Y-54000000D01*
X60816666Y-54066666D01*
X60783333Y-54166666D01*
X60716666Y-54233333D01*
X60650000Y-54266666D01*
X60516666Y-54300000D01*
X60416666Y-54300000D01*
X60283333Y-54266666D01*
X60216666Y-54233333D01*
X60150000Y-54166666D01*
X60116666Y-54066666D01*
X60116666Y-54000000D01*
X60150000Y-53900000D01*
X60183333Y-53866666D01*
X60816666Y-53533333D02*
X60816666Y-53400000D01*
X60783333Y-53333333D01*
X60750000Y-53300000D01*
X60650000Y-53233333D01*
X60516666Y-53200000D01*
X60250000Y-53200000D01*
X60183333Y-53233333D01*
X60150000Y-53266666D01*
X60116666Y-53333333D01*
X60116666Y-53466666D01*
X60150000Y-53533333D01*
X60183333Y-53566666D01*
X60250000Y-53600000D01*
X60416666Y-53600000D01*
X60483333Y-53566666D01*
X60516666Y-53533333D01*
X60550000Y-53466666D01*
X60550000Y-53333333D01*
X60516666Y-53266666D01*
X60483333Y-53233333D01*
X60416666Y-53200000D01*
X45535714Y-57506333D02*
X45573809Y-57544428D01*
X45611904Y-57658714D01*
X45611904Y-57734904D01*
X45573809Y-57849190D01*
X45497619Y-57925380D01*
X45421428Y-57963476D01*
X45269047Y-58001571D01*
X45154761Y-58001571D01*
X45002380Y-57963476D01*
X44926190Y-57925380D01*
X44850000Y-57849190D01*
X44811904Y-57734904D01*
X44811904Y-57658714D01*
X44850000Y-57544428D01*
X44888095Y-57506333D01*
X45154761Y-57049190D02*
X45116666Y-57125380D01*
X45078571Y-57163476D01*
X45002380Y-57201571D01*
X44964285Y-57201571D01*
X44888095Y-57163476D01*
X44850000Y-57125380D01*
X44811904Y-57049190D01*
X44811904Y-56896809D01*
X44850000Y-56820619D01*
X44888095Y-56782523D01*
X44964285Y-56744428D01*
X45002380Y-56744428D01*
X45078571Y-56782523D01*
X45116666Y-56820619D01*
X45154761Y-56896809D01*
X45154761Y-57049190D01*
X45192857Y-57125380D01*
X45230952Y-57163476D01*
X45307142Y-57201571D01*
X45459523Y-57201571D01*
X45535714Y-57163476D01*
X45573809Y-57125380D01*
X45611904Y-57049190D01*
X45611904Y-56896809D01*
X45573809Y-56820619D01*
X45535714Y-56782523D01*
X45459523Y-56744428D01*
X45307142Y-56744428D01*
X45230952Y-56782523D01*
X45192857Y-56820619D01*
X45154761Y-56896809D01*
X48535714Y-57506333D02*
X48573809Y-57544428D01*
X48611904Y-57658714D01*
X48611904Y-57734904D01*
X48573809Y-57849190D01*
X48497619Y-57925380D01*
X48421428Y-57963476D01*
X48269047Y-58001571D01*
X48154761Y-58001571D01*
X48002380Y-57963476D01*
X47926190Y-57925380D01*
X47850000Y-57849190D01*
X47811904Y-57734904D01*
X47811904Y-57658714D01*
X47850000Y-57544428D01*
X47888095Y-57506333D01*
X47811904Y-57239666D02*
X47811904Y-56706333D01*
X48611904Y-57049190D01*
X67035714Y-50133333D02*
X67073809Y-50171428D01*
X67111904Y-50285714D01*
X67111904Y-50361904D01*
X67073809Y-50476190D01*
X66997619Y-50552380D01*
X66921428Y-50590476D01*
X66769047Y-50628571D01*
X66654761Y-50628571D01*
X66502380Y-50590476D01*
X66426190Y-50552380D01*
X66350000Y-50476190D01*
X66311904Y-50361904D01*
X66311904Y-50285714D01*
X66350000Y-50171428D01*
X66388095Y-50133333D01*
X66311904Y-49447619D02*
X66311904Y-49600000D01*
X66350000Y-49676190D01*
X66388095Y-49714285D01*
X66502380Y-49790476D01*
X66654761Y-49828571D01*
X66959523Y-49828571D01*
X67035714Y-49790476D01*
X67073809Y-49752380D01*
X67111904Y-49676190D01*
X67111904Y-49523809D01*
X67073809Y-49447619D01*
X67035714Y-49409523D01*
X66959523Y-49371428D01*
X66769047Y-49371428D01*
X66692857Y-49409523D01*
X66654761Y-49447619D01*
X66616666Y-49523809D01*
X66616666Y-49676190D01*
X66654761Y-49752380D01*
X66692857Y-49790476D01*
X66769047Y-49828571D01*
X65535714Y-63633333D02*
X65573809Y-63671428D01*
X65611904Y-63785714D01*
X65611904Y-63861904D01*
X65573809Y-63976190D01*
X65497619Y-64052380D01*
X65421428Y-64090476D01*
X65269047Y-64128571D01*
X65154761Y-64128571D01*
X65002380Y-64090476D01*
X64926190Y-64052380D01*
X64850000Y-63976190D01*
X64811904Y-63861904D01*
X64811904Y-63785714D01*
X64850000Y-63671428D01*
X64888095Y-63633333D01*
X64811904Y-62909523D02*
X64811904Y-63290476D01*
X65192857Y-63328571D01*
X65154761Y-63290476D01*
X65116666Y-63214285D01*
X65116666Y-63023809D01*
X65154761Y-62947619D01*
X65192857Y-62909523D01*
X65269047Y-62871428D01*
X65459523Y-62871428D01*
X65535714Y-62909523D01*
X65573809Y-62947619D01*
X65611904Y-63023809D01*
X65611904Y-63214285D01*
X65573809Y-63290476D01*
X65535714Y-63328571D01*
X62285714Y-63633333D02*
X62323809Y-63671428D01*
X62361904Y-63785714D01*
X62361904Y-63861904D01*
X62323809Y-63976190D01*
X62247619Y-64052380D01*
X62171428Y-64090476D01*
X62019047Y-64128571D01*
X61904761Y-64128571D01*
X61752380Y-64090476D01*
X61676190Y-64052380D01*
X61600000Y-63976190D01*
X61561904Y-63861904D01*
X61561904Y-63785714D01*
X61600000Y-63671428D01*
X61638095Y-63633333D01*
X61828571Y-62947619D02*
X62361904Y-62947619D01*
X61523809Y-63138095D02*
X62095238Y-63328571D01*
X62095238Y-62833333D01*
X59535714Y-63633333D02*
X59573809Y-63671428D01*
X59611904Y-63785714D01*
X59611904Y-63861904D01*
X59573809Y-63976190D01*
X59497619Y-64052380D01*
X59421428Y-64090476D01*
X59269047Y-64128571D01*
X59154761Y-64128571D01*
X59002380Y-64090476D01*
X58926190Y-64052380D01*
X58850000Y-63976190D01*
X58811904Y-63861904D01*
X58811904Y-63785714D01*
X58850000Y-63671428D01*
X58888095Y-63633333D01*
X58811904Y-63366666D02*
X58811904Y-62871428D01*
X59116666Y-63138095D01*
X59116666Y-63023809D01*
X59154761Y-62947619D01*
X59192857Y-62909523D01*
X59269047Y-62871428D01*
X59459523Y-62871428D01*
X59535714Y-62909523D01*
X59573809Y-62947619D01*
X59611904Y-63023809D01*
X59611904Y-63252380D01*
X59573809Y-63328571D01*
X59535714Y-63366666D01*
X74211666Y-56059714D02*
X74173571Y-56097809D01*
X74059285Y-56135904D01*
X73983095Y-56135904D01*
X73868809Y-56097809D01*
X73792619Y-56021619D01*
X73754523Y-55945428D01*
X73716428Y-55793047D01*
X73716428Y-55678761D01*
X73754523Y-55526380D01*
X73792619Y-55450190D01*
X73868809Y-55374000D01*
X73983095Y-55335904D01*
X74059285Y-55335904D01*
X74173571Y-55374000D01*
X74211666Y-55412095D01*
X74516428Y-55412095D02*
X74554523Y-55374000D01*
X74630714Y-55335904D01*
X74821190Y-55335904D01*
X74897380Y-55374000D01*
X74935476Y-55412095D01*
X74973571Y-55488285D01*
X74973571Y-55564476D01*
X74935476Y-55678761D01*
X74478333Y-56135904D01*
X74973571Y-56135904D01*
X63585714Y-35133333D02*
X63623809Y-35171428D01*
X63661904Y-35285714D01*
X63661904Y-35361904D01*
X63623809Y-35476190D01*
X63547619Y-35552380D01*
X63471428Y-35590476D01*
X63319047Y-35628571D01*
X63204761Y-35628571D01*
X63052380Y-35590476D01*
X62976190Y-35552380D01*
X62900000Y-35476190D01*
X62861904Y-35361904D01*
X62861904Y-35285714D01*
X62900000Y-35171428D01*
X62938095Y-35133333D01*
X63661904Y-34371428D02*
X63661904Y-34828571D01*
X63661904Y-34600000D02*
X62861904Y-34600000D01*
X62976190Y-34676190D01*
X63052380Y-34752380D01*
X63090476Y-34828571D01*
M02*
