M48
; DRILL file {KiCad (5.1.4)-1} date 2020/2/28 22:37:56
; FORMAT={-:-/ absolute / metric / decimal}
; #@! TF.CreationDate,2020-02-28T22:37:56+08:00
; #@! TF.GenerationSoftware,Kicad,Pcbnew,(5.1.4)-1
; #@! TF.FileFunction,Plated,1,2,PTH
FMAT,2
METRIC
T1C0.400
T2C1.000
T3C1.200
T4C3.500
%
G90
G05
T1
X51.26Y-60.277
X52.324Y-55.88
X55.626Y-50.927
X56.625Y-35.48
X57.15Y-63.246
X58.039Y-32.131
X59.817Y-32.893
X62.992Y-34.036
X65.626Y-31.623
X67.797Y-53.211
X70.062Y-54.118
X70.866Y-53.086
X71.596Y-49.152
X72.263Y-57.271
X73.075Y-51.396
X74.041Y-52.324
X75.819Y-55.372
X78.74Y-59.055
X34.343Y-45.062
X34.343Y-47.438
X36.4Y-43.875
X36.4Y-48.625
X38.457Y-45.062
X38.457Y-47.438
X81.343Y-49.062
X81.343Y-51.438
X83.4Y-47.875
X83.4Y-52.625
X85.457Y-49.062
X85.457Y-51.438
T2
X84.8Y-57.25
X84.8Y-59.75
X84.8Y-62.25
X84.8Y-64.75
T3
X23.6Y-58.25
X23.6Y-63.25
T4
X36.4Y-46.25
X83.4Y-50.25
T0
M30
