%TF.GenerationSoftware,KiCad,Pcbnew,(5.1.4)-1*%
%TF.CreationDate,2020-02-28T22:37:56+08:00*%
%TF.ProjectId,power,706f7765-722e-46b6-9963-61645f706362,rev?*%
%TF.SameCoordinates,Original*%
%TF.FileFunction,Paste,Top*%
%TF.FilePolarity,Positive*%
%FSLAX46Y46*%
G04 Gerber Fmt 4.6, Leading zero omitted, Abs format (unit mm)*
G04 Created by KiCad (PCBNEW (5.1.4)-1) date 2020-02-28 22:37:56*
%MOMM*%
%LPD*%
G04 APERTURE LIST*
%ADD10R,1.000000X1.250000*%
%ADD11R,2.794000X3.810000*%
%ADD12R,1.650000X2.380000*%
%ADD13R,1.450000X0.300000*%
%ADD14O,1.800000X0.700000*%
%ADD15O,1.900000X0.700000*%
%ADD16O,3.500000X2.000000*%
%ADD17O,2.100000X0.700000*%
%ADD18R,1.300000X0.700000*%
%ADD19R,0.700000X1.300000*%
%ADD20R,6.000000X8.750000*%
%ADD21R,2.500000X10.000000*%
%ADD22R,1.600000X10.000000*%
%ADD23R,1.250000X0.700000*%
%ADD24R,5.400000X3.900000*%
%ADD25R,1.700000X0.900000*%
%ADD26R,1.200000X1.200000*%
%ADD27R,2.743000X2.159000*%
%ADD28R,1.600000X3.500000*%
%ADD29R,1.250000X1.000000*%
%ADD30R,2.500000X1.000000*%
%ADD31R,1.600000X1.000000*%
G04 APERTURE END LIST*
D10*
X75345000Y-64803000D03*
X73345000Y-64803000D03*
D11*
X46631500Y-63000000D03*
X53768500Y-63000000D03*
D12*
X54800000Y-57500001D03*
D13*
X52600000Y-58500001D03*
X52600000Y-58000001D03*
X52600000Y-57500001D03*
X52600000Y-57000001D03*
X57000000Y-56500001D03*
X57000000Y-57000001D03*
X57000000Y-57500001D03*
X57000000Y-58000001D03*
X52600000Y-56500001D03*
X57000000Y-58500001D03*
D14*
X75600000Y-47895000D03*
X75600000Y-49165000D03*
X75600000Y-50435000D03*
X75600000Y-51705000D03*
X70400000Y-51705000D03*
X70400000Y-50435000D03*
X70400000Y-49165000D03*
X70400000Y-47895000D03*
D15*
X73545000Y-62574000D03*
D16*
X76045000Y-61074000D03*
D17*
X73645000Y-61074000D03*
D15*
X73545000Y-59574000D03*
D18*
X52324000Y-54671000D03*
X52324000Y-52771000D03*
D19*
X51000000Y-51250000D03*
X49100000Y-51250000D03*
X47500000Y-51250000D03*
X45600000Y-51250000D03*
X61350000Y-52070000D03*
X59450000Y-52070000D03*
X57850000Y-50200000D03*
X59750000Y-50200000D03*
X55350000Y-54500000D03*
X57250000Y-54500000D03*
X47437000Y-53975000D03*
X49337000Y-53975000D03*
D20*
X61400000Y-43250000D03*
X49800000Y-43250000D03*
D19*
X62804000Y-51054000D03*
X64704000Y-51054000D03*
D18*
X61550000Y-54800000D03*
X61550000Y-56700000D03*
X63800000Y-54800000D03*
X63800000Y-56700000D03*
D19*
X74150000Y-53600000D03*
X72250000Y-53600000D03*
D18*
X77800000Y-52550000D03*
X77800000Y-50650000D03*
D19*
X53550000Y-36200000D03*
X51650000Y-36200000D03*
D18*
X59800000Y-35950000D03*
X59800000Y-34050000D03*
X49800000Y-36150000D03*
X49800000Y-34250000D03*
D19*
X51650000Y-34200000D03*
X53550000Y-34200000D03*
X55913000Y-36528000D03*
X57813000Y-36528000D03*
X78044000Y-57658000D03*
X79944000Y-57658000D03*
X79944000Y-55753000D03*
X78044000Y-55753000D03*
D21*
X57050000Y-26000000D03*
D22*
X54000000Y-26000000D03*
D21*
X50950000Y-26000000D03*
D23*
X55350000Y-33800000D03*
X57850000Y-32850000D03*
X57850000Y-34750000D03*
D24*
X37084000Y-63912000D03*
X37084000Y-51912000D03*
D25*
X66050000Y-56700000D03*
X66050000Y-53800000D03*
X68801000Y-53874000D03*
X68801000Y-56774000D03*
D26*
X55500000Y-52070000D03*
X57700000Y-52070000D03*
D27*
X69563000Y-65408000D03*
X69563000Y-60988000D03*
D28*
X26000000Y-47100000D03*
X26000000Y-52500000D03*
D29*
X57404000Y-60230000D03*
X57404000Y-62230000D03*
X59300001Y-54500000D03*
X59300001Y-56500000D03*
X46800001Y-58373000D03*
X46800001Y-56373000D03*
X49784000Y-58373000D03*
X49784000Y-56373000D03*
X68200000Y-51219000D03*
X68200000Y-49219000D03*
D30*
X65300000Y-61754000D03*
X65300000Y-58754000D03*
X62050000Y-61754000D03*
X62050000Y-58754000D03*
D31*
X59300001Y-61754000D03*
X59300001Y-58754000D03*
D10*
X75345000Y-57274000D03*
X73345000Y-57274000D03*
D29*
X61800000Y-36000000D03*
X61800000Y-34000000D03*
M02*
