M48
; DRILL file {KiCad (5.1.4)-1} date 2020/11/11 0:06:55
; FORMAT={-:-/ absolute / metric / decimal}
; #@! TF.CreationDate,2020-11-11T00:06:55+08:00
; #@! TF.GenerationSoftware,Kicad,Pcbnew,(5.1.4)-1
; #@! TF.FileFunction,Plated,1,2,PTH
FMAT,2
METRIC
T1C0.400
T2C1.000
T3C3.500
%
G90
G05
T1
X51.4Y-71.85
X51.4Y-77.85
X51.4Y-80.39
X51.4Y-82.93
X51.4Y-85.47
X51.4Y-88.01
X51.4Y-90.55
X51.4Y-93.09
X51.4Y-95.63
X51.4Y-98.17
X51.4Y-100.65
X51.4Y-103.25
X51.4Y-108.33
X51.4Y-110.87
X51.4Y-113.41
X51.4Y-115.95
X53.5Y-101.75
X53.94Y-115.95
X54.25Y-107.0
X54.75Y-96.75
X55.0Y-94.25
X55.0Y-99.25
X55.877Y-100.811
X55.98Y-103.319
X56.48Y-115.95
X57.143Y-100.733
X58.029Y-102.688
X59.02Y-115.95
X59.25Y-77.0
X60.25Y-77.0
X60.43Y-107.069
X61.0Y-96.5
X61.25Y-77.0
X61.56Y-115.95
X62.5Y-111.5
X63.5Y-54.25
X63.5Y-69.25
X63.5Y-74.25
X63.5Y-91.75
X64.1Y-115.95
X64.43Y-104.769
X65.25Y-98.5
X66.0Y-54.25
X66.0Y-69.25
X66.0Y-74.25
X66.0Y-91.75
X66.64Y-115.95
X67.7Y-100.3
X68.5Y-54.25
X68.5Y-69.25
X68.5Y-74.25
X68.5Y-91.75
X69.0Y-109.5
X69.18Y-115.95
X71.0Y-54.25
X71.0Y-69.25
X71.0Y-74.25
X71.0Y-91.75
X71.72Y-115.95
X72.219Y-98.969
X73.5Y-51.75
X73.5Y-69.25
X73.5Y-74.25
X74.26Y-115.95
X75.0Y-96.5
X76.0Y-51.75
X76.0Y-69.25
X76.0Y-74.25
X76.3Y-104.35
X76.8Y-115.95
X76.95Y-104.35
X78.5Y-51.75
X78.5Y-69.25
X78.5Y-74.25
X79.34Y-115.95
X81.0Y-51.75
X81.0Y-69.25
X81.0Y-74.25
X81.88Y-115.95
X83.5Y-51.75
X83.5Y-69.25
X83.5Y-74.25
X84.42Y-115.95
X85.25Y-103.0
X85.5Y-98.25
X86.0Y-51.75
X86.0Y-69.25
X86.0Y-74.25
X86.96Y-115.95
X88.5Y-54.25
X88.5Y-66.75
X88.5Y-74.25
X88.5Y-91.75
X89.5Y-115.95
X90.2Y-96.05
X91.0Y-54.25
X91.0Y-66.75
X91.0Y-74.25
X91.0Y-91.75
X92.04Y-115.95
X92.4Y-106.05
X92.8Y-111.05
X93.5Y-54.25
X93.5Y-66.75
X93.5Y-74.25
X93.5Y-91.75
X94.2Y-97.05
X94.58Y-115.95
X95.4Y-99.25
X96.0Y-54.25
X96.0Y-66.75
X96.0Y-74.25
X96.0Y-91.75
X97.12Y-115.95
X98.5Y-74.25
X98.5Y-91.75
X99.66Y-115.95
X99.849Y-103.317
X100.8Y-97.65
X101.775Y-102.669
X102.2Y-115.95
X102.8Y-89.65
X104.4Y-98.25
X104.4Y-108.25
X104.74Y-115.95
X107.28Y-115.95
X107.6Y-102.65
X108.5Y-71.75
X108.5Y-79.37
X108.5Y-81.91
X108.5Y-84.45
X108.5Y-86.99
X108.5Y-89.53
X108.5Y-92.07
X108.5Y-94.61
X108.5Y-97.15
X108.5Y-105.45
X108.5Y-107.31
X108.5Y-109.85
X108.5Y-112.39
X108.5Y-114.93
X102.701Y-110.999
X102.701Y-113.374
X104.758Y-109.812
X104.758Y-114.562
X106.815Y-110.999
X106.815Y-113.374
X52.943Y-73.812
X52.943Y-76.188
X55.0Y-72.625
X55.0Y-77.375
X57.057Y-73.812
X57.057Y-76.188
X102.943Y-73.812
X102.943Y-76.188
X105.0Y-72.625
X105.0Y-77.375
X107.057Y-73.812
X107.057Y-76.188
X98.56Y-52.703
X98.56Y-54.481
X98.56Y-56.259
X98.56Y-63.879
X98.56Y-65.657
X98.56Y-67.435
X100.56Y-52.703
X100.56Y-54.481
X100.56Y-56.259
X100.56Y-63.879
X100.56Y-65.657
X100.56Y-67.435
X102.56Y-52.703
X102.56Y-54.481
X102.56Y-56.259
X102.56Y-63.879
X102.56Y-65.657
X102.56Y-67.435
X104.56Y-52.703
X104.56Y-54.481
X104.56Y-56.259
X104.56Y-63.879
X104.56Y-65.657
X104.56Y-67.435
X106.56Y-52.703
X106.56Y-54.481
X106.56Y-56.259
X106.56Y-63.879
X106.56Y-65.657
X106.56Y-67.435
X108.56Y-52.703
X108.56Y-54.481
X108.56Y-56.259
X108.56Y-63.879
X108.56Y-65.657
X108.56Y-67.435
X51.013Y-52.779
X51.013Y-54.557
X51.013Y-56.335
X51.013Y-63.955
X51.013Y-65.733
X51.013Y-67.511
X53.013Y-52.779
X53.013Y-54.557
X53.013Y-56.335
X53.013Y-63.955
X53.013Y-65.733
X53.013Y-67.511
X55.013Y-52.779
X55.013Y-54.557
X55.013Y-56.335
X55.013Y-63.955
X55.013Y-65.733
X55.013Y-67.511
X57.013Y-52.779
X57.013Y-54.557
X57.013Y-56.335
X57.013Y-63.955
X57.013Y-65.733
X57.013Y-67.511
X59.013Y-52.779
X59.013Y-54.557
X59.013Y-56.335
X59.013Y-63.955
X59.013Y-65.733
X59.013Y-67.511
X61.013Y-52.779
X61.013Y-54.557
X61.013Y-56.335
X61.013Y-63.955
X61.013Y-65.733
X61.013Y-67.511
X52.943Y-111.312
X52.943Y-113.688
X55.0Y-110.125
X55.0Y-114.875
X57.057Y-111.312
X57.057Y-113.688
T2
X73.73Y-108.069
X76.23Y-108.069
X78.73Y-108.069
X81.23Y-108.069
X83.73Y-108.069
X86.23Y-108.069
T3
X55.0Y-75.0
X105.0Y-75.0
X55.0Y-112.5
X104.758Y-112.187
T0
M30
