%TF.GenerationSoftware,KiCad,Pcbnew,(5.1.4)-1*%
%TF.CreationDate,2020-11-11T00:06:55+08:00*%
%TF.ProjectId,Directional_coupler,44697265-6374-4696-9f6e-616c5f636f75,rev?*%
%TF.SameCoordinates,Original*%
%TF.FileFunction,Copper,L1,Top*%
%TF.FilePolarity,Positive*%
%FSLAX46Y46*%
G04 Gerber Fmt 4.6, Leading zero omitted, Abs format (unit mm)*
G04 Created by KiCad (PCBNEW (5.1.4)-1) date 2020-11-11 00:06:55*
%MOMM*%
%LPD*%
G04 APERTURE LIST*
%ADD10C,0.100000*%
%ADD11R,1.160000X1.470000*%
%ADD12R,1.800000X1.130000*%
%ADD13R,1.250000X1.000000*%
%ADD14O,1.800000X0.700000*%
%ADD15R,0.600000X1.100000*%
%ADD16O,1.900000X0.700000*%
%ADD17O,3.500000X2.000000*%
%ADD18O,2.100000X0.700000*%
%ADD19O,0.700000X1.800000*%
%ADD20R,1.130000X1.800000*%
%ADD21R,3.200000X1.000000*%
%ADD22R,0.700000X1.300000*%
%ADD23R,1.470000X1.160000*%
%ADD24C,0.800000*%
%ADD25R,12.000000X5.000000*%
%ADD26R,8.000000X2.500000*%
%ADD27C,1.750000*%
%ADD28R,1.750000X1.750000*%
%ADD29R,1.000000X1.250000*%
%ADD30R,1.250000X0.700000*%
%ADD31R,0.700000X1.250000*%
%ADD32C,6.000000*%
%ADD33R,1.300000X0.700000*%
%ADD34C,0.508000*%
%ADD35C,0.381000*%
%ADD36C,2.540000*%
%ADD37C,0.254000*%
%ADD38C,0.350000*%
G04 APERTURE END LIST*
D10*
G36*
X72263000Y-55372000D02*
G01*
X61849000Y-55372000D01*
X61849000Y-51689000D01*
X72263000Y-51689000D01*
X72263000Y-55372000D01*
G37*
X72263000Y-55372000D02*
X61849000Y-55372000D01*
X61849000Y-51689000D01*
X72263000Y-51689000D01*
X72263000Y-55372000D01*
G36*
X109474000Y-52324000D02*
G01*
X50292000Y-52324000D01*
X50292000Y-50165000D01*
X109474000Y-50165000D01*
X109474000Y-52324000D01*
G37*
X109474000Y-52324000D02*
X50292000Y-52324000D01*
X50292000Y-50165000D01*
X109474000Y-50165000D01*
X109474000Y-52324000D01*
G36*
X97663000Y-55372000D02*
G01*
X86995000Y-55372000D01*
X86995000Y-51689000D01*
X97663000Y-51689000D01*
X97663000Y-55372000D01*
G37*
X97663000Y-55372000D02*
X86995000Y-55372000D01*
X86995000Y-51689000D01*
X97663000Y-51689000D01*
X97663000Y-55372000D01*
G36*
X69800000Y-63200000D02*
G01*
X63832000Y-63200000D01*
X63832000Y-57200000D01*
X69800000Y-57200000D01*
X69800000Y-63200000D01*
G37*
X69800000Y-63200000D02*
X63832000Y-63200000D01*
X63832000Y-57200000D01*
X69800000Y-57200000D01*
X69800000Y-63200000D01*
G36*
X95768000Y-63200000D02*
G01*
X89800000Y-63200000D01*
X89800000Y-57200000D01*
X95768000Y-57200000D01*
X95768000Y-63200000D01*
G37*
X95768000Y-63200000D02*
X89800000Y-63200000D01*
X89800000Y-57200000D01*
X95768000Y-57200000D01*
X95768000Y-63200000D01*
D11*
X90510000Y-101750000D03*
X92290000Y-101750000D03*
D12*
X66750000Y-62760000D03*
X66750000Y-65740000D03*
D13*
X79455000Y-103169000D03*
X76505000Y-103169000D03*
D14*
X99400000Y-107095000D03*
X99400000Y-108365000D03*
X99400000Y-109635000D03*
X99400000Y-110905000D03*
X94200000Y-110905000D03*
X94200000Y-109635000D03*
X94200000Y-108365000D03*
X94200000Y-107095000D03*
D15*
X100800000Y-98850000D03*
X102700000Y-98850000D03*
X102700000Y-101650000D03*
X101750000Y-101650000D03*
X100800000Y-101650000D03*
D16*
X77930000Y-100469000D03*
D17*
X80430000Y-98969000D03*
D18*
X78030000Y-98969000D03*
D16*
X77930000Y-97469000D03*
D15*
X56930000Y-104719000D03*
X55030000Y-104719000D03*
X55030000Y-101919000D03*
X55980000Y-101919000D03*
X56930000Y-101919000D03*
D19*
X65275000Y-103019000D03*
X66545000Y-103019000D03*
X67815000Y-103019000D03*
X69085000Y-103019000D03*
X69085000Y-108219000D03*
X67815000Y-108219000D03*
X66545000Y-108219000D03*
X65275000Y-108219000D03*
D11*
X95620000Y-113450000D03*
X97400000Y-113450000D03*
X92510000Y-104500000D03*
X94290000Y-104500000D03*
D12*
X99750000Y-81240000D03*
X99750000Y-78260000D03*
D20*
X97010000Y-84250000D03*
X99990000Y-84250000D03*
D21*
X93000000Y-76400000D03*
X93000000Y-82600000D03*
X66980000Y-76469000D03*
X66980000Y-82669000D03*
D20*
X59740000Y-84319000D03*
X62720000Y-84319000D03*
D12*
X60230000Y-81559000D03*
X60230000Y-78579000D03*
D22*
X57930000Y-99319000D03*
X56030000Y-99319000D03*
D23*
X61980000Y-103929000D03*
X61980000Y-105709000D03*
X67930000Y-110979000D03*
X67930000Y-112759000D03*
D11*
X71640000Y-103269000D03*
X73420000Y-103269000D03*
D23*
X101000000Y-95890000D03*
X101000000Y-94110000D03*
D11*
X61840000Y-99569000D03*
X63620000Y-99569000D03*
D24*
X102560000Y-52703000D03*
X100560000Y-52703000D03*
X98560000Y-54481000D03*
X100560000Y-54481000D03*
X104560000Y-56259000D03*
X102560000Y-54481000D03*
X108560000Y-52703000D03*
X98560000Y-52703000D03*
X108560000Y-56259000D03*
X106560000Y-56259000D03*
X100560000Y-56259000D03*
X108560000Y-54481000D03*
X106560000Y-54481000D03*
X102560000Y-56259000D03*
X104560000Y-52703000D03*
X106560000Y-52703000D03*
X98560000Y-56259000D03*
X104560000Y-54481000D03*
X106560000Y-65657000D03*
X104560000Y-65657000D03*
X100560000Y-65657000D03*
X98560000Y-65657000D03*
X108560000Y-65657000D03*
X102560000Y-65657000D03*
X106560000Y-63879000D03*
X104560000Y-63879000D03*
X100560000Y-63879000D03*
X98560000Y-63879000D03*
X108560000Y-63879000D03*
X102560000Y-63879000D03*
X98560000Y-67435000D03*
X100560000Y-67435000D03*
X102560000Y-67435000D03*
X104560000Y-67435000D03*
X106560000Y-67435000D03*
X108560000Y-67435000D03*
D25*
X103480000Y-54469000D03*
X103480000Y-65669000D03*
D26*
X101480000Y-60069000D03*
D27*
X86230000Y-108069000D03*
X83730000Y-108069000D03*
X81230000Y-108069000D03*
X78730000Y-108069000D03*
X76230000Y-108069000D03*
D28*
X73730000Y-108069000D03*
D13*
X95025000Y-101750000D03*
X97975000Y-101750000D03*
X102525000Y-104000000D03*
X105475000Y-104000000D03*
D29*
X105250000Y-98525000D03*
X105250000Y-101475000D03*
D30*
X106450000Y-90650000D03*
X103950000Y-91600000D03*
X103950000Y-89700000D03*
D31*
X56980000Y-91819000D03*
X57930000Y-94319000D03*
X56030000Y-94319000D03*
D11*
X102610000Y-107050000D03*
X104390000Y-107050000D03*
D23*
X90250000Y-97110000D03*
X90250000Y-98890000D03*
D11*
X98390000Y-99250000D03*
X96610000Y-99250000D03*
D23*
X98000000Y-94110000D03*
X98000000Y-95890000D03*
D11*
X103860000Y-93750000D03*
X105640000Y-93750000D03*
D23*
X100000000Y-87610000D03*
X100000000Y-89390000D03*
X75150000Y-97460000D03*
X75150000Y-99240000D03*
X84250000Y-98160000D03*
X84250000Y-99940000D03*
D11*
X82270000Y-103150000D03*
X84050000Y-103150000D03*
D23*
X59730000Y-89459000D03*
X59730000Y-87679000D03*
D11*
X57870000Y-96819000D03*
X56090000Y-96819000D03*
X63620000Y-96569000D03*
X61840000Y-96569000D03*
X56870000Y-107069000D03*
X55090000Y-107069000D03*
D23*
X62530000Y-110659000D03*
X62530000Y-108879000D03*
X66330000Y-100259000D03*
X66330000Y-98479000D03*
D29*
X52480000Y-101844000D03*
X52480000Y-104794000D03*
D24*
X57056810Y-73812500D03*
X57056810Y-76187500D03*
X55000000Y-77375000D03*
X52943190Y-76187500D03*
X52943190Y-73812500D03*
X55000000Y-72625000D03*
D32*
X55000000Y-75000000D03*
D24*
X57056810Y-111312500D03*
X57056810Y-113687500D03*
X55000000Y-114875000D03*
X52943190Y-113687500D03*
X52943190Y-111312500D03*
X55000000Y-110125000D03*
D32*
X55000000Y-112500000D03*
D24*
X106814810Y-110999500D03*
X106814810Y-113374500D03*
X104758000Y-114562000D03*
X102701190Y-113374500D03*
X102701190Y-110999500D03*
X104758000Y-109812000D03*
D32*
X104758000Y-112187000D03*
D24*
X107056810Y-73812500D03*
X107056810Y-76187500D03*
X105000000Y-77375000D03*
X102943190Y-76187500D03*
X102943190Y-73812500D03*
X105000000Y-72625000D03*
D32*
X105000000Y-75000000D03*
D33*
X65000000Y-112700000D03*
X65000000Y-110800000D03*
D13*
X72275000Y-100500000D03*
X69325000Y-100500000D03*
D29*
X59480000Y-102594000D03*
X59480000Y-105544000D03*
D33*
X93000000Y-98950000D03*
X93000000Y-97050000D03*
X107800000Y-101450000D03*
X107800000Y-99550000D03*
D22*
X103800000Y-96500000D03*
X105700000Y-96500000D03*
D33*
X60000000Y-109050000D03*
X60000000Y-110950000D03*
D24*
X57013000Y-67511000D03*
X59013000Y-67511000D03*
X61013000Y-65733000D03*
X59013000Y-65733000D03*
X55013000Y-63955000D03*
X57013000Y-65733000D03*
X51013000Y-67511000D03*
X61013000Y-67511000D03*
X51013000Y-63955000D03*
X53013000Y-63955000D03*
X59013000Y-63955000D03*
X51013000Y-65733000D03*
X53013000Y-65733000D03*
X57013000Y-63955000D03*
X55013000Y-67511000D03*
X53013000Y-67511000D03*
X61013000Y-63955000D03*
X55013000Y-65733000D03*
X53013000Y-54557000D03*
X55013000Y-54557000D03*
X59013000Y-54557000D03*
X61013000Y-54557000D03*
X51013000Y-54557000D03*
X57013000Y-54557000D03*
X53013000Y-56335000D03*
X55013000Y-56335000D03*
X59013000Y-56335000D03*
X61013000Y-56335000D03*
X51013000Y-56335000D03*
X57013000Y-56335000D03*
X61013000Y-52779000D03*
X59013000Y-52779000D03*
X57013000Y-52779000D03*
X55013000Y-52779000D03*
X53013000Y-52779000D03*
X51013000Y-52779000D03*
D25*
X56093000Y-65745000D03*
X56093000Y-54545000D03*
D26*
X58093000Y-60145000D03*
D24*
X76950000Y-104350000D03*
X60430000Y-107069000D03*
X64430000Y-104769000D03*
X67700000Y-100300000D03*
X72219000Y-98969000D03*
X55980000Y-103319000D03*
X58029203Y-102688174D03*
X55000000Y-99250000D03*
X61000000Y-96500000D03*
X65250000Y-98500000D03*
X75000000Y-96500000D03*
X54250000Y-107000000D03*
X62500000Y-111500000D03*
X69000000Y-109500000D03*
X85250000Y-103000000D03*
X85500000Y-98250000D03*
X54750000Y-96750000D03*
X55000000Y-94250000D03*
X59250000Y-77000000D03*
X60250000Y-77000000D03*
X61250000Y-77000000D03*
X55876718Y-100811218D03*
X95400000Y-99250000D03*
X104400000Y-108250000D03*
X92800000Y-111050000D03*
X101775199Y-102668601D03*
X94200000Y-97050000D03*
X90200000Y-96050000D03*
X102800000Y-89650000D03*
X51400000Y-77850000D03*
X51400000Y-71850000D03*
X63500000Y-54250000D03*
X66000000Y-54250000D03*
X68500000Y-54250000D03*
X71000000Y-54250000D03*
X73500000Y-51750000D03*
X76000000Y-51750000D03*
X78500000Y-51750000D03*
X81000000Y-51750000D03*
X83500000Y-51750000D03*
X86000000Y-51750000D03*
X88500000Y-54250000D03*
X91000000Y-54250000D03*
X93500000Y-54250000D03*
X96000000Y-54250000D03*
X63500000Y-69250000D03*
X66000000Y-69250000D03*
X68500000Y-69250000D03*
X71000000Y-69250000D03*
X73500000Y-69250000D03*
X76000000Y-69250000D03*
X78500000Y-69250000D03*
X81000000Y-69250000D03*
X83500000Y-69250000D03*
X86000000Y-69250000D03*
X88500000Y-66750000D03*
X91000000Y-66750000D03*
X93500000Y-66750000D03*
X96000000Y-66750000D03*
X91000000Y-74250000D03*
X93500000Y-74250000D03*
X96000000Y-74250000D03*
X63500000Y-74250000D03*
X66000000Y-74250000D03*
X68500000Y-74250000D03*
X71000000Y-74250000D03*
X88500000Y-74250000D03*
X98500000Y-74250000D03*
X73500000Y-74250000D03*
X76000000Y-74250000D03*
X78500000Y-74250000D03*
X81000000Y-74250000D03*
X83500000Y-74250000D03*
X86000000Y-74250000D03*
X63500000Y-91750000D03*
X66000000Y-91750000D03*
X68500000Y-91750000D03*
X71000000Y-91750000D03*
X88500000Y-91750000D03*
X91000000Y-91750000D03*
X93500000Y-91750000D03*
X96000000Y-91750000D03*
X98500000Y-91750000D03*
X51400000Y-80390000D03*
X51400000Y-82930000D03*
X51400000Y-85470000D03*
X51400000Y-88010000D03*
X51400000Y-90550000D03*
X51400000Y-93090000D03*
X51400000Y-95630000D03*
X51400000Y-98170000D03*
X51400000Y-100650000D03*
X51400000Y-103250000D03*
X51400000Y-108330000D03*
X51400000Y-110870000D03*
X51400000Y-113410000D03*
X51400000Y-115950000D03*
X108500000Y-71750000D03*
X108500000Y-79370000D03*
X108500000Y-81910000D03*
X108500000Y-84450000D03*
X108500000Y-86990000D03*
X108500000Y-89530000D03*
X108500000Y-92070000D03*
X108500000Y-94610000D03*
X108500000Y-97150000D03*
X108500000Y-105450000D03*
X108500000Y-107310000D03*
X108500000Y-109850000D03*
X108500000Y-112390000D03*
X108500000Y-114930000D03*
X53940000Y-115950000D03*
X56480000Y-115950000D03*
X59020000Y-115950000D03*
X61560000Y-115950000D03*
X64100000Y-115950000D03*
X66640000Y-115950000D03*
X69180000Y-115950000D03*
X71720000Y-115950000D03*
X74260000Y-115950000D03*
X76800000Y-115950000D03*
X79340000Y-115950000D03*
X81880000Y-115950000D03*
X84420000Y-115950000D03*
X86960000Y-115950000D03*
X89500000Y-115950000D03*
X92040000Y-115950000D03*
X94580000Y-115950000D03*
X97120000Y-115950000D03*
X99660000Y-115950000D03*
X102200000Y-115950000D03*
X104740000Y-115950000D03*
X107280000Y-115950000D03*
X76300000Y-104350000D03*
X53500000Y-101750000D03*
X57143347Y-100732547D03*
X92400000Y-106050000D03*
X104400000Y-98250000D03*
X100800000Y-97649982D03*
X107600000Y-102650000D03*
X99849370Y-103316837D03*
D34*
X77921000Y-97460000D02*
X77930000Y-97469000D01*
X75150000Y-97460000D02*
X77921000Y-97460000D01*
X76950000Y-103614000D02*
X76505000Y-103169000D01*
X76950000Y-104350000D02*
X76950000Y-103614000D01*
X61980000Y-105709000D02*
X61980000Y-108179000D01*
D35*
X62390000Y-109019000D02*
X62530000Y-108879000D01*
X59730000Y-109019000D02*
X62390000Y-109019000D01*
D34*
X66808001Y-105804001D02*
X67815000Y-106811000D01*
X67815000Y-106811000D02*
X67815000Y-108219000D01*
X63318001Y-105804001D02*
X66808001Y-105804001D01*
X63223000Y-105709000D02*
X63318001Y-105804001D01*
X61980000Y-105709000D02*
X63223000Y-105709000D01*
X61980000Y-108329000D02*
X62530000Y-108879000D01*
X61980000Y-105709000D02*
X61980000Y-108329000D01*
X77930000Y-101644000D02*
X79455000Y-103169000D01*
X77930000Y-100469000D02*
X77930000Y-101644000D01*
X82251000Y-103169000D02*
X82270000Y-103150000D01*
X79455000Y-103169000D02*
X82251000Y-103169000D01*
X82270000Y-101920000D02*
X82270000Y-103150000D01*
X84250000Y-99940000D02*
X82270000Y-101920000D01*
D35*
X58599000Y-104538000D02*
X59480000Y-105419000D01*
X59480000Y-105419000D02*
X59480000Y-105544000D01*
X58474000Y-104538000D02*
X58599000Y-104538000D01*
X56930000Y-102994000D02*
X58474000Y-104538000D01*
X56930000Y-101919000D02*
X56930000Y-102994000D01*
X54955000Y-104794000D02*
X55030000Y-104719000D01*
X52480000Y-104794000D02*
X54955000Y-104794000D01*
X54605797Y-108928499D02*
X57928499Y-108928499D01*
X52480000Y-104794000D02*
X52480000Y-106802702D01*
X52480000Y-106802702D02*
X54605797Y-108928499D01*
X63969000Y-112700000D02*
X65000000Y-112700000D01*
X59721298Y-112700000D02*
X63969000Y-112700000D01*
X58778499Y-111757201D02*
X59721298Y-112700000D01*
X58778499Y-109778499D02*
X58778499Y-111757201D01*
X57928499Y-108928499D02*
X58778499Y-109778499D01*
X67930000Y-112759000D02*
X74140000Y-112759000D01*
X76230000Y-110669000D02*
X76230000Y-108069000D01*
X74140000Y-112759000D02*
X76230000Y-110669000D01*
X56930000Y-107259000D02*
X56870000Y-107319000D01*
X56930000Y-104719000D02*
X56930000Y-107259000D01*
D34*
X76630000Y-98969000D02*
X79030000Y-98969000D01*
X65275000Y-101314000D02*
X66330000Y-100259000D01*
X65275000Y-103019000D02*
X65275000Y-101314000D01*
X56870000Y-107069000D02*
X60430000Y-107069000D01*
X65275000Y-103924000D02*
X64430000Y-104769000D01*
X65275000Y-103019000D02*
X65275000Y-103924000D01*
X78030000Y-98969000D02*
X72219000Y-98969000D01*
X72275000Y-100500000D02*
X72275000Y-99025000D01*
X72275000Y-99025000D02*
X72219000Y-98969000D01*
X66330000Y-100259000D02*
X67659000Y-100259000D01*
X67659000Y-100259000D02*
X67700000Y-100300000D01*
X75421000Y-98969000D02*
X75150000Y-99240000D01*
X78030000Y-98969000D02*
X75421000Y-98969000D01*
X60645000Y-102594000D02*
X61980000Y-103929000D01*
X59480000Y-102594000D02*
X60645000Y-102594000D01*
X63620000Y-99569000D02*
X63620000Y-96569000D01*
D35*
X55499000Y-103319000D02*
X55980000Y-103319000D01*
X55030000Y-101919000D02*
X55030000Y-102850000D01*
X55030000Y-102850000D02*
X55499000Y-103319000D01*
X63620000Y-100685000D02*
X63620000Y-99569000D01*
X63429499Y-100875501D02*
X63620000Y-100685000D01*
X59173499Y-100875501D02*
X63429499Y-100875501D01*
X58029203Y-102019797D02*
X59173499Y-100875501D01*
X58029203Y-102688174D02*
X58029203Y-102019797D01*
X69325000Y-99619000D02*
X69325000Y-100500000D01*
X69325000Y-99130298D02*
X69325000Y-99619000D01*
X66763702Y-96569000D02*
X69325000Y-99130298D01*
X63620000Y-96569000D02*
X66763702Y-96569000D01*
X69085000Y-100740000D02*
X69325000Y-100500000D01*
X69085000Y-103019000D02*
X69085000Y-100740000D01*
D34*
X57930000Y-94319000D02*
X57930000Y-99319000D01*
X61590000Y-99319000D02*
X61840000Y-99569000D01*
X57930000Y-99319000D02*
X61590000Y-99319000D01*
D35*
X58614000Y-89459000D02*
X59730000Y-89459000D01*
X58334000Y-89459000D02*
X58614000Y-89459000D01*
X56980000Y-90813000D02*
X58334000Y-89459000D01*
X56980000Y-91819000D02*
X56980000Y-90813000D01*
D36*
X58093000Y-60145000D02*
X66654000Y-60145000D01*
X101480000Y-60069000D02*
X94940000Y-60069000D01*
D35*
X71640000Y-103424000D02*
X71640000Y-103269000D01*
X70573490Y-104490510D02*
X71640000Y-103424000D01*
X68005510Y-104490510D02*
X70573490Y-104490510D01*
X67815000Y-104300000D02*
X68005510Y-104490510D01*
X67815000Y-103019000D02*
X67815000Y-104300000D01*
X66735510Y-104490510D02*
X68005510Y-104490510D01*
X66545000Y-104300000D02*
X66735510Y-104490510D01*
X66545000Y-103019000D02*
X66545000Y-104300000D01*
D34*
X66654000Y-61082000D02*
X66654000Y-60145000D01*
X66230000Y-61506000D02*
X66654000Y-61082000D01*
X66230000Y-62579000D02*
X66230000Y-61506000D01*
D35*
X56098000Y-65740000D02*
X56093000Y-65745000D01*
X66750000Y-65740000D02*
X56098000Y-65740000D01*
D34*
X56030000Y-99319000D02*
X55069000Y-99319000D01*
X55069000Y-99319000D02*
X55000000Y-99250000D01*
X61840000Y-96569000D02*
X61069000Y-96569000D01*
X61069000Y-96569000D02*
X61000000Y-96500000D01*
X66330000Y-98479000D02*
X65271000Y-98479000D01*
X65271000Y-98479000D02*
X65250000Y-98500000D01*
X75150000Y-97460000D02*
X75150000Y-96650000D01*
X75150000Y-96650000D02*
X75000000Y-96500000D01*
X55090000Y-107069000D02*
X54319000Y-107069000D01*
X54319000Y-107069000D02*
X54250000Y-107000000D01*
X62530000Y-110659000D02*
X62530000Y-111470000D01*
X62530000Y-111470000D02*
X62500000Y-111500000D01*
X69085000Y-108219000D02*
X69085000Y-109415000D01*
X69085000Y-109415000D02*
X69000000Y-109500000D01*
X62239000Y-110950000D02*
X62530000Y-110659000D01*
X60000000Y-110950000D02*
X62239000Y-110950000D01*
X84050000Y-103150000D02*
X85100000Y-103150000D01*
X85100000Y-103150000D02*
X85250000Y-103000000D01*
X84250000Y-98160000D02*
X85410000Y-98160000D01*
X85410000Y-98160000D02*
X85500000Y-98250000D01*
X56090000Y-96819000D02*
X54819000Y-96819000D01*
X54819000Y-96819000D02*
X54750000Y-96750000D01*
X56030000Y-94319000D02*
X55069000Y-94319000D01*
X55069000Y-94319000D02*
X55000000Y-94250000D01*
D37*
X55980000Y-101919000D02*
X55980000Y-100914500D01*
X55980000Y-100914500D02*
X55876718Y-100811218D01*
D35*
X96610000Y-99250000D02*
X95400000Y-99250000D01*
D37*
X104390000Y-107050000D02*
X104390000Y-108240000D01*
X104390000Y-108240000D02*
X104400000Y-108250000D01*
D35*
X94200000Y-110905000D02*
X92945000Y-110905000D01*
X92945000Y-110905000D02*
X92800000Y-111050000D01*
X101750000Y-102643402D02*
X101775199Y-102668601D01*
X101750000Y-101650000D02*
X101750000Y-102643402D01*
X93000000Y-97050000D02*
X94200000Y-97050000D01*
X90250000Y-97110000D02*
X90250000Y-96100000D01*
X90250000Y-96100000D02*
X90200000Y-96050000D01*
D34*
X102850000Y-89700000D02*
X102800000Y-89650000D01*
X103950000Y-89700000D02*
X102850000Y-89700000D01*
X76300000Y-104350000D02*
X76950000Y-104350000D01*
D37*
X52480000Y-101844000D02*
X53406000Y-101844000D01*
X53406000Y-101844000D02*
X53500000Y-101750000D01*
X56930000Y-101919000D02*
X56930000Y-100945894D01*
X56930000Y-100945894D02*
X57143347Y-100732547D01*
D35*
X92510000Y-104500000D02*
X92510000Y-105940000D01*
X92510000Y-105940000D02*
X92400000Y-106050000D01*
X75317502Y-105321502D02*
X75982502Y-105321502D01*
X77855001Y-107194001D02*
X78730000Y-108069000D01*
X73420000Y-103424000D02*
X75317502Y-105321502D01*
X75982502Y-105321502D02*
X77855001Y-107194001D01*
X73420000Y-103269000D02*
X73420000Y-103424000D01*
X89111000Y-113450000D02*
X83730000Y-108069000D01*
X95620000Y-113450000D02*
X89111000Y-113450000D01*
X99600000Y-109635000D02*
X100785000Y-109635000D01*
X100785000Y-109635000D02*
X100800000Y-109620000D01*
X99685000Y-108450000D02*
X99600000Y-108365000D01*
X100800000Y-108450000D02*
X99685000Y-108450000D01*
D37*
X100808010Y-109458010D02*
X100800000Y-109450000D01*
X100808010Y-111260399D02*
X100808010Y-109458010D01*
X98618409Y-113450000D02*
X100808010Y-111260399D01*
X97400000Y-113450000D02*
X98618409Y-113450000D01*
D35*
X100800000Y-109620000D02*
X100800000Y-109450000D01*
X98361000Y-113450000D02*
X97400000Y-113450000D01*
X98708211Y-113450000D02*
X98361000Y-113450000D01*
X100871510Y-111286701D02*
X98708211Y-113450000D01*
X100871510Y-109321510D02*
X100871510Y-111286701D01*
X100800000Y-109250000D02*
X100871510Y-109321510D01*
X100800000Y-109250000D02*
X100800000Y-108450000D01*
X100800000Y-109450000D02*
X100800000Y-109250000D01*
X102015000Y-107095000D02*
X102610000Y-106500000D01*
X99400000Y-107095000D02*
X102015000Y-107095000D01*
X98790000Y-98850000D02*
X98390000Y-99250000D01*
X100800000Y-98850000D02*
X98790000Y-98850000D01*
X104975000Y-98250000D02*
X105250000Y-98525000D01*
X104400000Y-98250000D02*
X104975000Y-98250000D01*
X100800000Y-98850000D02*
X100800000Y-97649982D01*
D37*
X102610000Y-107050000D02*
X102610000Y-106040000D01*
X103006988Y-105643012D02*
X106606988Y-105643012D01*
X102610000Y-106040000D02*
X103006988Y-105643012D01*
X106606988Y-105643012D02*
X109000000Y-103250000D01*
X106004000Y-98525000D02*
X105250000Y-98525000D01*
X108689402Y-98525000D02*
X106004000Y-98525000D01*
X109000000Y-98835598D02*
X108689402Y-98525000D01*
X109000000Y-103250000D02*
X109000000Y-98835598D01*
D34*
X98390000Y-98571998D02*
X98390000Y-99250000D01*
X80430000Y-98969000D02*
X81180000Y-98969000D01*
X81180000Y-98969000D02*
X83699000Y-96450000D01*
X83699000Y-96450000D02*
X88000000Y-96450000D01*
X88000000Y-96450000D02*
X89600000Y-94850000D01*
X89600000Y-94850000D02*
X94668002Y-94850000D01*
X94668002Y-94850000D02*
X98390000Y-98571998D01*
X100000000Y-81490000D02*
X99750000Y-81240000D01*
X100000000Y-87610000D02*
X100000000Y-81490000D01*
X105272998Y-88614998D02*
X106450000Y-89792000D01*
X106450000Y-89792000D02*
X106450000Y-90650000D01*
X102303198Y-88614998D02*
X105272998Y-88614998D01*
X101528196Y-89390000D02*
X102303198Y-88614998D01*
X100000000Y-89390000D02*
X101528196Y-89390000D01*
X103500000Y-94110000D02*
X103860000Y-93750000D01*
X101000000Y-94110000D02*
X103500000Y-94110000D01*
X103860000Y-96440000D02*
X103800000Y-96500000D01*
X103860000Y-93750000D02*
X103860000Y-96440000D01*
X103950000Y-93660000D02*
X103860000Y-93750000D01*
X103950000Y-91600000D02*
X103950000Y-93660000D01*
X98000000Y-95890000D02*
X101000000Y-95890000D01*
D35*
X105075000Y-101650000D02*
X105250000Y-101475000D01*
D37*
X101891999Y-96781999D02*
X101000000Y-95890000D01*
X101891999Y-100037999D02*
X101891999Y-96781999D01*
X102700000Y-100846000D02*
X101891999Y-100037999D01*
X102700000Y-101650000D02*
X102700000Y-100846000D01*
X98246000Y-110905000D02*
X97400000Y-110059000D01*
X99400000Y-110905000D02*
X98246000Y-110905000D01*
X103556401Y-105008001D02*
X104200000Y-104364402D01*
X99723590Y-105008001D02*
X103556401Y-105008001D01*
X97400000Y-107331591D02*
X99723590Y-105008001D01*
X97400000Y-110059000D02*
X97400000Y-107331591D01*
D35*
X104200000Y-101650000D02*
X105075000Y-101650000D01*
X102700000Y-101650000D02*
X104200000Y-101650000D01*
D37*
X104200000Y-103404000D02*
X104200000Y-104050000D01*
X105250000Y-102354000D02*
X104200000Y-103404000D01*
X105250000Y-101475000D02*
X105250000Y-102354000D01*
X104200000Y-104364402D02*
X104200000Y-104050000D01*
D34*
X90310000Y-98950000D02*
X90250000Y-98890000D01*
X93000000Y-98950000D02*
X90310000Y-98950000D01*
X92992000Y-109635000D02*
X94400000Y-109635000D01*
X90860000Y-107503000D02*
X92992000Y-109635000D01*
X90860000Y-101750000D02*
X90860000Y-107503000D01*
X90510000Y-99150000D02*
X90250000Y-98890000D01*
X90510000Y-101750000D02*
X90510000Y-99150000D01*
D35*
X100700000Y-101750000D02*
X100800000Y-101650000D01*
X97975000Y-101750000D02*
X100700000Y-101750000D01*
X102525000Y-104000000D02*
X101668774Y-104000000D01*
X101668774Y-104000000D02*
X100803697Y-103134923D01*
X100800000Y-102581000D02*
X100800000Y-101650000D01*
X100803697Y-102584697D02*
X100800000Y-102581000D01*
X100803697Y-103134923D02*
X100803697Y-102584697D01*
D37*
X107991999Y-99658001D02*
X108000000Y-99650000D01*
X102700000Y-99100000D02*
X103258001Y-99658001D01*
X102700000Y-98850000D02*
X102700000Y-99100000D01*
X106591999Y-103762001D02*
X106591999Y-99658001D01*
X106354000Y-104000000D02*
X106591999Y-103762001D01*
X105475000Y-104000000D02*
X106354000Y-104000000D01*
X103258001Y-99658001D02*
X106591999Y-99658001D01*
X106591999Y-99658001D02*
X107991999Y-99658001D01*
D34*
X92640000Y-101750000D02*
X95025000Y-101750000D01*
D35*
X65275000Y-110525000D02*
X65000000Y-110800000D01*
X65275000Y-108219000D02*
X65275000Y-110525000D01*
X66545000Y-108219000D02*
X66545000Y-110795000D01*
X94290000Y-104500000D02*
X94290000Y-106985000D01*
X94200000Y-108365000D02*
X93115000Y-108365000D01*
X93115000Y-108365000D02*
X93000000Y-108250000D01*
X93000000Y-108250000D02*
X93000000Y-107450000D01*
X93355000Y-107095000D02*
X94200000Y-107095000D01*
X93000000Y-107450000D02*
X93355000Y-107095000D01*
D37*
X107800000Y-101450000D02*
X107800000Y-102450000D01*
X107800000Y-102450000D02*
X107600000Y-102650000D01*
X98666207Y-104500000D02*
X99849370Y-103316837D01*
X94290000Y-104500000D02*
X98666207Y-104500000D01*
G36*
X65215000Y-65358250D02*
G01*
X65373750Y-65517000D01*
X66527000Y-65517000D01*
X66527000Y-65497000D01*
X66973000Y-65497000D01*
X66973000Y-65517000D01*
X68126250Y-65517000D01*
X68285000Y-65358250D01*
X68285742Y-65314000D01*
X73279000Y-65314000D01*
X73279000Y-68691000D01*
X73281440Y-68715776D01*
X73288667Y-68739601D01*
X73300403Y-68761557D01*
X73316197Y-68780803D01*
X73335443Y-68796597D01*
X73357399Y-68808333D01*
X73381224Y-68815560D01*
X73406000Y-68818000D01*
X86614000Y-68818000D01*
X86638776Y-68815560D01*
X86662601Y-68808333D01*
X86684557Y-68796597D01*
X86703803Y-68780803D01*
X86719597Y-68761557D01*
X86731333Y-68739601D01*
X86738560Y-68715776D01*
X86741000Y-68691000D01*
X86741000Y-65314000D01*
X109215001Y-65314000D01*
X109215001Y-70060000D01*
X96758000Y-70060000D01*
X96733224Y-70062440D01*
X96709399Y-70069667D01*
X96687443Y-70081403D01*
X96668197Y-70097197D01*
X96652403Y-70116443D01*
X96640667Y-70138399D01*
X96633440Y-70162224D01*
X96631000Y-70187000D01*
X96631000Y-71187000D01*
X96633440Y-71211776D01*
X96640667Y-71235601D01*
X96652403Y-71257557D01*
X96668197Y-71276803D01*
X96687443Y-71292597D01*
X96709399Y-71304333D01*
X96733224Y-71311560D01*
X96758000Y-71314000D01*
X109215001Y-71314000D01*
X109215000Y-97970592D01*
X109114794Y-97888355D01*
X108982417Y-97817598D01*
X108838780Y-97774026D01*
X108726828Y-97763000D01*
X108726825Y-97763000D01*
X108689402Y-97759314D01*
X108651979Y-97763000D01*
X106372015Y-97763000D01*
X106355015Y-97706961D01*
X106413150Y-97674650D01*
X106508526Y-97593722D01*
X106586282Y-97495742D01*
X106643428Y-97384475D01*
X106677770Y-97264198D01*
X106687986Y-97139532D01*
X106685000Y-96881750D01*
X106526250Y-96723000D01*
X105923000Y-96723000D01*
X105923000Y-96743000D01*
X105477000Y-96743000D01*
X105477000Y-96723000D01*
X105457000Y-96723000D01*
X105457000Y-96277000D01*
X105477000Y-96277000D01*
X105477000Y-95373750D01*
X105923000Y-95373750D01*
X105923000Y-96277000D01*
X106526250Y-96277000D01*
X106685000Y-96118250D01*
X106687986Y-95860468D01*
X106677770Y-95735802D01*
X106643428Y-95615525D01*
X106586282Y-95504258D01*
X106508526Y-95406278D01*
X106413150Y-95325350D01*
X106303818Y-95264584D01*
X106184732Y-95226315D01*
X106081750Y-95215000D01*
X105923000Y-95373750D01*
X105477000Y-95373750D01*
X105318250Y-95215000D01*
X105215268Y-95226315D01*
X105096182Y-95264584D01*
X104986850Y-95325350D01*
X104891474Y-95406278D01*
X104813718Y-95504258D01*
X104756572Y-95615525D01*
X104749723Y-95639513D01*
X104749000Y-95637131D01*
X104749000Y-95039854D01*
X104750000Y-95039320D01*
X104815820Y-95074502D01*
X104935518Y-95110812D01*
X105060000Y-95123072D01*
X105258250Y-95120000D01*
X105417000Y-94961250D01*
X105417000Y-93973000D01*
X105863000Y-93973000D01*
X105863000Y-94961250D01*
X106021750Y-95120000D01*
X106220000Y-95123072D01*
X106344482Y-95110812D01*
X106464180Y-95074502D01*
X106574494Y-95015537D01*
X106671185Y-94936185D01*
X106750537Y-94839494D01*
X106809502Y-94729180D01*
X106845812Y-94609482D01*
X106858072Y-94485000D01*
X106855000Y-94131750D01*
X106696250Y-93973000D01*
X105863000Y-93973000D01*
X105417000Y-93973000D01*
X105397000Y-93973000D01*
X105397000Y-93527000D01*
X105417000Y-93527000D01*
X105417000Y-92538750D01*
X105863000Y-92538750D01*
X105863000Y-93527000D01*
X106696250Y-93527000D01*
X106855000Y-93368250D01*
X106858072Y-93015000D01*
X106845812Y-92890518D01*
X106809502Y-92770820D01*
X106750537Y-92660506D01*
X106671185Y-92563815D01*
X106574494Y-92484463D01*
X106464180Y-92425498D01*
X106344482Y-92389188D01*
X106220000Y-92376928D01*
X106021750Y-92380000D01*
X105863000Y-92538750D01*
X105417000Y-92538750D01*
X105258250Y-92380000D01*
X105060000Y-92376928D01*
X105044869Y-92378418D01*
X105105537Y-92304494D01*
X105164502Y-92194180D01*
X105200812Y-92074482D01*
X105213072Y-91950000D01*
X105213072Y-91250000D01*
X105201442Y-91131911D01*
X105235498Y-91244180D01*
X105294463Y-91354494D01*
X105373815Y-91451185D01*
X105470506Y-91530537D01*
X105580820Y-91589502D01*
X105700518Y-91625812D01*
X105825000Y-91638072D01*
X107075000Y-91638072D01*
X107199482Y-91625812D01*
X107319180Y-91589502D01*
X107429494Y-91530537D01*
X107526185Y-91451185D01*
X107605537Y-91354494D01*
X107664502Y-91244180D01*
X107700812Y-91124482D01*
X107713072Y-91000000D01*
X107713072Y-90300000D01*
X107700812Y-90175518D01*
X107664502Y-90055820D01*
X107605537Y-89945506D01*
X107526185Y-89848815D01*
X107429494Y-89769463D01*
X107336168Y-89719578D01*
X107329406Y-89650924D01*
X107326136Y-89617724D01*
X107275302Y-89450147D01*
X107270039Y-89440301D01*
X107192753Y-89295709D01*
X107081659Y-89160341D01*
X107047743Y-89132507D01*
X105932497Y-88017262D01*
X105904657Y-87983339D01*
X105769289Y-87872245D01*
X105614849Y-87789695D01*
X105447272Y-87738862D01*
X105316665Y-87725998D01*
X105316658Y-87725998D01*
X105272998Y-87721698D01*
X105229338Y-87725998D01*
X102346857Y-87725998D01*
X102303197Y-87721698D01*
X102259537Y-87725998D01*
X102259531Y-87725998D01*
X102162122Y-87735592D01*
X102128922Y-87738862D01*
X102035000Y-87767353D01*
X102035000Y-80050000D01*
X102022799Y-79926118D01*
X101986664Y-79806996D01*
X101927983Y-79697213D01*
X101849013Y-79600987D01*
X101752787Y-79522017D01*
X101643004Y-79463336D01*
X101523882Y-79427201D01*
X101400000Y-79415000D01*
X100892538Y-79415000D01*
X100894180Y-79414502D01*
X101004494Y-79355537D01*
X101101185Y-79276185D01*
X101180537Y-79179494D01*
X101239502Y-79069180D01*
X101275812Y-78949482D01*
X101288072Y-78825000D01*
X101285000Y-78641750D01*
X101126250Y-78483000D01*
X99973000Y-78483000D01*
X99973000Y-78503000D01*
X99527000Y-78503000D01*
X99527000Y-78483000D01*
X98373750Y-78483000D01*
X98215000Y-78641750D01*
X98211928Y-78825000D01*
X98224188Y-78949482D01*
X98260498Y-79069180D01*
X98319463Y-79179494D01*
X98398815Y-79276185D01*
X98495506Y-79355537D01*
X98605820Y-79414502D01*
X98661900Y-79431514D01*
X98556996Y-79463336D01*
X98447213Y-79522017D01*
X98350987Y-79600987D01*
X98272017Y-79697213D01*
X98213336Y-79806996D01*
X98177201Y-79926118D01*
X98165000Y-80050000D01*
X98165000Y-82075660D01*
X98122787Y-82041017D01*
X98013004Y-81982337D01*
X97893883Y-81946201D01*
X97770000Y-81934000D01*
X96389426Y-81933999D01*
X96356664Y-81825996D01*
X96297983Y-81716213D01*
X96219013Y-81619987D01*
X96122787Y-81541017D01*
X96013004Y-81482336D01*
X95893882Y-81446201D01*
X95770000Y-81434000D01*
X89520001Y-81434000D01*
X89396119Y-81446201D01*
X89276997Y-81482336D01*
X89167214Y-81541017D01*
X89070988Y-81619987D01*
X88992018Y-81716213D01*
X88933338Y-81825996D01*
X88897202Y-81945118D01*
X88885001Y-82069000D01*
X88885000Y-89568999D01*
X88897201Y-89692881D01*
X88933336Y-89812003D01*
X88992017Y-89921786D01*
X89070987Y-90018012D01*
X89167213Y-90096982D01*
X89276996Y-90155662D01*
X89396118Y-90191798D01*
X89520000Y-90203999D01*
X96020001Y-90204000D01*
X96143883Y-90191799D01*
X96263005Y-90155664D01*
X96372788Y-90096983D01*
X96469014Y-90018013D01*
X96547984Y-89921787D01*
X96606665Y-89812004D01*
X96642800Y-89692882D01*
X96655001Y-89569000D01*
X96655001Y-86704000D01*
X97770000Y-86704001D01*
X97893882Y-86691800D01*
X98013004Y-86655665D01*
X98122787Y-86596984D01*
X98165000Y-86562341D01*
X98165000Y-88250000D01*
X98177201Y-88373882D01*
X98213336Y-88493004D01*
X98272017Y-88602787D01*
X98350987Y-88699013D01*
X98447213Y-88777983D01*
X98556996Y-88836664D01*
X98626928Y-88857877D01*
X98626928Y-89970000D01*
X98639188Y-90094482D01*
X98675498Y-90214180D01*
X98734463Y-90324494D01*
X98813815Y-90421185D01*
X98910506Y-90500537D01*
X99020820Y-90559502D01*
X99140518Y-90595812D01*
X99265000Y-90608072D01*
X100735000Y-90608072D01*
X100859482Y-90595812D01*
X100979180Y-90559502D01*
X101089494Y-90500537D01*
X101186185Y-90421185D01*
X101265537Y-90324494D01*
X101289854Y-90279000D01*
X101484536Y-90279000D01*
X101528196Y-90283300D01*
X101571856Y-90279000D01*
X101571863Y-90279000D01*
X101702470Y-90266136D01*
X101870047Y-90215303D01*
X102024487Y-90132753D01*
X102159855Y-90021659D01*
X102187695Y-89987736D01*
X102671433Y-89503998D01*
X104193000Y-89503998D01*
X104193000Y-89923000D01*
X104173000Y-89923000D01*
X104173000Y-89943000D01*
X103727000Y-89943000D01*
X103727000Y-89923000D01*
X102848750Y-89923000D01*
X102690000Y-90081750D01*
X102701374Y-90185003D01*
X102739694Y-90304073D01*
X102800508Y-90413378D01*
X102881477Y-90508720D01*
X102979491Y-90586432D01*
X103090783Y-90643530D01*
X103114484Y-90650286D01*
X103080820Y-90660498D01*
X102970506Y-90719463D01*
X102873815Y-90798815D01*
X102794463Y-90895506D01*
X102735498Y-91005820D01*
X102699188Y-91125518D01*
X102686928Y-91250000D01*
X102686928Y-91950000D01*
X102699188Y-92074482D01*
X102735498Y-92194180D01*
X102794463Y-92304494D01*
X102873815Y-92401185D01*
X102955654Y-92468348D01*
X102925506Y-92484463D01*
X102828815Y-92563815D01*
X102749463Y-92660506D01*
X102690498Y-92770820D01*
X102654188Y-92890518D01*
X102641928Y-93015000D01*
X102641928Y-93221000D01*
X102289854Y-93221000D01*
X102265537Y-93175506D01*
X102186185Y-93078815D01*
X102089494Y-92999463D01*
X101979180Y-92940498D01*
X101859482Y-92904188D01*
X101735000Y-92891928D01*
X100265000Y-92891928D01*
X100140518Y-92904188D01*
X100020820Y-92940498D01*
X99910506Y-92999463D01*
X99813815Y-93078815D01*
X99734463Y-93175506D01*
X99675498Y-93285820D01*
X99639188Y-93405518D01*
X99626928Y-93530000D01*
X99626928Y-94690000D01*
X99639188Y-94814482D01*
X99675498Y-94934180D01*
X99710680Y-95000000D01*
X99710146Y-95001000D01*
X99289854Y-95001000D01*
X99289320Y-95000000D01*
X99324502Y-94934180D01*
X99360812Y-94814482D01*
X99373072Y-94690000D01*
X99370000Y-94491750D01*
X99211250Y-94333000D01*
X98223000Y-94333000D01*
X98223000Y-94353000D01*
X97777000Y-94353000D01*
X97777000Y-94333000D01*
X96788750Y-94333000D01*
X96630000Y-94491750D01*
X96626928Y-94690000D01*
X96639188Y-94814482D01*
X96675498Y-94934180D01*
X96710680Y-95000000D01*
X96675498Y-95065820D01*
X96639188Y-95185518D01*
X96626928Y-95310000D01*
X96626928Y-95551691D01*
X95327501Y-94252264D01*
X95299661Y-94218341D01*
X95164293Y-94107247D01*
X95009853Y-94024697D01*
X94842276Y-93973864D01*
X94711669Y-93961000D01*
X94711662Y-93961000D01*
X94668002Y-93956700D01*
X94624342Y-93961000D01*
X89643660Y-93961000D01*
X89600000Y-93956700D01*
X89556340Y-93961000D01*
X89556333Y-93961000D01*
X89442325Y-93972229D01*
X89425725Y-93973864D01*
X89414893Y-93977150D01*
X89258149Y-94024697D01*
X89103709Y-94107247D01*
X88968341Y-94218341D01*
X88940506Y-94252258D01*
X87631765Y-95561000D01*
X83742660Y-95561000D01*
X83699000Y-95556700D01*
X83655340Y-95561000D01*
X83655333Y-95561000D01*
X83541325Y-95572229D01*
X83524725Y-95573864D01*
X83497667Y-95582072D01*
X83357149Y-95624697D01*
X83202709Y-95707247D01*
X83067341Y-95818341D01*
X83039506Y-95852258D01*
X81526289Y-97365475D01*
X81500516Y-97357657D01*
X81260322Y-97334000D01*
X79599678Y-97334000D01*
X79515000Y-97342340D01*
X79515000Y-97245998D01*
X79325590Y-97245998D01*
X79442728Y-97098658D01*
X79384185Y-96930184D01*
X79262654Y-96773894D01*
X79112968Y-96644317D01*
X78940879Y-96546432D01*
X78753000Y-96484000D01*
X78153000Y-96484000D01*
X78153000Y-97246000D01*
X78173000Y-97246000D01*
X78173000Y-97692000D01*
X78153000Y-97692000D01*
X78153000Y-97712000D01*
X77707000Y-97712000D01*
X77707000Y-97692000D01*
X76534412Y-97692000D01*
X76461704Y-97783454D01*
X76361250Y-97683000D01*
X75373000Y-97683000D01*
X75373000Y-97703000D01*
X74927000Y-97703000D01*
X74927000Y-97683000D01*
X73938750Y-97683000D01*
X73780000Y-97841750D01*
X73776928Y-98040000D01*
X73780868Y-98080000D01*
X72751468Y-98080000D01*
X72709256Y-98051795D01*
X72520898Y-97973774D01*
X72320939Y-97934000D01*
X72117061Y-97934000D01*
X71917102Y-97973774D01*
X71728744Y-98051795D01*
X71559226Y-98165063D01*
X71415063Y-98309226D01*
X71301795Y-98478744D01*
X71223774Y-98667102D01*
X71184000Y-98867061D01*
X71184000Y-99070939D01*
X71223774Y-99270898D01*
X71301795Y-99459256D01*
X71305165Y-99464300D01*
X71295506Y-99469463D01*
X71198815Y-99548815D01*
X71119463Y-99645506D01*
X71060498Y-99755820D01*
X71024188Y-99875518D01*
X71011928Y-100000000D01*
X71011928Y-101000000D01*
X71024188Y-101124482D01*
X71060498Y-101244180D01*
X71119463Y-101354494D01*
X71198815Y-101451185D01*
X71295506Y-101530537D01*
X71405820Y-101589502D01*
X71525518Y-101625812D01*
X71650000Y-101638072D01*
X72900000Y-101638072D01*
X73024482Y-101625812D01*
X73144180Y-101589502D01*
X73254494Y-101530537D01*
X73351185Y-101451185D01*
X73430537Y-101354494D01*
X73489502Y-101244180D01*
X73525812Y-101124482D01*
X73538072Y-101000000D01*
X73538072Y-100000000D01*
X73525812Y-99875518D01*
X73520498Y-99858000D01*
X73780671Y-99858000D01*
X73789188Y-99944482D01*
X73825498Y-100064180D01*
X73884463Y-100174494D01*
X73963815Y-100271185D01*
X74060506Y-100350537D01*
X74170820Y-100409502D01*
X74290518Y-100445812D01*
X74415000Y-100458072D01*
X75885000Y-100458072D01*
X76009482Y-100445812D01*
X76129180Y-100409502D01*
X76239494Y-100350537D01*
X76336185Y-100271185D01*
X76375051Y-100223826D01*
X76359253Y-100275906D01*
X76340235Y-100469000D01*
X76359253Y-100662094D01*
X76415576Y-100847767D01*
X76507040Y-101018884D01*
X76630130Y-101168870D01*
X76780116Y-101291960D01*
X76951233Y-101383424D01*
X77041001Y-101410655D01*
X77041001Y-101600331D01*
X77036700Y-101644000D01*
X77053864Y-101818274D01*
X77104698Y-101985852D01*
X77128792Y-102030928D01*
X75880000Y-102030928D01*
X75755518Y-102043188D01*
X75635820Y-102079498D01*
X75525506Y-102138463D01*
X75428815Y-102217815D01*
X75349463Y-102314506D01*
X75290498Y-102424820D01*
X75254188Y-102544518D01*
X75241928Y-102669000D01*
X75241928Y-103669000D01*
X75254188Y-103793482D01*
X75290498Y-103913180D01*
X75330028Y-103987134D01*
X75304774Y-104048102D01*
X75289305Y-104125872D01*
X74638072Y-103474640D01*
X74638072Y-102534000D01*
X74625812Y-102409518D01*
X74589502Y-102289820D01*
X74530537Y-102179506D01*
X74451185Y-102082815D01*
X74354494Y-102003463D01*
X74244180Y-101944498D01*
X74124482Y-101908188D01*
X74000000Y-101895928D01*
X72840000Y-101895928D01*
X72715518Y-101908188D01*
X72595820Y-101944498D01*
X72530000Y-101979680D01*
X72464180Y-101944498D01*
X72344482Y-101908188D01*
X72220000Y-101895928D01*
X71060000Y-101895928D01*
X70935518Y-101908188D01*
X70815820Y-101944498D01*
X70705506Y-102003463D01*
X70608815Y-102082815D01*
X70529463Y-102179506D01*
X70470498Y-102289820D01*
X70434188Y-102409518D01*
X70421928Y-102534000D01*
X70421928Y-103474639D01*
X70231558Y-103665010D01*
X70065309Y-103665010D01*
X70070000Y-103617380D01*
X70070000Y-102420620D01*
X70055747Y-102275906D01*
X69999424Y-102090233D01*
X69910500Y-101923868D01*
X69910500Y-101638072D01*
X69950000Y-101638072D01*
X70074482Y-101625812D01*
X70194180Y-101589502D01*
X70304494Y-101530537D01*
X70401185Y-101451185D01*
X70480537Y-101354494D01*
X70539502Y-101244180D01*
X70575812Y-101124482D01*
X70588072Y-101000000D01*
X70588072Y-100000000D01*
X70575812Y-99875518D01*
X70539502Y-99755820D01*
X70480537Y-99645506D01*
X70401185Y-99548815D01*
X70304494Y-99469463D01*
X70194180Y-99410498D01*
X70150500Y-99397248D01*
X70150500Y-99170840D01*
X70154493Y-99130297D01*
X70150500Y-99089754D01*
X70150500Y-99089745D01*
X70138556Y-98968472D01*
X70091353Y-98812864D01*
X70014699Y-98669456D01*
X69911541Y-98543757D01*
X69880041Y-98517906D01*
X68242135Y-96880000D01*
X73776928Y-96880000D01*
X73780000Y-97078250D01*
X73938750Y-97237000D01*
X74927000Y-97237000D01*
X74927000Y-96403750D01*
X75373000Y-96403750D01*
X75373000Y-97237000D01*
X76361250Y-97237000D01*
X76453732Y-97144518D01*
X76534412Y-97246000D01*
X77707000Y-97246000D01*
X77707000Y-96484000D01*
X77107000Y-96484000D01*
X76919121Y-96546432D01*
X76747032Y-96644317D01*
X76597346Y-96773894D01*
X76522146Y-96870601D01*
X76510812Y-96755518D01*
X76474502Y-96635820D01*
X76415537Y-96525506D01*
X76336185Y-96428815D01*
X76239494Y-96349463D01*
X76129180Y-96290498D01*
X76009482Y-96254188D01*
X75885000Y-96241928D01*
X75531750Y-96245000D01*
X75373000Y-96403750D01*
X74927000Y-96403750D01*
X74768250Y-96245000D01*
X74415000Y-96241928D01*
X74290518Y-96254188D01*
X74170820Y-96290498D01*
X74060506Y-96349463D01*
X73963815Y-96428815D01*
X73884463Y-96525506D01*
X73825498Y-96635820D01*
X73789188Y-96755518D01*
X73776928Y-96880000D01*
X68242135Y-96880000D01*
X67376100Y-96013966D01*
X67350243Y-95982459D01*
X67224544Y-95879301D01*
X67081136Y-95802647D01*
X66925528Y-95755444D01*
X66804255Y-95743500D01*
X66804252Y-95743500D01*
X66763702Y-95739506D01*
X66723152Y-95743500D01*
X64829159Y-95743500D01*
X64825812Y-95709518D01*
X64789502Y-95589820D01*
X64730537Y-95479506D01*
X64651185Y-95382815D01*
X64554494Y-95303463D01*
X64444180Y-95244498D01*
X64324482Y-95208188D01*
X64200000Y-95195928D01*
X63040000Y-95195928D01*
X62915518Y-95208188D01*
X62795820Y-95244498D01*
X62730000Y-95279680D01*
X62664180Y-95244498D01*
X62544482Y-95208188D01*
X62420000Y-95195928D01*
X62221750Y-95199000D01*
X62063000Y-95357750D01*
X62063000Y-96346000D01*
X62083000Y-96346000D01*
X62083000Y-96792000D01*
X62063000Y-96792000D01*
X62063000Y-97780250D01*
X62221750Y-97939000D01*
X62420000Y-97942072D01*
X62544482Y-97929812D01*
X62664180Y-97893502D01*
X62730000Y-97858320D01*
X62731001Y-97858855D01*
X62731000Y-98279145D01*
X62730000Y-98279680D01*
X62664180Y-98244498D01*
X62544482Y-98208188D01*
X62420000Y-98195928D01*
X61260000Y-98195928D01*
X61135518Y-98208188D01*
X61015820Y-98244498D01*
X60905506Y-98303463D01*
X60808815Y-98382815D01*
X60770091Y-98430000D01*
X58871073Y-98430000D01*
X58869502Y-98424820D01*
X58819000Y-98330339D01*
X58819000Y-98072632D01*
X58901185Y-98005185D01*
X58980537Y-97908494D01*
X59039502Y-97798180D01*
X59075812Y-97678482D01*
X59088072Y-97554000D01*
X59088072Y-97304000D01*
X60621928Y-97304000D01*
X60634188Y-97428482D01*
X60670498Y-97548180D01*
X60729463Y-97658494D01*
X60808815Y-97755185D01*
X60905506Y-97834537D01*
X61015820Y-97893502D01*
X61135518Y-97929812D01*
X61260000Y-97942072D01*
X61458250Y-97939000D01*
X61617000Y-97780250D01*
X61617000Y-96792000D01*
X60783750Y-96792000D01*
X60625000Y-96950750D01*
X60621928Y-97304000D01*
X59088072Y-97304000D01*
X59088072Y-96084000D01*
X59075812Y-95959518D01*
X59039502Y-95839820D01*
X59036392Y-95834000D01*
X60621928Y-95834000D01*
X60625000Y-96187250D01*
X60783750Y-96346000D01*
X61617000Y-96346000D01*
X61617000Y-95357750D01*
X61458250Y-95199000D01*
X61260000Y-95195928D01*
X61135518Y-95208188D01*
X61015820Y-95244498D01*
X60905506Y-95303463D01*
X60808815Y-95382815D01*
X60729463Y-95479506D01*
X60670498Y-95589820D01*
X60634188Y-95709518D01*
X60621928Y-95834000D01*
X59036392Y-95834000D01*
X58980537Y-95729506D01*
X58901185Y-95632815D01*
X58819000Y-95565368D01*
X58819000Y-95282661D01*
X58869502Y-95188180D01*
X58905812Y-95068482D01*
X58918072Y-94944000D01*
X58918072Y-93694000D01*
X58905812Y-93569518D01*
X58869502Y-93449820D01*
X58810537Y-93339506D01*
X58731185Y-93242815D01*
X58634494Y-93163463D01*
X58524180Y-93104498D01*
X58404482Y-93068188D01*
X58280000Y-93055928D01*
X57580000Y-93055928D01*
X57461911Y-93067558D01*
X57574180Y-93033502D01*
X57684494Y-92974537D01*
X57781185Y-92895185D01*
X57860537Y-92798494D01*
X57919502Y-92688180D01*
X57955812Y-92568482D01*
X57968072Y-92444000D01*
X57968072Y-91194000D01*
X57955812Y-91069518D01*
X57940707Y-91019725D01*
X58510654Y-90449778D01*
X58543815Y-90490185D01*
X58640506Y-90569537D01*
X58750820Y-90628502D01*
X58870518Y-90664812D01*
X58995000Y-90677072D01*
X60465000Y-90677072D01*
X60589482Y-90664812D01*
X60709180Y-90628502D01*
X60819494Y-90569537D01*
X60916185Y-90490185D01*
X60995537Y-90393494D01*
X61054502Y-90283180D01*
X61090812Y-90163482D01*
X61103072Y-90039000D01*
X61103072Y-88954000D01*
X61230000Y-88954000D01*
X61353882Y-88941799D01*
X61473004Y-88905664D01*
X61582787Y-88846983D01*
X61679013Y-88768013D01*
X61757983Y-88671787D01*
X61816664Y-88562004D01*
X61852799Y-88442882D01*
X61865000Y-88319000D01*
X61865000Y-86692674D01*
X61980000Y-86704000D01*
X63095000Y-86704000D01*
X63095000Y-89569000D01*
X63107201Y-89692882D01*
X63143336Y-89812004D01*
X63202017Y-89921787D01*
X63280987Y-90018013D01*
X63377213Y-90096983D01*
X63486996Y-90155664D01*
X63606118Y-90191799D01*
X63730000Y-90204000D01*
X70230000Y-90204000D01*
X70353882Y-90191799D01*
X70473004Y-90155664D01*
X70582787Y-90096983D01*
X70679013Y-90018013D01*
X70757983Y-89921787D01*
X70816664Y-89812004D01*
X70852799Y-89692882D01*
X70865000Y-89569000D01*
X70865000Y-82069000D01*
X70852799Y-81945118D01*
X70816664Y-81825996D01*
X70757983Y-81716213D01*
X70679013Y-81619987D01*
X70582787Y-81541017D01*
X70473004Y-81482336D01*
X70353882Y-81446201D01*
X70230000Y-81434000D01*
X63980000Y-81434000D01*
X63856118Y-81446201D01*
X63736996Y-81482336D01*
X63627213Y-81541017D01*
X63530987Y-81619987D01*
X63452017Y-81716213D01*
X63393336Y-81825996D01*
X63360574Y-81934000D01*
X61980000Y-81934000D01*
X61865000Y-81945326D01*
X61865000Y-80819000D01*
X61852799Y-80695118D01*
X61816664Y-80575996D01*
X61757983Y-80466213D01*
X61679013Y-80369987D01*
X61582787Y-80291017D01*
X61473004Y-80232336D01*
X61353882Y-80196201D01*
X61230000Y-80184000D01*
X58980000Y-80184000D01*
X58856118Y-80196201D01*
X58736996Y-80232336D01*
X58627213Y-80291017D01*
X58530987Y-80369987D01*
X58452017Y-80466213D01*
X58393336Y-80575996D01*
X58357201Y-80695118D01*
X58345000Y-80819000D01*
X58345000Y-88319000D01*
X58357201Y-88442882D01*
X58393336Y-88562004D01*
X58418878Y-88609789D01*
X58406204Y-88633500D01*
X58374550Y-88633500D01*
X58333999Y-88629506D01*
X58293449Y-88633500D01*
X58293447Y-88633500D01*
X58172174Y-88645444D01*
X58016566Y-88692647D01*
X57873157Y-88769301D01*
X57848500Y-88789537D01*
X57747459Y-88872459D01*
X57721606Y-88903961D01*
X56424961Y-90200607D01*
X56393460Y-90226459D01*
X56367609Y-90257959D01*
X56290301Y-90352158D01*
X56213647Y-90495567D01*
X56166445Y-90651174D01*
X56154501Y-90772442D01*
X56099463Y-90839506D01*
X56040498Y-90949820D01*
X56004188Y-91069518D01*
X55991928Y-91194000D01*
X55991928Y-92444000D01*
X56004188Y-92568482D01*
X56040498Y-92688180D01*
X56099463Y-92798494D01*
X56178815Y-92895185D01*
X56275506Y-92974537D01*
X56385820Y-93033502D01*
X56503019Y-93069054D01*
X56411750Y-93059000D01*
X56253000Y-93217750D01*
X56253000Y-94096000D01*
X56273000Y-94096000D01*
X56273000Y-94542000D01*
X56253000Y-94542000D01*
X56253000Y-95420250D01*
X56376750Y-95544000D01*
X56313000Y-95607750D01*
X56313000Y-96596000D01*
X56333000Y-96596000D01*
X56333000Y-97042000D01*
X56313000Y-97042000D01*
X56313000Y-98030250D01*
X56364250Y-98081500D01*
X56253000Y-98192750D01*
X56253000Y-99096000D01*
X56273000Y-99096000D01*
X56273000Y-99542000D01*
X56253000Y-99542000D01*
X56253000Y-100202095D01*
X56226142Y-100242291D01*
X56148121Y-100430649D01*
X56108347Y-100630608D01*
X56108347Y-100834486D01*
X56135436Y-100970673D01*
X56099463Y-101014506D01*
X56040498Y-101124820D01*
X56004188Y-101244518D01*
X55991928Y-101369000D01*
X55991928Y-102162000D01*
X55968072Y-102162000D01*
X55968072Y-101369000D01*
X55955812Y-101244518D01*
X55919502Y-101124820D01*
X55860537Y-101014506D01*
X55807000Y-100949271D01*
X55807000Y-100892750D01*
X55648250Y-100734000D01*
X55544089Y-100745571D01*
X55504524Y-100758368D01*
X55454482Y-100743188D01*
X55330000Y-100730928D01*
X54730000Y-100730928D01*
X54605518Y-100743188D01*
X54485820Y-100779498D01*
X54375506Y-100838463D01*
X54278815Y-100917815D01*
X54212424Y-100998713D01*
X54159774Y-100946063D01*
X53990256Y-100832795D01*
X53801898Y-100754774D01*
X53601939Y-100715000D01*
X53398061Y-100715000D01*
X53372922Y-100720000D01*
X53334494Y-100688463D01*
X53224180Y-100629498D01*
X53104482Y-100593188D01*
X52980000Y-100580928D01*
X51980000Y-100580928D01*
X51855518Y-100593188D01*
X51735820Y-100629498D01*
X51625506Y-100688463D01*
X51528815Y-100767815D01*
X51449463Y-100864506D01*
X51390498Y-100974820D01*
X51354188Y-101094518D01*
X51341928Y-101219000D01*
X51341928Y-102469000D01*
X51354188Y-102593482D01*
X51390498Y-102713180D01*
X51449463Y-102823494D01*
X51528815Y-102920185D01*
X51625506Y-102999537D01*
X51735820Y-103058502D01*
X51855518Y-103094812D01*
X51980000Y-103107072D01*
X52980000Y-103107072D01*
X53104482Y-103094812D01*
X53224180Y-103058502D01*
X53334494Y-102999537D01*
X53431185Y-102920185D01*
X53510537Y-102823494D01*
X53531113Y-102785000D01*
X53601939Y-102785000D01*
X53801898Y-102745226D01*
X53990256Y-102667205D01*
X54103966Y-102591227D01*
X54104188Y-102593482D01*
X54140498Y-102713180D01*
X54199463Y-102823494D01*
X54202725Y-102827469D01*
X54200506Y-102850000D01*
X54216445Y-103011826D01*
X54263647Y-103167433D01*
X54340301Y-103310842D01*
X54393380Y-103375518D01*
X54443460Y-103436541D01*
X54474961Y-103462393D01*
X54567338Y-103554770D01*
X54485820Y-103579498D01*
X54375506Y-103638463D01*
X54278815Y-103717815D01*
X54199463Y-103814506D01*
X54140498Y-103924820D01*
X54127248Y-103968500D01*
X53582752Y-103968500D01*
X53569502Y-103924820D01*
X53510537Y-103814506D01*
X53431185Y-103717815D01*
X53334494Y-103638463D01*
X53224180Y-103579498D01*
X53104482Y-103543188D01*
X52980000Y-103530928D01*
X51980000Y-103530928D01*
X51855518Y-103543188D01*
X51735820Y-103579498D01*
X51625506Y-103638463D01*
X51528815Y-103717815D01*
X51449463Y-103814506D01*
X51390498Y-103924820D01*
X51354188Y-104044518D01*
X51341928Y-104169000D01*
X51341928Y-105419000D01*
X51354188Y-105543482D01*
X51390498Y-105663180D01*
X51449463Y-105773494D01*
X51528815Y-105870185D01*
X51625506Y-105949537D01*
X51654501Y-105965035D01*
X51654501Y-106762142D01*
X51650506Y-106802702D01*
X51666445Y-106964528D01*
X51713647Y-107120135D01*
X51790301Y-107263544D01*
X51826204Y-107307291D01*
X51893460Y-107389243D01*
X51924961Y-107415095D01*
X53993403Y-109483538D01*
X54019256Y-109515040D01*
X54079631Y-109564588D01*
X54144954Y-109618198D01*
X54229401Y-109663336D01*
X54288363Y-109694852D01*
X54443971Y-109742055D01*
X54565244Y-109753999D01*
X54565246Y-109753999D01*
X54605797Y-109757993D01*
X54646347Y-109753999D01*
X57586566Y-109753999D01*
X57952999Y-110120433D01*
X57953000Y-111716641D01*
X57949005Y-111757201D01*
X57964944Y-111919027D01*
X58012146Y-112074634D01*
X58088800Y-112218043D01*
X58126365Y-112263815D01*
X58191959Y-112343742D01*
X58223460Y-112369594D01*
X59108904Y-113255039D01*
X59134757Y-113286541D01*
X59198679Y-113339000D01*
X59260455Y-113389699D01*
X59370836Y-113448699D01*
X59403864Y-113466353D01*
X59559472Y-113513556D01*
X59680745Y-113525500D01*
X59680747Y-113525500D01*
X59721297Y-113529494D01*
X59761848Y-113525500D01*
X63928443Y-113525500D01*
X63995506Y-113580537D01*
X64105820Y-113639502D01*
X64225518Y-113675812D01*
X64350000Y-113688072D01*
X65650000Y-113688072D01*
X65774482Y-113675812D01*
X65894180Y-113639502D01*
X66004494Y-113580537D01*
X66101185Y-113501185D01*
X66180537Y-113404494D01*
X66239502Y-113294180D01*
X66275812Y-113174482D01*
X66288072Y-113050000D01*
X66288072Y-112350000D01*
X66281670Y-112285000D01*
X66556928Y-112285000D01*
X66556928Y-113339000D01*
X66569188Y-113463482D01*
X66605498Y-113583180D01*
X66664463Y-113693494D01*
X66743815Y-113790185D01*
X66840506Y-113869537D01*
X66950820Y-113928502D01*
X67070518Y-113964812D01*
X67195000Y-113977072D01*
X68665000Y-113977072D01*
X68789482Y-113964812D01*
X68909180Y-113928502D01*
X69019494Y-113869537D01*
X69116185Y-113790185D01*
X69195537Y-113693494D01*
X69253796Y-113584500D01*
X74099450Y-113584500D01*
X74140000Y-113588494D01*
X74180550Y-113584500D01*
X74180553Y-113584500D01*
X74301826Y-113572556D01*
X74457434Y-113525353D01*
X74600842Y-113448699D01*
X74726541Y-113345541D01*
X74752398Y-113314034D01*
X76785041Y-111281392D01*
X76816541Y-111255541D01*
X76919699Y-111129842D01*
X76996353Y-110986434D01*
X77043556Y-110830826D01*
X77055500Y-110709553D01*
X77055500Y-110709544D01*
X77059493Y-110669001D01*
X77055500Y-110628458D01*
X77055500Y-109333479D01*
X77192569Y-109241893D01*
X77402893Y-109031569D01*
X77480000Y-108916170D01*
X77557107Y-109031569D01*
X77767431Y-109241893D01*
X78014747Y-109407144D01*
X78289549Y-109520971D01*
X78581278Y-109579000D01*
X78878722Y-109579000D01*
X79170451Y-109520971D01*
X79445253Y-109407144D01*
X79692569Y-109241893D01*
X79902893Y-109031569D01*
X79980000Y-108916170D01*
X80057107Y-109031569D01*
X80267431Y-109241893D01*
X80514747Y-109407144D01*
X80789549Y-109520971D01*
X81081278Y-109579000D01*
X81378722Y-109579000D01*
X81670451Y-109520971D01*
X81945253Y-109407144D01*
X82192569Y-109241893D01*
X82402893Y-109031569D01*
X82480000Y-108916170D01*
X82557107Y-109031569D01*
X82767431Y-109241893D01*
X83014747Y-109407144D01*
X83289549Y-109520971D01*
X83581278Y-109579000D01*
X83878722Y-109579000D01*
X84040407Y-109546839D01*
X88498607Y-114005040D01*
X88524459Y-114036541D01*
X88585511Y-114086645D01*
X88650157Y-114139699D01*
X88734909Y-114185000D01*
X88793566Y-114216353D01*
X88949174Y-114263556D01*
X89070447Y-114275500D01*
X89070449Y-114275500D01*
X89110999Y-114279494D01*
X89151550Y-114275500D01*
X94410841Y-114275500D01*
X94414188Y-114309482D01*
X94450498Y-114429180D01*
X94509463Y-114539494D01*
X94588815Y-114636185D01*
X94685506Y-114715537D01*
X94795820Y-114774502D01*
X94915518Y-114810812D01*
X95040000Y-114823072D01*
X96200000Y-114823072D01*
X96324482Y-114810812D01*
X96444180Y-114774502D01*
X96510000Y-114739320D01*
X96575820Y-114774502D01*
X96695518Y-114810812D01*
X96820000Y-114823072D01*
X97980000Y-114823072D01*
X98104482Y-114810812D01*
X98224180Y-114774502D01*
X98334494Y-114715537D01*
X98431185Y-114636185D01*
X98510537Y-114539494D01*
X98569502Y-114429180D01*
X98605812Y-114309482D01*
X98609159Y-114275500D01*
X98667661Y-114275500D01*
X98708211Y-114279494D01*
X98748761Y-114275500D01*
X98748764Y-114275500D01*
X98870037Y-114263556D01*
X99025645Y-114216353D01*
X99169053Y-114139699D01*
X99294752Y-114036541D01*
X99320609Y-114005034D01*
X101426555Y-111899090D01*
X101458051Y-111873242D01*
X101483899Y-111841746D01*
X101483902Y-111841743D01*
X101561209Y-111747544D01*
X101637863Y-111604135D01*
X101650841Y-111561353D01*
X101685066Y-111448527D01*
X101697010Y-111327254D01*
X101697010Y-111327252D01*
X101701004Y-111286701D01*
X101697010Y-111246151D01*
X101697010Y-109362052D01*
X101701003Y-109321509D01*
X101697010Y-109280966D01*
X101697010Y-109280957D01*
X101685066Y-109159684D01*
X101637863Y-109004076D01*
X101625500Y-108980947D01*
X101625500Y-108490553D01*
X101629494Y-108450000D01*
X101613556Y-108288174D01*
X101604073Y-108256914D01*
X101675506Y-108315537D01*
X101785820Y-108374502D01*
X101905518Y-108410812D01*
X102030000Y-108423072D01*
X103190000Y-108423072D01*
X103314482Y-108410812D01*
X103434180Y-108374502D01*
X103500000Y-108339320D01*
X103565820Y-108374502D01*
X103685518Y-108410812D01*
X103810000Y-108423072D01*
X104008250Y-108420000D01*
X104167000Y-108261250D01*
X104167000Y-107273000D01*
X104613000Y-107273000D01*
X104613000Y-108261250D01*
X104771750Y-108420000D01*
X104970000Y-108423072D01*
X105094482Y-108410812D01*
X105214180Y-108374502D01*
X105324494Y-108315537D01*
X105421185Y-108236185D01*
X105500537Y-108139494D01*
X105559502Y-108029180D01*
X105595812Y-107909482D01*
X105608072Y-107785000D01*
X105605000Y-107431750D01*
X105446250Y-107273000D01*
X104613000Y-107273000D01*
X104167000Y-107273000D01*
X104147000Y-107273000D01*
X104147000Y-106827000D01*
X104167000Y-106827000D01*
X104167000Y-106807000D01*
X104613000Y-106807000D01*
X104613000Y-106827000D01*
X105446250Y-106827000D01*
X105605000Y-106668250D01*
X105607289Y-106405012D01*
X106569565Y-106405012D01*
X106606988Y-106408698D01*
X106644411Y-106405012D01*
X106644414Y-106405012D01*
X106756366Y-106393986D01*
X106900003Y-106350414D01*
X107032380Y-106279657D01*
X107148410Y-106184434D01*
X107172272Y-106155358D01*
X109215000Y-104112631D01*
X109215000Y-116715000D01*
X50927000Y-116715000D01*
X50927000Y-99958532D01*
X55042014Y-99958532D01*
X55052230Y-100083198D01*
X55086572Y-100203475D01*
X55143718Y-100314742D01*
X55221474Y-100412722D01*
X55316850Y-100493650D01*
X55426182Y-100554416D01*
X55545268Y-100592685D01*
X55648250Y-100604000D01*
X55807000Y-100445250D01*
X55807000Y-99542000D01*
X55203750Y-99542000D01*
X55045000Y-99700750D01*
X55042014Y-99958532D01*
X50927000Y-99958532D01*
X50927000Y-97554000D01*
X54871928Y-97554000D01*
X54884188Y-97678482D01*
X54920498Y-97798180D01*
X54979463Y-97908494D01*
X55058815Y-98005185D01*
X55155506Y-98084537D01*
X55265820Y-98143502D01*
X55304147Y-98155128D01*
X55221474Y-98225278D01*
X55143718Y-98323258D01*
X55086572Y-98434525D01*
X55052230Y-98554802D01*
X55042014Y-98679468D01*
X55045000Y-98937250D01*
X55203750Y-99096000D01*
X55807000Y-99096000D01*
X55807000Y-98192750D01*
X55755750Y-98141500D01*
X55867000Y-98030250D01*
X55867000Y-97042000D01*
X55033750Y-97042000D01*
X54875000Y-97200750D01*
X54871928Y-97554000D01*
X50927000Y-97554000D01*
X50927000Y-96084000D01*
X54871928Y-96084000D01*
X54875000Y-96437250D01*
X55033750Y-96596000D01*
X55867000Y-96596000D01*
X55867000Y-95607750D01*
X55743250Y-95484000D01*
X55807000Y-95420250D01*
X55807000Y-94542000D01*
X55203750Y-94542000D01*
X55045000Y-94700750D01*
X55042018Y-94933254D01*
X55052181Y-95057925D01*
X55086470Y-95178217D01*
X55143568Y-95289509D01*
X55221280Y-95387523D01*
X55316622Y-95468492D01*
X55328946Y-95475349D01*
X55265820Y-95494498D01*
X55155506Y-95553463D01*
X55058815Y-95632815D01*
X54979463Y-95729506D01*
X54920498Y-95839820D01*
X54884188Y-95959518D01*
X54871928Y-96084000D01*
X50927000Y-96084000D01*
X50927000Y-93704746D01*
X55042018Y-93704746D01*
X55045000Y-93937250D01*
X55203750Y-94096000D01*
X55807000Y-94096000D01*
X55807000Y-93217750D01*
X55648250Y-93059000D01*
X55544997Y-93070374D01*
X55425927Y-93108694D01*
X55316622Y-93169508D01*
X55221280Y-93250477D01*
X55143568Y-93348491D01*
X55086470Y-93459783D01*
X55052181Y-93580075D01*
X55042018Y-93704746D01*
X50927000Y-93704746D01*
X50927000Y-79144000D01*
X58691928Y-79144000D01*
X58704188Y-79268482D01*
X58740498Y-79388180D01*
X58799463Y-79498494D01*
X58878815Y-79595185D01*
X58975506Y-79674537D01*
X59085820Y-79733502D01*
X59205518Y-79769812D01*
X59330000Y-79782072D01*
X59848250Y-79779000D01*
X60007000Y-79620250D01*
X60007000Y-78802000D01*
X60453000Y-78802000D01*
X60453000Y-79620250D01*
X60611750Y-79779000D01*
X61130000Y-79782072D01*
X61254482Y-79769812D01*
X61374180Y-79733502D01*
X61484494Y-79674537D01*
X61581185Y-79595185D01*
X61660537Y-79498494D01*
X61719502Y-79388180D01*
X61755812Y-79268482D01*
X61768072Y-79144000D01*
X61765000Y-78960750D01*
X61606250Y-78802000D01*
X60453000Y-78802000D01*
X60007000Y-78802000D01*
X58853750Y-78802000D01*
X58695000Y-78960750D01*
X58691928Y-79144000D01*
X50927000Y-79144000D01*
X50927000Y-78014000D01*
X58691928Y-78014000D01*
X58695000Y-78197250D01*
X58853750Y-78356000D01*
X60007000Y-78356000D01*
X60007000Y-77537750D01*
X60453000Y-77537750D01*
X60453000Y-78356000D01*
X61606250Y-78356000D01*
X61765000Y-78197250D01*
X61768072Y-78014000D01*
X61755812Y-77889518D01*
X61719502Y-77769820D01*
X61660537Y-77659506D01*
X61581185Y-77562815D01*
X61484494Y-77483463D01*
X61374180Y-77424498D01*
X61254482Y-77388188D01*
X61130000Y-77375928D01*
X60611750Y-77379000D01*
X60453000Y-77537750D01*
X60007000Y-77537750D01*
X59848250Y-77379000D01*
X59330000Y-77375928D01*
X59205518Y-77388188D01*
X59085820Y-77424498D01*
X58975506Y-77483463D01*
X58878815Y-77562815D01*
X58799463Y-77659506D01*
X58740498Y-77769820D01*
X58704188Y-77889518D01*
X58691928Y-78014000D01*
X50927000Y-78014000D01*
X50927000Y-76969000D01*
X64741928Y-76969000D01*
X64754188Y-77093482D01*
X64790498Y-77213180D01*
X64849463Y-77323494D01*
X64928815Y-77420185D01*
X65025506Y-77499537D01*
X65135820Y-77558502D01*
X65255518Y-77594812D01*
X65380000Y-77607072D01*
X66598250Y-77604000D01*
X66757000Y-77445250D01*
X66757000Y-76692000D01*
X67203000Y-76692000D01*
X67203000Y-77445250D01*
X67361750Y-77604000D01*
X68580000Y-77607072D01*
X68704482Y-77594812D01*
X68824180Y-77558502D01*
X68934494Y-77499537D01*
X69031185Y-77420185D01*
X69110537Y-77323494D01*
X69169502Y-77213180D01*
X69177443Y-77187000D01*
X72631000Y-77187000D01*
X72631000Y-94187000D01*
X72633440Y-94211776D01*
X72640667Y-94235601D01*
X72652403Y-94257557D01*
X72668197Y-94276803D01*
X72687443Y-94292597D01*
X72709399Y-94304333D01*
X72733224Y-94311560D01*
X72758000Y-94314000D01*
X86758000Y-94314000D01*
X86782776Y-94311560D01*
X86806601Y-94304333D01*
X86828557Y-94292597D01*
X86847803Y-94276803D01*
X86863597Y-94257557D01*
X86875333Y-94235601D01*
X86882560Y-94211776D01*
X86885000Y-94187000D01*
X86885000Y-93530000D01*
X96626928Y-93530000D01*
X96630000Y-93728250D01*
X96788750Y-93887000D01*
X97777000Y-93887000D01*
X97777000Y-93053750D01*
X98223000Y-93053750D01*
X98223000Y-93887000D01*
X99211250Y-93887000D01*
X99370000Y-93728250D01*
X99373072Y-93530000D01*
X99360812Y-93405518D01*
X99324502Y-93285820D01*
X99265537Y-93175506D01*
X99186185Y-93078815D01*
X99089494Y-92999463D01*
X98979180Y-92940498D01*
X98859482Y-92904188D01*
X98735000Y-92891928D01*
X98381750Y-92895000D01*
X98223000Y-93053750D01*
X97777000Y-93053750D01*
X97618250Y-92895000D01*
X97265000Y-92891928D01*
X97140518Y-92904188D01*
X97020820Y-92940498D01*
X96910506Y-92999463D01*
X96813815Y-93078815D01*
X96734463Y-93175506D01*
X96675498Y-93285820D01*
X96639188Y-93405518D01*
X96626928Y-93530000D01*
X86885000Y-93530000D01*
X86885000Y-77695000D01*
X98211928Y-77695000D01*
X98215000Y-77878250D01*
X98373750Y-78037000D01*
X99527000Y-78037000D01*
X99527000Y-77218750D01*
X99973000Y-77218750D01*
X99973000Y-78037000D01*
X101126250Y-78037000D01*
X101285000Y-77878250D01*
X101288072Y-77695000D01*
X101275812Y-77570518D01*
X101239502Y-77450820D01*
X101180537Y-77340506D01*
X101101185Y-77243815D01*
X101004494Y-77164463D01*
X100894180Y-77105498D01*
X100774482Y-77069188D01*
X100650000Y-77056928D01*
X100131750Y-77060000D01*
X99973000Y-77218750D01*
X99527000Y-77218750D01*
X99368250Y-77060000D01*
X98850000Y-77056928D01*
X98725518Y-77069188D01*
X98605820Y-77105498D01*
X98495506Y-77164463D01*
X98398815Y-77243815D01*
X98319463Y-77340506D01*
X98260498Y-77450820D01*
X98224188Y-77570518D01*
X98211928Y-77695000D01*
X86885000Y-77695000D01*
X86885000Y-77187000D01*
X86882560Y-77162224D01*
X86875333Y-77138399D01*
X86863597Y-77116443D01*
X86847803Y-77097197D01*
X86828557Y-77081403D01*
X86806601Y-77069667D01*
X86782776Y-77062440D01*
X86758000Y-77060000D01*
X72758000Y-77060000D01*
X72733224Y-77062440D01*
X72709399Y-77069667D01*
X72687443Y-77081403D01*
X72668197Y-77097197D01*
X72652403Y-77116443D01*
X72640667Y-77138399D01*
X72633440Y-77162224D01*
X72631000Y-77187000D01*
X69177443Y-77187000D01*
X69205812Y-77093482D01*
X69218072Y-76969000D01*
X69216280Y-76900000D01*
X90761928Y-76900000D01*
X90774188Y-77024482D01*
X90810498Y-77144180D01*
X90869463Y-77254494D01*
X90948815Y-77351185D01*
X91045506Y-77430537D01*
X91155820Y-77489502D01*
X91275518Y-77525812D01*
X91400000Y-77538072D01*
X92618250Y-77535000D01*
X92777000Y-77376250D01*
X92777000Y-76623000D01*
X93223000Y-76623000D01*
X93223000Y-77376250D01*
X93381750Y-77535000D01*
X94600000Y-77538072D01*
X94724482Y-77525812D01*
X94844180Y-77489502D01*
X94954494Y-77430537D01*
X95051185Y-77351185D01*
X95130537Y-77254494D01*
X95189502Y-77144180D01*
X95225812Y-77024482D01*
X95238072Y-76900000D01*
X95235000Y-76781750D01*
X95076250Y-76623000D01*
X93223000Y-76623000D01*
X92777000Y-76623000D01*
X90923750Y-76623000D01*
X90765000Y-76781750D01*
X90761928Y-76900000D01*
X69216280Y-76900000D01*
X69215000Y-76850750D01*
X69056250Y-76692000D01*
X67203000Y-76692000D01*
X66757000Y-76692000D01*
X64903750Y-76692000D01*
X64745000Y-76850750D01*
X64741928Y-76969000D01*
X50927000Y-76969000D01*
X50927000Y-76687000D01*
X50924560Y-76662224D01*
X50917333Y-76638399D01*
X50905597Y-76616443D01*
X50889803Y-76597197D01*
X50870557Y-76581403D01*
X50848601Y-76569667D01*
X50824776Y-76562440D01*
X50800000Y-76560000D01*
X50785000Y-76560000D01*
X50785000Y-75969000D01*
X64741928Y-75969000D01*
X64745000Y-76087250D01*
X64903750Y-76246000D01*
X66757000Y-76246000D01*
X66757000Y-75492750D01*
X67203000Y-75492750D01*
X67203000Y-76246000D01*
X69056250Y-76246000D01*
X69215000Y-76087250D01*
X69218072Y-75969000D01*
X69211277Y-75900000D01*
X90761928Y-75900000D01*
X90765000Y-76018250D01*
X90923750Y-76177000D01*
X92777000Y-76177000D01*
X92777000Y-75423750D01*
X93223000Y-75423750D01*
X93223000Y-76177000D01*
X95076250Y-76177000D01*
X95235000Y-76018250D01*
X95238072Y-75900000D01*
X95225812Y-75775518D01*
X95189502Y-75655820D01*
X95130537Y-75545506D01*
X95051185Y-75448815D01*
X94954494Y-75369463D01*
X94844180Y-75310498D01*
X94724482Y-75274188D01*
X94600000Y-75261928D01*
X93381750Y-75265000D01*
X93223000Y-75423750D01*
X92777000Y-75423750D01*
X92618250Y-75265000D01*
X91400000Y-75261928D01*
X91275518Y-75274188D01*
X91155820Y-75310498D01*
X91045506Y-75369463D01*
X90948815Y-75448815D01*
X90869463Y-75545506D01*
X90810498Y-75655820D01*
X90774188Y-75775518D01*
X90761928Y-75900000D01*
X69211277Y-75900000D01*
X69205812Y-75844518D01*
X69169502Y-75724820D01*
X69110537Y-75614506D01*
X69031185Y-75517815D01*
X68934494Y-75438463D01*
X68824180Y-75379498D01*
X68704482Y-75343188D01*
X68580000Y-75330928D01*
X67361750Y-75334000D01*
X67203000Y-75492750D01*
X66757000Y-75492750D01*
X66598250Y-75334000D01*
X65380000Y-75330928D01*
X65255518Y-75343188D01*
X65135820Y-75379498D01*
X65025506Y-75438463D01*
X64928815Y-75517815D01*
X64849463Y-75614506D01*
X64790498Y-75724820D01*
X64754188Y-75844518D01*
X64741928Y-75969000D01*
X50785000Y-75969000D01*
X50785000Y-71314000D01*
X90258000Y-71314000D01*
X90282776Y-71311560D01*
X90306601Y-71304333D01*
X90328557Y-71292597D01*
X90347803Y-71276803D01*
X90363597Y-71257557D01*
X90375333Y-71235601D01*
X90382560Y-71211776D01*
X90385000Y-71187000D01*
X90385000Y-70187000D01*
X90382560Y-70162224D01*
X90375333Y-70138399D01*
X90363597Y-70116443D01*
X90347803Y-70097197D01*
X90328557Y-70081403D01*
X90306601Y-70069667D01*
X90282776Y-70062440D01*
X90258000Y-70060000D01*
X50785000Y-70060000D01*
X50785000Y-66305000D01*
X65211928Y-66305000D01*
X65224188Y-66429482D01*
X65260498Y-66549180D01*
X65319463Y-66659494D01*
X65398815Y-66756185D01*
X65495506Y-66835537D01*
X65605820Y-66894502D01*
X65725518Y-66930812D01*
X65850000Y-66943072D01*
X66368250Y-66940000D01*
X66527000Y-66781250D01*
X66527000Y-65963000D01*
X66973000Y-65963000D01*
X66973000Y-66781250D01*
X67131750Y-66940000D01*
X67650000Y-66943072D01*
X67774482Y-66930812D01*
X67894180Y-66894502D01*
X68004494Y-66835537D01*
X68101185Y-66756185D01*
X68180537Y-66659494D01*
X68239502Y-66549180D01*
X68275812Y-66429482D01*
X68288072Y-66305000D01*
X68285000Y-66121750D01*
X68126250Y-65963000D01*
X66973000Y-65963000D01*
X66527000Y-65963000D01*
X65373750Y-65963000D01*
X65215000Y-66121750D01*
X65211928Y-66305000D01*
X50785000Y-66305000D01*
X50785000Y-65314000D01*
X65214258Y-65314000D01*
X65215000Y-65358250D01*
X65215000Y-65358250D01*
G37*
X65215000Y-65358250D02*
X65373750Y-65517000D01*
X66527000Y-65517000D01*
X66527000Y-65497000D01*
X66973000Y-65497000D01*
X66973000Y-65517000D01*
X68126250Y-65517000D01*
X68285000Y-65358250D01*
X68285742Y-65314000D01*
X73279000Y-65314000D01*
X73279000Y-68691000D01*
X73281440Y-68715776D01*
X73288667Y-68739601D01*
X73300403Y-68761557D01*
X73316197Y-68780803D01*
X73335443Y-68796597D01*
X73357399Y-68808333D01*
X73381224Y-68815560D01*
X73406000Y-68818000D01*
X86614000Y-68818000D01*
X86638776Y-68815560D01*
X86662601Y-68808333D01*
X86684557Y-68796597D01*
X86703803Y-68780803D01*
X86719597Y-68761557D01*
X86731333Y-68739601D01*
X86738560Y-68715776D01*
X86741000Y-68691000D01*
X86741000Y-65314000D01*
X109215001Y-65314000D01*
X109215001Y-70060000D01*
X96758000Y-70060000D01*
X96733224Y-70062440D01*
X96709399Y-70069667D01*
X96687443Y-70081403D01*
X96668197Y-70097197D01*
X96652403Y-70116443D01*
X96640667Y-70138399D01*
X96633440Y-70162224D01*
X96631000Y-70187000D01*
X96631000Y-71187000D01*
X96633440Y-71211776D01*
X96640667Y-71235601D01*
X96652403Y-71257557D01*
X96668197Y-71276803D01*
X96687443Y-71292597D01*
X96709399Y-71304333D01*
X96733224Y-71311560D01*
X96758000Y-71314000D01*
X109215001Y-71314000D01*
X109215000Y-97970592D01*
X109114794Y-97888355D01*
X108982417Y-97817598D01*
X108838780Y-97774026D01*
X108726828Y-97763000D01*
X108726825Y-97763000D01*
X108689402Y-97759314D01*
X108651979Y-97763000D01*
X106372015Y-97763000D01*
X106355015Y-97706961D01*
X106413150Y-97674650D01*
X106508526Y-97593722D01*
X106586282Y-97495742D01*
X106643428Y-97384475D01*
X106677770Y-97264198D01*
X106687986Y-97139532D01*
X106685000Y-96881750D01*
X106526250Y-96723000D01*
X105923000Y-96723000D01*
X105923000Y-96743000D01*
X105477000Y-96743000D01*
X105477000Y-96723000D01*
X105457000Y-96723000D01*
X105457000Y-96277000D01*
X105477000Y-96277000D01*
X105477000Y-95373750D01*
X105923000Y-95373750D01*
X105923000Y-96277000D01*
X106526250Y-96277000D01*
X106685000Y-96118250D01*
X106687986Y-95860468D01*
X106677770Y-95735802D01*
X106643428Y-95615525D01*
X106586282Y-95504258D01*
X106508526Y-95406278D01*
X106413150Y-95325350D01*
X106303818Y-95264584D01*
X106184732Y-95226315D01*
X106081750Y-95215000D01*
X105923000Y-95373750D01*
X105477000Y-95373750D01*
X105318250Y-95215000D01*
X105215268Y-95226315D01*
X105096182Y-95264584D01*
X104986850Y-95325350D01*
X104891474Y-95406278D01*
X104813718Y-95504258D01*
X104756572Y-95615525D01*
X104749723Y-95639513D01*
X104749000Y-95637131D01*
X104749000Y-95039854D01*
X104750000Y-95039320D01*
X104815820Y-95074502D01*
X104935518Y-95110812D01*
X105060000Y-95123072D01*
X105258250Y-95120000D01*
X105417000Y-94961250D01*
X105417000Y-93973000D01*
X105863000Y-93973000D01*
X105863000Y-94961250D01*
X106021750Y-95120000D01*
X106220000Y-95123072D01*
X106344482Y-95110812D01*
X106464180Y-95074502D01*
X106574494Y-95015537D01*
X106671185Y-94936185D01*
X106750537Y-94839494D01*
X106809502Y-94729180D01*
X106845812Y-94609482D01*
X106858072Y-94485000D01*
X106855000Y-94131750D01*
X106696250Y-93973000D01*
X105863000Y-93973000D01*
X105417000Y-93973000D01*
X105397000Y-93973000D01*
X105397000Y-93527000D01*
X105417000Y-93527000D01*
X105417000Y-92538750D01*
X105863000Y-92538750D01*
X105863000Y-93527000D01*
X106696250Y-93527000D01*
X106855000Y-93368250D01*
X106858072Y-93015000D01*
X106845812Y-92890518D01*
X106809502Y-92770820D01*
X106750537Y-92660506D01*
X106671185Y-92563815D01*
X106574494Y-92484463D01*
X106464180Y-92425498D01*
X106344482Y-92389188D01*
X106220000Y-92376928D01*
X106021750Y-92380000D01*
X105863000Y-92538750D01*
X105417000Y-92538750D01*
X105258250Y-92380000D01*
X105060000Y-92376928D01*
X105044869Y-92378418D01*
X105105537Y-92304494D01*
X105164502Y-92194180D01*
X105200812Y-92074482D01*
X105213072Y-91950000D01*
X105213072Y-91250000D01*
X105201442Y-91131911D01*
X105235498Y-91244180D01*
X105294463Y-91354494D01*
X105373815Y-91451185D01*
X105470506Y-91530537D01*
X105580820Y-91589502D01*
X105700518Y-91625812D01*
X105825000Y-91638072D01*
X107075000Y-91638072D01*
X107199482Y-91625812D01*
X107319180Y-91589502D01*
X107429494Y-91530537D01*
X107526185Y-91451185D01*
X107605537Y-91354494D01*
X107664502Y-91244180D01*
X107700812Y-91124482D01*
X107713072Y-91000000D01*
X107713072Y-90300000D01*
X107700812Y-90175518D01*
X107664502Y-90055820D01*
X107605537Y-89945506D01*
X107526185Y-89848815D01*
X107429494Y-89769463D01*
X107336168Y-89719578D01*
X107329406Y-89650924D01*
X107326136Y-89617724D01*
X107275302Y-89450147D01*
X107270039Y-89440301D01*
X107192753Y-89295709D01*
X107081659Y-89160341D01*
X107047743Y-89132507D01*
X105932497Y-88017262D01*
X105904657Y-87983339D01*
X105769289Y-87872245D01*
X105614849Y-87789695D01*
X105447272Y-87738862D01*
X105316665Y-87725998D01*
X105316658Y-87725998D01*
X105272998Y-87721698D01*
X105229338Y-87725998D01*
X102346857Y-87725998D01*
X102303197Y-87721698D01*
X102259537Y-87725998D01*
X102259531Y-87725998D01*
X102162122Y-87735592D01*
X102128922Y-87738862D01*
X102035000Y-87767353D01*
X102035000Y-80050000D01*
X102022799Y-79926118D01*
X101986664Y-79806996D01*
X101927983Y-79697213D01*
X101849013Y-79600987D01*
X101752787Y-79522017D01*
X101643004Y-79463336D01*
X101523882Y-79427201D01*
X101400000Y-79415000D01*
X100892538Y-79415000D01*
X100894180Y-79414502D01*
X101004494Y-79355537D01*
X101101185Y-79276185D01*
X101180537Y-79179494D01*
X101239502Y-79069180D01*
X101275812Y-78949482D01*
X101288072Y-78825000D01*
X101285000Y-78641750D01*
X101126250Y-78483000D01*
X99973000Y-78483000D01*
X99973000Y-78503000D01*
X99527000Y-78503000D01*
X99527000Y-78483000D01*
X98373750Y-78483000D01*
X98215000Y-78641750D01*
X98211928Y-78825000D01*
X98224188Y-78949482D01*
X98260498Y-79069180D01*
X98319463Y-79179494D01*
X98398815Y-79276185D01*
X98495506Y-79355537D01*
X98605820Y-79414502D01*
X98661900Y-79431514D01*
X98556996Y-79463336D01*
X98447213Y-79522017D01*
X98350987Y-79600987D01*
X98272017Y-79697213D01*
X98213336Y-79806996D01*
X98177201Y-79926118D01*
X98165000Y-80050000D01*
X98165000Y-82075660D01*
X98122787Y-82041017D01*
X98013004Y-81982337D01*
X97893883Y-81946201D01*
X97770000Y-81934000D01*
X96389426Y-81933999D01*
X96356664Y-81825996D01*
X96297983Y-81716213D01*
X96219013Y-81619987D01*
X96122787Y-81541017D01*
X96013004Y-81482336D01*
X95893882Y-81446201D01*
X95770000Y-81434000D01*
X89520001Y-81434000D01*
X89396119Y-81446201D01*
X89276997Y-81482336D01*
X89167214Y-81541017D01*
X89070988Y-81619987D01*
X88992018Y-81716213D01*
X88933338Y-81825996D01*
X88897202Y-81945118D01*
X88885001Y-82069000D01*
X88885000Y-89568999D01*
X88897201Y-89692881D01*
X88933336Y-89812003D01*
X88992017Y-89921786D01*
X89070987Y-90018012D01*
X89167213Y-90096982D01*
X89276996Y-90155662D01*
X89396118Y-90191798D01*
X89520000Y-90203999D01*
X96020001Y-90204000D01*
X96143883Y-90191799D01*
X96263005Y-90155664D01*
X96372788Y-90096983D01*
X96469014Y-90018013D01*
X96547984Y-89921787D01*
X96606665Y-89812004D01*
X96642800Y-89692882D01*
X96655001Y-89569000D01*
X96655001Y-86704000D01*
X97770000Y-86704001D01*
X97893882Y-86691800D01*
X98013004Y-86655665D01*
X98122787Y-86596984D01*
X98165000Y-86562341D01*
X98165000Y-88250000D01*
X98177201Y-88373882D01*
X98213336Y-88493004D01*
X98272017Y-88602787D01*
X98350987Y-88699013D01*
X98447213Y-88777983D01*
X98556996Y-88836664D01*
X98626928Y-88857877D01*
X98626928Y-89970000D01*
X98639188Y-90094482D01*
X98675498Y-90214180D01*
X98734463Y-90324494D01*
X98813815Y-90421185D01*
X98910506Y-90500537D01*
X99020820Y-90559502D01*
X99140518Y-90595812D01*
X99265000Y-90608072D01*
X100735000Y-90608072D01*
X100859482Y-90595812D01*
X100979180Y-90559502D01*
X101089494Y-90500537D01*
X101186185Y-90421185D01*
X101265537Y-90324494D01*
X101289854Y-90279000D01*
X101484536Y-90279000D01*
X101528196Y-90283300D01*
X101571856Y-90279000D01*
X101571863Y-90279000D01*
X101702470Y-90266136D01*
X101870047Y-90215303D01*
X102024487Y-90132753D01*
X102159855Y-90021659D01*
X102187695Y-89987736D01*
X102671433Y-89503998D01*
X104193000Y-89503998D01*
X104193000Y-89923000D01*
X104173000Y-89923000D01*
X104173000Y-89943000D01*
X103727000Y-89943000D01*
X103727000Y-89923000D01*
X102848750Y-89923000D01*
X102690000Y-90081750D01*
X102701374Y-90185003D01*
X102739694Y-90304073D01*
X102800508Y-90413378D01*
X102881477Y-90508720D01*
X102979491Y-90586432D01*
X103090783Y-90643530D01*
X103114484Y-90650286D01*
X103080820Y-90660498D01*
X102970506Y-90719463D01*
X102873815Y-90798815D01*
X102794463Y-90895506D01*
X102735498Y-91005820D01*
X102699188Y-91125518D01*
X102686928Y-91250000D01*
X102686928Y-91950000D01*
X102699188Y-92074482D01*
X102735498Y-92194180D01*
X102794463Y-92304494D01*
X102873815Y-92401185D01*
X102955654Y-92468348D01*
X102925506Y-92484463D01*
X102828815Y-92563815D01*
X102749463Y-92660506D01*
X102690498Y-92770820D01*
X102654188Y-92890518D01*
X102641928Y-93015000D01*
X102641928Y-93221000D01*
X102289854Y-93221000D01*
X102265537Y-93175506D01*
X102186185Y-93078815D01*
X102089494Y-92999463D01*
X101979180Y-92940498D01*
X101859482Y-92904188D01*
X101735000Y-92891928D01*
X100265000Y-92891928D01*
X100140518Y-92904188D01*
X100020820Y-92940498D01*
X99910506Y-92999463D01*
X99813815Y-93078815D01*
X99734463Y-93175506D01*
X99675498Y-93285820D01*
X99639188Y-93405518D01*
X99626928Y-93530000D01*
X99626928Y-94690000D01*
X99639188Y-94814482D01*
X99675498Y-94934180D01*
X99710680Y-95000000D01*
X99710146Y-95001000D01*
X99289854Y-95001000D01*
X99289320Y-95000000D01*
X99324502Y-94934180D01*
X99360812Y-94814482D01*
X99373072Y-94690000D01*
X99370000Y-94491750D01*
X99211250Y-94333000D01*
X98223000Y-94333000D01*
X98223000Y-94353000D01*
X97777000Y-94353000D01*
X97777000Y-94333000D01*
X96788750Y-94333000D01*
X96630000Y-94491750D01*
X96626928Y-94690000D01*
X96639188Y-94814482D01*
X96675498Y-94934180D01*
X96710680Y-95000000D01*
X96675498Y-95065820D01*
X96639188Y-95185518D01*
X96626928Y-95310000D01*
X96626928Y-95551691D01*
X95327501Y-94252264D01*
X95299661Y-94218341D01*
X95164293Y-94107247D01*
X95009853Y-94024697D01*
X94842276Y-93973864D01*
X94711669Y-93961000D01*
X94711662Y-93961000D01*
X94668002Y-93956700D01*
X94624342Y-93961000D01*
X89643660Y-93961000D01*
X89600000Y-93956700D01*
X89556340Y-93961000D01*
X89556333Y-93961000D01*
X89442325Y-93972229D01*
X89425725Y-93973864D01*
X89414893Y-93977150D01*
X89258149Y-94024697D01*
X89103709Y-94107247D01*
X88968341Y-94218341D01*
X88940506Y-94252258D01*
X87631765Y-95561000D01*
X83742660Y-95561000D01*
X83699000Y-95556700D01*
X83655340Y-95561000D01*
X83655333Y-95561000D01*
X83541325Y-95572229D01*
X83524725Y-95573864D01*
X83497667Y-95582072D01*
X83357149Y-95624697D01*
X83202709Y-95707247D01*
X83067341Y-95818341D01*
X83039506Y-95852258D01*
X81526289Y-97365475D01*
X81500516Y-97357657D01*
X81260322Y-97334000D01*
X79599678Y-97334000D01*
X79515000Y-97342340D01*
X79515000Y-97245998D01*
X79325590Y-97245998D01*
X79442728Y-97098658D01*
X79384185Y-96930184D01*
X79262654Y-96773894D01*
X79112968Y-96644317D01*
X78940879Y-96546432D01*
X78753000Y-96484000D01*
X78153000Y-96484000D01*
X78153000Y-97246000D01*
X78173000Y-97246000D01*
X78173000Y-97692000D01*
X78153000Y-97692000D01*
X78153000Y-97712000D01*
X77707000Y-97712000D01*
X77707000Y-97692000D01*
X76534412Y-97692000D01*
X76461704Y-97783454D01*
X76361250Y-97683000D01*
X75373000Y-97683000D01*
X75373000Y-97703000D01*
X74927000Y-97703000D01*
X74927000Y-97683000D01*
X73938750Y-97683000D01*
X73780000Y-97841750D01*
X73776928Y-98040000D01*
X73780868Y-98080000D01*
X72751468Y-98080000D01*
X72709256Y-98051795D01*
X72520898Y-97973774D01*
X72320939Y-97934000D01*
X72117061Y-97934000D01*
X71917102Y-97973774D01*
X71728744Y-98051795D01*
X71559226Y-98165063D01*
X71415063Y-98309226D01*
X71301795Y-98478744D01*
X71223774Y-98667102D01*
X71184000Y-98867061D01*
X71184000Y-99070939D01*
X71223774Y-99270898D01*
X71301795Y-99459256D01*
X71305165Y-99464300D01*
X71295506Y-99469463D01*
X71198815Y-99548815D01*
X71119463Y-99645506D01*
X71060498Y-99755820D01*
X71024188Y-99875518D01*
X71011928Y-100000000D01*
X71011928Y-101000000D01*
X71024188Y-101124482D01*
X71060498Y-101244180D01*
X71119463Y-101354494D01*
X71198815Y-101451185D01*
X71295506Y-101530537D01*
X71405820Y-101589502D01*
X71525518Y-101625812D01*
X71650000Y-101638072D01*
X72900000Y-101638072D01*
X73024482Y-101625812D01*
X73144180Y-101589502D01*
X73254494Y-101530537D01*
X73351185Y-101451185D01*
X73430537Y-101354494D01*
X73489502Y-101244180D01*
X73525812Y-101124482D01*
X73538072Y-101000000D01*
X73538072Y-100000000D01*
X73525812Y-99875518D01*
X73520498Y-99858000D01*
X73780671Y-99858000D01*
X73789188Y-99944482D01*
X73825498Y-100064180D01*
X73884463Y-100174494D01*
X73963815Y-100271185D01*
X74060506Y-100350537D01*
X74170820Y-100409502D01*
X74290518Y-100445812D01*
X74415000Y-100458072D01*
X75885000Y-100458072D01*
X76009482Y-100445812D01*
X76129180Y-100409502D01*
X76239494Y-100350537D01*
X76336185Y-100271185D01*
X76375051Y-100223826D01*
X76359253Y-100275906D01*
X76340235Y-100469000D01*
X76359253Y-100662094D01*
X76415576Y-100847767D01*
X76507040Y-101018884D01*
X76630130Y-101168870D01*
X76780116Y-101291960D01*
X76951233Y-101383424D01*
X77041001Y-101410655D01*
X77041001Y-101600331D01*
X77036700Y-101644000D01*
X77053864Y-101818274D01*
X77104698Y-101985852D01*
X77128792Y-102030928D01*
X75880000Y-102030928D01*
X75755518Y-102043188D01*
X75635820Y-102079498D01*
X75525506Y-102138463D01*
X75428815Y-102217815D01*
X75349463Y-102314506D01*
X75290498Y-102424820D01*
X75254188Y-102544518D01*
X75241928Y-102669000D01*
X75241928Y-103669000D01*
X75254188Y-103793482D01*
X75290498Y-103913180D01*
X75330028Y-103987134D01*
X75304774Y-104048102D01*
X75289305Y-104125872D01*
X74638072Y-103474640D01*
X74638072Y-102534000D01*
X74625812Y-102409518D01*
X74589502Y-102289820D01*
X74530537Y-102179506D01*
X74451185Y-102082815D01*
X74354494Y-102003463D01*
X74244180Y-101944498D01*
X74124482Y-101908188D01*
X74000000Y-101895928D01*
X72840000Y-101895928D01*
X72715518Y-101908188D01*
X72595820Y-101944498D01*
X72530000Y-101979680D01*
X72464180Y-101944498D01*
X72344482Y-101908188D01*
X72220000Y-101895928D01*
X71060000Y-101895928D01*
X70935518Y-101908188D01*
X70815820Y-101944498D01*
X70705506Y-102003463D01*
X70608815Y-102082815D01*
X70529463Y-102179506D01*
X70470498Y-102289820D01*
X70434188Y-102409518D01*
X70421928Y-102534000D01*
X70421928Y-103474639D01*
X70231558Y-103665010D01*
X70065309Y-103665010D01*
X70070000Y-103617380D01*
X70070000Y-102420620D01*
X70055747Y-102275906D01*
X69999424Y-102090233D01*
X69910500Y-101923868D01*
X69910500Y-101638072D01*
X69950000Y-101638072D01*
X70074482Y-101625812D01*
X70194180Y-101589502D01*
X70304494Y-101530537D01*
X70401185Y-101451185D01*
X70480537Y-101354494D01*
X70539502Y-101244180D01*
X70575812Y-101124482D01*
X70588072Y-101000000D01*
X70588072Y-100000000D01*
X70575812Y-99875518D01*
X70539502Y-99755820D01*
X70480537Y-99645506D01*
X70401185Y-99548815D01*
X70304494Y-99469463D01*
X70194180Y-99410498D01*
X70150500Y-99397248D01*
X70150500Y-99170840D01*
X70154493Y-99130297D01*
X70150500Y-99089754D01*
X70150500Y-99089745D01*
X70138556Y-98968472D01*
X70091353Y-98812864D01*
X70014699Y-98669456D01*
X69911541Y-98543757D01*
X69880041Y-98517906D01*
X68242135Y-96880000D01*
X73776928Y-96880000D01*
X73780000Y-97078250D01*
X73938750Y-97237000D01*
X74927000Y-97237000D01*
X74927000Y-96403750D01*
X75373000Y-96403750D01*
X75373000Y-97237000D01*
X76361250Y-97237000D01*
X76453732Y-97144518D01*
X76534412Y-97246000D01*
X77707000Y-97246000D01*
X77707000Y-96484000D01*
X77107000Y-96484000D01*
X76919121Y-96546432D01*
X76747032Y-96644317D01*
X76597346Y-96773894D01*
X76522146Y-96870601D01*
X76510812Y-96755518D01*
X76474502Y-96635820D01*
X76415537Y-96525506D01*
X76336185Y-96428815D01*
X76239494Y-96349463D01*
X76129180Y-96290498D01*
X76009482Y-96254188D01*
X75885000Y-96241928D01*
X75531750Y-96245000D01*
X75373000Y-96403750D01*
X74927000Y-96403750D01*
X74768250Y-96245000D01*
X74415000Y-96241928D01*
X74290518Y-96254188D01*
X74170820Y-96290498D01*
X74060506Y-96349463D01*
X73963815Y-96428815D01*
X73884463Y-96525506D01*
X73825498Y-96635820D01*
X73789188Y-96755518D01*
X73776928Y-96880000D01*
X68242135Y-96880000D01*
X67376100Y-96013966D01*
X67350243Y-95982459D01*
X67224544Y-95879301D01*
X67081136Y-95802647D01*
X66925528Y-95755444D01*
X66804255Y-95743500D01*
X66804252Y-95743500D01*
X66763702Y-95739506D01*
X66723152Y-95743500D01*
X64829159Y-95743500D01*
X64825812Y-95709518D01*
X64789502Y-95589820D01*
X64730537Y-95479506D01*
X64651185Y-95382815D01*
X64554494Y-95303463D01*
X64444180Y-95244498D01*
X64324482Y-95208188D01*
X64200000Y-95195928D01*
X63040000Y-95195928D01*
X62915518Y-95208188D01*
X62795820Y-95244498D01*
X62730000Y-95279680D01*
X62664180Y-95244498D01*
X62544482Y-95208188D01*
X62420000Y-95195928D01*
X62221750Y-95199000D01*
X62063000Y-95357750D01*
X62063000Y-96346000D01*
X62083000Y-96346000D01*
X62083000Y-96792000D01*
X62063000Y-96792000D01*
X62063000Y-97780250D01*
X62221750Y-97939000D01*
X62420000Y-97942072D01*
X62544482Y-97929812D01*
X62664180Y-97893502D01*
X62730000Y-97858320D01*
X62731001Y-97858855D01*
X62731000Y-98279145D01*
X62730000Y-98279680D01*
X62664180Y-98244498D01*
X62544482Y-98208188D01*
X62420000Y-98195928D01*
X61260000Y-98195928D01*
X61135518Y-98208188D01*
X61015820Y-98244498D01*
X60905506Y-98303463D01*
X60808815Y-98382815D01*
X60770091Y-98430000D01*
X58871073Y-98430000D01*
X58869502Y-98424820D01*
X58819000Y-98330339D01*
X58819000Y-98072632D01*
X58901185Y-98005185D01*
X58980537Y-97908494D01*
X59039502Y-97798180D01*
X59075812Y-97678482D01*
X59088072Y-97554000D01*
X59088072Y-97304000D01*
X60621928Y-97304000D01*
X60634188Y-97428482D01*
X60670498Y-97548180D01*
X60729463Y-97658494D01*
X60808815Y-97755185D01*
X60905506Y-97834537D01*
X61015820Y-97893502D01*
X61135518Y-97929812D01*
X61260000Y-97942072D01*
X61458250Y-97939000D01*
X61617000Y-97780250D01*
X61617000Y-96792000D01*
X60783750Y-96792000D01*
X60625000Y-96950750D01*
X60621928Y-97304000D01*
X59088072Y-97304000D01*
X59088072Y-96084000D01*
X59075812Y-95959518D01*
X59039502Y-95839820D01*
X59036392Y-95834000D01*
X60621928Y-95834000D01*
X60625000Y-96187250D01*
X60783750Y-96346000D01*
X61617000Y-96346000D01*
X61617000Y-95357750D01*
X61458250Y-95199000D01*
X61260000Y-95195928D01*
X61135518Y-95208188D01*
X61015820Y-95244498D01*
X60905506Y-95303463D01*
X60808815Y-95382815D01*
X60729463Y-95479506D01*
X60670498Y-95589820D01*
X60634188Y-95709518D01*
X60621928Y-95834000D01*
X59036392Y-95834000D01*
X58980537Y-95729506D01*
X58901185Y-95632815D01*
X58819000Y-95565368D01*
X58819000Y-95282661D01*
X58869502Y-95188180D01*
X58905812Y-95068482D01*
X58918072Y-94944000D01*
X58918072Y-93694000D01*
X58905812Y-93569518D01*
X58869502Y-93449820D01*
X58810537Y-93339506D01*
X58731185Y-93242815D01*
X58634494Y-93163463D01*
X58524180Y-93104498D01*
X58404482Y-93068188D01*
X58280000Y-93055928D01*
X57580000Y-93055928D01*
X57461911Y-93067558D01*
X57574180Y-93033502D01*
X57684494Y-92974537D01*
X57781185Y-92895185D01*
X57860537Y-92798494D01*
X57919502Y-92688180D01*
X57955812Y-92568482D01*
X57968072Y-92444000D01*
X57968072Y-91194000D01*
X57955812Y-91069518D01*
X57940707Y-91019725D01*
X58510654Y-90449778D01*
X58543815Y-90490185D01*
X58640506Y-90569537D01*
X58750820Y-90628502D01*
X58870518Y-90664812D01*
X58995000Y-90677072D01*
X60465000Y-90677072D01*
X60589482Y-90664812D01*
X60709180Y-90628502D01*
X60819494Y-90569537D01*
X60916185Y-90490185D01*
X60995537Y-90393494D01*
X61054502Y-90283180D01*
X61090812Y-90163482D01*
X61103072Y-90039000D01*
X61103072Y-88954000D01*
X61230000Y-88954000D01*
X61353882Y-88941799D01*
X61473004Y-88905664D01*
X61582787Y-88846983D01*
X61679013Y-88768013D01*
X61757983Y-88671787D01*
X61816664Y-88562004D01*
X61852799Y-88442882D01*
X61865000Y-88319000D01*
X61865000Y-86692674D01*
X61980000Y-86704000D01*
X63095000Y-86704000D01*
X63095000Y-89569000D01*
X63107201Y-89692882D01*
X63143336Y-89812004D01*
X63202017Y-89921787D01*
X63280987Y-90018013D01*
X63377213Y-90096983D01*
X63486996Y-90155664D01*
X63606118Y-90191799D01*
X63730000Y-90204000D01*
X70230000Y-90204000D01*
X70353882Y-90191799D01*
X70473004Y-90155664D01*
X70582787Y-90096983D01*
X70679013Y-90018013D01*
X70757983Y-89921787D01*
X70816664Y-89812004D01*
X70852799Y-89692882D01*
X70865000Y-89569000D01*
X70865000Y-82069000D01*
X70852799Y-81945118D01*
X70816664Y-81825996D01*
X70757983Y-81716213D01*
X70679013Y-81619987D01*
X70582787Y-81541017D01*
X70473004Y-81482336D01*
X70353882Y-81446201D01*
X70230000Y-81434000D01*
X63980000Y-81434000D01*
X63856118Y-81446201D01*
X63736996Y-81482336D01*
X63627213Y-81541017D01*
X63530987Y-81619987D01*
X63452017Y-81716213D01*
X63393336Y-81825996D01*
X63360574Y-81934000D01*
X61980000Y-81934000D01*
X61865000Y-81945326D01*
X61865000Y-80819000D01*
X61852799Y-80695118D01*
X61816664Y-80575996D01*
X61757983Y-80466213D01*
X61679013Y-80369987D01*
X61582787Y-80291017D01*
X61473004Y-80232336D01*
X61353882Y-80196201D01*
X61230000Y-80184000D01*
X58980000Y-80184000D01*
X58856118Y-80196201D01*
X58736996Y-80232336D01*
X58627213Y-80291017D01*
X58530987Y-80369987D01*
X58452017Y-80466213D01*
X58393336Y-80575996D01*
X58357201Y-80695118D01*
X58345000Y-80819000D01*
X58345000Y-88319000D01*
X58357201Y-88442882D01*
X58393336Y-88562004D01*
X58418878Y-88609789D01*
X58406204Y-88633500D01*
X58374550Y-88633500D01*
X58333999Y-88629506D01*
X58293449Y-88633500D01*
X58293447Y-88633500D01*
X58172174Y-88645444D01*
X58016566Y-88692647D01*
X57873157Y-88769301D01*
X57848500Y-88789537D01*
X57747459Y-88872459D01*
X57721606Y-88903961D01*
X56424961Y-90200607D01*
X56393460Y-90226459D01*
X56367609Y-90257959D01*
X56290301Y-90352158D01*
X56213647Y-90495567D01*
X56166445Y-90651174D01*
X56154501Y-90772442D01*
X56099463Y-90839506D01*
X56040498Y-90949820D01*
X56004188Y-91069518D01*
X55991928Y-91194000D01*
X55991928Y-92444000D01*
X56004188Y-92568482D01*
X56040498Y-92688180D01*
X56099463Y-92798494D01*
X56178815Y-92895185D01*
X56275506Y-92974537D01*
X56385820Y-93033502D01*
X56503019Y-93069054D01*
X56411750Y-93059000D01*
X56253000Y-93217750D01*
X56253000Y-94096000D01*
X56273000Y-94096000D01*
X56273000Y-94542000D01*
X56253000Y-94542000D01*
X56253000Y-95420250D01*
X56376750Y-95544000D01*
X56313000Y-95607750D01*
X56313000Y-96596000D01*
X56333000Y-96596000D01*
X56333000Y-97042000D01*
X56313000Y-97042000D01*
X56313000Y-98030250D01*
X56364250Y-98081500D01*
X56253000Y-98192750D01*
X56253000Y-99096000D01*
X56273000Y-99096000D01*
X56273000Y-99542000D01*
X56253000Y-99542000D01*
X56253000Y-100202095D01*
X56226142Y-100242291D01*
X56148121Y-100430649D01*
X56108347Y-100630608D01*
X56108347Y-100834486D01*
X56135436Y-100970673D01*
X56099463Y-101014506D01*
X56040498Y-101124820D01*
X56004188Y-101244518D01*
X55991928Y-101369000D01*
X55991928Y-102162000D01*
X55968072Y-102162000D01*
X55968072Y-101369000D01*
X55955812Y-101244518D01*
X55919502Y-101124820D01*
X55860537Y-101014506D01*
X55807000Y-100949271D01*
X55807000Y-100892750D01*
X55648250Y-100734000D01*
X55544089Y-100745571D01*
X55504524Y-100758368D01*
X55454482Y-100743188D01*
X55330000Y-100730928D01*
X54730000Y-100730928D01*
X54605518Y-100743188D01*
X54485820Y-100779498D01*
X54375506Y-100838463D01*
X54278815Y-100917815D01*
X54212424Y-100998713D01*
X54159774Y-100946063D01*
X53990256Y-100832795D01*
X53801898Y-100754774D01*
X53601939Y-100715000D01*
X53398061Y-100715000D01*
X53372922Y-100720000D01*
X53334494Y-100688463D01*
X53224180Y-100629498D01*
X53104482Y-100593188D01*
X52980000Y-100580928D01*
X51980000Y-100580928D01*
X51855518Y-100593188D01*
X51735820Y-100629498D01*
X51625506Y-100688463D01*
X51528815Y-100767815D01*
X51449463Y-100864506D01*
X51390498Y-100974820D01*
X51354188Y-101094518D01*
X51341928Y-101219000D01*
X51341928Y-102469000D01*
X51354188Y-102593482D01*
X51390498Y-102713180D01*
X51449463Y-102823494D01*
X51528815Y-102920185D01*
X51625506Y-102999537D01*
X51735820Y-103058502D01*
X51855518Y-103094812D01*
X51980000Y-103107072D01*
X52980000Y-103107072D01*
X53104482Y-103094812D01*
X53224180Y-103058502D01*
X53334494Y-102999537D01*
X53431185Y-102920185D01*
X53510537Y-102823494D01*
X53531113Y-102785000D01*
X53601939Y-102785000D01*
X53801898Y-102745226D01*
X53990256Y-102667205D01*
X54103966Y-102591227D01*
X54104188Y-102593482D01*
X54140498Y-102713180D01*
X54199463Y-102823494D01*
X54202725Y-102827469D01*
X54200506Y-102850000D01*
X54216445Y-103011826D01*
X54263647Y-103167433D01*
X54340301Y-103310842D01*
X54393380Y-103375518D01*
X54443460Y-103436541D01*
X54474961Y-103462393D01*
X54567338Y-103554770D01*
X54485820Y-103579498D01*
X54375506Y-103638463D01*
X54278815Y-103717815D01*
X54199463Y-103814506D01*
X54140498Y-103924820D01*
X54127248Y-103968500D01*
X53582752Y-103968500D01*
X53569502Y-103924820D01*
X53510537Y-103814506D01*
X53431185Y-103717815D01*
X53334494Y-103638463D01*
X53224180Y-103579498D01*
X53104482Y-103543188D01*
X52980000Y-103530928D01*
X51980000Y-103530928D01*
X51855518Y-103543188D01*
X51735820Y-103579498D01*
X51625506Y-103638463D01*
X51528815Y-103717815D01*
X51449463Y-103814506D01*
X51390498Y-103924820D01*
X51354188Y-104044518D01*
X51341928Y-104169000D01*
X51341928Y-105419000D01*
X51354188Y-105543482D01*
X51390498Y-105663180D01*
X51449463Y-105773494D01*
X51528815Y-105870185D01*
X51625506Y-105949537D01*
X51654501Y-105965035D01*
X51654501Y-106762142D01*
X51650506Y-106802702D01*
X51666445Y-106964528D01*
X51713647Y-107120135D01*
X51790301Y-107263544D01*
X51826204Y-107307291D01*
X51893460Y-107389243D01*
X51924961Y-107415095D01*
X53993403Y-109483538D01*
X54019256Y-109515040D01*
X54079631Y-109564588D01*
X54144954Y-109618198D01*
X54229401Y-109663336D01*
X54288363Y-109694852D01*
X54443971Y-109742055D01*
X54565244Y-109753999D01*
X54565246Y-109753999D01*
X54605797Y-109757993D01*
X54646347Y-109753999D01*
X57586566Y-109753999D01*
X57952999Y-110120433D01*
X57953000Y-111716641D01*
X57949005Y-111757201D01*
X57964944Y-111919027D01*
X58012146Y-112074634D01*
X58088800Y-112218043D01*
X58126365Y-112263815D01*
X58191959Y-112343742D01*
X58223460Y-112369594D01*
X59108904Y-113255039D01*
X59134757Y-113286541D01*
X59198679Y-113339000D01*
X59260455Y-113389699D01*
X59370836Y-113448699D01*
X59403864Y-113466353D01*
X59559472Y-113513556D01*
X59680745Y-113525500D01*
X59680747Y-113525500D01*
X59721297Y-113529494D01*
X59761848Y-113525500D01*
X63928443Y-113525500D01*
X63995506Y-113580537D01*
X64105820Y-113639502D01*
X64225518Y-113675812D01*
X64350000Y-113688072D01*
X65650000Y-113688072D01*
X65774482Y-113675812D01*
X65894180Y-113639502D01*
X66004494Y-113580537D01*
X66101185Y-113501185D01*
X66180537Y-113404494D01*
X66239502Y-113294180D01*
X66275812Y-113174482D01*
X66288072Y-113050000D01*
X66288072Y-112350000D01*
X66281670Y-112285000D01*
X66556928Y-112285000D01*
X66556928Y-113339000D01*
X66569188Y-113463482D01*
X66605498Y-113583180D01*
X66664463Y-113693494D01*
X66743815Y-113790185D01*
X66840506Y-113869537D01*
X66950820Y-113928502D01*
X67070518Y-113964812D01*
X67195000Y-113977072D01*
X68665000Y-113977072D01*
X68789482Y-113964812D01*
X68909180Y-113928502D01*
X69019494Y-113869537D01*
X69116185Y-113790185D01*
X69195537Y-113693494D01*
X69253796Y-113584500D01*
X74099450Y-113584500D01*
X74140000Y-113588494D01*
X74180550Y-113584500D01*
X74180553Y-113584500D01*
X74301826Y-113572556D01*
X74457434Y-113525353D01*
X74600842Y-113448699D01*
X74726541Y-113345541D01*
X74752398Y-113314034D01*
X76785041Y-111281392D01*
X76816541Y-111255541D01*
X76919699Y-111129842D01*
X76996353Y-110986434D01*
X77043556Y-110830826D01*
X77055500Y-110709553D01*
X77055500Y-110709544D01*
X77059493Y-110669001D01*
X77055500Y-110628458D01*
X77055500Y-109333479D01*
X77192569Y-109241893D01*
X77402893Y-109031569D01*
X77480000Y-108916170D01*
X77557107Y-109031569D01*
X77767431Y-109241893D01*
X78014747Y-109407144D01*
X78289549Y-109520971D01*
X78581278Y-109579000D01*
X78878722Y-109579000D01*
X79170451Y-109520971D01*
X79445253Y-109407144D01*
X79692569Y-109241893D01*
X79902893Y-109031569D01*
X79980000Y-108916170D01*
X80057107Y-109031569D01*
X80267431Y-109241893D01*
X80514747Y-109407144D01*
X80789549Y-109520971D01*
X81081278Y-109579000D01*
X81378722Y-109579000D01*
X81670451Y-109520971D01*
X81945253Y-109407144D01*
X82192569Y-109241893D01*
X82402893Y-109031569D01*
X82480000Y-108916170D01*
X82557107Y-109031569D01*
X82767431Y-109241893D01*
X83014747Y-109407144D01*
X83289549Y-109520971D01*
X83581278Y-109579000D01*
X83878722Y-109579000D01*
X84040407Y-109546839D01*
X88498607Y-114005040D01*
X88524459Y-114036541D01*
X88585511Y-114086645D01*
X88650157Y-114139699D01*
X88734909Y-114185000D01*
X88793566Y-114216353D01*
X88949174Y-114263556D01*
X89070447Y-114275500D01*
X89070449Y-114275500D01*
X89110999Y-114279494D01*
X89151550Y-114275500D01*
X94410841Y-114275500D01*
X94414188Y-114309482D01*
X94450498Y-114429180D01*
X94509463Y-114539494D01*
X94588815Y-114636185D01*
X94685506Y-114715537D01*
X94795820Y-114774502D01*
X94915518Y-114810812D01*
X95040000Y-114823072D01*
X96200000Y-114823072D01*
X96324482Y-114810812D01*
X96444180Y-114774502D01*
X96510000Y-114739320D01*
X96575820Y-114774502D01*
X96695518Y-114810812D01*
X96820000Y-114823072D01*
X97980000Y-114823072D01*
X98104482Y-114810812D01*
X98224180Y-114774502D01*
X98334494Y-114715537D01*
X98431185Y-114636185D01*
X98510537Y-114539494D01*
X98569502Y-114429180D01*
X98605812Y-114309482D01*
X98609159Y-114275500D01*
X98667661Y-114275500D01*
X98708211Y-114279494D01*
X98748761Y-114275500D01*
X98748764Y-114275500D01*
X98870037Y-114263556D01*
X99025645Y-114216353D01*
X99169053Y-114139699D01*
X99294752Y-114036541D01*
X99320609Y-114005034D01*
X101426555Y-111899090D01*
X101458051Y-111873242D01*
X101483899Y-111841746D01*
X101483902Y-111841743D01*
X101561209Y-111747544D01*
X101637863Y-111604135D01*
X101650841Y-111561353D01*
X101685066Y-111448527D01*
X101697010Y-111327254D01*
X101697010Y-111327252D01*
X101701004Y-111286701D01*
X101697010Y-111246151D01*
X101697010Y-109362052D01*
X101701003Y-109321509D01*
X101697010Y-109280966D01*
X101697010Y-109280957D01*
X101685066Y-109159684D01*
X101637863Y-109004076D01*
X101625500Y-108980947D01*
X101625500Y-108490553D01*
X101629494Y-108450000D01*
X101613556Y-108288174D01*
X101604073Y-108256914D01*
X101675506Y-108315537D01*
X101785820Y-108374502D01*
X101905518Y-108410812D01*
X102030000Y-108423072D01*
X103190000Y-108423072D01*
X103314482Y-108410812D01*
X103434180Y-108374502D01*
X103500000Y-108339320D01*
X103565820Y-108374502D01*
X103685518Y-108410812D01*
X103810000Y-108423072D01*
X104008250Y-108420000D01*
X104167000Y-108261250D01*
X104167000Y-107273000D01*
X104613000Y-107273000D01*
X104613000Y-108261250D01*
X104771750Y-108420000D01*
X104970000Y-108423072D01*
X105094482Y-108410812D01*
X105214180Y-108374502D01*
X105324494Y-108315537D01*
X105421185Y-108236185D01*
X105500537Y-108139494D01*
X105559502Y-108029180D01*
X105595812Y-107909482D01*
X105608072Y-107785000D01*
X105605000Y-107431750D01*
X105446250Y-107273000D01*
X104613000Y-107273000D01*
X104167000Y-107273000D01*
X104147000Y-107273000D01*
X104147000Y-106827000D01*
X104167000Y-106827000D01*
X104167000Y-106807000D01*
X104613000Y-106807000D01*
X104613000Y-106827000D01*
X105446250Y-106827000D01*
X105605000Y-106668250D01*
X105607289Y-106405012D01*
X106569565Y-106405012D01*
X106606988Y-106408698D01*
X106644411Y-106405012D01*
X106644414Y-106405012D01*
X106756366Y-106393986D01*
X106900003Y-106350414D01*
X107032380Y-106279657D01*
X107148410Y-106184434D01*
X107172272Y-106155358D01*
X109215000Y-104112631D01*
X109215000Y-116715000D01*
X50927000Y-116715000D01*
X50927000Y-99958532D01*
X55042014Y-99958532D01*
X55052230Y-100083198D01*
X55086572Y-100203475D01*
X55143718Y-100314742D01*
X55221474Y-100412722D01*
X55316850Y-100493650D01*
X55426182Y-100554416D01*
X55545268Y-100592685D01*
X55648250Y-100604000D01*
X55807000Y-100445250D01*
X55807000Y-99542000D01*
X55203750Y-99542000D01*
X55045000Y-99700750D01*
X55042014Y-99958532D01*
X50927000Y-99958532D01*
X50927000Y-97554000D01*
X54871928Y-97554000D01*
X54884188Y-97678482D01*
X54920498Y-97798180D01*
X54979463Y-97908494D01*
X55058815Y-98005185D01*
X55155506Y-98084537D01*
X55265820Y-98143502D01*
X55304147Y-98155128D01*
X55221474Y-98225278D01*
X55143718Y-98323258D01*
X55086572Y-98434525D01*
X55052230Y-98554802D01*
X55042014Y-98679468D01*
X55045000Y-98937250D01*
X55203750Y-99096000D01*
X55807000Y-99096000D01*
X55807000Y-98192750D01*
X55755750Y-98141500D01*
X55867000Y-98030250D01*
X55867000Y-97042000D01*
X55033750Y-97042000D01*
X54875000Y-97200750D01*
X54871928Y-97554000D01*
X50927000Y-97554000D01*
X50927000Y-96084000D01*
X54871928Y-96084000D01*
X54875000Y-96437250D01*
X55033750Y-96596000D01*
X55867000Y-96596000D01*
X55867000Y-95607750D01*
X55743250Y-95484000D01*
X55807000Y-95420250D01*
X55807000Y-94542000D01*
X55203750Y-94542000D01*
X55045000Y-94700750D01*
X55042018Y-94933254D01*
X55052181Y-95057925D01*
X55086470Y-95178217D01*
X55143568Y-95289509D01*
X55221280Y-95387523D01*
X55316622Y-95468492D01*
X55328946Y-95475349D01*
X55265820Y-95494498D01*
X55155506Y-95553463D01*
X55058815Y-95632815D01*
X54979463Y-95729506D01*
X54920498Y-95839820D01*
X54884188Y-95959518D01*
X54871928Y-96084000D01*
X50927000Y-96084000D01*
X50927000Y-93704746D01*
X55042018Y-93704746D01*
X55045000Y-93937250D01*
X55203750Y-94096000D01*
X55807000Y-94096000D01*
X55807000Y-93217750D01*
X55648250Y-93059000D01*
X55544997Y-93070374D01*
X55425927Y-93108694D01*
X55316622Y-93169508D01*
X55221280Y-93250477D01*
X55143568Y-93348491D01*
X55086470Y-93459783D01*
X55052181Y-93580075D01*
X55042018Y-93704746D01*
X50927000Y-93704746D01*
X50927000Y-79144000D01*
X58691928Y-79144000D01*
X58704188Y-79268482D01*
X58740498Y-79388180D01*
X58799463Y-79498494D01*
X58878815Y-79595185D01*
X58975506Y-79674537D01*
X59085820Y-79733502D01*
X59205518Y-79769812D01*
X59330000Y-79782072D01*
X59848250Y-79779000D01*
X60007000Y-79620250D01*
X60007000Y-78802000D01*
X60453000Y-78802000D01*
X60453000Y-79620250D01*
X60611750Y-79779000D01*
X61130000Y-79782072D01*
X61254482Y-79769812D01*
X61374180Y-79733502D01*
X61484494Y-79674537D01*
X61581185Y-79595185D01*
X61660537Y-79498494D01*
X61719502Y-79388180D01*
X61755812Y-79268482D01*
X61768072Y-79144000D01*
X61765000Y-78960750D01*
X61606250Y-78802000D01*
X60453000Y-78802000D01*
X60007000Y-78802000D01*
X58853750Y-78802000D01*
X58695000Y-78960750D01*
X58691928Y-79144000D01*
X50927000Y-79144000D01*
X50927000Y-78014000D01*
X58691928Y-78014000D01*
X58695000Y-78197250D01*
X58853750Y-78356000D01*
X60007000Y-78356000D01*
X60007000Y-77537750D01*
X60453000Y-77537750D01*
X60453000Y-78356000D01*
X61606250Y-78356000D01*
X61765000Y-78197250D01*
X61768072Y-78014000D01*
X61755812Y-77889518D01*
X61719502Y-77769820D01*
X61660537Y-77659506D01*
X61581185Y-77562815D01*
X61484494Y-77483463D01*
X61374180Y-77424498D01*
X61254482Y-77388188D01*
X61130000Y-77375928D01*
X60611750Y-77379000D01*
X60453000Y-77537750D01*
X60007000Y-77537750D01*
X59848250Y-77379000D01*
X59330000Y-77375928D01*
X59205518Y-77388188D01*
X59085820Y-77424498D01*
X58975506Y-77483463D01*
X58878815Y-77562815D01*
X58799463Y-77659506D01*
X58740498Y-77769820D01*
X58704188Y-77889518D01*
X58691928Y-78014000D01*
X50927000Y-78014000D01*
X50927000Y-76969000D01*
X64741928Y-76969000D01*
X64754188Y-77093482D01*
X64790498Y-77213180D01*
X64849463Y-77323494D01*
X64928815Y-77420185D01*
X65025506Y-77499537D01*
X65135820Y-77558502D01*
X65255518Y-77594812D01*
X65380000Y-77607072D01*
X66598250Y-77604000D01*
X66757000Y-77445250D01*
X66757000Y-76692000D01*
X67203000Y-76692000D01*
X67203000Y-77445250D01*
X67361750Y-77604000D01*
X68580000Y-77607072D01*
X68704482Y-77594812D01*
X68824180Y-77558502D01*
X68934494Y-77499537D01*
X69031185Y-77420185D01*
X69110537Y-77323494D01*
X69169502Y-77213180D01*
X69177443Y-77187000D01*
X72631000Y-77187000D01*
X72631000Y-94187000D01*
X72633440Y-94211776D01*
X72640667Y-94235601D01*
X72652403Y-94257557D01*
X72668197Y-94276803D01*
X72687443Y-94292597D01*
X72709399Y-94304333D01*
X72733224Y-94311560D01*
X72758000Y-94314000D01*
X86758000Y-94314000D01*
X86782776Y-94311560D01*
X86806601Y-94304333D01*
X86828557Y-94292597D01*
X86847803Y-94276803D01*
X86863597Y-94257557D01*
X86875333Y-94235601D01*
X86882560Y-94211776D01*
X86885000Y-94187000D01*
X86885000Y-93530000D01*
X96626928Y-93530000D01*
X96630000Y-93728250D01*
X96788750Y-93887000D01*
X97777000Y-93887000D01*
X97777000Y-93053750D01*
X98223000Y-93053750D01*
X98223000Y-93887000D01*
X99211250Y-93887000D01*
X99370000Y-93728250D01*
X99373072Y-93530000D01*
X99360812Y-93405518D01*
X99324502Y-93285820D01*
X99265537Y-93175506D01*
X99186185Y-93078815D01*
X99089494Y-92999463D01*
X98979180Y-92940498D01*
X98859482Y-92904188D01*
X98735000Y-92891928D01*
X98381750Y-92895000D01*
X98223000Y-93053750D01*
X97777000Y-93053750D01*
X97618250Y-92895000D01*
X97265000Y-92891928D01*
X97140518Y-92904188D01*
X97020820Y-92940498D01*
X96910506Y-92999463D01*
X96813815Y-93078815D01*
X96734463Y-93175506D01*
X96675498Y-93285820D01*
X96639188Y-93405518D01*
X96626928Y-93530000D01*
X86885000Y-93530000D01*
X86885000Y-77695000D01*
X98211928Y-77695000D01*
X98215000Y-77878250D01*
X98373750Y-78037000D01*
X99527000Y-78037000D01*
X99527000Y-77218750D01*
X99973000Y-77218750D01*
X99973000Y-78037000D01*
X101126250Y-78037000D01*
X101285000Y-77878250D01*
X101288072Y-77695000D01*
X101275812Y-77570518D01*
X101239502Y-77450820D01*
X101180537Y-77340506D01*
X101101185Y-77243815D01*
X101004494Y-77164463D01*
X100894180Y-77105498D01*
X100774482Y-77069188D01*
X100650000Y-77056928D01*
X100131750Y-77060000D01*
X99973000Y-77218750D01*
X99527000Y-77218750D01*
X99368250Y-77060000D01*
X98850000Y-77056928D01*
X98725518Y-77069188D01*
X98605820Y-77105498D01*
X98495506Y-77164463D01*
X98398815Y-77243815D01*
X98319463Y-77340506D01*
X98260498Y-77450820D01*
X98224188Y-77570518D01*
X98211928Y-77695000D01*
X86885000Y-77695000D01*
X86885000Y-77187000D01*
X86882560Y-77162224D01*
X86875333Y-77138399D01*
X86863597Y-77116443D01*
X86847803Y-77097197D01*
X86828557Y-77081403D01*
X86806601Y-77069667D01*
X86782776Y-77062440D01*
X86758000Y-77060000D01*
X72758000Y-77060000D01*
X72733224Y-77062440D01*
X72709399Y-77069667D01*
X72687443Y-77081403D01*
X72668197Y-77097197D01*
X72652403Y-77116443D01*
X72640667Y-77138399D01*
X72633440Y-77162224D01*
X72631000Y-77187000D01*
X69177443Y-77187000D01*
X69205812Y-77093482D01*
X69218072Y-76969000D01*
X69216280Y-76900000D01*
X90761928Y-76900000D01*
X90774188Y-77024482D01*
X90810498Y-77144180D01*
X90869463Y-77254494D01*
X90948815Y-77351185D01*
X91045506Y-77430537D01*
X91155820Y-77489502D01*
X91275518Y-77525812D01*
X91400000Y-77538072D01*
X92618250Y-77535000D01*
X92777000Y-77376250D01*
X92777000Y-76623000D01*
X93223000Y-76623000D01*
X93223000Y-77376250D01*
X93381750Y-77535000D01*
X94600000Y-77538072D01*
X94724482Y-77525812D01*
X94844180Y-77489502D01*
X94954494Y-77430537D01*
X95051185Y-77351185D01*
X95130537Y-77254494D01*
X95189502Y-77144180D01*
X95225812Y-77024482D01*
X95238072Y-76900000D01*
X95235000Y-76781750D01*
X95076250Y-76623000D01*
X93223000Y-76623000D01*
X92777000Y-76623000D01*
X90923750Y-76623000D01*
X90765000Y-76781750D01*
X90761928Y-76900000D01*
X69216280Y-76900000D01*
X69215000Y-76850750D01*
X69056250Y-76692000D01*
X67203000Y-76692000D01*
X66757000Y-76692000D01*
X64903750Y-76692000D01*
X64745000Y-76850750D01*
X64741928Y-76969000D01*
X50927000Y-76969000D01*
X50927000Y-76687000D01*
X50924560Y-76662224D01*
X50917333Y-76638399D01*
X50905597Y-76616443D01*
X50889803Y-76597197D01*
X50870557Y-76581403D01*
X50848601Y-76569667D01*
X50824776Y-76562440D01*
X50800000Y-76560000D01*
X50785000Y-76560000D01*
X50785000Y-75969000D01*
X64741928Y-75969000D01*
X64745000Y-76087250D01*
X64903750Y-76246000D01*
X66757000Y-76246000D01*
X66757000Y-75492750D01*
X67203000Y-75492750D01*
X67203000Y-76246000D01*
X69056250Y-76246000D01*
X69215000Y-76087250D01*
X69218072Y-75969000D01*
X69211277Y-75900000D01*
X90761928Y-75900000D01*
X90765000Y-76018250D01*
X90923750Y-76177000D01*
X92777000Y-76177000D01*
X92777000Y-75423750D01*
X93223000Y-75423750D01*
X93223000Y-76177000D01*
X95076250Y-76177000D01*
X95235000Y-76018250D01*
X95238072Y-75900000D01*
X95225812Y-75775518D01*
X95189502Y-75655820D01*
X95130537Y-75545506D01*
X95051185Y-75448815D01*
X94954494Y-75369463D01*
X94844180Y-75310498D01*
X94724482Y-75274188D01*
X94600000Y-75261928D01*
X93381750Y-75265000D01*
X93223000Y-75423750D01*
X92777000Y-75423750D01*
X92618250Y-75265000D01*
X91400000Y-75261928D01*
X91275518Y-75274188D01*
X91155820Y-75310498D01*
X91045506Y-75369463D01*
X90948815Y-75448815D01*
X90869463Y-75545506D01*
X90810498Y-75655820D01*
X90774188Y-75775518D01*
X90761928Y-75900000D01*
X69211277Y-75900000D01*
X69205812Y-75844518D01*
X69169502Y-75724820D01*
X69110537Y-75614506D01*
X69031185Y-75517815D01*
X68934494Y-75438463D01*
X68824180Y-75379498D01*
X68704482Y-75343188D01*
X68580000Y-75330928D01*
X67361750Y-75334000D01*
X67203000Y-75492750D01*
X66757000Y-75492750D01*
X66598250Y-75334000D01*
X65380000Y-75330928D01*
X65255518Y-75343188D01*
X65135820Y-75379498D01*
X65025506Y-75438463D01*
X64928815Y-75517815D01*
X64849463Y-75614506D01*
X64790498Y-75724820D01*
X64754188Y-75844518D01*
X64741928Y-75969000D01*
X50785000Y-75969000D01*
X50785000Y-71314000D01*
X90258000Y-71314000D01*
X90282776Y-71311560D01*
X90306601Y-71304333D01*
X90328557Y-71292597D01*
X90347803Y-71276803D01*
X90363597Y-71257557D01*
X90375333Y-71235601D01*
X90382560Y-71211776D01*
X90385000Y-71187000D01*
X90385000Y-70187000D01*
X90382560Y-70162224D01*
X90375333Y-70138399D01*
X90363597Y-70116443D01*
X90347803Y-70097197D01*
X90328557Y-70081403D01*
X90306601Y-70069667D01*
X90282776Y-70062440D01*
X90258000Y-70060000D01*
X50785000Y-70060000D01*
X50785000Y-66305000D01*
X65211928Y-66305000D01*
X65224188Y-66429482D01*
X65260498Y-66549180D01*
X65319463Y-66659494D01*
X65398815Y-66756185D01*
X65495506Y-66835537D01*
X65605820Y-66894502D01*
X65725518Y-66930812D01*
X65850000Y-66943072D01*
X66368250Y-66940000D01*
X66527000Y-66781250D01*
X66527000Y-65963000D01*
X66973000Y-65963000D01*
X66973000Y-66781250D01*
X67131750Y-66940000D01*
X67650000Y-66943072D01*
X67774482Y-66930812D01*
X67894180Y-66894502D01*
X68004494Y-66835537D01*
X68101185Y-66756185D01*
X68180537Y-66659494D01*
X68239502Y-66549180D01*
X68275812Y-66429482D01*
X68288072Y-66305000D01*
X68285000Y-66121750D01*
X68126250Y-65963000D01*
X66973000Y-65963000D01*
X66527000Y-65963000D01*
X65373750Y-65963000D01*
X65215000Y-66121750D01*
X65211928Y-66305000D01*
X50785000Y-66305000D01*
X50785000Y-65314000D01*
X65214258Y-65314000D01*
X65215000Y-65358250D01*
G36*
X96440766Y-97880000D02*
G01*
X96386998Y-97880000D01*
X96386998Y-98038748D01*
X96228250Y-97880000D01*
X96030000Y-97876928D01*
X95905518Y-97889188D01*
X95785820Y-97925498D01*
X95675506Y-97984463D01*
X95578815Y-98063815D01*
X95499463Y-98160506D01*
X95440498Y-98270820D01*
X95404188Y-98390518D01*
X95391928Y-98515000D01*
X95395000Y-98868250D01*
X95553750Y-99027000D01*
X96387000Y-99027000D01*
X96387000Y-99007000D01*
X96833000Y-99007000D01*
X96833000Y-99027000D01*
X96853000Y-99027000D01*
X96853000Y-99473000D01*
X96833000Y-99473000D01*
X96833000Y-100461250D01*
X96991750Y-100620000D01*
X97190000Y-100623072D01*
X97314482Y-100610812D01*
X97434180Y-100574502D01*
X97500000Y-100539320D01*
X97565820Y-100574502D01*
X97685518Y-100610812D01*
X97696849Y-100611928D01*
X97350000Y-100611928D01*
X97225518Y-100624188D01*
X97105820Y-100660498D01*
X96995506Y-100719463D01*
X96898815Y-100798815D01*
X96819463Y-100895506D01*
X96760498Y-101005820D01*
X96724188Y-101125518D01*
X96711928Y-101250000D01*
X96711928Y-102250000D01*
X96724188Y-102374482D01*
X96760498Y-102494180D01*
X96819463Y-102604494D01*
X96898815Y-102701185D01*
X96995506Y-102780537D01*
X97105820Y-102839502D01*
X97225518Y-102875812D01*
X97350000Y-102888072D01*
X98600000Y-102888072D01*
X98724482Y-102875812D01*
X98844180Y-102839502D01*
X98954494Y-102780537D01*
X98973174Y-102765207D01*
X98932165Y-102826581D01*
X98854144Y-103014939D01*
X98814370Y-103214898D01*
X98814370Y-103274206D01*
X98350577Y-103738000D01*
X95505413Y-103738000D01*
X95495812Y-103640518D01*
X95459502Y-103520820D01*
X95400537Y-103410506D01*
X95321185Y-103313815D01*
X95224494Y-103234463D01*
X95114180Y-103175498D01*
X94994482Y-103139188D01*
X94870000Y-103126928D01*
X93710000Y-103126928D01*
X93585518Y-103139188D01*
X93465820Y-103175498D01*
X93400000Y-103210680D01*
X93334180Y-103175498D01*
X93214482Y-103139188D01*
X93090000Y-103126928D01*
X91930000Y-103126928D01*
X91805518Y-103139188D01*
X91749000Y-103156333D01*
X91749000Y-103123072D01*
X92870000Y-103123072D01*
X92994482Y-103110812D01*
X93114180Y-103074502D01*
X93224494Y-103015537D01*
X93321185Y-102936185D01*
X93400537Y-102839494D01*
X93459502Y-102729180D01*
X93486858Y-102639000D01*
X93897781Y-102639000D01*
X93948815Y-102701185D01*
X94045506Y-102780537D01*
X94155820Y-102839502D01*
X94275518Y-102875812D01*
X94400000Y-102888072D01*
X95650000Y-102888072D01*
X95774482Y-102875812D01*
X95894180Y-102839502D01*
X96004494Y-102780537D01*
X96101185Y-102701185D01*
X96180537Y-102604494D01*
X96239502Y-102494180D01*
X96275812Y-102374482D01*
X96288072Y-102250000D01*
X96288072Y-101250000D01*
X96275812Y-101125518D01*
X96239502Y-101005820D01*
X96180537Y-100895506D01*
X96101185Y-100798815D01*
X96004494Y-100719463D01*
X95894180Y-100660498D01*
X95774482Y-100624188D01*
X95650000Y-100611928D01*
X94400000Y-100611928D01*
X94275518Y-100624188D01*
X94155820Y-100660498D01*
X94045506Y-100719463D01*
X93948815Y-100798815D01*
X93897781Y-100861000D01*
X93486858Y-100861000D01*
X93459502Y-100770820D01*
X93400537Y-100660506D01*
X93321185Y-100563815D01*
X93224494Y-100484463D01*
X93114180Y-100425498D01*
X92994482Y-100389188D01*
X92870000Y-100376928D01*
X91710000Y-100376928D01*
X91585518Y-100389188D01*
X91465820Y-100425498D01*
X91400000Y-100460680D01*
X91399000Y-100460146D01*
X91399000Y-99985000D01*
X95391928Y-99985000D01*
X95404188Y-100109482D01*
X95440498Y-100229180D01*
X95499463Y-100339494D01*
X95578815Y-100436185D01*
X95675506Y-100515537D01*
X95785820Y-100574502D01*
X95905518Y-100610812D01*
X96030000Y-100623072D01*
X96228250Y-100620000D01*
X96387000Y-100461250D01*
X96387000Y-99473000D01*
X95553750Y-99473000D01*
X95395000Y-99631750D01*
X95391928Y-99985000D01*
X91399000Y-99985000D01*
X91399000Y-99951702D01*
X91436185Y-99921185D01*
X91503632Y-99839000D01*
X92011339Y-99839000D01*
X92105820Y-99889502D01*
X92225518Y-99925812D01*
X92350000Y-99938072D01*
X93650000Y-99938072D01*
X93774482Y-99925812D01*
X93894180Y-99889502D01*
X94004494Y-99830537D01*
X94101185Y-99751185D01*
X94180537Y-99654494D01*
X94239502Y-99544180D01*
X94275812Y-99424482D01*
X94288072Y-99300000D01*
X94288072Y-98600000D01*
X94275812Y-98475518D01*
X94239502Y-98355820D01*
X94180537Y-98245506D01*
X94101185Y-98148815D01*
X94004494Y-98069463D01*
X93894180Y-98010498D01*
X93860487Y-98000277D01*
X93884475Y-97993428D01*
X93995742Y-97936282D01*
X94093722Y-97858526D01*
X94174650Y-97763150D01*
X94235416Y-97653818D01*
X94273685Y-97534732D01*
X94285000Y-97431750D01*
X94126250Y-97273000D01*
X93223000Y-97273000D01*
X93223000Y-97293000D01*
X92777000Y-97293000D01*
X92777000Y-97273000D01*
X91873750Y-97273000D01*
X91715000Y-97431750D01*
X91726315Y-97534732D01*
X91764584Y-97653818D01*
X91825350Y-97763150D01*
X91906278Y-97858526D01*
X92004258Y-97936282D01*
X92115525Y-97993428D01*
X92139513Y-98000277D01*
X92105820Y-98010498D01*
X92011339Y-98061000D01*
X91571926Y-98061000D01*
X91539320Y-98000000D01*
X91574502Y-97934180D01*
X91610812Y-97814482D01*
X91623072Y-97690000D01*
X91620000Y-97491750D01*
X91461250Y-97333000D01*
X90473000Y-97333000D01*
X90473000Y-97353000D01*
X90027000Y-97353000D01*
X90027000Y-97333000D01*
X89038750Y-97333000D01*
X88880000Y-97491750D01*
X88876928Y-97690000D01*
X88889188Y-97814482D01*
X88925498Y-97934180D01*
X88960680Y-98000000D01*
X88925498Y-98065820D01*
X88889188Y-98185518D01*
X88876928Y-98310000D01*
X88876928Y-99470000D01*
X88889188Y-99594482D01*
X88925498Y-99714180D01*
X88984463Y-99824494D01*
X89063815Y-99921185D01*
X89160506Y-100000537D01*
X89270820Y-100059502D01*
X89390518Y-100095812D01*
X89515000Y-100108072D01*
X89621001Y-100108072D01*
X89621000Y-100460145D01*
X89575506Y-100484463D01*
X89478815Y-100563815D01*
X89399463Y-100660506D01*
X89340498Y-100770820D01*
X89304188Y-100890518D01*
X89291928Y-101015000D01*
X89291928Y-102485000D01*
X89304188Y-102609482D01*
X89340498Y-102729180D01*
X89399463Y-102839494D01*
X89478815Y-102936185D01*
X89575506Y-103015537D01*
X89685820Y-103074502D01*
X89805518Y-103110812D01*
X89930000Y-103123072D01*
X89971000Y-103123072D01*
X89971001Y-107459330D01*
X89966700Y-107503000D01*
X89983864Y-107677274D01*
X90034698Y-107844852D01*
X90117248Y-107999291D01*
X90190193Y-108088174D01*
X90228342Y-108134659D01*
X90262259Y-108162494D01*
X92332501Y-110232736D01*
X92360341Y-110266659D01*
X92495709Y-110377753D01*
X92650149Y-110460303D01*
X92713787Y-110479607D01*
X92752338Y-110491301D01*
X92737272Y-110534658D01*
X92854412Y-110682000D01*
X93977000Y-110682000D01*
X93977000Y-110662000D01*
X94423000Y-110662000D01*
X94423000Y-110682000D01*
X95545588Y-110682000D01*
X95662728Y-110534658D01*
X95604185Y-110366184D01*
X95516604Y-110253554D01*
X95572960Y-110184884D01*
X95664424Y-110013767D01*
X95720747Y-109828094D01*
X95739765Y-109635000D01*
X95720747Y-109441906D01*
X95664424Y-109256233D01*
X95572960Y-109085116D01*
X95503107Y-109000000D01*
X95572960Y-108914884D01*
X95664424Y-108743767D01*
X95720747Y-108558094D01*
X95739765Y-108365000D01*
X95720747Y-108171906D01*
X95664424Y-107986233D01*
X95572960Y-107815116D01*
X95503107Y-107730000D01*
X95572960Y-107644884D01*
X95664424Y-107473767D01*
X95720747Y-107288094D01*
X95739765Y-107095000D01*
X95720747Y-106901906D01*
X95664424Y-106716233D01*
X95572960Y-106545116D01*
X95449870Y-106395130D01*
X95299884Y-106272040D01*
X95128767Y-106180576D01*
X95115500Y-106176552D01*
X95115500Y-105823796D01*
X95224494Y-105765537D01*
X95321185Y-105686185D01*
X95400537Y-105589494D01*
X95459502Y-105479180D01*
X95495812Y-105359482D01*
X95505413Y-105262000D01*
X98391960Y-105262000D01*
X96887649Y-106766312D01*
X96858579Y-106790169D01*
X96834722Y-106819239D01*
X96834721Y-106819240D01*
X96763355Y-106906199D01*
X96692599Y-107038576D01*
X96649027Y-107182213D01*
X96634314Y-107331591D01*
X96638001Y-107369024D01*
X96638000Y-110021577D01*
X96634314Y-110059000D01*
X96638000Y-110096423D01*
X96638000Y-110096425D01*
X96649026Y-110208377D01*
X96692598Y-110352014D01*
X96698779Y-110363578D01*
X96763355Y-110484392D01*
X96797693Y-110526233D01*
X96858578Y-110600422D01*
X96887654Y-110624284D01*
X97680716Y-111417346D01*
X97704578Y-111446422D01*
X97768028Y-111498494D01*
X97820607Y-111541645D01*
X97857479Y-111561353D01*
X97952985Y-111612402D01*
X98096622Y-111655974D01*
X98208574Y-111667000D01*
X98208577Y-111667000D01*
X98228190Y-111668932D01*
X98300116Y-111727960D01*
X98471233Y-111819424D01*
X98656906Y-111875747D01*
X98801620Y-111890000D01*
X99100778Y-111890000D01*
X98647037Y-112343742D01*
X98552245Y-112438534D01*
X98510537Y-112360506D01*
X98431185Y-112263815D01*
X98334494Y-112184463D01*
X98224180Y-112125498D01*
X98104482Y-112089188D01*
X97980000Y-112076928D01*
X96820000Y-112076928D01*
X96695518Y-112089188D01*
X96575820Y-112125498D01*
X96510000Y-112160680D01*
X96444180Y-112125498D01*
X96324482Y-112089188D01*
X96200000Y-112076928D01*
X95040000Y-112076928D01*
X94915518Y-112089188D01*
X94795820Y-112125498D01*
X94685506Y-112184463D01*
X94588815Y-112263815D01*
X94509463Y-112360506D01*
X94450498Y-112470820D01*
X94414188Y-112590518D01*
X94410841Y-112624500D01*
X89452933Y-112624500D01*
X88103775Y-111275342D01*
X92737272Y-111275342D01*
X92795815Y-111443816D01*
X92917346Y-111600106D01*
X93067032Y-111729683D01*
X93239121Y-111827568D01*
X93427000Y-111890000D01*
X93977000Y-111890000D01*
X93977000Y-111128000D01*
X94423000Y-111128000D01*
X94423000Y-111890000D01*
X94973000Y-111890000D01*
X95160879Y-111827568D01*
X95332968Y-111729683D01*
X95482654Y-111600106D01*
X95604185Y-111443816D01*
X95662728Y-111275342D01*
X95545588Y-111128000D01*
X94423000Y-111128000D01*
X93977000Y-111128000D01*
X92854412Y-111128000D01*
X92737272Y-111275342D01*
X88103775Y-111275342D01*
X86403789Y-109575357D01*
X86685035Y-109516465D01*
X86931754Y-109414272D01*
X87019929Y-109174299D01*
X86230000Y-108384370D01*
X86215858Y-108398512D01*
X85900488Y-108083142D01*
X85914630Y-108069000D01*
X86545370Y-108069000D01*
X87335299Y-108858929D01*
X87575272Y-108770754D01*
X87686328Y-108494820D01*
X87741418Y-108202523D01*
X87738426Y-107905094D01*
X87677465Y-107613965D01*
X87575272Y-107367246D01*
X87335299Y-107279071D01*
X86545370Y-108069000D01*
X85914630Y-108069000D01*
X85124701Y-107279071D01*
X85039231Y-107310476D01*
X84902893Y-107106431D01*
X84760163Y-106963701D01*
X85440071Y-106963701D01*
X86230000Y-107753630D01*
X87019929Y-106963701D01*
X86931754Y-106723728D01*
X86655820Y-106612672D01*
X86363523Y-106557582D01*
X86066094Y-106560574D01*
X85774965Y-106621535D01*
X85528246Y-106723728D01*
X85440071Y-106963701D01*
X84760163Y-106963701D01*
X84692569Y-106896107D01*
X84445253Y-106730856D01*
X84170451Y-106617029D01*
X83878722Y-106559000D01*
X83581278Y-106559000D01*
X83289549Y-106617029D01*
X83014747Y-106730856D01*
X82767431Y-106896107D01*
X82557107Y-107106431D01*
X82480000Y-107221830D01*
X82402893Y-107106431D01*
X82192569Y-106896107D01*
X81945253Y-106730856D01*
X81670451Y-106617029D01*
X81378722Y-106559000D01*
X81081278Y-106559000D01*
X80789549Y-106617029D01*
X80514747Y-106730856D01*
X80267431Y-106896107D01*
X80057107Y-107106431D01*
X79980000Y-107221830D01*
X79902893Y-107106431D01*
X79692569Y-106896107D01*
X79445253Y-106730856D01*
X79170451Y-106617029D01*
X78878722Y-106559000D01*
X78581278Y-106559000D01*
X78419594Y-106591161D01*
X77186639Y-105358207D01*
X77251898Y-105345226D01*
X77440256Y-105267205D01*
X77609774Y-105153937D01*
X77753937Y-105009774D01*
X77867205Y-104840256D01*
X77945226Y-104651898D01*
X77985000Y-104451939D01*
X77985000Y-104248061D01*
X77945226Y-104048102D01*
X77867205Y-103859744D01*
X77839000Y-103817532D01*
X77839000Y-103657659D01*
X77843300Y-103613999D01*
X77839000Y-103570339D01*
X77839000Y-103570333D01*
X77826136Y-103439726D01*
X77817273Y-103410506D01*
X77793233Y-103331259D01*
X77775303Y-103272149D01*
X77768072Y-103258621D01*
X77768072Y-102739307D01*
X78191928Y-103163164D01*
X78191928Y-103669000D01*
X78204188Y-103793482D01*
X78240498Y-103913180D01*
X78299463Y-104023494D01*
X78378815Y-104120185D01*
X78475506Y-104199537D01*
X78585820Y-104258502D01*
X78705518Y-104294812D01*
X78830000Y-104307072D01*
X80080000Y-104307072D01*
X80204482Y-104294812D01*
X80324180Y-104258502D01*
X80434494Y-104199537D01*
X80531185Y-104120185D01*
X80582219Y-104058000D01*
X81078906Y-104058000D01*
X81100498Y-104129180D01*
X81159463Y-104239494D01*
X81238815Y-104336185D01*
X81335506Y-104415537D01*
X81445820Y-104474502D01*
X81565518Y-104510812D01*
X81690000Y-104523072D01*
X82850000Y-104523072D01*
X82974482Y-104510812D01*
X83094180Y-104474502D01*
X83160000Y-104439320D01*
X83225820Y-104474502D01*
X83345518Y-104510812D01*
X83470000Y-104523072D01*
X83668250Y-104520000D01*
X83827000Y-104361250D01*
X83827000Y-103373000D01*
X84273000Y-103373000D01*
X84273000Y-104361250D01*
X84431750Y-104520000D01*
X84630000Y-104523072D01*
X84754482Y-104510812D01*
X84874180Y-104474502D01*
X84984494Y-104415537D01*
X85081185Y-104336185D01*
X85160537Y-104239494D01*
X85219502Y-104129180D01*
X85255812Y-104009482D01*
X85268072Y-103885000D01*
X85265000Y-103531750D01*
X85106250Y-103373000D01*
X84273000Y-103373000D01*
X83827000Y-103373000D01*
X83807000Y-103373000D01*
X83807000Y-102927000D01*
X83827000Y-102927000D01*
X83827000Y-101938750D01*
X84273000Y-101938750D01*
X84273000Y-102927000D01*
X85106250Y-102927000D01*
X85265000Y-102768250D01*
X85268072Y-102415000D01*
X85255812Y-102290518D01*
X85219502Y-102170820D01*
X85160537Y-102060506D01*
X85081185Y-101963815D01*
X84984494Y-101884463D01*
X84874180Y-101825498D01*
X84754482Y-101789188D01*
X84630000Y-101776928D01*
X84431750Y-101780000D01*
X84273000Y-101938750D01*
X83827000Y-101938750D01*
X83668250Y-101780000D01*
X83667251Y-101779985D01*
X84289164Y-101158072D01*
X84985000Y-101158072D01*
X85109482Y-101145812D01*
X85229180Y-101109502D01*
X85339494Y-101050537D01*
X85436185Y-100971185D01*
X85515537Y-100874494D01*
X85574502Y-100764180D01*
X85610812Y-100644482D01*
X85623072Y-100520000D01*
X85623072Y-99360000D01*
X85610812Y-99235518D01*
X85574502Y-99115820D01*
X85539320Y-99050000D01*
X85574502Y-98984180D01*
X85610812Y-98864482D01*
X85623072Y-98740000D01*
X85620000Y-98541750D01*
X85461250Y-98383000D01*
X84473000Y-98383000D01*
X84473000Y-98403000D01*
X84027000Y-98403000D01*
X84027000Y-98383000D01*
X84007000Y-98383000D01*
X84007000Y-97937000D01*
X84027000Y-97937000D01*
X84027000Y-97917000D01*
X84473000Y-97917000D01*
X84473000Y-97937000D01*
X85461250Y-97937000D01*
X85620000Y-97778250D01*
X85623072Y-97580000D01*
X85610812Y-97455518D01*
X85575467Y-97339000D01*
X87956340Y-97339000D01*
X88000000Y-97343300D01*
X88043660Y-97339000D01*
X88043667Y-97339000D01*
X88174274Y-97326136D01*
X88341851Y-97275303D01*
X88496291Y-97192753D01*
X88631659Y-97081659D01*
X88659499Y-97047736D01*
X88929493Y-96777743D01*
X89038750Y-96887000D01*
X90027000Y-96887000D01*
X90027000Y-96053750D01*
X90473000Y-96053750D01*
X90473000Y-96887000D01*
X91461250Y-96887000D01*
X91620000Y-96728250D01*
X91620929Y-96668250D01*
X91715000Y-96668250D01*
X91873750Y-96827000D01*
X92777000Y-96827000D01*
X92777000Y-96223750D01*
X93223000Y-96223750D01*
X93223000Y-96827000D01*
X94126250Y-96827000D01*
X94285000Y-96668250D01*
X94273685Y-96565268D01*
X94235416Y-96446182D01*
X94174650Y-96336850D01*
X94093722Y-96241474D01*
X93995742Y-96163718D01*
X93884475Y-96106572D01*
X93764198Y-96072230D01*
X93639532Y-96062014D01*
X93381750Y-96065000D01*
X93223000Y-96223750D01*
X92777000Y-96223750D01*
X92618250Y-96065000D01*
X92360468Y-96062014D01*
X92235802Y-96072230D01*
X92115525Y-96106572D01*
X92004258Y-96163718D01*
X91906278Y-96241474D01*
X91825350Y-96336850D01*
X91764584Y-96446182D01*
X91726315Y-96565268D01*
X91715000Y-96668250D01*
X91620929Y-96668250D01*
X91623072Y-96530000D01*
X91610812Y-96405518D01*
X91574502Y-96285820D01*
X91515537Y-96175506D01*
X91436185Y-96078815D01*
X91339494Y-95999463D01*
X91229180Y-95940498D01*
X91109482Y-95904188D01*
X90985000Y-95891928D01*
X90631750Y-95895000D01*
X90473000Y-96053750D01*
X90027000Y-96053750D01*
X89868250Y-95895000D01*
X89812719Y-95894517D01*
X89968236Y-95739000D01*
X94299767Y-95739000D01*
X96440766Y-97880000D01*
X96440766Y-97880000D01*
G37*
X96440766Y-97880000D02*
X96386998Y-97880000D01*
X96386998Y-98038748D01*
X96228250Y-97880000D01*
X96030000Y-97876928D01*
X95905518Y-97889188D01*
X95785820Y-97925498D01*
X95675506Y-97984463D01*
X95578815Y-98063815D01*
X95499463Y-98160506D01*
X95440498Y-98270820D01*
X95404188Y-98390518D01*
X95391928Y-98515000D01*
X95395000Y-98868250D01*
X95553750Y-99027000D01*
X96387000Y-99027000D01*
X96387000Y-99007000D01*
X96833000Y-99007000D01*
X96833000Y-99027000D01*
X96853000Y-99027000D01*
X96853000Y-99473000D01*
X96833000Y-99473000D01*
X96833000Y-100461250D01*
X96991750Y-100620000D01*
X97190000Y-100623072D01*
X97314482Y-100610812D01*
X97434180Y-100574502D01*
X97500000Y-100539320D01*
X97565820Y-100574502D01*
X97685518Y-100610812D01*
X97696849Y-100611928D01*
X97350000Y-100611928D01*
X97225518Y-100624188D01*
X97105820Y-100660498D01*
X96995506Y-100719463D01*
X96898815Y-100798815D01*
X96819463Y-100895506D01*
X96760498Y-101005820D01*
X96724188Y-101125518D01*
X96711928Y-101250000D01*
X96711928Y-102250000D01*
X96724188Y-102374482D01*
X96760498Y-102494180D01*
X96819463Y-102604494D01*
X96898815Y-102701185D01*
X96995506Y-102780537D01*
X97105820Y-102839502D01*
X97225518Y-102875812D01*
X97350000Y-102888072D01*
X98600000Y-102888072D01*
X98724482Y-102875812D01*
X98844180Y-102839502D01*
X98954494Y-102780537D01*
X98973174Y-102765207D01*
X98932165Y-102826581D01*
X98854144Y-103014939D01*
X98814370Y-103214898D01*
X98814370Y-103274206D01*
X98350577Y-103738000D01*
X95505413Y-103738000D01*
X95495812Y-103640518D01*
X95459502Y-103520820D01*
X95400537Y-103410506D01*
X95321185Y-103313815D01*
X95224494Y-103234463D01*
X95114180Y-103175498D01*
X94994482Y-103139188D01*
X94870000Y-103126928D01*
X93710000Y-103126928D01*
X93585518Y-103139188D01*
X93465820Y-103175498D01*
X93400000Y-103210680D01*
X93334180Y-103175498D01*
X93214482Y-103139188D01*
X93090000Y-103126928D01*
X91930000Y-103126928D01*
X91805518Y-103139188D01*
X91749000Y-103156333D01*
X91749000Y-103123072D01*
X92870000Y-103123072D01*
X92994482Y-103110812D01*
X93114180Y-103074502D01*
X93224494Y-103015537D01*
X93321185Y-102936185D01*
X93400537Y-102839494D01*
X93459502Y-102729180D01*
X93486858Y-102639000D01*
X93897781Y-102639000D01*
X93948815Y-102701185D01*
X94045506Y-102780537D01*
X94155820Y-102839502D01*
X94275518Y-102875812D01*
X94400000Y-102888072D01*
X95650000Y-102888072D01*
X95774482Y-102875812D01*
X95894180Y-102839502D01*
X96004494Y-102780537D01*
X96101185Y-102701185D01*
X96180537Y-102604494D01*
X96239502Y-102494180D01*
X96275812Y-102374482D01*
X96288072Y-102250000D01*
X96288072Y-101250000D01*
X96275812Y-101125518D01*
X96239502Y-101005820D01*
X96180537Y-100895506D01*
X96101185Y-100798815D01*
X96004494Y-100719463D01*
X95894180Y-100660498D01*
X95774482Y-100624188D01*
X95650000Y-100611928D01*
X94400000Y-100611928D01*
X94275518Y-100624188D01*
X94155820Y-100660498D01*
X94045506Y-100719463D01*
X93948815Y-100798815D01*
X93897781Y-100861000D01*
X93486858Y-100861000D01*
X93459502Y-100770820D01*
X93400537Y-100660506D01*
X93321185Y-100563815D01*
X93224494Y-100484463D01*
X93114180Y-100425498D01*
X92994482Y-100389188D01*
X92870000Y-100376928D01*
X91710000Y-100376928D01*
X91585518Y-100389188D01*
X91465820Y-100425498D01*
X91400000Y-100460680D01*
X91399000Y-100460146D01*
X91399000Y-99985000D01*
X95391928Y-99985000D01*
X95404188Y-100109482D01*
X95440498Y-100229180D01*
X95499463Y-100339494D01*
X95578815Y-100436185D01*
X95675506Y-100515537D01*
X95785820Y-100574502D01*
X95905518Y-100610812D01*
X96030000Y-100623072D01*
X96228250Y-100620000D01*
X96387000Y-100461250D01*
X96387000Y-99473000D01*
X95553750Y-99473000D01*
X95395000Y-99631750D01*
X95391928Y-99985000D01*
X91399000Y-99985000D01*
X91399000Y-99951702D01*
X91436185Y-99921185D01*
X91503632Y-99839000D01*
X92011339Y-99839000D01*
X92105820Y-99889502D01*
X92225518Y-99925812D01*
X92350000Y-99938072D01*
X93650000Y-99938072D01*
X93774482Y-99925812D01*
X93894180Y-99889502D01*
X94004494Y-99830537D01*
X94101185Y-99751185D01*
X94180537Y-99654494D01*
X94239502Y-99544180D01*
X94275812Y-99424482D01*
X94288072Y-99300000D01*
X94288072Y-98600000D01*
X94275812Y-98475518D01*
X94239502Y-98355820D01*
X94180537Y-98245506D01*
X94101185Y-98148815D01*
X94004494Y-98069463D01*
X93894180Y-98010498D01*
X93860487Y-98000277D01*
X93884475Y-97993428D01*
X93995742Y-97936282D01*
X94093722Y-97858526D01*
X94174650Y-97763150D01*
X94235416Y-97653818D01*
X94273685Y-97534732D01*
X94285000Y-97431750D01*
X94126250Y-97273000D01*
X93223000Y-97273000D01*
X93223000Y-97293000D01*
X92777000Y-97293000D01*
X92777000Y-97273000D01*
X91873750Y-97273000D01*
X91715000Y-97431750D01*
X91726315Y-97534732D01*
X91764584Y-97653818D01*
X91825350Y-97763150D01*
X91906278Y-97858526D01*
X92004258Y-97936282D01*
X92115525Y-97993428D01*
X92139513Y-98000277D01*
X92105820Y-98010498D01*
X92011339Y-98061000D01*
X91571926Y-98061000D01*
X91539320Y-98000000D01*
X91574502Y-97934180D01*
X91610812Y-97814482D01*
X91623072Y-97690000D01*
X91620000Y-97491750D01*
X91461250Y-97333000D01*
X90473000Y-97333000D01*
X90473000Y-97353000D01*
X90027000Y-97353000D01*
X90027000Y-97333000D01*
X89038750Y-97333000D01*
X88880000Y-97491750D01*
X88876928Y-97690000D01*
X88889188Y-97814482D01*
X88925498Y-97934180D01*
X88960680Y-98000000D01*
X88925498Y-98065820D01*
X88889188Y-98185518D01*
X88876928Y-98310000D01*
X88876928Y-99470000D01*
X88889188Y-99594482D01*
X88925498Y-99714180D01*
X88984463Y-99824494D01*
X89063815Y-99921185D01*
X89160506Y-100000537D01*
X89270820Y-100059502D01*
X89390518Y-100095812D01*
X89515000Y-100108072D01*
X89621001Y-100108072D01*
X89621000Y-100460145D01*
X89575506Y-100484463D01*
X89478815Y-100563815D01*
X89399463Y-100660506D01*
X89340498Y-100770820D01*
X89304188Y-100890518D01*
X89291928Y-101015000D01*
X89291928Y-102485000D01*
X89304188Y-102609482D01*
X89340498Y-102729180D01*
X89399463Y-102839494D01*
X89478815Y-102936185D01*
X89575506Y-103015537D01*
X89685820Y-103074502D01*
X89805518Y-103110812D01*
X89930000Y-103123072D01*
X89971000Y-103123072D01*
X89971001Y-107459330D01*
X89966700Y-107503000D01*
X89983864Y-107677274D01*
X90034698Y-107844852D01*
X90117248Y-107999291D01*
X90190193Y-108088174D01*
X90228342Y-108134659D01*
X90262259Y-108162494D01*
X92332501Y-110232736D01*
X92360341Y-110266659D01*
X92495709Y-110377753D01*
X92650149Y-110460303D01*
X92713787Y-110479607D01*
X92752338Y-110491301D01*
X92737272Y-110534658D01*
X92854412Y-110682000D01*
X93977000Y-110682000D01*
X93977000Y-110662000D01*
X94423000Y-110662000D01*
X94423000Y-110682000D01*
X95545588Y-110682000D01*
X95662728Y-110534658D01*
X95604185Y-110366184D01*
X95516604Y-110253554D01*
X95572960Y-110184884D01*
X95664424Y-110013767D01*
X95720747Y-109828094D01*
X95739765Y-109635000D01*
X95720747Y-109441906D01*
X95664424Y-109256233D01*
X95572960Y-109085116D01*
X95503107Y-109000000D01*
X95572960Y-108914884D01*
X95664424Y-108743767D01*
X95720747Y-108558094D01*
X95739765Y-108365000D01*
X95720747Y-108171906D01*
X95664424Y-107986233D01*
X95572960Y-107815116D01*
X95503107Y-107730000D01*
X95572960Y-107644884D01*
X95664424Y-107473767D01*
X95720747Y-107288094D01*
X95739765Y-107095000D01*
X95720747Y-106901906D01*
X95664424Y-106716233D01*
X95572960Y-106545116D01*
X95449870Y-106395130D01*
X95299884Y-106272040D01*
X95128767Y-106180576D01*
X95115500Y-106176552D01*
X95115500Y-105823796D01*
X95224494Y-105765537D01*
X95321185Y-105686185D01*
X95400537Y-105589494D01*
X95459502Y-105479180D01*
X95495812Y-105359482D01*
X95505413Y-105262000D01*
X98391960Y-105262000D01*
X96887649Y-106766312D01*
X96858579Y-106790169D01*
X96834722Y-106819239D01*
X96834721Y-106819240D01*
X96763355Y-106906199D01*
X96692599Y-107038576D01*
X96649027Y-107182213D01*
X96634314Y-107331591D01*
X96638001Y-107369024D01*
X96638000Y-110021577D01*
X96634314Y-110059000D01*
X96638000Y-110096423D01*
X96638000Y-110096425D01*
X96649026Y-110208377D01*
X96692598Y-110352014D01*
X96698779Y-110363578D01*
X96763355Y-110484392D01*
X96797693Y-110526233D01*
X96858578Y-110600422D01*
X96887654Y-110624284D01*
X97680716Y-111417346D01*
X97704578Y-111446422D01*
X97768028Y-111498494D01*
X97820607Y-111541645D01*
X97857479Y-111561353D01*
X97952985Y-111612402D01*
X98096622Y-111655974D01*
X98208574Y-111667000D01*
X98208577Y-111667000D01*
X98228190Y-111668932D01*
X98300116Y-111727960D01*
X98471233Y-111819424D01*
X98656906Y-111875747D01*
X98801620Y-111890000D01*
X99100778Y-111890000D01*
X98647037Y-112343742D01*
X98552245Y-112438534D01*
X98510537Y-112360506D01*
X98431185Y-112263815D01*
X98334494Y-112184463D01*
X98224180Y-112125498D01*
X98104482Y-112089188D01*
X97980000Y-112076928D01*
X96820000Y-112076928D01*
X96695518Y-112089188D01*
X96575820Y-112125498D01*
X96510000Y-112160680D01*
X96444180Y-112125498D01*
X96324482Y-112089188D01*
X96200000Y-112076928D01*
X95040000Y-112076928D01*
X94915518Y-112089188D01*
X94795820Y-112125498D01*
X94685506Y-112184463D01*
X94588815Y-112263815D01*
X94509463Y-112360506D01*
X94450498Y-112470820D01*
X94414188Y-112590518D01*
X94410841Y-112624500D01*
X89452933Y-112624500D01*
X88103775Y-111275342D01*
X92737272Y-111275342D01*
X92795815Y-111443816D01*
X92917346Y-111600106D01*
X93067032Y-111729683D01*
X93239121Y-111827568D01*
X93427000Y-111890000D01*
X93977000Y-111890000D01*
X93977000Y-111128000D01*
X94423000Y-111128000D01*
X94423000Y-111890000D01*
X94973000Y-111890000D01*
X95160879Y-111827568D01*
X95332968Y-111729683D01*
X95482654Y-111600106D01*
X95604185Y-111443816D01*
X95662728Y-111275342D01*
X95545588Y-111128000D01*
X94423000Y-111128000D01*
X93977000Y-111128000D01*
X92854412Y-111128000D01*
X92737272Y-111275342D01*
X88103775Y-111275342D01*
X86403789Y-109575357D01*
X86685035Y-109516465D01*
X86931754Y-109414272D01*
X87019929Y-109174299D01*
X86230000Y-108384370D01*
X86215858Y-108398512D01*
X85900488Y-108083142D01*
X85914630Y-108069000D01*
X86545370Y-108069000D01*
X87335299Y-108858929D01*
X87575272Y-108770754D01*
X87686328Y-108494820D01*
X87741418Y-108202523D01*
X87738426Y-107905094D01*
X87677465Y-107613965D01*
X87575272Y-107367246D01*
X87335299Y-107279071D01*
X86545370Y-108069000D01*
X85914630Y-108069000D01*
X85124701Y-107279071D01*
X85039231Y-107310476D01*
X84902893Y-107106431D01*
X84760163Y-106963701D01*
X85440071Y-106963701D01*
X86230000Y-107753630D01*
X87019929Y-106963701D01*
X86931754Y-106723728D01*
X86655820Y-106612672D01*
X86363523Y-106557582D01*
X86066094Y-106560574D01*
X85774965Y-106621535D01*
X85528246Y-106723728D01*
X85440071Y-106963701D01*
X84760163Y-106963701D01*
X84692569Y-106896107D01*
X84445253Y-106730856D01*
X84170451Y-106617029D01*
X83878722Y-106559000D01*
X83581278Y-106559000D01*
X83289549Y-106617029D01*
X83014747Y-106730856D01*
X82767431Y-106896107D01*
X82557107Y-107106431D01*
X82480000Y-107221830D01*
X82402893Y-107106431D01*
X82192569Y-106896107D01*
X81945253Y-106730856D01*
X81670451Y-106617029D01*
X81378722Y-106559000D01*
X81081278Y-106559000D01*
X80789549Y-106617029D01*
X80514747Y-106730856D01*
X80267431Y-106896107D01*
X80057107Y-107106431D01*
X79980000Y-107221830D01*
X79902893Y-107106431D01*
X79692569Y-106896107D01*
X79445253Y-106730856D01*
X79170451Y-106617029D01*
X78878722Y-106559000D01*
X78581278Y-106559000D01*
X78419594Y-106591161D01*
X77186639Y-105358207D01*
X77251898Y-105345226D01*
X77440256Y-105267205D01*
X77609774Y-105153937D01*
X77753937Y-105009774D01*
X77867205Y-104840256D01*
X77945226Y-104651898D01*
X77985000Y-104451939D01*
X77985000Y-104248061D01*
X77945226Y-104048102D01*
X77867205Y-103859744D01*
X77839000Y-103817532D01*
X77839000Y-103657659D01*
X77843300Y-103613999D01*
X77839000Y-103570339D01*
X77839000Y-103570333D01*
X77826136Y-103439726D01*
X77817273Y-103410506D01*
X77793233Y-103331259D01*
X77775303Y-103272149D01*
X77768072Y-103258621D01*
X77768072Y-102739307D01*
X78191928Y-103163164D01*
X78191928Y-103669000D01*
X78204188Y-103793482D01*
X78240498Y-103913180D01*
X78299463Y-104023494D01*
X78378815Y-104120185D01*
X78475506Y-104199537D01*
X78585820Y-104258502D01*
X78705518Y-104294812D01*
X78830000Y-104307072D01*
X80080000Y-104307072D01*
X80204482Y-104294812D01*
X80324180Y-104258502D01*
X80434494Y-104199537D01*
X80531185Y-104120185D01*
X80582219Y-104058000D01*
X81078906Y-104058000D01*
X81100498Y-104129180D01*
X81159463Y-104239494D01*
X81238815Y-104336185D01*
X81335506Y-104415537D01*
X81445820Y-104474502D01*
X81565518Y-104510812D01*
X81690000Y-104523072D01*
X82850000Y-104523072D01*
X82974482Y-104510812D01*
X83094180Y-104474502D01*
X83160000Y-104439320D01*
X83225820Y-104474502D01*
X83345518Y-104510812D01*
X83470000Y-104523072D01*
X83668250Y-104520000D01*
X83827000Y-104361250D01*
X83827000Y-103373000D01*
X84273000Y-103373000D01*
X84273000Y-104361250D01*
X84431750Y-104520000D01*
X84630000Y-104523072D01*
X84754482Y-104510812D01*
X84874180Y-104474502D01*
X84984494Y-104415537D01*
X85081185Y-104336185D01*
X85160537Y-104239494D01*
X85219502Y-104129180D01*
X85255812Y-104009482D01*
X85268072Y-103885000D01*
X85265000Y-103531750D01*
X85106250Y-103373000D01*
X84273000Y-103373000D01*
X83827000Y-103373000D01*
X83807000Y-103373000D01*
X83807000Y-102927000D01*
X83827000Y-102927000D01*
X83827000Y-101938750D01*
X84273000Y-101938750D01*
X84273000Y-102927000D01*
X85106250Y-102927000D01*
X85265000Y-102768250D01*
X85268072Y-102415000D01*
X85255812Y-102290518D01*
X85219502Y-102170820D01*
X85160537Y-102060506D01*
X85081185Y-101963815D01*
X84984494Y-101884463D01*
X84874180Y-101825498D01*
X84754482Y-101789188D01*
X84630000Y-101776928D01*
X84431750Y-101780000D01*
X84273000Y-101938750D01*
X83827000Y-101938750D01*
X83668250Y-101780000D01*
X83667251Y-101779985D01*
X84289164Y-101158072D01*
X84985000Y-101158072D01*
X85109482Y-101145812D01*
X85229180Y-101109502D01*
X85339494Y-101050537D01*
X85436185Y-100971185D01*
X85515537Y-100874494D01*
X85574502Y-100764180D01*
X85610812Y-100644482D01*
X85623072Y-100520000D01*
X85623072Y-99360000D01*
X85610812Y-99235518D01*
X85574502Y-99115820D01*
X85539320Y-99050000D01*
X85574502Y-98984180D01*
X85610812Y-98864482D01*
X85623072Y-98740000D01*
X85620000Y-98541750D01*
X85461250Y-98383000D01*
X84473000Y-98383000D01*
X84473000Y-98403000D01*
X84027000Y-98403000D01*
X84027000Y-98383000D01*
X84007000Y-98383000D01*
X84007000Y-97937000D01*
X84027000Y-97937000D01*
X84027000Y-97917000D01*
X84473000Y-97917000D01*
X84473000Y-97937000D01*
X85461250Y-97937000D01*
X85620000Y-97778250D01*
X85623072Y-97580000D01*
X85610812Y-97455518D01*
X85575467Y-97339000D01*
X87956340Y-97339000D01*
X88000000Y-97343300D01*
X88043660Y-97339000D01*
X88043667Y-97339000D01*
X88174274Y-97326136D01*
X88341851Y-97275303D01*
X88496291Y-97192753D01*
X88631659Y-97081659D01*
X88659499Y-97047736D01*
X88929493Y-96777743D01*
X89038750Y-96887000D01*
X90027000Y-96887000D01*
X90027000Y-96053750D01*
X90473000Y-96053750D01*
X90473000Y-96887000D01*
X91461250Y-96887000D01*
X91620000Y-96728250D01*
X91620929Y-96668250D01*
X91715000Y-96668250D01*
X91873750Y-96827000D01*
X92777000Y-96827000D01*
X92777000Y-96223750D01*
X93223000Y-96223750D01*
X93223000Y-96827000D01*
X94126250Y-96827000D01*
X94285000Y-96668250D01*
X94273685Y-96565268D01*
X94235416Y-96446182D01*
X94174650Y-96336850D01*
X94093722Y-96241474D01*
X93995742Y-96163718D01*
X93884475Y-96106572D01*
X93764198Y-96072230D01*
X93639532Y-96062014D01*
X93381750Y-96065000D01*
X93223000Y-96223750D01*
X92777000Y-96223750D01*
X92618250Y-96065000D01*
X92360468Y-96062014D01*
X92235802Y-96072230D01*
X92115525Y-96106572D01*
X92004258Y-96163718D01*
X91906278Y-96241474D01*
X91825350Y-96336850D01*
X91764584Y-96446182D01*
X91726315Y-96565268D01*
X91715000Y-96668250D01*
X91620929Y-96668250D01*
X91623072Y-96530000D01*
X91610812Y-96405518D01*
X91574502Y-96285820D01*
X91515537Y-96175506D01*
X91436185Y-96078815D01*
X91339494Y-95999463D01*
X91229180Y-95940498D01*
X91109482Y-95904188D01*
X90985000Y-95891928D01*
X90631750Y-95895000D01*
X90473000Y-96053750D01*
X90027000Y-96053750D01*
X89868250Y-95895000D01*
X89812719Y-95894517D01*
X89968236Y-95739000D01*
X94299767Y-95739000D01*
X96440766Y-97880000D01*
G36*
X72595820Y-104593502D02*
G01*
X72715518Y-104629812D01*
X72840000Y-104642072D01*
X73470640Y-104642072D01*
X74705108Y-105876541D01*
X74730961Y-105908043D01*
X74781522Y-105949537D01*
X74856659Y-106011201D01*
X75000068Y-106087855D01*
X75155676Y-106135058D01*
X75276949Y-106147002D01*
X75276951Y-106147002D01*
X75317501Y-106150996D01*
X75358052Y-106147002D01*
X75640570Y-106147002D01*
X76057331Y-106563763D01*
X75789549Y-106617029D01*
X75514747Y-106730856D01*
X75267431Y-106896107D01*
X75198974Y-106964564D01*
X75194502Y-106949820D01*
X75135537Y-106839506D01*
X75056185Y-106742815D01*
X74959494Y-106663463D01*
X74849180Y-106604498D01*
X74729482Y-106568188D01*
X74605000Y-106555928D01*
X72855000Y-106555928D01*
X72730518Y-106568188D01*
X72610820Y-106604498D01*
X72500506Y-106663463D01*
X72403815Y-106742815D01*
X72324463Y-106839506D01*
X72265498Y-106949820D01*
X72229188Y-107069518D01*
X72216928Y-107194000D01*
X72216928Y-108944000D01*
X72229188Y-109068482D01*
X72265498Y-109188180D01*
X72324463Y-109298494D01*
X72403815Y-109395185D01*
X72500506Y-109474537D01*
X72610820Y-109533502D01*
X72730518Y-109569812D01*
X72855000Y-109582072D01*
X74605000Y-109582072D01*
X74729482Y-109569812D01*
X74849180Y-109533502D01*
X74959494Y-109474537D01*
X75056185Y-109395185D01*
X75135537Y-109298494D01*
X75194502Y-109188180D01*
X75198974Y-109173436D01*
X75267431Y-109241893D01*
X75404501Y-109333480D01*
X75404500Y-110327067D01*
X73798068Y-111933500D01*
X69365018Y-111933500D01*
X69386664Y-111893004D01*
X69422799Y-111773882D01*
X69435000Y-111650000D01*
X69435000Y-110250000D01*
X69422799Y-110126118D01*
X69386664Y-110006996D01*
X69327983Y-109897213D01*
X69249013Y-109800987D01*
X69191759Y-109754000D01*
X69308002Y-109754000D01*
X69308002Y-109564590D01*
X69455342Y-109681728D01*
X69623816Y-109623185D01*
X69780106Y-109501654D01*
X69909683Y-109351968D01*
X70007568Y-109179879D01*
X70070000Y-108992000D01*
X70070000Y-108442000D01*
X69308000Y-108442000D01*
X69308000Y-108462000D01*
X68862000Y-108462000D01*
X68862000Y-108442000D01*
X68842000Y-108442000D01*
X68842000Y-107996000D01*
X68862000Y-107996000D01*
X68862000Y-106873412D01*
X69308000Y-106873412D01*
X69308000Y-107996000D01*
X70070000Y-107996000D01*
X70070000Y-107446000D01*
X70007568Y-107258121D01*
X69909683Y-107086032D01*
X69780106Y-106936346D01*
X69623816Y-106814815D01*
X69455342Y-106756272D01*
X69308000Y-106873412D01*
X68862000Y-106873412D01*
X68714658Y-106756272D01*
X68703299Y-106760219D01*
X68691136Y-106636726D01*
X68691051Y-106636444D01*
X68670683Y-106569301D01*
X68640303Y-106469149D01*
X68557753Y-106314709D01*
X68446659Y-106179341D01*
X68412743Y-106151507D01*
X67577245Y-105316010D01*
X67964959Y-105316010D01*
X68005510Y-105320004D01*
X68046060Y-105316010D01*
X70532940Y-105316010D01*
X70573490Y-105320004D01*
X70614040Y-105316010D01*
X70614043Y-105316010D01*
X70735316Y-105304066D01*
X70890924Y-105256863D01*
X71034332Y-105180209D01*
X71160031Y-105077051D01*
X71185888Y-105045545D01*
X71589361Y-104642072D01*
X72220000Y-104642072D01*
X72344482Y-104629812D01*
X72464180Y-104593502D01*
X72530000Y-104558320D01*
X72595820Y-104593502D01*
X72595820Y-104593502D01*
G37*
X72595820Y-104593502D02*
X72715518Y-104629812D01*
X72840000Y-104642072D01*
X73470640Y-104642072D01*
X74705108Y-105876541D01*
X74730961Y-105908043D01*
X74781522Y-105949537D01*
X74856659Y-106011201D01*
X75000068Y-106087855D01*
X75155676Y-106135058D01*
X75276949Y-106147002D01*
X75276951Y-106147002D01*
X75317501Y-106150996D01*
X75358052Y-106147002D01*
X75640570Y-106147002D01*
X76057331Y-106563763D01*
X75789549Y-106617029D01*
X75514747Y-106730856D01*
X75267431Y-106896107D01*
X75198974Y-106964564D01*
X75194502Y-106949820D01*
X75135537Y-106839506D01*
X75056185Y-106742815D01*
X74959494Y-106663463D01*
X74849180Y-106604498D01*
X74729482Y-106568188D01*
X74605000Y-106555928D01*
X72855000Y-106555928D01*
X72730518Y-106568188D01*
X72610820Y-106604498D01*
X72500506Y-106663463D01*
X72403815Y-106742815D01*
X72324463Y-106839506D01*
X72265498Y-106949820D01*
X72229188Y-107069518D01*
X72216928Y-107194000D01*
X72216928Y-108944000D01*
X72229188Y-109068482D01*
X72265498Y-109188180D01*
X72324463Y-109298494D01*
X72403815Y-109395185D01*
X72500506Y-109474537D01*
X72610820Y-109533502D01*
X72730518Y-109569812D01*
X72855000Y-109582072D01*
X74605000Y-109582072D01*
X74729482Y-109569812D01*
X74849180Y-109533502D01*
X74959494Y-109474537D01*
X75056185Y-109395185D01*
X75135537Y-109298494D01*
X75194502Y-109188180D01*
X75198974Y-109173436D01*
X75267431Y-109241893D01*
X75404501Y-109333480D01*
X75404500Y-110327067D01*
X73798068Y-111933500D01*
X69365018Y-111933500D01*
X69386664Y-111893004D01*
X69422799Y-111773882D01*
X69435000Y-111650000D01*
X69435000Y-110250000D01*
X69422799Y-110126118D01*
X69386664Y-110006996D01*
X69327983Y-109897213D01*
X69249013Y-109800987D01*
X69191759Y-109754000D01*
X69308002Y-109754000D01*
X69308002Y-109564590D01*
X69455342Y-109681728D01*
X69623816Y-109623185D01*
X69780106Y-109501654D01*
X69909683Y-109351968D01*
X70007568Y-109179879D01*
X70070000Y-108992000D01*
X70070000Y-108442000D01*
X69308000Y-108442000D01*
X69308000Y-108462000D01*
X68862000Y-108462000D01*
X68862000Y-108442000D01*
X68842000Y-108442000D01*
X68842000Y-107996000D01*
X68862000Y-107996000D01*
X68862000Y-106873412D01*
X69308000Y-106873412D01*
X69308000Y-107996000D01*
X70070000Y-107996000D01*
X70070000Y-107446000D01*
X70007568Y-107258121D01*
X69909683Y-107086032D01*
X69780106Y-106936346D01*
X69623816Y-106814815D01*
X69455342Y-106756272D01*
X69308000Y-106873412D01*
X68862000Y-106873412D01*
X68714658Y-106756272D01*
X68703299Y-106760219D01*
X68691136Y-106636726D01*
X68691051Y-106636444D01*
X68670683Y-106569301D01*
X68640303Y-106469149D01*
X68557753Y-106314709D01*
X68446659Y-106179341D01*
X68412743Y-106151507D01*
X67577245Y-105316010D01*
X67964959Y-105316010D01*
X68005510Y-105320004D01*
X68046060Y-105316010D01*
X70532940Y-105316010D01*
X70573490Y-105320004D01*
X70614040Y-105316010D01*
X70614043Y-105316010D01*
X70735316Y-105304066D01*
X70890924Y-105256863D01*
X71034332Y-105180209D01*
X71160031Y-105077051D01*
X71185888Y-105045545D01*
X71589361Y-104642072D01*
X72220000Y-104642072D01*
X72344482Y-104629812D01*
X72464180Y-104593502D01*
X72530000Y-104558320D01*
X72595820Y-104593502D01*
G36*
X62753000Y-110436000D02*
G01*
X62773000Y-110436000D01*
X62773000Y-110882000D01*
X62753000Y-110882000D01*
X62753000Y-111715250D01*
X62911750Y-111874000D01*
X62969245Y-111874500D01*
X62090755Y-111874500D01*
X62148250Y-111874000D01*
X62307000Y-111715250D01*
X62307000Y-110882000D01*
X62287000Y-110882000D01*
X62287000Y-110436000D01*
X62307000Y-110436000D01*
X62307000Y-110416000D01*
X62753000Y-110416000D01*
X62753000Y-110436000D01*
X62753000Y-110436000D01*
G37*
X62753000Y-110436000D02*
X62773000Y-110436000D01*
X62773000Y-110882000D01*
X62753000Y-110882000D01*
X62753000Y-111715250D01*
X62911750Y-111874000D01*
X62969245Y-111874500D01*
X62090755Y-111874500D01*
X62148250Y-111874000D01*
X62307000Y-111715250D01*
X62307000Y-110882000D01*
X62287000Y-110882000D01*
X62287000Y-110436000D01*
X62307000Y-110436000D01*
X62307000Y-110416000D01*
X62753000Y-110416000D01*
X62753000Y-110436000D01*
G36*
X60223000Y-110727000D02*
G01*
X60243000Y-110727000D01*
X60243000Y-111173000D01*
X60223000Y-111173000D01*
X60223000Y-111193000D01*
X59777000Y-111193000D01*
X59777000Y-111173000D01*
X59757000Y-111173000D01*
X59757000Y-110727000D01*
X59777000Y-110727000D01*
X59777000Y-110707000D01*
X60223000Y-110707000D01*
X60223000Y-110727000D01*
X60223000Y-110727000D01*
G37*
X60223000Y-110727000D02*
X60243000Y-110727000D01*
X60243000Y-111173000D01*
X60223000Y-111173000D01*
X60223000Y-111193000D01*
X59777000Y-111193000D01*
X59777000Y-111173000D01*
X59757000Y-111173000D01*
X59757000Y-110727000D01*
X59777000Y-110727000D01*
X59777000Y-110707000D01*
X60223000Y-110707000D01*
X60223000Y-110727000D01*
G36*
X68861998Y-109621106D02*
G01*
X68800000Y-109615000D01*
X68798590Y-109615000D01*
X68861998Y-109564590D01*
X68861998Y-109621106D01*
X68861998Y-109621106D01*
G37*
X68861998Y-109621106D02*
X68800000Y-109615000D01*
X68798590Y-109615000D01*
X68861998Y-109564590D01*
X68861998Y-109621106D01*
G36*
X55313000Y-106846000D02*
G01*
X55333000Y-106846000D01*
X55333000Y-107292000D01*
X55313000Y-107292000D01*
X55313000Y-107312000D01*
X54867000Y-107312000D01*
X54867000Y-107292000D01*
X54847000Y-107292000D01*
X54847000Y-106846000D01*
X54867000Y-106846000D01*
X54867000Y-106826000D01*
X55313000Y-106826000D01*
X55313000Y-106846000D01*
X55313000Y-106846000D01*
G37*
X55313000Y-106846000D02*
X55333000Y-106846000D01*
X55333000Y-107292000D01*
X55313000Y-107292000D01*
X55313000Y-107312000D01*
X54867000Y-107312000D01*
X54867000Y-107292000D01*
X54847000Y-107292000D01*
X54847000Y-106846000D01*
X54867000Y-106846000D01*
X54867000Y-106826000D01*
X55313000Y-106826000D01*
X55313000Y-106846000D01*
G36*
X101761928Y-102200000D02*
G01*
X101774188Y-102324482D01*
X101810498Y-102444180D01*
X101869463Y-102554494D01*
X101923000Y-102619729D01*
X101923000Y-102676250D01*
X102081750Y-102835000D01*
X102185911Y-102823429D01*
X102225476Y-102810632D01*
X102275518Y-102825812D01*
X102400000Y-102838072D01*
X103000000Y-102838072D01*
X103124482Y-102825812D01*
X103244180Y-102789502D01*
X103354494Y-102730537D01*
X103451185Y-102651185D01*
X103530537Y-102554494D01*
X103572761Y-102475500D01*
X104050870Y-102475500D01*
X103687654Y-102838716D01*
X103658578Y-102862578D01*
X103626119Y-102902130D01*
X103563355Y-102978608D01*
X103548806Y-103005828D01*
X103504494Y-102969463D01*
X103394180Y-102910498D01*
X103274482Y-102874188D01*
X103150000Y-102861928D01*
X101900000Y-102861928D01*
X101775518Y-102874188D01*
X101725552Y-102889345D01*
X101629197Y-102792990D01*
X101629197Y-102625239D01*
X101633190Y-102584696D01*
X101630250Y-102554844D01*
X101630537Y-102554494D01*
X101689502Y-102444180D01*
X101725812Y-102324482D01*
X101738072Y-102200000D01*
X101738072Y-101407000D01*
X101761928Y-101407000D01*
X101761928Y-102200000D01*
X101761928Y-102200000D01*
G37*
X101761928Y-102200000D02*
X101774188Y-102324482D01*
X101810498Y-102444180D01*
X101869463Y-102554494D01*
X101923000Y-102619729D01*
X101923000Y-102676250D01*
X102081750Y-102835000D01*
X102185911Y-102823429D01*
X102225476Y-102810632D01*
X102275518Y-102825812D01*
X102400000Y-102838072D01*
X103000000Y-102838072D01*
X103124482Y-102825812D01*
X103244180Y-102789502D01*
X103354494Y-102730537D01*
X103451185Y-102651185D01*
X103530537Y-102554494D01*
X103572761Y-102475500D01*
X104050870Y-102475500D01*
X103687654Y-102838716D01*
X103658578Y-102862578D01*
X103626119Y-102902130D01*
X103563355Y-102978608D01*
X103548806Y-103005828D01*
X103504494Y-102969463D01*
X103394180Y-102910498D01*
X103274482Y-102874188D01*
X103150000Y-102861928D01*
X101900000Y-102861928D01*
X101775518Y-102874188D01*
X101725552Y-102889345D01*
X101629197Y-102792990D01*
X101629197Y-102625239D01*
X101633190Y-102584696D01*
X101630250Y-102554844D01*
X101630537Y-102554494D01*
X101689502Y-102444180D01*
X101725812Y-102324482D01*
X101738072Y-102200000D01*
X101738072Y-101407000D01*
X101761928Y-101407000D01*
X101761928Y-102200000D01*
G36*
X65143815Y-97447815D02*
G01*
X65064463Y-97544506D01*
X65005498Y-97654820D01*
X64969188Y-97774518D01*
X64956928Y-97899000D01*
X64960000Y-98097250D01*
X65118750Y-98256000D01*
X66107000Y-98256000D01*
X66107000Y-98236000D01*
X66553000Y-98236000D01*
X66553000Y-98256000D01*
X66573000Y-98256000D01*
X66573000Y-98702000D01*
X66553000Y-98702000D01*
X66553000Y-98722000D01*
X66107000Y-98722000D01*
X66107000Y-98702000D01*
X65118750Y-98702000D01*
X64960000Y-98860750D01*
X64956928Y-99059000D01*
X64969188Y-99183482D01*
X65005498Y-99303180D01*
X65040680Y-99369000D01*
X65005498Y-99434820D01*
X64969188Y-99554518D01*
X64956928Y-99679000D01*
X64956928Y-100374837D01*
X64792078Y-100539687D01*
X64825812Y-100428482D01*
X64838072Y-100304000D01*
X64838072Y-98834000D01*
X64825812Y-98709518D01*
X64789502Y-98589820D01*
X64730537Y-98479506D01*
X64651185Y-98382815D01*
X64554494Y-98303463D01*
X64509000Y-98279146D01*
X64509000Y-97858854D01*
X64554494Y-97834537D01*
X64651185Y-97755185D01*
X64730537Y-97658494D01*
X64789502Y-97548180D01*
X64825812Y-97428482D01*
X64829159Y-97394500D01*
X65208780Y-97394500D01*
X65143815Y-97447815D01*
X65143815Y-97447815D01*
G37*
X65143815Y-97447815D02*
X65064463Y-97544506D01*
X65005498Y-97654820D01*
X64969188Y-97774518D01*
X64956928Y-97899000D01*
X64960000Y-98097250D01*
X65118750Y-98256000D01*
X66107000Y-98256000D01*
X66107000Y-98236000D01*
X66553000Y-98236000D01*
X66553000Y-98256000D01*
X66573000Y-98256000D01*
X66573000Y-98702000D01*
X66553000Y-98702000D01*
X66553000Y-98722000D01*
X66107000Y-98722000D01*
X66107000Y-98702000D01*
X65118750Y-98702000D01*
X64960000Y-98860750D01*
X64956928Y-99059000D01*
X64969188Y-99183482D01*
X65005498Y-99303180D01*
X65040680Y-99369000D01*
X65005498Y-99434820D01*
X64969188Y-99554518D01*
X64956928Y-99679000D01*
X64956928Y-100374837D01*
X64792078Y-100539687D01*
X64825812Y-100428482D01*
X64838072Y-100304000D01*
X64838072Y-98834000D01*
X64825812Y-98709518D01*
X64789502Y-98589820D01*
X64730537Y-98479506D01*
X64651185Y-98382815D01*
X64554494Y-98303463D01*
X64509000Y-98279146D01*
X64509000Y-97858854D01*
X64554494Y-97834537D01*
X64651185Y-97755185D01*
X64730537Y-97658494D01*
X64789502Y-97548180D01*
X64825812Y-97428482D01*
X64829159Y-97394500D01*
X65208780Y-97394500D01*
X65143815Y-97447815D01*
G36*
X64745000Y-82256250D02*
G01*
X64903750Y-82415000D01*
X66726000Y-82415000D01*
X66726000Y-82395000D01*
X67234000Y-82395000D01*
X67234000Y-82415000D01*
X69056250Y-82415000D01*
X69215000Y-82256250D01*
X69217121Y-82196000D01*
X70103000Y-82196000D01*
X70103000Y-89442000D01*
X63857000Y-89442000D01*
X63857000Y-86069000D01*
X63854560Y-86044224D01*
X63847333Y-86020399D01*
X63835597Y-85998443D01*
X63819803Y-85979197D01*
X63800557Y-85963403D01*
X63778601Y-85951667D01*
X63754776Y-85944440D01*
X63730000Y-85942000D01*
X62107000Y-85942000D01*
X62107000Y-85852345D01*
X62155000Y-85857072D01*
X62307250Y-85854000D01*
X62466000Y-85695250D01*
X62466000Y-84573000D01*
X62974000Y-84573000D01*
X62974000Y-85695250D01*
X63132750Y-85854000D01*
X63285000Y-85857072D01*
X63409482Y-85844812D01*
X63529180Y-85808502D01*
X63639494Y-85749537D01*
X63736185Y-85670185D01*
X63815537Y-85573494D01*
X63874502Y-85463180D01*
X63910812Y-85343482D01*
X63923072Y-85219000D01*
X63920000Y-84731750D01*
X63761250Y-84573000D01*
X62974000Y-84573000D01*
X62466000Y-84573000D01*
X62446000Y-84573000D01*
X62446000Y-84065000D01*
X62466000Y-84065000D01*
X62466000Y-82942750D01*
X62974000Y-82942750D01*
X62974000Y-84065000D01*
X63761250Y-84065000D01*
X63920000Y-83906250D01*
X63923072Y-83419000D01*
X63910812Y-83294518D01*
X63874502Y-83174820D01*
X63871392Y-83169000D01*
X64741928Y-83169000D01*
X64754188Y-83293482D01*
X64790498Y-83413180D01*
X64849463Y-83523494D01*
X64928815Y-83620185D01*
X65025506Y-83699537D01*
X65135820Y-83758502D01*
X65255518Y-83794812D01*
X65380000Y-83807072D01*
X66567250Y-83804000D01*
X66726000Y-83645250D01*
X66726000Y-82923000D01*
X67234000Y-82923000D01*
X67234000Y-83645250D01*
X67392750Y-83804000D01*
X68580000Y-83807072D01*
X68704482Y-83794812D01*
X68824180Y-83758502D01*
X68934494Y-83699537D01*
X69031185Y-83620185D01*
X69110537Y-83523494D01*
X69169502Y-83413180D01*
X69205812Y-83293482D01*
X69218072Y-83169000D01*
X69215000Y-83081750D01*
X69056250Y-82923000D01*
X67234000Y-82923000D01*
X66726000Y-82923000D01*
X64903750Y-82923000D01*
X64745000Y-83081750D01*
X64741928Y-83169000D01*
X63871392Y-83169000D01*
X63815537Y-83064506D01*
X63736185Y-82967815D01*
X63639494Y-82888463D01*
X63529180Y-82829498D01*
X63409482Y-82793188D01*
X63285000Y-82780928D01*
X63132750Y-82784000D01*
X62974000Y-82942750D01*
X62466000Y-82942750D01*
X62307250Y-82784000D01*
X62155000Y-82780928D01*
X62107000Y-82785655D01*
X62107000Y-82696000D01*
X63980000Y-82696000D01*
X64004776Y-82693560D01*
X64028601Y-82686333D01*
X64050557Y-82674597D01*
X64069803Y-82658803D01*
X64085597Y-82639557D01*
X64097333Y-82617601D01*
X64104560Y-82593776D01*
X64107000Y-82569000D01*
X64107000Y-82196000D01*
X64742879Y-82196000D01*
X64745000Y-82256250D01*
X64745000Y-82256250D01*
G37*
X64745000Y-82256250D02*
X64903750Y-82415000D01*
X66726000Y-82415000D01*
X66726000Y-82395000D01*
X67234000Y-82395000D01*
X67234000Y-82415000D01*
X69056250Y-82415000D01*
X69215000Y-82256250D01*
X69217121Y-82196000D01*
X70103000Y-82196000D01*
X70103000Y-89442000D01*
X63857000Y-89442000D01*
X63857000Y-86069000D01*
X63854560Y-86044224D01*
X63847333Y-86020399D01*
X63835597Y-85998443D01*
X63819803Y-85979197D01*
X63800557Y-85963403D01*
X63778601Y-85951667D01*
X63754776Y-85944440D01*
X63730000Y-85942000D01*
X62107000Y-85942000D01*
X62107000Y-85852345D01*
X62155000Y-85857072D01*
X62307250Y-85854000D01*
X62466000Y-85695250D01*
X62466000Y-84573000D01*
X62974000Y-84573000D01*
X62974000Y-85695250D01*
X63132750Y-85854000D01*
X63285000Y-85857072D01*
X63409482Y-85844812D01*
X63529180Y-85808502D01*
X63639494Y-85749537D01*
X63736185Y-85670185D01*
X63815537Y-85573494D01*
X63874502Y-85463180D01*
X63910812Y-85343482D01*
X63923072Y-85219000D01*
X63920000Y-84731750D01*
X63761250Y-84573000D01*
X62974000Y-84573000D01*
X62466000Y-84573000D01*
X62446000Y-84573000D01*
X62446000Y-84065000D01*
X62466000Y-84065000D01*
X62466000Y-82942750D01*
X62974000Y-82942750D01*
X62974000Y-84065000D01*
X63761250Y-84065000D01*
X63920000Y-83906250D01*
X63923072Y-83419000D01*
X63910812Y-83294518D01*
X63874502Y-83174820D01*
X63871392Y-83169000D01*
X64741928Y-83169000D01*
X64754188Y-83293482D01*
X64790498Y-83413180D01*
X64849463Y-83523494D01*
X64928815Y-83620185D01*
X65025506Y-83699537D01*
X65135820Y-83758502D01*
X65255518Y-83794812D01*
X65380000Y-83807072D01*
X66567250Y-83804000D01*
X66726000Y-83645250D01*
X66726000Y-82923000D01*
X67234000Y-82923000D01*
X67234000Y-83645250D01*
X67392750Y-83804000D01*
X68580000Y-83807072D01*
X68704482Y-83794812D01*
X68824180Y-83758502D01*
X68934494Y-83699537D01*
X69031185Y-83620185D01*
X69110537Y-83523494D01*
X69169502Y-83413180D01*
X69205812Y-83293482D01*
X69218072Y-83169000D01*
X69215000Y-83081750D01*
X69056250Y-82923000D01*
X67234000Y-82923000D01*
X66726000Y-82923000D01*
X64903750Y-82923000D01*
X64745000Y-83081750D01*
X64741928Y-83169000D01*
X63871392Y-83169000D01*
X63815537Y-83064506D01*
X63736185Y-82967815D01*
X63639494Y-82888463D01*
X63529180Y-82829498D01*
X63409482Y-82793188D01*
X63285000Y-82780928D01*
X63132750Y-82784000D01*
X62974000Y-82942750D01*
X62466000Y-82942750D01*
X62307250Y-82784000D01*
X62155000Y-82780928D01*
X62107000Y-82785655D01*
X62107000Y-82696000D01*
X63980000Y-82696000D01*
X64004776Y-82693560D01*
X64028601Y-82686333D01*
X64050557Y-82674597D01*
X64069803Y-82658803D01*
X64085597Y-82639557D01*
X64097333Y-82617601D01*
X64104560Y-82593776D01*
X64107000Y-82569000D01*
X64107000Y-82196000D01*
X64742879Y-82196000D01*
X64745000Y-82256250D01*
G36*
X61103000Y-88192000D02*
G01*
X59107000Y-88192000D01*
X59107000Y-80946000D01*
X61103000Y-80946000D01*
X61103000Y-88192000D01*
X61103000Y-88192000D01*
G37*
X61103000Y-88192000D02*
X59107000Y-88192000D01*
X59107000Y-80946000D01*
X61103000Y-80946000D01*
X61103000Y-88192000D01*
G36*
X90923750Y-82346000D02*
G01*
X92746000Y-82346000D01*
X92746000Y-82326000D01*
X93254000Y-82326000D01*
X93254000Y-82346000D01*
X95076250Y-82346000D01*
X95226250Y-82196000D01*
X95643000Y-82196000D01*
X95643000Y-82568999D01*
X95645440Y-82593775D01*
X95652667Y-82617600D01*
X95664403Y-82639556D01*
X95680197Y-82658802D01*
X95699443Y-82674596D01*
X95721399Y-82686332D01*
X95745224Y-82693559D01*
X95770000Y-82695999D01*
X97643000Y-82696000D01*
X97643000Y-82718625D01*
X97575000Y-82711928D01*
X97422750Y-82715000D01*
X97264000Y-82873750D01*
X97264000Y-83996000D01*
X97284000Y-83996000D01*
X97284000Y-84504000D01*
X97264000Y-84504000D01*
X97264000Y-85626250D01*
X97422750Y-85785000D01*
X97575000Y-85788072D01*
X97643000Y-85781375D01*
X97643000Y-85942001D01*
X96020001Y-85942000D01*
X95995225Y-85944440D01*
X95971400Y-85951667D01*
X95949444Y-85963403D01*
X95930198Y-85979197D01*
X95914404Y-85998443D01*
X95902668Y-86020399D01*
X95895441Y-86044223D01*
X95893001Y-86069000D01*
X95893001Y-89442000D01*
X89647000Y-89441999D01*
X89647000Y-85150000D01*
X95806928Y-85150000D01*
X95819188Y-85274482D01*
X95855498Y-85394180D01*
X95914463Y-85504494D01*
X95993815Y-85601185D01*
X96090506Y-85680537D01*
X96200820Y-85739502D01*
X96320518Y-85775812D01*
X96445000Y-85788072D01*
X96597250Y-85785000D01*
X96756000Y-85626250D01*
X96756000Y-84504000D01*
X95968750Y-84504000D01*
X95810000Y-84662750D01*
X95806928Y-85150000D01*
X89647000Y-85150000D01*
X89647000Y-83100000D01*
X90761928Y-83100000D01*
X90774188Y-83224482D01*
X90810498Y-83344180D01*
X90869463Y-83454494D01*
X90948815Y-83551185D01*
X91045506Y-83630537D01*
X91155820Y-83689502D01*
X91275518Y-83725812D01*
X91400000Y-83738072D01*
X92587250Y-83735000D01*
X92746000Y-83576250D01*
X92746000Y-82854000D01*
X93254000Y-82854000D01*
X93254000Y-83576250D01*
X93412750Y-83735000D01*
X94600000Y-83738072D01*
X94724482Y-83725812D01*
X94844180Y-83689502D01*
X94954494Y-83630537D01*
X95051185Y-83551185D01*
X95130537Y-83454494D01*
X95186391Y-83350000D01*
X95806928Y-83350000D01*
X95810000Y-83837250D01*
X95968750Y-83996000D01*
X96756000Y-83996000D01*
X96756000Y-82873750D01*
X96597250Y-82715000D01*
X96445000Y-82711928D01*
X96320518Y-82724188D01*
X96200820Y-82760498D01*
X96090506Y-82819463D01*
X95993815Y-82898815D01*
X95914463Y-82995506D01*
X95855498Y-83105820D01*
X95819188Y-83225518D01*
X95806928Y-83350000D01*
X95186391Y-83350000D01*
X95189502Y-83344180D01*
X95225812Y-83224482D01*
X95238072Y-83100000D01*
X95235000Y-83012750D01*
X95076250Y-82854000D01*
X93254000Y-82854000D01*
X92746000Y-82854000D01*
X90923750Y-82854000D01*
X90765000Y-83012750D01*
X90761928Y-83100000D01*
X89647000Y-83100000D01*
X89647001Y-82196000D01*
X90773750Y-82196000D01*
X90923750Y-82346000D01*
X90923750Y-82346000D01*
G37*
X90923750Y-82346000D02*
X92746000Y-82346000D01*
X92746000Y-82326000D01*
X93254000Y-82326000D01*
X93254000Y-82346000D01*
X95076250Y-82346000D01*
X95226250Y-82196000D01*
X95643000Y-82196000D01*
X95643000Y-82568999D01*
X95645440Y-82593775D01*
X95652667Y-82617600D01*
X95664403Y-82639556D01*
X95680197Y-82658802D01*
X95699443Y-82674596D01*
X95721399Y-82686332D01*
X95745224Y-82693559D01*
X95770000Y-82695999D01*
X97643000Y-82696000D01*
X97643000Y-82718625D01*
X97575000Y-82711928D01*
X97422750Y-82715000D01*
X97264000Y-82873750D01*
X97264000Y-83996000D01*
X97284000Y-83996000D01*
X97284000Y-84504000D01*
X97264000Y-84504000D01*
X97264000Y-85626250D01*
X97422750Y-85785000D01*
X97575000Y-85788072D01*
X97643000Y-85781375D01*
X97643000Y-85942001D01*
X96020001Y-85942000D01*
X95995225Y-85944440D01*
X95971400Y-85951667D01*
X95949444Y-85963403D01*
X95930198Y-85979197D01*
X95914404Y-85998443D01*
X95902668Y-86020399D01*
X95895441Y-86044223D01*
X95893001Y-86069000D01*
X95893001Y-89442000D01*
X89647000Y-89441999D01*
X89647000Y-85150000D01*
X95806928Y-85150000D01*
X95819188Y-85274482D01*
X95855498Y-85394180D01*
X95914463Y-85504494D01*
X95993815Y-85601185D01*
X96090506Y-85680537D01*
X96200820Y-85739502D01*
X96320518Y-85775812D01*
X96445000Y-85788072D01*
X96597250Y-85785000D01*
X96756000Y-85626250D01*
X96756000Y-84504000D01*
X95968750Y-84504000D01*
X95810000Y-84662750D01*
X95806928Y-85150000D01*
X89647000Y-85150000D01*
X89647000Y-83100000D01*
X90761928Y-83100000D01*
X90774188Y-83224482D01*
X90810498Y-83344180D01*
X90869463Y-83454494D01*
X90948815Y-83551185D01*
X91045506Y-83630537D01*
X91155820Y-83689502D01*
X91275518Y-83725812D01*
X91400000Y-83738072D01*
X92587250Y-83735000D01*
X92746000Y-83576250D01*
X92746000Y-82854000D01*
X93254000Y-82854000D01*
X93254000Y-83576250D01*
X93412750Y-83735000D01*
X94600000Y-83738072D01*
X94724482Y-83725812D01*
X94844180Y-83689502D01*
X94954494Y-83630537D01*
X95051185Y-83551185D01*
X95130537Y-83454494D01*
X95186391Y-83350000D01*
X95806928Y-83350000D01*
X95810000Y-83837250D01*
X95968750Y-83996000D01*
X96756000Y-83996000D01*
X96756000Y-82873750D01*
X96597250Y-82715000D01*
X96445000Y-82711928D01*
X96320518Y-82724188D01*
X96200820Y-82760498D01*
X96090506Y-82819463D01*
X95993815Y-82898815D01*
X95914463Y-82995506D01*
X95855498Y-83105820D01*
X95819188Y-83225518D01*
X95806928Y-83350000D01*
X95186391Y-83350000D01*
X95189502Y-83344180D01*
X95225812Y-83224482D01*
X95238072Y-83100000D01*
X95235000Y-83012750D01*
X95076250Y-82854000D01*
X93254000Y-82854000D01*
X92746000Y-82854000D01*
X90923750Y-82854000D01*
X90765000Y-83012750D01*
X90761928Y-83100000D01*
X89647000Y-83100000D01*
X89647001Y-82196000D01*
X90773750Y-82196000D01*
X90923750Y-82346000D01*
G36*
X101273000Y-88123000D02*
G01*
X98927000Y-88123000D01*
X98927000Y-80177000D01*
X101273000Y-80177000D01*
X101273000Y-88123000D01*
X101273000Y-88123000D01*
G37*
X101273000Y-88123000D02*
X98927000Y-88123000D01*
X98927000Y-80177000D01*
X101273000Y-80177000D01*
X101273000Y-88123000D01*
G36*
X68509744Y-110417205D02*
G01*
X68673000Y-110484828D01*
X68673000Y-111523000D01*
X64327000Y-111523000D01*
X64327000Y-110377000D01*
X68449573Y-110377000D01*
X68509744Y-110417205D01*
X68509744Y-110417205D01*
G37*
X68509744Y-110417205D02*
X68673000Y-110484828D01*
X68673000Y-111523000D01*
X64327000Y-111523000D01*
X64327000Y-110377000D01*
X68449573Y-110377000D01*
X68509744Y-110417205D01*
D38*
X76950000Y-104350000D03*
X60430000Y-107069000D03*
X64430000Y-104769000D03*
X67700000Y-100300000D03*
X72219000Y-98969000D03*
X55980000Y-103319000D03*
X58029203Y-102688174D03*
X55000000Y-99250000D03*
X61000000Y-96500000D03*
X65250000Y-98500000D03*
X75000000Y-96500000D03*
X54250000Y-107000000D03*
X62500000Y-111500000D03*
X69000000Y-109500000D03*
X85250000Y-103000000D03*
X85500000Y-98250000D03*
X54750000Y-96750000D03*
X55000000Y-94250000D03*
X59250000Y-77000000D03*
X60250000Y-77000000D03*
X61250000Y-77000000D03*
X55876718Y-100811218D03*
X95400000Y-99250000D03*
X104400000Y-108250000D03*
X92800000Y-111050000D03*
X101775199Y-102668601D03*
X94200000Y-97050000D03*
X90200000Y-96050000D03*
X102800000Y-89650000D03*
X51400000Y-77850000D03*
X51400000Y-71850000D03*
X63500000Y-54250000D03*
X66000000Y-54250000D03*
X68500000Y-54250000D03*
X71000000Y-54250000D03*
X73500000Y-51750000D03*
X76000000Y-51750000D03*
X78500000Y-51750000D03*
X81000000Y-51750000D03*
X83500000Y-51750000D03*
X86000000Y-51750000D03*
X88500000Y-54250000D03*
X91000000Y-54250000D03*
X93500000Y-54250000D03*
X96000000Y-54250000D03*
X63500000Y-69250000D03*
X66000000Y-69250000D03*
X68500000Y-69250000D03*
X71000000Y-69250000D03*
X73500000Y-69250000D03*
X76000000Y-69250000D03*
X78500000Y-69250000D03*
X81000000Y-69250000D03*
X83500000Y-69250000D03*
X86000000Y-69250000D03*
X88500000Y-66750000D03*
X91000000Y-66750000D03*
X93500000Y-66750000D03*
X96000000Y-66750000D03*
X91000000Y-74250000D03*
X93500000Y-74250000D03*
X96000000Y-74250000D03*
X63500000Y-74250000D03*
X66000000Y-74250000D03*
X68500000Y-74250000D03*
X71000000Y-74250000D03*
X88500000Y-74250000D03*
X98500000Y-74250000D03*
X73500000Y-74250000D03*
X76000000Y-74250000D03*
X78500000Y-74250000D03*
X81000000Y-74250000D03*
X83500000Y-74250000D03*
X86000000Y-74250000D03*
X63500000Y-91750000D03*
X66000000Y-91750000D03*
X68500000Y-91750000D03*
X71000000Y-91750000D03*
X88500000Y-91750000D03*
X91000000Y-91750000D03*
X93500000Y-91750000D03*
X96000000Y-91750000D03*
X98500000Y-91750000D03*
X51400000Y-80390000D03*
X51400000Y-82930000D03*
X51400000Y-85470000D03*
X51400000Y-88010000D03*
X51400000Y-90550000D03*
X51400000Y-93090000D03*
X51400000Y-95630000D03*
X51400000Y-98170000D03*
X51400000Y-100650000D03*
X51400000Y-103250000D03*
X51400000Y-108330000D03*
X51400000Y-110870000D03*
X51400000Y-113410000D03*
X51400000Y-115950000D03*
X108500000Y-71750000D03*
X108500000Y-79370000D03*
X108500000Y-81910000D03*
X108500000Y-84450000D03*
X108500000Y-86990000D03*
X108500000Y-89530000D03*
X108500000Y-92070000D03*
X108500000Y-94610000D03*
X108500000Y-97150000D03*
X108500000Y-105450000D03*
X108500000Y-107310000D03*
X108500000Y-109850000D03*
X108500000Y-112390000D03*
X108500000Y-114930000D03*
X53940000Y-115950000D03*
X56480000Y-115950000D03*
X59020000Y-115950000D03*
X61560000Y-115950000D03*
X64100000Y-115950000D03*
X66640000Y-115950000D03*
X69180000Y-115950000D03*
X71720000Y-115950000D03*
X74260000Y-115950000D03*
X76800000Y-115950000D03*
X79340000Y-115950000D03*
X81880000Y-115950000D03*
X84420000Y-115950000D03*
X86960000Y-115950000D03*
X89500000Y-115950000D03*
X92040000Y-115950000D03*
X94580000Y-115950000D03*
X97120000Y-115950000D03*
X99660000Y-115950000D03*
X102200000Y-115950000D03*
X104740000Y-115950000D03*
X107280000Y-115950000D03*
X76300000Y-104350000D03*
X53500000Y-101750000D03*
X57143347Y-100732547D03*
X92400000Y-106050000D03*
X104400000Y-98250000D03*
X100800000Y-97649982D03*
X107600000Y-102650000D03*
X99849370Y-103316837D03*
X102560000Y-52703000D03*
X100560000Y-52703000D03*
X98560000Y-54481000D03*
X100560000Y-54481000D03*
X104560000Y-56259000D03*
X102560000Y-54481000D03*
X108560000Y-52703000D03*
X98560000Y-52703000D03*
X108560000Y-56259000D03*
X106560000Y-56259000D03*
X100560000Y-56259000D03*
X108560000Y-54481000D03*
X106560000Y-54481000D03*
X102560000Y-56259000D03*
X104560000Y-52703000D03*
X106560000Y-52703000D03*
X98560000Y-56259000D03*
X104560000Y-54481000D03*
X106560000Y-65657000D03*
X104560000Y-65657000D03*
X100560000Y-65657000D03*
X98560000Y-65657000D03*
X108560000Y-65657000D03*
X102560000Y-65657000D03*
X106560000Y-63879000D03*
X104560000Y-63879000D03*
X100560000Y-63879000D03*
X98560000Y-63879000D03*
X108560000Y-63879000D03*
X102560000Y-63879000D03*
X98560000Y-67435000D03*
X100560000Y-67435000D03*
X102560000Y-67435000D03*
X104560000Y-67435000D03*
X106560000Y-67435000D03*
X108560000Y-67435000D03*
X86230000Y-108069000D03*
X83730000Y-108069000D03*
X81230000Y-108069000D03*
X78730000Y-108069000D03*
X76230000Y-108069000D03*
X73730000Y-108069000D03*
X57056810Y-73812500D03*
X57056810Y-76187500D03*
X55000000Y-77375000D03*
X52943190Y-76187500D03*
X52943190Y-73812500D03*
X55000000Y-72625000D03*
X55000000Y-75000000D03*
X57056810Y-111312500D03*
X57056810Y-113687500D03*
X55000000Y-114875000D03*
X52943190Y-113687500D03*
X52943190Y-111312500D03*
X55000000Y-110125000D03*
X55000000Y-112500000D03*
X106814810Y-110999500D03*
X106814810Y-113374500D03*
X104758000Y-114562000D03*
X102701190Y-113374500D03*
X102701190Y-110999500D03*
X104758000Y-109812000D03*
X104758000Y-112187000D03*
X107056810Y-73812500D03*
X107056810Y-76187500D03*
X105000000Y-77375000D03*
X102943190Y-76187500D03*
X102943190Y-73812500D03*
X105000000Y-72625000D03*
X105000000Y-75000000D03*
X57013000Y-67511000D03*
X59013000Y-67511000D03*
X61013000Y-65733000D03*
X59013000Y-65733000D03*
X55013000Y-63955000D03*
X57013000Y-65733000D03*
X51013000Y-67511000D03*
X61013000Y-67511000D03*
X51013000Y-63955000D03*
X53013000Y-63955000D03*
X59013000Y-63955000D03*
X51013000Y-65733000D03*
X53013000Y-65733000D03*
X57013000Y-63955000D03*
X55013000Y-67511000D03*
X53013000Y-67511000D03*
X61013000Y-63955000D03*
X55013000Y-65733000D03*
X53013000Y-54557000D03*
X55013000Y-54557000D03*
X59013000Y-54557000D03*
X61013000Y-54557000D03*
X51013000Y-54557000D03*
X57013000Y-54557000D03*
X53013000Y-56335000D03*
X55013000Y-56335000D03*
X59013000Y-56335000D03*
X61013000Y-56335000D03*
X51013000Y-56335000D03*
X57013000Y-56335000D03*
X61013000Y-52779000D03*
X59013000Y-52779000D03*
X57013000Y-52779000D03*
X55013000Y-52779000D03*
X53013000Y-52779000D03*
X51013000Y-52779000D03*
M02*
