%TF.GenerationSoftware,KiCad,Pcbnew,(5.1.4)-1*%
%TF.CreationDate,2020-11-11T00:06:55+08:00*%
%TF.ProjectId,Directional_coupler,44697265-6374-4696-9f6e-616c5f636f75,rev?*%
%TF.SameCoordinates,Original*%
%TF.FileFunction,Legend,Top*%
%TF.FilePolarity,Positive*%
%FSLAX46Y46*%
G04 Gerber Fmt 4.6, Leading zero omitted, Abs format (unit mm)*
G04 Created by KiCad (PCBNEW (5.1.4)-1) date 2020-11-11 00:06:55*
%MOMM*%
%LPD*%
G04 APERTURE LIST*
%ADD10C,0.200000*%
%ADD11C,0.150000*%
%ADD12C,0.254000*%
%ADD13C,0.300000*%
%ADD14C,0.400000*%
%ADD15C,0.250000*%
%ADD16C,0.120000*%
%ADD17C,0.100000*%
G04 APERTURE END LIST*
D10*
X59961904Y-92850000D02*
X60761904Y-92583333D01*
X59961904Y-92316666D01*
X60685714Y-92050000D02*
X60723809Y-92011904D01*
X60761904Y-92050000D01*
X60723809Y-92088095D01*
X60685714Y-92050000D01*
X60761904Y-92050000D01*
X60266666Y-92050000D02*
X60304761Y-92011904D01*
X60342857Y-92050000D01*
X60304761Y-92088095D01*
X60266666Y-92050000D01*
X60342857Y-92050000D01*
X59961904Y-91783333D02*
X60761904Y-91516666D01*
X59961904Y-91250000D01*
X62161904Y-93154761D02*
X62161904Y-93611904D01*
X62161904Y-93383333D02*
X61361904Y-93383333D01*
X61476190Y-93459523D01*
X61552380Y-93535714D01*
X61590476Y-93611904D01*
X62085714Y-92811904D02*
X62123809Y-92773809D01*
X62161904Y-92811904D01*
X62123809Y-92850000D01*
X62085714Y-92811904D01*
X62161904Y-92811904D01*
X61666666Y-92811904D02*
X61704761Y-92773809D01*
X61742857Y-92811904D01*
X61704761Y-92850000D01*
X61666666Y-92811904D01*
X61742857Y-92811904D01*
X62161904Y-92011904D02*
X62161904Y-92469047D01*
X62161904Y-92240476D02*
X61361904Y-92240476D01*
X61476190Y-92316666D01*
X61552380Y-92392857D01*
X61590476Y-92469047D01*
X61628571Y-91326190D02*
X62161904Y-91326190D01*
X61323809Y-91516666D02*
X61895238Y-91707142D01*
X61895238Y-91211904D01*
X61438095Y-90945238D02*
X61400000Y-90907142D01*
X61361904Y-90830952D01*
X61361904Y-90640476D01*
X61400000Y-90564285D01*
X61438095Y-90526190D01*
X61514285Y-90488095D01*
X61590476Y-90488095D01*
X61704761Y-90526190D01*
X62161904Y-90983333D01*
X62161904Y-90488095D01*
X81247619Y-75811904D02*
X81742857Y-75811904D01*
X81476190Y-76116666D01*
X81590476Y-76116666D01*
X81666666Y-76154761D01*
X81704761Y-76192857D01*
X81742857Y-76269047D01*
X81742857Y-76459523D01*
X81704761Y-76535714D01*
X81666666Y-76573809D01*
X81590476Y-76611904D01*
X81361904Y-76611904D01*
X81285714Y-76573809D01*
X81247619Y-76535714D01*
X82009523Y-75811904D02*
X82504761Y-75811904D01*
X82238095Y-76116666D01*
X82352380Y-76116666D01*
X82428571Y-76154761D01*
X82466666Y-76192857D01*
X82504761Y-76269047D01*
X82504761Y-76459523D01*
X82466666Y-76535714D01*
X82428571Y-76573809D01*
X82352380Y-76611904D01*
X82123809Y-76611904D01*
X82047619Y-76573809D01*
X82009523Y-76535714D01*
X82733333Y-75811904D02*
X83190476Y-75811904D01*
X82961904Y-76611904D02*
X82961904Y-75811904D01*
X87247619Y-52411904D02*
X87742857Y-52411904D01*
X87476190Y-52716666D01*
X87590476Y-52716666D01*
X87666666Y-52754761D01*
X87704761Y-52792857D01*
X87742857Y-52869047D01*
X87742857Y-53059523D01*
X87704761Y-53135714D01*
X87666666Y-53173809D01*
X87590476Y-53211904D01*
X87361904Y-53211904D01*
X87285714Y-53173809D01*
X87247619Y-53135714D01*
X88009523Y-52411904D02*
X88504761Y-52411904D01*
X88238095Y-52716666D01*
X88352380Y-52716666D01*
X88428571Y-52754761D01*
X88466666Y-52792857D01*
X88504761Y-52869047D01*
X88504761Y-53059523D01*
X88466666Y-53135714D01*
X88428571Y-53173809D01*
X88352380Y-53211904D01*
X88123809Y-53211904D01*
X88047619Y-53173809D01*
X88009523Y-53135714D01*
X88733333Y-52411904D02*
X89190476Y-52411904D01*
X88961904Y-53211904D02*
X88961904Y-52411904D01*
D11*
X56361904Y-89230952D02*
X55561904Y-89230952D01*
X56361904Y-88773809D01*
X55561904Y-88773809D01*
X56361904Y-88278571D02*
X56323809Y-88354761D01*
X56285714Y-88392857D01*
X56209523Y-88430952D01*
X55980952Y-88430952D01*
X55904761Y-88392857D01*
X55866666Y-88354761D01*
X55828571Y-88278571D01*
X55828571Y-88164285D01*
X55866666Y-88088095D01*
X55904761Y-88050000D01*
X55980952Y-88011904D01*
X56209523Y-88011904D01*
X56285714Y-88050000D01*
X56323809Y-88088095D01*
X56361904Y-88164285D01*
X56361904Y-88278571D01*
X55828571Y-87745238D02*
X56361904Y-87554761D01*
X55828571Y-87364285D01*
X56361904Y-86030952D02*
X56361904Y-86488095D01*
X56361904Y-86259523D02*
X55561904Y-86259523D01*
X55676190Y-86335714D01*
X55752380Y-86411904D01*
X55790476Y-86488095D01*
X55561904Y-85535714D02*
X55561904Y-85459523D01*
X55600000Y-85383333D01*
X55638095Y-85345238D01*
X55714285Y-85307142D01*
X55866666Y-85269047D01*
X56057142Y-85269047D01*
X56209523Y-85307142D01*
X56285714Y-85345238D01*
X56323809Y-85383333D01*
X56361904Y-85459523D01*
X56361904Y-85535714D01*
X56323809Y-85611904D01*
X56285714Y-85650000D01*
X56209523Y-85688095D01*
X56057142Y-85726190D01*
X55866666Y-85726190D01*
X55714285Y-85688095D01*
X55638095Y-85650000D01*
X55600000Y-85611904D01*
X55561904Y-85535714D01*
X56323809Y-84888095D02*
X56361904Y-84888095D01*
X56438095Y-84926190D01*
X56476190Y-84964285D01*
X55638095Y-83973809D02*
X55600000Y-83935714D01*
X55561904Y-83859523D01*
X55561904Y-83669047D01*
X55600000Y-83592857D01*
X55638095Y-83554761D01*
X55714285Y-83516666D01*
X55790476Y-83516666D01*
X55904761Y-83554761D01*
X56361904Y-84011904D01*
X56361904Y-83516666D01*
X55561904Y-83021428D02*
X55561904Y-82945238D01*
X55600000Y-82869047D01*
X55638095Y-82830952D01*
X55714285Y-82792857D01*
X55866666Y-82754761D01*
X56057142Y-82754761D01*
X56209523Y-82792857D01*
X56285714Y-82830952D01*
X56323809Y-82869047D01*
X56361904Y-82945238D01*
X56361904Y-83021428D01*
X56323809Y-83097619D01*
X56285714Y-83135714D01*
X56209523Y-83173809D01*
X56057142Y-83211904D01*
X55866666Y-83211904D01*
X55714285Y-83173809D01*
X55638095Y-83135714D01*
X55600000Y-83097619D01*
X55561904Y-83021428D01*
X55638095Y-82450000D02*
X55600000Y-82411904D01*
X55561904Y-82335714D01*
X55561904Y-82145238D01*
X55600000Y-82069047D01*
X55638095Y-82030952D01*
X55714285Y-81992857D01*
X55790476Y-81992857D01*
X55904761Y-82030952D01*
X56361904Y-82488095D01*
X56361904Y-81992857D01*
X55561904Y-81497619D02*
X55561904Y-81421428D01*
X55600000Y-81345238D01*
X55638095Y-81307142D01*
X55714285Y-81269047D01*
X55866666Y-81230952D01*
X56057142Y-81230952D01*
X56209523Y-81269047D01*
X56285714Y-81307142D01*
X56323809Y-81345238D01*
X56361904Y-81421428D01*
X56361904Y-81497619D01*
X56323809Y-81573809D01*
X56285714Y-81611904D01*
X56209523Y-81650000D01*
X56057142Y-81688095D01*
X55866666Y-81688095D01*
X55714285Y-81650000D01*
X55638095Y-81611904D01*
X55600000Y-81573809D01*
X55561904Y-81497619D01*
X53486904Y-92962023D02*
X52686904Y-92962023D01*
X53067857Y-92962023D02*
X53067857Y-92504880D01*
X53486904Y-92504880D02*
X52686904Y-92504880D01*
X53067857Y-91857261D02*
X53067857Y-92123928D01*
X53486904Y-92123928D02*
X52686904Y-92123928D01*
X52686904Y-91742976D01*
X53486904Y-90828690D02*
X52686904Y-90828690D01*
X52686904Y-90638214D01*
X52725000Y-90523928D01*
X52801190Y-90447738D01*
X52877380Y-90409642D01*
X53029761Y-90371547D01*
X53144047Y-90371547D01*
X53296428Y-90409642D01*
X53372619Y-90447738D01*
X53448809Y-90523928D01*
X53486904Y-90638214D01*
X53486904Y-90828690D01*
X53486904Y-90028690D02*
X52953571Y-90028690D01*
X52686904Y-90028690D02*
X52725000Y-90066785D01*
X52763095Y-90028690D01*
X52725000Y-89990595D01*
X52686904Y-90028690D01*
X52763095Y-90028690D01*
X53486904Y-89647738D02*
X52953571Y-89647738D01*
X53105952Y-89647738D02*
X53029761Y-89609642D01*
X52991666Y-89571547D01*
X52953571Y-89495357D01*
X52953571Y-89419166D01*
X53448809Y-88847738D02*
X53486904Y-88923928D01*
X53486904Y-89076309D01*
X53448809Y-89152500D01*
X53372619Y-89190595D01*
X53067857Y-89190595D01*
X52991666Y-89152500D01*
X52953571Y-89076309D01*
X52953571Y-88923928D01*
X52991666Y-88847738D01*
X53067857Y-88809642D01*
X53144047Y-88809642D01*
X53220238Y-89190595D01*
X53448809Y-88123928D02*
X53486904Y-88200119D01*
X53486904Y-88352500D01*
X53448809Y-88428690D01*
X53410714Y-88466785D01*
X53334523Y-88504880D01*
X53105952Y-88504880D01*
X53029761Y-88466785D01*
X52991666Y-88428690D01*
X52953571Y-88352500D01*
X52953571Y-88200119D01*
X52991666Y-88123928D01*
X52953571Y-87895357D02*
X52953571Y-87590595D01*
X52686904Y-87781071D02*
X53372619Y-87781071D01*
X53448809Y-87742976D01*
X53486904Y-87666785D01*
X53486904Y-87590595D01*
X53486904Y-87323928D02*
X52953571Y-87323928D01*
X52686904Y-87323928D02*
X52725000Y-87362023D01*
X52763095Y-87323928D01*
X52725000Y-87285833D01*
X52686904Y-87323928D01*
X52763095Y-87323928D01*
X53486904Y-86828690D02*
X53448809Y-86904880D01*
X53410714Y-86942976D01*
X53334523Y-86981071D01*
X53105952Y-86981071D01*
X53029761Y-86942976D01*
X52991666Y-86904880D01*
X52953571Y-86828690D01*
X52953571Y-86714404D01*
X52991666Y-86638214D01*
X53029761Y-86600119D01*
X53105952Y-86562023D01*
X53334523Y-86562023D01*
X53410714Y-86600119D01*
X53448809Y-86638214D01*
X53486904Y-86714404D01*
X53486904Y-86828690D01*
X52953571Y-86219166D02*
X53486904Y-86219166D01*
X53029761Y-86219166D02*
X52991666Y-86181071D01*
X52953571Y-86104880D01*
X52953571Y-85990595D01*
X52991666Y-85914404D01*
X53067857Y-85876309D01*
X53486904Y-85876309D01*
X53486904Y-85152500D02*
X53067857Y-85152500D01*
X52991666Y-85190595D01*
X52953571Y-85266785D01*
X52953571Y-85419166D01*
X52991666Y-85495357D01*
X53448809Y-85152500D02*
X53486904Y-85228690D01*
X53486904Y-85419166D01*
X53448809Y-85495357D01*
X53372619Y-85533452D01*
X53296428Y-85533452D01*
X53220238Y-85495357D01*
X53182142Y-85419166D01*
X53182142Y-85228690D01*
X53144047Y-85152500D01*
X53486904Y-84657261D02*
X53448809Y-84733452D01*
X53372619Y-84771547D01*
X52686904Y-84771547D01*
X53410714Y-83285833D02*
X53448809Y-83323928D01*
X53486904Y-83438214D01*
X53486904Y-83514404D01*
X53448809Y-83628690D01*
X53372619Y-83704880D01*
X53296428Y-83742976D01*
X53144047Y-83781071D01*
X53029761Y-83781071D01*
X52877380Y-83742976D01*
X52801190Y-83704880D01*
X52725000Y-83628690D01*
X52686904Y-83514404D01*
X52686904Y-83438214D01*
X52725000Y-83323928D01*
X52763095Y-83285833D01*
X53486904Y-82828690D02*
X53448809Y-82904880D01*
X53410714Y-82942976D01*
X53334523Y-82981071D01*
X53105952Y-82981071D01*
X53029761Y-82942976D01*
X52991666Y-82904880D01*
X52953571Y-82828690D01*
X52953571Y-82714404D01*
X52991666Y-82638214D01*
X53029761Y-82600119D01*
X53105952Y-82562023D01*
X53334523Y-82562023D01*
X53410714Y-82600119D01*
X53448809Y-82638214D01*
X53486904Y-82714404D01*
X53486904Y-82828690D01*
X52953571Y-81876309D02*
X53486904Y-81876309D01*
X52953571Y-82219166D02*
X53372619Y-82219166D01*
X53448809Y-82181071D01*
X53486904Y-82104880D01*
X53486904Y-81990595D01*
X53448809Y-81914404D01*
X53410714Y-81876309D01*
X52953571Y-81495357D02*
X53753571Y-81495357D01*
X52991666Y-81495357D02*
X52953571Y-81419166D01*
X52953571Y-81266785D01*
X52991666Y-81190595D01*
X53029761Y-81152500D01*
X53105952Y-81114404D01*
X53334523Y-81114404D01*
X53410714Y-81152500D01*
X53448809Y-81190595D01*
X53486904Y-81266785D01*
X53486904Y-81419166D01*
X53448809Y-81495357D01*
X53486904Y-80657261D02*
X53448809Y-80733452D01*
X53372619Y-80771547D01*
X52686904Y-80771547D01*
X53448809Y-80047738D02*
X53486904Y-80123928D01*
X53486904Y-80276309D01*
X53448809Y-80352500D01*
X53372619Y-80390595D01*
X53067857Y-80390595D01*
X52991666Y-80352500D01*
X52953571Y-80276309D01*
X52953571Y-80123928D01*
X52991666Y-80047738D01*
X53067857Y-80009642D01*
X53144047Y-80009642D01*
X53220238Y-80390595D01*
X53486904Y-79666785D02*
X52953571Y-79666785D01*
X53105952Y-79666785D02*
X53029761Y-79628690D01*
X52991666Y-79590595D01*
X52953571Y-79514404D01*
X52953571Y-79438214D01*
X54036904Y-93038214D02*
X54036904Y-92504880D01*
X54836904Y-93038214D01*
X54836904Y-92504880D01*
X54798809Y-91895357D02*
X54836904Y-91971547D01*
X54836904Y-92123928D01*
X54798809Y-92200119D01*
X54722619Y-92238214D01*
X54417857Y-92238214D01*
X54341666Y-92200119D01*
X54303571Y-92123928D01*
X54303571Y-91971547D01*
X54341666Y-91895357D01*
X54417857Y-91857261D01*
X54494047Y-91857261D01*
X54570238Y-92238214D01*
X54303571Y-91514404D02*
X54836904Y-91514404D01*
X54379761Y-91514404D02*
X54341666Y-91476309D01*
X54303571Y-91400119D01*
X54303571Y-91285833D01*
X54341666Y-91209642D01*
X54417857Y-91171547D01*
X54836904Y-91171547D01*
X54836904Y-90790595D02*
X54303571Y-90790595D01*
X54036904Y-90790595D02*
X54075000Y-90828690D01*
X54113095Y-90790595D01*
X54075000Y-90752500D01*
X54036904Y-90790595D01*
X54113095Y-90790595D01*
X54303571Y-90409642D02*
X54836904Y-90409642D01*
X54379761Y-90409642D02*
X54341666Y-90371547D01*
X54303571Y-90295357D01*
X54303571Y-90181071D01*
X54341666Y-90104880D01*
X54417857Y-90066785D01*
X54836904Y-90066785D01*
X54303571Y-89342976D02*
X54951190Y-89342976D01*
X55027380Y-89381071D01*
X55065476Y-89419166D01*
X55103571Y-89495357D01*
X55103571Y-89609642D01*
X55065476Y-89685833D01*
X54798809Y-89342976D02*
X54836904Y-89419166D01*
X54836904Y-89571547D01*
X54798809Y-89647738D01*
X54760714Y-89685833D01*
X54684523Y-89723928D01*
X54455952Y-89723928D01*
X54379761Y-89685833D01*
X54341666Y-89647738D01*
X54303571Y-89571547D01*
X54303571Y-89419166D01*
X54341666Y-89342976D01*
X54836904Y-87971547D02*
X54836904Y-88352500D01*
X54036904Y-88352500D01*
X54303571Y-87362023D02*
X54836904Y-87362023D01*
X54303571Y-87704880D02*
X54722619Y-87704880D01*
X54798809Y-87666785D01*
X54836904Y-87590595D01*
X54836904Y-87476309D01*
X54798809Y-87400119D01*
X54760714Y-87362023D01*
X54798809Y-86942976D02*
X54836904Y-86942976D01*
X54913095Y-86981071D01*
X54951190Y-87019166D01*
X54417857Y-85723928D02*
X54455952Y-85609642D01*
X54494047Y-85571547D01*
X54570238Y-85533452D01*
X54684523Y-85533452D01*
X54760714Y-85571547D01*
X54798809Y-85609642D01*
X54836904Y-85685833D01*
X54836904Y-85990595D01*
X54036904Y-85990595D01*
X54036904Y-85723928D01*
X54075000Y-85647738D01*
X54113095Y-85609642D01*
X54189285Y-85571547D01*
X54265476Y-85571547D01*
X54341666Y-85609642D01*
X54379761Y-85647738D01*
X54417857Y-85723928D01*
X54417857Y-85990595D01*
X54836904Y-85190595D02*
X54036904Y-85190595D01*
X54303571Y-84466785D02*
X54836904Y-84466785D01*
X53998809Y-84657261D02*
X54570238Y-84847738D01*
X54570238Y-84352500D01*
X54036904Y-84123928D02*
X54836904Y-83933452D01*
X54265476Y-83781071D01*
X54836904Y-83628690D01*
X54036904Y-83438214D01*
X54036904Y-82981071D02*
X54036904Y-82828690D01*
X54075000Y-82752500D01*
X54151190Y-82676309D01*
X54303571Y-82638214D01*
X54570238Y-82638214D01*
X54722619Y-82676309D01*
X54798809Y-82752500D01*
X54836904Y-82828690D01*
X54836904Y-82981071D01*
X54798809Y-83057261D01*
X54722619Y-83133452D01*
X54570238Y-83171547D01*
X54303571Y-83171547D01*
X54151190Y-83133452D01*
X54075000Y-83057261D01*
X54036904Y-82981071D01*
X54836904Y-82295357D02*
X54036904Y-82295357D01*
X54036904Y-81990595D01*
X54075000Y-81914404D01*
X54113095Y-81876309D01*
X54189285Y-81838214D01*
X54303571Y-81838214D01*
X54379761Y-81876309D01*
X54417857Y-81914404D01*
X54455952Y-81990595D01*
X54455952Y-82295357D01*
X68786476Y-114127000D02*
X68710285Y-114088904D01*
X68596000Y-114088904D01*
X68481714Y-114127000D01*
X68405523Y-114203190D01*
X68367428Y-114279380D01*
X68329333Y-114431761D01*
X68329333Y-114546047D01*
X68367428Y-114698428D01*
X68405523Y-114774619D01*
X68481714Y-114850809D01*
X68596000Y-114888904D01*
X68672190Y-114888904D01*
X68786476Y-114850809D01*
X68824571Y-114812714D01*
X68824571Y-114546047D01*
X68672190Y-114546047D01*
X69167428Y-114888904D02*
X69167428Y-114088904D01*
X69624571Y-114888904D01*
X69624571Y-114088904D01*
X70005523Y-114888904D02*
X70005523Y-114088904D01*
X70196000Y-114088904D01*
X70310285Y-114127000D01*
X70386476Y-114203190D01*
X70424571Y-114279380D01*
X70462666Y-114431761D01*
X70462666Y-114546047D01*
X70424571Y-114698428D01*
X70386476Y-114774619D01*
X70310285Y-114850809D01*
X70196000Y-114888904D01*
X70005523Y-114888904D01*
X67611619Y-114888904D02*
X67344952Y-114507952D01*
X67154476Y-114888904D02*
X67154476Y-114088904D01*
X67459238Y-114088904D01*
X67535428Y-114127000D01*
X67573523Y-114165095D01*
X67611619Y-114241285D01*
X67611619Y-114355571D01*
X67573523Y-114431761D01*
X67535428Y-114469857D01*
X67459238Y-114507952D01*
X67154476Y-114507952D01*
X65433619Y-114888904D02*
X65166952Y-114507952D01*
X64976476Y-114888904D02*
X64976476Y-114088904D01*
X65281238Y-114088904D01*
X65357428Y-114127000D01*
X65395523Y-114165095D01*
X65433619Y-114241285D01*
X65433619Y-114355571D01*
X65395523Y-114431761D01*
X65357428Y-114469857D01*
X65281238Y-114507952D01*
X64976476Y-114507952D01*
X65776476Y-114888904D02*
X65776476Y-114088904D01*
X66081238Y-114088904D01*
X66157428Y-114127000D01*
X66195523Y-114165095D01*
X66233619Y-114241285D01*
X66233619Y-114355571D01*
X66195523Y-114431761D01*
X66157428Y-114469857D01*
X66081238Y-114507952D01*
X65776476Y-114507952D01*
X63922285Y-114469857D02*
X63655619Y-114469857D01*
X63655619Y-114888904D02*
X63655619Y-114088904D01*
X64036571Y-114088904D01*
X61998285Y-114469857D02*
X61731619Y-114469857D01*
X61731619Y-114888904D02*
X61731619Y-114088904D01*
X62112571Y-114088904D01*
X62417333Y-114888904D02*
X62417333Y-114088904D01*
X62722095Y-114088904D01*
X62798285Y-114127000D01*
X62836380Y-114165095D01*
X62874476Y-114241285D01*
X62874476Y-114355571D01*
X62836380Y-114431761D01*
X62798285Y-114469857D01*
X62722095Y-114507952D01*
X62417333Y-114507952D01*
X58715428Y-114584142D02*
X59324952Y-114584142D01*
X59020190Y-114888904D02*
X59020190Y-114279380D01*
X60086857Y-114088904D02*
X59705904Y-114088904D01*
X59667809Y-114469857D01*
X59705904Y-114431761D01*
X59782095Y-114393666D01*
X59972571Y-114393666D01*
X60048761Y-114431761D01*
X60086857Y-114469857D01*
X60124952Y-114546047D01*
X60124952Y-114736523D01*
X60086857Y-114812714D01*
X60048761Y-114850809D01*
X59972571Y-114888904D01*
X59782095Y-114888904D01*
X59705904Y-114850809D01*
X59667809Y-114812714D01*
X60353523Y-114088904D02*
X60620190Y-114888904D01*
X60886857Y-114088904D01*
D10*
X102195523Y-70175380D02*
X101862190Y-69699190D01*
X101624095Y-70175380D02*
X101624095Y-69175380D01*
X102005047Y-69175380D01*
X102100285Y-69223000D01*
X102147904Y-69270619D01*
X102195523Y-69365857D01*
X102195523Y-69508714D01*
X102147904Y-69603952D01*
X102100285Y-69651571D01*
X102005047Y-69699190D01*
X101624095Y-69699190D01*
X102957428Y-69651571D02*
X102624095Y-69651571D01*
X102624095Y-70175380D02*
X102624095Y-69175380D01*
X103100285Y-69175380D01*
X104386000Y-70175380D02*
X104290761Y-70127761D01*
X104243142Y-70080142D01*
X104195523Y-69984904D01*
X104195523Y-69699190D01*
X104243142Y-69603952D01*
X104290761Y-69556333D01*
X104386000Y-69508714D01*
X104528857Y-69508714D01*
X104624095Y-69556333D01*
X104671714Y-69603952D01*
X104719333Y-69699190D01*
X104719333Y-69984904D01*
X104671714Y-70080142D01*
X104624095Y-70127761D01*
X104528857Y-70175380D01*
X104386000Y-70175380D01*
X105576476Y-69508714D02*
X105576476Y-70175380D01*
X105147904Y-69508714D02*
X105147904Y-70032523D01*
X105195523Y-70127761D01*
X105290761Y-70175380D01*
X105433619Y-70175380D01*
X105528857Y-70127761D01*
X105576476Y-70080142D01*
X105909809Y-69508714D02*
X106290761Y-69508714D01*
X106052666Y-69175380D02*
X106052666Y-70032523D01*
X106100285Y-70127761D01*
X106195523Y-70175380D01*
X106290761Y-70175380D01*
X55197523Y-70429380D02*
X54864190Y-69953190D01*
X54626095Y-70429380D02*
X54626095Y-69429380D01*
X55007047Y-69429380D01*
X55102285Y-69477000D01*
X55149904Y-69524619D01*
X55197523Y-69619857D01*
X55197523Y-69762714D01*
X55149904Y-69857952D01*
X55102285Y-69905571D01*
X55007047Y-69953190D01*
X54626095Y-69953190D01*
X55959428Y-69905571D02*
X55626095Y-69905571D01*
X55626095Y-70429380D02*
X55626095Y-69429380D01*
X56102285Y-69429380D01*
X57245142Y-70429380D02*
X57245142Y-69762714D01*
X57245142Y-69429380D02*
X57197523Y-69477000D01*
X57245142Y-69524619D01*
X57292761Y-69477000D01*
X57245142Y-69429380D01*
X57245142Y-69524619D01*
X57721333Y-69762714D02*
X57721333Y-70429380D01*
X57721333Y-69857952D02*
X57768952Y-69810333D01*
X57864190Y-69762714D01*
X58007047Y-69762714D01*
X58102285Y-69810333D01*
X58149904Y-69905571D01*
X58149904Y-70429380D01*
X89662000Y-70485000D02*
G75*
G03X89662000Y-70485000I-254000J0D01*
G01*
X70866000Y-57023000D02*
G75*
G03X70866000Y-57023000I-254000J0D01*
G01*
X72390000Y-69469000D02*
X91694000Y-69469000D01*
X72390000Y-64643000D02*
X72390000Y-69469000D01*
X86868000Y-64643000D02*
X72390000Y-64643000D01*
X86868000Y-68961000D02*
X86868000Y-64643000D01*
X66040000Y-68961000D02*
X86868000Y-68961000D01*
X62484000Y-72517000D02*
X66040000Y-68961000D01*
X62484000Y-81661000D02*
X62484000Y-72517000D01*
X65786000Y-84963000D02*
X62484000Y-81661000D01*
X70612000Y-89027000D02*
X70612000Y-91567000D01*
X70104000Y-61849000D02*
X70104000Y-65405000D01*
X89154000Y-60071000D02*
X89916000Y-60071000D01*
X89154000Y-61849000D02*
X88138000Y-61849000D01*
X89154000Y-58547000D02*
X89154000Y-61849000D01*
X88138000Y-58547000D02*
X89154000Y-58547000D01*
X70104000Y-60071000D02*
X69596000Y-60071000D01*
X70104000Y-61849000D02*
X71120000Y-61849000D01*
X70104000Y-58547000D02*
X70104000Y-61849000D01*
X71120000Y-58547000D02*
X70104000Y-58547000D01*
X71120000Y-58039000D02*
X71120000Y-58547000D01*
X71120000Y-62357000D02*
X71120000Y-58039000D01*
X88138000Y-62357000D02*
X71120000Y-62357000D01*
X88138000Y-58039000D02*
X88138000Y-62357000D01*
X71120000Y-58039000D02*
X88138000Y-58039000D01*
X87376000Y-81661000D02*
X88138000Y-80899000D01*
X88138000Y-64643000D02*
X90932000Y-61849000D01*
X70612000Y-82677000D02*
G75*
G03X70612000Y-82677000I-254000J0D01*
G01*
X70612000Y-77851000D02*
G75*
G03X70612000Y-77851000I-254000J0D01*
G01*
X89662000Y-86487000D02*
X89916000Y-86487000D01*
X70104000Y-86487000D02*
X69596000Y-86487000D01*
X89662000Y-88011000D02*
X89154000Y-88011000D01*
X89662000Y-84963000D02*
X89662000Y-88011000D01*
X89154000Y-84963000D02*
X89662000Y-84963000D01*
X70104000Y-88011000D02*
X70612000Y-88011000D01*
X70104000Y-84963000D02*
X70104000Y-88011000D01*
X70612000Y-84963000D02*
X70104000Y-84963000D01*
X70612000Y-89027000D02*
X70612000Y-84201000D01*
X89154000Y-89027000D02*
X70612000Y-89027000D01*
X89154000Y-84201000D02*
X89154000Y-89027000D01*
X70612000Y-84201000D02*
X89154000Y-84201000D01*
X69342000Y-77597000D02*
X69342000Y-75057000D01*
X73406000Y-81661000D02*
X69342000Y-77597000D01*
X88138000Y-80899000D02*
X88138000Y-64643000D01*
X73406000Y-81661000D02*
X87376000Y-81661000D01*
X93170000Y-102785000D02*
X91850000Y-102785000D01*
X90950000Y-102785000D02*
X89630000Y-102785000D01*
X90950000Y-100715000D02*
X89630000Y-100715000D01*
X93170000Y-100715000D02*
X91850000Y-100715000D01*
X93170000Y-100715000D02*
X93170000Y-102785000D01*
X89630000Y-100715000D02*
X89630000Y-102785000D01*
X67950000Y-66205000D02*
X67950000Y-65250000D01*
X67950000Y-63250000D02*
X67950000Y-62295000D01*
X65550000Y-63250000D02*
X65550000Y-62295000D01*
X65550000Y-66205000D02*
X65550000Y-65250000D01*
X67550000Y-61895000D02*
X65950000Y-61895000D01*
X67550000Y-66605000D02*
X65950000Y-66605000D01*
X65550000Y-62295000D02*
G75*
G02X65950000Y-61895000I400000J0D01*
G01*
X67550000Y-61895000D02*
G75*
G02X67950000Y-62295000I0J-400000D01*
G01*
X67950000Y-66205000D02*
G75*
G02X67550000Y-66605000I-400000J0D01*
G01*
X65950000Y-66605000D02*
G75*
G02X65550000Y-66205000I0J400000D01*
G01*
X78480000Y-103869000D02*
X77480000Y-103869000D01*
X78480000Y-102469000D02*
X77480000Y-102469000D01*
X77480000Y-102469000D02*
X77480000Y-103869000D01*
X78480000Y-102469000D02*
X78480000Y-103869000D01*
X78180000Y-102469000D02*
X78180000Y-103869000D01*
D12*
X95400000Y-106600000D02*
X95400000Y-111400000D01*
X98200000Y-106600000D02*
X98200000Y-111400000D01*
X95400000Y-106600000D02*
X98200000Y-106600000D01*
X95400000Y-111400000D02*
X98200000Y-111400000D01*
D13*
X94050000Y-106250000D02*
G75*
G03X94050000Y-106250000I-150000J0D01*
G01*
D14*
X96300000Y-107300000D02*
G75*
G03X96300000Y-107300000I-200000J0D01*
G01*
D12*
X100350000Y-99750000D02*
X100350000Y-100750000D01*
X103150000Y-99750000D02*
X103150000Y-100750000D01*
X100350000Y-100750000D02*
X103150000Y-100750000D01*
X100350000Y-99750000D02*
X103150000Y-99750000D01*
D15*
X100125000Y-101750000D02*
G75*
G03X100125000Y-101750000I-125000J0D01*
G01*
D12*
X81030000Y-96669000D02*
X78430000Y-96669000D01*
X81030000Y-96669000D02*
X81030000Y-97569000D01*
X81030000Y-101269000D02*
X78430000Y-101269000D01*
X81030000Y-100369000D02*
X81030000Y-101269000D01*
X57380000Y-103819000D02*
X57380000Y-102819000D01*
X54580000Y-103819000D02*
X54580000Y-102819000D01*
X57380000Y-102819000D02*
X54580000Y-102819000D01*
X57380000Y-103819000D02*
X54580000Y-103819000D01*
D15*
X57855000Y-101819000D02*
G75*
G03X57855000Y-101819000I-125000J0D01*
G01*
D12*
X64780000Y-107019000D02*
X69580000Y-107019000D01*
X64780000Y-104219000D02*
X69580000Y-104219000D01*
X64780000Y-107019000D02*
X64780000Y-104219000D01*
X69580000Y-107019000D02*
X69580000Y-104219000D01*
D13*
X64580000Y-108519000D02*
G75*
G03X64580000Y-108519000I-150000J0D01*
G01*
D14*
X65680000Y-106319000D02*
G75*
G03X65680000Y-106319000I-200000J0D01*
G01*
D10*
X98280000Y-114485000D02*
X96960000Y-114485000D01*
X96060000Y-114485000D02*
X94740000Y-114485000D01*
X96060000Y-112415000D02*
X94740000Y-112415000D01*
X98280000Y-112415000D02*
X96960000Y-112415000D01*
X98280000Y-112415000D02*
X98280000Y-114485000D01*
X94740000Y-112415000D02*
X94740000Y-114485000D01*
X95170000Y-105535000D02*
X93850000Y-105535000D01*
X92950000Y-105535000D02*
X91630000Y-105535000D01*
X92950000Y-103465000D02*
X91630000Y-103465000D01*
X95170000Y-103465000D02*
X93850000Y-103465000D01*
X95170000Y-103465000D02*
X95170000Y-105535000D01*
X91630000Y-103465000D02*
X91630000Y-105535000D01*
X100950000Y-80750000D02*
X100950000Y-82105000D01*
X98550000Y-80750000D02*
X98550000Y-82105000D01*
X98550000Y-77395000D02*
X98550000Y-78750000D01*
X98550000Y-77395000D02*
X100950000Y-77395000D01*
X98550000Y-82105000D02*
X100950000Y-82105000D01*
X100950000Y-77395000D02*
X100950000Y-78750000D01*
X97500000Y-85450000D02*
X96145000Y-85450000D01*
X97500000Y-83050000D02*
X96145000Y-83050000D01*
X100855000Y-83050000D02*
X99500000Y-83050000D01*
X100855000Y-83050000D02*
X100855000Y-85450000D01*
X96145000Y-83050000D02*
X96145000Y-85450000D01*
X100855000Y-85450000D02*
X99500000Y-85450000D01*
D16*
X91180000Y-82100000D02*
X91180000Y-76900000D01*
X94820000Y-76900000D02*
X94820000Y-82100000D01*
X65160000Y-82169000D02*
X65160000Y-76969000D01*
X68800000Y-76969000D02*
X68800000Y-82169000D01*
D10*
X60230000Y-85519000D02*
X58875000Y-85519000D01*
X60230000Y-83119000D02*
X58875000Y-83119000D01*
X63585000Y-83119000D02*
X62230000Y-83119000D01*
X63585000Y-83119000D02*
X63585000Y-85519000D01*
X58875000Y-83119000D02*
X58875000Y-85519000D01*
X63585000Y-85519000D02*
X62230000Y-85519000D01*
X61430000Y-81069000D02*
X61430000Y-82424000D01*
X59030000Y-81069000D02*
X59030000Y-82424000D01*
X59030000Y-77714000D02*
X59030000Y-79069000D01*
X59030000Y-77714000D02*
X61430000Y-77714000D01*
X59030000Y-82424000D02*
X61430000Y-82424000D01*
X61430000Y-77714000D02*
X61430000Y-79069000D01*
D16*
X56380000Y-98439000D02*
X57580000Y-98439000D01*
X57580000Y-100199000D02*
X56380000Y-100199000D01*
D10*
X60945000Y-106589000D02*
X60945000Y-105269000D01*
X60945000Y-104369000D02*
X60945000Y-103049000D01*
X63015000Y-104369000D02*
X63015000Y-103049000D01*
X63015000Y-106589000D02*
X63015000Y-105269000D01*
X63015000Y-106589000D02*
X60945000Y-106589000D01*
X63015000Y-103049000D02*
X60945000Y-103049000D01*
X66895000Y-113639000D02*
X66895000Y-112319000D01*
X66895000Y-111419000D02*
X66895000Y-110099000D01*
X68965000Y-111419000D02*
X68965000Y-110099000D01*
X68965000Y-113639000D02*
X68965000Y-112319000D01*
X68965000Y-113639000D02*
X66895000Y-113639000D01*
X68965000Y-110099000D02*
X66895000Y-110099000D01*
X74300000Y-104304000D02*
X72980000Y-104304000D01*
X72080000Y-104304000D02*
X70760000Y-104304000D01*
X72080000Y-102234000D02*
X70760000Y-102234000D01*
X74300000Y-102234000D02*
X72980000Y-102234000D01*
X74300000Y-102234000D02*
X74300000Y-104304000D01*
X70760000Y-102234000D02*
X70760000Y-104304000D01*
X102035000Y-93230000D02*
X102035000Y-96770000D01*
X99965000Y-96770000D02*
X102035000Y-96770000D01*
X99965000Y-93230000D02*
X102035000Y-93230000D01*
X99965000Y-93230000D02*
X99965000Y-96770000D01*
X64500000Y-100604000D02*
X60960000Y-100604000D01*
X60960000Y-98534000D02*
X60960000Y-100604000D01*
X64500000Y-98534000D02*
X64500000Y-100604000D01*
X64500000Y-98534000D02*
X60960000Y-98534000D01*
D16*
X109830000Y-62355000D02*
X109830000Y-57529000D01*
D17*
G36*
X108052000Y-61339000D02*
G01*
X106528000Y-61339000D01*
X106528000Y-58799000D01*
X108052000Y-58799000D01*
X108052000Y-61339000D01*
G37*
X108052000Y-61339000D02*
X106528000Y-61339000D01*
X106528000Y-58799000D01*
X108052000Y-58799000D01*
X108052000Y-61339000D01*
D13*
X106528000Y-60069000D02*
X105512000Y-60069000D01*
D16*
X96876000Y-68451000D02*
X109830000Y-68451000D01*
X96876000Y-51433000D02*
X96876000Y-68451000D01*
X109830000Y-51433000D02*
X96876000Y-51433000D01*
X109830000Y-57529000D02*
X109830000Y-51433000D01*
X108052000Y-57529000D02*
X109830000Y-57529000D01*
X108052000Y-62355000D02*
X108052000Y-57529000D01*
X109830000Y-62355000D02*
X108052000Y-62355000D01*
X109830000Y-68451000D02*
X109830000Y-62355000D01*
X74030000Y-105969000D02*
X73730000Y-106569000D01*
X73430000Y-105969000D02*
X74030000Y-105969000D01*
X73730000Y-106569000D02*
X73430000Y-105969000D01*
X87630000Y-110119000D02*
X79980000Y-110119000D01*
X87630000Y-105619000D02*
X87630000Y-110119000D01*
X88830000Y-105619000D02*
X87630000Y-105619000D01*
X88830000Y-117419000D02*
X88830000Y-105619000D01*
X79980000Y-117419000D02*
X88830000Y-117419000D01*
X72330000Y-110119000D02*
X79980000Y-110119000D01*
X72330000Y-105619000D02*
X72330000Y-110119000D01*
X71130000Y-105619000D02*
X72330000Y-105619000D01*
X71130000Y-117419000D02*
X71130000Y-105619000D01*
X79980000Y-117419000D02*
X71130000Y-117419000D01*
D10*
X96000000Y-101050000D02*
X97000000Y-101050000D01*
X96000000Y-102450000D02*
X97000000Y-102450000D01*
X97000000Y-102450000D02*
X97000000Y-101050000D01*
X96000000Y-102450000D02*
X96000000Y-101050000D01*
X96300000Y-102450000D02*
X96300000Y-101050000D01*
X103500000Y-103300000D02*
X104500000Y-103300000D01*
X103500000Y-104700000D02*
X104500000Y-104700000D01*
X104500000Y-104700000D02*
X104500000Y-103300000D01*
X103500000Y-104700000D02*
X103500000Y-103300000D01*
X103800000Y-104700000D02*
X103800000Y-103300000D01*
X105950000Y-99500000D02*
X105950000Y-100500000D01*
X104550000Y-99500000D02*
X104550000Y-100500000D01*
X104550000Y-100500000D02*
X105950000Y-100500000D01*
X104550000Y-99500000D02*
X105950000Y-99500000D01*
X104550000Y-99800000D02*
X105950000Y-99800000D01*
X104300000Y-90350000D02*
X104300000Y-90950000D01*
D12*
X105850000Y-89190000D02*
X105850000Y-89850000D01*
X105850000Y-89190000D02*
X105035000Y-89190000D01*
X105850000Y-92110000D02*
X105035000Y-92110000D01*
X105850000Y-91450000D02*
X105850000Y-92110000D01*
X105850000Y-91450000D02*
X105850000Y-92110000D01*
X105850000Y-91450000D02*
X105850000Y-92110000D01*
D10*
X56680000Y-93969000D02*
X57280000Y-93969000D01*
D12*
X55520000Y-92419000D02*
X56180000Y-92419000D01*
X55520000Y-92419000D02*
X55520000Y-93234000D01*
X58440000Y-92419000D02*
X58440000Y-93234000D01*
X57780000Y-92419000D02*
X58440000Y-92419000D01*
X57780000Y-92419000D02*
X58440000Y-92419000D01*
X57780000Y-92419000D02*
X58440000Y-92419000D01*
D10*
X105270000Y-106415000D02*
X105270000Y-107685000D01*
X104870000Y-106015000D02*
X103950000Y-106015000D01*
X101730000Y-106415000D02*
X101730000Y-107685000D01*
X103050000Y-106015000D02*
X102130000Y-106015000D01*
X103050000Y-108085000D02*
X102130000Y-108085000D01*
X104870000Y-108085000D02*
X103950000Y-108085000D01*
X105270000Y-107685010D02*
G75*
G02X104870000Y-108085010I-400000J0D01*
G01*
X104870000Y-106015000D02*
G75*
G02X105270000Y-106415000I0J-400000D01*
G01*
X101730000Y-106415000D02*
G75*
G02X102130000Y-106015000I400000J0D01*
G01*
X102130000Y-108085000D02*
G75*
G02X101730000Y-107685000I0J400000D01*
G01*
X90885000Y-99770000D02*
X89615000Y-99770000D01*
X91285000Y-99370000D02*
X91285000Y-98450000D01*
X90885000Y-96230000D02*
X89615000Y-96230000D01*
X91285000Y-97550000D02*
X91285000Y-96630000D01*
X89215000Y-97550000D02*
X89215000Y-96630000D01*
X89215000Y-99370000D02*
X89215000Y-98450000D01*
X89614990Y-99770000D02*
G75*
G02X89214990Y-99370000I0J400000D01*
G01*
X91285000Y-99370000D02*
G75*
G02X90885000Y-99770000I-400000J0D01*
G01*
X90885000Y-96230000D02*
G75*
G02X91285000Y-96630000I0J-400000D01*
G01*
X89215000Y-96630000D02*
G75*
G02X89615000Y-96230000I400000J0D01*
G01*
X95730000Y-99885000D02*
X95730000Y-98615000D01*
X96130000Y-100285000D02*
X97050000Y-100285000D01*
X99270000Y-99885000D02*
X99270000Y-98615000D01*
X97950000Y-100285000D02*
X98870000Y-100285000D01*
X97950000Y-98215000D02*
X98870000Y-98215000D01*
X96130000Y-98215000D02*
X97050000Y-98215000D01*
X95730000Y-98614990D02*
G75*
G02X96130000Y-98214990I400000J0D01*
G01*
X96130000Y-100285000D02*
G75*
G02X95730000Y-99885000I0J400000D01*
G01*
X99270000Y-99885000D02*
G75*
G02X98870000Y-100285000I-400000J0D01*
G01*
X98870000Y-98215000D02*
G75*
G02X99270000Y-98615000I0J-400000D01*
G01*
X98635000Y-96770000D02*
X97365000Y-96770000D01*
X99035000Y-96370000D02*
X99035000Y-95450000D01*
X98635000Y-93230000D02*
X97365000Y-93230000D01*
X99035000Y-94550000D02*
X99035000Y-93630000D01*
X96965000Y-94550000D02*
X96965000Y-93630000D01*
X96965000Y-96370000D02*
X96965000Y-95450000D01*
X97364990Y-96770000D02*
G75*
G02X96964990Y-96370000I0J400000D01*
G01*
X99035000Y-96370000D02*
G75*
G02X98635000Y-96770000I-400000J0D01*
G01*
X98635000Y-93230000D02*
G75*
G02X99035000Y-93630000I0J-400000D01*
G01*
X96965000Y-93630000D02*
G75*
G02X97365000Y-93230000I400000J0D01*
G01*
X106520000Y-93115000D02*
X106520000Y-94385000D01*
X106120000Y-92715000D02*
X105200000Y-92715000D01*
X102980000Y-93115000D02*
X102980000Y-94385000D01*
X104300000Y-92715000D02*
X103380000Y-92715000D01*
X104300000Y-94785000D02*
X103380000Y-94785000D01*
X106120000Y-94785000D02*
X105200000Y-94785000D01*
X106520000Y-94385010D02*
G75*
G02X106120000Y-94785010I-400000J0D01*
G01*
X106120000Y-92715000D02*
G75*
G02X106520000Y-93115000I0J-400000D01*
G01*
X102980000Y-93115000D02*
G75*
G02X103380000Y-92715000I400000J0D01*
G01*
X103380000Y-94785000D02*
G75*
G02X102980000Y-94385000I0J400000D01*
G01*
X100635000Y-90270000D02*
X99365000Y-90270000D01*
X101035000Y-89870000D02*
X101035000Y-88950000D01*
X100635000Y-86730000D02*
X99365000Y-86730000D01*
X101035000Y-88050000D02*
X101035000Y-87130000D01*
X98965000Y-88050000D02*
X98965000Y-87130000D01*
X98965000Y-89870000D02*
X98965000Y-88950000D01*
X99364990Y-90270000D02*
G75*
G02X98964990Y-89870000I0J400000D01*
G01*
X101035000Y-89870000D02*
G75*
G02X100635000Y-90270000I-400000J0D01*
G01*
X100635000Y-86730000D02*
G75*
G02X101035000Y-87130000I0J-400000D01*
G01*
X98965000Y-87130000D02*
G75*
G02X99365000Y-86730000I400000J0D01*
G01*
X75785000Y-100120000D02*
X74515000Y-100120000D01*
X76185000Y-99720000D02*
X76185000Y-98800000D01*
X75785000Y-96580000D02*
X74515000Y-96580000D01*
X76185000Y-97900000D02*
X76185000Y-96980000D01*
X74115000Y-97900000D02*
X74115000Y-96980000D01*
X74115000Y-99720000D02*
X74115000Y-98800000D01*
X74514990Y-100120000D02*
G75*
G02X74114990Y-99720000I0J400000D01*
G01*
X76185000Y-99720000D02*
G75*
G02X75785000Y-100120000I-400000J0D01*
G01*
X75785000Y-96580000D02*
G75*
G02X76185000Y-96980000I0J-400000D01*
G01*
X74115000Y-96980000D02*
G75*
G02X74515000Y-96580000I400000J0D01*
G01*
X84885000Y-100820000D02*
X83615000Y-100820000D01*
X85285000Y-100420000D02*
X85285000Y-99500000D01*
X84885000Y-97280000D02*
X83615000Y-97280000D01*
X85285000Y-98600000D02*
X85285000Y-97680000D01*
X83215000Y-98600000D02*
X83215000Y-97680000D01*
X83215000Y-100420000D02*
X83215000Y-99500000D01*
X83614990Y-100820000D02*
G75*
G02X83214990Y-100420000I0J400000D01*
G01*
X85285000Y-100420000D02*
G75*
G02X84885000Y-100820000I-400000J0D01*
G01*
X84885000Y-97280000D02*
G75*
G02X85285000Y-97680000I0J-400000D01*
G01*
X83215000Y-97680000D02*
G75*
G02X83615000Y-97280000I400000J0D01*
G01*
X84930000Y-102515000D02*
X84930000Y-103785000D01*
X84530000Y-102115000D02*
X83610000Y-102115000D01*
X81390000Y-102515000D02*
X81390000Y-103785000D01*
X82710000Y-102115000D02*
X81790000Y-102115000D01*
X82710000Y-104185000D02*
X81790000Y-104185000D01*
X84530000Y-104185000D02*
X83610000Y-104185000D01*
X84930000Y-103785010D02*
G75*
G02X84530000Y-104185010I-400000J0D01*
G01*
X84530000Y-102115000D02*
G75*
G02X84930000Y-102515000I0J-400000D01*
G01*
X81390000Y-102515000D02*
G75*
G02X81790000Y-102115000I400000J0D01*
G01*
X81790000Y-104185000D02*
G75*
G02X81390000Y-103785000I0J400000D01*
G01*
X59095000Y-86799000D02*
X60365000Y-86799000D01*
X58695000Y-87199000D02*
X58695000Y-88119000D01*
X59095000Y-90339000D02*
X60365000Y-90339000D01*
X58695000Y-89019000D02*
X58695000Y-89939000D01*
X60765000Y-89019000D02*
X60765000Y-89939000D01*
X60765000Y-87199000D02*
X60765000Y-88119000D01*
X60365010Y-86799000D02*
G75*
G02X60765010Y-87199000I0J-400000D01*
G01*
X58695000Y-87199000D02*
G75*
G02X59095000Y-86799000I400000J0D01*
G01*
X59095000Y-90339000D02*
G75*
G02X58695000Y-89939000I0J400000D01*
G01*
X60765000Y-89939000D02*
G75*
G02X60365000Y-90339000I-400000J0D01*
G01*
X55210000Y-97454000D02*
X55210000Y-96184000D01*
X55610000Y-97854000D02*
X56530000Y-97854000D01*
X58750000Y-97454000D02*
X58750000Y-96184000D01*
X57430000Y-97854000D02*
X58350000Y-97854000D01*
X57430000Y-95784000D02*
X58350000Y-95784000D01*
X55610000Y-95784000D02*
X56530000Y-95784000D01*
X55210000Y-96183990D02*
G75*
G02X55610000Y-95783990I400000J0D01*
G01*
X55610000Y-97854000D02*
G75*
G02X55210000Y-97454000I0J400000D01*
G01*
X58750000Y-97454000D02*
G75*
G02X58350000Y-97854000I-400000J0D01*
G01*
X58350000Y-95784000D02*
G75*
G02X58750000Y-96184000I0J-400000D01*
G01*
X60960000Y-97204000D02*
X60960000Y-95934000D01*
X61360000Y-97604000D02*
X62280000Y-97604000D01*
X64500000Y-97204000D02*
X64500000Y-95934000D01*
X63180000Y-97604000D02*
X64100000Y-97604000D01*
X63180000Y-95534000D02*
X64100000Y-95534000D01*
X61360000Y-95534000D02*
X62280000Y-95534000D01*
X60960000Y-95933990D02*
G75*
G02X61360000Y-95533990I400000J0D01*
G01*
X61360000Y-97604000D02*
G75*
G02X60960000Y-97204000I0J400000D01*
G01*
X64500000Y-97204000D02*
G75*
G02X64100000Y-97604000I-400000J0D01*
G01*
X64100000Y-95534000D02*
G75*
G02X64500000Y-95934000I0J-400000D01*
G01*
X54210000Y-107704000D02*
X54210000Y-106434000D01*
X54610000Y-108104000D02*
X55530000Y-108104000D01*
X57750000Y-107704000D02*
X57750000Y-106434000D01*
X56430000Y-108104000D02*
X57350000Y-108104000D01*
X56430000Y-106034000D02*
X57350000Y-106034000D01*
X54610000Y-106034000D02*
X55530000Y-106034000D01*
X54210000Y-106433990D02*
G75*
G02X54610000Y-106033990I400000J0D01*
G01*
X54610000Y-108104000D02*
G75*
G02X54210000Y-107704000I0J400000D01*
G01*
X57750000Y-107704000D02*
G75*
G02X57350000Y-108104000I-400000J0D01*
G01*
X57350000Y-106034000D02*
G75*
G02X57750000Y-106434000I0J-400000D01*
G01*
X61895000Y-107999000D02*
X63165000Y-107999000D01*
X61495000Y-108399000D02*
X61495000Y-109319000D01*
X61895000Y-111539000D02*
X63165000Y-111539000D01*
X61495000Y-110219000D02*
X61495000Y-111139000D01*
X63565000Y-110219000D02*
X63565000Y-111139000D01*
X63565000Y-108399000D02*
X63565000Y-109319000D01*
X63165010Y-107999000D02*
G75*
G02X63565010Y-108399000I0J-400000D01*
G01*
X61495000Y-108399000D02*
G75*
G02X61895000Y-107999000I400000J0D01*
G01*
X61895000Y-111539000D02*
G75*
G02X61495000Y-111139000I0J400000D01*
G01*
X63565000Y-111139000D02*
G75*
G02X63165000Y-111539000I-400000J0D01*
G01*
X65695000Y-97599000D02*
X66965000Y-97599000D01*
X65295000Y-97999000D02*
X65295000Y-98919000D01*
X65695000Y-101139000D02*
X66965000Y-101139000D01*
X65295000Y-99819000D02*
X65295000Y-100739000D01*
X67365000Y-99819000D02*
X67365000Y-100739000D01*
X67365000Y-97999000D02*
X67365000Y-98919000D01*
X66965010Y-97599000D02*
G75*
G02X67365010Y-97999000I0J-400000D01*
G01*
X65295000Y-97999000D02*
G75*
G02X65695000Y-97599000I400000J0D01*
G01*
X65695000Y-101139000D02*
G75*
G02X65295000Y-100739000I0J400000D01*
G01*
X67365000Y-100739000D02*
G75*
G02X66965000Y-101139000I-400000J0D01*
G01*
X53180000Y-102819000D02*
X53180000Y-103819000D01*
X51780000Y-102819000D02*
X51780000Y-103819000D01*
X51780000Y-103819000D02*
X53180000Y-103819000D01*
X51780000Y-102819000D02*
X53180000Y-102819000D01*
X51780000Y-103119000D02*
X53180000Y-103119000D01*
D16*
X65880000Y-111150000D02*
X65880000Y-112350000D01*
X64120000Y-112350000D02*
X64120000Y-111150000D01*
D10*
X71300000Y-101200000D02*
X70300000Y-101200000D01*
X71300000Y-99800000D02*
X70300000Y-99800000D01*
X70300000Y-99800000D02*
X70300000Y-101200000D01*
X71300000Y-99800000D02*
X71300000Y-101200000D01*
X71000000Y-99800000D02*
X71000000Y-101200000D01*
X60180000Y-103569000D02*
X60180000Y-104569000D01*
X58780000Y-103569000D02*
X58780000Y-104569000D01*
X58780000Y-104569000D02*
X60180000Y-104569000D01*
X58780000Y-103569000D02*
X60180000Y-103569000D01*
X58780000Y-103869000D02*
X60180000Y-103869000D01*
D16*
X79810000Y-77620000D02*
X79810000Y-94020000D01*
X79810000Y-94020000D02*
X83110000Y-94020000D01*
X83110000Y-94020000D02*
X86410000Y-94020000D01*
X86410000Y-94020000D02*
X86410000Y-77620000D01*
X86410000Y-77620000D02*
X79810000Y-77620000D01*
D17*
G36*
X79810000Y-81020000D02*
G01*
X86410000Y-81020000D01*
X86410000Y-77620000D01*
X79810000Y-77620000D01*
X79810000Y-81020000D01*
G37*
X79810000Y-81020000D02*
X86410000Y-81020000D01*
X86410000Y-77620000D01*
X79810000Y-77620000D01*
X79810000Y-81020000D01*
G36*
X79810000Y-90620000D02*
G01*
X79810000Y-94020000D01*
X86410000Y-94020000D01*
X86410000Y-90620000D01*
X79810000Y-90620000D01*
G37*
X79810000Y-90620000D02*
X79810000Y-94020000D01*
X86410000Y-94020000D01*
X86410000Y-90620000D01*
X79810000Y-90620000D01*
D16*
X79812000Y-52072000D02*
X79812000Y-68472000D01*
X79812000Y-68472000D02*
X83112000Y-68472000D01*
X83112000Y-68472000D02*
X86412000Y-68472000D01*
X86412000Y-68472000D02*
X86412000Y-52072000D01*
X86412000Y-52072000D02*
X79812000Y-52072000D01*
D17*
G36*
X79812000Y-55472000D02*
G01*
X86412000Y-55472000D01*
X86412000Y-52072000D01*
X79812000Y-52072000D01*
X79812000Y-55472000D01*
G37*
X79812000Y-55472000D02*
X86412000Y-55472000D01*
X86412000Y-52072000D01*
X79812000Y-52072000D01*
X79812000Y-55472000D01*
G36*
X79812000Y-65072000D02*
G01*
X79812000Y-68472000D01*
X86412000Y-68472000D01*
X86412000Y-65072000D01*
X79812000Y-65072000D01*
G37*
X79812000Y-65072000D02*
X79812000Y-68472000D01*
X86412000Y-68472000D01*
X86412000Y-65072000D01*
X79812000Y-65072000D01*
G36*
X73208000Y-90620000D02*
G01*
X73208000Y-94020000D01*
X79808000Y-94020000D01*
X79808000Y-90620000D01*
X73208000Y-90620000D01*
G37*
X73208000Y-90620000D02*
X73208000Y-94020000D01*
X79808000Y-94020000D01*
X79808000Y-90620000D01*
X73208000Y-90620000D01*
G36*
X73208000Y-81020000D02*
G01*
X79808000Y-81020000D01*
X79808000Y-77620000D01*
X73208000Y-77620000D01*
X73208000Y-81020000D01*
G37*
X73208000Y-81020000D02*
X79808000Y-81020000D01*
X79808000Y-77620000D01*
X73208000Y-77620000D01*
X73208000Y-81020000D01*
D16*
X79808000Y-77620000D02*
X73208000Y-77620000D01*
X79808000Y-94020000D02*
X79808000Y-77620000D01*
X76508000Y-94020000D02*
X79808000Y-94020000D01*
X73208000Y-94020000D02*
X76508000Y-94020000D01*
X73208000Y-77620000D02*
X73208000Y-94020000D01*
D17*
G36*
X73278000Y-65072000D02*
G01*
X73278000Y-68472000D01*
X79878000Y-68472000D01*
X79878000Y-65072000D01*
X73278000Y-65072000D01*
G37*
X73278000Y-65072000D02*
X73278000Y-68472000D01*
X79878000Y-68472000D01*
X79878000Y-65072000D01*
X73278000Y-65072000D01*
G36*
X73278000Y-55472000D02*
G01*
X79878000Y-55472000D01*
X79878000Y-52072000D01*
X73278000Y-52072000D01*
X73278000Y-55472000D01*
G37*
X73278000Y-55472000D02*
X79878000Y-55472000D01*
X79878000Y-52072000D01*
X73278000Y-52072000D01*
X73278000Y-55472000D01*
D16*
X79878000Y-52072000D02*
X73278000Y-52072000D01*
X79878000Y-68472000D02*
X79878000Y-52072000D01*
X76578000Y-68472000D02*
X79878000Y-68472000D01*
X73278000Y-68472000D02*
X76578000Y-68472000D01*
X73278000Y-52072000D02*
X73278000Y-68472000D01*
X93880000Y-97400000D02*
X93880000Y-98600000D01*
X92120000Y-98600000D02*
X92120000Y-97400000D01*
X108680000Y-99900000D02*
X108680000Y-101100000D01*
X106920000Y-101100000D02*
X106920000Y-99900000D01*
X105350000Y-97380000D02*
X104150000Y-97380000D01*
X104150000Y-95620000D02*
X105350000Y-95620000D01*
X59120000Y-110600000D02*
X59120000Y-109400000D01*
X60880000Y-109400000D02*
X60880000Y-110600000D01*
X49743000Y-57859000D02*
X49743000Y-62685000D01*
D17*
G36*
X51521000Y-58875000D02*
G01*
X53045000Y-58875000D01*
X53045000Y-61415000D01*
X51521000Y-61415000D01*
X51521000Y-58875000D01*
G37*
X51521000Y-58875000D02*
X53045000Y-58875000D01*
X53045000Y-61415000D01*
X51521000Y-61415000D01*
X51521000Y-58875000D01*
D13*
X53045000Y-60145000D02*
X54061000Y-60145000D01*
D16*
X62697000Y-51763000D02*
X49743000Y-51763000D01*
X62697000Y-68781000D02*
X62697000Y-51763000D01*
X49743000Y-68781000D02*
X62697000Y-68781000D01*
X49743000Y-62685000D02*
X49743000Y-68781000D01*
X51521000Y-62685000D02*
X49743000Y-62685000D01*
X51521000Y-57859000D02*
X51521000Y-62685000D01*
X49743000Y-57859000D02*
X51521000Y-57859000D01*
X49743000Y-51763000D02*
X49743000Y-57859000D01*
D11*
X87507142Y-102202380D02*
X87173809Y-101726190D01*
X86935714Y-102202380D02*
X86935714Y-101202380D01*
X87316666Y-101202380D01*
X87411904Y-101250000D01*
X87459523Y-101297619D01*
X87507142Y-101392857D01*
X87507142Y-101535714D01*
X87459523Y-101630952D01*
X87411904Y-101678571D01*
X87316666Y-101726190D01*
X86935714Y-101726190D01*
X88459523Y-102202380D02*
X87888095Y-102202380D01*
X88173809Y-102202380D02*
X88173809Y-101202380D01*
X88078571Y-101345238D01*
X87983333Y-101440476D01*
X87888095Y-101488095D01*
X89316666Y-101202380D02*
X89126190Y-101202380D01*
X89030952Y-101250000D01*
X88983333Y-101297619D01*
X88888095Y-101440476D01*
X88840476Y-101630952D01*
X88840476Y-102011904D01*
X88888095Y-102107142D01*
X88935714Y-102154761D01*
X89030952Y-102202380D01*
X89221428Y-102202380D01*
X89316666Y-102154761D01*
X89364285Y-102107142D01*
X89411904Y-102011904D01*
X89411904Y-101773809D01*
X89364285Y-101678571D01*
X89316666Y-101630952D01*
X89221428Y-101583333D01*
X89030952Y-101583333D01*
X88935714Y-101630952D01*
X88888095Y-101678571D01*
X88840476Y-101773809D01*
X65257866Y-65395285D02*
X65305485Y-65442904D01*
X65353104Y-65585761D01*
X65353104Y-65680999D01*
X65305485Y-65823857D01*
X65210247Y-65919095D01*
X65115009Y-65966714D01*
X64924533Y-66014333D01*
X64781676Y-66014333D01*
X64591200Y-65966714D01*
X64495962Y-65919095D01*
X64400724Y-65823857D01*
X64353104Y-65680999D01*
X64353104Y-65585761D01*
X64400724Y-65442904D01*
X64448343Y-65395285D01*
X65353104Y-64442904D02*
X65353104Y-65014333D01*
X65353104Y-64728619D02*
X64353104Y-64728619D01*
X64495962Y-64823857D01*
X64591200Y-64919095D01*
X64638819Y-65014333D01*
X78115523Y-105045656D02*
X78115523Y-104045656D01*
X78353619Y-104045656D01*
X78496476Y-104093276D01*
X78591714Y-104188514D01*
X78639333Y-104283752D01*
X78686952Y-104474228D01*
X78686952Y-104617085D01*
X78639333Y-104807561D01*
X78591714Y-104902799D01*
X78496476Y-104998037D01*
X78353619Y-105045656D01*
X78115523Y-105045656D01*
X79591714Y-104045656D02*
X79115523Y-104045656D01*
X79067904Y-104521847D01*
X79115523Y-104474228D01*
X79210761Y-104426609D01*
X79448857Y-104426609D01*
X79544095Y-104474228D01*
X79591714Y-104521847D01*
X79639333Y-104617085D01*
X79639333Y-104855180D01*
X79591714Y-104950418D01*
X79544095Y-104998037D01*
X79448857Y-105045656D01*
X79210761Y-105045656D01*
X79115523Y-104998037D01*
X79067904Y-104950418D01*
X96038095Y-104952380D02*
X96038095Y-105761904D01*
X96085714Y-105857142D01*
X96133333Y-105904761D01*
X96228571Y-105952380D01*
X96419047Y-105952380D01*
X96514285Y-105904761D01*
X96561904Y-105857142D01*
X96609523Y-105761904D01*
X96609523Y-104952380D01*
X97561904Y-104952380D02*
X97085714Y-104952380D01*
X97038095Y-105428571D01*
X97085714Y-105380952D01*
X97180952Y-105333333D01*
X97419047Y-105333333D01*
X97514285Y-105380952D01*
X97561904Y-105428571D01*
X97609523Y-105523809D01*
X97609523Y-105761904D01*
X97561904Y-105857142D01*
X97514285Y-105904761D01*
X97419047Y-105952380D01*
X97180952Y-105952380D01*
X97085714Y-105904761D01*
X97038095Y-105857142D01*
X99738095Y-102952380D02*
X99738095Y-103761904D01*
X99785714Y-103857142D01*
X99833333Y-103904761D01*
X99928571Y-103952380D01*
X100119047Y-103952380D01*
X100214285Y-103904761D01*
X100261904Y-103857142D01*
X100309523Y-103761904D01*
X100309523Y-102952380D01*
X101214285Y-103285714D02*
X101214285Y-103952380D01*
X100976190Y-102904761D02*
X100738095Y-103619047D01*
X101357142Y-103619047D01*
X78238095Y-95102380D02*
X78238095Y-95911904D01*
X78285714Y-96007142D01*
X78333333Y-96054761D01*
X78428571Y-96102380D01*
X78619047Y-96102380D01*
X78714285Y-96054761D01*
X78761904Y-96007142D01*
X78809523Y-95911904D01*
X78809523Y-95102380D01*
X79190476Y-95102380D02*
X79809523Y-95102380D01*
X79476190Y-95483333D01*
X79619047Y-95483333D01*
X79714285Y-95530952D01*
X79761904Y-95578571D01*
X79809523Y-95673809D01*
X79809523Y-95911904D01*
X79761904Y-96007142D01*
X79714285Y-96054761D01*
X79619047Y-96102380D01*
X79333333Y-96102380D01*
X79238095Y-96054761D01*
X79190476Y-96007142D01*
X53718095Y-100021380D02*
X53718095Y-100830904D01*
X53765714Y-100926142D01*
X53813333Y-100973761D01*
X53908571Y-101021380D01*
X54099047Y-101021380D01*
X54194285Y-100973761D01*
X54241904Y-100926142D01*
X54289523Y-100830904D01*
X54289523Y-100021380D01*
X54718095Y-100116619D02*
X54765714Y-100069000D01*
X54860952Y-100021380D01*
X55099047Y-100021380D01*
X55194285Y-100069000D01*
X55241904Y-100116619D01*
X55289523Y-100211857D01*
X55289523Y-100307095D01*
X55241904Y-100449952D01*
X54670476Y-101021380D01*
X55289523Y-101021380D01*
X69852380Y-106411904D02*
X70661904Y-106411904D01*
X70757142Y-106364285D01*
X70804761Y-106316666D01*
X70852380Y-106221428D01*
X70852380Y-106030952D01*
X70804761Y-105935714D01*
X70757142Y-105888095D01*
X70661904Y-105840476D01*
X69852380Y-105840476D01*
X70852380Y-104840476D02*
X70852380Y-105411904D01*
X70852380Y-105126190D02*
X69852380Y-105126190D01*
X69995238Y-105221428D01*
X70090476Y-105316666D01*
X70138095Y-105411904D01*
X92357142Y-114102380D02*
X92023809Y-113626190D01*
X91785714Y-114102380D02*
X91785714Y-113102380D01*
X92166666Y-113102380D01*
X92261904Y-113150000D01*
X92309523Y-113197619D01*
X92357142Y-113292857D01*
X92357142Y-113435714D01*
X92309523Y-113530952D01*
X92261904Y-113578571D01*
X92166666Y-113626190D01*
X91785714Y-113626190D01*
X93309523Y-114102380D02*
X92738095Y-114102380D01*
X93023809Y-114102380D02*
X93023809Y-113102380D01*
X92928571Y-113245238D01*
X92833333Y-113340476D01*
X92738095Y-113388095D01*
X93880952Y-113530952D02*
X93785714Y-113483333D01*
X93738095Y-113435714D01*
X93690476Y-113340476D01*
X93690476Y-113292857D01*
X93738095Y-113197619D01*
X93785714Y-113150000D01*
X93880952Y-113102380D01*
X94071428Y-113102380D01*
X94166666Y-113150000D01*
X94214285Y-113197619D01*
X94261904Y-113292857D01*
X94261904Y-113340476D01*
X94214285Y-113435714D01*
X94166666Y-113483333D01*
X94071428Y-113530952D01*
X93880952Y-113530952D01*
X93785714Y-113578571D01*
X93738095Y-113626190D01*
X93690476Y-113721428D01*
X93690476Y-113911904D01*
X93738095Y-114007142D01*
X93785714Y-114054761D01*
X93880952Y-114102380D01*
X94071428Y-114102380D01*
X94166666Y-114054761D01*
X94214285Y-114007142D01*
X94261904Y-113911904D01*
X94261904Y-113721428D01*
X94214285Y-113626190D01*
X94166666Y-113578571D01*
X94071428Y-113530952D01*
X89507142Y-104952380D02*
X89173809Y-104476190D01*
X88935714Y-104952380D02*
X88935714Y-103952380D01*
X89316666Y-103952380D01*
X89411904Y-104000000D01*
X89459523Y-104047619D01*
X89507142Y-104142857D01*
X89507142Y-104285714D01*
X89459523Y-104380952D01*
X89411904Y-104428571D01*
X89316666Y-104476190D01*
X88935714Y-104476190D01*
X90459523Y-104952380D02*
X89888095Y-104952380D01*
X90173809Y-104952380D02*
X90173809Y-103952380D01*
X90078571Y-104095238D01*
X89983333Y-104190476D01*
X89888095Y-104238095D01*
X90792857Y-103952380D02*
X91459523Y-103952380D01*
X91030952Y-104952380D01*
X102051656Y-79414238D02*
X101575466Y-79747571D01*
X102051656Y-79985666D02*
X101051656Y-79985666D01*
X101051656Y-79604714D01*
X101099276Y-79509476D01*
X101146895Y-79461857D01*
X101242133Y-79414238D01*
X101384990Y-79414238D01*
X101480228Y-79461857D01*
X101527847Y-79509476D01*
X101575466Y-79604714D01*
X101575466Y-79985666D01*
X102051656Y-78461857D02*
X102051656Y-79033285D01*
X102051656Y-78747571D02*
X101051656Y-78747571D01*
X101194514Y-78842809D01*
X101289752Y-78938047D01*
X101337371Y-79033285D01*
X101146895Y-78080904D02*
X101099276Y-78033285D01*
X101051656Y-77938047D01*
X101051656Y-77699952D01*
X101099276Y-77604714D01*
X101146895Y-77557095D01*
X101242133Y-77509476D01*
X101337371Y-77509476D01*
X101480228Y-77557095D01*
X102051656Y-78128523D01*
X102051656Y-77509476D01*
X101857142Y-84702380D02*
X101523809Y-84226190D01*
X101285714Y-84702380D02*
X101285714Y-83702380D01*
X101666666Y-83702380D01*
X101761904Y-83750000D01*
X101809523Y-83797619D01*
X101857142Y-83892857D01*
X101857142Y-84035714D01*
X101809523Y-84130952D01*
X101761904Y-84178571D01*
X101666666Y-84226190D01*
X101285714Y-84226190D01*
X102809523Y-84702380D02*
X102238095Y-84702380D01*
X102523809Y-84702380D02*
X102523809Y-83702380D01*
X102428571Y-83845238D01*
X102333333Y-83940476D01*
X102238095Y-83988095D01*
X103761904Y-84702380D02*
X103190476Y-84702380D01*
X103476190Y-84702380D02*
X103476190Y-83702380D01*
X103380952Y-83845238D01*
X103285714Y-83940476D01*
X103190476Y-83988095D01*
X93952380Y-79842857D02*
X93476190Y-80176190D01*
X93952380Y-80414285D02*
X92952380Y-80414285D01*
X92952380Y-80033333D01*
X93000000Y-79938095D01*
X93047619Y-79890476D01*
X93142857Y-79842857D01*
X93285714Y-79842857D01*
X93380952Y-79890476D01*
X93428571Y-79938095D01*
X93476190Y-80033333D01*
X93476190Y-80414285D01*
X93952380Y-78890476D02*
X93952380Y-79461904D01*
X93952380Y-79176190D02*
X92952380Y-79176190D01*
X93095238Y-79271428D01*
X93190476Y-79366666D01*
X93238095Y-79461904D01*
X92952380Y-78271428D02*
X92952380Y-78176190D01*
X93000000Y-78080952D01*
X93047619Y-78033333D01*
X93142857Y-77985714D01*
X93333333Y-77938095D01*
X93571428Y-77938095D01*
X93761904Y-77985714D01*
X93857142Y-78033333D01*
X93904761Y-78080952D01*
X93952380Y-78176190D01*
X93952380Y-78271428D01*
X93904761Y-78366666D01*
X93857142Y-78414285D01*
X93761904Y-78461904D01*
X93571428Y-78509523D01*
X93333333Y-78509523D01*
X93142857Y-78461904D01*
X93047619Y-78414285D01*
X93000000Y-78366666D01*
X92952380Y-78271428D01*
X64832380Y-79735666D02*
X64356190Y-80069000D01*
X64832380Y-80307095D02*
X63832380Y-80307095D01*
X63832380Y-79926142D01*
X63880000Y-79830904D01*
X63927619Y-79783285D01*
X64022857Y-79735666D01*
X64165714Y-79735666D01*
X64260952Y-79783285D01*
X64308571Y-79830904D01*
X64356190Y-79926142D01*
X64356190Y-80307095D01*
X64832380Y-79259476D02*
X64832380Y-79069000D01*
X64784761Y-78973761D01*
X64737142Y-78926142D01*
X64594285Y-78830904D01*
X64403809Y-78783285D01*
X64022857Y-78783285D01*
X63927619Y-78830904D01*
X63880000Y-78878523D01*
X63832380Y-78973761D01*
X63832380Y-79164238D01*
X63880000Y-79259476D01*
X63927619Y-79307095D01*
X64022857Y-79354714D01*
X64260952Y-79354714D01*
X64356190Y-79307095D01*
X64403809Y-79259476D01*
X64451428Y-79164238D01*
X64451428Y-78973761D01*
X64403809Y-78878523D01*
X64356190Y-78830904D01*
X64260952Y-78783285D01*
X57633333Y-84702380D02*
X57300000Y-84226190D01*
X57061904Y-84702380D02*
X57061904Y-83702380D01*
X57442857Y-83702380D01*
X57538095Y-83750000D01*
X57585714Y-83797619D01*
X57633333Y-83892857D01*
X57633333Y-84035714D01*
X57585714Y-84130952D01*
X57538095Y-84178571D01*
X57442857Y-84226190D01*
X57061904Y-84226190D01*
X58204761Y-84130952D02*
X58109523Y-84083333D01*
X58061904Y-84035714D01*
X58014285Y-83940476D01*
X58014285Y-83892857D01*
X58061904Y-83797619D01*
X58109523Y-83750000D01*
X58204761Y-83702380D01*
X58395238Y-83702380D01*
X58490476Y-83750000D01*
X58538095Y-83797619D01*
X58585714Y-83892857D01*
X58585714Y-83940476D01*
X58538095Y-84035714D01*
X58490476Y-84083333D01*
X58395238Y-84130952D01*
X58204761Y-84130952D01*
X58109523Y-84178571D01*
X58061904Y-84226190D01*
X58014285Y-84321428D01*
X58014285Y-84511904D01*
X58061904Y-84607142D01*
X58109523Y-84654761D01*
X58204761Y-84702380D01*
X58395238Y-84702380D01*
X58490476Y-84654761D01*
X58538095Y-84607142D01*
X58585714Y-84511904D01*
X58585714Y-84321428D01*
X58538095Y-84226190D01*
X58490476Y-84178571D01*
X58395238Y-84130952D01*
X58682380Y-80235666D02*
X58206190Y-80569000D01*
X58682380Y-80807095D02*
X57682380Y-80807095D01*
X57682380Y-80426142D01*
X57730000Y-80330904D01*
X57777619Y-80283285D01*
X57872857Y-80235666D01*
X58015714Y-80235666D01*
X58110952Y-80283285D01*
X58158571Y-80330904D01*
X58206190Y-80426142D01*
X58206190Y-80807095D01*
X57682380Y-79902333D02*
X57682380Y-79235666D01*
X58682380Y-79664238D01*
X59563333Y-99771380D02*
X59230000Y-99295190D01*
X58991904Y-99771380D02*
X58991904Y-98771380D01*
X59372857Y-98771380D01*
X59468095Y-98819000D01*
X59515714Y-98866619D01*
X59563333Y-98961857D01*
X59563333Y-99104714D01*
X59515714Y-99199952D01*
X59468095Y-99247571D01*
X59372857Y-99295190D01*
X58991904Y-99295190D01*
X60420476Y-98771380D02*
X60230000Y-98771380D01*
X60134761Y-98819000D01*
X60087142Y-98866619D01*
X59991904Y-99009476D01*
X59944285Y-99199952D01*
X59944285Y-99580904D01*
X59991904Y-99676142D01*
X60039523Y-99723761D01*
X60134761Y-99771380D01*
X60325238Y-99771380D01*
X60420476Y-99723761D01*
X60468095Y-99676142D01*
X60515714Y-99580904D01*
X60515714Y-99342809D01*
X60468095Y-99247571D01*
X60420476Y-99199952D01*
X60325238Y-99152333D01*
X60134761Y-99152333D01*
X60039523Y-99199952D01*
X59991904Y-99247571D01*
X59944285Y-99342809D01*
X61633333Y-102702380D02*
X61300000Y-102226190D01*
X61061904Y-102702380D02*
X61061904Y-101702380D01*
X61442857Y-101702380D01*
X61538095Y-101750000D01*
X61585714Y-101797619D01*
X61633333Y-101892857D01*
X61633333Y-102035714D01*
X61585714Y-102130952D01*
X61538095Y-102178571D01*
X61442857Y-102226190D01*
X61061904Y-102226190D01*
X61966666Y-101702380D02*
X62585714Y-101702380D01*
X62252380Y-102083333D01*
X62395238Y-102083333D01*
X62490476Y-102130952D01*
X62538095Y-102178571D01*
X62585714Y-102273809D01*
X62585714Y-102511904D01*
X62538095Y-102607142D01*
X62490476Y-102654761D01*
X62395238Y-102702380D01*
X62109523Y-102702380D01*
X62014285Y-102654761D01*
X61966666Y-102607142D01*
X70252380Y-112016666D02*
X69776190Y-112350000D01*
X70252380Y-112588095D02*
X69252380Y-112588095D01*
X69252380Y-112207142D01*
X69300000Y-112111904D01*
X69347619Y-112064285D01*
X69442857Y-112016666D01*
X69585714Y-112016666D01*
X69680952Y-112064285D01*
X69728571Y-112111904D01*
X69776190Y-112207142D01*
X69776190Y-112588095D01*
X69347619Y-111635714D02*
X69300000Y-111588095D01*
X69252380Y-111492857D01*
X69252380Y-111254761D01*
X69300000Y-111159523D01*
X69347619Y-111111904D01*
X69442857Y-111064285D01*
X69538095Y-111064285D01*
X69680952Y-111111904D01*
X70252380Y-111683333D01*
X70252380Y-111064285D01*
X74433333Y-101902380D02*
X74100000Y-101426190D01*
X73861904Y-101902380D02*
X73861904Y-100902380D01*
X74242857Y-100902380D01*
X74338095Y-100950000D01*
X74385714Y-100997619D01*
X74433333Y-101092857D01*
X74433333Y-101235714D01*
X74385714Y-101330952D01*
X74338095Y-101378571D01*
X74242857Y-101426190D01*
X73861904Y-101426190D01*
X75385714Y-101902380D02*
X74814285Y-101902380D01*
X75100000Y-101902380D02*
X75100000Y-100902380D01*
X75004761Y-101045238D01*
X74909523Y-101140476D01*
X74814285Y-101188095D01*
X101452380Y-92166666D02*
X101452380Y-92642857D01*
X100452380Y-92642857D01*
X100547619Y-91880952D02*
X100500000Y-91833333D01*
X100452380Y-91738095D01*
X100452380Y-91500000D01*
X100500000Y-91404761D01*
X100547619Y-91357142D01*
X100642857Y-91309523D01*
X100738095Y-91309523D01*
X100880952Y-91357142D01*
X101452380Y-91928571D01*
X101452380Y-91309523D01*
X63633333Y-101902380D02*
X63157142Y-101902380D01*
X63157142Y-100902380D01*
X64490476Y-101902380D02*
X63919047Y-101902380D01*
X64204761Y-101902380D02*
X64204761Y-100902380D01*
X64109523Y-101045238D01*
X64014285Y-101140476D01*
X63919047Y-101188095D01*
X102892666Y-68665380D02*
X102892666Y-69379666D01*
X102845047Y-69522523D01*
X102749809Y-69617761D01*
X102606952Y-69665380D01*
X102511714Y-69665380D01*
X103273619Y-68665380D02*
X103892666Y-68665380D01*
X103559333Y-69046333D01*
X103702190Y-69046333D01*
X103797428Y-69093952D01*
X103845047Y-69141571D01*
X103892666Y-69236809D01*
X103892666Y-69474904D01*
X103845047Y-69570142D01*
X103797428Y-69617761D01*
X103702190Y-69665380D01*
X103416476Y-69665380D01*
X103321238Y-69617761D01*
X103273619Y-69570142D01*
X79646666Y-104021380D02*
X79646666Y-104735666D01*
X79599047Y-104878523D01*
X79503809Y-104973761D01*
X79360952Y-105021380D01*
X79265714Y-105021380D01*
X80075238Y-104116619D02*
X80122857Y-104069000D01*
X80218095Y-104021380D01*
X80456190Y-104021380D01*
X80551428Y-104069000D01*
X80599047Y-104116619D01*
X80646666Y-104211857D01*
X80646666Y-104307095D01*
X80599047Y-104449952D01*
X80027619Y-105021380D01*
X80646666Y-105021380D01*
X95761904Y-103952380D02*
X95761904Y-102952380D01*
X96000000Y-102952380D01*
X96142857Y-103000000D01*
X96238095Y-103095238D01*
X96285714Y-103190476D01*
X96333333Y-103380952D01*
X96333333Y-103523809D01*
X96285714Y-103714285D01*
X96238095Y-103809523D01*
X96142857Y-103904761D01*
X96000000Y-103952380D01*
X95761904Y-103952380D01*
X96809523Y-103952380D02*
X97000000Y-103952380D01*
X97095238Y-103904761D01*
X97142857Y-103857142D01*
X97238095Y-103714285D01*
X97285714Y-103523809D01*
X97285714Y-103142857D01*
X97238095Y-103047619D01*
X97190476Y-103000000D01*
X97095238Y-102952380D01*
X96904761Y-102952380D01*
X96809523Y-103000000D01*
X96761904Y-103047619D01*
X96714285Y-103142857D01*
X96714285Y-103380952D01*
X96761904Y-103476190D01*
X96809523Y-103523809D01*
X96904761Y-103571428D01*
X97095238Y-103571428D01*
X97190476Y-103523809D01*
X97238095Y-103476190D01*
X97285714Y-103380952D01*
X106761904Y-104452380D02*
X106761904Y-103452380D01*
X107000000Y-103452380D01*
X107142857Y-103500000D01*
X107238095Y-103595238D01*
X107285714Y-103690476D01*
X107333333Y-103880952D01*
X107333333Y-104023809D01*
X107285714Y-104214285D01*
X107238095Y-104309523D01*
X107142857Y-104404761D01*
X107000000Y-104452380D01*
X106761904Y-104452380D01*
X107904761Y-103880952D02*
X107809523Y-103833333D01*
X107761904Y-103785714D01*
X107714285Y-103690476D01*
X107714285Y-103642857D01*
X107761904Y-103547619D01*
X107809523Y-103500000D01*
X107904761Y-103452380D01*
X108095238Y-103452380D01*
X108190476Y-103500000D01*
X108238095Y-103547619D01*
X108285714Y-103642857D01*
X108285714Y-103690476D01*
X108238095Y-103785714D01*
X108190476Y-103833333D01*
X108095238Y-103880952D01*
X107904761Y-103880952D01*
X107809523Y-103928571D01*
X107761904Y-103976190D01*
X107714285Y-104071428D01*
X107714285Y-104261904D01*
X107761904Y-104357142D01*
X107809523Y-104404761D01*
X107904761Y-104452380D01*
X108095238Y-104452380D01*
X108190476Y-104404761D01*
X108238095Y-104357142D01*
X108285714Y-104261904D01*
X108285714Y-104071428D01*
X108238095Y-103976190D01*
X108190476Y-103928571D01*
X108095238Y-103880952D01*
X104452380Y-102788095D02*
X103452380Y-102788095D01*
X103452380Y-102550000D01*
X103500000Y-102407142D01*
X103595238Y-102311904D01*
X103690476Y-102264285D01*
X103880952Y-102216666D01*
X104023809Y-102216666D01*
X104214285Y-102264285D01*
X104309523Y-102311904D01*
X104404761Y-102407142D01*
X104452380Y-102550000D01*
X104452380Y-102788095D01*
X103452380Y-101883333D02*
X103452380Y-101216666D01*
X104452380Y-101645238D01*
X102852380Y-91388095D02*
X101852380Y-91388095D01*
X101852380Y-91150000D01*
X101900000Y-91007142D01*
X101995238Y-90911904D01*
X102090476Y-90864285D01*
X102280952Y-90816666D01*
X102423809Y-90816666D01*
X102614285Y-90864285D01*
X102709523Y-90911904D01*
X102804761Y-91007142D01*
X102852380Y-91150000D01*
X102852380Y-91388095D01*
X101852380Y-89959523D02*
X101852380Y-90150000D01*
X101900000Y-90245238D01*
X101947619Y-90292857D01*
X102090476Y-90388095D01*
X102280952Y-90435714D01*
X102661904Y-90435714D01*
X102757142Y-90388095D01*
X102804761Y-90340476D01*
X102852380Y-90245238D01*
X102852380Y-90054761D01*
X102804761Y-89959523D01*
X102757142Y-89911904D01*
X102661904Y-89864285D01*
X102423809Y-89864285D01*
X102328571Y-89911904D01*
X102280952Y-89959523D01*
X102233333Y-90054761D01*
X102233333Y-90245238D01*
X102280952Y-90340476D01*
X102328571Y-90388095D01*
X102423809Y-90435714D01*
X59568656Y-93306876D02*
X58568656Y-93306876D01*
X58568656Y-93068781D01*
X58616276Y-92925923D01*
X58711514Y-92830685D01*
X58806752Y-92783066D01*
X58997228Y-92735447D01*
X59140085Y-92735447D01*
X59330561Y-92783066D01*
X59425799Y-92830685D01*
X59521037Y-92925923D01*
X59568656Y-93068781D01*
X59568656Y-93306876D01*
X58901990Y-91878304D02*
X59568656Y-91878304D01*
X58521037Y-92116400D02*
X59235323Y-92354495D01*
X59235323Y-91735447D01*
X106357142Y-107407142D02*
X106309523Y-107454761D01*
X106166666Y-107502380D01*
X106071428Y-107502380D01*
X105928571Y-107454761D01*
X105833333Y-107359523D01*
X105785714Y-107264285D01*
X105738095Y-107073809D01*
X105738095Y-106930952D01*
X105785714Y-106740476D01*
X105833333Y-106645238D01*
X105928571Y-106550000D01*
X106071428Y-106502380D01*
X106166666Y-106502380D01*
X106309523Y-106550000D01*
X106357142Y-106597619D01*
X107309523Y-107502380D02*
X106738095Y-107502380D01*
X107023809Y-107502380D02*
X107023809Y-106502380D01*
X106928571Y-106645238D01*
X106833333Y-106740476D01*
X106738095Y-106788095D01*
X108166666Y-106502380D02*
X107976190Y-106502380D01*
X107880952Y-106550000D01*
X107833333Y-106597619D01*
X107738095Y-106740476D01*
X107690476Y-106930952D01*
X107690476Y-107311904D01*
X107738095Y-107407142D01*
X107785714Y-107454761D01*
X107880952Y-107502380D01*
X108071428Y-107502380D01*
X108166666Y-107454761D01*
X108214285Y-107407142D01*
X108261904Y-107311904D01*
X108261904Y-107073809D01*
X108214285Y-106978571D01*
X108166666Y-106930952D01*
X108071428Y-106883333D01*
X107880952Y-106883333D01*
X107785714Y-106930952D01*
X107738095Y-106978571D01*
X107690476Y-107073809D01*
X88922866Y-99036476D02*
X88970485Y-99084095D01*
X89018104Y-99226952D01*
X89018104Y-99322190D01*
X88970485Y-99465047D01*
X88875247Y-99560285D01*
X88780009Y-99607904D01*
X88589533Y-99655523D01*
X88446676Y-99655523D01*
X88256200Y-99607904D01*
X88160962Y-99560285D01*
X88065724Y-99465047D01*
X88018104Y-99322190D01*
X88018104Y-99226952D01*
X88065724Y-99084095D01*
X88113343Y-99036476D01*
X89018104Y-98084095D02*
X89018104Y-98655523D01*
X89018104Y-98369809D02*
X88018104Y-98369809D01*
X88160962Y-98465047D01*
X88256200Y-98560285D01*
X88303819Y-98655523D01*
X88018104Y-97179333D02*
X88018104Y-97655523D01*
X88494295Y-97703142D01*
X88446676Y-97655523D01*
X88399057Y-97560285D01*
X88399057Y-97322190D01*
X88446676Y-97226952D01*
X88494295Y-97179333D01*
X88589533Y-97131714D01*
X88827628Y-97131714D01*
X88922866Y-97179333D01*
X88970485Y-97226952D01*
X89018104Y-97322190D01*
X89018104Y-97560285D01*
X88970485Y-97655523D01*
X88922866Y-97703142D01*
X96463523Y-97922866D02*
X96415904Y-97970485D01*
X96273047Y-98018104D01*
X96177809Y-98018104D01*
X96034952Y-97970485D01*
X95939714Y-97875247D01*
X95892095Y-97780009D01*
X95844476Y-97589533D01*
X95844476Y-97446676D01*
X95892095Y-97256200D01*
X95939714Y-97160962D01*
X96034952Y-97065724D01*
X96177809Y-97018104D01*
X96273047Y-97018104D01*
X96415904Y-97065724D01*
X96463523Y-97113343D01*
X97415904Y-98018104D02*
X96844476Y-98018104D01*
X97130190Y-98018104D02*
X97130190Y-97018104D01*
X97034952Y-97160962D01*
X96939714Y-97256200D01*
X96844476Y-97303819D01*
X98273047Y-97351438D02*
X98273047Y-98018104D01*
X98034952Y-96970485D02*
X97796857Y-97684771D01*
X98415904Y-97684771D01*
X96672866Y-96036476D02*
X96720485Y-96084095D01*
X96768104Y-96226952D01*
X96768104Y-96322190D01*
X96720485Y-96465047D01*
X96625247Y-96560285D01*
X96530009Y-96607904D01*
X96339533Y-96655523D01*
X96196676Y-96655523D01*
X96006200Y-96607904D01*
X95910962Y-96560285D01*
X95815724Y-96465047D01*
X95768104Y-96322190D01*
X95768104Y-96226952D01*
X95815724Y-96084095D01*
X95863343Y-96036476D01*
X96768104Y-95084095D02*
X96768104Y-95655523D01*
X96768104Y-95369809D02*
X95768104Y-95369809D01*
X95910962Y-95465047D01*
X96006200Y-95560285D01*
X96053819Y-95655523D01*
X95768104Y-94750761D02*
X95768104Y-94131714D01*
X96149057Y-94465047D01*
X96149057Y-94322190D01*
X96196676Y-94226952D01*
X96244295Y-94179333D01*
X96339533Y-94131714D01*
X96577628Y-94131714D01*
X96672866Y-94179333D01*
X96720485Y-94226952D01*
X96768104Y-94322190D01*
X96768104Y-94607904D01*
X96720485Y-94703142D01*
X96672866Y-94750761D01*
X107607142Y-94107142D02*
X107559523Y-94154761D01*
X107416666Y-94202380D01*
X107321428Y-94202380D01*
X107178571Y-94154761D01*
X107083333Y-94059523D01*
X107035714Y-93964285D01*
X106988095Y-93773809D01*
X106988095Y-93630952D01*
X107035714Y-93440476D01*
X107083333Y-93345238D01*
X107178571Y-93250000D01*
X107321428Y-93202380D01*
X107416666Y-93202380D01*
X107559523Y-93250000D01*
X107607142Y-93297619D01*
X108559523Y-94202380D02*
X107988095Y-94202380D01*
X108273809Y-94202380D02*
X108273809Y-93202380D01*
X108178571Y-93345238D01*
X108083333Y-93440476D01*
X107988095Y-93488095D01*
X108940476Y-93297619D02*
X108988095Y-93250000D01*
X109083333Y-93202380D01*
X109321428Y-93202380D01*
X109416666Y-93250000D01*
X109464285Y-93297619D01*
X109511904Y-93392857D01*
X109511904Y-93488095D01*
X109464285Y-93630952D01*
X108892857Y-94202380D01*
X109511904Y-94202380D01*
X98357142Y-89142857D02*
X98404761Y-89190476D01*
X98452380Y-89333333D01*
X98452380Y-89428571D01*
X98404761Y-89571428D01*
X98309523Y-89666666D01*
X98214285Y-89714285D01*
X98023809Y-89761904D01*
X97880952Y-89761904D01*
X97690476Y-89714285D01*
X97595238Y-89666666D01*
X97500000Y-89571428D01*
X97452380Y-89428571D01*
X97452380Y-89333333D01*
X97500000Y-89190476D01*
X97547619Y-89142857D01*
X98452380Y-88190476D02*
X98452380Y-88761904D01*
X98452380Y-88476190D02*
X97452380Y-88476190D01*
X97595238Y-88571428D01*
X97690476Y-88666666D01*
X97738095Y-88761904D01*
X98452380Y-87238095D02*
X98452380Y-87809523D01*
X98452380Y-87523809D02*
X97452380Y-87523809D01*
X97595238Y-87619047D01*
X97690476Y-87714285D01*
X97738095Y-87809523D01*
X73822866Y-99386476D02*
X73870485Y-99434095D01*
X73918104Y-99576952D01*
X73918104Y-99672190D01*
X73870485Y-99815047D01*
X73775247Y-99910285D01*
X73680009Y-99957904D01*
X73489533Y-100005523D01*
X73346676Y-100005523D01*
X73156200Y-99957904D01*
X73060962Y-99910285D01*
X72965724Y-99815047D01*
X72918104Y-99672190D01*
X72918104Y-99576952D01*
X72965724Y-99434095D01*
X73013343Y-99386476D01*
X73918104Y-98434095D02*
X73918104Y-99005523D01*
X73918104Y-98719809D02*
X72918104Y-98719809D01*
X73060962Y-98815047D01*
X73156200Y-98910285D01*
X73203819Y-99005523D01*
X72918104Y-97815047D02*
X72918104Y-97719809D01*
X72965724Y-97624571D01*
X73013343Y-97576952D01*
X73108581Y-97529333D01*
X73299057Y-97481714D01*
X73537152Y-97481714D01*
X73727628Y-97529333D01*
X73822866Y-97576952D01*
X73870485Y-97624571D01*
X73918104Y-97719809D01*
X73918104Y-97815047D01*
X73870485Y-97910285D01*
X73822866Y-97957904D01*
X73727628Y-98005523D01*
X73537152Y-98053142D01*
X73299057Y-98053142D01*
X73108581Y-98005523D01*
X73013343Y-97957904D01*
X72965724Y-97910285D01*
X72918104Y-97815047D01*
X86607142Y-99416666D02*
X86654761Y-99464285D01*
X86702380Y-99607142D01*
X86702380Y-99702380D01*
X86654761Y-99845238D01*
X86559523Y-99940476D01*
X86464285Y-99988095D01*
X86273809Y-100035714D01*
X86130952Y-100035714D01*
X85940476Y-99988095D01*
X85845238Y-99940476D01*
X85750000Y-99845238D01*
X85702380Y-99702380D01*
X85702380Y-99607142D01*
X85750000Y-99464285D01*
X85797619Y-99416666D01*
X86702380Y-98940476D02*
X86702380Y-98750000D01*
X86654761Y-98654761D01*
X86607142Y-98607142D01*
X86464285Y-98511904D01*
X86273809Y-98464285D01*
X85892857Y-98464285D01*
X85797619Y-98511904D01*
X85750000Y-98559523D01*
X85702380Y-98654761D01*
X85702380Y-98845238D01*
X85750000Y-98940476D01*
X85797619Y-98988095D01*
X85892857Y-99035714D01*
X86130952Y-99035714D01*
X86226190Y-98988095D01*
X86273809Y-98940476D01*
X86321428Y-98845238D01*
X86321428Y-98654761D01*
X86273809Y-98559523D01*
X86226190Y-98511904D01*
X86130952Y-98464285D01*
X83386952Y-105191418D02*
X83339333Y-105239037D01*
X83196476Y-105286656D01*
X83101238Y-105286656D01*
X82958380Y-105239037D01*
X82863142Y-105143799D01*
X82815523Y-105048561D01*
X82767904Y-104858085D01*
X82767904Y-104715228D01*
X82815523Y-104524752D01*
X82863142Y-104429514D01*
X82958380Y-104334276D01*
X83101238Y-104286656D01*
X83196476Y-104286656D01*
X83339333Y-104334276D01*
X83386952Y-104381895D01*
X83958380Y-104715228D02*
X83863142Y-104667609D01*
X83815523Y-104619990D01*
X83767904Y-104524752D01*
X83767904Y-104477133D01*
X83815523Y-104381895D01*
X83863142Y-104334276D01*
X83958380Y-104286656D01*
X84148857Y-104286656D01*
X84244095Y-104334276D01*
X84291714Y-104381895D01*
X84339333Y-104477133D01*
X84339333Y-104524752D01*
X84291714Y-104619990D01*
X84244095Y-104667609D01*
X84148857Y-104715228D01*
X83958380Y-104715228D01*
X83863142Y-104762847D01*
X83815523Y-104810466D01*
X83767904Y-104905704D01*
X83767904Y-105096180D01*
X83815523Y-105191418D01*
X83863142Y-105239037D01*
X83958380Y-105286656D01*
X84148857Y-105286656D01*
X84244095Y-105239037D01*
X84291714Y-105191418D01*
X84339333Y-105096180D01*
X84339333Y-104905704D01*
X84291714Y-104810466D01*
X84244095Y-104762847D01*
X84148857Y-104715228D01*
X57957142Y-88616666D02*
X58004761Y-88664285D01*
X58052380Y-88807142D01*
X58052380Y-88902380D01*
X58004761Y-89045238D01*
X57909523Y-89140476D01*
X57814285Y-89188095D01*
X57623809Y-89235714D01*
X57480952Y-89235714D01*
X57290476Y-89188095D01*
X57195238Y-89140476D01*
X57100000Y-89045238D01*
X57052380Y-88902380D01*
X57052380Y-88807142D01*
X57100000Y-88664285D01*
X57147619Y-88616666D01*
X57052380Y-88283333D02*
X57052380Y-87616666D01*
X58052380Y-88045238D01*
X59563333Y-97176142D02*
X59515714Y-97223761D01*
X59372857Y-97271380D01*
X59277619Y-97271380D01*
X59134761Y-97223761D01*
X59039523Y-97128523D01*
X58991904Y-97033285D01*
X58944285Y-96842809D01*
X58944285Y-96699952D01*
X58991904Y-96509476D01*
X59039523Y-96414238D01*
X59134761Y-96319000D01*
X59277619Y-96271380D01*
X59372857Y-96271380D01*
X59515714Y-96319000D01*
X59563333Y-96366619D01*
X60420476Y-96271380D02*
X60230000Y-96271380D01*
X60134761Y-96319000D01*
X60087142Y-96366619D01*
X59991904Y-96509476D01*
X59944285Y-96699952D01*
X59944285Y-97080904D01*
X59991904Y-97176142D01*
X60039523Y-97223761D01*
X60134761Y-97271380D01*
X60325238Y-97271380D01*
X60420476Y-97223761D01*
X60468095Y-97176142D01*
X60515714Y-97080904D01*
X60515714Y-96842809D01*
X60468095Y-96747571D01*
X60420476Y-96699952D01*
X60325238Y-96652333D01*
X60134761Y-96652333D01*
X60039523Y-96699952D01*
X59991904Y-96747571D01*
X59944285Y-96842809D01*
X62169714Y-95241866D02*
X62122095Y-95289485D01*
X61979238Y-95337104D01*
X61884000Y-95337104D01*
X61741142Y-95289485D01*
X61645904Y-95194247D01*
X61598285Y-95099009D01*
X61550666Y-94908533D01*
X61550666Y-94765676D01*
X61598285Y-94575200D01*
X61645904Y-94479962D01*
X61741142Y-94384724D01*
X61884000Y-94337104D01*
X61979238Y-94337104D01*
X62122095Y-94384724D01*
X62169714Y-94432343D01*
X63074476Y-94337104D02*
X62598285Y-94337104D01*
X62550666Y-94813295D01*
X62598285Y-94765676D01*
X62693523Y-94718057D01*
X62931619Y-94718057D01*
X63026857Y-94765676D01*
X63074476Y-94813295D01*
X63122095Y-94908533D01*
X63122095Y-95146628D01*
X63074476Y-95241866D01*
X63026857Y-95289485D01*
X62931619Y-95337104D01*
X62693523Y-95337104D01*
X62598285Y-95289485D01*
X62550666Y-95241866D01*
X52813333Y-107426142D02*
X52765714Y-107473761D01*
X52622857Y-107521380D01*
X52527619Y-107521380D01*
X52384761Y-107473761D01*
X52289523Y-107378523D01*
X52241904Y-107283285D01*
X52194285Y-107092809D01*
X52194285Y-106949952D01*
X52241904Y-106759476D01*
X52289523Y-106664238D01*
X52384761Y-106569000D01*
X52527619Y-106521380D01*
X52622857Y-106521380D01*
X52765714Y-106569000D01*
X52813333Y-106616619D01*
X53670476Y-106854714D02*
X53670476Y-107521380D01*
X53432380Y-106473761D02*
X53194285Y-107188047D01*
X53813333Y-107188047D01*
X60887142Y-110685666D02*
X60934761Y-110733285D01*
X60982380Y-110876142D01*
X60982380Y-110971380D01*
X60934761Y-111114238D01*
X60839523Y-111209476D01*
X60744285Y-111257095D01*
X60553809Y-111304714D01*
X60410952Y-111304714D01*
X60220476Y-111257095D01*
X60125238Y-111209476D01*
X60030000Y-111114238D01*
X59982380Y-110971380D01*
X59982380Y-110876142D01*
X60030000Y-110733285D01*
X60077619Y-110685666D01*
X59982380Y-110352333D02*
X59982380Y-109733285D01*
X60363333Y-110066619D01*
X60363333Y-109923761D01*
X60410952Y-109828523D01*
X60458571Y-109780904D01*
X60553809Y-109733285D01*
X60791904Y-109733285D01*
X60887142Y-109780904D01*
X60934761Y-109828523D01*
X60982380Y-109923761D01*
X60982380Y-110209476D01*
X60934761Y-110304714D01*
X60887142Y-110352333D01*
X66687142Y-96535666D02*
X66734761Y-96583285D01*
X66782380Y-96726142D01*
X66782380Y-96821380D01*
X66734761Y-96964238D01*
X66639523Y-97059476D01*
X66544285Y-97107095D01*
X66353809Y-97154714D01*
X66210952Y-97154714D01*
X66020476Y-97107095D01*
X65925238Y-97059476D01*
X65830000Y-96964238D01*
X65782380Y-96821380D01*
X65782380Y-96726142D01*
X65830000Y-96583285D01*
X65877619Y-96535666D01*
X65877619Y-96154714D02*
X65830000Y-96107095D01*
X65782380Y-96011857D01*
X65782380Y-95773761D01*
X65830000Y-95678523D01*
X65877619Y-95630904D01*
X65972857Y-95583285D01*
X66068095Y-95583285D01*
X66210952Y-95630904D01*
X66782380Y-96202333D01*
X66782380Y-95583285D01*
X52932380Y-100557095D02*
X51932380Y-100557095D01*
X51932380Y-100319000D01*
X51980000Y-100176142D01*
X52075238Y-100080904D01*
X52170476Y-100033285D01*
X52360952Y-99985666D01*
X52503809Y-99985666D01*
X52694285Y-100033285D01*
X52789523Y-100080904D01*
X52884761Y-100176142D01*
X52932380Y-100319000D01*
X52932380Y-100557095D01*
X52027619Y-99604714D02*
X51980000Y-99557095D01*
X51932380Y-99461857D01*
X51932380Y-99223761D01*
X51980000Y-99128523D01*
X52027619Y-99080904D01*
X52122857Y-99033285D01*
X52218095Y-99033285D01*
X52360952Y-99080904D01*
X52932380Y-99652333D01*
X52932380Y-99033285D01*
X62833333Y-113302380D02*
X62500000Y-112826190D01*
X62261904Y-113302380D02*
X62261904Y-112302380D01*
X62642857Y-112302380D01*
X62738095Y-112350000D01*
X62785714Y-112397619D01*
X62833333Y-112492857D01*
X62833333Y-112635714D01*
X62785714Y-112730952D01*
X62738095Y-112778571D01*
X62642857Y-112826190D01*
X62261904Y-112826190D01*
X63690476Y-112635714D02*
X63690476Y-113302380D01*
X63452380Y-112254761D02*
X63214285Y-112969047D01*
X63833333Y-112969047D01*
X69261904Y-99002380D02*
X69261904Y-98002380D01*
X69500000Y-98002380D01*
X69642857Y-98050000D01*
X69738095Y-98145238D01*
X69785714Y-98240476D01*
X69833333Y-98430952D01*
X69833333Y-98573809D01*
X69785714Y-98764285D01*
X69738095Y-98859523D01*
X69642857Y-98954761D01*
X69500000Y-99002380D01*
X69261904Y-99002380D01*
X70166666Y-98002380D02*
X70785714Y-98002380D01*
X70452380Y-98383333D01*
X70595238Y-98383333D01*
X70690476Y-98430952D01*
X70738095Y-98478571D01*
X70785714Y-98573809D01*
X70785714Y-98811904D01*
X70738095Y-98907142D01*
X70690476Y-98954761D01*
X70595238Y-99002380D01*
X70309523Y-99002380D01*
X70214285Y-98954761D01*
X70166666Y-98907142D01*
X59932380Y-108307095D02*
X58932380Y-108307095D01*
X58932380Y-108069000D01*
X58980000Y-107926142D01*
X59075238Y-107830904D01*
X59170476Y-107783285D01*
X59360952Y-107735666D01*
X59503809Y-107735666D01*
X59694285Y-107783285D01*
X59789523Y-107830904D01*
X59884761Y-107926142D01*
X59932380Y-108069000D01*
X59932380Y-108307095D01*
X59932380Y-106783285D02*
X59932380Y-107354714D01*
X59932380Y-107069000D02*
X58932380Y-107069000D01*
X59075238Y-107164238D01*
X59170476Y-107259476D01*
X59218095Y-107354714D01*
X78838095Y-75702380D02*
X79409523Y-75702380D01*
X79123809Y-76702380D02*
X79123809Y-75702380D01*
X79695238Y-75797619D02*
X79742857Y-75750000D01*
X79838095Y-75702380D01*
X80076190Y-75702380D01*
X80171428Y-75750000D01*
X80219047Y-75797619D01*
X80266666Y-75892857D01*
X80266666Y-75988095D01*
X80219047Y-76130952D01*
X79647619Y-76702380D01*
X80266666Y-76702380D01*
X79038095Y-50624380D02*
X79609523Y-50624380D01*
X79323809Y-51624380D02*
X79323809Y-50624380D01*
X80466666Y-51624380D02*
X79895238Y-51624380D01*
X80180952Y-51624380D02*
X80180952Y-50624380D01*
X80085714Y-50767238D01*
X79990476Y-50862476D01*
X79895238Y-50910095D01*
X93452380Y-95492857D02*
X92976190Y-95826190D01*
X93452380Y-96064285D02*
X92452380Y-96064285D01*
X92452380Y-95683333D01*
X92500000Y-95588095D01*
X92547619Y-95540476D01*
X92642857Y-95492857D01*
X92785714Y-95492857D01*
X92880952Y-95540476D01*
X92928571Y-95588095D01*
X92976190Y-95683333D01*
X92976190Y-96064285D01*
X93452380Y-94540476D02*
X93452380Y-95111904D01*
X93452380Y-94826190D02*
X92452380Y-94826190D01*
X92595238Y-94921428D01*
X92690476Y-95016666D01*
X92738095Y-95111904D01*
X92452380Y-93635714D02*
X92452380Y-94111904D01*
X92928571Y-94159523D01*
X92880952Y-94111904D01*
X92833333Y-94016666D01*
X92833333Y-93778571D01*
X92880952Y-93683333D01*
X92928571Y-93635714D01*
X93023809Y-93588095D01*
X93261904Y-93588095D01*
X93357142Y-93635714D01*
X93404761Y-93683333D01*
X93452380Y-93778571D01*
X93452380Y-94016666D01*
X93404761Y-94111904D01*
X93357142Y-94159523D01*
X107157142Y-98539380D02*
X106823809Y-98063190D01*
X106585714Y-98539380D02*
X106585714Y-97539380D01*
X106966666Y-97539380D01*
X107061904Y-97587000D01*
X107109523Y-97634619D01*
X107157142Y-97729857D01*
X107157142Y-97872714D01*
X107109523Y-97967952D01*
X107061904Y-98015571D01*
X106966666Y-98063190D01*
X106585714Y-98063190D01*
X108109523Y-98539380D02*
X107538095Y-98539380D01*
X107823809Y-98539380D02*
X107823809Y-97539380D01*
X107728571Y-97682238D01*
X107633333Y-97777476D01*
X107538095Y-97825095D01*
X108966666Y-97872714D02*
X108966666Y-98539380D01*
X108728571Y-97491761D02*
X108490476Y-98206047D01*
X109109523Y-98206047D01*
X107357142Y-96952380D02*
X107023809Y-96476190D01*
X106785714Y-96952380D02*
X106785714Y-95952380D01*
X107166666Y-95952380D01*
X107261904Y-96000000D01*
X107309523Y-96047619D01*
X107357142Y-96142857D01*
X107357142Y-96285714D01*
X107309523Y-96380952D01*
X107261904Y-96428571D01*
X107166666Y-96476190D01*
X106785714Y-96476190D01*
X108309523Y-96952380D02*
X107738095Y-96952380D01*
X108023809Y-96952380D02*
X108023809Y-95952380D01*
X107928571Y-96095238D01*
X107833333Y-96190476D01*
X107738095Y-96238095D01*
X108642857Y-95952380D02*
X109261904Y-95952380D01*
X108928571Y-96333333D01*
X109071428Y-96333333D01*
X109166666Y-96380952D01*
X109214285Y-96428571D01*
X109261904Y-96523809D01*
X109261904Y-96761904D01*
X109214285Y-96857142D01*
X109166666Y-96904761D01*
X109071428Y-96952380D01*
X108785714Y-96952380D01*
X108690476Y-96904761D01*
X108642857Y-96857142D01*
X58702380Y-110066666D02*
X58226190Y-110400000D01*
X58702380Y-110638095D02*
X57702380Y-110638095D01*
X57702380Y-110257142D01*
X57750000Y-110161904D01*
X57797619Y-110114285D01*
X57892857Y-110066666D01*
X58035714Y-110066666D01*
X58130952Y-110114285D01*
X58178571Y-110161904D01*
X58226190Y-110257142D01*
X58226190Y-110638095D01*
X57702380Y-109161904D02*
X57702380Y-109638095D01*
X58178571Y-109685714D01*
X58130952Y-109638095D01*
X58083333Y-109542857D01*
X58083333Y-109304761D01*
X58130952Y-109209523D01*
X58178571Y-109161904D01*
X58273809Y-109114285D01*
X58511904Y-109114285D01*
X58607142Y-109161904D01*
X58654761Y-109209523D01*
X58702380Y-109304761D01*
X58702380Y-109542857D01*
X58654761Y-109638095D01*
X58607142Y-109685714D01*
M02*
