%TF.GenerationSoftware,KiCad,Pcbnew,(5.1.4)-1*%
%TF.CreationDate,2020-11-11T00:06:55+08:00*%
%TF.ProjectId,Directional_coupler,44697265-6374-4696-9f6e-616c5f636f75,rev?*%
%TF.SameCoordinates,Original*%
%TF.FileFunction,Copper,L2,Bot*%
%TF.FilePolarity,Positive*%
%FSLAX46Y46*%
G04 Gerber Fmt 4.6, Leading zero omitted, Abs format (unit mm)*
G04 Created by KiCad (PCBNEW (5.1.4)-1) date 2020-11-11 00:06:55*
%MOMM*%
%LPD*%
G04 APERTURE LIST*
%ADD10C,0.800000*%
%ADD11C,1.750000*%
%ADD12R,1.750000X1.750000*%
%ADD13C,6.000000*%
%ADD14C,0.508000*%
%ADD15C,0.381000*%
%ADD16C,0.254000*%
%ADD17C,0.350000*%
G04 APERTURE END LIST*
D10*
X102560000Y-52703000D03*
X100560000Y-52703000D03*
X98560000Y-54481000D03*
X100560000Y-54481000D03*
X104560000Y-56259000D03*
X102560000Y-54481000D03*
X108560000Y-52703000D03*
X98560000Y-52703000D03*
X108560000Y-56259000D03*
X106560000Y-56259000D03*
X100560000Y-56259000D03*
X108560000Y-54481000D03*
X106560000Y-54481000D03*
X102560000Y-56259000D03*
X104560000Y-52703000D03*
X106560000Y-52703000D03*
X98560000Y-56259000D03*
X104560000Y-54481000D03*
X106560000Y-65657000D03*
X104560000Y-65657000D03*
X100560000Y-65657000D03*
X98560000Y-65657000D03*
X108560000Y-65657000D03*
X102560000Y-65657000D03*
X106560000Y-63879000D03*
X104560000Y-63879000D03*
X100560000Y-63879000D03*
X98560000Y-63879000D03*
X108560000Y-63879000D03*
X102560000Y-63879000D03*
X98560000Y-67435000D03*
X100560000Y-67435000D03*
X102560000Y-67435000D03*
X104560000Y-67435000D03*
X106560000Y-67435000D03*
X108560000Y-67435000D03*
D11*
X86230000Y-108069000D03*
X83730000Y-108069000D03*
X81230000Y-108069000D03*
X78730000Y-108069000D03*
X76230000Y-108069000D03*
D12*
X73730000Y-108069000D03*
D10*
X57056810Y-73812500D03*
X57056810Y-76187500D03*
X55000000Y-77375000D03*
X52943190Y-76187500D03*
X52943190Y-73812500D03*
X55000000Y-72625000D03*
D13*
X55000000Y-75000000D03*
D10*
X57056810Y-111312500D03*
X57056810Y-113687500D03*
X55000000Y-114875000D03*
X52943190Y-113687500D03*
X52943190Y-111312500D03*
X55000000Y-110125000D03*
D13*
X55000000Y-112500000D03*
D10*
X106814810Y-110999500D03*
X106814810Y-113374500D03*
X104758000Y-114562000D03*
X102701190Y-113374500D03*
X102701190Y-110999500D03*
X104758000Y-109812000D03*
D13*
X104758000Y-112187000D03*
D10*
X107056810Y-73812500D03*
X107056810Y-76187500D03*
X105000000Y-77375000D03*
X102943190Y-76187500D03*
X102943190Y-73812500D03*
X105000000Y-72625000D03*
D13*
X105000000Y-75000000D03*
D10*
X57013000Y-67511000D03*
X59013000Y-67511000D03*
X61013000Y-65733000D03*
X59013000Y-65733000D03*
X55013000Y-63955000D03*
X57013000Y-65733000D03*
X51013000Y-67511000D03*
X61013000Y-67511000D03*
X51013000Y-63955000D03*
X53013000Y-63955000D03*
X59013000Y-63955000D03*
X51013000Y-65733000D03*
X53013000Y-65733000D03*
X57013000Y-63955000D03*
X55013000Y-67511000D03*
X53013000Y-67511000D03*
X61013000Y-63955000D03*
X55013000Y-65733000D03*
X53013000Y-54557000D03*
X55013000Y-54557000D03*
X59013000Y-54557000D03*
X61013000Y-54557000D03*
X51013000Y-54557000D03*
X57013000Y-54557000D03*
X53013000Y-56335000D03*
X55013000Y-56335000D03*
X59013000Y-56335000D03*
X61013000Y-56335000D03*
X51013000Y-56335000D03*
X57013000Y-56335000D03*
X61013000Y-52779000D03*
X59013000Y-52779000D03*
X57013000Y-52779000D03*
X55013000Y-52779000D03*
X53013000Y-52779000D03*
X51013000Y-52779000D03*
X76950000Y-104350000D03*
X60430000Y-107069000D03*
X64430000Y-104769000D03*
X67700000Y-100300000D03*
X72219000Y-98969000D03*
X55980000Y-103319000D03*
X58029203Y-102688174D03*
X55000000Y-99250000D03*
X61000000Y-96500000D03*
X65250000Y-98500000D03*
X75000000Y-96500000D03*
X54250000Y-107000000D03*
X62500000Y-111500000D03*
X69000000Y-109500000D03*
X85250000Y-103000000D03*
X85500000Y-98250000D03*
X54750000Y-96750000D03*
X55000000Y-94250000D03*
X59250000Y-77000000D03*
X60250000Y-77000000D03*
X61250000Y-77000000D03*
X55876718Y-100811218D03*
X95400000Y-99250000D03*
X104400000Y-108250000D03*
X92800000Y-111050000D03*
X101775199Y-102668601D03*
X94200000Y-97050000D03*
X90200000Y-96050000D03*
X102800000Y-89650000D03*
X51400000Y-77850000D03*
X51400000Y-71850000D03*
X63500000Y-54250000D03*
X66000000Y-54250000D03*
X68500000Y-54250000D03*
X71000000Y-54250000D03*
X73500000Y-51750000D03*
X76000000Y-51750000D03*
X78500000Y-51750000D03*
X81000000Y-51750000D03*
X83500000Y-51750000D03*
X86000000Y-51750000D03*
X88500000Y-54250000D03*
X91000000Y-54250000D03*
X93500000Y-54250000D03*
X96000000Y-54250000D03*
X63500000Y-69250000D03*
X66000000Y-69250000D03*
X68500000Y-69250000D03*
X71000000Y-69250000D03*
X73500000Y-69250000D03*
X76000000Y-69250000D03*
X78500000Y-69250000D03*
X81000000Y-69250000D03*
X83500000Y-69250000D03*
X86000000Y-69250000D03*
X88500000Y-66750000D03*
X91000000Y-66750000D03*
X93500000Y-66750000D03*
X96000000Y-66750000D03*
X91000000Y-74250000D03*
X93500000Y-74250000D03*
X96000000Y-74250000D03*
X63500000Y-74250000D03*
X66000000Y-74250000D03*
X68500000Y-74250000D03*
X71000000Y-74250000D03*
X88500000Y-74250000D03*
X98500000Y-74250000D03*
X73500000Y-74250000D03*
X76000000Y-74250000D03*
X78500000Y-74250000D03*
X81000000Y-74250000D03*
X83500000Y-74250000D03*
X86000000Y-74250000D03*
X63500000Y-91750000D03*
X66000000Y-91750000D03*
X68500000Y-91750000D03*
X71000000Y-91750000D03*
X88500000Y-91750000D03*
X91000000Y-91750000D03*
X93500000Y-91750000D03*
X96000000Y-91750000D03*
X98500000Y-91750000D03*
X51400000Y-80390000D03*
X51400000Y-82930000D03*
X51400000Y-85470000D03*
X51400000Y-88010000D03*
X51400000Y-90550000D03*
X51400000Y-93090000D03*
X51400000Y-95630000D03*
X51400000Y-98170000D03*
X51400000Y-100650000D03*
X51400000Y-103250000D03*
X51400000Y-108330000D03*
X51400000Y-110870000D03*
X51400000Y-113410000D03*
X51400000Y-115950000D03*
X108500000Y-71750000D03*
X108500000Y-79370000D03*
X108500000Y-81910000D03*
X108500000Y-84450000D03*
X108500000Y-86990000D03*
X108500000Y-89530000D03*
X108500000Y-92070000D03*
X108500000Y-94610000D03*
X108500000Y-97150000D03*
X108500000Y-105450000D03*
X108500000Y-107310000D03*
X108500000Y-109850000D03*
X108500000Y-112390000D03*
X108500000Y-114930000D03*
X53940000Y-115950000D03*
X56480000Y-115950000D03*
X59020000Y-115950000D03*
X61560000Y-115950000D03*
X64100000Y-115950000D03*
X66640000Y-115950000D03*
X69180000Y-115950000D03*
X71720000Y-115950000D03*
X74260000Y-115950000D03*
X76800000Y-115950000D03*
X79340000Y-115950000D03*
X81880000Y-115950000D03*
X84420000Y-115950000D03*
X86960000Y-115950000D03*
X89500000Y-115950000D03*
X92040000Y-115950000D03*
X94580000Y-115950000D03*
X97120000Y-115950000D03*
X99660000Y-115950000D03*
X102200000Y-115950000D03*
X104740000Y-115950000D03*
X107280000Y-115950000D03*
X76300000Y-104350000D03*
X53500000Y-101750000D03*
X57143347Y-100732547D03*
X92400000Y-106050000D03*
X104400000Y-98250000D03*
X100800000Y-97649982D03*
X107600000Y-102650000D03*
X99849370Y-103316837D03*
D14*
X76066000Y-104350000D02*
X76950000Y-104350000D01*
X73730000Y-108069000D02*
X73730000Y-106686000D01*
X73730000Y-106686000D02*
X76066000Y-104350000D01*
X62130000Y-107069000D02*
X64430000Y-104769000D01*
X60430000Y-107069000D02*
X62130000Y-107069000D01*
X71653315Y-98969000D02*
X72219000Y-98969000D01*
X68465315Y-98969000D02*
X71653315Y-98969000D01*
X67700000Y-99734315D02*
X68465315Y-98969000D01*
X67700000Y-100300000D02*
X67700000Y-99734315D01*
D15*
X57398377Y-103319000D02*
X58029203Y-102688174D01*
X55980000Y-103319000D02*
X57398377Y-103319000D01*
D16*
X53500000Y-101750000D02*
X53899999Y-102149999D01*
X56291580Y-102149999D02*
X57143347Y-101298232D01*
X57143347Y-101298232D02*
X57143347Y-100732547D01*
X53899999Y-102149999D02*
X56291580Y-102149999D01*
D15*
X83249000Y-106050000D02*
X81230000Y-108069000D01*
X92400000Y-106050000D02*
X83249000Y-106050000D01*
X103799982Y-97649982D02*
X104400000Y-98250000D01*
X100800000Y-97649982D02*
X103799982Y-97649982D01*
D16*
X107600000Y-102650000D02*
X106533164Y-103716836D01*
X106533164Y-103716836D02*
X100249369Y-103716836D01*
X100249369Y-103716836D02*
X99849370Y-103316837D01*
G36*
X109215000Y-116715000D02*
G01*
X50785000Y-116715000D01*
X50785000Y-106967061D01*
X59395000Y-106967061D01*
X59395000Y-107170939D01*
X59434774Y-107370898D01*
X59512795Y-107559256D01*
X59626063Y-107728774D01*
X59770226Y-107872937D01*
X59939744Y-107986205D01*
X60128102Y-108064226D01*
X60328061Y-108104000D01*
X60531939Y-108104000D01*
X60731898Y-108064226D01*
X60920256Y-107986205D01*
X60962468Y-107958000D01*
X62086340Y-107958000D01*
X62130000Y-107962300D01*
X62173660Y-107958000D01*
X62173667Y-107958000D01*
X62304274Y-107945136D01*
X62471851Y-107894303D01*
X62626291Y-107811753D01*
X62761659Y-107700659D01*
X62789499Y-107666736D01*
X63262235Y-107194000D01*
X72216928Y-107194000D01*
X72216928Y-108944000D01*
X72229188Y-109068482D01*
X72265498Y-109188180D01*
X72324463Y-109298494D01*
X72403815Y-109395185D01*
X72500506Y-109474537D01*
X72610820Y-109533502D01*
X72730518Y-109569812D01*
X72855000Y-109582072D01*
X74605000Y-109582072D01*
X74729482Y-109569812D01*
X74849180Y-109533502D01*
X74959494Y-109474537D01*
X75056185Y-109395185D01*
X75135537Y-109298494D01*
X75194502Y-109188180D01*
X75198974Y-109173436D01*
X75267431Y-109241893D01*
X75514747Y-109407144D01*
X75789549Y-109520971D01*
X76081278Y-109579000D01*
X76378722Y-109579000D01*
X76670451Y-109520971D01*
X76945253Y-109407144D01*
X77192569Y-109241893D01*
X77402893Y-109031569D01*
X77480000Y-108916170D01*
X77557107Y-109031569D01*
X77767431Y-109241893D01*
X78014747Y-109407144D01*
X78289549Y-109520971D01*
X78581278Y-109579000D01*
X78878722Y-109579000D01*
X79170451Y-109520971D01*
X79445253Y-109407144D01*
X79692569Y-109241893D01*
X79902893Y-109031569D01*
X79980000Y-108916170D01*
X80057107Y-109031569D01*
X80267431Y-109241893D01*
X80514747Y-109407144D01*
X80789549Y-109520971D01*
X81081278Y-109579000D01*
X81378722Y-109579000D01*
X81670451Y-109520971D01*
X81945253Y-109407144D01*
X82192569Y-109241893D01*
X82402893Y-109031569D01*
X82480000Y-108916170D01*
X82557107Y-109031569D01*
X82767431Y-109241893D01*
X83014747Y-109407144D01*
X83289549Y-109520971D01*
X83581278Y-109579000D01*
X83878722Y-109579000D01*
X84170451Y-109520971D01*
X84445253Y-109407144D01*
X84692569Y-109241893D01*
X84902893Y-109031569D01*
X85068144Y-108784253D01*
X85181971Y-108509451D01*
X85240000Y-108217722D01*
X85240000Y-107920278D01*
X85181971Y-107628549D01*
X85068144Y-107353747D01*
X84902893Y-107106431D01*
X84692569Y-106896107D01*
X84661728Y-106875500D01*
X91772497Y-106875500D01*
X91909744Y-106967205D01*
X92098102Y-107045226D01*
X92298061Y-107085000D01*
X92501939Y-107085000D01*
X92701898Y-107045226D01*
X92890256Y-106967205D01*
X93059774Y-106853937D01*
X93203937Y-106709774D01*
X93317205Y-106540256D01*
X93395226Y-106351898D01*
X93435000Y-106151939D01*
X93435000Y-105948061D01*
X93395226Y-105748102D01*
X93317205Y-105559744D01*
X93203937Y-105390226D01*
X93059774Y-105246063D01*
X92890256Y-105132795D01*
X92701898Y-105054774D01*
X92501939Y-105015000D01*
X92298061Y-105015000D01*
X92098102Y-105054774D01*
X91909744Y-105132795D01*
X91772497Y-105224500D01*
X83289550Y-105224500D01*
X83248999Y-105220506D01*
X83208449Y-105224500D01*
X83208447Y-105224500D01*
X83087174Y-105236444D01*
X82931566Y-105283647D01*
X82788157Y-105360301D01*
X82758062Y-105385000D01*
X82662459Y-105463459D01*
X82636606Y-105494961D01*
X81540406Y-106591161D01*
X81378722Y-106559000D01*
X81081278Y-106559000D01*
X80789549Y-106617029D01*
X80514747Y-106730856D01*
X80267431Y-106896107D01*
X80057107Y-107106431D01*
X79980000Y-107221830D01*
X79902893Y-107106431D01*
X79692569Y-106896107D01*
X79445253Y-106730856D01*
X79170451Y-106617029D01*
X78878722Y-106559000D01*
X78581278Y-106559000D01*
X78289549Y-106617029D01*
X78014747Y-106730856D01*
X77767431Y-106896107D01*
X77557107Y-107106431D01*
X77480000Y-107221830D01*
X77402893Y-107106431D01*
X77192569Y-106896107D01*
X76945253Y-106730856D01*
X76670451Y-106617029D01*
X76378722Y-106559000D01*
X76081278Y-106559000D01*
X75789549Y-106617029D01*
X75514747Y-106730856D01*
X75267431Y-106896107D01*
X75198974Y-106964564D01*
X75194502Y-106949820D01*
X75135537Y-106839506D01*
X75056185Y-106742815D01*
X74987109Y-106686126D01*
X76288236Y-105385000D01*
X76401939Y-105385000D01*
X76601898Y-105345226D01*
X76625000Y-105335657D01*
X76648102Y-105345226D01*
X76848061Y-105385000D01*
X77051939Y-105385000D01*
X77251898Y-105345226D01*
X77440256Y-105267205D01*
X77609774Y-105153937D01*
X77753937Y-105009774D01*
X77867205Y-104840256D01*
X77945226Y-104651898D01*
X77985000Y-104451939D01*
X77985000Y-104248061D01*
X77945226Y-104048102D01*
X77867205Y-103859744D01*
X77753937Y-103690226D01*
X77609774Y-103546063D01*
X77440256Y-103432795D01*
X77251898Y-103354774D01*
X77051939Y-103315000D01*
X76848061Y-103315000D01*
X76648102Y-103354774D01*
X76625000Y-103364343D01*
X76601898Y-103354774D01*
X76401939Y-103315000D01*
X76198061Y-103315000D01*
X75998102Y-103354774D01*
X75809744Y-103432795D01*
X75640226Y-103546063D01*
X75589759Y-103596530D01*
X75569709Y-103607247D01*
X75569707Y-103607248D01*
X75569708Y-103607248D01*
X75476917Y-103683400D01*
X75434341Y-103718341D01*
X75406506Y-103752258D01*
X73132259Y-106026506D01*
X73098342Y-106054341D01*
X73070507Y-106088258D01*
X73070505Y-106088260D01*
X72987248Y-106189709D01*
X72904698Y-106344148D01*
X72853864Y-106511726D01*
X72849457Y-106556474D01*
X72730518Y-106568188D01*
X72610820Y-106604498D01*
X72500506Y-106663463D01*
X72403815Y-106742815D01*
X72324463Y-106839506D01*
X72265498Y-106949820D01*
X72229188Y-107069518D01*
X72216928Y-107194000D01*
X63262235Y-107194000D01*
X64682106Y-105774130D01*
X64731898Y-105764226D01*
X64920256Y-105686205D01*
X65089774Y-105572937D01*
X65233937Y-105428774D01*
X65347205Y-105259256D01*
X65425226Y-105070898D01*
X65465000Y-104870939D01*
X65465000Y-104667061D01*
X65425226Y-104467102D01*
X65347205Y-104278744D01*
X65233937Y-104109226D01*
X65089774Y-103965063D01*
X64920256Y-103851795D01*
X64731898Y-103773774D01*
X64531939Y-103734000D01*
X64328061Y-103734000D01*
X64128102Y-103773774D01*
X63939744Y-103851795D01*
X63770226Y-103965063D01*
X63626063Y-104109226D01*
X63512795Y-104278744D01*
X63434774Y-104467102D01*
X63424870Y-104516894D01*
X61761765Y-106180000D01*
X60962468Y-106180000D01*
X60920256Y-106151795D01*
X60731898Y-106073774D01*
X60531939Y-106034000D01*
X60328061Y-106034000D01*
X60128102Y-106073774D01*
X59939744Y-106151795D01*
X59770226Y-106265063D01*
X59626063Y-106409226D01*
X59512795Y-106578744D01*
X59434774Y-106767102D01*
X59395000Y-106967061D01*
X50785000Y-106967061D01*
X50785000Y-101648061D01*
X52465000Y-101648061D01*
X52465000Y-101851939D01*
X52504774Y-102051898D01*
X52582795Y-102240256D01*
X52696063Y-102409774D01*
X52840226Y-102553937D01*
X53009744Y-102667205D01*
X53198102Y-102745226D01*
X53398061Y-102785000D01*
X53472604Y-102785000D01*
X53474607Y-102786644D01*
X53606984Y-102857401D01*
X53750621Y-102900973D01*
X53862573Y-102911999D01*
X53862575Y-102911999D01*
X53899998Y-102915685D01*
X53937421Y-102911999D01*
X55028309Y-102911999D01*
X54984774Y-103017102D01*
X54945000Y-103217061D01*
X54945000Y-103420939D01*
X54984774Y-103620898D01*
X55062795Y-103809256D01*
X55176063Y-103978774D01*
X55320226Y-104122937D01*
X55489744Y-104236205D01*
X55678102Y-104314226D01*
X55878061Y-104354000D01*
X56081939Y-104354000D01*
X56281898Y-104314226D01*
X56470256Y-104236205D01*
X56607503Y-104144500D01*
X57357827Y-104144500D01*
X57398377Y-104148494D01*
X57438927Y-104144500D01*
X57438930Y-104144500D01*
X57560203Y-104132556D01*
X57715811Y-104085353D01*
X57859219Y-104008699D01*
X57984918Y-103905541D01*
X58010774Y-103874035D01*
X58169207Y-103715602D01*
X58331101Y-103683400D01*
X58519459Y-103605379D01*
X58688977Y-103492111D01*
X58833140Y-103347948D01*
X58922040Y-103214898D01*
X98814370Y-103214898D01*
X98814370Y-103418776D01*
X98854144Y-103618735D01*
X98932165Y-103807093D01*
X99045433Y-103976611D01*
X99189596Y-104120774D01*
X99359114Y-104234042D01*
X99547472Y-104312063D01*
X99747431Y-104351837D01*
X99821974Y-104351837D01*
X99823977Y-104353481D01*
X99956354Y-104424238D01*
X100099991Y-104467810D01*
X100211943Y-104478836D01*
X100211945Y-104478836D01*
X100249368Y-104482522D01*
X100286791Y-104478836D01*
X106495741Y-104478836D01*
X106533164Y-104482522D01*
X106570587Y-104478836D01*
X106570590Y-104478836D01*
X106682542Y-104467810D01*
X106826179Y-104424238D01*
X106958556Y-104353481D01*
X107074586Y-104258258D01*
X107098448Y-104229182D01*
X107642631Y-103685000D01*
X107701939Y-103685000D01*
X107901898Y-103645226D01*
X108090256Y-103567205D01*
X108259774Y-103453937D01*
X108403937Y-103309774D01*
X108517205Y-103140256D01*
X108595226Y-102951898D01*
X108635000Y-102751939D01*
X108635000Y-102548061D01*
X108595226Y-102348102D01*
X108517205Y-102159744D01*
X108403937Y-101990226D01*
X108259774Y-101846063D01*
X108090256Y-101732795D01*
X107901898Y-101654774D01*
X107701939Y-101615000D01*
X107498061Y-101615000D01*
X107298102Y-101654774D01*
X107109744Y-101732795D01*
X106940226Y-101846063D01*
X106796063Y-101990226D01*
X106682795Y-102159744D01*
X106604774Y-102348102D01*
X106565000Y-102548061D01*
X106565000Y-102607369D01*
X106217534Y-102954836D01*
X100819700Y-102954836D01*
X100766575Y-102826581D01*
X100653307Y-102657063D01*
X100509144Y-102512900D01*
X100339626Y-102399632D01*
X100151268Y-102321611D01*
X99951309Y-102281837D01*
X99747431Y-102281837D01*
X99547472Y-102321611D01*
X99359114Y-102399632D01*
X99189596Y-102512900D01*
X99045433Y-102657063D01*
X98932165Y-102826581D01*
X98854144Y-103014939D01*
X98814370Y-103214898D01*
X58922040Y-103214898D01*
X58946408Y-103178430D01*
X59024429Y-102990072D01*
X59064203Y-102790113D01*
X59064203Y-102586235D01*
X59024429Y-102386276D01*
X58946408Y-102197918D01*
X58833140Y-102028400D01*
X58688977Y-101884237D01*
X58519459Y-101770969D01*
X58331101Y-101692948D01*
X58131142Y-101653174D01*
X57927264Y-101653174D01*
X57804607Y-101677572D01*
X57850749Y-101591247D01*
X57894321Y-101447610D01*
X57894575Y-101445030D01*
X57947284Y-101392321D01*
X58060552Y-101222803D01*
X58138573Y-101034445D01*
X58178347Y-100834486D01*
X58178347Y-100630608D01*
X58138573Y-100430649D01*
X58060552Y-100242291D01*
X58030999Y-100198061D01*
X66665000Y-100198061D01*
X66665000Y-100401939D01*
X66704774Y-100601898D01*
X66782795Y-100790256D01*
X66896063Y-100959774D01*
X67040226Y-101103937D01*
X67209744Y-101217205D01*
X67398102Y-101295226D01*
X67598061Y-101335000D01*
X67801939Y-101335000D01*
X68001898Y-101295226D01*
X68190256Y-101217205D01*
X68359774Y-101103937D01*
X68503937Y-100959774D01*
X68617205Y-100790256D01*
X68695226Y-100601898D01*
X68735000Y-100401939D01*
X68735000Y-100198061D01*
X68695226Y-99998102D01*
X68694705Y-99996845D01*
X68833551Y-99858000D01*
X71686532Y-99858000D01*
X71728744Y-99886205D01*
X71917102Y-99964226D01*
X72117061Y-100004000D01*
X72320939Y-100004000D01*
X72520898Y-99964226D01*
X72709256Y-99886205D01*
X72878774Y-99772937D01*
X73022937Y-99628774D01*
X73136205Y-99459256D01*
X73214226Y-99270898D01*
X73254000Y-99070939D01*
X73254000Y-98867061D01*
X73214226Y-98667102D01*
X73136205Y-98478744D01*
X73022937Y-98309226D01*
X72878774Y-98165063D01*
X72709256Y-98051795D01*
X72520898Y-97973774D01*
X72320939Y-97934000D01*
X72117061Y-97934000D01*
X71917102Y-97973774D01*
X71728744Y-98051795D01*
X71686532Y-98080000D01*
X68508975Y-98080000D01*
X68465315Y-98075700D01*
X68421655Y-98080000D01*
X68421648Y-98080000D01*
X68307640Y-98091229D01*
X68291040Y-98092864D01*
X68231834Y-98110824D01*
X68123464Y-98143697D01*
X68123462Y-98143698D01*
X68103519Y-98154358D01*
X67969024Y-98226247D01*
X67833656Y-98337341D01*
X67805820Y-98371259D01*
X67102259Y-99074821D01*
X67068342Y-99102656D01*
X67040507Y-99136573D01*
X67040505Y-99136575D01*
X67015368Y-99167205D01*
X66957248Y-99238024D01*
X66874697Y-99392464D01*
X66823864Y-99560041D01*
X66811000Y-99690648D01*
X66811000Y-99690655D01*
X66806700Y-99734315D01*
X66810104Y-99768874D01*
X66782795Y-99809744D01*
X66704774Y-99998102D01*
X66665000Y-100198061D01*
X58030999Y-100198061D01*
X57947284Y-100072773D01*
X57803121Y-99928610D01*
X57633603Y-99815342D01*
X57445245Y-99737321D01*
X57245286Y-99697547D01*
X57041408Y-99697547D01*
X56841449Y-99737321D01*
X56653091Y-99815342D01*
X56483573Y-99928610D01*
X56339410Y-100072773D01*
X56226142Y-100242291D01*
X56148121Y-100430649D01*
X56108347Y-100630608D01*
X56108347Y-100834486D01*
X56148121Y-101034445D01*
X56201247Y-101162702D01*
X55975950Y-101387999D01*
X54470330Y-101387999D01*
X54417205Y-101259744D01*
X54303937Y-101090226D01*
X54159774Y-100946063D01*
X53990256Y-100832795D01*
X53801898Y-100754774D01*
X53601939Y-100715000D01*
X53398061Y-100715000D01*
X53198102Y-100754774D01*
X53009744Y-100832795D01*
X52840226Y-100946063D01*
X52696063Y-101090226D01*
X52582795Y-101259744D01*
X52504774Y-101448102D01*
X52465000Y-101648061D01*
X50785000Y-101648061D01*
X50785000Y-97548043D01*
X99765000Y-97548043D01*
X99765000Y-97751921D01*
X99804774Y-97951880D01*
X99882795Y-98140238D01*
X99996063Y-98309756D01*
X100140226Y-98453919D01*
X100309744Y-98567187D01*
X100498102Y-98645208D01*
X100698061Y-98684982D01*
X100901939Y-98684982D01*
X101101898Y-98645208D01*
X101290256Y-98567187D01*
X101427503Y-98475482D01*
X103389574Y-98475482D01*
X103404774Y-98551898D01*
X103482795Y-98740256D01*
X103596063Y-98909774D01*
X103740226Y-99053937D01*
X103909744Y-99167205D01*
X104098102Y-99245226D01*
X104298061Y-99285000D01*
X104501939Y-99285000D01*
X104701898Y-99245226D01*
X104890256Y-99167205D01*
X105059774Y-99053937D01*
X105203937Y-98909774D01*
X105317205Y-98740256D01*
X105395226Y-98551898D01*
X105435000Y-98351939D01*
X105435000Y-98148061D01*
X105395226Y-97948102D01*
X105317205Y-97759744D01*
X105203937Y-97590226D01*
X105059774Y-97446063D01*
X104890256Y-97332795D01*
X104701898Y-97254774D01*
X104540004Y-97222572D01*
X104412379Y-97094947D01*
X104386523Y-97063441D01*
X104260824Y-96960283D01*
X104117416Y-96883629D01*
X103961808Y-96836426D01*
X103840535Y-96824482D01*
X103840532Y-96824482D01*
X103799982Y-96820488D01*
X103759432Y-96824482D01*
X101427503Y-96824482D01*
X101290256Y-96732777D01*
X101101898Y-96654756D01*
X100901939Y-96614982D01*
X100698061Y-96614982D01*
X100498102Y-96654756D01*
X100309744Y-96732777D01*
X100140226Y-96846045D01*
X99996063Y-96990208D01*
X99882795Y-97159726D01*
X99804774Y-97348084D01*
X99765000Y-97548043D01*
X50785000Y-97548043D01*
X50785000Y-71314000D01*
X109215001Y-71314000D01*
X109215000Y-116715000D01*
X109215000Y-116715000D01*
G37*
X109215000Y-116715000D02*
X50785000Y-116715000D01*
X50785000Y-106967061D01*
X59395000Y-106967061D01*
X59395000Y-107170939D01*
X59434774Y-107370898D01*
X59512795Y-107559256D01*
X59626063Y-107728774D01*
X59770226Y-107872937D01*
X59939744Y-107986205D01*
X60128102Y-108064226D01*
X60328061Y-108104000D01*
X60531939Y-108104000D01*
X60731898Y-108064226D01*
X60920256Y-107986205D01*
X60962468Y-107958000D01*
X62086340Y-107958000D01*
X62130000Y-107962300D01*
X62173660Y-107958000D01*
X62173667Y-107958000D01*
X62304274Y-107945136D01*
X62471851Y-107894303D01*
X62626291Y-107811753D01*
X62761659Y-107700659D01*
X62789499Y-107666736D01*
X63262235Y-107194000D01*
X72216928Y-107194000D01*
X72216928Y-108944000D01*
X72229188Y-109068482D01*
X72265498Y-109188180D01*
X72324463Y-109298494D01*
X72403815Y-109395185D01*
X72500506Y-109474537D01*
X72610820Y-109533502D01*
X72730518Y-109569812D01*
X72855000Y-109582072D01*
X74605000Y-109582072D01*
X74729482Y-109569812D01*
X74849180Y-109533502D01*
X74959494Y-109474537D01*
X75056185Y-109395185D01*
X75135537Y-109298494D01*
X75194502Y-109188180D01*
X75198974Y-109173436D01*
X75267431Y-109241893D01*
X75514747Y-109407144D01*
X75789549Y-109520971D01*
X76081278Y-109579000D01*
X76378722Y-109579000D01*
X76670451Y-109520971D01*
X76945253Y-109407144D01*
X77192569Y-109241893D01*
X77402893Y-109031569D01*
X77480000Y-108916170D01*
X77557107Y-109031569D01*
X77767431Y-109241893D01*
X78014747Y-109407144D01*
X78289549Y-109520971D01*
X78581278Y-109579000D01*
X78878722Y-109579000D01*
X79170451Y-109520971D01*
X79445253Y-109407144D01*
X79692569Y-109241893D01*
X79902893Y-109031569D01*
X79980000Y-108916170D01*
X80057107Y-109031569D01*
X80267431Y-109241893D01*
X80514747Y-109407144D01*
X80789549Y-109520971D01*
X81081278Y-109579000D01*
X81378722Y-109579000D01*
X81670451Y-109520971D01*
X81945253Y-109407144D01*
X82192569Y-109241893D01*
X82402893Y-109031569D01*
X82480000Y-108916170D01*
X82557107Y-109031569D01*
X82767431Y-109241893D01*
X83014747Y-109407144D01*
X83289549Y-109520971D01*
X83581278Y-109579000D01*
X83878722Y-109579000D01*
X84170451Y-109520971D01*
X84445253Y-109407144D01*
X84692569Y-109241893D01*
X84902893Y-109031569D01*
X85068144Y-108784253D01*
X85181971Y-108509451D01*
X85240000Y-108217722D01*
X85240000Y-107920278D01*
X85181971Y-107628549D01*
X85068144Y-107353747D01*
X84902893Y-107106431D01*
X84692569Y-106896107D01*
X84661728Y-106875500D01*
X91772497Y-106875500D01*
X91909744Y-106967205D01*
X92098102Y-107045226D01*
X92298061Y-107085000D01*
X92501939Y-107085000D01*
X92701898Y-107045226D01*
X92890256Y-106967205D01*
X93059774Y-106853937D01*
X93203937Y-106709774D01*
X93317205Y-106540256D01*
X93395226Y-106351898D01*
X93435000Y-106151939D01*
X93435000Y-105948061D01*
X93395226Y-105748102D01*
X93317205Y-105559744D01*
X93203937Y-105390226D01*
X93059774Y-105246063D01*
X92890256Y-105132795D01*
X92701898Y-105054774D01*
X92501939Y-105015000D01*
X92298061Y-105015000D01*
X92098102Y-105054774D01*
X91909744Y-105132795D01*
X91772497Y-105224500D01*
X83289550Y-105224500D01*
X83248999Y-105220506D01*
X83208449Y-105224500D01*
X83208447Y-105224500D01*
X83087174Y-105236444D01*
X82931566Y-105283647D01*
X82788157Y-105360301D01*
X82758062Y-105385000D01*
X82662459Y-105463459D01*
X82636606Y-105494961D01*
X81540406Y-106591161D01*
X81378722Y-106559000D01*
X81081278Y-106559000D01*
X80789549Y-106617029D01*
X80514747Y-106730856D01*
X80267431Y-106896107D01*
X80057107Y-107106431D01*
X79980000Y-107221830D01*
X79902893Y-107106431D01*
X79692569Y-106896107D01*
X79445253Y-106730856D01*
X79170451Y-106617029D01*
X78878722Y-106559000D01*
X78581278Y-106559000D01*
X78289549Y-106617029D01*
X78014747Y-106730856D01*
X77767431Y-106896107D01*
X77557107Y-107106431D01*
X77480000Y-107221830D01*
X77402893Y-107106431D01*
X77192569Y-106896107D01*
X76945253Y-106730856D01*
X76670451Y-106617029D01*
X76378722Y-106559000D01*
X76081278Y-106559000D01*
X75789549Y-106617029D01*
X75514747Y-106730856D01*
X75267431Y-106896107D01*
X75198974Y-106964564D01*
X75194502Y-106949820D01*
X75135537Y-106839506D01*
X75056185Y-106742815D01*
X74987109Y-106686126D01*
X76288236Y-105385000D01*
X76401939Y-105385000D01*
X76601898Y-105345226D01*
X76625000Y-105335657D01*
X76648102Y-105345226D01*
X76848061Y-105385000D01*
X77051939Y-105385000D01*
X77251898Y-105345226D01*
X77440256Y-105267205D01*
X77609774Y-105153937D01*
X77753937Y-105009774D01*
X77867205Y-104840256D01*
X77945226Y-104651898D01*
X77985000Y-104451939D01*
X77985000Y-104248061D01*
X77945226Y-104048102D01*
X77867205Y-103859744D01*
X77753937Y-103690226D01*
X77609774Y-103546063D01*
X77440256Y-103432795D01*
X77251898Y-103354774D01*
X77051939Y-103315000D01*
X76848061Y-103315000D01*
X76648102Y-103354774D01*
X76625000Y-103364343D01*
X76601898Y-103354774D01*
X76401939Y-103315000D01*
X76198061Y-103315000D01*
X75998102Y-103354774D01*
X75809744Y-103432795D01*
X75640226Y-103546063D01*
X75589759Y-103596530D01*
X75569709Y-103607247D01*
X75569707Y-103607248D01*
X75569708Y-103607248D01*
X75476917Y-103683400D01*
X75434341Y-103718341D01*
X75406506Y-103752258D01*
X73132259Y-106026506D01*
X73098342Y-106054341D01*
X73070507Y-106088258D01*
X73070505Y-106088260D01*
X72987248Y-106189709D01*
X72904698Y-106344148D01*
X72853864Y-106511726D01*
X72849457Y-106556474D01*
X72730518Y-106568188D01*
X72610820Y-106604498D01*
X72500506Y-106663463D01*
X72403815Y-106742815D01*
X72324463Y-106839506D01*
X72265498Y-106949820D01*
X72229188Y-107069518D01*
X72216928Y-107194000D01*
X63262235Y-107194000D01*
X64682106Y-105774130D01*
X64731898Y-105764226D01*
X64920256Y-105686205D01*
X65089774Y-105572937D01*
X65233937Y-105428774D01*
X65347205Y-105259256D01*
X65425226Y-105070898D01*
X65465000Y-104870939D01*
X65465000Y-104667061D01*
X65425226Y-104467102D01*
X65347205Y-104278744D01*
X65233937Y-104109226D01*
X65089774Y-103965063D01*
X64920256Y-103851795D01*
X64731898Y-103773774D01*
X64531939Y-103734000D01*
X64328061Y-103734000D01*
X64128102Y-103773774D01*
X63939744Y-103851795D01*
X63770226Y-103965063D01*
X63626063Y-104109226D01*
X63512795Y-104278744D01*
X63434774Y-104467102D01*
X63424870Y-104516894D01*
X61761765Y-106180000D01*
X60962468Y-106180000D01*
X60920256Y-106151795D01*
X60731898Y-106073774D01*
X60531939Y-106034000D01*
X60328061Y-106034000D01*
X60128102Y-106073774D01*
X59939744Y-106151795D01*
X59770226Y-106265063D01*
X59626063Y-106409226D01*
X59512795Y-106578744D01*
X59434774Y-106767102D01*
X59395000Y-106967061D01*
X50785000Y-106967061D01*
X50785000Y-101648061D01*
X52465000Y-101648061D01*
X52465000Y-101851939D01*
X52504774Y-102051898D01*
X52582795Y-102240256D01*
X52696063Y-102409774D01*
X52840226Y-102553937D01*
X53009744Y-102667205D01*
X53198102Y-102745226D01*
X53398061Y-102785000D01*
X53472604Y-102785000D01*
X53474607Y-102786644D01*
X53606984Y-102857401D01*
X53750621Y-102900973D01*
X53862573Y-102911999D01*
X53862575Y-102911999D01*
X53899998Y-102915685D01*
X53937421Y-102911999D01*
X55028309Y-102911999D01*
X54984774Y-103017102D01*
X54945000Y-103217061D01*
X54945000Y-103420939D01*
X54984774Y-103620898D01*
X55062795Y-103809256D01*
X55176063Y-103978774D01*
X55320226Y-104122937D01*
X55489744Y-104236205D01*
X55678102Y-104314226D01*
X55878061Y-104354000D01*
X56081939Y-104354000D01*
X56281898Y-104314226D01*
X56470256Y-104236205D01*
X56607503Y-104144500D01*
X57357827Y-104144500D01*
X57398377Y-104148494D01*
X57438927Y-104144500D01*
X57438930Y-104144500D01*
X57560203Y-104132556D01*
X57715811Y-104085353D01*
X57859219Y-104008699D01*
X57984918Y-103905541D01*
X58010774Y-103874035D01*
X58169207Y-103715602D01*
X58331101Y-103683400D01*
X58519459Y-103605379D01*
X58688977Y-103492111D01*
X58833140Y-103347948D01*
X58922040Y-103214898D01*
X98814370Y-103214898D01*
X98814370Y-103418776D01*
X98854144Y-103618735D01*
X98932165Y-103807093D01*
X99045433Y-103976611D01*
X99189596Y-104120774D01*
X99359114Y-104234042D01*
X99547472Y-104312063D01*
X99747431Y-104351837D01*
X99821974Y-104351837D01*
X99823977Y-104353481D01*
X99956354Y-104424238D01*
X100099991Y-104467810D01*
X100211943Y-104478836D01*
X100211945Y-104478836D01*
X100249368Y-104482522D01*
X100286791Y-104478836D01*
X106495741Y-104478836D01*
X106533164Y-104482522D01*
X106570587Y-104478836D01*
X106570590Y-104478836D01*
X106682542Y-104467810D01*
X106826179Y-104424238D01*
X106958556Y-104353481D01*
X107074586Y-104258258D01*
X107098448Y-104229182D01*
X107642631Y-103685000D01*
X107701939Y-103685000D01*
X107901898Y-103645226D01*
X108090256Y-103567205D01*
X108259774Y-103453937D01*
X108403937Y-103309774D01*
X108517205Y-103140256D01*
X108595226Y-102951898D01*
X108635000Y-102751939D01*
X108635000Y-102548061D01*
X108595226Y-102348102D01*
X108517205Y-102159744D01*
X108403937Y-101990226D01*
X108259774Y-101846063D01*
X108090256Y-101732795D01*
X107901898Y-101654774D01*
X107701939Y-101615000D01*
X107498061Y-101615000D01*
X107298102Y-101654774D01*
X107109744Y-101732795D01*
X106940226Y-101846063D01*
X106796063Y-101990226D01*
X106682795Y-102159744D01*
X106604774Y-102348102D01*
X106565000Y-102548061D01*
X106565000Y-102607369D01*
X106217534Y-102954836D01*
X100819700Y-102954836D01*
X100766575Y-102826581D01*
X100653307Y-102657063D01*
X100509144Y-102512900D01*
X100339626Y-102399632D01*
X100151268Y-102321611D01*
X99951309Y-102281837D01*
X99747431Y-102281837D01*
X99547472Y-102321611D01*
X99359114Y-102399632D01*
X99189596Y-102512900D01*
X99045433Y-102657063D01*
X98932165Y-102826581D01*
X98854144Y-103014939D01*
X98814370Y-103214898D01*
X58922040Y-103214898D01*
X58946408Y-103178430D01*
X59024429Y-102990072D01*
X59064203Y-102790113D01*
X59064203Y-102586235D01*
X59024429Y-102386276D01*
X58946408Y-102197918D01*
X58833140Y-102028400D01*
X58688977Y-101884237D01*
X58519459Y-101770969D01*
X58331101Y-101692948D01*
X58131142Y-101653174D01*
X57927264Y-101653174D01*
X57804607Y-101677572D01*
X57850749Y-101591247D01*
X57894321Y-101447610D01*
X57894575Y-101445030D01*
X57947284Y-101392321D01*
X58060552Y-101222803D01*
X58138573Y-101034445D01*
X58178347Y-100834486D01*
X58178347Y-100630608D01*
X58138573Y-100430649D01*
X58060552Y-100242291D01*
X58030999Y-100198061D01*
X66665000Y-100198061D01*
X66665000Y-100401939D01*
X66704774Y-100601898D01*
X66782795Y-100790256D01*
X66896063Y-100959774D01*
X67040226Y-101103937D01*
X67209744Y-101217205D01*
X67398102Y-101295226D01*
X67598061Y-101335000D01*
X67801939Y-101335000D01*
X68001898Y-101295226D01*
X68190256Y-101217205D01*
X68359774Y-101103937D01*
X68503937Y-100959774D01*
X68617205Y-100790256D01*
X68695226Y-100601898D01*
X68735000Y-100401939D01*
X68735000Y-100198061D01*
X68695226Y-99998102D01*
X68694705Y-99996845D01*
X68833551Y-99858000D01*
X71686532Y-99858000D01*
X71728744Y-99886205D01*
X71917102Y-99964226D01*
X72117061Y-100004000D01*
X72320939Y-100004000D01*
X72520898Y-99964226D01*
X72709256Y-99886205D01*
X72878774Y-99772937D01*
X73022937Y-99628774D01*
X73136205Y-99459256D01*
X73214226Y-99270898D01*
X73254000Y-99070939D01*
X73254000Y-98867061D01*
X73214226Y-98667102D01*
X73136205Y-98478744D01*
X73022937Y-98309226D01*
X72878774Y-98165063D01*
X72709256Y-98051795D01*
X72520898Y-97973774D01*
X72320939Y-97934000D01*
X72117061Y-97934000D01*
X71917102Y-97973774D01*
X71728744Y-98051795D01*
X71686532Y-98080000D01*
X68508975Y-98080000D01*
X68465315Y-98075700D01*
X68421655Y-98080000D01*
X68421648Y-98080000D01*
X68307640Y-98091229D01*
X68291040Y-98092864D01*
X68231834Y-98110824D01*
X68123464Y-98143697D01*
X68123462Y-98143698D01*
X68103519Y-98154358D01*
X67969024Y-98226247D01*
X67833656Y-98337341D01*
X67805820Y-98371259D01*
X67102259Y-99074821D01*
X67068342Y-99102656D01*
X67040507Y-99136573D01*
X67040505Y-99136575D01*
X67015368Y-99167205D01*
X66957248Y-99238024D01*
X66874697Y-99392464D01*
X66823864Y-99560041D01*
X66811000Y-99690648D01*
X66811000Y-99690655D01*
X66806700Y-99734315D01*
X66810104Y-99768874D01*
X66782795Y-99809744D01*
X66704774Y-99998102D01*
X66665000Y-100198061D01*
X58030999Y-100198061D01*
X57947284Y-100072773D01*
X57803121Y-99928610D01*
X57633603Y-99815342D01*
X57445245Y-99737321D01*
X57245286Y-99697547D01*
X57041408Y-99697547D01*
X56841449Y-99737321D01*
X56653091Y-99815342D01*
X56483573Y-99928610D01*
X56339410Y-100072773D01*
X56226142Y-100242291D01*
X56148121Y-100430649D01*
X56108347Y-100630608D01*
X56108347Y-100834486D01*
X56148121Y-101034445D01*
X56201247Y-101162702D01*
X55975950Y-101387999D01*
X54470330Y-101387999D01*
X54417205Y-101259744D01*
X54303937Y-101090226D01*
X54159774Y-100946063D01*
X53990256Y-100832795D01*
X53801898Y-100754774D01*
X53601939Y-100715000D01*
X53398061Y-100715000D01*
X53198102Y-100754774D01*
X53009744Y-100832795D01*
X52840226Y-100946063D01*
X52696063Y-101090226D01*
X52582795Y-101259744D01*
X52504774Y-101448102D01*
X52465000Y-101648061D01*
X50785000Y-101648061D01*
X50785000Y-97548043D01*
X99765000Y-97548043D01*
X99765000Y-97751921D01*
X99804774Y-97951880D01*
X99882795Y-98140238D01*
X99996063Y-98309756D01*
X100140226Y-98453919D01*
X100309744Y-98567187D01*
X100498102Y-98645208D01*
X100698061Y-98684982D01*
X100901939Y-98684982D01*
X101101898Y-98645208D01*
X101290256Y-98567187D01*
X101427503Y-98475482D01*
X103389574Y-98475482D01*
X103404774Y-98551898D01*
X103482795Y-98740256D01*
X103596063Y-98909774D01*
X103740226Y-99053937D01*
X103909744Y-99167205D01*
X104098102Y-99245226D01*
X104298061Y-99285000D01*
X104501939Y-99285000D01*
X104701898Y-99245226D01*
X104890256Y-99167205D01*
X105059774Y-99053937D01*
X105203937Y-98909774D01*
X105317205Y-98740256D01*
X105395226Y-98551898D01*
X105435000Y-98351939D01*
X105435000Y-98148061D01*
X105395226Y-97948102D01*
X105317205Y-97759744D01*
X105203937Y-97590226D01*
X105059774Y-97446063D01*
X104890256Y-97332795D01*
X104701898Y-97254774D01*
X104540004Y-97222572D01*
X104412379Y-97094947D01*
X104386523Y-97063441D01*
X104260824Y-96960283D01*
X104117416Y-96883629D01*
X103961808Y-96836426D01*
X103840535Y-96824482D01*
X103840532Y-96824482D01*
X103799982Y-96820488D01*
X103759432Y-96824482D01*
X101427503Y-96824482D01*
X101290256Y-96732777D01*
X101101898Y-96654756D01*
X100901939Y-96614982D01*
X100698061Y-96614982D01*
X100498102Y-96654756D01*
X100309744Y-96732777D01*
X100140226Y-96846045D01*
X99996063Y-96990208D01*
X99882795Y-97159726D01*
X99804774Y-97348084D01*
X99765000Y-97548043D01*
X50785000Y-97548043D01*
X50785000Y-71314000D01*
X109215001Y-71314000D01*
X109215000Y-116715000D01*
G36*
X109223001Y-69596000D02*
G01*
X50777000Y-69596000D01*
X50777000Y-50777000D01*
X109223001Y-50777000D01*
X109223001Y-69596000D01*
X109223001Y-69596000D01*
G37*
X109223001Y-69596000D02*
X50777000Y-69596000D01*
X50777000Y-50777000D01*
X109223001Y-50777000D01*
X109223001Y-69596000D01*
D17*
X76950000Y-104350000D03*
X60430000Y-107069000D03*
X64430000Y-104769000D03*
X67700000Y-100300000D03*
X72219000Y-98969000D03*
X55980000Y-103319000D03*
X58029203Y-102688174D03*
X55000000Y-99250000D03*
X61000000Y-96500000D03*
X65250000Y-98500000D03*
X75000000Y-96500000D03*
X54250000Y-107000000D03*
X62500000Y-111500000D03*
X69000000Y-109500000D03*
X85250000Y-103000000D03*
X85500000Y-98250000D03*
X54750000Y-96750000D03*
X55000000Y-94250000D03*
X59250000Y-77000000D03*
X60250000Y-77000000D03*
X61250000Y-77000000D03*
X55876718Y-100811218D03*
X95400000Y-99250000D03*
X104400000Y-108250000D03*
X92800000Y-111050000D03*
X101775199Y-102668601D03*
X94200000Y-97050000D03*
X90200000Y-96050000D03*
X102800000Y-89650000D03*
X51400000Y-77850000D03*
X51400000Y-71850000D03*
X63500000Y-54250000D03*
X66000000Y-54250000D03*
X68500000Y-54250000D03*
X71000000Y-54250000D03*
X73500000Y-51750000D03*
X76000000Y-51750000D03*
X78500000Y-51750000D03*
X81000000Y-51750000D03*
X83500000Y-51750000D03*
X86000000Y-51750000D03*
X88500000Y-54250000D03*
X91000000Y-54250000D03*
X93500000Y-54250000D03*
X96000000Y-54250000D03*
X63500000Y-69250000D03*
X66000000Y-69250000D03*
X68500000Y-69250000D03*
X71000000Y-69250000D03*
X73500000Y-69250000D03*
X76000000Y-69250000D03*
X78500000Y-69250000D03*
X81000000Y-69250000D03*
X83500000Y-69250000D03*
X86000000Y-69250000D03*
X88500000Y-66750000D03*
X91000000Y-66750000D03*
X93500000Y-66750000D03*
X96000000Y-66750000D03*
X91000000Y-74250000D03*
X93500000Y-74250000D03*
X96000000Y-74250000D03*
X63500000Y-74250000D03*
X66000000Y-74250000D03*
X68500000Y-74250000D03*
X71000000Y-74250000D03*
X88500000Y-74250000D03*
X98500000Y-74250000D03*
X73500000Y-74250000D03*
X76000000Y-74250000D03*
X78500000Y-74250000D03*
X81000000Y-74250000D03*
X83500000Y-74250000D03*
X86000000Y-74250000D03*
X63500000Y-91750000D03*
X66000000Y-91750000D03*
X68500000Y-91750000D03*
X71000000Y-91750000D03*
X88500000Y-91750000D03*
X91000000Y-91750000D03*
X93500000Y-91750000D03*
X96000000Y-91750000D03*
X98500000Y-91750000D03*
X51400000Y-80390000D03*
X51400000Y-82930000D03*
X51400000Y-85470000D03*
X51400000Y-88010000D03*
X51400000Y-90550000D03*
X51400000Y-93090000D03*
X51400000Y-95630000D03*
X51400000Y-98170000D03*
X51400000Y-100650000D03*
X51400000Y-103250000D03*
X51400000Y-108330000D03*
X51400000Y-110870000D03*
X51400000Y-113410000D03*
X51400000Y-115950000D03*
X108500000Y-71750000D03*
X108500000Y-79370000D03*
X108500000Y-81910000D03*
X108500000Y-84450000D03*
X108500000Y-86990000D03*
X108500000Y-89530000D03*
X108500000Y-92070000D03*
X108500000Y-94610000D03*
X108500000Y-97150000D03*
X108500000Y-105450000D03*
X108500000Y-107310000D03*
X108500000Y-109850000D03*
X108500000Y-112390000D03*
X108500000Y-114930000D03*
X53940000Y-115950000D03*
X56480000Y-115950000D03*
X59020000Y-115950000D03*
X61560000Y-115950000D03*
X64100000Y-115950000D03*
X66640000Y-115950000D03*
X69180000Y-115950000D03*
X71720000Y-115950000D03*
X74260000Y-115950000D03*
X76800000Y-115950000D03*
X79340000Y-115950000D03*
X81880000Y-115950000D03*
X84420000Y-115950000D03*
X86960000Y-115950000D03*
X89500000Y-115950000D03*
X92040000Y-115950000D03*
X94580000Y-115950000D03*
X97120000Y-115950000D03*
X99660000Y-115950000D03*
X102200000Y-115950000D03*
X104740000Y-115950000D03*
X107280000Y-115950000D03*
X76300000Y-104350000D03*
X53500000Y-101750000D03*
X57143347Y-100732547D03*
X92400000Y-106050000D03*
X104400000Y-98250000D03*
X100800000Y-97649982D03*
X107600000Y-102650000D03*
X99849370Y-103316837D03*
X102560000Y-52703000D03*
X100560000Y-52703000D03*
X98560000Y-54481000D03*
X100560000Y-54481000D03*
X104560000Y-56259000D03*
X102560000Y-54481000D03*
X108560000Y-52703000D03*
X98560000Y-52703000D03*
X108560000Y-56259000D03*
X106560000Y-56259000D03*
X100560000Y-56259000D03*
X108560000Y-54481000D03*
X106560000Y-54481000D03*
X102560000Y-56259000D03*
X104560000Y-52703000D03*
X106560000Y-52703000D03*
X98560000Y-56259000D03*
X104560000Y-54481000D03*
X106560000Y-65657000D03*
X104560000Y-65657000D03*
X100560000Y-65657000D03*
X98560000Y-65657000D03*
X108560000Y-65657000D03*
X102560000Y-65657000D03*
X106560000Y-63879000D03*
X104560000Y-63879000D03*
X100560000Y-63879000D03*
X98560000Y-63879000D03*
X108560000Y-63879000D03*
X102560000Y-63879000D03*
X98560000Y-67435000D03*
X100560000Y-67435000D03*
X102560000Y-67435000D03*
X104560000Y-67435000D03*
X106560000Y-67435000D03*
X108560000Y-67435000D03*
X86230000Y-108069000D03*
X83730000Y-108069000D03*
X81230000Y-108069000D03*
X78730000Y-108069000D03*
X76230000Y-108069000D03*
X73730000Y-108069000D03*
X57056810Y-73812500D03*
X57056810Y-76187500D03*
X55000000Y-77375000D03*
X52943190Y-76187500D03*
X52943190Y-73812500D03*
X55000000Y-72625000D03*
X55000000Y-75000000D03*
X57056810Y-111312500D03*
X57056810Y-113687500D03*
X55000000Y-114875000D03*
X52943190Y-113687500D03*
X52943190Y-111312500D03*
X55000000Y-110125000D03*
X55000000Y-112500000D03*
X106814810Y-110999500D03*
X106814810Y-113374500D03*
X104758000Y-114562000D03*
X102701190Y-113374500D03*
X102701190Y-110999500D03*
X104758000Y-109812000D03*
X104758000Y-112187000D03*
X107056810Y-73812500D03*
X107056810Y-76187500D03*
X105000000Y-77375000D03*
X102943190Y-76187500D03*
X102943190Y-73812500D03*
X105000000Y-72625000D03*
X105000000Y-75000000D03*
X57013000Y-67511000D03*
X59013000Y-67511000D03*
X61013000Y-65733000D03*
X59013000Y-65733000D03*
X55013000Y-63955000D03*
X57013000Y-65733000D03*
X51013000Y-67511000D03*
X61013000Y-67511000D03*
X51013000Y-63955000D03*
X53013000Y-63955000D03*
X59013000Y-63955000D03*
X51013000Y-65733000D03*
X53013000Y-65733000D03*
X57013000Y-63955000D03*
X55013000Y-67511000D03*
X53013000Y-67511000D03*
X61013000Y-63955000D03*
X55013000Y-65733000D03*
X53013000Y-54557000D03*
X55013000Y-54557000D03*
X59013000Y-54557000D03*
X61013000Y-54557000D03*
X51013000Y-54557000D03*
X57013000Y-54557000D03*
X53013000Y-56335000D03*
X55013000Y-56335000D03*
X59013000Y-56335000D03*
X61013000Y-56335000D03*
X51013000Y-56335000D03*
X57013000Y-56335000D03*
X61013000Y-52779000D03*
X59013000Y-52779000D03*
X57013000Y-52779000D03*
X55013000Y-52779000D03*
X53013000Y-52779000D03*
X51013000Y-52779000D03*
M02*
