%TF.GenerationSoftware,KiCad,Pcbnew,(5.1.4)-1*%
%TF.CreationDate,2020-11-11T00:06:55+08:00*%
%TF.ProjectId,Directional_coupler,44697265-6374-4696-9f6e-616c5f636f75,rev?*%
%TF.SameCoordinates,Original*%
%TF.FileFunction,Paste,Top*%
%TF.FilePolarity,Positive*%
%FSLAX46Y46*%
G04 Gerber Fmt 4.6, Leading zero omitted, Abs format (unit mm)*
G04 Created by KiCad (PCBNEW (5.1.4)-1) date 2020-11-11 00:06:55*
%MOMM*%
%LPD*%
G04 APERTURE LIST*
%ADD10R,1.160000X1.470000*%
%ADD11R,1.800000X1.130000*%
%ADD12R,1.250000X1.000000*%
%ADD13O,1.800000X0.700000*%
%ADD14R,0.600000X1.100000*%
%ADD15O,1.900000X0.700000*%
%ADD16O,3.500000X2.000000*%
%ADD17O,2.100000X0.700000*%
%ADD18O,0.700000X1.800000*%
%ADD19R,1.130000X1.800000*%
%ADD20R,3.200000X1.000000*%
%ADD21R,0.700000X1.300000*%
%ADD22R,1.470000X1.160000*%
%ADD23R,1.000000X1.250000*%
%ADD24R,1.250000X0.700000*%
%ADD25R,0.700000X1.250000*%
%ADD26R,1.300000X0.700000*%
G04 APERTURE END LIST*
D10*
X90510000Y-101750000D03*
X92290000Y-101750000D03*
D11*
X66750000Y-62760000D03*
X66750000Y-65740000D03*
D12*
X79455000Y-103169000D03*
X76505000Y-103169000D03*
D13*
X99400000Y-107095000D03*
X99400000Y-108365000D03*
X99400000Y-109635000D03*
X99400000Y-110905000D03*
X94200000Y-110905000D03*
X94200000Y-109635000D03*
X94200000Y-108365000D03*
X94200000Y-107095000D03*
D14*
X100800000Y-98850000D03*
X102700000Y-98850000D03*
X102700000Y-101650000D03*
X101750000Y-101650000D03*
X100800000Y-101650000D03*
D15*
X77930000Y-100469000D03*
D16*
X80430000Y-98969000D03*
D17*
X78030000Y-98969000D03*
D15*
X77930000Y-97469000D03*
D14*
X56930000Y-104719000D03*
X55030000Y-104719000D03*
X55030000Y-101919000D03*
X55980000Y-101919000D03*
X56930000Y-101919000D03*
D18*
X65275000Y-103019000D03*
X66545000Y-103019000D03*
X67815000Y-103019000D03*
X69085000Y-103019000D03*
X69085000Y-108219000D03*
X67815000Y-108219000D03*
X66545000Y-108219000D03*
X65275000Y-108219000D03*
D10*
X95620000Y-113450000D03*
X97400000Y-113450000D03*
X92510000Y-104500000D03*
X94290000Y-104500000D03*
D11*
X99750000Y-81240000D03*
X99750000Y-78260000D03*
D19*
X97010000Y-84250000D03*
X99990000Y-84250000D03*
D20*
X93000000Y-76400000D03*
X93000000Y-82600000D03*
X66980000Y-76469000D03*
X66980000Y-82669000D03*
D19*
X59740000Y-84319000D03*
X62720000Y-84319000D03*
D11*
X60230000Y-81559000D03*
X60230000Y-78579000D03*
D21*
X57930000Y-99319000D03*
X56030000Y-99319000D03*
D22*
X61980000Y-103929000D03*
X61980000Y-105709000D03*
X67930000Y-110979000D03*
X67930000Y-112759000D03*
D10*
X71640000Y-103269000D03*
X73420000Y-103269000D03*
D22*
X101000000Y-95890000D03*
X101000000Y-94110000D03*
D10*
X61840000Y-99569000D03*
X63620000Y-99569000D03*
D12*
X95025000Y-101750000D03*
X97975000Y-101750000D03*
X102525000Y-104000000D03*
X105475000Y-104000000D03*
D23*
X105250000Y-98525000D03*
X105250000Y-101475000D03*
D24*
X106450000Y-90650000D03*
X103950000Y-91600000D03*
X103950000Y-89700000D03*
D25*
X56980000Y-91819000D03*
X57930000Y-94319000D03*
X56030000Y-94319000D03*
D10*
X102610000Y-107050000D03*
X104390000Y-107050000D03*
D22*
X90250000Y-97110000D03*
X90250000Y-98890000D03*
D10*
X98390000Y-99250000D03*
X96610000Y-99250000D03*
D22*
X98000000Y-94110000D03*
X98000000Y-95890000D03*
D10*
X103860000Y-93750000D03*
X105640000Y-93750000D03*
D22*
X100000000Y-87610000D03*
X100000000Y-89390000D03*
X75150000Y-97460000D03*
X75150000Y-99240000D03*
X84250000Y-98160000D03*
X84250000Y-99940000D03*
D10*
X82270000Y-103150000D03*
X84050000Y-103150000D03*
D22*
X59730000Y-89459000D03*
X59730000Y-87679000D03*
D10*
X57870000Y-96819000D03*
X56090000Y-96819000D03*
X63620000Y-96569000D03*
X61840000Y-96569000D03*
X56870000Y-107069000D03*
X55090000Y-107069000D03*
D22*
X62530000Y-110659000D03*
X62530000Y-108879000D03*
X66330000Y-100259000D03*
X66330000Y-98479000D03*
D23*
X52480000Y-101844000D03*
X52480000Y-104794000D03*
D26*
X65000000Y-112700000D03*
X65000000Y-110800000D03*
D12*
X72275000Y-100500000D03*
X69325000Y-100500000D03*
D23*
X59480000Y-102594000D03*
X59480000Y-105544000D03*
D26*
X93000000Y-98950000D03*
X93000000Y-97050000D03*
X107800000Y-101450000D03*
X107800000Y-99550000D03*
D21*
X103800000Y-96500000D03*
X105700000Y-96500000D03*
D26*
X60000000Y-109050000D03*
X60000000Y-110950000D03*
M02*
