%TF.GenerationSoftware,KiCad,Pcbnew,(5.1.4)-1*%
%TF.CreationDate,2019-12-09T14:58:40+08:00*%
%TF.ProjectId,RF_input,52465f69-6e70-4757-942e-6b696361645f,rev?*%
%TF.SameCoordinates,Original*%
%TF.FileFunction,Soldermask,Top*%
%TF.FilePolarity,Negative*%
%FSLAX46Y46*%
G04 Gerber Fmt 4.6, Leading zero omitted, Abs format (unit mm)*
G04 Created by KiCad (PCBNEW (5.1.4)-1) date 2019-12-09 14:58:40*
%MOMM*%
%LPD*%
G04 APERTURE LIST*
%ADD10C,0.100000*%
%ADD11C,0.350000*%
G04 APERTURE END LIST*
D10*
G36*
X136144000Y-108712000D02*
G01*
X130302000Y-108712000D01*
X130302000Y-102616000D01*
X136144000Y-102616000D01*
X136144000Y-108712000D01*
G37*
X136144000Y-108712000D02*
X130302000Y-108712000D01*
X130302000Y-102616000D01*
X136144000Y-102616000D01*
X136144000Y-108712000D01*
G36*
X136398000Y-97536000D02*
G01*
X130302000Y-97536000D01*
X130302000Y-91186000D01*
X136398000Y-91186000D01*
X136398000Y-97536000D01*
G37*
X136398000Y-97536000D02*
X130302000Y-97536000D01*
X130302000Y-91186000D01*
X136398000Y-91186000D01*
X136398000Y-97536000D01*
G36*
X121158000Y-91186000D02*
G01*
X114300000Y-91186000D01*
X114300000Y-86360000D01*
X121158000Y-86360000D01*
X121158000Y-91186000D01*
G37*
X121158000Y-91186000D02*
X114300000Y-91186000D01*
X114300000Y-86360000D01*
X121158000Y-86360000D01*
X121158000Y-91186000D01*
G36*
X120904000Y-113792000D02*
G01*
X114300000Y-113792000D01*
X114300000Y-108966000D01*
X120904000Y-108966000D01*
X120904000Y-113792000D01*
G37*
X120904000Y-113792000D02*
X114300000Y-113792000D01*
X114300000Y-108966000D01*
X120904000Y-108966000D01*
X120904000Y-113792000D01*
G36*
X113284000Y-105410000D02*
G01*
X108966000Y-105410000D01*
X108966000Y-94488000D01*
X113284000Y-94488000D01*
X113284000Y-105410000D01*
G37*
X113284000Y-105410000D02*
X108966000Y-105410000D01*
X108966000Y-94488000D01*
X113284000Y-94488000D01*
X113284000Y-105410000D01*
D11*
G36*
X145889943Y-142066248D02*
G01*
X146445189Y-142296238D01*
X146617497Y-142411371D01*
X146944899Y-142630134D01*
X147369866Y-143055101D01*
X147369867Y-143055103D01*
X147703762Y-143554811D01*
X147933752Y-144110057D01*
X148051000Y-144699501D01*
X148051000Y-145300499D01*
X147933752Y-145889943D01*
X147703762Y-146445189D01*
X147641872Y-146537814D01*
X147369866Y-146944899D01*
X146944899Y-147369866D01*
X146870736Y-147419420D01*
X146445189Y-147703762D01*
X145889943Y-147933752D01*
X145300499Y-148051000D01*
X144699501Y-148051000D01*
X144110057Y-147933752D01*
X143554811Y-147703762D01*
X143129264Y-147419420D01*
X143055101Y-147369866D01*
X142630134Y-146944899D01*
X142358128Y-146537814D01*
X142296238Y-146445189D01*
X142066248Y-145889943D01*
X141949000Y-145300499D01*
X141949000Y-144699501D01*
X142066248Y-144110057D01*
X142296238Y-143554811D01*
X142630133Y-143055103D01*
X142630134Y-143055101D01*
X143055101Y-142630134D01*
X143382503Y-142411371D01*
X143554811Y-142296238D01*
X144110057Y-142066248D01*
X144699501Y-141949000D01*
X145300499Y-141949000D01*
X145889943Y-142066248D01*
X145889943Y-142066248D01*
G37*
G36*
X105889943Y-142066248D02*
G01*
X106445189Y-142296238D01*
X106617497Y-142411371D01*
X106944899Y-142630134D01*
X107369866Y-143055101D01*
X107369867Y-143055103D01*
X107703762Y-143554811D01*
X107933752Y-144110057D01*
X108051000Y-144699501D01*
X108051000Y-145300499D01*
X107933752Y-145889943D01*
X107703762Y-146445189D01*
X107641872Y-146537814D01*
X107369866Y-146944899D01*
X106944899Y-147369866D01*
X106870736Y-147419420D01*
X106445189Y-147703762D01*
X105889943Y-147933752D01*
X105300499Y-148051000D01*
X104699501Y-148051000D01*
X104110057Y-147933752D01*
X103554811Y-147703762D01*
X103129264Y-147419420D01*
X103055101Y-147369866D01*
X102630134Y-146944899D01*
X102358128Y-146537814D01*
X102296238Y-146445189D01*
X102066248Y-145889943D01*
X101949000Y-145300499D01*
X101949000Y-144699501D01*
X102066248Y-144110057D01*
X102296238Y-143554811D01*
X102630133Y-143055103D01*
X102630134Y-143055101D01*
X103055101Y-142630134D01*
X103382503Y-142411371D01*
X103554811Y-142296238D01*
X104110057Y-142066248D01*
X104699501Y-141949000D01*
X105300499Y-141949000D01*
X105889943Y-142066248D01*
X105889943Y-142066248D01*
G37*
G36*
X136351000Y-138049000D02*
G01*
X133549000Y-138049000D01*
X133549000Y-134747000D01*
X136351000Y-134747000D01*
X136351000Y-138049000D01*
X136351000Y-138049000D01*
G37*
G36*
X128451000Y-138049000D02*
G01*
X125649000Y-138049000D01*
X125649000Y-134747000D01*
X128451000Y-134747000D01*
X128451000Y-138049000D01*
X128451000Y-138049000D01*
G37*
G36*
X128451000Y-133651000D02*
G01*
X125649000Y-133651000D01*
X125649000Y-130349000D01*
X128451000Y-130349000D01*
X128451000Y-133651000D01*
X128451000Y-133651000D01*
G37*
G36*
X136351000Y-133651000D02*
G01*
X133549000Y-133651000D01*
X133549000Y-130349000D01*
X136351000Y-130349000D01*
X136351000Y-133651000D01*
X136351000Y-133651000D01*
G37*
G36*
X113051000Y-131151000D02*
G01*
X100949000Y-131151000D01*
X100949000Y-126049000D01*
X113051000Y-126049000D01*
X113051000Y-131151000D01*
X113051000Y-131151000D01*
G37*
G36*
X128451000Y-129159000D02*
G01*
X125649000Y-129159000D01*
X125649000Y-125857000D01*
X128451000Y-125857000D01*
X128451000Y-129159000D01*
X128451000Y-129159000D01*
G37*
G36*
X136351000Y-129159000D02*
G01*
X133549000Y-129159000D01*
X133549000Y-125857000D01*
X136351000Y-125857000D01*
X136351000Y-129159000D01*
X136351000Y-129159000D01*
G37*
G36*
X117901000Y-124801000D02*
G01*
X114299000Y-124801000D01*
X114299000Y-121199000D01*
X117901000Y-121199000D01*
X117901000Y-124801000D01*
X117901000Y-124801000D01*
G37*
G36*
X124701000Y-124801000D02*
G01*
X121099000Y-124801000D01*
X121099000Y-121199000D01*
X124701000Y-121199000D01*
X124701000Y-124801000D01*
X124701000Y-124801000D01*
G37*
G36*
X128451000Y-124651000D02*
G01*
X125649000Y-124651000D01*
X125649000Y-121349000D01*
X128451000Y-121349000D01*
X128451000Y-124651000D01*
X128451000Y-124651000D01*
G37*
G36*
X136351000Y-124651000D02*
G01*
X133549000Y-124651000D01*
X133549000Y-121349000D01*
X136351000Y-121349000D01*
X136351000Y-124651000D01*
X136351000Y-124651000D01*
G37*
G36*
X113051000Y-124301000D02*
G01*
X104949000Y-124301000D01*
X104949000Y-121699000D01*
X113051000Y-121699000D01*
X113051000Y-124301000D01*
X113051000Y-124301000D01*
G37*
G36*
X140889943Y-117066248D02*
G01*
X141445189Y-117296238D01*
X141617497Y-117411371D01*
X141944899Y-117630134D01*
X142369866Y-118055101D01*
X142369867Y-118055103D01*
X142703762Y-118554811D01*
X142933752Y-119110057D01*
X143051000Y-119699501D01*
X143051000Y-120300499D01*
X142933752Y-120889943D01*
X142703762Y-121445189D01*
X142641872Y-121537814D01*
X142369866Y-121944899D01*
X141944899Y-122369866D01*
X141870736Y-122419420D01*
X141445189Y-122703762D01*
X140889943Y-122933752D01*
X140300499Y-123051000D01*
X139699501Y-123051000D01*
X139110057Y-122933752D01*
X138554811Y-122703762D01*
X138129264Y-122419420D01*
X138055101Y-122369866D01*
X137630134Y-121944899D01*
X137358128Y-121537814D01*
X137296238Y-121445189D01*
X137066248Y-120889943D01*
X136949000Y-120300499D01*
X136949000Y-119699501D01*
X137066248Y-119110057D01*
X137296238Y-118554811D01*
X137630133Y-118055103D01*
X137630134Y-118055101D01*
X138055101Y-117630134D01*
X138382503Y-117411371D01*
X138554811Y-117296238D01*
X139110057Y-117066248D01*
X139699501Y-116949000D01*
X140300499Y-116949000D01*
X140889943Y-117066248D01*
X140889943Y-117066248D01*
G37*
G36*
X134709000Y-120145000D02*
G01*
X133007000Y-120145000D01*
X133007000Y-118043000D01*
X134709000Y-118043000D01*
X134709000Y-120145000D01*
X134709000Y-120145000D01*
G37*
G36*
X113051000Y-119951000D02*
G01*
X100949000Y-119951000D01*
X100949000Y-114849000D01*
X113051000Y-114849000D01*
X113051000Y-119951000D01*
X113051000Y-119951000D01*
G37*
G36*
X134709000Y-116145000D02*
G01*
X133007000Y-116145000D01*
X133007000Y-114043000D01*
X134709000Y-114043000D01*
X134709000Y-116145000D01*
X134709000Y-116145000D01*
G37*
G36*
X149867000Y-113817000D02*
G01*
X144265000Y-113817000D01*
X144265000Y-100915000D01*
X149867000Y-100915000D01*
X149867000Y-113817000D01*
X149867000Y-113817000D01*
G37*
G36*
X134951000Y-113651000D02*
G01*
X132149000Y-113651000D01*
X132149000Y-110349000D01*
X134951000Y-110349000D01*
X134951000Y-113651000D01*
X134951000Y-113651000D01*
G37*
G36*
X142851000Y-113651000D02*
G01*
X140049000Y-113651000D01*
X140049000Y-110349000D01*
X142851000Y-110349000D01*
X142851000Y-113651000D01*
X142851000Y-113651000D01*
G37*
G36*
X112411000Y-108381000D02*
G01*
X111109000Y-108381000D01*
X111109000Y-107079000D01*
X112411000Y-107079000D01*
X112411000Y-108381000D01*
X112411000Y-108381000D01*
G37*
G36*
X110379000Y-108381000D02*
G01*
X109077000Y-108381000D01*
X109077000Y-107079000D01*
X110379000Y-107079000D01*
X110379000Y-108381000D01*
X110379000Y-108381000D01*
G37*
G36*
X110379000Y-106281000D02*
G01*
X109077000Y-106281000D01*
X109077000Y-104979000D01*
X110379000Y-104979000D01*
X110379000Y-106281000D01*
X110379000Y-106281000D01*
G37*
G36*
X112411000Y-106281000D02*
G01*
X111109000Y-106281000D01*
X111109000Y-104979000D01*
X112411000Y-104979000D01*
X112411000Y-106281000D01*
X112411000Y-106281000D01*
G37*
G36*
X136151000Y-105351000D02*
G01*
X132849000Y-105351000D01*
X132849000Y-102549000D01*
X136151000Y-102549000D01*
X136151000Y-105351000D01*
X136151000Y-105351000D01*
G37*
G36*
X140651000Y-105351000D02*
G01*
X137349000Y-105351000D01*
X137349000Y-102549000D01*
X140651000Y-102549000D01*
X140651000Y-105351000D01*
X140651000Y-105351000D01*
G37*
G36*
X105223000Y-100977000D02*
G01*
X103121000Y-100977000D01*
X103121000Y-99175000D01*
X105223000Y-99175000D01*
X105223000Y-100977000D01*
X105223000Y-100977000D01*
G37*
G36*
X109223000Y-100977000D02*
G01*
X107121000Y-100977000D01*
X107121000Y-99175000D01*
X109223000Y-99175000D01*
X109223000Y-100977000D01*
X109223000Y-100977000D01*
G37*
G36*
X149867000Y-99085000D02*
G01*
X144265000Y-99085000D01*
X144265000Y-86183000D01*
X149867000Y-86183000D01*
X149867000Y-99085000D01*
X149867000Y-99085000D01*
G37*
G36*
X136151000Y-97451000D02*
G01*
X132849000Y-97451000D01*
X132849000Y-94649000D01*
X136151000Y-94649000D01*
X136151000Y-97451000D01*
X136151000Y-97451000D01*
G37*
G36*
X140651000Y-97451000D02*
G01*
X137349000Y-97451000D01*
X137349000Y-94649000D01*
X140651000Y-94649000D01*
X140651000Y-97451000D01*
X140651000Y-97451000D01*
G37*
G36*
X134951000Y-89651000D02*
G01*
X132149000Y-89651000D01*
X132149000Y-86349000D01*
X134951000Y-86349000D01*
X134951000Y-89651000D01*
X134951000Y-89651000D01*
G37*
G36*
X142851000Y-89651000D02*
G01*
X140049000Y-89651000D01*
X140049000Y-86349000D01*
X142851000Y-86349000D01*
X142851000Y-89651000D01*
X142851000Y-89651000D01*
G37*
G36*
X134709000Y-85855000D02*
G01*
X133007000Y-85855000D01*
X133007000Y-83753000D01*
X134709000Y-83753000D01*
X134709000Y-85855000D01*
X134709000Y-85855000D01*
G37*
G36*
X140889943Y-77066248D02*
G01*
X141445189Y-77296238D01*
X141617497Y-77411371D01*
X141944899Y-77630134D01*
X142369866Y-78055101D01*
X142503364Y-78254895D01*
X142703762Y-78554811D01*
X142933752Y-79110057D01*
X143051000Y-79699501D01*
X143051000Y-80300499D01*
X142933752Y-80889943D01*
X142703762Y-81445189D01*
X142641872Y-81537814D01*
X142369866Y-81944899D01*
X141944899Y-82369866D01*
X141870736Y-82419420D01*
X141445189Y-82703762D01*
X140889943Y-82933752D01*
X140300499Y-83051000D01*
X139699501Y-83051000D01*
X139110057Y-82933752D01*
X138554811Y-82703762D01*
X138129264Y-82419420D01*
X138055101Y-82369866D01*
X137630134Y-81944899D01*
X137358128Y-81537814D01*
X137296238Y-81445189D01*
X137066248Y-80889943D01*
X136949000Y-80300499D01*
X136949000Y-79699501D01*
X137066248Y-79110057D01*
X137296238Y-78554811D01*
X137496636Y-78254895D01*
X137630134Y-78055101D01*
X138055101Y-77630134D01*
X138382503Y-77411371D01*
X138554811Y-77296238D01*
X139110057Y-77066248D01*
X139699501Y-76949000D01*
X140300499Y-76949000D01*
X140889943Y-77066248D01*
X140889943Y-77066248D01*
G37*
G36*
X134709000Y-81855000D02*
G01*
X133007000Y-81855000D01*
X133007000Y-79753000D01*
X134709000Y-79753000D01*
X134709000Y-81855000D01*
X134709000Y-81855000D01*
G37*
G36*
X132477000Y-80949000D02*
G01*
X131175000Y-80949000D01*
X131175000Y-79647000D01*
X132477000Y-79647000D01*
X132477000Y-80949000D01*
X132477000Y-80949000D01*
G37*
G36*
X148375818Y-77893696D02*
G01*
X148489105Y-77928062D01*
X148593512Y-77983869D01*
X148685027Y-78058973D01*
X148760131Y-78150488D01*
X148815938Y-78254895D01*
X148850304Y-78368182D01*
X148861907Y-78486000D01*
X148850304Y-78603818D01*
X148815938Y-78717105D01*
X148760131Y-78821512D01*
X148685027Y-78913027D01*
X148593512Y-78988131D01*
X148489105Y-79043938D01*
X148375818Y-79078304D01*
X148287519Y-79087000D01*
X144828481Y-79087000D01*
X144740182Y-79078304D01*
X144626895Y-79043938D01*
X144522488Y-78988131D01*
X144430973Y-78913027D01*
X144355869Y-78821512D01*
X144300062Y-78717105D01*
X144265696Y-78603818D01*
X144254093Y-78486000D01*
X144265696Y-78368182D01*
X144300062Y-78254895D01*
X144355869Y-78150488D01*
X144430973Y-78058973D01*
X144522488Y-77983869D01*
X144626895Y-77928062D01*
X144740182Y-77893696D01*
X144828481Y-77885000D01*
X148287519Y-77885000D01*
X148375818Y-77893696D01*
X148375818Y-77893696D01*
G37*
G36*
X132477000Y-78849000D02*
G01*
X131175000Y-78849000D01*
X131175000Y-77547000D01*
X132477000Y-77547000D01*
X132477000Y-78849000D01*
X132477000Y-78849000D01*
G37*
G36*
X148375818Y-75988696D02*
G01*
X148489105Y-76023062D01*
X148593512Y-76078869D01*
X148685027Y-76153973D01*
X148760131Y-76245488D01*
X148815938Y-76349895D01*
X148850304Y-76463182D01*
X148861907Y-76581000D01*
X148850304Y-76698818D01*
X148815938Y-76812105D01*
X148760131Y-76916512D01*
X148685027Y-77008027D01*
X148593512Y-77083131D01*
X148489105Y-77138938D01*
X148375818Y-77173304D01*
X148287519Y-77182000D01*
X144828481Y-77182000D01*
X144740182Y-77173304D01*
X144626895Y-77138938D01*
X144522488Y-77083131D01*
X144430973Y-77008027D01*
X144355869Y-76916512D01*
X144300062Y-76812105D01*
X144265696Y-76698818D01*
X144254093Y-76581000D01*
X144265696Y-76463182D01*
X144300062Y-76349895D01*
X144355869Y-76245488D01*
X144430973Y-76153973D01*
X144522488Y-76078869D01*
X144626895Y-76023062D01*
X144740182Y-75988696D01*
X144828481Y-75980000D01*
X148287519Y-75980000D01*
X148375818Y-75988696D01*
X148375818Y-75988696D01*
G37*
G36*
X148375818Y-74083696D02*
G01*
X148489105Y-74118062D01*
X148593512Y-74173869D01*
X148685027Y-74248973D01*
X148760131Y-74340488D01*
X148815938Y-74444895D01*
X148850304Y-74558182D01*
X148861907Y-74676000D01*
X148850304Y-74793818D01*
X148815938Y-74907105D01*
X148760131Y-75011512D01*
X148685027Y-75103027D01*
X148593512Y-75178131D01*
X148489105Y-75233938D01*
X148375818Y-75268304D01*
X148287519Y-75277000D01*
X144828481Y-75277000D01*
X144740182Y-75268304D01*
X144626895Y-75233938D01*
X144522488Y-75178131D01*
X144430973Y-75103027D01*
X144355869Y-75011512D01*
X144300062Y-74907105D01*
X144265696Y-74793818D01*
X144254093Y-74676000D01*
X144265696Y-74558182D01*
X144300062Y-74444895D01*
X144355869Y-74340488D01*
X144430973Y-74248973D01*
X144522488Y-74173869D01*
X144626895Y-74118062D01*
X144740182Y-74083696D01*
X144828481Y-74075000D01*
X148287519Y-74075000D01*
X148375818Y-74083696D01*
X148375818Y-74083696D01*
G37*
G36*
X134063000Y-74057000D02*
G01*
X132761000Y-74057000D01*
X132761000Y-72755000D01*
X134063000Y-72755000D01*
X134063000Y-74057000D01*
X134063000Y-74057000D01*
G37*
G36*
X136163000Y-74057000D02*
G01*
X134861000Y-74057000D01*
X134861000Y-72755000D01*
X136163000Y-72755000D01*
X136163000Y-74057000D01*
X136163000Y-74057000D01*
G37*
G36*
X140481000Y-71771000D02*
G01*
X139179000Y-71771000D01*
X139179000Y-70469000D01*
X140481000Y-70469000D01*
X140481000Y-71771000D01*
X140481000Y-71771000D01*
G37*
G36*
X138381000Y-71771000D02*
G01*
X137079000Y-71771000D01*
X137079000Y-70469000D01*
X138381000Y-70469000D01*
X138381000Y-71771000D01*
X138381000Y-71771000D01*
G37*
G36*
X134063000Y-71771000D02*
G01*
X132761000Y-71771000D01*
X132761000Y-70469000D01*
X134063000Y-70469000D01*
X134063000Y-71771000D01*
X134063000Y-71771000D01*
G37*
G36*
X136163000Y-71771000D02*
G01*
X134861000Y-71771000D01*
X134861000Y-70469000D01*
X136163000Y-70469000D01*
X136163000Y-71771000D01*
X136163000Y-71771000D01*
G37*
G36*
X149093000Y-71551000D02*
G01*
X141991000Y-71551000D01*
X141991000Y-60449000D01*
X149093000Y-60449000D01*
X149093000Y-71551000D01*
X149093000Y-71551000D01*
G37*
G36*
X136163000Y-69739000D02*
G01*
X134861000Y-69739000D01*
X134861000Y-68437000D01*
X136163000Y-68437000D01*
X136163000Y-69739000D01*
X136163000Y-69739000D01*
G37*
G36*
X134063000Y-69739000D02*
G01*
X132761000Y-69739000D01*
X132761000Y-68437000D01*
X134063000Y-68437000D01*
X134063000Y-69739000D01*
X134063000Y-69739000D01*
G37*
G36*
X140515000Y-69739000D02*
G01*
X139213000Y-69739000D01*
X139213000Y-68437000D01*
X140515000Y-68437000D01*
X140515000Y-69739000D01*
X140515000Y-69739000D01*
G37*
G36*
X138415000Y-69739000D02*
G01*
X137113000Y-69739000D01*
X137113000Y-68437000D01*
X138415000Y-68437000D01*
X138415000Y-69739000D01*
X138415000Y-69739000D01*
G37*
G36*
X125701063Y-65458608D02*
G01*
X125952410Y-65508604D01*
X126234674Y-65625521D01*
X126488705Y-65795259D01*
X126704741Y-66011295D01*
X126874479Y-66265326D01*
X126991396Y-66547590D01*
X127051000Y-66847240D01*
X127051000Y-67152760D01*
X126991396Y-67452410D01*
X126874479Y-67734674D01*
X126704741Y-67988705D01*
X126488705Y-68204741D01*
X126234674Y-68374479D01*
X125952410Y-68491396D01*
X125802585Y-68521198D01*
X125652761Y-68551000D01*
X125347239Y-68551000D01*
X125197415Y-68521198D01*
X125047590Y-68491396D01*
X124765326Y-68374479D01*
X124511295Y-68204741D01*
X124295259Y-67988705D01*
X124125521Y-67734674D01*
X124008604Y-67452410D01*
X123949000Y-67152760D01*
X123949000Y-66847240D01*
X124008604Y-66547590D01*
X124125521Y-66265326D01*
X124295259Y-66011295D01*
X124511295Y-65795259D01*
X124765326Y-65625521D01*
X125047590Y-65508604D01*
X125298937Y-65458608D01*
X125347239Y-65449000D01*
X125652761Y-65449000D01*
X125701063Y-65458608D01*
X125701063Y-65458608D01*
G37*
G36*
X129935000Y-67651000D02*
G01*
X128633000Y-67651000D01*
X128633000Y-66349000D01*
X129935000Y-66349000D01*
X129935000Y-67651000D01*
X129935000Y-67651000D01*
G37*
G36*
X132035000Y-67651000D02*
G01*
X130733000Y-67651000D01*
X130733000Y-66349000D01*
X132035000Y-66349000D01*
X132035000Y-67651000D01*
X132035000Y-67651000D01*
G37*
G36*
X139875000Y-66725000D02*
G01*
X138573000Y-66725000D01*
X138573000Y-65423000D01*
X139875000Y-65423000D01*
X139875000Y-66725000D01*
X139875000Y-66725000D01*
G37*
G36*
X135873609Y-63884802D02*
G01*
X135949197Y-63907732D01*
X135949200Y-63907733D01*
X136018860Y-63944967D01*
X136079922Y-63995078D01*
X136130032Y-64056138D01*
X136167268Y-64125801D01*
X136174911Y-64150998D01*
X136190198Y-64201390D01*
X136196000Y-64260302D01*
X136196000Y-65399698D01*
X136190198Y-65458610D01*
X136175032Y-65508604D01*
X136167268Y-65534199D01*
X136130032Y-65603862D01*
X136079922Y-65664922D01*
X136018862Y-65715032D01*
X135949199Y-65752268D01*
X135924002Y-65759911D01*
X135873610Y-65775198D01*
X135795000Y-65782940D01*
X135716391Y-65775198D01*
X135665999Y-65759911D01*
X135640802Y-65752268D01*
X135571139Y-65715032D01*
X135510079Y-65664922D01*
X135459969Y-65603862D01*
X135422733Y-65534199D01*
X135414969Y-65508604D01*
X135399803Y-65458610D01*
X135394001Y-65399698D01*
X135394000Y-64260303D01*
X135399802Y-64201391D01*
X135422732Y-64125803D01*
X135422733Y-64125800D01*
X135459967Y-64056140D01*
X135510078Y-63995078D01*
X135571138Y-63944968D01*
X135640801Y-63907732D01*
X135665998Y-63900089D01*
X135716390Y-63884802D01*
X135795000Y-63877060D01*
X135873609Y-63884802D01*
X135873609Y-63884802D01*
G37*
G36*
X137143609Y-63884802D02*
G01*
X137219197Y-63907732D01*
X137219200Y-63907733D01*
X137288860Y-63944967D01*
X137349922Y-63995078D01*
X137400032Y-64056138D01*
X137437268Y-64125801D01*
X137444911Y-64150998D01*
X137460198Y-64201390D01*
X137466000Y-64260302D01*
X137466000Y-65399698D01*
X137460198Y-65458610D01*
X137445032Y-65508604D01*
X137437268Y-65534199D01*
X137400032Y-65603862D01*
X137349922Y-65664922D01*
X137288862Y-65715032D01*
X137219199Y-65752268D01*
X137194002Y-65759911D01*
X137143610Y-65775198D01*
X137065000Y-65782940D01*
X136986391Y-65775198D01*
X136935999Y-65759911D01*
X136910802Y-65752268D01*
X136841139Y-65715032D01*
X136780079Y-65664922D01*
X136729969Y-65603862D01*
X136692733Y-65534199D01*
X136684969Y-65508604D01*
X136669803Y-65458610D01*
X136664001Y-65399698D01*
X136664000Y-64260303D01*
X136669802Y-64201391D01*
X136692732Y-64125803D01*
X136692733Y-64125800D01*
X136729967Y-64056140D01*
X136780078Y-63995078D01*
X136841138Y-63944968D01*
X136910801Y-63907732D01*
X136935998Y-63900089D01*
X136986390Y-63884802D01*
X137065000Y-63877060D01*
X137143609Y-63884802D01*
X137143609Y-63884802D01*
G37*
G36*
X133333609Y-63884802D02*
G01*
X133409197Y-63907732D01*
X133409200Y-63907733D01*
X133478860Y-63944967D01*
X133539922Y-63995078D01*
X133590032Y-64056138D01*
X133627268Y-64125801D01*
X133634911Y-64150998D01*
X133650198Y-64201390D01*
X133656000Y-64260302D01*
X133656000Y-65399698D01*
X133650198Y-65458610D01*
X133635032Y-65508604D01*
X133627268Y-65534199D01*
X133590032Y-65603862D01*
X133539922Y-65664922D01*
X133478862Y-65715032D01*
X133409199Y-65752268D01*
X133384002Y-65759911D01*
X133333610Y-65775198D01*
X133255000Y-65782940D01*
X133176391Y-65775198D01*
X133125999Y-65759911D01*
X133100802Y-65752268D01*
X133031139Y-65715032D01*
X132970079Y-65664922D01*
X132919969Y-65603862D01*
X132882733Y-65534199D01*
X132874969Y-65508604D01*
X132859803Y-65458610D01*
X132854001Y-65399698D01*
X132854000Y-64260303D01*
X132859802Y-64201391D01*
X132882732Y-64125803D01*
X132882733Y-64125800D01*
X132919967Y-64056140D01*
X132970078Y-63995078D01*
X133031138Y-63944968D01*
X133100801Y-63907732D01*
X133125998Y-63900089D01*
X133176390Y-63884802D01*
X133255000Y-63877060D01*
X133333609Y-63884802D01*
X133333609Y-63884802D01*
G37*
G36*
X134603609Y-63884802D02*
G01*
X134679197Y-63907732D01*
X134679200Y-63907733D01*
X134748860Y-63944967D01*
X134809922Y-63995078D01*
X134860032Y-64056138D01*
X134897268Y-64125801D01*
X134904911Y-64150998D01*
X134920198Y-64201390D01*
X134926000Y-64260302D01*
X134926000Y-65399698D01*
X134920198Y-65458610D01*
X134905032Y-65508604D01*
X134897268Y-65534199D01*
X134860032Y-65603862D01*
X134809922Y-65664922D01*
X134748862Y-65715032D01*
X134679199Y-65752268D01*
X134654002Y-65759911D01*
X134603610Y-65775198D01*
X134525000Y-65782940D01*
X134446391Y-65775198D01*
X134395999Y-65759911D01*
X134370802Y-65752268D01*
X134301139Y-65715032D01*
X134240079Y-65664922D01*
X134189969Y-65603862D01*
X134152733Y-65534199D01*
X134144969Y-65508604D01*
X134129803Y-65458610D01*
X134124001Y-65399698D01*
X134124000Y-64260303D01*
X134129802Y-64201391D01*
X134152732Y-64125803D01*
X134152733Y-64125800D01*
X134189967Y-64056140D01*
X134240078Y-63995078D01*
X134301138Y-63944968D01*
X134370801Y-63907732D01*
X134395998Y-63900089D01*
X134446390Y-63884802D01*
X134525000Y-63877060D01*
X134603609Y-63884802D01*
X134603609Y-63884802D01*
G37*
G36*
X129935000Y-65421000D02*
G01*
X128633000Y-65421000D01*
X128633000Y-64119000D01*
X129935000Y-64119000D01*
X129935000Y-65421000D01*
X129935000Y-65421000D01*
G37*
G36*
X132035000Y-65421000D02*
G01*
X130733000Y-65421000D01*
X130733000Y-64119000D01*
X132035000Y-64119000D01*
X132035000Y-65421000D01*
X132035000Y-65421000D01*
G37*
G36*
X139875000Y-64625000D02*
G01*
X138573000Y-64625000D01*
X138573000Y-63323000D01*
X139875000Y-63323000D01*
X139875000Y-64625000D01*
X139875000Y-64625000D01*
G37*
G36*
X139843000Y-62661000D02*
G01*
X138541000Y-62661000D01*
X138541000Y-61359000D01*
X139843000Y-61359000D01*
X139843000Y-62661000D01*
X139843000Y-62661000D01*
G37*
G36*
X123151000Y-62519000D02*
G01*
X121049000Y-62519000D01*
X121049000Y-60417000D01*
X123151000Y-60417000D01*
X123151000Y-62519000D01*
X123151000Y-62519000D01*
G37*
G36*
X118951000Y-62519000D02*
G01*
X116849000Y-62519000D01*
X116849000Y-60417000D01*
X118951000Y-60417000D01*
X118951000Y-62519000D01*
X118951000Y-62519000D01*
G37*
G36*
X133333609Y-58684802D02*
G01*
X133409197Y-58707732D01*
X133409200Y-58707733D01*
X133478860Y-58744967D01*
X133539922Y-58795078D01*
X133590032Y-58856138D01*
X133627268Y-58925801D01*
X133634911Y-58950998D01*
X133650198Y-59001390D01*
X133656000Y-59060302D01*
X133656000Y-60199698D01*
X133650198Y-60258610D01*
X133634911Y-60309002D01*
X133627268Y-60334199D01*
X133590032Y-60403862D01*
X133539922Y-60464922D01*
X133478862Y-60515032D01*
X133409199Y-60552268D01*
X133384002Y-60559911D01*
X133333610Y-60575198D01*
X133255000Y-60582940D01*
X133176391Y-60575198D01*
X133125999Y-60559911D01*
X133100802Y-60552268D01*
X133031139Y-60515032D01*
X132970079Y-60464922D01*
X132919969Y-60403862D01*
X132882733Y-60334199D01*
X132875090Y-60309002D01*
X132859803Y-60258610D01*
X132854001Y-60199698D01*
X132854000Y-59060303D01*
X132859802Y-59001391D01*
X132882732Y-58925803D01*
X132882733Y-58925800D01*
X132919967Y-58856140D01*
X132970078Y-58795078D01*
X133031138Y-58744968D01*
X133100801Y-58707732D01*
X133125998Y-58700089D01*
X133176390Y-58684802D01*
X133255000Y-58677060D01*
X133333609Y-58684802D01*
X133333609Y-58684802D01*
G37*
G36*
X134603609Y-58684802D02*
G01*
X134679197Y-58707732D01*
X134679200Y-58707733D01*
X134748860Y-58744967D01*
X134809922Y-58795078D01*
X134860032Y-58856138D01*
X134897268Y-58925801D01*
X134904911Y-58950998D01*
X134920198Y-59001390D01*
X134926000Y-59060302D01*
X134926000Y-60199698D01*
X134920198Y-60258610D01*
X134904911Y-60309002D01*
X134897268Y-60334199D01*
X134860032Y-60403862D01*
X134809922Y-60464922D01*
X134748862Y-60515032D01*
X134679199Y-60552268D01*
X134654002Y-60559911D01*
X134603610Y-60575198D01*
X134525000Y-60582940D01*
X134446391Y-60575198D01*
X134395999Y-60559911D01*
X134370802Y-60552268D01*
X134301139Y-60515032D01*
X134240079Y-60464922D01*
X134189969Y-60403862D01*
X134152733Y-60334199D01*
X134145090Y-60309002D01*
X134129803Y-60258610D01*
X134124001Y-60199698D01*
X134124000Y-59060303D01*
X134129802Y-59001391D01*
X134152732Y-58925803D01*
X134152733Y-58925800D01*
X134189967Y-58856140D01*
X134240078Y-58795078D01*
X134301138Y-58744968D01*
X134370801Y-58707732D01*
X134395998Y-58700089D01*
X134446390Y-58684802D01*
X134525000Y-58677060D01*
X134603609Y-58684802D01*
X134603609Y-58684802D01*
G37*
G36*
X137143609Y-58684802D02*
G01*
X137219197Y-58707732D01*
X137219200Y-58707733D01*
X137288860Y-58744967D01*
X137349922Y-58795078D01*
X137400032Y-58856138D01*
X137437268Y-58925801D01*
X137444911Y-58950998D01*
X137460198Y-59001390D01*
X137466000Y-59060302D01*
X137466000Y-60199698D01*
X137460198Y-60258610D01*
X137444911Y-60309002D01*
X137437268Y-60334199D01*
X137400032Y-60403862D01*
X137349922Y-60464922D01*
X137288862Y-60515032D01*
X137219199Y-60552268D01*
X137194002Y-60559911D01*
X137143610Y-60575198D01*
X137065000Y-60582940D01*
X136986391Y-60575198D01*
X136935999Y-60559911D01*
X136910802Y-60552268D01*
X136841139Y-60515032D01*
X136780079Y-60464922D01*
X136729969Y-60403862D01*
X136692733Y-60334199D01*
X136685090Y-60309002D01*
X136669803Y-60258610D01*
X136664001Y-60199698D01*
X136664000Y-59060303D01*
X136669802Y-59001391D01*
X136692732Y-58925803D01*
X136692733Y-58925800D01*
X136729967Y-58856140D01*
X136780078Y-58795078D01*
X136841138Y-58744968D01*
X136910801Y-58707732D01*
X136935998Y-58700089D01*
X136986390Y-58684802D01*
X137065000Y-58677060D01*
X137143609Y-58684802D01*
X137143609Y-58684802D01*
G37*
G36*
X135873609Y-58684802D02*
G01*
X135949197Y-58707732D01*
X135949200Y-58707733D01*
X136018860Y-58744967D01*
X136079922Y-58795078D01*
X136130032Y-58856138D01*
X136167268Y-58925801D01*
X136174911Y-58950998D01*
X136190198Y-59001390D01*
X136196000Y-59060302D01*
X136196000Y-60199698D01*
X136190198Y-60258610D01*
X136174911Y-60309002D01*
X136167268Y-60334199D01*
X136130032Y-60403862D01*
X136079922Y-60464922D01*
X136018862Y-60515032D01*
X135949199Y-60552268D01*
X135924002Y-60559911D01*
X135873610Y-60575198D01*
X135795000Y-60582940D01*
X135716391Y-60575198D01*
X135665999Y-60559911D01*
X135640802Y-60552268D01*
X135571139Y-60515032D01*
X135510079Y-60464922D01*
X135459969Y-60403862D01*
X135422733Y-60334199D01*
X135415090Y-60309002D01*
X135399803Y-60258610D01*
X135394001Y-60199698D01*
X135394000Y-59060303D01*
X135399802Y-59001391D01*
X135422732Y-58925803D01*
X135422733Y-58925800D01*
X135459967Y-58856140D01*
X135510078Y-58795078D01*
X135571138Y-58744968D01*
X135640801Y-58707732D01*
X135665998Y-58700089D01*
X135716390Y-58684802D01*
X135795000Y-58677060D01*
X135873609Y-58684802D01*
X135873609Y-58684802D01*
G37*
G36*
X139843000Y-60561000D02*
G01*
X138541000Y-60561000D01*
X138541000Y-59259000D01*
X139843000Y-59259000D01*
X139843000Y-60561000D01*
X139843000Y-60561000D01*
G37*
G36*
X129151000Y-60391000D02*
G01*
X127549000Y-60391000D01*
X127549000Y-58989000D01*
X129151000Y-58989000D01*
X129151000Y-60391000D01*
X129151000Y-60391000D01*
G37*
G36*
X126451000Y-60391000D02*
G01*
X124849000Y-60391000D01*
X124849000Y-58989000D01*
X126451000Y-58989000D01*
X126451000Y-60391000D01*
X126451000Y-60391000D01*
G37*
G36*
X120551000Y-58551000D02*
G01*
X109449000Y-58551000D01*
X109449000Y-51449000D01*
X120551000Y-51449000D01*
X120551000Y-58551000D01*
X120551000Y-58551000D01*
G37*
G36*
X137174000Y-58055000D02*
G01*
X135872000Y-58055000D01*
X135872000Y-56753000D01*
X137174000Y-56753000D01*
X137174000Y-58055000D01*
X137174000Y-58055000D01*
G37*
G36*
X135210000Y-58055000D02*
G01*
X133908000Y-58055000D01*
X133908000Y-56753000D01*
X135210000Y-56753000D01*
X135210000Y-58055000D01*
X135210000Y-58055000D01*
G37*
G36*
X133110000Y-58055000D02*
G01*
X131808000Y-58055000D01*
X131808000Y-56753000D01*
X133110000Y-56753000D01*
X133110000Y-58055000D01*
X133110000Y-58055000D01*
G37*
G36*
X139274000Y-58055000D02*
G01*
X137972000Y-58055000D01*
X137972000Y-56753000D01*
X139274000Y-56753000D01*
X139274000Y-58055000D01*
X139274000Y-58055000D01*
G37*
G36*
X145889943Y-52066248D02*
G01*
X146445189Y-52296238D01*
X146617497Y-52411371D01*
X146944899Y-52630134D01*
X147369866Y-53055101D01*
X147369867Y-53055103D01*
X147703762Y-53554811D01*
X147933752Y-54110057D01*
X148051000Y-54699501D01*
X148051000Y-55300499D01*
X147933752Y-55889943D01*
X147703762Y-56445189D01*
X147645088Y-56533000D01*
X147369866Y-56944899D01*
X146944899Y-57369866D01*
X146870736Y-57419420D01*
X146445189Y-57703762D01*
X145889943Y-57933752D01*
X145300499Y-58051000D01*
X144699501Y-58051000D01*
X144110057Y-57933752D01*
X143554811Y-57703762D01*
X143129264Y-57419420D01*
X143055101Y-57369866D01*
X142630134Y-56944899D01*
X142354912Y-56533000D01*
X142296238Y-56445189D01*
X142066248Y-55889943D01*
X141949000Y-55300499D01*
X141949000Y-54699501D01*
X142066248Y-54110057D01*
X142296238Y-53554811D01*
X142630133Y-53055103D01*
X142630134Y-53055101D01*
X143055101Y-52630134D01*
X143382503Y-52411371D01*
X143554811Y-52296238D01*
X144110057Y-52066248D01*
X144699501Y-51949000D01*
X145300499Y-51949000D01*
X145889943Y-52066248D01*
X145889943Y-52066248D01*
G37*
G36*
X105889943Y-52066248D02*
G01*
X106445189Y-52296238D01*
X106617497Y-52411371D01*
X106944899Y-52630134D01*
X107369866Y-53055101D01*
X107369867Y-53055103D01*
X107703762Y-53554811D01*
X107933752Y-54110057D01*
X108051000Y-54699501D01*
X108051000Y-55300499D01*
X107933752Y-55889943D01*
X107703762Y-56445189D01*
X107645088Y-56533000D01*
X107369866Y-56944899D01*
X106944899Y-57369866D01*
X106870736Y-57419420D01*
X106445189Y-57703762D01*
X105889943Y-57933752D01*
X105300499Y-58051000D01*
X104699501Y-58051000D01*
X104110057Y-57933752D01*
X103554811Y-57703762D01*
X103129264Y-57419420D01*
X103055101Y-57369866D01*
X102630134Y-56944899D01*
X102354912Y-56533000D01*
X102296238Y-56445189D01*
X102066248Y-55889943D01*
X101949000Y-55300499D01*
X101949000Y-54699501D01*
X102066248Y-54110057D01*
X102296238Y-53554811D01*
X102630133Y-53055103D01*
X102630134Y-53055101D01*
X103055101Y-52630134D01*
X103382503Y-52411371D01*
X103554811Y-52296238D01*
X104110057Y-52066248D01*
X104699501Y-51949000D01*
X105300499Y-51949000D01*
X105889943Y-52066248D01*
X105889943Y-52066248D01*
G37*
G36*
X125651000Y-57835000D02*
G01*
X124349000Y-57835000D01*
X124349000Y-56533000D01*
X125651000Y-56533000D01*
X125651000Y-57835000D01*
X125651000Y-57835000D01*
G37*
G36*
X128490000Y-56723000D02*
G01*
X127138000Y-56723000D01*
X127138000Y-55921000D01*
X128490000Y-55921000D01*
X128490000Y-56723000D01*
X128490000Y-56723000D01*
G37*
G36*
X137079000Y-56149000D02*
G01*
X135677000Y-56149000D01*
X135677000Y-54447000D01*
X137079000Y-54447000D01*
X137079000Y-56149000D01*
X137079000Y-56149000D01*
G37*
G36*
X134579000Y-56149000D02*
G01*
X133177000Y-56149000D01*
X133177000Y-54447000D01*
X134579000Y-54447000D01*
X134579000Y-56149000D01*
X134579000Y-56149000D01*
G37*
G36*
X130990000Y-55773000D02*
G01*
X129638000Y-55773000D01*
X129638000Y-54971000D01*
X130990000Y-54971000D01*
X130990000Y-55773000D01*
X130990000Y-55773000D01*
G37*
G36*
X125651000Y-55735000D02*
G01*
X124349000Y-55735000D01*
X124349000Y-54433000D01*
X125651000Y-54433000D01*
X125651000Y-55735000D01*
X125651000Y-55735000D01*
G37*
G36*
X139621000Y-55549000D02*
G01*
X138319000Y-55549000D01*
X138319000Y-54247000D01*
X139621000Y-54247000D01*
X139621000Y-55549000D01*
X139621000Y-55549000D01*
G37*
G36*
X128490000Y-54823000D02*
G01*
X127138000Y-54823000D01*
X127138000Y-54021000D01*
X128490000Y-54021000D01*
X128490000Y-54823000D01*
X128490000Y-54823000D01*
G37*
G36*
X139621000Y-53449000D02*
G01*
X138319000Y-53449000D01*
X138319000Y-52147000D01*
X139621000Y-52147000D01*
X139621000Y-53449000D01*
X139621000Y-53449000D01*
G37*
G36*
X136179000Y-53249000D02*
G01*
X134077000Y-53249000D01*
X134077000Y-51547000D01*
X136179000Y-51547000D01*
X136179000Y-53249000D01*
X136179000Y-53249000D01*
G37*
G36*
X131781000Y-52721000D02*
G01*
X130479000Y-52721000D01*
X130479000Y-51419000D01*
X131781000Y-51419000D01*
X131781000Y-52721000D01*
X131781000Y-52721000D01*
G37*
G36*
X129681000Y-52721000D02*
G01*
X128379000Y-52721000D01*
X128379000Y-51419000D01*
X129681000Y-51419000D01*
X129681000Y-52721000D01*
X129681000Y-52721000D01*
G37*
G36*
X127717000Y-52721000D02*
G01*
X126415000Y-52721000D01*
X126415000Y-51419000D01*
X127717000Y-51419000D01*
X127717000Y-52721000D01*
X127717000Y-52721000D01*
G37*
G36*
X125617000Y-52721000D02*
G01*
X124315000Y-52721000D01*
X124315000Y-51419000D01*
X125617000Y-51419000D01*
X125617000Y-52721000D01*
X125617000Y-52721000D01*
G37*
M02*
