%TF.GenerationSoftware,KiCad,Pcbnew,(5.1.4)-1*%
%TF.CreationDate,2019-12-09T14:58:40+08:00*%
%TF.ProjectId,RF_input,52465f69-6e70-4757-942e-6b696361645f,rev?*%
%TF.SameCoordinates,Original*%
%TF.FileFunction,Copper,L1,Top*%
%TF.FilePolarity,Positive*%
%FSLAX46Y46*%
G04 Gerber Fmt 4.6, Leading zero omitted, Abs format (unit mm)*
G04 Created by KiCad (PCBNEW (5.1.4)-1) date 2019-12-09 14:58:40*
%MOMM*%
%LPD*%
G04 APERTURE LIST*
%ADD10C,0.100000*%
%ADD11C,0.381000*%
%ADD12O,4.500000X1.100000*%
%ADD13R,5.500000X12.800000*%
%ADD14R,1.500000X1.300000*%
%ADD15R,1.200000X1.200000*%
%ADD16R,2.000000X1.700000*%
%ADD17R,2.000000X2.000000*%
%ADD18C,0.800000*%
%ADD19R,12.000000X5.000000*%
%ADD20R,8.000000X2.500000*%
%ADD21C,3.000000*%
%ADD22R,1.600000X2.000000*%
%ADD23R,7.000000X11.000000*%
%ADD24R,11.000000X7.000000*%
%ADD25R,2.700000X3.200000*%
%ADD26R,1.250000X0.700000*%
%ADD27O,0.700000X1.800000*%
%ADD28C,6.000000*%
%ADD29R,1.300000X1.600000*%
%ADD30R,2.000000X1.600000*%
%ADD31R,3.200000X2.700000*%
%ADD32R,3.500000X3.500000*%
%ADD33C,1.000000*%
%ADD34C,0.508000*%
%ADD35C,1.016000*%
%ADD36C,1.524000*%
%ADD37C,2.032000*%
%ADD38C,2.500000*%
%ADD39C,0.254000*%
%ADD40C,0.350000*%
G04 APERTURE END LIST*
D10*
G36*
X148844000Y-80264000D02*
G01*
X144272000Y-80264000D01*
X144272000Y-77978000D01*
X148844000Y-77978000D01*
X148844000Y-80264000D01*
G37*
X148844000Y-80264000D02*
X144272000Y-80264000D01*
X144272000Y-77978000D01*
X148844000Y-77978000D01*
X148844000Y-80264000D01*
G36*
X148844000Y-75184000D02*
G01*
X144272000Y-75184000D01*
X144272000Y-72898000D01*
X148844000Y-72898000D01*
X148844000Y-75184000D01*
G37*
X148844000Y-75184000D02*
X144272000Y-75184000D01*
X144272000Y-72898000D01*
X148844000Y-72898000D01*
X148844000Y-75184000D01*
G36*
X124968000Y-91694000D02*
G01*
X113792000Y-91694000D01*
X113792000Y-85852000D01*
X124968000Y-85852000D01*
X124968000Y-91694000D01*
G37*
X124968000Y-91694000D02*
X113792000Y-91694000D01*
X113792000Y-85852000D01*
X124968000Y-85852000D01*
X124968000Y-91694000D01*
G36*
X113284000Y-105410000D02*
G01*
X108966000Y-105410000D01*
X108966000Y-94488000D01*
X113284000Y-94488000D01*
X113284000Y-105410000D01*
G37*
X113284000Y-105410000D02*
X108966000Y-105410000D01*
X108966000Y-94488000D01*
X113284000Y-94488000D01*
X113284000Y-105410000D01*
G36*
X138430000Y-71755000D02*
G01*
X134874000Y-71755000D01*
X134874000Y-68453000D01*
X138430000Y-68453000D01*
X138430000Y-71755000D01*
G37*
X138430000Y-71755000D02*
X134874000Y-71755000D01*
X134874000Y-68453000D01*
X138430000Y-68453000D01*
X138430000Y-71755000D01*
D11*
X106426000Y-134620000D02*
X106934000Y-134620000D01*
X106934000Y-138176000D02*
X106426000Y-134620000D01*
X107442000Y-134620000D02*
X106934000Y-138176000D01*
X106934000Y-134620000D02*
X107442000Y-134620000D01*
X106934000Y-138049000D02*
X107061000Y-134620000D01*
X106934000Y-138176000D02*
X106807000Y-134620000D01*
X107293210Y-139065000D02*
G75*
G03X107293210Y-139065000I-359210J0D01*
G01*
X107061000Y-139065000D02*
G75*
G03X107061000Y-139065000I-127000J0D01*
G01*
X102235000Y-139954000D02*
X106934000Y-132969000D01*
X111633000Y-139954000D02*
X102235000Y-139954000D01*
X106934000Y-132969000D02*
X111633000Y-139954000D01*
D12*
X146558000Y-78486000D03*
X146558000Y-74676000D03*
X146558000Y-76581000D03*
D13*
X147066000Y-107366000D03*
X147066000Y-92634000D03*
D14*
X125650000Y-59690000D03*
X128350000Y-59690000D03*
D15*
X111760000Y-107730000D03*
X111760000Y-105630000D03*
D16*
X108172000Y-100076000D03*
X104172000Y-100076000D03*
D17*
X122100000Y-61468000D03*
X117900000Y-61468000D03*
D18*
X107920000Y-130366000D03*
X109920000Y-130366000D03*
X111920000Y-128588000D03*
X109920000Y-128588000D03*
X105920000Y-126810000D03*
X107920000Y-128588000D03*
X101920000Y-130366000D03*
X111920000Y-130366000D03*
X101920000Y-126810000D03*
X103920000Y-126810000D03*
X109920000Y-126810000D03*
X101920000Y-128588000D03*
X103920000Y-128588000D03*
X107920000Y-126810000D03*
X105920000Y-130366000D03*
X103920000Y-130366000D03*
X111920000Y-126810000D03*
X105920000Y-128588000D03*
X103920000Y-117412000D03*
X105920000Y-117412000D03*
X109920000Y-117412000D03*
X111920000Y-117412000D03*
X101920000Y-117412000D03*
X107920000Y-117412000D03*
X103920000Y-119190000D03*
X105920000Y-119190000D03*
X109920000Y-119190000D03*
X111920000Y-119190000D03*
X101920000Y-119190000D03*
X107920000Y-119190000D03*
X111920000Y-115634000D03*
X109920000Y-115634000D03*
X107920000Y-115634000D03*
X105920000Y-115634000D03*
X103920000Y-115634000D03*
X101920000Y-115634000D03*
D19*
X107000000Y-128600000D03*
X107000000Y-117400000D03*
D20*
X109000000Y-123000000D03*
D21*
X125500000Y-67000000D03*
D22*
X133858000Y-119094000D03*
X133858000Y-115094000D03*
X133858000Y-80804000D03*
X133858000Y-84804000D03*
D23*
X145542000Y-66000000D03*
D24*
X115000000Y-55000000D03*
D15*
X109728000Y-105630000D03*
X109728000Y-107730000D03*
X129284000Y-67000000D03*
X131384000Y-67000000D03*
D25*
X133550000Y-88000000D03*
X141450000Y-88000000D03*
D26*
X130314000Y-55372000D03*
X127814000Y-56322000D03*
X127814000Y-54422000D03*
D27*
X137065000Y-64830000D03*
X135795000Y-64830000D03*
X134525000Y-64830000D03*
X133255000Y-64830000D03*
X133255000Y-59630000D03*
X134525000Y-59630000D03*
X135795000Y-59630000D03*
X137065000Y-59630000D03*
D18*
X107056810Y-53812500D03*
X107056810Y-56187500D03*
X105000000Y-57375000D03*
X102943190Y-56187500D03*
X102943190Y-53812500D03*
X105000000Y-52625000D03*
D28*
X105000000Y-55000000D03*
D18*
X107056810Y-143812500D03*
X107056810Y-146187500D03*
X105000000Y-147375000D03*
X102943190Y-146187500D03*
X102943190Y-143812500D03*
X105000000Y-142625000D03*
D28*
X105000000Y-145000000D03*
D29*
X133878000Y-55298000D03*
D30*
X135128000Y-52398000D03*
D29*
X136378000Y-55298000D03*
D25*
X133550000Y-112000000D03*
X141450000Y-112000000D03*
D31*
X139000000Y-103950000D03*
X139000000Y-96050000D03*
X134500000Y-103950000D03*
X134500000Y-96050000D03*
D25*
X134950000Y-136398000D03*
X127050000Y-136398000D03*
X134950000Y-132000000D03*
X127050000Y-132000000D03*
X134950000Y-127508000D03*
X127050000Y-127508000D03*
X134950000Y-123000000D03*
X127050000Y-123000000D03*
D32*
X122900000Y-123000000D03*
X116100000Y-123000000D03*
D15*
X135512000Y-69088000D03*
X133412000Y-69088000D03*
X139192000Y-62010000D03*
X139192000Y-59910000D03*
X135512000Y-73406000D03*
X133412000Y-73406000D03*
X135512000Y-71120000D03*
X133412000Y-71120000D03*
X139830000Y-71120000D03*
X137730000Y-71120000D03*
X131826000Y-78198000D03*
X131826000Y-80298000D03*
X136523000Y-57404000D03*
X138623000Y-57404000D03*
X138970000Y-54898000D03*
X138970000Y-52798000D03*
X129030000Y-52070000D03*
X131130000Y-52070000D03*
X124966000Y-52070000D03*
X127066000Y-52070000D03*
X125000000Y-55084000D03*
X125000000Y-57184000D03*
X131384000Y-64770000D03*
X129284000Y-64770000D03*
X137764000Y-69088000D03*
X139864000Y-69088000D03*
X139224000Y-66074000D03*
X139224000Y-63974000D03*
X134559000Y-57404000D03*
X132459000Y-57404000D03*
D18*
X147056810Y-143812500D03*
X147056810Y-146187500D03*
X145000000Y-147375000D03*
X142943190Y-146187500D03*
X142943190Y-143812500D03*
X145000000Y-142625000D03*
D28*
X145000000Y-145000000D03*
D18*
X147056810Y-53812500D03*
X147056810Y-56187500D03*
X145000000Y-57375000D03*
X142943190Y-56187500D03*
X142943190Y-53812500D03*
X145000000Y-52625000D03*
D28*
X145000000Y-55000000D03*
D18*
X142056810Y-118812500D03*
X142056810Y-121187500D03*
X140000000Y-122375000D03*
X137943190Y-121187500D03*
X137943190Y-118812500D03*
X140000000Y-117625000D03*
D28*
X140000000Y-120000000D03*
D18*
X142056810Y-78812500D03*
X142056810Y-81187500D03*
X140000000Y-82375000D03*
X137943190Y-81187500D03*
X137943190Y-78812500D03*
X140000000Y-77625000D03*
D28*
X140000000Y-80000000D03*
D18*
X132207000Y-59690000D03*
X148590000Y-70104000D03*
X148590000Y-68072000D03*
X148590000Y-66040000D03*
X148590000Y-61722000D03*
X148590000Y-64008000D03*
X147066000Y-70104000D03*
X147066000Y-68072000D03*
X147066000Y-66040000D03*
X147066000Y-61722000D03*
X147066000Y-64008000D03*
X145542000Y-61722000D03*
X145542000Y-70104000D03*
X145542000Y-68072000D03*
X145542000Y-66040000D03*
X145542000Y-64008000D03*
X144018000Y-61722000D03*
X144018000Y-70104000D03*
X144018000Y-68072000D03*
X144018000Y-66040000D03*
X144018000Y-64008000D03*
X142494000Y-61722000D03*
X142494000Y-70104000D03*
X142494000Y-66040000D03*
X132207000Y-58674000D03*
X138684000Y-58420000D03*
X139954000Y-67691000D03*
X137907971Y-63525945D03*
X142494000Y-64008000D03*
X142494000Y-68072000D03*
X131318000Y-55117970D03*
X131318000Y-57404000D03*
X130314000Y-54090000D03*
X130374750Y-52905184D03*
D33*
X125730000Y-61468000D03*
X129286000Y-63500000D03*
D18*
X137414000Y-62992000D03*
X140076963Y-53703902D03*
X122000000Y-69000000D03*
X128524000Y-118110000D03*
X129540000Y-118110000D03*
X128524000Y-119634000D03*
X129540000Y-118872000D03*
X129540000Y-119634000D03*
X128524000Y-118872000D03*
X127508000Y-81026000D03*
X126492000Y-81026000D03*
X127508000Y-81788000D03*
X126492000Y-81788000D03*
X127508000Y-80264000D03*
X126492000Y-80264000D03*
X111760000Y-109474000D03*
X132588000Y-118110000D03*
X131572000Y-118110000D03*
X130556000Y-118110000D03*
X130556000Y-80264000D03*
X129540000Y-80264000D03*
X128524000Y-80264000D03*
X130556000Y-81026000D03*
X129540000Y-81026000D03*
X128524000Y-81026000D03*
X129540000Y-81788000D03*
X128524000Y-81788000D03*
X130556000Y-81788000D03*
X132588000Y-119634000D03*
X131572000Y-119634000D03*
X130556000Y-119634000D03*
X131572000Y-118872000D03*
X132588000Y-118872000D03*
X130556000Y-118872000D03*
X121924000Y-88614000D03*
X123704000Y-90614000D03*
X123704000Y-88614000D03*
X121924000Y-90614000D03*
X121924000Y-86614000D03*
X123704000Y-86614000D03*
X141986000Y-123444000D03*
X141986000Y-125222000D03*
X141986000Y-132334000D03*
X141986000Y-134112000D03*
X141986000Y-128778000D03*
X141986000Y-127000000D03*
X141986000Y-135890000D03*
X141986000Y-130556000D03*
X141986000Y-137668000D03*
X139700000Y-123444000D03*
X139700000Y-125222000D03*
X139700000Y-132334000D03*
X139700000Y-134112000D03*
X139700000Y-128778000D03*
X139700000Y-127000000D03*
X139700000Y-135890000D03*
X139700000Y-130556000D03*
X139700000Y-137668000D03*
X114808000Y-86614000D03*
X109728000Y-109474000D03*
X116588000Y-86614000D03*
X118368000Y-86614000D03*
X120148000Y-86614000D03*
X114808000Y-88614000D03*
X116588000Y-88614000D03*
X118368000Y-88614000D03*
X120148000Y-88614000D03*
X114808000Y-90614000D03*
X116588000Y-90614000D03*
X118368000Y-90614000D03*
X120148000Y-90614000D03*
X137160000Y-123444000D03*
X137160000Y-125222000D03*
X137160000Y-127000000D03*
X137160000Y-128778000D03*
X137160000Y-130556000D03*
X137160000Y-132334000D03*
X137160000Y-134112000D03*
X137160000Y-135890000D03*
X137160000Y-137668000D03*
X123952000Y-69000000D03*
X120000000Y-69000000D03*
X117500000Y-69000000D03*
X115000000Y-69000000D03*
X112500000Y-69000000D03*
X110500000Y-69000000D03*
X108500000Y-69000000D03*
X106500000Y-69500000D03*
X106500000Y-72000000D03*
X106500000Y-74000000D03*
X106500000Y-76500000D03*
X106500000Y-79000000D03*
X106500000Y-82000000D03*
X106500000Y-84500000D03*
X106500000Y-88000000D03*
X106500000Y-91500000D03*
X106500000Y-94500000D03*
X106500000Y-97500000D03*
X124000000Y-65000000D03*
X122000000Y-65000000D03*
X120000000Y-65000000D03*
X117500000Y-65000000D03*
X115000000Y-65000000D03*
X112500000Y-65000000D03*
X110500000Y-65000000D03*
X108500000Y-65000000D03*
X106500000Y-65000000D03*
X104000000Y-66000000D03*
X102000000Y-69500000D03*
X102000000Y-72000000D03*
X102000000Y-74000000D03*
X102000000Y-76500000D03*
X102000000Y-79000000D03*
X102000000Y-82000000D03*
X102000000Y-84500000D03*
X102000000Y-88000000D03*
X102000000Y-91500000D03*
X102000000Y-94500000D03*
X102000000Y-97500000D03*
X102000000Y-67500000D03*
X101500000Y-100000000D03*
X101500000Y-103000000D03*
X103500000Y-103000000D03*
X105500000Y-103000000D03*
X107500000Y-103000000D03*
X107500000Y-105500000D03*
X107500000Y-108000000D03*
X107500000Y-109500000D03*
X108500000Y-93500000D03*
X110500000Y-93500000D03*
X112500000Y-93500000D03*
X114500000Y-93500000D03*
X114500000Y-95500000D03*
X114500000Y-97500000D03*
X114500000Y-100000000D03*
X114500000Y-102500000D03*
X114500000Y-105000000D03*
X113284000Y-106934000D03*
D34*
X130314000Y-52886000D02*
X131130000Y-52070000D01*
X133255000Y-57946000D02*
X132459000Y-57150000D01*
X133255000Y-59630000D02*
X133255000Y-57946000D01*
X146558000Y-78486000D02*
X148590000Y-78486000D01*
X132207000Y-57656000D02*
X132459000Y-57404000D01*
X138623000Y-57404000D02*
X138623000Y-58359000D01*
X138623000Y-58359000D02*
X138684000Y-58420000D01*
X139864000Y-69088000D02*
X139864000Y-67781000D01*
X139864000Y-67781000D02*
X139954000Y-67691000D01*
X138116000Y-63974000D02*
X137907971Y-63765971D01*
X137907971Y-63765971D02*
X137907971Y-63525945D01*
X139224000Y-63974000D02*
X138116000Y-63974000D01*
X132207000Y-58674000D02*
X132207000Y-58293000D01*
X132207000Y-58293000D02*
X132207000Y-57656000D01*
D35*
X133412000Y-76612000D02*
X131826000Y-78198000D01*
X133412000Y-73406000D02*
X133412000Y-76612000D01*
D36*
X138198000Y-78198000D02*
X140000000Y-80000000D01*
X133412000Y-78040000D02*
X133570000Y-78198000D01*
X133412000Y-73406000D02*
X133412000Y-78040000D01*
X131826000Y-78198000D02*
X133570000Y-78198000D01*
X133570000Y-78198000D02*
X138198000Y-78198000D01*
D35*
X141514000Y-78486000D02*
X140000000Y-80000000D01*
X146558000Y-78486000D02*
X141514000Y-78486000D01*
D34*
X130752315Y-55117970D02*
X131318000Y-55117970D01*
X130314000Y-55372000D02*
X130568030Y-55117970D01*
X130568030Y-55117970D02*
X130752315Y-55117970D01*
X132459000Y-57404000D02*
X131318000Y-57404000D01*
X130314000Y-55372000D02*
X130314000Y-54090000D01*
X130314000Y-54090000D02*
X130314000Y-52886000D01*
X131130000Y-52070000D02*
X131130000Y-52149934D01*
X131130000Y-52149934D02*
X130374750Y-52905184D01*
D35*
X125650000Y-59690000D02*
X125650000Y-61388000D01*
X125650000Y-61388000D02*
X125730000Y-61468000D01*
D34*
X129284000Y-64770000D02*
X129284000Y-63502000D01*
X129284000Y-63502000D02*
X129286000Y-63500000D01*
X137907971Y-63525945D02*
X137907971Y-63485971D01*
X137907971Y-63485971D02*
X137414000Y-62992000D01*
X138970000Y-52798000D02*
X139171061Y-52798000D01*
X139171061Y-52798000D02*
X140076963Y-53703902D01*
D35*
X122100000Y-58984000D02*
X123934000Y-57150000D01*
X122100000Y-61000000D02*
X122100000Y-58984000D01*
X124966000Y-57150000D02*
X125000000Y-57184000D01*
X123934000Y-57150000D02*
X124966000Y-57150000D01*
D34*
X140938000Y-71120000D02*
X141189012Y-70868988D01*
X139830000Y-71120000D02*
X140938000Y-71120000D01*
X141120024Y-66074000D02*
X141189012Y-66005012D01*
X139224000Y-66074000D02*
X141120024Y-66074000D01*
X141189012Y-70868988D02*
X141189012Y-66005012D01*
D11*
X139040000Y-66074000D02*
X139224000Y-66074000D01*
X137065000Y-64830000D02*
X137796000Y-64830000D01*
X137796000Y-64830000D02*
X139040000Y-66074000D01*
X139222212Y-50821510D02*
X141189012Y-52788310D01*
X123794499Y-51012799D02*
X123985788Y-50821510D01*
X123794499Y-57010499D02*
X123794499Y-51012799D01*
X123985788Y-50821510D02*
X139222212Y-50821510D01*
X123934000Y-57150000D02*
X123794499Y-57010499D01*
D34*
X141189012Y-52788310D02*
X139285712Y-50885010D01*
D11*
X141189012Y-66767012D02*
X141189012Y-70868988D01*
D34*
X141189012Y-66767012D02*
X141189012Y-52788310D01*
X109680000Y-100076000D02*
X109728000Y-100124000D01*
X108172000Y-100076000D02*
X109680000Y-100076000D01*
X111760000Y-104522000D02*
X111506000Y-104268000D01*
X111760000Y-105630000D02*
X111760000Y-104522000D01*
X109854000Y-104268000D02*
X109728000Y-104394000D01*
X111506000Y-104268000D02*
X109854000Y-104268000D01*
X109728000Y-100124000D02*
X109728000Y-104394000D01*
X109728000Y-104394000D02*
X109728000Y-105630000D01*
D35*
X129284000Y-67000000D02*
X125500000Y-67000000D01*
D36*
X104172000Y-100076000D02*
X104172000Y-69056000D01*
X106172000Y-67056000D02*
X125476000Y-67056000D01*
X104172000Y-69056000D02*
X106172000Y-67056000D01*
D34*
X111760000Y-107730000D02*
X111760000Y-109474000D01*
D35*
X109728000Y-107730000D02*
X109728000Y-109474000D01*
D34*
X135512000Y-73220000D02*
X133412000Y-71120000D01*
X135512000Y-73406000D02*
X135512000Y-73220000D01*
X136620000Y-73406000D02*
X135512000Y-73406000D01*
X140625000Y-73406000D02*
X136620000Y-73406000D01*
X143800000Y-76581000D02*
X140625000Y-73406000D01*
X146558000Y-76581000D02*
X143800000Y-76581000D01*
X138145989Y-72643989D02*
X137730000Y-72228000D01*
X137730000Y-72228000D02*
X137730000Y-71120000D01*
X143800000Y-74676000D02*
X141767989Y-72643989D01*
X141767989Y-72643989D02*
X138145989Y-72643989D01*
X146558000Y-74676000D02*
X143800000Y-74676000D01*
D11*
X135512000Y-69088000D02*
X135512000Y-71120000D01*
X135512000Y-71120000D02*
X137730000Y-71120000D01*
X137730000Y-69122000D02*
X137764000Y-69088000D01*
X137730000Y-71120000D02*
X137730000Y-69122000D01*
D34*
X127066000Y-53674000D02*
X127814000Y-54422000D01*
X127066000Y-52070000D02*
X127066000Y-53674000D01*
X129030000Y-52070000D02*
X127066000Y-52070000D01*
D37*
X122900000Y-119218000D02*
X122936000Y-119182000D01*
X122900000Y-123000000D02*
X122900000Y-119218000D01*
D34*
X126238000Y-56322000D02*
X125000000Y-55084000D01*
X127814000Y-56322000D02*
X126238000Y-56322000D01*
X124966000Y-55050000D02*
X125000000Y-55084000D01*
X124966000Y-52070000D02*
X124966000Y-55050000D01*
D11*
X127814000Y-56322000D02*
X131312298Y-56322000D01*
X131401799Y-56232499D02*
X131912501Y-56232499D01*
X131312298Y-56322000D02*
X131401799Y-56232499D01*
X131912501Y-56232499D02*
X132847000Y-55298000D01*
X132847000Y-55298000D02*
X133878000Y-55298000D01*
D34*
X136523000Y-57150000D02*
X134559000Y-57150000D01*
X135160000Y-57118000D02*
X135128000Y-57150000D01*
X135160000Y-51890000D02*
X135160000Y-57118000D01*
X134525000Y-57184000D02*
X134559000Y-57150000D01*
X134525000Y-59630000D02*
X134525000Y-57184000D01*
X128947999Y-60589999D02*
X128048000Y-59690000D01*
X129456001Y-61098001D02*
X128947999Y-60589999D01*
X133606999Y-61098001D02*
X129456001Y-61098001D01*
X134525000Y-60180000D02*
X133606999Y-61098001D01*
X134525000Y-59630000D02*
X134525000Y-60180000D01*
D11*
X133195000Y-64770000D02*
X133255000Y-64830000D01*
X131384000Y-64770000D02*
X133195000Y-64770000D01*
X130403000Y-64770000D02*
X131384000Y-64770000D01*
X130339499Y-64833501D02*
X130403000Y-64770000D01*
X130339499Y-67955601D02*
X130339499Y-64833501D01*
X131471898Y-69088000D02*
X130339499Y-67955601D01*
X133412000Y-69088000D02*
X131471898Y-69088000D01*
X133255000Y-64280000D02*
X133255000Y-64830000D01*
X135525000Y-62010000D02*
X133255000Y-64280000D01*
X139192000Y-62010000D02*
X135525000Y-62010000D01*
D34*
X138912000Y-59630000D02*
X139192000Y-59910000D01*
X137065000Y-59630000D02*
X138912000Y-59630000D01*
D11*
X135795000Y-59630000D02*
X135795000Y-61119000D01*
X135795000Y-61119000D02*
X136747000Y-61119000D01*
X137065000Y-60801000D02*
X137065000Y-59630000D01*
X136747000Y-61119000D02*
X137065000Y-60801000D01*
D34*
X134525000Y-66897000D02*
X134422000Y-67000000D01*
X134525000Y-64830000D02*
X134525000Y-66897000D01*
X131384000Y-67000000D02*
X134422000Y-67000000D01*
X135795000Y-66516000D02*
X135795000Y-64830000D01*
X134422000Y-67000000D02*
X135311000Y-67000000D01*
X135311000Y-67000000D02*
X135795000Y-66516000D01*
X138862000Y-54790000D02*
X138970000Y-54898000D01*
X136410000Y-54790000D02*
X138862000Y-54790000D01*
D38*
X109000000Y-123000000D02*
X116100000Y-123000000D01*
D37*
X117900000Y-57900000D02*
X115000000Y-55000000D01*
X117900000Y-61000000D02*
X117900000Y-57900000D01*
D39*
G36*
X128651000Y-138557000D02*
G01*
X121031000Y-138557000D01*
X121031000Y-121539000D01*
X128651000Y-121539000D01*
X128651000Y-138557000D01*
X128651000Y-138557000D01*
G37*
X128651000Y-138557000D02*
X121031000Y-138557000D01*
X121031000Y-121539000D01*
X128651000Y-121539000D01*
X128651000Y-138557000D01*
G36*
X124840982Y-122047000D02*
G01*
X121031093Y-122047000D01*
X121037101Y-113792092D01*
X121034679Y-113767314D01*
X121027469Y-113743485D01*
X121015749Y-113721519D01*
X120999969Y-113702263D01*
X120980735Y-113686455D01*
X120958787Y-113674703D01*
X120934968Y-113667458D01*
X120910101Y-113665000D01*
X114424078Y-113665000D01*
X114428697Y-109093000D01*
X124839193Y-109093000D01*
X124840982Y-122047000D01*
X124840982Y-122047000D01*
G37*
X124840982Y-122047000D02*
X121031093Y-122047000D01*
X121037101Y-113792092D01*
X121034679Y-113767314D01*
X121027469Y-113743485D01*
X121015749Y-113721519D01*
X120999969Y-113702263D01*
X120980735Y-113686455D01*
X120958787Y-113674703D01*
X120934968Y-113667458D01*
X120910101Y-113665000D01*
X114424078Y-113665000D01*
X114428697Y-109093000D01*
X124839193Y-109093000D01*
X124840982Y-122047000D01*
G36*
X142873000Y-138303000D02*
G01*
X133477000Y-138303000D01*
X133477000Y-121285000D01*
X142873000Y-121285000D01*
X142873000Y-138303000D01*
X142873000Y-138303000D01*
G37*
X142873000Y-138303000D02*
X133477000Y-138303000D01*
X133477000Y-121285000D01*
X142873000Y-121285000D01*
X142873000Y-138303000D01*
G36*
X147193000Y-98933000D02*
G01*
X130429000Y-98932999D01*
X130429000Y-91313000D01*
X137414000Y-91313000D01*
X137438776Y-91310560D01*
X137462601Y-91303333D01*
X137484557Y-91291597D01*
X137503803Y-91275803D01*
X137519597Y-91256557D01*
X137531333Y-91234601D01*
X137538560Y-91210776D01*
X137541000Y-91186000D01*
X137541000Y-86233000D01*
X147193000Y-86233000D01*
X147193000Y-98933000D01*
X147193000Y-98933000D01*
G37*
X147193000Y-98933000D02*
X130429000Y-98932999D01*
X130429000Y-91313000D01*
X137414000Y-91313000D01*
X137438776Y-91310560D01*
X137462601Y-91303333D01*
X137484557Y-91291597D01*
X137503803Y-91275803D01*
X137519597Y-91256557D01*
X137531333Y-91234601D01*
X137538560Y-91210776D01*
X137541000Y-91186000D01*
X137541000Y-86233000D01*
X147193000Y-86233000D01*
X147193000Y-98933000D01*
G36*
X147193000Y-113665000D02*
G01*
X137541000Y-113665000D01*
X137541000Y-108712000D01*
X137538560Y-108687224D01*
X137531333Y-108663399D01*
X137519597Y-108641443D01*
X137503803Y-108622197D01*
X137484557Y-108606403D01*
X137462601Y-108594667D01*
X137438776Y-108587440D01*
X137414000Y-108585000D01*
X130429000Y-108585000D01*
X130429000Y-100965000D01*
X147193000Y-100965000D01*
X147193000Y-113665000D01*
X147193000Y-113665000D01*
G37*
X147193000Y-113665000D02*
X137541000Y-113665000D01*
X137541000Y-108712000D01*
X137538560Y-108687224D01*
X137531333Y-108663399D01*
X137519597Y-108641443D01*
X137503803Y-108622197D01*
X137484557Y-108606403D01*
X137462601Y-108594667D01*
X137438776Y-108587440D01*
X137414000Y-108585000D01*
X130429000Y-108585000D01*
X130429000Y-100965000D01*
X147193000Y-100965000D01*
X147193000Y-113665000D01*
G36*
X134747000Y-115951000D02*
G01*
X132207000Y-115951000D01*
X132207000Y-110363000D01*
X134747000Y-110363000D01*
X134747000Y-115951000D01*
X134747000Y-115951000D01*
G37*
X134747000Y-115951000D02*
X132207000Y-115951000D01*
X132207000Y-110363000D01*
X134747000Y-110363000D01*
X134747000Y-115951000D01*
G36*
X134747000Y-89535000D02*
G01*
X132207000Y-89535000D01*
X132207000Y-83947000D01*
X134747000Y-83947000D01*
X134747000Y-89535000D01*
X134747000Y-89535000D01*
G37*
X134747000Y-89535000D02*
X132207000Y-89535000D01*
X132207000Y-83947000D01*
X134747000Y-83947000D01*
X134747000Y-89535000D01*
G36*
X134493000Y-120015000D02*
G01*
X130175000Y-120015000D01*
X130175000Y-117729000D01*
X134493000Y-117729000D01*
X134493000Y-120015000D01*
X134493000Y-120015000D01*
G37*
X134493000Y-120015000D02*
X130175000Y-120015000D01*
X130175000Y-117729000D01*
X134493000Y-117729000D01*
X134493000Y-120015000D01*
G36*
X134747000Y-82169000D02*
G01*
X126111000Y-82169000D01*
X126111000Y-79883000D01*
X134747000Y-79883000D01*
X134747000Y-82169000D01*
X134747000Y-82169000D01*
G37*
X134747000Y-82169000D02*
X126111000Y-82169000D01*
X126111000Y-79883000D01*
X134747000Y-79883000D01*
X134747000Y-82169000D01*
G36*
X134747000Y-120015000D02*
G01*
X128143000Y-120015000D01*
X128143000Y-117729000D01*
X134747000Y-117729000D01*
X134747000Y-120015000D01*
X134747000Y-120015000D01*
G37*
X134747000Y-120015000D02*
X128143000Y-120015000D01*
X128143000Y-117729000D01*
X134747000Y-117729000D01*
X134747000Y-120015000D01*
G36*
X126365000Y-65047388D02*
G01*
X126122756Y-64947047D01*
X125710279Y-64865000D01*
X125289721Y-64865000D01*
X124877244Y-64947047D01*
X124488698Y-65107988D01*
X124139017Y-65341637D01*
X123841637Y-65639017D01*
X123828285Y-65659000D01*
X106240624Y-65659000D01*
X106171999Y-65652241D01*
X105898140Y-65679214D01*
X105634805Y-65759096D01*
X105392113Y-65888817D01*
X105179392Y-66063392D01*
X105135645Y-66116698D01*
X103232704Y-68019641D01*
X103179393Y-68063392D01*
X103004818Y-68276113D01*
X102921075Y-68432786D01*
X102875097Y-68518805D01*
X102795214Y-68782141D01*
X102768241Y-69056000D01*
X102775001Y-69124635D01*
X102775000Y-98730347D01*
X102720815Y-98774815D01*
X102641463Y-98871506D01*
X102582498Y-98981820D01*
X102546188Y-99101518D01*
X102533928Y-99226000D01*
X102533928Y-100926000D01*
X102546188Y-101050482D01*
X102582498Y-101170180D01*
X102641463Y-101280494D01*
X102720815Y-101377185D01*
X102817506Y-101456537D01*
X102927820Y-101515502D01*
X103047518Y-101551812D01*
X103172000Y-101564072D01*
X105172000Y-101564072D01*
X105296482Y-101551812D01*
X105416180Y-101515502D01*
X105526494Y-101456537D01*
X105623185Y-101377185D01*
X105702537Y-101280494D01*
X105761502Y-101170180D01*
X105797812Y-101050482D01*
X105810072Y-100926000D01*
X105810072Y-99226000D01*
X106533928Y-99226000D01*
X106533928Y-100926000D01*
X106546188Y-101050482D01*
X106582498Y-101170180D01*
X106641463Y-101280494D01*
X106720815Y-101377185D01*
X106817506Y-101456537D01*
X106927820Y-101515502D01*
X107047518Y-101551812D01*
X107172000Y-101564072D01*
X108281000Y-101564072D01*
X108281000Y-105410000D01*
X108287290Y-105474145D01*
X108293133Y-105538356D01*
X108293812Y-105540662D01*
X108294046Y-105543051D01*
X108312666Y-105604723D01*
X108330879Y-105666606D01*
X108331992Y-105668736D01*
X108332686Y-105671033D01*
X108362916Y-105727886D01*
X108392816Y-105785081D01*
X108394323Y-105786955D01*
X108395449Y-105789073D01*
X108436157Y-105838986D01*
X108476586Y-105889269D01*
X108478427Y-105890813D01*
X108479944Y-105892674D01*
X108489928Y-105900934D01*
X108489928Y-106230000D01*
X108502188Y-106354482D01*
X108538498Y-106474180D01*
X108597463Y-106584494D01*
X108676815Y-106681185D01*
X108773506Y-106760537D01*
X108883820Y-106819502D01*
X109003518Y-106855812D01*
X109128000Y-106868072D01*
X110328000Y-106868072D01*
X110452482Y-106855812D01*
X110572180Y-106819502D01*
X110682494Y-106760537D01*
X110744000Y-106710060D01*
X110805506Y-106760537D01*
X110915820Y-106819502D01*
X111035518Y-106855812D01*
X111160000Y-106868072D01*
X112360000Y-106868072D01*
X112484482Y-106855812D01*
X112604180Y-106819502D01*
X112714494Y-106760537D01*
X112811185Y-106681185D01*
X112890537Y-106584494D01*
X112949502Y-106474180D01*
X112985812Y-106354482D01*
X112998072Y-106230000D01*
X112998072Y-106095000D01*
X113284000Y-106095000D01*
X113348145Y-106088710D01*
X113412356Y-106082867D01*
X113414662Y-106082188D01*
X113417051Y-106081954D01*
X113478723Y-106063334D01*
X113540606Y-106045121D01*
X113542736Y-106044008D01*
X113545033Y-106043314D01*
X113601886Y-106013084D01*
X113659081Y-105983184D01*
X113660955Y-105981677D01*
X113663073Y-105980551D01*
X113712986Y-105939843D01*
X113763269Y-105899414D01*
X113764813Y-105897573D01*
X113766674Y-105896056D01*
X113807766Y-105846384D01*
X113849203Y-105797002D01*
X113850360Y-105794898D01*
X113851891Y-105793047D01*
X113882541Y-105736361D01*
X113913608Y-105679850D01*
X113914335Y-105677558D01*
X113915476Y-105675448D01*
X113934524Y-105613916D01*
X113954031Y-105552420D01*
X113954299Y-105550032D01*
X113955009Y-105547738D01*
X113961746Y-105483634D01*
X113968933Y-105419564D01*
X113968965Y-105414950D01*
X113968983Y-105414782D01*
X113968968Y-105414614D01*
X113969000Y-105410000D01*
X113969000Y-94488000D01*
X113962710Y-94423855D01*
X113956867Y-94359644D01*
X113956188Y-94357338D01*
X113955954Y-94354949D01*
X113937334Y-94293277D01*
X113919121Y-94231394D01*
X113918008Y-94229264D01*
X113917314Y-94226967D01*
X113887084Y-94170114D01*
X113857184Y-94112919D01*
X113855677Y-94111045D01*
X113854551Y-94108927D01*
X113813843Y-94059014D01*
X113773414Y-94008731D01*
X113771573Y-94007187D01*
X113770056Y-94005326D01*
X113720384Y-93964234D01*
X113671002Y-93922797D01*
X113668898Y-93921640D01*
X113667047Y-93920109D01*
X113610361Y-93889459D01*
X113553850Y-93858392D01*
X113551558Y-93857665D01*
X113549448Y-93856524D01*
X113487916Y-93837476D01*
X113426420Y-93817969D01*
X113424032Y-93817701D01*
X113421738Y-93816991D01*
X113357634Y-93810254D01*
X113293564Y-93803067D01*
X113288950Y-93803035D01*
X113288782Y-93803017D01*
X113288614Y-93803032D01*
X113284000Y-93803000D01*
X108966000Y-93803000D01*
X108901855Y-93809290D01*
X108837644Y-93815133D01*
X108835338Y-93815812D01*
X108832949Y-93816046D01*
X108771277Y-93834666D01*
X108709394Y-93852879D01*
X108707264Y-93853992D01*
X108704967Y-93854686D01*
X108648114Y-93884916D01*
X108590919Y-93914816D01*
X108589045Y-93916323D01*
X108586927Y-93917449D01*
X108537014Y-93958157D01*
X108486731Y-93998586D01*
X108485187Y-94000427D01*
X108483326Y-94001944D01*
X108442234Y-94051616D01*
X108400797Y-94100998D01*
X108399640Y-94103102D01*
X108398109Y-94104953D01*
X108367459Y-94161639D01*
X108336392Y-94218150D01*
X108335665Y-94220442D01*
X108334524Y-94222552D01*
X108315476Y-94284084D01*
X108295969Y-94345580D01*
X108295701Y-94347968D01*
X108294991Y-94350262D01*
X108288254Y-94414366D01*
X108281067Y-94478436D01*
X108281035Y-94483050D01*
X108281017Y-94483218D01*
X108281032Y-94483386D01*
X108281000Y-94488000D01*
X108281000Y-98587928D01*
X107172000Y-98587928D01*
X107047518Y-98600188D01*
X106927820Y-98636498D01*
X106817506Y-98695463D01*
X106720815Y-98774815D01*
X106641463Y-98871506D01*
X106582498Y-98981820D01*
X106546188Y-99101518D01*
X106533928Y-99226000D01*
X105810072Y-99226000D01*
X105797812Y-99101518D01*
X105761502Y-98981820D01*
X105702537Y-98871506D01*
X105623185Y-98774815D01*
X105569000Y-98730347D01*
X105569000Y-69634655D01*
X106750657Y-68453000D01*
X123933654Y-68453000D01*
X124139017Y-68658363D01*
X124488698Y-68892012D01*
X124877244Y-69052953D01*
X125289721Y-69135000D01*
X125710279Y-69135000D01*
X126122756Y-69052953D01*
X126365000Y-68952612D01*
X126365000Y-70993000D01*
X108204000Y-70993000D01*
X108179224Y-70995440D01*
X108155399Y-71002667D01*
X108133443Y-71014403D01*
X108114197Y-71030197D01*
X108098403Y-71049443D01*
X108086667Y-71071399D01*
X108079440Y-71095224D01*
X108077000Y-71120000D01*
X108077000Y-93000000D01*
X108079440Y-93024776D01*
X108086667Y-93048601D01*
X108098403Y-93070557D01*
X108114197Y-93089803D01*
X108133443Y-93105597D01*
X108155399Y-93117333D01*
X108179224Y-93124560D01*
X108204000Y-93127000D01*
X114873000Y-93127000D01*
X114873000Y-107315000D01*
X112500000Y-107315000D01*
X112475224Y-107317440D01*
X112451399Y-107324667D01*
X112429443Y-107336403D01*
X112410197Y-107352197D01*
X112394403Y-107371443D01*
X112382667Y-107393399D01*
X112375440Y-107417224D01*
X112373000Y-107442000D01*
X112373000Y-109873000D01*
X100885000Y-109873000D01*
X100885000Y-63878055D01*
X126365000Y-63628251D01*
X126365000Y-65047388D01*
X126365000Y-65047388D01*
G37*
X126365000Y-65047388D02*
X126122756Y-64947047D01*
X125710279Y-64865000D01*
X125289721Y-64865000D01*
X124877244Y-64947047D01*
X124488698Y-65107988D01*
X124139017Y-65341637D01*
X123841637Y-65639017D01*
X123828285Y-65659000D01*
X106240624Y-65659000D01*
X106171999Y-65652241D01*
X105898140Y-65679214D01*
X105634805Y-65759096D01*
X105392113Y-65888817D01*
X105179392Y-66063392D01*
X105135645Y-66116698D01*
X103232704Y-68019641D01*
X103179393Y-68063392D01*
X103004818Y-68276113D01*
X102921075Y-68432786D01*
X102875097Y-68518805D01*
X102795214Y-68782141D01*
X102768241Y-69056000D01*
X102775001Y-69124635D01*
X102775000Y-98730347D01*
X102720815Y-98774815D01*
X102641463Y-98871506D01*
X102582498Y-98981820D01*
X102546188Y-99101518D01*
X102533928Y-99226000D01*
X102533928Y-100926000D01*
X102546188Y-101050482D01*
X102582498Y-101170180D01*
X102641463Y-101280494D01*
X102720815Y-101377185D01*
X102817506Y-101456537D01*
X102927820Y-101515502D01*
X103047518Y-101551812D01*
X103172000Y-101564072D01*
X105172000Y-101564072D01*
X105296482Y-101551812D01*
X105416180Y-101515502D01*
X105526494Y-101456537D01*
X105623185Y-101377185D01*
X105702537Y-101280494D01*
X105761502Y-101170180D01*
X105797812Y-101050482D01*
X105810072Y-100926000D01*
X105810072Y-99226000D01*
X106533928Y-99226000D01*
X106533928Y-100926000D01*
X106546188Y-101050482D01*
X106582498Y-101170180D01*
X106641463Y-101280494D01*
X106720815Y-101377185D01*
X106817506Y-101456537D01*
X106927820Y-101515502D01*
X107047518Y-101551812D01*
X107172000Y-101564072D01*
X108281000Y-101564072D01*
X108281000Y-105410000D01*
X108287290Y-105474145D01*
X108293133Y-105538356D01*
X108293812Y-105540662D01*
X108294046Y-105543051D01*
X108312666Y-105604723D01*
X108330879Y-105666606D01*
X108331992Y-105668736D01*
X108332686Y-105671033D01*
X108362916Y-105727886D01*
X108392816Y-105785081D01*
X108394323Y-105786955D01*
X108395449Y-105789073D01*
X108436157Y-105838986D01*
X108476586Y-105889269D01*
X108478427Y-105890813D01*
X108479944Y-105892674D01*
X108489928Y-105900934D01*
X108489928Y-106230000D01*
X108502188Y-106354482D01*
X108538498Y-106474180D01*
X108597463Y-106584494D01*
X108676815Y-106681185D01*
X108773506Y-106760537D01*
X108883820Y-106819502D01*
X109003518Y-106855812D01*
X109128000Y-106868072D01*
X110328000Y-106868072D01*
X110452482Y-106855812D01*
X110572180Y-106819502D01*
X110682494Y-106760537D01*
X110744000Y-106710060D01*
X110805506Y-106760537D01*
X110915820Y-106819502D01*
X111035518Y-106855812D01*
X111160000Y-106868072D01*
X112360000Y-106868072D01*
X112484482Y-106855812D01*
X112604180Y-106819502D01*
X112714494Y-106760537D01*
X112811185Y-106681185D01*
X112890537Y-106584494D01*
X112949502Y-106474180D01*
X112985812Y-106354482D01*
X112998072Y-106230000D01*
X112998072Y-106095000D01*
X113284000Y-106095000D01*
X113348145Y-106088710D01*
X113412356Y-106082867D01*
X113414662Y-106082188D01*
X113417051Y-106081954D01*
X113478723Y-106063334D01*
X113540606Y-106045121D01*
X113542736Y-106044008D01*
X113545033Y-106043314D01*
X113601886Y-106013084D01*
X113659081Y-105983184D01*
X113660955Y-105981677D01*
X113663073Y-105980551D01*
X113712986Y-105939843D01*
X113763269Y-105899414D01*
X113764813Y-105897573D01*
X113766674Y-105896056D01*
X113807766Y-105846384D01*
X113849203Y-105797002D01*
X113850360Y-105794898D01*
X113851891Y-105793047D01*
X113882541Y-105736361D01*
X113913608Y-105679850D01*
X113914335Y-105677558D01*
X113915476Y-105675448D01*
X113934524Y-105613916D01*
X113954031Y-105552420D01*
X113954299Y-105550032D01*
X113955009Y-105547738D01*
X113961746Y-105483634D01*
X113968933Y-105419564D01*
X113968965Y-105414950D01*
X113968983Y-105414782D01*
X113968968Y-105414614D01*
X113969000Y-105410000D01*
X113969000Y-94488000D01*
X113962710Y-94423855D01*
X113956867Y-94359644D01*
X113956188Y-94357338D01*
X113955954Y-94354949D01*
X113937334Y-94293277D01*
X113919121Y-94231394D01*
X113918008Y-94229264D01*
X113917314Y-94226967D01*
X113887084Y-94170114D01*
X113857184Y-94112919D01*
X113855677Y-94111045D01*
X113854551Y-94108927D01*
X113813843Y-94059014D01*
X113773414Y-94008731D01*
X113771573Y-94007187D01*
X113770056Y-94005326D01*
X113720384Y-93964234D01*
X113671002Y-93922797D01*
X113668898Y-93921640D01*
X113667047Y-93920109D01*
X113610361Y-93889459D01*
X113553850Y-93858392D01*
X113551558Y-93857665D01*
X113549448Y-93856524D01*
X113487916Y-93837476D01*
X113426420Y-93817969D01*
X113424032Y-93817701D01*
X113421738Y-93816991D01*
X113357634Y-93810254D01*
X113293564Y-93803067D01*
X113288950Y-93803035D01*
X113288782Y-93803017D01*
X113288614Y-93803032D01*
X113284000Y-93803000D01*
X108966000Y-93803000D01*
X108901855Y-93809290D01*
X108837644Y-93815133D01*
X108835338Y-93815812D01*
X108832949Y-93816046D01*
X108771277Y-93834666D01*
X108709394Y-93852879D01*
X108707264Y-93853992D01*
X108704967Y-93854686D01*
X108648114Y-93884916D01*
X108590919Y-93914816D01*
X108589045Y-93916323D01*
X108586927Y-93917449D01*
X108537014Y-93958157D01*
X108486731Y-93998586D01*
X108485187Y-94000427D01*
X108483326Y-94001944D01*
X108442234Y-94051616D01*
X108400797Y-94100998D01*
X108399640Y-94103102D01*
X108398109Y-94104953D01*
X108367459Y-94161639D01*
X108336392Y-94218150D01*
X108335665Y-94220442D01*
X108334524Y-94222552D01*
X108315476Y-94284084D01*
X108295969Y-94345580D01*
X108295701Y-94347968D01*
X108294991Y-94350262D01*
X108288254Y-94414366D01*
X108281067Y-94478436D01*
X108281035Y-94483050D01*
X108281017Y-94483218D01*
X108281032Y-94483386D01*
X108281000Y-94488000D01*
X108281000Y-98587928D01*
X107172000Y-98587928D01*
X107047518Y-98600188D01*
X106927820Y-98636498D01*
X106817506Y-98695463D01*
X106720815Y-98774815D01*
X106641463Y-98871506D01*
X106582498Y-98981820D01*
X106546188Y-99101518D01*
X106533928Y-99226000D01*
X105810072Y-99226000D01*
X105797812Y-99101518D01*
X105761502Y-98981820D01*
X105702537Y-98871506D01*
X105623185Y-98774815D01*
X105569000Y-98730347D01*
X105569000Y-69634655D01*
X106750657Y-68453000D01*
X123933654Y-68453000D01*
X124139017Y-68658363D01*
X124488698Y-68892012D01*
X124877244Y-69052953D01*
X125289721Y-69135000D01*
X125710279Y-69135000D01*
X126122756Y-69052953D01*
X126365000Y-68952612D01*
X126365000Y-70993000D01*
X108204000Y-70993000D01*
X108179224Y-70995440D01*
X108155399Y-71002667D01*
X108133443Y-71014403D01*
X108114197Y-71030197D01*
X108098403Y-71049443D01*
X108086667Y-71071399D01*
X108079440Y-71095224D01*
X108077000Y-71120000D01*
X108077000Y-93000000D01*
X108079440Y-93024776D01*
X108086667Y-93048601D01*
X108098403Y-93070557D01*
X108114197Y-93089803D01*
X108133443Y-93105597D01*
X108155399Y-93117333D01*
X108179224Y-93124560D01*
X108204000Y-93127000D01*
X114873000Y-93127000D01*
X114873000Y-107315000D01*
X112500000Y-107315000D01*
X112475224Y-107317440D01*
X112451399Y-107324667D01*
X112429443Y-107336403D01*
X112410197Y-107352197D01*
X112394403Y-107371443D01*
X112382667Y-107393399D01*
X112375440Y-107417224D01*
X112373000Y-107442000D01*
X112373000Y-109873000D01*
X100885000Y-109873000D01*
X100885000Y-63878055D01*
X126365000Y-63628251D01*
X126365000Y-65047388D01*
G36*
X142873000Y-121373000D02*
G01*
X137127000Y-121373000D01*
X137127000Y-116967000D01*
X142873000Y-116967000D01*
X142873000Y-121373000D01*
X142873000Y-121373000D01*
G37*
X142873000Y-121373000D02*
X137127000Y-121373000D01*
X137127000Y-116967000D01*
X142873000Y-116967000D01*
X142873000Y-121373000D01*
D40*
X132207000Y-59690000D03*
X148590000Y-70104000D03*
X148590000Y-68072000D03*
X148590000Y-66040000D03*
X148590000Y-61722000D03*
X148590000Y-64008000D03*
X147066000Y-70104000D03*
X147066000Y-68072000D03*
X147066000Y-66040000D03*
X147066000Y-61722000D03*
X147066000Y-64008000D03*
X145542000Y-61722000D03*
X145542000Y-70104000D03*
X145542000Y-68072000D03*
X145542000Y-66040000D03*
X145542000Y-64008000D03*
X144018000Y-61722000D03*
X144018000Y-70104000D03*
X144018000Y-68072000D03*
X144018000Y-66040000D03*
X144018000Y-64008000D03*
X142494000Y-61722000D03*
X142494000Y-70104000D03*
X142494000Y-66040000D03*
X132207000Y-58674000D03*
X138684000Y-58420000D03*
X139954000Y-67691000D03*
X137907971Y-63525945D03*
X142494000Y-64008000D03*
X142494000Y-68072000D03*
X131318000Y-55117970D03*
X131318000Y-57404000D03*
X130314000Y-54090000D03*
X130374750Y-52905184D03*
X125730000Y-61468000D03*
X129286000Y-63500000D03*
X137414000Y-62992000D03*
X140076963Y-53703902D03*
X122000000Y-69000000D03*
X128524000Y-118110000D03*
X129540000Y-118110000D03*
X128524000Y-119634000D03*
X129540000Y-118872000D03*
X129540000Y-119634000D03*
X128524000Y-118872000D03*
X127508000Y-81026000D03*
X126492000Y-81026000D03*
X127508000Y-81788000D03*
X126492000Y-81788000D03*
X127508000Y-80264000D03*
X126492000Y-80264000D03*
X111760000Y-109474000D03*
X132588000Y-118110000D03*
X131572000Y-118110000D03*
X130556000Y-118110000D03*
X130556000Y-80264000D03*
X129540000Y-80264000D03*
X128524000Y-80264000D03*
X130556000Y-81026000D03*
X129540000Y-81026000D03*
X128524000Y-81026000D03*
X129540000Y-81788000D03*
X128524000Y-81788000D03*
X130556000Y-81788000D03*
X132588000Y-119634000D03*
X131572000Y-119634000D03*
X130556000Y-119634000D03*
X131572000Y-118872000D03*
X132588000Y-118872000D03*
X130556000Y-118872000D03*
X121924000Y-88614000D03*
X123704000Y-90614000D03*
X123704000Y-88614000D03*
X121924000Y-90614000D03*
X121924000Y-86614000D03*
X123704000Y-86614000D03*
X141986000Y-123444000D03*
X141986000Y-125222000D03*
X141986000Y-132334000D03*
X141986000Y-134112000D03*
X141986000Y-128778000D03*
X141986000Y-127000000D03*
X141986000Y-135890000D03*
X141986000Y-130556000D03*
X141986000Y-137668000D03*
X139700000Y-123444000D03*
X139700000Y-125222000D03*
X139700000Y-132334000D03*
X139700000Y-134112000D03*
X139700000Y-128778000D03*
X139700000Y-127000000D03*
X139700000Y-135890000D03*
X139700000Y-130556000D03*
X139700000Y-137668000D03*
X114808000Y-86614000D03*
X109728000Y-109474000D03*
X116588000Y-86614000D03*
X118368000Y-86614000D03*
X120148000Y-86614000D03*
X114808000Y-88614000D03*
X116588000Y-88614000D03*
X118368000Y-88614000D03*
X120148000Y-88614000D03*
X114808000Y-90614000D03*
X116588000Y-90614000D03*
X118368000Y-90614000D03*
X120148000Y-90614000D03*
X137160000Y-123444000D03*
X137160000Y-125222000D03*
X137160000Y-127000000D03*
X137160000Y-128778000D03*
X137160000Y-130556000D03*
X137160000Y-132334000D03*
X137160000Y-134112000D03*
X137160000Y-135890000D03*
X137160000Y-137668000D03*
X123952000Y-69000000D03*
X120000000Y-69000000D03*
X117500000Y-69000000D03*
X115000000Y-69000000D03*
X112500000Y-69000000D03*
X110500000Y-69000000D03*
X108500000Y-69000000D03*
X106500000Y-69500000D03*
X106500000Y-72000000D03*
X106500000Y-74000000D03*
X106500000Y-76500000D03*
X106500000Y-79000000D03*
X106500000Y-82000000D03*
X106500000Y-84500000D03*
X106500000Y-88000000D03*
X106500000Y-91500000D03*
X106500000Y-94500000D03*
X106500000Y-97500000D03*
X124000000Y-65000000D03*
X122000000Y-65000000D03*
X120000000Y-65000000D03*
X117500000Y-65000000D03*
X115000000Y-65000000D03*
X112500000Y-65000000D03*
X110500000Y-65000000D03*
X108500000Y-65000000D03*
X106500000Y-65000000D03*
X104000000Y-66000000D03*
X102000000Y-69500000D03*
X102000000Y-72000000D03*
X102000000Y-74000000D03*
X102000000Y-76500000D03*
X102000000Y-79000000D03*
X102000000Y-82000000D03*
X102000000Y-84500000D03*
X102000000Y-88000000D03*
X102000000Y-91500000D03*
X102000000Y-94500000D03*
X102000000Y-97500000D03*
X102000000Y-67500000D03*
X101500000Y-100000000D03*
X101500000Y-103000000D03*
X103500000Y-103000000D03*
X105500000Y-103000000D03*
X107500000Y-103000000D03*
X107500000Y-105500000D03*
X107500000Y-108000000D03*
X107500000Y-109500000D03*
X108500000Y-93500000D03*
X110500000Y-93500000D03*
X112500000Y-93500000D03*
X114500000Y-93500000D03*
X114500000Y-95500000D03*
X114500000Y-97500000D03*
X114500000Y-100000000D03*
X114500000Y-102500000D03*
X114500000Y-105000000D03*
X113284000Y-106934000D03*
X107920000Y-130366000D03*
X109920000Y-130366000D03*
X111920000Y-128588000D03*
X109920000Y-128588000D03*
X105920000Y-126810000D03*
X107920000Y-128588000D03*
X101920000Y-130366000D03*
X111920000Y-130366000D03*
X101920000Y-126810000D03*
X103920000Y-126810000D03*
X109920000Y-126810000D03*
X101920000Y-128588000D03*
X103920000Y-128588000D03*
X107920000Y-126810000D03*
X105920000Y-130366000D03*
X103920000Y-130366000D03*
X111920000Y-126810000D03*
X105920000Y-128588000D03*
X103920000Y-117412000D03*
X105920000Y-117412000D03*
X109920000Y-117412000D03*
X111920000Y-117412000D03*
X101920000Y-117412000D03*
X107920000Y-117412000D03*
X103920000Y-119190000D03*
X105920000Y-119190000D03*
X109920000Y-119190000D03*
X111920000Y-119190000D03*
X101920000Y-119190000D03*
X107920000Y-119190000D03*
X111920000Y-115634000D03*
X109920000Y-115634000D03*
X107920000Y-115634000D03*
X105920000Y-115634000D03*
X103920000Y-115634000D03*
X101920000Y-115634000D03*
X107056810Y-53812500D03*
X107056810Y-56187500D03*
X105000000Y-57375000D03*
X102943190Y-56187500D03*
X102943190Y-53812500D03*
X105000000Y-52625000D03*
X105000000Y-55000000D03*
X107056810Y-143812500D03*
X107056810Y-146187500D03*
X105000000Y-147375000D03*
X102943190Y-146187500D03*
X102943190Y-143812500D03*
X105000000Y-142625000D03*
X105000000Y-145000000D03*
X147056810Y-143812500D03*
X147056810Y-146187500D03*
X145000000Y-147375000D03*
X142943190Y-146187500D03*
X142943190Y-143812500D03*
X145000000Y-142625000D03*
X145000000Y-145000000D03*
X147056810Y-53812500D03*
X147056810Y-56187500D03*
X145000000Y-57375000D03*
X142943190Y-56187500D03*
X142943190Y-53812500D03*
X145000000Y-52625000D03*
X145000000Y-55000000D03*
X142056810Y-118812500D03*
X142056810Y-121187500D03*
X140000000Y-122375000D03*
X137943190Y-121187500D03*
X137943190Y-118812500D03*
X140000000Y-117625000D03*
X140000000Y-120000000D03*
X142056810Y-78812500D03*
X142056810Y-81187500D03*
X140000000Y-82375000D03*
X137943190Y-81187500D03*
X137943190Y-78812500D03*
X140000000Y-77625000D03*
X140000000Y-80000000D03*
M02*
