M48
; DRILL file {KiCad (5.1.4)-1} date 2019/12/9 14:58:40
; FORMAT={-:-/ absolute / metric / decimal}
; #@! TF.CreationDate,2019-12-09T14:58:40+08:00
; #@! TF.GenerationSoftware,Kicad,Pcbnew,(5.1.4)-1
; #@! TF.FileFunction,Plated,1,2,PTH
FMAT,2
METRIC
T1C0.400
T2C0.500
T3C3.500
%
G90
G05
T1
X101.5Y-100.0
X101.5Y-103.0
X102.0Y-67.5
X102.0Y-69.5
X102.0Y-72.0
X102.0Y-74.0
X102.0Y-76.5
X102.0Y-79.0
X102.0Y-82.0
X102.0Y-84.5
X102.0Y-88.0
X102.0Y-91.5
X102.0Y-94.5
X102.0Y-97.5
X103.5Y-103.0
X104.0Y-66.0
X105.5Y-103.0
X106.5Y-65.0
X106.5Y-69.5
X106.5Y-72.0
X106.5Y-74.0
X106.5Y-76.5
X106.5Y-79.0
X106.5Y-82.0
X106.5Y-84.5
X106.5Y-88.0
X106.5Y-91.5
X106.5Y-94.5
X106.5Y-97.5
X107.5Y-103.0
X107.5Y-105.5
X107.5Y-108.0
X107.5Y-109.5
X108.5Y-65.0
X108.5Y-69.0
X108.5Y-93.5
X109.728Y-109.474
X110.5Y-65.0
X110.5Y-69.0
X110.5Y-93.5
X111.76Y-109.474
X112.5Y-65.0
X112.5Y-69.0
X112.5Y-93.5
X113.284Y-106.934
X114.5Y-93.5
X114.5Y-95.5
X114.5Y-97.5
X114.5Y-100.0
X114.5Y-102.5
X114.5Y-105.0
X114.808Y-86.614
X114.808Y-88.614
X114.808Y-90.614
X115.0Y-65.0
X115.0Y-69.0
X116.588Y-86.614
X116.588Y-88.614
X116.588Y-90.614
X117.5Y-65.0
X117.5Y-69.0
X118.368Y-86.614
X118.368Y-88.614
X118.368Y-90.614
X120.0Y-65.0
X120.0Y-69.0
X120.148Y-86.614
X120.148Y-88.614
X120.148Y-90.614
X121.924Y-86.614
X121.924Y-88.614
X121.924Y-90.614
X122.0Y-65.0
X122.0Y-69.0
X123.704Y-86.614
X123.704Y-88.614
X123.704Y-90.614
X123.952Y-69.0
X124.0Y-65.0
X126.492Y-80.264
X126.492Y-81.026
X126.492Y-81.788
X127.508Y-80.264
X127.508Y-81.026
X127.508Y-81.788
X128.524Y-80.264
X128.524Y-81.026
X128.524Y-81.788
X128.524Y-118.11
X128.524Y-118.872
X128.524Y-119.634
X129.54Y-80.264
X129.54Y-81.026
X129.54Y-81.788
X129.54Y-118.11
X129.54Y-118.872
X129.54Y-119.634
X130.314Y-54.09
X130.375Y-52.905
X130.556Y-80.264
X130.556Y-81.026
X130.556Y-81.788
X130.556Y-118.11
X130.556Y-118.872
X130.556Y-119.634
X131.318Y-55.118
X131.318Y-57.404
X131.572Y-118.11
X131.572Y-118.872
X131.572Y-119.634
X132.207Y-58.674
X132.207Y-59.69
X132.588Y-118.11
X132.588Y-118.872
X132.588Y-119.634
X137.16Y-123.444
X137.16Y-125.222
X137.16Y-127.0
X137.16Y-128.778
X137.16Y-130.556
X137.16Y-132.334
X137.16Y-134.112
X137.16Y-135.89
X137.16Y-137.668
X137.414Y-62.992
X137.908Y-63.526
X138.684Y-58.42
X139.7Y-123.444
X139.7Y-125.222
X139.7Y-127.0
X139.7Y-128.778
X139.7Y-130.556
X139.7Y-132.334
X139.7Y-134.112
X139.7Y-135.89
X139.7Y-137.668
X139.954Y-67.691
X140.077Y-53.704
X141.986Y-123.444
X141.986Y-125.222
X141.986Y-127.0
X141.986Y-128.778
X141.986Y-130.556
X141.986Y-132.334
X141.986Y-134.112
X141.986Y-135.89
X141.986Y-137.668
X142.494Y-61.722
X142.494Y-64.008
X142.494Y-66.04
X142.494Y-68.072
X142.494Y-70.104
X144.018Y-61.722
X144.018Y-64.008
X144.018Y-66.04
X144.018Y-68.072
X144.018Y-70.104
X145.542Y-61.722
X145.542Y-64.008
X145.542Y-66.04
X145.542Y-68.072
X145.542Y-70.104
X147.066Y-61.722
X147.066Y-64.008
X147.066Y-66.04
X147.066Y-68.072
X147.066Y-70.104
X148.59Y-61.722
X148.59Y-64.008
X148.59Y-66.04
X148.59Y-68.072
X148.59Y-70.104
X102.943Y-143.812
X102.943Y-146.188
X105.0Y-142.625
X105.0Y-147.375
X107.057Y-143.812
X107.057Y-146.188
X137.943Y-118.812
X137.943Y-121.188
X140.0Y-117.625
X140.0Y-122.375
X142.057Y-118.812
X142.057Y-121.188
X142.943Y-53.812
X142.943Y-56.188
X145.0Y-52.625
X145.0Y-57.375
X147.057Y-53.812
X147.057Y-56.188
X137.943Y-78.812
X137.943Y-81.188
X140.0Y-77.625
X140.0Y-82.375
X142.057Y-78.812
X142.057Y-81.188
X101.92Y-115.634
X101.92Y-117.412
X101.92Y-119.19
X101.92Y-126.81
X101.92Y-128.588
X101.92Y-130.366
X103.92Y-115.634
X103.92Y-117.412
X103.92Y-119.19
X103.92Y-126.81
X103.92Y-128.588
X103.92Y-130.366
X105.92Y-115.634
X105.92Y-117.412
X105.92Y-119.19
X105.92Y-126.81
X105.92Y-128.588
X105.92Y-130.366
X107.92Y-115.634
X107.92Y-117.412
X107.92Y-119.19
X107.92Y-126.81
X107.92Y-128.588
X107.92Y-130.366
X109.92Y-115.634
X109.92Y-117.412
X109.92Y-119.19
X109.92Y-126.81
X109.92Y-128.588
X109.92Y-130.366
X111.92Y-115.634
X111.92Y-117.412
X111.92Y-119.19
X111.92Y-126.81
X111.92Y-128.588
X111.92Y-130.366
X102.943Y-53.812
X102.943Y-56.188
X105.0Y-52.625
X105.0Y-57.375
X107.057Y-53.812
X107.057Y-56.188
X142.943Y-143.812
X142.943Y-146.188
X145.0Y-142.625
X145.0Y-147.375
X147.057Y-143.812
X147.057Y-146.188
T2
X125.73Y-61.468
X129.286Y-63.5
T3
X105.0Y-55.0
X145.0Y-145.0
X105.0Y-145.0
X140.0Y-120.0
X145.0Y-55.0
X140.0Y-80.0
T0
M30
