%TF.GenerationSoftware,KiCad,Pcbnew,(5.1.4)-1*%
%TF.CreationDate,2019-12-09T14:58:40+08:00*%
%TF.ProjectId,RF_input,52465f69-6e70-4757-942e-6b696361645f,rev?*%
%TF.SameCoordinates,Original*%
%TF.FileFunction,Paste,Top*%
%TF.FilePolarity,Positive*%
%FSLAX46Y46*%
G04 Gerber Fmt 4.6, Leading zero omitted, Abs format (unit mm)*
G04 Created by KiCad (PCBNEW (5.1.4)-1) date 2019-12-09 14:58:40*
%MOMM*%
%LPD*%
G04 APERTURE LIST*
%ADD10O,4.500000X1.100000*%
%ADD11R,5.500000X12.800000*%
%ADD12R,1.500000X1.300000*%
%ADD13R,1.200000X1.200000*%
%ADD14R,2.000000X1.700000*%
%ADD15R,2.000000X2.000000*%
%ADD16R,1.600000X2.000000*%
%ADD17R,2.700000X3.200000*%
%ADD18R,1.250000X0.700000*%
%ADD19O,0.700000X1.800000*%
%ADD20R,3.200000X2.700000*%
%ADD21R,3.500000X3.500000*%
G04 APERTURE END LIST*
D10*
X146558000Y-78486000D03*
X146558000Y-74676000D03*
X146558000Y-76581000D03*
D11*
X147066000Y-107366000D03*
X147066000Y-92634000D03*
D12*
X125650000Y-59690000D03*
X128350000Y-59690000D03*
D13*
X111760000Y-107730000D03*
X111760000Y-105630000D03*
D14*
X108172000Y-100076000D03*
X104172000Y-100076000D03*
D15*
X122100000Y-61468000D03*
X117900000Y-61468000D03*
D16*
X133858000Y-119094000D03*
X133858000Y-115094000D03*
X133858000Y-80804000D03*
X133858000Y-84804000D03*
D13*
X109728000Y-105630000D03*
X109728000Y-107730000D03*
X129284000Y-67000000D03*
X131384000Y-67000000D03*
D17*
X133550000Y-88000000D03*
X141450000Y-88000000D03*
D18*
X130314000Y-55372000D03*
X127814000Y-56322000D03*
X127814000Y-54422000D03*
D19*
X137065000Y-64830000D03*
X135795000Y-64830000D03*
X134525000Y-64830000D03*
X133255000Y-64830000D03*
X133255000Y-59630000D03*
X134525000Y-59630000D03*
X135795000Y-59630000D03*
X137065000Y-59630000D03*
D17*
X133550000Y-112000000D03*
X141450000Y-112000000D03*
D20*
X139000000Y-103950000D03*
X139000000Y-96050000D03*
X134500000Y-103950000D03*
X134500000Y-96050000D03*
D17*
X134950000Y-136398000D03*
X127050000Y-136398000D03*
X134950000Y-132000000D03*
X127050000Y-132000000D03*
X134950000Y-127508000D03*
X127050000Y-127508000D03*
X134950000Y-123000000D03*
X127050000Y-123000000D03*
D21*
X122900000Y-123000000D03*
X116100000Y-123000000D03*
D13*
X135512000Y-69088000D03*
X133412000Y-69088000D03*
X139192000Y-62010000D03*
X139192000Y-59910000D03*
X135512000Y-73406000D03*
X133412000Y-73406000D03*
X135512000Y-71120000D03*
X133412000Y-71120000D03*
X139830000Y-71120000D03*
X137730000Y-71120000D03*
X131826000Y-78198000D03*
X131826000Y-80298000D03*
X136523000Y-57404000D03*
X138623000Y-57404000D03*
X138970000Y-54898000D03*
X138970000Y-52798000D03*
X129030000Y-52070000D03*
X131130000Y-52070000D03*
X124966000Y-52070000D03*
X127066000Y-52070000D03*
X125000000Y-55084000D03*
X125000000Y-57184000D03*
X131384000Y-64770000D03*
X129284000Y-64770000D03*
X137764000Y-69088000D03*
X139864000Y-69088000D03*
X139224000Y-66074000D03*
X139224000Y-63974000D03*
X134559000Y-57404000D03*
X132459000Y-57404000D03*
M02*
