M48
; DRILL file {KiCad (5.1.4)-1} date 2019/12/13 1:47:12
; FORMAT={-:-/ absolute / metric / decimal}
; #@! TF.CreationDate,2019-12-13T01:47:12+08:00
; #@! TF.GenerationSoftware,Kicad,Pcbnew,(5.1.4)-1
; #@! TF.FileFunction,Plated,1,2,PTH
FMAT,2
METRIC
T1C0.400
T2C1.000
T3C3.500
%
G90
G05
T1
X51.562Y-79.121
X51.562Y-82.169
X51.562Y-85.217
X51.562Y-88.773
X51.562Y-92.837
X51.562Y-95.377
X51.562Y-98.425
X51.562Y-101.473
X51.562Y-105.029
X51.562Y-109.093
X51.562Y-115.697
X55.626Y-94.869
X57.531Y-86.106
X57.531Y-86.995
X58.166Y-116.205
X60.321Y-104.267
X60.706Y-106.045
X60.758Y-71.755
X60.758Y-73.787
X60.758Y-75.819
X61.214Y-116.205
X61.722Y-99.695
X62.23Y-81.661
X62.23Y-84.201
X62.23Y-87.249
X62.23Y-89.789
X62.738Y-54.483
X62.738Y-66.167
X62.738Y-102.489
X63.55Y-100.15
X63.754Y-71.755
X63.754Y-73.787
X63.754Y-75.819
X63.754Y-80.645
X63.754Y-91.313
X64.262Y-116.205
X64.35Y-100.15
X65.532Y-97.663
X65.786Y-54.483
X65.786Y-66.167
X65.786Y-80.645
X65.786Y-91.313
X66.802Y-71.755
X66.802Y-73.787
X66.802Y-102.235
X66.95Y-98.05
X67.31Y-116.205
X67.75Y-98.05
X67.818Y-80.645
X67.818Y-91.313
X69.342Y-54.483
X69.342Y-66.167
X69.85Y-80.645
X69.85Y-91.313
X70.358Y-71.755
X70.358Y-73.787
X70.358Y-75.819
X70.358Y-110.871
X70.358Y-116.205
X71.374Y-80.645
X71.628Y-104.267
X71.882Y-54.483
X71.882Y-66.167
X71.882Y-82.677
X71.882Y-85.217
X71.882Y-87.757
X71.882Y-89.789
X72.644Y-51.435
X73.66Y-99.441
X73.66Y-100.203
X73.66Y-100.965
X73.914Y-69.215
X74.422Y-71.755
X74.422Y-73.787
X74.422Y-75.819
X76.454Y-106.045
X76.962Y-69.215
X77.216Y-51.435
X77.724Y-106.045
X78.486Y-71.755
X78.486Y-73.787
X78.486Y-75.819
X78.486Y-111.125
X78.74Y-106.045
X79.248Y-111.125
X80.518Y-69.215
X82.296Y-51.435
X82.55Y-71.755
X82.55Y-73.787
X82.55Y-75.819
X84.582Y-69.215
X86.36Y-51.435
X86.614Y-71.755
X86.614Y-73.787
X86.614Y-75.819
X86.614Y-102.235
X86.868Y-106.553
X88.138Y-54.483
X88.138Y-82.169
X88.138Y-85.471
X88.138Y-88.519
X88.138Y-91.313
X88.646Y-66.167
X88.646Y-68.707
X89.217Y-100.244
X89.285Y-104.267
X90.081Y-106.464
X90.424Y-80.899
X90.678Y-91.313
X90.678Y-116.205
X91.185Y-103.567
X91.186Y-71.755
X91.186Y-73.787
X91.186Y-75.819
X91.44Y-107.315
X91.694Y-54.483
X91.694Y-66.167
X92.202Y-96.901
X93.218Y-91.313
X93.472Y-80.899
X93.726Y-116.205
X93.769Y-98.145
X94.742Y-54.483
X94.742Y-66.167
X94.935Y-104.51
X95.377Y-102.259
X95.504Y-91.313
X95.575Y-105.503
X95.758Y-71.755
X95.758Y-73.787
X95.758Y-75.819
X96.266Y-93.345
X96.52Y-80.645
X96.774Y-116.205
X97.028Y-100.965
X97.282Y-89.789
X97.536Y-82.677
X97.536Y-84.963
X97.536Y-86.995
X98.806Y-86.995
X98.806Y-97.282
X99.614Y-71.755
X99.614Y-73.787
X99.614Y-75.819
X99.822Y-116.205
X100.838Y-108.585
X101.854Y-106.045
X102.804Y-104.48
X102.87Y-97.282
X102.87Y-116.205
X103.886Y-83.947
X103.886Y-84.709
X104.002Y-102.234
X104.394Y-96.647
X106.934Y-116.205
X108.458Y-79.121
X108.458Y-82.169
X108.458Y-85.217
X108.458Y-88.773
X108.458Y-92.837
X108.458Y-95.377
X108.458Y-98.425
X108.458Y-101.473
X108.458Y-105.029
X108.458Y-109.093
X108.458Y-113.157
X52.943Y-111.312
X52.943Y-113.688
X55.0Y-110.125
X55.0Y-114.875
X57.057Y-111.312
X57.057Y-113.688
X52.943Y-73.812
X52.943Y-76.188
X55.0Y-72.625
X55.0Y-77.375
X57.057Y-73.812
X57.057Y-76.188
X102.943Y-73.812
X102.943Y-76.188
X105.0Y-72.625
X105.0Y-77.375
X107.057Y-73.812
X107.057Y-76.188
X51.013Y-52.779
X51.013Y-54.557
X51.013Y-56.335
X51.013Y-63.955
X51.013Y-65.733
X51.013Y-67.511
X53.013Y-52.779
X53.013Y-54.557
X53.013Y-56.335
X53.013Y-63.955
X53.013Y-65.733
X53.013Y-67.511
X55.013Y-52.779
X55.013Y-54.557
X55.013Y-56.335
X55.013Y-63.955
X55.013Y-65.733
X55.013Y-67.511
X57.013Y-52.779
X57.013Y-54.557
X57.013Y-56.335
X57.013Y-63.955
X57.013Y-65.733
X57.013Y-67.511
X59.013Y-52.779
X59.013Y-54.557
X59.013Y-56.335
X59.013Y-63.955
X59.013Y-65.733
X59.013Y-67.511
X61.013Y-52.779
X61.013Y-54.557
X61.013Y-56.335
X61.013Y-63.955
X61.013Y-65.733
X61.013Y-67.511
X98.353Y-52.779
X98.353Y-54.557
X98.353Y-56.335
X98.353Y-63.955
X98.353Y-65.733
X98.353Y-67.511
X100.353Y-52.779
X100.353Y-54.557
X100.353Y-56.335
X100.353Y-63.955
X100.353Y-65.733
X100.353Y-67.511
X102.353Y-52.779
X102.353Y-54.557
X102.353Y-56.335
X102.353Y-63.955
X102.353Y-65.733
X102.353Y-67.511
X104.353Y-52.779
X104.353Y-54.557
X104.353Y-56.335
X104.353Y-63.955
X104.353Y-65.733
X104.353Y-67.511
X106.353Y-52.779
X106.353Y-54.557
X106.353Y-56.335
X106.353Y-63.955
X106.353Y-65.733
X106.353Y-67.511
X108.353Y-52.779
X108.353Y-54.557
X108.353Y-56.335
X108.353Y-63.955
X108.353Y-65.733
X108.353Y-67.511
X102.701Y-110.999
X102.701Y-113.374
X104.758Y-109.812
X104.758Y-114.562
X106.815Y-110.999
X106.815Y-113.374
T2
X73.86Y-114.427
X76.36Y-114.427
X78.86Y-114.427
X81.36Y-114.427
X83.86Y-114.427
X86.36Y-114.427
T3
X104.758Y-112.187
X55.0Y-112.5
X55.0Y-75.0
X105.0Y-75.0
T0
M30
