%TF.GenerationSoftware,KiCad,Pcbnew,(5.1.4)-1*%
%TF.CreationDate,2019-12-13T01:47:11+08:00*%
%TF.ProjectId,Directional_coupler,44697265-6374-4696-9f6e-616c5f636f75,rev?*%
%TF.SameCoordinates,Original*%
%TF.FileFunction,Copper,L2,Bot*%
%TF.FilePolarity,Positive*%
%FSLAX46Y46*%
G04 Gerber Fmt 4.6, Leading zero omitted, Abs format (unit mm)*
G04 Created by KiCad (PCBNEW (5.1.4)-1) date 2019-12-13 01:47:11*
%MOMM*%
%LPD*%
G04 APERTURE LIST*
%ADD10C,0.800000*%
%ADD11C,6.000000*%
%ADD12C,1.750000*%
%ADD13R,1.750000X1.750000*%
%ADD14C,0.381000*%
%ADD15C,0.508000*%
%ADD16C,0.254000*%
%ADD17C,0.350000*%
G04 APERTURE END LIST*
D10*
X57056810Y-73812500D03*
X57056810Y-76187500D03*
X55000000Y-77375000D03*
X52943190Y-76187500D03*
X52943190Y-73812500D03*
X55000000Y-72625000D03*
D11*
X55000000Y-75000000D03*
D10*
X57056810Y-111312500D03*
X57056810Y-113687500D03*
X55000000Y-114875000D03*
X52943190Y-113687500D03*
X52943190Y-111312500D03*
X55000000Y-110125000D03*
D11*
X55000000Y-112500000D03*
D10*
X106814810Y-110999500D03*
X106814810Y-113374500D03*
X104758000Y-114562000D03*
X102701190Y-113374500D03*
X102701190Y-110999500D03*
X104758000Y-109812000D03*
D11*
X104758000Y-112187000D03*
D10*
X107056810Y-73812500D03*
X107056810Y-76187500D03*
X105000000Y-77375000D03*
X102943190Y-76187500D03*
X102943190Y-73812500D03*
X105000000Y-72625000D03*
D11*
X105000000Y-75000000D03*
D12*
X73860000Y-114427000D03*
X76360000Y-114427000D03*
X78860000Y-114427000D03*
X81360000Y-114427000D03*
X83860000Y-114427000D03*
D13*
X86360000Y-114427000D03*
D10*
X102353000Y-52779000D03*
X100353000Y-52779000D03*
X98353000Y-54557000D03*
X100353000Y-54557000D03*
X104353000Y-56335000D03*
X102353000Y-54557000D03*
X108353000Y-52779000D03*
X98353000Y-52779000D03*
X108353000Y-56335000D03*
X106353000Y-56335000D03*
X100353000Y-56335000D03*
X108353000Y-54557000D03*
X106353000Y-54557000D03*
X102353000Y-56335000D03*
X104353000Y-52779000D03*
X106353000Y-52779000D03*
X98353000Y-56335000D03*
X104353000Y-54557000D03*
X106353000Y-65733000D03*
X104353000Y-65733000D03*
X100353000Y-65733000D03*
X98353000Y-65733000D03*
X108353000Y-65733000D03*
X102353000Y-65733000D03*
X106353000Y-63955000D03*
X104353000Y-63955000D03*
X100353000Y-63955000D03*
X98353000Y-63955000D03*
X108353000Y-63955000D03*
X102353000Y-63955000D03*
X98353000Y-67511000D03*
X100353000Y-67511000D03*
X102353000Y-67511000D03*
X104353000Y-67511000D03*
X106353000Y-67511000D03*
X108353000Y-67511000D03*
X57013000Y-67511000D03*
X59013000Y-67511000D03*
X61013000Y-65733000D03*
X59013000Y-65733000D03*
X55013000Y-63955000D03*
X57013000Y-65733000D03*
X51013000Y-67511000D03*
X61013000Y-67511000D03*
X51013000Y-63955000D03*
X53013000Y-63955000D03*
X59013000Y-63955000D03*
X51013000Y-65733000D03*
X53013000Y-65733000D03*
X57013000Y-63955000D03*
X55013000Y-67511000D03*
X53013000Y-67511000D03*
X61013000Y-63955000D03*
X55013000Y-65733000D03*
X53013000Y-54557000D03*
X55013000Y-54557000D03*
X59013000Y-54557000D03*
X61013000Y-54557000D03*
X51013000Y-54557000D03*
X57013000Y-54557000D03*
X53013000Y-56335000D03*
X55013000Y-56335000D03*
X59013000Y-56335000D03*
X61013000Y-56335000D03*
X51013000Y-56335000D03*
X57013000Y-56335000D03*
X61013000Y-52779000D03*
X59013000Y-52779000D03*
X57013000Y-52779000D03*
X55013000Y-52779000D03*
X53013000Y-52779000D03*
X51013000Y-52779000D03*
X108458000Y-98425000D03*
X108458000Y-82169000D03*
X108458000Y-101473000D03*
X108458000Y-105029000D03*
X108458000Y-85217000D03*
X108458000Y-95377000D03*
X108458000Y-79121000D03*
X108458000Y-92837000D03*
X108458000Y-88773000D03*
X108458000Y-109093000D03*
X102870000Y-116205000D03*
X96774000Y-116205000D03*
X93726000Y-116205000D03*
X90678000Y-116205000D03*
X99822000Y-116205000D03*
X61214000Y-116205000D03*
X64262000Y-116205000D03*
X58166000Y-116205000D03*
X70358000Y-116205000D03*
X67310000Y-116205000D03*
X51562000Y-98425000D03*
X51562000Y-101473000D03*
X51562000Y-95377000D03*
X51562000Y-109093000D03*
X51562000Y-105029000D03*
X60758000Y-75819000D03*
X60758000Y-71755000D03*
X60758000Y-73787000D03*
X99614000Y-73787000D03*
X99614000Y-75819000D03*
X99614000Y-71755000D03*
X73660000Y-99441000D03*
X57531000Y-86106000D03*
X57531000Y-86995000D03*
X103886000Y-84709000D03*
X103886000Y-83947000D03*
X55626000Y-94869000D03*
X65532000Y-97663000D03*
X66802000Y-102235000D03*
X71628000Y-104267000D03*
X76454000Y-106045000D03*
X77724000Y-106045000D03*
X78740000Y-106045000D03*
X73660000Y-100965000D03*
X73660000Y-100203000D03*
X101854000Y-106045000D03*
X104394000Y-96647000D03*
X96266000Y-93345000D03*
X98806000Y-86995000D03*
X97028000Y-100965000D03*
X70358000Y-110871000D03*
X63754000Y-71755000D03*
X66802000Y-71755000D03*
X70358000Y-71755000D03*
X74422000Y-71755000D03*
X78486000Y-71755000D03*
X82550000Y-71755000D03*
X86614000Y-71755000D03*
X91186000Y-71755000D03*
X95758000Y-71755000D03*
X95758000Y-73787000D03*
X91186000Y-73787000D03*
X86614000Y-73787000D03*
X82550000Y-73787000D03*
X78486000Y-73787000D03*
X74422000Y-73787000D03*
X70358000Y-73787000D03*
X66802000Y-73787000D03*
X63754000Y-73787000D03*
X63754000Y-75819000D03*
X70358000Y-75819000D03*
X74422000Y-75819000D03*
X78486000Y-75819000D03*
X82550000Y-75819000D03*
X86614000Y-75819000D03*
X91186000Y-75819000D03*
X95758000Y-75819000D03*
X62738000Y-54483000D03*
X65786000Y-54483000D03*
X69342000Y-54483000D03*
X71882000Y-54483000D03*
X72644000Y-51435000D03*
X77216000Y-51435000D03*
X82296000Y-51435000D03*
X86360000Y-51435000D03*
X88138000Y-54483000D03*
X91694000Y-54483000D03*
X94742000Y-54483000D03*
X62738000Y-66167000D03*
X65786000Y-66167000D03*
X69342000Y-66167000D03*
X71882000Y-66167000D03*
X73914000Y-69215000D03*
X76962000Y-69215000D03*
X80518000Y-69215000D03*
X84582000Y-69215000D03*
X88646000Y-68707000D03*
X88646000Y-66167000D03*
X91694000Y-66167000D03*
X94742000Y-66167000D03*
X104002113Y-102234023D03*
X102803705Y-104479840D03*
X100838000Y-108585000D03*
X60706000Y-106045000D03*
X61722000Y-99695000D03*
X94935283Y-104510009D03*
X89216717Y-100244207D03*
X51562000Y-79121000D03*
X51562000Y-82169000D03*
X51562000Y-85217000D03*
X51562000Y-88773000D03*
X51562000Y-92837000D03*
X106934000Y-116205000D03*
X108458000Y-113157000D03*
X51562000Y-115697000D03*
X62230000Y-87249000D03*
X62230000Y-89789000D03*
X63754000Y-91313000D03*
X65786000Y-91313000D03*
X67818000Y-91313000D03*
X69850000Y-91313000D03*
X71882000Y-89789000D03*
X71882000Y-87757000D03*
X71882000Y-85217000D03*
X71882000Y-82677000D03*
X71374000Y-80645000D03*
X69850000Y-80645000D03*
X67818000Y-80645000D03*
X65786000Y-80645000D03*
X63754000Y-80645000D03*
X62230000Y-81661000D03*
X62230000Y-84201000D03*
X95504000Y-91313000D03*
X93218000Y-91313000D03*
X90678000Y-91313000D03*
X88138000Y-91313000D03*
X88138000Y-88519000D03*
X88138000Y-85471000D03*
X88138000Y-82169000D03*
X90424000Y-80899000D03*
X93472000Y-80899000D03*
X96520000Y-80645000D03*
X97536000Y-82677000D03*
X97536000Y-84963000D03*
X97536000Y-86995000D03*
X97282000Y-89789000D03*
X78486000Y-111125000D03*
X79248000Y-111125000D03*
X60320998Y-104267000D03*
X62738000Y-102489000D03*
X64350000Y-100150000D03*
X66950000Y-98050000D03*
X63550000Y-100150000D03*
X67750000Y-98050000D03*
X98806000Y-97282000D03*
X102870000Y-97282000D03*
X95377000Y-102259078D03*
X89285002Y-104267000D03*
X95575219Y-105502617D03*
X90080995Y-106464011D03*
X93769246Y-98145500D03*
X92202000Y-96901000D03*
X91440000Y-107315000D03*
X91184585Y-103567206D03*
X86868000Y-106553000D03*
X86614000Y-102235000D03*
D14*
X77162000Y-111125000D02*
X73860000Y-114427000D01*
X78486000Y-111125000D02*
X77162000Y-111125000D01*
X78486000Y-111125000D02*
X79248000Y-111125000D01*
X60320998Y-104267000D02*
X60960000Y-104267000D01*
X60960000Y-104267000D02*
X62738000Y-102489000D01*
D15*
X64350000Y-100150000D02*
X64850000Y-100150000D01*
X64850000Y-100150000D02*
X66950000Y-98050000D01*
D14*
X63550000Y-100150000D02*
X64350000Y-100150000D01*
X98806000Y-97282000D02*
X102870000Y-97282000D01*
X95975218Y-105102618D02*
X95575219Y-105502617D01*
X95377000Y-102259078D02*
X95975218Y-102857296D01*
X95975218Y-102857296D02*
X95975218Y-105102618D01*
X89285002Y-104267000D02*
X90080995Y-105062993D01*
X90080995Y-105062993D02*
X90080995Y-105898326D01*
X90080995Y-105898326D02*
X90080995Y-106464011D01*
X93446500Y-98145500D02*
X93769246Y-98145500D01*
X92202000Y-96901000D02*
X93446500Y-98145500D01*
X91440000Y-103822621D02*
X91184585Y-103567206D01*
X91440000Y-107315000D02*
X91440000Y-103822621D01*
X86868000Y-106553000D02*
X86868000Y-102489000D01*
X86868000Y-102489000D02*
X86614000Y-102235000D01*
D16*
G36*
X109215000Y-116715000D02*
G01*
X50785000Y-116715000D01*
X50785000Y-114278278D01*
X72350000Y-114278278D01*
X72350000Y-114575722D01*
X72408029Y-114867451D01*
X72521856Y-115142253D01*
X72687107Y-115389569D01*
X72897431Y-115599893D01*
X73144747Y-115765144D01*
X73419549Y-115878971D01*
X73711278Y-115937000D01*
X74008722Y-115937000D01*
X74300451Y-115878971D01*
X74575253Y-115765144D01*
X74822569Y-115599893D01*
X75032893Y-115389569D01*
X75110000Y-115274170D01*
X75187107Y-115389569D01*
X75397431Y-115599893D01*
X75644747Y-115765144D01*
X75919549Y-115878971D01*
X76211278Y-115937000D01*
X76508722Y-115937000D01*
X76800451Y-115878971D01*
X77075253Y-115765144D01*
X77322569Y-115599893D01*
X77532893Y-115389569D01*
X77610000Y-115274170D01*
X77687107Y-115389569D01*
X77897431Y-115599893D01*
X78144747Y-115765144D01*
X78419549Y-115878971D01*
X78711278Y-115937000D01*
X79008722Y-115937000D01*
X79300451Y-115878971D01*
X79575253Y-115765144D01*
X79822569Y-115599893D01*
X80032893Y-115389569D01*
X80110000Y-115274170D01*
X80187107Y-115389569D01*
X80397431Y-115599893D01*
X80644747Y-115765144D01*
X80919549Y-115878971D01*
X81211278Y-115937000D01*
X81508722Y-115937000D01*
X81800451Y-115878971D01*
X82075253Y-115765144D01*
X82322569Y-115599893D01*
X82532893Y-115389569D01*
X82610000Y-115274170D01*
X82687107Y-115389569D01*
X82897431Y-115599893D01*
X83144747Y-115765144D01*
X83419549Y-115878971D01*
X83711278Y-115937000D01*
X84008722Y-115937000D01*
X84300451Y-115878971D01*
X84575253Y-115765144D01*
X84822569Y-115599893D01*
X85032893Y-115389569D01*
X85198144Y-115142253D01*
X85311971Y-114867451D01*
X85370000Y-114575722D01*
X85370000Y-114278278D01*
X85311971Y-113986549D01*
X85198144Y-113711747D01*
X85032893Y-113464431D01*
X84822569Y-113254107D01*
X84575253Y-113088856D01*
X84300451Y-112975029D01*
X84008722Y-112917000D01*
X83711278Y-112917000D01*
X83419549Y-112975029D01*
X83144747Y-113088856D01*
X82897431Y-113254107D01*
X82687107Y-113464431D01*
X82610000Y-113579830D01*
X82532893Y-113464431D01*
X82322569Y-113254107D01*
X82075253Y-113088856D01*
X81800451Y-112975029D01*
X81508722Y-112917000D01*
X81211278Y-112917000D01*
X80919549Y-112975029D01*
X80644747Y-113088856D01*
X80397431Y-113254107D01*
X80187107Y-113464431D01*
X80110000Y-113579830D01*
X80032893Y-113464431D01*
X79822569Y-113254107D01*
X79575253Y-113088856D01*
X79300451Y-112975029D01*
X79008722Y-112917000D01*
X78711278Y-112917000D01*
X78419549Y-112975029D01*
X78144747Y-113088856D01*
X77897431Y-113254107D01*
X77687107Y-113464431D01*
X77610000Y-113579830D01*
X77532893Y-113464431D01*
X77322569Y-113254107D01*
X77075253Y-113088856D01*
X76800451Y-112975029D01*
X76532669Y-112921763D01*
X77503933Y-111950500D01*
X77858497Y-111950500D01*
X77995744Y-112042205D01*
X78184102Y-112120226D01*
X78384061Y-112160000D01*
X78587939Y-112160000D01*
X78787898Y-112120226D01*
X78867000Y-112087461D01*
X78946102Y-112120226D01*
X79146061Y-112160000D01*
X79349939Y-112160000D01*
X79549898Y-112120226D01*
X79738256Y-112042205D01*
X79907774Y-111928937D01*
X80051937Y-111784774D01*
X80165205Y-111615256D01*
X80243226Y-111426898D01*
X80283000Y-111226939D01*
X80283000Y-111023061D01*
X80243226Y-110823102D01*
X80165205Y-110634744D01*
X80051937Y-110465226D01*
X79907774Y-110321063D01*
X79738256Y-110207795D01*
X79549898Y-110129774D01*
X79349939Y-110090000D01*
X79146061Y-110090000D01*
X78946102Y-110129774D01*
X78867000Y-110162539D01*
X78787898Y-110129774D01*
X78587939Y-110090000D01*
X78384061Y-110090000D01*
X78184102Y-110129774D01*
X77995744Y-110207795D01*
X77858497Y-110299500D01*
X77202550Y-110299500D01*
X77161999Y-110295506D01*
X77121449Y-110299500D01*
X77121447Y-110299500D01*
X77000174Y-110311444D01*
X76844566Y-110358647D01*
X76701157Y-110435301D01*
X76664694Y-110465226D01*
X76575459Y-110538459D01*
X76549606Y-110569961D01*
X74170406Y-112949161D01*
X74008722Y-112917000D01*
X73711278Y-112917000D01*
X73419549Y-112975029D01*
X73144747Y-113088856D01*
X72897431Y-113254107D01*
X72687107Y-113464431D01*
X72521856Y-113711747D01*
X72408029Y-113986549D01*
X72350000Y-114278278D01*
X50785000Y-114278278D01*
X50785000Y-104165061D01*
X59285998Y-104165061D01*
X59285998Y-104368939D01*
X59325772Y-104568898D01*
X59403793Y-104757256D01*
X59517061Y-104926774D01*
X59661224Y-105070937D01*
X59830742Y-105184205D01*
X60019100Y-105262226D01*
X60219059Y-105302000D01*
X60422937Y-105302000D01*
X60622896Y-105262226D01*
X60811254Y-105184205D01*
X60944768Y-105094994D01*
X60960000Y-105096494D01*
X61000550Y-105092500D01*
X61000553Y-105092500D01*
X61121826Y-105080556D01*
X61277434Y-105033353D01*
X61420842Y-104956699D01*
X61546541Y-104853541D01*
X61572398Y-104822034D01*
X62878005Y-103516428D01*
X63039898Y-103484226D01*
X63228256Y-103406205D01*
X63397774Y-103292937D01*
X63541937Y-103148774D01*
X63655205Y-102979256D01*
X63733226Y-102790898D01*
X63773000Y-102590939D01*
X63773000Y-102387061D01*
X63733226Y-102187102D01*
X63710842Y-102133061D01*
X85579000Y-102133061D01*
X85579000Y-102336939D01*
X85618774Y-102536898D01*
X85696795Y-102725256D01*
X85810063Y-102894774D01*
X85954226Y-103038937D01*
X86042501Y-103097920D01*
X86042500Y-105925497D01*
X85950795Y-106062744D01*
X85872774Y-106251102D01*
X85833000Y-106451061D01*
X85833000Y-106654939D01*
X85872774Y-106854898D01*
X85950795Y-107043256D01*
X86064063Y-107212774D01*
X86208226Y-107356937D01*
X86377744Y-107470205D01*
X86566102Y-107548226D01*
X86766061Y-107588000D01*
X86969939Y-107588000D01*
X87169898Y-107548226D01*
X87358256Y-107470205D01*
X87527774Y-107356937D01*
X87671937Y-107212774D01*
X87785205Y-107043256D01*
X87863226Y-106854898D01*
X87903000Y-106654939D01*
X87903000Y-106451061D01*
X87863226Y-106251102D01*
X87785205Y-106062744D01*
X87693500Y-105925497D01*
X87693500Y-104165061D01*
X88250002Y-104165061D01*
X88250002Y-104368939D01*
X88289776Y-104568898D01*
X88367797Y-104757256D01*
X88481065Y-104926774D01*
X88625228Y-105070937D01*
X88794746Y-105184205D01*
X88983104Y-105262226D01*
X89144998Y-105294428D01*
X89255495Y-105404926D01*
X89255495Y-105836508D01*
X89163790Y-105973755D01*
X89085769Y-106162113D01*
X89045995Y-106362072D01*
X89045995Y-106565950D01*
X89085769Y-106765909D01*
X89163790Y-106954267D01*
X89277058Y-107123785D01*
X89421221Y-107267948D01*
X89590739Y-107381216D01*
X89779097Y-107459237D01*
X89979056Y-107499011D01*
X90182934Y-107499011D01*
X90382893Y-107459237D01*
X90411090Y-107447557D01*
X90444774Y-107616898D01*
X90522795Y-107805256D01*
X90636063Y-107974774D01*
X90780226Y-108118937D01*
X90949744Y-108232205D01*
X91138102Y-108310226D01*
X91338061Y-108350000D01*
X91541939Y-108350000D01*
X91741898Y-108310226D01*
X91930256Y-108232205D01*
X92099774Y-108118937D01*
X92243937Y-107974774D01*
X92357205Y-107805256D01*
X92435226Y-107616898D01*
X92475000Y-107416939D01*
X92475000Y-107213061D01*
X92435226Y-107013102D01*
X92357205Y-106824744D01*
X92265500Y-106687497D01*
X92265500Y-103863163D01*
X92269493Y-103822620D01*
X92265500Y-103782077D01*
X92265500Y-103782068D01*
X92253556Y-103660795D01*
X92219585Y-103548807D01*
X92219585Y-103465267D01*
X92179811Y-103265308D01*
X92101790Y-103076950D01*
X91988522Y-102907432D01*
X91844359Y-102763269D01*
X91674841Y-102650001D01*
X91486483Y-102571980D01*
X91286524Y-102532206D01*
X91082646Y-102532206D01*
X90882687Y-102571980D01*
X90694329Y-102650001D01*
X90524811Y-102763269D01*
X90380648Y-102907432D01*
X90267380Y-103076950D01*
X90189359Y-103265308D01*
X90149585Y-103465267D01*
X90149585Y-103669145D01*
X90157754Y-103710216D01*
X90088939Y-103607226D01*
X89944776Y-103463063D01*
X89775258Y-103349795D01*
X89586900Y-103271774D01*
X89386941Y-103232000D01*
X89183063Y-103232000D01*
X88983104Y-103271774D01*
X88794746Y-103349795D01*
X88625228Y-103463063D01*
X88481065Y-103607226D01*
X88367797Y-103776744D01*
X88289776Y-103965102D01*
X88250002Y-104165061D01*
X87693500Y-104165061D01*
X87693500Y-102529550D01*
X87697494Y-102488999D01*
X87690787Y-102420904D01*
X87681556Y-102327174D01*
X87649000Y-102219851D01*
X87649000Y-102157139D01*
X94342000Y-102157139D01*
X94342000Y-102361017D01*
X94381774Y-102560976D01*
X94459795Y-102749334D01*
X94573063Y-102918852D01*
X94717226Y-103063015D01*
X94886744Y-103176283D01*
X95075102Y-103254304D01*
X95149718Y-103269146D01*
X95149719Y-104558589D01*
X95084963Y-104585412D01*
X94915445Y-104698680D01*
X94771282Y-104842843D01*
X94658014Y-105012361D01*
X94579993Y-105200719D01*
X94540219Y-105400678D01*
X94540219Y-105604556D01*
X94579993Y-105804515D01*
X94658014Y-105992873D01*
X94771282Y-106162391D01*
X94915445Y-106306554D01*
X95084963Y-106419822D01*
X95273321Y-106497843D01*
X95473280Y-106537617D01*
X95677158Y-106537617D01*
X95877117Y-106497843D01*
X96065475Y-106419822D01*
X96234993Y-106306554D01*
X96379156Y-106162391D01*
X96492424Y-105992873D01*
X96570445Y-105804515D01*
X96603510Y-105638285D01*
X96664917Y-105563460D01*
X96741571Y-105420052D01*
X96788774Y-105264444D01*
X96800718Y-105143171D01*
X96800718Y-105143169D01*
X96804712Y-105102619D01*
X96800718Y-105062068D01*
X96800718Y-102897846D01*
X96804712Y-102857295D01*
X96800718Y-102816743D01*
X96788774Y-102695470D01*
X96741571Y-102539862D01*
X96737479Y-102532206D01*
X96664917Y-102396453D01*
X96587609Y-102302254D01*
X96561759Y-102270755D01*
X96530258Y-102244903D01*
X96404428Y-102119074D01*
X96372226Y-101957180D01*
X96294205Y-101768822D01*
X96180937Y-101599304D01*
X96036774Y-101455141D01*
X95867256Y-101341873D01*
X95678898Y-101263852D01*
X95478939Y-101224078D01*
X95275061Y-101224078D01*
X95075102Y-101263852D01*
X94886744Y-101341873D01*
X94717226Y-101455141D01*
X94573063Y-101599304D01*
X94459795Y-101768822D01*
X94381774Y-101957180D01*
X94342000Y-102157139D01*
X87649000Y-102157139D01*
X87649000Y-102133061D01*
X87609226Y-101933102D01*
X87531205Y-101744744D01*
X87417937Y-101575226D01*
X87273774Y-101431063D01*
X87104256Y-101317795D01*
X86915898Y-101239774D01*
X86715939Y-101200000D01*
X86512061Y-101200000D01*
X86312102Y-101239774D01*
X86123744Y-101317795D01*
X85954226Y-101431063D01*
X85810063Y-101575226D01*
X85696795Y-101744744D01*
X85618774Y-101933102D01*
X85579000Y-102133061D01*
X63710842Y-102133061D01*
X63655205Y-101998744D01*
X63541937Y-101829226D01*
X63397774Y-101685063D01*
X63228256Y-101571795D01*
X63039898Y-101493774D01*
X62839939Y-101454000D01*
X62636061Y-101454000D01*
X62436102Y-101493774D01*
X62247744Y-101571795D01*
X62078226Y-101685063D01*
X61934063Y-101829226D01*
X61820795Y-101998744D01*
X61742774Y-102187102D01*
X61710572Y-102348995D01*
X60739496Y-103320072D01*
X60622896Y-103271774D01*
X60422937Y-103232000D01*
X60219059Y-103232000D01*
X60019100Y-103271774D01*
X59830742Y-103349795D01*
X59661224Y-103463063D01*
X59517061Y-103607226D01*
X59403793Y-103776744D01*
X59325772Y-103965102D01*
X59285998Y-104165061D01*
X50785000Y-104165061D01*
X50785000Y-100048061D01*
X62515000Y-100048061D01*
X62515000Y-100251939D01*
X62554774Y-100451898D01*
X62632795Y-100640256D01*
X62746063Y-100809774D01*
X62890226Y-100953937D01*
X63059744Y-101067205D01*
X63248102Y-101145226D01*
X63448061Y-101185000D01*
X63651939Y-101185000D01*
X63851898Y-101145226D01*
X63950000Y-101104591D01*
X64048102Y-101145226D01*
X64248061Y-101185000D01*
X64451939Y-101185000D01*
X64651898Y-101145226D01*
X64840256Y-101067205D01*
X64880533Y-101040293D01*
X64893660Y-101039000D01*
X64893667Y-101039000D01*
X65024274Y-101026136D01*
X65191851Y-100975303D01*
X65346291Y-100892753D01*
X65481659Y-100781659D01*
X65509499Y-100747736D01*
X67202106Y-99055130D01*
X67251898Y-99045226D01*
X67350000Y-99004591D01*
X67448102Y-99045226D01*
X67648061Y-99085000D01*
X67851939Y-99085000D01*
X68051898Y-99045226D01*
X68240256Y-98967205D01*
X68409774Y-98853937D01*
X68553937Y-98709774D01*
X68667205Y-98540256D01*
X68745226Y-98351898D01*
X68785000Y-98151939D01*
X68785000Y-97948061D01*
X68745226Y-97748102D01*
X68667205Y-97559744D01*
X68553937Y-97390226D01*
X68409774Y-97246063D01*
X68240256Y-97132795D01*
X68051898Y-97054774D01*
X67851939Y-97015000D01*
X67648061Y-97015000D01*
X67448102Y-97054774D01*
X67350000Y-97095409D01*
X67251898Y-97054774D01*
X67051939Y-97015000D01*
X66848061Y-97015000D01*
X66648102Y-97054774D01*
X66459744Y-97132795D01*
X66290226Y-97246063D01*
X66146063Y-97390226D01*
X66032795Y-97559744D01*
X65954774Y-97748102D01*
X65944870Y-97797894D01*
X64598594Y-99144171D01*
X64451939Y-99115000D01*
X64248061Y-99115000D01*
X64048102Y-99154774D01*
X63950000Y-99195409D01*
X63851898Y-99154774D01*
X63651939Y-99115000D01*
X63448061Y-99115000D01*
X63248102Y-99154774D01*
X63059744Y-99232795D01*
X62890226Y-99346063D01*
X62746063Y-99490226D01*
X62632795Y-99659744D01*
X62554774Y-99848102D01*
X62515000Y-100048061D01*
X50785000Y-100048061D01*
X50785000Y-96799061D01*
X91167000Y-96799061D01*
X91167000Y-97002939D01*
X91206774Y-97202898D01*
X91284795Y-97391256D01*
X91398063Y-97560774D01*
X91542226Y-97704937D01*
X91711744Y-97818205D01*
X91900102Y-97896226D01*
X92061996Y-97928428D01*
X92834111Y-98700545D01*
X92859959Y-98732041D01*
X92891455Y-98757889D01*
X92891458Y-98757892D01*
X92985657Y-98835199D01*
X93006231Y-98846196D01*
X93109472Y-98949437D01*
X93278990Y-99062705D01*
X93467348Y-99140726D01*
X93667307Y-99180500D01*
X93871185Y-99180500D01*
X94071144Y-99140726D01*
X94259502Y-99062705D01*
X94429020Y-98949437D01*
X94573183Y-98805274D01*
X94686451Y-98635756D01*
X94764472Y-98447398D01*
X94804246Y-98247439D01*
X94804246Y-98043561D01*
X94764472Y-97843602D01*
X94686451Y-97655244D01*
X94573183Y-97485726D01*
X94429020Y-97341563D01*
X94259502Y-97228295D01*
X94143056Y-97180061D01*
X97771000Y-97180061D01*
X97771000Y-97383939D01*
X97810774Y-97583898D01*
X97888795Y-97772256D01*
X98002063Y-97941774D01*
X98146226Y-98085937D01*
X98315744Y-98199205D01*
X98504102Y-98277226D01*
X98704061Y-98317000D01*
X98907939Y-98317000D01*
X99107898Y-98277226D01*
X99296256Y-98199205D01*
X99433503Y-98107500D01*
X102242497Y-98107500D01*
X102379744Y-98199205D01*
X102568102Y-98277226D01*
X102768061Y-98317000D01*
X102971939Y-98317000D01*
X103171898Y-98277226D01*
X103360256Y-98199205D01*
X103529774Y-98085937D01*
X103673937Y-97941774D01*
X103787205Y-97772256D01*
X103865226Y-97583898D01*
X103905000Y-97383939D01*
X103905000Y-97180061D01*
X103865226Y-96980102D01*
X103787205Y-96791744D01*
X103673937Y-96622226D01*
X103529774Y-96478063D01*
X103360256Y-96364795D01*
X103171898Y-96286774D01*
X102971939Y-96247000D01*
X102768061Y-96247000D01*
X102568102Y-96286774D01*
X102379744Y-96364795D01*
X102242497Y-96456500D01*
X99433503Y-96456500D01*
X99296256Y-96364795D01*
X99107898Y-96286774D01*
X98907939Y-96247000D01*
X98704061Y-96247000D01*
X98504102Y-96286774D01*
X98315744Y-96364795D01*
X98146226Y-96478063D01*
X98002063Y-96622226D01*
X97888795Y-96791744D01*
X97810774Y-96980102D01*
X97771000Y-97180061D01*
X94143056Y-97180061D01*
X94071144Y-97150274D01*
X93871185Y-97110500D01*
X93667307Y-97110500D01*
X93593595Y-97125162D01*
X93229428Y-96760996D01*
X93197226Y-96599102D01*
X93119205Y-96410744D01*
X93005937Y-96241226D01*
X92861774Y-96097063D01*
X92692256Y-95983795D01*
X92503898Y-95905774D01*
X92303939Y-95866000D01*
X92100061Y-95866000D01*
X91900102Y-95905774D01*
X91711744Y-95983795D01*
X91542226Y-96097063D01*
X91398063Y-96241226D01*
X91284795Y-96410744D01*
X91206774Y-96599102D01*
X91167000Y-96799061D01*
X50785000Y-96799061D01*
X50785000Y-71314000D01*
X109215001Y-71314000D01*
X109215000Y-116715000D01*
X109215000Y-116715000D01*
G37*
X109215000Y-116715000D02*
X50785000Y-116715000D01*
X50785000Y-114278278D01*
X72350000Y-114278278D01*
X72350000Y-114575722D01*
X72408029Y-114867451D01*
X72521856Y-115142253D01*
X72687107Y-115389569D01*
X72897431Y-115599893D01*
X73144747Y-115765144D01*
X73419549Y-115878971D01*
X73711278Y-115937000D01*
X74008722Y-115937000D01*
X74300451Y-115878971D01*
X74575253Y-115765144D01*
X74822569Y-115599893D01*
X75032893Y-115389569D01*
X75110000Y-115274170D01*
X75187107Y-115389569D01*
X75397431Y-115599893D01*
X75644747Y-115765144D01*
X75919549Y-115878971D01*
X76211278Y-115937000D01*
X76508722Y-115937000D01*
X76800451Y-115878971D01*
X77075253Y-115765144D01*
X77322569Y-115599893D01*
X77532893Y-115389569D01*
X77610000Y-115274170D01*
X77687107Y-115389569D01*
X77897431Y-115599893D01*
X78144747Y-115765144D01*
X78419549Y-115878971D01*
X78711278Y-115937000D01*
X79008722Y-115937000D01*
X79300451Y-115878971D01*
X79575253Y-115765144D01*
X79822569Y-115599893D01*
X80032893Y-115389569D01*
X80110000Y-115274170D01*
X80187107Y-115389569D01*
X80397431Y-115599893D01*
X80644747Y-115765144D01*
X80919549Y-115878971D01*
X81211278Y-115937000D01*
X81508722Y-115937000D01*
X81800451Y-115878971D01*
X82075253Y-115765144D01*
X82322569Y-115599893D01*
X82532893Y-115389569D01*
X82610000Y-115274170D01*
X82687107Y-115389569D01*
X82897431Y-115599893D01*
X83144747Y-115765144D01*
X83419549Y-115878971D01*
X83711278Y-115937000D01*
X84008722Y-115937000D01*
X84300451Y-115878971D01*
X84575253Y-115765144D01*
X84822569Y-115599893D01*
X85032893Y-115389569D01*
X85198144Y-115142253D01*
X85311971Y-114867451D01*
X85370000Y-114575722D01*
X85370000Y-114278278D01*
X85311971Y-113986549D01*
X85198144Y-113711747D01*
X85032893Y-113464431D01*
X84822569Y-113254107D01*
X84575253Y-113088856D01*
X84300451Y-112975029D01*
X84008722Y-112917000D01*
X83711278Y-112917000D01*
X83419549Y-112975029D01*
X83144747Y-113088856D01*
X82897431Y-113254107D01*
X82687107Y-113464431D01*
X82610000Y-113579830D01*
X82532893Y-113464431D01*
X82322569Y-113254107D01*
X82075253Y-113088856D01*
X81800451Y-112975029D01*
X81508722Y-112917000D01*
X81211278Y-112917000D01*
X80919549Y-112975029D01*
X80644747Y-113088856D01*
X80397431Y-113254107D01*
X80187107Y-113464431D01*
X80110000Y-113579830D01*
X80032893Y-113464431D01*
X79822569Y-113254107D01*
X79575253Y-113088856D01*
X79300451Y-112975029D01*
X79008722Y-112917000D01*
X78711278Y-112917000D01*
X78419549Y-112975029D01*
X78144747Y-113088856D01*
X77897431Y-113254107D01*
X77687107Y-113464431D01*
X77610000Y-113579830D01*
X77532893Y-113464431D01*
X77322569Y-113254107D01*
X77075253Y-113088856D01*
X76800451Y-112975029D01*
X76532669Y-112921763D01*
X77503933Y-111950500D01*
X77858497Y-111950500D01*
X77995744Y-112042205D01*
X78184102Y-112120226D01*
X78384061Y-112160000D01*
X78587939Y-112160000D01*
X78787898Y-112120226D01*
X78867000Y-112087461D01*
X78946102Y-112120226D01*
X79146061Y-112160000D01*
X79349939Y-112160000D01*
X79549898Y-112120226D01*
X79738256Y-112042205D01*
X79907774Y-111928937D01*
X80051937Y-111784774D01*
X80165205Y-111615256D01*
X80243226Y-111426898D01*
X80283000Y-111226939D01*
X80283000Y-111023061D01*
X80243226Y-110823102D01*
X80165205Y-110634744D01*
X80051937Y-110465226D01*
X79907774Y-110321063D01*
X79738256Y-110207795D01*
X79549898Y-110129774D01*
X79349939Y-110090000D01*
X79146061Y-110090000D01*
X78946102Y-110129774D01*
X78867000Y-110162539D01*
X78787898Y-110129774D01*
X78587939Y-110090000D01*
X78384061Y-110090000D01*
X78184102Y-110129774D01*
X77995744Y-110207795D01*
X77858497Y-110299500D01*
X77202550Y-110299500D01*
X77161999Y-110295506D01*
X77121449Y-110299500D01*
X77121447Y-110299500D01*
X77000174Y-110311444D01*
X76844566Y-110358647D01*
X76701157Y-110435301D01*
X76664694Y-110465226D01*
X76575459Y-110538459D01*
X76549606Y-110569961D01*
X74170406Y-112949161D01*
X74008722Y-112917000D01*
X73711278Y-112917000D01*
X73419549Y-112975029D01*
X73144747Y-113088856D01*
X72897431Y-113254107D01*
X72687107Y-113464431D01*
X72521856Y-113711747D01*
X72408029Y-113986549D01*
X72350000Y-114278278D01*
X50785000Y-114278278D01*
X50785000Y-104165061D01*
X59285998Y-104165061D01*
X59285998Y-104368939D01*
X59325772Y-104568898D01*
X59403793Y-104757256D01*
X59517061Y-104926774D01*
X59661224Y-105070937D01*
X59830742Y-105184205D01*
X60019100Y-105262226D01*
X60219059Y-105302000D01*
X60422937Y-105302000D01*
X60622896Y-105262226D01*
X60811254Y-105184205D01*
X60944768Y-105094994D01*
X60960000Y-105096494D01*
X61000550Y-105092500D01*
X61000553Y-105092500D01*
X61121826Y-105080556D01*
X61277434Y-105033353D01*
X61420842Y-104956699D01*
X61546541Y-104853541D01*
X61572398Y-104822034D01*
X62878005Y-103516428D01*
X63039898Y-103484226D01*
X63228256Y-103406205D01*
X63397774Y-103292937D01*
X63541937Y-103148774D01*
X63655205Y-102979256D01*
X63733226Y-102790898D01*
X63773000Y-102590939D01*
X63773000Y-102387061D01*
X63733226Y-102187102D01*
X63710842Y-102133061D01*
X85579000Y-102133061D01*
X85579000Y-102336939D01*
X85618774Y-102536898D01*
X85696795Y-102725256D01*
X85810063Y-102894774D01*
X85954226Y-103038937D01*
X86042501Y-103097920D01*
X86042500Y-105925497D01*
X85950795Y-106062744D01*
X85872774Y-106251102D01*
X85833000Y-106451061D01*
X85833000Y-106654939D01*
X85872774Y-106854898D01*
X85950795Y-107043256D01*
X86064063Y-107212774D01*
X86208226Y-107356937D01*
X86377744Y-107470205D01*
X86566102Y-107548226D01*
X86766061Y-107588000D01*
X86969939Y-107588000D01*
X87169898Y-107548226D01*
X87358256Y-107470205D01*
X87527774Y-107356937D01*
X87671937Y-107212774D01*
X87785205Y-107043256D01*
X87863226Y-106854898D01*
X87903000Y-106654939D01*
X87903000Y-106451061D01*
X87863226Y-106251102D01*
X87785205Y-106062744D01*
X87693500Y-105925497D01*
X87693500Y-104165061D01*
X88250002Y-104165061D01*
X88250002Y-104368939D01*
X88289776Y-104568898D01*
X88367797Y-104757256D01*
X88481065Y-104926774D01*
X88625228Y-105070937D01*
X88794746Y-105184205D01*
X88983104Y-105262226D01*
X89144998Y-105294428D01*
X89255495Y-105404926D01*
X89255495Y-105836508D01*
X89163790Y-105973755D01*
X89085769Y-106162113D01*
X89045995Y-106362072D01*
X89045995Y-106565950D01*
X89085769Y-106765909D01*
X89163790Y-106954267D01*
X89277058Y-107123785D01*
X89421221Y-107267948D01*
X89590739Y-107381216D01*
X89779097Y-107459237D01*
X89979056Y-107499011D01*
X90182934Y-107499011D01*
X90382893Y-107459237D01*
X90411090Y-107447557D01*
X90444774Y-107616898D01*
X90522795Y-107805256D01*
X90636063Y-107974774D01*
X90780226Y-108118937D01*
X90949744Y-108232205D01*
X91138102Y-108310226D01*
X91338061Y-108350000D01*
X91541939Y-108350000D01*
X91741898Y-108310226D01*
X91930256Y-108232205D01*
X92099774Y-108118937D01*
X92243937Y-107974774D01*
X92357205Y-107805256D01*
X92435226Y-107616898D01*
X92475000Y-107416939D01*
X92475000Y-107213061D01*
X92435226Y-107013102D01*
X92357205Y-106824744D01*
X92265500Y-106687497D01*
X92265500Y-103863163D01*
X92269493Y-103822620D01*
X92265500Y-103782077D01*
X92265500Y-103782068D01*
X92253556Y-103660795D01*
X92219585Y-103548807D01*
X92219585Y-103465267D01*
X92179811Y-103265308D01*
X92101790Y-103076950D01*
X91988522Y-102907432D01*
X91844359Y-102763269D01*
X91674841Y-102650001D01*
X91486483Y-102571980D01*
X91286524Y-102532206D01*
X91082646Y-102532206D01*
X90882687Y-102571980D01*
X90694329Y-102650001D01*
X90524811Y-102763269D01*
X90380648Y-102907432D01*
X90267380Y-103076950D01*
X90189359Y-103265308D01*
X90149585Y-103465267D01*
X90149585Y-103669145D01*
X90157754Y-103710216D01*
X90088939Y-103607226D01*
X89944776Y-103463063D01*
X89775258Y-103349795D01*
X89586900Y-103271774D01*
X89386941Y-103232000D01*
X89183063Y-103232000D01*
X88983104Y-103271774D01*
X88794746Y-103349795D01*
X88625228Y-103463063D01*
X88481065Y-103607226D01*
X88367797Y-103776744D01*
X88289776Y-103965102D01*
X88250002Y-104165061D01*
X87693500Y-104165061D01*
X87693500Y-102529550D01*
X87697494Y-102488999D01*
X87690787Y-102420904D01*
X87681556Y-102327174D01*
X87649000Y-102219851D01*
X87649000Y-102157139D01*
X94342000Y-102157139D01*
X94342000Y-102361017D01*
X94381774Y-102560976D01*
X94459795Y-102749334D01*
X94573063Y-102918852D01*
X94717226Y-103063015D01*
X94886744Y-103176283D01*
X95075102Y-103254304D01*
X95149718Y-103269146D01*
X95149719Y-104558589D01*
X95084963Y-104585412D01*
X94915445Y-104698680D01*
X94771282Y-104842843D01*
X94658014Y-105012361D01*
X94579993Y-105200719D01*
X94540219Y-105400678D01*
X94540219Y-105604556D01*
X94579993Y-105804515D01*
X94658014Y-105992873D01*
X94771282Y-106162391D01*
X94915445Y-106306554D01*
X95084963Y-106419822D01*
X95273321Y-106497843D01*
X95473280Y-106537617D01*
X95677158Y-106537617D01*
X95877117Y-106497843D01*
X96065475Y-106419822D01*
X96234993Y-106306554D01*
X96379156Y-106162391D01*
X96492424Y-105992873D01*
X96570445Y-105804515D01*
X96603510Y-105638285D01*
X96664917Y-105563460D01*
X96741571Y-105420052D01*
X96788774Y-105264444D01*
X96800718Y-105143171D01*
X96800718Y-105143169D01*
X96804712Y-105102619D01*
X96800718Y-105062068D01*
X96800718Y-102897846D01*
X96804712Y-102857295D01*
X96800718Y-102816743D01*
X96788774Y-102695470D01*
X96741571Y-102539862D01*
X96737479Y-102532206D01*
X96664917Y-102396453D01*
X96587609Y-102302254D01*
X96561759Y-102270755D01*
X96530258Y-102244903D01*
X96404428Y-102119074D01*
X96372226Y-101957180D01*
X96294205Y-101768822D01*
X96180937Y-101599304D01*
X96036774Y-101455141D01*
X95867256Y-101341873D01*
X95678898Y-101263852D01*
X95478939Y-101224078D01*
X95275061Y-101224078D01*
X95075102Y-101263852D01*
X94886744Y-101341873D01*
X94717226Y-101455141D01*
X94573063Y-101599304D01*
X94459795Y-101768822D01*
X94381774Y-101957180D01*
X94342000Y-102157139D01*
X87649000Y-102157139D01*
X87649000Y-102133061D01*
X87609226Y-101933102D01*
X87531205Y-101744744D01*
X87417937Y-101575226D01*
X87273774Y-101431063D01*
X87104256Y-101317795D01*
X86915898Y-101239774D01*
X86715939Y-101200000D01*
X86512061Y-101200000D01*
X86312102Y-101239774D01*
X86123744Y-101317795D01*
X85954226Y-101431063D01*
X85810063Y-101575226D01*
X85696795Y-101744744D01*
X85618774Y-101933102D01*
X85579000Y-102133061D01*
X63710842Y-102133061D01*
X63655205Y-101998744D01*
X63541937Y-101829226D01*
X63397774Y-101685063D01*
X63228256Y-101571795D01*
X63039898Y-101493774D01*
X62839939Y-101454000D01*
X62636061Y-101454000D01*
X62436102Y-101493774D01*
X62247744Y-101571795D01*
X62078226Y-101685063D01*
X61934063Y-101829226D01*
X61820795Y-101998744D01*
X61742774Y-102187102D01*
X61710572Y-102348995D01*
X60739496Y-103320072D01*
X60622896Y-103271774D01*
X60422937Y-103232000D01*
X60219059Y-103232000D01*
X60019100Y-103271774D01*
X59830742Y-103349795D01*
X59661224Y-103463063D01*
X59517061Y-103607226D01*
X59403793Y-103776744D01*
X59325772Y-103965102D01*
X59285998Y-104165061D01*
X50785000Y-104165061D01*
X50785000Y-100048061D01*
X62515000Y-100048061D01*
X62515000Y-100251939D01*
X62554774Y-100451898D01*
X62632795Y-100640256D01*
X62746063Y-100809774D01*
X62890226Y-100953937D01*
X63059744Y-101067205D01*
X63248102Y-101145226D01*
X63448061Y-101185000D01*
X63651939Y-101185000D01*
X63851898Y-101145226D01*
X63950000Y-101104591D01*
X64048102Y-101145226D01*
X64248061Y-101185000D01*
X64451939Y-101185000D01*
X64651898Y-101145226D01*
X64840256Y-101067205D01*
X64880533Y-101040293D01*
X64893660Y-101039000D01*
X64893667Y-101039000D01*
X65024274Y-101026136D01*
X65191851Y-100975303D01*
X65346291Y-100892753D01*
X65481659Y-100781659D01*
X65509499Y-100747736D01*
X67202106Y-99055130D01*
X67251898Y-99045226D01*
X67350000Y-99004591D01*
X67448102Y-99045226D01*
X67648061Y-99085000D01*
X67851939Y-99085000D01*
X68051898Y-99045226D01*
X68240256Y-98967205D01*
X68409774Y-98853937D01*
X68553937Y-98709774D01*
X68667205Y-98540256D01*
X68745226Y-98351898D01*
X68785000Y-98151939D01*
X68785000Y-97948061D01*
X68745226Y-97748102D01*
X68667205Y-97559744D01*
X68553937Y-97390226D01*
X68409774Y-97246063D01*
X68240256Y-97132795D01*
X68051898Y-97054774D01*
X67851939Y-97015000D01*
X67648061Y-97015000D01*
X67448102Y-97054774D01*
X67350000Y-97095409D01*
X67251898Y-97054774D01*
X67051939Y-97015000D01*
X66848061Y-97015000D01*
X66648102Y-97054774D01*
X66459744Y-97132795D01*
X66290226Y-97246063D01*
X66146063Y-97390226D01*
X66032795Y-97559744D01*
X65954774Y-97748102D01*
X65944870Y-97797894D01*
X64598594Y-99144171D01*
X64451939Y-99115000D01*
X64248061Y-99115000D01*
X64048102Y-99154774D01*
X63950000Y-99195409D01*
X63851898Y-99154774D01*
X63651939Y-99115000D01*
X63448061Y-99115000D01*
X63248102Y-99154774D01*
X63059744Y-99232795D01*
X62890226Y-99346063D01*
X62746063Y-99490226D01*
X62632795Y-99659744D01*
X62554774Y-99848102D01*
X62515000Y-100048061D01*
X50785000Y-100048061D01*
X50785000Y-96799061D01*
X91167000Y-96799061D01*
X91167000Y-97002939D01*
X91206774Y-97202898D01*
X91284795Y-97391256D01*
X91398063Y-97560774D01*
X91542226Y-97704937D01*
X91711744Y-97818205D01*
X91900102Y-97896226D01*
X92061996Y-97928428D01*
X92834111Y-98700545D01*
X92859959Y-98732041D01*
X92891455Y-98757889D01*
X92891458Y-98757892D01*
X92985657Y-98835199D01*
X93006231Y-98846196D01*
X93109472Y-98949437D01*
X93278990Y-99062705D01*
X93467348Y-99140726D01*
X93667307Y-99180500D01*
X93871185Y-99180500D01*
X94071144Y-99140726D01*
X94259502Y-99062705D01*
X94429020Y-98949437D01*
X94573183Y-98805274D01*
X94686451Y-98635756D01*
X94764472Y-98447398D01*
X94804246Y-98247439D01*
X94804246Y-98043561D01*
X94764472Y-97843602D01*
X94686451Y-97655244D01*
X94573183Y-97485726D01*
X94429020Y-97341563D01*
X94259502Y-97228295D01*
X94143056Y-97180061D01*
X97771000Y-97180061D01*
X97771000Y-97383939D01*
X97810774Y-97583898D01*
X97888795Y-97772256D01*
X98002063Y-97941774D01*
X98146226Y-98085937D01*
X98315744Y-98199205D01*
X98504102Y-98277226D01*
X98704061Y-98317000D01*
X98907939Y-98317000D01*
X99107898Y-98277226D01*
X99296256Y-98199205D01*
X99433503Y-98107500D01*
X102242497Y-98107500D01*
X102379744Y-98199205D01*
X102568102Y-98277226D01*
X102768061Y-98317000D01*
X102971939Y-98317000D01*
X103171898Y-98277226D01*
X103360256Y-98199205D01*
X103529774Y-98085937D01*
X103673937Y-97941774D01*
X103787205Y-97772256D01*
X103865226Y-97583898D01*
X103905000Y-97383939D01*
X103905000Y-97180061D01*
X103865226Y-96980102D01*
X103787205Y-96791744D01*
X103673937Y-96622226D01*
X103529774Y-96478063D01*
X103360256Y-96364795D01*
X103171898Y-96286774D01*
X102971939Y-96247000D01*
X102768061Y-96247000D01*
X102568102Y-96286774D01*
X102379744Y-96364795D01*
X102242497Y-96456500D01*
X99433503Y-96456500D01*
X99296256Y-96364795D01*
X99107898Y-96286774D01*
X98907939Y-96247000D01*
X98704061Y-96247000D01*
X98504102Y-96286774D01*
X98315744Y-96364795D01*
X98146226Y-96478063D01*
X98002063Y-96622226D01*
X97888795Y-96791744D01*
X97810774Y-96980102D01*
X97771000Y-97180061D01*
X94143056Y-97180061D01*
X94071144Y-97150274D01*
X93871185Y-97110500D01*
X93667307Y-97110500D01*
X93593595Y-97125162D01*
X93229428Y-96760996D01*
X93197226Y-96599102D01*
X93119205Y-96410744D01*
X93005937Y-96241226D01*
X92861774Y-96097063D01*
X92692256Y-95983795D01*
X92503898Y-95905774D01*
X92303939Y-95866000D01*
X92100061Y-95866000D01*
X91900102Y-95905774D01*
X91711744Y-95983795D01*
X91542226Y-96097063D01*
X91398063Y-96241226D01*
X91284795Y-96410744D01*
X91206774Y-96599102D01*
X91167000Y-96799061D01*
X50785000Y-96799061D01*
X50785000Y-71314000D01*
X109215001Y-71314000D01*
X109215000Y-116715000D01*
G36*
X109223001Y-69596000D02*
G01*
X50777000Y-69596000D01*
X50777000Y-50777000D01*
X109223001Y-50777000D01*
X109223001Y-69596000D01*
X109223001Y-69596000D01*
G37*
X109223001Y-69596000D02*
X50777000Y-69596000D01*
X50777000Y-50777000D01*
X109223001Y-50777000D01*
X109223001Y-69596000D01*
D17*
X108458000Y-98425000D03*
X108458000Y-82169000D03*
X108458000Y-101473000D03*
X108458000Y-105029000D03*
X108458000Y-85217000D03*
X108458000Y-95377000D03*
X108458000Y-79121000D03*
X108458000Y-92837000D03*
X108458000Y-88773000D03*
X108458000Y-109093000D03*
X102870000Y-116205000D03*
X96774000Y-116205000D03*
X93726000Y-116205000D03*
X90678000Y-116205000D03*
X99822000Y-116205000D03*
X61214000Y-116205000D03*
X64262000Y-116205000D03*
X58166000Y-116205000D03*
X70358000Y-116205000D03*
X67310000Y-116205000D03*
X51562000Y-98425000D03*
X51562000Y-101473000D03*
X51562000Y-95377000D03*
X51562000Y-109093000D03*
X51562000Y-105029000D03*
X60758000Y-75819000D03*
X60758000Y-71755000D03*
X60758000Y-73787000D03*
X99614000Y-73787000D03*
X99614000Y-75819000D03*
X99614000Y-71755000D03*
X73660000Y-99441000D03*
X57531000Y-86106000D03*
X57531000Y-86995000D03*
X103886000Y-84709000D03*
X103886000Y-83947000D03*
X55626000Y-94869000D03*
X65532000Y-97663000D03*
X66802000Y-102235000D03*
X71628000Y-104267000D03*
X76454000Y-106045000D03*
X77724000Y-106045000D03*
X78740000Y-106045000D03*
X73660000Y-100965000D03*
X73660000Y-100203000D03*
X101854000Y-106045000D03*
X104394000Y-96647000D03*
X96266000Y-93345000D03*
X98806000Y-86995000D03*
X97028000Y-100965000D03*
X70358000Y-110871000D03*
X63754000Y-71755000D03*
X66802000Y-71755000D03*
X70358000Y-71755000D03*
X74422000Y-71755000D03*
X78486000Y-71755000D03*
X82550000Y-71755000D03*
X86614000Y-71755000D03*
X91186000Y-71755000D03*
X95758000Y-71755000D03*
X95758000Y-73787000D03*
X91186000Y-73787000D03*
X86614000Y-73787000D03*
X82550000Y-73787000D03*
X78486000Y-73787000D03*
X74422000Y-73787000D03*
X70358000Y-73787000D03*
X66802000Y-73787000D03*
X63754000Y-73787000D03*
X63754000Y-75819000D03*
X70358000Y-75819000D03*
X74422000Y-75819000D03*
X78486000Y-75819000D03*
X82550000Y-75819000D03*
X86614000Y-75819000D03*
X91186000Y-75819000D03*
X95758000Y-75819000D03*
X62738000Y-54483000D03*
X65786000Y-54483000D03*
X69342000Y-54483000D03*
X71882000Y-54483000D03*
X72644000Y-51435000D03*
X77216000Y-51435000D03*
X82296000Y-51435000D03*
X86360000Y-51435000D03*
X88138000Y-54483000D03*
X91694000Y-54483000D03*
X94742000Y-54483000D03*
X62738000Y-66167000D03*
X65786000Y-66167000D03*
X69342000Y-66167000D03*
X71882000Y-66167000D03*
X73914000Y-69215000D03*
X76962000Y-69215000D03*
X80518000Y-69215000D03*
X84582000Y-69215000D03*
X88646000Y-68707000D03*
X88646000Y-66167000D03*
X91694000Y-66167000D03*
X94742000Y-66167000D03*
X104002113Y-102234023D03*
X102803705Y-104479840D03*
X100838000Y-108585000D03*
X60706000Y-106045000D03*
X61722000Y-99695000D03*
X94935283Y-104510009D03*
X89216717Y-100244207D03*
X51562000Y-79121000D03*
X51562000Y-82169000D03*
X51562000Y-85217000D03*
X51562000Y-88773000D03*
X51562000Y-92837000D03*
X106934000Y-116205000D03*
X108458000Y-113157000D03*
X51562000Y-115697000D03*
X62230000Y-87249000D03*
X62230000Y-89789000D03*
X63754000Y-91313000D03*
X65786000Y-91313000D03*
X67818000Y-91313000D03*
X69850000Y-91313000D03*
X71882000Y-89789000D03*
X71882000Y-87757000D03*
X71882000Y-85217000D03*
X71882000Y-82677000D03*
X71374000Y-80645000D03*
X69850000Y-80645000D03*
X67818000Y-80645000D03*
X65786000Y-80645000D03*
X63754000Y-80645000D03*
X62230000Y-81661000D03*
X62230000Y-84201000D03*
X95504000Y-91313000D03*
X93218000Y-91313000D03*
X90678000Y-91313000D03*
X88138000Y-91313000D03*
X88138000Y-88519000D03*
X88138000Y-85471000D03*
X88138000Y-82169000D03*
X90424000Y-80899000D03*
X93472000Y-80899000D03*
X96520000Y-80645000D03*
X97536000Y-82677000D03*
X97536000Y-84963000D03*
X97536000Y-86995000D03*
X97282000Y-89789000D03*
X78486000Y-111125000D03*
X79248000Y-111125000D03*
X60320998Y-104267000D03*
X62738000Y-102489000D03*
X64350000Y-100150000D03*
X66950000Y-98050000D03*
X63550000Y-100150000D03*
X67750000Y-98050000D03*
X98806000Y-97282000D03*
X102870000Y-97282000D03*
X95377000Y-102259078D03*
X89285002Y-104267000D03*
X95575219Y-105502617D03*
X90080995Y-106464011D03*
X93769246Y-98145500D03*
X92202000Y-96901000D03*
X91440000Y-107315000D03*
X91184585Y-103567206D03*
X86868000Y-106553000D03*
X86614000Y-102235000D03*
X57056810Y-73812500D03*
X57056810Y-76187500D03*
X55000000Y-77375000D03*
X52943190Y-76187500D03*
X52943190Y-73812500D03*
X55000000Y-72625000D03*
X55000000Y-75000000D03*
X57056810Y-111312500D03*
X57056810Y-113687500D03*
X55000000Y-114875000D03*
X52943190Y-113687500D03*
X52943190Y-111312500D03*
X55000000Y-110125000D03*
X55000000Y-112500000D03*
X106814810Y-110999500D03*
X106814810Y-113374500D03*
X104758000Y-114562000D03*
X102701190Y-113374500D03*
X102701190Y-110999500D03*
X104758000Y-109812000D03*
X104758000Y-112187000D03*
X107056810Y-73812500D03*
X107056810Y-76187500D03*
X105000000Y-77375000D03*
X102943190Y-76187500D03*
X102943190Y-73812500D03*
X105000000Y-72625000D03*
X105000000Y-75000000D03*
X73860000Y-114427000D03*
X76360000Y-114427000D03*
X78860000Y-114427000D03*
X81360000Y-114427000D03*
X83860000Y-114427000D03*
X86360000Y-114427000D03*
X102353000Y-52779000D03*
X100353000Y-52779000D03*
X98353000Y-54557000D03*
X100353000Y-54557000D03*
X104353000Y-56335000D03*
X102353000Y-54557000D03*
X108353000Y-52779000D03*
X98353000Y-52779000D03*
X108353000Y-56335000D03*
X106353000Y-56335000D03*
X100353000Y-56335000D03*
X108353000Y-54557000D03*
X106353000Y-54557000D03*
X102353000Y-56335000D03*
X104353000Y-52779000D03*
X106353000Y-52779000D03*
X98353000Y-56335000D03*
X104353000Y-54557000D03*
X106353000Y-65733000D03*
X104353000Y-65733000D03*
X100353000Y-65733000D03*
X98353000Y-65733000D03*
X108353000Y-65733000D03*
X102353000Y-65733000D03*
X106353000Y-63955000D03*
X104353000Y-63955000D03*
X100353000Y-63955000D03*
X98353000Y-63955000D03*
X108353000Y-63955000D03*
X102353000Y-63955000D03*
X98353000Y-67511000D03*
X100353000Y-67511000D03*
X102353000Y-67511000D03*
X104353000Y-67511000D03*
X106353000Y-67511000D03*
X108353000Y-67511000D03*
X57013000Y-67511000D03*
X59013000Y-67511000D03*
X61013000Y-65733000D03*
X59013000Y-65733000D03*
X55013000Y-63955000D03*
X57013000Y-65733000D03*
X51013000Y-67511000D03*
X61013000Y-67511000D03*
X51013000Y-63955000D03*
X53013000Y-63955000D03*
X59013000Y-63955000D03*
X51013000Y-65733000D03*
X53013000Y-65733000D03*
X57013000Y-63955000D03*
X55013000Y-67511000D03*
X53013000Y-67511000D03*
X61013000Y-63955000D03*
X55013000Y-65733000D03*
X53013000Y-54557000D03*
X55013000Y-54557000D03*
X59013000Y-54557000D03*
X61013000Y-54557000D03*
X51013000Y-54557000D03*
X57013000Y-54557000D03*
X53013000Y-56335000D03*
X55013000Y-56335000D03*
X59013000Y-56335000D03*
X61013000Y-56335000D03*
X51013000Y-56335000D03*
X57013000Y-56335000D03*
X61013000Y-52779000D03*
X59013000Y-52779000D03*
X57013000Y-52779000D03*
X55013000Y-52779000D03*
X53013000Y-52779000D03*
X51013000Y-52779000D03*
M02*
