%TF.GenerationSoftware,KiCad,Pcbnew,(5.1.4)-1*%
%TF.CreationDate,2019-12-13T01:47:11+08:00*%
%TF.ProjectId,Directional_coupler,44697265-6374-4696-9f6e-616c5f636f75,rev?*%
%TF.SameCoordinates,Original*%
%TF.FileFunction,Soldermask,Bot*%
%TF.FilePolarity,Negative*%
%FSLAX46Y46*%
G04 Gerber Fmt 4.6, Leading zero omitted, Abs format (unit mm)*
G04 Created by KiCad (PCBNEW (5.1.4)-1) date 2019-12-13 01:47:11*
%MOMM*%
%LPD*%
G04 APERTURE LIST*
%ADD10C,0.350000*%
G04 APERTURE END LIST*
D10*
G36*
X55889943Y-109566248D02*
G01*
X56445189Y-109796238D01*
X56617497Y-109911371D01*
X56944899Y-110130134D01*
X57369866Y-110555101D01*
X57474705Y-110712004D01*
X57703762Y-111054811D01*
X57933752Y-111610057D01*
X58051000Y-112199501D01*
X58051000Y-112800499D01*
X57933752Y-113389943D01*
X57703762Y-113945189D01*
X57674906Y-113988375D01*
X57369866Y-114444899D01*
X56944899Y-114869866D01*
X56881371Y-114912314D01*
X56445189Y-115203762D01*
X55889943Y-115433752D01*
X55300499Y-115551000D01*
X54699501Y-115551000D01*
X54110057Y-115433752D01*
X53554811Y-115203762D01*
X53118629Y-114912314D01*
X53055101Y-114869866D01*
X52630134Y-114444899D01*
X52325094Y-113988375D01*
X52296238Y-113945189D01*
X52066248Y-113389943D01*
X51949000Y-112800499D01*
X51949000Y-112199501D01*
X52066248Y-111610057D01*
X52296238Y-111054811D01*
X52525295Y-110712004D01*
X52630134Y-110555101D01*
X53055101Y-110130134D01*
X53382503Y-109911371D01*
X53554811Y-109796238D01*
X54110057Y-109566248D01*
X54699501Y-109449000D01*
X55300499Y-109449000D01*
X55889943Y-109566248D01*
X55889943Y-109566248D01*
G37*
G36*
X87286000Y-115353000D02*
G01*
X85434000Y-115353000D01*
X85434000Y-113501000D01*
X87286000Y-113501000D01*
X87286000Y-115353000D01*
X87286000Y-115353000D01*
G37*
G36*
X74130104Y-113536585D02*
G01*
X74298626Y-113606389D01*
X74450291Y-113707728D01*
X74579272Y-113836709D01*
X74680611Y-113988374D01*
X74750415Y-114156896D01*
X74786000Y-114335797D01*
X74786000Y-114518203D01*
X74750415Y-114697104D01*
X74680611Y-114865626D01*
X74579272Y-115017291D01*
X74450291Y-115146272D01*
X74298626Y-115247611D01*
X74130104Y-115317415D01*
X73951203Y-115353000D01*
X73768797Y-115353000D01*
X73589896Y-115317415D01*
X73421374Y-115247611D01*
X73269709Y-115146272D01*
X73140728Y-115017291D01*
X73039389Y-114865626D01*
X72969585Y-114697104D01*
X72934000Y-114518203D01*
X72934000Y-114335797D01*
X72969585Y-114156896D01*
X73039389Y-113988374D01*
X73140728Y-113836709D01*
X73269709Y-113707728D01*
X73421374Y-113606389D01*
X73589896Y-113536585D01*
X73768797Y-113501000D01*
X73951203Y-113501000D01*
X74130104Y-113536585D01*
X74130104Y-113536585D01*
G37*
G36*
X76630104Y-113536585D02*
G01*
X76798626Y-113606389D01*
X76950291Y-113707728D01*
X77079272Y-113836709D01*
X77180611Y-113988374D01*
X77250415Y-114156896D01*
X77286000Y-114335797D01*
X77286000Y-114518203D01*
X77250415Y-114697104D01*
X77180611Y-114865626D01*
X77079272Y-115017291D01*
X76950291Y-115146272D01*
X76798626Y-115247611D01*
X76630104Y-115317415D01*
X76451203Y-115353000D01*
X76268797Y-115353000D01*
X76089896Y-115317415D01*
X75921374Y-115247611D01*
X75769709Y-115146272D01*
X75640728Y-115017291D01*
X75539389Y-114865626D01*
X75469585Y-114697104D01*
X75434000Y-114518203D01*
X75434000Y-114335797D01*
X75469585Y-114156896D01*
X75539389Y-113988374D01*
X75640728Y-113836709D01*
X75769709Y-113707728D01*
X75921374Y-113606389D01*
X76089896Y-113536585D01*
X76268797Y-113501000D01*
X76451203Y-113501000D01*
X76630104Y-113536585D01*
X76630104Y-113536585D01*
G37*
G36*
X79130104Y-113536585D02*
G01*
X79298626Y-113606389D01*
X79450291Y-113707728D01*
X79579272Y-113836709D01*
X79680611Y-113988374D01*
X79750415Y-114156896D01*
X79786000Y-114335797D01*
X79786000Y-114518203D01*
X79750415Y-114697104D01*
X79680611Y-114865626D01*
X79579272Y-115017291D01*
X79450291Y-115146272D01*
X79298626Y-115247611D01*
X79130104Y-115317415D01*
X78951203Y-115353000D01*
X78768797Y-115353000D01*
X78589896Y-115317415D01*
X78421374Y-115247611D01*
X78269709Y-115146272D01*
X78140728Y-115017291D01*
X78039389Y-114865626D01*
X77969585Y-114697104D01*
X77934000Y-114518203D01*
X77934000Y-114335797D01*
X77969585Y-114156896D01*
X78039389Y-113988374D01*
X78140728Y-113836709D01*
X78269709Y-113707728D01*
X78421374Y-113606389D01*
X78589896Y-113536585D01*
X78768797Y-113501000D01*
X78951203Y-113501000D01*
X79130104Y-113536585D01*
X79130104Y-113536585D01*
G37*
G36*
X81630104Y-113536585D02*
G01*
X81798626Y-113606389D01*
X81950291Y-113707728D01*
X82079272Y-113836709D01*
X82180611Y-113988374D01*
X82250415Y-114156896D01*
X82286000Y-114335797D01*
X82286000Y-114518203D01*
X82250415Y-114697104D01*
X82180611Y-114865626D01*
X82079272Y-115017291D01*
X81950291Y-115146272D01*
X81798626Y-115247611D01*
X81630104Y-115317415D01*
X81451203Y-115353000D01*
X81268797Y-115353000D01*
X81089896Y-115317415D01*
X80921374Y-115247611D01*
X80769709Y-115146272D01*
X80640728Y-115017291D01*
X80539389Y-114865626D01*
X80469585Y-114697104D01*
X80434000Y-114518203D01*
X80434000Y-114335797D01*
X80469585Y-114156896D01*
X80539389Y-113988374D01*
X80640728Y-113836709D01*
X80769709Y-113707728D01*
X80921374Y-113606389D01*
X81089896Y-113536585D01*
X81268797Y-113501000D01*
X81451203Y-113501000D01*
X81630104Y-113536585D01*
X81630104Y-113536585D01*
G37*
G36*
X84130104Y-113536585D02*
G01*
X84298626Y-113606389D01*
X84450291Y-113707728D01*
X84579272Y-113836709D01*
X84680611Y-113988374D01*
X84750415Y-114156896D01*
X84786000Y-114335797D01*
X84786000Y-114518203D01*
X84750415Y-114697104D01*
X84680611Y-114865626D01*
X84579272Y-115017291D01*
X84450291Y-115146272D01*
X84298626Y-115247611D01*
X84130104Y-115317415D01*
X83951203Y-115353000D01*
X83768797Y-115353000D01*
X83589896Y-115317415D01*
X83421374Y-115247611D01*
X83269709Y-115146272D01*
X83140728Y-115017291D01*
X83039389Y-114865626D01*
X82969585Y-114697104D01*
X82934000Y-114518203D01*
X82934000Y-114335797D01*
X82969585Y-114156896D01*
X83039389Y-113988374D01*
X83140728Y-113836709D01*
X83269709Y-113707728D01*
X83421374Y-113606389D01*
X83589896Y-113536585D01*
X83768797Y-113501000D01*
X83951203Y-113501000D01*
X84130104Y-113536585D01*
X84130104Y-113536585D01*
G37*
G36*
X105647943Y-109253248D02*
G01*
X106203189Y-109483238D01*
X106327422Y-109566248D01*
X106702899Y-109817134D01*
X107127866Y-110242101D01*
X107127867Y-110242103D01*
X107461762Y-110741811D01*
X107691752Y-111297057D01*
X107809000Y-111886501D01*
X107809000Y-112487499D01*
X107691752Y-113076943D01*
X107461762Y-113632189D01*
X107399872Y-113724814D01*
X107127866Y-114131899D01*
X106702899Y-114556866D01*
X106493018Y-114697104D01*
X106203189Y-114890762D01*
X105647943Y-115120752D01*
X105058499Y-115238000D01*
X104457501Y-115238000D01*
X103868057Y-115120752D01*
X103312811Y-114890762D01*
X103022982Y-114697104D01*
X102813101Y-114556866D01*
X102388134Y-114131899D01*
X102116128Y-113724814D01*
X102054238Y-113632189D01*
X101824248Y-113076943D01*
X101707000Y-112487499D01*
X101707000Y-111886501D01*
X101824248Y-111297057D01*
X102054238Y-110741811D01*
X102388133Y-110242103D01*
X102388134Y-110242101D01*
X102813101Y-109817134D01*
X103188578Y-109566248D01*
X103312811Y-109483238D01*
X103868057Y-109253248D01*
X104457501Y-109136000D01*
X105058499Y-109136000D01*
X105647943Y-109253248D01*
X105647943Y-109253248D01*
G37*
G36*
X105889943Y-72066248D02*
G01*
X106445189Y-72296238D01*
X106617497Y-72411371D01*
X106944899Y-72630134D01*
X107369866Y-73055101D01*
X107369867Y-73055103D01*
X107703762Y-73554811D01*
X107933752Y-74110057D01*
X108051000Y-74699501D01*
X108051000Y-75300499D01*
X107933752Y-75889943D01*
X107703762Y-76445189D01*
X107641872Y-76537814D01*
X107369866Y-76944899D01*
X106944899Y-77369866D01*
X106870736Y-77419420D01*
X106445189Y-77703762D01*
X105889943Y-77933752D01*
X105300499Y-78051000D01*
X104699501Y-78051000D01*
X104110057Y-77933752D01*
X103554811Y-77703762D01*
X103129264Y-77419420D01*
X103055101Y-77369866D01*
X102630134Y-76944899D01*
X102358128Y-76537814D01*
X102296238Y-76445189D01*
X102066248Y-75889943D01*
X101949000Y-75300499D01*
X101949000Y-74699501D01*
X102066248Y-74110057D01*
X102296238Y-73554811D01*
X102630133Y-73055103D01*
X102630134Y-73055101D01*
X103055101Y-72630134D01*
X103382503Y-72411371D01*
X103554811Y-72296238D01*
X104110057Y-72066248D01*
X104699501Y-71949000D01*
X105300499Y-71949000D01*
X105889943Y-72066248D01*
X105889943Y-72066248D01*
G37*
G36*
X55889943Y-72066248D02*
G01*
X56445189Y-72296238D01*
X56617497Y-72411371D01*
X56944899Y-72630134D01*
X57369866Y-73055101D01*
X57369867Y-73055103D01*
X57703762Y-73554811D01*
X57933752Y-74110057D01*
X58051000Y-74699501D01*
X58051000Y-75300499D01*
X57933752Y-75889943D01*
X57703762Y-76445189D01*
X57641872Y-76537814D01*
X57369866Y-76944899D01*
X56944899Y-77369866D01*
X56870736Y-77419420D01*
X56445189Y-77703762D01*
X55889943Y-77933752D01*
X55300499Y-78051000D01*
X54699501Y-78051000D01*
X54110057Y-77933752D01*
X53554811Y-77703762D01*
X53129264Y-77419420D01*
X53055101Y-77369866D01*
X52630134Y-76944899D01*
X52358128Y-76537814D01*
X52296238Y-76445189D01*
X52066248Y-75889943D01*
X51949000Y-75300499D01*
X51949000Y-74699501D01*
X52066248Y-74110057D01*
X52296238Y-73554811D01*
X52630133Y-73055103D01*
X52630134Y-73055101D01*
X53055101Y-72630134D01*
X53382503Y-72411371D01*
X53554811Y-72296238D01*
X54110057Y-72066248D01*
X54699501Y-71949000D01*
X55300499Y-71949000D01*
X55889943Y-72066248D01*
X55889943Y-72066248D01*
G37*
G36*
X51144552Y-67077331D02*
G01*
X51226627Y-67111328D01*
X51226629Y-67111329D01*
X51263813Y-67136175D01*
X51300495Y-67160685D01*
X51363315Y-67223505D01*
X51412672Y-67297373D01*
X51446669Y-67379448D01*
X51464000Y-67466579D01*
X51464000Y-67555421D01*
X51446669Y-67642552D01*
X51412672Y-67724627D01*
X51412671Y-67724629D01*
X51363314Y-67798496D01*
X51300496Y-67861314D01*
X51226629Y-67910671D01*
X51226628Y-67910672D01*
X51226627Y-67910672D01*
X51144552Y-67944669D01*
X51057421Y-67962000D01*
X50968579Y-67962000D01*
X50881448Y-67944669D01*
X50799373Y-67910672D01*
X50799372Y-67910672D01*
X50799371Y-67910671D01*
X50725504Y-67861314D01*
X50662686Y-67798496D01*
X50613329Y-67724629D01*
X50613328Y-67724627D01*
X50579331Y-67642552D01*
X50562000Y-67555421D01*
X50562000Y-67466579D01*
X50579331Y-67379448D01*
X50613328Y-67297373D01*
X50662685Y-67223505D01*
X50725505Y-67160685D01*
X50762187Y-67136175D01*
X50799371Y-67111329D01*
X50799373Y-67111328D01*
X50881448Y-67077331D01*
X50968579Y-67060000D01*
X51057421Y-67060000D01*
X51144552Y-67077331D01*
X51144552Y-67077331D01*
G37*
G36*
X108484552Y-67077331D02*
G01*
X108566627Y-67111328D01*
X108566629Y-67111329D01*
X108603813Y-67136175D01*
X108640495Y-67160685D01*
X108703315Y-67223505D01*
X108752672Y-67297373D01*
X108786669Y-67379448D01*
X108804000Y-67466579D01*
X108804000Y-67555421D01*
X108786669Y-67642552D01*
X108752672Y-67724627D01*
X108752671Y-67724629D01*
X108703314Y-67798496D01*
X108640496Y-67861314D01*
X108566629Y-67910671D01*
X108566628Y-67910672D01*
X108566627Y-67910672D01*
X108484552Y-67944669D01*
X108397421Y-67962000D01*
X108308579Y-67962000D01*
X108221448Y-67944669D01*
X108139373Y-67910672D01*
X108139372Y-67910672D01*
X108139371Y-67910671D01*
X108065504Y-67861314D01*
X108002686Y-67798496D01*
X107953329Y-67724629D01*
X107953328Y-67724627D01*
X107919331Y-67642552D01*
X107902000Y-67555421D01*
X107902000Y-67466579D01*
X107919331Y-67379448D01*
X107953328Y-67297373D01*
X108002685Y-67223505D01*
X108065505Y-67160685D01*
X108102187Y-67136175D01*
X108139371Y-67111329D01*
X108139373Y-67111328D01*
X108221448Y-67077331D01*
X108308579Y-67060000D01*
X108397421Y-67060000D01*
X108484552Y-67077331D01*
X108484552Y-67077331D01*
G37*
G36*
X53144552Y-67077331D02*
G01*
X53226627Y-67111328D01*
X53226629Y-67111329D01*
X53263813Y-67136175D01*
X53300495Y-67160685D01*
X53363315Y-67223505D01*
X53412672Y-67297373D01*
X53446669Y-67379448D01*
X53464000Y-67466579D01*
X53464000Y-67555421D01*
X53446669Y-67642552D01*
X53412672Y-67724627D01*
X53412671Y-67724629D01*
X53363314Y-67798496D01*
X53300496Y-67861314D01*
X53226629Y-67910671D01*
X53226628Y-67910672D01*
X53226627Y-67910672D01*
X53144552Y-67944669D01*
X53057421Y-67962000D01*
X52968579Y-67962000D01*
X52881448Y-67944669D01*
X52799373Y-67910672D01*
X52799372Y-67910672D01*
X52799371Y-67910671D01*
X52725504Y-67861314D01*
X52662686Y-67798496D01*
X52613329Y-67724629D01*
X52613328Y-67724627D01*
X52579331Y-67642552D01*
X52562000Y-67555421D01*
X52562000Y-67466579D01*
X52579331Y-67379448D01*
X52613328Y-67297373D01*
X52662685Y-67223505D01*
X52725505Y-67160685D01*
X52762187Y-67136175D01*
X52799371Y-67111329D01*
X52799373Y-67111328D01*
X52881448Y-67077331D01*
X52968579Y-67060000D01*
X53057421Y-67060000D01*
X53144552Y-67077331D01*
X53144552Y-67077331D01*
G37*
G36*
X55144552Y-67077331D02*
G01*
X55226627Y-67111328D01*
X55226629Y-67111329D01*
X55263813Y-67136175D01*
X55300495Y-67160685D01*
X55363315Y-67223505D01*
X55412672Y-67297373D01*
X55446669Y-67379448D01*
X55464000Y-67466579D01*
X55464000Y-67555421D01*
X55446669Y-67642552D01*
X55412672Y-67724627D01*
X55412671Y-67724629D01*
X55363314Y-67798496D01*
X55300496Y-67861314D01*
X55226629Y-67910671D01*
X55226628Y-67910672D01*
X55226627Y-67910672D01*
X55144552Y-67944669D01*
X55057421Y-67962000D01*
X54968579Y-67962000D01*
X54881448Y-67944669D01*
X54799373Y-67910672D01*
X54799372Y-67910672D01*
X54799371Y-67910671D01*
X54725504Y-67861314D01*
X54662686Y-67798496D01*
X54613329Y-67724629D01*
X54613328Y-67724627D01*
X54579331Y-67642552D01*
X54562000Y-67555421D01*
X54562000Y-67466579D01*
X54579331Y-67379448D01*
X54613328Y-67297373D01*
X54662685Y-67223505D01*
X54725505Y-67160685D01*
X54762187Y-67136175D01*
X54799371Y-67111329D01*
X54799373Y-67111328D01*
X54881448Y-67077331D01*
X54968579Y-67060000D01*
X55057421Y-67060000D01*
X55144552Y-67077331D01*
X55144552Y-67077331D01*
G37*
G36*
X57144552Y-67077331D02*
G01*
X57226627Y-67111328D01*
X57226629Y-67111329D01*
X57263813Y-67136175D01*
X57300495Y-67160685D01*
X57363315Y-67223505D01*
X57412672Y-67297373D01*
X57446669Y-67379448D01*
X57464000Y-67466579D01*
X57464000Y-67555421D01*
X57446669Y-67642552D01*
X57412672Y-67724627D01*
X57412671Y-67724629D01*
X57363314Y-67798496D01*
X57300496Y-67861314D01*
X57226629Y-67910671D01*
X57226628Y-67910672D01*
X57226627Y-67910672D01*
X57144552Y-67944669D01*
X57057421Y-67962000D01*
X56968579Y-67962000D01*
X56881448Y-67944669D01*
X56799373Y-67910672D01*
X56799372Y-67910672D01*
X56799371Y-67910671D01*
X56725504Y-67861314D01*
X56662686Y-67798496D01*
X56613329Y-67724629D01*
X56613328Y-67724627D01*
X56579331Y-67642552D01*
X56562000Y-67555421D01*
X56562000Y-67466579D01*
X56579331Y-67379448D01*
X56613328Y-67297373D01*
X56662685Y-67223505D01*
X56725505Y-67160685D01*
X56762187Y-67136175D01*
X56799371Y-67111329D01*
X56799373Y-67111328D01*
X56881448Y-67077331D01*
X56968579Y-67060000D01*
X57057421Y-67060000D01*
X57144552Y-67077331D01*
X57144552Y-67077331D01*
G37*
G36*
X59144552Y-67077331D02*
G01*
X59226627Y-67111328D01*
X59226629Y-67111329D01*
X59263813Y-67136175D01*
X59300495Y-67160685D01*
X59363315Y-67223505D01*
X59412672Y-67297373D01*
X59446669Y-67379448D01*
X59464000Y-67466579D01*
X59464000Y-67555421D01*
X59446669Y-67642552D01*
X59412672Y-67724627D01*
X59412671Y-67724629D01*
X59363314Y-67798496D01*
X59300496Y-67861314D01*
X59226629Y-67910671D01*
X59226628Y-67910672D01*
X59226627Y-67910672D01*
X59144552Y-67944669D01*
X59057421Y-67962000D01*
X58968579Y-67962000D01*
X58881448Y-67944669D01*
X58799373Y-67910672D01*
X58799372Y-67910672D01*
X58799371Y-67910671D01*
X58725504Y-67861314D01*
X58662686Y-67798496D01*
X58613329Y-67724629D01*
X58613328Y-67724627D01*
X58579331Y-67642552D01*
X58562000Y-67555421D01*
X58562000Y-67466579D01*
X58579331Y-67379448D01*
X58613328Y-67297373D01*
X58662685Y-67223505D01*
X58725505Y-67160685D01*
X58762187Y-67136175D01*
X58799371Y-67111329D01*
X58799373Y-67111328D01*
X58881448Y-67077331D01*
X58968579Y-67060000D01*
X59057421Y-67060000D01*
X59144552Y-67077331D01*
X59144552Y-67077331D01*
G37*
G36*
X98484552Y-67077331D02*
G01*
X98566627Y-67111328D01*
X98566629Y-67111329D01*
X98603813Y-67136175D01*
X98640495Y-67160685D01*
X98703315Y-67223505D01*
X98752672Y-67297373D01*
X98786669Y-67379448D01*
X98804000Y-67466579D01*
X98804000Y-67555421D01*
X98786669Y-67642552D01*
X98752672Y-67724627D01*
X98752671Y-67724629D01*
X98703314Y-67798496D01*
X98640496Y-67861314D01*
X98566629Y-67910671D01*
X98566628Y-67910672D01*
X98566627Y-67910672D01*
X98484552Y-67944669D01*
X98397421Y-67962000D01*
X98308579Y-67962000D01*
X98221448Y-67944669D01*
X98139373Y-67910672D01*
X98139372Y-67910672D01*
X98139371Y-67910671D01*
X98065504Y-67861314D01*
X98002686Y-67798496D01*
X97953329Y-67724629D01*
X97953328Y-67724627D01*
X97919331Y-67642552D01*
X97902000Y-67555421D01*
X97902000Y-67466579D01*
X97919331Y-67379448D01*
X97953328Y-67297373D01*
X98002685Y-67223505D01*
X98065505Y-67160685D01*
X98102187Y-67136175D01*
X98139371Y-67111329D01*
X98139373Y-67111328D01*
X98221448Y-67077331D01*
X98308579Y-67060000D01*
X98397421Y-67060000D01*
X98484552Y-67077331D01*
X98484552Y-67077331D01*
G37*
G36*
X100484552Y-67077331D02*
G01*
X100566627Y-67111328D01*
X100566629Y-67111329D01*
X100603813Y-67136175D01*
X100640495Y-67160685D01*
X100703315Y-67223505D01*
X100752672Y-67297373D01*
X100786669Y-67379448D01*
X100804000Y-67466579D01*
X100804000Y-67555421D01*
X100786669Y-67642552D01*
X100752672Y-67724627D01*
X100752671Y-67724629D01*
X100703314Y-67798496D01*
X100640496Y-67861314D01*
X100566629Y-67910671D01*
X100566628Y-67910672D01*
X100566627Y-67910672D01*
X100484552Y-67944669D01*
X100397421Y-67962000D01*
X100308579Y-67962000D01*
X100221448Y-67944669D01*
X100139373Y-67910672D01*
X100139372Y-67910672D01*
X100139371Y-67910671D01*
X100065504Y-67861314D01*
X100002686Y-67798496D01*
X99953329Y-67724629D01*
X99953328Y-67724627D01*
X99919331Y-67642552D01*
X99902000Y-67555421D01*
X99902000Y-67466579D01*
X99919331Y-67379448D01*
X99953328Y-67297373D01*
X100002685Y-67223505D01*
X100065505Y-67160685D01*
X100102187Y-67136175D01*
X100139371Y-67111329D01*
X100139373Y-67111328D01*
X100221448Y-67077331D01*
X100308579Y-67060000D01*
X100397421Y-67060000D01*
X100484552Y-67077331D01*
X100484552Y-67077331D01*
G37*
G36*
X106484552Y-67077331D02*
G01*
X106566627Y-67111328D01*
X106566629Y-67111329D01*
X106603813Y-67136175D01*
X106640495Y-67160685D01*
X106703315Y-67223505D01*
X106752672Y-67297373D01*
X106786669Y-67379448D01*
X106804000Y-67466579D01*
X106804000Y-67555421D01*
X106786669Y-67642552D01*
X106752672Y-67724627D01*
X106752671Y-67724629D01*
X106703314Y-67798496D01*
X106640496Y-67861314D01*
X106566629Y-67910671D01*
X106566628Y-67910672D01*
X106566627Y-67910672D01*
X106484552Y-67944669D01*
X106397421Y-67962000D01*
X106308579Y-67962000D01*
X106221448Y-67944669D01*
X106139373Y-67910672D01*
X106139372Y-67910672D01*
X106139371Y-67910671D01*
X106065504Y-67861314D01*
X106002686Y-67798496D01*
X105953329Y-67724629D01*
X105953328Y-67724627D01*
X105919331Y-67642552D01*
X105902000Y-67555421D01*
X105902000Y-67466579D01*
X105919331Y-67379448D01*
X105953328Y-67297373D01*
X106002685Y-67223505D01*
X106065505Y-67160685D01*
X106102187Y-67136175D01*
X106139371Y-67111329D01*
X106139373Y-67111328D01*
X106221448Y-67077331D01*
X106308579Y-67060000D01*
X106397421Y-67060000D01*
X106484552Y-67077331D01*
X106484552Y-67077331D01*
G37*
G36*
X104484552Y-67077331D02*
G01*
X104566627Y-67111328D01*
X104566629Y-67111329D01*
X104603813Y-67136175D01*
X104640495Y-67160685D01*
X104703315Y-67223505D01*
X104752672Y-67297373D01*
X104786669Y-67379448D01*
X104804000Y-67466579D01*
X104804000Y-67555421D01*
X104786669Y-67642552D01*
X104752672Y-67724627D01*
X104752671Y-67724629D01*
X104703314Y-67798496D01*
X104640496Y-67861314D01*
X104566629Y-67910671D01*
X104566628Y-67910672D01*
X104566627Y-67910672D01*
X104484552Y-67944669D01*
X104397421Y-67962000D01*
X104308579Y-67962000D01*
X104221448Y-67944669D01*
X104139373Y-67910672D01*
X104139372Y-67910672D01*
X104139371Y-67910671D01*
X104065504Y-67861314D01*
X104002686Y-67798496D01*
X103953329Y-67724629D01*
X103953328Y-67724627D01*
X103919331Y-67642552D01*
X103902000Y-67555421D01*
X103902000Y-67466579D01*
X103919331Y-67379448D01*
X103953328Y-67297373D01*
X104002685Y-67223505D01*
X104065505Y-67160685D01*
X104102187Y-67136175D01*
X104139371Y-67111329D01*
X104139373Y-67111328D01*
X104221448Y-67077331D01*
X104308579Y-67060000D01*
X104397421Y-67060000D01*
X104484552Y-67077331D01*
X104484552Y-67077331D01*
G37*
G36*
X102484552Y-67077331D02*
G01*
X102566627Y-67111328D01*
X102566629Y-67111329D01*
X102603813Y-67136175D01*
X102640495Y-67160685D01*
X102703315Y-67223505D01*
X102752672Y-67297373D01*
X102786669Y-67379448D01*
X102804000Y-67466579D01*
X102804000Y-67555421D01*
X102786669Y-67642552D01*
X102752672Y-67724627D01*
X102752671Y-67724629D01*
X102703314Y-67798496D01*
X102640496Y-67861314D01*
X102566629Y-67910671D01*
X102566628Y-67910672D01*
X102566627Y-67910672D01*
X102484552Y-67944669D01*
X102397421Y-67962000D01*
X102308579Y-67962000D01*
X102221448Y-67944669D01*
X102139373Y-67910672D01*
X102139372Y-67910672D01*
X102139371Y-67910671D01*
X102065504Y-67861314D01*
X102002686Y-67798496D01*
X101953329Y-67724629D01*
X101953328Y-67724627D01*
X101919331Y-67642552D01*
X101902000Y-67555421D01*
X101902000Y-67466579D01*
X101919331Y-67379448D01*
X101953328Y-67297373D01*
X102002685Y-67223505D01*
X102065505Y-67160685D01*
X102102187Y-67136175D01*
X102139371Y-67111329D01*
X102139373Y-67111328D01*
X102221448Y-67077331D01*
X102308579Y-67060000D01*
X102397421Y-67060000D01*
X102484552Y-67077331D01*
X102484552Y-67077331D01*
G37*
G36*
X61144552Y-67077331D02*
G01*
X61226627Y-67111328D01*
X61226629Y-67111329D01*
X61263813Y-67136175D01*
X61300495Y-67160685D01*
X61363315Y-67223505D01*
X61412672Y-67297373D01*
X61446669Y-67379448D01*
X61464000Y-67466579D01*
X61464000Y-67555421D01*
X61446669Y-67642552D01*
X61412672Y-67724627D01*
X61412671Y-67724629D01*
X61363314Y-67798496D01*
X61300496Y-67861314D01*
X61226629Y-67910671D01*
X61226628Y-67910672D01*
X61226627Y-67910672D01*
X61144552Y-67944669D01*
X61057421Y-67962000D01*
X60968579Y-67962000D01*
X60881448Y-67944669D01*
X60799373Y-67910672D01*
X60799372Y-67910672D01*
X60799371Y-67910671D01*
X60725504Y-67861314D01*
X60662686Y-67798496D01*
X60613329Y-67724629D01*
X60613328Y-67724627D01*
X60579331Y-67642552D01*
X60562000Y-67555421D01*
X60562000Y-67466579D01*
X60579331Y-67379448D01*
X60613328Y-67297373D01*
X60662685Y-67223505D01*
X60725505Y-67160685D01*
X60762187Y-67136175D01*
X60799371Y-67111329D01*
X60799373Y-67111328D01*
X60881448Y-67077331D01*
X60968579Y-67060000D01*
X61057421Y-67060000D01*
X61144552Y-67077331D01*
X61144552Y-67077331D01*
G37*
G36*
X106484552Y-65299331D02*
G01*
X106566627Y-65333328D01*
X106566629Y-65333329D01*
X106603813Y-65358175D01*
X106640495Y-65382685D01*
X106703315Y-65445505D01*
X106752672Y-65519373D01*
X106786669Y-65601448D01*
X106804000Y-65688579D01*
X106804000Y-65777421D01*
X106786669Y-65864552D01*
X106752672Y-65946627D01*
X106752671Y-65946629D01*
X106703314Y-66020496D01*
X106640496Y-66083314D01*
X106566629Y-66132671D01*
X106566628Y-66132672D01*
X106566627Y-66132672D01*
X106484552Y-66166669D01*
X106397421Y-66184000D01*
X106308579Y-66184000D01*
X106221448Y-66166669D01*
X106139373Y-66132672D01*
X106139372Y-66132672D01*
X106139371Y-66132671D01*
X106065504Y-66083314D01*
X106002686Y-66020496D01*
X105953329Y-65946629D01*
X105953328Y-65946627D01*
X105919331Y-65864552D01*
X105902000Y-65777421D01*
X105902000Y-65688579D01*
X105919331Y-65601448D01*
X105953328Y-65519373D01*
X106002685Y-65445505D01*
X106065505Y-65382685D01*
X106102187Y-65358175D01*
X106139371Y-65333329D01*
X106139373Y-65333328D01*
X106221448Y-65299331D01*
X106308579Y-65282000D01*
X106397421Y-65282000D01*
X106484552Y-65299331D01*
X106484552Y-65299331D01*
G37*
G36*
X98484552Y-65299331D02*
G01*
X98566627Y-65333328D01*
X98566629Y-65333329D01*
X98603813Y-65358175D01*
X98640495Y-65382685D01*
X98703315Y-65445505D01*
X98752672Y-65519373D01*
X98786669Y-65601448D01*
X98804000Y-65688579D01*
X98804000Y-65777421D01*
X98786669Y-65864552D01*
X98752672Y-65946627D01*
X98752671Y-65946629D01*
X98703314Y-66020496D01*
X98640496Y-66083314D01*
X98566629Y-66132671D01*
X98566628Y-66132672D01*
X98566627Y-66132672D01*
X98484552Y-66166669D01*
X98397421Y-66184000D01*
X98308579Y-66184000D01*
X98221448Y-66166669D01*
X98139373Y-66132672D01*
X98139372Y-66132672D01*
X98139371Y-66132671D01*
X98065504Y-66083314D01*
X98002686Y-66020496D01*
X97953329Y-65946629D01*
X97953328Y-65946627D01*
X97919331Y-65864552D01*
X97902000Y-65777421D01*
X97902000Y-65688579D01*
X97919331Y-65601448D01*
X97953328Y-65519373D01*
X98002685Y-65445505D01*
X98065505Y-65382685D01*
X98102187Y-65358175D01*
X98139371Y-65333329D01*
X98139373Y-65333328D01*
X98221448Y-65299331D01*
X98308579Y-65282000D01*
X98397421Y-65282000D01*
X98484552Y-65299331D01*
X98484552Y-65299331D01*
G37*
G36*
X61144552Y-65299331D02*
G01*
X61226627Y-65333328D01*
X61226629Y-65333329D01*
X61263813Y-65358175D01*
X61300495Y-65382685D01*
X61363315Y-65445505D01*
X61412672Y-65519373D01*
X61446669Y-65601448D01*
X61464000Y-65688579D01*
X61464000Y-65777421D01*
X61446669Y-65864552D01*
X61412672Y-65946627D01*
X61412671Y-65946629D01*
X61363314Y-66020496D01*
X61300496Y-66083314D01*
X61226629Y-66132671D01*
X61226628Y-66132672D01*
X61226627Y-66132672D01*
X61144552Y-66166669D01*
X61057421Y-66184000D01*
X60968579Y-66184000D01*
X60881448Y-66166669D01*
X60799373Y-66132672D01*
X60799372Y-66132672D01*
X60799371Y-66132671D01*
X60725504Y-66083314D01*
X60662686Y-66020496D01*
X60613329Y-65946629D01*
X60613328Y-65946627D01*
X60579331Y-65864552D01*
X60562000Y-65777421D01*
X60562000Y-65688579D01*
X60579331Y-65601448D01*
X60613328Y-65519373D01*
X60662685Y-65445505D01*
X60725505Y-65382685D01*
X60762187Y-65358175D01*
X60799371Y-65333329D01*
X60799373Y-65333328D01*
X60881448Y-65299331D01*
X60968579Y-65282000D01*
X61057421Y-65282000D01*
X61144552Y-65299331D01*
X61144552Y-65299331D01*
G37*
G36*
X59144552Y-65299331D02*
G01*
X59226627Y-65333328D01*
X59226629Y-65333329D01*
X59263813Y-65358175D01*
X59300495Y-65382685D01*
X59363315Y-65445505D01*
X59412672Y-65519373D01*
X59446669Y-65601448D01*
X59464000Y-65688579D01*
X59464000Y-65777421D01*
X59446669Y-65864552D01*
X59412672Y-65946627D01*
X59412671Y-65946629D01*
X59363314Y-66020496D01*
X59300496Y-66083314D01*
X59226629Y-66132671D01*
X59226628Y-66132672D01*
X59226627Y-66132672D01*
X59144552Y-66166669D01*
X59057421Y-66184000D01*
X58968579Y-66184000D01*
X58881448Y-66166669D01*
X58799373Y-66132672D01*
X58799372Y-66132672D01*
X58799371Y-66132671D01*
X58725504Y-66083314D01*
X58662686Y-66020496D01*
X58613329Y-65946629D01*
X58613328Y-65946627D01*
X58579331Y-65864552D01*
X58562000Y-65777421D01*
X58562000Y-65688579D01*
X58579331Y-65601448D01*
X58613328Y-65519373D01*
X58662685Y-65445505D01*
X58725505Y-65382685D01*
X58762187Y-65358175D01*
X58799371Y-65333329D01*
X58799373Y-65333328D01*
X58881448Y-65299331D01*
X58968579Y-65282000D01*
X59057421Y-65282000D01*
X59144552Y-65299331D01*
X59144552Y-65299331D01*
G37*
G36*
X57144552Y-65299331D02*
G01*
X57226627Y-65333328D01*
X57226629Y-65333329D01*
X57263813Y-65358175D01*
X57300495Y-65382685D01*
X57363315Y-65445505D01*
X57412672Y-65519373D01*
X57446669Y-65601448D01*
X57464000Y-65688579D01*
X57464000Y-65777421D01*
X57446669Y-65864552D01*
X57412672Y-65946627D01*
X57412671Y-65946629D01*
X57363314Y-66020496D01*
X57300496Y-66083314D01*
X57226629Y-66132671D01*
X57226628Y-66132672D01*
X57226627Y-66132672D01*
X57144552Y-66166669D01*
X57057421Y-66184000D01*
X56968579Y-66184000D01*
X56881448Y-66166669D01*
X56799373Y-66132672D01*
X56799372Y-66132672D01*
X56799371Y-66132671D01*
X56725504Y-66083314D01*
X56662686Y-66020496D01*
X56613329Y-65946629D01*
X56613328Y-65946627D01*
X56579331Y-65864552D01*
X56562000Y-65777421D01*
X56562000Y-65688579D01*
X56579331Y-65601448D01*
X56613328Y-65519373D01*
X56662685Y-65445505D01*
X56725505Y-65382685D01*
X56762187Y-65358175D01*
X56799371Y-65333329D01*
X56799373Y-65333328D01*
X56881448Y-65299331D01*
X56968579Y-65282000D01*
X57057421Y-65282000D01*
X57144552Y-65299331D01*
X57144552Y-65299331D01*
G37*
G36*
X108484552Y-65299331D02*
G01*
X108566627Y-65333328D01*
X108566629Y-65333329D01*
X108603813Y-65358175D01*
X108640495Y-65382685D01*
X108703315Y-65445505D01*
X108752672Y-65519373D01*
X108786669Y-65601448D01*
X108804000Y-65688579D01*
X108804000Y-65777421D01*
X108786669Y-65864552D01*
X108752672Y-65946627D01*
X108752671Y-65946629D01*
X108703314Y-66020496D01*
X108640496Y-66083314D01*
X108566629Y-66132671D01*
X108566628Y-66132672D01*
X108566627Y-66132672D01*
X108484552Y-66166669D01*
X108397421Y-66184000D01*
X108308579Y-66184000D01*
X108221448Y-66166669D01*
X108139373Y-66132672D01*
X108139372Y-66132672D01*
X108139371Y-66132671D01*
X108065504Y-66083314D01*
X108002686Y-66020496D01*
X107953329Y-65946629D01*
X107953328Y-65946627D01*
X107919331Y-65864552D01*
X107902000Y-65777421D01*
X107902000Y-65688579D01*
X107919331Y-65601448D01*
X107953328Y-65519373D01*
X108002685Y-65445505D01*
X108065505Y-65382685D01*
X108102187Y-65358175D01*
X108139371Y-65333329D01*
X108139373Y-65333328D01*
X108221448Y-65299331D01*
X108308579Y-65282000D01*
X108397421Y-65282000D01*
X108484552Y-65299331D01*
X108484552Y-65299331D01*
G37*
G36*
X104484552Y-65299331D02*
G01*
X104566627Y-65333328D01*
X104566629Y-65333329D01*
X104603813Y-65358175D01*
X104640495Y-65382685D01*
X104703315Y-65445505D01*
X104752672Y-65519373D01*
X104786669Y-65601448D01*
X104804000Y-65688579D01*
X104804000Y-65777421D01*
X104786669Y-65864552D01*
X104752672Y-65946627D01*
X104752671Y-65946629D01*
X104703314Y-66020496D01*
X104640496Y-66083314D01*
X104566629Y-66132671D01*
X104566628Y-66132672D01*
X104566627Y-66132672D01*
X104484552Y-66166669D01*
X104397421Y-66184000D01*
X104308579Y-66184000D01*
X104221448Y-66166669D01*
X104139373Y-66132672D01*
X104139372Y-66132672D01*
X104139371Y-66132671D01*
X104065504Y-66083314D01*
X104002686Y-66020496D01*
X103953329Y-65946629D01*
X103953328Y-65946627D01*
X103919331Y-65864552D01*
X103902000Y-65777421D01*
X103902000Y-65688579D01*
X103919331Y-65601448D01*
X103953328Y-65519373D01*
X104002685Y-65445505D01*
X104065505Y-65382685D01*
X104102187Y-65358175D01*
X104139371Y-65333329D01*
X104139373Y-65333328D01*
X104221448Y-65299331D01*
X104308579Y-65282000D01*
X104397421Y-65282000D01*
X104484552Y-65299331D01*
X104484552Y-65299331D01*
G37*
G36*
X102484552Y-65299331D02*
G01*
X102566627Y-65333328D01*
X102566629Y-65333329D01*
X102603813Y-65358175D01*
X102640495Y-65382685D01*
X102703315Y-65445505D01*
X102752672Y-65519373D01*
X102786669Y-65601448D01*
X102804000Y-65688579D01*
X102804000Y-65777421D01*
X102786669Y-65864552D01*
X102752672Y-65946627D01*
X102752671Y-65946629D01*
X102703314Y-66020496D01*
X102640496Y-66083314D01*
X102566629Y-66132671D01*
X102566628Y-66132672D01*
X102566627Y-66132672D01*
X102484552Y-66166669D01*
X102397421Y-66184000D01*
X102308579Y-66184000D01*
X102221448Y-66166669D01*
X102139373Y-66132672D01*
X102139372Y-66132672D01*
X102139371Y-66132671D01*
X102065504Y-66083314D01*
X102002686Y-66020496D01*
X101953329Y-65946629D01*
X101953328Y-65946627D01*
X101919331Y-65864552D01*
X101902000Y-65777421D01*
X101902000Y-65688579D01*
X101919331Y-65601448D01*
X101953328Y-65519373D01*
X102002685Y-65445505D01*
X102065505Y-65382685D01*
X102102187Y-65358175D01*
X102139371Y-65333329D01*
X102139373Y-65333328D01*
X102221448Y-65299331D01*
X102308579Y-65282000D01*
X102397421Y-65282000D01*
X102484552Y-65299331D01*
X102484552Y-65299331D01*
G37*
G36*
X100484552Y-65299331D02*
G01*
X100566627Y-65333328D01*
X100566629Y-65333329D01*
X100603813Y-65358175D01*
X100640495Y-65382685D01*
X100703315Y-65445505D01*
X100752672Y-65519373D01*
X100786669Y-65601448D01*
X100804000Y-65688579D01*
X100804000Y-65777421D01*
X100786669Y-65864552D01*
X100752672Y-65946627D01*
X100752671Y-65946629D01*
X100703314Y-66020496D01*
X100640496Y-66083314D01*
X100566629Y-66132671D01*
X100566628Y-66132672D01*
X100566627Y-66132672D01*
X100484552Y-66166669D01*
X100397421Y-66184000D01*
X100308579Y-66184000D01*
X100221448Y-66166669D01*
X100139373Y-66132672D01*
X100139372Y-66132672D01*
X100139371Y-66132671D01*
X100065504Y-66083314D01*
X100002686Y-66020496D01*
X99953329Y-65946629D01*
X99953328Y-65946627D01*
X99919331Y-65864552D01*
X99902000Y-65777421D01*
X99902000Y-65688579D01*
X99919331Y-65601448D01*
X99953328Y-65519373D01*
X100002685Y-65445505D01*
X100065505Y-65382685D01*
X100102187Y-65358175D01*
X100139371Y-65333329D01*
X100139373Y-65333328D01*
X100221448Y-65299331D01*
X100308579Y-65282000D01*
X100397421Y-65282000D01*
X100484552Y-65299331D01*
X100484552Y-65299331D01*
G37*
G36*
X55144552Y-65299331D02*
G01*
X55226627Y-65333328D01*
X55226629Y-65333329D01*
X55263813Y-65358175D01*
X55300495Y-65382685D01*
X55363315Y-65445505D01*
X55412672Y-65519373D01*
X55446669Y-65601448D01*
X55464000Y-65688579D01*
X55464000Y-65777421D01*
X55446669Y-65864552D01*
X55412672Y-65946627D01*
X55412671Y-65946629D01*
X55363314Y-66020496D01*
X55300496Y-66083314D01*
X55226629Y-66132671D01*
X55226628Y-66132672D01*
X55226627Y-66132672D01*
X55144552Y-66166669D01*
X55057421Y-66184000D01*
X54968579Y-66184000D01*
X54881448Y-66166669D01*
X54799373Y-66132672D01*
X54799372Y-66132672D01*
X54799371Y-66132671D01*
X54725504Y-66083314D01*
X54662686Y-66020496D01*
X54613329Y-65946629D01*
X54613328Y-65946627D01*
X54579331Y-65864552D01*
X54562000Y-65777421D01*
X54562000Y-65688579D01*
X54579331Y-65601448D01*
X54613328Y-65519373D01*
X54662685Y-65445505D01*
X54725505Y-65382685D01*
X54762187Y-65358175D01*
X54799371Y-65333329D01*
X54799373Y-65333328D01*
X54881448Y-65299331D01*
X54968579Y-65282000D01*
X55057421Y-65282000D01*
X55144552Y-65299331D01*
X55144552Y-65299331D01*
G37*
G36*
X53144552Y-65299331D02*
G01*
X53226627Y-65333328D01*
X53226629Y-65333329D01*
X53263813Y-65358175D01*
X53300495Y-65382685D01*
X53363315Y-65445505D01*
X53412672Y-65519373D01*
X53446669Y-65601448D01*
X53464000Y-65688579D01*
X53464000Y-65777421D01*
X53446669Y-65864552D01*
X53412672Y-65946627D01*
X53412671Y-65946629D01*
X53363314Y-66020496D01*
X53300496Y-66083314D01*
X53226629Y-66132671D01*
X53226628Y-66132672D01*
X53226627Y-66132672D01*
X53144552Y-66166669D01*
X53057421Y-66184000D01*
X52968579Y-66184000D01*
X52881448Y-66166669D01*
X52799373Y-66132672D01*
X52799372Y-66132672D01*
X52799371Y-66132671D01*
X52725504Y-66083314D01*
X52662686Y-66020496D01*
X52613329Y-65946629D01*
X52613328Y-65946627D01*
X52579331Y-65864552D01*
X52562000Y-65777421D01*
X52562000Y-65688579D01*
X52579331Y-65601448D01*
X52613328Y-65519373D01*
X52662685Y-65445505D01*
X52725505Y-65382685D01*
X52762187Y-65358175D01*
X52799371Y-65333329D01*
X52799373Y-65333328D01*
X52881448Y-65299331D01*
X52968579Y-65282000D01*
X53057421Y-65282000D01*
X53144552Y-65299331D01*
X53144552Y-65299331D01*
G37*
G36*
X51144552Y-65299331D02*
G01*
X51226627Y-65333328D01*
X51226629Y-65333329D01*
X51263813Y-65358175D01*
X51300495Y-65382685D01*
X51363315Y-65445505D01*
X51412672Y-65519373D01*
X51446669Y-65601448D01*
X51464000Y-65688579D01*
X51464000Y-65777421D01*
X51446669Y-65864552D01*
X51412672Y-65946627D01*
X51412671Y-65946629D01*
X51363314Y-66020496D01*
X51300496Y-66083314D01*
X51226629Y-66132671D01*
X51226628Y-66132672D01*
X51226627Y-66132672D01*
X51144552Y-66166669D01*
X51057421Y-66184000D01*
X50968579Y-66184000D01*
X50881448Y-66166669D01*
X50799373Y-66132672D01*
X50799372Y-66132672D01*
X50799371Y-66132671D01*
X50725504Y-66083314D01*
X50662686Y-66020496D01*
X50613329Y-65946629D01*
X50613328Y-65946627D01*
X50579331Y-65864552D01*
X50562000Y-65777421D01*
X50562000Y-65688579D01*
X50579331Y-65601448D01*
X50613328Y-65519373D01*
X50662685Y-65445505D01*
X50725505Y-65382685D01*
X50762187Y-65358175D01*
X50799371Y-65333329D01*
X50799373Y-65333328D01*
X50881448Y-65299331D01*
X50968579Y-65282000D01*
X51057421Y-65282000D01*
X51144552Y-65299331D01*
X51144552Y-65299331D01*
G37*
G36*
X106484552Y-63521331D02*
G01*
X106566627Y-63555328D01*
X106566629Y-63555329D01*
X106603813Y-63580175D01*
X106640495Y-63604685D01*
X106703315Y-63667505D01*
X106752672Y-63741373D01*
X106786669Y-63823448D01*
X106804000Y-63910579D01*
X106804000Y-63999421D01*
X106786669Y-64086552D01*
X106752672Y-64168627D01*
X106752671Y-64168629D01*
X106703314Y-64242496D01*
X106640496Y-64305314D01*
X106566629Y-64354671D01*
X106566628Y-64354672D01*
X106566627Y-64354672D01*
X106484552Y-64388669D01*
X106397421Y-64406000D01*
X106308579Y-64406000D01*
X106221448Y-64388669D01*
X106139373Y-64354672D01*
X106139372Y-64354672D01*
X106139371Y-64354671D01*
X106065504Y-64305314D01*
X106002686Y-64242496D01*
X105953329Y-64168629D01*
X105953328Y-64168627D01*
X105919331Y-64086552D01*
X105902000Y-63999421D01*
X105902000Y-63910579D01*
X105919331Y-63823448D01*
X105953328Y-63741373D01*
X106002685Y-63667505D01*
X106065505Y-63604685D01*
X106102187Y-63580175D01*
X106139371Y-63555329D01*
X106139373Y-63555328D01*
X106221448Y-63521331D01*
X106308579Y-63504000D01*
X106397421Y-63504000D01*
X106484552Y-63521331D01*
X106484552Y-63521331D01*
G37*
G36*
X51144552Y-63521331D02*
G01*
X51226627Y-63555328D01*
X51226629Y-63555329D01*
X51263813Y-63580175D01*
X51300495Y-63604685D01*
X51363315Y-63667505D01*
X51412672Y-63741373D01*
X51446669Y-63823448D01*
X51464000Y-63910579D01*
X51464000Y-63999421D01*
X51446669Y-64086552D01*
X51412672Y-64168627D01*
X51412671Y-64168629D01*
X51363314Y-64242496D01*
X51300496Y-64305314D01*
X51226629Y-64354671D01*
X51226628Y-64354672D01*
X51226627Y-64354672D01*
X51144552Y-64388669D01*
X51057421Y-64406000D01*
X50968579Y-64406000D01*
X50881448Y-64388669D01*
X50799373Y-64354672D01*
X50799372Y-64354672D01*
X50799371Y-64354671D01*
X50725504Y-64305314D01*
X50662686Y-64242496D01*
X50613329Y-64168629D01*
X50613328Y-64168627D01*
X50579331Y-64086552D01*
X50562000Y-63999421D01*
X50562000Y-63910579D01*
X50579331Y-63823448D01*
X50613328Y-63741373D01*
X50662685Y-63667505D01*
X50725505Y-63604685D01*
X50762187Y-63580175D01*
X50799371Y-63555329D01*
X50799373Y-63555328D01*
X50881448Y-63521331D01*
X50968579Y-63504000D01*
X51057421Y-63504000D01*
X51144552Y-63521331D01*
X51144552Y-63521331D01*
G37*
G36*
X53144552Y-63521331D02*
G01*
X53226627Y-63555328D01*
X53226629Y-63555329D01*
X53263813Y-63580175D01*
X53300495Y-63604685D01*
X53363315Y-63667505D01*
X53412672Y-63741373D01*
X53446669Y-63823448D01*
X53464000Y-63910579D01*
X53464000Y-63999421D01*
X53446669Y-64086552D01*
X53412672Y-64168627D01*
X53412671Y-64168629D01*
X53363314Y-64242496D01*
X53300496Y-64305314D01*
X53226629Y-64354671D01*
X53226628Y-64354672D01*
X53226627Y-64354672D01*
X53144552Y-64388669D01*
X53057421Y-64406000D01*
X52968579Y-64406000D01*
X52881448Y-64388669D01*
X52799373Y-64354672D01*
X52799372Y-64354672D01*
X52799371Y-64354671D01*
X52725504Y-64305314D01*
X52662686Y-64242496D01*
X52613329Y-64168629D01*
X52613328Y-64168627D01*
X52579331Y-64086552D01*
X52562000Y-63999421D01*
X52562000Y-63910579D01*
X52579331Y-63823448D01*
X52613328Y-63741373D01*
X52662685Y-63667505D01*
X52725505Y-63604685D01*
X52762187Y-63580175D01*
X52799371Y-63555329D01*
X52799373Y-63555328D01*
X52881448Y-63521331D01*
X52968579Y-63504000D01*
X53057421Y-63504000D01*
X53144552Y-63521331D01*
X53144552Y-63521331D01*
G37*
G36*
X55144552Y-63521331D02*
G01*
X55226627Y-63555328D01*
X55226629Y-63555329D01*
X55263813Y-63580175D01*
X55300495Y-63604685D01*
X55363315Y-63667505D01*
X55412672Y-63741373D01*
X55446669Y-63823448D01*
X55464000Y-63910579D01*
X55464000Y-63999421D01*
X55446669Y-64086552D01*
X55412672Y-64168627D01*
X55412671Y-64168629D01*
X55363314Y-64242496D01*
X55300496Y-64305314D01*
X55226629Y-64354671D01*
X55226628Y-64354672D01*
X55226627Y-64354672D01*
X55144552Y-64388669D01*
X55057421Y-64406000D01*
X54968579Y-64406000D01*
X54881448Y-64388669D01*
X54799373Y-64354672D01*
X54799372Y-64354672D01*
X54799371Y-64354671D01*
X54725504Y-64305314D01*
X54662686Y-64242496D01*
X54613329Y-64168629D01*
X54613328Y-64168627D01*
X54579331Y-64086552D01*
X54562000Y-63999421D01*
X54562000Y-63910579D01*
X54579331Y-63823448D01*
X54613328Y-63741373D01*
X54662685Y-63667505D01*
X54725505Y-63604685D01*
X54762187Y-63580175D01*
X54799371Y-63555329D01*
X54799373Y-63555328D01*
X54881448Y-63521331D01*
X54968579Y-63504000D01*
X55057421Y-63504000D01*
X55144552Y-63521331D01*
X55144552Y-63521331D01*
G37*
G36*
X57144552Y-63521331D02*
G01*
X57226627Y-63555328D01*
X57226629Y-63555329D01*
X57263813Y-63580175D01*
X57300495Y-63604685D01*
X57363315Y-63667505D01*
X57412672Y-63741373D01*
X57446669Y-63823448D01*
X57464000Y-63910579D01*
X57464000Y-63999421D01*
X57446669Y-64086552D01*
X57412672Y-64168627D01*
X57412671Y-64168629D01*
X57363314Y-64242496D01*
X57300496Y-64305314D01*
X57226629Y-64354671D01*
X57226628Y-64354672D01*
X57226627Y-64354672D01*
X57144552Y-64388669D01*
X57057421Y-64406000D01*
X56968579Y-64406000D01*
X56881448Y-64388669D01*
X56799373Y-64354672D01*
X56799372Y-64354672D01*
X56799371Y-64354671D01*
X56725504Y-64305314D01*
X56662686Y-64242496D01*
X56613329Y-64168629D01*
X56613328Y-64168627D01*
X56579331Y-64086552D01*
X56562000Y-63999421D01*
X56562000Y-63910579D01*
X56579331Y-63823448D01*
X56613328Y-63741373D01*
X56662685Y-63667505D01*
X56725505Y-63604685D01*
X56762187Y-63580175D01*
X56799371Y-63555329D01*
X56799373Y-63555328D01*
X56881448Y-63521331D01*
X56968579Y-63504000D01*
X57057421Y-63504000D01*
X57144552Y-63521331D01*
X57144552Y-63521331D01*
G37*
G36*
X59144552Y-63521331D02*
G01*
X59226627Y-63555328D01*
X59226629Y-63555329D01*
X59263813Y-63580175D01*
X59300495Y-63604685D01*
X59363315Y-63667505D01*
X59412672Y-63741373D01*
X59446669Y-63823448D01*
X59464000Y-63910579D01*
X59464000Y-63999421D01*
X59446669Y-64086552D01*
X59412672Y-64168627D01*
X59412671Y-64168629D01*
X59363314Y-64242496D01*
X59300496Y-64305314D01*
X59226629Y-64354671D01*
X59226628Y-64354672D01*
X59226627Y-64354672D01*
X59144552Y-64388669D01*
X59057421Y-64406000D01*
X58968579Y-64406000D01*
X58881448Y-64388669D01*
X58799373Y-64354672D01*
X58799372Y-64354672D01*
X58799371Y-64354671D01*
X58725504Y-64305314D01*
X58662686Y-64242496D01*
X58613329Y-64168629D01*
X58613328Y-64168627D01*
X58579331Y-64086552D01*
X58562000Y-63999421D01*
X58562000Y-63910579D01*
X58579331Y-63823448D01*
X58613328Y-63741373D01*
X58662685Y-63667505D01*
X58725505Y-63604685D01*
X58762187Y-63580175D01*
X58799371Y-63555329D01*
X58799373Y-63555328D01*
X58881448Y-63521331D01*
X58968579Y-63504000D01*
X59057421Y-63504000D01*
X59144552Y-63521331D01*
X59144552Y-63521331D01*
G37*
G36*
X98484552Y-63521331D02*
G01*
X98566627Y-63555328D01*
X98566629Y-63555329D01*
X98603813Y-63580175D01*
X98640495Y-63604685D01*
X98703315Y-63667505D01*
X98752672Y-63741373D01*
X98786669Y-63823448D01*
X98804000Y-63910579D01*
X98804000Y-63999421D01*
X98786669Y-64086552D01*
X98752672Y-64168627D01*
X98752671Y-64168629D01*
X98703314Y-64242496D01*
X98640496Y-64305314D01*
X98566629Y-64354671D01*
X98566628Y-64354672D01*
X98566627Y-64354672D01*
X98484552Y-64388669D01*
X98397421Y-64406000D01*
X98308579Y-64406000D01*
X98221448Y-64388669D01*
X98139373Y-64354672D01*
X98139372Y-64354672D01*
X98139371Y-64354671D01*
X98065504Y-64305314D01*
X98002686Y-64242496D01*
X97953329Y-64168629D01*
X97953328Y-64168627D01*
X97919331Y-64086552D01*
X97902000Y-63999421D01*
X97902000Y-63910579D01*
X97919331Y-63823448D01*
X97953328Y-63741373D01*
X98002685Y-63667505D01*
X98065505Y-63604685D01*
X98102187Y-63580175D01*
X98139371Y-63555329D01*
X98139373Y-63555328D01*
X98221448Y-63521331D01*
X98308579Y-63504000D01*
X98397421Y-63504000D01*
X98484552Y-63521331D01*
X98484552Y-63521331D01*
G37*
G36*
X100484552Y-63521331D02*
G01*
X100566627Y-63555328D01*
X100566629Y-63555329D01*
X100603813Y-63580175D01*
X100640495Y-63604685D01*
X100703315Y-63667505D01*
X100752672Y-63741373D01*
X100786669Y-63823448D01*
X100804000Y-63910579D01*
X100804000Y-63999421D01*
X100786669Y-64086552D01*
X100752672Y-64168627D01*
X100752671Y-64168629D01*
X100703314Y-64242496D01*
X100640496Y-64305314D01*
X100566629Y-64354671D01*
X100566628Y-64354672D01*
X100566627Y-64354672D01*
X100484552Y-64388669D01*
X100397421Y-64406000D01*
X100308579Y-64406000D01*
X100221448Y-64388669D01*
X100139373Y-64354672D01*
X100139372Y-64354672D01*
X100139371Y-64354671D01*
X100065504Y-64305314D01*
X100002686Y-64242496D01*
X99953329Y-64168629D01*
X99953328Y-64168627D01*
X99919331Y-64086552D01*
X99902000Y-63999421D01*
X99902000Y-63910579D01*
X99919331Y-63823448D01*
X99953328Y-63741373D01*
X100002685Y-63667505D01*
X100065505Y-63604685D01*
X100102187Y-63580175D01*
X100139371Y-63555329D01*
X100139373Y-63555328D01*
X100221448Y-63521331D01*
X100308579Y-63504000D01*
X100397421Y-63504000D01*
X100484552Y-63521331D01*
X100484552Y-63521331D01*
G37*
G36*
X102484552Y-63521331D02*
G01*
X102566627Y-63555328D01*
X102566629Y-63555329D01*
X102603813Y-63580175D01*
X102640495Y-63604685D01*
X102703315Y-63667505D01*
X102752672Y-63741373D01*
X102786669Y-63823448D01*
X102804000Y-63910579D01*
X102804000Y-63999421D01*
X102786669Y-64086552D01*
X102752672Y-64168627D01*
X102752671Y-64168629D01*
X102703314Y-64242496D01*
X102640496Y-64305314D01*
X102566629Y-64354671D01*
X102566628Y-64354672D01*
X102566627Y-64354672D01*
X102484552Y-64388669D01*
X102397421Y-64406000D01*
X102308579Y-64406000D01*
X102221448Y-64388669D01*
X102139373Y-64354672D01*
X102139372Y-64354672D01*
X102139371Y-64354671D01*
X102065504Y-64305314D01*
X102002686Y-64242496D01*
X101953329Y-64168629D01*
X101953328Y-64168627D01*
X101919331Y-64086552D01*
X101902000Y-63999421D01*
X101902000Y-63910579D01*
X101919331Y-63823448D01*
X101953328Y-63741373D01*
X102002685Y-63667505D01*
X102065505Y-63604685D01*
X102102187Y-63580175D01*
X102139371Y-63555329D01*
X102139373Y-63555328D01*
X102221448Y-63521331D01*
X102308579Y-63504000D01*
X102397421Y-63504000D01*
X102484552Y-63521331D01*
X102484552Y-63521331D01*
G37*
G36*
X104484552Y-63521331D02*
G01*
X104566627Y-63555328D01*
X104566629Y-63555329D01*
X104603813Y-63580175D01*
X104640495Y-63604685D01*
X104703315Y-63667505D01*
X104752672Y-63741373D01*
X104786669Y-63823448D01*
X104804000Y-63910579D01*
X104804000Y-63999421D01*
X104786669Y-64086552D01*
X104752672Y-64168627D01*
X104752671Y-64168629D01*
X104703314Y-64242496D01*
X104640496Y-64305314D01*
X104566629Y-64354671D01*
X104566628Y-64354672D01*
X104566627Y-64354672D01*
X104484552Y-64388669D01*
X104397421Y-64406000D01*
X104308579Y-64406000D01*
X104221448Y-64388669D01*
X104139373Y-64354672D01*
X104139372Y-64354672D01*
X104139371Y-64354671D01*
X104065504Y-64305314D01*
X104002686Y-64242496D01*
X103953329Y-64168629D01*
X103953328Y-64168627D01*
X103919331Y-64086552D01*
X103902000Y-63999421D01*
X103902000Y-63910579D01*
X103919331Y-63823448D01*
X103953328Y-63741373D01*
X104002685Y-63667505D01*
X104065505Y-63604685D01*
X104102187Y-63580175D01*
X104139371Y-63555329D01*
X104139373Y-63555328D01*
X104221448Y-63521331D01*
X104308579Y-63504000D01*
X104397421Y-63504000D01*
X104484552Y-63521331D01*
X104484552Y-63521331D01*
G37*
G36*
X61144552Y-63521331D02*
G01*
X61226627Y-63555328D01*
X61226629Y-63555329D01*
X61263813Y-63580175D01*
X61300495Y-63604685D01*
X61363315Y-63667505D01*
X61412672Y-63741373D01*
X61446669Y-63823448D01*
X61464000Y-63910579D01*
X61464000Y-63999421D01*
X61446669Y-64086552D01*
X61412672Y-64168627D01*
X61412671Y-64168629D01*
X61363314Y-64242496D01*
X61300496Y-64305314D01*
X61226629Y-64354671D01*
X61226628Y-64354672D01*
X61226627Y-64354672D01*
X61144552Y-64388669D01*
X61057421Y-64406000D01*
X60968579Y-64406000D01*
X60881448Y-64388669D01*
X60799373Y-64354672D01*
X60799372Y-64354672D01*
X60799371Y-64354671D01*
X60725504Y-64305314D01*
X60662686Y-64242496D01*
X60613329Y-64168629D01*
X60613328Y-64168627D01*
X60579331Y-64086552D01*
X60562000Y-63999421D01*
X60562000Y-63910579D01*
X60579331Y-63823448D01*
X60613328Y-63741373D01*
X60662685Y-63667505D01*
X60725505Y-63604685D01*
X60762187Y-63580175D01*
X60799371Y-63555329D01*
X60799373Y-63555328D01*
X60881448Y-63521331D01*
X60968579Y-63504000D01*
X61057421Y-63504000D01*
X61144552Y-63521331D01*
X61144552Y-63521331D01*
G37*
G36*
X108484552Y-63521331D02*
G01*
X108566627Y-63555328D01*
X108566629Y-63555329D01*
X108603813Y-63580175D01*
X108640495Y-63604685D01*
X108703315Y-63667505D01*
X108752672Y-63741373D01*
X108786669Y-63823448D01*
X108804000Y-63910579D01*
X108804000Y-63999421D01*
X108786669Y-64086552D01*
X108752672Y-64168627D01*
X108752671Y-64168629D01*
X108703314Y-64242496D01*
X108640496Y-64305314D01*
X108566629Y-64354671D01*
X108566628Y-64354672D01*
X108566627Y-64354672D01*
X108484552Y-64388669D01*
X108397421Y-64406000D01*
X108308579Y-64406000D01*
X108221448Y-64388669D01*
X108139373Y-64354672D01*
X108139372Y-64354672D01*
X108139371Y-64354671D01*
X108065504Y-64305314D01*
X108002686Y-64242496D01*
X107953329Y-64168629D01*
X107953328Y-64168627D01*
X107919331Y-64086552D01*
X107902000Y-63999421D01*
X107902000Y-63910579D01*
X107919331Y-63823448D01*
X107953328Y-63741373D01*
X108002685Y-63667505D01*
X108065505Y-63604685D01*
X108102187Y-63580175D01*
X108139371Y-63555329D01*
X108139373Y-63555328D01*
X108221448Y-63521331D01*
X108308579Y-63504000D01*
X108397421Y-63504000D01*
X108484552Y-63521331D01*
X108484552Y-63521331D01*
G37*
G36*
X98484552Y-55901331D02*
G01*
X98566627Y-55935328D01*
X98566629Y-55935329D01*
X98603813Y-55960175D01*
X98640495Y-55984685D01*
X98703315Y-56047505D01*
X98752672Y-56121373D01*
X98786669Y-56203448D01*
X98804000Y-56290579D01*
X98804000Y-56379421D01*
X98786669Y-56466552D01*
X98752672Y-56548627D01*
X98752671Y-56548629D01*
X98703314Y-56622496D01*
X98640496Y-56685314D01*
X98566629Y-56734671D01*
X98566628Y-56734672D01*
X98566627Y-56734672D01*
X98484552Y-56768669D01*
X98397421Y-56786000D01*
X98308579Y-56786000D01*
X98221448Y-56768669D01*
X98139373Y-56734672D01*
X98139372Y-56734672D01*
X98139371Y-56734671D01*
X98065504Y-56685314D01*
X98002686Y-56622496D01*
X97953329Y-56548629D01*
X97953328Y-56548627D01*
X97919331Y-56466552D01*
X97902000Y-56379421D01*
X97902000Y-56290579D01*
X97919331Y-56203448D01*
X97953328Y-56121373D01*
X98002685Y-56047505D01*
X98065505Y-55984685D01*
X98102187Y-55960175D01*
X98139371Y-55935329D01*
X98139373Y-55935328D01*
X98221448Y-55901331D01*
X98308579Y-55884000D01*
X98397421Y-55884000D01*
X98484552Y-55901331D01*
X98484552Y-55901331D01*
G37*
G36*
X51144552Y-55901331D02*
G01*
X51226627Y-55935328D01*
X51226629Y-55935329D01*
X51263813Y-55960175D01*
X51300495Y-55984685D01*
X51363315Y-56047505D01*
X51412672Y-56121373D01*
X51446669Y-56203448D01*
X51464000Y-56290579D01*
X51464000Y-56379421D01*
X51446669Y-56466552D01*
X51412672Y-56548627D01*
X51412671Y-56548629D01*
X51363314Y-56622496D01*
X51300496Y-56685314D01*
X51226629Y-56734671D01*
X51226628Y-56734672D01*
X51226627Y-56734672D01*
X51144552Y-56768669D01*
X51057421Y-56786000D01*
X50968579Y-56786000D01*
X50881448Y-56768669D01*
X50799373Y-56734672D01*
X50799372Y-56734672D01*
X50799371Y-56734671D01*
X50725504Y-56685314D01*
X50662686Y-56622496D01*
X50613329Y-56548629D01*
X50613328Y-56548627D01*
X50579331Y-56466552D01*
X50562000Y-56379421D01*
X50562000Y-56290579D01*
X50579331Y-56203448D01*
X50613328Y-56121373D01*
X50662685Y-56047505D01*
X50725505Y-55984685D01*
X50762187Y-55960175D01*
X50799371Y-55935329D01*
X50799373Y-55935328D01*
X50881448Y-55901331D01*
X50968579Y-55884000D01*
X51057421Y-55884000D01*
X51144552Y-55901331D01*
X51144552Y-55901331D01*
G37*
G36*
X55144552Y-55901331D02*
G01*
X55226627Y-55935328D01*
X55226629Y-55935329D01*
X55263813Y-55960175D01*
X55300495Y-55984685D01*
X55363315Y-56047505D01*
X55412672Y-56121373D01*
X55446669Y-56203448D01*
X55464000Y-56290579D01*
X55464000Y-56379421D01*
X55446669Y-56466552D01*
X55412672Y-56548627D01*
X55412671Y-56548629D01*
X55363314Y-56622496D01*
X55300496Y-56685314D01*
X55226629Y-56734671D01*
X55226628Y-56734672D01*
X55226627Y-56734672D01*
X55144552Y-56768669D01*
X55057421Y-56786000D01*
X54968579Y-56786000D01*
X54881448Y-56768669D01*
X54799373Y-56734672D01*
X54799372Y-56734672D01*
X54799371Y-56734671D01*
X54725504Y-56685314D01*
X54662686Y-56622496D01*
X54613329Y-56548629D01*
X54613328Y-56548627D01*
X54579331Y-56466552D01*
X54562000Y-56379421D01*
X54562000Y-56290579D01*
X54579331Y-56203448D01*
X54613328Y-56121373D01*
X54662685Y-56047505D01*
X54725505Y-55984685D01*
X54762187Y-55960175D01*
X54799371Y-55935329D01*
X54799373Y-55935328D01*
X54881448Y-55901331D01*
X54968579Y-55884000D01*
X55057421Y-55884000D01*
X55144552Y-55901331D01*
X55144552Y-55901331D01*
G37*
G36*
X57144552Y-55901331D02*
G01*
X57226627Y-55935328D01*
X57226629Y-55935329D01*
X57263813Y-55960175D01*
X57300495Y-55984685D01*
X57363315Y-56047505D01*
X57412672Y-56121373D01*
X57446669Y-56203448D01*
X57464000Y-56290579D01*
X57464000Y-56379421D01*
X57446669Y-56466552D01*
X57412672Y-56548627D01*
X57412671Y-56548629D01*
X57363314Y-56622496D01*
X57300496Y-56685314D01*
X57226629Y-56734671D01*
X57226628Y-56734672D01*
X57226627Y-56734672D01*
X57144552Y-56768669D01*
X57057421Y-56786000D01*
X56968579Y-56786000D01*
X56881448Y-56768669D01*
X56799373Y-56734672D01*
X56799372Y-56734672D01*
X56799371Y-56734671D01*
X56725504Y-56685314D01*
X56662686Y-56622496D01*
X56613329Y-56548629D01*
X56613328Y-56548627D01*
X56579331Y-56466552D01*
X56562000Y-56379421D01*
X56562000Y-56290579D01*
X56579331Y-56203448D01*
X56613328Y-56121373D01*
X56662685Y-56047505D01*
X56725505Y-55984685D01*
X56762187Y-55960175D01*
X56799371Y-55935329D01*
X56799373Y-55935328D01*
X56881448Y-55901331D01*
X56968579Y-55884000D01*
X57057421Y-55884000D01*
X57144552Y-55901331D01*
X57144552Y-55901331D01*
G37*
G36*
X61144552Y-55901331D02*
G01*
X61226627Y-55935328D01*
X61226629Y-55935329D01*
X61263813Y-55960175D01*
X61300495Y-55984685D01*
X61363315Y-56047505D01*
X61412672Y-56121373D01*
X61446669Y-56203448D01*
X61464000Y-56290579D01*
X61464000Y-56379421D01*
X61446669Y-56466552D01*
X61412672Y-56548627D01*
X61412671Y-56548629D01*
X61363314Y-56622496D01*
X61300496Y-56685314D01*
X61226629Y-56734671D01*
X61226628Y-56734672D01*
X61226627Y-56734672D01*
X61144552Y-56768669D01*
X61057421Y-56786000D01*
X60968579Y-56786000D01*
X60881448Y-56768669D01*
X60799373Y-56734672D01*
X60799372Y-56734672D01*
X60799371Y-56734671D01*
X60725504Y-56685314D01*
X60662686Y-56622496D01*
X60613329Y-56548629D01*
X60613328Y-56548627D01*
X60579331Y-56466552D01*
X60562000Y-56379421D01*
X60562000Y-56290579D01*
X60579331Y-56203448D01*
X60613328Y-56121373D01*
X60662685Y-56047505D01*
X60725505Y-55984685D01*
X60762187Y-55960175D01*
X60799371Y-55935329D01*
X60799373Y-55935328D01*
X60881448Y-55901331D01*
X60968579Y-55884000D01*
X61057421Y-55884000D01*
X61144552Y-55901331D01*
X61144552Y-55901331D01*
G37*
G36*
X53144552Y-55901331D02*
G01*
X53226627Y-55935328D01*
X53226629Y-55935329D01*
X53263813Y-55960175D01*
X53300495Y-55984685D01*
X53363315Y-56047505D01*
X53412672Y-56121373D01*
X53446669Y-56203448D01*
X53464000Y-56290579D01*
X53464000Y-56379421D01*
X53446669Y-56466552D01*
X53412672Y-56548627D01*
X53412671Y-56548629D01*
X53363314Y-56622496D01*
X53300496Y-56685314D01*
X53226629Y-56734671D01*
X53226628Y-56734672D01*
X53226627Y-56734672D01*
X53144552Y-56768669D01*
X53057421Y-56786000D01*
X52968579Y-56786000D01*
X52881448Y-56768669D01*
X52799373Y-56734672D01*
X52799372Y-56734672D01*
X52799371Y-56734671D01*
X52725504Y-56685314D01*
X52662686Y-56622496D01*
X52613329Y-56548629D01*
X52613328Y-56548627D01*
X52579331Y-56466552D01*
X52562000Y-56379421D01*
X52562000Y-56290579D01*
X52579331Y-56203448D01*
X52613328Y-56121373D01*
X52662685Y-56047505D01*
X52725505Y-55984685D01*
X52762187Y-55960175D01*
X52799371Y-55935329D01*
X52799373Y-55935328D01*
X52881448Y-55901331D01*
X52968579Y-55884000D01*
X53057421Y-55884000D01*
X53144552Y-55901331D01*
X53144552Y-55901331D01*
G37*
G36*
X102484552Y-55901331D02*
G01*
X102566627Y-55935328D01*
X102566629Y-55935329D01*
X102603813Y-55960175D01*
X102640495Y-55984685D01*
X102703315Y-56047505D01*
X102752672Y-56121373D01*
X102786669Y-56203448D01*
X102804000Y-56290579D01*
X102804000Y-56379421D01*
X102786669Y-56466552D01*
X102752672Y-56548627D01*
X102752671Y-56548629D01*
X102703314Y-56622496D01*
X102640496Y-56685314D01*
X102566629Y-56734671D01*
X102566628Y-56734672D01*
X102566627Y-56734672D01*
X102484552Y-56768669D01*
X102397421Y-56786000D01*
X102308579Y-56786000D01*
X102221448Y-56768669D01*
X102139373Y-56734672D01*
X102139372Y-56734672D01*
X102139371Y-56734671D01*
X102065504Y-56685314D01*
X102002686Y-56622496D01*
X101953329Y-56548629D01*
X101953328Y-56548627D01*
X101919331Y-56466552D01*
X101902000Y-56379421D01*
X101902000Y-56290579D01*
X101919331Y-56203448D01*
X101953328Y-56121373D01*
X102002685Y-56047505D01*
X102065505Y-55984685D01*
X102102187Y-55960175D01*
X102139371Y-55935329D01*
X102139373Y-55935328D01*
X102221448Y-55901331D01*
X102308579Y-55884000D01*
X102397421Y-55884000D01*
X102484552Y-55901331D01*
X102484552Y-55901331D01*
G37*
G36*
X104484552Y-55901331D02*
G01*
X104566627Y-55935328D01*
X104566629Y-55935329D01*
X104603813Y-55960175D01*
X104640495Y-55984685D01*
X104703315Y-56047505D01*
X104752672Y-56121373D01*
X104786669Y-56203448D01*
X104804000Y-56290579D01*
X104804000Y-56379421D01*
X104786669Y-56466552D01*
X104752672Y-56548627D01*
X104752671Y-56548629D01*
X104703314Y-56622496D01*
X104640496Y-56685314D01*
X104566629Y-56734671D01*
X104566628Y-56734672D01*
X104566627Y-56734672D01*
X104484552Y-56768669D01*
X104397421Y-56786000D01*
X104308579Y-56786000D01*
X104221448Y-56768669D01*
X104139373Y-56734672D01*
X104139372Y-56734672D01*
X104139371Y-56734671D01*
X104065504Y-56685314D01*
X104002686Y-56622496D01*
X103953329Y-56548629D01*
X103953328Y-56548627D01*
X103919331Y-56466552D01*
X103902000Y-56379421D01*
X103902000Y-56290579D01*
X103919331Y-56203448D01*
X103953328Y-56121373D01*
X104002685Y-56047505D01*
X104065505Y-55984685D01*
X104102187Y-55960175D01*
X104139371Y-55935329D01*
X104139373Y-55935328D01*
X104221448Y-55901331D01*
X104308579Y-55884000D01*
X104397421Y-55884000D01*
X104484552Y-55901331D01*
X104484552Y-55901331D01*
G37*
G36*
X106484552Y-55901331D02*
G01*
X106566627Y-55935328D01*
X106566629Y-55935329D01*
X106603813Y-55960175D01*
X106640495Y-55984685D01*
X106703315Y-56047505D01*
X106752672Y-56121373D01*
X106786669Y-56203448D01*
X106804000Y-56290579D01*
X106804000Y-56379421D01*
X106786669Y-56466552D01*
X106752672Y-56548627D01*
X106752671Y-56548629D01*
X106703314Y-56622496D01*
X106640496Y-56685314D01*
X106566629Y-56734671D01*
X106566628Y-56734672D01*
X106566627Y-56734672D01*
X106484552Y-56768669D01*
X106397421Y-56786000D01*
X106308579Y-56786000D01*
X106221448Y-56768669D01*
X106139373Y-56734672D01*
X106139372Y-56734672D01*
X106139371Y-56734671D01*
X106065504Y-56685314D01*
X106002686Y-56622496D01*
X105953329Y-56548629D01*
X105953328Y-56548627D01*
X105919331Y-56466552D01*
X105902000Y-56379421D01*
X105902000Y-56290579D01*
X105919331Y-56203448D01*
X105953328Y-56121373D01*
X106002685Y-56047505D01*
X106065505Y-55984685D01*
X106102187Y-55960175D01*
X106139371Y-55935329D01*
X106139373Y-55935328D01*
X106221448Y-55901331D01*
X106308579Y-55884000D01*
X106397421Y-55884000D01*
X106484552Y-55901331D01*
X106484552Y-55901331D01*
G37*
G36*
X108484552Y-55901331D02*
G01*
X108566627Y-55935328D01*
X108566629Y-55935329D01*
X108603813Y-55960175D01*
X108640495Y-55984685D01*
X108703315Y-56047505D01*
X108752672Y-56121373D01*
X108786669Y-56203448D01*
X108804000Y-56290579D01*
X108804000Y-56379421D01*
X108786669Y-56466552D01*
X108752672Y-56548627D01*
X108752671Y-56548629D01*
X108703314Y-56622496D01*
X108640496Y-56685314D01*
X108566629Y-56734671D01*
X108566628Y-56734672D01*
X108566627Y-56734672D01*
X108484552Y-56768669D01*
X108397421Y-56786000D01*
X108308579Y-56786000D01*
X108221448Y-56768669D01*
X108139373Y-56734672D01*
X108139372Y-56734672D01*
X108139371Y-56734671D01*
X108065504Y-56685314D01*
X108002686Y-56622496D01*
X107953329Y-56548629D01*
X107953328Y-56548627D01*
X107919331Y-56466552D01*
X107902000Y-56379421D01*
X107902000Y-56290579D01*
X107919331Y-56203448D01*
X107953328Y-56121373D01*
X108002685Y-56047505D01*
X108065505Y-55984685D01*
X108102187Y-55960175D01*
X108139371Y-55935329D01*
X108139373Y-55935328D01*
X108221448Y-55901331D01*
X108308579Y-55884000D01*
X108397421Y-55884000D01*
X108484552Y-55901331D01*
X108484552Y-55901331D01*
G37*
G36*
X59144552Y-55901331D02*
G01*
X59226627Y-55935328D01*
X59226629Y-55935329D01*
X59263813Y-55960175D01*
X59300495Y-55984685D01*
X59363315Y-56047505D01*
X59412672Y-56121373D01*
X59446669Y-56203448D01*
X59464000Y-56290579D01*
X59464000Y-56379421D01*
X59446669Y-56466552D01*
X59412672Y-56548627D01*
X59412671Y-56548629D01*
X59363314Y-56622496D01*
X59300496Y-56685314D01*
X59226629Y-56734671D01*
X59226628Y-56734672D01*
X59226627Y-56734672D01*
X59144552Y-56768669D01*
X59057421Y-56786000D01*
X58968579Y-56786000D01*
X58881448Y-56768669D01*
X58799373Y-56734672D01*
X58799372Y-56734672D01*
X58799371Y-56734671D01*
X58725504Y-56685314D01*
X58662686Y-56622496D01*
X58613329Y-56548629D01*
X58613328Y-56548627D01*
X58579331Y-56466552D01*
X58562000Y-56379421D01*
X58562000Y-56290579D01*
X58579331Y-56203448D01*
X58613328Y-56121373D01*
X58662685Y-56047505D01*
X58725505Y-55984685D01*
X58762187Y-55960175D01*
X58799371Y-55935329D01*
X58799373Y-55935328D01*
X58881448Y-55901331D01*
X58968579Y-55884000D01*
X59057421Y-55884000D01*
X59144552Y-55901331D01*
X59144552Y-55901331D01*
G37*
G36*
X100484552Y-55901331D02*
G01*
X100566627Y-55935328D01*
X100566629Y-55935329D01*
X100603813Y-55960175D01*
X100640495Y-55984685D01*
X100703315Y-56047505D01*
X100752672Y-56121373D01*
X100786669Y-56203448D01*
X100804000Y-56290579D01*
X100804000Y-56379421D01*
X100786669Y-56466552D01*
X100752672Y-56548627D01*
X100752671Y-56548629D01*
X100703314Y-56622496D01*
X100640496Y-56685314D01*
X100566629Y-56734671D01*
X100566628Y-56734672D01*
X100566627Y-56734672D01*
X100484552Y-56768669D01*
X100397421Y-56786000D01*
X100308579Y-56786000D01*
X100221448Y-56768669D01*
X100139373Y-56734672D01*
X100139372Y-56734672D01*
X100139371Y-56734671D01*
X100065504Y-56685314D01*
X100002686Y-56622496D01*
X99953329Y-56548629D01*
X99953328Y-56548627D01*
X99919331Y-56466552D01*
X99902000Y-56379421D01*
X99902000Y-56290579D01*
X99919331Y-56203448D01*
X99953328Y-56121373D01*
X100002685Y-56047505D01*
X100065505Y-55984685D01*
X100102187Y-55960175D01*
X100139371Y-55935329D01*
X100139373Y-55935328D01*
X100221448Y-55901331D01*
X100308579Y-55884000D01*
X100397421Y-55884000D01*
X100484552Y-55901331D01*
X100484552Y-55901331D01*
G37*
G36*
X51144552Y-54123331D02*
G01*
X51226627Y-54157328D01*
X51226629Y-54157329D01*
X51263813Y-54182175D01*
X51300495Y-54206685D01*
X51363315Y-54269505D01*
X51412672Y-54343373D01*
X51446669Y-54425448D01*
X51464000Y-54512579D01*
X51464000Y-54601421D01*
X51446669Y-54688552D01*
X51412672Y-54770627D01*
X51412671Y-54770629D01*
X51363314Y-54844496D01*
X51300496Y-54907314D01*
X51226629Y-54956671D01*
X51226628Y-54956672D01*
X51226627Y-54956672D01*
X51144552Y-54990669D01*
X51057421Y-55008000D01*
X50968579Y-55008000D01*
X50881448Y-54990669D01*
X50799373Y-54956672D01*
X50799372Y-54956672D01*
X50799371Y-54956671D01*
X50725504Y-54907314D01*
X50662686Y-54844496D01*
X50613329Y-54770629D01*
X50613328Y-54770627D01*
X50579331Y-54688552D01*
X50562000Y-54601421D01*
X50562000Y-54512579D01*
X50579331Y-54425448D01*
X50613328Y-54343373D01*
X50662685Y-54269505D01*
X50725505Y-54206685D01*
X50762187Y-54182175D01*
X50799371Y-54157329D01*
X50799373Y-54157328D01*
X50881448Y-54123331D01*
X50968579Y-54106000D01*
X51057421Y-54106000D01*
X51144552Y-54123331D01*
X51144552Y-54123331D01*
G37*
G36*
X108484552Y-54123331D02*
G01*
X108566627Y-54157328D01*
X108566629Y-54157329D01*
X108603813Y-54182175D01*
X108640495Y-54206685D01*
X108703315Y-54269505D01*
X108752672Y-54343373D01*
X108786669Y-54425448D01*
X108804000Y-54512579D01*
X108804000Y-54601421D01*
X108786669Y-54688552D01*
X108752672Y-54770627D01*
X108752671Y-54770629D01*
X108703314Y-54844496D01*
X108640496Y-54907314D01*
X108566629Y-54956671D01*
X108566628Y-54956672D01*
X108566627Y-54956672D01*
X108484552Y-54990669D01*
X108397421Y-55008000D01*
X108308579Y-55008000D01*
X108221448Y-54990669D01*
X108139373Y-54956672D01*
X108139372Y-54956672D01*
X108139371Y-54956671D01*
X108065504Y-54907314D01*
X108002686Y-54844496D01*
X107953329Y-54770629D01*
X107953328Y-54770627D01*
X107919331Y-54688552D01*
X107902000Y-54601421D01*
X107902000Y-54512579D01*
X107919331Y-54425448D01*
X107953328Y-54343373D01*
X108002685Y-54269505D01*
X108065505Y-54206685D01*
X108102187Y-54182175D01*
X108139371Y-54157329D01*
X108139373Y-54157328D01*
X108221448Y-54123331D01*
X108308579Y-54106000D01*
X108397421Y-54106000D01*
X108484552Y-54123331D01*
X108484552Y-54123331D01*
G37*
G36*
X104484552Y-54123331D02*
G01*
X104566627Y-54157328D01*
X104566629Y-54157329D01*
X104603813Y-54182175D01*
X104640495Y-54206685D01*
X104703315Y-54269505D01*
X104752672Y-54343373D01*
X104786669Y-54425448D01*
X104804000Y-54512579D01*
X104804000Y-54601421D01*
X104786669Y-54688552D01*
X104752672Y-54770627D01*
X104752671Y-54770629D01*
X104703314Y-54844496D01*
X104640496Y-54907314D01*
X104566629Y-54956671D01*
X104566628Y-54956672D01*
X104566627Y-54956672D01*
X104484552Y-54990669D01*
X104397421Y-55008000D01*
X104308579Y-55008000D01*
X104221448Y-54990669D01*
X104139373Y-54956672D01*
X104139372Y-54956672D01*
X104139371Y-54956671D01*
X104065504Y-54907314D01*
X104002686Y-54844496D01*
X103953329Y-54770629D01*
X103953328Y-54770627D01*
X103919331Y-54688552D01*
X103902000Y-54601421D01*
X103902000Y-54512579D01*
X103919331Y-54425448D01*
X103953328Y-54343373D01*
X104002685Y-54269505D01*
X104065505Y-54206685D01*
X104102187Y-54182175D01*
X104139371Y-54157329D01*
X104139373Y-54157328D01*
X104221448Y-54123331D01*
X104308579Y-54106000D01*
X104397421Y-54106000D01*
X104484552Y-54123331D01*
X104484552Y-54123331D01*
G37*
G36*
X102484552Y-54123331D02*
G01*
X102566627Y-54157328D01*
X102566629Y-54157329D01*
X102603813Y-54182175D01*
X102640495Y-54206685D01*
X102703315Y-54269505D01*
X102752672Y-54343373D01*
X102786669Y-54425448D01*
X102804000Y-54512579D01*
X102804000Y-54601421D01*
X102786669Y-54688552D01*
X102752672Y-54770627D01*
X102752671Y-54770629D01*
X102703314Y-54844496D01*
X102640496Y-54907314D01*
X102566629Y-54956671D01*
X102566628Y-54956672D01*
X102566627Y-54956672D01*
X102484552Y-54990669D01*
X102397421Y-55008000D01*
X102308579Y-55008000D01*
X102221448Y-54990669D01*
X102139373Y-54956672D01*
X102139372Y-54956672D01*
X102139371Y-54956671D01*
X102065504Y-54907314D01*
X102002686Y-54844496D01*
X101953329Y-54770629D01*
X101953328Y-54770627D01*
X101919331Y-54688552D01*
X101902000Y-54601421D01*
X101902000Y-54512579D01*
X101919331Y-54425448D01*
X101953328Y-54343373D01*
X102002685Y-54269505D01*
X102065505Y-54206685D01*
X102102187Y-54182175D01*
X102139371Y-54157329D01*
X102139373Y-54157328D01*
X102221448Y-54123331D01*
X102308579Y-54106000D01*
X102397421Y-54106000D01*
X102484552Y-54123331D01*
X102484552Y-54123331D01*
G37*
G36*
X100484552Y-54123331D02*
G01*
X100566627Y-54157328D01*
X100566629Y-54157329D01*
X100603813Y-54182175D01*
X100640495Y-54206685D01*
X100703315Y-54269505D01*
X100752672Y-54343373D01*
X100786669Y-54425448D01*
X100804000Y-54512579D01*
X100804000Y-54601421D01*
X100786669Y-54688552D01*
X100752672Y-54770627D01*
X100752671Y-54770629D01*
X100703314Y-54844496D01*
X100640496Y-54907314D01*
X100566629Y-54956671D01*
X100566628Y-54956672D01*
X100566627Y-54956672D01*
X100484552Y-54990669D01*
X100397421Y-55008000D01*
X100308579Y-55008000D01*
X100221448Y-54990669D01*
X100139373Y-54956672D01*
X100139372Y-54956672D01*
X100139371Y-54956671D01*
X100065504Y-54907314D01*
X100002686Y-54844496D01*
X99953329Y-54770629D01*
X99953328Y-54770627D01*
X99919331Y-54688552D01*
X99902000Y-54601421D01*
X99902000Y-54512579D01*
X99919331Y-54425448D01*
X99953328Y-54343373D01*
X100002685Y-54269505D01*
X100065505Y-54206685D01*
X100102187Y-54182175D01*
X100139371Y-54157329D01*
X100139373Y-54157328D01*
X100221448Y-54123331D01*
X100308579Y-54106000D01*
X100397421Y-54106000D01*
X100484552Y-54123331D01*
X100484552Y-54123331D01*
G37*
G36*
X98484552Y-54123331D02*
G01*
X98566627Y-54157328D01*
X98566629Y-54157329D01*
X98603813Y-54182175D01*
X98640495Y-54206685D01*
X98703315Y-54269505D01*
X98752672Y-54343373D01*
X98786669Y-54425448D01*
X98804000Y-54512579D01*
X98804000Y-54601421D01*
X98786669Y-54688552D01*
X98752672Y-54770627D01*
X98752671Y-54770629D01*
X98703314Y-54844496D01*
X98640496Y-54907314D01*
X98566629Y-54956671D01*
X98566628Y-54956672D01*
X98566627Y-54956672D01*
X98484552Y-54990669D01*
X98397421Y-55008000D01*
X98308579Y-55008000D01*
X98221448Y-54990669D01*
X98139373Y-54956672D01*
X98139372Y-54956672D01*
X98139371Y-54956671D01*
X98065504Y-54907314D01*
X98002686Y-54844496D01*
X97953329Y-54770629D01*
X97953328Y-54770627D01*
X97919331Y-54688552D01*
X97902000Y-54601421D01*
X97902000Y-54512579D01*
X97919331Y-54425448D01*
X97953328Y-54343373D01*
X98002685Y-54269505D01*
X98065505Y-54206685D01*
X98102187Y-54182175D01*
X98139371Y-54157329D01*
X98139373Y-54157328D01*
X98221448Y-54123331D01*
X98308579Y-54106000D01*
X98397421Y-54106000D01*
X98484552Y-54123331D01*
X98484552Y-54123331D01*
G37*
G36*
X59144552Y-54123331D02*
G01*
X59226627Y-54157328D01*
X59226629Y-54157329D01*
X59263813Y-54182175D01*
X59300495Y-54206685D01*
X59363315Y-54269505D01*
X59412672Y-54343373D01*
X59446669Y-54425448D01*
X59464000Y-54512579D01*
X59464000Y-54601421D01*
X59446669Y-54688552D01*
X59412672Y-54770627D01*
X59412671Y-54770629D01*
X59363314Y-54844496D01*
X59300496Y-54907314D01*
X59226629Y-54956671D01*
X59226628Y-54956672D01*
X59226627Y-54956672D01*
X59144552Y-54990669D01*
X59057421Y-55008000D01*
X58968579Y-55008000D01*
X58881448Y-54990669D01*
X58799373Y-54956672D01*
X58799372Y-54956672D01*
X58799371Y-54956671D01*
X58725504Y-54907314D01*
X58662686Y-54844496D01*
X58613329Y-54770629D01*
X58613328Y-54770627D01*
X58579331Y-54688552D01*
X58562000Y-54601421D01*
X58562000Y-54512579D01*
X58579331Y-54425448D01*
X58613328Y-54343373D01*
X58662685Y-54269505D01*
X58725505Y-54206685D01*
X58762187Y-54182175D01*
X58799371Y-54157329D01*
X58799373Y-54157328D01*
X58881448Y-54123331D01*
X58968579Y-54106000D01*
X59057421Y-54106000D01*
X59144552Y-54123331D01*
X59144552Y-54123331D01*
G37*
G36*
X57144552Y-54123331D02*
G01*
X57226627Y-54157328D01*
X57226629Y-54157329D01*
X57263813Y-54182175D01*
X57300495Y-54206685D01*
X57363315Y-54269505D01*
X57412672Y-54343373D01*
X57446669Y-54425448D01*
X57464000Y-54512579D01*
X57464000Y-54601421D01*
X57446669Y-54688552D01*
X57412672Y-54770627D01*
X57412671Y-54770629D01*
X57363314Y-54844496D01*
X57300496Y-54907314D01*
X57226629Y-54956671D01*
X57226628Y-54956672D01*
X57226627Y-54956672D01*
X57144552Y-54990669D01*
X57057421Y-55008000D01*
X56968579Y-55008000D01*
X56881448Y-54990669D01*
X56799373Y-54956672D01*
X56799372Y-54956672D01*
X56799371Y-54956671D01*
X56725504Y-54907314D01*
X56662686Y-54844496D01*
X56613329Y-54770629D01*
X56613328Y-54770627D01*
X56579331Y-54688552D01*
X56562000Y-54601421D01*
X56562000Y-54512579D01*
X56579331Y-54425448D01*
X56613328Y-54343373D01*
X56662685Y-54269505D01*
X56725505Y-54206685D01*
X56762187Y-54182175D01*
X56799371Y-54157329D01*
X56799373Y-54157328D01*
X56881448Y-54123331D01*
X56968579Y-54106000D01*
X57057421Y-54106000D01*
X57144552Y-54123331D01*
X57144552Y-54123331D01*
G37*
G36*
X55144552Y-54123331D02*
G01*
X55226627Y-54157328D01*
X55226629Y-54157329D01*
X55263813Y-54182175D01*
X55300495Y-54206685D01*
X55363315Y-54269505D01*
X55412672Y-54343373D01*
X55446669Y-54425448D01*
X55464000Y-54512579D01*
X55464000Y-54601421D01*
X55446669Y-54688552D01*
X55412672Y-54770627D01*
X55412671Y-54770629D01*
X55363314Y-54844496D01*
X55300496Y-54907314D01*
X55226629Y-54956671D01*
X55226628Y-54956672D01*
X55226627Y-54956672D01*
X55144552Y-54990669D01*
X55057421Y-55008000D01*
X54968579Y-55008000D01*
X54881448Y-54990669D01*
X54799373Y-54956672D01*
X54799372Y-54956672D01*
X54799371Y-54956671D01*
X54725504Y-54907314D01*
X54662686Y-54844496D01*
X54613329Y-54770629D01*
X54613328Y-54770627D01*
X54579331Y-54688552D01*
X54562000Y-54601421D01*
X54562000Y-54512579D01*
X54579331Y-54425448D01*
X54613328Y-54343373D01*
X54662685Y-54269505D01*
X54725505Y-54206685D01*
X54762187Y-54182175D01*
X54799371Y-54157329D01*
X54799373Y-54157328D01*
X54881448Y-54123331D01*
X54968579Y-54106000D01*
X55057421Y-54106000D01*
X55144552Y-54123331D01*
X55144552Y-54123331D01*
G37*
G36*
X53144552Y-54123331D02*
G01*
X53226627Y-54157328D01*
X53226629Y-54157329D01*
X53263813Y-54182175D01*
X53300495Y-54206685D01*
X53363315Y-54269505D01*
X53412672Y-54343373D01*
X53446669Y-54425448D01*
X53464000Y-54512579D01*
X53464000Y-54601421D01*
X53446669Y-54688552D01*
X53412672Y-54770627D01*
X53412671Y-54770629D01*
X53363314Y-54844496D01*
X53300496Y-54907314D01*
X53226629Y-54956671D01*
X53226628Y-54956672D01*
X53226627Y-54956672D01*
X53144552Y-54990669D01*
X53057421Y-55008000D01*
X52968579Y-55008000D01*
X52881448Y-54990669D01*
X52799373Y-54956672D01*
X52799372Y-54956672D01*
X52799371Y-54956671D01*
X52725504Y-54907314D01*
X52662686Y-54844496D01*
X52613329Y-54770629D01*
X52613328Y-54770627D01*
X52579331Y-54688552D01*
X52562000Y-54601421D01*
X52562000Y-54512579D01*
X52579331Y-54425448D01*
X52613328Y-54343373D01*
X52662685Y-54269505D01*
X52725505Y-54206685D01*
X52762187Y-54182175D01*
X52799371Y-54157329D01*
X52799373Y-54157328D01*
X52881448Y-54123331D01*
X52968579Y-54106000D01*
X53057421Y-54106000D01*
X53144552Y-54123331D01*
X53144552Y-54123331D01*
G37*
G36*
X106484552Y-54123331D02*
G01*
X106566627Y-54157328D01*
X106566629Y-54157329D01*
X106603813Y-54182175D01*
X106640495Y-54206685D01*
X106703315Y-54269505D01*
X106752672Y-54343373D01*
X106786669Y-54425448D01*
X106804000Y-54512579D01*
X106804000Y-54601421D01*
X106786669Y-54688552D01*
X106752672Y-54770627D01*
X106752671Y-54770629D01*
X106703314Y-54844496D01*
X106640496Y-54907314D01*
X106566629Y-54956671D01*
X106566628Y-54956672D01*
X106566627Y-54956672D01*
X106484552Y-54990669D01*
X106397421Y-55008000D01*
X106308579Y-55008000D01*
X106221448Y-54990669D01*
X106139373Y-54956672D01*
X106139372Y-54956672D01*
X106139371Y-54956671D01*
X106065504Y-54907314D01*
X106002686Y-54844496D01*
X105953329Y-54770629D01*
X105953328Y-54770627D01*
X105919331Y-54688552D01*
X105902000Y-54601421D01*
X105902000Y-54512579D01*
X105919331Y-54425448D01*
X105953328Y-54343373D01*
X106002685Y-54269505D01*
X106065505Y-54206685D01*
X106102187Y-54182175D01*
X106139371Y-54157329D01*
X106139373Y-54157328D01*
X106221448Y-54123331D01*
X106308579Y-54106000D01*
X106397421Y-54106000D01*
X106484552Y-54123331D01*
X106484552Y-54123331D01*
G37*
G36*
X61144552Y-54123331D02*
G01*
X61226627Y-54157328D01*
X61226629Y-54157329D01*
X61263813Y-54182175D01*
X61300495Y-54206685D01*
X61363315Y-54269505D01*
X61412672Y-54343373D01*
X61446669Y-54425448D01*
X61464000Y-54512579D01*
X61464000Y-54601421D01*
X61446669Y-54688552D01*
X61412672Y-54770627D01*
X61412671Y-54770629D01*
X61363314Y-54844496D01*
X61300496Y-54907314D01*
X61226629Y-54956671D01*
X61226628Y-54956672D01*
X61226627Y-54956672D01*
X61144552Y-54990669D01*
X61057421Y-55008000D01*
X60968579Y-55008000D01*
X60881448Y-54990669D01*
X60799373Y-54956672D01*
X60799372Y-54956672D01*
X60799371Y-54956671D01*
X60725504Y-54907314D01*
X60662686Y-54844496D01*
X60613329Y-54770629D01*
X60613328Y-54770627D01*
X60579331Y-54688552D01*
X60562000Y-54601421D01*
X60562000Y-54512579D01*
X60579331Y-54425448D01*
X60613328Y-54343373D01*
X60662685Y-54269505D01*
X60725505Y-54206685D01*
X60762187Y-54182175D01*
X60799371Y-54157329D01*
X60799373Y-54157328D01*
X60881448Y-54123331D01*
X60968579Y-54106000D01*
X61057421Y-54106000D01*
X61144552Y-54123331D01*
X61144552Y-54123331D01*
G37*
G36*
X108484552Y-52345331D02*
G01*
X108566627Y-52379328D01*
X108566629Y-52379329D01*
X108603813Y-52404175D01*
X108640495Y-52428685D01*
X108703315Y-52491505D01*
X108752672Y-52565373D01*
X108786669Y-52647448D01*
X108804000Y-52734579D01*
X108804000Y-52823421D01*
X108786669Y-52910552D01*
X108752672Y-52992627D01*
X108752671Y-52992629D01*
X108703314Y-53066496D01*
X108640496Y-53129314D01*
X108566629Y-53178671D01*
X108566628Y-53178672D01*
X108566627Y-53178672D01*
X108484552Y-53212669D01*
X108397421Y-53230000D01*
X108308579Y-53230000D01*
X108221448Y-53212669D01*
X108139373Y-53178672D01*
X108139372Y-53178672D01*
X108139371Y-53178671D01*
X108065504Y-53129314D01*
X108002686Y-53066496D01*
X107953329Y-52992629D01*
X107953328Y-52992627D01*
X107919331Y-52910552D01*
X107902000Y-52823421D01*
X107902000Y-52734579D01*
X107919331Y-52647448D01*
X107953328Y-52565373D01*
X108002685Y-52491505D01*
X108065505Y-52428685D01*
X108102187Y-52404175D01*
X108139371Y-52379329D01*
X108139373Y-52379328D01*
X108221448Y-52345331D01*
X108308579Y-52328000D01*
X108397421Y-52328000D01*
X108484552Y-52345331D01*
X108484552Y-52345331D01*
G37*
G36*
X106484552Y-52345331D02*
G01*
X106566627Y-52379328D01*
X106566629Y-52379329D01*
X106603813Y-52404175D01*
X106640495Y-52428685D01*
X106703315Y-52491505D01*
X106752672Y-52565373D01*
X106786669Y-52647448D01*
X106804000Y-52734579D01*
X106804000Y-52823421D01*
X106786669Y-52910552D01*
X106752672Y-52992627D01*
X106752671Y-52992629D01*
X106703314Y-53066496D01*
X106640496Y-53129314D01*
X106566629Y-53178671D01*
X106566628Y-53178672D01*
X106566627Y-53178672D01*
X106484552Y-53212669D01*
X106397421Y-53230000D01*
X106308579Y-53230000D01*
X106221448Y-53212669D01*
X106139373Y-53178672D01*
X106139372Y-53178672D01*
X106139371Y-53178671D01*
X106065504Y-53129314D01*
X106002686Y-53066496D01*
X105953329Y-52992629D01*
X105953328Y-52992627D01*
X105919331Y-52910552D01*
X105902000Y-52823421D01*
X105902000Y-52734579D01*
X105919331Y-52647448D01*
X105953328Y-52565373D01*
X106002685Y-52491505D01*
X106065505Y-52428685D01*
X106102187Y-52404175D01*
X106139371Y-52379329D01*
X106139373Y-52379328D01*
X106221448Y-52345331D01*
X106308579Y-52328000D01*
X106397421Y-52328000D01*
X106484552Y-52345331D01*
X106484552Y-52345331D01*
G37*
G36*
X102484552Y-52345331D02*
G01*
X102566627Y-52379328D01*
X102566629Y-52379329D01*
X102603813Y-52404175D01*
X102640495Y-52428685D01*
X102703315Y-52491505D01*
X102752672Y-52565373D01*
X102786669Y-52647448D01*
X102804000Y-52734579D01*
X102804000Y-52823421D01*
X102786669Y-52910552D01*
X102752672Y-52992627D01*
X102752671Y-52992629D01*
X102703314Y-53066496D01*
X102640496Y-53129314D01*
X102566629Y-53178671D01*
X102566628Y-53178672D01*
X102566627Y-53178672D01*
X102484552Y-53212669D01*
X102397421Y-53230000D01*
X102308579Y-53230000D01*
X102221448Y-53212669D01*
X102139373Y-53178672D01*
X102139372Y-53178672D01*
X102139371Y-53178671D01*
X102065504Y-53129314D01*
X102002686Y-53066496D01*
X101953329Y-52992629D01*
X101953328Y-52992627D01*
X101919331Y-52910552D01*
X101902000Y-52823421D01*
X101902000Y-52734579D01*
X101919331Y-52647448D01*
X101953328Y-52565373D01*
X102002685Y-52491505D01*
X102065505Y-52428685D01*
X102102187Y-52404175D01*
X102139371Y-52379329D01*
X102139373Y-52379328D01*
X102221448Y-52345331D01*
X102308579Y-52328000D01*
X102397421Y-52328000D01*
X102484552Y-52345331D01*
X102484552Y-52345331D01*
G37*
G36*
X100484552Y-52345331D02*
G01*
X100566627Y-52379328D01*
X100566629Y-52379329D01*
X100603813Y-52404175D01*
X100640495Y-52428685D01*
X100703315Y-52491505D01*
X100752672Y-52565373D01*
X100786669Y-52647448D01*
X100804000Y-52734579D01*
X100804000Y-52823421D01*
X100786669Y-52910552D01*
X100752672Y-52992627D01*
X100752671Y-52992629D01*
X100703314Y-53066496D01*
X100640496Y-53129314D01*
X100566629Y-53178671D01*
X100566628Y-53178672D01*
X100566627Y-53178672D01*
X100484552Y-53212669D01*
X100397421Y-53230000D01*
X100308579Y-53230000D01*
X100221448Y-53212669D01*
X100139373Y-53178672D01*
X100139372Y-53178672D01*
X100139371Y-53178671D01*
X100065504Y-53129314D01*
X100002686Y-53066496D01*
X99953329Y-52992629D01*
X99953328Y-52992627D01*
X99919331Y-52910552D01*
X99902000Y-52823421D01*
X99902000Y-52734579D01*
X99919331Y-52647448D01*
X99953328Y-52565373D01*
X100002685Y-52491505D01*
X100065505Y-52428685D01*
X100102187Y-52404175D01*
X100139371Y-52379329D01*
X100139373Y-52379328D01*
X100221448Y-52345331D01*
X100308579Y-52328000D01*
X100397421Y-52328000D01*
X100484552Y-52345331D01*
X100484552Y-52345331D01*
G37*
G36*
X98484552Y-52345331D02*
G01*
X98566627Y-52379328D01*
X98566629Y-52379329D01*
X98603813Y-52404175D01*
X98640495Y-52428685D01*
X98703315Y-52491505D01*
X98752672Y-52565373D01*
X98786669Y-52647448D01*
X98804000Y-52734579D01*
X98804000Y-52823421D01*
X98786669Y-52910552D01*
X98752672Y-52992627D01*
X98752671Y-52992629D01*
X98703314Y-53066496D01*
X98640496Y-53129314D01*
X98566629Y-53178671D01*
X98566628Y-53178672D01*
X98566627Y-53178672D01*
X98484552Y-53212669D01*
X98397421Y-53230000D01*
X98308579Y-53230000D01*
X98221448Y-53212669D01*
X98139373Y-53178672D01*
X98139372Y-53178672D01*
X98139371Y-53178671D01*
X98065504Y-53129314D01*
X98002686Y-53066496D01*
X97953329Y-52992629D01*
X97953328Y-52992627D01*
X97919331Y-52910552D01*
X97902000Y-52823421D01*
X97902000Y-52734579D01*
X97919331Y-52647448D01*
X97953328Y-52565373D01*
X98002685Y-52491505D01*
X98065505Y-52428685D01*
X98102187Y-52404175D01*
X98139371Y-52379329D01*
X98139373Y-52379328D01*
X98221448Y-52345331D01*
X98308579Y-52328000D01*
X98397421Y-52328000D01*
X98484552Y-52345331D01*
X98484552Y-52345331D01*
G37*
G36*
X104484552Y-52345331D02*
G01*
X104566627Y-52379328D01*
X104566629Y-52379329D01*
X104603813Y-52404175D01*
X104640495Y-52428685D01*
X104703315Y-52491505D01*
X104752672Y-52565373D01*
X104786669Y-52647448D01*
X104804000Y-52734579D01*
X104804000Y-52823421D01*
X104786669Y-52910552D01*
X104752672Y-52992627D01*
X104752671Y-52992629D01*
X104703314Y-53066496D01*
X104640496Y-53129314D01*
X104566629Y-53178671D01*
X104566628Y-53178672D01*
X104566627Y-53178672D01*
X104484552Y-53212669D01*
X104397421Y-53230000D01*
X104308579Y-53230000D01*
X104221448Y-53212669D01*
X104139373Y-53178672D01*
X104139372Y-53178672D01*
X104139371Y-53178671D01*
X104065504Y-53129314D01*
X104002686Y-53066496D01*
X103953329Y-52992629D01*
X103953328Y-52992627D01*
X103919331Y-52910552D01*
X103902000Y-52823421D01*
X103902000Y-52734579D01*
X103919331Y-52647448D01*
X103953328Y-52565373D01*
X104002685Y-52491505D01*
X104065505Y-52428685D01*
X104102187Y-52404175D01*
X104139371Y-52379329D01*
X104139373Y-52379328D01*
X104221448Y-52345331D01*
X104308579Y-52328000D01*
X104397421Y-52328000D01*
X104484552Y-52345331D01*
X104484552Y-52345331D01*
G37*
G36*
X61144552Y-52345331D02*
G01*
X61226627Y-52379328D01*
X61226629Y-52379329D01*
X61263813Y-52404175D01*
X61300495Y-52428685D01*
X61363315Y-52491505D01*
X61412672Y-52565373D01*
X61446669Y-52647448D01*
X61464000Y-52734579D01*
X61464000Y-52823421D01*
X61446669Y-52910552D01*
X61412672Y-52992627D01*
X61412671Y-52992629D01*
X61363314Y-53066496D01*
X61300496Y-53129314D01*
X61226629Y-53178671D01*
X61226628Y-53178672D01*
X61226627Y-53178672D01*
X61144552Y-53212669D01*
X61057421Y-53230000D01*
X60968579Y-53230000D01*
X60881448Y-53212669D01*
X60799373Y-53178672D01*
X60799372Y-53178672D01*
X60799371Y-53178671D01*
X60725504Y-53129314D01*
X60662686Y-53066496D01*
X60613329Y-52992629D01*
X60613328Y-52992627D01*
X60579331Y-52910552D01*
X60562000Y-52823421D01*
X60562000Y-52734579D01*
X60579331Y-52647448D01*
X60613328Y-52565373D01*
X60662685Y-52491505D01*
X60725505Y-52428685D01*
X60762187Y-52404175D01*
X60799371Y-52379329D01*
X60799373Y-52379328D01*
X60881448Y-52345331D01*
X60968579Y-52328000D01*
X61057421Y-52328000D01*
X61144552Y-52345331D01*
X61144552Y-52345331D01*
G37*
G36*
X59144552Y-52345331D02*
G01*
X59226627Y-52379328D01*
X59226629Y-52379329D01*
X59263813Y-52404175D01*
X59300495Y-52428685D01*
X59363315Y-52491505D01*
X59412672Y-52565373D01*
X59446669Y-52647448D01*
X59464000Y-52734579D01*
X59464000Y-52823421D01*
X59446669Y-52910552D01*
X59412672Y-52992627D01*
X59412671Y-52992629D01*
X59363314Y-53066496D01*
X59300496Y-53129314D01*
X59226629Y-53178671D01*
X59226628Y-53178672D01*
X59226627Y-53178672D01*
X59144552Y-53212669D01*
X59057421Y-53230000D01*
X58968579Y-53230000D01*
X58881448Y-53212669D01*
X58799373Y-53178672D01*
X58799372Y-53178672D01*
X58799371Y-53178671D01*
X58725504Y-53129314D01*
X58662686Y-53066496D01*
X58613329Y-52992629D01*
X58613328Y-52992627D01*
X58579331Y-52910552D01*
X58562000Y-52823421D01*
X58562000Y-52734579D01*
X58579331Y-52647448D01*
X58613328Y-52565373D01*
X58662685Y-52491505D01*
X58725505Y-52428685D01*
X58762187Y-52404175D01*
X58799371Y-52379329D01*
X58799373Y-52379328D01*
X58881448Y-52345331D01*
X58968579Y-52328000D01*
X59057421Y-52328000D01*
X59144552Y-52345331D01*
X59144552Y-52345331D01*
G37*
G36*
X57144552Y-52345331D02*
G01*
X57226627Y-52379328D01*
X57226629Y-52379329D01*
X57263813Y-52404175D01*
X57300495Y-52428685D01*
X57363315Y-52491505D01*
X57412672Y-52565373D01*
X57446669Y-52647448D01*
X57464000Y-52734579D01*
X57464000Y-52823421D01*
X57446669Y-52910552D01*
X57412672Y-52992627D01*
X57412671Y-52992629D01*
X57363314Y-53066496D01*
X57300496Y-53129314D01*
X57226629Y-53178671D01*
X57226628Y-53178672D01*
X57226627Y-53178672D01*
X57144552Y-53212669D01*
X57057421Y-53230000D01*
X56968579Y-53230000D01*
X56881448Y-53212669D01*
X56799373Y-53178672D01*
X56799372Y-53178672D01*
X56799371Y-53178671D01*
X56725504Y-53129314D01*
X56662686Y-53066496D01*
X56613329Y-52992629D01*
X56613328Y-52992627D01*
X56579331Y-52910552D01*
X56562000Y-52823421D01*
X56562000Y-52734579D01*
X56579331Y-52647448D01*
X56613328Y-52565373D01*
X56662685Y-52491505D01*
X56725505Y-52428685D01*
X56762187Y-52404175D01*
X56799371Y-52379329D01*
X56799373Y-52379328D01*
X56881448Y-52345331D01*
X56968579Y-52328000D01*
X57057421Y-52328000D01*
X57144552Y-52345331D01*
X57144552Y-52345331D01*
G37*
G36*
X55144552Y-52345331D02*
G01*
X55226627Y-52379328D01*
X55226629Y-52379329D01*
X55263813Y-52404175D01*
X55300495Y-52428685D01*
X55363315Y-52491505D01*
X55412672Y-52565373D01*
X55446669Y-52647448D01*
X55464000Y-52734579D01*
X55464000Y-52823421D01*
X55446669Y-52910552D01*
X55412672Y-52992627D01*
X55412671Y-52992629D01*
X55363314Y-53066496D01*
X55300496Y-53129314D01*
X55226629Y-53178671D01*
X55226628Y-53178672D01*
X55226627Y-53178672D01*
X55144552Y-53212669D01*
X55057421Y-53230000D01*
X54968579Y-53230000D01*
X54881448Y-53212669D01*
X54799373Y-53178672D01*
X54799372Y-53178672D01*
X54799371Y-53178671D01*
X54725504Y-53129314D01*
X54662686Y-53066496D01*
X54613329Y-52992629D01*
X54613328Y-52992627D01*
X54579331Y-52910552D01*
X54562000Y-52823421D01*
X54562000Y-52734579D01*
X54579331Y-52647448D01*
X54613328Y-52565373D01*
X54662685Y-52491505D01*
X54725505Y-52428685D01*
X54762187Y-52404175D01*
X54799371Y-52379329D01*
X54799373Y-52379328D01*
X54881448Y-52345331D01*
X54968579Y-52328000D01*
X55057421Y-52328000D01*
X55144552Y-52345331D01*
X55144552Y-52345331D01*
G37*
G36*
X53144552Y-52345331D02*
G01*
X53226627Y-52379328D01*
X53226629Y-52379329D01*
X53263813Y-52404175D01*
X53300495Y-52428685D01*
X53363315Y-52491505D01*
X53412672Y-52565373D01*
X53446669Y-52647448D01*
X53464000Y-52734579D01*
X53464000Y-52823421D01*
X53446669Y-52910552D01*
X53412672Y-52992627D01*
X53412671Y-52992629D01*
X53363314Y-53066496D01*
X53300496Y-53129314D01*
X53226629Y-53178671D01*
X53226628Y-53178672D01*
X53226627Y-53178672D01*
X53144552Y-53212669D01*
X53057421Y-53230000D01*
X52968579Y-53230000D01*
X52881448Y-53212669D01*
X52799373Y-53178672D01*
X52799372Y-53178672D01*
X52799371Y-53178671D01*
X52725504Y-53129314D01*
X52662686Y-53066496D01*
X52613329Y-52992629D01*
X52613328Y-52992627D01*
X52579331Y-52910552D01*
X52562000Y-52823421D01*
X52562000Y-52734579D01*
X52579331Y-52647448D01*
X52613328Y-52565373D01*
X52662685Y-52491505D01*
X52725505Y-52428685D01*
X52762187Y-52404175D01*
X52799371Y-52379329D01*
X52799373Y-52379328D01*
X52881448Y-52345331D01*
X52968579Y-52328000D01*
X53057421Y-52328000D01*
X53144552Y-52345331D01*
X53144552Y-52345331D01*
G37*
G36*
X51144552Y-52345331D02*
G01*
X51226627Y-52379328D01*
X51226629Y-52379329D01*
X51263813Y-52404175D01*
X51300495Y-52428685D01*
X51363315Y-52491505D01*
X51412672Y-52565373D01*
X51446669Y-52647448D01*
X51464000Y-52734579D01*
X51464000Y-52823421D01*
X51446669Y-52910552D01*
X51412672Y-52992627D01*
X51412671Y-52992629D01*
X51363314Y-53066496D01*
X51300496Y-53129314D01*
X51226629Y-53178671D01*
X51226628Y-53178672D01*
X51226627Y-53178672D01*
X51144552Y-53212669D01*
X51057421Y-53230000D01*
X50968579Y-53230000D01*
X50881448Y-53212669D01*
X50799373Y-53178672D01*
X50799372Y-53178672D01*
X50799371Y-53178671D01*
X50725504Y-53129314D01*
X50662686Y-53066496D01*
X50613329Y-52992629D01*
X50613328Y-52992627D01*
X50579331Y-52910552D01*
X50562000Y-52823421D01*
X50562000Y-52734579D01*
X50579331Y-52647448D01*
X50613328Y-52565373D01*
X50662685Y-52491505D01*
X50725505Y-52428685D01*
X50762187Y-52404175D01*
X50799371Y-52379329D01*
X50799373Y-52379328D01*
X50881448Y-52345331D01*
X50968579Y-52328000D01*
X51057421Y-52328000D01*
X51144552Y-52345331D01*
X51144552Y-52345331D01*
G37*
M02*
