%TF.GenerationSoftware,KiCad,Pcbnew,(5.1.4)-1*%
%TF.CreationDate,2019-12-13T01:47:11+08:00*%
%TF.ProjectId,Directional_coupler,44697265-6374-4696-9f6e-616c5f636f75,rev?*%
%TF.SameCoordinates,Original*%
%TF.FileFunction,Paste,Top*%
%TF.FilePolarity,Positive*%
%FSLAX46Y46*%
G04 Gerber Fmt 4.6, Leading zero omitted, Abs format (unit mm)*
G04 Created by KiCad (PCBNEW (5.1.4)-1) date 2019-12-13 01:47:11*
%MOMM*%
%LPD*%
G04 APERTURE LIST*
%ADD10R,0.700000X1.300000*%
%ADD11R,1.000000X1.250000*%
%ADD12R,0.600000X1.100000*%
%ADD13R,1.300000X0.700000*%
%ADD14R,1.250000X1.000000*%
%ADD15R,3.200000X1.000000*%
%ADD16R,0.900000X1.700000*%
%ADD17O,0.700000X1.900000*%
%ADD18O,2.000000X3.500000*%
%ADD19O,0.700000X2.100000*%
%ADD20O,0.700000X1.800000*%
%ADD21O,1.800000X0.700000*%
%ADD22R,2.000000X2.000000*%
G04 APERTURE END LIST*
D10*
X97216000Y-108077000D03*
X95316000Y-108077000D03*
D11*
X88138000Y-109552000D03*
X88138000Y-106602000D03*
X57912000Y-107520000D03*
X57912000Y-104570000D03*
D12*
X90104000Y-104143000D03*
X88204000Y-104143000D03*
X88204000Y-101343000D03*
X89154000Y-101343000D03*
X90104000Y-101343000D03*
X61402000Y-104143000D03*
X59502000Y-104143000D03*
X59502000Y-101343000D03*
X60452000Y-101343000D03*
X61402000Y-101343000D03*
D13*
X74650000Y-105192000D03*
X74650000Y-103292000D03*
X72300000Y-109750000D03*
X72300000Y-107850000D03*
X70250000Y-107850000D03*
X70250000Y-109750000D03*
X68350000Y-109750000D03*
X68350000Y-107850000D03*
D14*
X93677000Y-108331000D03*
X90727000Y-108331000D03*
X66499000Y-109855000D03*
X63549000Y-109855000D03*
D15*
X93472000Y-76656000D03*
X93472000Y-82856000D03*
X66600000Y-76600000D03*
X66600000Y-82800000D03*
D16*
X96086000Y-84328000D03*
X98986000Y-84328000D03*
X60750000Y-84200000D03*
X63650000Y-84200000D03*
D13*
X85598000Y-109408000D03*
X85598000Y-107508000D03*
X85598000Y-105471000D03*
X85598000Y-103571000D03*
X76550000Y-107650000D03*
X76550000Y-109550000D03*
D10*
X64450000Y-94350000D03*
X66350000Y-94350000D03*
D13*
X99822000Y-107254000D03*
X99822000Y-109154000D03*
X83312000Y-109408000D03*
X83312000Y-107508000D03*
D10*
X63500000Y-103900000D03*
X65400000Y-103900000D03*
D13*
X74400000Y-107650000D03*
X74400000Y-109550000D03*
D10*
X100904000Y-84328000D03*
X102804000Y-84328000D03*
X60650000Y-86650000D03*
X58750000Y-86650000D03*
X105222000Y-92710000D03*
X107122000Y-92710000D03*
D13*
X76630000Y-105192000D03*
X76630000Y-103292000D03*
X78662000Y-103292000D03*
X78662000Y-105192000D03*
X95758000Y-99126000D03*
X95758000Y-101026000D03*
X64600000Y-96150000D03*
X64600000Y-98050000D03*
X103886000Y-104587000D03*
X103886000Y-106487000D03*
X65600000Y-100300000D03*
X65600000Y-102200000D03*
X103886000Y-101534000D03*
X103886000Y-99634000D03*
X98806000Y-87950000D03*
X98806000Y-89850000D03*
X60500000Y-91550000D03*
X60500000Y-89650000D03*
X93726000Y-106360000D03*
X93726000Y-104460000D03*
D10*
X60750000Y-99700000D03*
X58850000Y-99700000D03*
D13*
X102870000Y-87950000D03*
X102870000Y-89850000D03*
X57350000Y-91600000D03*
X57350000Y-89700000D03*
X62250000Y-108011000D03*
X62250000Y-106111000D03*
X105664000Y-94554000D03*
X105664000Y-96454000D03*
D17*
X77750000Y-100800000D03*
D18*
X76250000Y-98300000D03*
D19*
X76250000Y-100700000D03*
D17*
X74750000Y-100800000D03*
D20*
X97917000Y-99508000D03*
X99187000Y-99508000D03*
X100457000Y-99508000D03*
X101727000Y-99508000D03*
X101727000Y-104708000D03*
X100457000Y-104708000D03*
X99187000Y-104708000D03*
X97917000Y-104708000D03*
D21*
X102930000Y-92075000D03*
X102930000Y-93345000D03*
X102930000Y-94615000D03*
X102930000Y-95885000D03*
X97730000Y-95885000D03*
X97730000Y-94615000D03*
X97730000Y-93345000D03*
X97730000Y-92075000D03*
X62500000Y-93595000D03*
X62500000Y-94865000D03*
X62500000Y-96135000D03*
X62500000Y-97405000D03*
X57300000Y-97405000D03*
X57300000Y-96135000D03*
X57300000Y-94865000D03*
X57300000Y-93595000D03*
D20*
X67745000Y-100600000D03*
X69015000Y-100600000D03*
X70285000Y-100600000D03*
X71555000Y-100600000D03*
X71555000Y-105800000D03*
X70285000Y-105800000D03*
X69015000Y-105800000D03*
X67745000Y-105800000D03*
D22*
X82468000Y-99968000D03*
X82468000Y-104168000D03*
M02*
