%TF.GenerationSoftware,KiCad,Pcbnew,(5.1.4)-1*%
%TF.CreationDate,2020-11-06T00:28:36+08:00*%
%TF.ProjectId,interface,696e7465-7266-4616-9365-2e6b69636164,rev?*%
%TF.SameCoordinates,Original*%
%TF.FileFunction,Copper,L2,Bot*%
%TF.FilePolarity,Positive*%
%FSLAX46Y46*%
G04 Gerber Fmt 4.6, Leading zero omitted, Abs format (unit mm)*
G04 Created by KiCad (PCBNEW (5.1.4)-1) date 2020-11-06 00:28:36*
%MOMM*%
%LPD*%
G04 APERTURE LIST*
%ADD10C,1.800000*%
%ADD11R,1.800000X1.800000*%
%ADD12C,0.800000*%
%ADD13C,6.000000*%
%ADD14C,1.440000*%
%ADD15O,3.000000X1.800000*%
%ADD16O,3.000000X1.600000*%
%ADD17O,3.000000X1.500000*%
%ADD18O,1.800000X3.600000*%
%ADD19R,1.800000X3.600000*%
%ADD20C,2.000000*%
%ADD21C,4.500000*%
%ADD22C,0.508000*%
%ADD23C,0.381000*%
%ADD24C,0.500000*%
%ADD25C,0.350000*%
%ADD26O,2.000000X0.800000*%
G04 APERTURE END LIST*
D10*
X93940000Y-82000000D03*
D11*
X91400000Y-82000000D03*
D10*
X74520000Y-82000000D03*
D11*
X71980000Y-82000000D03*
D10*
X57040000Y-82000000D03*
D11*
X54500000Y-82000000D03*
D12*
X27056810Y-58812500D03*
X27056810Y-61187500D03*
X25000000Y-62375000D03*
X22943190Y-61187500D03*
X22943190Y-58812500D03*
X25000000Y-57625000D03*
D13*
X25000000Y-60000000D03*
D12*
X117056810Y-58812500D03*
X117056810Y-61187500D03*
X115000000Y-62375000D03*
X112943190Y-61187500D03*
X112943190Y-58812500D03*
X115000000Y-57625000D03*
D13*
X115000000Y-60000000D03*
D14*
X83000000Y-62080000D03*
X83000000Y-59540000D03*
X83000000Y-57000000D03*
D15*
X113500000Y-86300000D03*
D16*
X113500000Y-80700000D03*
D15*
X115500000Y-77000000D03*
D17*
X115500000Y-82600000D03*
D15*
X115500000Y-88800000D03*
D18*
X102690000Y-48500000D03*
D19*
X106500000Y-48500000D03*
D15*
X99500000Y-86300000D03*
D16*
X99500000Y-80700000D03*
D15*
X101500000Y-77000000D03*
D17*
X101500000Y-82600000D03*
D15*
X101500000Y-88800000D03*
D18*
X86440000Y-48500000D03*
D19*
X90250000Y-48500000D03*
D15*
X80000000Y-86300000D03*
D16*
X80000000Y-80700000D03*
D15*
X82000000Y-77000000D03*
D17*
X82000000Y-82600000D03*
D15*
X82000000Y-88800000D03*
D18*
X70190000Y-48500000D03*
D19*
X74000000Y-48500000D03*
D15*
X62500000Y-86300000D03*
D16*
X62500000Y-80700000D03*
D15*
X64500000Y-77000000D03*
D17*
X64500000Y-82600000D03*
D15*
X64500000Y-88800000D03*
D18*
X53940000Y-48500000D03*
D19*
X57750000Y-48500000D03*
D20*
X40155000Y-75160000D03*
X37385000Y-75160000D03*
X34615000Y-75160000D03*
X31845000Y-75160000D03*
X41540000Y-72320000D03*
X38770000Y-72320000D03*
X33230000Y-72320000D03*
X30460000Y-72320000D03*
X36000000Y-72320000D03*
X40155000Y-81920000D03*
X37385000Y-81920000D03*
X34615000Y-81920000D03*
X31845000Y-81920000D03*
X41540000Y-79080000D03*
X38770000Y-79080000D03*
X33230000Y-79080000D03*
X30460000Y-79080000D03*
X36000000Y-79080000D03*
D21*
X48500000Y-73920000D03*
X23500000Y-73920000D03*
X23500000Y-81920000D03*
X48500000Y-81920000D03*
D18*
X30070000Y-48500000D03*
X33880000Y-48500000D03*
X37690000Y-48500000D03*
D19*
X41500000Y-48500000D03*
D12*
X38400000Y-59200000D03*
X41800000Y-59200000D03*
X45200000Y-59200000D03*
X59000000Y-71000000D03*
X74800000Y-74400000D03*
X77800000Y-73800000D03*
X77000000Y-51600000D03*
X77000000Y-61400000D03*
X81400000Y-70200000D03*
X87400000Y-64800000D03*
X90400000Y-64400000D03*
X97400000Y-59000000D03*
X97800000Y-56200000D03*
X93000000Y-74000000D03*
X102000004Y-69800000D03*
X69000000Y-75200000D03*
X32799984Y-60800000D03*
X76400000Y-64600000D03*
X103200000Y-68600014D03*
X65800000Y-67400006D03*
X68600000Y-65599990D03*
X80200000Y-70400000D03*
X88800000Y-67000000D03*
X60200000Y-66800000D03*
X67400000Y-71800000D03*
X36400000Y-63600000D03*
X46600000Y-63800000D03*
X58600000Y-78800000D03*
X69200000Y-77400000D03*
X84600000Y-79000000D03*
X87400000Y-78200000D03*
X87400000Y-77400000D03*
X87400000Y-76600000D03*
X83800000Y-79000000D03*
X83000000Y-79000000D03*
X70600000Y-65800000D03*
X80000000Y-65800000D03*
X93600000Y-72800000D03*
X96800000Y-73600000D03*
X74800000Y-70200000D03*
X70400000Y-70600000D03*
D22*
X32412484Y-61187500D02*
X32799984Y-60800000D01*
X27056810Y-61187500D02*
X32412484Y-61187500D01*
X102690000Y-47600000D02*
X105090000Y-45200000D01*
X102690000Y-48500000D02*
X102690000Y-47600000D01*
X112600000Y-50985598D02*
X112600000Y-58600000D01*
X106814402Y-45200000D02*
X112600000Y-50985598D01*
X105090000Y-45200000D02*
X106814402Y-45200000D01*
D23*
X36400000Y-63600000D02*
X46400000Y-63600000D01*
X46400000Y-63600000D02*
X46600000Y-63800000D01*
X58600000Y-78800000D02*
X59165685Y-78800000D01*
X59165685Y-78800000D02*
X67800000Y-78800000D01*
X67800000Y-78800000D02*
X69200000Y-77400000D01*
D22*
X84600000Y-79000000D02*
X87000000Y-79000000D01*
X87000000Y-79000000D02*
X87400000Y-78600000D01*
X87400000Y-78600000D02*
X87400000Y-78200000D01*
X87400000Y-77400000D02*
X87400000Y-76600000D01*
X87400000Y-76600000D02*
X87400000Y-78200000D01*
X84600000Y-79000000D02*
X83800000Y-79000000D01*
X83800000Y-79000000D02*
X83000000Y-79000000D01*
D23*
X70600000Y-65800000D02*
X80000000Y-65800000D01*
X93600000Y-72800000D02*
X96000000Y-72800000D01*
X96000000Y-72800000D02*
X96800000Y-73600000D01*
X62619000Y-82600000D02*
X60819000Y-84400000D01*
X64500000Y-82600000D02*
X62619000Y-82600000D01*
X54500000Y-83281000D02*
X54500000Y-82000000D01*
X55619000Y-84400000D02*
X54500000Y-83281000D01*
X60819000Y-84400000D02*
X55619000Y-84400000D01*
X74400001Y-70599999D02*
X74800000Y-70200000D01*
X70400000Y-70600000D02*
X74400001Y-70599999D01*
D24*
G36*
X118992000Y-88992000D02*
G01*
X117620031Y-88992000D01*
X117565091Y-88900000D01*
X115600000Y-88900000D01*
X115600000Y-88920000D01*
X115400000Y-88920000D01*
X115400000Y-88900000D01*
X113434909Y-88900000D01*
X113379969Y-88992000D01*
X103620031Y-88992000D01*
X103565091Y-88900000D01*
X101600000Y-88900000D01*
X101600000Y-88920000D01*
X101400000Y-88920000D01*
X101400000Y-88900000D01*
X99434909Y-88900000D01*
X99379969Y-88992000D01*
X84120031Y-88992000D01*
X84065091Y-88900000D01*
X82100000Y-88900000D01*
X82100000Y-88920000D01*
X81900000Y-88920000D01*
X81900000Y-88900000D01*
X79934909Y-88900000D01*
X79879969Y-88992000D01*
X66620031Y-88992000D01*
X66565091Y-88900000D01*
X64600000Y-88900000D01*
X64600000Y-88920000D01*
X64400000Y-88920000D01*
X64400000Y-88900000D01*
X62434909Y-88900000D01*
X62379969Y-88992000D01*
X21008000Y-88992000D01*
X21008000Y-83992734D01*
X21568687Y-83992734D01*
X21805262Y-84422737D01*
X22326086Y-84705275D01*
X22892023Y-84880775D01*
X23481323Y-84942495D01*
X24071342Y-84888062D01*
X24639403Y-84719568D01*
X25163678Y-84443489D01*
X25194738Y-84422737D01*
X25431313Y-83992734D01*
X46568687Y-83992734D01*
X46805262Y-84422737D01*
X47326086Y-84705275D01*
X47892023Y-84880775D01*
X48481323Y-84942495D01*
X49071342Y-84888062D01*
X49639403Y-84719568D01*
X50163678Y-84443489D01*
X50194738Y-84422737D01*
X50431313Y-83992734D01*
X48500000Y-82061421D01*
X46568687Y-83992734D01*
X25431313Y-83992734D01*
X23500000Y-82061421D01*
X21568687Y-83992734D01*
X21008000Y-83992734D01*
X21008000Y-83620645D01*
X21427266Y-83851313D01*
X23358579Y-81920000D01*
X23641421Y-81920000D01*
X25572734Y-83851313D01*
X26002737Y-83614738D01*
X26285275Y-83093914D01*
X26460775Y-82527977D01*
X26522495Y-81938677D01*
X26468062Y-81348658D01*
X26299568Y-80780597D01*
X26023489Y-80256322D01*
X26002737Y-80225262D01*
X25572734Y-79988687D01*
X23641421Y-81920000D01*
X23358579Y-81920000D01*
X21427266Y-79988687D01*
X21008000Y-80219355D01*
X21008000Y-79847266D01*
X21568687Y-79847266D01*
X23500000Y-81778579D01*
X25431313Y-79847266D01*
X25194738Y-79417263D01*
X24673914Y-79134725D01*
X24107977Y-78959225D01*
X23607922Y-78906852D01*
X28702000Y-78906852D01*
X28702000Y-79253148D01*
X28769559Y-79592790D01*
X28902081Y-79912725D01*
X29094472Y-80200660D01*
X29339340Y-80445528D01*
X29627275Y-80637919D01*
X29947210Y-80770441D01*
X30286852Y-80838000D01*
X30453640Y-80838000D01*
X30287081Y-81087275D01*
X30154559Y-81407210D01*
X30087000Y-81746852D01*
X30087000Y-82093148D01*
X30154559Y-82432790D01*
X30287081Y-82752725D01*
X30479472Y-83040660D01*
X30724340Y-83285528D01*
X31012275Y-83477919D01*
X31332210Y-83610441D01*
X31671852Y-83678000D01*
X32018148Y-83678000D01*
X32357790Y-83610441D01*
X32677725Y-83477919D01*
X32965660Y-83285528D01*
X33210528Y-83040660D01*
X33230000Y-83011518D01*
X33249472Y-83040660D01*
X33494340Y-83285528D01*
X33782275Y-83477919D01*
X34102210Y-83610441D01*
X34441852Y-83678000D01*
X34788148Y-83678000D01*
X35127790Y-83610441D01*
X35447725Y-83477919D01*
X35735660Y-83285528D01*
X35980528Y-83040660D01*
X36000000Y-83011518D01*
X36019472Y-83040660D01*
X36264340Y-83285528D01*
X36552275Y-83477919D01*
X36872210Y-83610441D01*
X37211852Y-83678000D01*
X37558148Y-83678000D01*
X37897790Y-83610441D01*
X38217725Y-83477919D01*
X38505660Y-83285528D01*
X38750528Y-83040660D01*
X38770000Y-83011518D01*
X38789472Y-83040660D01*
X39034340Y-83285528D01*
X39322275Y-83477919D01*
X39642210Y-83610441D01*
X39981852Y-83678000D01*
X40328148Y-83678000D01*
X40667790Y-83610441D01*
X40987725Y-83477919D01*
X41275660Y-83285528D01*
X41520528Y-83040660D01*
X41712919Y-82752725D01*
X41845441Y-82432790D01*
X41913000Y-82093148D01*
X41913000Y-81901323D01*
X45477505Y-81901323D01*
X45531938Y-82491342D01*
X45700432Y-83059403D01*
X45976511Y-83583678D01*
X45997263Y-83614738D01*
X46427266Y-83851313D01*
X48358579Y-81920000D01*
X48641421Y-81920000D01*
X50572734Y-83851313D01*
X51002737Y-83614738D01*
X51285275Y-83093914D01*
X51460775Y-82527977D01*
X51522495Y-81938677D01*
X51468062Y-81348658D01*
X51394307Y-81100000D01*
X52838333Y-81100000D01*
X52838333Y-82900000D01*
X52852968Y-83048594D01*
X52896311Y-83191477D01*
X52966697Y-83323160D01*
X53061420Y-83438580D01*
X53176840Y-83533303D01*
X53308523Y-83603689D01*
X53451406Y-83647032D01*
X53600000Y-83661667D01*
X53627979Y-83661667D01*
X53707535Y-83810508D01*
X53826064Y-83954936D01*
X53862267Y-83984647D01*
X54915357Y-85037738D01*
X54945064Y-85073936D01*
X55089492Y-85192465D01*
X55254269Y-85280539D01*
X55378824Y-85318323D01*
X55433061Y-85334776D01*
X55619000Y-85353089D01*
X55665594Y-85348500D01*
X60536015Y-85348500D01*
X60514753Y-85374408D01*
X60360796Y-85662441D01*
X60265990Y-85974975D01*
X60233978Y-86300000D01*
X60265990Y-86625025D01*
X60360796Y-86937559D01*
X60514753Y-87225592D01*
X60721945Y-87478055D01*
X60974408Y-87685247D01*
X61262441Y-87839204D01*
X61574975Y-87934010D01*
X61818551Y-87958000D01*
X62468773Y-87958000D01*
X62465867Y-87962011D01*
X62329940Y-88257898D01*
X62281037Y-88442335D01*
X62434909Y-88700000D01*
X64400000Y-88700000D01*
X64400000Y-88680000D01*
X64600000Y-88680000D01*
X64600000Y-88700000D01*
X66565091Y-88700000D01*
X66718963Y-88442335D01*
X66670060Y-88257898D01*
X66534133Y-87962011D01*
X66343093Y-87698327D01*
X66104282Y-87476980D01*
X65826877Y-87306476D01*
X65521538Y-87193367D01*
X65200000Y-87142000D01*
X64529928Y-87142000D01*
X64639204Y-86937559D01*
X64734010Y-86625025D01*
X64766022Y-86300000D01*
X77733978Y-86300000D01*
X77765990Y-86625025D01*
X77860796Y-86937559D01*
X78014753Y-87225592D01*
X78221945Y-87478055D01*
X78474408Y-87685247D01*
X78762441Y-87839204D01*
X79074975Y-87934010D01*
X79318551Y-87958000D01*
X79968773Y-87958000D01*
X79965867Y-87962011D01*
X79829940Y-88257898D01*
X79781037Y-88442335D01*
X79934909Y-88700000D01*
X81900000Y-88700000D01*
X81900000Y-88680000D01*
X82100000Y-88680000D01*
X82100000Y-88700000D01*
X84065091Y-88700000D01*
X84218963Y-88442335D01*
X84170060Y-88257898D01*
X84034133Y-87962011D01*
X83843093Y-87698327D01*
X83604282Y-87476980D01*
X83326877Y-87306476D01*
X83021538Y-87193367D01*
X82700000Y-87142000D01*
X82029928Y-87142000D01*
X82139204Y-86937559D01*
X82234010Y-86625025D01*
X82266022Y-86300000D01*
X97233978Y-86300000D01*
X97265990Y-86625025D01*
X97360796Y-86937559D01*
X97514753Y-87225592D01*
X97721945Y-87478055D01*
X97974408Y-87685247D01*
X98262441Y-87839204D01*
X98574975Y-87934010D01*
X98818551Y-87958000D01*
X99468773Y-87958000D01*
X99465867Y-87962011D01*
X99329940Y-88257898D01*
X99281037Y-88442335D01*
X99434909Y-88700000D01*
X101400000Y-88700000D01*
X101400000Y-88680000D01*
X101600000Y-88680000D01*
X101600000Y-88700000D01*
X103565091Y-88700000D01*
X103718963Y-88442335D01*
X103670060Y-88257898D01*
X103534133Y-87962011D01*
X103343093Y-87698327D01*
X103104282Y-87476980D01*
X102826877Y-87306476D01*
X102521538Y-87193367D01*
X102200000Y-87142000D01*
X101529928Y-87142000D01*
X101639204Y-86937559D01*
X101734010Y-86625025D01*
X101766022Y-86300000D01*
X111233978Y-86300000D01*
X111265990Y-86625025D01*
X111360796Y-86937559D01*
X111514753Y-87225592D01*
X111721945Y-87478055D01*
X111974408Y-87685247D01*
X112262441Y-87839204D01*
X112574975Y-87934010D01*
X112818551Y-87958000D01*
X113468773Y-87958000D01*
X113465867Y-87962011D01*
X113329940Y-88257898D01*
X113281037Y-88442335D01*
X113434909Y-88700000D01*
X115400000Y-88700000D01*
X115400000Y-88680000D01*
X115600000Y-88680000D01*
X115600000Y-88700000D01*
X117565091Y-88700000D01*
X117718963Y-88442335D01*
X117670060Y-88257898D01*
X117534133Y-87962011D01*
X117343093Y-87698327D01*
X117104282Y-87476980D01*
X116826877Y-87306476D01*
X116521538Y-87193367D01*
X116200000Y-87142000D01*
X115529928Y-87142000D01*
X115639204Y-86937559D01*
X115734010Y-86625025D01*
X115766022Y-86300000D01*
X115734010Y-85974975D01*
X115639204Y-85662441D01*
X115485247Y-85374408D01*
X115278055Y-85121945D01*
X115025592Y-84914753D01*
X114737559Y-84760796D01*
X114425025Y-84665990D01*
X114181449Y-84642000D01*
X112818551Y-84642000D01*
X112574975Y-84665990D01*
X112262441Y-84760796D01*
X111974408Y-84914753D01*
X111721945Y-85121945D01*
X111514753Y-85374408D01*
X111360796Y-85662441D01*
X111265990Y-85974975D01*
X111233978Y-86300000D01*
X101766022Y-86300000D01*
X101734010Y-85974975D01*
X101639204Y-85662441D01*
X101485247Y-85374408D01*
X101278055Y-85121945D01*
X101025592Y-84914753D01*
X100737559Y-84760796D01*
X100425025Y-84665990D01*
X100181449Y-84642000D01*
X98818551Y-84642000D01*
X98574975Y-84665990D01*
X98262441Y-84760796D01*
X97974408Y-84914753D01*
X97721945Y-85121945D01*
X97514753Y-85374408D01*
X97360796Y-85662441D01*
X97265990Y-85974975D01*
X97233978Y-86300000D01*
X82266022Y-86300000D01*
X82234010Y-85974975D01*
X82139204Y-85662441D01*
X81985247Y-85374408D01*
X81778055Y-85121945D01*
X81525592Y-84914753D01*
X81237559Y-84760796D01*
X80925025Y-84665990D01*
X80681449Y-84642000D01*
X79318551Y-84642000D01*
X79074975Y-84665990D01*
X78762441Y-84760796D01*
X78474408Y-84914753D01*
X78221945Y-85121945D01*
X78014753Y-85374408D01*
X77860796Y-85662441D01*
X77765990Y-85974975D01*
X77733978Y-86300000D01*
X64766022Y-86300000D01*
X64734010Y-85974975D01*
X64639204Y-85662441D01*
X64485247Y-85374408D01*
X64278055Y-85121945D01*
X64025592Y-84914753D01*
X63737559Y-84760796D01*
X63425025Y-84665990D01*
X63181449Y-84642000D01*
X61918380Y-84642000D01*
X62794075Y-83766306D01*
X62908147Y-83859923D01*
X63170121Y-83999951D01*
X63454380Y-84086180D01*
X63675922Y-84108000D01*
X65324078Y-84108000D01*
X65545620Y-84086180D01*
X65829879Y-83999951D01*
X66091853Y-83859923D01*
X66321476Y-83671476D01*
X66509923Y-83441853D01*
X66649951Y-83179879D01*
X66736180Y-82895620D01*
X66765296Y-82600000D01*
X66736180Y-82304380D01*
X66649951Y-82020121D01*
X66509923Y-81758147D01*
X66321476Y-81528524D01*
X66091853Y-81340077D01*
X65829879Y-81200049D01*
X65545620Y-81113820D01*
X65405304Y-81100000D01*
X70318333Y-81100000D01*
X70318333Y-82900000D01*
X70332968Y-83048594D01*
X70376311Y-83191477D01*
X70446697Y-83323160D01*
X70541420Y-83438580D01*
X70656840Y-83533303D01*
X70788523Y-83603689D01*
X70931406Y-83647032D01*
X71080000Y-83661667D01*
X72880000Y-83661667D01*
X73028594Y-83647032D01*
X73171477Y-83603689D01*
X73303160Y-83533303D01*
X73418580Y-83438580D01*
X73513303Y-83323160D01*
X73573881Y-83209827D01*
X73623404Y-83404188D01*
X73914576Y-83552124D01*
X74229013Y-83640413D01*
X74554633Y-83665661D01*
X74878922Y-83626899D01*
X75189418Y-83525617D01*
X75416596Y-83404188D01*
X75490951Y-83112372D01*
X74520000Y-82141421D01*
X74505858Y-82155564D01*
X74364437Y-82014143D01*
X74378579Y-82000000D01*
X74661421Y-82000000D01*
X75632372Y-82970951D01*
X75924188Y-82896596D01*
X76072124Y-82605424D01*
X76160413Y-82290987D01*
X76185661Y-81965367D01*
X76146899Y-81641078D01*
X76045617Y-81330582D01*
X75924188Y-81103404D01*
X75683165Y-81041991D01*
X77779998Y-81041991D01*
X77822327Y-81203833D01*
X77949013Y-81482432D01*
X78127617Y-81730962D01*
X78351275Y-81939873D01*
X78611392Y-82101136D01*
X78897971Y-82208554D01*
X79200000Y-82258000D01*
X79777889Y-82258000D01*
X79763820Y-82304380D01*
X79734704Y-82600000D01*
X79763820Y-82895620D01*
X79850049Y-83179879D01*
X79990077Y-83441853D01*
X80178524Y-83671476D01*
X80408147Y-83859923D01*
X80670121Y-83999951D01*
X80954380Y-84086180D01*
X81175922Y-84108000D01*
X82824078Y-84108000D01*
X83045620Y-84086180D01*
X83329879Y-83999951D01*
X83591853Y-83859923D01*
X83821476Y-83671476D01*
X84009923Y-83441853D01*
X84149951Y-83179879D01*
X84236180Y-82895620D01*
X84265296Y-82600000D01*
X84236180Y-82304380D01*
X84149951Y-82020121D01*
X84009923Y-81758147D01*
X83821476Y-81528524D01*
X83591853Y-81340077D01*
X83329879Y-81200049D01*
X83045620Y-81113820D01*
X82905304Y-81100000D01*
X89738333Y-81100000D01*
X89738333Y-82900000D01*
X89752968Y-83048594D01*
X89796311Y-83191477D01*
X89866697Y-83323160D01*
X89961420Y-83438580D01*
X90076840Y-83533303D01*
X90208523Y-83603689D01*
X90351406Y-83647032D01*
X90500000Y-83661667D01*
X92300000Y-83661667D01*
X92448594Y-83647032D01*
X92591477Y-83603689D01*
X92723160Y-83533303D01*
X92838580Y-83438580D01*
X92933303Y-83323160D01*
X92933994Y-83321867D01*
X93154643Y-83469300D01*
X93456379Y-83594284D01*
X93776701Y-83658000D01*
X94103299Y-83658000D01*
X94423621Y-83594284D01*
X94725357Y-83469300D01*
X94996913Y-83287852D01*
X95227852Y-83056913D01*
X95409300Y-82785357D01*
X95534284Y-82483621D01*
X95598000Y-82163299D01*
X95598000Y-81836701D01*
X95534284Y-81516379D01*
X95409300Y-81214643D01*
X95227852Y-80943087D01*
X94996913Y-80712148D01*
X94978733Y-80700000D01*
X97234462Y-80700000D01*
X97264543Y-81005421D01*
X97353631Y-81299105D01*
X97498303Y-81569766D01*
X97692997Y-81807003D01*
X97930234Y-82001697D01*
X98200895Y-82146369D01*
X98494579Y-82235457D01*
X98723465Y-82258000D01*
X99277889Y-82258000D01*
X99263820Y-82304380D01*
X99234704Y-82600000D01*
X99263820Y-82895620D01*
X99350049Y-83179879D01*
X99490077Y-83441853D01*
X99678524Y-83671476D01*
X99908147Y-83859923D01*
X100170121Y-83999951D01*
X100454380Y-84086180D01*
X100675922Y-84108000D01*
X102324078Y-84108000D01*
X102545620Y-84086180D01*
X102829879Y-83999951D01*
X103091853Y-83859923D01*
X103321476Y-83671476D01*
X103509923Y-83441853D01*
X103649951Y-83179879D01*
X103736180Y-82895620D01*
X103765296Y-82600000D01*
X103736180Y-82304380D01*
X103649951Y-82020121D01*
X103509923Y-81758147D01*
X103321476Y-81528524D01*
X103091853Y-81340077D01*
X102829879Y-81200049D01*
X102545620Y-81113820D01*
X102324078Y-81092000D01*
X101709194Y-81092000D01*
X101735457Y-81005421D01*
X101765538Y-80700000D01*
X111234462Y-80700000D01*
X111264543Y-81005421D01*
X111353631Y-81299105D01*
X111498303Y-81569766D01*
X111692997Y-81807003D01*
X111930234Y-82001697D01*
X112200895Y-82146369D01*
X112494579Y-82235457D01*
X112723465Y-82258000D01*
X113277889Y-82258000D01*
X113263820Y-82304380D01*
X113234704Y-82600000D01*
X113263820Y-82895620D01*
X113350049Y-83179879D01*
X113490077Y-83441853D01*
X113678524Y-83671476D01*
X113908147Y-83859923D01*
X114170121Y-83999951D01*
X114454380Y-84086180D01*
X114675922Y-84108000D01*
X116324078Y-84108000D01*
X116545620Y-84086180D01*
X116829879Y-83999951D01*
X117091853Y-83859923D01*
X117321476Y-83671476D01*
X117509923Y-83441853D01*
X117649951Y-83179879D01*
X117736180Y-82895620D01*
X117765296Y-82600000D01*
X117736180Y-82304380D01*
X117649951Y-82020121D01*
X117509923Y-81758147D01*
X117321476Y-81528524D01*
X117091853Y-81340077D01*
X116829879Y-81200049D01*
X116545620Y-81113820D01*
X116324078Y-81092000D01*
X115709194Y-81092000D01*
X115735457Y-81005421D01*
X115765538Y-80700000D01*
X115735457Y-80394579D01*
X115646369Y-80100895D01*
X115501697Y-79830234D01*
X115307003Y-79592997D01*
X115069766Y-79398303D01*
X114799105Y-79253631D01*
X114505421Y-79164543D01*
X114276535Y-79142000D01*
X112723465Y-79142000D01*
X112494579Y-79164543D01*
X112200895Y-79253631D01*
X111930234Y-79398303D01*
X111692997Y-79592997D01*
X111498303Y-79830234D01*
X111353631Y-80100895D01*
X111264543Y-80394579D01*
X111234462Y-80700000D01*
X101765538Y-80700000D01*
X101735457Y-80394579D01*
X101646369Y-80100895D01*
X101501697Y-79830234D01*
X101307003Y-79592997D01*
X101069766Y-79398303D01*
X100799105Y-79253631D01*
X100505421Y-79164543D01*
X100276535Y-79142000D01*
X98723465Y-79142000D01*
X98494579Y-79164543D01*
X98200895Y-79253631D01*
X97930234Y-79398303D01*
X97692997Y-79592997D01*
X97498303Y-79830234D01*
X97353631Y-80100895D01*
X97264543Y-80394579D01*
X97234462Y-80700000D01*
X94978733Y-80700000D01*
X94725357Y-80530700D01*
X94423621Y-80405716D01*
X94103299Y-80342000D01*
X93776701Y-80342000D01*
X93456379Y-80405716D01*
X93154643Y-80530700D01*
X92933994Y-80678133D01*
X92933303Y-80676840D01*
X92838580Y-80561420D01*
X92723160Y-80466697D01*
X92591477Y-80396311D01*
X92448594Y-80352968D01*
X92300000Y-80338333D01*
X90500000Y-80338333D01*
X90351406Y-80352968D01*
X90208523Y-80396311D01*
X90076840Y-80466697D01*
X89961420Y-80561420D01*
X89866697Y-80676840D01*
X89796311Y-80808523D01*
X89752968Y-80951406D01*
X89738333Y-81100000D01*
X82905304Y-81100000D01*
X82824078Y-81092000D01*
X82206922Y-81092000D01*
X82220002Y-81041991D01*
X82064841Y-80800000D01*
X80100000Y-80800000D01*
X80100000Y-80820000D01*
X79900000Y-80820000D01*
X79900000Y-80800000D01*
X77935159Y-80800000D01*
X77779998Y-81041991D01*
X75683165Y-81041991D01*
X75632372Y-81029049D01*
X74661421Y-82000000D01*
X74378579Y-82000000D01*
X74364437Y-81985858D01*
X74505858Y-81844437D01*
X74520000Y-81858579D01*
X75490951Y-80887628D01*
X75416596Y-80595812D01*
X75125424Y-80447876D01*
X74810987Y-80359587D01*
X74790636Y-80358009D01*
X77779998Y-80358009D01*
X77935159Y-80600000D01*
X79900000Y-80600000D01*
X79900000Y-79142000D01*
X80100000Y-79142000D01*
X80100000Y-80600000D01*
X82064841Y-80600000D01*
X82220002Y-80358009D01*
X82177673Y-80196167D01*
X82050987Y-79917568D01*
X81872383Y-79669038D01*
X81648725Y-79460127D01*
X81388608Y-79298864D01*
X81102029Y-79191446D01*
X80800000Y-79142000D01*
X80100000Y-79142000D01*
X79900000Y-79142000D01*
X79200000Y-79142000D01*
X78897971Y-79191446D01*
X78611392Y-79298864D01*
X78351275Y-79460127D01*
X78127617Y-79669038D01*
X77949013Y-79917568D01*
X77822327Y-80196167D01*
X77779998Y-80358009D01*
X74790636Y-80358009D01*
X74485367Y-80334339D01*
X74161078Y-80373101D01*
X73850582Y-80474383D01*
X73623404Y-80595812D01*
X73573881Y-80790173D01*
X73513303Y-80676840D01*
X73418580Y-80561420D01*
X73303160Y-80466697D01*
X73171477Y-80396311D01*
X73028594Y-80352968D01*
X72880000Y-80338333D01*
X71080000Y-80338333D01*
X70931406Y-80352968D01*
X70788523Y-80396311D01*
X70656840Y-80466697D01*
X70541420Y-80561420D01*
X70446697Y-80676840D01*
X70376311Y-80808523D01*
X70332968Y-80951406D01*
X70318333Y-81100000D01*
X65405304Y-81100000D01*
X65324078Y-81092000D01*
X64706922Y-81092000D01*
X64720002Y-81041991D01*
X64564841Y-80800000D01*
X62600000Y-80800000D01*
X62600000Y-80820000D01*
X62400000Y-80820000D01*
X62400000Y-80800000D01*
X60435159Y-80800000D01*
X60279998Y-81041991D01*
X60322327Y-81203833D01*
X60449013Y-81482432D01*
X60627617Y-81730962D01*
X60851275Y-81939873D01*
X61111392Y-82101136D01*
X61397971Y-82208554D01*
X61630927Y-82246692D01*
X60426120Y-83451500D01*
X57848081Y-83451500D01*
X57936596Y-83404188D01*
X58010951Y-83112372D01*
X57040000Y-82141421D01*
X57025858Y-82155564D01*
X56884437Y-82014143D01*
X56898579Y-82000000D01*
X57181421Y-82000000D01*
X58152372Y-82970951D01*
X58444188Y-82896596D01*
X58592124Y-82605424D01*
X58680413Y-82290987D01*
X58705661Y-81965367D01*
X58666899Y-81641078D01*
X58565617Y-81330582D01*
X58444188Y-81103404D01*
X58152372Y-81029049D01*
X57181421Y-82000000D01*
X56898579Y-82000000D01*
X56884437Y-81985858D01*
X57025858Y-81844437D01*
X57040000Y-81858579D01*
X58010951Y-80887628D01*
X57936596Y-80595812D01*
X57645424Y-80447876D01*
X57330987Y-80359587D01*
X57005367Y-80334339D01*
X56681078Y-80373101D01*
X56370582Y-80474383D01*
X56143404Y-80595812D01*
X56093881Y-80790173D01*
X56033303Y-80676840D01*
X55938580Y-80561420D01*
X55823160Y-80466697D01*
X55691477Y-80396311D01*
X55548594Y-80352968D01*
X55400000Y-80338333D01*
X53600000Y-80338333D01*
X53451406Y-80352968D01*
X53308523Y-80396311D01*
X53176840Y-80466697D01*
X53061420Y-80561420D01*
X52966697Y-80676840D01*
X52896311Y-80808523D01*
X52852968Y-80951406D01*
X52838333Y-81100000D01*
X51394307Y-81100000D01*
X51299568Y-80780597D01*
X51023489Y-80256322D01*
X51002737Y-80225262D01*
X50572734Y-79988687D01*
X48641421Y-81920000D01*
X48358579Y-81920000D01*
X46427266Y-79988687D01*
X45997263Y-80225262D01*
X45714725Y-80746086D01*
X45539225Y-81312023D01*
X45477505Y-81901323D01*
X41913000Y-81901323D01*
X41913000Y-81746852D01*
X41845441Y-81407210D01*
X41712919Y-81087275D01*
X41550788Y-80844628D01*
X41570681Y-80846239D01*
X41914667Y-80806316D01*
X42244256Y-80700051D01*
X42495759Y-80565620D01*
X42582157Y-80263578D01*
X41540000Y-79221421D01*
X41525858Y-79235564D01*
X41384437Y-79094143D01*
X41398579Y-79080000D01*
X41681421Y-79080000D01*
X42723578Y-80122157D01*
X43025620Y-80035759D01*
X43122200Y-79847266D01*
X46568687Y-79847266D01*
X48500000Y-81778579D01*
X50431313Y-79847266D01*
X50194738Y-79417263D01*
X49673914Y-79134725D01*
X49107977Y-78959225D01*
X48518677Y-78897505D01*
X47928658Y-78951938D01*
X47360597Y-79120432D01*
X46836322Y-79396511D01*
X46805262Y-79417263D01*
X46568687Y-79847266D01*
X43122200Y-79847266D01*
X43183533Y-79727565D01*
X43278287Y-79394485D01*
X43306239Y-79049319D01*
X43266316Y-78705333D01*
X43260066Y-78685947D01*
X57442000Y-78685947D01*
X57442000Y-78914053D01*
X57486501Y-79137776D01*
X57573794Y-79348519D01*
X57700523Y-79538182D01*
X57861818Y-79699477D01*
X58051481Y-79826206D01*
X58262224Y-79913499D01*
X58485947Y-79958000D01*
X58714053Y-79958000D01*
X58937776Y-79913499D01*
X59148519Y-79826206D01*
X59264814Y-79748500D01*
X60570512Y-79748500D01*
X60449013Y-79917568D01*
X60322327Y-80196167D01*
X60279998Y-80358009D01*
X60435159Y-80600000D01*
X62400000Y-80600000D01*
X62400000Y-80580000D01*
X62600000Y-80580000D01*
X62600000Y-80600000D01*
X64564841Y-80600000D01*
X64720002Y-80358009D01*
X64677673Y-80196167D01*
X64550987Y-79917568D01*
X64429488Y-79748500D01*
X67753406Y-79748500D01*
X67800000Y-79753089D01*
X67985938Y-79734776D01*
X68009709Y-79727565D01*
X68164731Y-79680539D01*
X68329508Y-79592465D01*
X68473936Y-79473936D01*
X68503647Y-79437733D01*
X69400595Y-78540786D01*
X69537776Y-78513499D01*
X69748519Y-78426206D01*
X69938182Y-78299477D01*
X70099477Y-78138182D01*
X70226206Y-77948519D01*
X70313499Y-77737776D01*
X70358000Y-77514053D01*
X70358000Y-77285947D01*
X70313499Y-77062224D01*
X70287725Y-77000000D01*
X79733978Y-77000000D01*
X79765990Y-77325025D01*
X79860796Y-77637559D01*
X80014753Y-77925592D01*
X80221945Y-78178055D01*
X80474408Y-78385247D01*
X80762441Y-78539204D01*
X81074975Y-78634010D01*
X81318551Y-78658000D01*
X81888251Y-78658000D01*
X81886501Y-78662224D01*
X81842000Y-78885947D01*
X81842000Y-79114053D01*
X81886501Y-79337776D01*
X81973794Y-79548519D01*
X82100523Y-79738182D01*
X82261818Y-79899477D01*
X82451481Y-80026206D01*
X82662224Y-80113499D01*
X82885947Y-80158000D01*
X83114053Y-80158000D01*
X83337776Y-80113499D01*
X83400000Y-80087725D01*
X83462224Y-80113499D01*
X83685947Y-80158000D01*
X83914053Y-80158000D01*
X84137776Y-80113499D01*
X84200000Y-80087725D01*
X84262224Y-80113499D01*
X84485947Y-80158000D01*
X84714053Y-80158000D01*
X84937776Y-80113499D01*
X85148519Y-80026206D01*
X85169780Y-80012000D01*
X86950299Y-80012000D01*
X87000000Y-80016895D01*
X87049701Y-80012000D01*
X87049711Y-80012000D01*
X87198387Y-79997357D01*
X87389149Y-79939489D01*
X87564957Y-79845518D01*
X87719054Y-79719054D01*
X87750743Y-79680441D01*
X88080437Y-79350746D01*
X88119054Y-79319054D01*
X88245518Y-79164957D01*
X88339489Y-78989149D01*
X88397357Y-78798387D01*
X88398130Y-78790537D01*
X88426206Y-78748519D01*
X88513499Y-78537776D01*
X88558000Y-78314053D01*
X88558000Y-78085947D01*
X88513499Y-77862224D01*
X88487725Y-77800000D01*
X88513499Y-77737776D01*
X88558000Y-77514053D01*
X88558000Y-77285947D01*
X88513499Y-77062224D01*
X88487725Y-77000000D01*
X99233978Y-77000000D01*
X99265990Y-77325025D01*
X99360796Y-77637559D01*
X99514753Y-77925592D01*
X99721945Y-78178055D01*
X99974408Y-78385247D01*
X100262441Y-78539204D01*
X100574975Y-78634010D01*
X100818551Y-78658000D01*
X102181449Y-78658000D01*
X102425025Y-78634010D01*
X102737559Y-78539204D01*
X103025592Y-78385247D01*
X103278055Y-78178055D01*
X103485247Y-77925592D01*
X103639204Y-77637559D01*
X103734010Y-77325025D01*
X103766022Y-77000000D01*
X113233978Y-77000000D01*
X113265990Y-77325025D01*
X113360796Y-77637559D01*
X113514753Y-77925592D01*
X113721945Y-78178055D01*
X113974408Y-78385247D01*
X114262441Y-78539204D01*
X114574975Y-78634010D01*
X114818551Y-78658000D01*
X116181449Y-78658000D01*
X116425025Y-78634010D01*
X116737559Y-78539204D01*
X117025592Y-78385247D01*
X117278055Y-78178055D01*
X117485247Y-77925592D01*
X117639204Y-77637559D01*
X117734010Y-77325025D01*
X117766022Y-77000000D01*
X117734010Y-76674975D01*
X117639204Y-76362441D01*
X117485247Y-76074408D01*
X117278055Y-75821945D01*
X117025592Y-75614753D01*
X116737559Y-75460796D01*
X116425025Y-75365990D01*
X116181449Y-75342000D01*
X114818551Y-75342000D01*
X114574975Y-75365990D01*
X114262441Y-75460796D01*
X113974408Y-75614753D01*
X113721945Y-75821945D01*
X113514753Y-76074408D01*
X113360796Y-76362441D01*
X113265990Y-76674975D01*
X113233978Y-77000000D01*
X103766022Y-77000000D01*
X103734010Y-76674975D01*
X103639204Y-76362441D01*
X103485247Y-76074408D01*
X103278055Y-75821945D01*
X103025592Y-75614753D01*
X102737559Y-75460796D01*
X102425025Y-75365990D01*
X102181449Y-75342000D01*
X100818551Y-75342000D01*
X100574975Y-75365990D01*
X100262441Y-75460796D01*
X99974408Y-75614753D01*
X99721945Y-75821945D01*
X99514753Y-76074408D01*
X99360796Y-76362441D01*
X99265990Y-76674975D01*
X99233978Y-77000000D01*
X88487725Y-77000000D01*
X88513499Y-76937776D01*
X88558000Y-76714053D01*
X88558000Y-76485947D01*
X88513499Y-76262224D01*
X88426206Y-76051481D01*
X88299477Y-75861818D01*
X88138182Y-75700523D01*
X87948519Y-75573794D01*
X87737776Y-75486501D01*
X87514053Y-75442000D01*
X87285947Y-75442000D01*
X87062224Y-75486501D01*
X86851481Y-75573794D01*
X86661818Y-75700523D01*
X86500523Y-75861818D01*
X86373794Y-76051481D01*
X86286501Y-76262224D01*
X86242000Y-76485947D01*
X86242000Y-76714053D01*
X86286501Y-76937776D01*
X86312275Y-77000000D01*
X86286501Y-77062224D01*
X86242000Y-77285947D01*
X86242000Y-77514053D01*
X86286501Y-77737776D01*
X86312275Y-77800000D01*
X86286501Y-77862224D01*
X86261483Y-77988000D01*
X85169780Y-77988000D01*
X85148519Y-77973794D01*
X84937776Y-77886501D01*
X84714053Y-77842000D01*
X84485947Y-77842000D01*
X84262224Y-77886501D01*
X84200000Y-77912275D01*
X84137776Y-77886501D01*
X84018792Y-77862834D01*
X84139204Y-77637559D01*
X84234010Y-77325025D01*
X84266022Y-77000000D01*
X84234010Y-76674975D01*
X84139204Y-76362441D01*
X83985247Y-76074408D01*
X83778055Y-75821945D01*
X83525592Y-75614753D01*
X83237559Y-75460796D01*
X82925025Y-75365990D01*
X82681449Y-75342000D01*
X81318551Y-75342000D01*
X81074975Y-75365990D01*
X80762441Y-75460796D01*
X80474408Y-75614753D01*
X80221945Y-75821945D01*
X80014753Y-76074408D01*
X79860796Y-76362441D01*
X79765990Y-76674975D01*
X79733978Y-77000000D01*
X70287725Y-77000000D01*
X70226206Y-76851481D01*
X70099477Y-76661818D01*
X69938182Y-76500523D01*
X69748519Y-76373794D01*
X69537776Y-76286501D01*
X69314053Y-76242000D01*
X69085947Y-76242000D01*
X68862224Y-76286501D01*
X68651481Y-76373794D01*
X68461818Y-76500523D01*
X68300523Y-76661818D01*
X68173794Y-76851481D01*
X68086501Y-77062224D01*
X68059214Y-77199405D01*
X67407120Y-77851500D01*
X66524850Y-77851500D01*
X66639204Y-77637559D01*
X66734010Y-77325025D01*
X66766022Y-77000000D01*
X66734010Y-76674975D01*
X66639204Y-76362441D01*
X66485247Y-76074408D01*
X66278055Y-75821945D01*
X66025592Y-75614753D01*
X65737559Y-75460796D01*
X65425025Y-75365990D01*
X65181449Y-75342000D01*
X63818551Y-75342000D01*
X63574975Y-75365990D01*
X63262441Y-75460796D01*
X62974408Y-75614753D01*
X62721945Y-75821945D01*
X62514753Y-76074408D01*
X62360796Y-76362441D01*
X62265990Y-76674975D01*
X62233978Y-77000000D01*
X62265990Y-77325025D01*
X62360796Y-77637559D01*
X62475150Y-77851500D01*
X59264814Y-77851500D01*
X59148519Y-77773794D01*
X58937776Y-77686501D01*
X58714053Y-77642000D01*
X58485947Y-77642000D01*
X58262224Y-77686501D01*
X58051481Y-77773794D01*
X57861818Y-77900523D01*
X57700523Y-78061818D01*
X57573794Y-78251481D01*
X57486501Y-78462224D01*
X57442000Y-78685947D01*
X43260066Y-78685947D01*
X43160051Y-78375744D01*
X43025620Y-78124241D01*
X42723578Y-78037843D01*
X41681421Y-79080000D01*
X41398579Y-79080000D01*
X40356422Y-78037843D01*
X40215010Y-78078293D01*
X40135528Y-77959340D01*
X40072610Y-77896422D01*
X40497843Y-77896422D01*
X41540000Y-78938579D01*
X42582157Y-77896422D01*
X42495759Y-77594380D01*
X42187565Y-77436467D01*
X41854485Y-77341713D01*
X41509319Y-77313761D01*
X41165333Y-77353684D01*
X40835744Y-77459949D01*
X40584241Y-77594380D01*
X40497843Y-77896422D01*
X40072610Y-77896422D01*
X39890660Y-77714472D01*
X39602725Y-77522081D01*
X39282790Y-77389559D01*
X38943148Y-77322000D01*
X38596852Y-77322000D01*
X38257210Y-77389559D01*
X37937275Y-77522081D01*
X37649340Y-77714472D01*
X37404472Y-77959340D01*
X37385000Y-77988482D01*
X37365528Y-77959340D01*
X37120660Y-77714472D01*
X36832725Y-77522081D01*
X36512790Y-77389559D01*
X36173148Y-77322000D01*
X35826852Y-77322000D01*
X35487210Y-77389559D01*
X35167275Y-77522081D01*
X34879340Y-77714472D01*
X34634472Y-77959340D01*
X34615000Y-77988482D01*
X34595528Y-77959340D01*
X34350660Y-77714472D01*
X34062725Y-77522081D01*
X33742790Y-77389559D01*
X33403148Y-77322000D01*
X33056852Y-77322000D01*
X32717210Y-77389559D01*
X32397275Y-77522081D01*
X32109340Y-77714472D01*
X31864472Y-77959340D01*
X31845000Y-77988482D01*
X31825528Y-77959340D01*
X31580660Y-77714472D01*
X31292725Y-77522081D01*
X30972790Y-77389559D01*
X30633148Y-77322000D01*
X30286852Y-77322000D01*
X29947210Y-77389559D01*
X29627275Y-77522081D01*
X29339340Y-77714472D01*
X29094472Y-77959340D01*
X28902081Y-78247275D01*
X28769559Y-78567210D01*
X28702000Y-78906852D01*
X23607922Y-78906852D01*
X23518677Y-78897505D01*
X22928658Y-78951938D01*
X22360597Y-79120432D01*
X21836322Y-79396511D01*
X21805262Y-79417263D01*
X21568687Y-79847266D01*
X21008000Y-79847266D01*
X21008000Y-75992734D01*
X21568687Y-75992734D01*
X21805262Y-76422737D01*
X22326086Y-76705275D01*
X22892023Y-76880775D01*
X23481323Y-76942495D01*
X24071342Y-76888062D01*
X24639403Y-76719568D01*
X25163678Y-76443489D01*
X25194738Y-76422737D01*
X25431313Y-75992734D01*
X23500000Y-74061421D01*
X21568687Y-75992734D01*
X21008000Y-75992734D01*
X21008000Y-75620645D01*
X21427266Y-75851313D01*
X23358579Y-73920000D01*
X23641421Y-73920000D01*
X25572734Y-75851313D01*
X26002737Y-75614738D01*
X26285275Y-75093914D01*
X26460775Y-74527977D01*
X26522495Y-73938677D01*
X26468062Y-73348658D01*
X26299568Y-72780597D01*
X26023489Y-72256322D01*
X26002737Y-72225262D01*
X25860218Y-72146852D01*
X28702000Y-72146852D01*
X28702000Y-72493148D01*
X28769559Y-72832790D01*
X28902081Y-73152725D01*
X29094472Y-73440660D01*
X29339340Y-73685528D01*
X29627275Y-73877919D01*
X29947210Y-74010441D01*
X30286852Y-74078000D01*
X30453640Y-74078000D01*
X30287081Y-74327275D01*
X30154559Y-74647210D01*
X30087000Y-74986852D01*
X30087000Y-75333148D01*
X30154559Y-75672790D01*
X30287081Y-75992725D01*
X30479472Y-76280660D01*
X30724340Y-76525528D01*
X31012275Y-76717919D01*
X31332210Y-76850441D01*
X31671852Y-76918000D01*
X32018148Y-76918000D01*
X32357790Y-76850441D01*
X32677725Y-76717919D01*
X32965660Y-76525528D01*
X33210528Y-76280660D01*
X33230000Y-76251518D01*
X33249472Y-76280660D01*
X33494340Y-76525528D01*
X33782275Y-76717919D01*
X34102210Y-76850441D01*
X34441852Y-76918000D01*
X34788148Y-76918000D01*
X35127790Y-76850441D01*
X35447725Y-76717919D01*
X35735660Y-76525528D01*
X35980528Y-76280660D01*
X36000000Y-76251518D01*
X36019472Y-76280660D01*
X36264340Y-76525528D01*
X36552275Y-76717919D01*
X36872210Y-76850441D01*
X37211852Y-76918000D01*
X37558148Y-76918000D01*
X37897790Y-76850441D01*
X38217725Y-76717919D01*
X38505660Y-76525528D01*
X38750528Y-76280660D01*
X38770000Y-76251518D01*
X38789472Y-76280660D01*
X39034340Y-76525528D01*
X39322275Y-76717919D01*
X39642210Y-76850441D01*
X39981852Y-76918000D01*
X40328148Y-76918000D01*
X40667790Y-76850441D01*
X40987725Y-76717919D01*
X41275660Y-76525528D01*
X41520528Y-76280660D01*
X41712912Y-75992734D01*
X46568687Y-75992734D01*
X46805262Y-76422737D01*
X47326086Y-76705275D01*
X47892023Y-76880775D01*
X48481323Y-76942495D01*
X49071342Y-76888062D01*
X49639403Y-76719568D01*
X50163678Y-76443489D01*
X50194738Y-76422737D01*
X50431313Y-75992734D01*
X48500000Y-74061421D01*
X46568687Y-75992734D01*
X41712912Y-75992734D01*
X41712919Y-75992725D01*
X41845441Y-75672790D01*
X41913000Y-75333148D01*
X41913000Y-74986852D01*
X41845441Y-74647210D01*
X41712919Y-74327275D01*
X41550788Y-74084628D01*
X41570681Y-74086239D01*
X41914667Y-74046316D01*
X42244256Y-73940051D01*
X42316711Y-73901323D01*
X45477505Y-73901323D01*
X45531938Y-74491342D01*
X45700432Y-75059403D01*
X45976511Y-75583678D01*
X45997263Y-75614738D01*
X46427266Y-75851313D01*
X48358579Y-73920000D01*
X48641421Y-73920000D01*
X50572734Y-75851313D01*
X51002737Y-75614738D01*
X51285275Y-75093914D01*
X51460775Y-74527977D01*
X51522495Y-73938677D01*
X51468062Y-73348658D01*
X51299568Y-72780597D01*
X51249727Y-72685947D01*
X92442000Y-72685947D01*
X92442000Y-72914053D01*
X92486501Y-73137776D01*
X92573794Y-73348519D01*
X92700523Y-73538182D01*
X92861818Y-73699477D01*
X93051481Y-73826206D01*
X93262224Y-73913499D01*
X93485947Y-73958000D01*
X93714053Y-73958000D01*
X93937776Y-73913499D01*
X94148519Y-73826206D01*
X94264814Y-73748500D01*
X95607120Y-73748500D01*
X95659214Y-73800594D01*
X95686501Y-73937776D01*
X95773794Y-74148519D01*
X95900523Y-74338182D01*
X96061818Y-74499477D01*
X96251481Y-74626206D01*
X96462224Y-74713499D01*
X96685947Y-74758000D01*
X96914053Y-74758000D01*
X97137776Y-74713499D01*
X97348519Y-74626206D01*
X97538182Y-74499477D01*
X97699477Y-74338182D01*
X97826206Y-74148519D01*
X97913499Y-73937776D01*
X97958000Y-73714053D01*
X97958000Y-73485947D01*
X97913499Y-73262224D01*
X97826206Y-73051481D01*
X97699477Y-72861818D01*
X97538182Y-72700523D01*
X97348519Y-72573794D01*
X97137776Y-72486501D01*
X97000594Y-72459214D01*
X96703647Y-72162267D01*
X96673936Y-72126064D01*
X96529508Y-72007535D01*
X96364731Y-71919461D01*
X96185938Y-71865224D01*
X96046594Y-71851500D01*
X96000000Y-71846911D01*
X95953406Y-71851500D01*
X94264814Y-71851500D01*
X94148519Y-71773794D01*
X93937776Y-71686501D01*
X93714053Y-71642000D01*
X93485947Y-71642000D01*
X93262224Y-71686501D01*
X93051481Y-71773794D01*
X92861818Y-71900523D01*
X92700523Y-72061818D01*
X92573794Y-72251481D01*
X92486501Y-72462224D01*
X92442000Y-72685947D01*
X51249727Y-72685947D01*
X51023489Y-72256322D01*
X51002737Y-72225262D01*
X50572734Y-71988687D01*
X48641421Y-73920000D01*
X48358579Y-73920000D01*
X46427266Y-71988687D01*
X45997263Y-72225262D01*
X45714725Y-72746086D01*
X45539225Y-73312023D01*
X45477505Y-73901323D01*
X42316711Y-73901323D01*
X42495759Y-73805620D01*
X42582157Y-73503578D01*
X41540000Y-72461421D01*
X41525858Y-72475564D01*
X41384437Y-72334143D01*
X41398579Y-72320000D01*
X41681421Y-72320000D01*
X42723578Y-73362157D01*
X43025620Y-73275759D01*
X43183533Y-72967565D01*
X43278287Y-72634485D01*
X43306239Y-72289319D01*
X43266316Y-71945333D01*
X43234698Y-71847266D01*
X46568687Y-71847266D01*
X48500000Y-73778579D01*
X50431313Y-71847266D01*
X50194738Y-71417263D01*
X49673914Y-71134725D01*
X49107977Y-70959225D01*
X48518677Y-70897505D01*
X47928658Y-70951938D01*
X47360597Y-71120432D01*
X46836322Y-71396511D01*
X46805262Y-71417263D01*
X46568687Y-71847266D01*
X43234698Y-71847266D01*
X43160051Y-71615744D01*
X43025620Y-71364241D01*
X42723578Y-71277843D01*
X41681421Y-72320000D01*
X41398579Y-72320000D01*
X40356422Y-71277843D01*
X40215010Y-71318293D01*
X40135528Y-71199340D01*
X40072610Y-71136422D01*
X40497843Y-71136422D01*
X41540000Y-72178579D01*
X42582157Y-71136422D01*
X42495759Y-70834380D01*
X42187565Y-70676467D01*
X41854485Y-70581713D01*
X41509319Y-70553761D01*
X41165333Y-70593684D01*
X40835744Y-70699949D01*
X40584241Y-70834380D01*
X40497843Y-71136422D01*
X40072610Y-71136422D01*
X39890660Y-70954472D01*
X39602725Y-70762081D01*
X39282790Y-70629559D01*
X38943148Y-70562000D01*
X38596852Y-70562000D01*
X38257210Y-70629559D01*
X37937275Y-70762081D01*
X37649340Y-70954472D01*
X37404472Y-71199340D01*
X37385000Y-71228482D01*
X37365528Y-71199340D01*
X37120660Y-70954472D01*
X36832725Y-70762081D01*
X36512790Y-70629559D01*
X36173148Y-70562000D01*
X35826852Y-70562000D01*
X35487210Y-70629559D01*
X35167275Y-70762081D01*
X34879340Y-70954472D01*
X34634472Y-71199340D01*
X34615000Y-71228482D01*
X34595528Y-71199340D01*
X34350660Y-70954472D01*
X34062725Y-70762081D01*
X33742790Y-70629559D01*
X33403148Y-70562000D01*
X33056852Y-70562000D01*
X32717210Y-70629559D01*
X32397275Y-70762081D01*
X32109340Y-70954472D01*
X31864472Y-71199340D01*
X31845000Y-71228482D01*
X31825528Y-71199340D01*
X31580660Y-70954472D01*
X31292725Y-70762081D01*
X30972790Y-70629559D01*
X30633148Y-70562000D01*
X30286852Y-70562000D01*
X29947210Y-70629559D01*
X29627275Y-70762081D01*
X29339340Y-70954472D01*
X29094472Y-71199340D01*
X28902081Y-71487275D01*
X28769559Y-71807210D01*
X28702000Y-72146852D01*
X25860218Y-72146852D01*
X25572734Y-71988687D01*
X23641421Y-73920000D01*
X23358579Y-73920000D01*
X21427266Y-71988687D01*
X21008000Y-72219355D01*
X21008000Y-71847266D01*
X21568687Y-71847266D01*
X23500000Y-73778579D01*
X25431313Y-71847266D01*
X25194738Y-71417263D01*
X24673914Y-71134725D01*
X24107977Y-70959225D01*
X23518677Y-70897505D01*
X22928658Y-70951938D01*
X22360597Y-71120432D01*
X21836322Y-71396511D01*
X21805262Y-71417263D01*
X21568687Y-71847266D01*
X21008000Y-71847266D01*
X21008000Y-70485947D01*
X69242000Y-70485947D01*
X69242000Y-70714053D01*
X69286501Y-70937776D01*
X69373794Y-71148519D01*
X69500523Y-71338182D01*
X69661818Y-71499477D01*
X69851481Y-71626206D01*
X70062224Y-71713499D01*
X70285947Y-71758000D01*
X70514053Y-71758000D01*
X70737776Y-71713499D01*
X70948519Y-71626206D01*
X71064815Y-71548500D01*
X74353398Y-71548498D01*
X74400001Y-71553088D01*
X74585939Y-71534775D01*
X74764732Y-71480537D01*
X74929509Y-71392463D01*
X74989881Y-71342917D01*
X75137776Y-71313499D01*
X75348519Y-71226206D01*
X75538182Y-71099477D01*
X75699477Y-70938182D01*
X75826206Y-70748519D01*
X75913499Y-70537776D01*
X75958000Y-70314053D01*
X75958000Y-70085947D01*
X75913499Y-69862224D01*
X75826206Y-69651481D01*
X75699477Y-69461818D01*
X75538182Y-69300523D01*
X75348519Y-69173794D01*
X75137776Y-69086501D01*
X74914053Y-69042000D01*
X74685947Y-69042000D01*
X74462224Y-69086501D01*
X74251481Y-69173794D01*
X74061818Y-69300523D01*
X73900523Y-69461818D01*
X73773794Y-69651481D01*
X73773786Y-69651499D01*
X71064815Y-69651501D01*
X70948519Y-69573794D01*
X70737776Y-69486501D01*
X70514053Y-69442000D01*
X70285947Y-69442000D01*
X70062224Y-69486501D01*
X69851481Y-69573794D01*
X69661818Y-69700523D01*
X69500523Y-69861818D01*
X69373794Y-70051481D01*
X69286501Y-70262224D01*
X69242000Y-70485947D01*
X21008000Y-70485947D01*
X21008000Y-65685947D01*
X69442000Y-65685947D01*
X69442000Y-65914053D01*
X69486501Y-66137776D01*
X69573794Y-66348519D01*
X69700523Y-66538182D01*
X69861818Y-66699477D01*
X70051481Y-66826206D01*
X70262224Y-66913499D01*
X70485947Y-66958000D01*
X70714053Y-66958000D01*
X70937776Y-66913499D01*
X71148519Y-66826206D01*
X71264814Y-66748500D01*
X79335186Y-66748500D01*
X79451481Y-66826206D01*
X79662224Y-66913499D01*
X79885947Y-66958000D01*
X80114053Y-66958000D01*
X80337776Y-66913499D01*
X80548519Y-66826206D01*
X80738182Y-66699477D01*
X80899477Y-66538182D01*
X81026206Y-66348519D01*
X81113499Y-66137776D01*
X81158000Y-65914053D01*
X81158000Y-65685947D01*
X81113499Y-65462224D01*
X81026206Y-65251481D01*
X80899477Y-65061818D01*
X80738182Y-64900523D01*
X80548519Y-64773794D01*
X80337776Y-64686501D01*
X80114053Y-64642000D01*
X79885947Y-64642000D01*
X79662224Y-64686501D01*
X79451481Y-64773794D01*
X79335186Y-64851500D01*
X71264814Y-64851500D01*
X71148519Y-64773794D01*
X70937776Y-64686501D01*
X70714053Y-64642000D01*
X70485947Y-64642000D01*
X70262224Y-64686501D01*
X70051481Y-64773794D01*
X69861818Y-64900523D01*
X69700523Y-65061818D01*
X69573794Y-65251481D01*
X69486501Y-65462224D01*
X69442000Y-65685947D01*
X21008000Y-65685947D01*
X21008000Y-59951723D01*
X21224126Y-59951723D01*
X21287260Y-60689287D01*
X21493072Y-61400362D01*
X21833654Y-62057622D01*
X21887296Y-62137905D01*
X22394107Y-62464471D01*
X22818186Y-62040393D01*
X22788998Y-62149322D01*
X22869538Y-62271884D01*
X22535529Y-62605893D01*
X22862095Y-63112704D01*
X23510433Y-63469978D01*
X24216014Y-63693903D01*
X24951723Y-63775874D01*
X25689287Y-63712740D01*
X26400362Y-63506928D01*
X26440851Y-63485947D01*
X35242000Y-63485947D01*
X35242000Y-63714053D01*
X35286501Y-63937776D01*
X35373794Y-64148519D01*
X35500523Y-64338182D01*
X35661818Y-64499477D01*
X35851481Y-64626206D01*
X36062224Y-64713499D01*
X36285947Y-64758000D01*
X36514053Y-64758000D01*
X36737776Y-64713499D01*
X36948519Y-64626206D01*
X37064814Y-64548500D01*
X45710841Y-64548500D01*
X45861818Y-64699477D01*
X46051481Y-64826206D01*
X46262224Y-64913499D01*
X46485947Y-64958000D01*
X46714053Y-64958000D01*
X46937776Y-64913499D01*
X47148519Y-64826206D01*
X47338182Y-64699477D01*
X47499477Y-64538182D01*
X47626206Y-64348519D01*
X47713499Y-64137776D01*
X47758000Y-63914053D01*
X47758000Y-63685947D01*
X47713499Y-63462224D01*
X47626206Y-63251481D01*
X47499477Y-63061818D01*
X47338182Y-62900523D01*
X47148519Y-62773794D01*
X46937776Y-62686501D01*
X46714053Y-62642000D01*
X46485947Y-62642000D01*
X46440971Y-62650946D01*
X46400000Y-62646911D01*
X46353406Y-62651500D01*
X37064814Y-62651500D01*
X36948519Y-62573794D01*
X36737776Y-62486501D01*
X36514053Y-62442000D01*
X36285947Y-62442000D01*
X36062224Y-62486501D01*
X35851481Y-62573794D01*
X35661818Y-62700523D01*
X35500523Y-62861818D01*
X35373794Y-63051481D01*
X35286501Y-63262224D01*
X35242000Y-63485947D01*
X26440851Y-63485947D01*
X27057622Y-63166346D01*
X27137905Y-63112704D01*
X27464471Y-62605893D01*
X27130462Y-62271884D01*
X27211002Y-62149322D01*
X27181814Y-62040393D01*
X27605893Y-62464471D01*
X28112704Y-62137905D01*
X28469978Y-61489567D01*
X28693903Y-60783986D01*
X28775874Y-60048277D01*
X28712740Y-59310713D01*
X28506928Y-58599638D01*
X28166346Y-57942378D01*
X28112704Y-57862095D01*
X27605893Y-57535529D01*
X27181814Y-57959607D01*
X27211002Y-57850678D01*
X27130462Y-57728116D01*
X27464471Y-57394107D01*
X27137905Y-56887296D01*
X27078264Y-56854430D01*
X81522000Y-56854430D01*
X81522000Y-57145570D01*
X81578799Y-57431117D01*
X81690214Y-57700095D01*
X81851963Y-57942170D01*
X82057830Y-58148037D01*
X82240361Y-58270000D01*
X82057830Y-58391963D01*
X81851963Y-58597830D01*
X81690214Y-58839905D01*
X81578799Y-59108883D01*
X81522000Y-59394430D01*
X81522000Y-59685570D01*
X81578799Y-59971117D01*
X81690214Y-60240095D01*
X81851963Y-60482170D01*
X82057830Y-60688037D01*
X82240361Y-60810000D01*
X82057830Y-60931963D01*
X81851963Y-61137830D01*
X81690214Y-61379905D01*
X81578799Y-61648883D01*
X81522000Y-61934430D01*
X81522000Y-62225570D01*
X81578799Y-62511117D01*
X81690214Y-62780095D01*
X81851963Y-63022170D01*
X82057830Y-63228037D01*
X82299905Y-63389786D01*
X82568883Y-63501201D01*
X82854430Y-63558000D01*
X83145570Y-63558000D01*
X83431117Y-63501201D01*
X83700095Y-63389786D01*
X83942170Y-63228037D01*
X84148037Y-63022170D01*
X84309786Y-62780095D01*
X84421201Y-62511117D01*
X84478000Y-62225570D01*
X84478000Y-61934430D01*
X84421201Y-61648883D01*
X84309786Y-61379905D01*
X84148037Y-61137830D01*
X83942170Y-60931963D01*
X83759639Y-60810000D01*
X83942170Y-60688037D01*
X84148037Y-60482170D01*
X84309786Y-60240095D01*
X84421201Y-59971117D01*
X84425058Y-59951723D01*
X111224126Y-59951723D01*
X111287260Y-60689287D01*
X111493072Y-61400362D01*
X111833654Y-62057622D01*
X111887296Y-62137905D01*
X112394107Y-62464471D01*
X112818186Y-62040393D01*
X112788998Y-62149322D01*
X112869538Y-62271884D01*
X112535529Y-62605893D01*
X112862095Y-63112704D01*
X113510433Y-63469978D01*
X114216014Y-63693903D01*
X114951723Y-63775874D01*
X115689287Y-63712740D01*
X116400362Y-63506928D01*
X117057622Y-63166346D01*
X117137905Y-63112704D01*
X117464471Y-62605893D01*
X117130462Y-62271884D01*
X117211002Y-62149322D01*
X117181814Y-62040393D01*
X117605893Y-62464471D01*
X118112704Y-62137905D01*
X118469978Y-61489567D01*
X118693903Y-60783986D01*
X118775874Y-60048277D01*
X118712740Y-59310713D01*
X118506928Y-58599638D01*
X118166346Y-57942378D01*
X118112704Y-57862095D01*
X117605893Y-57535529D01*
X117181814Y-57959607D01*
X117211002Y-57850678D01*
X117130462Y-57728116D01*
X117464471Y-57394107D01*
X117137905Y-56887296D01*
X116489567Y-56530022D01*
X115783986Y-56306097D01*
X115048277Y-56224126D01*
X114310713Y-56287260D01*
X113599638Y-56493072D01*
X112942378Y-56833654D01*
X112862095Y-56887296D01*
X112535529Y-57394107D01*
X112869538Y-57728116D01*
X112788998Y-57850678D01*
X112818186Y-57959607D01*
X112394107Y-57535529D01*
X111887296Y-57862095D01*
X111530022Y-58510433D01*
X111306097Y-59216014D01*
X111224126Y-59951723D01*
X84425058Y-59951723D01*
X84478000Y-59685570D01*
X84478000Y-59394430D01*
X84421201Y-59108883D01*
X84309786Y-58839905D01*
X84148037Y-58597830D01*
X83942170Y-58391963D01*
X83759639Y-58270000D01*
X83942170Y-58148037D01*
X84148037Y-57942170D01*
X84309786Y-57700095D01*
X84421201Y-57431117D01*
X84478000Y-57145570D01*
X84478000Y-56854430D01*
X84421201Y-56568883D01*
X84309786Y-56299905D01*
X84148037Y-56057830D01*
X83942170Y-55851963D01*
X83700095Y-55690214D01*
X83431117Y-55578799D01*
X83145570Y-55522000D01*
X82854430Y-55522000D01*
X82568883Y-55578799D01*
X82299905Y-55690214D01*
X82057830Y-55851963D01*
X81851963Y-56057830D01*
X81690214Y-56299905D01*
X81578799Y-56568883D01*
X81522000Y-56854430D01*
X27078264Y-56854430D01*
X26489567Y-56530022D01*
X25783986Y-56306097D01*
X25048277Y-56224126D01*
X24310713Y-56287260D01*
X23599638Y-56493072D01*
X22942378Y-56833654D01*
X22862095Y-56887296D01*
X22535529Y-57394107D01*
X22869538Y-57728116D01*
X22788998Y-57850678D01*
X22818186Y-57959607D01*
X22394107Y-57535529D01*
X21887296Y-57862095D01*
X21530022Y-58510433D01*
X21306097Y-59216014D01*
X21224126Y-59951723D01*
X21008000Y-59951723D01*
X21008000Y-48600000D01*
X28412000Y-48600000D01*
X28412000Y-49500000D01*
X28463367Y-49821538D01*
X28576476Y-50126877D01*
X28746980Y-50404282D01*
X28968327Y-50643093D01*
X29232011Y-50834133D01*
X29527898Y-50970060D01*
X29712335Y-51018963D01*
X29970000Y-50865091D01*
X29970000Y-48600000D01*
X30170000Y-48600000D01*
X30170000Y-50865091D01*
X30427665Y-51018963D01*
X30612102Y-50970060D01*
X30907989Y-50834133D01*
X31171673Y-50643093D01*
X31393020Y-50404282D01*
X31563524Y-50126877D01*
X31676633Y-49821538D01*
X31728000Y-49500000D01*
X31728000Y-48600000D01*
X30170000Y-48600000D01*
X29970000Y-48600000D01*
X28412000Y-48600000D01*
X21008000Y-48600000D01*
X21008000Y-47500000D01*
X28412000Y-47500000D01*
X28412000Y-48400000D01*
X29970000Y-48400000D01*
X29970000Y-46134909D01*
X30170000Y-46134909D01*
X30170000Y-48400000D01*
X31728000Y-48400000D01*
X31728000Y-47518551D01*
X32222000Y-47518551D01*
X32222000Y-49481448D01*
X32245990Y-49725024D01*
X32340796Y-50037558D01*
X32494753Y-50325591D01*
X32701945Y-50578055D01*
X32954408Y-50785247D01*
X33242441Y-50939204D01*
X33554975Y-51034010D01*
X33880000Y-51066022D01*
X34205024Y-51034010D01*
X34517558Y-50939204D01*
X34805591Y-50785247D01*
X35058055Y-50578055D01*
X35265247Y-50325592D01*
X35419204Y-50037559D01*
X35514010Y-49725025D01*
X35538000Y-49481449D01*
X35538000Y-47518551D01*
X36032000Y-47518551D01*
X36032000Y-49481448D01*
X36055990Y-49725024D01*
X36150796Y-50037558D01*
X36304753Y-50325591D01*
X36511945Y-50578055D01*
X36764408Y-50785247D01*
X37052441Y-50939204D01*
X37364975Y-51034010D01*
X37690000Y-51066022D01*
X38015024Y-51034010D01*
X38327558Y-50939204D01*
X38615591Y-50785247D01*
X38868055Y-50578055D01*
X39075247Y-50325592D01*
X39229204Y-50037559D01*
X39324010Y-49725025D01*
X39348000Y-49481449D01*
X39348000Y-47518551D01*
X39324010Y-47274975D01*
X39229204Y-46962441D01*
X39088927Y-46700000D01*
X39838333Y-46700000D01*
X39838333Y-50300000D01*
X39852968Y-50448594D01*
X39896311Y-50591477D01*
X39966697Y-50723160D01*
X40061420Y-50838580D01*
X40176840Y-50933303D01*
X40308523Y-51003689D01*
X40451406Y-51047032D01*
X40600000Y-51061667D01*
X42400000Y-51061667D01*
X42548594Y-51047032D01*
X42691477Y-51003689D01*
X42823160Y-50933303D01*
X42938580Y-50838580D01*
X43033303Y-50723160D01*
X43103689Y-50591477D01*
X43147032Y-50448594D01*
X43161667Y-50300000D01*
X43161667Y-48600000D01*
X52282000Y-48600000D01*
X52282000Y-49500000D01*
X52333367Y-49821538D01*
X52446476Y-50126877D01*
X52616980Y-50404282D01*
X52838327Y-50643093D01*
X53102011Y-50834133D01*
X53397898Y-50970060D01*
X53582335Y-51018963D01*
X53840000Y-50865091D01*
X53840000Y-48600000D01*
X54040000Y-48600000D01*
X54040000Y-50865091D01*
X54297665Y-51018963D01*
X54482102Y-50970060D01*
X54777989Y-50834133D01*
X55041673Y-50643093D01*
X55263020Y-50404282D01*
X55433524Y-50126877D01*
X55546633Y-49821538D01*
X55598000Y-49500000D01*
X55598000Y-48600000D01*
X54040000Y-48600000D01*
X53840000Y-48600000D01*
X52282000Y-48600000D01*
X43161667Y-48600000D01*
X43161667Y-47500000D01*
X52282000Y-47500000D01*
X52282000Y-48400000D01*
X53840000Y-48400000D01*
X53840000Y-46134909D01*
X54040000Y-46134909D01*
X54040000Y-48400000D01*
X55598000Y-48400000D01*
X55598000Y-47500000D01*
X55546633Y-47178462D01*
X55433524Y-46873123D01*
X55327116Y-46700000D01*
X56088333Y-46700000D01*
X56088333Y-50300000D01*
X56102968Y-50448594D01*
X56146311Y-50591477D01*
X56216697Y-50723160D01*
X56311420Y-50838580D01*
X56426840Y-50933303D01*
X56558523Y-51003689D01*
X56701406Y-51047032D01*
X56850000Y-51061667D01*
X58650000Y-51061667D01*
X58798594Y-51047032D01*
X58941477Y-51003689D01*
X59073160Y-50933303D01*
X59188580Y-50838580D01*
X59283303Y-50723160D01*
X59353689Y-50591477D01*
X59397032Y-50448594D01*
X59411667Y-50300000D01*
X59411667Y-48600000D01*
X68532000Y-48600000D01*
X68532000Y-49500000D01*
X68583367Y-49821538D01*
X68696476Y-50126877D01*
X68866980Y-50404282D01*
X69088327Y-50643093D01*
X69352011Y-50834133D01*
X69647898Y-50970060D01*
X69832335Y-51018963D01*
X70090000Y-50865091D01*
X70090000Y-48600000D01*
X70290000Y-48600000D01*
X70290000Y-50865091D01*
X70547665Y-51018963D01*
X70732102Y-50970060D01*
X71027989Y-50834133D01*
X71291673Y-50643093D01*
X71513020Y-50404282D01*
X71683524Y-50126877D01*
X71796633Y-49821538D01*
X71848000Y-49500000D01*
X71848000Y-48600000D01*
X70290000Y-48600000D01*
X70090000Y-48600000D01*
X68532000Y-48600000D01*
X59411667Y-48600000D01*
X59411667Y-47500000D01*
X68532000Y-47500000D01*
X68532000Y-48400000D01*
X70090000Y-48400000D01*
X70090000Y-46134909D01*
X70290000Y-46134909D01*
X70290000Y-48400000D01*
X71848000Y-48400000D01*
X71848000Y-47500000D01*
X71796633Y-47178462D01*
X71683524Y-46873123D01*
X71577116Y-46700000D01*
X72338333Y-46700000D01*
X72338333Y-50300000D01*
X72352968Y-50448594D01*
X72396311Y-50591477D01*
X72466697Y-50723160D01*
X72561420Y-50838580D01*
X72676840Y-50933303D01*
X72808523Y-51003689D01*
X72951406Y-51047032D01*
X73100000Y-51061667D01*
X74900000Y-51061667D01*
X75048594Y-51047032D01*
X75191477Y-51003689D01*
X75323160Y-50933303D01*
X75438580Y-50838580D01*
X75533303Y-50723160D01*
X75603689Y-50591477D01*
X75647032Y-50448594D01*
X75661667Y-50300000D01*
X75661667Y-48600000D01*
X84782000Y-48600000D01*
X84782000Y-49500000D01*
X84833367Y-49821538D01*
X84946476Y-50126877D01*
X85116980Y-50404282D01*
X85338327Y-50643093D01*
X85602011Y-50834133D01*
X85897898Y-50970060D01*
X86082335Y-51018963D01*
X86340000Y-50865091D01*
X86340000Y-48600000D01*
X86540000Y-48600000D01*
X86540000Y-50865091D01*
X86797665Y-51018963D01*
X86982102Y-50970060D01*
X87277989Y-50834133D01*
X87541673Y-50643093D01*
X87763020Y-50404282D01*
X87933524Y-50126877D01*
X88046633Y-49821538D01*
X88098000Y-49500000D01*
X88098000Y-48600000D01*
X86540000Y-48600000D01*
X86340000Y-48600000D01*
X84782000Y-48600000D01*
X75661667Y-48600000D01*
X75661667Y-47500000D01*
X84782000Y-47500000D01*
X84782000Y-48400000D01*
X86340000Y-48400000D01*
X86340000Y-46134909D01*
X86540000Y-46134909D01*
X86540000Y-48400000D01*
X88098000Y-48400000D01*
X88098000Y-47500000D01*
X88046633Y-47178462D01*
X87933524Y-46873123D01*
X87827116Y-46700000D01*
X88588333Y-46700000D01*
X88588333Y-50300000D01*
X88602968Y-50448594D01*
X88646311Y-50591477D01*
X88716697Y-50723160D01*
X88811420Y-50838580D01*
X88926840Y-50933303D01*
X89058523Y-51003689D01*
X89201406Y-51047032D01*
X89350000Y-51061667D01*
X91150000Y-51061667D01*
X91298594Y-51047032D01*
X91441477Y-51003689D01*
X91573160Y-50933303D01*
X91688580Y-50838580D01*
X91783303Y-50723160D01*
X91853689Y-50591477D01*
X91897032Y-50448594D01*
X91911667Y-50300000D01*
X91911667Y-48600000D01*
X101032000Y-48600000D01*
X101032000Y-49500000D01*
X101083367Y-49821538D01*
X101196476Y-50126877D01*
X101366980Y-50404282D01*
X101588327Y-50643093D01*
X101852011Y-50834133D01*
X102147898Y-50970060D01*
X102332335Y-51018963D01*
X102590000Y-50865091D01*
X102590000Y-48600000D01*
X102790000Y-48600000D01*
X102790000Y-50865091D01*
X103047665Y-51018963D01*
X103232102Y-50970060D01*
X103527989Y-50834133D01*
X103791673Y-50643093D01*
X104013020Y-50404282D01*
X104183524Y-50126877D01*
X104296633Y-49821538D01*
X104348000Y-49500000D01*
X104348000Y-48600000D01*
X102790000Y-48600000D01*
X102590000Y-48600000D01*
X101032000Y-48600000D01*
X91911667Y-48600000D01*
X91911667Y-47500000D01*
X101032000Y-47500000D01*
X101032000Y-48400000D01*
X102590000Y-48400000D01*
X102590000Y-46134909D01*
X102790000Y-46134909D01*
X102790000Y-48400000D01*
X104348000Y-48400000D01*
X104348000Y-47500000D01*
X104296633Y-47178462D01*
X104183524Y-46873123D01*
X104077116Y-46700000D01*
X104838333Y-46700000D01*
X104838333Y-50300000D01*
X104852968Y-50448594D01*
X104896311Y-50591477D01*
X104966697Y-50723160D01*
X105061420Y-50838580D01*
X105176840Y-50933303D01*
X105308523Y-51003689D01*
X105451406Y-51047032D01*
X105600000Y-51061667D01*
X107400000Y-51061667D01*
X107548594Y-51047032D01*
X107691477Y-51003689D01*
X107823160Y-50933303D01*
X107938580Y-50838580D01*
X108033303Y-50723160D01*
X108103689Y-50591477D01*
X108147032Y-50448594D01*
X108161667Y-50300000D01*
X108161667Y-46700000D01*
X108147032Y-46551406D01*
X108103689Y-46408523D01*
X108033303Y-46276840D01*
X107938580Y-46161420D01*
X107823160Y-46066697D01*
X107691477Y-45996311D01*
X107548594Y-45952968D01*
X107400000Y-45938333D01*
X105600000Y-45938333D01*
X105451406Y-45952968D01*
X105308523Y-45996311D01*
X105176840Y-46066697D01*
X105061420Y-46161420D01*
X104966697Y-46276840D01*
X104896311Y-46408523D01*
X104852968Y-46551406D01*
X104838333Y-46700000D01*
X104077116Y-46700000D01*
X104013020Y-46595718D01*
X103791673Y-46356907D01*
X103527989Y-46165867D01*
X103232102Y-46029940D01*
X103047665Y-45981037D01*
X102790000Y-46134909D01*
X102590000Y-46134909D01*
X102332335Y-45981037D01*
X102147898Y-46029940D01*
X101852011Y-46165867D01*
X101588327Y-46356907D01*
X101366980Y-46595718D01*
X101196476Y-46873123D01*
X101083367Y-47178462D01*
X101032000Y-47500000D01*
X91911667Y-47500000D01*
X91911667Y-46700000D01*
X91897032Y-46551406D01*
X91853689Y-46408523D01*
X91783303Y-46276840D01*
X91688580Y-46161420D01*
X91573160Y-46066697D01*
X91441477Y-45996311D01*
X91298594Y-45952968D01*
X91150000Y-45938333D01*
X89350000Y-45938333D01*
X89201406Y-45952968D01*
X89058523Y-45996311D01*
X88926840Y-46066697D01*
X88811420Y-46161420D01*
X88716697Y-46276840D01*
X88646311Y-46408523D01*
X88602968Y-46551406D01*
X88588333Y-46700000D01*
X87827116Y-46700000D01*
X87763020Y-46595718D01*
X87541673Y-46356907D01*
X87277989Y-46165867D01*
X86982102Y-46029940D01*
X86797665Y-45981037D01*
X86540000Y-46134909D01*
X86340000Y-46134909D01*
X86082335Y-45981037D01*
X85897898Y-46029940D01*
X85602011Y-46165867D01*
X85338327Y-46356907D01*
X85116980Y-46595718D01*
X84946476Y-46873123D01*
X84833367Y-47178462D01*
X84782000Y-47500000D01*
X75661667Y-47500000D01*
X75661667Y-46700000D01*
X75647032Y-46551406D01*
X75603689Y-46408523D01*
X75533303Y-46276840D01*
X75438580Y-46161420D01*
X75323160Y-46066697D01*
X75191477Y-45996311D01*
X75048594Y-45952968D01*
X74900000Y-45938333D01*
X73100000Y-45938333D01*
X72951406Y-45952968D01*
X72808523Y-45996311D01*
X72676840Y-46066697D01*
X72561420Y-46161420D01*
X72466697Y-46276840D01*
X72396311Y-46408523D01*
X72352968Y-46551406D01*
X72338333Y-46700000D01*
X71577116Y-46700000D01*
X71513020Y-46595718D01*
X71291673Y-46356907D01*
X71027989Y-46165867D01*
X70732102Y-46029940D01*
X70547665Y-45981037D01*
X70290000Y-46134909D01*
X70090000Y-46134909D01*
X69832335Y-45981037D01*
X69647898Y-46029940D01*
X69352011Y-46165867D01*
X69088327Y-46356907D01*
X68866980Y-46595718D01*
X68696476Y-46873123D01*
X68583367Y-47178462D01*
X68532000Y-47500000D01*
X59411667Y-47500000D01*
X59411667Y-46700000D01*
X59397032Y-46551406D01*
X59353689Y-46408523D01*
X59283303Y-46276840D01*
X59188580Y-46161420D01*
X59073160Y-46066697D01*
X58941477Y-45996311D01*
X58798594Y-45952968D01*
X58650000Y-45938333D01*
X56850000Y-45938333D01*
X56701406Y-45952968D01*
X56558523Y-45996311D01*
X56426840Y-46066697D01*
X56311420Y-46161420D01*
X56216697Y-46276840D01*
X56146311Y-46408523D01*
X56102968Y-46551406D01*
X56088333Y-46700000D01*
X55327116Y-46700000D01*
X55263020Y-46595718D01*
X55041673Y-46356907D01*
X54777989Y-46165867D01*
X54482102Y-46029940D01*
X54297665Y-45981037D01*
X54040000Y-46134909D01*
X53840000Y-46134909D01*
X53582335Y-45981037D01*
X53397898Y-46029940D01*
X53102011Y-46165867D01*
X52838327Y-46356907D01*
X52616980Y-46595718D01*
X52446476Y-46873123D01*
X52333367Y-47178462D01*
X52282000Y-47500000D01*
X43161667Y-47500000D01*
X43161667Y-46700000D01*
X43147032Y-46551406D01*
X43103689Y-46408523D01*
X43033303Y-46276840D01*
X42938580Y-46161420D01*
X42823160Y-46066697D01*
X42691477Y-45996311D01*
X42548594Y-45952968D01*
X42400000Y-45938333D01*
X40600000Y-45938333D01*
X40451406Y-45952968D01*
X40308523Y-45996311D01*
X40176840Y-46066697D01*
X40061420Y-46161420D01*
X39966697Y-46276840D01*
X39896311Y-46408523D01*
X39852968Y-46551406D01*
X39838333Y-46700000D01*
X39088927Y-46700000D01*
X39075247Y-46674408D01*
X38868055Y-46421945D01*
X38615592Y-46214753D01*
X38327559Y-46060796D01*
X38015025Y-45965990D01*
X37690000Y-45933978D01*
X37364976Y-45965990D01*
X37052442Y-46060796D01*
X36764409Y-46214753D01*
X36511946Y-46421945D01*
X36304754Y-46674408D01*
X36150797Y-46962441D01*
X36055991Y-47274975D01*
X36032000Y-47518551D01*
X35538000Y-47518551D01*
X35514010Y-47274975D01*
X35419204Y-46962441D01*
X35265247Y-46674408D01*
X35058055Y-46421945D01*
X34805592Y-46214753D01*
X34517559Y-46060796D01*
X34205025Y-45965990D01*
X33880000Y-45933978D01*
X33554976Y-45965990D01*
X33242442Y-46060796D01*
X32954409Y-46214753D01*
X32701946Y-46421945D01*
X32494754Y-46674408D01*
X32340797Y-46962441D01*
X32245991Y-47274975D01*
X32222000Y-47518551D01*
X31728000Y-47518551D01*
X31728000Y-47500000D01*
X31676633Y-47178462D01*
X31563524Y-46873123D01*
X31393020Y-46595718D01*
X31171673Y-46356907D01*
X30907989Y-46165867D01*
X30612102Y-46029940D01*
X30427665Y-45981037D01*
X30170000Y-46134909D01*
X29970000Y-46134909D01*
X29712335Y-45981037D01*
X29527898Y-46029940D01*
X29232011Y-46165867D01*
X28968327Y-46356907D01*
X28746980Y-46595718D01*
X28576476Y-46873123D01*
X28463367Y-47178462D01*
X28412000Y-47500000D01*
X21008000Y-47500000D01*
X21008000Y-41008000D01*
X118992001Y-41008000D01*
X118992000Y-88992000D01*
X118992000Y-88992000D01*
G37*
X118992000Y-88992000D02*
X117620031Y-88992000D01*
X117565091Y-88900000D01*
X115600000Y-88900000D01*
X115600000Y-88920000D01*
X115400000Y-88920000D01*
X115400000Y-88900000D01*
X113434909Y-88900000D01*
X113379969Y-88992000D01*
X103620031Y-88992000D01*
X103565091Y-88900000D01*
X101600000Y-88900000D01*
X101600000Y-88920000D01*
X101400000Y-88920000D01*
X101400000Y-88900000D01*
X99434909Y-88900000D01*
X99379969Y-88992000D01*
X84120031Y-88992000D01*
X84065091Y-88900000D01*
X82100000Y-88900000D01*
X82100000Y-88920000D01*
X81900000Y-88920000D01*
X81900000Y-88900000D01*
X79934909Y-88900000D01*
X79879969Y-88992000D01*
X66620031Y-88992000D01*
X66565091Y-88900000D01*
X64600000Y-88900000D01*
X64600000Y-88920000D01*
X64400000Y-88920000D01*
X64400000Y-88900000D01*
X62434909Y-88900000D01*
X62379969Y-88992000D01*
X21008000Y-88992000D01*
X21008000Y-83992734D01*
X21568687Y-83992734D01*
X21805262Y-84422737D01*
X22326086Y-84705275D01*
X22892023Y-84880775D01*
X23481323Y-84942495D01*
X24071342Y-84888062D01*
X24639403Y-84719568D01*
X25163678Y-84443489D01*
X25194738Y-84422737D01*
X25431313Y-83992734D01*
X46568687Y-83992734D01*
X46805262Y-84422737D01*
X47326086Y-84705275D01*
X47892023Y-84880775D01*
X48481323Y-84942495D01*
X49071342Y-84888062D01*
X49639403Y-84719568D01*
X50163678Y-84443489D01*
X50194738Y-84422737D01*
X50431313Y-83992734D01*
X48500000Y-82061421D01*
X46568687Y-83992734D01*
X25431313Y-83992734D01*
X23500000Y-82061421D01*
X21568687Y-83992734D01*
X21008000Y-83992734D01*
X21008000Y-83620645D01*
X21427266Y-83851313D01*
X23358579Y-81920000D01*
X23641421Y-81920000D01*
X25572734Y-83851313D01*
X26002737Y-83614738D01*
X26285275Y-83093914D01*
X26460775Y-82527977D01*
X26522495Y-81938677D01*
X26468062Y-81348658D01*
X26299568Y-80780597D01*
X26023489Y-80256322D01*
X26002737Y-80225262D01*
X25572734Y-79988687D01*
X23641421Y-81920000D01*
X23358579Y-81920000D01*
X21427266Y-79988687D01*
X21008000Y-80219355D01*
X21008000Y-79847266D01*
X21568687Y-79847266D01*
X23500000Y-81778579D01*
X25431313Y-79847266D01*
X25194738Y-79417263D01*
X24673914Y-79134725D01*
X24107977Y-78959225D01*
X23607922Y-78906852D01*
X28702000Y-78906852D01*
X28702000Y-79253148D01*
X28769559Y-79592790D01*
X28902081Y-79912725D01*
X29094472Y-80200660D01*
X29339340Y-80445528D01*
X29627275Y-80637919D01*
X29947210Y-80770441D01*
X30286852Y-80838000D01*
X30453640Y-80838000D01*
X30287081Y-81087275D01*
X30154559Y-81407210D01*
X30087000Y-81746852D01*
X30087000Y-82093148D01*
X30154559Y-82432790D01*
X30287081Y-82752725D01*
X30479472Y-83040660D01*
X30724340Y-83285528D01*
X31012275Y-83477919D01*
X31332210Y-83610441D01*
X31671852Y-83678000D01*
X32018148Y-83678000D01*
X32357790Y-83610441D01*
X32677725Y-83477919D01*
X32965660Y-83285528D01*
X33210528Y-83040660D01*
X33230000Y-83011518D01*
X33249472Y-83040660D01*
X33494340Y-83285528D01*
X33782275Y-83477919D01*
X34102210Y-83610441D01*
X34441852Y-83678000D01*
X34788148Y-83678000D01*
X35127790Y-83610441D01*
X35447725Y-83477919D01*
X35735660Y-83285528D01*
X35980528Y-83040660D01*
X36000000Y-83011518D01*
X36019472Y-83040660D01*
X36264340Y-83285528D01*
X36552275Y-83477919D01*
X36872210Y-83610441D01*
X37211852Y-83678000D01*
X37558148Y-83678000D01*
X37897790Y-83610441D01*
X38217725Y-83477919D01*
X38505660Y-83285528D01*
X38750528Y-83040660D01*
X38770000Y-83011518D01*
X38789472Y-83040660D01*
X39034340Y-83285528D01*
X39322275Y-83477919D01*
X39642210Y-83610441D01*
X39981852Y-83678000D01*
X40328148Y-83678000D01*
X40667790Y-83610441D01*
X40987725Y-83477919D01*
X41275660Y-83285528D01*
X41520528Y-83040660D01*
X41712919Y-82752725D01*
X41845441Y-82432790D01*
X41913000Y-82093148D01*
X41913000Y-81901323D01*
X45477505Y-81901323D01*
X45531938Y-82491342D01*
X45700432Y-83059403D01*
X45976511Y-83583678D01*
X45997263Y-83614738D01*
X46427266Y-83851313D01*
X48358579Y-81920000D01*
X48641421Y-81920000D01*
X50572734Y-83851313D01*
X51002737Y-83614738D01*
X51285275Y-83093914D01*
X51460775Y-82527977D01*
X51522495Y-81938677D01*
X51468062Y-81348658D01*
X51394307Y-81100000D01*
X52838333Y-81100000D01*
X52838333Y-82900000D01*
X52852968Y-83048594D01*
X52896311Y-83191477D01*
X52966697Y-83323160D01*
X53061420Y-83438580D01*
X53176840Y-83533303D01*
X53308523Y-83603689D01*
X53451406Y-83647032D01*
X53600000Y-83661667D01*
X53627979Y-83661667D01*
X53707535Y-83810508D01*
X53826064Y-83954936D01*
X53862267Y-83984647D01*
X54915357Y-85037738D01*
X54945064Y-85073936D01*
X55089492Y-85192465D01*
X55254269Y-85280539D01*
X55378824Y-85318323D01*
X55433061Y-85334776D01*
X55619000Y-85353089D01*
X55665594Y-85348500D01*
X60536015Y-85348500D01*
X60514753Y-85374408D01*
X60360796Y-85662441D01*
X60265990Y-85974975D01*
X60233978Y-86300000D01*
X60265990Y-86625025D01*
X60360796Y-86937559D01*
X60514753Y-87225592D01*
X60721945Y-87478055D01*
X60974408Y-87685247D01*
X61262441Y-87839204D01*
X61574975Y-87934010D01*
X61818551Y-87958000D01*
X62468773Y-87958000D01*
X62465867Y-87962011D01*
X62329940Y-88257898D01*
X62281037Y-88442335D01*
X62434909Y-88700000D01*
X64400000Y-88700000D01*
X64400000Y-88680000D01*
X64600000Y-88680000D01*
X64600000Y-88700000D01*
X66565091Y-88700000D01*
X66718963Y-88442335D01*
X66670060Y-88257898D01*
X66534133Y-87962011D01*
X66343093Y-87698327D01*
X66104282Y-87476980D01*
X65826877Y-87306476D01*
X65521538Y-87193367D01*
X65200000Y-87142000D01*
X64529928Y-87142000D01*
X64639204Y-86937559D01*
X64734010Y-86625025D01*
X64766022Y-86300000D01*
X77733978Y-86300000D01*
X77765990Y-86625025D01*
X77860796Y-86937559D01*
X78014753Y-87225592D01*
X78221945Y-87478055D01*
X78474408Y-87685247D01*
X78762441Y-87839204D01*
X79074975Y-87934010D01*
X79318551Y-87958000D01*
X79968773Y-87958000D01*
X79965867Y-87962011D01*
X79829940Y-88257898D01*
X79781037Y-88442335D01*
X79934909Y-88700000D01*
X81900000Y-88700000D01*
X81900000Y-88680000D01*
X82100000Y-88680000D01*
X82100000Y-88700000D01*
X84065091Y-88700000D01*
X84218963Y-88442335D01*
X84170060Y-88257898D01*
X84034133Y-87962011D01*
X83843093Y-87698327D01*
X83604282Y-87476980D01*
X83326877Y-87306476D01*
X83021538Y-87193367D01*
X82700000Y-87142000D01*
X82029928Y-87142000D01*
X82139204Y-86937559D01*
X82234010Y-86625025D01*
X82266022Y-86300000D01*
X97233978Y-86300000D01*
X97265990Y-86625025D01*
X97360796Y-86937559D01*
X97514753Y-87225592D01*
X97721945Y-87478055D01*
X97974408Y-87685247D01*
X98262441Y-87839204D01*
X98574975Y-87934010D01*
X98818551Y-87958000D01*
X99468773Y-87958000D01*
X99465867Y-87962011D01*
X99329940Y-88257898D01*
X99281037Y-88442335D01*
X99434909Y-88700000D01*
X101400000Y-88700000D01*
X101400000Y-88680000D01*
X101600000Y-88680000D01*
X101600000Y-88700000D01*
X103565091Y-88700000D01*
X103718963Y-88442335D01*
X103670060Y-88257898D01*
X103534133Y-87962011D01*
X103343093Y-87698327D01*
X103104282Y-87476980D01*
X102826877Y-87306476D01*
X102521538Y-87193367D01*
X102200000Y-87142000D01*
X101529928Y-87142000D01*
X101639204Y-86937559D01*
X101734010Y-86625025D01*
X101766022Y-86300000D01*
X111233978Y-86300000D01*
X111265990Y-86625025D01*
X111360796Y-86937559D01*
X111514753Y-87225592D01*
X111721945Y-87478055D01*
X111974408Y-87685247D01*
X112262441Y-87839204D01*
X112574975Y-87934010D01*
X112818551Y-87958000D01*
X113468773Y-87958000D01*
X113465867Y-87962011D01*
X113329940Y-88257898D01*
X113281037Y-88442335D01*
X113434909Y-88700000D01*
X115400000Y-88700000D01*
X115400000Y-88680000D01*
X115600000Y-88680000D01*
X115600000Y-88700000D01*
X117565091Y-88700000D01*
X117718963Y-88442335D01*
X117670060Y-88257898D01*
X117534133Y-87962011D01*
X117343093Y-87698327D01*
X117104282Y-87476980D01*
X116826877Y-87306476D01*
X116521538Y-87193367D01*
X116200000Y-87142000D01*
X115529928Y-87142000D01*
X115639204Y-86937559D01*
X115734010Y-86625025D01*
X115766022Y-86300000D01*
X115734010Y-85974975D01*
X115639204Y-85662441D01*
X115485247Y-85374408D01*
X115278055Y-85121945D01*
X115025592Y-84914753D01*
X114737559Y-84760796D01*
X114425025Y-84665990D01*
X114181449Y-84642000D01*
X112818551Y-84642000D01*
X112574975Y-84665990D01*
X112262441Y-84760796D01*
X111974408Y-84914753D01*
X111721945Y-85121945D01*
X111514753Y-85374408D01*
X111360796Y-85662441D01*
X111265990Y-85974975D01*
X111233978Y-86300000D01*
X101766022Y-86300000D01*
X101734010Y-85974975D01*
X101639204Y-85662441D01*
X101485247Y-85374408D01*
X101278055Y-85121945D01*
X101025592Y-84914753D01*
X100737559Y-84760796D01*
X100425025Y-84665990D01*
X100181449Y-84642000D01*
X98818551Y-84642000D01*
X98574975Y-84665990D01*
X98262441Y-84760796D01*
X97974408Y-84914753D01*
X97721945Y-85121945D01*
X97514753Y-85374408D01*
X97360796Y-85662441D01*
X97265990Y-85974975D01*
X97233978Y-86300000D01*
X82266022Y-86300000D01*
X82234010Y-85974975D01*
X82139204Y-85662441D01*
X81985247Y-85374408D01*
X81778055Y-85121945D01*
X81525592Y-84914753D01*
X81237559Y-84760796D01*
X80925025Y-84665990D01*
X80681449Y-84642000D01*
X79318551Y-84642000D01*
X79074975Y-84665990D01*
X78762441Y-84760796D01*
X78474408Y-84914753D01*
X78221945Y-85121945D01*
X78014753Y-85374408D01*
X77860796Y-85662441D01*
X77765990Y-85974975D01*
X77733978Y-86300000D01*
X64766022Y-86300000D01*
X64734010Y-85974975D01*
X64639204Y-85662441D01*
X64485247Y-85374408D01*
X64278055Y-85121945D01*
X64025592Y-84914753D01*
X63737559Y-84760796D01*
X63425025Y-84665990D01*
X63181449Y-84642000D01*
X61918380Y-84642000D01*
X62794075Y-83766306D01*
X62908147Y-83859923D01*
X63170121Y-83999951D01*
X63454380Y-84086180D01*
X63675922Y-84108000D01*
X65324078Y-84108000D01*
X65545620Y-84086180D01*
X65829879Y-83999951D01*
X66091853Y-83859923D01*
X66321476Y-83671476D01*
X66509923Y-83441853D01*
X66649951Y-83179879D01*
X66736180Y-82895620D01*
X66765296Y-82600000D01*
X66736180Y-82304380D01*
X66649951Y-82020121D01*
X66509923Y-81758147D01*
X66321476Y-81528524D01*
X66091853Y-81340077D01*
X65829879Y-81200049D01*
X65545620Y-81113820D01*
X65405304Y-81100000D01*
X70318333Y-81100000D01*
X70318333Y-82900000D01*
X70332968Y-83048594D01*
X70376311Y-83191477D01*
X70446697Y-83323160D01*
X70541420Y-83438580D01*
X70656840Y-83533303D01*
X70788523Y-83603689D01*
X70931406Y-83647032D01*
X71080000Y-83661667D01*
X72880000Y-83661667D01*
X73028594Y-83647032D01*
X73171477Y-83603689D01*
X73303160Y-83533303D01*
X73418580Y-83438580D01*
X73513303Y-83323160D01*
X73573881Y-83209827D01*
X73623404Y-83404188D01*
X73914576Y-83552124D01*
X74229013Y-83640413D01*
X74554633Y-83665661D01*
X74878922Y-83626899D01*
X75189418Y-83525617D01*
X75416596Y-83404188D01*
X75490951Y-83112372D01*
X74520000Y-82141421D01*
X74505858Y-82155564D01*
X74364437Y-82014143D01*
X74378579Y-82000000D01*
X74661421Y-82000000D01*
X75632372Y-82970951D01*
X75924188Y-82896596D01*
X76072124Y-82605424D01*
X76160413Y-82290987D01*
X76185661Y-81965367D01*
X76146899Y-81641078D01*
X76045617Y-81330582D01*
X75924188Y-81103404D01*
X75683165Y-81041991D01*
X77779998Y-81041991D01*
X77822327Y-81203833D01*
X77949013Y-81482432D01*
X78127617Y-81730962D01*
X78351275Y-81939873D01*
X78611392Y-82101136D01*
X78897971Y-82208554D01*
X79200000Y-82258000D01*
X79777889Y-82258000D01*
X79763820Y-82304380D01*
X79734704Y-82600000D01*
X79763820Y-82895620D01*
X79850049Y-83179879D01*
X79990077Y-83441853D01*
X80178524Y-83671476D01*
X80408147Y-83859923D01*
X80670121Y-83999951D01*
X80954380Y-84086180D01*
X81175922Y-84108000D01*
X82824078Y-84108000D01*
X83045620Y-84086180D01*
X83329879Y-83999951D01*
X83591853Y-83859923D01*
X83821476Y-83671476D01*
X84009923Y-83441853D01*
X84149951Y-83179879D01*
X84236180Y-82895620D01*
X84265296Y-82600000D01*
X84236180Y-82304380D01*
X84149951Y-82020121D01*
X84009923Y-81758147D01*
X83821476Y-81528524D01*
X83591853Y-81340077D01*
X83329879Y-81200049D01*
X83045620Y-81113820D01*
X82905304Y-81100000D01*
X89738333Y-81100000D01*
X89738333Y-82900000D01*
X89752968Y-83048594D01*
X89796311Y-83191477D01*
X89866697Y-83323160D01*
X89961420Y-83438580D01*
X90076840Y-83533303D01*
X90208523Y-83603689D01*
X90351406Y-83647032D01*
X90500000Y-83661667D01*
X92300000Y-83661667D01*
X92448594Y-83647032D01*
X92591477Y-83603689D01*
X92723160Y-83533303D01*
X92838580Y-83438580D01*
X92933303Y-83323160D01*
X92933994Y-83321867D01*
X93154643Y-83469300D01*
X93456379Y-83594284D01*
X93776701Y-83658000D01*
X94103299Y-83658000D01*
X94423621Y-83594284D01*
X94725357Y-83469300D01*
X94996913Y-83287852D01*
X95227852Y-83056913D01*
X95409300Y-82785357D01*
X95534284Y-82483621D01*
X95598000Y-82163299D01*
X95598000Y-81836701D01*
X95534284Y-81516379D01*
X95409300Y-81214643D01*
X95227852Y-80943087D01*
X94996913Y-80712148D01*
X94978733Y-80700000D01*
X97234462Y-80700000D01*
X97264543Y-81005421D01*
X97353631Y-81299105D01*
X97498303Y-81569766D01*
X97692997Y-81807003D01*
X97930234Y-82001697D01*
X98200895Y-82146369D01*
X98494579Y-82235457D01*
X98723465Y-82258000D01*
X99277889Y-82258000D01*
X99263820Y-82304380D01*
X99234704Y-82600000D01*
X99263820Y-82895620D01*
X99350049Y-83179879D01*
X99490077Y-83441853D01*
X99678524Y-83671476D01*
X99908147Y-83859923D01*
X100170121Y-83999951D01*
X100454380Y-84086180D01*
X100675922Y-84108000D01*
X102324078Y-84108000D01*
X102545620Y-84086180D01*
X102829879Y-83999951D01*
X103091853Y-83859923D01*
X103321476Y-83671476D01*
X103509923Y-83441853D01*
X103649951Y-83179879D01*
X103736180Y-82895620D01*
X103765296Y-82600000D01*
X103736180Y-82304380D01*
X103649951Y-82020121D01*
X103509923Y-81758147D01*
X103321476Y-81528524D01*
X103091853Y-81340077D01*
X102829879Y-81200049D01*
X102545620Y-81113820D01*
X102324078Y-81092000D01*
X101709194Y-81092000D01*
X101735457Y-81005421D01*
X101765538Y-80700000D01*
X111234462Y-80700000D01*
X111264543Y-81005421D01*
X111353631Y-81299105D01*
X111498303Y-81569766D01*
X111692997Y-81807003D01*
X111930234Y-82001697D01*
X112200895Y-82146369D01*
X112494579Y-82235457D01*
X112723465Y-82258000D01*
X113277889Y-82258000D01*
X113263820Y-82304380D01*
X113234704Y-82600000D01*
X113263820Y-82895620D01*
X113350049Y-83179879D01*
X113490077Y-83441853D01*
X113678524Y-83671476D01*
X113908147Y-83859923D01*
X114170121Y-83999951D01*
X114454380Y-84086180D01*
X114675922Y-84108000D01*
X116324078Y-84108000D01*
X116545620Y-84086180D01*
X116829879Y-83999951D01*
X117091853Y-83859923D01*
X117321476Y-83671476D01*
X117509923Y-83441853D01*
X117649951Y-83179879D01*
X117736180Y-82895620D01*
X117765296Y-82600000D01*
X117736180Y-82304380D01*
X117649951Y-82020121D01*
X117509923Y-81758147D01*
X117321476Y-81528524D01*
X117091853Y-81340077D01*
X116829879Y-81200049D01*
X116545620Y-81113820D01*
X116324078Y-81092000D01*
X115709194Y-81092000D01*
X115735457Y-81005421D01*
X115765538Y-80700000D01*
X115735457Y-80394579D01*
X115646369Y-80100895D01*
X115501697Y-79830234D01*
X115307003Y-79592997D01*
X115069766Y-79398303D01*
X114799105Y-79253631D01*
X114505421Y-79164543D01*
X114276535Y-79142000D01*
X112723465Y-79142000D01*
X112494579Y-79164543D01*
X112200895Y-79253631D01*
X111930234Y-79398303D01*
X111692997Y-79592997D01*
X111498303Y-79830234D01*
X111353631Y-80100895D01*
X111264543Y-80394579D01*
X111234462Y-80700000D01*
X101765538Y-80700000D01*
X101735457Y-80394579D01*
X101646369Y-80100895D01*
X101501697Y-79830234D01*
X101307003Y-79592997D01*
X101069766Y-79398303D01*
X100799105Y-79253631D01*
X100505421Y-79164543D01*
X100276535Y-79142000D01*
X98723465Y-79142000D01*
X98494579Y-79164543D01*
X98200895Y-79253631D01*
X97930234Y-79398303D01*
X97692997Y-79592997D01*
X97498303Y-79830234D01*
X97353631Y-80100895D01*
X97264543Y-80394579D01*
X97234462Y-80700000D01*
X94978733Y-80700000D01*
X94725357Y-80530700D01*
X94423621Y-80405716D01*
X94103299Y-80342000D01*
X93776701Y-80342000D01*
X93456379Y-80405716D01*
X93154643Y-80530700D01*
X92933994Y-80678133D01*
X92933303Y-80676840D01*
X92838580Y-80561420D01*
X92723160Y-80466697D01*
X92591477Y-80396311D01*
X92448594Y-80352968D01*
X92300000Y-80338333D01*
X90500000Y-80338333D01*
X90351406Y-80352968D01*
X90208523Y-80396311D01*
X90076840Y-80466697D01*
X89961420Y-80561420D01*
X89866697Y-80676840D01*
X89796311Y-80808523D01*
X89752968Y-80951406D01*
X89738333Y-81100000D01*
X82905304Y-81100000D01*
X82824078Y-81092000D01*
X82206922Y-81092000D01*
X82220002Y-81041991D01*
X82064841Y-80800000D01*
X80100000Y-80800000D01*
X80100000Y-80820000D01*
X79900000Y-80820000D01*
X79900000Y-80800000D01*
X77935159Y-80800000D01*
X77779998Y-81041991D01*
X75683165Y-81041991D01*
X75632372Y-81029049D01*
X74661421Y-82000000D01*
X74378579Y-82000000D01*
X74364437Y-81985858D01*
X74505858Y-81844437D01*
X74520000Y-81858579D01*
X75490951Y-80887628D01*
X75416596Y-80595812D01*
X75125424Y-80447876D01*
X74810987Y-80359587D01*
X74790636Y-80358009D01*
X77779998Y-80358009D01*
X77935159Y-80600000D01*
X79900000Y-80600000D01*
X79900000Y-79142000D01*
X80100000Y-79142000D01*
X80100000Y-80600000D01*
X82064841Y-80600000D01*
X82220002Y-80358009D01*
X82177673Y-80196167D01*
X82050987Y-79917568D01*
X81872383Y-79669038D01*
X81648725Y-79460127D01*
X81388608Y-79298864D01*
X81102029Y-79191446D01*
X80800000Y-79142000D01*
X80100000Y-79142000D01*
X79900000Y-79142000D01*
X79200000Y-79142000D01*
X78897971Y-79191446D01*
X78611392Y-79298864D01*
X78351275Y-79460127D01*
X78127617Y-79669038D01*
X77949013Y-79917568D01*
X77822327Y-80196167D01*
X77779998Y-80358009D01*
X74790636Y-80358009D01*
X74485367Y-80334339D01*
X74161078Y-80373101D01*
X73850582Y-80474383D01*
X73623404Y-80595812D01*
X73573881Y-80790173D01*
X73513303Y-80676840D01*
X73418580Y-80561420D01*
X73303160Y-80466697D01*
X73171477Y-80396311D01*
X73028594Y-80352968D01*
X72880000Y-80338333D01*
X71080000Y-80338333D01*
X70931406Y-80352968D01*
X70788523Y-80396311D01*
X70656840Y-80466697D01*
X70541420Y-80561420D01*
X70446697Y-80676840D01*
X70376311Y-80808523D01*
X70332968Y-80951406D01*
X70318333Y-81100000D01*
X65405304Y-81100000D01*
X65324078Y-81092000D01*
X64706922Y-81092000D01*
X64720002Y-81041991D01*
X64564841Y-80800000D01*
X62600000Y-80800000D01*
X62600000Y-80820000D01*
X62400000Y-80820000D01*
X62400000Y-80800000D01*
X60435159Y-80800000D01*
X60279998Y-81041991D01*
X60322327Y-81203833D01*
X60449013Y-81482432D01*
X60627617Y-81730962D01*
X60851275Y-81939873D01*
X61111392Y-82101136D01*
X61397971Y-82208554D01*
X61630927Y-82246692D01*
X60426120Y-83451500D01*
X57848081Y-83451500D01*
X57936596Y-83404188D01*
X58010951Y-83112372D01*
X57040000Y-82141421D01*
X57025858Y-82155564D01*
X56884437Y-82014143D01*
X56898579Y-82000000D01*
X57181421Y-82000000D01*
X58152372Y-82970951D01*
X58444188Y-82896596D01*
X58592124Y-82605424D01*
X58680413Y-82290987D01*
X58705661Y-81965367D01*
X58666899Y-81641078D01*
X58565617Y-81330582D01*
X58444188Y-81103404D01*
X58152372Y-81029049D01*
X57181421Y-82000000D01*
X56898579Y-82000000D01*
X56884437Y-81985858D01*
X57025858Y-81844437D01*
X57040000Y-81858579D01*
X58010951Y-80887628D01*
X57936596Y-80595812D01*
X57645424Y-80447876D01*
X57330987Y-80359587D01*
X57005367Y-80334339D01*
X56681078Y-80373101D01*
X56370582Y-80474383D01*
X56143404Y-80595812D01*
X56093881Y-80790173D01*
X56033303Y-80676840D01*
X55938580Y-80561420D01*
X55823160Y-80466697D01*
X55691477Y-80396311D01*
X55548594Y-80352968D01*
X55400000Y-80338333D01*
X53600000Y-80338333D01*
X53451406Y-80352968D01*
X53308523Y-80396311D01*
X53176840Y-80466697D01*
X53061420Y-80561420D01*
X52966697Y-80676840D01*
X52896311Y-80808523D01*
X52852968Y-80951406D01*
X52838333Y-81100000D01*
X51394307Y-81100000D01*
X51299568Y-80780597D01*
X51023489Y-80256322D01*
X51002737Y-80225262D01*
X50572734Y-79988687D01*
X48641421Y-81920000D01*
X48358579Y-81920000D01*
X46427266Y-79988687D01*
X45997263Y-80225262D01*
X45714725Y-80746086D01*
X45539225Y-81312023D01*
X45477505Y-81901323D01*
X41913000Y-81901323D01*
X41913000Y-81746852D01*
X41845441Y-81407210D01*
X41712919Y-81087275D01*
X41550788Y-80844628D01*
X41570681Y-80846239D01*
X41914667Y-80806316D01*
X42244256Y-80700051D01*
X42495759Y-80565620D01*
X42582157Y-80263578D01*
X41540000Y-79221421D01*
X41525858Y-79235564D01*
X41384437Y-79094143D01*
X41398579Y-79080000D01*
X41681421Y-79080000D01*
X42723578Y-80122157D01*
X43025620Y-80035759D01*
X43122200Y-79847266D01*
X46568687Y-79847266D01*
X48500000Y-81778579D01*
X50431313Y-79847266D01*
X50194738Y-79417263D01*
X49673914Y-79134725D01*
X49107977Y-78959225D01*
X48518677Y-78897505D01*
X47928658Y-78951938D01*
X47360597Y-79120432D01*
X46836322Y-79396511D01*
X46805262Y-79417263D01*
X46568687Y-79847266D01*
X43122200Y-79847266D01*
X43183533Y-79727565D01*
X43278287Y-79394485D01*
X43306239Y-79049319D01*
X43266316Y-78705333D01*
X43260066Y-78685947D01*
X57442000Y-78685947D01*
X57442000Y-78914053D01*
X57486501Y-79137776D01*
X57573794Y-79348519D01*
X57700523Y-79538182D01*
X57861818Y-79699477D01*
X58051481Y-79826206D01*
X58262224Y-79913499D01*
X58485947Y-79958000D01*
X58714053Y-79958000D01*
X58937776Y-79913499D01*
X59148519Y-79826206D01*
X59264814Y-79748500D01*
X60570512Y-79748500D01*
X60449013Y-79917568D01*
X60322327Y-80196167D01*
X60279998Y-80358009D01*
X60435159Y-80600000D01*
X62400000Y-80600000D01*
X62400000Y-80580000D01*
X62600000Y-80580000D01*
X62600000Y-80600000D01*
X64564841Y-80600000D01*
X64720002Y-80358009D01*
X64677673Y-80196167D01*
X64550987Y-79917568D01*
X64429488Y-79748500D01*
X67753406Y-79748500D01*
X67800000Y-79753089D01*
X67985938Y-79734776D01*
X68009709Y-79727565D01*
X68164731Y-79680539D01*
X68329508Y-79592465D01*
X68473936Y-79473936D01*
X68503647Y-79437733D01*
X69400595Y-78540786D01*
X69537776Y-78513499D01*
X69748519Y-78426206D01*
X69938182Y-78299477D01*
X70099477Y-78138182D01*
X70226206Y-77948519D01*
X70313499Y-77737776D01*
X70358000Y-77514053D01*
X70358000Y-77285947D01*
X70313499Y-77062224D01*
X70287725Y-77000000D01*
X79733978Y-77000000D01*
X79765990Y-77325025D01*
X79860796Y-77637559D01*
X80014753Y-77925592D01*
X80221945Y-78178055D01*
X80474408Y-78385247D01*
X80762441Y-78539204D01*
X81074975Y-78634010D01*
X81318551Y-78658000D01*
X81888251Y-78658000D01*
X81886501Y-78662224D01*
X81842000Y-78885947D01*
X81842000Y-79114053D01*
X81886501Y-79337776D01*
X81973794Y-79548519D01*
X82100523Y-79738182D01*
X82261818Y-79899477D01*
X82451481Y-80026206D01*
X82662224Y-80113499D01*
X82885947Y-80158000D01*
X83114053Y-80158000D01*
X83337776Y-80113499D01*
X83400000Y-80087725D01*
X83462224Y-80113499D01*
X83685947Y-80158000D01*
X83914053Y-80158000D01*
X84137776Y-80113499D01*
X84200000Y-80087725D01*
X84262224Y-80113499D01*
X84485947Y-80158000D01*
X84714053Y-80158000D01*
X84937776Y-80113499D01*
X85148519Y-80026206D01*
X85169780Y-80012000D01*
X86950299Y-80012000D01*
X87000000Y-80016895D01*
X87049701Y-80012000D01*
X87049711Y-80012000D01*
X87198387Y-79997357D01*
X87389149Y-79939489D01*
X87564957Y-79845518D01*
X87719054Y-79719054D01*
X87750743Y-79680441D01*
X88080437Y-79350746D01*
X88119054Y-79319054D01*
X88245518Y-79164957D01*
X88339489Y-78989149D01*
X88397357Y-78798387D01*
X88398130Y-78790537D01*
X88426206Y-78748519D01*
X88513499Y-78537776D01*
X88558000Y-78314053D01*
X88558000Y-78085947D01*
X88513499Y-77862224D01*
X88487725Y-77800000D01*
X88513499Y-77737776D01*
X88558000Y-77514053D01*
X88558000Y-77285947D01*
X88513499Y-77062224D01*
X88487725Y-77000000D01*
X99233978Y-77000000D01*
X99265990Y-77325025D01*
X99360796Y-77637559D01*
X99514753Y-77925592D01*
X99721945Y-78178055D01*
X99974408Y-78385247D01*
X100262441Y-78539204D01*
X100574975Y-78634010D01*
X100818551Y-78658000D01*
X102181449Y-78658000D01*
X102425025Y-78634010D01*
X102737559Y-78539204D01*
X103025592Y-78385247D01*
X103278055Y-78178055D01*
X103485247Y-77925592D01*
X103639204Y-77637559D01*
X103734010Y-77325025D01*
X103766022Y-77000000D01*
X113233978Y-77000000D01*
X113265990Y-77325025D01*
X113360796Y-77637559D01*
X113514753Y-77925592D01*
X113721945Y-78178055D01*
X113974408Y-78385247D01*
X114262441Y-78539204D01*
X114574975Y-78634010D01*
X114818551Y-78658000D01*
X116181449Y-78658000D01*
X116425025Y-78634010D01*
X116737559Y-78539204D01*
X117025592Y-78385247D01*
X117278055Y-78178055D01*
X117485247Y-77925592D01*
X117639204Y-77637559D01*
X117734010Y-77325025D01*
X117766022Y-77000000D01*
X117734010Y-76674975D01*
X117639204Y-76362441D01*
X117485247Y-76074408D01*
X117278055Y-75821945D01*
X117025592Y-75614753D01*
X116737559Y-75460796D01*
X116425025Y-75365990D01*
X116181449Y-75342000D01*
X114818551Y-75342000D01*
X114574975Y-75365990D01*
X114262441Y-75460796D01*
X113974408Y-75614753D01*
X113721945Y-75821945D01*
X113514753Y-76074408D01*
X113360796Y-76362441D01*
X113265990Y-76674975D01*
X113233978Y-77000000D01*
X103766022Y-77000000D01*
X103734010Y-76674975D01*
X103639204Y-76362441D01*
X103485247Y-76074408D01*
X103278055Y-75821945D01*
X103025592Y-75614753D01*
X102737559Y-75460796D01*
X102425025Y-75365990D01*
X102181449Y-75342000D01*
X100818551Y-75342000D01*
X100574975Y-75365990D01*
X100262441Y-75460796D01*
X99974408Y-75614753D01*
X99721945Y-75821945D01*
X99514753Y-76074408D01*
X99360796Y-76362441D01*
X99265990Y-76674975D01*
X99233978Y-77000000D01*
X88487725Y-77000000D01*
X88513499Y-76937776D01*
X88558000Y-76714053D01*
X88558000Y-76485947D01*
X88513499Y-76262224D01*
X88426206Y-76051481D01*
X88299477Y-75861818D01*
X88138182Y-75700523D01*
X87948519Y-75573794D01*
X87737776Y-75486501D01*
X87514053Y-75442000D01*
X87285947Y-75442000D01*
X87062224Y-75486501D01*
X86851481Y-75573794D01*
X86661818Y-75700523D01*
X86500523Y-75861818D01*
X86373794Y-76051481D01*
X86286501Y-76262224D01*
X86242000Y-76485947D01*
X86242000Y-76714053D01*
X86286501Y-76937776D01*
X86312275Y-77000000D01*
X86286501Y-77062224D01*
X86242000Y-77285947D01*
X86242000Y-77514053D01*
X86286501Y-77737776D01*
X86312275Y-77800000D01*
X86286501Y-77862224D01*
X86261483Y-77988000D01*
X85169780Y-77988000D01*
X85148519Y-77973794D01*
X84937776Y-77886501D01*
X84714053Y-77842000D01*
X84485947Y-77842000D01*
X84262224Y-77886501D01*
X84200000Y-77912275D01*
X84137776Y-77886501D01*
X84018792Y-77862834D01*
X84139204Y-77637559D01*
X84234010Y-77325025D01*
X84266022Y-77000000D01*
X84234010Y-76674975D01*
X84139204Y-76362441D01*
X83985247Y-76074408D01*
X83778055Y-75821945D01*
X83525592Y-75614753D01*
X83237559Y-75460796D01*
X82925025Y-75365990D01*
X82681449Y-75342000D01*
X81318551Y-75342000D01*
X81074975Y-75365990D01*
X80762441Y-75460796D01*
X80474408Y-75614753D01*
X80221945Y-75821945D01*
X80014753Y-76074408D01*
X79860796Y-76362441D01*
X79765990Y-76674975D01*
X79733978Y-77000000D01*
X70287725Y-77000000D01*
X70226206Y-76851481D01*
X70099477Y-76661818D01*
X69938182Y-76500523D01*
X69748519Y-76373794D01*
X69537776Y-76286501D01*
X69314053Y-76242000D01*
X69085947Y-76242000D01*
X68862224Y-76286501D01*
X68651481Y-76373794D01*
X68461818Y-76500523D01*
X68300523Y-76661818D01*
X68173794Y-76851481D01*
X68086501Y-77062224D01*
X68059214Y-77199405D01*
X67407120Y-77851500D01*
X66524850Y-77851500D01*
X66639204Y-77637559D01*
X66734010Y-77325025D01*
X66766022Y-77000000D01*
X66734010Y-76674975D01*
X66639204Y-76362441D01*
X66485247Y-76074408D01*
X66278055Y-75821945D01*
X66025592Y-75614753D01*
X65737559Y-75460796D01*
X65425025Y-75365990D01*
X65181449Y-75342000D01*
X63818551Y-75342000D01*
X63574975Y-75365990D01*
X63262441Y-75460796D01*
X62974408Y-75614753D01*
X62721945Y-75821945D01*
X62514753Y-76074408D01*
X62360796Y-76362441D01*
X62265990Y-76674975D01*
X62233978Y-77000000D01*
X62265990Y-77325025D01*
X62360796Y-77637559D01*
X62475150Y-77851500D01*
X59264814Y-77851500D01*
X59148519Y-77773794D01*
X58937776Y-77686501D01*
X58714053Y-77642000D01*
X58485947Y-77642000D01*
X58262224Y-77686501D01*
X58051481Y-77773794D01*
X57861818Y-77900523D01*
X57700523Y-78061818D01*
X57573794Y-78251481D01*
X57486501Y-78462224D01*
X57442000Y-78685947D01*
X43260066Y-78685947D01*
X43160051Y-78375744D01*
X43025620Y-78124241D01*
X42723578Y-78037843D01*
X41681421Y-79080000D01*
X41398579Y-79080000D01*
X40356422Y-78037843D01*
X40215010Y-78078293D01*
X40135528Y-77959340D01*
X40072610Y-77896422D01*
X40497843Y-77896422D01*
X41540000Y-78938579D01*
X42582157Y-77896422D01*
X42495759Y-77594380D01*
X42187565Y-77436467D01*
X41854485Y-77341713D01*
X41509319Y-77313761D01*
X41165333Y-77353684D01*
X40835744Y-77459949D01*
X40584241Y-77594380D01*
X40497843Y-77896422D01*
X40072610Y-77896422D01*
X39890660Y-77714472D01*
X39602725Y-77522081D01*
X39282790Y-77389559D01*
X38943148Y-77322000D01*
X38596852Y-77322000D01*
X38257210Y-77389559D01*
X37937275Y-77522081D01*
X37649340Y-77714472D01*
X37404472Y-77959340D01*
X37385000Y-77988482D01*
X37365528Y-77959340D01*
X37120660Y-77714472D01*
X36832725Y-77522081D01*
X36512790Y-77389559D01*
X36173148Y-77322000D01*
X35826852Y-77322000D01*
X35487210Y-77389559D01*
X35167275Y-77522081D01*
X34879340Y-77714472D01*
X34634472Y-77959340D01*
X34615000Y-77988482D01*
X34595528Y-77959340D01*
X34350660Y-77714472D01*
X34062725Y-77522081D01*
X33742790Y-77389559D01*
X33403148Y-77322000D01*
X33056852Y-77322000D01*
X32717210Y-77389559D01*
X32397275Y-77522081D01*
X32109340Y-77714472D01*
X31864472Y-77959340D01*
X31845000Y-77988482D01*
X31825528Y-77959340D01*
X31580660Y-77714472D01*
X31292725Y-77522081D01*
X30972790Y-77389559D01*
X30633148Y-77322000D01*
X30286852Y-77322000D01*
X29947210Y-77389559D01*
X29627275Y-77522081D01*
X29339340Y-77714472D01*
X29094472Y-77959340D01*
X28902081Y-78247275D01*
X28769559Y-78567210D01*
X28702000Y-78906852D01*
X23607922Y-78906852D01*
X23518677Y-78897505D01*
X22928658Y-78951938D01*
X22360597Y-79120432D01*
X21836322Y-79396511D01*
X21805262Y-79417263D01*
X21568687Y-79847266D01*
X21008000Y-79847266D01*
X21008000Y-75992734D01*
X21568687Y-75992734D01*
X21805262Y-76422737D01*
X22326086Y-76705275D01*
X22892023Y-76880775D01*
X23481323Y-76942495D01*
X24071342Y-76888062D01*
X24639403Y-76719568D01*
X25163678Y-76443489D01*
X25194738Y-76422737D01*
X25431313Y-75992734D01*
X23500000Y-74061421D01*
X21568687Y-75992734D01*
X21008000Y-75992734D01*
X21008000Y-75620645D01*
X21427266Y-75851313D01*
X23358579Y-73920000D01*
X23641421Y-73920000D01*
X25572734Y-75851313D01*
X26002737Y-75614738D01*
X26285275Y-75093914D01*
X26460775Y-74527977D01*
X26522495Y-73938677D01*
X26468062Y-73348658D01*
X26299568Y-72780597D01*
X26023489Y-72256322D01*
X26002737Y-72225262D01*
X25860218Y-72146852D01*
X28702000Y-72146852D01*
X28702000Y-72493148D01*
X28769559Y-72832790D01*
X28902081Y-73152725D01*
X29094472Y-73440660D01*
X29339340Y-73685528D01*
X29627275Y-73877919D01*
X29947210Y-74010441D01*
X30286852Y-74078000D01*
X30453640Y-74078000D01*
X30287081Y-74327275D01*
X30154559Y-74647210D01*
X30087000Y-74986852D01*
X30087000Y-75333148D01*
X30154559Y-75672790D01*
X30287081Y-75992725D01*
X30479472Y-76280660D01*
X30724340Y-76525528D01*
X31012275Y-76717919D01*
X31332210Y-76850441D01*
X31671852Y-76918000D01*
X32018148Y-76918000D01*
X32357790Y-76850441D01*
X32677725Y-76717919D01*
X32965660Y-76525528D01*
X33210528Y-76280660D01*
X33230000Y-76251518D01*
X33249472Y-76280660D01*
X33494340Y-76525528D01*
X33782275Y-76717919D01*
X34102210Y-76850441D01*
X34441852Y-76918000D01*
X34788148Y-76918000D01*
X35127790Y-76850441D01*
X35447725Y-76717919D01*
X35735660Y-76525528D01*
X35980528Y-76280660D01*
X36000000Y-76251518D01*
X36019472Y-76280660D01*
X36264340Y-76525528D01*
X36552275Y-76717919D01*
X36872210Y-76850441D01*
X37211852Y-76918000D01*
X37558148Y-76918000D01*
X37897790Y-76850441D01*
X38217725Y-76717919D01*
X38505660Y-76525528D01*
X38750528Y-76280660D01*
X38770000Y-76251518D01*
X38789472Y-76280660D01*
X39034340Y-76525528D01*
X39322275Y-76717919D01*
X39642210Y-76850441D01*
X39981852Y-76918000D01*
X40328148Y-76918000D01*
X40667790Y-76850441D01*
X40987725Y-76717919D01*
X41275660Y-76525528D01*
X41520528Y-76280660D01*
X41712912Y-75992734D01*
X46568687Y-75992734D01*
X46805262Y-76422737D01*
X47326086Y-76705275D01*
X47892023Y-76880775D01*
X48481323Y-76942495D01*
X49071342Y-76888062D01*
X49639403Y-76719568D01*
X50163678Y-76443489D01*
X50194738Y-76422737D01*
X50431313Y-75992734D01*
X48500000Y-74061421D01*
X46568687Y-75992734D01*
X41712912Y-75992734D01*
X41712919Y-75992725D01*
X41845441Y-75672790D01*
X41913000Y-75333148D01*
X41913000Y-74986852D01*
X41845441Y-74647210D01*
X41712919Y-74327275D01*
X41550788Y-74084628D01*
X41570681Y-74086239D01*
X41914667Y-74046316D01*
X42244256Y-73940051D01*
X42316711Y-73901323D01*
X45477505Y-73901323D01*
X45531938Y-74491342D01*
X45700432Y-75059403D01*
X45976511Y-75583678D01*
X45997263Y-75614738D01*
X46427266Y-75851313D01*
X48358579Y-73920000D01*
X48641421Y-73920000D01*
X50572734Y-75851313D01*
X51002737Y-75614738D01*
X51285275Y-75093914D01*
X51460775Y-74527977D01*
X51522495Y-73938677D01*
X51468062Y-73348658D01*
X51299568Y-72780597D01*
X51249727Y-72685947D01*
X92442000Y-72685947D01*
X92442000Y-72914053D01*
X92486501Y-73137776D01*
X92573794Y-73348519D01*
X92700523Y-73538182D01*
X92861818Y-73699477D01*
X93051481Y-73826206D01*
X93262224Y-73913499D01*
X93485947Y-73958000D01*
X93714053Y-73958000D01*
X93937776Y-73913499D01*
X94148519Y-73826206D01*
X94264814Y-73748500D01*
X95607120Y-73748500D01*
X95659214Y-73800594D01*
X95686501Y-73937776D01*
X95773794Y-74148519D01*
X95900523Y-74338182D01*
X96061818Y-74499477D01*
X96251481Y-74626206D01*
X96462224Y-74713499D01*
X96685947Y-74758000D01*
X96914053Y-74758000D01*
X97137776Y-74713499D01*
X97348519Y-74626206D01*
X97538182Y-74499477D01*
X97699477Y-74338182D01*
X97826206Y-74148519D01*
X97913499Y-73937776D01*
X97958000Y-73714053D01*
X97958000Y-73485947D01*
X97913499Y-73262224D01*
X97826206Y-73051481D01*
X97699477Y-72861818D01*
X97538182Y-72700523D01*
X97348519Y-72573794D01*
X97137776Y-72486501D01*
X97000594Y-72459214D01*
X96703647Y-72162267D01*
X96673936Y-72126064D01*
X96529508Y-72007535D01*
X96364731Y-71919461D01*
X96185938Y-71865224D01*
X96046594Y-71851500D01*
X96000000Y-71846911D01*
X95953406Y-71851500D01*
X94264814Y-71851500D01*
X94148519Y-71773794D01*
X93937776Y-71686501D01*
X93714053Y-71642000D01*
X93485947Y-71642000D01*
X93262224Y-71686501D01*
X93051481Y-71773794D01*
X92861818Y-71900523D01*
X92700523Y-72061818D01*
X92573794Y-72251481D01*
X92486501Y-72462224D01*
X92442000Y-72685947D01*
X51249727Y-72685947D01*
X51023489Y-72256322D01*
X51002737Y-72225262D01*
X50572734Y-71988687D01*
X48641421Y-73920000D01*
X48358579Y-73920000D01*
X46427266Y-71988687D01*
X45997263Y-72225262D01*
X45714725Y-72746086D01*
X45539225Y-73312023D01*
X45477505Y-73901323D01*
X42316711Y-73901323D01*
X42495759Y-73805620D01*
X42582157Y-73503578D01*
X41540000Y-72461421D01*
X41525858Y-72475564D01*
X41384437Y-72334143D01*
X41398579Y-72320000D01*
X41681421Y-72320000D01*
X42723578Y-73362157D01*
X43025620Y-73275759D01*
X43183533Y-72967565D01*
X43278287Y-72634485D01*
X43306239Y-72289319D01*
X43266316Y-71945333D01*
X43234698Y-71847266D01*
X46568687Y-71847266D01*
X48500000Y-73778579D01*
X50431313Y-71847266D01*
X50194738Y-71417263D01*
X49673914Y-71134725D01*
X49107977Y-70959225D01*
X48518677Y-70897505D01*
X47928658Y-70951938D01*
X47360597Y-71120432D01*
X46836322Y-71396511D01*
X46805262Y-71417263D01*
X46568687Y-71847266D01*
X43234698Y-71847266D01*
X43160051Y-71615744D01*
X43025620Y-71364241D01*
X42723578Y-71277843D01*
X41681421Y-72320000D01*
X41398579Y-72320000D01*
X40356422Y-71277843D01*
X40215010Y-71318293D01*
X40135528Y-71199340D01*
X40072610Y-71136422D01*
X40497843Y-71136422D01*
X41540000Y-72178579D01*
X42582157Y-71136422D01*
X42495759Y-70834380D01*
X42187565Y-70676467D01*
X41854485Y-70581713D01*
X41509319Y-70553761D01*
X41165333Y-70593684D01*
X40835744Y-70699949D01*
X40584241Y-70834380D01*
X40497843Y-71136422D01*
X40072610Y-71136422D01*
X39890660Y-70954472D01*
X39602725Y-70762081D01*
X39282790Y-70629559D01*
X38943148Y-70562000D01*
X38596852Y-70562000D01*
X38257210Y-70629559D01*
X37937275Y-70762081D01*
X37649340Y-70954472D01*
X37404472Y-71199340D01*
X37385000Y-71228482D01*
X37365528Y-71199340D01*
X37120660Y-70954472D01*
X36832725Y-70762081D01*
X36512790Y-70629559D01*
X36173148Y-70562000D01*
X35826852Y-70562000D01*
X35487210Y-70629559D01*
X35167275Y-70762081D01*
X34879340Y-70954472D01*
X34634472Y-71199340D01*
X34615000Y-71228482D01*
X34595528Y-71199340D01*
X34350660Y-70954472D01*
X34062725Y-70762081D01*
X33742790Y-70629559D01*
X33403148Y-70562000D01*
X33056852Y-70562000D01*
X32717210Y-70629559D01*
X32397275Y-70762081D01*
X32109340Y-70954472D01*
X31864472Y-71199340D01*
X31845000Y-71228482D01*
X31825528Y-71199340D01*
X31580660Y-70954472D01*
X31292725Y-70762081D01*
X30972790Y-70629559D01*
X30633148Y-70562000D01*
X30286852Y-70562000D01*
X29947210Y-70629559D01*
X29627275Y-70762081D01*
X29339340Y-70954472D01*
X29094472Y-71199340D01*
X28902081Y-71487275D01*
X28769559Y-71807210D01*
X28702000Y-72146852D01*
X25860218Y-72146852D01*
X25572734Y-71988687D01*
X23641421Y-73920000D01*
X23358579Y-73920000D01*
X21427266Y-71988687D01*
X21008000Y-72219355D01*
X21008000Y-71847266D01*
X21568687Y-71847266D01*
X23500000Y-73778579D01*
X25431313Y-71847266D01*
X25194738Y-71417263D01*
X24673914Y-71134725D01*
X24107977Y-70959225D01*
X23518677Y-70897505D01*
X22928658Y-70951938D01*
X22360597Y-71120432D01*
X21836322Y-71396511D01*
X21805262Y-71417263D01*
X21568687Y-71847266D01*
X21008000Y-71847266D01*
X21008000Y-70485947D01*
X69242000Y-70485947D01*
X69242000Y-70714053D01*
X69286501Y-70937776D01*
X69373794Y-71148519D01*
X69500523Y-71338182D01*
X69661818Y-71499477D01*
X69851481Y-71626206D01*
X70062224Y-71713499D01*
X70285947Y-71758000D01*
X70514053Y-71758000D01*
X70737776Y-71713499D01*
X70948519Y-71626206D01*
X71064815Y-71548500D01*
X74353398Y-71548498D01*
X74400001Y-71553088D01*
X74585939Y-71534775D01*
X74764732Y-71480537D01*
X74929509Y-71392463D01*
X74989881Y-71342917D01*
X75137776Y-71313499D01*
X75348519Y-71226206D01*
X75538182Y-71099477D01*
X75699477Y-70938182D01*
X75826206Y-70748519D01*
X75913499Y-70537776D01*
X75958000Y-70314053D01*
X75958000Y-70085947D01*
X75913499Y-69862224D01*
X75826206Y-69651481D01*
X75699477Y-69461818D01*
X75538182Y-69300523D01*
X75348519Y-69173794D01*
X75137776Y-69086501D01*
X74914053Y-69042000D01*
X74685947Y-69042000D01*
X74462224Y-69086501D01*
X74251481Y-69173794D01*
X74061818Y-69300523D01*
X73900523Y-69461818D01*
X73773794Y-69651481D01*
X73773786Y-69651499D01*
X71064815Y-69651501D01*
X70948519Y-69573794D01*
X70737776Y-69486501D01*
X70514053Y-69442000D01*
X70285947Y-69442000D01*
X70062224Y-69486501D01*
X69851481Y-69573794D01*
X69661818Y-69700523D01*
X69500523Y-69861818D01*
X69373794Y-70051481D01*
X69286501Y-70262224D01*
X69242000Y-70485947D01*
X21008000Y-70485947D01*
X21008000Y-65685947D01*
X69442000Y-65685947D01*
X69442000Y-65914053D01*
X69486501Y-66137776D01*
X69573794Y-66348519D01*
X69700523Y-66538182D01*
X69861818Y-66699477D01*
X70051481Y-66826206D01*
X70262224Y-66913499D01*
X70485947Y-66958000D01*
X70714053Y-66958000D01*
X70937776Y-66913499D01*
X71148519Y-66826206D01*
X71264814Y-66748500D01*
X79335186Y-66748500D01*
X79451481Y-66826206D01*
X79662224Y-66913499D01*
X79885947Y-66958000D01*
X80114053Y-66958000D01*
X80337776Y-66913499D01*
X80548519Y-66826206D01*
X80738182Y-66699477D01*
X80899477Y-66538182D01*
X81026206Y-66348519D01*
X81113499Y-66137776D01*
X81158000Y-65914053D01*
X81158000Y-65685947D01*
X81113499Y-65462224D01*
X81026206Y-65251481D01*
X80899477Y-65061818D01*
X80738182Y-64900523D01*
X80548519Y-64773794D01*
X80337776Y-64686501D01*
X80114053Y-64642000D01*
X79885947Y-64642000D01*
X79662224Y-64686501D01*
X79451481Y-64773794D01*
X79335186Y-64851500D01*
X71264814Y-64851500D01*
X71148519Y-64773794D01*
X70937776Y-64686501D01*
X70714053Y-64642000D01*
X70485947Y-64642000D01*
X70262224Y-64686501D01*
X70051481Y-64773794D01*
X69861818Y-64900523D01*
X69700523Y-65061818D01*
X69573794Y-65251481D01*
X69486501Y-65462224D01*
X69442000Y-65685947D01*
X21008000Y-65685947D01*
X21008000Y-59951723D01*
X21224126Y-59951723D01*
X21287260Y-60689287D01*
X21493072Y-61400362D01*
X21833654Y-62057622D01*
X21887296Y-62137905D01*
X22394107Y-62464471D01*
X22818186Y-62040393D01*
X22788998Y-62149322D01*
X22869538Y-62271884D01*
X22535529Y-62605893D01*
X22862095Y-63112704D01*
X23510433Y-63469978D01*
X24216014Y-63693903D01*
X24951723Y-63775874D01*
X25689287Y-63712740D01*
X26400362Y-63506928D01*
X26440851Y-63485947D01*
X35242000Y-63485947D01*
X35242000Y-63714053D01*
X35286501Y-63937776D01*
X35373794Y-64148519D01*
X35500523Y-64338182D01*
X35661818Y-64499477D01*
X35851481Y-64626206D01*
X36062224Y-64713499D01*
X36285947Y-64758000D01*
X36514053Y-64758000D01*
X36737776Y-64713499D01*
X36948519Y-64626206D01*
X37064814Y-64548500D01*
X45710841Y-64548500D01*
X45861818Y-64699477D01*
X46051481Y-64826206D01*
X46262224Y-64913499D01*
X46485947Y-64958000D01*
X46714053Y-64958000D01*
X46937776Y-64913499D01*
X47148519Y-64826206D01*
X47338182Y-64699477D01*
X47499477Y-64538182D01*
X47626206Y-64348519D01*
X47713499Y-64137776D01*
X47758000Y-63914053D01*
X47758000Y-63685947D01*
X47713499Y-63462224D01*
X47626206Y-63251481D01*
X47499477Y-63061818D01*
X47338182Y-62900523D01*
X47148519Y-62773794D01*
X46937776Y-62686501D01*
X46714053Y-62642000D01*
X46485947Y-62642000D01*
X46440971Y-62650946D01*
X46400000Y-62646911D01*
X46353406Y-62651500D01*
X37064814Y-62651500D01*
X36948519Y-62573794D01*
X36737776Y-62486501D01*
X36514053Y-62442000D01*
X36285947Y-62442000D01*
X36062224Y-62486501D01*
X35851481Y-62573794D01*
X35661818Y-62700523D01*
X35500523Y-62861818D01*
X35373794Y-63051481D01*
X35286501Y-63262224D01*
X35242000Y-63485947D01*
X26440851Y-63485947D01*
X27057622Y-63166346D01*
X27137905Y-63112704D01*
X27464471Y-62605893D01*
X27130462Y-62271884D01*
X27211002Y-62149322D01*
X27181814Y-62040393D01*
X27605893Y-62464471D01*
X28112704Y-62137905D01*
X28469978Y-61489567D01*
X28693903Y-60783986D01*
X28775874Y-60048277D01*
X28712740Y-59310713D01*
X28506928Y-58599638D01*
X28166346Y-57942378D01*
X28112704Y-57862095D01*
X27605893Y-57535529D01*
X27181814Y-57959607D01*
X27211002Y-57850678D01*
X27130462Y-57728116D01*
X27464471Y-57394107D01*
X27137905Y-56887296D01*
X27078264Y-56854430D01*
X81522000Y-56854430D01*
X81522000Y-57145570D01*
X81578799Y-57431117D01*
X81690214Y-57700095D01*
X81851963Y-57942170D01*
X82057830Y-58148037D01*
X82240361Y-58270000D01*
X82057830Y-58391963D01*
X81851963Y-58597830D01*
X81690214Y-58839905D01*
X81578799Y-59108883D01*
X81522000Y-59394430D01*
X81522000Y-59685570D01*
X81578799Y-59971117D01*
X81690214Y-60240095D01*
X81851963Y-60482170D01*
X82057830Y-60688037D01*
X82240361Y-60810000D01*
X82057830Y-60931963D01*
X81851963Y-61137830D01*
X81690214Y-61379905D01*
X81578799Y-61648883D01*
X81522000Y-61934430D01*
X81522000Y-62225570D01*
X81578799Y-62511117D01*
X81690214Y-62780095D01*
X81851963Y-63022170D01*
X82057830Y-63228037D01*
X82299905Y-63389786D01*
X82568883Y-63501201D01*
X82854430Y-63558000D01*
X83145570Y-63558000D01*
X83431117Y-63501201D01*
X83700095Y-63389786D01*
X83942170Y-63228037D01*
X84148037Y-63022170D01*
X84309786Y-62780095D01*
X84421201Y-62511117D01*
X84478000Y-62225570D01*
X84478000Y-61934430D01*
X84421201Y-61648883D01*
X84309786Y-61379905D01*
X84148037Y-61137830D01*
X83942170Y-60931963D01*
X83759639Y-60810000D01*
X83942170Y-60688037D01*
X84148037Y-60482170D01*
X84309786Y-60240095D01*
X84421201Y-59971117D01*
X84425058Y-59951723D01*
X111224126Y-59951723D01*
X111287260Y-60689287D01*
X111493072Y-61400362D01*
X111833654Y-62057622D01*
X111887296Y-62137905D01*
X112394107Y-62464471D01*
X112818186Y-62040393D01*
X112788998Y-62149322D01*
X112869538Y-62271884D01*
X112535529Y-62605893D01*
X112862095Y-63112704D01*
X113510433Y-63469978D01*
X114216014Y-63693903D01*
X114951723Y-63775874D01*
X115689287Y-63712740D01*
X116400362Y-63506928D01*
X117057622Y-63166346D01*
X117137905Y-63112704D01*
X117464471Y-62605893D01*
X117130462Y-62271884D01*
X117211002Y-62149322D01*
X117181814Y-62040393D01*
X117605893Y-62464471D01*
X118112704Y-62137905D01*
X118469978Y-61489567D01*
X118693903Y-60783986D01*
X118775874Y-60048277D01*
X118712740Y-59310713D01*
X118506928Y-58599638D01*
X118166346Y-57942378D01*
X118112704Y-57862095D01*
X117605893Y-57535529D01*
X117181814Y-57959607D01*
X117211002Y-57850678D01*
X117130462Y-57728116D01*
X117464471Y-57394107D01*
X117137905Y-56887296D01*
X116489567Y-56530022D01*
X115783986Y-56306097D01*
X115048277Y-56224126D01*
X114310713Y-56287260D01*
X113599638Y-56493072D01*
X112942378Y-56833654D01*
X112862095Y-56887296D01*
X112535529Y-57394107D01*
X112869538Y-57728116D01*
X112788998Y-57850678D01*
X112818186Y-57959607D01*
X112394107Y-57535529D01*
X111887296Y-57862095D01*
X111530022Y-58510433D01*
X111306097Y-59216014D01*
X111224126Y-59951723D01*
X84425058Y-59951723D01*
X84478000Y-59685570D01*
X84478000Y-59394430D01*
X84421201Y-59108883D01*
X84309786Y-58839905D01*
X84148037Y-58597830D01*
X83942170Y-58391963D01*
X83759639Y-58270000D01*
X83942170Y-58148037D01*
X84148037Y-57942170D01*
X84309786Y-57700095D01*
X84421201Y-57431117D01*
X84478000Y-57145570D01*
X84478000Y-56854430D01*
X84421201Y-56568883D01*
X84309786Y-56299905D01*
X84148037Y-56057830D01*
X83942170Y-55851963D01*
X83700095Y-55690214D01*
X83431117Y-55578799D01*
X83145570Y-55522000D01*
X82854430Y-55522000D01*
X82568883Y-55578799D01*
X82299905Y-55690214D01*
X82057830Y-55851963D01*
X81851963Y-56057830D01*
X81690214Y-56299905D01*
X81578799Y-56568883D01*
X81522000Y-56854430D01*
X27078264Y-56854430D01*
X26489567Y-56530022D01*
X25783986Y-56306097D01*
X25048277Y-56224126D01*
X24310713Y-56287260D01*
X23599638Y-56493072D01*
X22942378Y-56833654D01*
X22862095Y-56887296D01*
X22535529Y-57394107D01*
X22869538Y-57728116D01*
X22788998Y-57850678D01*
X22818186Y-57959607D01*
X22394107Y-57535529D01*
X21887296Y-57862095D01*
X21530022Y-58510433D01*
X21306097Y-59216014D01*
X21224126Y-59951723D01*
X21008000Y-59951723D01*
X21008000Y-48600000D01*
X28412000Y-48600000D01*
X28412000Y-49500000D01*
X28463367Y-49821538D01*
X28576476Y-50126877D01*
X28746980Y-50404282D01*
X28968327Y-50643093D01*
X29232011Y-50834133D01*
X29527898Y-50970060D01*
X29712335Y-51018963D01*
X29970000Y-50865091D01*
X29970000Y-48600000D01*
X30170000Y-48600000D01*
X30170000Y-50865091D01*
X30427665Y-51018963D01*
X30612102Y-50970060D01*
X30907989Y-50834133D01*
X31171673Y-50643093D01*
X31393020Y-50404282D01*
X31563524Y-50126877D01*
X31676633Y-49821538D01*
X31728000Y-49500000D01*
X31728000Y-48600000D01*
X30170000Y-48600000D01*
X29970000Y-48600000D01*
X28412000Y-48600000D01*
X21008000Y-48600000D01*
X21008000Y-47500000D01*
X28412000Y-47500000D01*
X28412000Y-48400000D01*
X29970000Y-48400000D01*
X29970000Y-46134909D01*
X30170000Y-46134909D01*
X30170000Y-48400000D01*
X31728000Y-48400000D01*
X31728000Y-47518551D01*
X32222000Y-47518551D01*
X32222000Y-49481448D01*
X32245990Y-49725024D01*
X32340796Y-50037558D01*
X32494753Y-50325591D01*
X32701945Y-50578055D01*
X32954408Y-50785247D01*
X33242441Y-50939204D01*
X33554975Y-51034010D01*
X33880000Y-51066022D01*
X34205024Y-51034010D01*
X34517558Y-50939204D01*
X34805591Y-50785247D01*
X35058055Y-50578055D01*
X35265247Y-50325592D01*
X35419204Y-50037559D01*
X35514010Y-49725025D01*
X35538000Y-49481449D01*
X35538000Y-47518551D01*
X36032000Y-47518551D01*
X36032000Y-49481448D01*
X36055990Y-49725024D01*
X36150796Y-50037558D01*
X36304753Y-50325591D01*
X36511945Y-50578055D01*
X36764408Y-50785247D01*
X37052441Y-50939204D01*
X37364975Y-51034010D01*
X37690000Y-51066022D01*
X38015024Y-51034010D01*
X38327558Y-50939204D01*
X38615591Y-50785247D01*
X38868055Y-50578055D01*
X39075247Y-50325592D01*
X39229204Y-50037559D01*
X39324010Y-49725025D01*
X39348000Y-49481449D01*
X39348000Y-47518551D01*
X39324010Y-47274975D01*
X39229204Y-46962441D01*
X39088927Y-46700000D01*
X39838333Y-46700000D01*
X39838333Y-50300000D01*
X39852968Y-50448594D01*
X39896311Y-50591477D01*
X39966697Y-50723160D01*
X40061420Y-50838580D01*
X40176840Y-50933303D01*
X40308523Y-51003689D01*
X40451406Y-51047032D01*
X40600000Y-51061667D01*
X42400000Y-51061667D01*
X42548594Y-51047032D01*
X42691477Y-51003689D01*
X42823160Y-50933303D01*
X42938580Y-50838580D01*
X43033303Y-50723160D01*
X43103689Y-50591477D01*
X43147032Y-50448594D01*
X43161667Y-50300000D01*
X43161667Y-48600000D01*
X52282000Y-48600000D01*
X52282000Y-49500000D01*
X52333367Y-49821538D01*
X52446476Y-50126877D01*
X52616980Y-50404282D01*
X52838327Y-50643093D01*
X53102011Y-50834133D01*
X53397898Y-50970060D01*
X53582335Y-51018963D01*
X53840000Y-50865091D01*
X53840000Y-48600000D01*
X54040000Y-48600000D01*
X54040000Y-50865091D01*
X54297665Y-51018963D01*
X54482102Y-50970060D01*
X54777989Y-50834133D01*
X55041673Y-50643093D01*
X55263020Y-50404282D01*
X55433524Y-50126877D01*
X55546633Y-49821538D01*
X55598000Y-49500000D01*
X55598000Y-48600000D01*
X54040000Y-48600000D01*
X53840000Y-48600000D01*
X52282000Y-48600000D01*
X43161667Y-48600000D01*
X43161667Y-47500000D01*
X52282000Y-47500000D01*
X52282000Y-48400000D01*
X53840000Y-48400000D01*
X53840000Y-46134909D01*
X54040000Y-46134909D01*
X54040000Y-48400000D01*
X55598000Y-48400000D01*
X55598000Y-47500000D01*
X55546633Y-47178462D01*
X55433524Y-46873123D01*
X55327116Y-46700000D01*
X56088333Y-46700000D01*
X56088333Y-50300000D01*
X56102968Y-50448594D01*
X56146311Y-50591477D01*
X56216697Y-50723160D01*
X56311420Y-50838580D01*
X56426840Y-50933303D01*
X56558523Y-51003689D01*
X56701406Y-51047032D01*
X56850000Y-51061667D01*
X58650000Y-51061667D01*
X58798594Y-51047032D01*
X58941477Y-51003689D01*
X59073160Y-50933303D01*
X59188580Y-50838580D01*
X59283303Y-50723160D01*
X59353689Y-50591477D01*
X59397032Y-50448594D01*
X59411667Y-50300000D01*
X59411667Y-48600000D01*
X68532000Y-48600000D01*
X68532000Y-49500000D01*
X68583367Y-49821538D01*
X68696476Y-50126877D01*
X68866980Y-50404282D01*
X69088327Y-50643093D01*
X69352011Y-50834133D01*
X69647898Y-50970060D01*
X69832335Y-51018963D01*
X70090000Y-50865091D01*
X70090000Y-48600000D01*
X70290000Y-48600000D01*
X70290000Y-50865091D01*
X70547665Y-51018963D01*
X70732102Y-50970060D01*
X71027989Y-50834133D01*
X71291673Y-50643093D01*
X71513020Y-50404282D01*
X71683524Y-50126877D01*
X71796633Y-49821538D01*
X71848000Y-49500000D01*
X71848000Y-48600000D01*
X70290000Y-48600000D01*
X70090000Y-48600000D01*
X68532000Y-48600000D01*
X59411667Y-48600000D01*
X59411667Y-47500000D01*
X68532000Y-47500000D01*
X68532000Y-48400000D01*
X70090000Y-48400000D01*
X70090000Y-46134909D01*
X70290000Y-46134909D01*
X70290000Y-48400000D01*
X71848000Y-48400000D01*
X71848000Y-47500000D01*
X71796633Y-47178462D01*
X71683524Y-46873123D01*
X71577116Y-46700000D01*
X72338333Y-46700000D01*
X72338333Y-50300000D01*
X72352968Y-50448594D01*
X72396311Y-50591477D01*
X72466697Y-50723160D01*
X72561420Y-50838580D01*
X72676840Y-50933303D01*
X72808523Y-51003689D01*
X72951406Y-51047032D01*
X73100000Y-51061667D01*
X74900000Y-51061667D01*
X75048594Y-51047032D01*
X75191477Y-51003689D01*
X75323160Y-50933303D01*
X75438580Y-50838580D01*
X75533303Y-50723160D01*
X75603689Y-50591477D01*
X75647032Y-50448594D01*
X75661667Y-50300000D01*
X75661667Y-48600000D01*
X84782000Y-48600000D01*
X84782000Y-49500000D01*
X84833367Y-49821538D01*
X84946476Y-50126877D01*
X85116980Y-50404282D01*
X85338327Y-50643093D01*
X85602011Y-50834133D01*
X85897898Y-50970060D01*
X86082335Y-51018963D01*
X86340000Y-50865091D01*
X86340000Y-48600000D01*
X86540000Y-48600000D01*
X86540000Y-50865091D01*
X86797665Y-51018963D01*
X86982102Y-50970060D01*
X87277989Y-50834133D01*
X87541673Y-50643093D01*
X87763020Y-50404282D01*
X87933524Y-50126877D01*
X88046633Y-49821538D01*
X88098000Y-49500000D01*
X88098000Y-48600000D01*
X86540000Y-48600000D01*
X86340000Y-48600000D01*
X84782000Y-48600000D01*
X75661667Y-48600000D01*
X75661667Y-47500000D01*
X84782000Y-47500000D01*
X84782000Y-48400000D01*
X86340000Y-48400000D01*
X86340000Y-46134909D01*
X86540000Y-46134909D01*
X86540000Y-48400000D01*
X88098000Y-48400000D01*
X88098000Y-47500000D01*
X88046633Y-47178462D01*
X87933524Y-46873123D01*
X87827116Y-46700000D01*
X88588333Y-46700000D01*
X88588333Y-50300000D01*
X88602968Y-50448594D01*
X88646311Y-50591477D01*
X88716697Y-50723160D01*
X88811420Y-50838580D01*
X88926840Y-50933303D01*
X89058523Y-51003689D01*
X89201406Y-51047032D01*
X89350000Y-51061667D01*
X91150000Y-51061667D01*
X91298594Y-51047032D01*
X91441477Y-51003689D01*
X91573160Y-50933303D01*
X91688580Y-50838580D01*
X91783303Y-50723160D01*
X91853689Y-50591477D01*
X91897032Y-50448594D01*
X91911667Y-50300000D01*
X91911667Y-48600000D01*
X101032000Y-48600000D01*
X101032000Y-49500000D01*
X101083367Y-49821538D01*
X101196476Y-50126877D01*
X101366980Y-50404282D01*
X101588327Y-50643093D01*
X101852011Y-50834133D01*
X102147898Y-50970060D01*
X102332335Y-51018963D01*
X102590000Y-50865091D01*
X102590000Y-48600000D01*
X102790000Y-48600000D01*
X102790000Y-50865091D01*
X103047665Y-51018963D01*
X103232102Y-50970060D01*
X103527989Y-50834133D01*
X103791673Y-50643093D01*
X104013020Y-50404282D01*
X104183524Y-50126877D01*
X104296633Y-49821538D01*
X104348000Y-49500000D01*
X104348000Y-48600000D01*
X102790000Y-48600000D01*
X102590000Y-48600000D01*
X101032000Y-48600000D01*
X91911667Y-48600000D01*
X91911667Y-47500000D01*
X101032000Y-47500000D01*
X101032000Y-48400000D01*
X102590000Y-48400000D01*
X102590000Y-46134909D01*
X102790000Y-46134909D01*
X102790000Y-48400000D01*
X104348000Y-48400000D01*
X104348000Y-47500000D01*
X104296633Y-47178462D01*
X104183524Y-46873123D01*
X104077116Y-46700000D01*
X104838333Y-46700000D01*
X104838333Y-50300000D01*
X104852968Y-50448594D01*
X104896311Y-50591477D01*
X104966697Y-50723160D01*
X105061420Y-50838580D01*
X105176840Y-50933303D01*
X105308523Y-51003689D01*
X105451406Y-51047032D01*
X105600000Y-51061667D01*
X107400000Y-51061667D01*
X107548594Y-51047032D01*
X107691477Y-51003689D01*
X107823160Y-50933303D01*
X107938580Y-50838580D01*
X108033303Y-50723160D01*
X108103689Y-50591477D01*
X108147032Y-50448594D01*
X108161667Y-50300000D01*
X108161667Y-46700000D01*
X108147032Y-46551406D01*
X108103689Y-46408523D01*
X108033303Y-46276840D01*
X107938580Y-46161420D01*
X107823160Y-46066697D01*
X107691477Y-45996311D01*
X107548594Y-45952968D01*
X107400000Y-45938333D01*
X105600000Y-45938333D01*
X105451406Y-45952968D01*
X105308523Y-45996311D01*
X105176840Y-46066697D01*
X105061420Y-46161420D01*
X104966697Y-46276840D01*
X104896311Y-46408523D01*
X104852968Y-46551406D01*
X104838333Y-46700000D01*
X104077116Y-46700000D01*
X104013020Y-46595718D01*
X103791673Y-46356907D01*
X103527989Y-46165867D01*
X103232102Y-46029940D01*
X103047665Y-45981037D01*
X102790000Y-46134909D01*
X102590000Y-46134909D01*
X102332335Y-45981037D01*
X102147898Y-46029940D01*
X101852011Y-46165867D01*
X101588327Y-46356907D01*
X101366980Y-46595718D01*
X101196476Y-46873123D01*
X101083367Y-47178462D01*
X101032000Y-47500000D01*
X91911667Y-47500000D01*
X91911667Y-46700000D01*
X91897032Y-46551406D01*
X91853689Y-46408523D01*
X91783303Y-46276840D01*
X91688580Y-46161420D01*
X91573160Y-46066697D01*
X91441477Y-45996311D01*
X91298594Y-45952968D01*
X91150000Y-45938333D01*
X89350000Y-45938333D01*
X89201406Y-45952968D01*
X89058523Y-45996311D01*
X88926840Y-46066697D01*
X88811420Y-46161420D01*
X88716697Y-46276840D01*
X88646311Y-46408523D01*
X88602968Y-46551406D01*
X88588333Y-46700000D01*
X87827116Y-46700000D01*
X87763020Y-46595718D01*
X87541673Y-46356907D01*
X87277989Y-46165867D01*
X86982102Y-46029940D01*
X86797665Y-45981037D01*
X86540000Y-46134909D01*
X86340000Y-46134909D01*
X86082335Y-45981037D01*
X85897898Y-46029940D01*
X85602011Y-46165867D01*
X85338327Y-46356907D01*
X85116980Y-46595718D01*
X84946476Y-46873123D01*
X84833367Y-47178462D01*
X84782000Y-47500000D01*
X75661667Y-47500000D01*
X75661667Y-46700000D01*
X75647032Y-46551406D01*
X75603689Y-46408523D01*
X75533303Y-46276840D01*
X75438580Y-46161420D01*
X75323160Y-46066697D01*
X75191477Y-45996311D01*
X75048594Y-45952968D01*
X74900000Y-45938333D01*
X73100000Y-45938333D01*
X72951406Y-45952968D01*
X72808523Y-45996311D01*
X72676840Y-46066697D01*
X72561420Y-46161420D01*
X72466697Y-46276840D01*
X72396311Y-46408523D01*
X72352968Y-46551406D01*
X72338333Y-46700000D01*
X71577116Y-46700000D01*
X71513020Y-46595718D01*
X71291673Y-46356907D01*
X71027989Y-46165867D01*
X70732102Y-46029940D01*
X70547665Y-45981037D01*
X70290000Y-46134909D01*
X70090000Y-46134909D01*
X69832335Y-45981037D01*
X69647898Y-46029940D01*
X69352011Y-46165867D01*
X69088327Y-46356907D01*
X68866980Y-46595718D01*
X68696476Y-46873123D01*
X68583367Y-47178462D01*
X68532000Y-47500000D01*
X59411667Y-47500000D01*
X59411667Y-46700000D01*
X59397032Y-46551406D01*
X59353689Y-46408523D01*
X59283303Y-46276840D01*
X59188580Y-46161420D01*
X59073160Y-46066697D01*
X58941477Y-45996311D01*
X58798594Y-45952968D01*
X58650000Y-45938333D01*
X56850000Y-45938333D01*
X56701406Y-45952968D01*
X56558523Y-45996311D01*
X56426840Y-46066697D01*
X56311420Y-46161420D01*
X56216697Y-46276840D01*
X56146311Y-46408523D01*
X56102968Y-46551406D01*
X56088333Y-46700000D01*
X55327116Y-46700000D01*
X55263020Y-46595718D01*
X55041673Y-46356907D01*
X54777989Y-46165867D01*
X54482102Y-46029940D01*
X54297665Y-45981037D01*
X54040000Y-46134909D01*
X53840000Y-46134909D01*
X53582335Y-45981037D01*
X53397898Y-46029940D01*
X53102011Y-46165867D01*
X52838327Y-46356907D01*
X52616980Y-46595718D01*
X52446476Y-46873123D01*
X52333367Y-47178462D01*
X52282000Y-47500000D01*
X43161667Y-47500000D01*
X43161667Y-46700000D01*
X43147032Y-46551406D01*
X43103689Y-46408523D01*
X43033303Y-46276840D01*
X42938580Y-46161420D01*
X42823160Y-46066697D01*
X42691477Y-45996311D01*
X42548594Y-45952968D01*
X42400000Y-45938333D01*
X40600000Y-45938333D01*
X40451406Y-45952968D01*
X40308523Y-45996311D01*
X40176840Y-46066697D01*
X40061420Y-46161420D01*
X39966697Y-46276840D01*
X39896311Y-46408523D01*
X39852968Y-46551406D01*
X39838333Y-46700000D01*
X39088927Y-46700000D01*
X39075247Y-46674408D01*
X38868055Y-46421945D01*
X38615592Y-46214753D01*
X38327559Y-46060796D01*
X38015025Y-45965990D01*
X37690000Y-45933978D01*
X37364976Y-45965990D01*
X37052442Y-46060796D01*
X36764409Y-46214753D01*
X36511946Y-46421945D01*
X36304754Y-46674408D01*
X36150797Y-46962441D01*
X36055991Y-47274975D01*
X36032000Y-47518551D01*
X35538000Y-47518551D01*
X35514010Y-47274975D01*
X35419204Y-46962441D01*
X35265247Y-46674408D01*
X35058055Y-46421945D01*
X34805592Y-46214753D01*
X34517559Y-46060796D01*
X34205025Y-45965990D01*
X33880000Y-45933978D01*
X33554976Y-45965990D01*
X33242442Y-46060796D01*
X32954409Y-46214753D01*
X32701946Y-46421945D01*
X32494754Y-46674408D01*
X32340797Y-46962441D01*
X32245991Y-47274975D01*
X32222000Y-47518551D01*
X31728000Y-47518551D01*
X31728000Y-47500000D01*
X31676633Y-47178462D01*
X31563524Y-46873123D01*
X31393020Y-46595718D01*
X31171673Y-46356907D01*
X30907989Y-46165867D01*
X30612102Y-46029940D01*
X30427665Y-45981037D01*
X30170000Y-46134909D01*
X29970000Y-46134909D01*
X29712335Y-45981037D01*
X29527898Y-46029940D01*
X29232011Y-46165867D01*
X28968327Y-46356907D01*
X28746980Y-46595718D01*
X28576476Y-46873123D01*
X28463367Y-47178462D01*
X28412000Y-47500000D01*
X21008000Y-47500000D01*
X21008000Y-41008000D01*
X118992001Y-41008000D01*
X118992000Y-88992000D01*
G36*
X25911525Y-59018158D02*
G01*
X25958238Y-59183183D01*
X25141421Y-60000000D01*
X25958071Y-60816650D01*
X25938675Y-60865403D01*
X25905257Y-61046679D01*
X25000000Y-60141421D01*
X24093722Y-61047700D01*
X24088475Y-60981842D01*
X24041762Y-60816817D01*
X24858579Y-60000000D01*
X24041929Y-59183350D01*
X24061325Y-59134597D01*
X24094743Y-58953321D01*
X25000000Y-59858579D01*
X25906278Y-58952300D01*
X25911525Y-59018158D01*
X25911525Y-59018158D01*
G37*
X25911525Y-59018158D02*
X25958238Y-59183183D01*
X25141421Y-60000000D01*
X25958071Y-60816650D01*
X25938675Y-60865403D01*
X25905257Y-61046679D01*
X25000000Y-60141421D01*
X24093722Y-61047700D01*
X24088475Y-60981842D01*
X24041762Y-60816817D01*
X24858579Y-60000000D01*
X24041929Y-59183350D01*
X24061325Y-59134597D01*
X24094743Y-58953321D01*
X25000000Y-59858579D01*
X25906278Y-58952300D01*
X25911525Y-59018158D01*
G36*
X115911525Y-59018158D02*
G01*
X115958238Y-59183183D01*
X115141421Y-60000000D01*
X115958071Y-60816650D01*
X115938675Y-60865403D01*
X115905257Y-61046679D01*
X115000000Y-60141421D01*
X114093722Y-61047700D01*
X114088475Y-60981842D01*
X114041762Y-60816817D01*
X114858579Y-60000000D01*
X114041929Y-59183350D01*
X114061325Y-59134597D01*
X114094743Y-58953321D01*
X115000000Y-59858579D01*
X115906278Y-58952300D01*
X115911525Y-59018158D01*
X115911525Y-59018158D01*
G37*
X115911525Y-59018158D02*
X115958238Y-59183183D01*
X115141421Y-60000000D01*
X115958071Y-60816650D01*
X115938675Y-60865403D01*
X115905257Y-61046679D01*
X115000000Y-60141421D01*
X114093722Y-61047700D01*
X114088475Y-60981842D01*
X114041762Y-60816817D01*
X114858579Y-60000000D01*
X114041929Y-59183350D01*
X114061325Y-59134597D01*
X114094743Y-58953321D01*
X115000000Y-59858579D01*
X115906278Y-58952300D01*
X115911525Y-59018158D01*
D25*
X38400000Y-59200000D03*
X41800000Y-59200000D03*
X45200000Y-59200000D03*
X59000000Y-71000000D03*
X74800000Y-74400000D03*
X77800000Y-73800000D03*
X77000000Y-51600000D03*
X77000000Y-61400000D03*
X81400000Y-70200000D03*
X87400000Y-64800000D03*
X90400000Y-64400000D03*
X97400000Y-59000000D03*
X97800000Y-56200000D03*
X93000000Y-74000000D03*
X102000004Y-69800000D03*
X69000000Y-75200000D03*
X32799984Y-60800000D03*
X76400000Y-64600000D03*
X103200000Y-68600014D03*
X65800000Y-67400006D03*
X68600000Y-65599990D03*
X80200000Y-70400000D03*
X88800000Y-67000000D03*
X60200000Y-66800000D03*
X67400000Y-71800000D03*
X36400000Y-63600000D03*
X46600000Y-63800000D03*
X58600000Y-78800000D03*
X69200000Y-77400000D03*
X84600000Y-79000000D03*
X87400000Y-78200000D03*
X87400000Y-77400000D03*
X87400000Y-76600000D03*
X83800000Y-79000000D03*
X83000000Y-79000000D03*
X70600000Y-65800000D03*
X80000000Y-65800000D03*
X93600000Y-72800000D03*
X96800000Y-73600000D03*
X74800000Y-70200000D03*
X70400000Y-70600000D03*
X93940000Y-82000000D03*
X91400000Y-82000000D03*
X74520000Y-82000000D03*
X71980000Y-82000000D03*
X57040000Y-82000000D03*
X54500000Y-82000000D03*
X27056810Y-58812500D03*
X27056810Y-61187500D03*
X25000000Y-62375000D03*
X22943190Y-61187500D03*
X22943190Y-58812500D03*
X25000000Y-57625000D03*
X25000000Y-60000000D03*
X117056810Y-58812500D03*
X117056810Y-61187500D03*
X115000000Y-62375000D03*
X112943190Y-61187500D03*
X112943190Y-58812500D03*
X115000000Y-57625000D03*
X115000000Y-60000000D03*
X83000000Y-62080000D03*
X83000000Y-59540000D03*
X83000000Y-57000000D03*
D26*
X113500000Y-86300000D03*
X113500000Y-80700000D03*
X115500000Y-77000000D03*
X115500000Y-82600000D03*
X115500000Y-88800000D03*
D25*
X102690000Y-48500000D03*
X106500000Y-48500000D03*
D26*
X99500000Y-86300000D03*
X99500000Y-80700000D03*
X101500000Y-77000000D03*
X101500000Y-82600000D03*
X101500000Y-88800000D03*
D25*
X86440000Y-48500000D03*
X90250000Y-48500000D03*
D26*
X80000000Y-86300000D03*
X80000000Y-80700000D03*
X82000000Y-77000000D03*
X82000000Y-82600000D03*
X82000000Y-88800000D03*
D25*
X70190000Y-48500000D03*
X74000000Y-48500000D03*
D26*
X62500000Y-86300000D03*
X62500000Y-80700000D03*
X64500000Y-77000000D03*
X64500000Y-82600000D03*
X64500000Y-88800000D03*
D25*
X53940000Y-48500000D03*
X57750000Y-48500000D03*
X40155000Y-75160000D03*
X37385000Y-75160000D03*
X34615000Y-75160000D03*
X31845000Y-75160000D03*
X41540000Y-72320000D03*
X38770000Y-72320000D03*
X33230000Y-72320000D03*
X30460000Y-72320000D03*
X36000000Y-72320000D03*
X40155000Y-81920000D03*
X37385000Y-81920000D03*
X34615000Y-81920000D03*
X31845000Y-81920000D03*
X41540000Y-79080000D03*
X38770000Y-79080000D03*
X33230000Y-79080000D03*
X30460000Y-79080000D03*
X36000000Y-79080000D03*
X48500000Y-73920000D03*
X23500000Y-73920000D03*
X23500000Y-81920000D03*
X48500000Y-81920000D03*
X30070000Y-48500000D03*
X33880000Y-48500000D03*
X37690000Y-48500000D03*
X41500000Y-48500000D03*
M02*
