%TF.GenerationSoftware,KiCad,Pcbnew,(5.1.4)-1*%
%TF.CreationDate,2020-11-06T00:28:36+08:00*%
%TF.ProjectId,interface,696e7465-7266-4616-9365-2e6b69636164,rev?*%
%TF.SameCoordinates,Original*%
%TF.FileFunction,Legend,Top*%
%TF.FilePolarity,Positive*%
%FSLAX46Y46*%
G04 Gerber Fmt 4.6, Leading zero omitted, Abs format (unit mm)*
G04 Created by KiCad (PCBNEW (5.1.4)-1) date 2020-11-06 00:28:36*
%MOMM*%
%LPD*%
G04 APERTURE LIST*
%ADD10C,0.200000*%
%ADD11C,0.254000*%
%ADD12C,0.120000*%
%ADD13C,0.250000*%
%ADD14C,0.300000*%
%ADD15C,0.400000*%
%ADD16C,0.150000*%
G04 APERTURE END LIST*
D10*
X64666666Y-70061904D02*
X64285714Y-70061904D01*
X64285714Y-69261904D01*
X65047619Y-70061904D02*
X64971428Y-70023809D01*
X64933333Y-69985714D01*
X64895238Y-69909523D01*
X64895238Y-69680952D01*
X64933333Y-69604761D01*
X64971428Y-69566666D01*
X65047619Y-69528571D01*
X65161904Y-69528571D01*
X65238095Y-69566666D01*
X65276190Y-69604761D01*
X65314285Y-69680952D01*
X65314285Y-69909523D01*
X65276190Y-69985714D01*
X65238095Y-70023809D01*
X65161904Y-70061904D01*
X65047619Y-70061904D01*
X65580952Y-69528571D02*
X65733333Y-70061904D01*
X65885714Y-69680952D01*
X66038095Y-70061904D01*
X66190476Y-69528571D01*
X64133333Y-70661904D02*
X64400000Y-71461904D01*
X64666666Y-70661904D01*
X65047619Y-71461904D02*
X64971428Y-71423809D01*
X64933333Y-71385714D01*
X64895238Y-71309523D01*
X64895238Y-71080952D01*
X64933333Y-71004761D01*
X64971428Y-70966666D01*
X65047619Y-70928571D01*
X65161904Y-70928571D01*
X65238095Y-70966666D01*
X65276190Y-71004761D01*
X65314285Y-71080952D01*
X65314285Y-71309523D01*
X65276190Y-71385714D01*
X65238095Y-71423809D01*
X65161904Y-71461904D01*
X65047619Y-71461904D01*
X65771428Y-71461904D02*
X65695238Y-71423809D01*
X65657142Y-71347619D01*
X65657142Y-70661904D01*
X65961904Y-70928571D02*
X66266666Y-70928571D01*
X66076190Y-70661904D02*
X66076190Y-71347619D01*
X66114285Y-71423809D01*
X66190476Y-71461904D01*
X66266666Y-71461904D01*
X42958571Y-53152380D02*
X43149047Y-53152380D01*
X43244285Y-53200000D01*
X43339523Y-53295238D01*
X43387142Y-53485714D01*
X43387142Y-53819047D01*
X43339523Y-54009523D01*
X43244285Y-54104761D01*
X43149047Y-54152380D01*
X42958571Y-54152380D01*
X42863333Y-54104761D01*
X42768095Y-54009523D01*
X42720476Y-53819047D01*
X42720476Y-53485714D01*
X42768095Y-53295238D01*
X42863333Y-53200000D01*
X42958571Y-53152380D01*
X43815714Y-54152380D02*
X43815714Y-53152380D01*
X44196666Y-53152380D01*
X44291904Y-53200000D01*
X44339523Y-53247619D01*
X44387142Y-53342857D01*
X44387142Y-53485714D01*
X44339523Y-53580952D01*
X44291904Y-53628571D01*
X44196666Y-53676190D01*
X43815714Y-53676190D01*
X44768095Y-53866666D02*
X45244285Y-53866666D01*
X44672857Y-54152380D02*
X45006190Y-53152380D01*
X45339523Y-54152380D01*
X46196666Y-54152380D02*
X45625238Y-54152380D01*
X45910952Y-54152380D02*
X45910952Y-53152380D01*
X45815714Y-53295238D01*
X45720476Y-53390476D01*
X45625238Y-53438095D01*
X46815714Y-53152380D02*
X46910952Y-53152380D01*
X47006190Y-53200000D01*
X47053809Y-53247619D01*
X47101428Y-53342857D01*
X47149047Y-53533333D01*
X47149047Y-53771428D01*
X47101428Y-53961904D01*
X47053809Y-54057142D01*
X47006190Y-54104761D01*
X46910952Y-54152380D01*
X46815714Y-54152380D01*
X46720476Y-54104761D01*
X46672857Y-54057142D01*
X46625238Y-53961904D01*
X46577619Y-53771428D01*
X46577619Y-53533333D01*
X46625238Y-53342857D01*
X46672857Y-53247619D01*
X46720476Y-53200000D01*
X46815714Y-53152380D01*
X47768095Y-53152380D02*
X47863333Y-53152380D01*
X47958571Y-53200000D01*
X48006190Y-53247619D01*
X48053809Y-53342857D01*
X48101428Y-53533333D01*
X48101428Y-53771428D01*
X48053809Y-53961904D01*
X48006190Y-54057142D01*
X47958571Y-54104761D01*
X47863333Y-54152380D01*
X47768095Y-54152380D01*
X47672857Y-54104761D01*
X47625238Y-54057142D01*
X47577619Y-53961904D01*
X47530000Y-53771428D01*
X47530000Y-53533333D01*
X47577619Y-53342857D01*
X47625238Y-53247619D01*
X47672857Y-53200000D01*
X47768095Y-53152380D01*
X48720476Y-53152380D02*
X48815714Y-53152380D01*
X48910952Y-53200000D01*
X48958571Y-53247619D01*
X49006190Y-53342857D01*
X49053809Y-53533333D01*
X49053809Y-53771428D01*
X49006190Y-53961904D01*
X48958571Y-54057142D01*
X48910952Y-54104761D01*
X48815714Y-54152380D01*
X48720476Y-54152380D01*
X48625238Y-54104761D01*
X48577619Y-54057142D01*
X48530000Y-53961904D01*
X48482380Y-53771428D01*
X48482380Y-53533333D01*
X48530000Y-53342857D01*
X48577619Y-53247619D01*
X48625238Y-53200000D01*
X48720476Y-53152380D01*
X50244285Y-54152380D02*
X50244285Y-53152380D01*
X50720476Y-53485714D02*
X50720476Y-54152380D01*
X50720476Y-53580952D02*
X50768095Y-53533333D01*
X50863333Y-53485714D01*
X51006190Y-53485714D01*
X51101428Y-53533333D01*
X51149047Y-53628571D01*
X51149047Y-54152380D01*
X51482380Y-53485714D02*
X51863333Y-53485714D01*
X51625238Y-53152380D02*
X51625238Y-54009523D01*
X51672857Y-54104761D01*
X51768095Y-54152380D01*
X51863333Y-54152380D01*
X52577619Y-54104761D02*
X52482380Y-54152380D01*
X52291904Y-54152380D01*
X52196666Y-54104761D01*
X52149047Y-54009523D01*
X52149047Y-53628571D01*
X52196666Y-53533333D01*
X52291904Y-53485714D01*
X52482380Y-53485714D01*
X52577619Y-53533333D01*
X52625238Y-53628571D01*
X52625238Y-53723809D01*
X52149047Y-53819047D01*
X53053809Y-54152380D02*
X53053809Y-53485714D01*
X53053809Y-53676190D02*
X53101428Y-53580952D01*
X53149047Y-53533333D01*
X53244285Y-53485714D01*
X53339523Y-53485714D01*
X53530000Y-53485714D02*
X53910952Y-53485714D01*
X53672857Y-54152380D02*
X53672857Y-53295238D01*
X53720476Y-53200000D01*
X53815714Y-53152380D01*
X53910952Y-53152380D01*
X54672857Y-54152380D02*
X54672857Y-53628571D01*
X54625238Y-53533333D01*
X54530000Y-53485714D01*
X54339523Y-53485714D01*
X54244285Y-53533333D01*
X54672857Y-54104761D02*
X54577619Y-54152380D01*
X54339523Y-54152380D01*
X54244285Y-54104761D01*
X54196666Y-54009523D01*
X54196666Y-53914285D01*
X54244285Y-53819047D01*
X54339523Y-53771428D01*
X54577619Y-53771428D01*
X54672857Y-53723809D01*
X55577619Y-54104761D02*
X55482380Y-54152380D01*
X55291904Y-54152380D01*
X55196666Y-54104761D01*
X55149047Y-54057142D01*
X55101428Y-53961904D01*
X55101428Y-53676190D01*
X55149047Y-53580952D01*
X55196666Y-53533333D01*
X55291904Y-53485714D01*
X55482380Y-53485714D01*
X55577619Y-53533333D01*
X56387142Y-54104761D02*
X56291904Y-54152380D01*
X56101428Y-54152380D01*
X56006190Y-54104761D01*
X55958571Y-54009523D01*
X55958571Y-53628571D01*
X56006190Y-53533333D01*
X56101428Y-53485714D01*
X56291904Y-53485714D01*
X56387142Y-53533333D01*
X56434761Y-53628571D01*
X56434761Y-53723809D01*
X55958571Y-53819047D01*
X57958571Y-53628571D02*
X58101428Y-53676190D01*
X58149047Y-53723809D01*
X58196666Y-53819047D01*
X58196666Y-53961904D01*
X58149047Y-54057142D01*
X58101428Y-54104761D01*
X58006190Y-54152380D01*
X57625238Y-54152380D01*
X57625238Y-53152380D01*
X57958571Y-53152380D01*
X58053809Y-53200000D01*
X58101428Y-53247619D01*
X58149047Y-53342857D01*
X58149047Y-53438095D01*
X58101428Y-53533333D01*
X58053809Y-53580952D01*
X57958571Y-53628571D01*
X57625238Y-53628571D01*
X58768095Y-54152380D02*
X58672857Y-54104761D01*
X58625238Y-54057142D01*
X58577619Y-53961904D01*
X58577619Y-53676190D01*
X58625238Y-53580952D01*
X58672857Y-53533333D01*
X58768095Y-53485714D01*
X58910952Y-53485714D01*
X59006190Y-53533333D01*
X59053809Y-53580952D01*
X59101428Y-53676190D01*
X59101428Y-53961904D01*
X59053809Y-54057142D01*
X59006190Y-54104761D01*
X58910952Y-54152380D01*
X58768095Y-54152380D01*
X59958571Y-54152380D02*
X59958571Y-53628571D01*
X59910952Y-53533333D01*
X59815714Y-53485714D01*
X59625238Y-53485714D01*
X59530000Y-53533333D01*
X59958571Y-54104761D02*
X59863333Y-54152380D01*
X59625238Y-54152380D01*
X59530000Y-54104761D01*
X59482380Y-54009523D01*
X59482380Y-53914285D01*
X59530000Y-53819047D01*
X59625238Y-53771428D01*
X59863333Y-53771428D01*
X59958571Y-53723809D01*
X60434761Y-54152380D02*
X60434761Y-53485714D01*
X60434761Y-53676190D02*
X60482380Y-53580952D01*
X60529999Y-53533333D01*
X60625238Y-53485714D01*
X60720476Y-53485714D01*
X61482380Y-54152380D02*
X61482380Y-53152380D01*
X61482380Y-54104761D02*
X61387142Y-54152380D01*
X61196666Y-54152380D01*
X61101428Y-54104761D01*
X61053809Y-54057142D01*
X61006190Y-53961904D01*
X61006190Y-53676190D01*
X61053809Y-53580952D01*
X61101428Y-53533333D01*
X61196666Y-53485714D01*
X61387142Y-53485714D01*
X61482380Y-53533333D01*
X42720476Y-54947619D02*
X42768095Y-54900000D01*
X42863333Y-54852380D01*
X43101428Y-54852380D01*
X43196666Y-54900000D01*
X43244285Y-54947619D01*
X43291904Y-55042857D01*
X43291904Y-55138095D01*
X43244285Y-55280952D01*
X42672857Y-55852380D01*
X43291904Y-55852380D01*
X43910952Y-54852380D02*
X44006190Y-54852380D01*
X44101428Y-54900000D01*
X44149047Y-54947619D01*
X44196666Y-55042857D01*
X44244285Y-55233333D01*
X44244285Y-55471428D01*
X44196666Y-55661904D01*
X44149047Y-55757142D01*
X44101428Y-55804761D01*
X44006190Y-55852380D01*
X43910952Y-55852380D01*
X43815714Y-55804761D01*
X43768095Y-55757142D01*
X43720476Y-55661904D01*
X43672857Y-55471428D01*
X43672857Y-55233333D01*
X43720476Y-55042857D01*
X43768095Y-54947619D01*
X43815714Y-54900000D01*
X43910952Y-54852380D01*
X44625238Y-54947619D02*
X44672857Y-54900000D01*
X44768095Y-54852380D01*
X45006190Y-54852380D01*
X45101428Y-54900000D01*
X45149047Y-54947619D01*
X45196666Y-55042857D01*
X45196666Y-55138095D01*
X45149047Y-55280952D01*
X44577619Y-55852380D01*
X45196666Y-55852380D01*
X45815714Y-54852380D02*
X45910952Y-54852380D01*
X46006190Y-54900000D01*
X46053809Y-54947619D01*
X46101428Y-55042857D01*
X46149047Y-55233333D01*
X46149047Y-55471428D01*
X46101428Y-55661904D01*
X46053809Y-55757142D01*
X46006190Y-55804761D01*
X45910952Y-55852380D01*
X45815714Y-55852380D01*
X45720476Y-55804761D01*
X45672857Y-55757142D01*
X45625238Y-55661904D01*
X45577619Y-55471428D01*
X45577619Y-55233333D01*
X45625238Y-55042857D01*
X45672857Y-54947619D01*
X45720476Y-54900000D01*
X45815714Y-54852380D01*
X46577619Y-55757142D02*
X46625238Y-55804761D01*
X46577619Y-55852380D01*
X46530000Y-55804761D01*
X46577619Y-55757142D01*
X46577619Y-55852380D01*
X47577619Y-55852380D02*
X47006190Y-55852380D01*
X47291904Y-55852380D02*
X47291904Y-54852380D01*
X47196666Y-54995238D01*
X47101428Y-55090476D01*
X47006190Y-55138095D01*
X48530000Y-55852380D02*
X47958571Y-55852380D01*
X48244285Y-55852380D02*
X48244285Y-54852380D01*
X48149047Y-54995238D01*
X48053809Y-55090476D01*
X47958571Y-55138095D01*
X48958571Y-55757142D02*
X49006190Y-55804761D01*
X48958571Y-55852380D01*
X48910952Y-55804761D01*
X48958571Y-55757142D01*
X48958571Y-55852380D01*
X49625238Y-54852380D02*
X49720476Y-54852380D01*
X49815714Y-54900000D01*
X49863333Y-54947619D01*
X49910952Y-55042857D01*
X49958571Y-55233333D01*
X49958571Y-55471428D01*
X49910952Y-55661904D01*
X49863333Y-55757142D01*
X49815714Y-55804761D01*
X49720476Y-55852380D01*
X49625238Y-55852380D01*
X49530000Y-55804761D01*
X49482380Y-55757142D01*
X49434761Y-55661904D01*
X49387142Y-55471428D01*
X49387142Y-55233333D01*
X49434761Y-55042857D01*
X49482380Y-54947619D01*
X49530000Y-54900000D01*
X49625238Y-54852380D01*
X50863333Y-54852380D02*
X50387142Y-54852380D01*
X50339523Y-55328571D01*
X50387142Y-55280952D01*
X50482380Y-55233333D01*
X50720476Y-55233333D01*
X50815714Y-55280952D01*
X50863333Y-55328571D01*
X50910952Y-55423809D01*
X50910952Y-55661904D01*
X50863333Y-55757142D01*
X50815714Y-55804761D01*
X50720476Y-55852380D01*
X50482380Y-55852380D01*
X50387142Y-55804761D01*
X50339523Y-55757142D01*
X43101428Y-57028571D02*
X43244285Y-57076190D01*
X43291904Y-57123809D01*
X43339523Y-57219047D01*
X43339523Y-57361904D01*
X43291904Y-57457142D01*
X43244285Y-57504761D01*
X43149047Y-57552380D01*
X42768095Y-57552380D01*
X42768095Y-56552380D01*
X43101428Y-56552380D01*
X43196666Y-56600000D01*
X43244285Y-56647619D01*
X43291904Y-56742857D01*
X43291904Y-56838095D01*
X43244285Y-56933333D01*
X43196666Y-56980952D01*
X43101428Y-57028571D01*
X42768095Y-57028571D01*
X43768095Y-57552380D02*
X43768095Y-56552380D01*
X44672857Y-56885714D02*
X44672857Y-57552380D01*
X44434761Y-56504761D02*
X44196666Y-57219047D01*
X44815714Y-57219047D01*
X45101428Y-56552380D02*
X45339523Y-57552380D01*
X45530000Y-56838095D01*
X45720476Y-57552380D01*
X45958571Y-56552380D01*
X46530000Y-56552380D02*
X46720476Y-56552380D01*
X46815714Y-56600000D01*
X46910952Y-56695238D01*
X46958571Y-56885714D01*
X46958571Y-57219047D01*
X46910952Y-57409523D01*
X46815714Y-57504761D01*
X46720476Y-57552380D01*
X46530000Y-57552380D01*
X46434761Y-57504761D01*
X46339523Y-57409523D01*
X46291904Y-57219047D01*
X46291904Y-56885714D01*
X46339523Y-56695238D01*
X46434761Y-56600000D01*
X46530000Y-56552380D01*
X47387142Y-57552380D02*
X47387142Y-56552380D01*
X47768095Y-56552380D01*
X47863333Y-56600000D01*
X47910952Y-56647619D01*
X47958571Y-56742857D01*
X47958571Y-56885714D01*
X47910952Y-56980952D01*
X47863333Y-57028571D01*
X47768095Y-57076190D01*
X47387142Y-57076190D01*
X21320476Y-67861904D02*
X21320476Y-68509523D01*
X21358571Y-68585714D01*
X21396666Y-68623809D01*
X21472857Y-68661904D01*
X21625238Y-68661904D01*
X21701428Y-68623809D01*
X21739523Y-68585714D01*
X21777619Y-68509523D01*
X21777619Y-67861904D01*
X22158571Y-68128571D02*
X22158571Y-68928571D01*
X22158571Y-68166666D02*
X22234761Y-68128571D01*
X22387142Y-68128571D01*
X22463333Y-68166666D01*
X22501428Y-68204761D01*
X22539523Y-68280952D01*
X22539523Y-68509523D01*
X22501428Y-68585714D01*
X22463333Y-68623809D01*
X22387142Y-68661904D01*
X22234761Y-68661904D01*
X22158571Y-68623809D01*
X22882380Y-68128571D02*
X22882380Y-68928571D01*
X22882380Y-68166666D02*
X22958571Y-68128571D01*
X23110952Y-68128571D01*
X23187142Y-68166666D01*
X23225238Y-68204761D01*
X23263333Y-68280952D01*
X23263333Y-68509523D01*
X23225238Y-68585714D01*
X23187142Y-68623809D01*
X23110952Y-68661904D01*
X22958571Y-68661904D01*
X22882380Y-68623809D01*
X23910952Y-68623809D02*
X23834761Y-68661904D01*
X23682380Y-68661904D01*
X23606190Y-68623809D01*
X23568095Y-68547619D01*
X23568095Y-68242857D01*
X23606190Y-68166666D01*
X23682380Y-68128571D01*
X23834761Y-68128571D01*
X23910952Y-68166666D01*
X23949047Y-68242857D01*
X23949047Y-68319047D01*
X23568095Y-68395238D01*
X24291904Y-68661904D02*
X24291904Y-68128571D01*
X24291904Y-68280952D02*
X24330000Y-68204761D01*
X24368095Y-68166666D01*
X24444285Y-68128571D01*
X24520476Y-68128571D01*
X24787142Y-68585714D02*
X24825238Y-68623809D01*
X24787142Y-68661904D01*
X24749047Y-68623809D01*
X24787142Y-68585714D01*
X24787142Y-68661904D01*
X24787142Y-68166666D02*
X24825238Y-68204761D01*
X24787142Y-68242857D01*
X24749047Y-68204761D01*
X24787142Y-68166666D01*
X24787142Y-68242857D01*
X26234761Y-68585714D02*
X26196666Y-68623809D01*
X26082380Y-68661904D01*
X26006190Y-68661904D01*
X25891904Y-68623809D01*
X25815714Y-68547619D01*
X25777619Y-68471428D01*
X25739523Y-68319047D01*
X25739523Y-68204761D01*
X25777619Y-68052380D01*
X25815714Y-67976190D01*
X25891904Y-67900000D01*
X26006190Y-67861904D01*
X26082380Y-67861904D01*
X26196666Y-67900000D01*
X26234761Y-67938095D01*
X26691904Y-68661904D02*
X26615714Y-68623809D01*
X26577619Y-68585714D01*
X26539523Y-68509523D01*
X26539523Y-68280952D01*
X26577619Y-68204761D01*
X26615714Y-68166666D01*
X26691904Y-68128571D01*
X26806190Y-68128571D01*
X26882380Y-68166666D01*
X26920476Y-68204761D01*
X26958571Y-68280952D01*
X26958571Y-68509523D01*
X26920476Y-68585714D01*
X26882380Y-68623809D01*
X26806190Y-68661904D01*
X26691904Y-68661904D01*
X27301428Y-68661904D02*
X27301428Y-68128571D01*
X27301428Y-68204761D02*
X27339523Y-68166666D01*
X27415714Y-68128571D01*
X27530000Y-68128571D01*
X27606190Y-68166666D01*
X27644285Y-68242857D01*
X27644285Y-68661904D01*
X27644285Y-68242857D02*
X27682380Y-68166666D01*
X27758571Y-68128571D01*
X27872857Y-68128571D01*
X27949047Y-68166666D01*
X27987142Y-68242857D01*
X27987142Y-68661904D01*
X28368095Y-68128571D02*
X28368095Y-68928571D01*
X28368095Y-68166666D02*
X28444285Y-68128571D01*
X28596666Y-68128571D01*
X28672857Y-68166666D01*
X28710952Y-68204761D01*
X28749047Y-68280952D01*
X28749047Y-68509523D01*
X28710952Y-68585714D01*
X28672857Y-68623809D01*
X28596666Y-68661904D01*
X28444285Y-68661904D01*
X28368095Y-68623809D01*
X29434761Y-68128571D02*
X29434761Y-68661904D01*
X29091904Y-68128571D02*
X29091904Y-68547619D01*
X29130000Y-68623809D01*
X29206190Y-68661904D01*
X29320476Y-68661904D01*
X29396666Y-68623809D01*
X29434761Y-68585714D01*
X29701428Y-68128571D02*
X30006190Y-68128571D01*
X29815714Y-67861904D02*
X29815714Y-68547619D01*
X29853809Y-68623809D01*
X29930000Y-68661904D01*
X30006190Y-68661904D01*
X30577619Y-68623809D02*
X30501428Y-68661904D01*
X30349047Y-68661904D01*
X30272857Y-68623809D01*
X30234761Y-68547619D01*
X30234761Y-68242857D01*
X30272857Y-68166666D01*
X30349047Y-68128571D01*
X30501428Y-68128571D01*
X30577619Y-68166666D01*
X30615714Y-68242857D01*
X30615714Y-68319047D01*
X30234761Y-68395238D01*
X30958571Y-68661904D02*
X30958571Y-68128571D01*
X30958571Y-68280952D02*
X30996666Y-68204761D01*
X31034761Y-68166666D01*
X31110952Y-68128571D01*
X31187142Y-68128571D01*
X21701428Y-70061904D02*
X21320476Y-70061904D01*
X21320476Y-69261904D01*
X22082380Y-70061904D02*
X22006190Y-70023809D01*
X21968095Y-69985714D01*
X21930000Y-69909523D01*
X21930000Y-69680952D01*
X21968095Y-69604761D01*
X22006190Y-69566666D01*
X22082380Y-69528571D01*
X22196666Y-69528571D01*
X22272857Y-69566666D01*
X22310952Y-69604761D01*
X22349047Y-69680952D01*
X22349047Y-69909523D01*
X22310952Y-69985714D01*
X22272857Y-70023809D01*
X22196666Y-70061904D01*
X22082380Y-70061904D01*
X22615714Y-69528571D02*
X22768095Y-70061904D01*
X22920476Y-69680952D01*
X23072857Y-70061904D01*
X23225238Y-69528571D01*
X23834761Y-70023809D02*
X23758571Y-70061904D01*
X23606190Y-70061904D01*
X23530000Y-70023809D01*
X23491904Y-69947619D01*
X23491904Y-69642857D01*
X23530000Y-69566666D01*
X23606190Y-69528571D01*
X23758571Y-69528571D01*
X23834761Y-69566666D01*
X23872857Y-69642857D01*
X23872857Y-69719047D01*
X23491904Y-69795238D01*
X24215714Y-70061904D02*
X24215714Y-69528571D01*
X24215714Y-69680952D02*
X24253809Y-69604761D01*
X24291904Y-69566666D01*
X24368095Y-69528571D01*
X24444285Y-69528571D01*
X24710952Y-69985714D02*
X24749047Y-70023809D01*
X24710952Y-70061904D01*
X24672857Y-70023809D01*
X24710952Y-69985714D01*
X24710952Y-70061904D01*
X24710952Y-69566666D02*
X24749047Y-69604761D01*
X24710952Y-69642857D01*
X24672857Y-69604761D01*
X24710952Y-69566666D01*
X24710952Y-69642857D01*
X25853809Y-69680952D02*
X25853809Y-70061904D01*
X25587142Y-69261904D02*
X25853809Y-69680952D01*
X26120476Y-69261904D01*
X26730000Y-70061904D02*
X26730000Y-69642857D01*
X26691904Y-69566666D01*
X26615714Y-69528571D01*
X26463333Y-69528571D01*
X26387142Y-69566666D01*
X26730000Y-70023809D02*
X26653809Y-70061904D01*
X26463333Y-70061904D01*
X26387142Y-70023809D01*
X26349047Y-69947619D01*
X26349047Y-69871428D01*
X26387142Y-69795238D01*
X26463333Y-69757142D01*
X26653809Y-69757142D01*
X26730000Y-69719047D01*
X27415714Y-70023809D02*
X27339523Y-70061904D01*
X27187142Y-70061904D01*
X27110952Y-70023809D01*
X27072857Y-69947619D01*
X27072857Y-69642857D01*
X27110952Y-69566666D01*
X27187142Y-69528571D01*
X27339523Y-69528571D01*
X27415714Y-69566666D01*
X27453809Y-69642857D01*
X27453809Y-69719047D01*
X27072857Y-69795238D01*
X27758571Y-70023809D02*
X27834761Y-70061904D01*
X27987142Y-70061904D01*
X28063333Y-70023809D01*
X28101428Y-69947619D01*
X28101428Y-69909523D01*
X28063333Y-69833333D01*
X27987142Y-69795238D01*
X27872857Y-69795238D01*
X27796666Y-69757142D01*
X27758571Y-69680952D01*
X27758571Y-69642857D01*
X27796666Y-69566666D01*
X27872857Y-69528571D01*
X27987142Y-69528571D01*
X28063333Y-69566666D01*
X28787142Y-69528571D02*
X28787142Y-70061904D01*
X28444285Y-69528571D02*
X28444285Y-69947619D01*
X28482380Y-70023809D01*
X28558571Y-70061904D01*
X28672857Y-70061904D01*
X28749047Y-70023809D01*
X28787142Y-69985714D01*
X30044285Y-69642857D02*
X30158571Y-69680952D01*
X30196666Y-69719047D01*
X30234761Y-69795238D01*
X30234761Y-69909523D01*
X30196666Y-69985714D01*
X30158571Y-70023809D01*
X30082380Y-70061904D01*
X29777619Y-70061904D01*
X29777619Y-69261904D01*
X30044285Y-69261904D01*
X30120476Y-69300000D01*
X30158571Y-69338095D01*
X30196666Y-69414285D01*
X30196666Y-69490476D01*
X30158571Y-69566666D01*
X30120476Y-69604761D01*
X30044285Y-69642857D01*
X29777619Y-69642857D01*
X30920476Y-70061904D02*
X30920476Y-69642857D01*
X30882380Y-69566666D01*
X30806190Y-69528571D01*
X30653809Y-69528571D01*
X30577619Y-69566666D01*
X30920476Y-70023809D02*
X30844285Y-70061904D01*
X30653809Y-70061904D01*
X30577619Y-70023809D01*
X30539523Y-69947619D01*
X30539523Y-69871428D01*
X30577619Y-69795238D01*
X30653809Y-69757142D01*
X30844285Y-69757142D01*
X30920476Y-69719047D01*
X31301428Y-69528571D02*
X31301428Y-70061904D01*
X31301428Y-69604761D02*
X31339523Y-69566666D01*
X31415714Y-69528571D01*
X31530000Y-69528571D01*
X31606190Y-69566666D01*
X31644285Y-69642857D01*
X31644285Y-70061904D01*
X32368095Y-70061904D02*
X32368095Y-69261904D01*
X32368095Y-70023809D02*
X32291904Y-70061904D01*
X32139523Y-70061904D01*
X32063333Y-70023809D01*
X32025238Y-69985714D01*
X31987142Y-69909523D01*
X31987142Y-69680952D01*
X32025238Y-69604761D01*
X32063333Y-69566666D01*
X32139523Y-69528571D01*
X32291904Y-69528571D01*
X32368095Y-69566666D01*
X33815714Y-69985714D02*
X33777619Y-70023809D01*
X33663333Y-70061904D01*
X33587142Y-70061904D01*
X33472857Y-70023809D01*
X33396666Y-69947619D01*
X33358571Y-69871428D01*
X33320476Y-69719047D01*
X33320476Y-69604761D01*
X33358571Y-69452380D01*
X33396666Y-69376190D01*
X33472857Y-69300000D01*
X33587142Y-69261904D01*
X33663333Y-69261904D01*
X33777619Y-69300000D01*
X33815714Y-69338095D01*
X34120476Y-69833333D02*
X34501428Y-69833333D01*
X34044285Y-70061904D02*
X34310952Y-69261904D01*
X34577619Y-70061904D01*
X34730000Y-69261904D02*
X35187142Y-69261904D01*
X34958571Y-70061904D02*
X34958571Y-69261904D01*
X110761904Y-88666666D02*
X109961904Y-88666666D01*
X109961904Y-88361904D01*
X110000000Y-88285714D01*
X110038095Y-88247619D01*
X110114285Y-88209523D01*
X110228571Y-88209523D01*
X110304761Y-88247619D01*
X110342857Y-88285714D01*
X110380952Y-88361904D01*
X110380952Y-88666666D01*
X109961904Y-87980952D02*
X109961904Y-87523809D01*
X110761904Y-87752380D02*
X109961904Y-87752380D01*
X109961904Y-87371428D02*
X109961904Y-86914285D01*
X110761904Y-87142857D02*
X109961904Y-87142857D01*
X109961904Y-85885714D02*
X109961904Y-85733333D01*
X110000000Y-85657142D01*
X110076190Y-85580952D01*
X110228571Y-85542857D01*
X110495238Y-85542857D01*
X110647619Y-85580952D01*
X110723809Y-85657142D01*
X110761904Y-85733333D01*
X110761904Y-85885714D01*
X110723809Y-85961904D01*
X110647619Y-86038095D01*
X110495238Y-86076190D01*
X110228571Y-86076190D01*
X110076190Y-86038095D01*
X110000000Y-85961904D01*
X109961904Y-85885714D01*
X109961904Y-85200000D02*
X110609523Y-85200000D01*
X110685714Y-85161904D01*
X110723809Y-85123809D01*
X110761904Y-85047619D01*
X110761904Y-84895238D01*
X110723809Y-84819047D01*
X110685714Y-84780952D01*
X110609523Y-84742857D01*
X109961904Y-84742857D01*
X109961904Y-84476190D02*
X109961904Y-84019047D01*
X110761904Y-84247619D02*
X109961904Y-84247619D01*
X96561904Y-87819047D02*
X95761904Y-87819047D01*
X95761904Y-87514285D01*
X95800000Y-87438095D01*
X95838095Y-87400000D01*
X95914285Y-87361904D01*
X96028571Y-87361904D01*
X96104761Y-87400000D01*
X96142857Y-87438095D01*
X96180952Y-87514285D01*
X96180952Y-87819047D01*
X95761904Y-87133333D02*
X95761904Y-86676190D01*
X96561904Y-86904761D02*
X95761904Y-86904761D01*
X95761904Y-86523809D02*
X95761904Y-86066666D01*
X96561904Y-86295238D02*
X95761904Y-86295238D01*
X76933333Y-87914285D02*
X76933333Y-87533333D01*
X77161904Y-87990476D02*
X76361904Y-87723809D01*
X77161904Y-87457142D01*
X77161904Y-86809523D02*
X77161904Y-87190476D01*
X76361904Y-87190476D01*
X77085714Y-86085714D02*
X77123809Y-86123809D01*
X77161904Y-86238095D01*
X77161904Y-86314285D01*
X77123809Y-86428571D01*
X77047619Y-86504761D01*
X76971428Y-86542857D01*
X76819047Y-86580952D01*
X76704761Y-86580952D01*
X76552380Y-86542857D01*
X76476190Y-86504761D01*
X76400000Y-86428571D01*
X76361904Y-86314285D01*
X76361904Y-86238095D01*
X76400000Y-86123809D01*
X76438095Y-86085714D01*
X59685714Y-87980952D02*
X59723809Y-88019047D01*
X59761904Y-88133333D01*
X59761904Y-88209523D01*
X59723809Y-88323809D01*
X59647619Y-88400000D01*
X59571428Y-88438095D01*
X59419047Y-88476190D01*
X59304761Y-88476190D01*
X59152380Y-88438095D01*
X59076190Y-88400000D01*
X59000000Y-88323809D01*
X58961904Y-88209523D01*
X58961904Y-88133333D01*
X59000000Y-88019047D01*
X59038095Y-87980952D01*
X59761904Y-87638095D02*
X58961904Y-87638095D01*
X59457142Y-87257142D02*
X59457142Y-86647619D01*
X58961904Y-86380952D02*
X59761904Y-86114285D01*
X58961904Y-85847619D01*
X79333333Y-59933333D02*
X79333333Y-59552380D01*
X79561904Y-60009523D02*
X78761904Y-59742857D01*
X79561904Y-59476190D01*
X79561904Y-58828571D02*
X79561904Y-59209523D01*
X78761904Y-59209523D01*
X79485714Y-58104761D02*
X79523809Y-58142857D01*
X79561904Y-58257142D01*
X79561904Y-58333333D01*
X79523809Y-58447619D01*
X79447619Y-58523809D01*
X79371428Y-58561904D01*
X79219047Y-58600000D01*
X79104761Y-58600000D01*
X78952380Y-58561904D01*
X78876190Y-58523809D01*
X78800000Y-58447619D01*
X78761904Y-58333333D01*
X78761904Y-58257142D01*
X78800000Y-58142857D01*
X78838095Y-58104761D01*
X79561904Y-56809523D02*
X79142857Y-56809523D01*
X79066666Y-56847619D01*
X79028571Y-56923809D01*
X79028571Y-57076190D01*
X79066666Y-57152380D01*
X79523809Y-56809523D02*
X79561904Y-56885714D01*
X79561904Y-57076190D01*
X79523809Y-57152380D01*
X79447619Y-57190476D01*
X79371428Y-57190476D01*
X79295238Y-57152380D01*
X79257142Y-57076190D01*
X79257142Y-56885714D01*
X79219047Y-56809523D01*
X79561904Y-56085714D02*
X78761904Y-56085714D01*
X79523809Y-56085714D02*
X79561904Y-56161904D01*
X79561904Y-56314285D01*
X79523809Y-56390476D01*
X79485714Y-56428571D01*
X79409523Y-56466666D01*
X79180952Y-56466666D01*
X79104761Y-56428571D01*
X79066666Y-56390476D01*
X79028571Y-56314285D01*
X79028571Y-56161904D01*
X79066666Y-56085714D01*
X79028571Y-55704761D02*
X79714285Y-55704761D01*
X79790476Y-55742857D01*
X79828571Y-55819047D01*
X79828571Y-55857142D01*
X78761904Y-55704761D02*
X78800000Y-55742857D01*
X78838095Y-55704761D01*
X78800000Y-55666666D01*
X78761904Y-55704761D01*
X78838095Y-55704761D01*
X98161904Y-46800000D02*
X98161904Y-47180952D01*
X98542857Y-47219047D01*
X98504761Y-47180952D01*
X98466666Y-47104761D01*
X98466666Y-46914285D01*
X98504761Y-46838095D01*
X98542857Y-46800000D01*
X98619047Y-46761904D01*
X98809523Y-46761904D01*
X98885714Y-46800000D01*
X98923809Y-46838095D01*
X98961904Y-46914285D01*
X98961904Y-47104761D01*
X98923809Y-47180952D01*
X98885714Y-47219047D01*
X98161904Y-46533333D02*
X98961904Y-46266666D01*
X98161904Y-46000000D01*
X98161904Y-45238095D02*
X98961904Y-44971428D01*
X98161904Y-44704761D01*
X98961904Y-44438095D02*
X98161904Y-44438095D01*
X98161904Y-44247619D01*
X98200000Y-44133333D01*
X98276190Y-44057142D01*
X98352380Y-44019047D01*
X98504761Y-43980952D01*
X98619047Y-43980952D01*
X98771428Y-44019047D01*
X98847619Y-44057142D01*
X98923809Y-44133333D01*
X98961904Y-44247619D01*
X98961904Y-44438095D01*
X98885714Y-43180952D02*
X98923809Y-43219047D01*
X98961904Y-43333333D01*
X98961904Y-43409523D01*
X98923809Y-43523809D01*
X98847619Y-43600000D01*
X98771428Y-43638095D01*
X98619047Y-43676190D01*
X98504761Y-43676190D01*
X98352380Y-43638095D01*
X98276190Y-43600000D01*
X98200000Y-43523809D01*
X98161904Y-43409523D01*
X98161904Y-43333333D01*
X98200000Y-43219047D01*
X98238095Y-43180952D01*
X81042857Y-47647619D02*
X81042857Y-47380952D01*
X81461904Y-47266666D02*
X81461904Y-47647619D01*
X80661904Y-47647619D01*
X80661904Y-47266666D01*
X81461904Y-47000000D02*
X80928571Y-46580952D01*
X80928571Y-47000000D02*
X81461904Y-46580952D01*
X80928571Y-46390476D02*
X80928571Y-46085714D01*
X80661904Y-46276190D02*
X81347619Y-46276190D01*
X81423809Y-46238095D01*
X81461904Y-46161904D01*
X81461904Y-46085714D01*
X81423809Y-45514285D02*
X81461904Y-45590476D01*
X81461904Y-45742857D01*
X81423809Y-45819047D01*
X81347619Y-45857142D01*
X81042857Y-45857142D01*
X80966666Y-45819047D01*
X80928571Y-45742857D01*
X80928571Y-45590476D01*
X80966666Y-45514285D01*
X81042857Y-45476190D01*
X81119047Y-45476190D01*
X81195238Y-45857142D01*
X81461904Y-45133333D02*
X80928571Y-45133333D01*
X81080952Y-45133333D02*
X81004761Y-45095238D01*
X80966666Y-45057142D01*
X80928571Y-44980952D01*
X80928571Y-44904761D01*
X80928571Y-44638095D02*
X81461904Y-44638095D01*
X81004761Y-44638095D02*
X80966666Y-44600000D01*
X80928571Y-44523809D01*
X80928571Y-44409523D01*
X80966666Y-44333333D01*
X81042857Y-44295238D01*
X81461904Y-44295238D01*
X81461904Y-43571428D02*
X81042857Y-43571428D01*
X80966666Y-43609523D01*
X80928571Y-43685714D01*
X80928571Y-43838095D01*
X80966666Y-43914285D01*
X81423809Y-43571428D02*
X81461904Y-43647619D01*
X81461904Y-43838095D01*
X81423809Y-43914285D01*
X81347619Y-43952380D01*
X81271428Y-43952380D01*
X81195238Y-43914285D01*
X81157142Y-43838095D01*
X81157142Y-43647619D01*
X81119047Y-43571428D01*
X81461904Y-43076190D02*
X81423809Y-43152380D01*
X81347619Y-43190476D01*
X80661904Y-43190476D01*
X82633333Y-47723809D02*
X82633333Y-47342857D01*
X82861904Y-47800000D02*
X82061904Y-47533333D01*
X82861904Y-47266666D01*
X82861904Y-46619047D02*
X82861904Y-47000000D01*
X82061904Y-47000000D01*
X82785714Y-45895238D02*
X82823809Y-45933333D01*
X82861904Y-46047619D01*
X82861904Y-46123809D01*
X82823809Y-46238095D01*
X82747619Y-46314285D01*
X82671428Y-46352380D01*
X82519047Y-46390476D01*
X82404761Y-46390476D01*
X82252380Y-46352380D01*
X82176190Y-46314285D01*
X82100000Y-46238095D01*
X82061904Y-46123809D01*
X82061904Y-46047619D01*
X82100000Y-45933333D01*
X82138095Y-45895238D01*
X82061904Y-45057142D02*
X82061904Y-44600000D01*
X82861904Y-44828571D02*
X82061904Y-44828571D01*
X82861904Y-44333333D02*
X82328571Y-44333333D01*
X82480952Y-44333333D02*
X82404761Y-44295238D01*
X82366666Y-44257142D01*
X82328571Y-44180952D01*
X82328571Y-44104761D01*
X82861904Y-43838095D02*
X82328571Y-43838095D01*
X82061904Y-43838095D02*
X82100000Y-43876190D01*
X82138095Y-43838095D01*
X82100000Y-43800000D01*
X82061904Y-43838095D01*
X82138095Y-43838095D01*
X82328571Y-43114285D02*
X82976190Y-43114285D01*
X83052380Y-43152380D01*
X83090476Y-43190476D01*
X83128571Y-43266666D01*
X83128571Y-43380952D01*
X83090476Y-43457142D01*
X82823809Y-43114285D02*
X82861904Y-43190476D01*
X82861904Y-43342857D01*
X82823809Y-43419047D01*
X82785714Y-43457142D01*
X82709523Y-43495238D01*
X82480952Y-43495238D01*
X82404761Y-43457142D01*
X82366666Y-43419047D01*
X82328571Y-43342857D01*
X82328571Y-43190476D01*
X82366666Y-43114285D01*
X66361904Y-47552380D02*
X65980952Y-47819047D01*
X66361904Y-48009523D02*
X65561904Y-48009523D01*
X65561904Y-47704761D01*
X65600000Y-47628571D01*
X65638095Y-47590476D01*
X65714285Y-47552380D01*
X65828571Y-47552380D01*
X65904761Y-47590476D01*
X65942857Y-47628571D01*
X65980952Y-47704761D01*
X65980952Y-48009523D01*
X65942857Y-46942857D02*
X65942857Y-47209523D01*
X66361904Y-47209523D02*
X65561904Y-47209523D01*
X65561904Y-46828571D01*
X66323809Y-45952380D02*
X66361904Y-45838095D01*
X66361904Y-45647619D01*
X66323809Y-45571428D01*
X66285714Y-45533333D01*
X66209523Y-45495238D01*
X66133333Y-45495238D01*
X66057142Y-45533333D01*
X66019047Y-45571428D01*
X65980952Y-45647619D01*
X65942857Y-45800000D01*
X65904761Y-45876190D01*
X65866666Y-45914285D01*
X65790476Y-45952380D01*
X65714285Y-45952380D01*
X65638095Y-45914285D01*
X65600000Y-45876190D01*
X65561904Y-45800000D01*
X65561904Y-45609523D01*
X65600000Y-45495238D01*
X66323809Y-44847619D02*
X66361904Y-44923809D01*
X66361904Y-45076190D01*
X66323809Y-45152380D01*
X66247619Y-45190476D01*
X65942857Y-45190476D01*
X65866666Y-45152380D01*
X65828571Y-45076190D01*
X65828571Y-44923809D01*
X65866666Y-44847619D01*
X65942857Y-44809523D01*
X66019047Y-44809523D01*
X66095238Y-45190476D01*
X65828571Y-44466666D02*
X66361904Y-44466666D01*
X65904761Y-44466666D02*
X65866666Y-44428571D01*
X65828571Y-44352380D01*
X65828571Y-44238095D01*
X65866666Y-44161904D01*
X65942857Y-44123809D01*
X66361904Y-44123809D01*
X66323809Y-43780952D02*
X66361904Y-43704761D01*
X66361904Y-43552380D01*
X66323809Y-43476190D01*
X66247619Y-43438095D01*
X66209523Y-43438095D01*
X66133333Y-43476190D01*
X66095238Y-43552380D01*
X66095238Y-43666666D01*
X66057142Y-43742857D01*
X65980952Y-43780952D01*
X65942857Y-43780952D01*
X65866666Y-43742857D01*
X65828571Y-43666666D01*
X65828571Y-43552380D01*
X65866666Y-43476190D01*
X66323809Y-42790476D02*
X66361904Y-42866666D01*
X66361904Y-43019047D01*
X66323809Y-43095238D01*
X66247619Y-43133333D01*
X65942857Y-43133333D01*
X65866666Y-43095238D01*
X65828571Y-43019047D01*
X65828571Y-42866666D01*
X65866666Y-42790476D01*
X65942857Y-42752380D01*
X66019047Y-42752380D01*
X66095238Y-43133333D01*
X49742857Y-48238095D02*
X49780952Y-48123809D01*
X49819047Y-48085714D01*
X49895238Y-48047619D01*
X50009523Y-48047619D01*
X50085714Y-48085714D01*
X50123809Y-48123809D01*
X50161904Y-48200000D01*
X50161904Y-48504761D01*
X49361904Y-48504761D01*
X49361904Y-48238095D01*
X49400000Y-48161904D01*
X49438095Y-48123809D01*
X49514285Y-48085714D01*
X49590476Y-48085714D01*
X49666666Y-48123809D01*
X49704761Y-48161904D01*
X49742857Y-48238095D01*
X49742857Y-48504761D01*
X49933333Y-47742857D02*
X49933333Y-47361904D01*
X50161904Y-47819047D02*
X49361904Y-47552380D01*
X50161904Y-47285714D01*
X50161904Y-47019047D02*
X49361904Y-47019047D01*
X50161904Y-46561904D01*
X49361904Y-46561904D01*
X50161904Y-46180952D02*
X49361904Y-46180952D01*
X49361904Y-45990476D01*
X49400000Y-45876190D01*
X49476190Y-45800000D01*
X49552380Y-45761904D01*
X49704761Y-45723809D01*
X49819047Y-45723809D01*
X49971428Y-45761904D01*
X50047619Y-45800000D01*
X50123809Y-45876190D01*
X50161904Y-45990476D01*
X50161904Y-46180952D01*
X50085714Y-44314285D02*
X50123809Y-44352380D01*
X50161904Y-44466666D01*
X50161904Y-44542857D01*
X50123809Y-44657142D01*
X50047619Y-44733333D01*
X49971428Y-44771428D01*
X49819047Y-44809523D01*
X49704761Y-44809523D01*
X49552380Y-44771428D01*
X49476190Y-44733333D01*
X49400000Y-44657142D01*
X49361904Y-44542857D01*
X49361904Y-44466666D01*
X49400000Y-44352380D01*
X49438095Y-44314285D01*
X50161904Y-43971428D02*
X49361904Y-43971428D01*
X49857142Y-43590476D02*
X49857142Y-42980952D01*
X49361904Y-42714285D02*
X50161904Y-42447619D01*
X49361904Y-42180952D01*
X41161904Y-52361904D02*
X40895238Y-51980952D01*
X40704761Y-52361904D02*
X40704761Y-51561904D01*
X41009523Y-51561904D01*
X41085714Y-51600000D01*
X41123809Y-51638095D01*
X41161904Y-51714285D01*
X41161904Y-51828571D01*
X41123809Y-51904761D01*
X41085714Y-51942857D01*
X41009523Y-51980952D01*
X40704761Y-51980952D01*
X41390476Y-51561904D02*
X41847619Y-51561904D01*
X41619047Y-52361904D02*
X41619047Y-51561904D01*
X42076190Y-52323809D02*
X42190476Y-52361904D01*
X42380952Y-52361904D01*
X42457142Y-52323809D01*
X42495238Y-52285714D01*
X42533333Y-52209523D01*
X42533333Y-52133333D01*
X42495238Y-52057142D01*
X42457142Y-52019047D01*
X42380952Y-51980952D01*
X42228571Y-51942857D01*
X42152380Y-51904761D01*
X42114285Y-51866666D01*
X42076190Y-51790476D01*
X42076190Y-51714285D01*
X42114285Y-51638095D01*
X42152380Y-51600000D01*
X42228571Y-51561904D01*
X42419047Y-51561904D01*
X42533333Y-51600000D01*
X36091505Y-54912555D02*
X36091505Y-54966430D01*
X36037630Y-55074179D01*
X35983755Y-55128054D01*
X35876006Y-55181929D01*
X35768256Y-55181929D01*
X35687444Y-55154992D01*
X35552757Y-55074179D01*
X35471945Y-54993367D01*
X35391133Y-54858680D01*
X35364195Y-54777868D01*
X35364195Y-54670118D01*
X35418070Y-54562369D01*
X35471945Y-54508494D01*
X35579694Y-54454619D01*
X35633569Y-54454619D01*
X35929881Y-54050558D02*
X36037630Y-53942809D01*
X36118442Y-53915871D01*
X36226192Y-53915871D01*
X36360879Y-53996683D01*
X36549441Y-54185245D01*
X36630253Y-54319932D01*
X36630253Y-54427682D01*
X36603316Y-54508494D01*
X36495566Y-54616244D01*
X36414754Y-54643181D01*
X36307004Y-54643181D01*
X36172317Y-54562369D01*
X35983755Y-54373807D01*
X35902943Y-54239120D01*
X35902943Y-54131370D01*
X35929881Y-54050558D01*
X36980439Y-54131370D02*
X36414754Y-53565685D01*
X37007377Y-53781184D01*
X36791877Y-53188561D01*
X37357563Y-53754247D01*
X37626937Y-53484873D02*
X37061251Y-52919187D01*
X37276751Y-52703688D01*
X37357563Y-52676751D01*
X37411438Y-52676751D01*
X37492250Y-52703688D01*
X37573062Y-52784500D01*
X37600000Y-52865312D01*
X37600000Y-52919187D01*
X37573062Y-53000000D01*
X37357563Y-53215499D01*
X38111810Y-53107749D02*
X38542809Y-52676751D01*
X37977123Y-52003316D02*
X38300372Y-51680067D01*
X38704433Y-52407377D02*
X38138748Y-51841691D01*
X38435059Y-51545380D02*
X39377868Y-51733942D01*
X38812183Y-51168256D02*
X39000744Y-52111065D01*
X39593367Y-51518442D02*
X39027682Y-50952757D01*
X39162369Y-50818070D01*
X39270118Y-50764195D01*
X39377868Y-50764195D01*
X39458680Y-50791133D01*
X39593367Y-50871945D01*
X39674179Y-50952757D01*
X39754992Y-51087444D01*
X39781929Y-51168256D01*
X39781929Y-51276006D01*
X39728054Y-51383755D01*
X39593367Y-51518442D01*
X32024162Y-54979898D02*
X32024162Y-55033773D01*
X31970287Y-55141523D01*
X31916412Y-55195398D01*
X31808662Y-55249272D01*
X31700913Y-55249272D01*
X31620101Y-55222335D01*
X31485414Y-55141523D01*
X31404601Y-55060711D01*
X31323789Y-54926024D01*
X31296852Y-54845211D01*
X31296852Y-54737462D01*
X31350727Y-54629712D01*
X31404601Y-54575837D01*
X31512351Y-54521963D01*
X31566226Y-54521963D01*
X31862537Y-54117902D02*
X31970287Y-54010152D01*
X32051099Y-53983215D01*
X32158849Y-53983215D01*
X32293536Y-54064027D01*
X32482097Y-54252589D01*
X32562910Y-54387276D01*
X32562910Y-54495025D01*
X32535972Y-54575837D01*
X32428223Y-54683587D01*
X32347410Y-54710524D01*
X32239661Y-54710524D01*
X32104974Y-54629712D01*
X31916412Y-54441150D01*
X31835600Y-54306463D01*
X31835600Y-54198714D01*
X31862537Y-54117902D01*
X32913096Y-54198714D02*
X32347410Y-53633028D01*
X32940033Y-53848528D01*
X32724534Y-53255905D01*
X33290219Y-53821590D01*
X33559593Y-53552216D02*
X32993908Y-52986531D01*
X33209407Y-52771032D01*
X33290219Y-52744094D01*
X33344094Y-52744094D01*
X33424906Y-52771032D01*
X33505719Y-52851844D01*
X33532656Y-52932656D01*
X33532656Y-52986531D01*
X33505719Y-53067343D01*
X33290219Y-53282842D01*
X34044467Y-53175093D02*
X34475465Y-52744094D01*
X34879526Y-52232284D02*
X34421590Y-52151471D01*
X34556277Y-52555532D02*
X33990592Y-51989847D01*
X34206091Y-51774348D01*
X34286903Y-51747410D01*
X34340778Y-51747410D01*
X34421590Y-51774348D01*
X34502402Y-51855160D01*
X34529340Y-51935972D01*
X34529340Y-51989847D01*
X34502402Y-52070659D01*
X34286903Y-52286158D01*
X34502402Y-51478036D02*
X35445211Y-51666598D01*
X34879526Y-51100913D02*
X35068088Y-52043722D01*
X35660711Y-51451099D02*
X35095025Y-50885414D01*
X35229712Y-50750727D01*
X35337462Y-50696852D01*
X35445211Y-50696852D01*
X35526024Y-50723789D01*
X35660711Y-50804601D01*
X35741523Y-50885414D01*
X35822335Y-51020101D01*
X35849272Y-51100913D01*
X35849272Y-51208662D01*
X35795398Y-51316412D01*
X35660711Y-51451099D01*
X29390476Y-51600000D02*
X29314285Y-51561904D01*
X29200000Y-51561904D01*
X29085714Y-51600000D01*
X29009523Y-51676190D01*
X28971428Y-51752380D01*
X28933333Y-51904761D01*
X28933333Y-52019047D01*
X28971428Y-52171428D01*
X29009523Y-52247619D01*
X29085714Y-52323809D01*
X29200000Y-52361904D01*
X29276190Y-52361904D01*
X29390476Y-52323809D01*
X29428571Y-52285714D01*
X29428571Y-52019047D01*
X29276190Y-52019047D01*
X29771428Y-52361904D02*
X29771428Y-51561904D01*
X30228571Y-52361904D01*
X30228571Y-51561904D01*
X30609523Y-52361904D02*
X30609523Y-51561904D01*
X30800000Y-51561904D01*
X30914285Y-51600000D01*
X30990476Y-51676190D01*
X31028571Y-51752380D01*
X31066666Y-51904761D01*
X31066666Y-52019047D01*
X31028571Y-52171428D01*
X30990476Y-52247619D01*
X30914285Y-52323809D01*
X30800000Y-52361904D01*
X30609523Y-52361904D01*
X26285714Y-46200000D02*
X26323809Y-46238095D01*
X26361904Y-46352380D01*
X26361904Y-46428571D01*
X26323809Y-46542857D01*
X26247619Y-46619047D01*
X26171428Y-46657142D01*
X26019047Y-46695238D01*
X25904761Y-46695238D01*
X25752380Y-46657142D01*
X25676190Y-46619047D01*
X25600000Y-46542857D01*
X25561904Y-46428571D01*
X25561904Y-46352380D01*
X25600000Y-46238095D01*
X25638095Y-46200000D01*
X26133333Y-45895238D02*
X26133333Y-45514285D01*
X26361904Y-45971428D02*
X25561904Y-45704761D01*
X26361904Y-45438095D01*
X25561904Y-45285714D02*
X25561904Y-44828571D01*
X26361904Y-45057142D02*
X25561904Y-45057142D01*
X70170000Y-71635000D02*
X68850000Y-71635000D01*
X67950000Y-71635000D02*
X66630000Y-71635000D01*
X67950000Y-69565000D02*
X66630000Y-69565000D01*
X70170000Y-69565000D02*
X68850000Y-69565000D01*
X70170000Y-69565000D02*
X70170000Y-71635000D01*
X66630000Y-69565000D02*
X66630000Y-71635000D01*
D11*
X87800000Y-68075000D02*
X84200000Y-68075000D01*
X87800000Y-65925000D02*
X84200000Y-65925000D01*
X86975000Y-65925000D02*
X86975000Y-68075000D01*
X93275000Y-52200000D02*
X93275000Y-55800000D01*
X91125000Y-52200000D02*
X91125000Y-55800000D01*
X91125000Y-53025000D02*
X93275000Y-53025000D01*
D10*
X77400000Y-66845000D02*
X77400000Y-67800000D01*
X77400000Y-69800000D02*
X77400000Y-70755000D01*
X79800000Y-69800000D02*
X79800000Y-70755000D01*
X79800000Y-66845000D02*
X79800000Y-67800000D01*
X77800000Y-71155000D02*
X79400000Y-71155000D01*
X77800000Y-66445000D02*
X79400000Y-66445000D01*
X79800000Y-70755000D02*
G75*
G02X79400000Y-71155000I-400000J0D01*
G01*
X77800000Y-71155000D02*
G75*
G02X77400000Y-70755000I0J400000D01*
G01*
X77400000Y-66845000D02*
G75*
G02X77800000Y-66445000I400000J0D01*
G01*
X79400000Y-66445000D02*
G75*
G02X79800000Y-66845000I0J-400000D01*
G01*
X102000000Y-55955000D02*
X102000000Y-55000000D01*
X102000000Y-53000000D02*
X102000000Y-52045000D01*
X99600000Y-53000000D02*
X99600000Y-52045000D01*
X99600000Y-55955000D02*
X99600000Y-55000000D01*
X101600000Y-51645000D02*
X100000000Y-51645000D01*
X101600000Y-56355000D02*
X100000000Y-56355000D01*
X99600000Y-52045000D02*
G75*
G02X100000000Y-51645000I400000J0D01*
G01*
X101600000Y-51645000D02*
G75*
G02X102000000Y-52045000I0J-400000D01*
G01*
X102000000Y-55955000D02*
G75*
G02X101600000Y-56355000I-400000J0D01*
G01*
X100000000Y-56355000D02*
G75*
G02X99600000Y-55955000I0J400000D01*
G01*
X70555000Y-66400000D02*
X69600000Y-66400000D01*
X67600000Y-66400000D02*
X66645000Y-66400000D01*
X67600000Y-68800000D02*
X66645000Y-68800000D01*
X70555000Y-68800000D02*
X69600000Y-68800000D01*
X66245000Y-66800000D02*
X66245000Y-68400000D01*
X70955000Y-66800000D02*
X70955000Y-68400000D01*
X66645000Y-68800000D02*
G75*
G02X66245000Y-68400000I0J400000D01*
G01*
X66245000Y-66800000D02*
G75*
G02X66645000Y-66400000I400000J0D01*
G01*
X70555000Y-66400000D02*
G75*
G02X70955000Y-66800000I0J-400000D01*
G01*
X70955000Y-68400000D02*
G75*
G02X70555000Y-68800000I-400000J0D01*
G01*
X88365000Y-79970000D02*
X88365000Y-78650000D01*
X88365000Y-77750000D02*
X88365000Y-76430000D01*
X90435000Y-77750000D02*
X90435000Y-76430000D01*
X90435000Y-79970000D02*
X90435000Y-78650000D01*
X90435000Y-79970000D02*
X88365000Y-79970000D01*
X90435000Y-76430000D02*
X88365000Y-76430000D01*
X55235000Y-76230000D02*
X55235000Y-77550000D01*
X55235000Y-78450000D02*
X55235000Y-79770000D01*
X53165000Y-78450000D02*
X53165000Y-79770000D01*
X53165000Y-76230000D02*
X53165000Y-77550000D01*
X53165000Y-76230000D02*
X55235000Y-76230000D01*
X53165000Y-79770000D02*
X55235000Y-79770000D01*
D12*
X93940000Y-83080000D02*
X93940000Y-83080000D01*
X93940000Y-88290000D02*
X93940000Y-83080000D01*
X93940000Y-88290000D02*
X93940000Y-88290000D01*
X93940000Y-83080000D02*
X93940000Y-88290000D01*
X91400000Y-83080000D02*
X91400000Y-83080000D01*
X91400000Y-88290000D02*
X91400000Y-83080000D01*
X91400000Y-88290000D02*
X91400000Y-88290000D01*
X91400000Y-83080000D02*
X91400000Y-88290000D01*
X94230000Y-88290000D02*
X94630000Y-88290000D01*
X94230000Y-89410000D02*
X94230000Y-88290000D01*
X94630000Y-89410000D02*
X94230000Y-89410000D01*
X94630000Y-88290000D02*
X94630000Y-89410000D01*
X91110000Y-88290000D02*
X94230000Y-88290000D01*
X94230000Y-88290000D02*
X94230000Y-92150000D01*
X91110000Y-88290000D02*
X91110000Y-92150000D01*
X94230000Y-92150000D02*
G75*
G02X91110000Y-92150000I-1560000J0D01*
G01*
X74520000Y-83080000D02*
X74520000Y-83080000D01*
X74520000Y-88290000D02*
X74520000Y-83080000D01*
X74520000Y-88290000D02*
X74520000Y-88290000D01*
X74520000Y-83080000D02*
X74520000Y-88290000D01*
X71980000Y-83080000D02*
X71980000Y-83080000D01*
X71980000Y-88290000D02*
X71980000Y-83080000D01*
X71980000Y-88290000D02*
X71980000Y-88290000D01*
X71980000Y-83080000D02*
X71980000Y-88290000D01*
X74810000Y-88290000D02*
X75210000Y-88290000D01*
X74810000Y-89410000D02*
X74810000Y-88290000D01*
X75210000Y-89410000D02*
X74810000Y-89410000D01*
X75210000Y-88290000D02*
X75210000Y-89410000D01*
X71690000Y-88290000D02*
X74810000Y-88290000D01*
X74810000Y-88290000D02*
X74810000Y-92150000D01*
X71690000Y-88290000D02*
X71690000Y-92150000D01*
X74810000Y-92150000D02*
G75*
G02X71690000Y-92150000I-1560000J0D01*
G01*
X57040000Y-83080000D02*
X57040000Y-83080000D01*
X57040000Y-88290000D02*
X57040000Y-83080000D01*
X57040000Y-88290000D02*
X57040000Y-88290000D01*
X57040000Y-83080000D02*
X57040000Y-88290000D01*
X54500000Y-83080000D02*
X54500000Y-83080000D01*
X54500000Y-88290000D02*
X54500000Y-83080000D01*
X54500000Y-88290000D02*
X54500000Y-88290000D01*
X54500000Y-83080000D02*
X54500000Y-88290000D01*
X57330000Y-88290000D02*
X57730000Y-88290000D01*
X57330000Y-89410000D02*
X57330000Y-88290000D01*
X57730000Y-89410000D02*
X57330000Y-89410000D01*
X57730000Y-88290000D02*
X57730000Y-89410000D01*
X54210000Y-88290000D02*
X57330000Y-88290000D01*
X57330000Y-88290000D02*
X57330000Y-92150000D01*
X54210000Y-88290000D02*
X54210000Y-92150000D01*
X57330000Y-92150000D02*
G75*
G02X54210000Y-92150000I-1560000J0D01*
G01*
D10*
X95220000Y-59448010D02*
X95220000Y-60048010D01*
D11*
X96770000Y-58288010D02*
X96770000Y-58948010D01*
X96770000Y-58288010D02*
X95955000Y-58288010D01*
X96770000Y-61208010D02*
X95955000Y-61208010D01*
X96770000Y-60548010D02*
X96770000Y-61208010D01*
X96770000Y-60548010D02*
X96770000Y-61208010D01*
X96770000Y-60548010D02*
X96770000Y-61208010D01*
X72600000Y-59500000D02*
X72600000Y-58500000D01*
X69800000Y-59500000D02*
X69800000Y-58500000D01*
X72600000Y-58500000D02*
X69800000Y-58500000D01*
X72600000Y-59500000D02*
X69800000Y-59500000D01*
D13*
X73075000Y-57500000D02*
G75*
G03X73075000Y-57500000I-125000J0D01*
G01*
D11*
X71800000Y-71800000D02*
X76600000Y-71800000D01*
X71800000Y-69000000D02*
X76600000Y-69000000D01*
X71800000Y-71800000D02*
X71800000Y-69000000D01*
X76600000Y-71800000D02*
X76600000Y-69000000D01*
D14*
X71600000Y-73300000D02*
G75*
G03X71600000Y-73300000I-150000J0D01*
G01*
D15*
X72700000Y-71100000D02*
G75*
G03X72700000Y-71100000I-200000J0D01*
G01*
D12*
X83275000Y-55309000D02*
X84885000Y-56921000D01*
X83416000Y-55169000D02*
X85026000Y-56780000D01*
X80530000Y-54715000D02*
X85481000Y-54715000D01*
X80530000Y-64365000D02*
X85481000Y-64365000D01*
X85481000Y-64365000D02*
X85481000Y-54715000D01*
X80530000Y-64365000D02*
X80530000Y-54715000D01*
X85304052Y-56024879D02*
G75*
G02X83910000Y-57174000I-1154052J-20121D01*
G01*
X82995704Y-56085309D02*
G75*
G02X85305000Y-56045000I1154296J40309D01*
G01*
D10*
X101170000Y-68635000D02*
X99850000Y-68635000D01*
X98950000Y-68635000D02*
X97630000Y-68635000D01*
X98950000Y-66565000D02*
X97630000Y-66565000D01*
X101170000Y-66565000D02*
X99850000Y-66565000D01*
X101170000Y-66565000D02*
X101170000Y-68635000D01*
X97630000Y-66565000D02*
X97630000Y-68635000D01*
X102165000Y-72570000D02*
X102165000Y-71250000D01*
X102165000Y-70350000D02*
X102165000Y-69030000D01*
X104235000Y-70350000D02*
X104235000Y-69030000D01*
X104235000Y-72570000D02*
X104235000Y-71250000D01*
X104235000Y-72570000D02*
X102165000Y-72570000D01*
X104235000Y-69030000D02*
X102165000Y-69030000D01*
X97630000Y-72965000D02*
X98950000Y-72965000D01*
X99850000Y-72965000D02*
X101170000Y-72965000D01*
X99850000Y-75035000D02*
X101170000Y-75035000D01*
X97630000Y-75035000D02*
X98950000Y-75035000D01*
X97630000Y-75035000D02*
X97630000Y-72965000D01*
X101170000Y-75035000D02*
X101170000Y-72965000D01*
X90435000Y-72030000D02*
X90435000Y-73350000D01*
X90435000Y-74250000D02*
X90435000Y-75570000D01*
X88365000Y-74250000D02*
X88365000Y-75570000D01*
X88365000Y-72030000D02*
X88365000Y-73350000D01*
X88365000Y-72030000D02*
X90435000Y-72030000D01*
X88365000Y-75570000D02*
X90435000Y-75570000D01*
X96370000Y-68835000D02*
X95050000Y-68835000D01*
X94150000Y-68835000D02*
X92830000Y-68835000D01*
X94150000Y-66765000D02*
X92830000Y-66765000D01*
X96370000Y-66765000D02*
X95050000Y-66765000D01*
X96370000Y-66765000D02*
X96370000Y-68835000D01*
X92830000Y-66765000D02*
X92830000Y-68835000D01*
X97570000Y-57235000D02*
X96250000Y-57235000D01*
X95350000Y-57235000D02*
X94030000Y-57235000D01*
X95350000Y-55165000D02*
X94030000Y-55165000D01*
X97570000Y-55165000D02*
X96250000Y-55165000D01*
X97570000Y-55165000D02*
X97570000Y-57235000D01*
X94030000Y-55165000D02*
X94030000Y-57235000D01*
X93035000Y-57830000D02*
X93035000Y-59150000D01*
X93035000Y-60050000D02*
X93035000Y-61370000D01*
X90965000Y-60050000D02*
X90965000Y-61370000D01*
X90965000Y-57830000D02*
X90965000Y-59150000D01*
X90965000Y-57830000D02*
X93035000Y-57830000D01*
X90965000Y-61370000D02*
X93035000Y-61370000D01*
X97570000Y-64235000D02*
X96250000Y-64235000D01*
X95350000Y-64235000D02*
X94030000Y-64235000D01*
X95350000Y-62165000D02*
X94030000Y-62165000D01*
X97570000Y-62165000D02*
X96250000Y-62165000D01*
X97570000Y-62165000D02*
X97570000Y-64235000D01*
X94030000Y-62165000D02*
X94030000Y-64235000D01*
X88435000Y-61030000D02*
X88435000Y-62350000D01*
X88435000Y-63250000D02*
X88435000Y-64570000D01*
X86365000Y-63250000D02*
X86365000Y-64570000D01*
X86365000Y-61030000D02*
X86365000Y-62350000D01*
X86365000Y-61030000D02*
X88435000Y-61030000D01*
X86365000Y-64570000D02*
X88435000Y-64570000D01*
X86830000Y-55365000D02*
X88150000Y-55365000D01*
X89050000Y-55365000D02*
X90370000Y-55365000D01*
X89050000Y-57435000D02*
X90370000Y-57435000D01*
X86830000Y-57435000D02*
X88150000Y-57435000D01*
X86830000Y-57435000D02*
X86830000Y-55365000D01*
X90370000Y-57435000D02*
X90370000Y-55365000D01*
X70965000Y-79970000D02*
X70965000Y-78650000D01*
X70965000Y-77750000D02*
X70965000Y-76430000D01*
X73035000Y-77750000D02*
X73035000Y-76430000D01*
X73035000Y-79970000D02*
X73035000Y-78650000D01*
X73035000Y-79970000D02*
X70965000Y-79970000D01*
X73035000Y-76430000D02*
X70965000Y-76430000D01*
X76035000Y-61830000D02*
X76035000Y-63150000D01*
X76035000Y-64050000D02*
X76035000Y-65370000D01*
X73965000Y-64050000D02*
X73965000Y-65370000D01*
X73965000Y-61830000D02*
X73965000Y-63150000D01*
X73965000Y-61830000D02*
X76035000Y-61830000D01*
X73965000Y-65370000D02*
X76035000Y-65370000D01*
X71165000Y-65370000D02*
X71165000Y-64050000D01*
X71165000Y-63150000D02*
X71165000Y-61830000D01*
X73235000Y-63150000D02*
X73235000Y-61830000D01*
X73235000Y-65370000D02*
X73235000Y-64050000D01*
X73235000Y-65370000D02*
X71165000Y-65370000D01*
X73235000Y-61830000D02*
X71165000Y-61830000D01*
X69635000Y-61920000D02*
X69635000Y-63240000D01*
X69635000Y-64140000D02*
X69635000Y-65460000D01*
X67565000Y-64140000D02*
X67565000Y-65460000D01*
X67565000Y-61920000D02*
X67565000Y-63240000D01*
X67565000Y-61920000D02*
X69635000Y-61920000D01*
X67565000Y-65460000D02*
X69635000Y-65460000D01*
X69365000Y-55570000D02*
X69365000Y-54250000D01*
X69365000Y-53350000D02*
X69365000Y-52030000D01*
X71435000Y-53350000D02*
X71435000Y-52030000D01*
X71435000Y-55570000D02*
X71435000Y-54250000D01*
X71435000Y-55570000D02*
X69365000Y-55570000D01*
X71435000Y-52030000D02*
X69365000Y-52030000D01*
X83430000Y-68965000D02*
X84750000Y-68965000D01*
X85650000Y-68965000D02*
X86970000Y-68965000D01*
X85650000Y-71035000D02*
X86970000Y-71035000D01*
X83430000Y-71035000D02*
X84750000Y-71035000D01*
X83430000Y-71035000D02*
X83430000Y-68965000D01*
X86970000Y-71035000D02*
X86970000Y-68965000D01*
X72965000Y-55570000D02*
X72965000Y-54250000D01*
X72965000Y-53350000D02*
X72965000Y-52030000D01*
X75035000Y-53350000D02*
X75035000Y-52030000D01*
X75035000Y-55570000D02*
X75035000Y-54250000D01*
X75035000Y-55570000D02*
X72965000Y-55570000D01*
X75035000Y-52030000D02*
X72965000Y-52030000D01*
X63919999Y-56165000D02*
X65239999Y-56165000D01*
X66139999Y-56165000D02*
X67459999Y-56165000D01*
X66139999Y-58235000D02*
X67459999Y-58235000D01*
X63919999Y-58235000D02*
X65239999Y-58235000D01*
X63919999Y-58235000D02*
X63919999Y-56165000D01*
X67459999Y-58235000D02*
X67459999Y-56165000D01*
X53165000Y-75370000D02*
X53165000Y-74050000D01*
X53165000Y-73150000D02*
X53165000Y-71830000D01*
X55235000Y-73150000D02*
X55235000Y-71830000D01*
X55235000Y-75370000D02*
X55235000Y-74050000D01*
X55235000Y-75370000D02*
X53165000Y-75370000D01*
X55235000Y-71830000D02*
X53165000Y-71830000D01*
X55235000Y-67430000D02*
X55235000Y-68750000D01*
X55235000Y-69650000D02*
X55235000Y-70970000D01*
X53165000Y-69650000D02*
X53165000Y-70970000D01*
X53165000Y-67430000D02*
X53165000Y-68750000D01*
X53165000Y-67430000D02*
X55235000Y-67430000D01*
X53165000Y-70970000D02*
X55235000Y-70970000D01*
X100300000Y-71100000D02*
X100300000Y-70500000D01*
D11*
X98750000Y-72260000D02*
X98750000Y-71600000D01*
X98750000Y-72260000D02*
X99565000Y-72260000D01*
X98750000Y-69340000D02*
X99565000Y-69340000D01*
X98750000Y-70000000D02*
X98750000Y-69340000D01*
X98750000Y-70000000D02*
X98750000Y-69340000D01*
X98750000Y-70000000D02*
X98750000Y-69340000D01*
D10*
X94900000Y-70700000D02*
X94300000Y-70700000D01*
D11*
X96060000Y-72250000D02*
X95400000Y-72250000D01*
X96060000Y-72250000D02*
X96060000Y-71435000D01*
X93140000Y-72250000D02*
X93140000Y-71435000D01*
X93800000Y-72250000D02*
X93140000Y-72250000D01*
X93800000Y-72250000D02*
X93140000Y-72250000D01*
X93800000Y-72250000D02*
X93140000Y-72250000D01*
D10*
X58700000Y-73100000D02*
X58700000Y-72500000D01*
D11*
X57150000Y-74260000D02*
X57150000Y-73600000D01*
X57150000Y-74260000D02*
X57965000Y-74260000D01*
X57150000Y-71340000D02*
X57965000Y-71340000D01*
X57150000Y-72000000D02*
X57150000Y-71340000D01*
X57150000Y-72000000D02*
X57150000Y-71340000D01*
X57150000Y-72000000D02*
X57150000Y-71340000D01*
D10*
X95770000Y-79035000D02*
X92230000Y-79035000D01*
X92230000Y-76965000D02*
X92230000Y-79035000D01*
X95770000Y-76965000D02*
X95770000Y-79035000D01*
X95770000Y-76965000D02*
X92230000Y-76965000D01*
X96235000Y-48830000D02*
X96235000Y-52370000D01*
X94165000Y-52370000D02*
X96235000Y-52370000D01*
X94165000Y-48830000D02*
X96235000Y-48830000D01*
X94165000Y-48830000D02*
X94165000Y-52370000D01*
X83230000Y-72765000D02*
X86770000Y-72765000D01*
X86770000Y-74835000D02*
X86770000Y-72765000D01*
X83230000Y-74835000D02*
X83230000Y-72765000D01*
X83230000Y-74835000D02*
X86770000Y-74835000D01*
X65170000Y-74835000D02*
X61630000Y-74835000D01*
X61630000Y-72765000D02*
X61630000Y-74835000D01*
X65170000Y-72765000D02*
X65170000Y-74835000D01*
X65170000Y-72765000D02*
X61630000Y-72765000D01*
X36235000Y-64430000D02*
X36235000Y-67970000D01*
X34165000Y-67970000D02*
X36235000Y-67970000D01*
X34165000Y-64430000D02*
X36235000Y-64430000D01*
X34165000Y-64430000D02*
X34165000Y-67970000D01*
X46235000Y-64430000D02*
X46235000Y-67970000D01*
X44165000Y-67970000D02*
X46235000Y-67970000D01*
X44165000Y-64430000D02*
X46235000Y-64430000D01*
X44165000Y-64430000D02*
X44165000Y-67970000D01*
X42835000Y-64430000D02*
X42835000Y-67970000D01*
X40765000Y-67970000D02*
X42835000Y-67970000D01*
X40765000Y-64430000D02*
X42835000Y-64430000D01*
X40765000Y-64430000D02*
X40765000Y-67970000D01*
X33035000Y-64430000D02*
X33035000Y-67970000D01*
X30965000Y-67970000D02*
X33035000Y-67970000D01*
X30965000Y-64430000D02*
X33035000Y-64430000D01*
X30965000Y-64430000D02*
X30965000Y-67970000D01*
X39435000Y-64430000D02*
X39435000Y-67970000D01*
X37365000Y-67970000D02*
X39435000Y-67970000D01*
X37365000Y-64430000D02*
X39435000Y-64430000D01*
X37365000Y-64430000D02*
X37365000Y-67970000D01*
D12*
X119000000Y-82750000D02*
X118500000Y-82750000D01*
X113750000Y-84250000D02*
X113750000Y-85500000D01*
X113000000Y-84250000D02*
X113750000Y-84250000D01*
X112250000Y-84250000D02*
X113000000Y-84750000D01*
X111750000Y-84250000D02*
X112250000Y-84250000D01*
X111750000Y-77000000D02*
X111750000Y-84250000D01*
X114000000Y-77000000D02*
X111750000Y-77000000D01*
X117750000Y-82750000D02*
X118500000Y-83250000D01*
X117000000Y-82750000D02*
X117750000Y-82750000D01*
X115250000Y-86250000D02*
X115000000Y-86250000D01*
X115250000Y-85500000D02*
X115250000Y-86250000D01*
X117500000Y-85500000D02*
X115250000Y-85500000D01*
X119000000Y-80750000D02*
X115000000Y-80750000D01*
X119000000Y-86500000D02*
X119000000Y-80750000D01*
X118500000Y-86500000D02*
X119000000Y-86500000D01*
X117500000Y-88750000D02*
X116750000Y-88750000D01*
X117500000Y-88750000D02*
X117250000Y-88750000D01*
X117500000Y-85750000D02*
X117750000Y-86000000D01*
X118500000Y-85750000D02*
X118250000Y-86000000D01*
X117500000Y-87500000D02*
X117500000Y-87250000D01*
X118500000Y-87500000D02*
X118500000Y-87250000D01*
X117500000Y-85750000D02*
X118500000Y-85750000D01*
X117500000Y-85250000D02*
X117500000Y-85750000D01*
X118000000Y-84750000D02*
X117500000Y-85250000D01*
X118500000Y-85250000D02*
X118000000Y-84750000D01*
X118500000Y-85750000D02*
X118500000Y-85250000D01*
X117500000Y-87250000D02*
X118500000Y-87250000D01*
X117500000Y-86000000D02*
X117500000Y-87250000D01*
X118500000Y-86000000D02*
X117500000Y-86000000D01*
X118500000Y-87250000D02*
X118500000Y-86000000D01*
X117500000Y-87500000D02*
X117500000Y-89750000D01*
X118500000Y-87500000D02*
X117500000Y-87500000D01*
X118500000Y-89750000D02*
X118500000Y-87500000D01*
X117750000Y-94000000D02*
X111750000Y-94000000D01*
X111750000Y-90000000D02*
X111750000Y-94000000D01*
X117750000Y-90000000D02*
X117750000Y-94000000D01*
D14*
X119550000Y-76000000D02*
X111450000Y-76000000D01*
X111450000Y-90000000D02*
X111450000Y-76000000D01*
X119550000Y-90000000D02*
X119550000Y-76000000D01*
X119550000Y-90000000D02*
X111450000Y-90000000D01*
D12*
X106800000Y-51100000D02*
X106200000Y-51100000D01*
X106500000Y-50500000D02*
X106800000Y-51100000D01*
X106200000Y-51100000D02*
X106500000Y-50500000D01*
X109180000Y-43700000D02*
X100010000Y-43700000D01*
X105450000Y-49780000D02*
X103740000Y-49780000D01*
X100010000Y-49780000D02*
X101640000Y-49780000D01*
X109180000Y-49780000D02*
X107550000Y-49780000D01*
X100010000Y-40420000D02*
X100010000Y-49780000D01*
X109180000Y-40420000D02*
X100010000Y-40420000D01*
X109180000Y-49780000D02*
X109180000Y-40420000D01*
X105000000Y-82750000D02*
X104500000Y-82750000D01*
X99750000Y-84250000D02*
X99750000Y-85500000D01*
X99000000Y-84250000D02*
X99750000Y-84250000D01*
X98250000Y-84250000D02*
X99000000Y-84750000D01*
X97750000Y-84250000D02*
X98250000Y-84250000D01*
X97750000Y-77000000D02*
X97750000Y-84250000D01*
X100000000Y-77000000D02*
X97750000Y-77000000D01*
X103750000Y-82750000D02*
X104500000Y-83250000D01*
X103000000Y-82750000D02*
X103750000Y-82750000D01*
X101250000Y-86250000D02*
X101000000Y-86250000D01*
X101250000Y-85500000D02*
X101250000Y-86250000D01*
X103500000Y-85500000D02*
X101250000Y-85500000D01*
X105000000Y-80750000D02*
X101000000Y-80750000D01*
X105000000Y-86500000D02*
X105000000Y-80750000D01*
X104500000Y-86500000D02*
X105000000Y-86500000D01*
X103500000Y-88750000D02*
X102750000Y-88750000D01*
X103500000Y-88750000D02*
X103250000Y-88750000D01*
X103500000Y-85750000D02*
X103750000Y-86000000D01*
X104500000Y-85750000D02*
X104250000Y-86000000D01*
X103500000Y-87500000D02*
X103500000Y-87250000D01*
X104500000Y-87500000D02*
X104500000Y-87250000D01*
X103500000Y-85750000D02*
X104500000Y-85750000D01*
X103500000Y-85250000D02*
X103500000Y-85750000D01*
X104000000Y-84750000D02*
X103500000Y-85250000D01*
X104500000Y-85250000D02*
X104000000Y-84750000D01*
X104500000Y-85750000D02*
X104500000Y-85250000D01*
X103500000Y-87250000D02*
X104500000Y-87250000D01*
X103500000Y-86000000D02*
X103500000Y-87250000D01*
X104500000Y-86000000D02*
X103500000Y-86000000D01*
X104500000Y-87250000D02*
X104500000Y-86000000D01*
X103500000Y-87500000D02*
X103500000Y-89750000D01*
X104500000Y-87500000D02*
X103500000Y-87500000D01*
X104500000Y-89750000D02*
X104500000Y-87500000D01*
X103750000Y-94000000D02*
X97750000Y-94000000D01*
X97750000Y-90000000D02*
X97750000Y-94000000D01*
X103750000Y-90000000D02*
X103750000Y-94000000D01*
D14*
X105550000Y-76000000D02*
X97450000Y-76000000D01*
X97450000Y-90000000D02*
X97450000Y-76000000D01*
X105550000Y-90000000D02*
X105550000Y-76000000D01*
X105550000Y-90000000D02*
X97450000Y-90000000D01*
D12*
X90550000Y-51100000D02*
X89950000Y-51100000D01*
X90250000Y-50500000D02*
X90550000Y-51100000D01*
X89950000Y-51100000D02*
X90250000Y-50500000D01*
X92930000Y-43700000D02*
X83760000Y-43700000D01*
X89200000Y-49780000D02*
X87490000Y-49780000D01*
X83760000Y-49780000D02*
X85390000Y-49780000D01*
X92930000Y-49780000D02*
X91300000Y-49780000D01*
X83760000Y-40420000D02*
X83760000Y-49780000D01*
X92930000Y-40420000D02*
X83760000Y-40420000D01*
X92930000Y-49780000D02*
X92930000Y-40420000D01*
X85500000Y-82750000D02*
X85000000Y-82750000D01*
X80250000Y-84250000D02*
X80250000Y-85500000D01*
X79500000Y-84250000D02*
X80250000Y-84250000D01*
X78750000Y-84250000D02*
X79500000Y-84750000D01*
X78250000Y-84250000D02*
X78750000Y-84250000D01*
X78250000Y-77000000D02*
X78250000Y-84250000D01*
X80500000Y-77000000D02*
X78250000Y-77000000D01*
X84250000Y-82750000D02*
X85000000Y-83250000D01*
X83500000Y-82750000D02*
X84250000Y-82750000D01*
X81750000Y-86250000D02*
X81500000Y-86250000D01*
X81750000Y-85500000D02*
X81750000Y-86250000D01*
X84000000Y-85500000D02*
X81750000Y-85500000D01*
X85500000Y-80750000D02*
X81500000Y-80750000D01*
X85500000Y-86500000D02*
X85500000Y-80750000D01*
X85000000Y-86500000D02*
X85500000Y-86500000D01*
X84000000Y-88750000D02*
X83250000Y-88750000D01*
X84000000Y-88750000D02*
X83750000Y-88750000D01*
X84000000Y-85750000D02*
X84250000Y-86000000D01*
X85000000Y-85750000D02*
X84750000Y-86000000D01*
X84000000Y-87500000D02*
X84000000Y-87250000D01*
X85000000Y-87500000D02*
X85000000Y-87250000D01*
X84000000Y-85750000D02*
X85000000Y-85750000D01*
X84000000Y-85250000D02*
X84000000Y-85750000D01*
X84500000Y-84750000D02*
X84000000Y-85250000D01*
X85000000Y-85250000D02*
X84500000Y-84750000D01*
X85000000Y-85750000D02*
X85000000Y-85250000D01*
X84000000Y-87250000D02*
X85000000Y-87250000D01*
X84000000Y-86000000D02*
X84000000Y-87250000D01*
X85000000Y-86000000D02*
X84000000Y-86000000D01*
X85000000Y-87250000D02*
X85000000Y-86000000D01*
X84000000Y-87500000D02*
X84000000Y-89750000D01*
X85000000Y-87500000D02*
X84000000Y-87500000D01*
X85000000Y-89750000D02*
X85000000Y-87500000D01*
X84250000Y-94000000D02*
X78250000Y-94000000D01*
X78250000Y-90000000D02*
X78250000Y-94000000D01*
X84250000Y-90000000D02*
X84250000Y-94000000D01*
D14*
X86050000Y-76000000D02*
X77950000Y-76000000D01*
X77950000Y-90000000D02*
X77950000Y-76000000D01*
X86050000Y-90000000D02*
X86050000Y-76000000D01*
X86050000Y-90000000D02*
X77950000Y-90000000D01*
D12*
X74300000Y-51100000D02*
X73700000Y-51100000D01*
X74000000Y-50500000D02*
X74300000Y-51100000D01*
X73700000Y-51100000D02*
X74000000Y-50500000D01*
X76680000Y-43700000D02*
X67510000Y-43700000D01*
X72950000Y-49780000D02*
X71240000Y-49780000D01*
X67510000Y-49780000D02*
X69140000Y-49780000D01*
X76680000Y-49780000D02*
X75050000Y-49780000D01*
X67510000Y-40420000D02*
X67510000Y-49780000D01*
X76680000Y-40420000D02*
X67510000Y-40420000D01*
X76680000Y-49780000D02*
X76680000Y-40420000D01*
X68000000Y-82750000D02*
X67500000Y-82750000D01*
X62750000Y-84250000D02*
X62750000Y-85500000D01*
X62000000Y-84250000D02*
X62750000Y-84250000D01*
X61250000Y-84250000D02*
X62000000Y-84750000D01*
X60750000Y-84250000D02*
X61250000Y-84250000D01*
X60750000Y-77000000D02*
X60750000Y-84250000D01*
X63000000Y-77000000D02*
X60750000Y-77000000D01*
X66750000Y-82750000D02*
X67500000Y-83250000D01*
X66000000Y-82750000D02*
X66750000Y-82750000D01*
X64250000Y-86250000D02*
X64000000Y-86250000D01*
X64250000Y-85500000D02*
X64250000Y-86250000D01*
X66500000Y-85500000D02*
X64250000Y-85500000D01*
X68000000Y-80750000D02*
X64000000Y-80750000D01*
X68000000Y-86500000D02*
X68000000Y-80750000D01*
X67500000Y-86500000D02*
X68000000Y-86500000D01*
X66500000Y-88750000D02*
X65750000Y-88750000D01*
X66500000Y-88750000D02*
X66250000Y-88750000D01*
X66500000Y-85750000D02*
X66750000Y-86000000D01*
X67500000Y-85750000D02*
X67250000Y-86000000D01*
X66500000Y-87500000D02*
X66500000Y-87250000D01*
X67500000Y-87500000D02*
X67500000Y-87250000D01*
X66500000Y-85750000D02*
X67500000Y-85750000D01*
X66500000Y-85250000D02*
X66500000Y-85750000D01*
X67000000Y-84750000D02*
X66500000Y-85250000D01*
X67500000Y-85250000D02*
X67000000Y-84750000D01*
X67500000Y-85750000D02*
X67500000Y-85250000D01*
X66500000Y-87250000D02*
X67500000Y-87250000D01*
X66500000Y-86000000D02*
X66500000Y-87250000D01*
X67500000Y-86000000D02*
X66500000Y-86000000D01*
X67500000Y-87250000D02*
X67500000Y-86000000D01*
X66500000Y-87500000D02*
X66500000Y-89750000D01*
X67500000Y-87500000D02*
X66500000Y-87500000D01*
X67500000Y-89750000D02*
X67500000Y-87500000D01*
X66750000Y-94000000D02*
X60750000Y-94000000D01*
X60750000Y-90000000D02*
X60750000Y-94000000D01*
X66750000Y-90000000D02*
X66750000Y-94000000D01*
D14*
X68550000Y-76000000D02*
X60450000Y-76000000D01*
X60450000Y-90000000D02*
X60450000Y-76000000D01*
X68550000Y-90000000D02*
X68550000Y-76000000D01*
X68550000Y-90000000D02*
X60450000Y-90000000D01*
D12*
X58050000Y-51100000D02*
X57450000Y-51100000D01*
X57750000Y-50500000D02*
X58050000Y-51100000D01*
X57450000Y-51100000D02*
X57750000Y-50500000D01*
X60430000Y-43700000D02*
X51260000Y-43700000D01*
X56700000Y-49780000D02*
X54990000Y-49780000D01*
X51260000Y-49780000D02*
X52890000Y-49780000D01*
X60430000Y-49780000D02*
X58800000Y-49780000D01*
X51260000Y-40420000D02*
X51260000Y-49780000D01*
X60430000Y-40420000D02*
X51260000Y-40420000D01*
X60430000Y-49780000D02*
X60430000Y-40420000D01*
X27750000Y-87250000D02*
X27750000Y-70500000D01*
X44250000Y-87250000D02*
X44250000Y-70500000D01*
X51250000Y-87250000D02*
X20500000Y-87250000D01*
D10*
X22080000Y-90000000D02*
X22080000Y-95000000D01*
X24920000Y-90000000D02*
X24920000Y-95000000D01*
X24920000Y-95000000D02*
X22080000Y-95000000D01*
X49920000Y-95000000D02*
X47080000Y-95000000D01*
X47080000Y-90000000D02*
X47080000Y-95000000D01*
X49920000Y-90000000D02*
X49920000Y-95000000D01*
X44170000Y-95800000D02*
X27830000Y-95800000D01*
X27830000Y-90000000D02*
X27830000Y-95800000D01*
X44170000Y-90000000D02*
X44170000Y-95800000D01*
D14*
X51400000Y-70500000D02*
X20500000Y-70500000D01*
X20500000Y-90000000D02*
X20500000Y-70500000D01*
X51400000Y-90000000D02*
X51400000Y-70500000D01*
X51400000Y-90000000D02*
X20600000Y-90000000D01*
D12*
X41800000Y-51100000D02*
X41200000Y-51100000D01*
X41500000Y-50500000D02*
X41800000Y-51100000D01*
X41200000Y-51100000D02*
X41500000Y-50500000D01*
X44180000Y-43700000D02*
X27390000Y-43700000D01*
X32830000Y-49780000D02*
X31120000Y-49780000D01*
X36640000Y-49780000D02*
X34930000Y-49780000D01*
X40450000Y-49780000D02*
X38740000Y-49780000D01*
X27390000Y-49780000D02*
X29020000Y-49780000D01*
X44180000Y-49780000D02*
X42550000Y-49780000D01*
X27390000Y-40420000D02*
X27390000Y-49780000D01*
X44180000Y-40420000D02*
X27390000Y-40420000D01*
X44180000Y-49780000D02*
X44180000Y-40420000D01*
D10*
X108635000Y-52230000D02*
X108635000Y-55770000D01*
X106565000Y-55770000D02*
X108635000Y-55770000D01*
X106565000Y-52230000D02*
X108635000Y-52230000D01*
X106565000Y-52230000D02*
X106565000Y-55770000D01*
D11*
X60725000Y-70400000D02*
X60725000Y-66800000D01*
X62875000Y-70400000D02*
X62875000Y-66800000D01*
X62875000Y-69575000D02*
X60725000Y-69575000D01*
D10*
X92230000Y-75835000D02*
X92230000Y-74565000D01*
X92630000Y-76235000D02*
X93550000Y-76235000D01*
X95770000Y-75835000D02*
X95770000Y-74565000D01*
X94450000Y-76235000D02*
X95370000Y-76235000D01*
X94450000Y-74165000D02*
X95370000Y-74165000D01*
X92630000Y-74165000D02*
X93550000Y-74165000D01*
X92230000Y-74564990D02*
G75*
G02X92630000Y-74164990I400000J0D01*
G01*
X92630000Y-76235000D02*
G75*
G02X92230000Y-75835000I0J400000D01*
G01*
X95770000Y-75835000D02*
G75*
G02X95370000Y-76235000I-400000J0D01*
G01*
X95370000Y-74165000D02*
G75*
G02X95770000Y-74565000I0J-400000D01*
G01*
X105235000Y-55770000D02*
X103965000Y-55770000D01*
X105635000Y-55370000D02*
X105635000Y-54450000D01*
X105235000Y-52230000D02*
X103965000Y-52230000D01*
X105635000Y-53550000D02*
X105635000Y-52630000D01*
X103565000Y-53550000D02*
X103565000Y-52630000D01*
X103565000Y-55370000D02*
X103565000Y-54450000D01*
X103964990Y-55770000D02*
G75*
G02X103564990Y-55370000I0J400000D01*
G01*
X105635000Y-55370000D02*
G75*
G02X105235000Y-55770000I-400000J0D01*
G01*
X105235000Y-52230000D02*
G75*
G02X105635000Y-52630000I0J-400000D01*
G01*
X103565000Y-52630000D02*
G75*
G02X103965000Y-52230000I400000J0D01*
G01*
X89430000Y-63835000D02*
X89430000Y-62565000D01*
X89830000Y-64235000D02*
X90750000Y-64235000D01*
X92970000Y-63835000D02*
X92970000Y-62565000D01*
X91650000Y-64235000D02*
X92570000Y-64235000D01*
X91650000Y-62165000D02*
X92570000Y-62165000D01*
X89830000Y-62165000D02*
X90750000Y-62165000D01*
X89430000Y-62564990D02*
G75*
G02X89830000Y-62164990I400000J0D01*
G01*
X89830000Y-64235000D02*
G75*
G02X89430000Y-63835000I0J400000D01*
G01*
X92970000Y-63835000D02*
G75*
G02X92570000Y-64235000I-400000J0D01*
G01*
X92570000Y-62165000D02*
G75*
G02X92970000Y-62565000I0J-400000D01*
G01*
X84030000Y-53435000D02*
X84030000Y-52165000D01*
X84430000Y-53835000D02*
X85350000Y-53835000D01*
X87570000Y-53435000D02*
X87570000Y-52165000D01*
X86250000Y-53835000D02*
X87170000Y-53835000D01*
X86250000Y-51765000D02*
X87170000Y-51765000D01*
X84430000Y-51765000D02*
X85350000Y-51765000D01*
X84030000Y-52164990D02*
G75*
G02X84430000Y-51764990I400000J0D01*
G01*
X84430000Y-53835000D02*
G75*
G02X84030000Y-53435000I0J400000D01*
G01*
X87570000Y-53435000D02*
G75*
G02X87170000Y-53835000I-400000J0D01*
G01*
X87170000Y-51765000D02*
G75*
G02X87570000Y-52165000I0J-400000D01*
G01*
X74230000Y-60635000D02*
X74230000Y-59365000D01*
X74630000Y-61035000D02*
X75550000Y-61035000D01*
X77770000Y-60635000D02*
X77770000Y-59365000D01*
X76450000Y-61035000D02*
X77370000Y-61035000D01*
X76450000Y-58965000D02*
X77370000Y-58965000D01*
X74630000Y-58965000D02*
X75550000Y-58965000D01*
X74230000Y-59364990D02*
G75*
G02X74630000Y-58964990I400000J0D01*
G01*
X74630000Y-61035000D02*
G75*
G02X74230000Y-60635000I0J400000D01*
G01*
X77770000Y-60635000D02*
G75*
G02X77370000Y-61035000I-400000J0D01*
G01*
X77370000Y-58965000D02*
G75*
G02X77770000Y-59365000I0J-400000D01*
G01*
X78030000Y-74435000D02*
X78030000Y-73165000D01*
X78430000Y-74835000D02*
X79350000Y-74835000D01*
X81570000Y-74435000D02*
X81570000Y-73165000D01*
X80250000Y-74835000D02*
X81170000Y-74835000D01*
X80250000Y-72765000D02*
X81170000Y-72765000D01*
X78430000Y-72765000D02*
X79350000Y-72765000D01*
X78030000Y-73164990D02*
G75*
G02X78430000Y-72764990I400000J0D01*
G01*
X78430000Y-74835000D02*
G75*
G02X78030000Y-74435000I0J400000D01*
G01*
X81570000Y-74435000D02*
G75*
G02X81170000Y-74835000I-400000J0D01*
G01*
X81170000Y-72765000D02*
G75*
G02X81570000Y-73165000I0J-400000D01*
G01*
X76365000Y-52030000D02*
X77635000Y-52030000D01*
X75965000Y-52430000D02*
X75965000Y-53350000D01*
X76365000Y-55570000D02*
X77635000Y-55570000D01*
X75965000Y-54250000D02*
X75965000Y-55170000D01*
X78035000Y-54250000D02*
X78035000Y-55170000D01*
X78035000Y-52430000D02*
X78035000Y-53350000D01*
X77635010Y-52030000D02*
G75*
G02X78035010Y-52430000I0J-400000D01*
G01*
X75965000Y-52430000D02*
G75*
G02X76365000Y-52030000I400000J0D01*
G01*
X76365000Y-55570000D02*
G75*
G02X75965000Y-55170000I0J400000D01*
G01*
X78035000Y-55170000D02*
G75*
G02X77635000Y-55570000I-400000J0D01*
G01*
X67570000Y-53565000D02*
X67570000Y-54835000D01*
X67170000Y-53165000D02*
X66250000Y-53165000D01*
X64030000Y-53565000D02*
X64030000Y-54835000D01*
X65350000Y-53165000D02*
X64430000Y-53165000D01*
X65350000Y-55235000D02*
X64430000Y-55235000D01*
X67170000Y-55235000D02*
X66250000Y-55235000D01*
X67570000Y-54835010D02*
G75*
G02X67170000Y-55235010I-400000J0D01*
G01*
X67170000Y-53165000D02*
G75*
G02X67570000Y-53565000I0J-400000D01*
G01*
X64030000Y-53565000D02*
G75*
G02X64430000Y-53165000I400000J0D01*
G01*
X64430000Y-55235000D02*
G75*
G02X64030000Y-54835000I0J400000D01*
G01*
X64030000Y-60835000D02*
X64030000Y-59565000D01*
X64430000Y-61235000D02*
X65350000Y-61235000D01*
X67570000Y-60835000D02*
X67570000Y-59565000D01*
X66250000Y-61235000D02*
X67170000Y-61235000D01*
X66250000Y-59165000D02*
X67170000Y-59165000D01*
X64430000Y-59165000D02*
X65350000Y-59165000D01*
X64030000Y-59564990D02*
G75*
G02X64430000Y-59164990I400000J0D01*
G01*
X64430000Y-61235000D02*
G75*
G02X64030000Y-60835000I0J400000D01*
G01*
X67570000Y-60835000D02*
G75*
G02X67170000Y-61235000I-400000J0D01*
G01*
X67170000Y-59165000D02*
G75*
G02X67570000Y-59565000I0J-400000D01*
G01*
X69970000Y-73165000D02*
X69970000Y-74435000D01*
X69570000Y-72765000D02*
X68650000Y-72765000D01*
X66430000Y-73165000D02*
X66430000Y-74435000D01*
X67750000Y-72765000D02*
X66830000Y-72765000D01*
X67750000Y-74835000D02*
X66830000Y-74835000D01*
X69570000Y-74835000D02*
X68650000Y-74835000D01*
X69970000Y-74435010D02*
G75*
G02X69570000Y-74835010I-400000J0D01*
G01*
X69570000Y-72765000D02*
G75*
G02X69970000Y-73165000I0J-400000D01*
G01*
X66430000Y-73165000D02*
G75*
G02X66830000Y-72765000I400000J0D01*
G01*
X66830000Y-74835000D02*
G75*
G02X66430000Y-74435000I0J400000D01*
G01*
X81165000Y-66430000D02*
X82435000Y-66430000D01*
X80765000Y-66830000D02*
X80765000Y-67750000D01*
X81165000Y-69970000D02*
X82435000Y-69970000D01*
X80765000Y-68650000D02*
X80765000Y-69570000D01*
X82835000Y-68650000D02*
X82835000Y-69570000D01*
X82835000Y-66830000D02*
X82835000Y-67750000D01*
X82435010Y-66430000D02*
G75*
G02X82835010Y-66830000I0J-400000D01*
G01*
X80765000Y-66830000D02*
G75*
G02X81165000Y-66430000I400000J0D01*
G01*
X81165000Y-69970000D02*
G75*
G02X80765000Y-69570000I0J400000D01*
G01*
X82835000Y-69570000D02*
G75*
G02X82435000Y-69970000I-400000J0D01*
G01*
X76635000Y-78370000D02*
X75365000Y-78370000D01*
X77035000Y-77970000D02*
X77035000Y-77050000D01*
X76635000Y-74830000D02*
X75365000Y-74830000D01*
X77035000Y-76150000D02*
X77035000Y-75230000D01*
X74965000Y-76150000D02*
X74965000Y-75230000D01*
X74965000Y-77970000D02*
X74965000Y-77050000D01*
X75364990Y-78370000D02*
G75*
G02X74964990Y-77970000I0J400000D01*
G01*
X77035000Y-77970000D02*
G75*
G02X76635000Y-78370000I-400000J0D01*
G01*
X76635000Y-74830000D02*
G75*
G02X77035000Y-75230000I0J-400000D01*
G01*
X74965000Y-75230000D02*
G75*
G02X75365000Y-74830000I400000J0D01*
G01*
X34635000Y-63370000D02*
X33365000Y-63370000D01*
X35035000Y-62970000D02*
X35035000Y-62050000D01*
X34635000Y-59830000D02*
X33365000Y-59830000D01*
X35035000Y-61150000D02*
X35035000Y-60230000D01*
X32965000Y-61150000D02*
X32965000Y-60230000D01*
X32965000Y-62970000D02*
X32965000Y-62050000D01*
X33364990Y-63370000D02*
G75*
G02X32964990Y-62970000I0J400000D01*
G01*
X35035000Y-62970000D02*
G75*
G02X34635000Y-63370000I-400000J0D01*
G01*
X34635000Y-59830000D02*
G75*
G02X35035000Y-60230000I0J-400000D01*
G01*
X32965000Y-60230000D02*
G75*
G02X33365000Y-59830000I400000J0D01*
G01*
X39035000Y-63170000D02*
X37765000Y-63170000D01*
X39435000Y-62770000D02*
X39435000Y-61850000D01*
X39035000Y-59630000D02*
X37765000Y-59630000D01*
X39435000Y-60950000D02*
X39435000Y-60030000D01*
X37365000Y-60950000D02*
X37365000Y-60030000D01*
X37365000Y-62770000D02*
X37365000Y-61850000D01*
X37764990Y-63170000D02*
G75*
G02X37364990Y-62770000I0J400000D01*
G01*
X39435000Y-62770000D02*
G75*
G02X39035000Y-63170000I-400000J0D01*
G01*
X39035000Y-59630000D02*
G75*
G02X39435000Y-60030000I0J-400000D01*
G01*
X37365000Y-60030000D02*
G75*
G02X37765000Y-59630000I400000J0D01*
G01*
X42435000Y-63170000D02*
X41165000Y-63170000D01*
X42835000Y-62770000D02*
X42835000Y-61850000D01*
X42435000Y-59630000D02*
X41165000Y-59630000D01*
X42835000Y-60950000D02*
X42835000Y-60030000D01*
X40765000Y-60950000D02*
X40765000Y-60030000D01*
X40765000Y-62770000D02*
X40765000Y-61850000D01*
X41164990Y-63170000D02*
G75*
G02X40764990Y-62770000I0J400000D01*
G01*
X42835000Y-62770000D02*
G75*
G02X42435000Y-63170000I-400000J0D01*
G01*
X42435000Y-59630000D02*
G75*
G02X42835000Y-60030000I0J-400000D01*
G01*
X40765000Y-60030000D02*
G75*
G02X41165000Y-59630000I400000J0D01*
G01*
X45835000Y-63170000D02*
X44565000Y-63170000D01*
X46235000Y-62770000D02*
X46235000Y-61850000D01*
X45835000Y-59630000D02*
X44565000Y-59630000D01*
X46235000Y-60950000D02*
X46235000Y-60030000D01*
X44165000Y-60950000D02*
X44165000Y-60030000D01*
X44165000Y-62770000D02*
X44165000Y-61850000D01*
X44564990Y-63170000D02*
G75*
G02X44164990Y-62770000I0J400000D01*
G01*
X46235000Y-62770000D02*
G75*
G02X45835000Y-63170000I-400000J0D01*
G01*
X45835000Y-59630000D02*
G75*
G02X46235000Y-60030000I0J-400000D01*
G01*
X44165000Y-60030000D02*
G75*
G02X44565000Y-59630000I400000J0D01*
G01*
D16*
X89861904Y-67452380D02*
X89861904Y-66452380D01*
X90100000Y-66452380D01*
X90242857Y-66500000D01*
X90338095Y-66595238D01*
X90385714Y-66690476D01*
X90433333Y-66880952D01*
X90433333Y-67023809D01*
X90385714Y-67214285D01*
X90338095Y-67309523D01*
X90242857Y-67404761D01*
X90100000Y-67452380D01*
X89861904Y-67452380D01*
X91290476Y-66452380D02*
X91100000Y-66452380D01*
X91004761Y-66500000D01*
X90957142Y-66547619D01*
X90861904Y-66690476D01*
X90814285Y-66880952D01*
X90814285Y-67261904D01*
X90861904Y-67357142D01*
X90909523Y-67404761D01*
X91004761Y-67452380D01*
X91195238Y-67452380D01*
X91290476Y-67404761D01*
X91338095Y-67357142D01*
X91385714Y-67261904D01*
X91385714Y-67023809D01*
X91338095Y-66928571D01*
X91290476Y-66880952D01*
X91195238Y-66833333D01*
X91004761Y-66833333D01*
X90909523Y-66880952D01*
X90861904Y-66928571D01*
X90814285Y-67023809D01*
X90652380Y-53738095D02*
X89652380Y-53738095D01*
X89652380Y-53500000D01*
X89700000Y-53357142D01*
X89795238Y-53261904D01*
X89890476Y-53214285D01*
X90080952Y-53166666D01*
X90223809Y-53166666D01*
X90414285Y-53214285D01*
X90509523Y-53261904D01*
X90604761Y-53357142D01*
X90652380Y-53500000D01*
X90652380Y-53738095D01*
X89652380Y-52261904D02*
X89652380Y-52738095D01*
X90128571Y-52785714D01*
X90080952Y-52738095D01*
X90033333Y-52642857D01*
X90033333Y-52404761D01*
X90080952Y-52309523D01*
X90128571Y-52261904D01*
X90223809Y-52214285D01*
X90461904Y-52214285D01*
X90557142Y-52261904D01*
X90604761Y-52309523D01*
X90652380Y-52404761D01*
X90652380Y-52642857D01*
X90604761Y-52738095D01*
X90557142Y-52785714D01*
X78233333Y-65957142D02*
X78185714Y-66004761D01*
X78042857Y-66052380D01*
X77947619Y-66052380D01*
X77804761Y-66004761D01*
X77709523Y-65909523D01*
X77661904Y-65814285D01*
X77614285Y-65623809D01*
X77614285Y-65480952D01*
X77661904Y-65290476D01*
X77709523Y-65195238D01*
X77804761Y-65100000D01*
X77947619Y-65052380D01*
X78042857Y-65052380D01*
X78185714Y-65100000D01*
X78233333Y-65147619D01*
X78709523Y-66052380D02*
X78900000Y-66052380D01*
X78995238Y-66004761D01*
X79042857Y-65957142D01*
X79138095Y-65814285D01*
X79185714Y-65623809D01*
X79185714Y-65242857D01*
X79138095Y-65147619D01*
X79090476Y-65100000D01*
X78995238Y-65052380D01*
X78804761Y-65052380D01*
X78709523Y-65100000D01*
X78661904Y-65147619D01*
X78614285Y-65242857D01*
X78614285Y-65480952D01*
X78661904Y-65576190D01*
X78709523Y-65623809D01*
X78804761Y-65671428D01*
X78995238Y-65671428D01*
X79090476Y-65623809D01*
X79138095Y-65576190D01*
X79185714Y-65480952D01*
X99307866Y-55621476D02*
X99355485Y-55669095D01*
X99403104Y-55811952D01*
X99403104Y-55907190D01*
X99355485Y-56050047D01*
X99260247Y-56145285D01*
X99165009Y-56192904D01*
X98974533Y-56240523D01*
X98831676Y-56240523D01*
X98641200Y-56192904D01*
X98545962Y-56145285D01*
X98450724Y-56050047D01*
X98403104Y-55907190D01*
X98403104Y-55811952D01*
X98450724Y-55669095D01*
X98498343Y-55621476D01*
X99403104Y-54669095D02*
X99403104Y-55240523D01*
X99403104Y-54954809D02*
X98403104Y-54954809D01*
X98545962Y-55050047D01*
X98641200Y-55145285D01*
X98688819Y-55240523D01*
X98831676Y-54097666D02*
X98784057Y-54192904D01*
X98736438Y-54240523D01*
X98641200Y-54288142D01*
X98593581Y-54288142D01*
X98498343Y-54240523D01*
X98450724Y-54192904D01*
X98403104Y-54097666D01*
X98403104Y-53907190D01*
X98450724Y-53811952D01*
X98498343Y-53764333D01*
X98593581Y-53716714D01*
X98641200Y-53716714D01*
X98736438Y-53764333D01*
X98784057Y-53811952D01*
X98831676Y-53907190D01*
X98831676Y-54097666D01*
X98879295Y-54192904D01*
X98926914Y-54240523D01*
X99022152Y-54288142D01*
X99212628Y-54288142D01*
X99307866Y-54240523D01*
X99355485Y-54192904D01*
X99403104Y-54097666D01*
X99403104Y-53907190D01*
X99355485Y-53811952D01*
X99307866Y-53764333D01*
X99212628Y-53716714D01*
X99022152Y-53716714D01*
X98926914Y-53764333D01*
X98879295Y-53811952D01*
X98831676Y-53907190D01*
X65433333Y-66157142D02*
X65385714Y-66204761D01*
X65242857Y-66252380D01*
X65147619Y-66252380D01*
X65004761Y-66204761D01*
X64909523Y-66109523D01*
X64861904Y-66014285D01*
X64814285Y-65823809D01*
X64814285Y-65680952D01*
X64861904Y-65490476D01*
X64909523Y-65395238D01*
X65004761Y-65300000D01*
X65147619Y-65252380D01*
X65242857Y-65252380D01*
X65385714Y-65300000D01*
X65433333Y-65347619D01*
X66338095Y-65252380D02*
X65861904Y-65252380D01*
X65814285Y-65728571D01*
X65861904Y-65680952D01*
X65957142Y-65633333D01*
X66195238Y-65633333D01*
X66290476Y-65680952D01*
X66338095Y-65728571D01*
X66385714Y-65823809D01*
X66385714Y-66061904D01*
X66338095Y-66157142D01*
X66290476Y-66204761D01*
X66195238Y-66252380D01*
X65957142Y-66252380D01*
X65861904Y-66204761D01*
X65814285Y-66157142D01*
X88168104Y-79236476D02*
X87691914Y-79569809D01*
X88168104Y-79807904D02*
X87168104Y-79807904D01*
X87168104Y-79426952D01*
X87215724Y-79331714D01*
X87263343Y-79284095D01*
X87358581Y-79236476D01*
X87501438Y-79236476D01*
X87596676Y-79284095D01*
X87644295Y-79331714D01*
X87691914Y-79426952D01*
X87691914Y-79807904D01*
X87263343Y-78855523D02*
X87215724Y-78807904D01*
X87168104Y-78712666D01*
X87168104Y-78474571D01*
X87215724Y-78379333D01*
X87263343Y-78331714D01*
X87358581Y-78284095D01*
X87453819Y-78284095D01*
X87596676Y-78331714D01*
X88168104Y-78903142D01*
X88168104Y-78284095D01*
X87263343Y-77903142D02*
X87215724Y-77855523D01*
X87168104Y-77760285D01*
X87168104Y-77522190D01*
X87215724Y-77426952D01*
X87263343Y-77379333D01*
X87358581Y-77331714D01*
X87453819Y-77331714D01*
X87596676Y-77379333D01*
X88168104Y-77950761D01*
X88168104Y-77331714D01*
X56652380Y-78249238D02*
X56176190Y-78582571D01*
X56652380Y-78820666D02*
X55652380Y-78820666D01*
X55652380Y-78439714D01*
X55700000Y-78344476D01*
X55747619Y-78296857D01*
X55842857Y-78249238D01*
X55985714Y-78249238D01*
X56080952Y-78296857D01*
X56128571Y-78344476D01*
X56176190Y-78439714D01*
X56176190Y-78820666D01*
X55747619Y-77868285D02*
X55700000Y-77820666D01*
X55652380Y-77725428D01*
X55652380Y-77487333D01*
X55700000Y-77392095D01*
X55747619Y-77344476D01*
X55842857Y-77296857D01*
X55938095Y-77296857D01*
X56080952Y-77344476D01*
X56652380Y-77915904D01*
X56652380Y-77296857D01*
X56652380Y-76344476D02*
X56652380Y-76915904D01*
X56652380Y-76630190D02*
X55652380Y-76630190D01*
X55795238Y-76725428D01*
X55890476Y-76820666D01*
X55938095Y-76915904D01*
X93201904Y-80252380D02*
X93201904Y-79252380D01*
X93440000Y-79252380D01*
X93582857Y-79300000D01*
X93678095Y-79395238D01*
X93725714Y-79490476D01*
X93773333Y-79680952D01*
X93773333Y-79823809D01*
X93725714Y-80014285D01*
X93678095Y-80109523D01*
X93582857Y-80204761D01*
X93440000Y-80252380D01*
X93201904Y-80252380D01*
X94630476Y-79585714D02*
X94630476Y-80252380D01*
X94392380Y-79204761D02*
X94154285Y-79919047D01*
X94773333Y-79919047D01*
X73761904Y-80452380D02*
X73761904Y-79452380D01*
X74000000Y-79452380D01*
X74142857Y-79500000D01*
X74238095Y-79595238D01*
X74285714Y-79690476D01*
X74333333Y-79880952D01*
X74333333Y-80023809D01*
X74285714Y-80214285D01*
X74238095Y-80309523D01*
X74142857Y-80404761D01*
X74000000Y-80452380D01*
X73761904Y-80452380D01*
X74666666Y-79452380D02*
X75285714Y-79452380D01*
X74952380Y-79833333D01*
X75095238Y-79833333D01*
X75190476Y-79880952D01*
X75238095Y-79928571D01*
X75285714Y-80023809D01*
X75285714Y-80261904D01*
X75238095Y-80357142D01*
X75190476Y-80404761D01*
X75095238Y-80452380D01*
X74809523Y-80452380D01*
X74714285Y-80404761D01*
X74666666Y-80357142D01*
X56261904Y-80452380D02*
X56261904Y-79452380D01*
X56500000Y-79452380D01*
X56642857Y-79500000D01*
X56738095Y-79595238D01*
X56785714Y-79690476D01*
X56833333Y-79880952D01*
X56833333Y-80023809D01*
X56785714Y-80214285D01*
X56738095Y-80309523D01*
X56642857Y-80404761D01*
X56500000Y-80452380D01*
X56261904Y-80452380D01*
X57214285Y-79547619D02*
X57261904Y-79500000D01*
X57357142Y-79452380D01*
X57595238Y-79452380D01*
X57690476Y-79500000D01*
X57738095Y-79547619D01*
X57785714Y-79642857D01*
X57785714Y-79738095D01*
X57738095Y-79880952D01*
X57166666Y-80452380D01*
X57785714Y-80452380D01*
X98652380Y-60561904D02*
X99461904Y-60561904D01*
X99557142Y-60514285D01*
X99604761Y-60466666D01*
X99652380Y-60371428D01*
X99652380Y-60180952D01*
X99604761Y-60085714D01*
X99557142Y-60038095D01*
X99461904Y-59990476D01*
X98652380Y-59990476D01*
X98652380Y-59609523D02*
X98652380Y-58990476D01*
X99033333Y-59323809D01*
X99033333Y-59180952D01*
X99080952Y-59085714D01*
X99128571Y-59038095D01*
X99223809Y-58990476D01*
X99461904Y-58990476D01*
X99557142Y-59038095D01*
X99604761Y-59085714D01*
X99652380Y-59180952D01*
X99652380Y-59466666D01*
X99604761Y-59561904D01*
X99557142Y-59609523D01*
X73452380Y-57761904D02*
X74261904Y-57761904D01*
X74357142Y-57714285D01*
X74404761Y-57666666D01*
X74452380Y-57571428D01*
X74452380Y-57380952D01*
X74404761Y-57285714D01*
X74357142Y-57238095D01*
X74261904Y-57190476D01*
X73452380Y-57190476D01*
X73547619Y-56761904D02*
X73500000Y-56714285D01*
X73452380Y-56619047D01*
X73452380Y-56380952D01*
X73500000Y-56285714D01*
X73547619Y-56238095D01*
X73642857Y-56190476D01*
X73738095Y-56190476D01*
X73880952Y-56238095D01*
X74452380Y-56809523D01*
X74452380Y-56190476D01*
X71864476Y-65701504D02*
X71864476Y-66511028D01*
X71912095Y-66606266D01*
X71959714Y-66653885D01*
X72054952Y-66701504D01*
X72245428Y-66701504D01*
X72340666Y-66653885D01*
X72388285Y-66606266D01*
X72435904Y-66511028D01*
X72435904Y-65701504D01*
X73435904Y-66701504D02*
X72864476Y-66701504D01*
X73150190Y-66701504D02*
X73150190Y-65701504D01*
X73054952Y-65844362D01*
X72959714Y-65939600D01*
X72864476Y-65987219D01*
X79792380Y-62795238D02*
X79316190Y-63128571D01*
X79792380Y-63366666D02*
X78792380Y-63366666D01*
X78792380Y-62985714D01*
X78840000Y-62890476D01*
X78887619Y-62842857D01*
X78982857Y-62795238D01*
X79125714Y-62795238D01*
X79220952Y-62842857D01*
X79268571Y-62890476D01*
X79316190Y-62985714D01*
X79316190Y-63366666D01*
X78792380Y-62509523D02*
X79792380Y-62176190D01*
X78792380Y-61842857D01*
X79792380Y-60985714D02*
X79792380Y-61557142D01*
X79792380Y-61271428D02*
X78792380Y-61271428D01*
X78935238Y-61366666D01*
X79030476Y-61461904D01*
X79078095Y-61557142D01*
X102157142Y-68052380D02*
X101823809Y-67576190D01*
X101585714Y-68052380D02*
X101585714Y-67052380D01*
X101966666Y-67052380D01*
X102061904Y-67100000D01*
X102109523Y-67147619D01*
X102157142Y-67242857D01*
X102157142Y-67385714D01*
X102109523Y-67480952D01*
X102061904Y-67528571D01*
X101966666Y-67576190D01*
X101585714Y-67576190D01*
X102538095Y-67147619D02*
X102585714Y-67100000D01*
X102680952Y-67052380D01*
X102919047Y-67052380D01*
X103014285Y-67100000D01*
X103061904Y-67147619D01*
X103109523Y-67242857D01*
X103109523Y-67338095D01*
X103061904Y-67480952D01*
X102490476Y-68052380D01*
X103109523Y-68052380D01*
X103728571Y-67052380D02*
X103823809Y-67052380D01*
X103919047Y-67100000D01*
X103966666Y-67147619D01*
X104014285Y-67242857D01*
X104061904Y-67433333D01*
X104061904Y-67671428D01*
X104014285Y-67861904D01*
X103966666Y-67957142D01*
X103919047Y-68004761D01*
X103823809Y-68052380D01*
X103728571Y-68052380D01*
X103633333Y-68004761D01*
X103585714Y-67957142D01*
X103538095Y-67861904D01*
X103490476Y-67671428D01*
X103490476Y-67433333D01*
X103538095Y-67242857D01*
X103585714Y-67147619D01*
X103633333Y-67100000D01*
X103728571Y-67052380D01*
X105652380Y-71442857D02*
X105176190Y-71776190D01*
X105652380Y-72014285D02*
X104652380Y-72014285D01*
X104652380Y-71633333D01*
X104700000Y-71538095D01*
X104747619Y-71490476D01*
X104842857Y-71442857D01*
X104985714Y-71442857D01*
X105080952Y-71490476D01*
X105128571Y-71538095D01*
X105176190Y-71633333D01*
X105176190Y-72014285D01*
X105652380Y-70490476D02*
X105652380Y-71061904D01*
X105652380Y-70776190D02*
X104652380Y-70776190D01*
X104795238Y-70871428D01*
X104890476Y-70966666D01*
X104938095Y-71061904D01*
X105652380Y-70014285D02*
X105652380Y-69823809D01*
X105604761Y-69728571D01*
X105557142Y-69680952D01*
X105414285Y-69585714D01*
X105223809Y-69538095D01*
X104842857Y-69538095D01*
X104747619Y-69585714D01*
X104700000Y-69633333D01*
X104652380Y-69728571D01*
X104652380Y-69919047D01*
X104700000Y-70014285D01*
X104747619Y-70061904D01*
X104842857Y-70109523D01*
X105080952Y-70109523D01*
X105176190Y-70061904D01*
X105223809Y-70014285D01*
X105271428Y-69919047D01*
X105271428Y-69728571D01*
X105223809Y-69633333D01*
X105176190Y-69585714D01*
X105080952Y-69538095D01*
X102157142Y-74452380D02*
X101823809Y-73976190D01*
X101585714Y-74452380D02*
X101585714Y-73452380D01*
X101966666Y-73452380D01*
X102061904Y-73500000D01*
X102109523Y-73547619D01*
X102157142Y-73642857D01*
X102157142Y-73785714D01*
X102109523Y-73880952D01*
X102061904Y-73928571D01*
X101966666Y-73976190D01*
X101585714Y-73976190D01*
X103109523Y-74452380D02*
X102538095Y-74452380D01*
X102823809Y-74452380D02*
X102823809Y-73452380D01*
X102728571Y-73595238D01*
X102633333Y-73690476D01*
X102538095Y-73738095D01*
X103680952Y-73880952D02*
X103585714Y-73833333D01*
X103538095Y-73785714D01*
X103490476Y-73690476D01*
X103490476Y-73642857D01*
X103538095Y-73547619D01*
X103585714Y-73500000D01*
X103680952Y-73452380D01*
X103871428Y-73452380D01*
X103966666Y-73500000D01*
X104014285Y-73547619D01*
X104061904Y-73642857D01*
X104061904Y-73690476D01*
X104014285Y-73785714D01*
X103966666Y-73833333D01*
X103871428Y-73880952D01*
X103680952Y-73880952D01*
X103585714Y-73928571D01*
X103538095Y-73976190D01*
X103490476Y-74071428D01*
X103490476Y-74261904D01*
X103538095Y-74357142D01*
X103585714Y-74404761D01*
X103680952Y-74452380D01*
X103871428Y-74452380D01*
X103966666Y-74404761D01*
X104014285Y-74357142D01*
X104061904Y-74261904D01*
X104061904Y-74071428D01*
X104014285Y-73976190D01*
X103966666Y-73928571D01*
X103871428Y-73880952D01*
X91852380Y-74442857D02*
X91376190Y-74776190D01*
X91852380Y-75014285D02*
X90852380Y-75014285D01*
X90852380Y-74633333D01*
X90900000Y-74538095D01*
X90947619Y-74490476D01*
X91042857Y-74442857D01*
X91185714Y-74442857D01*
X91280952Y-74490476D01*
X91328571Y-74538095D01*
X91376190Y-74633333D01*
X91376190Y-75014285D01*
X91852380Y-73490476D02*
X91852380Y-74061904D01*
X91852380Y-73776190D02*
X90852380Y-73776190D01*
X90995238Y-73871428D01*
X91090476Y-73966666D01*
X91138095Y-74061904D01*
X90852380Y-73157142D02*
X90852380Y-72490476D01*
X91852380Y-72919047D01*
X93957142Y-66452380D02*
X93623809Y-65976190D01*
X93385714Y-66452380D02*
X93385714Y-65452380D01*
X93766666Y-65452380D01*
X93861904Y-65500000D01*
X93909523Y-65547619D01*
X93957142Y-65642857D01*
X93957142Y-65785714D01*
X93909523Y-65880952D01*
X93861904Y-65928571D01*
X93766666Y-65976190D01*
X93385714Y-65976190D01*
X94909523Y-66452380D02*
X94338095Y-66452380D01*
X94623809Y-66452380D02*
X94623809Y-65452380D01*
X94528571Y-65595238D01*
X94433333Y-65690476D01*
X94338095Y-65738095D01*
X95766666Y-65452380D02*
X95576190Y-65452380D01*
X95480952Y-65500000D01*
X95433333Y-65547619D01*
X95338095Y-65690476D01*
X95290476Y-65880952D01*
X95290476Y-66261904D01*
X95338095Y-66357142D01*
X95385714Y-66404761D01*
X95480952Y-66452380D01*
X95671428Y-66452380D01*
X95766666Y-66404761D01*
X95814285Y-66357142D01*
X95861904Y-66261904D01*
X95861904Y-66023809D01*
X95814285Y-65928571D01*
X95766666Y-65880952D01*
X95671428Y-65833333D01*
X95480952Y-65833333D01*
X95385714Y-65880952D01*
X95338095Y-65928571D01*
X95290476Y-66023809D01*
X95157142Y-54452380D02*
X94823809Y-53976190D01*
X94585714Y-54452380D02*
X94585714Y-53452380D01*
X94966666Y-53452380D01*
X95061904Y-53500000D01*
X95109523Y-53547619D01*
X95157142Y-53642857D01*
X95157142Y-53785714D01*
X95109523Y-53880952D01*
X95061904Y-53928571D01*
X94966666Y-53976190D01*
X94585714Y-53976190D01*
X96109523Y-54452380D02*
X95538095Y-54452380D01*
X95823809Y-54452380D02*
X95823809Y-53452380D01*
X95728571Y-53595238D01*
X95633333Y-53690476D01*
X95538095Y-53738095D01*
X97014285Y-53452380D02*
X96538095Y-53452380D01*
X96490476Y-53928571D01*
X96538095Y-53880952D01*
X96633333Y-53833333D01*
X96871428Y-53833333D01*
X96966666Y-53880952D01*
X97014285Y-53928571D01*
X97061904Y-54023809D01*
X97061904Y-54261904D01*
X97014285Y-54357142D01*
X96966666Y-54404761D01*
X96871428Y-54452380D01*
X96633333Y-54452380D01*
X96538095Y-54404761D01*
X96490476Y-54357142D01*
X90452380Y-60242857D02*
X89976190Y-60576190D01*
X90452380Y-60814285D02*
X89452380Y-60814285D01*
X89452380Y-60433333D01*
X89500000Y-60338095D01*
X89547619Y-60290476D01*
X89642857Y-60242857D01*
X89785714Y-60242857D01*
X89880952Y-60290476D01*
X89928571Y-60338095D01*
X89976190Y-60433333D01*
X89976190Y-60814285D01*
X90452380Y-59290476D02*
X90452380Y-59861904D01*
X90452380Y-59576190D02*
X89452380Y-59576190D01*
X89595238Y-59671428D01*
X89690476Y-59766666D01*
X89738095Y-59861904D01*
X89785714Y-58433333D02*
X90452380Y-58433333D01*
X89404761Y-58671428D02*
X90119047Y-58909523D01*
X90119047Y-58290476D01*
X95550761Y-65336656D02*
X95217428Y-64860466D01*
X94979333Y-65336656D02*
X94979333Y-64336656D01*
X95360285Y-64336656D01*
X95455523Y-64384276D01*
X95503142Y-64431895D01*
X95550761Y-64527133D01*
X95550761Y-64669990D01*
X95503142Y-64765228D01*
X95455523Y-64812847D01*
X95360285Y-64860466D01*
X94979333Y-64860466D01*
X96503142Y-65336656D02*
X95931714Y-65336656D01*
X96217428Y-65336656D02*
X96217428Y-64336656D01*
X96122190Y-64479514D01*
X96026952Y-64574752D01*
X95931714Y-64622371D01*
X96836476Y-64336656D02*
X97455523Y-64336656D01*
X97122190Y-64717609D01*
X97265047Y-64717609D01*
X97360285Y-64765228D01*
X97407904Y-64812847D01*
X97455523Y-64908085D01*
X97455523Y-65146180D01*
X97407904Y-65241418D01*
X97360285Y-65289037D01*
X97265047Y-65336656D01*
X96979333Y-65336656D01*
X96884095Y-65289037D01*
X96836476Y-65241418D01*
X87852380Y-59842857D02*
X87376190Y-60176190D01*
X87852380Y-60414285D02*
X86852380Y-60414285D01*
X86852380Y-60033333D01*
X86900000Y-59938095D01*
X86947619Y-59890476D01*
X87042857Y-59842857D01*
X87185714Y-59842857D01*
X87280952Y-59890476D01*
X87328571Y-59938095D01*
X87376190Y-60033333D01*
X87376190Y-60414285D01*
X87852380Y-58890476D02*
X87852380Y-59461904D01*
X87852380Y-59176190D02*
X86852380Y-59176190D01*
X86995238Y-59271428D01*
X87090476Y-59366666D01*
X87138095Y-59461904D01*
X86947619Y-58509523D02*
X86900000Y-58461904D01*
X86852380Y-58366666D01*
X86852380Y-58128571D01*
X86900000Y-58033333D01*
X86947619Y-57985714D01*
X87042857Y-57938095D01*
X87138095Y-57938095D01*
X87280952Y-57985714D01*
X87852380Y-58557142D01*
X87852380Y-57938095D01*
X87563523Y-55168104D02*
X87230190Y-54691914D01*
X86992095Y-55168104D02*
X86992095Y-54168104D01*
X87373047Y-54168104D01*
X87468285Y-54215724D01*
X87515904Y-54263343D01*
X87563523Y-54358581D01*
X87563523Y-54501438D01*
X87515904Y-54596676D01*
X87468285Y-54644295D01*
X87373047Y-54691914D01*
X86992095Y-54691914D01*
X88515904Y-55168104D02*
X87944476Y-55168104D01*
X88230190Y-55168104D02*
X88230190Y-54168104D01*
X88134952Y-54310962D01*
X88039714Y-54406200D01*
X87944476Y-54453819D01*
X89468285Y-55168104D02*
X88896857Y-55168104D01*
X89182571Y-55168104D02*
X89182571Y-54168104D01*
X89087333Y-54310962D01*
X88992095Y-54406200D01*
X88896857Y-54453819D01*
X70702380Y-79232857D02*
X70226190Y-79566190D01*
X70702380Y-79804285D02*
X69702380Y-79804285D01*
X69702380Y-79423333D01*
X69750000Y-79328095D01*
X69797619Y-79280476D01*
X69892857Y-79232857D01*
X70035714Y-79232857D01*
X70130952Y-79280476D01*
X70178571Y-79328095D01*
X70226190Y-79423333D01*
X70226190Y-79804285D01*
X70702380Y-78280476D02*
X70702380Y-78851904D01*
X70702380Y-78566190D02*
X69702380Y-78566190D01*
X69845238Y-78661428D01*
X69940476Y-78756666D01*
X69988095Y-78851904D01*
X69702380Y-77661428D02*
X69702380Y-77566190D01*
X69750000Y-77470952D01*
X69797619Y-77423333D01*
X69892857Y-77375714D01*
X70083333Y-77328095D01*
X70321428Y-77328095D01*
X70511904Y-77375714D01*
X70607142Y-77423333D01*
X70654761Y-77470952D01*
X70702380Y-77566190D01*
X70702380Y-77661428D01*
X70654761Y-77756666D01*
X70607142Y-77804285D01*
X70511904Y-77851904D01*
X70321428Y-77899523D01*
X70083333Y-77899523D01*
X69892857Y-77851904D01*
X69797619Y-77804285D01*
X69750000Y-77756666D01*
X69702380Y-77661428D01*
X77136656Y-63373047D02*
X76660466Y-63706381D01*
X77136656Y-63944476D02*
X76136656Y-63944476D01*
X76136656Y-63563523D01*
X76184276Y-63468285D01*
X76231895Y-63420666D01*
X76327133Y-63373047D01*
X76469990Y-63373047D01*
X76565228Y-63420666D01*
X76612847Y-63468285D01*
X76660466Y-63563523D01*
X76660466Y-63944476D01*
X77136656Y-62896857D02*
X77136656Y-62706381D01*
X77089037Y-62611142D01*
X77041418Y-62563523D01*
X76898561Y-62468285D01*
X76708085Y-62420666D01*
X76327133Y-62420666D01*
X76231895Y-62468285D01*
X76184276Y-62515904D01*
X76136656Y-62611142D01*
X76136656Y-62801619D01*
X76184276Y-62896857D01*
X76231895Y-62944476D01*
X76327133Y-62992095D01*
X76565228Y-62992095D01*
X76660466Y-62944476D01*
X76708085Y-62896857D01*
X76755704Y-62801619D01*
X76755704Y-62611142D01*
X76708085Y-62515904D01*
X76660466Y-62468285D01*
X76565228Y-62420666D01*
X70968104Y-64160285D02*
X70491914Y-64493619D01*
X70968104Y-64731714D02*
X69968104Y-64731714D01*
X69968104Y-64350761D01*
X70015724Y-64255523D01*
X70063343Y-64207904D01*
X70158581Y-64160285D01*
X70301438Y-64160285D01*
X70396676Y-64207904D01*
X70444295Y-64255523D01*
X70491914Y-64350761D01*
X70491914Y-64731714D01*
X70396676Y-63588857D02*
X70349057Y-63684095D01*
X70301438Y-63731714D01*
X70206200Y-63779333D01*
X70158581Y-63779333D01*
X70063343Y-63731714D01*
X70015724Y-63684095D01*
X69968104Y-63588857D01*
X69968104Y-63398380D01*
X70015724Y-63303142D01*
X70063343Y-63255523D01*
X70158581Y-63207904D01*
X70206200Y-63207904D01*
X70301438Y-63255523D01*
X70349057Y-63303142D01*
X70396676Y-63398380D01*
X70396676Y-63588857D01*
X70444295Y-63684095D01*
X70491914Y-63731714D01*
X70587152Y-63779333D01*
X70777628Y-63779333D01*
X70872866Y-63731714D01*
X70920485Y-63684095D01*
X70968104Y-63588857D01*
X70968104Y-63398380D01*
X70920485Y-63303142D01*
X70872866Y-63255523D01*
X70777628Y-63207904D01*
X70587152Y-63207904D01*
X70491914Y-63255523D01*
X70444295Y-63303142D01*
X70396676Y-63398380D01*
X67252380Y-63856666D02*
X66776190Y-64190000D01*
X67252380Y-64428095D02*
X66252380Y-64428095D01*
X66252380Y-64047142D01*
X66300000Y-63951904D01*
X66347619Y-63904285D01*
X66442857Y-63856666D01*
X66585714Y-63856666D01*
X66680952Y-63904285D01*
X66728571Y-63951904D01*
X66776190Y-64047142D01*
X66776190Y-64428095D01*
X66252380Y-63523333D02*
X66252380Y-62856666D01*
X67252380Y-63285238D01*
X69168104Y-54360285D02*
X68691914Y-54693619D01*
X69168104Y-54931714D02*
X68168104Y-54931714D01*
X68168104Y-54550761D01*
X68215724Y-54455523D01*
X68263343Y-54407904D01*
X68358581Y-54360285D01*
X68501438Y-54360285D01*
X68596676Y-54407904D01*
X68644295Y-54455523D01*
X68691914Y-54550761D01*
X68691914Y-54931714D01*
X68168104Y-53503142D02*
X68168104Y-53693619D01*
X68215724Y-53788857D01*
X68263343Y-53836476D01*
X68406200Y-53931714D01*
X68596676Y-53979333D01*
X68977628Y-53979333D01*
X69072866Y-53931714D01*
X69120485Y-53884095D01*
X69168104Y-53788857D01*
X69168104Y-53598380D01*
X69120485Y-53503142D01*
X69072866Y-53455523D01*
X68977628Y-53407904D01*
X68739533Y-53407904D01*
X68644295Y-53455523D01*
X68596676Y-53503142D01*
X68549057Y-53598380D01*
X68549057Y-53788857D01*
X68596676Y-53884095D01*
X68644295Y-53931714D01*
X68739533Y-53979333D01*
X88033333Y-70652380D02*
X87700000Y-70176190D01*
X87461904Y-70652380D02*
X87461904Y-69652380D01*
X87842857Y-69652380D01*
X87938095Y-69700000D01*
X87985714Y-69747619D01*
X88033333Y-69842857D01*
X88033333Y-69985714D01*
X87985714Y-70080952D01*
X87938095Y-70128571D01*
X87842857Y-70176190D01*
X87461904Y-70176190D01*
X88938095Y-69652380D02*
X88461904Y-69652380D01*
X88414285Y-70128571D01*
X88461904Y-70080952D01*
X88557142Y-70033333D01*
X88795238Y-70033333D01*
X88890476Y-70080952D01*
X88938095Y-70128571D01*
X88985714Y-70223809D01*
X88985714Y-70461904D01*
X88938095Y-70557142D01*
X88890476Y-70604761D01*
X88795238Y-70652380D01*
X88557142Y-70652380D01*
X88461904Y-70604761D01*
X88414285Y-70557142D01*
X72768104Y-54360285D02*
X72291914Y-54693619D01*
X72768104Y-54931714D02*
X71768104Y-54931714D01*
X71768104Y-54550761D01*
X71815724Y-54455523D01*
X71863343Y-54407904D01*
X71958581Y-54360285D01*
X72101438Y-54360285D01*
X72196676Y-54407904D01*
X72244295Y-54455523D01*
X72291914Y-54550761D01*
X72291914Y-54931714D01*
X72101438Y-53503142D02*
X72768104Y-53503142D01*
X71720485Y-53741238D02*
X72434771Y-53979333D01*
X72434771Y-53360285D01*
X62033333Y-57852380D02*
X61700000Y-57376190D01*
X61461904Y-57852380D02*
X61461904Y-56852380D01*
X61842857Y-56852380D01*
X61938095Y-56900000D01*
X61985714Y-56947619D01*
X62033333Y-57042857D01*
X62033333Y-57185714D01*
X61985714Y-57280952D01*
X61938095Y-57328571D01*
X61842857Y-57376190D01*
X61461904Y-57376190D01*
X62366666Y-56852380D02*
X62985714Y-56852380D01*
X62652380Y-57233333D01*
X62795238Y-57233333D01*
X62890476Y-57280952D01*
X62938095Y-57328571D01*
X62985714Y-57423809D01*
X62985714Y-57661904D01*
X62938095Y-57757142D01*
X62890476Y-57804761D01*
X62795238Y-57852380D01*
X62509523Y-57852380D01*
X62414285Y-57804761D01*
X62366666Y-57757142D01*
X52968104Y-74160285D02*
X52491914Y-74493619D01*
X52968104Y-74731714D02*
X51968104Y-74731714D01*
X51968104Y-74350761D01*
X52015724Y-74255523D01*
X52063343Y-74207904D01*
X52158581Y-74160285D01*
X52301438Y-74160285D01*
X52396676Y-74207904D01*
X52444295Y-74255523D01*
X52491914Y-74350761D01*
X52491914Y-74731714D01*
X52063343Y-73779333D02*
X52015724Y-73731714D01*
X51968104Y-73636476D01*
X51968104Y-73398380D01*
X52015724Y-73303142D01*
X52063343Y-73255523D01*
X52158581Y-73207904D01*
X52253819Y-73207904D01*
X52396676Y-73255523D01*
X52968104Y-73826952D01*
X52968104Y-73207904D01*
X54652380Y-72366666D02*
X54176190Y-72700000D01*
X54652380Y-72938095D02*
X53652380Y-72938095D01*
X53652380Y-72557142D01*
X53700000Y-72461904D01*
X53747619Y-72414285D01*
X53842857Y-72366666D01*
X53985714Y-72366666D01*
X54080952Y-72414285D01*
X54128571Y-72461904D01*
X54176190Y-72557142D01*
X54176190Y-72938095D01*
X54652380Y-71414285D02*
X54652380Y-71985714D01*
X54652380Y-71700000D02*
X53652380Y-71700000D01*
X53795238Y-71795238D01*
X53890476Y-71890476D01*
X53938095Y-71985714D01*
X97147619Y-69895238D02*
X97100000Y-69990476D01*
X97004761Y-70085714D01*
X96861904Y-70228571D01*
X96814285Y-70323809D01*
X96814285Y-70419047D01*
X97052380Y-70371428D02*
X97004761Y-70466666D01*
X96909523Y-70561904D01*
X96719047Y-70609523D01*
X96385714Y-70609523D01*
X96195238Y-70561904D01*
X96100000Y-70466666D01*
X96052380Y-70371428D01*
X96052380Y-70180952D01*
X96100000Y-70085714D01*
X96195238Y-69990476D01*
X96385714Y-69942857D01*
X96719047Y-69942857D01*
X96909523Y-69990476D01*
X97004761Y-70085714D01*
X97052380Y-70180952D01*
X97052380Y-70371428D01*
X96052380Y-69609523D02*
X96052380Y-68990476D01*
X96433333Y-69323809D01*
X96433333Y-69180952D01*
X96480952Y-69085714D01*
X96528571Y-69038095D01*
X96623809Y-68990476D01*
X96861904Y-68990476D01*
X96957142Y-69038095D01*
X97004761Y-69085714D01*
X97052380Y-69180952D01*
X97052380Y-69466666D01*
X97004761Y-69561904D01*
X96957142Y-69609523D01*
X92547619Y-71695238D02*
X92500000Y-71790476D01*
X92404761Y-71885714D01*
X92261904Y-72028571D01*
X92214285Y-72123809D01*
X92214285Y-72219047D01*
X92452380Y-72171428D02*
X92404761Y-72266666D01*
X92309523Y-72361904D01*
X92119047Y-72409523D01*
X91785714Y-72409523D01*
X91595238Y-72361904D01*
X91500000Y-72266666D01*
X91452380Y-72171428D01*
X91452380Y-71980952D01*
X91500000Y-71885714D01*
X91595238Y-71790476D01*
X91785714Y-71742857D01*
X92119047Y-71742857D01*
X92309523Y-71790476D01*
X92404761Y-71885714D01*
X92452380Y-71980952D01*
X92452380Y-72171428D01*
X91547619Y-71361904D02*
X91500000Y-71314285D01*
X91452380Y-71219047D01*
X91452380Y-70980952D01*
X91500000Y-70885714D01*
X91547619Y-70838095D01*
X91642857Y-70790476D01*
X91738095Y-70790476D01*
X91880952Y-70838095D01*
X92452380Y-71409523D01*
X92452380Y-70790476D01*
X57204542Y-71211343D02*
X57109304Y-71163724D01*
X57014066Y-71068485D01*
X56871209Y-70925628D01*
X56775971Y-70878009D01*
X56680733Y-70878009D01*
X56728352Y-71116104D02*
X56633114Y-71068485D01*
X56537876Y-70973247D01*
X56490257Y-70782771D01*
X56490257Y-70449438D01*
X56537876Y-70258962D01*
X56633114Y-70163724D01*
X56728352Y-70116104D01*
X56918828Y-70116104D01*
X57014066Y-70163724D01*
X57109304Y-70258962D01*
X57156923Y-70449438D01*
X57156923Y-70782771D01*
X57109304Y-70973247D01*
X57014066Y-71068485D01*
X56918828Y-71116104D01*
X56728352Y-71116104D01*
X58109304Y-71116104D02*
X57537876Y-71116104D01*
X57823590Y-71116104D02*
X57823590Y-70116104D01*
X57728352Y-70258962D01*
X57633114Y-70354200D01*
X57537876Y-70401819D01*
X91852380Y-78166666D02*
X91852380Y-78642857D01*
X90852380Y-78642857D01*
X91852380Y-77785714D02*
X91852380Y-77595238D01*
X91804761Y-77500000D01*
X91757142Y-77452380D01*
X91614285Y-77357142D01*
X91423809Y-77309523D01*
X91042857Y-77309523D01*
X90947619Y-77357142D01*
X90900000Y-77404761D01*
X90852380Y-77500000D01*
X90852380Y-77690476D01*
X90900000Y-77785714D01*
X90947619Y-77833333D01*
X91042857Y-77880952D01*
X91280952Y-77880952D01*
X91376190Y-77833333D01*
X91423809Y-77785714D01*
X91471428Y-77690476D01*
X91471428Y-77500000D01*
X91423809Y-77404761D01*
X91376190Y-77357142D01*
X91280952Y-77309523D01*
X97336656Y-50373047D02*
X97336656Y-50849238D01*
X96336656Y-50849238D01*
X96765228Y-49896857D02*
X96717609Y-49992095D01*
X96669990Y-50039714D01*
X96574752Y-50087333D01*
X96527133Y-50087333D01*
X96431895Y-50039714D01*
X96384276Y-49992095D01*
X96336656Y-49896857D01*
X96336656Y-49706381D01*
X96384276Y-49611142D01*
X96431895Y-49563523D01*
X96527133Y-49515904D01*
X96574752Y-49515904D01*
X96669990Y-49563523D01*
X96717609Y-49611142D01*
X96765228Y-49706381D01*
X96765228Y-49896857D01*
X96812847Y-49992095D01*
X96860466Y-50039714D01*
X96955704Y-50087333D01*
X97146180Y-50087333D01*
X97241418Y-50039714D01*
X97289037Y-49992095D01*
X97336656Y-49896857D01*
X97336656Y-49706381D01*
X97289037Y-49611142D01*
X97241418Y-49563523D01*
X97146180Y-49515904D01*
X96955704Y-49515904D01*
X96860466Y-49563523D01*
X96812847Y-49611142D01*
X96765228Y-49706381D01*
X84439714Y-72568104D02*
X83963523Y-72568104D01*
X83963523Y-71568104D01*
X84677809Y-71568104D02*
X85344476Y-71568104D01*
X84915904Y-72568104D01*
X62233333Y-72452380D02*
X61757142Y-72452380D01*
X61757142Y-71452380D01*
X62995238Y-71452380D02*
X62804761Y-71452380D01*
X62709523Y-71500000D01*
X62661904Y-71547619D01*
X62566666Y-71690476D01*
X62519047Y-71880952D01*
X62519047Y-72261904D01*
X62566666Y-72357142D01*
X62614285Y-72404761D01*
X62709523Y-72452380D01*
X62900000Y-72452380D01*
X62995238Y-72404761D01*
X63042857Y-72357142D01*
X63090476Y-72261904D01*
X63090476Y-72023809D01*
X63042857Y-71928571D01*
X62995238Y-71880952D01*
X62900000Y-71833333D01*
X62709523Y-71833333D01*
X62614285Y-71880952D01*
X62566666Y-71928571D01*
X62519047Y-72023809D01*
X36252380Y-63566666D02*
X36252380Y-64042857D01*
X35252380Y-64042857D01*
X35252380Y-62757142D02*
X35252380Y-63233333D01*
X35728571Y-63280952D01*
X35680952Y-63233333D01*
X35633333Y-63138095D01*
X35633333Y-62900000D01*
X35680952Y-62804761D01*
X35728571Y-62757142D01*
X35823809Y-62709523D01*
X36061904Y-62709523D01*
X36157142Y-62757142D01*
X36204761Y-62804761D01*
X36252380Y-62900000D01*
X36252380Y-63138095D01*
X36204761Y-63233333D01*
X36157142Y-63280952D01*
X47336656Y-65973047D02*
X47336656Y-66449238D01*
X46336656Y-66449238D01*
X46669990Y-65211142D02*
X47336656Y-65211142D01*
X46289037Y-65449238D02*
X47003323Y-65687333D01*
X47003323Y-65068285D01*
X43936656Y-65973047D02*
X43936656Y-66449238D01*
X42936656Y-66449238D01*
X42936656Y-65734952D02*
X42936656Y-65115904D01*
X43317609Y-65449238D01*
X43317609Y-65306381D01*
X43365228Y-65211142D01*
X43412847Y-65163523D01*
X43508085Y-65115904D01*
X43746180Y-65115904D01*
X43841418Y-65163523D01*
X43889037Y-65211142D01*
X43936656Y-65306381D01*
X43936656Y-65592095D01*
X43889037Y-65687333D01*
X43841418Y-65734952D01*
X30452380Y-66366666D02*
X30452380Y-66842857D01*
X29452380Y-66842857D01*
X29547619Y-66080952D02*
X29500000Y-66033333D01*
X29452380Y-65938095D01*
X29452380Y-65700000D01*
X29500000Y-65604761D01*
X29547619Y-65557142D01*
X29642857Y-65509523D01*
X29738095Y-65509523D01*
X29880952Y-65557142D01*
X30452380Y-66128571D01*
X30452380Y-65509523D01*
X40536656Y-65973047D02*
X40536656Y-66449238D01*
X39536656Y-66449238D01*
X40536656Y-65115904D02*
X40536656Y-65687333D01*
X40536656Y-65401619D02*
X39536656Y-65401619D01*
X39679514Y-65496857D01*
X39774752Y-65592095D01*
X39822371Y-65687333D01*
X113940476Y-94452380D02*
X113940476Y-95166666D01*
X113892857Y-95309523D01*
X113797619Y-95404761D01*
X113654761Y-95452380D01*
X113559523Y-95452380D01*
X114940476Y-95452380D02*
X114369047Y-95452380D01*
X114654761Y-95452380D02*
X114654761Y-94452380D01*
X114559523Y-94595238D01*
X114464285Y-94690476D01*
X114369047Y-94738095D01*
X115559523Y-94452380D02*
X115654761Y-94452380D01*
X115750000Y-94500000D01*
X115797619Y-94547619D01*
X115845238Y-94642857D01*
X115892857Y-94833333D01*
X115892857Y-95071428D01*
X115845238Y-95261904D01*
X115797619Y-95357142D01*
X115750000Y-95404761D01*
X115654761Y-95452380D01*
X115559523Y-95452380D01*
X115464285Y-95404761D01*
X115416666Y-95357142D01*
X115369047Y-95261904D01*
X115321428Y-95071428D01*
X115321428Y-94833333D01*
X115369047Y-94642857D01*
X115416666Y-94547619D01*
X115464285Y-94500000D01*
X115559523Y-94452380D01*
X100416666Y-94452380D02*
X100416666Y-95166666D01*
X100369047Y-95309523D01*
X100273809Y-95404761D01*
X100130952Y-95452380D01*
X100035714Y-95452380D01*
X101035714Y-94880952D02*
X100940476Y-94833333D01*
X100892857Y-94785714D01*
X100845238Y-94690476D01*
X100845238Y-94642857D01*
X100892857Y-94547619D01*
X100940476Y-94500000D01*
X101035714Y-94452380D01*
X101226190Y-94452380D01*
X101321428Y-94500000D01*
X101369047Y-94547619D01*
X101416666Y-94642857D01*
X101416666Y-94690476D01*
X101369047Y-94785714D01*
X101321428Y-94833333D01*
X101226190Y-94880952D01*
X101035714Y-94880952D01*
X100940476Y-94928571D01*
X100892857Y-94976190D01*
X100845238Y-95071428D01*
X100845238Y-95261904D01*
X100892857Y-95357142D01*
X100940476Y-95404761D01*
X101035714Y-95452380D01*
X101226190Y-95452380D01*
X101321428Y-95404761D01*
X101369047Y-95357142D01*
X101416666Y-95261904D01*
X101416666Y-95071428D01*
X101369047Y-94976190D01*
X101321428Y-94928571D01*
X101226190Y-94880952D01*
X80916666Y-94452380D02*
X80916666Y-95166666D01*
X80869047Y-95309523D01*
X80773809Y-95404761D01*
X80630952Y-95452380D01*
X80535714Y-95452380D01*
X81821428Y-94452380D02*
X81630952Y-94452380D01*
X81535714Y-94500000D01*
X81488095Y-94547619D01*
X81392857Y-94690476D01*
X81345238Y-94880952D01*
X81345238Y-95261904D01*
X81392857Y-95357142D01*
X81440476Y-95404761D01*
X81535714Y-95452380D01*
X81726190Y-95452380D01*
X81821428Y-95404761D01*
X81869047Y-95357142D01*
X81916666Y-95261904D01*
X81916666Y-95023809D01*
X81869047Y-94928571D01*
X81821428Y-94880952D01*
X81726190Y-94833333D01*
X81535714Y-94833333D01*
X81440476Y-94880952D01*
X81392857Y-94928571D01*
X81345238Y-95023809D01*
X63416666Y-94452380D02*
X63416666Y-95166666D01*
X63369047Y-95309523D01*
X63273809Y-95404761D01*
X63130952Y-95452380D01*
X63035714Y-95452380D01*
X64321428Y-94785714D02*
X64321428Y-95452380D01*
X64083333Y-94404761D02*
X63845238Y-95119047D01*
X64464285Y-95119047D01*
X35666666Y-96952380D02*
X35666666Y-97666666D01*
X35619047Y-97809523D01*
X35523809Y-97904761D01*
X35380952Y-97952380D01*
X35285714Y-97952380D01*
X36095238Y-97047619D02*
X36142857Y-97000000D01*
X36238095Y-96952380D01*
X36476190Y-96952380D01*
X36571428Y-97000000D01*
X36619047Y-97047619D01*
X36666666Y-97142857D01*
X36666666Y-97238095D01*
X36619047Y-97380952D01*
X36047619Y-97952380D01*
X36666666Y-97952380D01*
X109212847Y-54439714D02*
X109212847Y-54773047D01*
X109736656Y-54773047D02*
X108736656Y-54773047D01*
X108736656Y-54296857D01*
X109212847Y-53582571D02*
X109260466Y-53439714D01*
X109308085Y-53392095D01*
X109403323Y-53344476D01*
X109546180Y-53344476D01*
X109641418Y-53392095D01*
X109689037Y-53439714D01*
X109736656Y-53534952D01*
X109736656Y-53915904D01*
X108736656Y-53915904D01*
X108736656Y-53582571D01*
X108784276Y-53487333D01*
X108831895Y-53439714D01*
X108927133Y-53392095D01*
X109022371Y-53392095D01*
X109117609Y-53439714D01*
X109165228Y-53487333D01*
X109212847Y-53582571D01*
X109212847Y-53915904D01*
X109736656Y-52392095D02*
X109736656Y-52963523D01*
X109736656Y-52677809D02*
X108736656Y-52677809D01*
X108879514Y-52773047D01*
X108974752Y-52868285D01*
X109022371Y-52963523D01*
X60052380Y-69338095D02*
X59052380Y-69338095D01*
X59052380Y-69100000D01*
X59100000Y-68957142D01*
X59195238Y-68861904D01*
X59290476Y-68814285D01*
X59480952Y-68766666D01*
X59623809Y-68766666D01*
X59814285Y-68814285D01*
X59909523Y-68861904D01*
X60004761Y-68957142D01*
X60052380Y-69100000D01*
X60052380Y-69338095D01*
X60052380Y-67814285D02*
X60052380Y-68385714D01*
X60052380Y-68100000D02*
X59052380Y-68100000D01*
X59195238Y-68195238D01*
X59290476Y-68290476D01*
X59338095Y-68385714D01*
X96957142Y-75642857D02*
X97004761Y-75690476D01*
X97052380Y-75833333D01*
X97052380Y-75928571D01*
X97004761Y-76071428D01*
X96909523Y-76166666D01*
X96814285Y-76214285D01*
X96623809Y-76261904D01*
X96480952Y-76261904D01*
X96290476Y-76214285D01*
X96195238Y-76166666D01*
X96100000Y-76071428D01*
X96052380Y-75928571D01*
X96052380Y-75833333D01*
X96100000Y-75690476D01*
X96147619Y-75642857D01*
X97052380Y-74690476D02*
X97052380Y-75261904D01*
X97052380Y-74976190D02*
X96052380Y-74976190D01*
X96195238Y-75071428D01*
X96290476Y-75166666D01*
X96338095Y-75261904D01*
X97052380Y-74214285D02*
X97052380Y-74023809D01*
X97004761Y-73928571D01*
X96957142Y-73880952D01*
X96814285Y-73785714D01*
X96623809Y-73738095D01*
X96242857Y-73738095D01*
X96147619Y-73785714D01*
X96100000Y-73833333D01*
X96052380Y-73928571D01*
X96052380Y-74119047D01*
X96100000Y-74214285D01*
X96147619Y-74261904D01*
X96242857Y-74309523D01*
X96480952Y-74309523D01*
X96576190Y-74261904D01*
X96623809Y-74214285D01*
X96671428Y-74119047D01*
X96671428Y-73928571D01*
X96623809Y-73833333D01*
X96576190Y-73785714D01*
X96480952Y-73738095D01*
X103272866Y-55036476D02*
X103320485Y-55084095D01*
X103368104Y-55226952D01*
X103368104Y-55322190D01*
X103320485Y-55465047D01*
X103225247Y-55560285D01*
X103130009Y-55607904D01*
X102939533Y-55655523D01*
X102796676Y-55655523D01*
X102606200Y-55607904D01*
X102510962Y-55560285D01*
X102415724Y-55465047D01*
X102368104Y-55322190D01*
X102368104Y-55226952D01*
X102415724Y-55084095D01*
X102463343Y-55036476D01*
X103368104Y-54084095D02*
X103368104Y-54655523D01*
X103368104Y-54369809D02*
X102368104Y-54369809D01*
X102510962Y-54465047D01*
X102606200Y-54560285D01*
X102653819Y-54655523D01*
X102368104Y-53750761D02*
X102368104Y-53084095D01*
X103368104Y-53512666D01*
X90163523Y-61872866D02*
X90115904Y-61920485D01*
X89973047Y-61968104D01*
X89877809Y-61968104D01*
X89734952Y-61920485D01*
X89639714Y-61825247D01*
X89592095Y-61730009D01*
X89544476Y-61539533D01*
X89544476Y-61396676D01*
X89592095Y-61206200D01*
X89639714Y-61110962D01*
X89734952Y-61015724D01*
X89877809Y-60968104D01*
X89973047Y-60968104D01*
X90115904Y-61015724D01*
X90163523Y-61063343D01*
X91115904Y-61968104D02*
X90544476Y-61968104D01*
X90830190Y-61968104D02*
X90830190Y-60968104D01*
X90734952Y-61110962D01*
X90639714Y-61206200D01*
X90544476Y-61253819D01*
X91973047Y-60968104D02*
X91782571Y-60968104D01*
X91687333Y-61015724D01*
X91639714Y-61063343D01*
X91544476Y-61206200D01*
X91496857Y-61396676D01*
X91496857Y-61777628D01*
X91544476Y-61872866D01*
X91592095Y-61920485D01*
X91687333Y-61968104D01*
X91877809Y-61968104D01*
X91973047Y-61920485D01*
X92020666Y-61872866D01*
X92068285Y-61777628D01*
X92068285Y-61539533D01*
X92020666Y-61444295D01*
X91973047Y-61396676D01*
X91877809Y-61349057D01*
X91687333Y-61349057D01*
X91592095Y-61396676D01*
X91544476Y-61444295D01*
X91496857Y-61539533D01*
X81757142Y-53157142D02*
X81709523Y-53204761D01*
X81566666Y-53252380D01*
X81471428Y-53252380D01*
X81328571Y-53204761D01*
X81233333Y-53109523D01*
X81185714Y-53014285D01*
X81138095Y-52823809D01*
X81138095Y-52680952D01*
X81185714Y-52490476D01*
X81233333Y-52395238D01*
X81328571Y-52300000D01*
X81471428Y-52252380D01*
X81566666Y-52252380D01*
X81709523Y-52300000D01*
X81757142Y-52347619D01*
X82709523Y-53252380D02*
X82138095Y-53252380D01*
X82423809Y-53252380D02*
X82423809Y-52252380D01*
X82328571Y-52395238D01*
X82233333Y-52490476D01*
X82138095Y-52538095D01*
X83614285Y-52252380D02*
X83138095Y-52252380D01*
X83090476Y-52728571D01*
X83138095Y-52680952D01*
X83233333Y-52633333D01*
X83471428Y-52633333D01*
X83566666Y-52680952D01*
X83614285Y-52728571D01*
X83661904Y-52823809D01*
X83661904Y-53061904D01*
X83614285Y-53157142D01*
X83566666Y-53204761D01*
X83471428Y-53252380D01*
X83233333Y-53252380D01*
X83138095Y-53204761D01*
X83090476Y-53157142D01*
X74963523Y-58672866D02*
X74915904Y-58720485D01*
X74773047Y-58768104D01*
X74677809Y-58768104D01*
X74534952Y-58720485D01*
X74439714Y-58625247D01*
X74392095Y-58530009D01*
X74344476Y-58339533D01*
X74344476Y-58196676D01*
X74392095Y-58006200D01*
X74439714Y-57910962D01*
X74534952Y-57815724D01*
X74677809Y-57768104D01*
X74773047Y-57768104D01*
X74915904Y-57815724D01*
X74963523Y-57863343D01*
X75915904Y-58768104D02*
X75344476Y-58768104D01*
X75630190Y-58768104D02*
X75630190Y-57768104D01*
X75534952Y-57910962D01*
X75439714Y-58006200D01*
X75344476Y-58053819D01*
X76773047Y-58101438D02*
X76773047Y-58768104D01*
X76534952Y-57720485D02*
X76296857Y-58434771D01*
X76915904Y-58434771D01*
X78763523Y-72472866D02*
X78715904Y-72520485D01*
X78573047Y-72568104D01*
X78477809Y-72568104D01*
X78334952Y-72520485D01*
X78239714Y-72425247D01*
X78192095Y-72330009D01*
X78144476Y-72139533D01*
X78144476Y-71996676D01*
X78192095Y-71806200D01*
X78239714Y-71710962D01*
X78334952Y-71615724D01*
X78477809Y-71568104D01*
X78573047Y-71568104D01*
X78715904Y-71615724D01*
X78763523Y-71663343D01*
X79715904Y-72568104D02*
X79144476Y-72568104D01*
X79430190Y-72568104D02*
X79430190Y-71568104D01*
X79334952Y-71710962D01*
X79239714Y-71806200D01*
X79144476Y-71853819D01*
X80049238Y-71568104D02*
X80668285Y-71568104D01*
X80334952Y-71949057D01*
X80477809Y-71949057D01*
X80573047Y-71996676D01*
X80620666Y-72044295D01*
X80668285Y-72139533D01*
X80668285Y-72377628D01*
X80620666Y-72472866D01*
X80573047Y-72520485D01*
X80477809Y-72568104D01*
X80192095Y-72568104D01*
X80096857Y-72520485D01*
X80049238Y-72472866D01*
X79041418Y-54049238D02*
X79089037Y-54096857D01*
X79136656Y-54239714D01*
X79136656Y-54334952D01*
X79089037Y-54477809D01*
X78993799Y-54573047D01*
X78898561Y-54620666D01*
X78708085Y-54668285D01*
X78565228Y-54668285D01*
X78374752Y-54620666D01*
X78279514Y-54573047D01*
X78184276Y-54477809D01*
X78136656Y-54334952D01*
X78136656Y-54239714D01*
X78184276Y-54096857D01*
X78231895Y-54049238D01*
X79136656Y-53096857D02*
X79136656Y-53668285D01*
X79136656Y-53382571D02*
X78136656Y-53382571D01*
X78279514Y-53477809D01*
X78374752Y-53573047D01*
X78422371Y-53668285D01*
X78231895Y-52715904D02*
X78184276Y-52668285D01*
X78136656Y-52573047D01*
X78136656Y-52334952D01*
X78184276Y-52239714D01*
X78231895Y-52192095D01*
X78327133Y-52144476D01*
X78422371Y-52144476D01*
X78565228Y-52192095D01*
X79136656Y-52763523D01*
X79136656Y-52144476D01*
X65157142Y-52557142D02*
X65109523Y-52604761D01*
X64966666Y-52652380D01*
X64871428Y-52652380D01*
X64728571Y-52604761D01*
X64633333Y-52509523D01*
X64585714Y-52414285D01*
X64538095Y-52223809D01*
X64538095Y-52080952D01*
X64585714Y-51890476D01*
X64633333Y-51795238D01*
X64728571Y-51700000D01*
X64871428Y-51652380D01*
X64966666Y-51652380D01*
X65109523Y-51700000D01*
X65157142Y-51747619D01*
X66109523Y-52652380D02*
X65538095Y-52652380D01*
X65823809Y-52652380D02*
X65823809Y-51652380D01*
X65728571Y-51795238D01*
X65633333Y-51890476D01*
X65538095Y-51938095D01*
X67061904Y-52652380D02*
X66490476Y-52652380D01*
X66776190Y-52652380D02*
X66776190Y-51652380D01*
X66680952Y-51795238D01*
X66585714Y-51890476D01*
X66490476Y-51938095D01*
X64957142Y-62557142D02*
X64909523Y-62604761D01*
X64766666Y-62652380D01*
X64671428Y-62652380D01*
X64528571Y-62604761D01*
X64433333Y-62509523D01*
X64385714Y-62414285D01*
X64338095Y-62223809D01*
X64338095Y-62080952D01*
X64385714Y-61890476D01*
X64433333Y-61795238D01*
X64528571Y-61700000D01*
X64671428Y-61652380D01*
X64766666Y-61652380D01*
X64909523Y-61700000D01*
X64957142Y-61747619D01*
X65909523Y-62652380D02*
X65338095Y-62652380D01*
X65623809Y-62652380D02*
X65623809Y-61652380D01*
X65528571Y-61795238D01*
X65433333Y-61890476D01*
X65338095Y-61938095D01*
X66528571Y-61652380D02*
X66623809Y-61652380D01*
X66719047Y-61700000D01*
X66766666Y-61747619D01*
X66814285Y-61842857D01*
X66861904Y-62033333D01*
X66861904Y-62271428D01*
X66814285Y-62461904D01*
X66766666Y-62557142D01*
X66719047Y-62604761D01*
X66623809Y-62652380D01*
X66528571Y-62652380D01*
X66433333Y-62604761D01*
X66385714Y-62557142D01*
X66338095Y-62461904D01*
X66290476Y-62271428D01*
X66290476Y-62033333D01*
X66338095Y-61842857D01*
X66385714Y-61747619D01*
X66433333Y-61700000D01*
X66528571Y-61652380D01*
X70233333Y-75957142D02*
X70185714Y-76004761D01*
X70042857Y-76052380D01*
X69947619Y-76052380D01*
X69804761Y-76004761D01*
X69709523Y-75909523D01*
X69661904Y-75814285D01*
X69614285Y-75623809D01*
X69614285Y-75480952D01*
X69661904Y-75290476D01*
X69709523Y-75195238D01*
X69804761Y-75100000D01*
X69947619Y-75052380D01*
X70042857Y-75052380D01*
X70185714Y-75100000D01*
X70233333Y-75147619D01*
X70804761Y-75480952D02*
X70709523Y-75433333D01*
X70661904Y-75385714D01*
X70614285Y-75290476D01*
X70614285Y-75242857D01*
X70661904Y-75147619D01*
X70709523Y-75100000D01*
X70804761Y-75052380D01*
X70995238Y-75052380D01*
X71090476Y-75100000D01*
X71138095Y-75147619D01*
X71185714Y-75242857D01*
X71185714Y-75290476D01*
X71138095Y-75385714D01*
X71090476Y-75433333D01*
X70995238Y-75480952D01*
X70804761Y-75480952D01*
X70709523Y-75528571D01*
X70661904Y-75576190D01*
X70614285Y-75671428D01*
X70614285Y-75861904D01*
X70661904Y-75957142D01*
X70709523Y-76004761D01*
X70804761Y-76052380D01*
X70995238Y-76052380D01*
X71090476Y-76004761D01*
X71138095Y-75957142D01*
X71185714Y-75861904D01*
X71185714Y-75671428D01*
X71138095Y-75576190D01*
X71090476Y-75528571D01*
X70995238Y-75480952D01*
X81633333Y-65757142D02*
X81585714Y-65804761D01*
X81442857Y-65852380D01*
X81347619Y-65852380D01*
X81204761Y-65804761D01*
X81109523Y-65709523D01*
X81061904Y-65614285D01*
X81014285Y-65423809D01*
X81014285Y-65280952D01*
X81061904Y-65090476D01*
X81109523Y-64995238D01*
X81204761Y-64900000D01*
X81347619Y-64852380D01*
X81442857Y-64852380D01*
X81585714Y-64900000D01*
X81633333Y-64947619D01*
X81966666Y-64852380D02*
X82633333Y-64852380D01*
X82204761Y-65852380D01*
X76357142Y-79766666D02*
X76404761Y-79814285D01*
X76452380Y-79957142D01*
X76452380Y-80052380D01*
X76404761Y-80195238D01*
X76309523Y-80290476D01*
X76214285Y-80338095D01*
X76023809Y-80385714D01*
X75880952Y-80385714D01*
X75690476Y-80338095D01*
X75595238Y-80290476D01*
X75500000Y-80195238D01*
X75452380Y-80052380D01*
X75452380Y-79957142D01*
X75500000Y-79814285D01*
X75547619Y-79766666D01*
X75452380Y-78909523D02*
X75452380Y-79100000D01*
X75500000Y-79195238D01*
X75547619Y-79242857D01*
X75690476Y-79338095D01*
X75880952Y-79385714D01*
X76261904Y-79385714D01*
X76357142Y-79338095D01*
X76404761Y-79290476D01*
X76452380Y-79195238D01*
X76452380Y-79004761D01*
X76404761Y-78909523D01*
X76357142Y-78861904D01*
X76261904Y-78814285D01*
X76023809Y-78814285D01*
X75928571Y-78861904D01*
X75880952Y-78909523D01*
X75833333Y-79004761D01*
X75833333Y-79195238D01*
X75880952Y-79290476D01*
X75928571Y-79338095D01*
X76023809Y-79385714D01*
X32957142Y-58766666D02*
X33004761Y-58814285D01*
X33052380Y-58957142D01*
X33052380Y-59052380D01*
X33004761Y-59195238D01*
X32909523Y-59290476D01*
X32814285Y-59338095D01*
X32623809Y-59385714D01*
X32480952Y-59385714D01*
X32290476Y-59338095D01*
X32195238Y-59290476D01*
X32100000Y-59195238D01*
X32052380Y-59052380D01*
X32052380Y-58957142D01*
X32100000Y-58814285D01*
X32147619Y-58766666D01*
X32385714Y-57909523D02*
X33052380Y-57909523D01*
X32004761Y-58147619D02*
X32719047Y-58385714D01*
X32719047Y-57766666D01*
X37072866Y-61960285D02*
X37120485Y-62007904D01*
X37168104Y-62150761D01*
X37168104Y-62245999D01*
X37120485Y-62388857D01*
X37025247Y-62484095D01*
X36930009Y-62531714D01*
X36739533Y-62579333D01*
X36596676Y-62579333D01*
X36406200Y-62531714D01*
X36310962Y-62484095D01*
X36215724Y-62388857D01*
X36168104Y-62245999D01*
X36168104Y-62150761D01*
X36215724Y-62007904D01*
X36263343Y-61960285D01*
X36168104Y-61626952D02*
X36168104Y-61007904D01*
X36549057Y-61341238D01*
X36549057Y-61198380D01*
X36596676Y-61103142D01*
X36644295Y-61055523D01*
X36739533Y-61007904D01*
X36977628Y-61007904D01*
X37072866Y-61055523D01*
X37120485Y-61103142D01*
X37168104Y-61198380D01*
X37168104Y-61484095D01*
X37120485Y-61579333D01*
X37072866Y-61626952D01*
X40472866Y-61960285D02*
X40520485Y-62007904D01*
X40568104Y-62150761D01*
X40568104Y-62245999D01*
X40520485Y-62388857D01*
X40425247Y-62484095D01*
X40330009Y-62531714D01*
X40139533Y-62579333D01*
X39996676Y-62579333D01*
X39806200Y-62531714D01*
X39710962Y-62484095D01*
X39615724Y-62388857D01*
X39568104Y-62245999D01*
X39568104Y-62150761D01*
X39615724Y-62007904D01*
X39663343Y-61960285D01*
X39663343Y-61579333D02*
X39615724Y-61531714D01*
X39568104Y-61436476D01*
X39568104Y-61198380D01*
X39615724Y-61103142D01*
X39663343Y-61055523D01*
X39758581Y-61007904D01*
X39853819Y-61007904D01*
X39996676Y-61055523D01*
X40568104Y-61626952D01*
X40568104Y-61007904D01*
X43872866Y-61960285D02*
X43920485Y-62007904D01*
X43968104Y-62150761D01*
X43968104Y-62245999D01*
X43920485Y-62388857D01*
X43825247Y-62484095D01*
X43730009Y-62531714D01*
X43539533Y-62579333D01*
X43396676Y-62579333D01*
X43206200Y-62531714D01*
X43110962Y-62484095D01*
X43015724Y-62388857D01*
X42968104Y-62245999D01*
X42968104Y-62150761D01*
X43015724Y-62007904D01*
X43063343Y-61960285D01*
X43968104Y-61007904D02*
X43968104Y-61579333D01*
X43968104Y-61293619D02*
X42968104Y-61293619D01*
X43110962Y-61388857D01*
X43206200Y-61484095D01*
X43253819Y-61579333D01*
M02*
