M48
; DRILL file {KiCad (5.1.4)-1} date 2020/11/6 0:28:36
; FORMAT={-:-/ absolute / metric / decimal}
; #@! TF.CreationDate,2020-11-06T00:28:36+08:00
; #@! TF.GenerationSoftware,Kicad,Pcbnew,(5.1.4)-1
; #@! TF.FileFunction,Plated,1,2,PTH
FMAT,2
METRIC
T1C0.400
T2C0.800
T3C0.900
T4C1.100
T5C1.200
T6C3.200
T7C3.500
%
G90
G05
T1
X32.8Y-60.8
X36.4Y-63.6
X38.4Y-59.2
X41.8Y-59.2
X45.2Y-59.2
X46.6Y-63.8
X58.6Y-78.8
X59.0Y-71.0
X60.2Y-66.8
X65.8Y-67.4
X67.4Y-71.8
X68.6Y-65.6
X69.0Y-75.2
X69.2Y-77.4
X70.4Y-70.6
X70.6Y-65.8
X74.8Y-70.2
X74.8Y-74.4
X76.4Y-64.6
X77.0Y-51.6
X77.0Y-61.4
X77.8Y-73.8
X80.0Y-65.8
X80.2Y-70.4
X81.4Y-70.2
X83.0Y-79.0
X83.8Y-79.0
X84.6Y-79.0
X87.4Y-64.8
X87.4Y-76.6
X87.4Y-77.4
X87.4Y-78.2
X88.8Y-67.0
X90.4Y-64.4
X93.0Y-74.0
X93.6Y-72.8
X96.8Y-73.6
X97.4Y-59.0
X97.8Y-56.2
X102.0Y-69.8
X103.2Y-68.6
X112.943Y-58.812
X112.943Y-61.188
X115.0Y-57.625
X115.0Y-62.375
X117.057Y-58.812
X117.057Y-61.188
X22.943Y-58.812
X22.943Y-61.188
X25.0Y-57.625
X25.0Y-62.375
X27.057Y-58.812
X27.057Y-61.188
T2
X83.0Y-57.0
X83.0Y-59.54
X83.0Y-62.08
T3
X71.98Y-82.0
X74.52Y-82.0
X54.5Y-82.0
X57.04Y-82.0
X91.4Y-82.0
X93.94Y-82.0
T4
X30.46Y-72.32
X30.46Y-79.08
X31.845Y-75.16
X31.845Y-81.92
X33.23Y-72.32
X33.23Y-79.08
X34.615Y-75.16
X34.615Y-81.92
X36.0Y-72.32
X36.0Y-79.08
X37.385Y-75.16
X37.385Y-81.92
X38.77Y-72.32
X38.77Y-79.08
X40.155Y-75.16
X40.155Y-81.92
X41.54Y-72.32
X41.54Y-79.08
T5
X53.94Y-48.5
X57.75Y-48.5
X102.69Y-48.5
X106.5Y-48.5
X70.19Y-48.5
X74.0Y-48.5
X86.44Y-48.5
X90.25Y-48.5
X30.07Y-48.5
X33.88Y-48.5
X37.69Y-48.5
X41.5Y-48.5
T6
X23.5Y-73.92
X23.5Y-81.92
X48.5Y-73.92
X48.5Y-81.92
T7
X115.0Y-60.0
X25.0Y-60.0
T2
G00X80.6Y-80.7
M15
G01X79.4Y-80.7
M16
G05
G00X80.6Y-86.3
M15
G01X79.4Y-86.3
M16
G05
G00X82.6Y-77.0
M15
G01X81.4Y-77.0
M16
G05
G00X82.6Y-82.6
M15
G01X81.4Y-82.6
M16
G05
G00X82.6Y-88.8
M15
G01X81.4Y-88.8
M16
G05
G00X114.1Y-80.7
M15
G01X112.9Y-80.7
M16
G05
G00X114.1Y-86.3
M15
G01X112.9Y-86.3
M16
G05
G00X116.1Y-77.0
M15
G01X114.9Y-77.0
M16
G05
G00X116.1Y-82.6
M15
G01X114.9Y-82.6
M16
G05
G00X116.1Y-88.8
M15
G01X114.9Y-88.8
M16
G05
G00X63.1Y-80.7
M15
G01X61.9Y-80.7
M16
G05
G00X63.1Y-86.3
M15
G01X61.9Y-86.3
M16
G05
G00X65.1Y-77.0
M15
G01X63.9Y-77.0
M16
G05
G00X65.1Y-82.6
M15
G01X63.9Y-82.6
M16
G05
G00X65.1Y-88.8
M15
G01X63.9Y-88.8
M16
G05
G00X100.1Y-80.7
M15
G01X98.9Y-80.7
M16
G05
G00X100.1Y-86.3
M15
G01X98.9Y-86.3
M16
G05
G00X102.1Y-77.0
M15
G01X100.9Y-77.0
M16
G05
G00X102.1Y-82.6
M15
G01X100.9Y-82.6
M16
G05
G00X102.1Y-88.8
M15
G01X100.9Y-88.8
M16
G05
T0
M30
