%TF.GenerationSoftware,KiCad,Pcbnew,(5.1.4)-1*%
%TF.CreationDate,2020-11-06T00:28:36+08:00*%
%TF.ProjectId,interface,696e7465-7266-4616-9365-2e6b69636164,rev?*%
%TF.SameCoordinates,Original*%
%TF.FileFunction,Paste,Top*%
%TF.FilePolarity,Positive*%
%FSLAX46Y46*%
G04 Gerber Fmt 4.6, Leading zero omitted, Abs format (unit mm)*
G04 Created by KiCad (PCBNEW (5.1.4)-1) date 2020-11-06 00:28:36*
%MOMM*%
%LPD*%
G04 APERTURE LIST*
%ADD10R,1.160000X1.470000*%
%ADD11R,0.900000X1.500000*%
%ADD12R,1.500000X0.900000*%
%ADD13R,1.800000X1.130000*%
%ADD14R,1.130000X1.800000*%
%ADD15R,1.470000X1.160000*%
%ADD16R,1.250000X0.700000*%
%ADD17R,0.600000X1.100000*%
%ADD18O,0.700000X1.800000*%
%ADD19R,0.700000X1.250000*%
G04 APERTURE END LIST*
D10*
X67510000Y-70600000D03*
X69290000Y-70600000D03*
D11*
X87750000Y-67000000D03*
X84250000Y-67000000D03*
D12*
X92200000Y-52250000D03*
X92200000Y-55750000D03*
D13*
X78600000Y-70290000D03*
X78600000Y-67310000D03*
X100800000Y-52510000D03*
X100800000Y-55490000D03*
D14*
X67110000Y-67600000D03*
X70090000Y-67600000D03*
D15*
X89400000Y-77310000D03*
X89400000Y-79090000D03*
X54200000Y-78890000D03*
X54200000Y-77110000D03*
D16*
X97370000Y-59748010D03*
X94870000Y-60698010D03*
X94870000Y-58798010D03*
D17*
X72150000Y-60400000D03*
X70250000Y-60400000D03*
X70250000Y-57600000D03*
X71200000Y-57600000D03*
X72150000Y-57600000D03*
D18*
X72295000Y-67800000D03*
X73565000Y-67800000D03*
X74835000Y-67800000D03*
X76105000Y-67800000D03*
X76105000Y-73000000D03*
X74835000Y-73000000D03*
X73565000Y-73000000D03*
X72295000Y-73000000D03*
D10*
X98510000Y-67600000D03*
X100290000Y-67600000D03*
D15*
X103200000Y-69910000D03*
X103200000Y-71690000D03*
D10*
X100290000Y-74000000D03*
X98510000Y-74000000D03*
D15*
X89400000Y-74690000D03*
X89400000Y-72910000D03*
D10*
X93710000Y-67800000D03*
X95490000Y-67800000D03*
X94910000Y-56200000D03*
X96690000Y-56200000D03*
D15*
X92000000Y-60490000D03*
X92000000Y-58710000D03*
D10*
X94910000Y-63200000D03*
X96690000Y-63200000D03*
D15*
X87400000Y-63690000D03*
X87400000Y-61910000D03*
D10*
X89490000Y-56400000D03*
X87710000Y-56400000D03*
D15*
X72000000Y-77310000D03*
X72000000Y-79090000D03*
X75000000Y-64490000D03*
X75000000Y-62710000D03*
X72200000Y-62710000D03*
X72200000Y-64490000D03*
X68600000Y-64580000D03*
X68600000Y-62800000D03*
X70400000Y-52910000D03*
X70400000Y-54690000D03*
D10*
X86090000Y-70000000D03*
X84310000Y-70000000D03*
D15*
X74000000Y-52910000D03*
X74000000Y-54690000D03*
D10*
X66579999Y-57200000D03*
X64799999Y-57200000D03*
D15*
X54200000Y-72710000D03*
X54200000Y-74490000D03*
X54200000Y-70090000D03*
X54200000Y-68310000D03*
D16*
X98150000Y-70800000D03*
X100650000Y-69850000D03*
X100650000Y-71750000D03*
D19*
X94600000Y-72850000D03*
X93650000Y-70350000D03*
X95550000Y-70350000D03*
D16*
X56550000Y-72800000D03*
X59050000Y-71850000D03*
X59050000Y-73750000D03*
D10*
X93110000Y-78000000D03*
X94890000Y-78000000D03*
D15*
X95200000Y-51490000D03*
X95200000Y-49710000D03*
D10*
X85890000Y-73800000D03*
X84110000Y-73800000D03*
X62510000Y-73800000D03*
X64290000Y-73800000D03*
D15*
X35200000Y-67090000D03*
X35200000Y-65310000D03*
X45200000Y-67090000D03*
X45200000Y-65310000D03*
X41800000Y-67090000D03*
X41800000Y-65310000D03*
X32000000Y-67090000D03*
X32000000Y-65310000D03*
X38400000Y-67090000D03*
X38400000Y-65310000D03*
X107600000Y-54890000D03*
X107600000Y-53110000D03*
D12*
X61800000Y-70350000D03*
X61800000Y-66850000D03*
D10*
X94890000Y-75200000D03*
X93110000Y-75200000D03*
D15*
X104600000Y-53110000D03*
X104600000Y-54890000D03*
D10*
X92090000Y-63200000D03*
X90310000Y-63200000D03*
X86690000Y-52800000D03*
X84910000Y-52800000D03*
X76890000Y-60000000D03*
X75110000Y-60000000D03*
X80690000Y-73800000D03*
X78910000Y-73800000D03*
D15*
X77000000Y-54690000D03*
X77000000Y-52910000D03*
D10*
X64910000Y-54200000D03*
X66690000Y-54200000D03*
X66690000Y-60200000D03*
X64910000Y-60200000D03*
X67310000Y-73800000D03*
X69090000Y-73800000D03*
D15*
X81800000Y-69090000D03*
X81800000Y-67310000D03*
X76000000Y-75710000D03*
X76000000Y-77490000D03*
X34000000Y-60710000D03*
X34000000Y-62490000D03*
X38400000Y-60510000D03*
X38400000Y-62290000D03*
X41800000Y-60510000D03*
X41800000Y-62290000D03*
X45200000Y-60510000D03*
X45200000Y-62290000D03*
M02*
