%TF.GenerationSoftware,KiCad,Pcbnew,(5.1.4)-1*%
%TF.CreationDate,2020-05-13T01:14:08+08:00*%
%TF.ProjectId,LPF,4c50462e-6b69-4636-9164-5f7063625858,rev?*%
%TF.SameCoordinates,Original*%
%TF.FileFunction,Paste,Bot*%
%TF.FilePolarity,Positive*%
%FSLAX46Y46*%
G04 Gerber Fmt 4.6, Leading zero omitted, Abs format (unit mm)*
G04 Created by KiCad (PCBNEW (5.1.4)-1) date 2020-05-13 01:14:08*
%MOMM*%
%LPD*%
G04 APERTURE LIST*
%ADD10R,3.000000X2.200000*%
%ADD11C,2.200000*%
%ADD12C,0.350000*%
%ADD13R,2.200000X3.000000*%
G04 APERTURE END LIST*
D10*
X210000000Y-144300000D03*
X210000000Y-150100000D03*
X182400000Y-154600000D03*
X182400000Y-160400000D03*
X178400000Y-160400000D03*
X178400000Y-154600000D03*
X174400000Y-154600000D03*
X174400000Y-160400000D03*
X170400000Y-160400000D03*
X170400000Y-154600000D03*
X166400000Y-154600000D03*
X166400000Y-160400000D03*
D11*
X189244880Y-150659521D03*
D12*
G36*
X191066035Y-150280847D02*
G01*
X189058643Y-152510282D01*
X187423725Y-151038195D01*
X189431117Y-148808760D01*
X191066035Y-150280847D01*
X191066035Y-150280847D01*
G37*
D11*
X193555120Y-154540479D03*
D12*
G36*
X195376275Y-154161805D02*
G01*
X193368883Y-156391240D01*
X191733965Y-154919153D01*
X193741357Y-152689718D01*
X195376275Y-154161805D01*
X195376275Y-154161805D01*
G37*
D10*
X162300000Y-160400000D03*
X162300000Y-154600000D03*
D11*
X186559521Y-148905120D03*
D12*
G36*
X186180847Y-147083965D02*
G01*
X188410282Y-149091357D01*
X186938195Y-150726275D01*
X184708760Y-148718883D01*
X186180847Y-147083965D01*
X186180847Y-147083965D01*
G37*
D11*
X190440479Y-144594880D03*
D12*
G36*
X190061805Y-142773725D02*
G01*
X192291240Y-144781117D01*
X190819153Y-146416035D01*
X188589718Y-144408643D01*
X190061805Y-142773725D01*
X190061805Y-142773725D01*
G37*
D11*
X190955120Y-157340479D03*
D12*
G36*
X192776275Y-156961805D02*
G01*
X190768883Y-159191240D01*
X189133965Y-157719153D01*
X191141357Y-155489718D01*
X192776275Y-156961805D01*
X192776275Y-156961805D01*
G37*
D11*
X186644880Y-153459521D03*
D12*
G36*
X188466035Y-153080847D02*
G01*
X186458643Y-155310282D01*
X184823725Y-153838195D01*
X186831117Y-151608760D01*
X188466035Y-153080847D01*
X188466035Y-153080847D01*
G37*
D13*
X203250000Y-113100000D03*
X209050000Y-113100000D03*
X201600000Y-141000000D03*
X207400000Y-141000000D03*
X203151838Y-125100000D03*
X208951838Y-125100000D03*
X203000000Y-133100000D03*
X208800000Y-133100000D03*
X208879278Y-129100000D03*
X203079278Y-129100000D03*
X208800000Y-137100000D03*
X203000000Y-137100000D03*
X209055717Y-117350000D03*
X203255717Y-117350000D03*
X203250000Y-121350000D03*
X209050000Y-121350000D03*
D11*
X202326964Y-91842014D03*
D12*
G36*
X204098561Y-91275052D02*
G01*
X202335205Y-93702103D01*
X200555367Y-92408976D01*
X202318723Y-89981925D01*
X204098561Y-91275052D01*
X204098561Y-91275052D01*
G37*
D11*
X207019262Y-95251168D03*
D12*
G36*
X208790859Y-94684206D02*
G01*
X207027503Y-97111257D01*
X205247665Y-95818130D01*
X207011021Y-93391079D01*
X208790859Y-94684206D01*
X208790859Y-94684206D01*
G37*
D11*
X203977510Y-99471387D03*
D12*
G36*
X205749107Y-98904425D02*
G01*
X203985751Y-101331476D01*
X202205913Y-100038349D01*
X203969269Y-97611298D01*
X205749107Y-98904425D01*
X205749107Y-98904425D01*
G37*
D11*
X199285212Y-96062233D03*
D12*
G36*
X201056809Y-95495271D02*
G01*
X199293453Y-97922322D01*
X197513615Y-96629195D01*
X199276971Y-94202144D01*
X201056809Y-95495271D01*
X201056809Y-95495271D01*
G37*
D11*
X210061010Y-91030948D03*
D12*
G36*
X211832607Y-90463986D02*
G01*
X210069251Y-92891037D01*
X208289413Y-91597910D01*
X210052769Y-89170859D01*
X211832607Y-90463986D01*
X211832607Y-90463986D01*
G37*
D11*
X205368712Y-87621794D03*
D12*
G36*
X207140309Y-87054832D02*
G01*
X205376953Y-89481883D01*
X203597115Y-88188756D01*
X205360471Y-85761705D01*
X207140309Y-87054832D01*
X207140309Y-87054832D01*
G37*
D11*
X196646841Y-99570180D03*
D12*
G36*
X198418438Y-99003218D02*
G01*
X196655082Y-101430269D01*
X194875244Y-100137142D01*
X196638600Y-97710091D01*
X198418438Y-99003218D01*
X198418438Y-99003218D01*
G37*
D11*
X201339139Y-102979334D03*
D12*
G36*
X203110736Y-102412372D02*
G01*
X201347380Y-104839423D01*
X199567542Y-103546296D01*
X201330898Y-101119245D01*
X203110736Y-102412372D01*
X203110736Y-102412372D01*
G37*
D11*
X193368712Y-103871794D03*
D12*
G36*
X195140309Y-103304832D02*
G01*
X193376953Y-105731883D01*
X191597115Y-104438756D01*
X193360471Y-102011705D01*
X195140309Y-103304832D01*
X195140309Y-103304832D01*
G37*
D11*
X198061010Y-107280948D03*
D12*
G36*
X199832607Y-106713986D02*
G01*
X198069251Y-109141037D01*
X196289413Y-107847910D01*
X198052769Y-105420859D01*
X199832607Y-106713986D01*
X199832607Y-106713986D01*
G37*
D11*
X195019262Y-111501168D03*
D12*
G36*
X196790859Y-110934206D02*
G01*
X195027503Y-113361257D01*
X193247665Y-112068130D01*
X195011021Y-109641079D01*
X196790859Y-110934206D01*
X196790859Y-110934206D01*
G37*
D11*
X190326964Y-108092014D03*
D12*
G36*
X192098561Y-107525052D02*
G01*
X190335205Y-109952103D01*
X188555367Y-108658976D01*
X190318723Y-106231925D01*
X192098561Y-107525052D01*
X192098561Y-107525052D01*
G37*
D11*
X188306000Y-106179068D03*
D12*
G36*
X186534403Y-106746030D02*
G01*
X188297759Y-104318979D01*
X190077597Y-105612106D01*
X188314241Y-108039157D01*
X186534403Y-106746030D01*
X186534403Y-106746030D01*
G37*
D11*
X183613702Y-102769914D03*
D12*
G36*
X181842105Y-103336876D02*
G01*
X183605461Y-100909825D01*
X185385299Y-102202952D01*
X183621943Y-104630003D01*
X181842105Y-103336876D01*
X181842105Y-103336876D01*
G37*
D11*
X195613691Y-86519906D03*
D12*
G36*
X193842094Y-87086868D02*
G01*
X195605450Y-84659817D01*
X197385288Y-85952944D01*
X195621932Y-88379995D01*
X193842094Y-87086868D01*
X193842094Y-87086868D01*
G37*
D11*
X200305989Y-89929060D03*
D12*
G36*
X198534392Y-90496022D02*
G01*
X200297748Y-88068971D01*
X202077586Y-89362098D01*
X200314230Y-91789149D01*
X198534392Y-90496022D01*
X198534392Y-90496022D01*
G37*
D11*
X203347731Y-85708843D03*
D12*
G36*
X201576134Y-86275805D02*
G01*
X203339490Y-83848754D01*
X205119328Y-85141881D01*
X203355972Y-87568932D01*
X201576134Y-86275805D01*
X201576134Y-86275805D01*
G37*
D11*
X198655433Y-82299689D03*
D12*
G36*
X196883836Y-82866651D02*
G01*
X198647192Y-80439600D01*
X200427030Y-81732727D01*
X198663674Y-84159778D01*
X196883836Y-82866651D01*
X196883836Y-82866651D01*
G37*
D11*
X192335564Y-90821525D03*
D12*
G36*
X190563967Y-91388487D02*
G01*
X192327323Y-88961436D01*
X194107161Y-90254563D01*
X192343805Y-92681614D01*
X190563967Y-91388487D01*
X190563967Y-91388487D01*
G37*
D11*
X197027862Y-94230679D03*
D12*
G36*
X195256265Y-94797641D02*
G01*
X197019621Y-92370590D01*
X198799459Y-93663717D01*
X197036103Y-96090768D01*
X195256265Y-94797641D01*
X195256265Y-94797641D01*
G37*
D11*
X194389488Y-97738618D03*
D12*
G36*
X192617891Y-98305580D02*
G01*
X194381247Y-95878529D01*
X196161085Y-97171656D01*
X194397729Y-99598707D01*
X192617891Y-98305580D01*
X192617891Y-98305580D01*
G37*
D11*
X189697190Y-94329464D03*
D12*
G36*
X187925593Y-94896426D02*
G01*
X189688949Y-92469375D01*
X191468787Y-93762502D01*
X189705431Y-96189553D01*
X187925593Y-94896426D01*
X187925593Y-94896426D01*
G37*
D11*
X186655436Y-98549689D03*
D12*
G36*
X184883839Y-99116651D02*
G01*
X186647195Y-96689600D01*
X188427033Y-97982727D01*
X186663677Y-100409778D01*
X184883839Y-99116651D01*
X184883839Y-99116651D01*
G37*
D11*
X191347734Y-101958843D03*
D12*
G36*
X189576137Y-102525805D02*
G01*
X191339493Y-100098754D01*
X193119331Y-101391881D01*
X191355975Y-103818932D01*
X189576137Y-102525805D01*
X189576137Y-102525805D01*
G37*
D11*
X190097734Y-70458843D03*
D12*
G36*
X188326137Y-71025805D02*
G01*
X190089493Y-68598754D01*
X191869331Y-69891881D01*
X190105975Y-72318932D01*
X188326137Y-71025805D01*
X188326137Y-71025805D01*
G37*
D11*
X185405436Y-67049689D03*
D12*
G36*
X183633839Y-67616651D02*
G01*
X185397195Y-65189600D01*
X187177033Y-66482727D01*
X185413677Y-68909778D01*
X183633839Y-67616651D01*
X183633839Y-67616651D01*
G37*
D11*
X188447190Y-62829464D03*
D12*
G36*
X186675593Y-63396426D02*
G01*
X188438949Y-60969375D01*
X190218787Y-62262502D01*
X188455431Y-64689553D01*
X186675593Y-63396426D01*
X186675593Y-63396426D01*
G37*
D11*
X193139488Y-66238618D03*
D12*
G36*
X191367891Y-66805580D02*
G01*
X193131247Y-64378529D01*
X194911085Y-65671656D01*
X193147729Y-68098707D01*
X191367891Y-66805580D01*
X191367891Y-66805580D01*
G37*
D11*
X182363702Y-71269914D03*
D12*
G36*
X180592105Y-71836876D02*
G01*
X182355461Y-69409825D01*
X184135299Y-70702952D01*
X182371943Y-73130003D01*
X180592105Y-71836876D01*
X180592105Y-71836876D01*
G37*
D11*
X187056000Y-74679068D03*
D12*
G36*
X185284403Y-75246030D02*
G01*
X187047759Y-72818979D01*
X188827597Y-74112106D01*
X187064241Y-76539157D01*
X185284403Y-75246030D01*
X185284403Y-75246030D01*
G37*
D11*
X195777862Y-62730679D03*
D12*
G36*
X194006265Y-63297641D02*
G01*
X195769621Y-60870590D01*
X197549459Y-62163717D01*
X195786103Y-64590768D01*
X194006265Y-63297641D01*
X194006265Y-63297641D01*
G37*
D11*
X191085564Y-59321525D03*
D12*
G36*
X189313967Y-59888487D02*
G01*
X191077323Y-57461436D01*
X192857161Y-58754563D01*
X191093805Y-61181614D01*
X189313967Y-59888487D01*
X189313967Y-59888487D01*
G37*
D11*
X199055989Y-58429060D03*
D12*
G36*
X197284392Y-58996022D02*
G01*
X199047748Y-56568971D01*
X200827586Y-57862098D01*
X199064230Y-60289149D01*
X197284392Y-58996022D01*
X197284392Y-58996022D01*
G37*
D11*
X194363691Y-55019906D03*
D12*
G36*
X192592094Y-55586868D02*
G01*
X194355450Y-53159817D01*
X196135288Y-54452944D01*
X194371932Y-56879995D01*
X192592094Y-55586868D01*
X192592094Y-55586868D01*
G37*
D11*
X197405433Y-50799689D03*
D12*
G36*
X195633836Y-51366651D02*
G01*
X197397192Y-48939600D01*
X199177030Y-50232727D01*
X197413674Y-52659778D01*
X195633836Y-51366651D01*
X195633836Y-51366651D01*
G37*
D11*
X202097731Y-54208843D03*
D12*
G36*
X200326134Y-54775805D02*
G01*
X202089490Y-52348754D01*
X203869328Y-53641881D01*
X202105972Y-56068932D01*
X200326134Y-54775805D01*
X200326134Y-54775805D01*
G37*
D11*
X189076964Y-76842014D03*
D12*
G36*
X190848561Y-76275052D02*
G01*
X189085205Y-78702103D01*
X187305367Y-77408976D01*
X189068723Y-74981925D01*
X190848561Y-76275052D01*
X190848561Y-76275052D01*
G37*
D11*
X193769262Y-80251168D03*
D12*
G36*
X195540859Y-79684206D02*
G01*
X193777503Y-82111257D01*
X191997665Y-80818130D01*
X193761021Y-78391079D01*
X195540859Y-79684206D01*
X195540859Y-79684206D01*
G37*
D11*
X200089139Y-71729334D03*
D12*
G36*
X201860736Y-71162372D02*
G01*
X200097380Y-73589423D01*
X198317542Y-72296296D01*
X200080898Y-69869245D01*
X201860736Y-71162372D01*
X201860736Y-71162372D01*
G37*
D11*
X195396841Y-68320180D03*
D12*
G36*
X197168438Y-67753218D02*
G01*
X195405082Y-70180269D01*
X193625244Y-68887142D01*
X195388600Y-66460091D01*
X197168438Y-67753218D01*
X197168438Y-67753218D01*
G37*
D11*
X196811010Y-76030948D03*
D12*
G36*
X198582607Y-75463986D02*
G01*
X196819251Y-77891037D01*
X195039413Y-76597910D01*
X196802769Y-74170859D01*
X198582607Y-75463986D01*
X198582607Y-75463986D01*
G37*
D11*
X192118712Y-72621794D03*
D12*
G36*
X193890309Y-72054832D02*
G01*
X192126953Y-74481883D01*
X190347115Y-73188756D01*
X192110471Y-70761705D01*
X193890309Y-72054832D01*
X193890309Y-72054832D01*
G37*
D11*
X205769262Y-64001168D03*
D12*
G36*
X207540859Y-63434206D02*
G01*
X205777503Y-65861257D01*
X203997665Y-64568130D01*
X205761021Y-62141079D01*
X207540859Y-63434206D01*
X207540859Y-63434206D01*
G37*
D11*
X201076964Y-60592014D03*
D12*
G36*
X202848561Y-60025052D02*
G01*
X201085205Y-62452103D01*
X199305367Y-61158976D01*
X201068723Y-58731925D01*
X202848561Y-60025052D01*
X202848561Y-60025052D01*
G37*
D11*
X198035212Y-64812233D03*
D12*
G36*
X199806809Y-64245271D02*
G01*
X198043453Y-66672322D01*
X196263615Y-65379195D01*
X198026971Y-62952144D01*
X199806809Y-64245271D01*
X199806809Y-64245271D01*
G37*
D11*
X202727510Y-68221387D03*
D12*
G36*
X204499107Y-67654425D02*
G01*
X202735751Y-70081476D01*
X200955913Y-68788349D01*
X202719269Y-66361298D01*
X204499107Y-67654425D01*
X204499107Y-67654425D01*
G37*
D11*
X204118712Y-56371794D03*
D12*
G36*
X205890309Y-55804832D02*
G01*
X204126953Y-58231883D01*
X202347115Y-56938756D01*
X204110471Y-54511705D01*
X205890309Y-55804832D01*
X205890309Y-55804832D01*
G37*
D11*
X208811010Y-59780948D03*
D12*
G36*
X210582607Y-59213986D02*
G01*
X208819251Y-61641037D01*
X207039413Y-60347910D01*
X208802769Y-57920859D01*
X210582607Y-59213986D01*
X210582607Y-59213986D01*
G37*
D13*
X177600000Y-142000000D03*
X183400000Y-142000000D03*
D11*
X179300610Y-126449390D03*
D12*
G36*
X179017767Y-124610912D02*
G01*
X181139088Y-126732233D01*
X179583453Y-128287868D01*
X177462132Y-126166547D01*
X179017767Y-124610912D01*
X179017767Y-124610912D01*
G37*
D11*
X175199390Y-130550610D03*
D12*
G36*
X174916547Y-128712132D02*
G01*
X177037868Y-130833453D01*
X175482233Y-132389088D01*
X173360912Y-130267767D01*
X174916547Y-128712132D01*
X174916547Y-128712132D01*
G37*
D13*
X183400002Y-137999999D03*
X177600002Y-137999999D03*
X159100000Y-137500000D03*
X164900000Y-137500000D03*
X159100000Y-142000000D03*
X164900000Y-142000000D03*
X177600000Y-134000000D03*
X183400000Y-134000000D03*
D11*
X167800610Y-134300610D03*
D12*
G36*
X165962132Y-134583453D02*
G01*
X168083453Y-132462132D01*
X169639088Y-134017767D01*
X167517767Y-136139088D01*
X165962132Y-134583453D01*
X165962132Y-134583453D01*
G37*
D11*
X163699390Y-130199390D03*
D12*
G36*
X161860912Y-130482233D02*
G01*
X163982233Y-128360912D01*
X165537868Y-129916547D01*
X163416547Y-132037868D01*
X161860912Y-130482233D01*
X161860912Y-130482233D01*
G37*
D13*
X144400000Y-142000000D03*
X138600000Y-142000000D03*
X99600000Y-142000000D03*
X105400000Y-142000000D03*
X144400000Y-134000000D03*
X138600000Y-134000000D03*
D11*
X124699390Y-130199390D03*
D12*
G36*
X122860912Y-130482233D02*
G01*
X124982233Y-128360912D01*
X126537868Y-129916547D01*
X124416547Y-132037868D01*
X122860912Y-130482233D01*
X122860912Y-130482233D01*
G37*
D11*
X128800610Y-134300610D03*
D12*
G36*
X126962132Y-134583453D02*
G01*
X129083453Y-132462132D01*
X130639088Y-134017767D01*
X128517767Y-136139088D01*
X126962132Y-134583453D01*
X126962132Y-134583453D01*
G37*
D13*
X125900000Y-137500000D03*
X120100000Y-137500000D03*
X125900000Y-142000000D03*
X120100000Y-142000000D03*
X138600002Y-137999999D03*
X144400002Y-137999999D03*
D11*
X136199390Y-130550610D03*
D12*
G36*
X135916547Y-128712132D02*
G01*
X138037868Y-130833453D01*
X136482233Y-132389088D01*
X134360912Y-130267767D01*
X135916547Y-128712132D01*
X135916547Y-128712132D01*
G37*
D11*
X140300610Y-126449390D03*
D12*
G36*
X140017767Y-124610912D02*
G01*
X142139088Y-126732233D01*
X140583453Y-128287868D01*
X138462132Y-126166547D01*
X140017767Y-124610912D01*
X140017767Y-124610912D01*
G37*
D13*
X99600000Y-134000000D03*
X105400000Y-134000000D03*
D11*
X89800610Y-134300610D03*
D12*
G36*
X87962132Y-134583453D02*
G01*
X90083453Y-132462132D01*
X91639088Y-134017767D01*
X89517767Y-136139088D01*
X87962132Y-134583453D01*
X87962132Y-134583453D01*
G37*
D11*
X85699390Y-130199390D03*
D12*
G36*
X83860912Y-130482233D02*
G01*
X85982233Y-128360912D01*
X87537868Y-129916547D01*
X85416547Y-132037868D01*
X83860912Y-130482233D01*
X83860912Y-130482233D01*
G37*
D13*
X81100000Y-137500000D03*
X86900000Y-137500000D03*
D11*
X101300610Y-126449390D03*
D12*
G36*
X101017767Y-124610912D02*
G01*
X103139088Y-126732233D01*
X101583453Y-128287868D01*
X99462132Y-126166547D01*
X101017767Y-124610912D01*
X101017767Y-124610912D01*
G37*
D11*
X97199390Y-130550610D03*
D12*
G36*
X96916547Y-128712132D02*
G01*
X99037868Y-130833453D01*
X97482233Y-132389088D01*
X95360912Y-130267767D01*
X96916547Y-128712132D01*
X96916547Y-128712132D01*
G37*
D13*
X81100000Y-142000000D03*
X86900000Y-142000000D03*
X105400002Y-137999999D03*
X99600002Y-137999999D03*
D11*
X46699390Y-130199390D03*
D12*
G36*
X44860912Y-130482233D02*
G01*
X46982233Y-128360912D01*
X48537868Y-129916547D01*
X46416547Y-132037868D01*
X44860912Y-130482233D01*
X44860912Y-130482233D01*
G37*
D11*
X50800610Y-134300610D03*
D12*
G36*
X48962132Y-134583453D02*
G01*
X51083453Y-132462132D01*
X52639088Y-134017767D01*
X50517767Y-136139088D01*
X48962132Y-134583453D01*
X48962132Y-134583453D01*
G37*
D13*
X66400000Y-134000000D03*
X60600000Y-134000000D03*
D11*
X163604521Y-118875768D03*
D12*
G36*
X165464610Y-118884009D02*
G01*
X163037559Y-120647365D01*
X161744432Y-118867527D01*
X164171483Y-117104171D01*
X165464610Y-118884009D01*
X165464610Y-118884009D01*
G37*
D11*
X167013675Y-123568066D03*
D12*
G36*
X168873764Y-123576307D02*
G01*
X166446713Y-125339663D01*
X165153586Y-123559825D01*
X167580637Y-121796469D01*
X168873764Y-123576307D01*
X168873764Y-123576307D01*
G37*
D11*
X157663372Y-119625541D03*
D12*
G36*
X155803710Y-119584838D02*
G01*
X158261166Y-117864109D01*
X159523034Y-119666244D01*
X157065578Y-121386973D01*
X155803710Y-119584838D01*
X155803710Y-119584838D01*
G37*
D11*
X154336628Y-114874459D03*
D12*
G36*
X152476966Y-114833756D02*
G01*
X154934422Y-113113027D01*
X156196290Y-114915162D01*
X153738834Y-116635891D01*
X152476966Y-114833756D01*
X152476966Y-114833756D01*
G37*
D11*
X166413372Y-113625541D03*
D12*
G36*
X164553710Y-113584838D02*
G01*
X167011166Y-111864109D01*
X168273034Y-113666244D01*
X165815578Y-115386973D01*
X164553710Y-113584838D01*
X164553710Y-113584838D01*
G37*
D11*
X163086628Y-108874459D03*
D12*
G36*
X161226966Y-108833756D02*
G01*
X163684422Y-107113027D01*
X164946290Y-108915162D01*
X162488834Y-110635891D01*
X161226966Y-108833756D01*
X161226966Y-108833756D01*
G37*
D11*
X155210530Y-125023200D03*
D12*
G36*
X157070619Y-125031441D02*
G01*
X154643568Y-126794797D01*
X153350441Y-125014959D01*
X155777492Y-123251603D01*
X157070619Y-125031441D01*
X157070619Y-125031441D01*
G37*
D11*
X158619684Y-129715498D03*
D12*
G36*
X160479773Y-129723739D02*
G01*
X158052722Y-131487095D01*
X156759595Y-129707257D01*
X159186646Y-127943901D01*
X160479773Y-129723739D01*
X160479773Y-129723739D01*
G37*
D11*
X161913372Y-116625541D03*
D12*
G36*
X160053710Y-116584838D02*
G01*
X162511166Y-114864109D01*
X163773034Y-116666244D01*
X161315578Y-118386973D01*
X160053710Y-116584838D01*
X160053710Y-116584838D01*
G37*
D11*
X158586628Y-111874459D03*
D12*
G36*
X156726966Y-111833756D02*
G01*
X159184422Y-110113027D01*
X160446290Y-111915162D01*
X157988834Y-113635891D01*
X156726966Y-111833756D01*
X156726966Y-111833756D01*
G37*
D11*
X162816679Y-126641782D03*
D12*
G36*
X164676768Y-126650023D02*
G01*
X162249717Y-128413379D01*
X160956590Y-126633541D01*
X163383641Y-124870185D01*
X164676768Y-126650023D01*
X164676768Y-126650023D01*
G37*
D11*
X159407525Y-121949484D03*
D12*
G36*
X161267614Y-121957725D02*
G01*
X158840563Y-123721081D01*
X157547436Y-121941243D01*
X159974487Y-120177887D01*
X161267614Y-121957725D01*
X161267614Y-121957725D01*
G37*
D11*
X168051478Y-115797689D03*
D12*
G36*
X169911567Y-115805930D02*
G01*
X167484516Y-117569286D01*
X166191389Y-115789448D01*
X168618440Y-114026092D01*
X169911567Y-115805930D01*
X169911567Y-115805930D01*
G37*
D11*
X171460632Y-120489987D03*
D12*
G36*
X173320721Y-120498228D02*
G01*
X170893670Y-122261584D01*
X169600543Y-120481746D01*
X172027594Y-118718390D01*
X173320721Y-120498228D01*
X173320721Y-120498228D01*
G37*
D11*
X153413372Y-122625541D03*
D12*
G36*
X151553710Y-122584838D02*
G01*
X154011166Y-120864109D01*
X155273034Y-122666244D01*
X152815578Y-124386973D01*
X151553710Y-122584838D01*
X151553710Y-122584838D01*
G37*
D11*
X150086628Y-117874459D03*
D12*
G36*
X148226966Y-117833756D02*
G01*
X150684422Y-116113027D01*
X151946290Y-117915162D01*
X149488834Y-119635891D01*
X148226966Y-117833756D01*
X148226966Y-117833756D01*
G37*
D11*
X162675667Y-97581625D03*
D12*
G36*
X164534336Y-97654777D02*
G01*
X162047223Y-99332356D01*
X160816998Y-97508473D01*
X163304111Y-95830894D01*
X164534336Y-97654777D01*
X164534336Y-97654777D01*
G37*
D11*
X165918985Y-102390043D03*
D12*
G36*
X167777654Y-102463195D02*
G01*
X165290541Y-104140774D01*
X164060316Y-102316891D01*
X166547429Y-100639312D01*
X167777654Y-102463195D01*
X167777654Y-102463195D01*
G37*
D11*
X156913372Y-98125541D03*
D12*
G36*
X155053710Y-98084838D02*
G01*
X157511166Y-96364109D01*
X158773034Y-98166244D01*
X156315578Y-99886973D01*
X155053710Y-98084838D01*
X155053710Y-98084838D01*
G37*
D11*
X153586628Y-93374459D03*
D12*
G36*
X151726966Y-93333756D02*
G01*
X154184422Y-91613027D01*
X155446290Y-93415162D01*
X152988834Y-95135891D01*
X151726966Y-93333756D01*
X151726966Y-93333756D01*
G37*
D11*
X165663372Y-92125541D03*
D12*
G36*
X163803710Y-92084838D02*
G01*
X166261166Y-90364109D01*
X167523034Y-92166244D01*
X165065578Y-93886973D01*
X163803710Y-92084838D01*
X163803710Y-92084838D01*
G37*
D11*
X162336628Y-87374459D03*
D12*
G36*
X160476966Y-87333756D02*
G01*
X162934422Y-85613027D01*
X164196290Y-87415162D01*
X161738834Y-89135891D01*
X160476966Y-87333756D01*
X160476966Y-87333756D01*
G37*
D11*
X154072247Y-103432366D03*
D12*
G36*
X155930916Y-103505518D02*
G01*
X153443803Y-105183097D01*
X152213578Y-103359214D01*
X154700691Y-101681635D01*
X155930916Y-103505518D01*
X155930916Y-103505518D01*
G37*
D11*
X157315565Y-108240784D03*
D12*
G36*
X159174234Y-108313936D02*
G01*
X156687121Y-109991515D01*
X155456896Y-108167632D01*
X157944009Y-106490053D01*
X159174234Y-108313936D01*
X159174234Y-108313936D01*
G37*
D11*
X161163372Y-95125541D03*
D12*
G36*
X159303710Y-95084838D02*
G01*
X161761166Y-93364109D01*
X163023034Y-95166244D01*
X160565578Y-96886973D01*
X159303710Y-95084838D01*
X159303710Y-95084838D01*
G37*
D11*
X157836628Y-90374459D03*
D12*
G36*
X155976966Y-90333756D02*
G01*
X158434422Y-88613027D01*
X159696290Y-90415162D01*
X157238834Y-92135891D01*
X155976966Y-90333756D01*
X155976966Y-90333756D01*
G37*
D11*
X161617275Y-105315414D03*
D12*
G36*
X163475944Y-105388566D02*
G01*
X160988831Y-107066145D01*
X159758606Y-105242262D01*
X162245719Y-103564683D01*
X163475944Y-105388566D01*
X163475944Y-105388566D01*
G37*
D11*
X158373957Y-100506996D03*
D12*
G36*
X160232626Y-100580148D02*
G01*
X157745513Y-102257727D01*
X156515288Y-100433844D01*
X159002401Y-98756265D01*
X160232626Y-100580148D01*
X160232626Y-100580148D01*
G37*
D11*
X167227339Y-94660618D03*
D12*
G36*
X169086008Y-94733770D02*
G01*
X166598895Y-96411349D01*
X165368670Y-94587466D01*
X167855783Y-92909887D01*
X169086008Y-94733770D01*
X169086008Y-94733770D01*
G37*
D11*
X170470657Y-99469036D03*
D12*
G36*
X172329326Y-99542188D02*
G01*
X169842213Y-101219767D01*
X168611988Y-99395884D01*
X171099101Y-97718305D01*
X172329326Y-99542188D01*
X172329326Y-99542188D01*
G37*
D11*
X152663372Y-101125541D03*
D12*
G36*
X150803710Y-101084838D02*
G01*
X153261166Y-99364109D01*
X154523034Y-101166244D01*
X152065578Y-102886973D01*
X150803710Y-101084838D01*
X150803710Y-101084838D01*
G37*
D11*
X149336628Y-96374459D03*
D12*
G36*
X147476966Y-96333756D02*
G01*
X149934422Y-94613027D01*
X151196290Y-96415162D01*
X148738834Y-98135891D01*
X147476966Y-96333756D01*
X147476966Y-96333756D01*
G37*
D11*
X166864418Y-80003224D03*
D12*
G36*
X168724507Y-80011465D02*
G01*
X166297456Y-81774821D01*
X165004329Y-79994983D01*
X167431380Y-78231627D01*
X168724507Y-80011465D01*
X168724507Y-80011465D01*
G37*
D11*
X163455264Y-75310926D03*
D12*
G36*
X165315353Y-75319167D02*
G01*
X162888302Y-77082523D01*
X161595175Y-75302685D01*
X164022226Y-73539329D01*
X165315353Y-75319167D01*
X165315353Y-75319167D01*
G37*
D11*
X154336628Y-71124459D03*
D12*
G36*
X152476966Y-71083756D02*
G01*
X154934422Y-69363027D01*
X156196290Y-71165162D01*
X153738834Y-72885891D01*
X152476966Y-71083756D01*
X152476966Y-71083756D01*
G37*
D11*
X157663372Y-75875541D03*
D12*
G36*
X155803710Y-75834838D02*
G01*
X158261166Y-74114109D01*
X159523034Y-75916244D01*
X157065578Y-77636973D01*
X155803710Y-75834838D01*
X155803710Y-75834838D01*
G37*
D11*
X163086628Y-65124459D03*
D12*
G36*
X161226966Y-65083756D02*
G01*
X163684422Y-63363027D01*
X164946290Y-65165162D01*
X162488834Y-66885891D01*
X161226966Y-65083756D01*
X161226966Y-65083756D01*
G37*
D11*
X166413372Y-69875541D03*
D12*
G36*
X164553710Y-69834838D02*
G01*
X167011166Y-68114109D01*
X168273034Y-69916244D01*
X165815578Y-71636973D01*
X164553710Y-69834838D01*
X164553710Y-69834838D01*
G37*
D11*
X158470427Y-86150656D03*
D12*
G36*
X160330516Y-86158897D02*
G01*
X157903465Y-87922253D01*
X156610338Y-86142415D01*
X159037389Y-84379059D01*
X160330516Y-86158897D01*
X160330516Y-86158897D01*
G37*
D11*
X155061273Y-81458358D03*
D12*
G36*
X156921362Y-81466599D02*
G01*
X154494311Y-83229955D01*
X153201184Y-81450117D01*
X155628235Y-79686761D01*
X156921362Y-81466599D01*
X156921362Y-81466599D01*
G37*
D11*
X158586628Y-68124459D03*
D12*
G36*
X156726966Y-68083756D02*
G01*
X159184422Y-66363027D01*
X160446290Y-68165162D01*
X157988834Y-69885891D01*
X156726966Y-68083756D01*
X156726966Y-68083756D01*
G37*
D11*
X161913372Y-72875541D03*
D12*
G36*
X160053710Y-72834838D02*
G01*
X162511166Y-71114109D01*
X163773034Y-72916244D01*
X161315578Y-74636973D01*
X160053710Y-72834838D01*
X160053710Y-72834838D01*
G37*
D11*
X159258268Y-78384642D03*
D12*
G36*
X161118357Y-78392883D02*
G01*
X158691306Y-80156239D01*
X157398179Y-78376401D01*
X159825230Y-76613045D01*
X161118357Y-78392883D01*
X161118357Y-78392883D01*
G37*
D11*
X162667422Y-83076940D03*
D12*
G36*
X164527511Y-83085181D02*
G01*
X162100460Y-84848537D01*
X160807333Y-83068699D01*
X163234384Y-81305343D01*
X164527511Y-83085181D01*
X164527511Y-83085181D01*
G37*
D11*
X171311375Y-76925145D03*
D12*
G36*
X173171464Y-76933386D02*
G01*
X170744413Y-78696742D01*
X169451286Y-76916904D01*
X171878337Y-75153548D01*
X173171464Y-76933386D01*
X173171464Y-76933386D01*
G37*
D11*
X167902221Y-72232847D03*
D12*
G36*
X169762310Y-72241088D02*
G01*
X167335259Y-74004444D01*
X166042132Y-72224606D01*
X168469183Y-70461250D01*
X169762310Y-72241088D01*
X169762310Y-72241088D01*
G37*
D11*
X150086628Y-74124459D03*
D12*
G36*
X148226966Y-74083756D02*
G01*
X150684422Y-72363027D01*
X151946290Y-74165162D01*
X149488834Y-75885891D01*
X148226966Y-74083756D01*
X148226966Y-74083756D01*
G37*
D11*
X153413372Y-78875541D03*
D12*
G36*
X151553710Y-78834838D02*
G01*
X154011166Y-77114109D01*
X155273034Y-78916244D01*
X152815578Y-80636973D01*
X151553710Y-78834838D01*
X151553710Y-78834838D01*
G37*
D11*
X115836628Y-81624459D03*
D12*
G36*
X117696290Y-81665162D02*
G01*
X115238834Y-83385891D01*
X113976966Y-81583756D01*
X116434422Y-79863027D01*
X117696290Y-81665162D01*
X117696290Y-81665162D01*
G37*
D11*
X119163372Y-86375541D03*
D12*
G36*
X121023034Y-86416244D02*
G01*
X118565578Y-88136973D01*
X117303710Y-86334838D01*
X119761166Y-84614109D01*
X121023034Y-86416244D01*
X121023034Y-86416244D01*
G37*
D11*
X123413372Y-83375541D03*
D12*
G36*
X125273034Y-83416244D02*
G01*
X122815578Y-85136973D01*
X121553710Y-83334838D01*
X124011166Y-81614109D01*
X125273034Y-83416244D01*
X125273034Y-83416244D01*
G37*
D11*
X120086628Y-78624459D03*
D12*
G36*
X121946290Y-78665162D02*
G01*
X119488834Y-80385891D01*
X118226966Y-78583756D01*
X120684422Y-76863027D01*
X121946290Y-78665162D01*
X121946290Y-78665162D01*
G37*
D11*
X124336628Y-75624459D03*
D12*
G36*
X126196290Y-75665162D02*
G01*
X123738834Y-77385891D01*
X122476966Y-75583756D01*
X124934422Y-73863027D01*
X126196290Y-75665162D01*
X126196290Y-75665162D01*
G37*
D11*
X127663372Y-80375541D03*
D12*
G36*
X129523034Y-80416244D02*
G01*
X127065578Y-82136973D01*
X125803710Y-80334838D01*
X128261166Y-78614109D01*
X129523034Y-80416244D01*
X129523034Y-80416244D01*
G37*
D11*
X113913372Y-78875541D03*
D12*
G36*
X112053710Y-78834838D02*
G01*
X114511166Y-77114109D01*
X115773034Y-78916244D01*
X113315578Y-80636973D01*
X112053710Y-78834838D01*
X112053710Y-78834838D01*
G37*
D11*
X110586628Y-74124459D03*
D12*
G36*
X108726966Y-74083756D02*
G01*
X111184422Y-72363027D01*
X112446290Y-74165162D01*
X109988834Y-75885891D01*
X108726966Y-74083756D01*
X108726966Y-74083756D01*
G37*
D11*
X126913372Y-69875541D03*
D12*
G36*
X125053710Y-69834838D02*
G01*
X127511166Y-68114109D01*
X128773034Y-69916244D01*
X126315578Y-71636973D01*
X125053710Y-69834838D01*
X125053710Y-69834838D01*
G37*
D11*
X123586628Y-65124459D03*
D12*
G36*
X121726966Y-65083756D02*
G01*
X124184422Y-63363027D01*
X125446290Y-65165162D01*
X122988834Y-66885891D01*
X121726966Y-65083756D01*
X121726966Y-65083756D01*
G37*
D11*
X118163372Y-75875541D03*
D12*
G36*
X116303710Y-75834838D02*
G01*
X118761166Y-74114109D01*
X120023034Y-75916244D01*
X117565578Y-77636973D01*
X116303710Y-75834838D01*
X116303710Y-75834838D01*
G37*
D11*
X114836628Y-71124459D03*
D12*
G36*
X112976966Y-71083756D02*
G01*
X115434422Y-69363027D01*
X116696290Y-71165162D01*
X114238834Y-72885891D01*
X112976966Y-71083756D01*
X112976966Y-71083756D01*
G37*
D11*
X128836628Y-72624459D03*
D12*
G36*
X130696290Y-72665162D02*
G01*
X128238834Y-74385891D01*
X126976966Y-72583756D01*
X129434422Y-70863027D01*
X130696290Y-72665162D01*
X130696290Y-72665162D01*
G37*
D11*
X132163372Y-77375541D03*
D12*
G36*
X134023034Y-77416244D02*
G01*
X131565578Y-79136973D01*
X130303710Y-77334838D01*
X132761166Y-75614109D01*
X134023034Y-77416244D01*
X134023034Y-77416244D01*
G37*
D11*
X122413372Y-72875541D03*
D12*
G36*
X120553710Y-72834838D02*
G01*
X123011166Y-71114109D01*
X124273034Y-72916244D01*
X121815578Y-74636973D01*
X120553710Y-72834838D01*
X120553710Y-72834838D01*
G37*
D11*
X119086628Y-68124459D03*
D12*
G36*
X117226966Y-68083756D02*
G01*
X119684422Y-66363027D01*
X120946290Y-68165162D01*
X118488834Y-69885891D01*
X117226966Y-68083756D01*
X117226966Y-68083756D01*
G37*
D11*
X127663372Y-102125541D03*
D12*
G36*
X129523034Y-102166244D02*
G01*
X127065578Y-103886973D01*
X125803710Y-102084838D01*
X128261166Y-100364109D01*
X129523034Y-102166244D01*
X129523034Y-102166244D01*
G37*
D11*
X124336628Y-97374459D03*
D12*
G36*
X126196290Y-97415162D02*
G01*
X123738834Y-99135891D01*
X122476966Y-97333756D01*
X124934422Y-95613027D01*
X126196290Y-97415162D01*
X126196290Y-97415162D01*
G37*
D11*
X110586628Y-95874459D03*
D12*
G36*
X108726966Y-95833756D02*
G01*
X111184422Y-94113027D01*
X112446290Y-95915162D01*
X109988834Y-97635891D01*
X108726966Y-95833756D01*
X108726966Y-95833756D01*
G37*
D11*
X113913372Y-100625541D03*
D12*
G36*
X112053710Y-100584838D02*
G01*
X114511166Y-98864109D01*
X115773034Y-100666244D01*
X113315578Y-102386973D01*
X112053710Y-100584838D01*
X112053710Y-100584838D01*
G37*
D11*
X120086628Y-100374459D03*
D12*
G36*
X121946290Y-100415162D02*
G01*
X119488834Y-102135891D01*
X118226966Y-100333756D01*
X120684422Y-98613027D01*
X121946290Y-100415162D01*
X121946290Y-100415162D01*
G37*
D11*
X123413372Y-105125541D03*
D12*
G36*
X125273034Y-105166244D02*
G01*
X122815578Y-106886973D01*
X121553710Y-105084838D01*
X124011166Y-103364109D01*
X125273034Y-105166244D01*
X125273034Y-105166244D01*
G37*
D11*
X123586628Y-86874459D03*
D12*
G36*
X121726966Y-86833756D02*
G01*
X124184422Y-85113027D01*
X125446290Y-86915162D01*
X122988834Y-88635891D01*
X121726966Y-86833756D01*
X121726966Y-86833756D01*
G37*
D11*
X126913372Y-91625541D03*
D12*
G36*
X125053710Y-91584838D02*
G01*
X127511166Y-89864109D01*
X128773034Y-91666244D01*
X126315578Y-93386973D01*
X125053710Y-91584838D01*
X125053710Y-91584838D01*
G37*
D11*
X114836628Y-92874459D03*
D12*
G36*
X112976966Y-92833756D02*
G01*
X115434422Y-91113027D01*
X116696290Y-92915162D01*
X114238834Y-94635891D01*
X112976966Y-92833756D01*
X112976966Y-92833756D01*
G37*
D11*
X118163372Y-97625541D03*
D12*
G36*
X116303710Y-97584838D02*
G01*
X118761166Y-95864109D01*
X120023034Y-97666244D01*
X117565578Y-99386973D01*
X116303710Y-97584838D01*
X116303710Y-97584838D01*
G37*
D11*
X132163372Y-99125541D03*
D12*
G36*
X134023034Y-99166244D02*
G01*
X131565578Y-100886973D01*
X130303710Y-99084838D01*
X132761166Y-97364109D01*
X134023034Y-99166244D01*
X134023034Y-99166244D01*
G37*
D11*
X128836628Y-94374459D03*
D12*
G36*
X130696290Y-94415162D02*
G01*
X128238834Y-96135891D01*
X126976966Y-94333756D01*
X129434422Y-92613027D01*
X130696290Y-94415162D01*
X130696290Y-94415162D01*
G37*
D11*
X119163372Y-108125541D03*
D12*
G36*
X121023034Y-108166244D02*
G01*
X118565578Y-109886973D01*
X117303710Y-108084838D01*
X119761166Y-106364109D01*
X121023034Y-108166244D01*
X121023034Y-108166244D01*
G37*
D11*
X115836628Y-103374459D03*
D12*
G36*
X117696290Y-103415162D02*
G01*
X115238834Y-105135891D01*
X113976966Y-103333756D01*
X116434422Y-101613027D01*
X117696290Y-103415162D01*
X117696290Y-103415162D01*
G37*
D11*
X119086628Y-89874459D03*
D12*
G36*
X117226966Y-89833756D02*
G01*
X119684422Y-88113027D01*
X120946290Y-89915162D01*
X118488834Y-91635891D01*
X117226966Y-89833756D01*
X117226966Y-89833756D01*
G37*
D11*
X122413372Y-94625541D03*
D12*
G36*
X120553710Y-94584838D02*
G01*
X123011166Y-92864109D01*
X124273034Y-94666244D01*
X121815578Y-96386973D01*
X120553710Y-94584838D01*
X120553710Y-94584838D01*
G37*
D11*
X113913372Y-122875541D03*
D12*
G36*
X112053710Y-122834838D02*
G01*
X114511166Y-121114109D01*
X115773034Y-122916244D01*
X113315578Y-124636973D01*
X112053710Y-122834838D01*
X112053710Y-122834838D01*
G37*
D11*
X110586628Y-118124459D03*
D12*
G36*
X108726966Y-118083756D02*
G01*
X111184422Y-116363027D01*
X112446290Y-118165162D01*
X109988834Y-119885891D01*
X108726966Y-118083756D01*
X108726966Y-118083756D01*
G37*
D11*
X123213372Y-127175541D03*
D12*
G36*
X125073034Y-127216244D02*
G01*
X122615578Y-128936973D01*
X121353710Y-127134838D01*
X123811166Y-125414109D01*
X125073034Y-127216244D01*
X125073034Y-127216244D01*
G37*
D11*
X119886628Y-122424459D03*
D12*
G36*
X121746290Y-122465162D02*
G01*
X119288834Y-124185891D01*
X118026966Y-122383756D01*
X120484422Y-120663027D01*
X121746290Y-122465162D01*
X121746290Y-122465162D01*
G37*
D11*
X126913372Y-113875541D03*
D12*
G36*
X125053710Y-113834838D02*
G01*
X127511166Y-112114109D01*
X128773034Y-113916244D01*
X126315578Y-115636973D01*
X125053710Y-113834838D01*
X125053710Y-113834838D01*
G37*
D11*
X123586628Y-109124459D03*
D12*
G36*
X121726966Y-109083756D02*
G01*
X124184422Y-107363027D01*
X125446290Y-109165162D01*
X122988834Y-110885891D01*
X121726966Y-109083756D01*
X121726966Y-109083756D01*
G37*
D11*
X122413372Y-116875541D03*
D12*
G36*
X120553710Y-116834838D02*
G01*
X123011166Y-115114109D01*
X124273034Y-116916244D01*
X121815578Y-118636973D01*
X120553710Y-116834838D01*
X120553710Y-116834838D01*
G37*
D11*
X119086628Y-112124459D03*
D12*
G36*
X117226966Y-112083756D02*
G01*
X119684422Y-110363027D01*
X120946290Y-112165162D01*
X118488834Y-113885891D01*
X117226966Y-112083756D01*
X117226966Y-112083756D01*
G37*
D11*
X118163372Y-119875541D03*
D12*
G36*
X116303710Y-119834838D02*
G01*
X118761166Y-118114109D01*
X120023034Y-119916244D01*
X117565578Y-121636973D01*
X116303710Y-119834838D01*
X116303710Y-119834838D01*
G37*
D11*
X114836628Y-115124459D03*
D12*
G36*
X112976966Y-115083756D02*
G01*
X115434422Y-113363027D01*
X116696290Y-115165162D01*
X114238834Y-116885891D01*
X112976966Y-115083756D01*
X112976966Y-115083756D01*
G37*
D11*
X128636628Y-116224459D03*
D12*
G36*
X130496290Y-116265162D02*
G01*
X128038834Y-117985891D01*
X126776966Y-116183756D01*
X129234422Y-114463027D01*
X130496290Y-116265162D01*
X130496290Y-116265162D01*
G37*
D11*
X131963372Y-120975541D03*
D12*
G36*
X133823034Y-121016244D02*
G01*
X131365578Y-122736973D01*
X130103710Y-120934838D01*
X132561166Y-119214109D01*
X133823034Y-121016244D01*
X133823034Y-121016244D01*
G37*
D11*
X115336628Y-125624459D03*
D12*
G36*
X117196290Y-125665162D02*
G01*
X114738834Y-127385891D01*
X113476966Y-125583756D01*
X115934422Y-123863027D01*
X117196290Y-125665162D01*
X117196290Y-125665162D01*
G37*
D11*
X118663372Y-130375541D03*
D12*
G36*
X120523034Y-130416244D02*
G01*
X118065578Y-132136973D01*
X116803710Y-130334838D01*
X119261166Y-128614109D01*
X120523034Y-130416244D01*
X120523034Y-130416244D01*
G37*
D11*
X124136628Y-119424459D03*
D12*
G36*
X125996290Y-119465162D02*
G01*
X123538834Y-121185891D01*
X122276966Y-119383756D01*
X124734422Y-117663027D01*
X125996290Y-119465162D01*
X125996290Y-119465162D01*
G37*
D11*
X127463372Y-124175541D03*
D12*
G36*
X129323034Y-124216244D02*
G01*
X126865578Y-125936973D01*
X125603710Y-124134838D01*
X128061166Y-122414109D01*
X129323034Y-124216244D01*
X129323034Y-124216244D01*
G37*
D11*
X79913372Y-86375541D03*
D12*
G36*
X81773034Y-86416244D02*
G01*
X79315578Y-88136973D01*
X78053710Y-86334838D01*
X80511166Y-84614109D01*
X81773034Y-86416244D01*
X81773034Y-86416244D01*
G37*
D11*
X76586628Y-81624459D03*
D12*
G36*
X78446290Y-81665162D02*
G01*
X75988834Y-83385891D01*
X74726966Y-81583756D01*
X77184422Y-79863027D01*
X78446290Y-81665162D01*
X78446290Y-81665162D01*
G37*
D11*
X88413372Y-80375541D03*
D12*
G36*
X90273034Y-80416244D02*
G01*
X87815578Y-82136973D01*
X86553710Y-80334838D01*
X89011166Y-78614109D01*
X90273034Y-80416244D01*
X90273034Y-80416244D01*
G37*
D11*
X85086628Y-75624459D03*
D12*
G36*
X86946290Y-75665162D02*
G01*
X84488834Y-77385891D01*
X83226966Y-75583756D01*
X85684422Y-73863027D01*
X86946290Y-75665162D01*
X86946290Y-75665162D01*
G37*
D11*
X80836628Y-78624459D03*
D12*
G36*
X82696290Y-78665162D02*
G01*
X80238834Y-80385891D01*
X78976966Y-78583756D01*
X81434422Y-76863027D01*
X82696290Y-78665162D01*
X82696290Y-78665162D01*
G37*
D11*
X84163372Y-83375541D03*
D12*
G36*
X86023034Y-83416244D02*
G01*
X83565578Y-85136973D01*
X82303710Y-83334838D01*
X84761166Y-81614109D01*
X86023034Y-83416244D01*
X86023034Y-83416244D01*
G37*
D11*
X79836628Y-68124459D03*
D12*
G36*
X77976966Y-68083756D02*
G01*
X80434422Y-66363027D01*
X81696290Y-68165162D01*
X79238834Y-69885891D01*
X77976966Y-68083756D01*
X77976966Y-68083756D01*
G37*
D11*
X83163372Y-72875541D03*
D12*
G36*
X81303710Y-72834838D02*
G01*
X83761166Y-71114109D01*
X85023034Y-72916244D01*
X82565578Y-74636973D01*
X81303710Y-72834838D01*
X81303710Y-72834838D01*
G37*
D11*
X84336628Y-65124459D03*
D12*
G36*
X82476966Y-65083756D02*
G01*
X84934422Y-63363027D01*
X86196290Y-65165162D01*
X83738834Y-66885891D01*
X82476966Y-65083756D01*
X82476966Y-65083756D01*
G37*
D11*
X87663372Y-69875541D03*
D12*
G36*
X85803710Y-69834838D02*
G01*
X88261166Y-68114109D01*
X89523034Y-69916244D01*
X87065578Y-71636973D01*
X85803710Y-69834838D01*
X85803710Y-69834838D01*
G37*
D11*
X71336628Y-74124459D03*
D12*
G36*
X69476966Y-74083756D02*
G01*
X71934422Y-72363027D01*
X73196290Y-74165162D01*
X70738834Y-75885891D01*
X69476966Y-74083756D01*
X69476966Y-74083756D01*
G37*
D11*
X74663372Y-78875541D03*
D12*
G36*
X72803710Y-78834838D02*
G01*
X75261166Y-77114109D01*
X76523034Y-78916244D01*
X74065578Y-80636973D01*
X72803710Y-78834838D01*
X72803710Y-78834838D01*
G37*
D11*
X75586628Y-71124459D03*
D12*
G36*
X73726966Y-71083756D02*
G01*
X76184422Y-69363027D01*
X77446290Y-71165162D01*
X74988834Y-72885891D01*
X73726966Y-71083756D01*
X73726966Y-71083756D01*
G37*
D11*
X78913372Y-75875541D03*
D12*
G36*
X77053710Y-75834838D02*
G01*
X79511166Y-74114109D01*
X80773034Y-75916244D01*
X78315578Y-77636973D01*
X77053710Y-75834838D01*
X77053710Y-75834838D01*
G37*
D11*
X92913372Y-77375541D03*
D12*
G36*
X94773034Y-77416244D02*
G01*
X92315578Y-79136973D01*
X91053710Y-77334838D01*
X93511166Y-75614109D01*
X94773034Y-77416244D01*
X94773034Y-77416244D01*
G37*
D11*
X89586628Y-72624459D03*
D12*
G36*
X91446290Y-72665162D02*
G01*
X88988834Y-74385891D01*
X87726966Y-72583756D01*
X90184422Y-70863027D01*
X91446290Y-72665162D01*
X91446290Y-72665162D01*
G37*
D11*
X74663372Y-100875541D03*
D12*
G36*
X72803710Y-100834838D02*
G01*
X75261166Y-99114109D01*
X76523034Y-100916244D01*
X74065578Y-102636973D01*
X72803710Y-100834838D01*
X72803710Y-100834838D01*
G37*
D11*
X71336628Y-96124459D03*
D12*
G36*
X69476966Y-96083756D02*
G01*
X71934422Y-94363027D01*
X73196290Y-96165162D01*
X70738834Y-97885891D01*
X69476966Y-96083756D01*
X69476966Y-96083756D01*
G37*
D11*
X84163372Y-105375541D03*
D12*
G36*
X86023034Y-105416244D02*
G01*
X83565578Y-107136973D01*
X82303710Y-105334838D01*
X84761166Y-103614109D01*
X86023034Y-105416244D01*
X86023034Y-105416244D01*
G37*
D11*
X80836628Y-100624459D03*
D12*
G36*
X82696290Y-100665162D02*
G01*
X80238834Y-102385891D01*
X78976966Y-100583756D01*
X81434422Y-98863027D01*
X82696290Y-100665162D01*
X82696290Y-100665162D01*
G37*
D11*
X87663372Y-91875541D03*
D12*
G36*
X85803710Y-91834838D02*
G01*
X88261166Y-90114109D01*
X89523034Y-91916244D01*
X87065578Y-93636973D01*
X85803710Y-91834838D01*
X85803710Y-91834838D01*
G37*
D11*
X84336628Y-87124459D03*
D12*
G36*
X82476966Y-87083756D02*
G01*
X84934422Y-85363027D01*
X86196290Y-87165162D01*
X83738834Y-88885891D01*
X82476966Y-87083756D01*
X82476966Y-87083756D01*
G37*
D11*
X83163372Y-94875541D03*
D12*
G36*
X81303710Y-94834838D02*
G01*
X83761166Y-93114109D01*
X85023034Y-94916244D01*
X82565578Y-96636973D01*
X81303710Y-94834838D01*
X81303710Y-94834838D01*
G37*
D11*
X79836628Y-90124459D03*
D12*
G36*
X77976966Y-90083756D02*
G01*
X80434422Y-88363027D01*
X81696290Y-90165162D01*
X79238834Y-91885891D01*
X77976966Y-90083756D01*
X77976966Y-90083756D01*
G37*
D11*
X78913372Y-97875541D03*
D12*
G36*
X77053710Y-97834838D02*
G01*
X79511166Y-96114109D01*
X80773034Y-97916244D01*
X78315578Y-99636973D01*
X77053710Y-97834838D01*
X77053710Y-97834838D01*
G37*
D11*
X75586628Y-93124459D03*
D12*
G36*
X73726966Y-93083756D02*
G01*
X76184422Y-91363027D01*
X77446290Y-93165162D01*
X74988834Y-94885891D01*
X73726966Y-93083756D01*
X73726966Y-93083756D01*
G37*
D11*
X89586628Y-94624459D03*
D12*
G36*
X91446290Y-94665162D02*
G01*
X88988834Y-96385891D01*
X87726966Y-94583756D01*
X90184422Y-92863027D01*
X91446290Y-94665162D01*
X91446290Y-94665162D01*
G37*
D11*
X92913372Y-99375541D03*
D12*
G36*
X94773034Y-99416244D02*
G01*
X92315578Y-101136973D01*
X91053710Y-99334838D01*
X93511166Y-97614109D01*
X94773034Y-99416244D01*
X94773034Y-99416244D01*
G37*
D11*
X76586628Y-103624459D03*
D12*
G36*
X78446290Y-103665162D02*
G01*
X75988834Y-105385891D01*
X74726966Y-103583756D01*
X77184422Y-101863027D01*
X78446290Y-103665162D01*
X78446290Y-103665162D01*
G37*
D11*
X79913372Y-108375541D03*
D12*
G36*
X81773034Y-108416244D02*
G01*
X79315578Y-110136973D01*
X78053710Y-108334838D01*
X80511166Y-106614109D01*
X81773034Y-108416244D01*
X81773034Y-108416244D01*
G37*
D11*
X85086628Y-97624459D03*
D12*
G36*
X86946290Y-97665162D02*
G01*
X84488834Y-99385891D01*
X83226966Y-97583756D01*
X85684422Y-95863027D01*
X86946290Y-97665162D01*
X86946290Y-97665162D01*
G37*
D11*
X88413372Y-102375541D03*
D12*
G36*
X90273034Y-102416244D02*
G01*
X87815578Y-104136973D01*
X86553710Y-102334838D01*
X89011166Y-100614109D01*
X90273034Y-102416244D01*
X90273034Y-102416244D01*
G37*
D11*
X71336628Y-118124459D03*
D12*
G36*
X69476966Y-118083756D02*
G01*
X71934422Y-116363027D01*
X73196290Y-118165162D01*
X70738834Y-119885891D01*
X69476966Y-118083756D01*
X69476966Y-118083756D01*
G37*
D11*
X74663372Y-122875541D03*
D12*
G36*
X72803710Y-122834838D02*
G01*
X75261166Y-121114109D01*
X76523034Y-122916244D01*
X74065578Y-124636973D01*
X72803710Y-122834838D01*
X72803710Y-122834838D01*
G37*
D11*
X88413372Y-124375541D03*
D12*
G36*
X90273034Y-124416244D02*
G01*
X87815578Y-126136973D01*
X86553710Y-124334838D01*
X89011166Y-122614109D01*
X90273034Y-124416244D01*
X90273034Y-124416244D01*
G37*
D11*
X85086628Y-119624459D03*
D12*
G36*
X86946290Y-119665162D02*
G01*
X84488834Y-121385891D01*
X83226966Y-119583756D01*
X85684422Y-117863027D01*
X86946290Y-119665162D01*
X86946290Y-119665162D01*
G37*
D11*
X79836628Y-112124459D03*
D12*
G36*
X77976966Y-112083756D02*
G01*
X80434422Y-110363027D01*
X81696290Y-112165162D01*
X79238834Y-113885891D01*
X77976966Y-112083756D01*
X77976966Y-112083756D01*
G37*
D11*
X83163372Y-116875541D03*
D12*
G36*
X81303710Y-116834838D02*
G01*
X83761166Y-115114109D01*
X85023034Y-116916244D01*
X82565578Y-118636973D01*
X81303710Y-116834838D01*
X81303710Y-116834838D01*
G37*
D11*
X80836628Y-122624459D03*
D12*
G36*
X82696290Y-122665162D02*
G01*
X80238834Y-124385891D01*
X78976966Y-122583756D01*
X81434422Y-120863027D01*
X82696290Y-122665162D01*
X82696290Y-122665162D01*
G37*
D11*
X84163372Y-127375541D03*
D12*
G36*
X86023034Y-127416244D02*
G01*
X83565578Y-129136973D01*
X82303710Y-127334838D01*
X84761166Y-125614109D01*
X86023034Y-127416244D01*
X86023034Y-127416244D01*
G37*
D11*
X75586628Y-115124459D03*
D12*
G36*
X73726966Y-115083756D02*
G01*
X76184422Y-113363027D01*
X77446290Y-115165162D01*
X74988834Y-116885891D01*
X73726966Y-115083756D01*
X73726966Y-115083756D01*
G37*
D11*
X78913372Y-119875541D03*
D12*
G36*
X77053710Y-119834838D02*
G01*
X79511166Y-118114109D01*
X80773034Y-119916244D01*
X78315578Y-121636973D01*
X77053710Y-119834838D01*
X77053710Y-119834838D01*
G37*
D11*
X84336628Y-109124459D03*
D12*
G36*
X82476966Y-109083756D02*
G01*
X84934422Y-107363027D01*
X86196290Y-109165162D01*
X83738834Y-110885891D01*
X82476966Y-109083756D01*
X82476966Y-109083756D01*
G37*
D11*
X87663372Y-113875541D03*
D12*
G36*
X85803710Y-113834838D02*
G01*
X88261166Y-112114109D01*
X89523034Y-113916244D01*
X87065578Y-115636973D01*
X85803710Y-113834838D01*
X85803710Y-113834838D01*
G37*
D11*
X92913372Y-121375541D03*
D12*
G36*
X94773034Y-121416244D02*
G01*
X92315578Y-123136973D01*
X91053710Y-121334838D01*
X93511166Y-119614109D01*
X94773034Y-121416244D01*
X94773034Y-121416244D01*
G37*
D11*
X89586628Y-116624459D03*
D12*
G36*
X91446290Y-116665162D02*
G01*
X88988834Y-118385891D01*
X87726966Y-116583756D01*
X90184422Y-114863027D01*
X91446290Y-116665162D01*
X91446290Y-116665162D01*
G37*
D11*
X79913372Y-130375541D03*
D12*
G36*
X81773034Y-130416244D02*
G01*
X79315578Y-132136973D01*
X78053710Y-130334838D01*
X80511166Y-128614109D01*
X81773034Y-130416244D01*
X81773034Y-130416244D01*
G37*
D11*
X76586628Y-125624459D03*
D12*
G36*
X78446290Y-125665162D02*
G01*
X75988834Y-127385891D01*
X74726966Y-125583756D01*
X77184422Y-123863027D01*
X78446290Y-125665162D01*
X78446290Y-125665162D01*
G37*
D11*
X44163372Y-116875541D03*
D12*
G36*
X42303710Y-116834838D02*
G01*
X44761166Y-115114109D01*
X46023034Y-116916244D01*
X43565578Y-118636973D01*
X42303710Y-116834838D01*
X42303710Y-116834838D01*
G37*
D11*
X40836628Y-112124459D03*
D12*
G36*
X38976966Y-112083756D02*
G01*
X41434422Y-110363027D01*
X42696290Y-112165162D01*
X40238834Y-113885891D01*
X38976966Y-112083756D01*
X38976966Y-112083756D01*
G37*
D11*
X39913372Y-119875541D03*
D12*
G36*
X38053710Y-119834838D02*
G01*
X40511166Y-118114109D01*
X41773034Y-119916244D01*
X39315578Y-121636973D01*
X38053710Y-119834838D01*
X38053710Y-119834838D01*
G37*
D11*
X36586628Y-115124459D03*
D12*
G36*
X34726966Y-115083756D02*
G01*
X37184422Y-113363027D01*
X38446290Y-115165162D01*
X35988834Y-116885891D01*
X34726966Y-115083756D01*
X34726966Y-115083756D01*
G37*
D11*
X45163372Y-127375541D03*
D12*
G36*
X47023034Y-127416244D02*
G01*
X44565578Y-129136973D01*
X43303710Y-127334838D01*
X45761166Y-125614109D01*
X47023034Y-127416244D01*
X47023034Y-127416244D01*
G37*
D11*
X41836628Y-122624459D03*
D12*
G36*
X43696290Y-122665162D02*
G01*
X41238834Y-124385891D01*
X39976966Y-122583756D01*
X42434422Y-120863027D01*
X43696290Y-122665162D01*
X43696290Y-122665162D01*
G37*
D11*
X35663372Y-122875541D03*
D12*
G36*
X33803710Y-122834838D02*
G01*
X36261166Y-121114109D01*
X37523034Y-122916244D01*
X35065578Y-124636973D01*
X33803710Y-122834838D01*
X33803710Y-122834838D01*
G37*
D11*
X32336628Y-118124459D03*
D12*
G36*
X30476966Y-118083756D02*
G01*
X32934422Y-116363027D01*
X34196290Y-118165162D01*
X31738834Y-119885891D01*
X30476966Y-118083756D01*
X30476966Y-118083756D01*
G37*
D11*
X46086628Y-119624459D03*
D12*
G36*
X47946290Y-119665162D02*
G01*
X45488834Y-121385891D01*
X44226966Y-119583756D01*
X46684422Y-117863027D01*
X47946290Y-119665162D01*
X47946290Y-119665162D01*
G37*
D11*
X49413372Y-124375541D03*
D12*
G36*
X51273034Y-124416244D02*
G01*
X48815578Y-126136973D01*
X47553710Y-124334838D01*
X50011166Y-122614109D01*
X51273034Y-124416244D01*
X51273034Y-124416244D01*
G37*
D11*
X50586628Y-116624459D03*
D12*
G36*
X52446290Y-116665162D02*
G01*
X49988834Y-118385891D01*
X48726966Y-116583756D01*
X51184422Y-114863027D01*
X52446290Y-116665162D01*
X52446290Y-116665162D01*
G37*
D11*
X53913372Y-121375541D03*
D12*
G36*
X55773034Y-121416244D02*
G01*
X53315578Y-123136973D01*
X52053710Y-121334838D01*
X54511166Y-119614109D01*
X55773034Y-121416244D01*
X55773034Y-121416244D01*
G37*
D11*
X37586628Y-125624459D03*
D12*
G36*
X39446290Y-125665162D02*
G01*
X36988834Y-127385891D01*
X35726966Y-125583756D01*
X38184422Y-123863027D01*
X39446290Y-125665162D01*
X39446290Y-125665162D01*
G37*
D11*
X40913372Y-130375541D03*
D12*
G36*
X42773034Y-130416244D02*
G01*
X40315578Y-132136973D01*
X39053710Y-130334838D01*
X41511166Y-128614109D01*
X42773034Y-130416244D01*
X42773034Y-130416244D01*
G37*
D11*
X48663372Y-113875541D03*
D12*
G36*
X46803710Y-113834838D02*
G01*
X49261166Y-112114109D01*
X50523034Y-113916244D01*
X48065578Y-115636973D01*
X46803710Y-113834838D01*
X46803710Y-113834838D01*
G37*
D11*
X45336628Y-109124459D03*
D12*
G36*
X43476966Y-109083756D02*
G01*
X45934422Y-107363027D01*
X47196290Y-109165162D01*
X44738834Y-110885891D01*
X43476966Y-109083756D01*
X43476966Y-109083756D01*
G37*
D11*
X41586628Y-100624459D03*
D12*
G36*
X43446290Y-100665162D02*
G01*
X40988834Y-102385891D01*
X39726966Y-100583756D01*
X42184422Y-98863027D01*
X43446290Y-100665162D01*
X43446290Y-100665162D01*
G37*
D11*
X44913372Y-105375541D03*
D12*
G36*
X46773034Y-105416244D02*
G01*
X44315578Y-107136973D01*
X43053710Y-105334838D01*
X45511166Y-103614109D01*
X46773034Y-105416244D01*
X46773034Y-105416244D01*
G37*
D11*
X32086628Y-96124459D03*
D12*
G36*
X30226966Y-96083756D02*
G01*
X32684422Y-94363027D01*
X33946290Y-96165162D01*
X31488834Y-97885891D01*
X30226966Y-96083756D01*
X30226966Y-96083756D01*
G37*
D11*
X35413372Y-100875541D03*
D12*
G36*
X33553710Y-100834838D02*
G01*
X36011166Y-99114109D01*
X37273034Y-100916244D01*
X34815578Y-102636973D01*
X33553710Y-100834838D01*
X33553710Y-100834838D01*
G37*
D11*
X40663372Y-108375541D03*
D12*
G36*
X42523034Y-108416244D02*
G01*
X40065578Y-110136973D01*
X38803710Y-108334838D01*
X41261166Y-106614109D01*
X42523034Y-108416244D01*
X42523034Y-108416244D01*
G37*
D11*
X37336628Y-103624459D03*
D12*
G36*
X39196290Y-103665162D02*
G01*
X36738834Y-105385891D01*
X35476966Y-103583756D01*
X37934422Y-101863027D01*
X39196290Y-103665162D01*
X39196290Y-103665162D01*
G37*
D11*
X53663372Y-99375541D03*
D12*
G36*
X55523034Y-99416244D02*
G01*
X53065578Y-101136973D01*
X51803710Y-99334838D01*
X54261166Y-97614109D01*
X55523034Y-99416244D01*
X55523034Y-99416244D01*
G37*
D11*
X50336628Y-94624459D03*
D12*
G36*
X52196290Y-94665162D02*
G01*
X49738834Y-96385891D01*
X48476966Y-94583756D01*
X50934422Y-92863027D01*
X52196290Y-94665162D01*
X52196290Y-94665162D01*
G37*
D11*
X40586628Y-90124459D03*
D12*
G36*
X38726966Y-90083756D02*
G01*
X41184422Y-88363027D01*
X42446290Y-90165162D01*
X39988834Y-91885891D01*
X38726966Y-90083756D01*
X38726966Y-90083756D01*
G37*
D11*
X43913372Y-94875541D03*
D12*
G36*
X42053710Y-94834838D02*
G01*
X44511166Y-93114109D01*
X45773034Y-94916244D01*
X43315578Y-96636973D01*
X42053710Y-94834838D01*
X42053710Y-94834838D01*
G37*
D11*
X36336628Y-93124459D03*
D12*
G36*
X34476966Y-93083756D02*
G01*
X36934422Y-91363027D01*
X38196290Y-93165162D01*
X35738834Y-94885891D01*
X34476966Y-93083756D01*
X34476966Y-93083756D01*
G37*
D11*
X39663372Y-97875541D03*
D12*
G36*
X37803710Y-97834838D02*
G01*
X40261166Y-96114109D01*
X41523034Y-97916244D01*
X39065578Y-99636973D01*
X37803710Y-97834838D01*
X37803710Y-97834838D01*
G37*
D11*
X45086628Y-87124459D03*
D12*
G36*
X43226966Y-87083756D02*
G01*
X45684422Y-85363027D01*
X46946290Y-87165162D01*
X44488834Y-88885891D01*
X43226966Y-87083756D01*
X43226966Y-87083756D01*
G37*
D11*
X48413372Y-91875541D03*
D12*
G36*
X46553710Y-91834838D02*
G01*
X49011166Y-90114109D01*
X50273034Y-91916244D01*
X47815578Y-93636973D01*
X46553710Y-91834838D01*
X46553710Y-91834838D01*
G37*
D11*
X49163372Y-102375541D03*
D12*
G36*
X51023034Y-102416244D02*
G01*
X48565578Y-104136973D01*
X47303710Y-102334838D01*
X49761166Y-100614109D01*
X51023034Y-102416244D01*
X51023034Y-102416244D01*
G37*
D11*
X45836628Y-97624459D03*
D12*
G36*
X47696290Y-97665162D02*
G01*
X45238834Y-99385891D01*
X43976966Y-97583756D01*
X46434422Y-95863027D01*
X47696290Y-97665162D01*
X47696290Y-97665162D01*
G37*
D11*
X50586628Y-72624459D03*
D12*
G36*
X52446290Y-72665162D02*
G01*
X49988834Y-74385891D01*
X48726966Y-72583756D01*
X51184422Y-70863027D01*
X52446290Y-72665162D01*
X52446290Y-72665162D01*
G37*
D11*
X53913372Y-77375541D03*
D12*
G36*
X55773034Y-77416244D02*
G01*
X53315578Y-79136973D01*
X52053710Y-77334838D01*
X54511166Y-75614109D01*
X55773034Y-77416244D01*
X55773034Y-77416244D01*
G37*
D11*
X46086628Y-75624459D03*
D12*
G36*
X47946290Y-75665162D02*
G01*
X45488834Y-77385891D01*
X44226966Y-75583756D01*
X46684422Y-73863027D01*
X47946290Y-75665162D01*
X47946290Y-75665162D01*
G37*
D11*
X49413372Y-80375541D03*
D12*
G36*
X51273034Y-80416244D02*
G01*
X48815578Y-82136973D01*
X47553710Y-80334838D01*
X50011166Y-78614109D01*
X51273034Y-80416244D01*
X51273034Y-80416244D01*
G37*
D11*
X45163372Y-83375541D03*
D12*
G36*
X47023034Y-83416244D02*
G01*
X44565578Y-85136973D01*
X43303710Y-83334838D01*
X45761166Y-81614109D01*
X47023034Y-83416244D01*
X47023034Y-83416244D01*
G37*
D11*
X41836628Y-78624459D03*
D12*
G36*
X43696290Y-78665162D02*
G01*
X41238834Y-80385891D01*
X39976966Y-78583756D01*
X42434422Y-76863027D01*
X43696290Y-78665162D01*
X43696290Y-78665162D01*
G37*
D13*
X60599998Y-141999998D03*
X66399998Y-141999998D03*
X60600002Y-137999999D03*
X66400002Y-137999999D03*
D11*
X58199390Y-130550610D03*
D12*
G36*
X57916547Y-128712132D02*
G01*
X60037868Y-130833453D01*
X58482233Y-132389088D01*
X56360912Y-130267767D01*
X57916547Y-128712132D01*
X57916547Y-128712132D01*
G37*
D11*
X62300610Y-126449390D03*
D12*
G36*
X62017767Y-124610912D02*
G01*
X64139088Y-126732233D01*
X62583453Y-128287868D01*
X60462132Y-126166547D01*
X62017767Y-124610912D01*
X62017767Y-124610912D01*
G37*
D13*
X47900000Y-142000000D03*
X42100000Y-142000000D03*
X47900000Y-137500000D03*
X42100000Y-137500000D03*
D11*
X37586628Y-81624459D03*
D12*
G36*
X39446290Y-81665162D02*
G01*
X36988834Y-83385891D01*
X35726966Y-81583756D01*
X38184422Y-79863027D01*
X39446290Y-81665162D01*
X39446290Y-81665162D01*
G37*
D11*
X40913372Y-86375541D03*
D12*
G36*
X42773034Y-86416244D02*
G01*
X40315578Y-88136973D01*
X39053710Y-86334838D01*
X41511166Y-84614109D01*
X42773034Y-86416244D01*
X42773034Y-86416244D01*
G37*
D11*
X48663372Y-69875541D03*
D12*
G36*
X46803710Y-69834838D02*
G01*
X49261166Y-68114109D01*
X50523034Y-69916244D01*
X48065578Y-71636973D01*
X46803710Y-69834838D01*
X46803710Y-69834838D01*
G37*
D11*
X45336628Y-65124459D03*
D12*
G36*
X43476966Y-65083756D02*
G01*
X45934422Y-63363027D01*
X47196290Y-65165162D01*
X44738834Y-66885891D01*
X43476966Y-65083756D01*
X43476966Y-65083756D01*
G37*
D11*
X44163372Y-72875541D03*
D12*
G36*
X42303710Y-72834838D02*
G01*
X44761166Y-71114109D01*
X46023034Y-72916244D01*
X43565578Y-74636973D01*
X42303710Y-72834838D01*
X42303710Y-72834838D01*
G37*
D11*
X40836628Y-68124459D03*
D12*
G36*
X38976966Y-68083756D02*
G01*
X41434422Y-66363027D01*
X42696290Y-68165162D01*
X40238834Y-69885891D01*
X38976966Y-68083756D01*
X38976966Y-68083756D01*
G37*
D11*
X39913372Y-75875541D03*
D12*
G36*
X38053710Y-75834838D02*
G01*
X40511166Y-74114109D01*
X41773034Y-75916244D01*
X39315578Y-77636973D01*
X38053710Y-75834838D01*
X38053710Y-75834838D01*
G37*
D11*
X36586628Y-71124459D03*
D12*
G36*
X34726966Y-71083756D02*
G01*
X37184422Y-69363027D01*
X38446290Y-71165162D01*
X35988834Y-72885891D01*
X34726966Y-71083756D01*
X34726966Y-71083756D01*
G37*
D11*
X35663372Y-78875541D03*
D12*
G36*
X33803710Y-78834838D02*
G01*
X36261166Y-77114109D01*
X37523034Y-78916244D01*
X35065578Y-80636973D01*
X33803710Y-78834838D01*
X33803710Y-78834838D01*
G37*
D11*
X32336628Y-74124459D03*
D12*
G36*
X30476966Y-74083756D02*
G01*
X32934422Y-72363027D01*
X34196290Y-74165162D01*
X31738834Y-75885891D01*
X30476966Y-74083756D01*
X30476966Y-74083756D01*
G37*
M02*
