M48
; DRILL file {KiCad (5.1.4)-1} date 2020/5/13 1:14:08
; FORMAT={-:-/ absolute / metric / decimal}
; #@! TF.CreationDate,2020-05-13T01:14:08+08:00
; #@! TF.GenerationSoftware,Kicad,Pcbnew,(5.1.4)-1
; #@! TF.FileFunction,Plated,1,2,PTH
FMAT,2
METRIC
T1C0.400
T2C0.800
T3C1.000
T4C1.300
T5C1.600
T6C1.700
T7C3.500
%
G90
G05
T1
X21.75Y-21.34
X21.75Y-28.92
X21.75Y-31.46
X21.75Y-34.0
X21.75Y-161.09
X21.75Y-168.59
X21.8Y-54.4
X21.8Y-56.94
X21.8Y-59.48
X21.8Y-62.02
X21.8Y-64.56
X21.8Y-67.1
X21.8Y-69.64
X21.8Y-72.18
X21.8Y-74.72
X21.8Y-77.26
X21.8Y-79.8
X21.8Y-82.34
X21.8Y-84.88
X21.8Y-87.42
X21.8Y-89.96
X21.8Y-92.5
X21.8Y-95.04
X21.8Y-97.58
X21.8Y-100.12
X21.8Y-102.66
X21.8Y-105.2
X21.8Y-107.74
X21.8Y-110.28
X21.8Y-112.82
X21.8Y-115.36
X21.8Y-117.9
X21.8Y-120.44
X21.8Y-122.98
X21.8Y-125.52
X21.8Y-128.06
X21.8Y-130.6
X21.8Y-133.14
X21.8Y-135.68
X21.8Y-138.22
X24.75Y-21.25
X27.75Y-21.25
X30.29Y-21.25
X30.4Y-98.6
X30.4Y-120.0
X30.6Y-76.4
X32.83Y-21.25
X34.5Y-33.5
X35.0Y-95.6
X35.0Y-117.0
X35.2Y-73.4
X35.37Y-21.25
X37.04Y-33.5
X37.91Y-21.25
X38.0Y-109.4
X38.0Y-130.8
X38.2Y-87.2
X39.0Y-92.8
X39.0Y-114.2
X39.2Y-70.6
X39.58Y-33.5
X39.75Y-161.0
X39.75Y-163.75
X39.75Y-166.0
X39.75Y-168.5
X39.8Y-137.4
X39.8Y-141.8
X42.12Y-33.5
X42.29Y-161.0
X42.4Y-106.4
X42.4Y-127.8
X42.6Y-84.2
X43.6Y-89.6
X43.6Y-111.0
X43.8Y-67.4
X44.66Y-33.5
X44.83Y-161.0
X45.0Y-132.6
X46.8Y-103.6
X46.8Y-125.0
X47.0Y-81.4
X47.2Y-33.5
X47.37Y-161.0
X48.2Y-86.8
X48.2Y-108.2
X48.4Y-64.6
X49.0Y-128.8
X49.74Y-33.5
X49.91Y-161.0
X51.4Y-100.8
X51.4Y-122.2
X51.6Y-78.6
X52.28Y-33.5
X52.45Y-161.0
X54.82Y-33.5
X54.99Y-161.0
X55.8Y-98.0
X55.8Y-119.4
X56.0Y-75.8
X57.36Y-33.5
X57.53Y-161.0
X59.9Y-33.5
X60.07Y-161.0
X62.44Y-33.5
X62.61Y-161.0
X64.4Y-124.8
X64.98Y-33.5
X65.15Y-161.0
X67.52Y-33.5
X67.69Y-161.0
X68.6Y-134.0
X68.6Y-138.0
X68.6Y-141.8
X69.4Y-76.2
X69.4Y-98.2
X69.6Y-120.4
X70.06Y-33.5
X70.23Y-161.0
X72.6Y-33.5
X72.77Y-161.0
X74.0Y-73.2
X74.0Y-95.2
X74.2Y-117.4
X75.14Y-33.5
X75.31Y-161.0
X77.0Y-87.0
X77.0Y-109.0
X77.2Y-131.2
X77.68Y-33.5
X77.85Y-161.0
X78.0Y-70.4
X78.0Y-92.4
X78.2Y-114.6
X78.8Y-137.4
X78.8Y-141.8
X80.22Y-33.5
X80.39Y-161.0
X81.4Y-84.0
X81.4Y-106.0
X81.6Y-128.2
X82.6Y-67.2
X82.6Y-89.2
X82.76Y-33.5
X82.8Y-111.4
X82.93Y-161.0
X84.0Y-132.6
X85.3Y-33.5
X85.47Y-161.0
X85.8Y-81.2
X85.8Y-103.2
X86.0Y-125.4
X87.2Y-64.4
X87.2Y-86.4
X87.4Y-108.6
X87.84Y-33.5
X88.0Y-128.8
X88.01Y-161.0
X90.38Y-33.5
X90.4Y-78.4
X90.4Y-100.4
X90.55Y-161.0
X90.6Y-122.6
X92.92Y-33.5
X93.09Y-161.0
X94.8Y-75.6
X94.8Y-97.6
X95.0Y-119.8
X95.46Y-33.5
X95.63Y-161.0
X98.0Y-33.5
X98.17Y-161.0
X100.54Y-33.5
X100.71Y-161.0
X103.08Y-33.5
X103.25Y-161.0
X103.4Y-124.8
X105.62Y-33.5
X105.79Y-161.0
X107.6Y-134.0
X107.6Y-138.0
X107.6Y-141.8
X108.16Y-33.5
X108.33Y-161.0
X108.4Y-76.0
X108.8Y-98.2
X108.8Y-120.2
X110.7Y-33.5
X110.87Y-161.0
X113.0Y-73.0
X113.24Y-33.5
X113.4Y-95.2
X113.4Y-117.2
X113.41Y-161.0
X115.78Y-33.5
X115.95Y-161.0
X116.0Y-86.8
X116.4Y-109.0
X116.4Y-131.0
X117.0Y-70.2
X117.4Y-92.4
X117.4Y-114.4
X117.8Y-137.4
X117.8Y-141.8
X118.32Y-33.5
X118.49Y-161.0
X120.4Y-83.8
X120.8Y-106.0
X120.8Y-128.0
X120.86Y-33.5
X121.03Y-161.0
X121.6Y-67.0
X122.0Y-89.2
X122.0Y-111.2
X123.0Y-132.6
X123.4Y-33.5
X123.57Y-161.0
X124.8Y-81.0
X125.2Y-103.2
X125.2Y-125.2
X125.94Y-33.5
X126.11Y-161.0
X126.2Y-64.2
X126.6Y-86.4
X126.6Y-108.4
X127.0Y-128.8
X128.48Y-33.5
X128.65Y-161.0
X129.4Y-78.2
X129.8Y-100.4
X129.8Y-122.4
X131.02Y-33.5
X131.19Y-161.0
X133.56Y-33.5
X133.73Y-161.0
X133.8Y-75.4
X134.2Y-97.6
X134.2Y-119.6
X136.1Y-33.5
X136.27Y-161.0
X138.64Y-33.5
X138.81Y-161.0
X141.18Y-33.5
X141.35Y-161.0
X142.4Y-124.8
X143.72Y-33.5
X143.89Y-161.0
X146.26Y-33.5
X146.43Y-161.0
X146.6Y-134.0
X146.6Y-138.0
X146.6Y-141.8
X147.2Y-98.4
X148.0Y-119.8
X148.2Y-76.2
X148.8Y-33.5
X148.97Y-161.0
X151.34Y-33.5
X151.51Y-161.0
X151.8Y-95.4
X152.6Y-116.8
X152.8Y-73.2
X153.88Y-33.5
X154.05Y-161.0
X154.8Y-109.2
X155.6Y-130.6
X155.8Y-87.0
X155.8Y-92.6
X156.42Y-33.5
X156.6Y-114.0
X156.8Y-70.4
X156.8Y-137.6
X156.8Y-142.0
X157.6Y-160.4
X158.96Y-33.5
X159.2Y-106.2
X159.6Y-159.2
X159.6Y-160.4
X160.0Y-127.6
X160.2Y-84.0
X160.4Y-89.4
X161.2Y-110.8
X161.4Y-67.2
X161.5Y-33.5
X162.0Y-132.8
X163.6Y-103.4
X164.04Y-33.5
X164.4Y-124.8
X164.6Y-81.2
X165.0Y-86.6
X165.8Y-108.0
X166.0Y-64.4
X166.0Y-129.0
X166.58Y-33.5
X168.2Y-100.6
X169.0Y-26.25
X169.0Y-122.0
X169.12Y-33.5
X169.2Y-78.4
X170.75Y-34.75
X172.5Y-36.25
X172.6Y-97.8
X173.4Y-119.2
X173.6Y-75.6
X174.4Y-162.2
X175.0Y-36.5
X176.2Y-162.2
X177.54Y-36.5
X178.385Y-26.865
X178.4Y-162.2
X178.625Y-23.125
X178.75Y-24.25
X178.75Y-25.5
X180.08Y-36.5
X180.2Y-162.2
X180.6Y-70.2
X181.4Y-125.0
X181.5Y-164.25
X181.8Y-101.6
X182.62Y-36.5
X183.6Y-66.0
X184.04Y-164.25
X185.0Y-97.6
X185.16Y-36.5
X185.4Y-160.4
X185.6Y-134.2
X185.6Y-138.2
X185.6Y-142.0
X186.58Y-164.25
X186.8Y-61.6
X187.7Y-36.5
X188.0Y-93.2
X189.12Y-164.25
X189.4Y-58.4
X190.24Y-36.5
X190.6Y-89.8
X191.66Y-164.25
X192.0Y-143.0
X192.6Y-53.8
X192.6Y-159.0
X192.78Y-36.5
X193.8Y-85.4
X194.2Y-164.25
X195.2Y-156.2
X195.32Y-36.5
X195.4Y-81.2
X195.6Y-49.8
X196.4Y-113.0
X196.74Y-164.25
X197.0Y-81.2
X197.86Y-36.5
X198.6Y-77.2
X199.28Y-164.25
X199.6Y-108.6
X199.6Y-141.0
X200.4Y-36.5
X201.2Y-113.2
X201.2Y-117.2
X201.2Y-121.2
X201.2Y-124.8
X201.2Y-129.0
X201.2Y-133.2
X201.2Y-137.0
X201.8Y-72.8
X202.25Y-164.25
X202.94Y-36.5
X203.0Y-104.2
X204.0Y-21.25
X204.4Y-69.4
X204.5Y-163.25
X205.4Y-101.0
X205.48Y-36.5
X206.25Y-161.5
X206.54Y-21.25
X207.4Y-65.2
X208.0Y-160.0
X208.02Y-36.5
X208.6Y-96.8
X209.08Y-21.25
X209.5Y-158.5
X210.0Y-152.0
X210.4Y-60.8
X210.56Y-36.5
X211.25Y-156.5
X211.62Y-21.25
X211.8Y-92.2
X212.75Y-154.75
X213.1Y-36.5
X214.16Y-21.25
X214.25Y-38.69
X214.25Y-41.23
X214.25Y-43.77
X214.25Y-46.31
X214.25Y-48.85
X214.25Y-51.39
X214.25Y-53.93
X214.25Y-56.47
X214.25Y-59.01
X214.25Y-61.55
X214.25Y-64.09
X214.25Y-66.63
X214.25Y-69.17
X214.25Y-71.71
X214.25Y-74.25
X214.25Y-83.25
X214.25Y-85.79
X214.25Y-88.33
X214.25Y-90.87
X214.25Y-93.41
X214.25Y-95.95
X214.25Y-98.49
X214.25Y-101.03
X214.25Y-103.57
X214.25Y-106.11
X214.25Y-148.25
X214.25Y-150.75
X214.25Y-153.0
X212.943Y-23.812
X212.943Y-26.188
X215.0Y-22.625
X215.0Y-27.375
X217.057Y-23.812
X217.057Y-26.188
X212.943Y-163.812
X212.943Y-166.188
X215.0Y-162.625
X215.0Y-167.375
X217.057Y-163.812
X217.057Y-166.188
X22.943Y-23.812
X22.943Y-26.188
X25.0Y-22.625
X25.0Y-27.375
X27.057Y-23.812
X27.057Y-26.188
X21.92Y-36.01
X21.92Y-37.788
X21.92Y-39.566
X21.92Y-48.61
X21.92Y-50.388
X21.92Y-52.166
X23.92Y-36.01
X23.92Y-37.788
X23.92Y-39.566
X23.92Y-48.61
X23.92Y-50.388
X23.92Y-52.166
X25.92Y-36.01
X25.92Y-37.788
X25.92Y-39.566
X25.92Y-48.61
X25.92Y-50.388
X25.92Y-52.166
X27.92Y-36.01
X27.92Y-37.788
X27.92Y-39.566
X27.92Y-48.61
X27.92Y-50.388
X27.92Y-52.166
X29.92Y-36.01
X29.92Y-37.788
X29.92Y-39.566
X29.92Y-48.61
X29.92Y-50.388
X29.92Y-52.166
X22.943Y-163.812
X22.943Y-166.188
X25.0Y-162.625
X25.0Y-167.375
X27.057Y-163.812
X27.057Y-166.188
X21.92Y-142.01
X21.92Y-143.788
X21.92Y-145.566
X21.92Y-154.61
X21.92Y-156.388
X21.92Y-158.166
X23.92Y-142.01
X23.92Y-143.788
X23.92Y-145.566
X23.92Y-154.61
X23.92Y-156.388
X23.92Y-158.166
X25.92Y-142.01
X25.92Y-143.788
X25.92Y-145.566
X25.92Y-154.61
X25.92Y-156.388
X25.92Y-158.166
X27.92Y-142.01
X27.92Y-143.788
X27.92Y-145.566
X27.92Y-154.61
X27.92Y-156.388
X27.92Y-158.166
X29.92Y-142.01
X29.92Y-143.788
X29.92Y-145.566
X29.92Y-154.61
X29.92Y-156.388
X29.92Y-158.166
T2
X206.5Y-26.0
X209.0Y-26.0
T3
X183.5Y-25.5
X186.0Y-25.5
X188.5Y-25.5
X191.0Y-25.5
X193.5Y-25.5
X196.0Y-25.5
X198.5Y-25.5
X201.0Y-25.5
T4
X153.0Y-24.0
X153.0Y-39.0
X153.0Y-44.0
X153.0Y-49.0
X160.5Y-24.0
X160.5Y-39.0
X160.5Y-44.0
X160.5Y-49.0
X128.5Y-142.0
X128.5Y-147.0
X128.5Y-152.0
X128.5Y-167.0
X136.0Y-142.0
X136.0Y-147.0
X136.0Y-152.0
X136.0Y-167.0
X36.0Y-24.0
X36.0Y-39.0
X36.0Y-44.0
X36.0Y-49.0
X43.5Y-24.0
X43.5Y-39.0
X43.5Y-44.0
X43.5Y-49.0
X50.5Y-142.0
X50.5Y-147.0
X50.5Y-152.0
X50.5Y-167.0
X58.0Y-142.0
X58.0Y-147.0
X58.0Y-152.0
X58.0Y-167.0
X75.0Y-24.0
X75.0Y-39.0
X75.0Y-44.0
X75.0Y-49.0
X82.5Y-24.0
X82.5Y-39.0
X82.5Y-44.0
X82.5Y-49.0
X167.5Y-142.0
X167.5Y-147.0
X167.5Y-152.0
X167.5Y-167.0
X175.0Y-142.0
X175.0Y-147.0
X175.0Y-152.0
X175.0Y-167.0
X114.0Y-24.0
X114.0Y-39.0
X114.0Y-44.0
X114.0Y-49.0
X121.5Y-24.0
X121.5Y-39.0
X121.5Y-44.0
X121.5Y-49.0
X89.5Y-142.0
X89.5Y-147.0
X89.5Y-152.0
X89.5Y-167.0
X97.0Y-142.0
X97.0Y-147.0
X97.0Y-152.0
X97.0Y-167.0
T5
X173.741Y-88.401
X95.241Y-66.401
X56.241Y-132.401
X172.741Y-110.401
X95.241Y-132.401
X95.241Y-88.401
X56.241Y-88.401
X134.241Y-66.401
X56.241Y-110.401
X173.241Y-132.401
X173.241Y-66.401
X95.241Y-110.401
X134.241Y-88.401
X134.241Y-110.401
X134.241Y-132.401
X31.759Y-61.599
T6
X70.759Y-83.599
X31.759Y-83.599
X109.759Y-61.599
X31.759Y-105.599
X148.759Y-127.599
X148.759Y-61.599
X70.759Y-105.599
X183.424Y-81.98
X210.576Y-78.02
X109.759Y-83.599
X181.424Y-51.98
X208.576Y-48.02
X109.759Y-105.599
X109.759Y-127.599
X56.241Y-66.401
X184.899Y-150.926
X210.101Y-140.074
X149.259Y-83.599
X70.759Y-61.599
X31.759Y-127.599
X148.259Y-105.599
X70.759Y-127.599
X183.424Y-114.98
X210.576Y-111.02
T7
X215.0Y-25.0
X215.0Y-165.0
X25.0Y-25.0
X25.0Y-165.0
T0
M30
