%TF.GenerationSoftware,KiCad,Pcbnew,(5.1.4)-1*%
%TF.CreationDate,2019-12-28T21:17:41+08:00*%
%TF.ProjectId,LPF,4c50462e-6b69-4636-9164-5f7063625858,rev?*%
%TF.SameCoordinates,Original*%
%TF.FileFunction,Paste,Bot*%
%TF.FilePolarity,Positive*%
%FSLAX46Y46*%
G04 Gerber Fmt 4.6, Leading zero omitted, Abs format (unit mm)*
G04 Created by KiCad (PCBNEW (5.1.4)-1) date 2019-12-28 21:17:41*
%MOMM*%
%LPD*%
G04 APERTURE LIST*
%ADD10C,2.200000*%
%ADD11C,0.350000*%
%ADD12R,2.200000X3.000000*%
%ADD13R,3.000000X2.200000*%
%ADD14O,0.600000X1.800000*%
%ADD15C,1.000000*%
%ADD16R,1.470000X1.160000*%
G04 APERTURE END LIST*
D10*
X193449390Y-148949390D03*
D11*
G36*
X195287868Y-148666547D02*
G01*
X193166547Y-150787868D01*
X191610912Y-149232233D01*
X193732233Y-147110912D01*
X195287868Y-148666547D01*
X195287868Y-148666547D01*
G37*
D10*
X197550610Y-153050610D03*
D11*
G36*
X199389088Y-152767767D02*
G01*
X197267767Y-154889088D01*
X195712132Y-153333453D01*
X197833453Y-151212132D01*
X199389088Y-152767767D01*
X199389088Y-152767767D01*
G37*
D10*
X174550610Y-150550610D03*
D11*
G36*
X176389088Y-150267767D02*
G01*
X174267767Y-152389088D01*
X172712132Y-150833453D01*
X174833453Y-148712132D01*
X176389088Y-150267767D01*
X176389088Y-150267767D01*
G37*
D10*
X170449390Y-146449390D03*
D11*
G36*
X172287868Y-146166547D02*
G01*
X170166547Y-148287868D01*
X168610912Y-146732233D01*
X170732233Y-144610912D01*
X172287868Y-146166547D01*
X172287868Y-146166547D01*
G37*
D12*
X140600000Y-140500000D03*
X146400000Y-140500000D03*
D13*
X60500000Y-131350000D03*
X60500000Y-137150000D03*
D10*
X129550610Y-141949390D03*
D11*
G36*
X129267767Y-140110912D02*
G01*
X131389088Y-142232233D01*
X129833453Y-143787868D01*
X127712132Y-141666547D01*
X129267767Y-140110912D01*
X129267767Y-140110912D01*
G37*
D10*
X125449390Y-146050610D03*
D11*
G36*
X125166547Y-144212132D02*
G01*
X127287868Y-146333453D01*
X125732233Y-147889088D01*
X123610912Y-145767767D01*
X125166547Y-144212132D01*
X125166547Y-144212132D01*
G37*
D10*
X126550610Y-138949390D03*
D11*
G36*
X126267767Y-137110912D02*
G01*
X128389088Y-139232233D01*
X126833453Y-140787868D01*
X124712132Y-138666547D01*
X126267767Y-137110912D01*
X126267767Y-137110912D01*
G37*
D10*
X122449390Y-143050610D03*
D11*
G36*
X122166547Y-141212132D02*
G01*
X124287868Y-143333453D01*
X122732233Y-144889088D01*
X120610912Y-142767767D01*
X122166547Y-141212132D01*
X122166547Y-141212132D01*
G37*
D10*
X191550610Y-159050610D03*
D11*
G36*
X193389088Y-158767767D02*
G01*
X191267767Y-160889088D01*
X189712132Y-159333453D01*
X191833453Y-157212132D01*
X193389088Y-158767767D01*
X193389088Y-158767767D01*
G37*
D10*
X187449390Y-154949390D03*
D11*
G36*
X189287868Y-154666547D02*
G01*
X187166547Y-156787868D01*
X185610912Y-155232233D01*
X187732233Y-153110912D01*
X189287868Y-154666547D01*
X189287868Y-154666547D01*
G37*
D10*
X168050610Y-117449390D03*
D11*
G36*
X168333453Y-119287868D02*
G01*
X166212132Y-117166547D01*
X167767767Y-115610912D01*
X169889088Y-117732233D01*
X168333453Y-119287868D01*
X168333453Y-119287868D01*
G37*
D10*
X163949390Y-121550610D03*
D11*
G36*
X164232233Y-123389088D02*
G01*
X162110912Y-121267767D01*
X163666547Y-119712132D01*
X165787868Y-121833453D01*
X164232233Y-123389088D01*
X164232233Y-123389088D01*
G37*
D10*
X169777817Y-127379037D03*
D11*
G36*
X170060660Y-129217515D02*
G01*
X167939339Y-127096194D01*
X169494974Y-125540559D01*
X171616295Y-127661880D01*
X170060660Y-129217515D01*
X170060660Y-129217515D01*
G37*
D10*
X173879037Y-123277817D03*
D11*
G36*
X174161880Y-125116295D02*
G01*
X172040559Y-122994974D01*
X173596194Y-121439339D01*
X175717515Y-123560660D01*
X174161880Y-125116295D01*
X174161880Y-125116295D01*
G37*
D10*
X166949390Y-124550610D03*
D11*
G36*
X167232233Y-126389088D02*
G01*
X165110912Y-124267767D01*
X166666547Y-122712132D01*
X168787868Y-124833453D01*
X167232233Y-126389088D01*
X167232233Y-126389088D01*
G37*
D10*
X171050610Y-120449390D03*
D11*
G36*
X171333453Y-122287868D02*
G01*
X169212132Y-120166547D01*
X170767767Y-118610912D01*
X172889088Y-120732233D01*
X171333453Y-122287868D01*
X171333453Y-122287868D01*
G37*
D10*
X195800610Y-99050610D03*
D11*
G36*
X197639088Y-98767767D02*
G01*
X195517767Y-100889088D01*
X193962132Y-99333453D01*
X196083453Y-97212132D01*
X197639088Y-98767767D01*
X197639088Y-98767767D01*
G37*
D10*
X191699390Y-94949390D03*
D11*
G36*
X193537868Y-94666547D02*
G01*
X191416547Y-96787868D01*
X189860912Y-95232233D01*
X191982233Y-93110912D01*
X193537868Y-94666547D01*
X193537868Y-94666547D01*
G37*
D10*
X192800610Y-102050610D03*
D11*
G36*
X194639088Y-101767767D02*
G01*
X192517767Y-103889088D01*
X190962132Y-102333453D01*
X193083453Y-100212132D01*
X194639088Y-101767767D01*
X194639088Y-101767767D01*
G37*
D10*
X188699390Y-97949390D03*
D11*
G36*
X190537868Y-97666547D02*
G01*
X188416547Y-99787868D01*
X186860912Y-98232233D01*
X188982233Y-96110912D01*
X190537868Y-97666547D01*
X190537868Y-97666547D01*
G37*
D10*
X172909545Y-74250357D03*
D11*
G36*
X173192388Y-76088835D02*
G01*
X171071067Y-73967514D01*
X172626702Y-72411879D01*
X174748023Y-74533200D01*
X173192388Y-76088835D01*
X173192388Y-76088835D01*
G37*
D10*
X177010765Y-70149137D03*
D11*
G36*
X177293608Y-71987615D02*
G01*
X175172287Y-69866294D01*
X176727922Y-68310659D01*
X178849243Y-70431980D01*
X177293608Y-71987615D01*
X177293608Y-71987615D01*
G37*
D10*
X175737972Y-77078785D03*
D11*
G36*
X176020815Y-78917263D02*
G01*
X173899494Y-76795942D01*
X175455129Y-75240307D01*
X177576450Y-77361628D01*
X176020815Y-78917263D01*
X176020815Y-78917263D01*
G37*
D10*
X179839192Y-72977565D03*
D11*
G36*
X180122035Y-74816043D02*
G01*
X178000714Y-72694722D01*
X179556349Y-71139087D01*
X181677670Y-73260408D01*
X180122035Y-74816043D01*
X180122035Y-74816043D01*
G37*
D10*
X164424264Y-65765076D03*
D11*
G36*
X164707107Y-67603554D02*
G01*
X162585786Y-65482233D01*
X164141421Y-63926598D01*
X166262742Y-66047919D01*
X164707107Y-67603554D01*
X164707107Y-67603554D01*
G37*
D10*
X168525484Y-61663856D03*
D11*
G36*
X168808327Y-63502334D02*
G01*
X166687006Y-61381013D01*
X168242641Y-59825378D01*
X170363962Y-61946699D01*
X168808327Y-63502334D01*
X168808327Y-63502334D01*
G37*
D10*
X170081118Y-71421930D03*
D11*
G36*
X170363961Y-73260408D02*
G01*
X168242640Y-71139087D01*
X169798275Y-69583452D01*
X171919596Y-71704773D01*
X170363961Y-73260408D01*
X170363961Y-73260408D01*
G37*
D10*
X174182338Y-67320710D03*
D11*
G36*
X174465181Y-69159188D02*
G01*
X172343860Y-67037867D01*
X173899495Y-65482232D01*
X176020816Y-67603553D01*
X174465181Y-69159188D01*
X174465181Y-69159188D01*
G37*
D10*
X167252691Y-68593503D03*
D11*
G36*
X167535534Y-70431981D02*
G01*
X165414213Y-68310660D01*
X166969848Y-66755025D01*
X169091169Y-68876346D01*
X167535534Y-70431981D01*
X167535534Y-70431981D01*
G37*
D10*
X171353911Y-64492283D03*
D11*
G36*
X171636754Y-66330761D02*
G01*
X169515433Y-64209440D01*
X171071068Y-62653805D01*
X173192389Y-64775126D01*
X171636754Y-66330761D01*
X171636754Y-66330761D01*
G37*
D10*
X141856065Y-100974338D03*
D11*
G36*
X143694543Y-100691495D02*
G01*
X141573222Y-102812816D01*
X140017587Y-101257181D01*
X142138908Y-99135860D01*
X143694543Y-100691495D01*
X143694543Y-100691495D01*
G37*
D10*
X137754845Y-96873118D03*
D11*
G36*
X139593323Y-96590275D02*
G01*
X137472002Y-98711596D01*
X135916367Y-97155961D01*
X138037688Y-95034640D01*
X139593323Y-96590275D01*
X139593323Y-96590275D01*
G37*
D10*
X153169775Y-89660630D03*
D11*
G36*
X155008253Y-89377787D02*
G01*
X152886932Y-91499108D01*
X151331297Y-89943473D01*
X153452618Y-87822152D01*
X155008253Y-89377787D01*
X155008253Y-89377787D01*
G37*
D10*
X149068555Y-85559410D03*
D11*
G36*
X150907033Y-85276567D02*
G01*
X148785712Y-87397888D01*
X147230077Y-85842253D01*
X149351398Y-83720932D01*
X150907033Y-85276567D01*
X150907033Y-85276567D01*
G37*
D10*
X150341348Y-92489057D03*
D11*
G36*
X152179826Y-92206214D02*
G01*
X150058505Y-94327535D01*
X148502870Y-92771900D01*
X150624191Y-90650579D01*
X152179826Y-92206214D01*
X152179826Y-92206214D01*
G37*
D10*
X146240128Y-88387837D03*
D11*
G36*
X148078606Y-88104994D02*
G01*
X145957285Y-90226315D01*
X144401650Y-88670680D01*
X146522971Y-86549359D01*
X148078606Y-88104994D01*
X148078606Y-88104994D01*
G37*
D10*
X147512921Y-95317484D03*
D11*
G36*
X149351399Y-95034641D02*
G01*
X147230078Y-97155962D01*
X145674443Y-95600327D01*
X147795764Y-93479006D01*
X149351399Y-95034641D01*
X149351399Y-95034641D01*
G37*
D10*
X143411701Y-91216264D03*
D11*
G36*
X145250179Y-90933421D02*
G01*
X143128858Y-93054742D01*
X141573223Y-91499107D01*
X143694544Y-89377786D01*
X145250179Y-90933421D01*
X145250179Y-90933421D01*
G37*
D10*
X144684493Y-98145911D03*
D11*
G36*
X146522971Y-97863068D02*
G01*
X144401650Y-99984389D01*
X142846015Y-98428754D01*
X144967336Y-96307433D01*
X146522971Y-97863068D01*
X146522971Y-97863068D01*
G37*
D10*
X140583273Y-94044691D03*
D11*
G36*
X142421751Y-93761848D02*
G01*
X140300430Y-95883169D01*
X138744795Y-94327534D01*
X140866116Y-92206213D01*
X142421751Y-93761848D01*
X142421751Y-93761848D01*
G37*
D10*
X127575021Y-72611270D03*
D11*
G36*
X127857864Y-74449748D02*
G01*
X125736543Y-72328427D01*
X127292178Y-70772792D01*
X129413499Y-72894113D01*
X127857864Y-74449748D01*
X127857864Y-74449748D01*
G37*
D10*
X131676241Y-68510050D03*
D11*
G36*
X131959084Y-70348528D02*
G01*
X129837763Y-68227207D01*
X131393398Y-66671572D01*
X133514719Y-68792893D01*
X131959084Y-70348528D01*
X131959084Y-70348528D01*
G37*
D10*
X119089740Y-64125989D03*
D11*
G36*
X119372583Y-65964467D02*
G01*
X117251262Y-63843146D01*
X118806897Y-62287511D01*
X120928218Y-64408832D01*
X119372583Y-65964467D01*
X119372583Y-65964467D01*
G37*
D10*
X123190960Y-60024769D03*
D11*
G36*
X123473803Y-61863247D02*
G01*
X121352482Y-59741926D01*
X122908117Y-58186291D01*
X125029438Y-60307612D01*
X123473803Y-61863247D01*
X123473803Y-61863247D01*
G37*
D10*
X121918167Y-66954416D03*
D11*
G36*
X122201010Y-68792894D02*
G01*
X120079689Y-66671573D01*
X121635324Y-65115938D01*
X123756645Y-67237259D01*
X122201010Y-68792894D01*
X122201010Y-68792894D01*
G37*
D10*
X126019387Y-62853196D03*
D11*
G36*
X126302230Y-64691674D02*
G01*
X124180909Y-62570353D01*
X125736544Y-61014718D01*
X127857865Y-63136039D01*
X126302230Y-64691674D01*
X126302230Y-64691674D01*
G37*
D10*
X124746594Y-69782843D03*
D11*
G36*
X125029437Y-71621321D02*
G01*
X122908116Y-69500000D01*
X124463751Y-67944365D01*
X126585072Y-70065686D01*
X125029437Y-71621321D01*
X125029437Y-71621321D01*
G37*
D10*
X128847814Y-65681623D03*
D11*
G36*
X129130657Y-67520101D02*
G01*
X127009336Y-65398780D01*
X128564971Y-63843145D01*
X130686292Y-65964466D01*
X129130657Y-67520101D01*
X129130657Y-67520101D01*
G37*
D10*
X124663856Y-127222183D03*
D11*
G36*
X124946699Y-129060661D02*
G01*
X122825378Y-126939340D01*
X124381013Y-125383705D01*
X126502334Y-127505026D01*
X124946699Y-129060661D01*
X124946699Y-129060661D01*
G37*
D10*
X128765076Y-123120963D03*
D11*
G36*
X129047919Y-124959441D02*
G01*
X126926598Y-122838120D01*
X128482233Y-121282485D01*
X130603554Y-123403806D01*
X129047919Y-124959441D01*
X129047919Y-124959441D01*
G37*
D10*
X116052943Y-118550610D03*
D11*
G36*
X116335786Y-120389088D02*
G01*
X114214465Y-118267767D01*
X115770100Y-116712132D01*
X117891421Y-118833453D01*
X116335786Y-120389088D01*
X116335786Y-120389088D01*
G37*
D10*
X120154163Y-114449390D03*
D11*
G36*
X120437006Y-116287868D02*
G01*
X118315685Y-114166547D01*
X119871320Y-112610912D01*
X121992641Y-114732233D01*
X120437006Y-116287868D01*
X120437006Y-116287868D01*
G37*
D10*
X127492283Y-130050610D03*
D11*
G36*
X127775126Y-131889088D02*
G01*
X125653805Y-129767767D01*
X127209440Y-128212132D01*
X129330761Y-130333453D01*
X127775126Y-131889088D01*
X127775126Y-131889088D01*
G37*
D10*
X131593503Y-125949390D03*
D11*
G36*
X131876346Y-127787868D02*
G01*
X129755025Y-125666547D01*
X131310660Y-124110912D01*
X133431981Y-126232233D01*
X131876346Y-127787868D01*
X131876346Y-127787868D01*
G37*
D10*
X118881372Y-121379037D03*
D11*
G36*
X119164215Y-123217515D02*
G01*
X117042894Y-121096194D01*
X118598529Y-119540559D01*
X120719850Y-121661880D01*
X119164215Y-123217515D01*
X119164215Y-123217515D01*
G37*
D10*
X122982592Y-117277817D03*
D11*
G36*
X123265435Y-119116295D02*
G01*
X121144114Y-116994974D01*
X122699749Y-115439339D01*
X124821070Y-117560660D01*
X123265435Y-119116295D01*
X123265435Y-119116295D01*
G37*
D10*
X121835429Y-124393756D03*
D11*
G36*
X122118272Y-126232234D02*
G01*
X119996951Y-124110913D01*
X121552586Y-122555278D01*
X123673907Y-124676599D01*
X122118272Y-126232234D01*
X122118272Y-126232234D01*
G37*
D10*
X125936649Y-120292536D03*
D11*
G36*
X126219492Y-122131014D02*
G01*
X124098171Y-120009693D01*
X125653806Y-118454058D01*
X127775127Y-120575379D01*
X126219492Y-122131014D01*
X126219492Y-122131014D01*
G37*
D10*
X80663856Y-126722183D03*
D11*
G36*
X80946699Y-128560661D02*
G01*
X78825378Y-126439340D01*
X80381013Y-124883705D01*
X82502334Y-127005026D01*
X80946699Y-128560661D01*
X80946699Y-128560661D01*
G37*
D10*
X84765076Y-122620963D03*
D11*
G36*
X85047919Y-124459441D02*
G01*
X82926598Y-122338120D01*
X84482233Y-120782485D01*
X86603554Y-122903806D01*
X85047919Y-124459441D01*
X85047919Y-124459441D01*
G37*
D10*
X72052943Y-118050610D03*
D11*
G36*
X72335786Y-119889088D02*
G01*
X70214465Y-117767767D01*
X71770100Y-116212132D01*
X73891421Y-118333453D01*
X72335786Y-119889088D01*
X72335786Y-119889088D01*
G37*
D10*
X76154163Y-113949390D03*
D11*
G36*
X76437006Y-115787868D02*
G01*
X74315685Y-113666547D01*
X75871320Y-112110912D01*
X77992641Y-114232233D01*
X76437006Y-115787868D01*
X76437006Y-115787868D01*
G37*
D10*
X83492283Y-129550610D03*
D11*
G36*
X83775126Y-131389088D02*
G01*
X81653805Y-129267767D01*
X83209440Y-127712132D01*
X85330761Y-129833453D01*
X83775126Y-131389088D01*
X83775126Y-131389088D01*
G37*
D10*
X87593503Y-125449390D03*
D11*
G36*
X87876346Y-127287868D02*
G01*
X85755025Y-125166547D01*
X87310660Y-123610912D01*
X89431981Y-125732233D01*
X87876346Y-127287868D01*
X87876346Y-127287868D01*
G37*
D10*
X74881372Y-120879037D03*
D11*
G36*
X75164215Y-122717515D02*
G01*
X73042894Y-120596194D01*
X74598529Y-119040559D01*
X76719850Y-121161880D01*
X75164215Y-122717515D01*
X75164215Y-122717515D01*
G37*
D10*
X78982592Y-116777817D03*
D11*
G36*
X79265435Y-118616295D02*
G01*
X77144114Y-116494974D01*
X78699749Y-114939339D01*
X80821070Y-117060660D01*
X79265435Y-118616295D01*
X79265435Y-118616295D01*
G37*
D10*
X77835429Y-123893756D03*
D11*
G36*
X78118272Y-125732234D02*
G01*
X75996951Y-123610913D01*
X77552586Y-122055278D01*
X79673907Y-124176599D01*
X78118272Y-125732234D01*
X78118272Y-125732234D01*
G37*
D10*
X81936649Y-119792536D03*
D11*
G36*
X82219492Y-121631014D02*
G01*
X80098171Y-119509693D01*
X81653806Y-117954058D01*
X83775127Y-120075379D01*
X82219492Y-121631014D01*
X82219492Y-121631014D01*
G37*
D10*
X106722183Y-92836144D03*
D11*
G36*
X108560661Y-92553301D02*
G01*
X106439340Y-94674622D01*
X104883705Y-93118987D01*
X107005026Y-90997666D01*
X108560661Y-92553301D01*
X108560661Y-92553301D01*
G37*
D10*
X102620963Y-88734924D03*
D11*
G36*
X104459441Y-88452081D02*
G01*
X102338120Y-90573402D01*
X100782485Y-89017767D01*
X102903806Y-86896446D01*
X104459441Y-88452081D01*
X104459441Y-88452081D01*
G37*
D10*
X98050610Y-101447057D03*
D11*
G36*
X99889088Y-101164214D02*
G01*
X97767767Y-103285535D01*
X96212132Y-101729900D01*
X98333453Y-99608579D01*
X99889088Y-101164214D01*
X99889088Y-101164214D01*
G37*
D10*
X93949390Y-97345837D03*
D11*
G36*
X95787868Y-97062994D02*
G01*
X93666547Y-99184315D01*
X92110912Y-97628680D01*
X94232233Y-95507359D01*
X95787868Y-97062994D01*
X95787868Y-97062994D01*
G37*
D10*
X109550610Y-90007717D03*
D11*
G36*
X111389088Y-89724874D02*
G01*
X109267767Y-91846195D01*
X107712132Y-90290560D01*
X109833453Y-88169239D01*
X111389088Y-89724874D01*
X111389088Y-89724874D01*
G37*
D10*
X105449390Y-85906497D03*
D11*
G36*
X107287868Y-85623654D02*
G01*
X105166547Y-87744975D01*
X103610912Y-86189340D01*
X105732233Y-84068019D01*
X107287868Y-85623654D01*
X107287868Y-85623654D01*
G37*
D10*
X100879037Y-98618628D03*
D11*
G36*
X102717515Y-98335785D02*
G01*
X100596194Y-100457106D01*
X99040559Y-98901471D01*
X101161880Y-96780150D01*
X102717515Y-98335785D01*
X102717515Y-98335785D01*
G37*
D10*
X96777817Y-94517408D03*
D11*
G36*
X98616295Y-94234565D02*
G01*
X96494974Y-96355886D01*
X94939339Y-94800251D01*
X97060660Y-92678930D01*
X98616295Y-94234565D01*
X98616295Y-94234565D01*
G37*
D10*
X103893756Y-95664571D03*
D11*
G36*
X105732234Y-95381728D02*
G01*
X103610913Y-97503049D01*
X102055278Y-95947414D01*
X104176599Y-93826093D01*
X105732234Y-95381728D01*
X105732234Y-95381728D01*
G37*
D10*
X99792536Y-91563351D03*
D11*
G36*
X101631014Y-91280508D02*
G01*
X99509693Y-93401829D01*
X97954058Y-91846194D01*
X100075379Y-89724873D01*
X101631014Y-91280508D01*
X101631014Y-91280508D01*
G37*
D10*
X81163856Y-70222183D03*
D11*
G36*
X81446699Y-72060661D02*
G01*
X79325378Y-69939340D01*
X80881013Y-68383705D01*
X83002334Y-70505026D01*
X81446699Y-72060661D01*
X81446699Y-72060661D01*
G37*
D10*
X85265076Y-66120963D03*
D11*
G36*
X85547919Y-67959441D02*
G01*
X83426598Y-65838120D01*
X84982233Y-64282485D01*
X87103554Y-66403806D01*
X85547919Y-67959441D01*
X85547919Y-67959441D01*
G37*
D10*
X72552943Y-61550610D03*
D11*
G36*
X72835786Y-63389088D02*
G01*
X70714465Y-61267767D01*
X72270100Y-59712132D01*
X74391421Y-61833453D01*
X72835786Y-63389088D01*
X72835786Y-63389088D01*
G37*
D10*
X76654163Y-57449390D03*
D11*
G36*
X76937006Y-59287868D02*
G01*
X74815685Y-57166547D01*
X76371320Y-55610912D01*
X78492641Y-57732233D01*
X76937006Y-59287868D01*
X76937006Y-59287868D01*
G37*
D10*
X83992283Y-73050610D03*
D11*
G36*
X84275126Y-74889088D02*
G01*
X82153805Y-72767767D01*
X83709440Y-71212132D01*
X85830761Y-73333453D01*
X84275126Y-74889088D01*
X84275126Y-74889088D01*
G37*
D10*
X88093503Y-68949390D03*
D11*
G36*
X88376346Y-70787868D02*
G01*
X86255025Y-68666547D01*
X87810660Y-67110912D01*
X89931981Y-69232233D01*
X88376346Y-70787868D01*
X88376346Y-70787868D01*
G37*
D10*
X75381372Y-64379037D03*
D11*
G36*
X75664215Y-66217515D02*
G01*
X73542894Y-64096194D01*
X75098529Y-62540559D01*
X77219850Y-64661880D01*
X75664215Y-66217515D01*
X75664215Y-66217515D01*
G37*
D10*
X79482592Y-60277817D03*
D11*
G36*
X79765435Y-62116295D02*
G01*
X77644114Y-59994974D01*
X79199749Y-58439339D01*
X81321070Y-60560660D01*
X79765435Y-62116295D01*
X79765435Y-62116295D01*
G37*
D10*
X78335429Y-67393756D03*
D11*
G36*
X78618272Y-69232234D02*
G01*
X76496951Y-67110913D01*
X78052586Y-65555278D01*
X80173907Y-67676599D01*
X78618272Y-69232234D01*
X78618272Y-69232234D01*
G37*
D10*
X82436649Y-63292536D03*
D11*
G36*
X82719492Y-65131014D02*
G01*
X80598171Y-63009693D01*
X82153806Y-61454058D01*
X84275127Y-63575379D01*
X82719492Y-65131014D01*
X82719492Y-65131014D01*
G37*
D10*
X85300610Y-140699390D03*
D11*
G36*
X85017767Y-138860912D02*
G01*
X87139088Y-140982233D01*
X85583453Y-142537868D01*
X83462132Y-140416547D01*
X85017767Y-138860912D01*
X85017767Y-138860912D01*
G37*
D10*
X81199390Y-144800610D03*
D11*
G36*
X80916547Y-142962132D02*
G01*
X83037868Y-145083453D01*
X81482233Y-146639088D01*
X79360912Y-144517767D01*
X80916547Y-142962132D01*
X80916547Y-142962132D01*
G37*
D13*
X63500000Y-146500000D03*
X63500000Y-140700000D03*
D10*
X33396089Y-124540202D03*
D11*
G36*
X33678932Y-126378680D02*
G01*
X31557611Y-124257359D01*
X33113246Y-122701724D01*
X35234567Y-124823045D01*
X33678932Y-126378680D01*
X33678932Y-126378680D01*
G37*
D10*
X37497309Y-120438982D03*
D11*
G36*
X37780152Y-122277460D02*
G01*
X35658831Y-120156139D01*
X37214466Y-118600504D01*
X39335787Y-120721825D01*
X37780152Y-122277460D01*
X37780152Y-122277460D01*
G37*
D10*
X36224516Y-127368629D03*
D11*
G36*
X36507359Y-129207107D02*
G01*
X34386038Y-127085786D01*
X35941673Y-125530151D01*
X38062994Y-127651472D01*
X36507359Y-129207107D01*
X36507359Y-129207107D01*
G37*
D10*
X40325736Y-123267409D03*
D11*
G36*
X40608579Y-125105887D02*
G01*
X38487258Y-122984566D01*
X40042893Y-121428931D01*
X42164214Y-123550252D01*
X40608579Y-125105887D01*
X40608579Y-125105887D01*
G37*
D10*
X30567662Y-121711775D03*
D11*
G36*
X30850505Y-123550253D02*
G01*
X28729184Y-121428932D01*
X30284819Y-119873297D01*
X32406140Y-121994618D01*
X30850505Y-123550253D01*
X30850505Y-123550253D01*
G37*
D10*
X34668882Y-117610555D03*
D11*
G36*
X34951725Y-119449033D02*
G01*
X32830404Y-117327712D01*
X34386039Y-115772077D01*
X36507360Y-117893398D01*
X34951725Y-119449033D01*
X34951725Y-119449033D01*
G37*
D10*
X27739235Y-118883348D03*
D11*
G36*
X28022078Y-120721826D02*
G01*
X25900757Y-118600505D01*
X27456392Y-117044870D01*
X29577713Y-119166191D01*
X28022078Y-120721826D01*
X28022078Y-120721826D01*
G37*
D10*
X31840455Y-114782128D03*
D11*
G36*
X32123298Y-116620606D02*
G01*
X30001977Y-114499285D01*
X31557612Y-112943650D01*
X33678933Y-115064971D01*
X32123298Y-116620606D01*
X32123298Y-116620606D01*
G37*
D10*
X39052942Y-130197057D03*
D11*
G36*
X39335785Y-132035535D02*
G01*
X37214464Y-129914214D01*
X38770099Y-128358579D01*
X40891420Y-130479900D01*
X39335785Y-132035535D01*
X39335785Y-132035535D01*
G37*
D10*
X43154162Y-126095837D03*
D11*
G36*
X43437005Y-127934315D02*
G01*
X41315684Y-125812994D01*
X42871319Y-124257359D01*
X44992640Y-126378680D01*
X43437005Y-127934315D01*
X43437005Y-127934315D01*
G37*
D10*
X59040202Y-95853911D03*
D11*
G36*
X60878680Y-95571068D02*
G01*
X58757359Y-97692389D01*
X57201724Y-96136754D01*
X59323045Y-94015433D01*
X60878680Y-95571068D01*
X60878680Y-95571068D01*
G37*
D10*
X54938982Y-91752691D03*
D11*
G36*
X56777460Y-91469848D02*
G01*
X54656139Y-93591169D01*
X53100504Y-92035534D01*
X55221825Y-89914213D01*
X56777460Y-91469848D01*
X56777460Y-91469848D01*
G37*
D10*
X61868629Y-93025484D03*
D11*
G36*
X63707107Y-92742641D02*
G01*
X61585786Y-94863962D01*
X60030151Y-93308327D01*
X62151472Y-91187006D01*
X63707107Y-92742641D01*
X63707107Y-92742641D01*
G37*
D10*
X57767409Y-88924264D03*
D11*
G36*
X59605887Y-88641421D02*
G01*
X57484566Y-90762742D01*
X55928931Y-89207107D01*
X58050252Y-87085786D01*
X59605887Y-88641421D01*
X59605887Y-88641421D01*
G37*
D10*
X56211775Y-98682338D03*
D11*
G36*
X58050253Y-98399495D02*
G01*
X55928932Y-100520816D01*
X54373297Y-98965181D01*
X56494618Y-96843860D01*
X58050253Y-98399495D01*
X58050253Y-98399495D01*
G37*
D10*
X52110555Y-94581118D03*
D11*
G36*
X53949033Y-94298275D02*
G01*
X51827712Y-96419596D01*
X50272077Y-94863961D01*
X52393398Y-92742640D01*
X53949033Y-94298275D01*
X53949033Y-94298275D01*
G37*
D10*
X53383348Y-101510765D03*
D11*
G36*
X55221826Y-101227922D02*
G01*
X53100505Y-103349243D01*
X51544870Y-101793608D01*
X53666191Y-99672287D01*
X55221826Y-101227922D01*
X55221826Y-101227922D01*
G37*
D10*
X49282128Y-97409545D03*
D11*
G36*
X51120606Y-97126702D02*
G01*
X48999285Y-99248023D01*
X47443650Y-97692388D01*
X49564971Y-95571067D01*
X51120606Y-97126702D01*
X51120606Y-97126702D01*
G37*
D10*
X64697057Y-90197058D03*
D11*
G36*
X66535535Y-89914215D02*
G01*
X64414214Y-92035536D01*
X62858579Y-90479901D01*
X64979900Y-88358580D01*
X66535535Y-89914215D01*
X66535535Y-89914215D01*
G37*
D10*
X60595837Y-86095838D03*
D11*
G36*
X62434315Y-85812995D02*
G01*
X60312994Y-87934316D01*
X58757359Y-86378681D01*
X60878680Y-84257360D01*
X62434315Y-85812995D01*
X62434315Y-85812995D01*
G37*
D10*
X30997487Y-64995154D03*
D11*
G36*
X31280330Y-66833632D02*
G01*
X29159009Y-64712311D01*
X30714644Y-63156676D01*
X32835965Y-65277997D01*
X31280330Y-66833632D01*
X31280330Y-66833632D01*
G37*
D10*
X35098707Y-60893934D03*
D11*
G36*
X35381550Y-62732412D02*
G01*
X33260229Y-60611091D01*
X34815864Y-59055456D01*
X36937185Y-61176777D01*
X35381550Y-62732412D01*
X35381550Y-62732412D01*
G37*
D10*
X39482768Y-73480435D03*
D11*
G36*
X39765611Y-75318913D02*
G01*
X37644290Y-73197592D01*
X39199925Y-71641957D01*
X41321246Y-73763278D01*
X39765611Y-75318913D01*
X39765611Y-75318913D01*
G37*
D10*
X43583988Y-69379215D03*
D11*
G36*
X43866831Y-71217693D02*
G01*
X41745510Y-69096372D01*
X43301145Y-67540737D01*
X45422466Y-69662058D01*
X43866831Y-71217693D01*
X43866831Y-71217693D01*
G37*
D10*
X36654340Y-70652008D03*
D11*
G36*
X36937183Y-72490486D02*
G01*
X34815862Y-70369165D01*
X36371497Y-68813530D01*
X38492818Y-70934851D01*
X36937183Y-72490486D01*
X36937183Y-72490486D01*
G37*
D10*
X40755560Y-66550788D03*
D11*
G36*
X41038403Y-68389266D02*
G01*
X38917082Y-66267945D01*
X40472717Y-64712310D01*
X42594038Y-66833631D01*
X41038403Y-68389266D01*
X41038403Y-68389266D01*
G37*
D10*
X33825914Y-67823582D03*
D11*
G36*
X34108757Y-69662060D02*
G01*
X31987436Y-67540739D01*
X33543071Y-65985104D01*
X35664392Y-68106425D01*
X34108757Y-69662060D01*
X34108757Y-69662060D01*
G37*
D10*
X37927134Y-63722362D03*
D11*
G36*
X38209977Y-65560840D02*
G01*
X36088656Y-63439519D01*
X37644291Y-61883884D01*
X39765612Y-64005205D01*
X38209977Y-65560840D01*
X38209977Y-65560840D01*
G37*
D10*
X28169060Y-62166727D03*
D11*
G36*
X28451903Y-64005205D02*
G01*
X26330582Y-61883884D01*
X27886217Y-60328249D01*
X30007538Y-62449570D01*
X28451903Y-64005205D01*
X28451903Y-64005205D01*
G37*
D10*
X32270280Y-58065507D03*
D11*
G36*
X32553123Y-59903985D02*
G01*
X30431802Y-57782664D01*
X31987437Y-56227029D01*
X34108758Y-58348350D01*
X32553123Y-59903985D01*
X32553123Y-59903985D01*
G37*
D13*
X19000000Y-146500000D03*
X19000000Y-140700000D03*
X18750000Y-131794544D03*
X18750000Y-137594544D03*
D10*
X-8457464Y-126557969D03*
D11*
G36*
X-8174621Y-128396447D02*
G01*
X-10295942Y-126275126D01*
X-8740307Y-124719491D01*
X-6618986Y-126840812D01*
X-8174621Y-128396447D01*
X-8174621Y-128396447D01*
G37*
D10*
X-4356244Y-122456749D03*
D11*
G36*
X-4073401Y-124295227D02*
G01*
X-6194722Y-122173906D01*
X-4639087Y-120618271D01*
X-2517766Y-122739592D01*
X-4073401Y-124295227D01*
X-4073401Y-124295227D01*
G37*
D10*
X-5629037Y-129386397D03*
D11*
G36*
X-5346194Y-131224875D02*
G01*
X-7467515Y-129103554D01*
X-5911880Y-127547919D01*
X-3790559Y-129669240D01*
X-5346194Y-131224875D01*
X-5346194Y-131224875D01*
G37*
D10*
X-1527817Y-125285177D03*
D11*
G36*
X-1244974Y-127123655D02*
G01*
X-3366295Y-125002334D01*
X-1810660Y-123446699D01*
X310661Y-125568020D01*
X-1244974Y-127123655D01*
X-1244974Y-127123655D01*
G37*
D10*
X-11285891Y-123729542D03*
D11*
G36*
X-11003048Y-125568020D02*
G01*
X-13124369Y-123446699D01*
X-11568734Y-121891064D01*
X-9447413Y-124012385D01*
X-11003048Y-125568020D01*
X-11003048Y-125568020D01*
G37*
D10*
X-7184671Y-119628322D03*
D11*
G36*
X-6901828Y-121466800D02*
G01*
X-9023149Y-119345479D01*
X-7467514Y-117789844D01*
X-5346193Y-119911165D01*
X-6901828Y-121466800D01*
X-6901828Y-121466800D01*
G37*
D10*
X17884241Y-92681445D03*
D11*
G36*
X19722719Y-92398602D02*
G01*
X17601398Y-94519923D01*
X16045763Y-92964288D01*
X18167084Y-90842967D01*
X19722719Y-92398602D01*
X19722719Y-92398602D01*
G37*
D10*
X13783021Y-88580225D03*
D11*
G36*
X15621499Y-88297382D02*
G01*
X13500178Y-90418703D01*
X11944543Y-88863068D01*
X14065864Y-86741747D01*
X15621499Y-88297382D01*
X15621499Y-88297382D01*
G37*
D10*
X20712668Y-89853018D03*
D11*
G36*
X22551146Y-89570175D02*
G01*
X20429825Y-91691496D01*
X18874190Y-90135861D01*
X20995511Y-88014540D01*
X22551146Y-89570175D01*
X22551146Y-89570175D01*
G37*
D10*
X16611448Y-85751798D03*
D11*
G36*
X18449926Y-85468955D02*
G01*
X16328605Y-87590276D01*
X14772970Y-86034641D01*
X16894291Y-83913320D01*
X18449926Y-85468955D01*
X18449926Y-85468955D01*
G37*
D10*
X15055814Y-95509872D03*
D11*
G36*
X16894292Y-95227029D02*
G01*
X14772971Y-97348350D01*
X13217336Y-95792715D01*
X15338657Y-93671394D01*
X16894292Y-95227029D01*
X16894292Y-95227029D01*
G37*
D10*
X10954594Y-91408652D03*
D11*
G36*
X12793072Y-91125809D02*
G01*
X10671751Y-93247130D01*
X9116116Y-91691495D01*
X11237437Y-89570174D01*
X12793072Y-91125809D01*
X12793072Y-91125809D01*
G37*
D10*
X12227386Y-98338299D03*
D11*
G36*
X14065864Y-98055456D02*
G01*
X11944543Y-100176777D01*
X10388908Y-98621142D01*
X12510229Y-96499821D01*
X14065864Y-98055456D01*
X14065864Y-98055456D01*
G37*
D10*
X8126166Y-94237079D03*
D11*
G36*
X9964644Y-93954236D02*
G01*
X7843323Y-96075557D01*
X6287688Y-94519922D01*
X8409009Y-92398601D01*
X9964644Y-93954236D01*
X9964644Y-93954236D01*
G37*
D10*
X9398960Y-101166727D03*
D11*
G36*
X11237438Y-100883884D02*
G01*
X9116117Y-103005205D01*
X7560482Y-101449570D01*
X9681803Y-99328249D01*
X11237438Y-100883884D01*
X11237438Y-100883884D01*
G37*
D10*
X5297740Y-97065507D03*
D11*
G36*
X7136218Y-96782664D02*
G01*
X5014897Y-98903985D01*
X3459262Y-97348350D01*
X5580583Y-95227029D01*
X7136218Y-96782664D01*
X7136218Y-96782664D01*
G37*
D10*
X-8338299Y-69677134D03*
D11*
G36*
X-8055456Y-71515612D02*
G01*
X-10176777Y-69394291D01*
X-8621142Y-67838656D01*
X-6499821Y-69959977D01*
X-8055456Y-71515612D01*
X-8055456Y-71515612D01*
G37*
D10*
X-4237079Y-65575914D03*
D11*
G36*
X-3954236Y-67414392D02*
G01*
X-6075557Y-65293071D01*
X-4519922Y-63737436D01*
X-2398601Y-65858757D01*
X-3954236Y-67414392D01*
X-3954236Y-67414392D01*
G37*
D10*
X-5509872Y-72505561D03*
D11*
G36*
X-5227029Y-74344039D02*
G01*
X-7348350Y-72222718D01*
X-5792715Y-70667083D01*
X-3671394Y-72788404D01*
X-5227029Y-74344039D01*
X-5227029Y-74344039D01*
G37*
D10*
X-1408652Y-68404341D03*
D11*
G36*
X-1125809Y-70242819D02*
G01*
X-3247130Y-68121498D01*
X-1691495Y-66565863D01*
X429826Y-68687184D01*
X-1125809Y-70242819D01*
X-1125809Y-70242819D01*
G37*
D10*
X-11166727Y-66848707D03*
D11*
G36*
X-10883884Y-68687185D02*
G01*
X-13005205Y-66565864D01*
X-11449570Y-65010229D01*
X-9328249Y-67131550D01*
X-10883884Y-68687185D01*
X-10883884Y-68687185D01*
G37*
D10*
X-7065507Y-62747487D03*
D11*
G36*
X-6782664Y-64585965D02*
G01*
X-8903985Y-62464644D01*
X-7348350Y-60909009D01*
X-5227029Y-63030330D01*
X-6782664Y-64585965D01*
X-6782664Y-64585965D01*
G37*
D14*
X174555000Y-32850000D03*
X175825000Y-32850000D03*
X177095000Y-32850000D03*
X178365000Y-32850000D03*
X179635000Y-32850000D03*
X180905000Y-32850000D03*
X182175000Y-32850000D03*
X183445000Y-32850000D03*
X183445000Y-27650000D03*
X182175000Y-27650000D03*
X180905000Y-27650000D03*
X179635000Y-27650000D03*
X178365000Y-27650000D03*
X177095000Y-27650000D03*
X175825000Y-27650000D03*
X174555000Y-27650000D03*
D15*
X158792983Y-32042983D03*
D11*
G36*
X157997488Y-31954595D02*
G01*
X158704595Y-31247488D01*
X159588478Y-32131371D01*
X158881371Y-32838478D01*
X157997488Y-31954595D01*
X157997488Y-31954595D01*
G37*
D15*
X156707017Y-29957017D03*
D11*
G36*
X155911522Y-29868629D02*
G01*
X156618629Y-29161522D01*
X157502512Y-30045405D01*
X156795405Y-30752512D01*
X155911522Y-29868629D01*
X155911522Y-29868629D01*
G37*
D15*
X114292983Y-32042983D03*
D11*
G36*
X113497488Y-31954595D02*
G01*
X114204595Y-31247488D01*
X115088478Y-32131371D01*
X114381371Y-32838478D01*
X113497488Y-31954595D01*
X113497488Y-31954595D01*
G37*
D15*
X112207017Y-29957017D03*
D11*
G36*
X111411522Y-29868629D02*
G01*
X112118629Y-29161522D01*
X113002512Y-30045405D01*
X112295405Y-30752512D01*
X111411522Y-29868629D01*
X111411522Y-29868629D01*
G37*
D15*
X146957017Y-160457017D03*
D11*
G36*
X147752512Y-160545405D02*
G01*
X147045405Y-161252512D01*
X146161522Y-160368629D01*
X146868629Y-159661522D01*
X147752512Y-160545405D01*
X147752512Y-160545405D01*
G37*
D15*
X149042983Y-162542983D03*
D11*
G36*
X149838478Y-162631371D02*
G01*
X149131371Y-163338478D01*
X148247488Y-162454595D01*
X148954595Y-161747488D01*
X149838478Y-162631371D01*
X149838478Y-162631371D01*
G37*
D15*
X103164034Y-160414034D03*
D11*
G36*
X103959529Y-160502422D02*
G01*
X103252422Y-161209529D01*
X102368539Y-160325646D01*
X103075646Y-159618539D01*
X103959529Y-160502422D01*
X103959529Y-160502422D01*
G37*
D15*
X105250000Y-162500000D03*
D11*
G36*
X106045495Y-162588388D02*
G01*
X105338388Y-163295495D01*
X104454505Y-162411612D01*
X105161612Y-161704505D01*
X106045495Y-162588388D01*
X106045495Y-162588388D01*
G37*
D15*
X70042983Y-32292983D03*
D11*
G36*
X69247488Y-32204595D02*
G01*
X69954595Y-31497488D01*
X70838478Y-32381371D01*
X70131371Y-33088478D01*
X69247488Y-32204595D01*
X69247488Y-32204595D01*
G37*
D15*
X67957017Y-30207017D03*
D11*
G36*
X67161522Y-30118629D02*
G01*
X67868629Y-29411522D01*
X68752512Y-30295405D01*
X68045405Y-31002512D01*
X67161522Y-30118629D01*
X67161522Y-30118629D01*
G37*
D15*
X60414034Y-159914034D03*
D11*
G36*
X61209529Y-160002422D02*
G01*
X60502422Y-160709529D01*
X59618539Y-159825646D01*
X60325646Y-159118539D01*
X61209529Y-160002422D01*
X61209529Y-160002422D01*
G37*
D15*
X62500000Y-162000000D03*
D11*
G36*
X63295495Y-162088388D02*
G01*
X62588388Y-162795495D01*
X61704505Y-161911612D01*
X62411612Y-161204505D01*
X63295495Y-162088388D01*
X63295495Y-162088388D01*
G37*
D15*
X25292983Y-32292983D03*
D11*
G36*
X24497488Y-32204595D02*
G01*
X25204595Y-31497488D01*
X26088478Y-32381371D01*
X25381371Y-33088478D01*
X24497488Y-32204595D01*
X24497488Y-32204595D01*
G37*
D15*
X23207017Y-30207017D03*
D11*
G36*
X22411522Y-30118629D02*
G01*
X23118629Y-29411522D01*
X24002512Y-30295405D01*
X23295405Y-31002512D01*
X22411522Y-30118629D01*
X22411522Y-30118629D01*
G37*
D15*
X15414034Y-160164034D03*
D11*
G36*
X16209529Y-160252422D02*
G01*
X15502422Y-160959529D01*
X14618539Y-160075646D01*
X15325646Y-159368539D01*
X16209529Y-160252422D01*
X16209529Y-160252422D01*
G37*
D15*
X17500000Y-162250000D03*
D11*
G36*
X18295495Y-162338388D02*
G01*
X17588388Y-163045495D01*
X16704505Y-162161612D01*
X17411612Y-161454505D01*
X18295495Y-162338388D01*
X18295495Y-162338388D01*
G37*
D10*
X193293251Y-142986902D03*
D11*
G36*
X191454773Y-143269745D02*
G01*
X193576094Y-141148424D01*
X195131729Y-142704059D01*
X193010408Y-144825380D01*
X191454773Y-143269745D01*
X191454773Y-143269745D01*
G37*
D10*
X189192031Y-138885682D03*
D11*
G36*
X187353553Y-139168525D02*
G01*
X189474874Y-137047204D01*
X191030509Y-138602839D01*
X188909188Y-140724160D01*
X187353553Y-139168525D01*
X187353553Y-139168525D01*
G37*
D10*
X190464824Y-145815329D03*
D11*
G36*
X188626346Y-146098172D02*
G01*
X190747667Y-143976851D01*
X192303302Y-145532486D01*
X190181981Y-147653807D01*
X188626346Y-146098172D01*
X188626346Y-146098172D01*
G37*
D10*
X186363604Y-141714109D03*
D11*
G36*
X184525126Y-141996952D02*
G01*
X186646447Y-139875631D01*
X188202082Y-141431266D01*
X186080761Y-143552587D01*
X184525126Y-141996952D01*
X184525126Y-141996952D01*
G37*
D10*
X187636396Y-148643756D03*
D11*
G36*
X185797918Y-148926599D02*
G01*
X187919239Y-146805278D01*
X189474874Y-148360913D01*
X187353553Y-150482234D01*
X185797918Y-148926599D01*
X185797918Y-148926599D01*
G37*
D10*
X183535176Y-144542536D03*
D11*
G36*
X181696698Y-144825379D02*
G01*
X183818019Y-142704058D01*
X185373654Y-144259693D01*
X183252333Y-146381014D01*
X181696698Y-144825379D01*
X181696698Y-144825379D01*
G37*
D10*
X184807969Y-151472183D03*
D11*
G36*
X182969491Y-151755026D02*
G01*
X185090812Y-149633705D01*
X186646447Y-151189340D01*
X184525126Y-153310661D01*
X182969491Y-151755026D01*
X182969491Y-151755026D01*
G37*
D10*
X180706749Y-147370963D03*
D11*
G36*
X178868271Y-147653806D02*
G01*
X180989592Y-145532485D01*
X182545227Y-147088120D01*
X180423906Y-149209441D01*
X178868271Y-147653806D01*
X178868271Y-147653806D01*
G37*
D10*
X190449390Y-151949390D03*
D11*
G36*
X192287868Y-151666547D02*
G01*
X190166547Y-153787868D01*
X188610912Y-152232233D01*
X190732233Y-150110912D01*
X192287868Y-151666547D01*
X192287868Y-151666547D01*
G37*
D10*
X194550610Y-156050610D03*
D11*
G36*
X196389088Y-155767767D02*
G01*
X194267767Y-157889088D01*
X192712132Y-156333453D01*
X194833453Y-154212132D01*
X196389088Y-155767767D01*
X196389088Y-155767767D01*
G37*
D10*
X177025484Y-126085429D03*
D11*
G36*
X177308327Y-127923907D02*
G01*
X175187006Y-125802586D01*
X176742641Y-124246951D01*
X178863962Y-126368272D01*
X177308327Y-127923907D01*
X177308327Y-127923907D01*
G37*
D10*
X172924264Y-130186649D03*
D11*
G36*
X173207107Y-132025127D02*
G01*
X171085786Y-129903806D01*
X172641421Y-128348171D01*
X174762742Y-130469492D01*
X173207107Y-132025127D01*
X173207107Y-132025127D01*
G37*
D10*
X179853911Y-128913856D03*
D11*
G36*
X180136754Y-130752334D02*
G01*
X178015433Y-128631013D01*
X179571068Y-127075378D01*
X181692389Y-129196699D01*
X180136754Y-130752334D01*
X180136754Y-130752334D01*
G37*
D10*
X175752691Y-133015076D03*
D11*
G36*
X176035534Y-134853554D02*
G01*
X173914213Y-132732233D01*
X175469848Y-131176598D01*
X177591169Y-133297919D01*
X176035534Y-134853554D01*
X176035534Y-134853554D01*
G37*
D10*
X183067662Y-125507717D03*
D11*
G36*
X182784819Y-123669239D02*
G01*
X184906140Y-125790560D01*
X183350505Y-127346195D01*
X181229184Y-125224874D01*
X182784819Y-123669239D01*
X182784819Y-123669239D01*
G37*
D10*
X187168882Y-121406497D03*
D11*
G36*
X186886039Y-119568019D02*
G01*
X189007360Y-121689340D01*
X187451725Y-123244975D01*
X185330404Y-121123654D01*
X186886039Y-119568019D01*
X186886039Y-119568019D01*
G37*
D10*
X180239235Y-122679290D03*
D11*
G36*
X179956392Y-120840812D02*
G01*
X182077713Y-122962133D01*
X180522078Y-124517768D01*
X178400757Y-122396447D01*
X179956392Y-120840812D01*
X179956392Y-120840812D01*
G37*
D10*
X184340455Y-118578070D03*
D11*
G36*
X184057612Y-116739592D02*
G01*
X186178933Y-118860913D01*
X184623298Y-120416548D01*
X182501977Y-118295227D01*
X184057612Y-116739592D01*
X184057612Y-116739592D01*
G37*
D10*
X177410808Y-119850863D03*
D11*
G36*
X177127965Y-118012385D02*
G01*
X179249286Y-120133706D01*
X177693651Y-121689341D01*
X175572330Y-119568020D01*
X177127965Y-118012385D01*
X177127965Y-118012385D01*
G37*
D10*
X181512028Y-115749643D03*
D11*
G36*
X181229185Y-113911165D02*
G01*
X183350506Y-116032486D01*
X181794871Y-117588121D01*
X179673550Y-115466800D01*
X181229185Y-113911165D01*
X181229185Y-113911165D01*
G37*
D10*
X174582381Y-117022435D03*
D11*
G36*
X174299538Y-115183957D02*
G01*
X176420859Y-117305278D01*
X174865224Y-118860913D01*
X172743903Y-116739592D01*
X174299538Y-115183957D01*
X174299538Y-115183957D01*
G37*
D10*
X178683601Y-112921215D03*
D11*
G36*
X178400758Y-111082737D02*
G01*
X180522079Y-113204058D01*
X178966444Y-114759693D01*
X176845123Y-112638372D01*
X178400758Y-111082737D01*
X178400758Y-111082737D01*
G37*
D10*
X171753954Y-114194008D03*
D11*
G36*
X171471111Y-112355530D02*
G01*
X173592432Y-114476851D01*
X172036797Y-116032486D01*
X169915476Y-113911165D01*
X171471111Y-112355530D01*
X171471111Y-112355530D01*
G37*
D10*
X175855174Y-110092788D03*
D11*
G36*
X175572331Y-108254310D02*
G01*
X177693652Y-110375631D01*
X176138017Y-111931266D01*
X174016696Y-109809945D01*
X175572331Y-108254310D01*
X175572331Y-108254310D01*
G37*
D10*
X185699390Y-100949390D03*
D11*
G36*
X187537868Y-100666547D02*
G01*
X185416547Y-102787868D01*
X183860912Y-101232233D01*
X185982233Y-99110912D01*
X187537868Y-100666547D01*
X187537868Y-100666547D01*
G37*
D10*
X189800610Y-105050610D03*
D11*
G36*
X191639088Y-104767767D02*
G01*
X189517767Y-106889088D01*
X187962132Y-105333453D01*
X190083453Y-103212132D01*
X191639088Y-104767767D01*
X191639088Y-104767767D01*
G37*
D10*
X193823581Y-86191853D03*
D11*
G36*
X191985103Y-86474696D02*
G01*
X194106424Y-84353375D01*
X195662059Y-85909010D01*
X193540738Y-88030331D01*
X191985103Y-86474696D01*
X191985103Y-86474696D01*
G37*
D10*
X189722361Y-82090633D03*
D11*
G36*
X187883883Y-82373476D02*
G01*
X190005204Y-80252155D01*
X191560839Y-81807790D01*
X189439518Y-83929111D01*
X187883883Y-82373476D01*
X187883883Y-82373476D01*
G37*
D10*
X190995154Y-89020280D03*
D11*
G36*
X189156676Y-89303123D02*
G01*
X191277997Y-87181802D01*
X192833632Y-88737437D01*
X190712311Y-90858758D01*
X189156676Y-89303123D01*
X189156676Y-89303123D01*
G37*
D10*
X186893934Y-84919060D03*
D11*
G36*
X185055456Y-85201903D02*
G01*
X187176777Y-83080582D01*
X188732412Y-84636217D01*
X186611091Y-86757538D01*
X185055456Y-85201903D01*
X185055456Y-85201903D01*
G37*
D10*
X188166727Y-91848707D03*
D11*
G36*
X186328249Y-92131550D02*
G01*
X188449570Y-90010229D01*
X190005205Y-91565864D01*
X187883884Y-93687185D01*
X186328249Y-92131550D01*
X186328249Y-92131550D01*
G37*
D10*
X184065507Y-87747487D03*
D11*
G36*
X182227029Y-88030330D02*
G01*
X184348350Y-85909009D01*
X185903985Y-87464644D01*
X183782664Y-89585965D01*
X182227029Y-88030330D01*
X182227029Y-88030330D01*
G37*
D10*
X185338299Y-94677134D03*
D11*
G36*
X183499821Y-94959977D02*
G01*
X185621142Y-92838656D01*
X187176777Y-94394291D01*
X185055456Y-96515612D01*
X183499821Y-94959977D01*
X183499821Y-94959977D01*
G37*
D10*
X181237079Y-90575914D03*
D11*
G36*
X179398601Y-90858757D02*
G01*
X181519922Y-88737436D01*
X183075557Y-90293071D01*
X180954236Y-92414392D01*
X179398601Y-90858757D01*
X179398601Y-90858757D01*
G37*
D10*
X182509872Y-97505561D03*
D11*
G36*
X180671394Y-97788404D02*
G01*
X182792715Y-95667083D01*
X184348350Y-97222718D01*
X182227029Y-99344039D01*
X180671394Y-97788404D01*
X180671394Y-97788404D01*
G37*
D10*
X178408652Y-93404341D03*
D11*
G36*
X176570174Y-93687184D02*
G01*
X178691495Y-91565863D01*
X180247130Y-93121498D01*
X178125809Y-95242819D01*
X176570174Y-93687184D01*
X176570174Y-93687184D01*
G37*
D10*
X182974516Y-69336144D03*
D11*
G36*
X182691673Y-67497666D02*
G01*
X184812994Y-69618987D01*
X183257359Y-71174622D01*
X181136038Y-69053301D01*
X182691673Y-67497666D01*
X182691673Y-67497666D01*
G37*
D10*
X187075736Y-65234924D03*
D11*
G36*
X186792893Y-63396446D02*
G01*
X188914214Y-65517767D01*
X187358579Y-67073402D01*
X185237258Y-64952081D01*
X186792893Y-63396446D01*
X186792893Y-63396446D01*
G37*
D10*
X180146089Y-66507717D03*
D11*
G36*
X179863246Y-64669239D02*
G01*
X181984567Y-66790560D01*
X180428932Y-68346195D01*
X178307611Y-66224874D01*
X179863246Y-64669239D01*
X179863246Y-64669239D01*
G37*
D10*
X184247309Y-62406497D03*
D11*
G36*
X183964466Y-60568019D02*
G01*
X186085787Y-62689340D01*
X184530152Y-64244975D01*
X182408831Y-62123654D01*
X183964466Y-60568019D01*
X183964466Y-60568019D01*
G37*
D10*
X177317662Y-63679290D03*
D11*
G36*
X177034819Y-61840812D02*
G01*
X179156140Y-63962133D01*
X177600505Y-65517768D01*
X175479184Y-63396447D01*
X177034819Y-61840812D01*
X177034819Y-61840812D01*
G37*
D10*
X181418882Y-59578070D03*
D11*
G36*
X181136039Y-57739592D02*
G01*
X183257360Y-59860913D01*
X181701725Y-61416548D01*
X179580404Y-59295227D01*
X181136039Y-57739592D01*
X181136039Y-57739592D01*
G37*
D10*
X174489235Y-60850863D03*
D11*
G36*
X174206392Y-59012385D02*
G01*
X176327713Y-61133706D01*
X174772078Y-62689341D01*
X172650757Y-60568020D01*
X174206392Y-59012385D01*
X174206392Y-59012385D01*
G37*
D10*
X178590455Y-56749643D03*
D11*
G36*
X178307612Y-54911165D02*
G01*
X180428933Y-57032486D01*
X178873298Y-58588121D01*
X176751977Y-56466800D01*
X178307612Y-54911165D01*
X178307612Y-54911165D01*
G37*
D10*
X171660808Y-58022435D03*
D11*
G36*
X171377965Y-56183957D02*
G01*
X173499286Y-58305278D01*
X171943651Y-59860913D01*
X169822330Y-57739592D01*
X171377965Y-56183957D01*
X171377965Y-56183957D01*
G37*
D10*
X175762028Y-53921215D03*
D11*
G36*
X175479185Y-52082737D02*
G01*
X177600506Y-54204058D01*
X176044871Y-55759693D01*
X173923550Y-53638372D01*
X175479185Y-52082737D01*
X175479185Y-52082737D01*
G37*
D10*
X167231876Y-145068377D03*
D11*
G36*
X166949033Y-143229899D02*
G01*
X169070354Y-145351220D01*
X167514719Y-146906855D01*
X165393398Y-144785534D01*
X166949033Y-143229899D01*
X166949033Y-143229899D01*
G37*
D10*
X171333096Y-140967157D03*
D11*
G36*
X171050253Y-139128679D02*
G01*
X173171574Y-141250000D01*
X171615939Y-142805635D01*
X169494618Y-140684314D01*
X171050253Y-139128679D01*
X171050253Y-139128679D01*
G37*
D10*
X164403448Y-142239950D03*
D11*
G36*
X164120605Y-140401472D02*
G01*
X166241926Y-142522793D01*
X164686291Y-144078428D01*
X162564970Y-141957107D01*
X164120605Y-140401472D01*
X164120605Y-140401472D01*
G37*
D10*
X168504668Y-138138730D03*
D11*
G36*
X168221825Y-136300252D02*
G01*
X170343146Y-138421573D01*
X168787511Y-139977208D01*
X166666190Y-137855887D01*
X168221825Y-136300252D01*
X168221825Y-136300252D01*
G37*
D10*
X161575021Y-139411523D03*
D11*
G36*
X161292178Y-137573045D02*
G01*
X163413499Y-139694366D01*
X161857864Y-141250001D01*
X159736543Y-139128680D01*
X161292178Y-137573045D01*
X161292178Y-137573045D01*
G37*
D10*
X165676241Y-135310303D03*
D11*
G36*
X165393398Y-133471825D02*
G01*
X167514719Y-135593146D01*
X165959084Y-137148781D01*
X163837763Y-135027460D01*
X165393398Y-133471825D01*
X165393398Y-133471825D01*
G37*
D13*
X157500000Y-137650000D03*
X157500000Y-131850000D03*
X153500000Y-137650000D03*
X153500000Y-131850000D03*
X149518660Y-137650000D03*
X149518660Y-131850000D03*
D10*
X135086322Y-122659367D03*
D11*
G36*
X134803479Y-120820889D02*
G01*
X136924800Y-122942210D01*
X135369165Y-124497845D01*
X133247844Y-122376524D01*
X134803479Y-120820889D01*
X134803479Y-120820889D01*
G37*
D10*
X139187542Y-118558147D03*
D11*
G36*
X138904699Y-116719669D02*
G01*
X141026020Y-118840990D01*
X139470385Y-120396625D01*
X137349064Y-118275304D01*
X138904699Y-116719669D01*
X138904699Y-116719669D01*
G37*
D10*
X132257895Y-119830940D03*
D11*
G36*
X131975052Y-117992462D02*
G01*
X134096373Y-120113783D01*
X132540738Y-121669418D01*
X130419417Y-119548097D01*
X131975052Y-117992462D01*
X131975052Y-117992462D01*
G37*
D10*
X136359115Y-115729720D03*
D11*
G36*
X136076272Y-113891242D02*
G01*
X138197593Y-116012563D01*
X136641958Y-117568198D01*
X134520637Y-115446877D01*
X136076272Y-113891242D01*
X136076272Y-113891242D01*
G37*
D10*
X129429468Y-117002513D03*
D11*
G36*
X129146625Y-115164035D02*
G01*
X131267946Y-117285356D01*
X129712311Y-118840991D01*
X127590990Y-116719670D01*
X129146625Y-115164035D01*
X129146625Y-115164035D01*
G37*
D10*
X133530688Y-112901293D03*
D11*
G36*
X133247845Y-111062815D02*
G01*
X135369166Y-113184136D01*
X133813531Y-114739771D01*
X131692210Y-112618450D01*
X133247845Y-111062815D01*
X133247845Y-111062815D01*
G37*
D10*
X126601040Y-114174086D03*
D11*
G36*
X126318197Y-112335608D02*
G01*
X128439518Y-114456929D01*
X126883883Y-116012564D01*
X124762562Y-113891243D01*
X126318197Y-112335608D01*
X126318197Y-112335608D01*
G37*
D10*
X130702260Y-110072866D03*
D11*
G36*
X130419417Y-108234388D02*
G01*
X132540738Y-110355709D01*
X130985103Y-111911344D01*
X128863782Y-109790023D01*
X130419417Y-108234388D01*
X130419417Y-108234388D01*
G37*
D10*
X123772613Y-111345659D03*
D11*
G36*
X123489770Y-109507181D02*
G01*
X125611091Y-111628502D01*
X124055456Y-113184137D01*
X121934135Y-111062816D01*
X123489770Y-109507181D01*
X123489770Y-109507181D01*
G37*
D10*
X127873833Y-107244439D03*
D11*
G36*
X127590990Y-105405961D02*
G01*
X129712311Y-107527282D01*
X128156676Y-109082917D01*
X126035355Y-106961596D01*
X127590990Y-105405961D01*
X127590990Y-105405961D01*
G37*
D10*
X145745154Y-82126882D03*
D11*
G36*
X143906676Y-82409725D02*
G01*
X146027997Y-80288404D01*
X147583632Y-81844039D01*
X145462311Y-83965360D01*
X143906676Y-82409725D01*
X143906676Y-82409725D01*
G37*
D10*
X141643934Y-78025662D03*
D11*
G36*
X139805456Y-78308505D02*
G01*
X141926777Y-76187184D01*
X143482412Y-77742819D01*
X141361091Y-79864140D01*
X139805456Y-78308505D01*
X139805456Y-78308505D01*
G37*
D10*
X142916727Y-84955309D03*
D11*
G36*
X141078249Y-85238152D02*
G01*
X143199570Y-83116831D01*
X144755205Y-84672466D01*
X142633884Y-86793787D01*
X141078249Y-85238152D01*
X141078249Y-85238152D01*
G37*
D10*
X138815507Y-80854089D03*
D11*
G36*
X136977029Y-81136932D02*
G01*
X139098350Y-79015611D01*
X140653985Y-80571246D01*
X138532664Y-82692567D01*
X136977029Y-81136932D01*
X136977029Y-81136932D01*
G37*
D10*
X140088299Y-87783736D03*
D11*
G36*
X138249821Y-88066579D02*
G01*
X140371142Y-85945258D01*
X141926777Y-87500893D01*
X139805456Y-89622214D01*
X138249821Y-88066579D01*
X138249821Y-88066579D01*
G37*
D10*
X135987079Y-83682516D03*
D11*
G36*
X134148601Y-83965359D02*
G01*
X136269922Y-81844038D01*
X137825557Y-83399673D01*
X135704236Y-85520994D01*
X134148601Y-83965359D01*
X134148601Y-83965359D01*
G37*
D10*
X137259872Y-90612163D03*
D11*
G36*
X135421394Y-90895006D02*
G01*
X137542715Y-88773685D01*
X139098350Y-90329320D01*
X136977029Y-92450641D01*
X135421394Y-90895006D01*
X135421394Y-90895006D01*
G37*
D10*
X133158652Y-86510943D03*
D11*
G36*
X131320174Y-86793786D02*
G01*
X133441495Y-84672465D01*
X134997130Y-86228100D01*
X132875809Y-88349421D01*
X131320174Y-86793786D01*
X131320174Y-86793786D01*
G37*
D10*
X134431445Y-93440590D03*
D11*
G36*
X132592967Y-93723433D02*
G01*
X134714288Y-91602112D01*
X136269923Y-93157747D01*
X134148602Y-95279068D01*
X132592967Y-93723433D01*
X132592967Y-93723433D01*
G37*
D10*
X130330225Y-89339370D03*
D11*
G36*
X128491747Y-89622213D02*
G01*
X130613068Y-87500892D01*
X132168703Y-89056527D01*
X130047382Y-91177848D01*
X128491747Y-89622213D01*
X128491747Y-89622213D01*
G37*
D10*
X129480613Y-59646804D03*
D11*
G36*
X129197770Y-57808326D02*
G01*
X131319091Y-59929647D01*
X129763456Y-61485282D01*
X127642135Y-59363961D01*
X129197770Y-57808326D01*
X129197770Y-57808326D01*
G37*
D10*
X133581833Y-55545584D03*
D11*
G36*
X133298990Y-53707106D02*
G01*
X135420311Y-55828427D01*
X133864676Y-57384062D01*
X131743355Y-55262741D01*
X133298990Y-53707106D01*
X133298990Y-53707106D01*
G37*
D10*
X132309040Y-62475231D03*
D11*
G36*
X132026197Y-60636753D02*
G01*
X134147518Y-62758074D01*
X132591883Y-64313709D01*
X130470562Y-62192388D01*
X132026197Y-60636753D01*
X132026197Y-60636753D01*
G37*
D10*
X136410260Y-58374011D03*
D11*
G36*
X136127417Y-56535533D02*
G01*
X138248738Y-58656854D01*
X136693103Y-60212489D01*
X134571782Y-58091168D01*
X136127417Y-56535533D01*
X136127417Y-56535533D01*
G37*
D10*
X126652186Y-56818377D03*
D11*
G36*
X126369343Y-54979899D02*
G01*
X128490664Y-57101220D01*
X126935029Y-58656855D01*
X124813708Y-56535534D01*
X126369343Y-54979899D01*
X126369343Y-54979899D01*
G37*
D10*
X130753406Y-52717157D03*
D11*
G36*
X130470563Y-50878679D02*
G01*
X132591884Y-53000000D01*
X131036249Y-54555635D01*
X128914928Y-52434314D01*
X130470563Y-50878679D01*
X130470563Y-50878679D01*
G37*
D10*
X123823759Y-53989950D03*
D11*
G36*
X123540916Y-52151472D02*
G01*
X125662237Y-54272793D01*
X124106602Y-55828428D01*
X121985281Y-53707107D01*
X123540916Y-52151472D01*
X123540916Y-52151472D01*
G37*
D10*
X127924979Y-49888730D03*
D11*
G36*
X127642136Y-48050252D02*
G01*
X129763457Y-50171573D01*
X128207822Y-51727208D01*
X126086501Y-49605887D01*
X127642136Y-48050252D01*
X127642136Y-48050252D01*
G37*
D10*
X135137467Y-65303658D03*
D11*
G36*
X134854624Y-63465180D02*
G01*
X136975945Y-65586501D01*
X135420310Y-67142136D01*
X133298989Y-65020815D01*
X134854624Y-63465180D01*
X134854624Y-63465180D01*
G37*
D10*
X139238687Y-61202438D03*
D11*
G36*
X138955844Y-59363960D02*
G01*
X141077165Y-61485281D01*
X139521530Y-63040916D01*
X137400209Y-60919595D01*
X138955844Y-59363960D01*
X138955844Y-59363960D01*
G37*
D10*
X120300610Y-57199390D03*
D11*
G36*
X120583453Y-59037868D02*
G01*
X118462132Y-56916547D01*
X120017767Y-55360912D01*
X122139088Y-57482233D01*
X120583453Y-59037868D01*
X120583453Y-59037868D01*
G37*
D10*
X116199390Y-61300610D03*
D11*
G36*
X116482233Y-63139088D02*
G01*
X114360912Y-61017767D01*
X115916547Y-59462132D01*
X118037868Y-61583453D01*
X116482233Y-63139088D01*
X116482233Y-63139088D01*
G37*
D10*
X119699390Y-140300610D03*
D11*
G36*
X119416547Y-138462132D02*
G01*
X121537868Y-140583453D01*
X119982233Y-142139088D01*
X117860912Y-140017767D01*
X119416547Y-138462132D01*
X119416547Y-138462132D01*
G37*
D10*
X123800610Y-136199390D03*
D11*
G36*
X123517767Y-134360912D02*
G01*
X125639088Y-136482233D01*
X124083453Y-138037868D01*
X121962132Y-135916547D01*
X123517767Y-134360912D01*
X123517767Y-134360912D01*
G37*
D13*
X115250001Y-137650000D03*
X115250001Y-131850000D03*
X111250000Y-137650001D03*
X111250000Y-131850001D03*
X107250000Y-137650000D03*
X107250000Y-131850000D03*
D10*
X91348885Y-122775484D03*
D11*
G36*
X91066042Y-120937006D02*
G01*
X93187363Y-123058327D01*
X91631728Y-124613962D01*
X89510407Y-122492641D01*
X91066042Y-120937006D01*
X91066042Y-120937006D01*
G37*
D10*
X95450105Y-118674264D03*
D11*
G36*
X95167262Y-116835786D02*
G01*
X97288583Y-118957107D01*
X95732948Y-120512742D01*
X93611627Y-118391421D01*
X95167262Y-116835786D01*
X95167262Y-116835786D01*
G37*
D10*
X88520458Y-119947057D03*
D11*
G36*
X88237615Y-118108579D02*
G01*
X90358936Y-120229900D01*
X88803301Y-121785535D01*
X86681980Y-119664214D01*
X88237615Y-118108579D01*
X88237615Y-118108579D01*
G37*
D10*
X92621678Y-115845837D03*
D11*
G36*
X92338835Y-114007359D02*
G01*
X94460156Y-116128680D01*
X92904521Y-117684315D01*
X90783200Y-115562994D01*
X92338835Y-114007359D01*
X92338835Y-114007359D01*
G37*
D10*
X85692031Y-117118629D03*
D11*
G36*
X85409188Y-115280151D02*
G01*
X87530509Y-117401472D01*
X85974874Y-118957107D01*
X83853553Y-116835786D01*
X85409188Y-115280151D01*
X85409188Y-115280151D01*
G37*
D10*
X89793251Y-113017409D03*
D11*
G36*
X89510408Y-111178931D02*
G01*
X91631729Y-113300252D01*
X90076094Y-114855887D01*
X87954773Y-112734566D01*
X89510408Y-111178931D01*
X89510408Y-111178931D01*
G37*
D10*
X82863604Y-114290202D03*
D11*
G36*
X82580761Y-112451724D02*
G01*
X84702082Y-114573045D01*
X83146447Y-116128680D01*
X81025126Y-114007359D01*
X82580761Y-112451724D01*
X82580761Y-112451724D01*
G37*
D10*
X86964824Y-110188982D03*
D11*
G36*
X86681981Y-108350504D02*
G01*
X88803302Y-110471825D01*
X87247667Y-112027460D01*
X85126346Y-109906139D01*
X86681981Y-108350504D01*
X86681981Y-108350504D01*
G37*
D10*
X80035176Y-111461775D03*
D11*
G36*
X79752333Y-109623297D02*
G01*
X81873654Y-111744618D01*
X80318019Y-113300253D01*
X78196698Y-111178932D01*
X79752333Y-109623297D01*
X79752333Y-109623297D01*
G37*
D10*
X84136396Y-107360555D03*
D11*
G36*
X83853553Y-105522077D02*
G01*
X85974874Y-107643398D01*
X84419239Y-109199033D01*
X82297918Y-107077712D01*
X83853553Y-105522077D01*
X83853553Y-105522077D01*
G37*
D10*
X101616474Y-82669775D03*
D11*
G36*
X99777996Y-82952618D02*
G01*
X101899317Y-80831297D01*
X103454952Y-82386932D01*
X101333631Y-84508253D01*
X99777996Y-82952618D01*
X99777996Y-82952618D01*
G37*
D10*
X97515254Y-78568555D03*
D11*
G36*
X95676776Y-78851398D02*
G01*
X97798097Y-76730077D01*
X99353732Y-78285712D01*
X97232411Y-80407033D01*
X95676776Y-78851398D01*
X95676776Y-78851398D01*
G37*
D10*
X98788047Y-85498202D03*
D11*
G36*
X96949569Y-85781045D02*
G01*
X99070890Y-83659724D01*
X100626525Y-85215359D01*
X98505204Y-87336680D01*
X96949569Y-85781045D01*
X96949569Y-85781045D01*
G37*
D10*
X94686827Y-81396982D03*
D11*
G36*
X92848349Y-81679825D02*
G01*
X94969670Y-79558504D01*
X96525305Y-81114139D01*
X94403984Y-83235460D01*
X92848349Y-81679825D01*
X92848349Y-81679825D01*
G37*
D10*
X95959620Y-88326629D03*
D11*
G36*
X94121142Y-88609472D02*
G01*
X96242463Y-86488151D01*
X97798098Y-88043786D01*
X95676777Y-90165107D01*
X94121142Y-88609472D01*
X94121142Y-88609472D01*
G37*
D10*
X91858400Y-84225409D03*
D11*
G36*
X90019922Y-84508252D02*
G01*
X92141243Y-82386931D01*
X93696878Y-83942566D01*
X91575557Y-86063887D01*
X90019922Y-84508252D01*
X90019922Y-84508252D01*
G37*
D10*
X93131193Y-91155056D03*
D11*
G36*
X91292715Y-91437899D02*
G01*
X93414036Y-89316578D01*
X94969671Y-90872213D01*
X92848350Y-92993534D01*
X91292715Y-91437899D01*
X91292715Y-91437899D01*
G37*
D10*
X89029973Y-87053836D03*
D11*
G36*
X87191495Y-87336679D02*
G01*
X89312816Y-85215358D01*
X90868451Y-86770993D01*
X88747130Y-88892314D01*
X87191495Y-87336679D01*
X87191495Y-87336679D01*
G37*
D10*
X90302765Y-93983483D03*
D11*
G36*
X88464287Y-94266326D02*
G01*
X90585608Y-92145005D01*
X92141243Y-93700640D01*
X90019922Y-95821961D01*
X88464287Y-94266326D01*
X88464287Y-94266326D01*
G37*
D10*
X86201545Y-89882263D03*
D11*
G36*
X84363067Y-90165106D02*
G01*
X86484388Y-88043785D01*
X88040023Y-89599420D01*
X85918702Y-91720741D01*
X84363067Y-90165106D01*
X84363067Y-90165106D01*
G37*
D10*
X91345837Y-65550610D03*
D11*
G36*
X91062994Y-63712132D02*
G01*
X93184315Y-65833453D01*
X91628680Y-67389088D01*
X89507359Y-65267767D01*
X91062994Y-63712132D01*
X91062994Y-63712132D01*
G37*
D10*
X95447057Y-61449390D03*
D11*
G36*
X95164214Y-59610912D02*
G01*
X97285535Y-61732233D01*
X95729900Y-63287868D01*
X93608579Y-61166547D01*
X95164214Y-59610912D01*
X95164214Y-59610912D01*
G37*
D10*
X88517409Y-62722183D03*
D11*
G36*
X88234566Y-60883705D02*
G01*
X90355887Y-63005026D01*
X88800252Y-64560661D01*
X86678931Y-62439340D01*
X88234566Y-60883705D01*
X88234566Y-60883705D01*
G37*
D10*
X92618629Y-58620963D03*
D11*
G36*
X92335786Y-56782485D02*
G01*
X94457107Y-58903806D01*
X92901472Y-60459441D01*
X90780151Y-58338120D01*
X92335786Y-56782485D01*
X92335786Y-56782485D01*
G37*
D10*
X85563351Y-59707464D03*
D11*
G36*
X85280508Y-57868986D02*
G01*
X87401829Y-59990307D01*
X85846194Y-61545942D01*
X83724873Y-59424621D01*
X85280508Y-57868986D01*
X85280508Y-57868986D01*
G37*
D10*
X89664571Y-55606244D03*
D11*
G36*
X89381728Y-53767766D02*
G01*
X91503049Y-55889087D01*
X89947414Y-57444722D01*
X87826093Y-55323401D01*
X89381728Y-53767766D01*
X89381728Y-53767766D01*
G37*
D10*
X82734924Y-56879037D03*
D11*
G36*
X82452081Y-55040559D02*
G01*
X84573402Y-57161880D01*
X83017767Y-58717515D01*
X80896446Y-56596194D01*
X82452081Y-55040559D01*
X82452081Y-55040559D01*
G37*
D10*
X86836144Y-52777817D03*
D11*
G36*
X86553301Y-50939339D02*
G01*
X88674622Y-53060660D01*
X87118987Y-54616295D01*
X84997666Y-52494974D01*
X86553301Y-50939339D01*
X86553301Y-50939339D01*
G37*
D10*
X79906497Y-54050610D03*
D11*
G36*
X79623654Y-52212132D02*
G01*
X81744975Y-54333453D01*
X80189340Y-55889088D01*
X78068019Y-53767767D01*
X79623654Y-52212132D01*
X79623654Y-52212132D01*
G37*
D10*
X84007717Y-49949390D03*
D11*
G36*
X83724874Y-48110912D02*
G01*
X85846195Y-50232233D01*
X84290560Y-51787868D01*
X82169239Y-49666547D01*
X83724874Y-48110912D01*
X83724874Y-48110912D01*
G37*
D10*
X78308147Y-141995154D03*
D11*
G36*
X78025304Y-140156676D02*
G01*
X80146625Y-142277997D01*
X78590990Y-143833632D01*
X76469669Y-141712311D01*
X78025304Y-140156676D01*
X78025304Y-140156676D01*
G37*
D10*
X82409367Y-137893934D03*
D11*
G36*
X82126524Y-136055456D02*
G01*
X84247845Y-138176777D01*
X82692210Y-139732412D01*
X80570889Y-137611091D01*
X82126524Y-136055456D01*
X82126524Y-136055456D01*
G37*
D10*
X75479720Y-139166727D03*
D11*
G36*
X75196877Y-137328249D02*
G01*
X77318198Y-139449570D01*
X75762563Y-141005205D01*
X73641242Y-138883884D01*
X75196877Y-137328249D01*
X75196877Y-137328249D01*
G37*
D10*
X79580940Y-135065507D03*
D11*
G36*
X79298097Y-133227029D02*
G01*
X81419418Y-135348350D01*
X79863783Y-136903985D01*
X77742462Y-134782664D01*
X79298097Y-133227029D01*
X79298097Y-133227029D01*
G37*
D13*
X72500000Y-137150000D03*
X72500000Y-131350000D03*
X68500000Y-137150000D03*
X68500000Y-131350000D03*
X64500000Y-137150000D03*
X64500000Y-131350000D03*
D10*
X46820710Y-122732591D03*
D11*
G36*
X46537867Y-120894113D02*
G01*
X48659188Y-123015434D01*
X47103553Y-124571069D01*
X44982232Y-122449748D01*
X46537867Y-120894113D01*
X46537867Y-120894113D01*
G37*
D10*
X50921930Y-118631371D03*
D11*
G36*
X50639087Y-116792893D02*
G01*
X52760408Y-118914214D01*
X51204773Y-120469849D01*
X49083452Y-118348528D01*
X50639087Y-116792893D01*
X50639087Y-116792893D01*
G37*
D10*
X43992283Y-119904163D03*
D11*
G36*
X43709440Y-118065685D02*
G01*
X45830761Y-120187006D01*
X44275126Y-121742641D01*
X42153805Y-119621320D01*
X43709440Y-118065685D01*
X43709440Y-118065685D01*
G37*
D10*
X48093503Y-115802943D03*
D11*
G36*
X47810660Y-113964465D02*
G01*
X49931981Y-116085786D01*
X48376346Y-117641421D01*
X46255025Y-115520100D01*
X47810660Y-113964465D01*
X47810660Y-113964465D01*
G37*
D10*
X41163856Y-117075736D03*
D11*
G36*
X40881013Y-115237258D02*
G01*
X43002334Y-117358579D01*
X41446699Y-118914214D01*
X39325378Y-116792893D01*
X40881013Y-115237258D01*
X40881013Y-115237258D01*
G37*
D10*
X45265076Y-112974516D03*
D11*
G36*
X44982233Y-111136038D02*
G01*
X47103554Y-113257359D01*
X45547919Y-114812994D01*
X43426598Y-112691673D01*
X44982233Y-111136038D01*
X44982233Y-111136038D01*
G37*
D10*
X38335429Y-114247309D03*
D11*
G36*
X38052586Y-112408831D02*
G01*
X40173907Y-114530152D01*
X38618272Y-116085787D01*
X36496951Y-113964466D01*
X38052586Y-112408831D01*
X38052586Y-112408831D01*
G37*
D10*
X42436649Y-110146089D03*
D11*
G36*
X42153806Y-108307611D02*
G01*
X44275127Y-110428932D01*
X42719492Y-111984567D01*
X40598171Y-109863246D01*
X42153806Y-108307611D01*
X42153806Y-108307611D01*
G37*
D10*
X35507002Y-111418882D03*
D11*
G36*
X35224159Y-109580404D02*
G01*
X37345480Y-111701725D01*
X35789845Y-113257360D01*
X33668524Y-111136039D01*
X35224159Y-109580404D01*
X35224159Y-109580404D01*
G37*
D10*
X39608222Y-107317662D03*
D11*
G36*
X39325379Y-105479184D02*
G01*
X41446700Y-107600505D01*
X39891065Y-109156140D01*
X37769744Y-107034819D01*
X39325379Y-105479184D01*
X39325379Y-105479184D01*
G37*
D10*
X57217872Y-82590455D03*
D11*
G36*
X55379394Y-82873298D02*
G01*
X57500715Y-80751977D01*
X59056350Y-82307612D01*
X56935029Y-84428933D01*
X55379394Y-82873298D01*
X55379394Y-82873298D01*
G37*
D10*
X53116652Y-78489235D03*
D11*
G36*
X51278174Y-78772078D02*
G01*
X53399495Y-76650757D01*
X54955130Y-78206392D01*
X52833809Y-80327713D01*
X51278174Y-78772078D01*
X51278174Y-78772078D01*
G37*
D10*
X54389445Y-85418882D03*
D11*
G36*
X52550967Y-85701725D02*
G01*
X54672288Y-83580404D01*
X56227923Y-85136039D01*
X54106602Y-87257360D01*
X52550967Y-85701725D01*
X52550967Y-85701725D01*
G37*
D10*
X50288225Y-81317662D03*
D11*
G36*
X48449747Y-81600505D02*
G01*
X50571068Y-79479184D01*
X52126703Y-81034819D01*
X50005382Y-83156140D01*
X48449747Y-81600505D01*
X48449747Y-81600505D01*
G37*
D10*
X51561018Y-88247309D03*
D11*
G36*
X49722540Y-88530152D02*
G01*
X51843861Y-86408831D01*
X53399496Y-87964466D01*
X51278175Y-90085787D01*
X49722540Y-88530152D01*
X49722540Y-88530152D01*
G37*
D10*
X47459798Y-84146089D03*
D11*
G36*
X45621320Y-84428932D02*
G01*
X47742641Y-82307611D01*
X49298276Y-83863246D01*
X47176955Y-85984567D01*
X45621320Y-84428932D01*
X45621320Y-84428932D01*
G37*
D10*
X48732591Y-91075736D03*
D11*
G36*
X46894113Y-91358579D02*
G01*
X49015434Y-89237258D01*
X50571069Y-90792893D01*
X48449748Y-92914214D01*
X46894113Y-91358579D01*
X46894113Y-91358579D01*
G37*
D10*
X44631371Y-86974516D03*
D11*
G36*
X42792893Y-87257359D02*
G01*
X44914214Y-85136038D01*
X46469849Y-86691673D01*
X44348528Y-88812994D01*
X42792893Y-87257359D01*
X42792893Y-87257359D01*
G37*
D10*
X45904163Y-93904163D03*
D11*
G36*
X44065685Y-94187006D02*
G01*
X46187006Y-92065685D01*
X47742641Y-93621320D01*
X45621320Y-95742641D01*
X44065685Y-94187006D01*
X44065685Y-94187006D01*
G37*
D10*
X41802943Y-89802943D03*
D11*
G36*
X39964465Y-90085786D02*
G01*
X42085786Y-87964465D01*
X43641421Y-89520100D01*
X41520100Y-91641421D01*
X39964465Y-90085786D01*
X39964465Y-90085786D01*
G37*
D10*
X46479720Y-64934493D03*
D11*
G36*
X46196877Y-63096015D02*
G01*
X48318198Y-65217336D01*
X46762563Y-66772971D01*
X44641242Y-64651650D01*
X46196877Y-63096015D01*
X46196877Y-63096015D01*
G37*
D10*
X50580940Y-60833273D03*
D11*
G36*
X50298097Y-58994795D02*
G01*
X52419418Y-61116116D01*
X50863783Y-62671751D01*
X48742462Y-60550430D01*
X50298097Y-58994795D01*
X50298097Y-58994795D01*
G37*
D10*
X43651293Y-62106066D03*
D11*
G36*
X43368450Y-60267588D02*
G01*
X45489771Y-62388909D01*
X43934136Y-63944544D01*
X41812815Y-61823223D01*
X43368450Y-60267588D01*
X43368450Y-60267588D01*
G37*
D10*
X47752513Y-58004846D03*
D11*
G36*
X47469670Y-56166368D02*
G01*
X49590991Y-58287689D01*
X48035356Y-59843324D01*
X45914035Y-57722003D01*
X47469670Y-56166368D01*
X47469670Y-56166368D01*
G37*
D10*
X40822866Y-59277639D03*
D11*
G36*
X40540023Y-57439161D02*
G01*
X42661344Y-59560482D01*
X41105709Y-61116117D01*
X38984388Y-58994796D01*
X40540023Y-57439161D01*
X40540023Y-57439161D01*
G37*
D10*
X44924086Y-55176419D03*
D11*
G36*
X44641243Y-53337941D02*
G01*
X46762564Y-55459262D01*
X45206929Y-57014897D01*
X43085608Y-54893576D01*
X44641243Y-53337941D01*
X44641243Y-53337941D01*
G37*
D10*
X37994439Y-56449212D03*
D11*
G36*
X37711596Y-54610734D02*
G01*
X39832917Y-56732055D01*
X38277282Y-58287690D01*
X36155961Y-56166369D01*
X37711596Y-54610734D01*
X37711596Y-54610734D01*
G37*
D10*
X42095659Y-52347992D03*
D11*
G36*
X41812816Y-50509514D02*
G01*
X43934137Y-52630835D01*
X42378502Y-54186470D01*
X40257181Y-52065149D01*
X41812816Y-50509514D01*
X41812816Y-50509514D01*
G37*
D10*
X35166012Y-53620785D03*
D11*
G36*
X34883169Y-51782307D02*
G01*
X37004490Y-53903628D01*
X35448855Y-55459263D01*
X33327534Y-53337942D01*
X34883169Y-51782307D01*
X34883169Y-51782307D01*
G37*
D10*
X39267232Y-49519565D03*
D11*
G36*
X38984389Y-47681087D02*
G01*
X41105710Y-49802408D01*
X39550075Y-51358043D01*
X37428754Y-49236722D01*
X38984389Y-47681087D01*
X38984389Y-47681087D01*
G37*
D10*
X36449390Y-144800610D03*
D11*
G36*
X36166547Y-142962132D02*
G01*
X38287868Y-145083453D01*
X36732233Y-146639088D01*
X34610912Y-144517767D01*
X36166547Y-142962132D01*
X36166547Y-142962132D01*
G37*
D10*
X40550610Y-140699390D03*
D11*
G36*
X40267767Y-138860912D02*
G01*
X42389088Y-140982233D01*
X40833453Y-142537868D01*
X38712132Y-140416547D01*
X40267767Y-138860912D01*
X40267767Y-138860912D01*
G37*
D10*
X33699390Y-142050610D03*
D11*
G36*
X33416547Y-140212132D02*
G01*
X35537868Y-142333453D01*
X33982233Y-143889088D01*
X31860912Y-141767767D01*
X33416547Y-140212132D01*
X33416547Y-140212132D01*
G37*
D10*
X37800610Y-137949390D03*
D11*
G36*
X37517767Y-136110912D02*
G01*
X39639088Y-138232233D01*
X38083453Y-139787868D01*
X35962132Y-137666547D01*
X37517767Y-136110912D01*
X37517767Y-136110912D01*
G37*
D13*
X26530330Y-137594544D03*
X26530330Y-131794544D03*
D10*
X30949390Y-139300610D03*
D11*
G36*
X30666547Y-137462132D02*
G01*
X32787868Y-139583453D01*
X31232233Y-141139088D01*
X29110912Y-139017767D01*
X30666547Y-137462132D01*
X30666547Y-137462132D01*
G37*
D10*
X35050610Y-135199390D03*
D11*
G36*
X34767767Y-133360912D02*
G01*
X36889088Y-135482233D01*
X35333453Y-137037868D01*
X33212132Y-134916547D01*
X34767767Y-133360912D01*
X34767767Y-133360912D01*
G37*
D13*
X22641243Y-137594544D03*
X22641243Y-131794544D03*
D10*
X2434671Y-122371678D03*
D11*
G36*
X2151828Y-120533200D02*
G01*
X4273149Y-122654521D01*
X2717514Y-124210156D01*
X596193Y-122088835D01*
X2151828Y-120533200D01*
X2151828Y-120533200D01*
G37*
D10*
X6535891Y-118270458D03*
D11*
G36*
X6253048Y-116431980D02*
G01*
X8374369Y-118553301D01*
X6818734Y-120108936D01*
X4697413Y-117987615D01*
X6253048Y-116431980D01*
X6253048Y-116431980D01*
G37*
D10*
X-393756Y-119543251D03*
D11*
G36*
X-676599Y-117704773D02*
G01*
X1444722Y-119826094D01*
X-110913Y-121381729D01*
X-2232234Y-119260408D01*
X-676599Y-117704773D01*
X-676599Y-117704773D01*
G37*
D10*
X3707464Y-115442031D03*
D11*
G36*
X3424621Y-113603553D02*
G01*
X5545942Y-115724874D01*
X3990307Y-117280509D01*
X1868986Y-115159188D01*
X3424621Y-113603553D01*
X3424621Y-113603553D01*
G37*
D10*
X-3222183Y-116714824D03*
D11*
G36*
X-3505026Y-114876346D02*
G01*
X-1383705Y-116997667D01*
X-2939340Y-118553302D01*
X-5060661Y-116431981D01*
X-3505026Y-114876346D01*
X-3505026Y-114876346D01*
G37*
D10*
X879037Y-112613604D03*
D11*
G36*
X596194Y-110775126D02*
G01*
X2717515Y-112896447D01*
X1161880Y-114452082D01*
X-959441Y-112330761D01*
X596194Y-110775126D01*
X596194Y-110775126D01*
G37*
D10*
X-6050610Y-113886396D03*
D11*
G36*
X-6333453Y-112047918D02*
G01*
X-4212132Y-114169239D01*
X-5767767Y-115724874D01*
X-7889088Y-113603553D01*
X-6333453Y-112047918D01*
X-6333453Y-112047918D01*
G37*
D10*
X-1949390Y-109785176D03*
D11*
G36*
X-2232233Y-107946698D02*
G01*
X-110912Y-110068019D01*
X-1666547Y-111623654D01*
X-3787868Y-109502333D01*
X-2232233Y-107946698D01*
X-2232233Y-107946698D01*
G37*
D10*
X-8879037Y-111057969D03*
D11*
G36*
X-9161880Y-109219491D02*
G01*
X-7040559Y-111340812D01*
X-8596194Y-112896447D01*
X-10717515Y-110775126D01*
X-9161880Y-109219491D01*
X-9161880Y-109219491D01*
G37*
D10*
X-4777817Y-106956749D03*
D11*
G36*
X-5060660Y-105118271D02*
G01*
X-2939339Y-107239592D01*
X-4494974Y-108795227D01*
X-6616295Y-106673906D01*
X-5060660Y-105118271D01*
X-5060660Y-105118271D01*
G37*
D10*
X12952260Y-82184493D03*
D11*
G36*
X11113782Y-82467336D02*
G01*
X13235103Y-80346015D01*
X14790738Y-81901650D01*
X12669417Y-84022971D01*
X11113782Y-82467336D01*
X11113782Y-82467336D01*
G37*
D10*
X8851040Y-78083273D03*
D11*
G36*
X7012562Y-78366116D02*
G01*
X9133883Y-76244795D01*
X10689518Y-77800430D01*
X8568197Y-79921751D01*
X7012562Y-78366116D01*
X7012562Y-78366116D01*
G37*
D10*
X10123833Y-85012921D03*
D11*
G36*
X8285355Y-85295764D02*
G01*
X10406676Y-83174443D01*
X11962311Y-84730078D01*
X9840990Y-86851399D01*
X8285355Y-85295764D01*
X8285355Y-85295764D01*
G37*
D10*
X6022613Y-80911701D03*
D11*
G36*
X4184135Y-81194544D02*
G01*
X6305456Y-79073223D01*
X7861091Y-80628858D01*
X5739770Y-82750179D01*
X4184135Y-81194544D01*
X4184135Y-81194544D01*
G37*
D10*
X7295406Y-87841348D03*
D11*
G36*
X5456928Y-88124191D02*
G01*
X7578249Y-86002870D01*
X9133884Y-87558505D01*
X7012563Y-89679826D01*
X5456928Y-88124191D01*
X5456928Y-88124191D01*
G37*
D10*
X3194186Y-83740128D03*
D11*
G36*
X1355708Y-84022971D02*
G01*
X3477029Y-81901650D01*
X5032664Y-83457285D01*
X2911343Y-85578606D01*
X1355708Y-84022971D01*
X1355708Y-84022971D01*
G37*
D10*
X4466979Y-90669775D03*
D11*
G36*
X2628501Y-90952618D02*
G01*
X4749822Y-88831297D01*
X6305457Y-90386932D01*
X4184136Y-92508253D01*
X2628501Y-90952618D01*
X2628501Y-90952618D01*
G37*
D10*
X365759Y-86568555D03*
D11*
G36*
X-1472719Y-86851398D02*
G01*
X648602Y-84730077D01*
X2204237Y-86285712D01*
X82916Y-88407033D01*
X-1472719Y-86851398D01*
X-1472719Y-86851398D01*
G37*
D10*
X1638552Y-93498202D03*
D11*
G36*
X-199926Y-93781045D02*
G01*
X1921395Y-91659724D01*
X3477030Y-93215359D01*
X1355709Y-95336680D01*
X-199926Y-93781045D01*
X-199926Y-93781045D01*
G37*
D10*
X-2462668Y-89396982D03*
D11*
G36*
X-4301146Y-89679825D02*
G01*
X-2179825Y-87558504D01*
X-624190Y-89114139D01*
X-2745511Y-91235460D01*
X-4301146Y-89679825D01*
X-4301146Y-89679825D01*
G37*
D10*
X1972361Y-65159367D03*
D11*
G36*
X1689518Y-63320889D02*
G01*
X3810839Y-65442210D01*
X2255204Y-66997845D01*
X133883Y-64876524D01*
X1689518Y-63320889D01*
X1689518Y-63320889D01*
G37*
D10*
X6073581Y-61058147D03*
D11*
G36*
X5790738Y-59219669D02*
G01*
X7912059Y-61340990D01*
X6356424Y-62896625D01*
X4235103Y-60775304D01*
X5790738Y-59219669D01*
X5790738Y-59219669D01*
G37*
D10*
X-856066Y-62330940D03*
D11*
G36*
X-1138909Y-60492462D02*
G01*
X982412Y-62613783D01*
X-573223Y-64169418D01*
X-2694544Y-62048097D01*
X-1138909Y-60492462D01*
X-1138909Y-60492462D01*
G37*
D10*
X3245154Y-58229720D03*
D11*
G36*
X2962311Y-56391242D02*
G01*
X5083632Y-58512563D01*
X3527997Y-60068198D01*
X1406676Y-57946877D01*
X2962311Y-56391242D01*
X2962311Y-56391242D01*
G37*
D10*
X-3684493Y-59502513D03*
D11*
G36*
X-3967336Y-57664035D02*
G01*
X-1846015Y-59785356D01*
X-3401650Y-61340991D01*
X-5522971Y-59219670D01*
X-3967336Y-57664035D01*
X-3967336Y-57664035D01*
G37*
D10*
X416727Y-55401293D03*
D11*
G36*
X133884Y-53562815D02*
G01*
X2255205Y-55684136D01*
X699570Y-57239771D01*
X-1421751Y-55118450D01*
X133884Y-53562815D01*
X133884Y-53562815D01*
G37*
D10*
X-6512921Y-56674086D03*
D11*
G36*
X-6795764Y-54835608D02*
G01*
X-4674443Y-56956929D01*
X-6230078Y-58512564D01*
X-8351399Y-56391243D01*
X-6795764Y-54835608D01*
X-6795764Y-54835608D01*
G37*
D10*
X-2411701Y-52572866D03*
D11*
G36*
X-2694544Y-50734388D02*
G01*
X-573223Y-52855709D01*
X-2128858Y-54411344D01*
X-4250179Y-52290023D01*
X-2694544Y-50734388D01*
X-2694544Y-50734388D01*
G37*
D10*
X-9341348Y-53845659D03*
D11*
G36*
X-9624191Y-52007181D02*
G01*
X-7502870Y-54128502D01*
X-9058505Y-55684137D01*
X-11179826Y-53562816D01*
X-9624191Y-52007181D01*
X-9624191Y-52007181D01*
G37*
D10*
X-5240128Y-49744439D03*
D11*
G36*
X-5522971Y-47905961D02*
G01*
X-3401650Y-50027282D01*
X-4957285Y-51582917D01*
X-7078606Y-49461596D01*
X-5522971Y-47905961D01*
X-5522971Y-47905961D01*
G37*
D16*
X185750000Y-32640000D03*
X185750000Y-30860000D03*
M02*
