%TF.GenerationSoftware,KiCad,Pcbnew,(5.1.4)-1*%
%TF.CreationDate,2020-05-13T01:14:08+08:00*%
%TF.ProjectId,LPF,4c50462e-6b69-4636-9164-5f7063625858,rev?*%
%TF.SameCoordinates,Original*%
%TF.FileFunction,Legend,Top*%
%TF.FilePolarity,Positive*%
%FSLAX46Y46*%
G04 Gerber Fmt 4.6, Leading zero omitted, Abs format (unit mm)*
G04 Created by KiCad (PCBNEW (5.1.4)-1) date 2020-05-13 01:14:08*
%MOMM*%
%LPD*%
G04 APERTURE LIST*
%ADD10C,0.150000*%
%ADD11C,0.200000*%
%ADD12C,0.254000*%
%ADD13C,0.300000*%
%ADD14C,0.400000*%
%ADD15C,0.100000*%
%ADD16C,0.120000*%
%ADD17C,0.250000*%
G04 APERTURE END LIST*
D10*
X198728571Y-22611904D02*
X198271428Y-22611904D01*
X198500000Y-22611904D02*
X198500000Y-21811904D01*
X198423809Y-21926190D01*
X198347619Y-22002380D01*
X198271428Y-22040476D01*
X195771428Y-21888095D02*
X195809523Y-21850000D01*
X195885714Y-21811904D01*
X196076190Y-21811904D01*
X196152380Y-21850000D01*
X196190476Y-21888095D01*
X196228571Y-21964285D01*
X196228571Y-22040476D01*
X196190476Y-22154761D01*
X195733333Y-22611904D01*
X196228571Y-22611904D01*
X193233333Y-21811904D02*
X193728571Y-21811904D01*
X193461904Y-22116666D01*
X193576190Y-22116666D01*
X193652380Y-22154761D01*
X193690476Y-22192857D01*
X193728571Y-22269047D01*
X193728571Y-22459523D01*
X193690476Y-22535714D01*
X193652380Y-22573809D01*
X193576190Y-22611904D01*
X193347619Y-22611904D01*
X193271428Y-22573809D01*
X193233333Y-22535714D01*
X191152380Y-22078571D02*
X191152380Y-22611904D01*
X190961904Y-21773809D02*
X190771428Y-22345238D01*
X191266666Y-22345238D01*
X180390476Y-21850000D02*
X180314285Y-21811904D01*
X180200000Y-21811904D01*
X180085714Y-21850000D01*
X180009523Y-21926190D01*
X179971428Y-22002380D01*
X179933333Y-22154761D01*
X179933333Y-22269047D01*
X179971428Y-22421428D01*
X180009523Y-22497619D01*
X180085714Y-22573809D01*
X180200000Y-22611904D01*
X180276190Y-22611904D01*
X180390476Y-22573809D01*
X180428571Y-22535714D01*
X180428571Y-22269047D01*
X180276190Y-22269047D01*
X180771428Y-22611904D02*
X180771428Y-21811904D01*
X181228571Y-22611904D01*
X181228571Y-21811904D01*
X181609523Y-22611904D02*
X181609523Y-21811904D01*
X181800000Y-21811904D01*
X181914285Y-21850000D01*
X181990476Y-21926190D01*
X182028571Y-22002380D01*
X182066666Y-22154761D01*
X182066666Y-22269047D01*
X182028571Y-22421428D01*
X181990476Y-22497619D01*
X181914285Y-22573809D01*
X181800000Y-22611904D01*
X181609523Y-22611904D01*
X185390476Y-21850000D02*
X185314285Y-21811904D01*
X185200000Y-21811904D01*
X185085714Y-21850000D01*
X185009523Y-21926190D01*
X184971428Y-22002380D01*
X184933333Y-22154761D01*
X184933333Y-22269047D01*
X184971428Y-22421428D01*
X185009523Y-22497619D01*
X185085714Y-22573809D01*
X185200000Y-22611904D01*
X185276190Y-22611904D01*
X185390476Y-22573809D01*
X185428571Y-22535714D01*
X185428571Y-22269047D01*
X185276190Y-22269047D01*
X185771428Y-22611904D02*
X185771428Y-21811904D01*
X186228571Y-22611904D01*
X186228571Y-21811904D01*
X186609523Y-22611904D02*
X186609523Y-21811904D01*
X186800000Y-21811904D01*
X186914285Y-21850000D01*
X186990476Y-21926190D01*
X187028571Y-22002380D01*
X187066666Y-22154761D01*
X187066666Y-22269047D01*
X187028571Y-22421428D01*
X186990476Y-22497619D01*
X186914285Y-22573809D01*
X186800000Y-22611904D01*
X186609523Y-22611904D01*
X187890476Y-21850000D02*
X187814285Y-21811904D01*
X187700000Y-21811904D01*
X187585714Y-21850000D01*
X187509523Y-21926190D01*
X187471428Y-22002380D01*
X187433333Y-22154761D01*
X187433333Y-22269047D01*
X187471428Y-22421428D01*
X187509523Y-22497619D01*
X187585714Y-22573809D01*
X187700000Y-22611904D01*
X187776190Y-22611904D01*
X187890476Y-22573809D01*
X187928571Y-22535714D01*
X187928571Y-22269047D01*
X187776190Y-22269047D01*
X188271428Y-22611904D02*
X188271428Y-21811904D01*
X188728571Y-22611904D01*
X188728571Y-21811904D01*
X189109523Y-22611904D02*
X189109523Y-21811904D01*
X189300000Y-21811904D01*
X189414285Y-21850000D01*
X189490476Y-21926190D01*
X189528571Y-22002380D01*
X189566666Y-22154761D01*
X189566666Y-22269047D01*
X189528571Y-22421428D01*
X189490476Y-22497619D01*
X189414285Y-22573809D01*
X189300000Y-22611904D01*
X189109523Y-22611904D01*
X199590476Y-22307142D02*
X200200000Y-22307142D01*
X199895238Y-22611904D02*
X199895238Y-22002380D01*
X201000000Y-22611904D02*
X200542857Y-22611904D01*
X200771428Y-22611904D02*
X200771428Y-21811904D01*
X200695238Y-21926190D01*
X200619047Y-22002380D01*
X200542857Y-22040476D01*
X201304761Y-21888095D02*
X201342857Y-21850000D01*
X201419047Y-21811904D01*
X201609523Y-21811904D01*
X201685714Y-21850000D01*
X201723809Y-21888095D01*
X201761904Y-21964285D01*
X201761904Y-22040476D01*
X201723809Y-22154761D01*
X201266666Y-22611904D01*
X201761904Y-22611904D01*
X201990476Y-21811904D02*
X202257142Y-22611904D01*
X202523809Y-21811904D01*
D11*
X65558571Y-149002380D02*
X65749047Y-149002380D01*
X65844285Y-149050000D01*
X65939523Y-149145238D01*
X65987142Y-149335714D01*
X65987142Y-149669047D01*
X65939523Y-149859523D01*
X65844285Y-149954761D01*
X65749047Y-150002380D01*
X65558571Y-150002380D01*
X65463333Y-149954761D01*
X65368095Y-149859523D01*
X65320476Y-149669047D01*
X65320476Y-149335714D01*
X65368095Y-149145238D01*
X65463333Y-149050000D01*
X65558571Y-149002380D01*
X66415714Y-150002380D02*
X66415714Y-149002380D01*
X66796666Y-149002380D01*
X66891904Y-149050000D01*
X66939523Y-149097619D01*
X66987142Y-149192857D01*
X66987142Y-149335714D01*
X66939523Y-149430952D01*
X66891904Y-149478571D01*
X66796666Y-149526190D01*
X66415714Y-149526190D01*
X67368095Y-149716666D02*
X67844285Y-149716666D01*
X67272857Y-150002380D02*
X67606190Y-149002380D01*
X67939523Y-150002380D01*
X68796666Y-150002380D02*
X68225238Y-150002380D01*
X68510952Y-150002380D02*
X68510952Y-149002380D01*
X68415714Y-149145238D01*
X68320476Y-149240476D01*
X68225238Y-149288095D01*
X69415714Y-149002380D02*
X69510952Y-149002380D01*
X69606190Y-149050000D01*
X69653809Y-149097619D01*
X69701428Y-149192857D01*
X69749047Y-149383333D01*
X69749047Y-149621428D01*
X69701428Y-149811904D01*
X69653809Y-149907142D01*
X69606190Y-149954761D01*
X69510952Y-150002380D01*
X69415714Y-150002380D01*
X69320476Y-149954761D01*
X69272857Y-149907142D01*
X69225238Y-149811904D01*
X69177619Y-149621428D01*
X69177619Y-149383333D01*
X69225238Y-149192857D01*
X69272857Y-149097619D01*
X69320476Y-149050000D01*
X69415714Y-149002380D01*
X70368095Y-149002380D02*
X70463333Y-149002380D01*
X70558571Y-149050000D01*
X70606190Y-149097619D01*
X70653809Y-149192857D01*
X70701428Y-149383333D01*
X70701428Y-149621428D01*
X70653809Y-149811904D01*
X70606190Y-149907142D01*
X70558571Y-149954761D01*
X70463333Y-150002380D01*
X70368095Y-150002380D01*
X70272857Y-149954761D01*
X70225238Y-149907142D01*
X70177619Y-149811904D01*
X70130000Y-149621428D01*
X70130000Y-149383333D01*
X70177619Y-149192857D01*
X70225238Y-149097619D01*
X70272857Y-149050000D01*
X70368095Y-149002380D01*
X71320476Y-149002380D02*
X71415714Y-149002380D01*
X71510952Y-149050000D01*
X71558571Y-149097619D01*
X71606190Y-149192857D01*
X71653809Y-149383333D01*
X71653809Y-149621428D01*
X71606190Y-149811904D01*
X71558571Y-149907142D01*
X71510952Y-149954761D01*
X71415714Y-150002380D01*
X71320476Y-150002380D01*
X71225238Y-149954761D01*
X71177619Y-149907142D01*
X71130000Y-149811904D01*
X71082380Y-149621428D01*
X71082380Y-149383333D01*
X71130000Y-149192857D01*
X71177619Y-149097619D01*
X71225238Y-149050000D01*
X71320476Y-149002380D01*
X73320476Y-150002380D02*
X72844285Y-150002380D01*
X72844285Y-149002380D01*
X73653809Y-150002380D02*
X73653809Y-149002380D01*
X74034761Y-149002380D01*
X74130000Y-149050000D01*
X74177619Y-149097619D01*
X74225238Y-149192857D01*
X74225238Y-149335714D01*
X74177619Y-149430952D01*
X74130000Y-149478571D01*
X74034761Y-149526190D01*
X73653809Y-149526190D01*
X74987142Y-149478571D02*
X74653809Y-149478571D01*
X74653809Y-150002380D02*
X74653809Y-149002380D01*
X75130000Y-149002380D01*
X76130000Y-149002380D02*
X76463333Y-150002380D01*
X76796666Y-149002380D01*
X77320476Y-149002380D02*
X77415714Y-149002380D01*
X77510952Y-149050000D01*
X77558571Y-149097619D01*
X77606190Y-149192857D01*
X77653809Y-149383333D01*
X77653809Y-149621428D01*
X77606190Y-149811904D01*
X77558571Y-149907142D01*
X77510952Y-149954761D01*
X77415714Y-150002380D01*
X77320476Y-150002380D01*
X77225238Y-149954761D01*
X77177619Y-149907142D01*
X77130000Y-149811904D01*
X77082380Y-149621428D01*
X77082380Y-149383333D01*
X77130000Y-149192857D01*
X77177619Y-149097619D01*
X77225238Y-149050000D01*
X77320476Y-149002380D01*
X78082380Y-149907142D02*
X78130000Y-149954761D01*
X78082380Y-150002380D01*
X78034761Y-149954761D01*
X78082380Y-149907142D01*
X78082380Y-150002380D01*
X78510952Y-149097619D02*
X78558571Y-149050000D01*
X78653809Y-149002380D01*
X78891904Y-149002380D01*
X78987142Y-149050000D01*
X79034761Y-149097619D01*
X79082380Y-149192857D01*
X79082380Y-149288095D01*
X79034761Y-149430952D01*
X78463333Y-150002380D01*
X79082380Y-150002380D01*
X65844285Y-151702380D02*
X65368095Y-151702380D01*
X65368095Y-150702380D01*
X66606190Y-151035714D02*
X66606190Y-151702380D01*
X66177619Y-151035714D02*
X66177619Y-151559523D01*
X66225238Y-151654761D01*
X66320476Y-151702380D01*
X66463333Y-151702380D01*
X66558571Y-151654761D01*
X66606190Y-151607142D01*
X67130000Y-151654761D02*
X67130000Y-151702380D01*
X67082380Y-151797619D01*
X67034761Y-151845238D01*
X68225238Y-150702380D02*
X68891904Y-150702380D01*
X68225238Y-151702380D01*
X68891904Y-151702380D01*
X69653809Y-151654761D02*
X69558571Y-151702380D01*
X69368095Y-151702380D01*
X69272857Y-151654761D01*
X69225238Y-151559523D01*
X69225238Y-151178571D01*
X69272857Y-151083333D01*
X69368095Y-151035714D01*
X69558571Y-151035714D01*
X69653809Y-151083333D01*
X69701428Y-151178571D01*
X69701428Y-151273809D01*
X69225238Y-151369047D01*
X70130000Y-151035714D02*
X70130000Y-151702380D01*
X70130000Y-151130952D02*
X70177619Y-151083333D01*
X70272857Y-151035714D01*
X70415714Y-151035714D01*
X70510952Y-151083333D01*
X70558571Y-151178571D01*
X70558571Y-151702380D01*
X71034761Y-151702380D02*
X71034761Y-151035714D01*
X71034761Y-150702380D02*
X70987142Y-150750000D01*
X71034761Y-150797619D01*
X71082380Y-150750000D01*
X71034761Y-150702380D01*
X71034761Y-150797619D01*
X71510952Y-151035714D02*
X71510952Y-151702380D01*
X71510952Y-151130952D02*
X71558571Y-151083333D01*
X71653809Y-151035714D01*
X71796666Y-151035714D01*
X71891904Y-151083333D01*
X71939523Y-151178571D01*
X71939523Y-151702380D01*
X72844285Y-151035714D02*
X72844285Y-151845238D01*
X72796666Y-151940476D01*
X72749047Y-151988095D01*
X72653809Y-152035714D01*
X72510952Y-152035714D01*
X72415714Y-151988095D01*
X72844285Y-151654761D02*
X72749047Y-151702380D01*
X72558571Y-151702380D01*
X72463333Y-151654761D01*
X72415714Y-151607142D01*
X72368095Y-151511904D01*
X72368095Y-151226190D01*
X72415714Y-151130952D01*
X72463333Y-151083333D01*
X72558571Y-151035714D01*
X72749047Y-151035714D01*
X72844285Y-151083333D01*
X74368095Y-152083333D02*
X74320476Y-152035714D01*
X74225238Y-151892857D01*
X74177619Y-151797619D01*
X74130000Y-151654761D01*
X74082380Y-151416666D01*
X74082380Y-151226190D01*
X74130000Y-150988095D01*
X74177619Y-150845238D01*
X74225238Y-150750000D01*
X74320476Y-150607142D01*
X74368095Y-150559523D01*
X75082380Y-151178571D02*
X75225238Y-151226190D01*
X75272857Y-151273809D01*
X75320476Y-151369047D01*
X75320476Y-151511904D01*
X75272857Y-151607142D01*
X75225238Y-151654761D01*
X75130000Y-151702380D01*
X74749047Y-151702380D01*
X74749047Y-150702380D01*
X75082380Y-150702380D01*
X75177619Y-150750000D01*
X75225238Y-150797619D01*
X75272857Y-150892857D01*
X75272857Y-150988095D01*
X75225238Y-151083333D01*
X75177619Y-151130952D01*
X75082380Y-151178571D01*
X74749047Y-151178571D01*
X75749047Y-151702380D02*
X75749047Y-150702380D01*
X76653809Y-151035714D02*
X76653809Y-151702380D01*
X76415714Y-150654761D02*
X76177619Y-151369047D01*
X76796666Y-151369047D01*
X77082380Y-150702380D02*
X77320476Y-151702380D01*
X77510952Y-150988095D01*
X77701428Y-151702380D01*
X77939523Y-150702380D01*
X78510952Y-150702380D02*
X78701428Y-150702380D01*
X78796666Y-150750000D01*
X78891904Y-150845238D01*
X78939523Y-151035714D01*
X78939523Y-151369047D01*
X78891904Y-151559523D01*
X78796666Y-151654761D01*
X78701428Y-151702380D01*
X78510952Y-151702380D01*
X78415714Y-151654761D01*
X78320476Y-151559523D01*
X78272857Y-151369047D01*
X78272857Y-151035714D01*
X78320476Y-150845238D01*
X78415714Y-150750000D01*
X78510952Y-150702380D01*
X79368095Y-151702380D02*
X79368095Y-150702380D01*
X79749047Y-150702380D01*
X79844285Y-150750000D01*
X79891904Y-150797619D01*
X79939523Y-150892857D01*
X79939523Y-151035714D01*
X79891904Y-151130952D01*
X79844285Y-151178571D01*
X79749047Y-151226190D01*
X79368095Y-151226190D01*
X80272857Y-152083333D02*
X80320476Y-152035714D01*
X80415714Y-151892857D01*
X80463333Y-151797619D01*
X80510952Y-151654761D01*
X80558571Y-151416666D01*
X80558571Y-151226190D01*
X80510952Y-150988095D01*
X80463333Y-150845238D01*
X80415714Y-150750000D01*
X80320476Y-150607142D01*
X80272857Y-150559523D01*
X65368095Y-153402380D02*
X65368095Y-152402380D01*
X65701428Y-153116666D01*
X66034761Y-152402380D01*
X66034761Y-153402380D01*
X66939523Y-153402380D02*
X66939523Y-152878571D01*
X66891904Y-152783333D01*
X66796666Y-152735714D01*
X66606190Y-152735714D01*
X66510952Y-152783333D01*
X66939523Y-153354761D02*
X66844285Y-153402380D01*
X66606190Y-153402380D01*
X66510952Y-153354761D01*
X66463333Y-153259523D01*
X66463333Y-153164285D01*
X66510952Y-153069047D01*
X66606190Y-153021428D01*
X66844285Y-153021428D01*
X66939523Y-152973809D01*
X67320476Y-152735714D02*
X67558571Y-153402380D01*
X67796666Y-152735714D02*
X67558571Y-153402380D01*
X67463333Y-153640476D01*
X67415714Y-153688095D01*
X67320476Y-153735714D01*
X69463333Y-153402380D02*
X68891904Y-153402380D01*
X69177619Y-153402380D02*
X69177619Y-152402380D01*
X69082380Y-152545238D01*
X68987142Y-152640476D01*
X68891904Y-152688095D01*
X69796666Y-152402380D02*
X70415714Y-152402380D01*
X70082380Y-152783333D01*
X70225238Y-152783333D01*
X70320476Y-152830952D01*
X70368095Y-152878571D01*
X70415714Y-152973809D01*
X70415714Y-153211904D01*
X70368095Y-153307142D01*
X70320476Y-153354761D01*
X70225238Y-153402380D01*
X69939523Y-153402380D01*
X69844285Y-153354761D01*
X69796666Y-153307142D01*
X70891904Y-153354761D02*
X70891904Y-153402380D01*
X70844285Y-153497619D01*
X70796666Y-153545238D01*
X72034761Y-152497619D02*
X72082380Y-152450000D01*
X72177619Y-152402380D01*
X72415714Y-152402380D01*
X72510952Y-152450000D01*
X72558571Y-152497619D01*
X72606190Y-152592857D01*
X72606190Y-152688095D01*
X72558571Y-152830952D01*
X71987142Y-153402380D01*
X72606190Y-153402380D01*
X73225238Y-152402380D02*
X73320476Y-152402380D01*
X73415714Y-152450000D01*
X73463333Y-152497619D01*
X73510952Y-152592857D01*
X73558571Y-152783333D01*
X73558571Y-153021428D01*
X73510952Y-153211904D01*
X73463333Y-153307142D01*
X73415714Y-153354761D01*
X73320476Y-153402380D01*
X73225238Y-153402380D01*
X73130000Y-153354761D01*
X73082380Y-153307142D01*
X73034761Y-153211904D01*
X72987142Y-153021428D01*
X72987142Y-152783333D01*
X73034761Y-152592857D01*
X73082380Y-152497619D01*
X73130000Y-152450000D01*
X73225238Y-152402380D01*
X73939523Y-152497619D02*
X73987142Y-152450000D01*
X74082380Y-152402380D01*
X74320476Y-152402380D01*
X74415714Y-152450000D01*
X74463333Y-152497619D01*
X74510952Y-152592857D01*
X74510952Y-152688095D01*
X74463333Y-152830952D01*
X73891904Y-153402380D01*
X74510952Y-153402380D01*
X75130000Y-152402380D02*
X75225238Y-152402380D01*
X75320476Y-152450000D01*
X75368095Y-152497619D01*
X75415714Y-152592857D01*
X75463333Y-152783333D01*
X75463333Y-153021428D01*
X75415714Y-153211904D01*
X75368095Y-153307142D01*
X75320476Y-153354761D01*
X75225238Y-153402380D01*
X75130000Y-153402380D01*
X75034761Y-153354761D01*
X74987142Y-153307142D01*
X74939523Y-153211904D01*
X74891904Y-153021428D01*
X74891904Y-152783333D01*
X74939523Y-152592857D01*
X74987142Y-152497619D01*
X75034761Y-152450000D01*
X75130000Y-152402380D01*
X185451428Y-39078571D02*
X185118095Y-39078571D01*
X185118095Y-39602380D02*
X185118095Y-38602380D01*
X185594285Y-38602380D01*
X185975238Y-39602380D02*
X185975238Y-38935714D01*
X185975238Y-38602380D02*
X185927619Y-38650000D01*
X185975238Y-38697619D01*
X186022857Y-38650000D01*
X185975238Y-38602380D01*
X185975238Y-38697619D01*
X186594285Y-39602380D02*
X186499047Y-39554761D01*
X186451428Y-39459523D01*
X186451428Y-38602380D01*
X186832380Y-38935714D02*
X187213333Y-38935714D01*
X186975238Y-38602380D02*
X186975238Y-39459523D01*
X187022857Y-39554761D01*
X187118095Y-39602380D01*
X187213333Y-39602380D01*
X187927619Y-39554761D02*
X187832380Y-39602380D01*
X187641904Y-39602380D01*
X187546666Y-39554761D01*
X187499047Y-39459523D01*
X187499047Y-39078571D01*
X187546666Y-38983333D01*
X187641904Y-38935714D01*
X187832380Y-38935714D01*
X187927619Y-38983333D01*
X187975238Y-39078571D01*
X187975238Y-39173809D01*
X187499047Y-39269047D01*
X188403809Y-39602380D02*
X188403809Y-38935714D01*
X188403809Y-39126190D02*
X188451428Y-39030952D01*
X188499047Y-38983333D01*
X188594285Y-38935714D01*
X188689523Y-38935714D01*
X189499047Y-38602380D02*
X189022857Y-38602380D01*
X188975238Y-39078571D01*
X189022857Y-39030952D01*
X189118095Y-38983333D01*
X189356190Y-38983333D01*
X189451428Y-39030952D01*
X189499047Y-39078571D01*
X189546666Y-39173809D01*
X189546666Y-39411904D01*
X189499047Y-39507142D01*
X189451428Y-39554761D01*
X189356190Y-39602380D01*
X189118095Y-39602380D01*
X189022857Y-39554761D01*
X188975238Y-39507142D01*
X185641904Y-41302380D02*
X185070476Y-41302380D01*
X185356190Y-41302380D02*
X185356190Y-40302380D01*
X185260952Y-40445238D01*
X185165714Y-40540476D01*
X185070476Y-40588095D01*
X186499047Y-40302380D02*
X186308571Y-40302380D01*
X186213333Y-40350000D01*
X186165714Y-40397619D01*
X186070476Y-40540476D01*
X186022857Y-40730952D01*
X186022857Y-41111904D01*
X186070476Y-41207142D01*
X186118095Y-41254761D01*
X186213333Y-41302380D01*
X186403809Y-41302380D01*
X186499047Y-41254761D01*
X186546666Y-41207142D01*
X186594285Y-41111904D01*
X186594285Y-40873809D01*
X186546666Y-40778571D01*
X186499047Y-40730952D01*
X186403809Y-40683333D01*
X186213333Y-40683333D01*
X186118095Y-40730952D01*
X186070476Y-40778571D01*
X186022857Y-40873809D01*
X187213333Y-40302380D02*
X187308571Y-40302380D01*
X187403809Y-40350000D01*
X187451428Y-40397619D01*
X187499047Y-40492857D01*
X187546666Y-40683333D01*
X187546666Y-40921428D01*
X187499047Y-41111904D01*
X187451428Y-41207142D01*
X187403809Y-41254761D01*
X187308571Y-41302380D01*
X187213333Y-41302380D01*
X187118095Y-41254761D01*
X187070476Y-41207142D01*
X187022857Y-41111904D01*
X186975238Y-40921428D01*
X186975238Y-40683333D01*
X187022857Y-40492857D01*
X187070476Y-40397619D01*
X187118095Y-40350000D01*
X187213333Y-40302380D01*
X187975238Y-41302380D02*
X187975238Y-40635714D01*
X187975238Y-40730952D02*
X188022857Y-40683333D01*
X188118095Y-40635714D01*
X188260952Y-40635714D01*
X188356190Y-40683333D01*
X188403809Y-40778571D01*
X188403809Y-41302380D01*
X188403809Y-40778571D02*
X188451428Y-40683333D01*
X188546666Y-40635714D01*
X188689523Y-40635714D01*
X188784761Y-40683333D01*
X188832380Y-40778571D01*
X188832380Y-41302380D01*
X166451428Y-45078571D02*
X166118095Y-45078571D01*
X166118095Y-45602380D02*
X166118095Y-44602380D01*
X166594285Y-44602380D01*
X166975238Y-45602380D02*
X166975238Y-44935714D01*
X166975238Y-44602380D02*
X166927619Y-44650000D01*
X166975238Y-44697619D01*
X167022857Y-44650000D01*
X166975238Y-44602380D01*
X166975238Y-44697619D01*
X167594285Y-45602380D02*
X167499047Y-45554761D01*
X167451428Y-45459523D01*
X167451428Y-44602380D01*
X167832380Y-44935714D02*
X168213333Y-44935714D01*
X167975238Y-44602380D02*
X167975238Y-45459523D01*
X168022857Y-45554761D01*
X168118095Y-45602380D01*
X168213333Y-45602380D01*
X168927619Y-45554761D02*
X168832380Y-45602380D01*
X168641904Y-45602380D01*
X168546666Y-45554761D01*
X168499047Y-45459523D01*
X168499047Y-45078571D01*
X168546666Y-44983333D01*
X168641904Y-44935714D01*
X168832380Y-44935714D01*
X168927619Y-44983333D01*
X168975238Y-45078571D01*
X168975238Y-45173809D01*
X168499047Y-45269047D01*
X169403809Y-45602380D02*
X169403809Y-44935714D01*
X169403809Y-45126190D02*
X169451428Y-45030952D01*
X169499047Y-44983333D01*
X169594285Y-44935714D01*
X169689523Y-44935714D01*
X170451428Y-44935714D02*
X170451428Y-45602380D01*
X170213333Y-44554761D02*
X169975238Y-45269047D01*
X170594285Y-45269047D01*
X166260952Y-46730952D02*
X166165714Y-46683333D01*
X166118095Y-46635714D01*
X166070476Y-46540476D01*
X166070476Y-46492857D01*
X166118095Y-46397619D01*
X166165714Y-46350000D01*
X166260952Y-46302380D01*
X166451428Y-46302380D01*
X166546666Y-46350000D01*
X166594285Y-46397619D01*
X166641904Y-46492857D01*
X166641904Y-46540476D01*
X166594285Y-46635714D01*
X166546666Y-46683333D01*
X166451428Y-46730952D01*
X166260952Y-46730952D01*
X166165714Y-46778571D01*
X166118095Y-46826190D01*
X166070476Y-46921428D01*
X166070476Y-47111904D01*
X166118095Y-47207142D01*
X166165714Y-47254761D01*
X166260952Y-47302380D01*
X166451428Y-47302380D01*
X166546666Y-47254761D01*
X166594285Y-47207142D01*
X166641904Y-47111904D01*
X166641904Y-46921428D01*
X166594285Y-46826190D01*
X166546666Y-46778571D01*
X166451428Y-46730952D01*
X167260952Y-46302380D02*
X167356190Y-46302380D01*
X167451428Y-46350000D01*
X167499047Y-46397619D01*
X167546666Y-46492857D01*
X167594285Y-46683333D01*
X167594285Y-46921428D01*
X167546666Y-47111904D01*
X167499047Y-47207142D01*
X167451428Y-47254761D01*
X167356190Y-47302380D01*
X167260952Y-47302380D01*
X167165714Y-47254761D01*
X167118095Y-47207142D01*
X167070476Y-47111904D01*
X167022857Y-46921428D01*
X167022857Y-46683333D01*
X167070476Y-46492857D01*
X167118095Y-46397619D01*
X167165714Y-46350000D01*
X167260952Y-46302380D01*
X168022857Y-47302380D02*
X168022857Y-46635714D01*
X168022857Y-46730952D02*
X168070476Y-46683333D01*
X168165714Y-46635714D01*
X168308571Y-46635714D01*
X168403809Y-46683333D01*
X168451428Y-46778571D01*
X168451428Y-47302380D01*
X168451428Y-46778571D02*
X168499047Y-46683333D01*
X168594285Y-46635714D01*
X168737142Y-46635714D01*
X168832380Y-46683333D01*
X168880000Y-46778571D01*
X168880000Y-47302380D01*
X127201428Y-45078571D02*
X126868095Y-45078571D01*
X126868095Y-45602380D02*
X126868095Y-44602380D01*
X127344285Y-44602380D01*
X127725238Y-45602380D02*
X127725238Y-44935714D01*
X127725238Y-44602380D02*
X127677619Y-44650000D01*
X127725238Y-44697619D01*
X127772857Y-44650000D01*
X127725238Y-44602380D01*
X127725238Y-44697619D01*
X128344285Y-45602380D02*
X128249047Y-45554761D01*
X128201428Y-45459523D01*
X128201428Y-44602380D01*
X128582380Y-44935714D02*
X128963333Y-44935714D01*
X128725238Y-44602380D02*
X128725238Y-45459523D01*
X128772857Y-45554761D01*
X128868095Y-45602380D01*
X128963333Y-45602380D01*
X129677619Y-45554761D02*
X129582380Y-45602380D01*
X129391904Y-45602380D01*
X129296666Y-45554761D01*
X129249047Y-45459523D01*
X129249047Y-45078571D01*
X129296666Y-44983333D01*
X129391904Y-44935714D01*
X129582380Y-44935714D01*
X129677619Y-44983333D01*
X129725238Y-45078571D01*
X129725238Y-45173809D01*
X129249047Y-45269047D01*
X130153809Y-45602380D02*
X130153809Y-44935714D01*
X130153809Y-45126190D02*
X130201428Y-45030952D01*
X130249047Y-44983333D01*
X130344285Y-44935714D01*
X130439523Y-44935714D01*
X130677619Y-44602380D02*
X131296666Y-44602380D01*
X130963333Y-44983333D01*
X131106190Y-44983333D01*
X131201428Y-45030952D01*
X131249047Y-45078571D01*
X131296666Y-45173809D01*
X131296666Y-45411904D01*
X131249047Y-45507142D01*
X131201428Y-45554761D01*
X131106190Y-45602380D01*
X130820476Y-45602380D01*
X130725238Y-45554761D01*
X130677619Y-45507142D01*
X127296666Y-46635714D02*
X127296666Y-47302380D01*
X127058571Y-46254761D02*
X126820476Y-46969047D01*
X127439523Y-46969047D01*
X128010952Y-46302380D02*
X128106190Y-46302380D01*
X128201428Y-46350000D01*
X128249047Y-46397619D01*
X128296666Y-46492857D01*
X128344285Y-46683333D01*
X128344285Y-46921428D01*
X128296666Y-47111904D01*
X128249047Y-47207142D01*
X128201428Y-47254761D01*
X128106190Y-47302380D01*
X128010952Y-47302380D01*
X127915714Y-47254761D01*
X127868095Y-47207142D01*
X127820476Y-47111904D01*
X127772857Y-46921428D01*
X127772857Y-46683333D01*
X127820476Y-46492857D01*
X127868095Y-46397619D01*
X127915714Y-46350000D01*
X128010952Y-46302380D01*
X128772857Y-46921428D02*
X129534761Y-46921428D01*
X129915714Y-46302380D02*
X130534761Y-46302380D01*
X130201428Y-46683333D01*
X130344285Y-46683333D01*
X130439523Y-46730952D01*
X130487142Y-46778571D01*
X130534761Y-46873809D01*
X130534761Y-47111904D01*
X130487142Y-47207142D01*
X130439523Y-47254761D01*
X130344285Y-47302380D01*
X130058571Y-47302380D01*
X129963333Y-47254761D01*
X129915714Y-47207142D01*
X131153809Y-46302380D02*
X131249047Y-46302380D01*
X131344285Y-46350000D01*
X131391904Y-46397619D01*
X131439523Y-46492857D01*
X131487142Y-46683333D01*
X131487142Y-46921428D01*
X131439523Y-47111904D01*
X131391904Y-47207142D01*
X131344285Y-47254761D01*
X131249047Y-47302380D01*
X131153809Y-47302380D01*
X131058571Y-47254761D01*
X131010952Y-47207142D01*
X130963333Y-47111904D01*
X130915714Y-46921428D01*
X130915714Y-46683333D01*
X130963333Y-46492857D01*
X131010952Y-46397619D01*
X131058571Y-46350000D01*
X131153809Y-46302380D01*
X131915714Y-47302380D02*
X131915714Y-46635714D01*
X131915714Y-46730952D02*
X131963333Y-46683333D01*
X132058571Y-46635714D01*
X132201428Y-46635714D01*
X132296666Y-46683333D01*
X132344285Y-46778571D01*
X132344285Y-47302380D01*
X132344285Y-46778571D02*
X132391904Y-46683333D01*
X132487142Y-46635714D01*
X132630000Y-46635714D01*
X132725238Y-46683333D01*
X132772857Y-46778571D01*
X132772857Y-47302380D01*
X88701428Y-45078571D02*
X88368095Y-45078571D01*
X88368095Y-45602380D02*
X88368095Y-44602380D01*
X88844285Y-44602380D01*
X89225238Y-45602380D02*
X89225238Y-44935714D01*
X89225238Y-44602380D02*
X89177619Y-44650000D01*
X89225238Y-44697619D01*
X89272857Y-44650000D01*
X89225238Y-44602380D01*
X89225238Y-44697619D01*
X89844285Y-45602380D02*
X89749047Y-45554761D01*
X89701428Y-45459523D01*
X89701428Y-44602380D01*
X90082380Y-44935714D02*
X90463333Y-44935714D01*
X90225238Y-44602380D02*
X90225238Y-45459523D01*
X90272857Y-45554761D01*
X90368095Y-45602380D01*
X90463333Y-45602380D01*
X91177619Y-45554761D02*
X91082380Y-45602380D01*
X90891904Y-45602380D01*
X90796666Y-45554761D01*
X90749047Y-45459523D01*
X90749047Y-45078571D01*
X90796666Y-44983333D01*
X90891904Y-44935714D01*
X91082380Y-44935714D01*
X91177619Y-44983333D01*
X91225238Y-45078571D01*
X91225238Y-45173809D01*
X90749047Y-45269047D01*
X91653809Y-45602380D02*
X91653809Y-44935714D01*
X91653809Y-45126190D02*
X91701428Y-45030952D01*
X91749047Y-44983333D01*
X91844285Y-44935714D01*
X91939523Y-44935714D01*
X92225238Y-44697619D02*
X92272857Y-44650000D01*
X92368095Y-44602380D01*
X92606190Y-44602380D01*
X92701428Y-44650000D01*
X92749047Y-44697619D01*
X92796666Y-44792857D01*
X92796666Y-44888095D01*
X92749047Y-45030952D01*
X92177619Y-45602380D01*
X92796666Y-45602380D01*
X88320476Y-46397619D02*
X88368095Y-46350000D01*
X88463333Y-46302380D01*
X88701428Y-46302380D01*
X88796666Y-46350000D01*
X88844285Y-46397619D01*
X88891904Y-46492857D01*
X88891904Y-46588095D01*
X88844285Y-46730952D01*
X88272857Y-47302380D01*
X88891904Y-47302380D01*
X89510952Y-46302380D02*
X89606190Y-46302380D01*
X89701428Y-46350000D01*
X89749047Y-46397619D01*
X89796666Y-46492857D01*
X89844285Y-46683333D01*
X89844285Y-46921428D01*
X89796666Y-47111904D01*
X89749047Y-47207142D01*
X89701428Y-47254761D01*
X89606190Y-47302380D01*
X89510952Y-47302380D01*
X89415714Y-47254761D01*
X89368095Y-47207142D01*
X89320476Y-47111904D01*
X89272857Y-46921428D01*
X89272857Y-46683333D01*
X89320476Y-46492857D01*
X89368095Y-46397619D01*
X89415714Y-46350000D01*
X89510952Y-46302380D01*
X90272857Y-46921428D02*
X91034761Y-46921428D01*
X92034761Y-47302380D02*
X91463333Y-47302380D01*
X91749047Y-47302380D02*
X91749047Y-46302380D01*
X91653809Y-46445238D01*
X91558571Y-46540476D01*
X91463333Y-46588095D01*
X92368095Y-46302380D02*
X93034761Y-46302380D01*
X92606190Y-47302380D01*
X93415714Y-47302380D02*
X93415714Y-46635714D01*
X93415714Y-46730952D02*
X93463333Y-46683333D01*
X93558571Y-46635714D01*
X93701428Y-46635714D01*
X93796666Y-46683333D01*
X93844285Y-46778571D01*
X93844285Y-47302380D01*
X93844285Y-46778571D02*
X93891904Y-46683333D01*
X93987142Y-46635714D01*
X94130000Y-46635714D01*
X94225238Y-46683333D01*
X94272857Y-46778571D01*
X94272857Y-47302380D01*
X49951428Y-44828571D02*
X49618095Y-44828571D01*
X49618095Y-45352380D02*
X49618095Y-44352380D01*
X50094285Y-44352380D01*
X50475238Y-45352380D02*
X50475238Y-44685714D01*
X50475238Y-44352380D02*
X50427619Y-44400000D01*
X50475238Y-44447619D01*
X50522857Y-44400000D01*
X50475238Y-44352380D01*
X50475238Y-44447619D01*
X51094285Y-45352380D02*
X50999047Y-45304761D01*
X50951428Y-45209523D01*
X50951428Y-44352380D01*
X51332380Y-44685714D02*
X51713333Y-44685714D01*
X51475238Y-44352380D02*
X51475238Y-45209523D01*
X51522857Y-45304761D01*
X51618095Y-45352380D01*
X51713333Y-45352380D01*
X52427619Y-45304761D02*
X52332380Y-45352380D01*
X52141904Y-45352380D01*
X52046666Y-45304761D01*
X51999047Y-45209523D01*
X51999047Y-44828571D01*
X52046666Y-44733333D01*
X52141904Y-44685714D01*
X52332380Y-44685714D01*
X52427619Y-44733333D01*
X52475238Y-44828571D01*
X52475238Y-44923809D01*
X51999047Y-45019047D01*
X52903809Y-45352380D02*
X52903809Y-44685714D01*
X52903809Y-44876190D02*
X52951428Y-44780952D01*
X52999047Y-44733333D01*
X53094285Y-44685714D01*
X53189523Y-44685714D01*
X54046666Y-45352380D02*
X53475238Y-45352380D01*
X53760952Y-45352380D02*
X53760952Y-44352380D01*
X53665714Y-44495238D01*
X53570476Y-44590476D01*
X53475238Y-44638095D01*
X50141904Y-47052380D02*
X49570476Y-47052380D01*
X49856190Y-47052380D02*
X49856190Y-46052380D01*
X49760952Y-46195238D01*
X49665714Y-46290476D01*
X49570476Y-46338095D01*
X51046666Y-46052380D02*
X50570476Y-46052380D01*
X50522857Y-46528571D01*
X50570476Y-46480952D01*
X50665714Y-46433333D01*
X50903809Y-46433333D01*
X50999047Y-46480952D01*
X51046666Y-46528571D01*
X51094285Y-46623809D01*
X51094285Y-46861904D01*
X51046666Y-46957142D01*
X50999047Y-47004761D01*
X50903809Y-47052380D01*
X50665714Y-47052380D01*
X50570476Y-47004761D01*
X50522857Y-46957142D01*
X51522857Y-46671428D02*
X52284761Y-46671428D01*
X53284761Y-47052380D02*
X52713333Y-47052380D01*
X52999047Y-47052380D02*
X52999047Y-46052380D01*
X52903809Y-46195238D01*
X52808571Y-46290476D01*
X52713333Y-46338095D01*
X53903809Y-46052380D02*
X53999047Y-46052380D01*
X54094285Y-46100000D01*
X54141904Y-46147619D01*
X54189523Y-46242857D01*
X54237142Y-46433333D01*
X54237142Y-46671428D01*
X54189523Y-46861904D01*
X54141904Y-46957142D01*
X54094285Y-47004761D01*
X53999047Y-47052380D01*
X53903809Y-47052380D01*
X53808571Y-47004761D01*
X53760952Y-46957142D01*
X53713333Y-46861904D01*
X53665714Y-46671428D01*
X53665714Y-46433333D01*
X53713333Y-46242857D01*
X53760952Y-46147619D01*
X53808571Y-46100000D01*
X53903809Y-46052380D01*
X54665714Y-47052380D02*
X54665714Y-46385714D01*
X54665714Y-46480952D02*
X54713333Y-46433333D01*
X54808571Y-46385714D01*
X54951428Y-46385714D01*
X55046666Y-46433333D01*
X55094285Y-46528571D01*
X55094285Y-47052380D01*
X55094285Y-46528571D02*
X55141904Y-46433333D01*
X55237142Y-46385714D01*
X55380000Y-46385714D01*
X55475238Y-46433333D01*
X55522857Y-46528571D01*
X55522857Y-47052380D01*
X24309523Y-140452380D02*
X23976190Y-139976190D01*
X23738095Y-140452380D02*
X23738095Y-139452380D01*
X24119047Y-139452380D01*
X24214285Y-139500000D01*
X24261904Y-139547619D01*
X24309523Y-139642857D01*
X24309523Y-139785714D01*
X24261904Y-139880952D01*
X24214285Y-139928571D01*
X24119047Y-139976190D01*
X23738095Y-139976190D01*
X25071428Y-139928571D02*
X24738095Y-139928571D01*
X24738095Y-140452380D02*
X24738095Y-139452380D01*
X25214285Y-139452380D01*
X26500000Y-140452380D02*
X26404761Y-140404761D01*
X26357142Y-140357142D01*
X26309523Y-140261904D01*
X26309523Y-139976190D01*
X26357142Y-139880952D01*
X26404761Y-139833333D01*
X26500000Y-139785714D01*
X26642857Y-139785714D01*
X26738095Y-139833333D01*
X26785714Y-139880952D01*
X26833333Y-139976190D01*
X26833333Y-140261904D01*
X26785714Y-140357142D01*
X26738095Y-140404761D01*
X26642857Y-140452380D01*
X26500000Y-140452380D01*
X27690476Y-139785714D02*
X27690476Y-140452380D01*
X27261904Y-139785714D02*
X27261904Y-140309523D01*
X27309523Y-140404761D01*
X27404761Y-140452380D01*
X27547619Y-140452380D01*
X27642857Y-140404761D01*
X27690476Y-140357142D01*
X28023809Y-139785714D02*
X28404761Y-139785714D01*
X28166666Y-139452380D02*
X28166666Y-140309523D01*
X28214285Y-140404761D01*
X28309523Y-140452380D01*
X28404761Y-140452380D01*
X25059523Y-34702380D02*
X24726190Y-34226190D01*
X24488095Y-34702380D02*
X24488095Y-33702380D01*
X24869047Y-33702380D01*
X24964285Y-33750000D01*
X25011904Y-33797619D01*
X25059523Y-33892857D01*
X25059523Y-34035714D01*
X25011904Y-34130952D01*
X24964285Y-34178571D01*
X24869047Y-34226190D01*
X24488095Y-34226190D01*
X25821428Y-34178571D02*
X25488095Y-34178571D01*
X25488095Y-34702380D02*
X25488095Y-33702380D01*
X25964285Y-33702380D01*
X27107142Y-34702380D02*
X27107142Y-34035714D01*
X27107142Y-33702380D02*
X27059523Y-33750000D01*
X27107142Y-33797619D01*
X27154761Y-33750000D01*
X27107142Y-33702380D01*
X27107142Y-33797619D01*
X27583333Y-34035714D02*
X27583333Y-34702380D01*
X27583333Y-34130952D02*
X27630952Y-34083333D01*
X27726190Y-34035714D01*
X27869047Y-34035714D01*
X27964285Y-34083333D01*
X28011904Y-34178571D01*
X28011904Y-34702380D01*
D12*
X175900000Y-32475000D02*
X175900000Y-22525000D01*
X173100000Y-32475000D02*
X173100000Y-22525000D01*
X175900000Y-32475000D02*
X173100000Y-32475000D01*
X175900000Y-22525000D02*
X173100000Y-22525000D01*
D13*
X177550000Y-32750000D02*
G75*
G03X177550000Y-32750000I-150000J0D01*
G01*
D14*
X175400000Y-31800000D02*
G75*
G03X175400000Y-31800000I-200000J0D01*
G01*
D15*
G36*
X184486860Y-157039419D02*
G01*
X187736860Y-151410254D01*
X197263140Y-156910254D01*
X194013140Y-162539419D01*
X184486860Y-157039419D01*
G37*
X184486860Y-157039419D02*
X187736860Y-151410254D01*
X197263140Y-156910254D01*
X194013140Y-162539419D01*
X184486860Y-157039419D01*
G36*
X200986860Y-128460581D02*
G01*
X197736860Y-134089746D01*
X207263140Y-139589746D01*
X210513140Y-133960581D01*
X200986860Y-128460581D01*
G37*
X200986860Y-128460581D02*
X197736860Y-134089746D01*
X207263140Y-139589746D01*
X210513140Y-133960581D01*
X200986860Y-128460581D01*
D16*
X184486860Y-157039419D02*
X200986860Y-128460581D01*
X194013140Y-162539419D02*
X184486860Y-157039419D01*
X210513140Y-133960581D02*
X194013140Y-162539419D01*
X200986860Y-128460581D02*
X210513140Y-133960581D01*
D15*
G36*
X212556349Y-105221825D02*
G01*
X207960155Y-109818019D01*
X200181981Y-102039845D01*
X204778175Y-97443651D01*
X212556349Y-105221825D01*
G37*
X212556349Y-105221825D02*
X207960155Y-109818019D01*
X200181981Y-102039845D01*
X204778175Y-97443651D01*
X212556349Y-105221825D01*
G36*
X189221825Y-128556349D02*
G01*
X193818019Y-123960155D01*
X186039845Y-116181981D01*
X181443651Y-120778175D01*
X189221825Y-128556349D01*
G37*
X189221825Y-128556349D02*
X193818019Y-123960155D01*
X186039845Y-116181981D01*
X181443651Y-120778175D01*
X189221825Y-128556349D01*
D16*
X212556349Y-105221825D02*
X189221825Y-128556349D01*
X204778175Y-97443651D02*
X212556349Y-105221825D01*
X181443651Y-120778175D02*
X204778175Y-97443651D01*
X189221825Y-128556349D02*
X181443651Y-120778175D01*
D15*
G36*
X212556349Y-72221825D02*
G01*
X207960155Y-76818019D01*
X200181981Y-69039845D01*
X204778175Y-64443651D01*
X212556349Y-72221825D01*
G37*
X212556349Y-72221825D02*
X207960155Y-76818019D01*
X200181981Y-69039845D01*
X204778175Y-64443651D01*
X212556349Y-72221825D01*
G36*
X189221825Y-95556349D02*
G01*
X193818019Y-90960155D01*
X186039845Y-83181981D01*
X181443651Y-87778175D01*
X189221825Y-95556349D01*
G37*
X189221825Y-95556349D02*
X193818019Y-90960155D01*
X186039845Y-83181981D01*
X181443651Y-87778175D01*
X189221825Y-95556349D01*
D16*
X212556349Y-72221825D02*
X189221825Y-95556349D01*
X204778175Y-64443651D02*
X212556349Y-72221825D01*
X181443651Y-87778175D02*
X204778175Y-64443651D01*
X189221825Y-95556349D02*
X181443651Y-87778175D01*
D15*
G36*
X175441343Y-128013140D02*
G01*
X170245191Y-131013140D01*
X164745191Y-121486860D01*
X169941343Y-118486860D01*
X175441343Y-128013140D01*
G37*
X175441343Y-128013140D02*
X170245191Y-131013140D01*
X164745191Y-121486860D01*
X169941343Y-118486860D01*
X175441343Y-128013140D01*
G36*
X152058657Y-141513140D02*
G01*
X146558657Y-131986860D01*
X151754809Y-128986860D01*
X157254809Y-138513140D01*
X152058657Y-141513140D01*
G37*
X152058657Y-141513140D02*
X146558657Y-131986860D01*
X151754809Y-128986860D01*
X157254809Y-138513140D01*
X152058657Y-141513140D01*
D16*
X152058657Y-141513140D02*
X175441343Y-128013140D01*
X146558657Y-131986860D02*
X152058657Y-141513140D01*
X169941343Y-118486860D02*
X146558657Y-131986860D01*
X175441343Y-128013140D02*
X169941343Y-118486860D01*
D15*
G36*
X174941343Y-106013140D02*
G01*
X169745191Y-109013140D01*
X164245191Y-99486860D01*
X169441343Y-96486860D01*
X174941343Y-106013140D01*
G37*
X174941343Y-106013140D02*
X169745191Y-109013140D01*
X164245191Y-99486860D01*
X169441343Y-96486860D01*
X174941343Y-106013140D01*
G36*
X151558657Y-119513140D02*
G01*
X146058657Y-109986860D01*
X151254809Y-106986860D01*
X156754809Y-116513140D01*
X151558657Y-119513140D01*
G37*
X151558657Y-119513140D02*
X146058657Y-109986860D01*
X151254809Y-106986860D01*
X156754809Y-116513140D01*
X151558657Y-119513140D01*
D16*
X151558657Y-119513140D02*
X174941343Y-106013140D01*
X146058657Y-109986860D02*
X151558657Y-119513140D01*
X169441343Y-96486860D02*
X146058657Y-109986860D01*
X174941343Y-106013140D02*
X169441343Y-96486860D01*
D15*
G36*
X175941343Y-84013140D02*
G01*
X170745191Y-87013140D01*
X165245191Y-77486860D01*
X170441343Y-74486860D01*
X175941343Y-84013140D01*
G37*
X175941343Y-84013140D02*
X170745191Y-87013140D01*
X165245191Y-77486860D01*
X170441343Y-74486860D01*
X175941343Y-84013140D01*
G36*
X152558657Y-97513140D02*
G01*
X147058657Y-87986860D01*
X152254809Y-84986860D01*
X157754809Y-94513140D01*
X152558657Y-97513140D01*
G37*
X152558657Y-97513140D02*
X147058657Y-87986860D01*
X152254809Y-84986860D01*
X157754809Y-94513140D01*
X152558657Y-97513140D01*
D16*
X152558657Y-97513140D02*
X175941343Y-84013140D01*
X147058657Y-87986860D02*
X152558657Y-97513140D01*
X170441343Y-74486860D02*
X147058657Y-87986860D01*
X175941343Y-84013140D02*
X170441343Y-74486860D01*
D15*
G36*
X136441343Y-128013140D02*
G01*
X131245191Y-131013140D01*
X125745191Y-121486860D01*
X130941343Y-118486860D01*
X136441343Y-128013140D01*
G37*
X136441343Y-128013140D02*
X131245191Y-131013140D01*
X125745191Y-121486860D01*
X130941343Y-118486860D01*
X136441343Y-128013140D01*
G36*
X113058657Y-141513140D02*
G01*
X107558657Y-131986860D01*
X112754809Y-128986860D01*
X118254809Y-138513140D01*
X113058657Y-141513140D01*
G37*
X113058657Y-141513140D02*
X107558657Y-131986860D01*
X112754809Y-128986860D01*
X118254809Y-138513140D01*
X113058657Y-141513140D01*
D16*
X113058657Y-141513140D02*
X136441343Y-128013140D01*
X107558657Y-131986860D02*
X113058657Y-141513140D01*
X130941343Y-118486860D02*
X107558657Y-131986860D01*
X136441343Y-128013140D02*
X130941343Y-118486860D01*
D15*
G36*
X136441343Y-106013140D02*
G01*
X131245191Y-109013140D01*
X125745191Y-99486860D01*
X130941343Y-96486860D01*
X136441343Y-106013140D01*
G37*
X136441343Y-106013140D02*
X131245191Y-109013140D01*
X125745191Y-99486860D01*
X130941343Y-96486860D01*
X136441343Y-106013140D01*
G36*
X113058657Y-119513140D02*
G01*
X107558657Y-109986860D01*
X112754809Y-106986860D01*
X118254809Y-116513140D01*
X113058657Y-119513140D01*
G37*
X113058657Y-119513140D02*
X107558657Y-109986860D01*
X112754809Y-106986860D01*
X118254809Y-116513140D01*
X113058657Y-119513140D01*
D16*
X113058657Y-119513140D02*
X136441343Y-106013140D01*
X107558657Y-109986860D02*
X113058657Y-119513140D01*
X130941343Y-96486860D02*
X107558657Y-109986860D01*
X136441343Y-106013140D02*
X130941343Y-96486860D01*
D15*
G36*
X136441343Y-84013140D02*
G01*
X131245191Y-87013140D01*
X125745191Y-77486860D01*
X130941343Y-74486860D01*
X136441343Y-84013140D01*
G37*
X136441343Y-84013140D02*
X131245191Y-87013140D01*
X125745191Y-77486860D01*
X130941343Y-74486860D01*
X136441343Y-84013140D01*
G36*
X113058657Y-97513140D02*
G01*
X107558657Y-87986860D01*
X112754809Y-84986860D01*
X118254809Y-94513140D01*
X113058657Y-97513140D01*
G37*
X113058657Y-97513140D02*
X107558657Y-87986860D01*
X112754809Y-84986860D01*
X118254809Y-94513140D01*
X113058657Y-97513140D01*
D16*
X113058657Y-97513140D02*
X136441343Y-84013140D01*
X107558657Y-87986860D02*
X113058657Y-97513140D01*
X130941343Y-74486860D02*
X107558657Y-87986860D01*
X136441343Y-84013140D02*
X130941343Y-74486860D01*
D15*
G36*
X97441343Y-128013140D02*
G01*
X92245191Y-131013140D01*
X86745191Y-121486860D01*
X91941343Y-118486860D01*
X97441343Y-128013140D01*
G37*
X97441343Y-128013140D02*
X92245191Y-131013140D01*
X86745191Y-121486860D01*
X91941343Y-118486860D01*
X97441343Y-128013140D01*
G36*
X74058657Y-141513140D02*
G01*
X68558657Y-131986860D01*
X73754809Y-128986860D01*
X79254809Y-138513140D01*
X74058657Y-141513140D01*
G37*
X74058657Y-141513140D02*
X68558657Y-131986860D01*
X73754809Y-128986860D01*
X79254809Y-138513140D01*
X74058657Y-141513140D01*
D16*
X74058657Y-141513140D02*
X97441343Y-128013140D01*
X68558657Y-131986860D02*
X74058657Y-141513140D01*
X91941343Y-118486860D02*
X68558657Y-131986860D01*
X97441343Y-128013140D02*
X91941343Y-118486860D01*
D15*
G36*
X97441343Y-106013140D02*
G01*
X92245191Y-109013140D01*
X86745191Y-99486860D01*
X91941343Y-96486860D01*
X97441343Y-106013140D01*
G37*
X97441343Y-106013140D02*
X92245191Y-109013140D01*
X86745191Y-99486860D01*
X91941343Y-96486860D01*
X97441343Y-106013140D01*
G36*
X74058657Y-119513140D02*
G01*
X68558657Y-109986860D01*
X73754809Y-106986860D01*
X79254809Y-116513140D01*
X74058657Y-119513140D01*
G37*
X74058657Y-119513140D02*
X68558657Y-109986860D01*
X73754809Y-106986860D01*
X79254809Y-116513140D01*
X74058657Y-119513140D01*
D16*
X74058657Y-119513140D02*
X97441343Y-106013140D01*
X68558657Y-109986860D02*
X74058657Y-119513140D01*
X91941343Y-96486860D02*
X68558657Y-109986860D01*
X97441343Y-106013140D02*
X91941343Y-96486860D01*
D15*
G36*
X97441343Y-84013140D02*
G01*
X92245191Y-87013140D01*
X86745191Y-77486860D01*
X91941343Y-74486860D01*
X97441343Y-84013140D01*
G37*
X97441343Y-84013140D02*
X92245191Y-87013140D01*
X86745191Y-77486860D01*
X91941343Y-74486860D01*
X97441343Y-84013140D01*
G36*
X74058657Y-97513140D02*
G01*
X68558657Y-87986860D01*
X73754809Y-84986860D01*
X79254809Y-94513140D01*
X74058657Y-97513140D01*
G37*
X74058657Y-97513140D02*
X68558657Y-87986860D01*
X73754809Y-84986860D01*
X79254809Y-94513140D01*
X74058657Y-97513140D01*
D16*
X74058657Y-97513140D02*
X97441343Y-84013140D01*
X68558657Y-87986860D02*
X74058657Y-97513140D01*
X91941343Y-74486860D02*
X68558657Y-87986860D01*
X97441343Y-84013140D02*
X91941343Y-74486860D01*
D15*
G36*
X58441343Y-128013140D02*
G01*
X53245191Y-131013140D01*
X47745191Y-121486860D01*
X52941343Y-118486860D01*
X58441343Y-128013140D01*
G37*
X58441343Y-128013140D02*
X53245191Y-131013140D01*
X47745191Y-121486860D01*
X52941343Y-118486860D01*
X58441343Y-128013140D01*
G36*
X35058657Y-141513140D02*
G01*
X29558657Y-131986860D01*
X34754809Y-128986860D01*
X40254809Y-138513140D01*
X35058657Y-141513140D01*
G37*
X35058657Y-141513140D02*
X29558657Y-131986860D01*
X34754809Y-128986860D01*
X40254809Y-138513140D01*
X35058657Y-141513140D01*
D16*
X35058657Y-141513140D02*
X58441343Y-128013140D01*
X29558657Y-131986860D02*
X35058657Y-141513140D01*
X52941343Y-118486860D02*
X29558657Y-131986860D01*
X58441343Y-128013140D02*
X52941343Y-118486860D01*
D15*
G36*
X58441343Y-106013140D02*
G01*
X53245191Y-109013140D01*
X47745191Y-99486860D01*
X52941343Y-96486860D01*
X58441343Y-106013140D01*
G37*
X58441343Y-106013140D02*
X53245191Y-109013140D01*
X47745191Y-99486860D01*
X52941343Y-96486860D01*
X58441343Y-106013140D01*
G36*
X35058657Y-119513140D02*
G01*
X29558657Y-109986860D01*
X34754809Y-106986860D01*
X40254809Y-116513140D01*
X35058657Y-119513140D01*
G37*
X35058657Y-119513140D02*
X29558657Y-109986860D01*
X34754809Y-106986860D01*
X40254809Y-116513140D01*
X35058657Y-119513140D01*
D16*
X35058657Y-119513140D02*
X58441343Y-106013140D01*
X29558657Y-109986860D02*
X35058657Y-119513140D01*
X52941343Y-96486860D02*
X29558657Y-109986860D01*
X58441343Y-106013140D02*
X52941343Y-96486860D01*
D15*
G36*
X58441343Y-84013140D02*
G01*
X53245191Y-87013140D01*
X47745191Y-77486860D01*
X52941343Y-74486860D01*
X58441343Y-84013140D01*
G37*
X58441343Y-84013140D02*
X53245191Y-87013140D01*
X47745191Y-77486860D01*
X52941343Y-74486860D01*
X58441343Y-84013140D01*
G36*
X35058657Y-97513140D02*
G01*
X29558657Y-87986860D01*
X34754809Y-84986860D01*
X40254809Y-94513140D01*
X35058657Y-97513140D01*
G37*
X35058657Y-97513140D02*
X29558657Y-87986860D01*
X34754809Y-84986860D01*
X40254809Y-94513140D01*
X35058657Y-97513140D01*
D16*
X35058657Y-97513140D02*
X58441343Y-84013140D01*
X29558657Y-87986860D02*
X35058657Y-97513140D01*
X52941343Y-74486860D02*
X29558657Y-87986860D01*
X58441343Y-84013140D02*
X52941343Y-74486860D01*
D17*
X163200000Y-51110000D02*
X150300000Y-51110000D01*
X150246000Y-21900000D02*
X150246000Y-51100000D01*
X163200000Y-21900000D02*
X163200000Y-51100000D01*
X163200000Y-21900000D02*
X150300000Y-21900000D01*
X124200000Y-51110000D02*
X111300000Y-51110000D01*
X111246000Y-21900000D02*
X111246000Y-51100000D01*
X124200000Y-21900000D02*
X124200000Y-51100000D01*
X124200000Y-21900000D02*
X111300000Y-21900000D01*
X164800000Y-139890000D02*
X177700000Y-139890000D01*
X177754000Y-169100000D02*
X177754000Y-139900000D01*
X164800000Y-169100000D02*
X164800000Y-139900000D01*
X164800000Y-169100000D02*
X177700000Y-169100000D01*
X125800000Y-139890000D02*
X138700000Y-139890000D01*
X138754000Y-169100000D02*
X138754000Y-139900000D01*
X125800000Y-169100000D02*
X125800000Y-139900000D01*
X125800000Y-169100000D02*
X138700000Y-169100000D01*
X85200000Y-51110000D02*
X72300000Y-51110000D01*
X72246000Y-21900000D02*
X72246000Y-51100000D01*
X85200000Y-21900000D02*
X85200000Y-51100000D01*
X85200000Y-21900000D02*
X72300000Y-21900000D01*
X86800000Y-139890000D02*
X99700000Y-139890000D01*
X99754000Y-169100000D02*
X99754000Y-139900000D01*
X86800000Y-169100000D02*
X86800000Y-139900000D01*
X86800000Y-169100000D02*
X99700000Y-169100000D01*
X46200000Y-51110000D02*
X33300000Y-51110000D01*
X33246000Y-21900000D02*
X33246000Y-51100000D01*
X46200000Y-21900000D02*
X46200000Y-51100000D01*
X46200000Y-21900000D02*
X33300000Y-21900000D01*
X47800000Y-139890000D02*
X60700000Y-139890000D01*
X60754000Y-169100000D02*
X60754000Y-139900000D01*
X47800000Y-169100000D02*
X47800000Y-139900000D01*
X47800000Y-169100000D02*
X60700000Y-169100000D01*
D15*
G36*
X210556349Y-42221825D02*
G01*
X205960155Y-46818019D01*
X198181981Y-39039845D01*
X202778175Y-34443651D01*
X210556349Y-42221825D01*
G37*
X210556349Y-42221825D02*
X205960155Y-46818019D01*
X198181981Y-39039845D01*
X202778175Y-34443651D01*
X210556349Y-42221825D01*
G36*
X187221825Y-65556349D02*
G01*
X191818019Y-60960155D01*
X184039845Y-53181981D01*
X179443651Y-57778175D01*
X187221825Y-65556349D01*
G37*
X187221825Y-65556349D02*
X191818019Y-60960155D01*
X184039845Y-53181981D01*
X179443651Y-57778175D01*
X187221825Y-65556349D01*
D16*
X210556349Y-42221825D02*
X187221825Y-65556349D01*
X202778175Y-34443651D02*
X210556349Y-42221825D01*
X179443651Y-57778175D02*
X202778175Y-34443651D01*
X187221825Y-65556349D02*
X179443651Y-57778175D01*
D15*
G36*
X175441343Y-62013140D02*
G01*
X170245191Y-65013140D01*
X164745191Y-55486860D01*
X169941343Y-52486860D01*
X175441343Y-62013140D01*
G37*
X175441343Y-62013140D02*
X170245191Y-65013140D01*
X164745191Y-55486860D01*
X169941343Y-52486860D01*
X175441343Y-62013140D01*
G36*
X152058657Y-75513140D02*
G01*
X146558657Y-65986860D01*
X151754809Y-62986860D01*
X157254809Y-72513140D01*
X152058657Y-75513140D01*
G37*
X152058657Y-75513140D02*
X146558657Y-65986860D01*
X151754809Y-62986860D01*
X157254809Y-72513140D01*
X152058657Y-75513140D01*
D16*
X152058657Y-75513140D02*
X175441343Y-62013140D01*
X146558657Y-65986860D02*
X152058657Y-75513140D01*
X169941343Y-52486860D02*
X146558657Y-65986860D01*
X175441343Y-62013140D02*
X169941343Y-52486860D01*
D15*
G36*
X136441343Y-62013140D02*
G01*
X131245191Y-65013140D01*
X125745191Y-55486860D01*
X130941343Y-52486860D01*
X136441343Y-62013140D01*
G37*
X136441343Y-62013140D02*
X131245191Y-65013140D01*
X125745191Y-55486860D01*
X130941343Y-52486860D01*
X136441343Y-62013140D01*
G36*
X113058657Y-75513140D02*
G01*
X107558657Y-65986860D01*
X112754809Y-62986860D01*
X118254809Y-72513140D01*
X113058657Y-75513140D01*
G37*
X113058657Y-75513140D02*
X107558657Y-65986860D01*
X112754809Y-62986860D01*
X118254809Y-72513140D01*
X113058657Y-75513140D01*
D16*
X113058657Y-75513140D02*
X136441343Y-62013140D01*
X107558657Y-65986860D02*
X113058657Y-75513140D01*
X130941343Y-52486860D02*
X107558657Y-65986860D01*
X136441343Y-62013140D02*
X130941343Y-52486860D01*
D15*
G36*
X97441343Y-62013140D02*
G01*
X92245191Y-65013140D01*
X86745191Y-55486860D01*
X91941343Y-52486860D01*
X97441343Y-62013140D01*
G37*
X97441343Y-62013140D02*
X92245191Y-65013140D01*
X86745191Y-55486860D01*
X91941343Y-52486860D01*
X97441343Y-62013140D01*
G36*
X74058657Y-75513140D02*
G01*
X68558657Y-65986860D01*
X73754809Y-62986860D01*
X79254809Y-72513140D01*
X74058657Y-75513140D01*
G37*
X74058657Y-75513140D02*
X68558657Y-65986860D01*
X73754809Y-62986860D01*
X79254809Y-72513140D01*
X74058657Y-75513140D01*
D16*
X74058657Y-75513140D02*
X97441343Y-62013140D01*
X68558657Y-65986860D02*
X74058657Y-75513140D01*
X91941343Y-52486860D02*
X68558657Y-65986860D01*
X97441343Y-62013140D02*
X91941343Y-52486860D01*
D15*
G36*
X29558657Y-65986860D02*
G01*
X34754809Y-62986860D01*
X40254809Y-72513140D01*
X35058657Y-75513140D01*
X29558657Y-65986860D01*
G37*
X29558657Y-65986860D02*
X34754809Y-62986860D01*
X40254809Y-72513140D01*
X35058657Y-75513140D01*
X29558657Y-65986860D01*
G36*
X52941343Y-52486860D02*
G01*
X58441343Y-62013140D01*
X53245191Y-65013140D01*
X47745191Y-55486860D01*
X52941343Y-52486860D01*
G37*
X52941343Y-52486860D02*
X58441343Y-62013140D01*
X53245191Y-65013140D01*
X47745191Y-55486860D01*
X52941343Y-52486860D01*
D16*
X52941343Y-52486860D02*
X29558657Y-65986860D01*
X58441343Y-62013140D02*
X52941343Y-52486860D01*
X35058657Y-75513140D02*
X58441343Y-62013140D01*
X29558657Y-65986860D02*
X35058657Y-75513140D01*
X180650000Y-22750000D02*
X180650000Y-25250000D01*
X183150000Y-22750000D02*
X180650000Y-22750000D01*
X202800000Y-28250000D02*
X192250000Y-28250000D01*
X202800000Y-25300000D02*
X202800000Y-28250000D01*
X203550000Y-25300000D02*
X202800000Y-25300000D01*
X181700000Y-28250000D02*
X192250000Y-28250000D01*
X181700000Y-25300000D02*
X181700000Y-28250000D01*
X180950000Y-25300000D02*
X181700000Y-25300000D01*
X203550000Y-23050000D02*
X201750000Y-23050000D01*
X203550000Y-23800000D02*
X203550000Y-23050000D01*
X201750000Y-23800000D02*
X203550000Y-23800000D01*
X201750000Y-23050000D02*
X201750000Y-23800000D01*
X182750000Y-23050000D02*
X180950000Y-23050000D01*
X182750000Y-23800000D02*
X182750000Y-23050000D01*
X180950000Y-23800000D02*
X182750000Y-23800000D01*
X180950000Y-23050000D02*
X180950000Y-23800000D01*
X200250000Y-23050000D02*
X184250000Y-23050000D01*
X200250000Y-23800000D02*
X200250000Y-23050000D01*
X184250000Y-23800000D02*
X200250000Y-23800000D01*
X184250000Y-23050000D02*
X184250000Y-23800000D01*
X203550000Y-23050000D02*
X180950000Y-23050000D01*
X203550000Y-29000000D02*
X203550000Y-23050000D01*
X180950000Y-29000000D02*
X203550000Y-29000000D01*
X180950000Y-23050000D02*
X180950000Y-29000000D01*
X20900000Y-35200000D02*
X20900000Y-41714000D01*
X20900000Y-41714000D02*
X21500000Y-41714000D01*
X21500000Y-41714000D02*
X21500000Y-46500000D01*
X21500000Y-46540000D02*
X20900000Y-46540000D01*
X20900000Y-46500000D02*
X20900000Y-52800000D01*
X20900000Y-52800000D02*
X31000000Y-52800000D01*
X31000000Y-52800000D02*
X31000000Y-35200000D01*
X31000000Y-35200000D02*
X20900000Y-35200000D01*
D13*
X22000000Y-44000000D02*
X23016000Y-44000000D01*
D15*
G36*
X21500000Y-42730000D02*
G01*
X22500000Y-42730000D01*
X22500000Y-45270000D01*
X21500000Y-45270000D01*
X21500000Y-42730000D01*
G37*
X21500000Y-42730000D02*
X22500000Y-42730000D01*
X22500000Y-45270000D01*
X21500000Y-45270000D01*
X21500000Y-42730000D01*
D16*
X20900000Y-41674000D02*
X20900000Y-46500000D01*
X20900000Y-141200000D02*
X20900000Y-147714000D01*
X20900000Y-147714000D02*
X21500000Y-147714000D01*
X21500000Y-147714000D02*
X21500000Y-152500000D01*
X21500000Y-152540000D02*
X20900000Y-152540000D01*
X20900000Y-152500000D02*
X20900000Y-158800000D01*
X20900000Y-158800000D02*
X31000000Y-158800000D01*
X31000000Y-158800000D02*
X31000000Y-141200000D01*
X31000000Y-141200000D02*
X20900000Y-141200000D01*
D13*
X22000000Y-150000000D02*
X23016000Y-150000000D01*
D15*
G36*
X21500000Y-148730000D02*
G01*
X22500000Y-148730000D01*
X22500000Y-151270000D01*
X21500000Y-151270000D01*
X21500000Y-148730000D01*
G37*
X21500000Y-148730000D02*
X22500000Y-148730000D01*
X22500000Y-151270000D01*
X21500000Y-151270000D01*
X21500000Y-148730000D01*
D16*
X20900000Y-147674000D02*
X20900000Y-152500000D01*
D11*
X166950000Y-23500000D02*
X166950000Y-24500000D01*
X165550000Y-23500000D02*
X165550000Y-24500000D01*
X165550000Y-24500000D02*
X166950000Y-24500000D01*
X165550000Y-23500000D02*
X166950000Y-23500000D01*
X165550000Y-23800000D02*
X166950000Y-23800000D01*
X128450000Y-23500000D02*
X128450000Y-24500000D01*
X127050000Y-23500000D02*
X127050000Y-24500000D01*
X127050000Y-24500000D02*
X128450000Y-24500000D01*
X127050000Y-23500000D02*
X128450000Y-23500000D01*
X127050000Y-23800000D02*
X128450000Y-23800000D01*
X160300000Y-167500000D02*
X160300000Y-166500000D01*
X161700000Y-167500000D02*
X161700000Y-166500000D01*
X161700000Y-166500000D02*
X160300000Y-166500000D01*
X161700000Y-167500000D02*
X160300000Y-167500000D01*
X161700000Y-167200000D02*
X160300000Y-167200000D01*
X121300000Y-167500000D02*
X121300000Y-166500000D01*
X122700000Y-167500000D02*
X122700000Y-166500000D01*
X122700000Y-166500000D02*
X121300000Y-166500000D01*
X122700000Y-167500000D02*
X121300000Y-167500000D01*
X122700000Y-167200000D02*
X121300000Y-167200000D01*
X88950000Y-23500000D02*
X88950000Y-24500000D01*
X87550000Y-23500000D02*
X87550000Y-24500000D01*
X87550000Y-24500000D02*
X88950000Y-24500000D01*
X87550000Y-23500000D02*
X88950000Y-23500000D01*
X87550000Y-23800000D02*
X88950000Y-23800000D01*
X82300000Y-167500000D02*
X82300000Y-166500000D01*
X83700000Y-167500000D02*
X83700000Y-166500000D01*
X83700000Y-166500000D02*
X82300000Y-166500000D01*
X83700000Y-167500000D02*
X82300000Y-167500000D01*
X83700000Y-167200000D02*
X82300000Y-167200000D01*
X49950000Y-23500000D02*
X49950000Y-24500000D01*
X48550000Y-23500000D02*
X48550000Y-24500000D01*
X48550000Y-24500000D02*
X49950000Y-24500000D01*
X48550000Y-23500000D02*
X49950000Y-23500000D01*
X48550000Y-23800000D02*
X49950000Y-23800000D01*
X42800000Y-167500000D02*
X42800000Y-166500000D01*
X44200000Y-167500000D02*
X44200000Y-166500000D01*
X44200000Y-166500000D02*
X42800000Y-166500000D01*
X44200000Y-167500000D02*
X42800000Y-167500000D01*
X44200000Y-167200000D02*
X42800000Y-167200000D01*
X168365000Y-22230000D02*
X169635000Y-22230000D01*
X167965000Y-22630000D02*
X167965000Y-23550000D01*
X168365000Y-25770000D02*
X169635000Y-25770000D01*
X167965000Y-24450000D02*
X167965000Y-25370000D01*
X170035000Y-24450000D02*
X170035000Y-25370000D01*
X170035000Y-22630000D02*
X170035000Y-23550000D01*
X169635010Y-22230000D02*
G75*
G02X170035010Y-22630000I0J-400000D01*
G01*
X167965000Y-22630000D02*
G75*
G02X168365000Y-22230000I400000J0D01*
G01*
X168365000Y-25770000D02*
G75*
G02X167965000Y-25370000I0J400000D01*
G01*
X170035000Y-25370000D02*
G75*
G02X169635000Y-25770000I-400000J0D01*
G01*
D16*
X204900000Y-25350000D02*
X204900000Y-26650000D01*
X204300000Y-26000000D02*
X205500000Y-26000000D01*
X210311000Y-25646000D02*
X210311000Y-26354000D01*
X210271000Y-25441000D02*
X210271000Y-26559000D01*
X210231000Y-25293000D02*
X210231000Y-26707000D01*
X210191000Y-25171000D02*
X210191000Y-26829000D01*
X210151000Y-25066000D02*
X210151000Y-26934000D01*
X210111000Y-24972000D02*
X210111000Y-27028000D01*
X210071000Y-24888000D02*
X210071000Y-27112000D01*
X210031000Y-24811000D02*
X210031000Y-27189000D01*
X209991000Y-24739000D02*
X209991000Y-27261000D01*
X209951000Y-26980000D02*
X209951000Y-27327000D01*
X209951000Y-24673000D02*
X209951000Y-25020000D01*
X209911000Y-26980000D02*
X209911000Y-27390000D01*
X209911000Y-24610000D02*
X209911000Y-25020000D01*
X209871000Y-26980000D02*
X209871000Y-27448000D01*
X209871000Y-24552000D02*
X209871000Y-25020000D01*
X209831000Y-26980000D02*
X209831000Y-27504000D01*
X209831000Y-24496000D02*
X209831000Y-25020000D01*
X209791000Y-26980000D02*
X209791000Y-27556000D01*
X209791000Y-24444000D02*
X209791000Y-25020000D01*
X209751000Y-26980000D02*
X209751000Y-27606000D01*
X209751000Y-24394000D02*
X209751000Y-25020000D01*
X209711000Y-26980000D02*
X209711000Y-27654000D01*
X209711000Y-24346000D02*
X209711000Y-25020000D01*
X209671000Y-26980000D02*
X209671000Y-27699000D01*
X209671000Y-24301000D02*
X209671000Y-25020000D01*
X209631000Y-26980000D02*
X209631000Y-27742000D01*
X209631000Y-24258000D02*
X209631000Y-25020000D01*
X209591000Y-26980000D02*
X209591000Y-27783000D01*
X209591000Y-24217000D02*
X209591000Y-25020000D01*
X209551000Y-26980000D02*
X209551000Y-27823000D01*
X209551000Y-24177000D02*
X209551000Y-25020000D01*
X209511000Y-26980000D02*
X209511000Y-27861000D01*
X209511000Y-24139000D02*
X209511000Y-25020000D01*
X209471000Y-26980000D02*
X209471000Y-27897000D01*
X209471000Y-24103000D02*
X209471000Y-25020000D01*
X209431000Y-26980000D02*
X209431000Y-27932000D01*
X209431000Y-24068000D02*
X209431000Y-25020000D01*
X209391000Y-26980000D02*
X209391000Y-27965000D01*
X209391000Y-24035000D02*
X209391000Y-25020000D01*
X209351000Y-26980000D02*
X209351000Y-27997000D01*
X209351000Y-24003000D02*
X209351000Y-25020000D01*
X209311000Y-26980000D02*
X209311000Y-28028000D01*
X209311000Y-23972000D02*
X209311000Y-25020000D01*
X209271000Y-26980000D02*
X209271000Y-28058000D01*
X209271000Y-23942000D02*
X209271000Y-25020000D01*
X209231000Y-26980000D02*
X209231000Y-28086000D01*
X209231000Y-23914000D02*
X209231000Y-25020000D01*
X209191000Y-26980000D02*
X209191000Y-28113000D01*
X209191000Y-23887000D02*
X209191000Y-25020000D01*
X209151000Y-26980000D02*
X209151000Y-28140000D01*
X209151000Y-23860000D02*
X209151000Y-25020000D01*
X209111000Y-26980000D02*
X209111000Y-28165000D01*
X209111000Y-23835000D02*
X209111000Y-25020000D01*
X209071000Y-26980000D02*
X209071000Y-28189000D01*
X209071000Y-23811000D02*
X209071000Y-25020000D01*
X209031000Y-26980000D02*
X209031000Y-28212000D01*
X209031000Y-23788000D02*
X209031000Y-25020000D01*
X208991000Y-26980000D02*
X208991000Y-28234000D01*
X208991000Y-23766000D02*
X208991000Y-25020000D01*
X208951000Y-26980000D02*
X208951000Y-28256000D01*
X208951000Y-23744000D02*
X208951000Y-25020000D01*
X208911000Y-26980000D02*
X208911000Y-28276000D01*
X208911000Y-23724000D02*
X208911000Y-25020000D01*
X208871000Y-26980000D02*
X208871000Y-28296000D01*
X208871000Y-23704000D02*
X208871000Y-25020000D01*
X208831000Y-26980000D02*
X208831000Y-28315000D01*
X208831000Y-23685000D02*
X208831000Y-25020000D01*
X208791000Y-26980000D02*
X208791000Y-28333000D01*
X208791000Y-23667000D02*
X208791000Y-25020000D01*
X208751000Y-26980000D02*
X208751000Y-28350000D01*
X208751000Y-23650000D02*
X208751000Y-25020000D01*
X208711000Y-26980000D02*
X208711000Y-28366000D01*
X208711000Y-23634000D02*
X208711000Y-25020000D01*
X208671000Y-26980000D02*
X208671000Y-28382000D01*
X208671000Y-23618000D02*
X208671000Y-25020000D01*
X208631000Y-26980000D02*
X208631000Y-28396000D01*
X208631000Y-23604000D02*
X208631000Y-25020000D01*
X208591000Y-26980000D02*
X208591000Y-28410000D01*
X208591000Y-23590000D02*
X208591000Y-25020000D01*
X208551000Y-26980000D02*
X208551000Y-28424000D01*
X208551000Y-23576000D02*
X208551000Y-25020000D01*
X208511000Y-26980000D02*
X208511000Y-28436000D01*
X208511000Y-23564000D02*
X208511000Y-25020000D01*
X208471000Y-26980000D02*
X208471000Y-28448000D01*
X208471000Y-23552000D02*
X208471000Y-25020000D01*
X208430000Y-26980000D02*
X208430000Y-28460000D01*
X208430000Y-23540000D02*
X208430000Y-25020000D01*
X208390000Y-26980000D02*
X208390000Y-28470000D01*
X208390000Y-23530000D02*
X208390000Y-25020000D01*
X208350000Y-26980000D02*
X208350000Y-28480000D01*
X208350000Y-23520000D02*
X208350000Y-25020000D01*
X208310000Y-26980000D02*
X208310000Y-28489000D01*
X208310000Y-23511000D02*
X208310000Y-25020000D01*
X208270000Y-26980000D02*
X208270000Y-28498000D01*
X208270000Y-23502000D02*
X208270000Y-25020000D01*
X208230000Y-26980000D02*
X208230000Y-28506000D01*
X208230000Y-23494000D02*
X208230000Y-25020000D01*
X208190000Y-26980000D02*
X208190000Y-28513000D01*
X208190000Y-23487000D02*
X208190000Y-25020000D01*
X208150000Y-26980000D02*
X208150000Y-28519000D01*
X208150000Y-23481000D02*
X208150000Y-25020000D01*
X208110000Y-26980000D02*
X208110000Y-28525000D01*
X208110000Y-23475000D02*
X208110000Y-25020000D01*
X208070000Y-26980000D02*
X208070000Y-28531000D01*
X208070000Y-23469000D02*
X208070000Y-25020000D01*
X208030000Y-26980000D02*
X208030000Y-28535000D01*
X208030000Y-23465000D02*
X208030000Y-25020000D01*
X207990000Y-23461000D02*
X207990000Y-28539000D01*
X207950000Y-23457000D02*
X207950000Y-28543000D01*
X207910000Y-23454000D02*
X207910000Y-28546000D01*
X207870000Y-23452000D02*
X207870000Y-28548000D01*
X207830000Y-23451000D02*
X207830000Y-28549000D01*
X207790000Y-23450000D02*
X207790000Y-28550000D01*
X207750000Y-23450000D02*
X207750000Y-28550000D01*
X210055722Y-27179723D02*
G75*
G03X210055580Y-24820000I-2305722J1179723D01*
G01*
X210055722Y-27179723D02*
G75*
G02X205444420Y-27180000I-2305722J1179723D01*
G01*
X210055722Y-24820277D02*
G75*
G03X205444420Y-24820000I-2305722J-1179723D01*
G01*
D10*
X170896743Y-30811714D02*
X170087219Y-30811714D01*
X169991981Y-30859333D01*
X169944362Y-30906952D01*
X169896743Y-31002190D01*
X169896743Y-31192666D01*
X169944362Y-31287904D01*
X169991981Y-31335523D01*
X170087219Y-31383142D01*
X170896743Y-31383142D01*
X169896743Y-32383142D02*
X169896743Y-31811714D01*
X169896743Y-32097428D02*
X170896743Y-32097428D01*
X170753885Y-32002190D01*
X170658647Y-31906952D01*
X170611028Y-31811714D01*
X205467078Y-130414899D02*
X205054685Y-130176804D01*
X205554685Y-129310779D01*
X206209386Y-130843471D02*
X205714514Y-130557756D01*
X205961950Y-130700614D02*
X206461950Y-129834588D01*
X206308043Y-129910687D01*
X206177945Y-129945547D01*
X206071657Y-129939167D01*
X207492933Y-130429826D02*
X207080540Y-130191731D01*
X206801205Y-130580315D01*
X206866254Y-130562885D01*
X206972542Y-130569265D01*
X207178739Y-130688312D01*
X207237408Y-130777171D01*
X207254837Y-130842219D01*
X207248458Y-130948507D01*
X207129410Y-131154704D01*
X207040552Y-131213373D01*
X206975503Y-131230803D01*
X206869215Y-131224423D01*
X206663018Y-131105376D01*
X206604349Y-131016517D01*
X206586919Y-130951468D01*
X183851180Y-125239681D02*
X183514463Y-124902964D01*
X184221569Y-124195857D01*
X184457272Y-125845773D02*
X184053211Y-125441712D01*
X184255241Y-125643743D02*
X184962348Y-124936636D01*
X184793989Y-124970307D01*
X184659302Y-124970307D01*
X184558287Y-124936636D01*
X185534768Y-125980460D02*
X185063363Y-126451865D01*
X185635783Y-125542727D02*
X184962348Y-125879445D01*
X185400081Y-126317178D01*
X183851180Y-92239681D02*
X183514463Y-91902964D01*
X184221569Y-91195857D01*
X184457272Y-92845773D02*
X184053211Y-92441712D01*
X184255241Y-92643743D02*
X184962348Y-91936636D01*
X184793989Y-91970307D01*
X184659302Y-91970307D01*
X184558287Y-91936636D01*
X185400081Y-92374369D02*
X185837814Y-92812101D01*
X185332737Y-92845773D01*
X185433753Y-92946788D01*
X185467424Y-93047804D01*
X185467424Y-93115147D01*
X185433753Y-93216162D01*
X185265394Y-93384521D01*
X185164379Y-93418193D01*
X185097035Y-93418193D01*
X184996020Y-93384521D01*
X184793989Y-93182491D01*
X184760318Y-93081475D01*
X184760318Y-93014132D01*
X147296417Y-137169459D02*
X147058321Y-136757066D01*
X147924347Y-136257066D01*
X147724988Y-137911767D02*
X147439274Y-137416895D01*
X147582131Y-137664331D02*
X148448156Y-137164331D01*
X148276819Y-137153281D01*
X148146722Y-137118421D01*
X148057863Y-137059752D01*
X148699011Y-137789300D02*
X148764060Y-137806730D01*
X148852918Y-137865399D01*
X148971966Y-138071596D01*
X148978345Y-138177884D01*
X148960916Y-138242933D01*
X148902247Y-138331791D01*
X148819768Y-138379410D01*
X148672241Y-138409599D01*
X147891655Y-138200442D01*
X148201178Y-138736553D01*
X146796417Y-115169459D02*
X146558321Y-114757066D01*
X147424347Y-114257066D01*
X147224988Y-115911767D02*
X146939274Y-115416895D01*
X147082131Y-115664331D02*
X147948156Y-115164331D01*
X147776819Y-115153281D01*
X147646722Y-115118421D01*
X147557863Y-115059752D01*
X147701178Y-116736553D02*
X147415464Y-116241681D01*
X147558321Y-116489117D02*
X148424347Y-115989117D01*
X148253010Y-115978067D01*
X148122912Y-115943208D01*
X148034054Y-115884538D01*
X147796417Y-93169459D02*
X147558321Y-92757066D01*
X148424347Y-92257066D01*
X148224988Y-93911767D02*
X147939274Y-93416895D01*
X148082131Y-93664331D02*
X148948156Y-93164331D01*
X148776819Y-93153281D01*
X148646722Y-93118421D01*
X148557863Y-93059752D01*
X149400537Y-93947878D02*
X149448156Y-94030356D01*
X149454536Y-94136645D01*
X149437106Y-94201693D01*
X149378437Y-94290552D01*
X149237289Y-94427029D01*
X149031093Y-94546077D01*
X148842326Y-94600076D01*
X148736038Y-94606455D01*
X148670989Y-94589026D01*
X148582131Y-94530356D01*
X148534512Y-94447878D01*
X148528132Y-94341590D01*
X148545562Y-94276541D01*
X148604231Y-94187682D01*
X148745379Y-94051205D01*
X148951575Y-93932157D01*
X149140342Y-93878159D01*
X149246630Y-93871779D01*
X149311679Y-93889209D01*
X149400537Y-93947878D01*
X108534512Y-137581852D02*
X108296417Y-137169459D01*
X109162442Y-136669459D01*
X108724988Y-137911767D02*
X108820226Y-138076724D01*
X108909084Y-138135393D01*
X108974133Y-138152823D01*
X109145470Y-138163873D01*
X109334237Y-138109874D01*
X109664151Y-137919398D01*
X109722820Y-137830540D01*
X109740250Y-137765491D01*
X109733871Y-137659203D01*
X109638632Y-137494245D01*
X109549774Y-137435576D01*
X109484725Y-137418147D01*
X109378437Y-137424526D01*
X109172241Y-137543574D01*
X109113571Y-137632432D01*
X109096142Y-137697481D01*
X109102521Y-137803769D01*
X109197760Y-137968726D01*
X109286618Y-138027396D01*
X109351667Y-138044825D01*
X109457955Y-138038446D01*
X108534512Y-115581852D02*
X108296417Y-115169459D01*
X109162442Y-114669459D01*
X109267479Y-115708531D02*
X109261099Y-115602243D01*
X109278529Y-115537194D01*
X109337198Y-115448336D01*
X109378437Y-115424526D01*
X109484725Y-115418147D01*
X109549774Y-115435576D01*
X109638632Y-115494245D01*
X109733871Y-115659203D01*
X109740250Y-115765491D01*
X109722820Y-115830540D01*
X109664151Y-115919398D01*
X109622912Y-115943208D01*
X109516624Y-115949587D01*
X109451575Y-115932157D01*
X109362717Y-115873488D01*
X109267479Y-115708531D01*
X109178620Y-115649862D01*
X109113571Y-115632432D01*
X109007283Y-115638812D01*
X108842326Y-115734050D01*
X108783657Y-115822908D01*
X108766227Y-115887957D01*
X108772607Y-115994245D01*
X108867845Y-116159203D01*
X108956703Y-116217872D01*
X109021752Y-116235302D01*
X109128040Y-116228922D01*
X109292998Y-116133684D01*
X109351667Y-116044825D01*
X109369097Y-115979777D01*
X109362717Y-115873488D01*
X108534512Y-93581852D02*
X108296417Y-93169459D01*
X109162442Y-92669459D01*
X109519585Y-93288049D02*
X109852918Y-93865399D01*
X108772607Y-93994245D01*
X69534512Y-137581852D02*
X69296417Y-137169459D01*
X70162442Y-136669459D01*
X70781490Y-137741681D02*
X70686251Y-137576724D01*
X70597393Y-137518055D01*
X70532344Y-137500625D01*
X70361007Y-137489575D01*
X70172241Y-137543574D01*
X69842326Y-137734050D01*
X69783657Y-137822908D01*
X69766227Y-137887957D01*
X69772607Y-137994245D01*
X69867845Y-138159203D01*
X69956703Y-138217872D01*
X70021752Y-138235302D01*
X70128040Y-138228922D01*
X70334237Y-138109874D01*
X70392906Y-138021016D01*
X70410336Y-137955967D01*
X70403956Y-137849679D01*
X70308718Y-137684722D01*
X70219860Y-137626053D01*
X70154811Y-137608623D01*
X70048523Y-137615003D01*
X69534512Y-115581852D02*
X69296417Y-115169459D01*
X70162442Y-114669459D01*
X70805299Y-115782921D02*
X70567204Y-115370528D01*
X70131001Y-115567383D01*
X70196050Y-115584813D01*
X70284908Y-115643482D01*
X70403956Y-115849679D01*
X70410336Y-115955967D01*
X70392906Y-116021016D01*
X70334237Y-116109874D01*
X70128040Y-116228922D01*
X70021752Y-116235302D01*
X69956703Y-116217872D01*
X69867845Y-116159203D01*
X69748797Y-115953006D01*
X69742418Y-115846718D01*
X69759848Y-115781669D01*
X69534512Y-93581852D02*
X69296417Y-93169459D01*
X70162442Y-92669459D01*
X70492814Y-93908348D02*
X69915464Y-94241681D01*
X70703681Y-93511675D02*
X69966044Y-93662622D01*
X70275568Y-94198733D01*
X30534512Y-137581852D02*
X30296417Y-137169459D01*
X31162442Y-136669459D01*
X31519585Y-137288049D02*
X31829109Y-137824160D01*
X31332527Y-137725961D01*
X31403956Y-137849679D01*
X31410336Y-137955967D01*
X31392906Y-138021016D01*
X31334237Y-138109874D01*
X31128040Y-138228922D01*
X31021752Y-138235302D01*
X30956703Y-138217872D01*
X30867845Y-138159203D01*
X30724988Y-137911767D01*
X30718608Y-137805479D01*
X30736038Y-137740430D01*
X30534512Y-115581852D02*
X30296417Y-115169459D01*
X31162442Y-114669459D01*
X31460916Y-115376907D02*
X31525965Y-115394337D01*
X31614823Y-115453006D01*
X31733871Y-115659203D01*
X31740250Y-115765491D01*
X31722820Y-115830540D01*
X31664151Y-115919398D01*
X31581673Y-115967017D01*
X31434145Y-115997206D01*
X30653559Y-115788049D01*
X30963083Y-116324160D01*
X30534512Y-93581852D02*
X30296417Y-93169459D01*
X31162442Y-92669459D01*
X30963083Y-94324160D02*
X30677369Y-93829288D01*
X30820226Y-94076724D02*
X31686251Y-93576724D01*
X31514914Y-93565674D01*
X31384817Y-93530814D01*
X31295958Y-93472145D01*
X164508380Y-24738095D02*
X163508380Y-24738095D01*
X164508380Y-24166666D02*
X163936952Y-24595238D01*
X163508380Y-24166666D02*
X164079809Y-24738095D01*
X163936952Y-23595238D02*
X163889333Y-23690476D01*
X163841714Y-23738095D01*
X163746476Y-23785714D01*
X163698857Y-23785714D01*
X163603619Y-23738095D01*
X163556000Y-23690476D01*
X163508380Y-23595238D01*
X163508380Y-23404761D01*
X163556000Y-23309523D01*
X163603619Y-23261904D01*
X163698857Y-23214285D01*
X163746476Y-23214285D01*
X163841714Y-23261904D01*
X163889333Y-23309523D01*
X163936952Y-23404761D01*
X163936952Y-23595238D01*
X163984571Y-23690476D01*
X164032190Y-23738095D01*
X164127428Y-23785714D01*
X164317904Y-23785714D01*
X164413142Y-23738095D01*
X164460761Y-23690476D01*
X164508380Y-23595238D01*
X164508380Y-23404761D01*
X164460761Y-23309523D01*
X164413142Y-23261904D01*
X164317904Y-23214285D01*
X164127428Y-23214285D01*
X164032190Y-23261904D01*
X163984571Y-23309523D01*
X163936952Y-23404761D01*
X125508380Y-24738095D02*
X124508380Y-24738095D01*
X125508380Y-24166666D02*
X124936952Y-24595238D01*
X124508380Y-24166666D02*
X125079809Y-24738095D01*
X124508380Y-23833333D02*
X124508380Y-23166666D01*
X125508380Y-23595238D01*
X164396380Y-167738095D02*
X163396380Y-167738095D01*
X164396380Y-167166666D02*
X163824952Y-167595238D01*
X163396380Y-167166666D02*
X163967809Y-167738095D01*
X163396380Y-166309523D02*
X163396380Y-166500000D01*
X163444000Y-166595238D01*
X163491619Y-166642857D01*
X163634476Y-166738095D01*
X163824952Y-166785714D01*
X164205904Y-166785714D01*
X164301142Y-166738095D01*
X164348761Y-166690476D01*
X164396380Y-166595238D01*
X164396380Y-166404761D01*
X164348761Y-166309523D01*
X164301142Y-166261904D01*
X164205904Y-166214285D01*
X163967809Y-166214285D01*
X163872571Y-166261904D01*
X163824952Y-166309523D01*
X163777333Y-166404761D01*
X163777333Y-166595238D01*
X163824952Y-166690476D01*
X163872571Y-166738095D01*
X163967809Y-166785714D01*
X125396380Y-167738095D02*
X124396380Y-167738095D01*
X125396380Y-167166666D02*
X124824952Y-167595238D01*
X124396380Y-167166666D02*
X124967809Y-167738095D01*
X124396380Y-166261904D02*
X124396380Y-166738095D01*
X124872571Y-166785714D01*
X124824952Y-166738095D01*
X124777333Y-166642857D01*
X124777333Y-166404761D01*
X124824952Y-166309523D01*
X124872571Y-166261904D01*
X124967809Y-166214285D01*
X125205904Y-166214285D01*
X125301142Y-166261904D01*
X125348761Y-166309523D01*
X125396380Y-166404761D01*
X125396380Y-166642857D01*
X125348761Y-166738095D01*
X125301142Y-166785714D01*
X86508380Y-24738095D02*
X85508380Y-24738095D01*
X86508380Y-24166666D02*
X85936952Y-24595238D01*
X85508380Y-24166666D02*
X86079809Y-24738095D01*
X85841714Y-23309523D02*
X86508380Y-23309523D01*
X85460761Y-23547619D02*
X86175047Y-23785714D01*
X86175047Y-23166666D01*
X86396380Y-167738095D02*
X85396380Y-167738095D01*
X86396380Y-167166666D02*
X85824952Y-167595238D01*
X85396380Y-167166666D02*
X85967809Y-167738095D01*
X85396380Y-166833333D02*
X85396380Y-166214285D01*
X85777333Y-166547619D01*
X85777333Y-166404761D01*
X85824952Y-166309523D01*
X85872571Y-166261904D01*
X85967809Y-166214285D01*
X86205904Y-166214285D01*
X86301142Y-166261904D01*
X86348761Y-166309523D01*
X86396380Y-166404761D01*
X86396380Y-166690476D01*
X86348761Y-166785714D01*
X86301142Y-166833333D01*
X47508380Y-24738095D02*
X46508380Y-24738095D01*
X47508380Y-24166666D02*
X46936952Y-24595238D01*
X46508380Y-24166666D02*
X47079809Y-24738095D01*
X46603619Y-23785714D02*
X46556000Y-23738095D01*
X46508380Y-23642857D01*
X46508380Y-23404761D01*
X46556000Y-23309523D01*
X46603619Y-23261904D01*
X46698857Y-23214285D01*
X46794095Y-23214285D01*
X46936952Y-23261904D01*
X47508380Y-23833333D01*
X47508380Y-23214285D01*
X47396380Y-167738095D02*
X46396380Y-167738095D01*
X47396380Y-167166666D02*
X46824952Y-167595238D01*
X46396380Y-167166666D02*
X46967809Y-167738095D01*
X47396380Y-166214285D02*
X47396380Y-166785714D01*
X47396380Y-166500000D02*
X46396380Y-166500000D01*
X46539238Y-166595238D01*
X46634476Y-166690476D01*
X46682095Y-166785714D01*
X182423600Y-61397888D02*
X181918524Y-61902964D01*
X181783837Y-61970307D01*
X181649150Y-61970307D01*
X181514463Y-61902964D01*
X181447119Y-61835620D01*
X182053211Y-62441712D02*
X182760318Y-61734605D01*
X183029692Y-62003979D01*
X183063363Y-62104994D01*
X183063363Y-62172338D01*
X183029692Y-62273353D01*
X182928676Y-62374368D01*
X182827661Y-62408040D01*
X182760318Y-62408040D01*
X182659302Y-62374369D01*
X182389928Y-62104994D01*
X183804142Y-62778430D02*
X183467424Y-62441712D01*
X183097035Y-62744758D01*
X183164379Y-62744758D01*
X183265394Y-62778430D01*
X183433753Y-62946788D01*
X183467424Y-63047804D01*
X183467424Y-63115147D01*
X183433753Y-63216162D01*
X183265394Y-63384521D01*
X183164379Y-63418193D01*
X183097035Y-63418193D01*
X182996020Y-63384521D01*
X182827661Y-63216162D01*
X182793989Y-63115147D01*
X182793989Y-63047804D01*
X148067204Y-70504502D02*
X147448614Y-70861645D01*
X147301087Y-70891834D01*
X147170989Y-70856975D01*
X147058321Y-70757066D01*
X147010702Y-70674588D01*
X147439274Y-71416895D02*
X148305299Y-70916895D01*
X148495775Y-71246810D01*
X148502155Y-71353098D01*
X148484725Y-71418147D01*
X148426056Y-71507005D01*
X148302338Y-71578434D01*
X148196050Y-71584813D01*
X148131001Y-71567383D01*
X148042143Y-71508714D01*
X147851667Y-71178800D01*
X148730910Y-72320741D02*
X148153559Y-72654074D01*
X148941776Y-71924068D02*
X148204139Y-72075015D01*
X148513663Y-72611126D01*
X109067204Y-70504502D02*
X108448614Y-70861645D01*
X108301087Y-70891834D01*
X108170989Y-70856975D01*
X108058321Y-70757066D01*
X108010702Y-70674588D01*
X108439274Y-71416895D02*
X109305299Y-70916895D01*
X109495775Y-71246810D01*
X109502155Y-71353098D01*
X109484725Y-71418147D01*
X109426056Y-71507005D01*
X109302338Y-71578434D01*
X109196050Y-71584813D01*
X109131001Y-71567383D01*
X109042143Y-71508714D01*
X108851667Y-71178800D01*
X109757680Y-71700442D02*
X110067204Y-72236553D01*
X109570623Y-72138354D01*
X109642051Y-72262072D01*
X109648431Y-72368360D01*
X109631001Y-72433409D01*
X109572332Y-72522267D01*
X109366136Y-72641315D01*
X109259848Y-72647695D01*
X109194799Y-72630265D01*
X109105940Y-72571596D01*
X108963083Y-72324160D01*
X108956703Y-72217872D01*
X108974133Y-72152823D01*
X70067204Y-70504502D02*
X69448614Y-70861645D01*
X69301087Y-70891834D01*
X69170989Y-70856975D01*
X69058321Y-70757066D01*
X69010702Y-70674588D01*
X69439274Y-71416895D02*
X70305299Y-70916895D01*
X70495775Y-71246810D01*
X70502155Y-71353098D01*
X70484725Y-71418147D01*
X70426056Y-71507005D01*
X70302338Y-71578434D01*
X70196050Y-71584813D01*
X70131001Y-71567383D01*
X70042143Y-71508714D01*
X69851667Y-71178800D01*
X70699011Y-71789300D02*
X70764060Y-71806730D01*
X70852918Y-71865399D01*
X70971966Y-72071596D01*
X70978345Y-72177884D01*
X70960916Y-72242933D01*
X70902247Y-72331791D01*
X70819768Y-72379410D01*
X70672241Y-72409599D01*
X69891655Y-72200442D01*
X70201178Y-72736553D01*
X57047966Y-55504502D02*
X56429376Y-55861645D01*
X56281849Y-55891834D01*
X56151751Y-55856975D01*
X56039083Y-55757066D01*
X55991464Y-55674588D01*
X56420036Y-56416895D02*
X57286061Y-55916895D01*
X57476537Y-56246810D01*
X57482917Y-56353098D01*
X57465487Y-56418147D01*
X57406818Y-56507005D01*
X57283100Y-56578434D01*
X57176812Y-56584813D01*
X57111763Y-56567383D01*
X57022905Y-56508714D01*
X56832429Y-56178800D01*
X57181940Y-57736553D02*
X56896226Y-57241681D01*
X57039083Y-57489117D02*
X57905109Y-56989117D01*
X57733772Y-56978067D01*
X57603674Y-56943208D01*
X57514816Y-56884538D01*
X198166666Y-29702380D02*
X198166666Y-30416666D01*
X198119047Y-30559523D01*
X198023809Y-30654761D01*
X197880952Y-30702380D01*
X197785714Y-30702380D01*
X198547619Y-29702380D02*
X199166666Y-29702380D01*
X198833333Y-30083333D01*
X198976190Y-30083333D01*
X199071428Y-30130952D01*
X199119047Y-30178571D01*
X199166666Y-30273809D01*
X199166666Y-30511904D01*
X199119047Y-30607142D01*
X199071428Y-30654761D01*
X198976190Y-30702380D01*
X198690476Y-30702380D01*
X198595238Y-30654761D01*
X198547619Y-30607142D01*
X165202380Y-26988095D02*
X164202380Y-26988095D01*
X164202380Y-26750000D01*
X164250000Y-26607142D01*
X164345238Y-26511904D01*
X164440476Y-26464285D01*
X164630952Y-26416666D01*
X164773809Y-26416666D01*
X164964285Y-26464285D01*
X165059523Y-26511904D01*
X165154761Y-26607142D01*
X165202380Y-26750000D01*
X165202380Y-26988095D01*
X164630952Y-25845238D02*
X164583333Y-25940476D01*
X164535714Y-25988095D01*
X164440476Y-26035714D01*
X164392857Y-26035714D01*
X164297619Y-25988095D01*
X164250000Y-25940476D01*
X164202380Y-25845238D01*
X164202380Y-25654761D01*
X164250000Y-25559523D01*
X164297619Y-25511904D01*
X164392857Y-25464285D01*
X164440476Y-25464285D01*
X164535714Y-25511904D01*
X164583333Y-25559523D01*
X164630952Y-25654761D01*
X164630952Y-25845238D01*
X164678571Y-25940476D01*
X164726190Y-25988095D01*
X164821428Y-26035714D01*
X165011904Y-26035714D01*
X165107142Y-25988095D01*
X165154761Y-25940476D01*
X165202380Y-25845238D01*
X165202380Y-25654761D01*
X165154761Y-25559523D01*
X165107142Y-25511904D01*
X165011904Y-25464285D01*
X164821428Y-25464285D01*
X164726190Y-25511904D01*
X164678571Y-25559523D01*
X164630952Y-25654761D01*
X129626656Y-23864476D02*
X128626656Y-23864476D01*
X128626656Y-23626381D01*
X128674276Y-23483523D01*
X128769514Y-23388285D01*
X128864752Y-23340666D01*
X129055228Y-23293047D01*
X129198085Y-23293047D01*
X129388561Y-23340666D01*
X129483799Y-23388285D01*
X129579037Y-23483523D01*
X129626656Y-23626381D01*
X129626656Y-23864476D01*
X128626656Y-22959714D02*
X128626656Y-22293047D01*
X129626656Y-22721619D01*
X159702380Y-167763095D02*
X158702380Y-167763095D01*
X158702380Y-167525000D01*
X158750000Y-167382142D01*
X158845238Y-167286904D01*
X158940476Y-167239285D01*
X159130952Y-167191666D01*
X159273809Y-167191666D01*
X159464285Y-167239285D01*
X159559523Y-167286904D01*
X159654761Y-167382142D01*
X159702380Y-167525000D01*
X159702380Y-167763095D01*
X158702380Y-166334523D02*
X158702380Y-166525000D01*
X158750000Y-166620238D01*
X158797619Y-166667857D01*
X158940476Y-166763095D01*
X159130952Y-166810714D01*
X159511904Y-166810714D01*
X159607142Y-166763095D01*
X159654761Y-166715476D01*
X159702380Y-166620238D01*
X159702380Y-166429761D01*
X159654761Y-166334523D01*
X159607142Y-166286904D01*
X159511904Y-166239285D01*
X159273809Y-166239285D01*
X159178571Y-166286904D01*
X159130952Y-166334523D01*
X159083333Y-166429761D01*
X159083333Y-166620238D01*
X159130952Y-166715476D01*
X159178571Y-166763095D01*
X159273809Y-166810714D01*
X121028104Y-168611714D02*
X120028104Y-168611714D01*
X120028104Y-168373619D01*
X120075724Y-168230761D01*
X120170962Y-168135523D01*
X120266200Y-168087904D01*
X120456676Y-168040285D01*
X120599533Y-168040285D01*
X120790009Y-168087904D01*
X120885247Y-168135523D01*
X120980485Y-168230761D01*
X121028104Y-168373619D01*
X121028104Y-168611714D01*
X120028104Y-167135523D02*
X120028104Y-167611714D01*
X120504295Y-167659333D01*
X120456676Y-167611714D01*
X120409057Y-167516476D01*
X120409057Y-167278380D01*
X120456676Y-167183142D01*
X120504295Y-167135523D01*
X120599533Y-167087904D01*
X120837628Y-167087904D01*
X120932866Y-167135523D01*
X120980485Y-167183142D01*
X121028104Y-167278380D01*
X121028104Y-167516476D01*
X120980485Y-167611714D01*
X120932866Y-167659333D01*
X90452380Y-23988095D02*
X89452380Y-23988095D01*
X89452380Y-23750000D01*
X89500000Y-23607142D01*
X89595238Y-23511904D01*
X89690476Y-23464285D01*
X89880952Y-23416666D01*
X90023809Y-23416666D01*
X90214285Y-23464285D01*
X90309523Y-23511904D01*
X90404761Y-23607142D01*
X90452380Y-23750000D01*
X90452380Y-23988095D01*
X89785714Y-22559523D02*
X90452380Y-22559523D01*
X89404761Y-22797619D02*
X90119047Y-23035714D01*
X90119047Y-22416666D01*
X82028104Y-168611714D02*
X81028104Y-168611714D01*
X81028104Y-168373619D01*
X81075724Y-168230761D01*
X81170962Y-168135523D01*
X81266200Y-168087904D01*
X81456676Y-168040285D01*
X81599533Y-168040285D01*
X81790009Y-168087904D01*
X81885247Y-168135523D01*
X81980485Y-168230761D01*
X82028104Y-168373619D01*
X82028104Y-168611714D01*
X81028104Y-167706952D02*
X81028104Y-167087904D01*
X81409057Y-167421238D01*
X81409057Y-167278380D01*
X81456676Y-167183142D01*
X81504295Y-167135523D01*
X81599533Y-167087904D01*
X81837628Y-167087904D01*
X81932866Y-167135523D01*
X81980485Y-167183142D01*
X82028104Y-167278380D01*
X82028104Y-167564095D01*
X81980485Y-167659333D01*
X81932866Y-167706952D01*
X51452380Y-24988095D02*
X50452380Y-24988095D01*
X50452380Y-24750000D01*
X50500000Y-24607142D01*
X50595238Y-24511904D01*
X50690476Y-24464285D01*
X50880952Y-24416666D01*
X51023809Y-24416666D01*
X51214285Y-24464285D01*
X51309523Y-24511904D01*
X51404761Y-24607142D01*
X51452380Y-24750000D01*
X51452380Y-24988095D01*
X50547619Y-24035714D02*
X50500000Y-23988095D01*
X50452380Y-23892857D01*
X50452380Y-23654761D01*
X50500000Y-23559523D01*
X50547619Y-23511904D01*
X50642857Y-23464285D01*
X50738095Y-23464285D01*
X50880952Y-23511904D01*
X51452380Y-24083333D01*
X51452380Y-23464285D01*
X42528104Y-168611714D02*
X41528104Y-168611714D01*
X41528104Y-168373619D01*
X41575724Y-168230761D01*
X41670962Y-168135523D01*
X41766200Y-168087904D01*
X41956676Y-168040285D01*
X42099533Y-168040285D01*
X42290009Y-168087904D01*
X42385247Y-168135523D01*
X42480485Y-168230761D01*
X42528104Y-168373619D01*
X42528104Y-168611714D01*
X42528104Y-167087904D02*
X42528104Y-167659333D01*
X42528104Y-167373619D02*
X41528104Y-167373619D01*
X41670962Y-167468857D01*
X41766200Y-167564095D01*
X41813819Y-167659333D01*
X168833333Y-21607142D02*
X168785714Y-21654761D01*
X168642857Y-21702380D01*
X168547619Y-21702380D01*
X168404761Y-21654761D01*
X168309523Y-21559523D01*
X168261904Y-21464285D01*
X168214285Y-21273809D01*
X168214285Y-21130952D01*
X168261904Y-20940476D01*
X168309523Y-20845238D01*
X168404761Y-20750000D01*
X168547619Y-20702380D01*
X168642857Y-20702380D01*
X168785714Y-20750000D01*
X168833333Y-20797619D01*
X169214285Y-20797619D02*
X169261904Y-20750000D01*
X169357142Y-20702380D01*
X169595238Y-20702380D01*
X169690476Y-20750000D01*
X169738095Y-20797619D01*
X169785714Y-20892857D01*
X169785714Y-20988095D01*
X169738095Y-21130952D01*
X169166666Y-21702380D01*
X169785714Y-21702380D01*
X207583333Y-22857142D02*
X207535714Y-22904761D01*
X207392857Y-22952380D01*
X207297619Y-22952380D01*
X207154761Y-22904761D01*
X207059523Y-22809523D01*
X207011904Y-22714285D01*
X206964285Y-22523809D01*
X206964285Y-22380952D01*
X207011904Y-22190476D01*
X207059523Y-22095238D01*
X207154761Y-22000000D01*
X207297619Y-21952380D01*
X207392857Y-21952380D01*
X207535714Y-22000000D01*
X207583333Y-22047619D01*
X208535714Y-22952380D02*
X207964285Y-22952380D01*
X208250000Y-22952380D02*
X208250000Y-21952380D01*
X208154761Y-22095238D01*
X208059523Y-22190476D01*
X207964285Y-22238095D01*
M02*
