%TF.GenerationSoftware,KiCad,Pcbnew,(5.1.4)-1*%
%TF.CreationDate,2020-05-13T01:14:08+08:00*%
%TF.ProjectId,LPF,4c50462e-6b69-4636-9164-5f7063625858,rev?*%
%TF.SameCoordinates,Original*%
%TF.FileFunction,Legend,Bot*%
%TF.FilePolarity,Positive*%
%FSLAX46Y46*%
G04 Gerber Fmt 4.6, Leading zero omitted, Abs format (unit mm)*
G04 Created by KiCad (PCBNEW (5.1.4)-1) date 2020-05-13 01:14:08*
%MOMM*%
%LPD*%
G04 APERTURE LIST*
%ADD10C,0.200000*%
%ADD11C,0.300000*%
%ADD12C,0.120000*%
G04 APERTURE END LIST*
D10*
X37809523Y-138428571D02*
X38142857Y-138428571D01*
X38142857Y-138952380D02*
X38142857Y-137952380D01*
X37666666Y-137952380D01*
X36761904Y-138952380D02*
X37333333Y-138952380D01*
X37047619Y-138952380D02*
X37047619Y-137952380D01*
X37142857Y-138095238D01*
X37238095Y-138190476D01*
X37333333Y-138238095D01*
X35761904Y-138857142D02*
X35809523Y-138904761D01*
X35952380Y-138952380D01*
X36047619Y-138952380D01*
X36190476Y-138904761D01*
X36285714Y-138809523D01*
X36333333Y-138714285D01*
X36380952Y-138523809D01*
X36380952Y-138380952D01*
X36333333Y-138190476D01*
X36285714Y-138095238D01*
X36190476Y-138000000D01*
X36047619Y-137952380D01*
X35952380Y-137952380D01*
X35809523Y-138000000D01*
X35761904Y-138047619D01*
X34904761Y-138285714D02*
X34904761Y-138952380D01*
X35142857Y-137904761D02*
X35380952Y-138619047D01*
X34761904Y-138619047D01*
X37809523Y-111678571D02*
X38142857Y-111678571D01*
X38142857Y-112202380D02*
X38142857Y-111202380D01*
X37666666Y-111202380D01*
X36761904Y-112202380D02*
X37333333Y-112202380D01*
X37047619Y-112202380D02*
X37047619Y-111202380D01*
X37142857Y-111345238D01*
X37238095Y-111440476D01*
X37333333Y-111488095D01*
X35761904Y-112107142D02*
X35809523Y-112154761D01*
X35952380Y-112202380D01*
X36047619Y-112202380D01*
X36190476Y-112154761D01*
X36285714Y-112059523D01*
X36333333Y-111964285D01*
X36380952Y-111773809D01*
X36380952Y-111630952D01*
X36333333Y-111440476D01*
X36285714Y-111345238D01*
X36190476Y-111250000D01*
X36047619Y-111202380D01*
X35952380Y-111202380D01*
X35809523Y-111250000D01*
X35761904Y-111297619D01*
X35428571Y-111202380D02*
X34809523Y-111202380D01*
X35142857Y-111583333D01*
X35000000Y-111583333D01*
X34904761Y-111630952D01*
X34857142Y-111678571D01*
X34809523Y-111773809D01*
X34809523Y-112011904D01*
X34857142Y-112107142D01*
X34904761Y-112154761D01*
X35000000Y-112202380D01*
X35285714Y-112202380D01*
X35380952Y-112154761D01*
X35428571Y-112107142D01*
X37809523Y-89678571D02*
X38142857Y-89678571D01*
X38142857Y-90202380D02*
X38142857Y-89202380D01*
X37666666Y-89202380D01*
X36761904Y-90202380D02*
X37333333Y-90202380D01*
X37047619Y-90202380D02*
X37047619Y-89202380D01*
X37142857Y-89345238D01*
X37238095Y-89440476D01*
X37333333Y-89488095D01*
X35761904Y-90107142D02*
X35809523Y-90154761D01*
X35952380Y-90202380D01*
X36047619Y-90202380D01*
X36190476Y-90154761D01*
X36285714Y-90059523D01*
X36333333Y-89964285D01*
X36380952Y-89773809D01*
X36380952Y-89630952D01*
X36333333Y-89440476D01*
X36285714Y-89345238D01*
X36190476Y-89250000D01*
X36047619Y-89202380D01*
X35952380Y-89202380D01*
X35809523Y-89250000D01*
X35761904Y-89297619D01*
X35380952Y-89297619D02*
X35333333Y-89250000D01*
X35238095Y-89202380D01*
X35000000Y-89202380D01*
X34904761Y-89250000D01*
X34857142Y-89297619D01*
X34809523Y-89392857D01*
X34809523Y-89488095D01*
X34857142Y-89630952D01*
X35428571Y-90202380D01*
X34809523Y-90202380D01*
X37809523Y-67428571D02*
X38142857Y-67428571D01*
X38142857Y-67952380D02*
X38142857Y-66952380D01*
X37666666Y-66952380D01*
X36761904Y-67952380D02*
X37333333Y-67952380D01*
X37047619Y-67952380D02*
X37047619Y-66952380D01*
X37142857Y-67095238D01*
X37238095Y-67190476D01*
X37333333Y-67238095D01*
X35761904Y-67857142D02*
X35809523Y-67904761D01*
X35952380Y-67952380D01*
X36047619Y-67952380D01*
X36190476Y-67904761D01*
X36285714Y-67809523D01*
X36333333Y-67714285D01*
X36380952Y-67523809D01*
X36380952Y-67380952D01*
X36333333Y-67190476D01*
X36285714Y-67095238D01*
X36190476Y-67000000D01*
X36047619Y-66952380D01*
X35952380Y-66952380D01*
X35809523Y-67000000D01*
X35761904Y-67047619D01*
X34809523Y-67952380D02*
X35380952Y-67952380D01*
X35095238Y-67952380D02*
X35095238Y-66952380D01*
X35190476Y-67095238D01*
X35285714Y-67190476D01*
X35380952Y-67238095D01*
D11*
X203412142Y-29153571D02*
X203126428Y-29153571D01*
X202983571Y-29225000D01*
X202840714Y-29367857D01*
X202769285Y-29653571D01*
X202769285Y-30153571D01*
X202840714Y-30439285D01*
X202983571Y-30582142D01*
X203126428Y-30653571D01*
X203412142Y-30653571D01*
X203555000Y-30582142D01*
X203697857Y-30439285D01*
X203769285Y-30153571D01*
X203769285Y-29653571D01*
X203697857Y-29367857D01*
X203555000Y-29225000D01*
X203412142Y-29153571D01*
X202126428Y-30653571D02*
X202126428Y-29153571D01*
X201555000Y-29153571D01*
X201412142Y-29225000D01*
X201340714Y-29296428D01*
X201269285Y-29439285D01*
X201269285Y-29653571D01*
X201340714Y-29796428D01*
X201412142Y-29867857D01*
X201555000Y-29939285D01*
X202126428Y-29939285D01*
X200697857Y-30225000D02*
X199983571Y-30225000D01*
X200840714Y-30653571D02*
X200340714Y-29153571D01*
X199840714Y-30653571D01*
X198555000Y-30653571D02*
X199412142Y-30653571D01*
X198983571Y-30653571D02*
X198983571Y-29153571D01*
X199126428Y-29367857D01*
X199269285Y-29510714D01*
X199412142Y-29582142D01*
X197626428Y-29153571D02*
X197483571Y-29153571D01*
X197340714Y-29225000D01*
X197269285Y-29296428D01*
X197197857Y-29439285D01*
X197126428Y-29725000D01*
X197126428Y-30082142D01*
X197197857Y-30367857D01*
X197269285Y-30510714D01*
X197340714Y-30582142D01*
X197483571Y-30653571D01*
X197626428Y-30653571D01*
X197769285Y-30582142D01*
X197840714Y-30510714D01*
X197912142Y-30367857D01*
X197983571Y-30082142D01*
X197983571Y-29725000D01*
X197912142Y-29439285D01*
X197840714Y-29296428D01*
X197769285Y-29225000D01*
X197626428Y-29153571D01*
X196197857Y-29153571D02*
X196054999Y-29153571D01*
X195912142Y-29225000D01*
X195840714Y-29296428D01*
X195769285Y-29439285D01*
X195697857Y-29725000D01*
X195697857Y-30082142D01*
X195769285Y-30367857D01*
X195840714Y-30510714D01*
X195912142Y-30582142D01*
X196054999Y-30653571D01*
X196197857Y-30653571D01*
X196340714Y-30582142D01*
X196412142Y-30510714D01*
X196483571Y-30367857D01*
X196554999Y-30082142D01*
X196554999Y-29725000D01*
X196483571Y-29439285D01*
X196412142Y-29296428D01*
X196340714Y-29225000D01*
X196197857Y-29153571D01*
X194769285Y-29153571D02*
X194626428Y-29153571D01*
X194483571Y-29225000D01*
X194412142Y-29296428D01*
X194340714Y-29439285D01*
X194269285Y-29725000D01*
X194269285Y-30082142D01*
X194340714Y-30367857D01*
X194412142Y-30510714D01*
X194483571Y-30582142D01*
X194626428Y-30653571D01*
X194769285Y-30653571D01*
X194912142Y-30582142D01*
X194983571Y-30510714D01*
X195054999Y-30367857D01*
X195126428Y-30082142D01*
X195126428Y-29725000D01*
X195054999Y-29439285D01*
X194983571Y-29296428D01*
X194912142Y-29225000D01*
X194769285Y-29153571D01*
X191769285Y-30653571D02*
X192483571Y-30653571D01*
X192483571Y-29153571D01*
X191269285Y-30653571D02*
X191269285Y-29153571D01*
X190697857Y-29153571D01*
X190554999Y-29225000D01*
X190483571Y-29296428D01*
X190412142Y-29439285D01*
X190412142Y-29653571D01*
X190483571Y-29796428D01*
X190554999Y-29867857D01*
X190697857Y-29939285D01*
X191269285Y-29939285D01*
X189269285Y-29867857D02*
X189769285Y-29867857D01*
X189769285Y-30653571D02*
X189769285Y-29153571D01*
X189054999Y-29153571D01*
X187554999Y-29153571D02*
X187054999Y-30653571D01*
X186554999Y-29153571D01*
X185769285Y-29153571D02*
X185626428Y-29153571D01*
X185483571Y-29225000D01*
X185412142Y-29296428D01*
X185340714Y-29439285D01*
X185269285Y-29725000D01*
X185269285Y-30082142D01*
X185340714Y-30367857D01*
X185412142Y-30510714D01*
X185483571Y-30582142D01*
X185626428Y-30653571D01*
X185769285Y-30653571D01*
X185912142Y-30582142D01*
X185983571Y-30510714D01*
X186054999Y-30367857D01*
X186126428Y-30082142D01*
X186126428Y-29725000D01*
X186054999Y-29439285D01*
X185983571Y-29296428D01*
X185912142Y-29225000D01*
X185769285Y-29153571D01*
X184626428Y-30510714D02*
X184554999Y-30582142D01*
X184626428Y-30653571D01*
X184697857Y-30582142D01*
X184626428Y-30510714D01*
X184626428Y-30653571D01*
X183983571Y-29296428D02*
X183912142Y-29225000D01*
X183769285Y-29153571D01*
X183412142Y-29153571D01*
X183269285Y-29225000D01*
X183197857Y-29296428D01*
X183126428Y-29439285D01*
X183126428Y-29582142D01*
X183197857Y-29796428D01*
X184054999Y-30653571D01*
X183126428Y-30653571D01*
X203197857Y-32417857D02*
X202983571Y-32489285D01*
X202912142Y-32560714D01*
X202840714Y-32703571D01*
X202840714Y-32917857D01*
X202912142Y-33060714D01*
X202983571Y-33132142D01*
X203126428Y-33203571D01*
X203697857Y-33203571D01*
X203697857Y-31703571D01*
X203197857Y-31703571D01*
X203055000Y-31775000D01*
X202983571Y-31846428D01*
X202912142Y-31989285D01*
X202912142Y-32132142D01*
X202983571Y-32275000D01*
X203055000Y-32346428D01*
X203197857Y-32417857D01*
X203697857Y-32417857D01*
X202340714Y-32203571D02*
X201983571Y-33203571D01*
X201626428Y-32203571D02*
X201983571Y-33203571D01*
X202126428Y-33560714D01*
X202197857Y-33632142D01*
X202340714Y-33703571D01*
X199197857Y-33203571D02*
X199912142Y-33203571D01*
X199912142Y-31703571D01*
X198055000Y-32203571D02*
X198055000Y-33203571D01*
X198697857Y-32203571D02*
X198697857Y-32989285D01*
X198626428Y-33132142D01*
X198483571Y-33203571D01*
X198269285Y-33203571D01*
X198126428Y-33132142D01*
X198055000Y-33060714D01*
X197269285Y-33132142D02*
X197269285Y-33203571D01*
X197340714Y-33346428D01*
X197412142Y-33417857D01*
X195626428Y-31703571D02*
X194626428Y-31703571D01*
X195626428Y-33203571D01*
X194626428Y-33203571D01*
X193483571Y-33132142D02*
X193626428Y-33203571D01*
X193912142Y-33203571D01*
X194055000Y-33132142D01*
X194126428Y-32989285D01*
X194126428Y-32417857D01*
X194055000Y-32275000D01*
X193912142Y-32203571D01*
X193626428Y-32203571D01*
X193483571Y-32275000D01*
X193412142Y-32417857D01*
X193412142Y-32560714D01*
X194126428Y-32703571D01*
X192769285Y-32203571D02*
X192769285Y-33203571D01*
X192769285Y-32346428D02*
X192697857Y-32275000D01*
X192555000Y-32203571D01*
X192340714Y-32203571D01*
X192197857Y-32275000D01*
X192126428Y-32417857D01*
X192126428Y-33203571D01*
X191412142Y-33203571D02*
X191412142Y-32203571D01*
X191412142Y-31703571D02*
X191483571Y-31775000D01*
X191412142Y-31846428D01*
X191340714Y-31775000D01*
X191412142Y-31703571D01*
X191412142Y-31846428D01*
X190697857Y-32203571D02*
X190697857Y-33203571D01*
X190697857Y-32346428D02*
X190626428Y-32275000D01*
X190483571Y-32203571D01*
X190269285Y-32203571D01*
X190126428Y-32275000D01*
X190055000Y-32417857D01*
X190055000Y-33203571D01*
X188697857Y-32203571D02*
X188697857Y-33417857D01*
X188769285Y-33560714D01*
X188840714Y-33632142D01*
X188983571Y-33703571D01*
X189197857Y-33703571D01*
X189340714Y-33632142D01*
X188697857Y-33132142D02*
X188840714Y-33203571D01*
X189126428Y-33203571D01*
X189269285Y-33132142D01*
X189340714Y-33060714D01*
X189412142Y-32917857D01*
X189412142Y-32489285D01*
X189340714Y-32346428D01*
X189269285Y-32275000D01*
X189126428Y-32203571D01*
X188840714Y-32203571D01*
X188697857Y-32275000D01*
X187555000Y-33775000D02*
X187626428Y-33703571D01*
X187769285Y-33489285D01*
X187840714Y-33346428D01*
X187912142Y-33132142D01*
X187983571Y-32775000D01*
X187983571Y-32489285D01*
X187912142Y-32132142D01*
X187840714Y-31917857D01*
X187769285Y-31775000D01*
X187626428Y-31560714D01*
X187555000Y-31489285D01*
X186483571Y-32417857D02*
X186269285Y-32489285D01*
X186197857Y-32560714D01*
X186126428Y-32703571D01*
X186126428Y-32917857D01*
X186197857Y-33060714D01*
X186269285Y-33132142D01*
X186412142Y-33203571D01*
X186983571Y-33203571D01*
X186983571Y-31703571D01*
X186483571Y-31703571D01*
X186340714Y-31775000D01*
X186269285Y-31846428D01*
X186197857Y-31989285D01*
X186197857Y-32132142D01*
X186269285Y-32275000D01*
X186340714Y-32346428D01*
X186483571Y-32417857D01*
X186983571Y-32417857D01*
X185483571Y-33203571D02*
X185483571Y-31703571D01*
X184126428Y-32203571D02*
X184126428Y-33203571D01*
X184483571Y-31632142D02*
X184840714Y-32703571D01*
X183912142Y-32703571D01*
X183483571Y-31703571D02*
X183126428Y-33203571D01*
X182840714Y-32132142D01*
X182555000Y-33203571D01*
X182197857Y-31703571D01*
X181340714Y-31703571D02*
X181055000Y-31703571D01*
X180912142Y-31775000D01*
X180769285Y-31917857D01*
X180697857Y-32203571D01*
X180697857Y-32703571D01*
X180769285Y-32989285D01*
X180912142Y-33132142D01*
X181055000Y-33203571D01*
X181340714Y-33203571D01*
X181483571Y-33132142D01*
X181626428Y-32989285D01*
X181697857Y-32703571D01*
X181697857Y-32203571D01*
X181626428Y-31917857D01*
X181483571Y-31775000D01*
X181340714Y-31703571D01*
X180055000Y-33203571D02*
X180055000Y-31703571D01*
X179483571Y-31703571D01*
X179340714Y-31775000D01*
X179269285Y-31846428D01*
X179197857Y-31989285D01*
X179197857Y-32203571D01*
X179269285Y-32346428D01*
X179340714Y-32417857D01*
X179483571Y-32489285D01*
X180055000Y-32489285D01*
X178697857Y-33775000D02*
X178626428Y-33703571D01*
X178483571Y-33489285D01*
X178412142Y-33346428D01*
X178340714Y-33132142D01*
X178269285Y-32775000D01*
X178269285Y-32489285D01*
X178340714Y-32132142D01*
X178412142Y-31917857D01*
X178483571Y-31775000D01*
X178626428Y-31560714D01*
X178697857Y-31489285D01*
D12*
X208270000Y-149000000D02*
X208270000Y-145400000D01*
X211730000Y-145400000D02*
X211730000Y-149000000D01*
X180670000Y-159300000D02*
X180670000Y-155700000D01*
X184130000Y-155700000D02*
X184130000Y-159300000D01*
X180130000Y-155700000D02*
X180130000Y-159300000D01*
X176670000Y-159300000D02*
X176670000Y-155700000D01*
X172670000Y-159300000D02*
X172670000Y-155700000D01*
X176130000Y-155700000D02*
X176130000Y-159300000D01*
X172130000Y-155700000D02*
X172130000Y-159300000D01*
X168670000Y-159300000D02*
X168670000Y-155700000D01*
X164670000Y-159300000D02*
X164670000Y-155700000D01*
X168130000Y-155700000D02*
X168130000Y-159300000D01*
X191580065Y-155090076D02*
X188904743Y-152681205D01*
X191219935Y-150109924D02*
X193895257Y-152518795D01*
X164030000Y-155700000D02*
X164030000Y-159300000D01*
X160570000Y-159300000D02*
X160570000Y-155700000D01*
X190990076Y-146569935D02*
X188581205Y-149245257D01*
X186009924Y-146930065D02*
X188418795Y-144254743D01*
X188619935Y-152909924D02*
X191295257Y-155318795D01*
X188980065Y-157890076D02*
X186304743Y-155481205D01*
X207950000Y-114830000D02*
X204350000Y-114830000D01*
X204350000Y-111370000D02*
X207950000Y-111370000D01*
X206300000Y-142730000D02*
X202700000Y-142730000D01*
X202700000Y-139270000D02*
X206300000Y-139270000D01*
X207851838Y-126830000D02*
X204251838Y-126830000D01*
X204251838Y-123370000D02*
X207851838Y-123370000D01*
X207700000Y-134830000D02*
X204100000Y-134830000D01*
X204100000Y-131370000D02*
X207700000Y-131370000D01*
X204179278Y-127370000D02*
X207779278Y-127370000D01*
X207779278Y-130830000D02*
X204179278Y-130830000D01*
X204100000Y-135370000D02*
X207700000Y-135370000D01*
X207700000Y-138830000D02*
X204100000Y-138830000D01*
X204355717Y-115620000D02*
X207955717Y-115620000D01*
X207955717Y-119080000D02*
X204355717Y-119080000D01*
X207950000Y-123080000D02*
X204350000Y-123080000D01*
X204350000Y-119620000D02*
X207950000Y-119620000D01*
X205112475Y-96004204D02*
X202200014Y-93888177D01*
X204233751Y-91088978D02*
X207146212Y-93205005D01*
X201191999Y-95309197D02*
X204104460Y-97425224D01*
X202070723Y-100224423D02*
X199158262Y-98108396D01*
X207275499Y-86868758D02*
X210187960Y-88984785D01*
X208154223Y-91783984D02*
X205241762Y-89667957D01*
X199432352Y-103732370D02*
X196519891Y-101616343D01*
X198553628Y-98817144D02*
X201466089Y-100933171D01*
X196154223Y-108033984D02*
X193241762Y-105917957D01*
X195275499Y-103118758D02*
X198187960Y-105234785D01*
X192233751Y-107338978D02*
X195146212Y-109455005D01*
X193112475Y-112254204D02*
X190200014Y-110138177D01*
X185520489Y-102016878D02*
X188432950Y-104132905D01*
X186399213Y-106932104D02*
X183486752Y-104816077D01*
X198399202Y-90682096D02*
X195486741Y-88566069D01*
X197520478Y-85766870D02*
X200432939Y-87882897D01*
X200562220Y-81546653D02*
X203474681Y-83662680D01*
X201440944Y-86461879D02*
X198528483Y-84345852D01*
X195121075Y-94983715D02*
X192208614Y-92867688D01*
X194242351Y-90068489D02*
X197154812Y-92184516D01*
X191603977Y-93576428D02*
X194516438Y-95692455D01*
X192482701Y-98491654D02*
X189570240Y-96375627D01*
X189440947Y-102711879D02*
X186528486Y-100595852D01*
X188562223Y-97796653D02*
X191474684Y-99912680D01*
X187312223Y-66296653D02*
X190224684Y-68412680D01*
X188190947Y-71211879D02*
X185278486Y-69095852D01*
X191232701Y-66991654D02*
X188320240Y-64875627D01*
X190353977Y-62076428D02*
X193266438Y-64192455D01*
X185149213Y-75432104D02*
X182236752Y-73316077D01*
X184270489Y-70516878D02*
X187182950Y-72632905D01*
X192992351Y-58568489D02*
X195904812Y-60684516D01*
X193871075Y-63483715D02*
X190958614Y-61367688D01*
X196270478Y-54266870D02*
X199182939Y-56382897D01*
X197149202Y-59182096D02*
X194236741Y-57066069D01*
X200190944Y-54961879D02*
X197278483Y-52845852D01*
X199312220Y-50046653D02*
X202224681Y-52162680D01*
X191862475Y-81004204D02*
X188950014Y-78888177D01*
X190983751Y-76088978D02*
X193896212Y-78205005D01*
X197303628Y-67567144D02*
X200216089Y-69683171D01*
X198182352Y-72482370D02*
X195269891Y-70366343D01*
X194025499Y-71868758D02*
X196937960Y-73984785D01*
X194904223Y-76783984D02*
X191991762Y-74667957D01*
X202983751Y-59838978D02*
X205896212Y-61955005D01*
X203862475Y-64754204D02*
X200950014Y-62638177D01*
X200820723Y-68974423D02*
X197908262Y-66858396D01*
X199941999Y-64059197D02*
X202854460Y-66175224D01*
X206904223Y-60533984D02*
X203991762Y-58417957D01*
X206025499Y-55618758D02*
X208937960Y-57734785D01*
X182300000Y-143730000D02*
X178700000Y-143730000D01*
X178700000Y-140270000D02*
X182300000Y-140270000D01*
X174753913Y-128549497D02*
X177299497Y-126003913D01*
X179746087Y-128450503D02*
X177200503Y-130996087D01*
X178700002Y-136269999D02*
X182300002Y-136269999D01*
X182300002Y-139729999D02*
X178700002Y-139729999D01*
X163800000Y-139230000D02*
X160200000Y-139230000D01*
X160200000Y-135770000D02*
X163800000Y-135770000D01*
X163800000Y-143730000D02*
X160200000Y-143730000D01*
X160200000Y-140270000D02*
X163800000Y-140270000D01*
X182300000Y-135730000D02*
X178700000Y-135730000D01*
X178700000Y-132270000D02*
X182300000Y-132270000D01*
X165700503Y-129753913D02*
X168246087Y-132299497D01*
X165799497Y-134746087D02*
X163253913Y-132200503D01*
X139700000Y-140270000D02*
X143300000Y-140270000D01*
X143300000Y-143730000D02*
X139700000Y-143730000D01*
X104300000Y-143730000D02*
X100700000Y-143730000D01*
X100700000Y-140270000D02*
X104300000Y-140270000D01*
X139700000Y-132270000D02*
X143300000Y-132270000D01*
X143300000Y-135730000D02*
X139700000Y-135730000D01*
X126799497Y-134746087D02*
X124253913Y-132200503D01*
X126700503Y-129753913D02*
X129246087Y-132299497D01*
X121200000Y-135770000D02*
X124800000Y-135770000D01*
X124800000Y-139230000D02*
X121200000Y-139230000D01*
X121200000Y-140270000D02*
X124800000Y-140270000D01*
X124800000Y-143730000D02*
X121200000Y-143730000D01*
X143300002Y-139729999D02*
X139700002Y-139729999D01*
X139700002Y-136269999D02*
X143300002Y-136269999D01*
X140746087Y-128450503D02*
X138200503Y-130996087D01*
X135753913Y-128549497D02*
X138299497Y-126003913D01*
X104300000Y-135730000D02*
X100700000Y-135730000D01*
X100700000Y-132270000D02*
X104300000Y-132270000D01*
X87700503Y-129753913D02*
X90246087Y-132299497D01*
X87799497Y-134746087D02*
X85253913Y-132200503D01*
X85800000Y-139230000D02*
X82200000Y-139230000D01*
X82200000Y-135770000D02*
X85800000Y-135770000D01*
X96753913Y-128549497D02*
X99299497Y-126003913D01*
X101746087Y-128450503D02*
X99200503Y-130996087D01*
X85800000Y-143730000D02*
X82200000Y-143730000D01*
X82200000Y-140270000D02*
X85800000Y-140270000D01*
X100700002Y-136269999D02*
X104300002Y-136269999D01*
X104300002Y-139729999D02*
X100700002Y-139729999D01*
X48799497Y-134746087D02*
X46253913Y-132200503D01*
X48700503Y-129753913D02*
X51246087Y-132299497D01*
X61700000Y-132270000D02*
X65300000Y-132270000D01*
X65300000Y-135730000D02*
X61700000Y-135730000D01*
X164967512Y-123695016D02*
X162851485Y-120782555D01*
X165650684Y-118748818D02*
X167766711Y-121661279D01*
X156384695Y-114783239D02*
X158449571Y-117732186D01*
X155615305Y-119716761D02*
X153550429Y-116767814D01*
X165134695Y-108783239D02*
X167199571Y-111732186D01*
X164365305Y-113716761D02*
X162300429Y-110767814D01*
X156573521Y-129842448D02*
X154457494Y-126929987D01*
X157256693Y-124896250D02*
X159372720Y-127808711D01*
X160634695Y-111783239D02*
X162699571Y-114732186D01*
X159865305Y-116716761D02*
X157800429Y-113767814D01*
X161453688Y-121822534D02*
X163569715Y-124734995D01*
X160770516Y-126768732D02*
X158654489Y-123856271D01*
X169414469Y-120616937D02*
X167298442Y-117704476D01*
X170097641Y-115670739D02*
X172213668Y-118583200D01*
X152134695Y-117783239D02*
X154199571Y-120732186D01*
X151365305Y-122716761D02*
X149300429Y-119767814D01*
X163869638Y-102445505D02*
X161856544Y-99460970D01*
X164725014Y-97526163D02*
X166738108Y-100510698D01*
X155634695Y-93283239D02*
X157699571Y-96232186D01*
X154865305Y-98216761D02*
X152800429Y-95267814D01*
X164384695Y-87283239D02*
X166449571Y-90232186D01*
X163615305Y-92216761D02*
X161550429Y-89267814D01*
X155266218Y-108296246D02*
X153253124Y-105311711D01*
X156121594Y-103376904D02*
X158134688Y-106361439D01*
X159884695Y-90283239D02*
X161949571Y-93232186D01*
X159115305Y-95216761D02*
X157050429Y-92267814D01*
X160423304Y-100451534D02*
X162436398Y-103436069D01*
X159567928Y-105370876D02*
X157554834Y-102386341D01*
X168421310Y-99524498D02*
X166408216Y-96539963D01*
X169276686Y-94605156D02*
X171289780Y-97589691D01*
X151384695Y-96283239D02*
X153449571Y-99232186D01*
X150615305Y-101216761D02*
X148550429Y-98267814D01*
X165501427Y-75183976D02*
X167617454Y-78096437D01*
X164818255Y-80130174D02*
X162702228Y-77217713D01*
X155615305Y-75966761D02*
X153550429Y-73017814D01*
X156384695Y-71033239D02*
X158449571Y-73982186D01*
X164365305Y-69966761D02*
X162300429Y-67017814D01*
X165134695Y-65033239D02*
X167199571Y-67982186D01*
X157107436Y-81331408D02*
X159223463Y-84243869D01*
X156424264Y-86277606D02*
X154308237Y-83365145D01*
X159865305Y-72966761D02*
X157800429Y-70017814D01*
X160634695Y-68033239D02*
X162699571Y-70982186D01*
X160621259Y-83203890D02*
X158505232Y-80291429D01*
X161304431Y-78257692D02*
X163420458Y-81170153D01*
X169948384Y-72105897D02*
X172064411Y-75018358D01*
X169265212Y-77052095D02*
X167149185Y-74139634D01*
X151365305Y-78966761D02*
X149300429Y-76017814D01*
X152134695Y-74033239D02*
X154199571Y-76982186D01*
X117115305Y-86466761D02*
X115050429Y-83517814D01*
X117884695Y-81533239D02*
X119949571Y-84482186D01*
X122134695Y-78533239D02*
X124199571Y-81482186D01*
X121365305Y-83466761D02*
X119300429Y-80517814D01*
X125615305Y-80466761D02*
X123550429Y-77517814D01*
X126384695Y-75533239D02*
X128449571Y-78482186D01*
X112634695Y-74033239D02*
X114699571Y-76982186D01*
X111865305Y-78966761D02*
X109800429Y-76017814D01*
X125634695Y-65033239D02*
X127699571Y-67982186D01*
X124865305Y-69966761D02*
X122800429Y-67017814D01*
X116884695Y-71033239D02*
X118949571Y-73982186D01*
X116115305Y-75966761D02*
X114050429Y-73017814D01*
X130115305Y-77466761D02*
X128050429Y-74517814D01*
X130884695Y-72533239D02*
X132949571Y-75482186D01*
X121134695Y-68033239D02*
X123199571Y-70982186D01*
X120365305Y-72966761D02*
X118300429Y-70017814D01*
X126384695Y-97283239D02*
X128449571Y-100232186D01*
X125615305Y-102216761D02*
X123550429Y-99267814D01*
X111865305Y-100716761D02*
X109800429Y-97767814D01*
X112634695Y-95783239D02*
X114699571Y-98732186D01*
X121365305Y-105216761D02*
X119300429Y-102267814D01*
X122134695Y-100283239D02*
X124199571Y-103232186D01*
X124865305Y-91716761D02*
X122800429Y-88767814D01*
X125634695Y-86783239D02*
X127699571Y-89732186D01*
X116115305Y-97716761D02*
X114050429Y-94767814D01*
X116884695Y-92783239D02*
X118949571Y-95732186D01*
X130884695Y-94283239D02*
X132949571Y-97232186D01*
X130115305Y-99216761D02*
X128050429Y-96267814D01*
X117884695Y-103283239D02*
X119949571Y-106232186D01*
X117115305Y-108216761D02*
X115050429Y-105267814D01*
X120365305Y-94716761D02*
X118300429Y-91767814D01*
X121134695Y-89783239D02*
X123199571Y-92732186D01*
X112634695Y-118033239D02*
X114699571Y-120982186D01*
X111865305Y-122966761D02*
X109800429Y-120017814D01*
X121934695Y-122333239D02*
X123999571Y-125282186D01*
X121165305Y-127266761D02*
X119100429Y-124317814D01*
X125634695Y-109033239D02*
X127699571Y-111982186D01*
X124865305Y-113966761D02*
X122800429Y-111017814D01*
X121134695Y-112033239D02*
X123199571Y-114982186D01*
X120365305Y-116966761D02*
X118300429Y-114017814D01*
X116884695Y-115033239D02*
X118949571Y-117982186D01*
X116115305Y-119966761D02*
X114050429Y-117017814D01*
X129915305Y-121066761D02*
X127850429Y-118117814D01*
X130684695Y-116133239D02*
X132749571Y-119082186D01*
X116615305Y-130466761D02*
X114550429Y-127517814D01*
X117384695Y-125533239D02*
X119449571Y-128482186D01*
X125415305Y-124266761D02*
X123350429Y-121317814D01*
X126184695Y-119333239D02*
X128249571Y-122282186D01*
X78634695Y-81533239D02*
X80699571Y-84482186D01*
X77865305Y-86466761D02*
X75800429Y-83517814D01*
X87134695Y-75533239D02*
X89199571Y-78482186D01*
X86365305Y-80466761D02*
X84300429Y-77517814D01*
X82115305Y-83466761D02*
X80050429Y-80517814D01*
X82884695Y-78533239D02*
X84949571Y-81482186D01*
X81115305Y-72966761D02*
X79050429Y-70017814D01*
X81884695Y-68033239D02*
X83949571Y-70982186D01*
X85615305Y-69966761D02*
X83550429Y-67017814D01*
X86384695Y-65033239D02*
X88449571Y-67982186D01*
X72615305Y-78966761D02*
X70550429Y-76017814D01*
X73384695Y-74033239D02*
X75449571Y-76982186D01*
X76865305Y-75966761D02*
X74800429Y-73017814D01*
X77634695Y-71033239D02*
X79699571Y-73982186D01*
X91634695Y-72533239D02*
X93699571Y-75482186D01*
X90865305Y-77466761D02*
X88800429Y-74517814D01*
X73384695Y-96033239D02*
X75449571Y-98982186D01*
X72615305Y-100966761D02*
X70550429Y-98017814D01*
X82884695Y-100533239D02*
X84949571Y-103482186D01*
X82115305Y-105466761D02*
X80050429Y-102517814D01*
X86384695Y-87033239D02*
X88449571Y-89982186D01*
X85615305Y-91966761D02*
X83550429Y-89017814D01*
X81884695Y-90033239D02*
X83949571Y-92982186D01*
X81115305Y-94966761D02*
X79050429Y-92017814D01*
X77634695Y-93033239D02*
X79699571Y-95982186D01*
X76865305Y-97966761D02*
X74800429Y-95017814D01*
X90865305Y-99466761D02*
X88800429Y-96517814D01*
X91634695Y-94533239D02*
X93699571Y-97482186D01*
X77865305Y-108466761D02*
X75800429Y-105517814D01*
X78634695Y-103533239D02*
X80699571Y-106482186D01*
X86365305Y-102466761D02*
X84300429Y-99517814D01*
X87134695Y-97533239D02*
X89199571Y-100482186D01*
X72615305Y-122966761D02*
X70550429Y-120017814D01*
X73384695Y-118033239D02*
X75449571Y-120982186D01*
X87134695Y-119533239D02*
X89199571Y-122482186D01*
X86365305Y-124466761D02*
X84300429Y-121517814D01*
X81115305Y-116966761D02*
X79050429Y-114017814D01*
X81884695Y-112033239D02*
X83949571Y-114982186D01*
X82115305Y-127466761D02*
X80050429Y-124517814D01*
X82884695Y-122533239D02*
X84949571Y-125482186D01*
X76865305Y-119966761D02*
X74800429Y-117017814D01*
X77634695Y-115033239D02*
X79699571Y-117982186D01*
X85615305Y-113966761D02*
X83550429Y-111017814D01*
X86384695Y-109033239D02*
X88449571Y-111982186D01*
X91634695Y-116533239D02*
X93699571Y-119482186D01*
X90865305Y-121466761D02*
X88800429Y-118517814D01*
X78634695Y-125533239D02*
X80699571Y-128482186D01*
X77865305Y-130466761D02*
X75800429Y-127517814D01*
X42884695Y-112033239D02*
X44949571Y-114982186D01*
X42115305Y-116966761D02*
X40050429Y-114017814D01*
X38634695Y-115033239D02*
X40699571Y-117982186D01*
X37865305Y-119966761D02*
X35800429Y-117017814D01*
X43884695Y-122533239D02*
X45949571Y-125482186D01*
X43115305Y-127466761D02*
X41050429Y-124517814D01*
X34384695Y-118033239D02*
X36449571Y-120982186D01*
X33615305Y-122966761D02*
X31550429Y-120017814D01*
X47365305Y-124466761D02*
X45300429Y-121517814D01*
X48134695Y-119533239D02*
X50199571Y-122482186D01*
X51865305Y-121466761D02*
X49800429Y-118517814D01*
X52634695Y-116533239D02*
X54699571Y-119482186D01*
X38865305Y-130466761D02*
X36800429Y-127517814D01*
X39634695Y-125533239D02*
X41699571Y-128482186D01*
X47384695Y-109033239D02*
X49449571Y-111982186D01*
X46615305Y-113966761D02*
X44550429Y-111017814D01*
X42865305Y-105466761D02*
X40800429Y-102517814D01*
X43634695Y-100533239D02*
X45699571Y-103482186D01*
X33365305Y-100966761D02*
X31300429Y-98017814D01*
X34134695Y-96033239D02*
X36199571Y-98982186D01*
X39384695Y-103533239D02*
X41449571Y-106482186D01*
X38615305Y-108466761D02*
X36550429Y-105517814D01*
X52384695Y-94533239D02*
X54449571Y-97482186D01*
X51615305Y-99466761D02*
X49550429Y-96517814D01*
X41865305Y-94966761D02*
X39800429Y-92017814D01*
X42634695Y-90033239D02*
X44699571Y-92982186D01*
X37615305Y-97966761D02*
X35550429Y-95017814D01*
X38384695Y-93033239D02*
X40449571Y-95982186D01*
X46365305Y-91966761D02*
X44300429Y-89017814D01*
X47134695Y-87033239D02*
X49199571Y-89982186D01*
X47884695Y-97533239D02*
X49949571Y-100482186D01*
X47115305Y-102466761D02*
X45050429Y-99517814D01*
X51865305Y-77466761D02*
X49800429Y-74517814D01*
X52634695Y-72533239D02*
X54699571Y-75482186D01*
X47365305Y-80466761D02*
X45300429Y-77517814D01*
X48134695Y-75533239D02*
X50199571Y-78482186D01*
X43884695Y-78533239D02*
X45949571Y-81482186D01*
X43115305Y-83466761D02*
X41050429Y-80517814D01*
X65299998Y-143729998D02*
X61699998Y-143729998D01*
X61699998Y-140269998D02*
X65299998Y-140269998D01*
X65300002Y-139729999D02*
X61700002Y-139729999D01*
X61700002Y-136269999D02*
X65300002Y-136269999D01*
X62746087Y-128450503D02*
X60200503Y-130996087D01*
X57753913Y-128549497D02*
X60299497Y-126003913D01*
X43200000Y-140270000D02*
X46800000Y-140270000D01*
X46800000Y-143730000D02*
X43200000Y-143730000D01*
X43200000Y-135770000D02*
X46800000Y-135770000D01*
X46800000Y-139230000D02*
X43200000Y-139230000D01*
X38865305Y-86466761D02*
X36800429Y-83517814D01*
X39634695Y-81533239D02*
X41699571Y-84482186D01*
X47384695Y-65033239D02*
X49449571Y-67982186D01*
X46615305Y-69966761D02*
X44550429Y-67017814D01*
X42884695Y-68033239D02*
X44949571Y-70982186D01*
X42115305Y-72966761D02*
X40050429Y-70017814D01*
X38634695Y-71033239D02*
X40699571Y-73982186D01*
X37865305Y-75966761D02*
X35800429Y-73017814D01*
X34384695Y-74033239D02*
X36449571Y-76982186D01*
X33615305Y-78966761D02*
X31550429Y-76017814D01*
M02*
