%TF.GenerationSoftware,KiCad,Pcbnew,(5.1.4)-1*%
%TF.CreationDate,2019-12-28T21:17:41+08:00*%
%TF.ProjectId,LPF,4c50462e-6b69-4636-9164-5f7063625858,rev?*%
%TF.SameCoordinates,Original*%
%TF.FileFunction,Copper,L1,Top*%
%TF.FilePolarity,Positive*%
%FSLAX46Y46*%
G04 Gerber Fmt 4.6, Leading zero omitted, Abs format (unit mm)*
G04 Created by KiCad (PCBNEW (5.1.4)-1) date 2019-12-28 21:17:41*
%MOMM*%
%LPD*%
G04 APERTURE LIST*
%ADD10C,2.800000*%
%ADD11C,2.500000*%
%ADD12C,0.800000*%
%ADD13C,6.000000*%
%ADD14C,1.750000*%
%ADD15R,1.750000X1.750000*%
%ADD16C,5.000000*%
%ADD17C,0.350000*%
%ADD18C,4.000000*%
%ADD19C,1.600000*%
%ADD20R,1.600000X1.600000*%
%ADD21C,1.000000*%
%ADD22C,1.000000*%
%ADD23C,0.508000*%
%ADD24C,3.000000*%
%ADD25C,3.500000*%
%ADD26C,4.000000*%
%ADD27C,0.350000*%
G04 APERTURE END LIST*
D10*
X196821068Y-142571068D03*
X182678932Y-128428932D03*
X168678932Y-114571068D03*
X182821068Y-100428932D03*
X196821068Y-86571068D03*
X182678932Y-72428932D03*
X168484932Y-58571068D03*
X182627068Y-44428932D03*
X134678932Y-125928932D03*
X148821068Y-140071068D03*
X134821068Y-96928932D03*
X120678932Y-111071068D03*
X134678932Y-68428932D03*
X148821068Y-82571068D03*
X90928932Y-125928932D03*
X105071068Y-140071068D03*
X90821068Y-96928932D03*
X76678932Y-111071068D03*
X90678932Y-68428932D03*
X104821068Y-82571068D03*
X46428932Y-125928932D03*
X60571068Y-140071068D03*
X46321068Y-96928932D03*
X32178932Y-111071068D03*
X46428932Y-68428932D03*
X60571068Y-82571068D03*
X1928932Y-125928932D03*
X16071068Y-140071068D03*
X1821068Y-96928932D03*
X-12321068Y-111071068D03*
X1928932Y-68428932D03*
X16071068Y-82571068D03*
X134821068Y-40428932D03*
X120678932Y-54571068D03*
X90821068Y-40428932D03*
X76678932Y-54571068D03*
X46321068Y-40678932D03*
X32178932Y-54821068D03*
X-12321068Y-54571068D03*
X1821068Y-40428932D03*
D11*
X50019030Y-44624369D03*
X53554564Y-41088835D03*
X57090097Y-37553301D03*
X55322330Y-49927670D03*
X58857864Y-46392136D03*
X62393398Y-42856602D03*
X67696699Y-26946699D03*
X73000000Y-32250000D03*
X35730970Y-147875631D03*
X32195436Y-151411165D03*
X28659903Y-154946699D03*
X30427670Y-142572330D03*
X26892136Y-146107864D03*
X23356602Y-149643398D03*
X18053301Y-165553301D03*
X12750000Y-160250000D03*
D12*
X202056810Y-23812500D03*
X202056810Y-26187500D03*
X200000000Y-27375000D03*
X197943190Y-26187500D03*
X197943190Y-23812500D03*
X200000000Y-22625000D03*
D13*
X200000000Y-25000000D03*
D12*
X202056810Y-163812500D03*
X202056810Y-166187500D03*
X200000000Y-167375000D03*
X197943190Y-166187500D03*
X197943190Y-163812500D03*
X200000000Y-162625000D03*
D13*
X200000000Y-165000000D03*
D12*
X16056810Y-23812500D03*
X16056810Y-26187500D03*
X14000000Y-27375000D03*
X11943190Y-26187500D03*
X11943190Y-23812500D03*
X14000000Y-22625000D03*
D13*
X14000000Y-25000000D03*
D12*
X10056810Y-163812500D03*
X10056810Y-166187500D03*
X8000000Y-167375000D03*
X5943190Y-166187500D03*
X5943190Y-163812500D03*
X8000000Y-162625000D03*
D13*
X8000000Y-165000000D03*
D11*
X138769030Y-44374369D03*
X142304564Y-40838835D03*
X145840097Y-37303301D03*
X144072330Y-49677670D03*
X147607864Y-46142136D03*
X151143398Y-42606602D03*
X156446699Y-26696699D03*
X161750000Y-32000000D03*
X94269030Y-44374369D03*
X97804564Y-40838835D03*
X101340097Y-37303301D03*
X99572330Y-49677670D03*
X103107864Y-46142136D03*
X106643398Y-42606602D03*
X111946699Y-26696699D03*
X117250000Y-32000000D03*
X166980970Y-148375631D03*
X163445436Y-151911165D03*
X159909903Y-155446699D03*
X161677670Y-143072330D03*
X158142136Y-146607864D03*
X154606602Y-150143398D03*
X149303301Y-166053301D03*
X144000000Y-160750000D03*
X123230970Y-147875631D03*
X119695436Y-151411165D03*
X116159903Y-154946699D03*
X117927670Y-142572330D03*
X114392136Y-146107864D03*
X110856602Y-149643398D03*
X105553301Y-165553301D03*
X100250000Y-160250000D03*
X80480970Y-147625631D03*
X76945436Y-151161165D03*
X73409903Y-154696699D03*
X75177670Y-142322330D03*
X71642136Y-145857864D03*
X68106602Y-149393398D03*
X62803301Y-165303301D03*
X57500000Y-160000000D03*
X5519030Y-44624369D03*
X9054564Y-41088835D03*
X12590097Y-37553301D03*
X10822330Y-49927670D03*
X14357864Y-46392136D03*
X17893398Y-42856602D03*
X23196699Y-26946699D03*
X28500000Y-32250000D03*
D14*
X170250000Y-24250000D03*
X172750000Y-24250000D03*
X175250000Y-24250000D03*
X177750000Y-24250000D03*
X180250000Y-24250000D03*
X182750000Y-24250000D03*
X185250000Y-24250000D03*
D15*
X187750000Y-24250000D03*
D12*
X4785850Y-28515227D03*
X5886108Y-24586541D03*
X543209Y-24272586D03*
X3057681Y-21758114D03*
X6200063Y-29929440D03*
X4471894Y-23172328D03*
X8714535Y-27414969D03*
X1800445Y-23015350D03*
X6043086Y-27257991D03*
X7457299Y-28672204D03*
X3371636Y-27101013D03*
X4628872Y-25843777D03*
X3214658Y-24429564D03*
D16*
X4747666Y-25838120D03*
D17*
G36*
X-555635Y-24070353D02*
G01*
X2979899Y-20534819D01*
X10050967Y-27605887D01*
X6515433Y-31141421D01*
X-555635Y-24070353D01*
X-555635Y-24070353D01*
G37*
D12*
X1957423Y-25686800D03*
X7300321Y-26000755D03*
D18*
X1000000Y-31000000D03*
D17*
G36*
X-3242641Y-29585786D02*
G01*
X-414214Y-26757359D01*
X5242641Y-32414214D01*
X2414214Y-35242641D01*
X-3242641Y-29585786D01*
X-3242641Y-29585786D01*
G37*
D16*
X-4161880Y-34747666D03*
D17*
G36*
X-9465181Y-32979899D02*
G01*
X-5929647Y-29444365D01*
X1141421Y-36515433D01*
X-2394113Y-40050967D01*
X-9465181Y-32979899D01*
X-9465181Y-32979899D01*
G37*
D12*
X-4280673Y-34753323D03*
X-6952123Y-34596345D03*
X-5537909Y-36010559D03*
X-1609224Y-34910300D03*
X-5694887Y-33339109D03*
X-7109101Y-31924896D03*
X-195010Y-36324514D03*
X-4437651Y-32081873D03*
X-5851865Y-30667660D03*
X-8366336Y-33182132D03*
X-2866460Y-36167536D03*
X-3023438Y-33496087D03*
X-1452246Y-37581750D03*
X-2709482Y-38838986D03*
X-4123696Y-37424772D03*
X-5734773Y-153714150D03*
X-9663459Y-152613892D03*
X-9977414Y-157956791D03*
X-12491886Y-155442319D03*
X-4320560Y-152299937D03*
X-11077672Y-154028106D03*
X-6835031Y-149785465D03*
X-11234650Y-156699555D03*
X-6992009Y-152456914D03*
X-5577796Y-151042701D03*
X-7148987Y-155128364D03*
X-8406223Y-153871128D03*
X-9820436Y-155285342D03*
D16*
X-8411880Y-153752334D03*
D17*
G36*
X-10179647Y-159055635D02*
G01*
X-13715181Y-155520101D01*
X-6644113Y-148449033D01*
X-3108579Y-151984567D01*
X-10179647Y-159055635D01*
X-10179647Y-159055635D01*
G37*
D12*
X-8563200Y-156542577D03*
X-8249245Y-151199679D03*
D18*
X-3250000Y-157500000D03*
D17*
G36*
X-4664214Y-161742641D02*
G01*
X-7492641Y-158914214D01*
X-1835786Y-153257359D01*
X992641Y-156085786D01*
X-4664214Y-161742641D01*
X-4664214Y-161742641D01*
G37*
D16*
X497666Y-162661880D03*
D17*
G36*
X-1270101Y-167965181D02*
G01*
X-4805635Y-164429647D01*
X2265433Y-157358579D01*
X5800967Y-160894113D01*
X-1270101Y-167965181D01*
X-1270101Y-167965181D01*
G37*
D12*
X503323Y-162780673D03*
X346345Y-165452123D03*
X1760559Y-164037909D03*
X660300Y-160109224D03*
X-910891Y-164194887D03*
X-2325104Y-165609101D03*
X2074514Y-158695010D03*
X-2168127Y-162937651D03*
X-3582340Y-164351865D03*
X-1067868Y-166866336D03*
X1917536Y-161366460D03*
X-753913Y-161523438D03*
X3331750Y-159952246D03*
X4588986Y-161209482D03*
X3174772Y-162623696D03*
D19*
X190000000Y-32000000D03*
D20*
X190000000Y-29500000D03*
D12*
X204000000Y-39000000D03*
X185985281Y-137014719D03*
X183156854Y-139843146D03*
X180328427Y-142671573D03*
X188813708Y-134186292D03*
X177500000Y-145500000D03*
X185985281Y-60485281D03*
X183156854Y-57656854D03*
X180328427Y-54828427D03*
X188813708Y-63313708D03*
X177500000Y-52000000D03*
X170985281Y-76485281D03*
X168156854Y-73656854D03*
X165328427Y-70828427D03*
X173813708Y-79313708D03*
X162500000Y-68000000D03*
X184985281Y-82514719D03*
X182156854Y-85343146D03*
X179328427Y-88171573D03*
X187813708Y-79686292D03*
X176500000Y-91000000D03*
X186485281Y-116485281D03*
X183656854Y-113656854D03*
X180828427Y-110828427D03*
X189313708Y-119313708D03*
X178000000Y-108000000D03*
X170485281Y-132985281D03*
X167656854Y-130156854D03*
X164828427Y-127328427D03*
X173313708Y-135813708D03*
X162000000Y-124500000D03*
X5485281Y-112985281D03*
X2656854Y-110156854D03*
X-171573Y-107328427D03*
X8313708Y-115813708D03*
X-3000000Y-104500000D03*
X122485281Y-71985281D03*
X119656854Y-69156854D03*
X116828427Y-66328427D03*
X125313708Y-74813708D03*
X114000000Y-63500000D03*
X152985281Y-94514719D03*
X150156854Y-97343146D03*
X147328427Y-100171573D03*
X155813708Y-91686292D03*
X144500000Y-103000000D03*
X136485281Y-79014719D03*
X133656854Y-81843146D03*
X130828427Y-84671573D03*
X139313708Y-76186292D03*
X128000000Y-87500000D03*
X138485281Y-113985281D03*
X135656854Y-111156854D03*
X132828427Y-108328427D03*
X141313708Y-116813708D03*
X130000000Y-105500000D03*
X117014719Y-123514719D03*
X119843146Y-126343146D03*
X122671573Y-129171573D03*
X114186292Y-120686292D03*
X125500000Y-132000000D03*
X108985281Y-95014719D03*
X106156854Y-97843146D03*
X103328427Y-100671573D03*
X111813708Y-92186292D03*
X100500000Y-103500000D03*
X92485281Y-79514719D03*
X89656854Y-82343146D03*
X86828427Y-85171573D03*
X95313708Y-76686292D03*
X84000000Y-88000000D03*
X73014719Y-66514719D03*
X75843146Y-69343146D03*
X78671573Y-72171573D03*
X70186292Y-63686292D03*
X81500000Y-75000000D03*
X63485281Y-95014719D03*
X60656854Y-97843146D03*
X57828427Y-100671573D03*
X66313708Y-92186292D03*
X55000000Y-103500000D03*
X94985281Y-113485281D03*
X92156854Y-110656854D03*
X89328427Y-107828427D03*
X97813708Y-116313708D03*
X86500000Y-105000000D03*
X33985281Y-129485281D03*
X31156854Y-126656854D03*
X28328427Y-123828427D03*
X36813708Y-132313708D03*
X25500000Y-121000000D03*
X42500000Y-84000000D03*
X45500000Y-81500000D03*
X51500000Y-77000000D03*
X39000000Y-87000000D03*
X48500000Y-79000000D03*
X190500000Y-159500000D03*
X195500000Y-155000000D03*
X187250000Y-32750000D03*
X184500000Y-27750000D03*
X-13500000Y-21500000D03*
X-10960000Y-21500000D03*
X-8420000Y-21500000D03*
X-5880000Y-21500000D03*
X-3340000Y-21500000D03*
X-800000Y-21500000D03*
X1740000Y-21500000D03*
X4280000Y-21500000D03*
X6820000Y-21500000D03*
X9360000Y-21500000D03*
X11900000Y-21500000D03*
X14440000Y-21500000D03*
X16980000Y-21500000D03*
X19520000Y-21500000D03*
X22060000Y-21500000D03*
X24600000Y-21500000D03*
X27140000Y-21500000D03*
X29680000Y-21500000D03*
X32220000Y-21500000D03*
X34760000Y-21500000D03*
X37300000Y-21500000D03*
X39840000Y-21500000D03*
X42380000Y-21500000D03*
X44920000Y-21500000D03*
X47460000Y-21500000D03*
X50000000Y-21500000D03*
X52540000Y-21500000D03*
X55080000Y-21500000D03*
X57620000Y-21500000D03*
X60160000Y-21500000D03*
X62700000Y-21500000D03*
X65240000Y-21500000D03*
X67780000Y-21500000D03*
X70320000Y-21500000D03*
X72860000Y-21500000D03*
X75400000Y-21500000D03*
X77940000Y-21500000D03*
X80480000Y-21500000D03*
X83020000Y-21500000D03*
X85560000Y-21500000D03*
X88100000Y-21500000D03*
X90640000Y-21500000D03*
X93180000Y-21500000D03*
X95720000Y-21500000D03*
X98260000Y-21500000D03*
X100800000Y-21500000D03*
X103340000Y-21500000D03*
X105880000Y-21500000D03*
X108420000Y-21500000D03*
X110960000Y-21500000D03*
X113500000Y-21500000D03*
X116040000Y-21500000D03*
X118580000Y-21500000D03*
X121120000Y-21500000D03*
X123660000Y-21500000D03*
X126200000Y-21500000D03*
X128740000Y-21500000D03*
X131280000Y-21500000D03*
X133820000Y-21500000D03*
X136360000Y-21500000D03*
X138900000Y-21500000D03*
X141440000Y-21500000D03*
X143980000Y-21500000D03*
X146520000Y-21500000D03*
X149060000Y-21500000D03*
X151600000Y-21500000D03*
X154140000Y-21500000D03*
X156680000Y-21500000D03*
X159220000Y-21500000D03*
X161760000Y-21500000D03*
X164300000Y-21500000D03*
X194500000Y-21500000D03*
X197500000Y-21500000D03*
X203000000Y-28500000D03*
X203000000Y-33000000D03*
X-13500000Y-24500000D03*
X-13500000Y-27500000D03*
X-13500000Y-30000000D03*
X-13500000Y-32500000D03*
X-13500000Y-35000000D03*
X-13500000Y-37500000D03*
X-13500000Y-40000000D03*
X-13500000Y-42500000D03*
X-13500000Y-45000000D03*
X-13500000Y-47500000D03*
X-13500000Y-49500000D03*
X-13500000Y-62500000D03*
X-13500000Y-65000000D03*
X-13500000Y-67500000D03*
X-13500000Y-70000000D03*
X-13500000Y-72500000D03*
X-13500000Y-75000000D03*
X-13500000Y-77500000D03*
X-13500000Y-80000000D03*
X-13500000Y-82500000D03*
X-13500000Y-85000000D03*
X-13500000Y-87500000D03*
X-13500000Y-90000000D03*
X-13500000Y-92500000D03*
X-13500000Y-95000000D03*
X-13500000Y-97500000D03*
X-13500000Y-100000000D03*
X-13500000Y-102500000D03*
X-13500000Y-105000000D03*
X-13500000Y-120000000D03*
X-13500000Y-122500000D03*
X-13500000Y-125000000D03*
X-13500000Y-127500000D03*
X-13500000Y-130000000D03*
X-13500000Y-132500000D03*
X-13500000Y-135000000D03*
X-13500000Y-137500000D03*
X-13500000Y-140000000D03*
X-13500000Y-142500000D03*
X-13500000Y-145000000D03*
X-13500000Y-147500000D03*
X-13500000Y-150000000D03*
X-13500000Y-152500000D03*
X-13500000Y-158000000D03*
X-13500000Y-160500000D03*
X-13500000Y-163000000D03*
X-13500000Y-165500000D03*
X-13500000Y-168000000D03*
X-11500000Y-168500000D03*
X-9000000Y-168500000D03*
X-6500000Y-168500000D03*
X-4000000Y-168500000D03*
X1500000Y-168500000D03*
X12500000Y-168500000D03*
X196500000Y-31500000D03*
X198500000Y-33500000D03*
X201500000Y-36500000D03*
X194500000Y-29500000D03*
X194000000Y-34000000D03*
X196000000Y-36000000D03*
X198000000Y-38000000D03*
X201000000Y-41000000D03*
X202500000Y-42500000D03*
X20000000Y-37500000D03*
X22500000Y-37500000D03*
X25000000Y-37500000D03*
X27500000Y-37500000D03*
X30000000Y-37500000D03*
X32500000Y-37500000D03*
X35000000Y-37500000D03*
X37000000Y-36000000D03*
X38500000Y-34500000D03*
X20000000Y-48000000D03*
X22500000Y-48000000D03*
X25000000Y-48000000D03*
X27500000Y-48000000D03*
X30000000Y-48000000D03*
X32500000Y-48000000D03*
X35000000Y-48000000D03*
X37500000Y-48000000D03*
X41000000Y-48000000D03*
X42500000Y-46500000D03*
X43500000Y-45000000D03*
X64500000Y-48000000D03*
X67500000Y-48000000D03*
X69500000Y-48000000D03*
X72500000Y-48000000D03*
X75000000Y-48000000D03*
X77500000Y-48000000D03*
X80000000Y-48000000D03*
X82000000Y-48000000D03*
X84000000Y-48000000D03*
X86500000Y-45500000D03*
X65500000Y-37500000D03*
X68000000Y-37500000D03*
X70500000Y-37500000D03*
X73000000Y-37500000D03*
X75500000Y-37500000D03*
X78000000Y-37500000D03*
X80000000Y-36500000D03*
X82000000Y-35000000D03*
X83500000Y-33500000D03*
X63500000Y-36500000D03*
X62000000Y-35000000D03*
X59500000Y-33500000D03*
X56000000Y-33000000D03*
X53500000Y-33500000D03*
X47000000Y-50000000D03*
X49000000Y-52500000D03*
X51000000Y-54500000D03*
X55500000Y-55000000D03*
X59000000Y-54500000D03*
X61500000Y-51500000D03*
X90000000Y-47000000D03*
X91500000Y-49000000D03*
X93500000Y-51500000D03*
X96500000Y-54000000D03*
X101000000Y-54500000D03*
X106000000Y-50500000D03*
X111000000Y-47500000D03*
X116000000Y-47500000D03*
X121500000Y-47500000D03*
X125000000Y-43500000D03*
X129000000Y-40000000D03*
X131500000Y-45000000D03*
X135000000Y-48000000D03*
X139000000Y-52000000D03*
X144500000Y-54500000D03*
X149500000Y-51500000D03*
X154500000Y-50000000D03*
X159500000Y-50000000D03*
X165000000Y-50000000D03*
X170500000Y-50000000D03*
X175500000Y-50000000D03*
X180500000Y-50000000D03*
X185500000Y-50000000D03*
X188500000Y-48000000D03*
X156500000Y-38500000D03*
X161000000Y-38500000D03*
X166000000Y-38000000D03*
X170500000Y-38500000D03*
X109000000Y-36500000D03*
X114500000Y-36500000D03*
X-3500000Y-43500000D03*
X-1000000Y-46000000D03*
X1000000Y-48500000D03*
X3500000Y-51000000D03*
X8000000Y-54000000D03*
X15000000Y-54500000D03*
X18000000Y-51000000D03*
X10500000Y-31500000D03*
X14500000Y-32000000D03*
X17500000Y-35000000D03*
X195500000Y-50000000D03*
X195500000Y-55080000D03*
X195500000Y-60160000D03*
X195500000Y-65240000D03*
X195500000Y-70320000D03*
X195500000Y-75400000D03*
X195500000Y-80480000D03*
X195500000Y-105880000D03*
X195500000Y-110960000D03*
X195500000Y-116040000D03*
X195500000Y-121120000D03*
X195500000Y-126200000D03*
X195500000Y-131280000D03*
X195500000Y-136360000D03*
X11500000Y-103000000D03*
X14500000Y-100500000D03*
X17500000Y-98000000D03*
X20500000Y-95000000D03*
X23500000Y-92000000D03*
X7000000Y-75500000D03*
X4000000Y-77500000D03*
X1000000Y-80000000D03*
X-2000000Y-82500000D03*
X26000000Y-64000000D03*
X28828427Y-66828427D03*
X31656854Y-69656854D03*
X34485281Y-72485281D03*
X37313708Y-75313708D03*
X73014719Y-123014719D03*
X75843146Y-125843146D03*
X78671573Y-128671573D03*
X70186292Y-120186292D03*
X81500000Y-131500000D03*
X50485281Y-113485281D03*
X47656854Y-110656854D03*
X44828427Y-107828427D03*
X53313708Y-116313708D03*
X42000000Y-105000000D03*
D21*
X195500000Y-102000000D03*
X-4500000Y-85500000D03*
X189500000Y-164487990D03*
X202500000Y-160000000D03*
X188512010Y-164487990D03*
X203635011Y-158864989D03*
D12*
X174500000Y-35999976D03*
X174414818Y-35287769D03*
X175643137Y-35356863D03*
X175750000Y-35999976D03*
X177000000Y-35250000D03*
X177342157Y-35999976D03*
X179250606Y-35186968D03*
X178251144Y-35186968D03*
D22*
X153250000Y-160750000D02*
X156987990Y-164487990D01*
X144000000Y-160750000D02*
X153250000Y-160750000D01*
X156987990Y-164487990D02*
X189500000Y-164487990D01*
X191800000Y-29500000D02*
X203635011Y-41335011D01*
X202999999Y-159500001D02*
X202500000Y-160000000D01*
X203635011Y-158864989D02*
X202999999Y-159500001D01*
X203635011Y-41335011D02*
X203635011Y-158864989D01*
X190000000Y-29500000D02*
X191800000Y-29500000D01*
D23*
X174500000Y-35999976D02*
X174500000Y-35372951D01*
X23196699Y-26946699D02*
X25720711Y-29470711D01*
X174500000Y-35372951D02*
X174414818Y-35287769D01*
X25720711Y-29470711D02*
X117510516Y-29470711D01*
X158860985Y-30639011D02*
X160136265Y-29363732D01*
X168490781Y-29363732D02*
X174014819Y-34887770D01*
X174014819Y-34887770D02*
X174414818Y-35287769D01*
X118678813Y-30639010D02*
X158860985Y-30639011D01*
X160136265Y-29363732D02*
X168490781Y-29363732D01*
X117510516Y-29470711D02*
X118678813Y-30639010D01*
X190098448Y-165750000D02*
X156250000Y-165750000D01*
X145149524Y-162390278D02*
X144904801Y-162635001D01*
X156250000Y-165750000D02*
X152890278Y-162390278D01*
X199832967Y-156015481D02*
X190098448Y-165750000D01*
X21471601Y-162135001D02*
X19303300Y-164303302D01*
X19303300Y-164303302D02*
X18053301Y-165553301D01*
X143095199Y-162635001D02*
X142595199Y-162135001D01*
X142595199Y-162135001D02*
X21471601Y-162135001D01*
X144904801Y-162635001D02*
X143095199Y-162635001D01*
X152890278Y-162390278D02*
X145149524Y-162390278D01*
X199832967Y-48332967D02*
X199832967Y-60167033D01*
X199832967Y-60167033D02*
X199832967Y-156015481D01*
X174500000Y-35999976D02*
X174500000Y-36565661D01*
X199832967Y-57604717D02*
X199832967Y-60167033D01*
X174500000Y-36565661D02*
X175934339Y-38000000D01*
X175934339Y-38000000D02*
X189500000Y-38000000D01*
X189500000Y-38000000D02*
X199832967Y-48332967D01*
X169326680Y-28474721D02*
X175643137Y-34791178D01*
X175643137Y-35922548D02*
X175643137Y-35356863D01*
X67696699Y-26946699D02*
X69331700Y-28581700D01*
X159768024Y-28474721D02*
X169326680Y-28474721D01*
X175643137Y-34791178D02*
X175643137Y-35356863D01*
X158492745Y-29750000D02*
X159768024Y-28474721D01*
X119047054Y-29750000D02*
X158492745Y-29750000D01*
X117878755Y-28581700D02*
X119047054Y-29750000D01*
X69331700Y-28581700D02*
X117878755Y-28581700D01*
X155881760Y-166639011D02*
X152522038Y-163279289D01*
X189868240Y-37110989D02*
X200721978Y-47964727D01*
X176861013Y-37110989D02*
X189868240Y-37110989D01*
X190466687Y-166639011D02*
X155881760Y-166639011D01*
X152522038Y-163279289D02*
X145517764Y-163279289D01*
X175750000Y-35999976D02*
X176861013Y-37110989D01*
X145517764Y-163279289D02*
X145273041Y-163524012D01*
X64582590Y-163524012D02*
X64053300Y-164053302D01*
X145273041Y-163524012D02*
X64582590Y-163524012D01*
X200721978Y-156383720D02*
X190466687Y-166639011D01*
X200721978Y-47964727D02*
X200721978Y-156383720D01*
X64053300Y-164053302D02*
X62803301Y-165303301D01*
X176600001Y-34289794D02*
X169895917Y-27585710D01*
X177000000Y-35250000D02*
X176600001Y-34850001D01*
X176600001Y-34850001D02*
X176600001Y-34289794D01*
X119415294Y-28860989D02*
X117251004Y-26696699D01*
X117251004Y-26696699D02*
X113714465Y-26696699D01*
X158124505Y-28860989D02*
X119415294Y-28860989D01*
X159399784Y-27585710D02*
X158124505Y-28860989D01*
X113714465Y-26696699D02*
X111946699Y-26696699D01*
X169895917Y-27585710D02*
X159399784Y-27585710D01*
X144501003Y-165553301D02*
X107321067Y-165553301D01*
X152153798Y-164168300D02*
X145886004Y-164168300D01*
X177000000Y-35815685D02*
X177406293Y-36221978D01*
X107321067Y-165553301D02*
X105553301Y-165553301D01*
X155513520Y-167528022D02*
X152153798Y-164168300D01*
X190834927Y-167528022D02*
X155513520Y-167528022D01*
X201610989Y-156751960D02*
X190834927Y-167528022D01*
X201610989Y-47596487D02*
X201610989Y-156751960D01*
X190236481Y-36221979D02*
X201610989Y-47596487D01*
X145886004Y-164168300D02*
X144501003Y-165553301D01*
X177406293Y-36221978D02*
X190236481Y-36221979D01*
X177000000Y-35250000D02*
X177000000Y-35815685D01*
X156446699Y-26696699D02*
X170326560Y-26696699D01*
X170326560Y-26696699D02*
X178251144Y-34621283D01*
X178251144Y-34621283D02*
X178251144Y-35186968D01*
X179250606Y-35186968D02*
X184186968Y-35186968D01*
X202500000Y-153500003D02*
X202500001Y-153500004D01*
X202500000Y-157120198D02*
X190620198Y-169000000D01*
X202500000Y-153500003D02*
X202500000Y-157120198D01*
X152250000Y-169000000D02*
X149303301Y-166053301D01*
X190620198Y-169000000D02*
X152250000Y-169000000D01*
X190458720Y-35186968D02*
X202500000Y-47228248D01*
X178251144Y-35186968D02*
X190458720Y-35186968D01*
X202500000Y-47228248D02*
X202500000Y-153500003D01*
D24*
X32195436Y-151411164D02*
X26892136Y-146107864D01*
X32195436Y-151411165D02*
X32195436Y-151411164D01*
X26892136Y-146107864D02*
X25642137Y-144857865D01*
X25642137Y-144857865D02*
X9392135Y-144857865D01*
X9392135Y-144857865D02*
X-350863Y-154600863D01*
X-350863Y-154600863D02*
X-3250000Y-157500000D01*
D25*
X1000000Y-31000000D02*
X6521069Y-36521069D01*
X6521069Y-36521069D02*
X6521069Y-38555341D01*
X6521069Y-38555341D02*
X13107865Y-45142137D01*
X13107865Y-45142137D02*
X14357864Y-46392136D01*
D24*
X10822330Y-49927670D02*
X1821068Y-40926408D01*
X1821068Y-40926408D02*
X1821068Y-40428932D01*
X46321068Y-40926408D02*
X46321068Y-40678932D01*
X55322330Y-49927670D02*
X46321068Y-40926408D01*
X99572330Y-49677670D02*
X99572330Y-49253418D01*
X99572330Y-49253418D02*
X90997853Y-40678941D01*
X144069806Y-49677670D02*
X134821068Y-40428932D01*
X144072330Y-49677670D02*
X144069806Y-49677670D01*
D26*
X182627068Y-44428932D02*
X152965728Y-44428932D01*
D24*
X145840097Y-37303301D02*
X151143398Y-42606602D01*
D26*
X152965728Y-44428932D02*
X151143398Y-42606602D01*
D24*
X76945436Y-151161164D02*
X71642136Y-145857864D01*
X76945436Y-151161165D02*
X76945436Y-151161164D01*
X23356602Y-149643398D02*
X28659903Y-154946699D01*
D25*
X30145075Y-156361175D02*
X28695252Y-154911352D01*
X66056241Y-144443389D02*
X54138455Y-156361175D01*
X28695252Y-154911352D02*
X28659903Y-154946699D01*
X54138455Y-156361175D02*
X30145075Y-156361175D01*
X70156963Y-144443389D02*
X66056241Y-144443389D01*
X71571438Y-145857864D02*
X70156963Y-144443389D01*
X71642136Y-145857864D02*
X71571438Y-145857864D01*
D24*
X12590097Y-37553301D02*
X17893398Y-42856602D01*
X17893398Y-42856602D02*
X37496580Y-42856602D01*
X57607865Y-45142137D02*
X58857864Y-46392136D01*
X48444650Y-35978922D02*
X57607865Y-45142137D01*
X37496580Y-42856602D02*
X44374260Y-35978922D01*
X44374260Y-35978922D02*
X48444650Y-35978922D01*
D25*
X37101242Y-42856602D02*
X18176254Y-42856602D01*
X51271078Y-38628571D02*
X48371429Y-35728922D01*
X48371429Y-35728922D02*
X44228922Y-35728922D01*
X53554564Y-41088835D02*
X52304565Y-39838836D01*
X51271078Y-38876048D02*
X51271078Y-38628571D01*
X52304565Y-39838836D02*
X52233866Y-39838836D01*
X18176254Y-42856602D02*
X18034826Y-42715174D01*
X44228922Y-35728922D02*
X37101242Y-42856602D01*
X52233866Y-39838836D02*
X51271078Y-38876048D01*
D24*
X119695436Y-151411164D02*
X114392136Y-146107864D01*
X119695436Y-151411165D02*
X119695436Y-151411164D01*
X68106602Y-149393398D02*
X73409903Y-154696699D01*
X113967884Y-146107864D02*
X114392136Y-146107864D01*
X112803410Y-144943390D02*
X113967884Y-146107864D01*
X106556610Y-144943390D02*
X112803410Y-144943390D01*
D25*
X95388825Y-156111175D02*
X106556610Y-144943390D01*
X74895075Y-156111175D02*
X95388825Y-156111175D01*
X73480599Y-154696699D02*
X74895075Y-156111175D01*
X73409903Y-154696699D02*
X73480599Y-154696699D01*
X106806611Y-144693389D02*
X95388825Y-156111175D01*
X112906963Y-144693389D02*
X106806611Y-144693389D01*
X114321438Y-146107864D02*
X112906963Y-144693389D01*
X114392136Y-146107864D02*
X114321438Y-146107864D01*
D24*
X57090097Y-37553301D02*
X62393398Y-42856602D01*
D25*
X88565067Y-35728931D02*
X93077069Y-35728931D01*
X95521069Y-38172931D02*
X95521069Y-38201787D01*
X95521069Y-38201787D02*
X96390088Y-39070806D01*
X93077069Y-35728931D02*
X95521069Y-38172931D01*
X81437396Y-42856602D02*
X88565067Y-35728931D01*
X62393398Y-42856602D02*
X81437396Y-42856602D01*
D24*
X101857865Y-44892137D02*
X103107864Y-46142136D01*
X88685067Y-35978931D02*
X92944659Y-35978931D01*
X62393398Y-42856602D02*
X81807396Y-42856602D01*
X81807396Y-42856602D02*
X88685067Y-35978931D01*
X92944659Y-35978931D02*
X101857865Y-44892137D01*
X158142136Y-146607865D02*
X163445436Y-151911165D01*
X158142136Y-146607864D02*
X158142136Y-146607865D01*
X110856602Y-149643398D02*
X116159903Y-154946699D01*
X158071438Y-146607864D02*
X156656963Y-145193389D01*
X158142136Y-146607864D02*
X158071438Y-146607864D01*
X156656963Y-145193389D02*
X153806611Y-145193389D01*
X153806611Y-145193389D02*
X151056611Y-145193389D01*
D25*
X116230599Y-154946699D02*
X116159903Y-154946699D01*
X117645075Y-156361175D02*
X116230599Y-154946699D01*
X139888825Y-156361175D02*
X117645075Y-156361175D01*
X151056611Y-145193389D02*
X139888825Y-156361175D01*
X162195437Y-150661166D02*
X163445436Y-151911165D01*
X156727661Y-145193389D02*
X162195437Y-150661166D01*
X151056611Y-145193389D02*
X156727661Y-145193389D01*
D24*
X101340097Y-37303301D02*
X106643398Y-42606602D01*
D25*
X135965729Y-34500000D02*
X126250000Y-34500000D01*
X126250000Y-34500000D02*
X118143398Y-42606602D01*
X142304564Y-40838835D02*
X135965729Y-34500000D01*
X118143398Y-42606602D02*
X106643398Y-42606602D01*
D24*
X142304564Y-40838836D02*
X147607864Y-46142136D01*
X142304564Y-40838835D02*
X142304564Y-40838836D01*
X145943389Y-44760517D02*
X147466436Y-46283564D01*
X142304564Y-40838836D02*
X145943389Y-44477661D01*
X145943389Y-44477661D02*
X145943389Y-44760517D01*
D22*
G36*
X201154128Y-163249224D02*
G01*
X201319460Y-163299377D01*
X201479088Y-163365497D01*
X201648545Y-163399204D01*
X201813880Y-163449358D01*
X201985823Y-163466293D01*
X202155280Y-163500000D01*
X202328056Y-163500000D01*
X202500000Y-163516935D01*
X202671944Y-163500000D01*
X202844720Y-163500000D01*
X203014177Y-163466293D01*
X203186120Y-163449358D01*
X203351455Y-163399204D01*
X203520912Y-163365497D01*
X203680540Y-163299377D01*
X203845872Y-163249224D01*
X203892000Y-163224568D01*
X203892000Y-168892000D01*
X195330048Y-168892000D01*
X201035977Y-163186071D01*
X201154128Y-163249224D01*
X201154128Y-163249224D01*
G37*
X201154128Y-163249224D02*
X201319460Y-163299377D01*
X201479088Y-163365497D01*
X201648545Y-163399204D01*
X201813880Y-163449358D01*
X201985823Y-163466293D01*
X202155280Y-163500000D01*
X202328056Y-163500000D01*
X202500000Y-163516935D01*
X202671944Y-163500000D01*
X202844720Y-163500000D01*
X203014177Y-163466293D01*
X203186120Y-163449358D01*
X203351455Y-163399204D01*
X203520912Y-163365497D01*
X203680540Y-163299377D01*
X203845872Y-163249224D01*
X203892000Y-163224568D01*
X203892000Y-168892000D01*
X195330048Y-168892000D01*
X201035977Y-163186071D01*
X201154128Y-163249224D01*
G36*
X167779832Y-21240091D02*
G01*
X167240091Y-21779832D01*
X166816020Y-22414499D01*
X166523915Y-23119704D01*
X166459667Y-23442699D01*
X159203107Y-23442699D01*
X159155916Y-23395508D01*
X158459829Y-22930398D01*
X157686378Y-22610024D01*
X156865287Y-22446699D01*
X156028111Y-22446699D01*
X155207020Y-22610024D01*
X154433569Y-22930398D01*
X153737482Y-23395508D01*
X153145508Y-23987482D01*
X152680398Y-24683569D01*
X152360024Y-25457020D01*
X152330193Y-25606989D01*
X120763144Y-25606989D01*
X119664964Y-24508809D01*
X119563062Y-24384641D01*
X119067576Y-23978006D01*
X118502281Y-23675849D01*
X117888899Y-23489782D01*
X117410856Y-23442699D01*
X117410846Y-23442699D01*
X117251004Y-23426956D01*
X117091162Y-23442699D01*
X114703107Y-23442699D01*
X114655916Y-23395508D01*
X113959829Y-22930398D01*
X113186378Y-22610024D01*
X112365287Y-22446699D01*
X111528111Y-22446699D01*
X110707020Y-22610024D01*
X109933569Y-22930398D01*
X109237482Y-23395508D01*
X108645508Y-23987482D01*
X108180398Y-24683569D01*
X107913590Y-25327700D01*
X71626254Y-25327700D01*
X71463000Y-24933569D01*
X70997890Y-24237482D01*
X70405916Y-23645508D01*
X69709829Y-23180398D01*
X68936378Y-22860024D01*
X68115287Y-22696699D01*
X67278111Y-22696699D01*
X66457020Y-22860024D01*
X65683569Y-23180398D01*
X64987482Y-23645508D01*
X64395508Y-24237482D01*
X63930398Y-24933569D01*
X63610024Y-25707020D01*
X63508640Y-26216711D01*
X27384758Y-26216711D01*
X27283374Y-25707020D01*
X26963000Y-24933569D01*
X26497890Y-24237482D01*
X25905916Y-23645508D01*
X25209829Y-23180398D01*
X24436378Y-22860024D01*
X23615287Y-22696699D01*
X22778111Y-22696699D01*
X21957020Y-22860024D01*
X21183569Y-23180398D01*
X20487482Y-23645508D01*
X19895508Y-24237482D01*
X19430398Y-24933569D01*
X19110024Y-25707020D01*
X18946699Y-26528111D01*
X18946699Y-27365287D01*
X19110024Y-28186378D01*
X19430398Y-28959829D01*
X19895508Y-29655916D01*
X20487482Y-30247890D01*
X21183569Y-30713000D01*
X21957020Y-31033374D01*
X22778111Y-31196699D01*
X22844848Y-31196699D01*
X23306755Y-31658606D01*
X23408653Y-31782769D01*
X23532816Y-31884667D01*
X23532817Y-31884668D01*
X23649784Y-31980660D01*
X23904139Y-32189404D01*
X24250000Y-32374271D01*
X24250000Y-32668588D01*
X24413325Y-33489679D01*
X24733699Y-34263130D01*
X25198809Y-34959217D01*
X25790783Y-35551191D01*
X26486870Y-36016301D01*
X27260321Y-36336675D01*
X28081412Y-36500000D01*
X28918588Y-36500000D01*
X29739679Y-36336675D01*
X30513130Y-36016301D01*
X31209217Y-35551191D01*
X31801191Y-34959217D01*
X32266301Y-34263130D01*
X32586675Y-33489679D01*
X32738836Y-32724711D01*
X40515618Y-32724711D01*
X35133729Y-38106602D01*
X19507359Y-38106602D01*
X15615761Y-34215005D01*
X15102259Y-33793585D01*
X14320504Y-33375727D01*
X13472251Y-33118413D01*
X12590097Y-33031529D01*
X11707943Y-33118413D01*
X10859690Y-33375727D01*
X10320905Y-33663714D01*
X9896078Y-33146060D01*
X9714824Y-32997310D01*
X8049273Y-31331759D01*
X8027690Y-31260609D01*
X7749119Y-30739439D01*
X7374225Y-30282630D01*
X1717370Y-24625775D01*
X1260561Y-24250881D01*
X739391Y-23972310D01*
X173889Y-23800767D01*
X-414214Y-23742844D01*
X-1002317Y-23800767D01*
X-1567819Y-23972310D01*
X-2088989Y-24250881D01*
X-2545798Y-24625775D01*
X-5374225Y-27454202D01*
X-5749119Y-27911011D01*
X-6027690Y-28432181D01*
X-6199233Y-28997683D01*
X-6257156Y-29585786D01*
X-6199233Y-30173889D01*
X-6027690Y-30739391D01*
X-5749119Y-31260561D01*
X-5374225Y-31717370D01*
X-515980Y-36575615D01*
X-691093Y-36669215D01*
X-1376308Y-37231556D01*
X-1938649Y-37916770D01*
X-2356506Y-38698524D01*
X-2613820Y-39546778D01*
X-2678932Y-40207868D01*
X-2678932Y-40705352D01*
X-2700704Y-40926408D01*
X-2678932Y-41147464D01*
X-2678932Y-41147471D01*
X-2627922Y-41665377D01*
X-2613820Y-41808562D01*
X-2440484Y-42379975D01*
X-2356506Y-42656815D01*
X-1938649Y-43438570D01*
X-1376308Y-44123784D01*
X-1204593Y-44264707D01*
X7796665Y-53265966D01*
X8310167Y-53687386D01*
X9091922Y-54105244D01*
X9940175Y-54362558D01*
X10822330Y-54449442D01*
X11449150Y-54387706D01*
X27778932Y-54387706D01*
X27778932Y-55254430D01*
X27948021Y-56104501D01*
X28279702Y-56905250D01*
X28761229Y-57625905D01*
X29374095Y-58238771D01*
X30094750Y-58720298D01*
X30895499Y-59051979D01*
X31745570Y-59221068D01*
X32612294Y-59221068D01*
X33462365Y-59051979D01*
X34263114Y-58720298D01*
X34983769Y-58238771D01*
X35596635Y-57625905D01*
X36078162Y-56905250D01*
X36409843Y-56104501D01*
X36578932Y-55254430D01*
X36578932Y-54387706D01*
X36409843Y-53537635D01*
X36078162Y-52736886D01*
X35596635Y-52016231D01*
X34983769Y-51403365D01*
X34263114Y-50921838D01*
X33462365Y-50590157D01*
X32612294Y-50421068D01*
X31745570Y-50421068D01*
X30895499Y-50590157D01*
X30094750Y-50921838D01*
X29374095Y-51403365D01*
X28761229Y-52016231D01*
X28279702Y-52736886D01*
X27948021Y-53537635D01*
X27778932Y-54387706D01*
X11449150Y-54387706D01*
X11704484Y-54362558D01*
X12552737Y-54105244D01*
X13334492Y-53687386D01*
X14019706Y-53125046D01*
X14582046Y-52439832D01*
X14999904Y-51658077D01*
X15173819Y-51084754D01*
X15289027Y-51073407D01*
X16184405Y-50801797D01*
X17009591Y-50360726D01*
X17732872Y-49767144D01*
X18326454Y-49043863D01*
X18767525Y-48218677D01*
X18953196Y-47606602D01*
X36867893Y-47606602D01*
X37101242Y-47629585D01*
X37334591Y-47606602D01*
X38032405Y-47537873D01*
X38927784Y-47266263D01*
X39752969Y-46825192D01*
X40005129Y-46618250D01*
X40008742Y-46616319D01*
X40693956Y-46053978D01*
X40834879Y-45882263D01*
X42884642Y-43832501D01*
X43123692Y-44123784D01*
X43295407Y-44264707D01*
X52296665Y-53265966D01*
X52810167Y-53687386D01*
X53591922Y-54105244D01*
X54440175Y-54362558D01*
X55322330Y-54449442D01*
X56204484Y-54362558D01*
X56945723Y-54137706D01*
X72278932Y-54137706D01*
X72278932Y-55004430D01*
X72448021Y-55854501D01*
X72779702Y-56655250D01*
X73261229Y-57375905D01*
X73874095Y-57988771D01*
X74594750Y-58470298D01*
X75395499Y-58801979D01*
X76245570Y-58971068D01*
X77112294Y-58971068D01*
X77962365Y-58801979D01*
X78763114Y-58470298D01*
X79483769Y-57988771D01*
X80096635Y-57375905D01*
X80578162Y-56655250D01*
X80909843Y-55854501D01*
X81078932Y-55004430D01*
X81078932Y-54137706D01*
X80909843Y-53287635D01*
X80578162Y-52486886D01*
X80096635Y-51766231D01*
X79483769Y-51153365D01*
X78763114Y-50671838D01*
X77962365Y-50340157D01*
X77112294Y-50171068D01*
X76245570Y-50171068D01*
X75395499Y-50340157D01*
X74594750Y-50671838D01*
X73874095Y-51153365D01*
X73261229Y-51766231D01*
X72779702Y-52486886D01*
X72448021Y-53287635D01*
X72278932Y-54137706D01*
X56945723Y-54137706D01*
X57052737Y-54105244D01*
X57834492Y-53687386D01*
X58519706Y-53125046D01*
X59082046Y-52439832D01*
X59499904Y-51658077D01*
X59753215Y-50823021D01*
X60588271Y-50569710D01*
X61370026Y-50151852D01*
X62055240Y-49589512D01*
X62617580Y-48904298D01*
X63035438Y-48122543D01*
X63191947Y-47606602D01*
X81204047Y-47606602D01*
X81437396Y-47629585D01*
X81670745Y-47606602D01*
X82368559Y-47537873D01*
X83263938Y-47266263D01*
X84089123Y-46825192D01*
X84812405Y-46231611D01*
X84862078Y-46171084D01*
X85004772Y-46053978D01*
X85145695Y-45882263D01*
X87508012Y-43519947D01*
X87659557Y-43704605D01*
X90825476Y-46870524D01*
X90967839Y-47083586D01*
X91559813Y-47675560D01*
X91772875Y-47817923D01*
X95431189Y-51476237D01*
X95812613Y-52189832D01*
X96374954Y-52875046D01*
X97060168Y-53437387D01*
X97841922Y-53855244D01*
X98690176Y-54112558D01*
X99572330Y-54199443D01*
X100199152Y-54137706D01*
X116278932Y-54137706D01*
X116278932Y-55004430D01*
X116448021Y-55854501D01*
X116779702Y-56655250D01*
X117261229Y-57375905D01*
X117874095Y-57988771D01*
X118594750Y-58470298D01*
X119395499Y-58801979D01*
X120245570Y-58971068D01*
X121112294Y-58971068D01*
X121962365Y-58801979D01*
X122763114Y-58470298D01*
X123260872Y-58137706D01*
X164084932Y-58137706D01*
X164084932Y-59004430D01*
X164254021Y-59854501D01*
X164585702Y-60655250D01*
X165067229Y-61375905D01*
X165680095Y-61988771D01*
X166400750Y-62470298D01*
X167201499Y-62801979D01*
X168051570Y-62971068D01*
X168918294Y-62971068D01*
X169768365Y-62801979D01*
X170569114Y-62470298D01*
X171289769Y-61988771D01*
X171902635Y-61375905D01*
X172384162Y-60655250D01*
X172715843Y-59854501D01*
X172884932Y-59004430D01*
X172884932Y-58137706D01*
X172715843Y-57287635D01*
X172384162Y-56486886D01*
X171902635Y-55766231D01*
X171289769Y-55153365D01*
X170569114Y-54671838D01*
X169768365Y-54340157D01*
X168918294Y-54171068D01*
X168051570Y-54171068D01*
X167201499Y-54340157D01*
X166400750Y-54671838D01*
X165680095Y-55153365D01*
X165067229Y-55766231D01*
X164585702Y-56486886D01*
X164254021Y-57287635D01*
X164084932Y-58137706D01*
X123260872Y-58137706D01*
X123483769Y-57988771D01*
X124096635Y-57375905D01*
X124578162Y-56655250D01*
X124909843Y-55854501D01*
X125078932Y-55004430D01*
X125078932Y-54137706D01*
X124909843Y-53287635D01*
X124578162Y-52486886D01*
X124096635Y-51766231D01*
X123483769Y-51153365D01*
X122763114Y-50671838D01*
X121962365Y-50340157D01*
X121112294Y-50171068D01*
X120245570Y-50171068D01*
X119395499Y-50340157D01*
X118594750Y-50671838D01*
X117874095Y-51153365D01*
X117261229Y-51766231D01*
X116779702Y-52486886D01*
X116448021Y-53287635D01*
X116278932Y-54137706D01*
X100199152Y-54137706D01*
X100454483Y-54112558D01*
X101302737Y-53855244D01*
X102084492Y-53437387D01*
X102769706Y-52875046D01*
X103332047Y-52189832D01*
X103749904Y-51408078D01*
X104003215Y-50573021D01*
X104838271Y-50319710D01*
X105620026Y-49901852D01*
X106305240Y-49339512D01*
X106867580Y-48654298D01*
X107285438Y-47872543D01*
X107441947Y-47356602D01*
X117910049Y-47356602D01*
X118143398Y-47379585D01*
X118376747Y-47356602D01*
X119074561Y-47287873D01*
X119969940Y-47016263D01*
X120795125Y-46575192D01*
X121518407Y-45981611D01*
X121667167Y-45800346D01*
X128217514Y-39250000D01*
X130476206Y-39250000D01*
X130386180Y-39546778D01*
X130299296Y-40428932D01*
X130386180Y-41311086D01*
X130643494Y-42159339D01*
X131061352Y-42941094D01*
X131482772Y-43454596D01*
X140731512Y-52703337D01*
X140872430Y-52875046D01*
X141044139Y-53015964D01*
X141044141Y-53015966D01*
X141348767Y-53265966D01*
X141557644Y-53437387D01*
X142027080Y-53688306D01*
X142339398Y-53855244D01*
X143187651Y-54112558D01*
X143266034Y-54120278D01*
X143848742Y-54177670D01*
X143848749Y-54177670D01*
X144069806Y-54199442D01*
X144290862Y-54177670D01*
X144293394Y-54177670D01*
X144954484Y-54112558D01*
X145802738Y-53855244D01*
X146584492Y-53437387D01*
X147269706Y-52875046D01*
X147832047Y-52189832D01*
X148249904Y-51408078D01*
X148470298Y-50681532D01*
X149196843Y-50461138D01*
X149978598Y-50043280D01*
X150663812Y-49480940D01*
X150727561Y-49403261D01*
X150805240Y-49339512D01*
X151031105Y-49064294D01*
X151043053Y-49070680D01*
X151985557Y-49356586D01*
X152720101Y-49428932D01*
X152720109Y-49428932D01*
X152965728Y-49453123D01*
X153211347Y-49428932D01*
X182872695Y-49428932D01*
X183607239Y-49356586D01*
X184549743Y-49070680D01*
X185418360Y-48606395D01*
X186179708Y-47981572D01*
X186804531Y-47220224D01*
X187268816Y-46351607D01*
X187554722Y-45409103D01*
X187651260Y-44428932D01*
X187554722Y-43448761D01*
X187268816Y-42506257D01*
X186804531Y-41637640D01*
X186489685Y-41254000D01*
X188152150Y-41254000D01*
X196578967Y-49680818D01*
X196578968Y-57444858D01*
X196578967Y-57444866D01*
X196578967Y-82171068D01*
X196387706Y-82171068D01*
X195537635Y-82340157D01*
X194736886Y-82671838D01*
X194016231Y-83153365D01*
X193403365Y-83766231D01*
X192921838Y-84486886D01*
X192590157Y-85287635D01*
X192421068Y-86137706D01*
X192421068Y-87004430D01*
X192590157Y-87854501D01*
X192921838Y-88655250D01*
X193403365Y-89375905D01*
X194016231Y-89988771D01*
X194736886Y-90470298D01*
X195537635Y-90801979D01*
X196387706Y-90971068D01*
X196578967Y-90971068D01*
X196578968Y-138171068D01*
X196387706Y-138171068D01*
X195537635Y-138340157D01*
X194736886Y-138671838D01*
X194016231Y-139153365D01*
X193403365Y-139766231D01*
X192921838Y-140486886D01*
X192590157Y-141287635D01*
X192421068Y-142137706D01*
X192421068Y-143004430D01*
X192590157Y-143854501D01*
X192921838Y-144655250D01*
X193403365Y-145375905D01*
X194016231Y-145988771D01*
X194736886Y-146470298D01*
X195537635Y-146801979D01*
X196387706Y-146971068D01*
X196578968Y-146971068D01*
X196578968Y-154667629D01*
X190202881Y-161043716D01*
X190186120Y-161038632D01*
X190014177Y-161021697D01*
X189844720Y-160987990D01*
X158437737Y-160987990D01*
X155846466Y-158396720D01*
X155736849Y-158263151D01*
X155203904Y-157825775D01*
X154595873Y-157500776D01*
X153936120Y-157300642D01*
X153421944Y-157250000D01*
X153250000Y-157233065D01*
X153078056Y-157250000D01*
X146411678Y-157250000D01*
X146013130Y-156983699D01*
X145992401Y-156975113D01*
X150831715Y-152135799D01*
X150840301Y-152156528D01*
X151305411Y-152852615D01*
X151897385Y-153444589D01*
X152593472Y-153909699D01*
X153366923Y-154230073D01*
X154188014Y-154393398D01*
X155025190Y-154393398D01*
X155817504Y-154235797D01*
X155659903Y-155028111D01*
X155659903Y-155865287D01*
X155823228Y-156686378D01*
X156143602Y-157459829D01*
X156608712Y-158155916D01*
X157200686Y-158747890D01*
X157896773Y-159213000D01*
X158670224Y-159533374D01*
X159491315Y-159696699D01*
X160328491Y-159696699D01*
X161149582Y-159533374D01*
X161923033Y-159213000D01*
X162619120Y-158747890D01*
X163211094Y-158155916D01*
X163676204Y-157459829D01*
X163996578Y-156686378D01*
X164008044Y-156628736D01*
X164376599Y-156592436D01*
X165271977Y-156320826D01*
X166097163Y-155879755D01*
X166820444Y-155286173D01*
X167414026Y-154562892D01*
X167855097Y-153737706D01*
X168126707Y-152842328D01*
X168163007Y-152473772D01*
X168220649Y-152462306D01*
X168994100Y-152141932D01*
X169690187Y-151676822D01*
X170282161Y-151084848D01*
X170747271Y-150388761D01*
X171067645Y-149615310D01*
X171230970Y-148794219D01*
X171230970Y-147957043D01*
X171067645Y-147135952D01*
X170747271Y-146362501D01*
X170282161Y-145666414D01*
X169690187Y-145074440D01*
X168994100Y-144609330D01*
X168220649Y-144288956D01*
X167399558Y-144125631D01*
X166562382Y-144125631D01*
X165770069Y-144283232D01*
X165927670Y-143490918D01*
X165927670Y-142653742D01*
X165764345Y-141832651D01*
X165443971Y-141059200D01*
X164978861Y-140363113D01*
X164386887Y-139771139D01*
X163690800Y-139306029D01*
X162917349Y-138985655D01*
X162096258Y-138822330D01*
X161259082Y-138822330D01*
X160437991Y-138985655D01*
X159664540Y-139306029D01*
X158968453Y-139771139D01*
X158376479Y-140363113D01*
X158172750Y-140668016D01*
X157658824Y-140512118D01*
X156961010Y-140443389D01*
X156961008Y-140443389D01*
X156727661Y-140420406D01*
X156494312Y-140443389D01*
X153221068Y-140443389D01*
X153221068Y-139637706D01*
X153051979Y-138787635D01*
X152720298Y-137986886D01*
X152238771Y-137266231D01*
X151625905Y-136653365D01*
X150905250Y-136171838D01*
X150104501Y-135840157D01*
X149254430Y-135671068D01*
X148387706Y-135671068D01*
X147537635Y-135840157D01*
X146736886Y-136171838D01*
X146016231Y-136653365D01*
X145403365Y-137266231D01*
X144921838Y-137986886D01*
X144590157Y-138787635D01*
X144421068Y-139637706D01*
X144421068Y-140504430D01*
X144590157Y-141354501D01*
X144921838Y-142155250D01*
X145403365Y-142875905D01*
X146016231Y-143488771D01*
X146032707Y-143499780D01*
X137921312Y-151611175D01*
X125290131Y-151611175D01*
X125940187Y-151176822D01*
X126532161Y-150584848D01*
X126997271Y-149888761D01*
X127317645Y-149115310D01*
X127480970Y-148294219D01*
X127480970Y-147457043D01*
X127317645Y-146635952D01*
X126997271Y-145862501D01*
X126532161Y-145166414D01*
X125940187Y-144574440D01*
X125244100Y-144109330D01*
X124470649Y-143788956D01*
X123649558Y-143625631D01*
X122812382Y-143625631D01*
X122020069Y-143783232D01*
X122177670Y-142990918D01*
X122177670Y-142153742D01*
X122014345Y-141332651D01*
X121693971Y-140559200D01*
X121228861Y-139863113D01*
X120636887Y-139271139D01*
X119940800Y-138806029D01*
X119167349Y-138485655D01*
X118346258Y-138322330D01*
X117509082Y-138322330D01*
X116687991Y-138485655D01*
X115914540Y-138806029D01*
X115218453Y-139271139D01*
X114626479Y-139863113D01*
X114410835Y-140185847D01*
X113838126Y-140012118D01*
X113140312Y-139943389D01*
X112906963Y-139920406D01*
X112673614Y-139943389D01*
X109471068Y-139943389D01*
X109471068Y-139637706D01*
X109301979Y-138787635D01*
X108970298Y-137986886D01*
X108488771Y-137266231D01*
X107875905Y-136653365D01*
X107155250Y-136171838D01*
X106354501Y-135840157D01*
X105504430Y-135671068D01*
X104637706Y-135671068D01*
X103787635Y-135840157D01*
X102986886Y-136171838D01*
X102266231Y-136653365D01*
X101653365Y-137266231D01*
X101171838Y-137986886D01*
X100840157Y-138787635D01*
X100671068Y-139637706D01*
X100671068Y-140504430D01*
X100840157Y-141354501D01*
X101171838Y-142155250D01*
X101653365Y-142875905D01*
X101779973Y-143002513D01*
X93421312Y-151361175D01*
X82540131Y-151361175D01*
X83190187Y-150926822D01*
X83782161Y-150334848D01*
X84247271Y-149638761D01*
X84567645Y-148865310D01*
X84730970Y-148044219D01*
X84730970Y-147207043D01*
X84567645Y-146385952D01*
X84247271Y-145612501D01*
X83782161Y-144916414D01*
X83190187Y-144324440D01*
X82494100Y-143859330D01*
X81720649Y-143538956D01*
X80899558Y-143375631D01*
X80062382Y-143375631D01*
X79270069Y-143533232D01*
X79427670Y-142740918D01*
X79427670Y-141903742D01*
X79264345Y-141082651D01*
X78943971Y-140309200D01*
X78478861Y-139613113D01*
X77886887Y-139021139D01*
X77190800Y-138556029D01*
X76417349Y-138235655D01*
X75596258Y-138072330D01*
X74759082Y-138072330D01*
X73937991Y-138235655D01*
X73164540Y-138556029D01*
X72468453Y-139021139D01*
X71876479Y-139613113D01*
X71660835Y-139935847D01*
X71088126Y-139762118D01*
X70390312Y-139693389D01*
X70156963Y-139670406D01*
X69923614Y-139693389D01*
X66289590Y-139693389D01*
X66056241Y-139670406D01*
X65822892Y-139693389D01*
X65125078Y-139762118D01*
X64971068Y-139808836D01*
X64971068Y-139637706D01*
X64801979Y-138787635D01*
X64470298Y-137986886D01*
X63988771Y-137266231D01*
X63375905Y-136653365D01*
X62655250Y-136171838D01*
X61854501Y-135840157D01*
X61004430Y-135671068D01*
X60137706Y-135671068D01*
X59287635Y-135840157D01*
X58486886Y-136171838D01*
X57766231Y-136653365D01*
X57153365Y-137266231D01*
X56671838Y-137986886D01*
X56340157Y-138787635D01*
X56171068Y-139637706D01*
X56171068Y-140504430D01*
X56340157Y-141354501D01*
X56671838Y-142155250D01*
X57153365Y-142875905D01*
X57766231Y-143488771D01*
X58486886Y-143970298D01*
X59287635Y-144301979D01*
X59448199Y-144333917D01*
X52170942Y-151611175D01*
X37790131Y-151611175D01*
X38440187Y-151176822D01*
X39032161Y-150584848D01*
X39497271Y-149888761D01*
X39817645Y-149115310D01*
X39980970Y-148294219D01*
X39980970Y-147457043D01*
X39817645Y-146635952D01*
X39497271Y-145862501D01*
X39032161Y-145166414D01*
X38440187Y-144574440D01*
X37744100Y-144109330D01*
X36970649Y-143788956D01*
X36149558Y-143625631D01*
X35312382Y-143625631D01*
X34520069Y-143783232D01*
X34677670Y-142990918D01*
X34677670Y-142153742D01*
X34514345Y-141332651D01*
X34193971Y-140559200D01*
X33728861Y-139863113D01*
X33136887Y-139271139D01*
X32440800Y-138806029D01*
X31667349Y-138485655D01*
X30846258Y-138322330D01*
X30009082Y-138322330D01*
X29187991Y-138485655D01*
X28414540Y-138806029D01*
X27718453Y-139271139D01*
X27126479Y-139863113D01*
X26713949Y-140480509D01*
X26524291Y-140422977D01*
X25863201Y-140357865D01*
X25863193Y-140357865D01*
X25642137Y-140336093D01*
X25421081Y-140357865D01*
X20471068Y-140357865D01*
X20471068Y-139637706D01*
X20301979Y-138787635D01*
X19970298Y-137986886D01*
X19488771Y-137266231D01*
X18875905Y-136653365D01*
X18155250Y-136171838D01*
X17354501Y-135840157D01*
X16504430Y-135671068D01*
X15637706Y-135671068D01*
X14787635Y-135840157D01*
X13986886Y-136171838D01*
X13266231Y-136653365D01*
X12653365Y-137266231D01*
X12171838Y-137986886D01*
X11840157Y-138787635D01*
X11671068Y-139637706D01*
X11671068Y-140357865D01*
X9613191Y-140357865D01*
X9392135Y-140336093D01*
X9171078Y-140357865D01*
X9171071Y-140357865D01*
X8588363Y-140415257D01*
X8509980Y-140422977D01*
X8144879Y-140533729D01*
X7661727Y-140680291D01*
X6879973Y-141098148D01*
X6879971Y-141098149D01*
X6879972Y-141098149D01*
X6590038Y-141336092D01*
X6194759Y-141660489D01*
X6053841Y-141832198D01*
X-2413726Y-150299766D01*
X-2423889Y-150300767D01*
X-2989391Y-150472310D01*
X-3510561Y-150750881D01*
X-3967370Y-151125775D01*
X-9624225Y-156782630D01*
X-9999119Y-157239439D01*
X-10277690Y-157760609D01*
X-10449233Y-158326111D01*
X-10507156Y-158914214D01*
X-10449233Y-159502317D01*
X-10277690Y-160067819D01*
X-9999119Y-160588989D01*
X-9624225Y-161045798D01*
X-6795798Y-163874225D01*
X-6338989Y-164249119D01*
X-5817819Y-164527690D01*
X-5252317Y-164699233D01*
X-4664214Y-164757156D01*
X-4076111Y-164699233D01*
X-3510609Y-164527690D01*
X-2989439Y-164249119D01*
X-2532630Y-163874225D01*
X3124225Y-158217370D01*
X3499119Y-157760561D01*
X3777690Y-157239391D01*
X3949233Y-156673889D01*
X3950234Y-156663726D01*
X11256096Y-149357865D01*
X18862952Y-149357865D01*
X18834830Y-149643398D01*
X18921714Y-150525552D01*
X19179028Y-151373805D01*
X19596886Y-152155560D01*
X20018306Y-152669062D01*
X24396955Y-157047712D01*
X24691238Y-157598313D01*
X25284799Y-158321612D01*
X25860452Y-158794065D01*
X25947388Y-158881001D01*
X21631451Y-158881001D01*
X21471601Y-158865257D01*
X21311751Y-158881001D01*
X21311749Y-158881001D01*
X20833706Y-158928084D01*
X20220324Y-159114151D01*
X19655029Y-159416308D01*
X19159543Y-159822943D01*
X19057641Y-159947111D01*
X17701451Y-161303301D01*
X17634713Y-161303301D01*
X16842399Y-161460902D01*
X17000000Y-160668588D01*
X17000000Y-159831412D01*
X16836675Y-159010321D01*
X16516301Y-158236870D01*
X16051191Y-157540783D01*
X15459217Y-156948809D01*
X14763130Y-156483699D01*
X13989679Y-156163325D01*
X13168588Y-156000000D01*
X12331412Y-156000000D01*
X11510321Y-156163325D01*
X10736870Y-156483699D01*
X10040783Y-156948809D01*
X9448809Y-157540783D01*
X8983699Y-158236870D01*
X8663325Y-159010321D01*
X8500000Y-159831412D01*
X8500000Y-160668588D01*
X8663325Y-161489679D01*
X8983699Y-162263130D01*
X9448809Y-162959217D01*
X10040783Y-163551191D01*
X10736870Y-164016301D01*
X11510321Y-164336675D01*
X12331412Y-164500000D01*
X13168588Y-164500000D01*
X13960902Y-164342399D01*
X13803301Y-165134713D01*
X13803301Y-165971889D01*
X13966626Y-166792980D01*
X14287000Y-167566431D01*
X14752110Y-168262518D01*
X15344084Y-168854492D01*
X15400219Y-168892000D01*
X-13892000Y-168892000D01*
X-13892000Y-125495570D01*
X-2471068Y-125495570D01*
X-2471068Y-126362294D01*
X-2301979Y-127212365D01*
X-1970298Y-128013114D01*
X-1488771Y-128733769D01*
X-875905Y-129346635D01*
X-155250Y-129828162D01*
X645499Y-130159843D01*
X1495570Y-130328932D01*
X2362294Y-130328932D01*
X3212365Y-130159843D01*
X4013114Y-129828162D01*
X4733769Y-129346635D01*
X5346635Y-128733769D01*
X5828162Y-128013114D01*
X6159843Y-127212365D01*
X6328932Y-126362294D01*
X6328932Y-125495570D01*
X42028932Y-125495570D01*
X42028932Y-126362294D01*
X42198021Y-127212365D01*
X42529702Y-128013114D01*
X43011229Y-128733769D01*
X43624095Y-129346635D01*
X44344750Y-129828162D01*
X45145499Y-130159843D01*
X45995570Y-130328932D01*
X46862294Y-130328932D01*
X47712365Y-130159843D01*
X48513114Y-129828162D01*
X49233769Y-129346635D01*
X49846635Y-128733769D01*
X50328162Y-128013114D01*
X50659843Y-127212365D01*
X50828932Y-126362294D01*
X50828932Y-125495570D01*
X86528932Y-125495570D01*
X86528932Y-126362294D01*
X86698021Y-127212365D01*
X87029702Y-128013114D01*
X87511229Y-128733769D01*
X88124095Y-129346635D01*
X88844750Y-129828162D01*
X89645499Y-130159843D01*
X90495570Y-130328932D01*
X91362294Y-130328932D01*
X92212365Y-130159843D01*
X93013114Y-129828162D01*
X93733769Y-129346635D01*
X94346635Y-128733769D01*
X94828162Y-128013114D01*
X95159843Y-127212365D01*
X95328932Y-126362294D01*
X95328932Y-125495570D01*
X130278932Y-125495570D01*
X130278932Y-126362294D01*
X130448021Y-127212365D01*
X130779702Y-128013114D01*
X131261229Y-128733769D01*
X131874095Y-129346635D01*
X132594750Y-129828162D01*
X133395499Y-130159843D01*
X134245570Y-130328932D01*
X135112294Y-130328932D01*
X135962365Y-130159843D01*
X136763114Y-129828162D01*
X137483769Y-129346635D01*
X138096635Y-128733769D01*
X138578162Y-128013114D01*
X138585428Y-127995570D01*
X178278932Y-127995570D01*
X178278932Y-128862294D01*
X178448021Y-129712365D01*
X178779702Y-130513114D01*
X179261229Y-131233769D01*
X179874095Y-131846635D01*
X180594750Y-132328162D01*
X181395499Y-132659843D01*
X182245570Y-132828932D01*
X183112294Y-132828932D01*
X183962365Y-132659843D01*
X184763114Y-132328162D01*
X185483769Y-131846635D01*
X186096635Y-131233769D01*
X186578162Y-130513114D01*
X186909843Y-129712365D01*
X187078932Y-128862294D01*
X187078932Y-127995570D01*
X186909843Y-127145499D01*
X186578162Y-126344750D01*
X186096635Y-125624095D01*
X185483769Y-125011229D01*
X184763114Y-124529702D01*
X183962365Y-124198021D01*
X183112294Y-124028932D01*
X182245570Y-124028932D01*
X181395499Y-124198021D01*
X180594750Y-124529702D01*
X179874095Y-125011229D01*
X179261229Y-125624095D01*
X178779702Y-126344750D01*
X178448021Y-127145499D01*
X178278932Y-127995570D01*
X138585428Y-127995570D01*
X138909843Y-127212365D01*
X139078932Y-126362294D01*
X139078932Y-125495570D01*
X138909843Y-124645499D01*
X138578162Y-123844750D01*
X138096635Y-123124095D01*
X137483769Y-122511229D01*
X136763114Y-122029702D01*
X135962365Y-121698021D01*
X135112294Y-121528932D01*
X134245570Y-121528932D01*
X133395499Y-121698021D01*
X132594750Y-122029702D01*
X131874095Y-122511229D01*
X131261229Y-123124095D01*
X130779702Y-123844750D01*
X130448021Y-124645499D01*
X130278932Y-125495570D01*
X95328932Y-125495570D01*
X95159843Y-124645499D01*
X94828162Y-123844750D01*
X94346635Y-123124095D01*
X93733769Y-122511229D01*
X93013114Y-122029702D01*
X92212365Y-121698021D01*
X91362294Y-121528932D01*
X90495570Y-121528932D01*
X89645499Y-121698021D01*
X88844750Y-122029702D01*
X88124095Y-122511229D01*
X87511229Y-123124095D01*
X87029702Y-123844750D01*
X86698021Y-124645499D01*
X86528932Y-125495570D01*
X50828932Y-125495570D01*
X50659843Y-124645499D01*
X50328162Y-123844750D01*
X49846635Y-123124095D01*
X49233769Y-122511229D01*
X48513114Y-122029702D01*
X47712365Y-121698021D01*
X46862294Y-121528932D01*
X45995570Y-121528932D01*
X45145499Y-121698021D01*
X44344750Y-122029702D01*
X43624095Y-122511229D01*
X43011229Y-123124095D01*
X42529702Y-123844750D01*
X42198021Y-124645499D01*
X42028932Y-125495570D01*
X6328932Y-125495570D01*
X6159843Y-124645499D01*
X5828162Y-123844750D01*
X5346635Y-123124095D01*
X4733769Y-122511229D01*
X4013114Y-122029702D01*
X3212365Y-121698021D01*
X2362294Y-121528932D01*
X1495570Y-121528932D01*
X645499Y-121698021D01*
X-155250Y-122029702D01*
X-875905Y-122511229D01*
X-1488771Y-123124095D01*
X-1970298Y-123844750D01*
X-2301979Y-124645499D01*
X-2471068Y-125495570D01*
X-13892000Y-125495570D01*
X-13892000Y-115182893D01*
X-13604501Y-115301979D01*
X-12754430Y-115471068D01*
X-11887706Y-115471068D01*
X-11037635Y-115301979D01*
X-10236886Y-114970298D01*
X-9516231Y-114488771D01*
X-8903365Y-113875905D01*
X-8421838Y-113155250D01*
X-8090157Y-112354501D01*
X-7921068Y-111504430D01*
X-7921068Y-110637706D01*
X27778932Y-110637706D01*
X27778932Y-111504430D01*
X27948021Y-112354501D01*
X28279702Y-113155250D01*
X28761229Y-113875905D01*
X29374095Y-114488771D01*
X30094750Y-114970298D01*
X30895499Y-115301979D01*
X31745570Y-115471068D01*
X32612294Y-115471068D01*
X33462365Y-115301979D01*
X34263114Y-114970298D01*
X34983769Y-114488771D01*
X35596635Y-113875905D01*
X36078162Y-113155250D01*
X36409843Y-112354501D01*
X36578932Y-111504430D01*
X36578932Y-110637706D01*
X72278932Y-110637706D01*
X72278932Y-111504430D01*
X72448021Y-112354501D01*
X72779702Y-113155250D01*
X73261229Y-113875905D01*
X73874095Y-114488771D01*
X74594750Y-114970298D01*
X75395499Y-115301979D01*
X76245570Y-115471068D01*
X77112294Y-115471068D01*
X77962365Y-115301979D01*
X78763114Y-114970298D01*
X79483769Y-114488771D01*
X80096635Y-113875905D01*
X80578162Y-113155250D01*
X80909843Y-112354501D01*
X81078932Y-111504430D01*
X81078932Y-110637706D01*
X116278932Y-110637706D01*
X116278932Y-111504430D01*
X116448021Y-112354501D01*
X116779702Y-113155250D01*
X117261229Y-113875905D01*
X117874095Y-114488771D01*
X118594750Y-114970298D01*
X119395499Y-115301979D01*
X120245570Y-115471068D01*
X121112294Y-115471068D01*
X121962365Y-115301979D01*
X122763114Y-114970298D01*
X123483769Y-114488771D01*
X123834834Y-114137706D01*
X164278932Y-114137706D01*
X164278932Y-115004430D01*
X164448021Y-115854501D01*
X164779702Y-116655250D01*
X165261229Y-117375905D01*
X165874095Y-117988771D01*
X166594750Y-118470298D01*
X167395499Y-118801979D01*
X168245570Y-118971068D01*
X169112294Y-118971068D01*
X169962365Y-118801979D01*
X170763114Y-118470298D01*
X171483769Y-117988771D01*
X172096635Y-117375905D01*
X172578162Y-116655250D01*
X172909843Y-115854501D01*
X173078932Y-115004430D01*
X173078932Y-114137706D01*
X172909843Y-113287635D01*
X172578162Y-112486886D01*
X172096635Y-111766231D01*
X171483769Y-111153365D01*
X170763114Y-110671838D01*
X169962365Y-110340157D01*
X169112294Y-110171068D01*
X168245570Y-110171068D01*
X167395499Y-110340157D01*
X166594750Y-110671838D01*
X165874095Y-111153365D01*
X165261229Y-111766231D01*
X164779702Y-112486886D01*
X164448021Y-113287635D01*
X164278932Y-114137706D01*
X123834834Y-114137706D01*
X124096635Y-113875905D01*
X124578162Y-113155250D01*
X124909843Y-112354501D01*
X125078932Y-111504430D01*
X125078932Y-110637706D01*
X124909843Y-109787635D01*
X124578162Y-108986886D01*
X124096635Y-108266231D01*
X123483769Y-107653365D01*
X122763114Y-107171838D01*
X121962365Y-106840157D01*
X121112294Y-106671068D01*
X120245570Y-106671068D01*
X119395499Y-106840157D01*
X118594750Y-107171838D01*
X117874095Y-107653365D01*
X117261229Y-108266231D01*
X116779702Y-108986886D01*
X116448021Y-109787635D01*
X116278932Y-110637706D01*
X81078932Y-110637706D01*
X80909843Y-109787635D01*
X80578162Y-108986886D01*
X80096635Y-108266231D01*
X79483769Y-107653365D01*
X78763114Y-107171838D01*
X77962365Y-106840157D01*
X77112294Y-106671068D01*
X76245570Y-106671068D01*
X75395499Y-106840157D01*
X74594750Y-107171838D01*
X73874095Y-107653365D01*
X73261229Y-108266231D01*
X72779702Y-108986886D01*
X72448021Y-109787635D01*
X72278932Y-110637706D01*
X36578932Y-110637706D01*
X36409843Y-109787635D01*
X36078162Y-108986886D01*
X35596635Y-108266231D01*
X34983769Y-107653365D01*
X34263114Y-107171838D01*
X33462365Y-106840157D01*
X32612294Y-106671068D01*
X31745570Y-106671068D01*
X30895499Y-106840157D01*
X30094750Y-107171838D01*
X29374095Y-107653365D01*
X28761229Y-108266231D01*
X28279702Y-108986886D01*
X27948021Y-109787635D01*
X27778932Y-110637706D01*
X-7921068Y-110637706D01*
X-8090157Y-109787635D01*
X-8421838Y-108986886D01*
X-8903365Y-108266231D01*
X-9516231Y-107653365D01*
X-10236886Y-107171838D01*
X-11037635Y-106840157D01*
X-11887706Y-106671068D01*
X-12754430Y-106671068D01*
X-13604501Y-106840157D01*
X-13892000Y-106959243D01*
X-13892000Y-96495570D01*
X-2578932Y-96495570D01*
X-2578932Y-97362294D01*
X-2409843Y-98212365D01*
X-2078162Y-99013114D01*
X-1596635Y-99733769D01*
X-983769Y-100346635D01*
X-263114Y-100828162D01*
X537635Y-101159843D01*
X1387706Y-101328932D01*
X2254430Y-101328932D01*
X3104501Y-101159843D01*
X3905250Y-100828162D01*
X4625905Y-100346635D01*
X5238771Y-99733769D01*
X5720298Y-99013114D01*
X6051979Y-98212365D01*
X6221068Y-97362294D01*
X6221068Y-96495570D01*
X41921068Y-96495570D01*
X41921068Y-97362294D01*
X42090157Y-98212365D01*
X42421838Y-99013114D01*
X42903365Y-99733769D01*
X43516231Y-100346635D01*
X44236886Y-100828162D01*
X45037635Y-101159843D01*
X45887706Y-101328932D01*
X46754430Y-101328932D01*
X47604501Y-101159843D01*
X48405250Y-100828162D01*
X49125905Y-100346635D01*
X49738771Y-99733769D01*
X50220298Y-99013114D01*
X50551979Y-98212365D01*
X50721068Y-97362294D01*
X50721068Y-96495570D01*
X86421068Y-96495570D01*
X86421068Y-97362294D01*
X86590157Y-98212365D01*
X86921838Y-99013114D01*
X87403365Y-99733769D01*
X88016231Y-100346635D01*
X88736886Y-100828162D01*
X89537635Y-101159843D01*
X90387706Y-101328932D01*
X91254430Y-101328932D01*
X92104501Y-101159843D01*
X92905250Y-100828162D01*
X93625905Y-100346635D01*
X94238771Y-99733769D01*
X94720298Y-99013114D01*
X95051979Y-98212365D01*
X95221068Y-97362294D01*
X95221068Y-96495570D01*
X130421068Y-96495570D01*
X130421068Y-97362294D01*
X130590157Y-98212365D01*
X130921838Y-99013114D01*
X131403365Y-99733769D01*
X132016231Y-100346635D01*
X132736886Y-100828162D01*
X133537635Y-101159843D01*
X134387706Y-101328932D01*
X135254430Y-101328932D01*
X136104501Y-101159843D01*
X136905250Y-100828162D01*
X137625905Y-100346635D01*
X137976970Y-99995570D01*
X178421068Y-99995570D01*
X178421068Y-100862294D01*
X178590157Y-101712365D01*
X178921838Y-102513114D01*
X179403365Y-103233769D01*
X180016231Y-103846635D01*
X180736886Y-104328162D01*
X181537635Y-104659843D01*
X182387706Y-104828932D01*
X183254430Y-104828932D01*
X184104501Y-104659843D01*
X184905250Y-104328162D01*
X185625905Y-103846635D01*
X186238771Y-103233769D01*
X186720298Y-102513114D01*
X187051979Y-101712365D01*
X187221068Y-100862294D01*
X187221068Y-99995570D01*
X187051979Y-99145499D01*
X186720298Y-98344750D01*
X186238771Y-97624095D01*
X185625905Y-97011229D01*
X184905250Y-96529702D01*
X184104501Y-96198021D01*
X183254430Y-96028932D01*
X182387706Y-96028932D01*
X181537635Y-96198021D01*
X180736886Y-96529702D01*
X180016231Y-97011229D01*
X179403365Y-97624095D01*
X178921838Y-98344750D01*
X178590157Y-99145499D01*
X178421068Y-99995570D01*
X137976970Y-99995570D01*
X138238771Y-99733769D01*
X138720298Y-99013114D01*
X139051979Y-98212365D01*
X139221068Y-97362294D01*
X139221068Y-96495570D01*
X139051979Y-95645499D01*
X138720298Y-94844750D01*
X138238771Y-94124095D01*
X137625905Y-93511229D01*
X136905250Y-93029702D01*
X136104501Y-92698021D01*
X135254430Y-92528932D01*
X134387706Y-92528932D01*
X133537635Y-92698021D01*
X132736886Y-93029702D01*
X132016231Y-93511229D01*
X131403365Y-94124095D01*
X130921838Y-94844750D01*
X130590157Y-95645499D01*
X130421068Y-96495570D01*
X95221068Y-96495570D01*
X95051979Y-95645499D01*
X94720298Y-94844750D01*
X94238771Y-94124095D01*
X93625905Y-93511229D01*
X92905250Y-93029702D01*
X92104501Y-92698021D01*
X91254430Y-92528932D01*
X90387706Y-92528932D01*
X89537635Y-92698021D01*
X88736886Y-93029702D01*
X88016231Y-93511229D01*
X87403365Y-94124095D01*
X86921838Y-94844750D01*
X86590157Y-95645499D01*
X86421068Y-96495570D01*
X50721068Y-96495570D01*
X50551979Y-95645499D01*
X50220298Y-94844750D01*
X49738771Y-94124095D01*
X49125905Y-93511229D01*
X48405250Y-93029702D01*
X47604501Y-92698021D01*
X46754430Y-92528932D01*
X45887706Y-92528932D01*
X45037635Y-92698021D01*
X44236886Y-93029702D01*
X43516231Y-93511229D01*
X42903365Y-94124095D01*
X42421838Y-94844750D01*
X42090157Y-95645499D01*
X41921068Y-96495570D01*
X6221068Y-96495570D01*
X6051979Y-95645499D01*
X5720298Y-94844750D01*
X5238771Y-94124095D01*
X4625905Y-93511229D01*
X3905250Y-93029702D01*
X3104501Y-92698021D01*
X2254430Y-92528932D01*
X1387706Y-92528932D01*
X537635Y-92698021D01*
X-263114Y-93029702D01*
X-983769Y-93511229D01*
X-1596635Y-94124095D01*
X-2078162Y-94844750D01*
X-2409843Y-95645499D01*
X-2578932Y-96495570D01*
X-13892000Y-96495570D01*
X-13892000Y-82137706D01*
X11671068Y-82137706D01*
X11671068Y-83004430D01*
X11840157Y-83854501D01*
X12171838Y-84655250D01*
X12653365Y-85375905D01*
X13266231Y-85988771D01*
X13986886Y-86470298D01*
X14787635Y-86801979D01*
X15637706Y-86971068D01*
X16504430Y-86971068D01*
X17354501Y-86801979D01*
X18155250Y-86470298D01*
X18875905Y-85988771D01*
X19488771Y-85375905D01*
X19970298Y-84655250D01*
X20301979Y-83854501D01*
X20471068Y-83004430D01*
X20471068Y-82137706D01*
X56171068Y-82137706D01*
X56171068Y-83004430D01*
X56340157Y-83854501D01*
X56671838Y-84655250D01*
X57153365Y-85375905D01*
X57766231Y-85988771D01*
X58486886Y-86470298D01*
X59287635Y-86801979D01*
X60137706Y-86971068D01*
X61004430Y-86971068D01*
X61854501Y-86801979D01*
X62655250Y-86470298D01*
X63375905Y-85988771D01*
X63988771Y-85375905D01*
X64470298Y-84655250D01*
X64801979Y-83854501D01*
X64971068Y-83004430D01*
X64971068Y-82137706D01*
X100421068Y-82137706D01*
X100421068Y-83004430D01*
X100590157Y-83854501D01*
X100921838Y-84655250D01*
X101403365Y-85375905D01*
X102016231Y-85988771D01*
X102736886Y-86470298D01*
X103537635Y-86801979D01*
X104387706Y-86971068D01*
X105254430Y-86971068D01*
X106104501Y-86801979D01*
X106905250Y-86470298D01*
X107625905Y-85988771D01*
X108238771Y-85375905D01*
X108720298Y-84655250D01*
X109051979Y-83854501D01*
X109221068Y-83004430D01*
X109221068Y-82137706D01*
X144421068Y-82137706D01*
X144421068Y-83004430D01*
X144590157Y-83854501D01*
X144921838Y-84655250D01*
X145403365Y-85375905D01*
X146016231Y-85988771D01*
X146736886Y-86470298D01*
X147537635Y-86801979D01*
X148387706Y-86971068D01*
X149254430Y-86971068D01*
X150104501Y-86801979D01*
X150905250Y-86470298D01*
X151625905Y-85988771D01*
X152238771Y-85375905D01*
X152720298Y-84655250D01*
X153051979Y-83854501D01*
X153221068Y-83004430D01*
X153221068Y-82137706D01*
X153051979Y-81287635D01*
X152720298Y-80486886D01*
X152238771Y-79766231D01*
X151625905Y-79153365D01*
X150905250Y-78671838D01*
X150104501Y-78340157D01*
X149254430Y-78171068D01*
X148387706Y-78171068D01*
X147537635Y-78340157D01*
X146736886Y-78671838D01*
X146016231Y-79153365D01*
X145403365Y-79766231D01*
X144921838Y-80486886D01*
X144590157Y-81287635D01*
X144421068Y-82137706D01*
X109221068Y-82137706D01*
X109051979Y-81287635D01*
X108720298Y-80486886D01*
X108238771Y-79766231D01*
X107625905Y-79153365D01*
X106905250Y-78671838D01*
X106104501Y-78340157D01*
X105254430Y-78171068D01*
X104387706Y-78171068D01*
X103537635Y-78340157D01*
X102736886Y-78671838D01*
X102016231Y-79153365D01*
X101403365Y-79766231D01*
X100921838Y-80486886D01*
X100590157Y-81287635D01*
X100421068Y-82137706D01*
X64971068Y-82137706D01*
X64801979Y-81287635D01*
X64470298Y-80486886D01*
X63988771Y-79766231D01*
X63375905Y-79153365D01*
X62655250Y-78671838D01*
X61854501Y-78340157D01*
X61004430Y-78171068D01*
X60137706Y-78171068D01*
X59287635Y-78340157D01*
X58486886Y-78671838D01*
X57766231Y-79153365D01*
X57153365Y-79766231D01*
X56671838Y-80486886D01*
X56340157Y-81287635D01*
X56171068Y-82137706D01*
X20471068Y-82137706D01*
X20301979Y-81287635D01*
X19970298Y-80486886D01*
X19488771Y-79766231D01*
X18875905Y-79153365D01*
X18155250Y-78671838D01*
X17354501Y-78340157D01*
X16504430Y-78171068D01*
X15637706Y-78171068D01*
X14787635Y-78340157D01*
X13986886Y-78671838D01*
X13266231Y-79153365D01*
X12653365Y-79766231D01*
X12171838Y-80486886D01*
X11840157Y-81287635D01*
X11671068Y-82137706D01*
X-13892000Y-82137706D01*
X-13892000Y-67995570D01*
X-2471068Y-67995570D01*
X-2471068Y-68862294D01*
X-2301979Y-69712365D01*
X-1970298Y-70513114D01*
X-1488771Y-71233769D01*
X-875905Y-71846635D01*
X-155250Y-72328162D01*
X645499Y-72659843D01*
X1495570Y-72828932D01*
X2362294Y-72828932D01*
X3212365Y-72659843D01*
X4013114Y-72328162D01*
X4733769Y-71846635D01*
X5346635Y-71233769D01*
X5828162Y-70513114D01*
X6159843Y-69712365D01*
X6328932Y-68862294D01*
X6328932Y-67995570D01*
X42028932Y-67995570D01*
X42028932Y-68862294D01*
X42198021Y-69712365D01*
X42529702Y-70513114D01*
X43011229Y-71233769D01*
X43624095Y-71846635D01*
X44344750Y-72328162D01*
X45145499Y-72659843D01*
X45995570Y-72828932D01*
X46862294Y-72828932D01*
X47712365Y-72659843D01*
X48513114Y-72328162D01*
X49233769Y-71846635D01*
X49846635Y-71233769D01*
X50328162Y-70513114D01*
X50659843Y-69712365D01*
X50828932Y-68862294D01*
X50828932Y-67995570D01*
X86278932Y-67995570D01*
X86278932Y-68862294D01*
X86448021Y-69712365D01*
X86779702Y-70513114D01*
X87261229Y-71233769D01*
X87874095Y-71846635D01*
X88594750Y-72328162D01*
X89395499Y-72659843D01*
X90245570Y-72828932D01*
X91112294Y-72828932D01*
X91962365Y-72659843D01*
X92763114Y-72328162D01*
X93483769Y-71846635D01*
X94096635Y-71233769D01*
X94578162Y-70513114D01*
X94909843Y-69712365D01*
X95078932Y-68862294D01*
X95078932Y-67995570D01*
X130278932Y-67995570D01*
X130278932Y-68862294D01*
X130448021Y-69712365D01*
X130779702Y-70513114D01*
X131261229Y-71233769D01*
X131874095Y-71846635D01*
X132594750Y-72328162D01*
X133395499Y-72659843D01*
X134245570Y-72828932D01*
X135112294Y-72828932D01*
X135962365Y-72659843D01*
X136763114Y-72328162D01*
X137260872Y-71995570D01*
X178278932Y-71995570D01*
X178278932Y-72862294D01*
X178448021Y-73712365D01*
X178779702Y-74513114D01*
X179261229Y-75233769D01*
X179874095Y-75846635D01*
X180594750Y-76328162D01*
X181395499Y-76659843D01*
X182245570Y-76828932D01*
X183112294Y-76828932D01*
X183962365Y-76659843D01*
X184763114Y-76328162D01*
X185483769Y-75846635D01*
X186096635Y-75233769D01*
X186578162Y-74513114D01*
X186909843Y-73712365D01*
X187078932Y-72862294D01*
X187078932Y-71995570D01*
X186909843Y-71145499D01*
X186578162Y-70344750D01*
X186096635Y-69624095D01*
X185483769Y-69011229D01*
X184763114Y-68529702D01*
X183962365Y-68198021D01*
X183112294Y-68028932D01*
X182245570Y-68028932D01*
X181395499Y-68198021D01*
X180594750Y-68529702D01*
X179874095Y-69011229D01*
X179261229Y-69624095D01*
X178779702Y-70344750D01*
X178448021Y-71145499D01*
X178278932Y-71995570D01*
X137260872Y-71995570D01*
X137483769Y-71846635D01*
X138096635Y-71233769D01*
X138578162Y-70513114D01*
X138909843Y-69712365D01*
X139078932Y-68862294D01*
X139078932Y-67995570D01*
X138909843Y-67145499D01*
X138578162Y-66344750D01*
X138096635Y-65624095D01*
X137483769Y-65011229D01*
X136763114Y-64529702D01*
X135962365Y-64198021D01*
X135112294Y-64028932D01*
X134245570Y-64028932D01*
X133395499Y-64198021D01*
X132594750Y-64529702D01*
X131874095Y-65011229D01*
X131261229Y-65624095D01*
X130779702Y-66344750D01*
X130448021Y-67145499D01*
X130278932Y-67995570D01*
X95078932Y-67995570D01*
X94909843Y-67145499D01*
X94578162Y-66344750D01*
X94096635Y-65624095D01*
X93483769Y-65011229D01*
X92763114Y-64529702D01*
X91962365Y-64198021D01*
X91112294Y-64028932D01*
X90245570Y-64028932D01*
X89395499Y-64198021D01*
X88594750Y-64529702D01*
X87874095Y-65011229D01*
X87261229Y-65624095D01*
X86779702Y-66344750D01*
X86448021Y-67145499D01*
X86278932Y-67995570D01*
X50828932Y-67995570D01*
X50659843Y-67145499D01*
X50328162Y-66344750D01*
X49846635Y-65624095D01*
X49233769Y-65011229D01*
X48513114Y-64529702D01*
X47712365Y-64198021D01*
X46862294Y-64028932D01*
X45995570Y-64028932D01*
X45145499Y-64198021D01*
X44344750Y-64529702D01*
X43624095Y-65011229D01*
X43011229Y-65624095D01*
X42529702Y-66344750D01*
X42198021Y-67145499D01*
X42028932Y-67995570D01*
X6328932Y-67995570D01*
X6159843Y-67145499D01*
X5828162Y-66344750D01*
X5346635Y-65624095D01*
X4733769Y-65011229D01*
X4013114Y-64529702D01*
X3212365Y-64198021D01*
X2362294Y-64028932D01*
X1495570Y-64028932D01*
X645499Y-64198021D01*
X-155250Y-64529702D01*
X-875905Y-65011229D01*
X-1488771Y-65624095D01*
X-1970298Y-66344750D01*
X-2301979Y-67145499D01*
X-2471068Y-67995570D01*
X-13892000Y-67995570D01*
X-13892000Y-58682893D01*
X-13604501Y-58801979D01*
X-12754430Y-58971068D01*
X-11887706Y-58971068D01*
X-11037635Y-58801979D01*
X-10236886Y-58470298D01*
X-9516231Y-57988771D01*
X-8903365Y-57375905D01*
X-8421838Y-56655250D01*
X-8090157Y-55854501D01*
X-7921068Y-55004430D01*
X-7921068Y-54137706D01*
X-8090157Y-53287635D01*
X-8421838Y-52486886D01*
X-8903365Y-51766231D01*
X-9516231Y-51153365D01*
X-10236886Y-50671838D01*
X-11037635Y-50340157D01*
X-11887706Y-50171068D01*
X-12754430Y-50171068D01*
X-13604501Y-50340157D01*
X-13892000Y-50459243D01*
X-13892000Y-21108000D01*
X167977520Y-21108000D01*
X167779832Y-21240091D01*
X167779832Y-21240091D01*
G37*
X167779832Y-21240091D02*
X167240091Y-21779832D01*
X166816020Y-22414499D01*
X166523915Y-23119704D01*
X166459667Y-23442699D01*
X159203107Y-23442699D01*
X159155916Y-23395508D01*
X158459829Y-22930398D01*
X157686378Y-22610024D01*
X156865287Y-22446699D01*
X156028111Y-22446699D01*
X155207020Y-22610024D01*
X154433569Y-22930398D01*
X153737482Y-23395508D01*
X153145508Y-23987482D01*
X152680398Y-24683569D01*
X152360024Y-25457020D01*
X152330193Y-25606989D01*
X120763144Y-25606989D01*
X119664964Y-24508809D01*
X119563062Y-24384641D01*
X119067576Y-23978006D01*
X118502281Y-23675849D01*
X117888899Y-23489782D01*
X117410856Y-23442699D01*
X117410846Y-23442699D01*
X117251004Y-23426956D01*
X117091162Y-23442699D01*
X114703107Y-23442699D01*
X114655916Y-23395508D01*
X113959829Y-22930398D01*
X113186378Y-22610024D01*
X112365287Y-22446699D01*
X111528111Y-22446699D01*
X110707020Y-22610024D01*
X109933569Y-22930398D01*
X109237482Y-23395508D01*
X108645508Y-23987482D01*
X108180398Y-24683569D01*
X107913590Y-25327700D01*
X71626254Y-25327700D01*
X71463000Y-24933569D01*
X70997890Y-24237482D01*
X70405916Y-23645508D01*
X69709829Y-23180398D01*
X68936378Y-22860024D01*
X68115287Y-22696699D01*
X67278111Y-22696699D01*
X66457020Y-22860024D01*
X65683569Y-23180398D01*
X64987482Y-23645508D01*
X64395508Y-24237482D01*
X63930398Y-24933569D01*
X63610024Y-25707020D01*
X63508640Y-26216711D01*
X27384758Y-26216711D01*
X27283374Y-25707020D01*
X26963000Y-24933569D01*
X26497890Y-24237482D01*
X25905916Y-23645508D01*
X25209829Y-23180398D01*
X24436378Y-22860024D01*
X23615287Y-22696699D01*
X22778111Y-22696699D01*
X21957020Y-22860024D01*
X21183569Y-23180398D01*
X20487482Y-23645508D01*
X19895508Y-24237482D01*
X19430398Y-24933569D01*
X19110024Y-25707020D01*
X18946699Y-26528111D01*
X18946699Y-27365287D01*
X19110024Y-28186378D01*
X19430398Y-28959829D01*
X19895508Y-29655916D01*
X20487482Y-30247890D01*
X21183569Y-30713000D01*
X21957020Y-31033374D01*
X22778111Y-31196699D01*
X22844848Y-31196699D01*
X23306755Y-31658606D01*
X23408653Y-31782769D01*
X23532816Y-31884667D01*
X23532817Y-31884668D01*
X23649784Y-31980660D01*
X23904139Y-32189404D01*
X24250000Y-32374271D01*
X24250000Y-32668588D01*
X24413325Y-33489679D01*
X24733699Y-34263130D01*
X25198809Y-34959217D01*
X25790783Y-35551191D01*
X26486870Y-36016301D01*
X27260321Y-36336675D01*
X28081412Y-36500000D01*
X28918588Y-36500000D01*
X29739679Y-36336675D01*
X30513130Y-36016301D01*
X31209217Y-35551191D01*
X31801191Y-34959217D01*
X32266301Y-34263130D01*
X32586675Y-33489679D01*
X32738836Y-32724711D01*
X40515618Y-32724711D01*
X35133729Y-38106602D01*
X19507359Y-38106602D01*
X15615761Y-34215005D01*
X15102259Y-33793585D01*
X14320504Y-33375727D01*
X13472251Y-33118413D01*
X12590097Y-33031529D01*
X11707943Y-33118413D01*
X10859690Y-33375727D01*
X10320905Y-33663714D01*
X9896078Y-33146060D01*
X9714824Y-32997310D01*
X8049273Y-31331759D01*
X8027690Y-31260609D01*
X7749119Y-30739439D01*
X7374225Y-30282630D01*
X1717370Y-24625775D01*
X1260561Y-24250881D01*
X739391Y-23972310D01*
X173889Y-23800767D01*
X-414214Y-23742844D01*
X-1002317Y-23800767D01*
X-1567819Y-23972310D01*
X-2088989Y-24250881D01*
X-2545798Y-24625775D01*
X-5374225Y-27454202D01*
X-5749119Y-27911011D01*
X-6027690Y-28432181D01*
X-6199233Y-28997683D01*
X-6257156Y-29585786D01*
X-6199233Y-30173889D01*
X-6027690Y-30739391D01*
X-5749119Y-31260561D01*
X-5374225Y-31717370D01*
X-515980Y-36575615D01*
X-691093Y-36669215D01*
X-1376308Y-37231556D01*
X-1938649Y-37916770D01*
X-2356506Y-38698524D01*
X-2613820Y-39546778D01*
X-2678932Y-40207868D01*
X-2678932Y-40705352D01*
X-2700704Y-40926408D01*
X-2678932Y-41147464D01*
X-2678932Y-41147471D01*
X-2627922Y-41665377D01*
X-2613820Y-41808562D01*
X-2440484Y-42379975D01*
X-2356506Y-42656815D01*
X-1938649Y-43438570D01*
X-1376308Y-44123784D01*
X-1204593Y-44264707D01*
X7796665Y-53265966D01*
X8310167Y-53687386D01*
X9091922Y-54105244D01*
X9940175Y-54362558D01*
X10822330Y-54449442D01*
X11449150Y-54387706D01*
X27778932Y-54387706D01*
X27778932Y-55254430D01*
X27948021Y-56104501D01*
X28279702Y-56905250D01*
X28761229Y-57625905D01*
X29374095Y-58238771D01*
X30094750Y-58720298D01*
X30895499Y-59051979D01*
X31745570Y-59221068D01*
X32612294Y-59221068D01*
X33462365Y-59051979D01*
X34263114Y-58720298D01*
X34983769Y-58238771D01*
X35596635Y-57625905D01*
X36078162Y-56905250D01*
X36409843Y-56104501D01*
X36578932Y-55254430D01*
X36578932Y-54387706D01*
X36409843Y-53537635D01*
X36078162Y-52736886D01*
X35596635Y-52016231D01*
X34983769Y-51403365D01*
X34263114Y-50921838D01*
X33462365Y-50590157D01*
X32612294Y-50421068D01*
X31745570Y-50421068D01*
X30895499Y-50590157D01*
X30094750Y-50921838D01*
X29374095Y-51403365D01*
X28761229Y-52016231D01*
X28279702Y-52736886D01*
X27948021Y-53537635D01*
X27778932Y-54387706D01*
X11449150Y-54387706D01*
X11704484Y-54362558D01*
X12552737Y-54105244D01*
X13334492Y-53687386D01*
X14019706Y-53125046D01*
X14582046Y-52439832D01*
X14999904Y-51658077D01*
X15173819Y-51084754D01*
X15289027Y-51073407D01*
X16184405Y-50801797D01*
X17009591Y-50360726D01*
X17732872Y-49767144D01*
X18326454Y-49043863D01*
X18767525Y-48218677D01*
X18953196Y-47606602D01*
X36867893Y-47606602D01*
X37101242Y-47629585D01*
X37334591Y-47606602D01*
X38032405Y-47537873D01*
X38927784Y-47266263D01*
X39752969Y-46825192D01*
X40005129Y-46618250D01*
X40008742Y-46616319D01*
X40693956Y-46053978D01*
X40834879Y-45882263D01*
X42884642Y-43832501D01*
X43123692Y-44123784D01*
X43295407Y-44264707D01*
X52296665Y-53265966D01*
X52810167Y-53687386D01*
X53591922Y-54105244D01*
X54440175Y-54362558D01*
X55322330Y-54449442D01*
X56204484Y-54362558D01*
X56945723Y-54137706D01*
X72278932Y-54137706D01*
X72278932Y-55004430D01*
X72448021Y-55854501D01*
X72779702Y-56655250D01*
X73261229Y-57375905D01*
X73874095Y-57988771D01*
X74594750Y-58470298D01*
X75395499Y-58801979D01*
X76245570Y-58971068D01*
X77112294Y-58971068D01*
X77962365Y-58801979D01*
X78763114Y-58470298D01*
X79483769Y-57988771D01*
X80096635Y-57375905D01*
X80578162Y-56655250D01*
X80909843Y-55854501D01*
X81078932Y-55004430D01*
X81078932Y-54137706D01*
X80909843Y-53287635D01*
X80578162Y-52486886D01*
X80096635Y-51766231D01*
X79483769Y-51153365D01*
X78763114Y-50671838D01*
X77962365Y-50340157D01*
X77112294Y-50171068D01*
X76245570Y-50171068D01*
X75395499Y-50340157D01*
X74594750Y-50671838D01*
X73874095Y-51153365D01*
X73261229Y-51766231D01*
X72779702Y-52486886D01*
X72448021Y-53287635D01*
X72278932Y-54137706D01*
X56945723Y-54137706D01*
X57052737Y-54105244D01*
X57834492Y-53687386D01*
X58519706Y-53125046D01*
X59082046Y-52439832D01*
X59499904Y-51658077D01*
X59753215Y-50823021D01*
X60588271Y-50569710D01*
X61370026Y-50151852D01*
X62055240Y-49589512D01*
X62617580Y-48904298D01*
X63035438Y-48122543D01*
X63191947Y-47606602D01*
X81204047Y-47606602D01*
X81437396Y-47629585D01*
X81670745Y-47606602D01*
X82368559Y-47537873D01*
X83263938Y-47266263D01*
X84089123Y-46825192D01*
X84812405Y-46231611D01*
X84862078Y-46171084D01*
X85004772Y-46053978D01*
X85145695Y-45882263D01*
X87508012Y-43519947D01*
X87659557Y-43704605D01*
X90825476Y-46870524D01*
X90967839Y-47083586D01*
X91559813Y-47675560D01*
X91772875Y-47817923D01*
X95431189Y-51476237D01*
X95812613Y-52189832D01*
X96374954Y-52875046D01*
X97060168Y-53437387D01*
X97841922Y-53855244D01*
X98690176Y-54112558D01*
X99572330Y-54199443D01*
X100199152Y-54137706D01*
X116278932Y-54137706D01*
X116278932Y-55004430D01*
X116448021Y-55854501D01*
X116779702Y-56655250D01*
X117261229Y-57375905D01*
X117874095Y-57988771D01*
X118594750Y-58470298D01*
X119395499Y-58801979D01*
X120245570Y-58971068D01*
X121112294Y-58971068D01*
X121962365Y-58801979D01*
X122763114Y-58470298D01*
X123260872Y-58137706D01*
X164084932Y-58137706D01*
X164084932Y-59004430D01*
X164254021Y-59854501D01*
X164585702Y-60655250D01*
X165067229Y-61375905D01*
X165680095Y-61988771D01*
X166400750Y-62470298D01*
X167201499Y-62801979D01*
X168051570Y-62971068D01*
X168918294Y-62971068D01*
X169768365Y-62801979D01*
X170569114Y-62470298D01*
X171289769Y-61988771D01*
X171902635Y-61375905D01*
X172384162Y-60655250D01*
X172715843Y-59854501D01*
X172884932Y-59004430D01*
X172884932Y-58137706D01*
X172715843Y-57287635D01*
X172384162Y-56486886D01*
X171902635Y-55766231D01*
X171289769Y-55153365D01*
X170569114Y-54671838D01*
X169768365Y-54340157D01*
X168918294Y-54171068D01*
X168051570Y-54171068D01*
X167201499Y-54340157D01*
X166400750Y-54671838D01*
X165680095Y-55153365D01*
X165067229Y-55766231D01*
X164585702Y-56486886D01*
X164254021Y-57287635D01*
X164084932Y-58137706D01*
X123260872Y-58137706D01*
X123483769Y-57988771D01*
X124096635Y-57375905D01*
X124578162Y-56655250D01*
X124909843Y-55854501D01*
X125078932Y-55004430D01*
X125078932Y-54137706D01*
X124909843Y-53287635D01*
X124578162Y-52486886D01*
X124096635Y-51766231D01*
X123483769Y-51153365D01*
X122763114Y-50671838D01*
X121962365Y-50340157D01*
X121112294Y-50171068D01*
X120245570Y-50171068D01*
X119395499Y-50340157D01*
X118594750Y-50671838D01*
X117874095Y-51153365D01*
X117261229Y-51766231D01*
X116779702Y-52486886D01*
X116448021Y-53287635D01*
X116278932Y-54137706D01*
X100199152Y-54137706D01*
X100454483Y-54112558D01*
X101302737Y-53855244D01*
X102084492Y-53437387D01*
X102769706Y-52875046D01*
X103332047Y-52189832D01*
X103749904Y-51408078D01*
X104003215Y-50573021D01*
X104838271Y-50319710D01*
X105620026Y-49901852D01*
X106305240Y-49339512D01*
X106867580Y-48654298D01*
X107285438Y-47872543D01*
X107441947Y-47356602D01*
X117910049Y-47356602D01*
X118143398Y-47379585D01*
X118376747Y-47356602D01*
X119074561Y-47287873D01*
X119969940Y-47016263D01*
X120795125Y-46575192D01*
X121518407Y-45981611D01*
X121667167Y-45800346D01*
X128217514Y-39250000D01*
X130476206Y-39250000D01*
X130386180Y-39546778D01*
X130299296Y-40428932D01*
X130386180Y-41311086D01*
X130643494Y-42159339D01*
X131061352Y-42941094D01*
X131482772Y-43454596D01*
X140731512Y-52703337D01*
X140872430Y-52875046D01*
X141044139Y-53015964D01*
X141044141Y-53015966D01*
X141348767Y-53265966D01*
X141557644Y-53437387D01*
X142027080Y-53688306D01*
X142339398Y-53855244D01*
X143187651Y-54112558D01*
X143266034Y-54120278D01*
X143848742Y-54177670D01*
X143848749Y-54177670D01*
X144069806Y-54199442D01*
X144290862Y-54177670D01*
X144293394Y-54177670D01*
X144954484Y-54112558D01*
X145802738Y-53855244D01*
X146584492Y-53437387D01*
X147269706Y-52875046D01*
X147832047Y-52189832D01*
X148249904Y-51408078D01*
X148470298Y-50681532D01*
X149196843Y-50461138D01*
X149978598Y-50043280D01*
X150663812Y-49480940D01*
X150727561Y-49403261D01*
X150805240Y-49339512D01*
X151031105Y-49064294D01*
X151043053Y-49070680D01*
X151985557Y-49356586D01*
X152720101Y-49428932D01*
X152720109Y-49428932D01*
X152965728Y-49453123D01*
X153211347Y-49428932D01*
X182872695Y-49428932D01*
X183607239Y-49356586D01*
X184549743Y-49070680D01*
X185418360Y-48606395D01*
X186179708Y-47981572D01*
X186804531Y-47220224D01*
X187268816Y-46351607D01*
X187554722Y-45409103D01*
X187651260Y-44428932D01*
X187554722Y-43448761D01*
X187268816Y-42506257D01*
X186804531Y-41637640D01*
X186489685Y-41254000D01*
X188152150Y-41254000D01*
X196578967Y-49680818D01*
X196578968Y-57444858D01*
X196578967Y-57444866D01*
X196578967Y-82171068D01*
X196387706Y-82171068D01*
X195537635Y-82340157D01*
X194736886Y-82671838D01*
X194016231Y-83153365D01*
X193403365Y-83766231D01*
X192921838Y-84486886D01*
X192590157Y-85287635D01*
X192421068Y-86137706D01*
X192421068Y-87004430D01*
X192590157Y-87854501D01*
X192921838Y-88655250D01*
X193403365Y-89375905D01*
X194016231Y-89988771D01*
X194736886Y-90470298D01*
X195537635Y-90801979D01*
X196387706Y-90971068D01*
X196578967Y-90971068D01*
X196578968Y-138171068D01*
X196387706Y-138171068D01*
X195537635Y-138340157D01*
X194736886Y-138671838D01*
X194016231Y-139153365D01*
X193403365Y-139766231D01*
X192921838Y-140486886D01*
X192590157Y-141287635D01*
X192421068Y-142137706D01*
X192421068Y-143004430D01*
X192590157Y-143854501D01*
X192921838Y-144655250D01*
X193403365Y-145375905D01*
X194016231Y-145988771D01*
X194736886Y-146470298D01*
X195537635Y-146801979D01*
X196387706Y-146971068D01*
X196578968Y-146971068D01*
X196578968Y-154667629D01*
X190202881Y-161043716D01*
X190186120Y-161038632D01*
X190014177Y-161021697D01*
X189844720Y-160987990D01*
X158437737Y-160987990D01*
X155846466Y-158396720D01*
X155736849Y-158263151D01*
X155203904Y-157825775D01*
X154595873Y-157500776D01*
X153936120Y-157300642D01*
X153421944Y-157250000D01*
X153250000Y-157233065D01*
X153078056Y-157250000D01*
X146411678Y-157250000D01*
X146013130Y-156983699D01*
X145992401Y-156975113D01*
X150831715Y-152135799D01*
X150840301Y-152156528D01*
X151305411Y-152852615D01*
X151897385Y-153444589D01*
X152593472Y-153909699D01*
X153366923Y-154230073D01*
X154188014Y-154393398D01*
X155025190Y-154393398D01*
X155817504Y-154235797D01*
X155659903Y-155028111D01*
X155659903Y-155865287D01*
X155823228Y-156686378D01*
X156143602Y-157459829D01*
X156608712Y-158155916D01*
X157200686Y-158747890D01*
X157896773Y-159213000D01*
X158670224Y-159533374D01*
X159491315Y-159696699D01*
X160328491Y-159696699D01*
X161149582Y-159533374D01*
X161923033Y-159213000D01*
X162619120Y-158747890D01*
X163211094Y-158155916D01*
X163676204Y-157459829D01*
X163996578Y-156686378D01*
X164008044Y-156628736D01*
X164376599Y-156592436D01*
X165271977Y-156320826D01*
X166097163Y-155879755D01*
X166820444Y-155286173D01*
X167414026Y-154562892D01*
X167855097Y-153737706D01*
X168126707Y-152842328D01*
X168163007Y-152473772D01*
X168220649Y-152462306D01*
X168994100Y-152141932D01*
X169690187Y-151676822D01*
X170282161Y-151084848D01*
X170747271Y-150388761D01*
X171067645Y-149615310D01*
X171230970Y-148794219D01*
X171230970Y-147957043D01*
X171067645Y-147135952D01*
X170747271Y-146362501D01*
X170282161Y-145666414D01*
X169690187Y-145074440D01*
X168994100Y-144609330D01*
X168220649Y-144288956D01*
X167399558Y-144125631D01*
X166562382Y-144125631D01*
X165770069Y-144283232D01*
X165927670Y-143490918D01*
X165927670Y-142653742D01*
X165764345Y-141832651D01*
X165443971Y-141059200D01*
X164978861Y-140363113D01*
X164386887Y-139771139D01*
X163690800Y-139306029D01*
X162917349Y-138985655D01*
X162096258Y-138822330D01*
X161259082Y-138822330D01*
X160437991Y-138985655D01*
X159664540Y-139306029D01*
X158968453Y-139771139D01*
X158376479Y-140363113D01*
X158172750Y-140668016D01*
X157658824Y-140512118D01*
X156961010Y-140443389D01*
X156961008Y-140443389D01*
X156727661Y-140420406D01*
X156494312Y-140443389D01*
X153221068Y-140443389D01*
X153221068Y-139637706D01*
X153051979Y-138787635D01*
X152720298Y-137986886D01*
X152238771Y-137266231D01*
X151625905Y-136653365D01*
X150905250Y-136171838D01*
X150104501Y-135840157D01*
X149254430Y-135671068D01*
X148387706Y-135671068D01*
X147537635Y-135840157D01*
X146736886Y-136171838D01*
X146016231Y-136653365D01*
X145403365Y-137266231D01*
X144921838Y-137986886D01*
X144590157Y-138787635D01*
X144421068Y-139637706D01*
X144421068Y-140504430D01*
X144590157Y-141354501D01*
X144921838Y-142155250D01*
X145403365Y-142875905D01*
X146016231Y-143488771D01*
X146032707Y-143499780D01*
X137921312Y-151611175D01*
X125290131Y-151611175D01*
X125940187Y-151176822D01*
X126532161Y-150584848D01*
X126997271Y-149888761D01*
X127317645Y-149115310D01*
X127480970Y-148294219D01*
X127480970Y-147457043D01*
X127317645Y-146635952D01*
X126997271Y-145862501D01*
X126532161Y-145166414D01*
X125940187Y-144574440D01*
X125244100Y-144109330D01*
X124470649Y-143788956D01*
X123649558Y-143625631D01*
X122812382Y-143625631D01*
X122020069Y-143783232D01*
X122177670Y-142990918D01*
X122177670Y-142153742D01*
X122014345Y-141332651D01*
X121693971Y-140559200D01*
X121228861Y-139863113D01*
X120636887Y-139271139D01*
X119940800Y-138806029D01*
X119167349Y-138485655D01*
X118346258Y-138322330D01*
X117509082Y-138322330D01*
X116687991Y-138485655D01*
X115914540Y-138806029D01*
X115218453Y-139271139D01*
X114626479Y-139863113D01*
X114410835Y-140185847D01*
X113838126Y-140012118D01*
X113140312Y-139943389D01*
X112906963Y-139920406D01*
X112673614Y-139943389D01*
X109471068Y-139943389D01*
X109471068Y-139637706D01*
X109301979Y-138787635D01*
X108970298Y-137986886D01*
X108488771Y-137266231D01*
X107875905Y-136653365D01*
X107155250Y-136171838D01*
X106354501Y-135840157D01*
X105504430Y-135671068D01*
X104637706Y-135671068D01*
X103787635Y-135840157D01*
X102986886Y-136171838D01*
X102266231Y-136653365D01*
X101653365Y-137266231D01*
X101171838Y-137986886D01*
X100840157Y-138787635D01*
X100671068Y-139637706D01*
X100671068Y-140504430D01*
X100840157Y-141354501D01*
X101171838Y-142155250D01*
X101653365Y-142875905D01*
X101779973Y-143002513D01*
X93421312Y-151361175D01*
X82540131Y-151361175D01*
X83190187Y-150926822D01*
X83782161Y-150334848D01*
X84247271Y-149638761D01*
X84567645Y-148865310D01*
X84730970Y-148044219D01*
X84730970Y-147207043D01*
X84567645Y-146385952D01*
X84247271Y-145612501D01*
X83782161Y-144916414D01*
X83190187Y-144324440D01*
X82494100Y-143859330D01*
X81720649Y-143538956D01*
X80899558Y-143375631D01*
X80062382Y-143375631D01*
X79270069Y-143533232D01*
X79427670Y-142740918D01*
X79427670Y-141903742D01*
X79264345Y-141082651D01*
X78943971Y-140309200D01*
X78478861Y-139613113D01*
X77886887Y-139021139D01*
X77190800Y-138556029D01*
X76417349Y-138235655D01*
X75596258Y-138072330D01*
X74759082Y-138072330D01*
X73937991Y-138235655D01*
X73164540Y-138556029D01*
X72468453Y-139021139D01*
X71876479Y-139613113D01*
X71660835Y-139935847D01*
X71088126Y-139762118D01*
X70390312Y-139693389D01*
X70156963Y-139670406D01*
X69923614Y-139693389D01*
X66289590Y-139693389D01*
X66056241Y-139670406D01*
X65822892Y-139693389D01*
X65125078Y-139762118D01*
X64971068Y-139808836D01*
X64971068Y-139637706D01*
X64801979Y-138787635D01*
X64470298Y-137986886D01*
X63988771Y-137266231D01*
X63375905Y-136653365D01*
X62655250Y-136171838D01*
X61854501Y-135840157D01*
X61004430Y-135671068D01*
X60137706Y-135671068D01*
X59287635Y-135840157D01*
X58486886Y-136171838D01*
X57766231Y-136653365D01*
X57153365Y-137266231D01*
X56671838Y-137986886D01*
X56340157Y-138787635D01*
X56171068Y-139637706D01*
X56171068Y-140504430D01*
X56340157Y-141354501D01*
X56671838Y-142155250D01*
X57153365Y-142875905D01*
X57766231Y-143488771D01*
X58486886Y-143970298D01*
X59287635Y-144301979D01*
X59448199Y-144333917D01*
X52170942Y-151611175D01*
X37790131Y-151611175D01*
X38440187Y-151176822D01*
X39032161Y-150584848D01*
X39497271Y-149888761D01*
X39817645Y-149115310D01*
X39980970Y-148294219D01*
X39980970Y-147457043D01*
X39817645Y-146635952D01*
X39497271Y-145862501D01*
X39032161Y-145166414D01*
X38440187Y-144574440D01*
X37744100Y-144109330D01*
X36970649Y-143788956D01*
X36149558Y-143625631D01*
X35312382Y-143625631D01*
X34520069Y-143783232D01*
X34677670Y-142990918D01*
X34677670Y-142153742D01*
X34514345Y-141332651D01*
X34193971Y-140559200D01*
X33728861Y-139863113D01*
X33136887Y-139271139D01*
X32440800Y-138806029D01*
X31667349Y-138485655D01*
X30846258Y-138322330D01*
X30009082Y-138322330D01*
X29187991Y-138485655D01*
X28414540Y-138806029D01*
X27718453Y-139271139D01*
X27126479Y-139863113D01*
X26713949Y-140480509D01*
X26524291Y-140422977D01*
X25863201Y-140357865D01*
X25863193Y-140357865D01*
X25642137Y-140336093D01*
X25421081Y-140357865D01*
X20471068Y-140357865D01*
X20471068Y-139637706D01*
X20301979Y-138787635D01*
X19970298Y-137986886D01*
X19488771Y-137266231D01*
X18875905Y-136653365D01*
X18155250Y-136171838D01*
X17354501Y-135840157D01*
X16504430Y-135671068D01*
X15637706Y-135671068D01*
X14787635Y-135840157D01*
X13986886Y-136171838D01*
X13266231Y-136653365D01*
X12653365Y-137266231D01*
X12171838Y-137986886D01*
X11840157Y-138787635D01*
X11671068Y-139637706D01*
X11671068Y-140357865D01*
X9613191Y-140357865D01*
X9392135Y-140336093D01*
X9171078Y-140357865D01*
X9171071Y-140357865D01*
X8588363Y-140415257D01*
X8509980Y-140422977D01*
X8144879Y-140533729D01*
X7661727Y-140680291D01*
X6879973Y-141098148D01*
X6879971Y-141098149D01*
X6879972Y-141098149D01*
X6590038Y-141336092D01*
X6194759Y-141660489D01*
X6053841Y-141832198D01*
X-2413726Y-150299766D01*
X-2423889Y-150300767D01*
X-2989391Y-150472310D01*
X-3510561Y-150750881D01*
X-3967370Y-151125775D01*
X-9624225Y-156782630D01*
X-9999119Y-157239439D01*
X-10277690Y-157760609D01*
X-10449233Y-158326111D01*
X-10507156Y-158914214D01*
X-10449233Y-159502317D01*
X-10277690Y-160067819D01*
X-9999119Y-160588989D01*
X-9624225Y-161045798D01*
X-6795798Y-163874225D01*
X-6338989Y-164249119D01*
X-5817819Y-164527690D01*
X-5252317Y-164699233D01*
X-4664214Y-164757156D01*
X-4076111Y-164699233D01*
X-3510609Y-164527690D01*
X-2989439Y-164249119D01*
X-2532630Y-163874225D01*
X3124225Y-158217370D01*
X3499119Y-157760561D01*
X3777690Y-157239391D01*
X3949233Y-156673889D01*
X3950234Y-156663726D01*
X11256096Y-149357865D01*
X18862952Y-149357865D01*
X18834830Y-149643398D01*
X18921714Y-150525552D01*
X19179028Y-151373805D01*
X19596886Y-152155560D01*
X20018306Y-152669062D01*
X24396955Y-157047712D01*
X24691238Y-157598313D01*
X25284799Y-158321612D01*
X25860452Y-158794065D01*
X25947388Y-158881001D01*
X21631451Y-158881001D01*
X21471601Y-158865257D01*
X21311751Y-158881001D01*
X21311749Y-158881001D01*
X20833706Y-158928084D01*
X20220324Y-159114151D01*
X19655029Y-159416308D01*
X19159543Y-159822943D01*
X19057641Y-159947111D01*
X17701451Y-161303301D01*
X17634713Y-161303301D01*
X16842399Y-161460902D01*
X17000000Y-160668588D01*
X17000000Y-159831412D01*
X16836675Y-159010321D01*
X16516301Y-158236870D01*
X16051191Y-157540783D01*
X15459217Y-156948809D01*
X14763130Y-156483699D01*
X13989679Y-156163325D01*
X13168588Y-156000000D01*
X12331412Y-156000000D01*
X11510321Y-156163325D01*
X10736870Y-156483699D01*
X10040783Y-156948809D01*
X9448809Y-157540783D01*
X8983699Y-158236870D01*
X8663325Y-159010321D01*
X8500000Y-159831412D01*
X8500000Y-160668588D01*
X8663325Y-161489679D01*
X8983699Y-162263130D01*
X9448809Y-162959217D01*
X10040783Y-163551191D01*
X10736870Y-164016301D01*
X11510321Y-164336675D01*
X12331412Y-164500000D01*
X13168588Y-164500000D01*
X13960902Y-164342399D01*
X13803301Y-165134713D01*
X13803301Y-165971889D01*
X13966626Y-166792980D01*
X14287000Y-167566431D01*
X14752110Y-168262518D01*
X15344084Y-168854492D01*
X15400219Y-168892000D01*
X-13892000Y-168892000D01*
X-13892000Y-125495570D01*
X-2471068Y-125495570D01*
X-2471068Y-126362294D01*
X-2301979Y-127212365D01*
X-1970298Y-128013114D01*
X-1488771Y-128733769D01*
X-875905Y-129346635D01*
X-155250Y-129828162D01*
X645499Y-130159843D01*
X1495570Y-130328932D01*
X2362294Y-130328932D01*
X3212365Y-130159843D01*
X4013114Y-129828162D01*
X4733769Y-129346635D01*
X5346635Y-128733769D01*
X5828162Y-128013114D01*
X6159843Y-127212365D01*
X6328932Y-126362294D01*
X6328932Y-125495570D01*
X42028932Y-125495570D01*
X42028932Y-126362294D01*
X42198021Y-127212365D01*
X42529702Y-128013114D01*
X43011229Y-128733769D01*
X43624095Y-129346635D01*
X44344750Y-129828162D01*
X45145499Y-130159843D01*
X45995570Y-130328932D01*
X46862294Y-130328932D01*
X47712365Y-130159843D01*
X48513114Y-129828162D01*
X49233769Y-129346635D01*
X49846635Y-128733769D01*
X50328162Y-128013114D01*
X50659843Y-127212365D01*
X50828932Y-126362294D01*
X50828932Y-125495570D01*
X86528932Y-125495570D01*
X86528932Y-126362294D01*
X86698021Y-127212365D01*
X87029702Y-128013114D01*
X87511229Y-128733769D01*
X88124095Y-129346635D01*
X88844750Y-129828162D01*
X89645499Y-130159843D01*
X90495570Y-130328932D01*
X91362294Y-130328932D01*
X92212365Y-130159843D01*
X93013114Y-129828162D01*
X93733769Y-129346635D01*
X94346635Y-128733769D01*
X94828162Y-128013114D01*
X95159843Y-127212365D01*
X95328932Y-126362294D01*
X95328932Y-125495570D01*
X130278932Y-125495570D01*
X130278932Y-126362294D01*
X130448021Y-127212365D01*
X130779702Y-128013114D01*
X131261229Y-128733769D01*
X131874095Y-129346635D01*
X132594750Y-129828162D01*
X133395499Y-130159843D01*
X134245570Y-130328932D01*
X135112294Y-130328932D01*
X135962365Y-130159843D01*
X136763114Y-129828162D01*
X137483769Y-129346635D01*
X138096635Y-128733769D01*
X138578162Y-128013114D01*
X138585428Y-127995570D01*
X178278932Y-127995570D01*
X178278932Y-128862294D01*
X178448021Y-129712365D01*
X178779702Y-130513114D01*
X179261229Y-131233769D01*
X179874095Y-131846635D01*
X180594750Y-132328162D01*
X181395499Y-132659843D01*
X182245570Y-132828932D01*
X183112294Y-132828932D01*
X183962365Y-132659843D01*
X184763114Y-132328162D01*
X185483769Y-131846635D01*
X186096635Y-131233769D01*
X186578162Y-130513114D01*
X186909843Y-129712365D01*
X187078932Y-128862294D01*
X187078932Y-127995570D01*
X186909843Y-127145499D01*
X186578162Y-126344750D01*
X186096635Y-125624095D01*
X185483769Y-125011229D01*
X184763114Y-124529702D01*
X183962365Y-124198021D01*
X183112294Y-124028932D01*
X182245570Y-124028932D01*
X181395499Y-124198021D01*
X180594750Y-124529702D01*
X179874095Y-125011229D01*
X179261229Y-125624095D01*
X178779702Y-126344750D01*
X178448021Y-127145499D01*
X178278932Y-127995570D01*
X138585428Y-127995570D01*
X138909843Y-127212365D01*
X139078932Y-126362294D01*
X139078932Y-125495570D01*
X138909843Y-124645499D01*
X138578162Y-123844750D01*
X138096635Y-123124095D01*
X137483769Y-122511229D01*
X136763114Y-122029702D01*
X135962365Y-121698021D01*
X135112294Y-121528932D01*
X134245570Y-121528932D01*
X133395499Y-121698021D01*
X132594750Y-122029702D01*
X131874095Y-122511229D01*
X131261229Y-123124095D01*
X130779702Y-123844750D01*
X130448021Y-124645499D01*
X130278932Y-125495570D01*
X95328932Y-125495570D01*
X95159843Y-124645499D01*
X94828162Y-123844750D01*
X94346635Y-123124095D01*
X93733769Y-122511229D01*
X93013114Y-122029702D01*
X92212365Y-121698021D01*
X91362294Y-121528932D01*
X90495570Y-121528932D01*
X89645499Y-121698021D01*
X88844750Y-122029702D01*
X88124095Y-122511229D01*
X87511229Y-123124095D01*
X87029702Y-123844750D01*
X86698021Y-124645499D01*
X86528932Y-125495570D01*
X50828932Y-125495570D01*
X50659843Y-124645499D01*
X50328162Y-123844750D01*
X49846635Y-123124095D01*
X49233769Y-122511229D01*
X48513114Y-122029702D01*
X47712365Y-121698021D01*
X46862294Y-121528932D01*
X45995570Y-121528932D01*
X45145499Y-121698021D01*
X44344750Y-122029702D01*
X43624095Y-122511229D01*
X43011229Y-123124095D01*
X42529702Y-123844750D01*
X42198021Y-124645499D01*
X42028932Y-125495570D01*
X6328932Y-125495570D01*
X6159843Y-124645499D01*
X5828162Y-123844750D01*
X5346635Y-123124095D01*
X4733769Y-122511229D01*
X4013114Y-122029702D01*
X3212365Y-121698021D01*
X2362294Y-121528932D01*
X1495570Y-121528932D01*
X645499Y-121698021D01*
X-155250Y-122029702D01*
X-875905Y-122511229D01*
X-1488771Y-123124095D01*
X-1970298Y-123844750D01*
X-2301979Y-124645499D01*
X-2471068Y-125495570D01*
X-13892000Y-125495570D01*
X-13892000Y-115182893D01*
X-13604501Y-115301979D01*
X-12754430Y-115471068D01*
X-11887706Y-115471068D01*
X-11037635Y-115301979D01*
X-10236886Y-114970298D01*
X-9516231Y-114488771D01*
X-8903365Y-113875905D01*
X-8421838Y-113155250D01*
X-8090157Y-112354501D01*
X-7921068Y-111504430D01*
X-7921068Y-110637706D01*
X27778932Y-110637706D01*
X27778932Y-111504430D01*
X27948021Y-112354501D01*
X28279702Y-113155250D01*
X28761229Y-113875905D01*
X29374095Y-114488771D01*
X30094750Y-114970298D01*
X30895499Y-115301979D01*
X31745570Y-115471068D01*
X32612294Y-115471068D01*
X33462365Y-115301979D01*
X34263114Y-114970298D01*
X34983769Y-114488771D01*
X35596635Y-113875905D01*
X36078162Y-113155250D01*
X36409843Y-112354501D01*
X36578932Y-111504430D01*
X36578932Y-110637706D01*
X72278932Y-110637706D01*
X72278932Y-111504430D01*
X72448021Y-112354501D01*
X72779702Y-113155250D01*
X73261229Y-113875905D01*
X73874095Y-114488771D01*
X74594750Y-114970298D01*
X75395499Y-115301979D01*
X76245570Y-115471068D01*
X77112294Y-115471068D01*
X77962365Y-115301979D01*
X78763114Y-114970298D01*
X79483769Y-114488771D01*
X80096635Y-113875905D01*
X80578162Y-113155250D01*
X80909843Y-112354501D01*
X81078932Y-111504430D01*
X81078932Y-110637706D01*
X116278932Y-110637706D01*
X116278932Y-111504430D01*
X116448021Y-112354501D01*
X116779702Y-113155250D01*
X117261229Y-113875905D01*
X117874095Y-114488771D01*
X118594750Y-114970298D01*
X119395499Y-115301979D01*
X120245570Y-115471068D01*
X121112294Y-115471068D01*
X121962365Y-115301979D01*
X122763114Y-114970298D01*
X123483769Y-114488771D01*
X123834834Y-114137706D01*
X164278932Y-114137706D01*
X164278932Y-115004430D01*
X164448021Y-115854501D01*
X164779702Y-116655250D01*
X165261229Y-117375905D01*
X165874095Y-117988771D01*
X166594750Y-118470298D01*
X167395499Y-118801979D01*
X168245570Y-118971068D01*
X169112294Y-118971068D01*
X169962365Y-118801979D01*
X170763114Y-118470298D01*
X171483769Y-117988771D01*
X172096635Y-117375905D01*
X172578162Y-116655250D01*
X172909843Y-115854501D01*
X173078932Y-115004430D01*
X173078932Y-114137706D01*
X172909843Y-113287635D01*
X172578162Y-112486886D01*
X172096635Y-111766231D01*
X171483769Y-111153365D01*
X170763114Y-110671838D01*
X169962365Y-110340157D01*
X169112294Y-110171068D01*
X168245570Y-110171068D01*
X167395499Y-110340157D01*
X166594750Y-110671838D01*
X165874095Y-111153365D01*
X165261229Y-111766231D01*
X164779702Y-112486886D01*
X164448021Y-113287635D01*
X164278932Y-114137706D01*
X123834834Y-114137706D01*
X124096635Y-113875905D01*
X124578162Y-113155250D01*
X124909843Y-112354501D01*
X125078932Y-111504430D01*
X125078932Y-110637706D01*
X124909843Y-109787635D01*
X124578162Y-108986886D01*
X124096635Y-108266231D01*
X123483769Y-107653365D01*
X122763114Y-107171838D01*
X121962365Y-106840157D01*
X121112294Y-106671068D01*
X120245570Y-106671068D01*
X119395499Y-106840157D01*
X118594750Y-107171838D01*
X117874095Y-107653365D01*
X117261229Y-108266231D01*
X116779702Y-108986886D01*
X116448021Y-109787635D01*
X116278932Y-110637706D01*
X81078932Y-110637706D01*
X80909843Y-109787635D01*
X80578162Y-108986886D01*
X80096635Y-108266231D01*
X79483769Y-107653365D01*
X78763114Y-107171838D01*
X77962365Y-106840157D01*
X77112294Y-106671068D01*
X76245570Y-106671068D01*
X75395499Y-106840157D01*
X74594750Y-107171838D01*
X73874095Y-107653365D01*
X73261229Y-108266231D01*
X72779702Y-108986886D01*
X72448021Y-109787635D01*
X72278932Y-110637706D01*
X36578932Y-110637706D01*
X36409843Y-109787635D01*
X36078162Y-108986886D01*
X35596635Y-108266231D01*
X34983769Y-107653365D01*
X34263114Y-107171838D01*
X33462365Y-106840157D01*
X32612294Y-106671068D01*
X31745570Y-106671068D01*
X30895499Y-106840157D01*
X30094750Y-107171838D01*
X29374095Y-107653365D01*
X28761229Y-108266231D01*
X28279702Y-108986886D01*
X27948021Y-109787635D01*
X27778932Y-110637706D01*
X-7921068Y-110637706D01*
X-8090157Y-109787635D01*
X-8421838Y-108986886D01*
X-8903365Y-108266231D01*
X-9516231Y-107653365D01*
X-10236886Y-107171838D01*
X-11037635Y-106840157D01*
X-11887706Y-106671068D01*
X-12754430Y-106671068D01*
X-13604501Y-106840157D01*
X-13892000Y-106959243D01*
X-13892000Y-96495570D01*
X-2578932Y-96495570D01*
X-2578932Y-97362294D01*
X-2409843Y-98212365D01*
X-2078162Y-99013114D01*
X-1596635Y-99733769D01*
X-983769Y-100346635D01*
X-263114Y-100828162D01*
X537635Y-101159843D01*
X1387706Y-101328932D01*
X2254430Y-101328932D01*
X3104501Y-101159843D01*
X3905250Y-100828162D01*
X4625905Y-100346635D01*
X5238771Y-99733769D01*
X5720298Y-99013114D01*
X6051979Y-98212365D01*
X6221068Y-97362294D01*
X6221068Y-96495570D01*
X41921068Y-96495570D01*
X41921068Y-97362294D01*
X42090157Y-98212365D01*
X42421838Y-99013114D01*
X42903365Y-99733769D01*
X43516231Y-100346635D01*
X44236886Y-100828162D01*
X45037635Y-101159843D01*
X45887706Y-101328932D01*
X46754430Y-101328932D01*
X47604501Y-101159843D01*
X48405250Y-100828162D01*
X49125905Y-100346635D01*
X49738771Y-99733769D01*
X50220298Y-99013114D01*
X50551979Y-98212365D01*
X50721068Y-97362294D01*
X50721068Y-96495570D01*
X86421068Y-96495570D01*
X86421068Y-97362294D01*
X86590157Y-98212365D01*
X86921838Y-99013114D01*
X87403365Y-99733769D01*
X88016231Y-100346635D01*
X88736886Y-100828162D01*
X89537635Y-101159843D01*
X90387706Y-101328932D01*
X91254430Y-101328932D01*
X92104501Y-101159843D01*
X92905250Y-100828162D01*
X93625905Y-100346635D01*
X94238771Y-99733769D01*
X94720298Y-99013114D01*
X95051979Y-98212365D01*
X95221068Y-97362294D01*
X95221068Y-96495570D01*
X130421068Y-96495570D01*
X130421068Y-97362294D01*
X130590157Y-98212365D01*
X130921838Y-99013114D01*
X131403365Y-99733769D01*
X132016231Y-100346635D01*
X132736886Y-100828162D01*
X133537635Y-101159843D01*
X134387706Y-101328932D01*
X135254430Y-101328932D01*
X136104501Y-101159843D01*
X136905250Y-100828162D01*
X137625905Y-100346635D01*
X137976970Y-99995570D01*
X178421068Y-99995570D01*
X178421068Y-100862294D01*
X178590157Y-101712365D01*
X178921838Y-102513114D01*
X179403365Y-103233769D01*
X180016231Y-103846635D01*
X180736886Y-104328162D01*
X181537635Y-104659843D01*
X182387706Y-104828932D01*
X183254430Y-104828932D01*
X184104501Y-104659843D01*
X184905250Y-104328162D01*
X185625905Y-103846635D01*
X186238771Y-103233769D01*
X186720298Y-102513114D01*
X187051979Y-101712365D01*
X187221068Y-100862294D01*
X187221068Y-99995570D01*
X187051979Y-99145499D01*
X186720298Y-98344750D01*
X186238771Y-97624095D01*
X185625905Y-97011229D01*
X184905250Y-96529702D01*
X184104501Y-96198021D01*
X183254430Y-96028932D01*
X182387706Y-96028932D01*
X181537635Y-96198021D01*
X180736886Y-96529702D01*
X180016231Y-97011229D01*
X179403365Y-97624095D01*
X178921838Y-98344750D01*
X178590157Y-99145499D01*
X178421068Y-99995570D01*
X137976970Y-99995570D01*
X138238771Y-99733769D01*
X138720298Y-99013114D01*
X139051979Y-98212365D01*
X139221068Y-97362294D01*
X139221068Y-96495570D01*
X139051979Y-95645499D01*
X138720298Y-94844750D01*
X138238771Y-94124095D01*
X137625905Y-93511229D01*
X136905250Y-93029702D01*
X136104501Y-92698021D01*
X135254430Y-92528932D01*
X134387706Y-92528932D01*
X133537635Y-92698021D01*
X132736886Y-93029702D01*
X132016231Y-93511229D01*
X131403365Y-94124095D01*
X130921838Y-94844750D01*
X130590157Y-95645499D01*
X130421068Y-96495570D01*
X95221068Y-96495570D01*
X95051979Y-95645499D01*
X94720298Y-94844750D01*
X94238771Y-94124095D01*
X93625905Y-93511229D01*
X92905250Y-93029702D01*
X92104501Y-92698021D01*
X91254430Y-92528932D01*
X90387706Y-92528932D01*
X89537635Y-92698021D01*
X88736886Y-93029702D01*
X88016231Y-93511229D01*
X87403365Y-94124095D01*
X86921838Y-94844750D01*
X86590157Y-95645499D01*
X86421068Y-96495570D01*
X50721068Y-96495570D01*
X50551979Y-95645499D01*
X50220298Y-94844750D01*
X49738771Y-94124095D01*
X49125905Y-93511229D01*
X48405250Y-93029702D01*
X47604501Y-92698021D01*
X46754430Y-92528932D01*
X45887706Y-92528932D01*
X45037635Y-92698021D01*
X44236886Y-93029702D01*
X43516231Y-93511229D01*
X42903365Y-94124095D01*
X42421838Y-94844750D01*
X42090157Y-95645499D01*
X41921068Y-96495570D01*
X6221068Y-96495570D01*
X6051979Y-95645499D01*
X5720298Y-94844750D01*
X5238771Y-94124095D01*
X4625905Y-93511229D01*
X3905250Y-93029702D01*
X3104501Y-92698021D01*
X2254430Y-92528932D01*
X1387706Y-92528932D01*
X537635Y-92698021D01*
X-263114Y-93029702D01*
X-983769Y-93511229D01*
X-1596635Y-94124095D01*
X-2078162Y-94844750D01*
X-2409843Y-95645499D01*
X-2578932Y-96495570D01*
X-13892000Y-96495570D01*
X-13892000Y-82137706D01*
X11671068Y-82137706D01*
X11671068Y-83004430D01*
X11840157Y-83854501D01*
X12171838Y-84655250D01*
X12653365Y-85375905D01*
X13266231Y-85988771D01*
X13986886Y-86470298D01*
X14787635Y-86801979D01*
X15637706Y-86971068D01*
X16504430Y-86971068D01*
X17354501Y-86801979D01*
X18155250Y-86470298D01*
X18875905Y-85988771D01*
X19488771Y-85375905D01*
X19970298Y-84655250D01*
X20301979Y-83854501D01*
X20471068Y-83004430D01*
X20471068Y-82137706D01*
X56171068Y-82137706D01*
X56171068Y-83004430D01*
X56340157Y-83854501D01*
X56671838Y-84655250D01*
X57153365Y-85375905D01*
X57766231Y-85988771D01*
X58486886Y-86470298D01*
X59287635Y-86801979D01*
X60137706Y-86971068D01*
X61004430Y-86971068D01*
X61854501Y-86801979D01*
X62655250Y-86470298D01*
X63375905Y-85988771D01*
X63988771Y-85375905D01*
X64470298Y-84655250D01*
X64801979Y-83854501D01*
X64971068Y-83004430D01*
X64971068Y-82137706D01*
X100421068Y-82137706D01*
X100421068Y-83004430D01*
X100590157Y-83854501D01*
X100921838Y-84655250D01*
X101403365Y-85375905D01*
X102016231Y-85988771D01*
X102736886Y-86470298D01*
X103537635Y-86801979D01*
X104387706Y-86971068D01*
X105254430Y-86971068D01*
X106104501Y-86801979D01*
X106905250Y-86470298D01*
X107625905Y-85988771D01*
X108238771Y-85375905D01*
X108720298Y-84655250D01*
X109051979Y-83854501D01*
X109221068Y-83004430D01*
X109221068Y-82137706D01*
X144421068Y-82137706D01*
X144421068Y-83004430D01*
X144590157Y-83854501D01*
X144921838Y-84655250D01*
X145403365Y-85375905D01*
X146016231Y-85988771D01*
X146736886Y-86470298D01*
X147537635Y-86801979D01*
X148387706Y-86971068D01*
X149254430Y-86971068D01*
X150104501Y-86801979D01*
X150905250Y-86470298D01*
X151625905Y-85988771D01*
X152238771Y-85375905D01*
X152720298Y-84655250D01*
X153051979Y-83854501D01*
X153221068Y-83004430D01*
X153221068Y-82137706D01*
X153051979Y-81287635D01*
X152720298Y-80486886D01*
X152238771Y-79766231D01*
X151625905Y-79153365D01*
X150905250Y-78671838D01*
X150104501Y-78340157D01*
X149254430Y-78171068D01*
X148387706Y-78171068D01*
X147537635Y-78340157D01*
X146736886Y-78671838D01*
X146016231Y-79153365D01*
X145403365Y-79766231D01*
X144921838Y-80486886D01*
X144590157Y-81287635D01*
X144421068Y-82137706D01*
X109221068Y-82137706D01*
X109051979Y-81287635D01*
X108720298Y-80486886D01*
X108238771Y-79766231D01*
X107625905Y-79153365D01*
X106905250Y-78671838D01*
X106104501Y-78340157D01*
X105254430Y-78171068D01*
X104387706Y-78171068D01*
X103537635Y-78340157D01*
X102736886Y-78671838D01*
X102016231Y-79153365D01*
X101403365Y-79766231D01*
X100921838Y-80486886D01*
X100590157Y-81287635D01*
X100421068Y-82137706D01*
X64971068Y-82137706D01*
X64801979Y-81287635D01*
X64470298Y-80486886D01*
X63988771Y-79766231D01*
X63375905Y-79153365D01*
X62655250Y-78671838D01*
X61854501Y-78340157D01*
X61004430Y-78171068D01*
X60137706Y-78171068D01*
X59287635Y-78340157D01*
X58486886Y-78671838D01*
X57766231Y-79153365D01*
X57153365Y-79766231D01*
X56671838Y-80486886D01*
X56340157Y-81287635D01*
X56171068Y-82137706D01*
X20471068Y-82137706D01*
X20301979Y-81287635D01*
X19970298Y-80486886D01*
X19488771Y-79766231D01*
X18875905Y-79153365D01*
X18155250Y-78671838D01*
X17354501Y-78340157D01*
X16504430Y-78171068D01*
X15637706Y-78171068D01*
X14787635Y-78340157D01*
X13986886Y-78671838D01*
X13266231Y-79153365D01*
X12653365Y-79766231D01*
X12171838Y-80486886D01*
X11840157Y-81287635D01*
X11671068Y-82137706D01*
X-13892000Y-82137706D01*
X-13892000Y-67995570D01*
X-2471068Y-67995570D01*
X-2471068Y-68862294D01*
X-2301979Y-69712365D01*
X-1970298Y-70513114D01*
X-1488771Y-71233769D01*
X-875905Y-71846635D01*
X-155250Y-72328162D01*
X645499Y-72659843D01*
X1495570Y-72828932D01*
X2362294Y-72828932D01*
X3212365Y-72659843D01*
X4013114Y-72328162D01*
X4733769Y-71846635D01*
X5346635Y-71233769D01*
X5828162Y-70513114D01*
X6159843Y-69712365D01*
X6328932Y-68862294D01*
X6328932Y-67995570D01*
X42028932Y-67995570D01*
X42028932Y-68862294D01*
X42198021Y-69712365D01*
X42529702Y-70513114D01*
X43011229Y-71233769D01*
X43624095Y-71846635D01*
X44344750Y-72328162D01*
X45145499Y-72659843D01*
X45995570Y-72828932D01*
X46862294Y-72828932D01*
X47712365Y-72659843D01*
X48513114Y-72328162D01*
X49233769Y-71846635D01*
X49846635Y-71233769D01*
X50328162Y-70513114D01*
X50659843Y-69712365D01*
X50828932Y-68862294D01*
X50828932Y-67995570D01*
X86278932Y-67995570D01*
X86278932Y-68862294D01*
X86448021Y-69712365D01*
X86779702Y-70513114D01*
X87261229Y-71233769D01*
X87874095Y-71846635D01*
X88594750Y-72328162D01*
X89395499Y-72659843D01*
X90245570Y-72828932D01*
X91112294Y-72828932D01*
X91962365Y-72659843D01*
X92763114Y-72328162D01*
X93483769Y-71846635D01*
X94096635Y-71233769D01*
X94578162Y-70513114D01*
X94909843Y-69712365D01*
X95078932Y-68862294D01*
X95078932Y-67995570D01*
X130278932Y-67995570D01*
X130278932Y-68862294D01*
X130448021Y-69712365D01*
X130779702Y-70513114D01*
X131261229Y-71233769D01*
X131874095Y-71846635D01*
X132594750Y-72328162D01*
X133395499Y-72659843D01*
X134245570Y-72828932D01*
X135112294Y-72828932D01*
X135962365Y-72659843D01*
X136763114Y-72328162D01*
X137260872Y-71995570D01*
X178278932Y-71995570D01*
X178278932Y-72862294D01*
X178448021Y-73712365D01*
X178779702Y-74513114D01*
X179261229Y-75233769D01*
X179874095Y-75846635D01*
X180594750Y-76328162D01*
X181395499Y-76659843D01*
X182245570Y-76828932D01*
X183112294Y-76828932D01*
X183962365Y-76659843D01*
X184763114Y-76328162D01*
X185483769Y-75846635D01*
X186096635Y-75233769D01*
X186578162Y-74513114D01*
X186909843Y-73712365D01*
X187078932Y-72862294D01*
X187078932Y-71995570D01*
X186909843Y-71145499D01*
X186578162Y-70344750D01*
X186096635Y-69624095D01*
X185483769Y-69011229D01*
X184763114Y-68529702D01*
X183962365Y-68198021D01*
X183112294Y-68028932D01*
X182245570Y-68028932D01*
X181395499Y-68198021D01*
X180594750Y-68529702D01*
X179874095Y-69011229D01*
X179261229Y-69624095D01*
X178779702Y-70344750D01*
X178448021Y-71145499D01*
X178278932Y-71995570D01*
X137260872Y-71995570D01*
X137483769Y-71846635D01*
X138096635Y-71233769D01*
X138578162Y-70513114D01*
X138909843Y-69712365D01*
X139078932Y-68862294D01*
X139078932Y-67995570D01*
X138909843Y-67145499D01*
X138578162Y-66344750D01*
X138096635Y-65624095D01*
X137483769Y-65011229D01*
X136763114Y-64529702D01*
X135962365Y-64198021D01*
X135112294Y-64028932D01*
X134245570Y-64028932D01*
X133395499Y-64198021D01*
X132594750Y-64529702D01*
X131874095Y-65011229D01*
X131261229Y-65624095D01*
X130779702Y-66344750D01*
X130448021Y-67145499D01*
X130278932Y-67995570D01*
X95078932Y-67995570D01*
X94909843Y-67145499D01*
X94578162Y-66344750D01*
X94096635Y-65624095D01*
X93483769Y-65011229D01*
X92763114Y-64529702D01*
X91962365Y-64198021D01*
X91112294Y-64028932D01*
X90245570Y-64028932D01*
X89395499Y-64198021D01*
X88594750Y-64529702D01*
X87874095Y-65011229D01*
X87261229Y-65624095D01*
X86779702Y-66344750D01*
X86448021Y-67145499D01*
X86278932Y-67995570D01*
X50828932Y-67995570D01*
X50659843Y-67145499D01*
X50328162Y-66344750D01*
X49846635Y-65624095D01*
X49233769Y-65011229D01*
X48513114Y-64529702D01*
X47712365Y-64198021D01*
X46862294Y-64028932D01*
X45995570Y-64028932D01*
X45145499Y-64198021D01*
X44344750Y-64529702D01*
X43624095Y-65011229D01*
X43011229Y-65624095D01*
X42529702Y-66344750D01*
X42198021Y-67145499D01*
X42028932Y-67995570D01*
X6328932Y-67995570D01*
X6159843Y-67145499D01*
X5828162Y-66344750D01*
X5346635Y-65624095D01*
X4733769Y-65011229D01*
X4013114Y-64529702D01*
X3212365Y-64198021D01*
X2362294Y-64028932D01*
X1495570Y-64028932D01*
X645499Y-64198021D01*
X-155250Y-64529702D01*
X-875905Y-65011229D01*
X-1488771Y-65624095D01*
X-1970298Y-66344750D01*
X-2301979Y-67145499D01*
X-2471068Y-67995570D01*
X-13892000Y-67995570D01*
X-13892000Y-58682893D01*
X-13604501Y-58801979D01*
X-12754430Y-58971068D01*
X-11887706Y-58971068D01*
X-11037635Y-58801979D01*
X-10236886Y-58470298D01*
X-9516231Y-57988771D01*
X-8903365Y-57375905D01*
X-8421838Y-56655250D01*
X-8090157Y-55854501D01*
X-7921068Y-55004430D01*
X-7921068Y-54137706D01*
X-8090157Y-53287635D01*
X-8421838Y-52486886D01*
X-8903365Y-51766231D01*
X-9516231Y-51153365D01*
X-10236886Y-50671838D01*
X-11037635Y-50340157D01*
X-11887706Y-50171068D01*
X-12754430Y-50171068D01*
X-13604501Y-50340157D01*
X-13892000Y-50459243D01*
X-13892000Y-21108000D01*
X167977520Y-21108000D01*
X167779832Y-21240091D01*
G36*
X171159582Y-36634383D02*
G01*
X171230660Y-36991719D01*
X171285183Y-37123350D01*
X171293083Y-37203556D01*
X171479150Y-37816938D01*
X171781307Y-38382233D01*
X172187942Y-38877719D01*
X172312109Y-38979620D01*
X172761421Y-39428932D01*
X155036795Y-39428932D01*
X154505247Y-38897384D01*
X153934689Y-38429139D01*
X153066072Y-37964854D01*
X152778323Y-37877566D01*
X148865761Y-33965005D01*
X148778035Y-33893010D01*
X157933944Y-33893011D01*
X157983699Y-34013130D01*
X158448809Y-34709217D01*
X159040783Y-35301191D01*
X159736870Y-35766301D01*
X160510321Y-36086675D01*
X161331412Y-36250000D01*
X162168588Y-36250000D01*
X162989679Y-36086675D01*
X163763130Y-35766301D01*
X164459217Y-35301191D01*
X165051191Y-34709217D01*
X165516301Y-34013130D01*
X165836675Y-33239679D01*
X165960388Y-32617732D01*
X167142931Y-32617732D01*
X171159582Y-36634383D01*
X171159582Y-36634383D01*
G37*
X171159582Y-36634383D02*
X171230660Y-36991719D01*
X171285183Y-37123350D01*
X171293083Y-37203556D01*
X171479150Y-37816938D01*
X171781307Y-38382233D01*
X172187942Y-38877719D01*
X172312109Y-38979620D01*
X172761421Y-39428932D01*
X155036795Y-39428932D01*
X154505247Y-38897384D01*
X153934689Y-38429139D01*
X153066072Y-37964854D01*
X152778323Y-37877566D01*
X148865761Y-33965005D01*
X148778035Y-33893010D01*
X157933944Y-33893011D01*
X157983699Y-34013130D01*
X158448809Y-34709217D01*
X159040783Y-35301191D01*
X159736870Y-35766301D01*
X160510321Y-36086675D01*
X161331412Y-36250000D01*
X162168588Y-36250000D01*
X162989679Y-36086675D01*
X163763130Y-35766301D01*
X164459217Y-35301191D01*
X165051191Y-34709217D01*
X165516301Y-34013130D01*
X165836675Y-33239679D01*
X165960388Y-32617732D01*
X167142931Y-32617732D01*
X171159582Y-36634383D01*
G36*
X68913325Y-33489679D02*
G01*
X69233699Y-34263130D01*
X69698809Y-34959217D01*
X70290783Y-35551191D01*
X70986870Y-36016301D01*
X71760321Y-36336675D01*
X72581412Y-36500000D01*
X73418588Y-36500000D01*
X74239679Y-36336675D01*
X75013130Y-36016301D01*
X75709217Y-35551191D01*
X76301191Y-34959217D01*
X76766301Y-34263130D01*
X77086675Y-33489679D01*
X77238836Y-32724711D01*
X84851773Y-32724711D01*
X79469883Y-38106602D01*
X64007359Y-38106602D01*
X60115761Y-34215005D01*
X59602259Y-33793585D01*
X58820504Y-33375727D01*
X57972251Y-33118413D01*
X57090097Y-33031529D01*
X56207943Y-33118413D01*
X55359690Y-33375727D01*
X54577935Y-33793585D01*
X53892721Y-34355925D01*
X53813039Y-34453019D01*
X52084731Y-32724711D01*
X68761164Y-32724711D01*
X68913325Y-33489679D01*
X68913325Y-33489679D01*
G37*
X68913325Y-33489679D02*
X69233699Y-34263130D01*
X69698809Y-34959217D01*
X70290783Y-35551191D01*
X70986870Y-36016301D01*
X71760321Y-36336675D01*
X72581412Y-36500000D01*
X73418588Y-36500000D01*
X74239679Y-36336675D01*
X75013130Y-36016301D01*
X75709217Y-35551191D01*
X76301191Y-34959217D01*
X76766301Y-34263130D01*
X77086675Y-33489679D01*
X77238836Y-32724711D01*
X84851773Y-32724711D01*
X79469883Y-38106602D01*
X64007359Y-38106602D01*
X60115761Y-34215005D01*
X59602259Y-33793585D01*
X58820504Y-33375727D01*
X57972251Y-33118413D01*
X57090097Y-33031529D01*
X56207943Y-33118413D01*
X55359690Y-33375727D01*
X54577935Y-33793585D01*
X53892721Y-34355925D01*
X53813039Y-34453019D01*
X52084731Y-32724711D01*
X68761164Y-32724711D01*
X68913325Y-33489679D01*
G36*
X113163325Y-33239679D02*
G01*
X113483699Y-34013130D01*
X113948809Y-34709217D01*
X114540783Y-35301191D01*
X115236870Y-35766301D01*
X116010321Y-36086675D01*
X116831412Y-36250000D01*
X117668588Y-36250000D01*
X117810768Y-36221719D01*
X116175885Y-37856602D01*
X108257359Y-37856602D01*
X104365761Y-33965005D01*
X103852259Y-33543585D01*
X103070504Y-33125727D01*
X102222251Y-32868413D01*
X101340097Y-32781529D01*
X100457943Y-32868413D01*
X99609690Y-33125727D01*
X98827935Y-33543585D01*
X98158569Y-34092918D01*
X96790362Y-32724711D01*
X113060892Y-32724711D01*
X113163325Y-33239679D01*
X113163325Y-33239679D01*
G37*
X113163325Y-33239679D02*
X113483699Y-34013130D01*
X113948809Y-34709217D01*
X114540783Y-35301191D01*
X115236870Y-35766301D01*
X116010321Y-36086675D01*
X116831412Y-36250000D01*
X117668588Y-36250000D01*
X117810768Y-36221719D01*
X116175885Y-37856602D01*
X108257359Y-37856602D01*
X104365761Y-33965005D01*
X103852259Y-33543585D01*
X103070504Y-33125727D01*
X102222251Y-32868413D01*
X101340097Y-32781529D01*
X100457943Y-32868413D01*
X99609690Y-33125727D01*
X98827935Y-33543585D01*
X98158569Y-34092918D01*
X96790362Y-32724711D01*
X113060892Y-32724711D01*
X113163325Y-33239679D01*
G36*
X203892001Y-35600000D02*
G01*
X203665129Y-35600000D01*
X203008257Y-35730660D01*
X202988564Y-35738817D01*
X194396466Y-27146720D01*
X194286849Y-27013151D01*
X193753904Y-26575775D01*
X193145873Y-26250776D01*
X192486120Y-26050642D01*
X192144520Y-26016997D01*
X191953605Y-25914951D01*
X191388103Y-25743408D01*
X190800000Y-25685485D01*
X189200000Y-25685485D01*
X188611897Y-25743408D01*
X188046395Y-25914951D01*
X187525225Y-26193522D01*
X187068416Y-26568416D01*
X186693522Y-27025225D01*
X186414951Y-27546395D01*
X186243408Y-28111897D01*
X186185485Y-28700000D01*
X186185485Y-30300000D01*
X186243408Y-30888103D01*
X186414951Y-31453605D01*
X186671176Y-31932968D01*
X180279383Y-31932968D01*
X180242349Y-31917628D01*
X180126246Y-31894534D01*
X176236416Y-28004705D01*
X176380296Y-27976085D01*
X176500000Y-27926502D01*
X176619704Y-27976085D01*
X177368346Y-28125000D01*
X178131654Y-28125000D01*
X178880296Y-27976085D01*
X179000000Y-27926502D01*
X179119704Y-27976085D01*
X179868346Y-28125000D01*
X180631654Y-28125000D01*
X181380296Y-27976085D01*
X182085501Y-27683980D01*
X182720168Y-27259909D01*
X183259909Y-26720168D01*
X183683980Y-26085501D01*
X183976085Y-25380296D01*
X184125000Y-24631654D01*
X184125000Y-23868346D01*
X183976085Y-23119704D01*
X183683980Y-22414499D01*
X183259909Y-21779832D01*
X182720168Y-21240091D01*
X182522480Y-21108000D01*
X203892001Y-21108000D01*
X203892001Y-35600000D01*
X203892001Y-35600000D01*
G37*
X203892001Y-35600000D02*
X203665129Y-35600000D01*
X203008257Y-35730660D01*
X202988564Y-35738817D01*
X194396466Y-27146720D01*
X194286849Y-27013151D01*
X193753904Y-26575775D01*
X193145873Y-26250776D01*
X192486120Y-26050642D01*
X192144520Y-26016997D01*
X191953605Y-25914951D01*
X191388103Y-25743408D01*
X190800000Y-25685485D01*
X189200000Y-25685485D01*
X188611897Y-25743408D01*
X188046395Y-25914951D01*
X187525225Y-26193522D01*
X187068416Y-26568416D01*
X186693522Y-27025225D01*
X186414951Y-27546395D01*
X186243408Y-28111897D01*
X186185485Y-28700000D01*
X186185485Y-30300000D01*
X186243408Y-30888103D01*
X186414951Y-31453605D01*
X186671176Y-31932968D01*
X180279383Y-31932968D01*
X180242349Y-31917628D01*
X180126246Y-31894534D01*
X176236416Y-28004705D01*
X176380296Y-27976085D01*
X176500000Y-27926502D01*
X176619704Y-27976085D01*
X177368346Y-28125000D01*
X178131654Y-28125000D01*
X178880296Y-27976085D01*
X179000000Y-27926502D01*
X179119704Y-27976085D01*
X179868346Y-28125000D01*
X180631654Y-28125000D01*
X181380296Y-27976085D01*
X182085501Y-27683980D01*
X182720168Y-27259909D01*
X183259909Y-26720168D01*
X183683980Y-26085501D01*
X183976085Y-25380296D01*
X184125000Y-24631654D01*
X184125000Y-23868346D01*
X183976085Y-23119704D01*
X183683980Y-22414499D01*
X183259909Y-21779832D01*
X182720168Y-21240091D01*
X182522480Y-21108000D01*
X203892001Y-21108000D01*
X203892001Y-35600000D01*
D27*
X204000000Y-39000000D03*
X185985281Y-137014719D03*
X183156854Y-139843146D03*
X180328427Y-142671573D03*
X188813708Y-134186292D03*
X177500000Y-145500000D03*
X185985281Y-60485281D03*
X183156854Y-57656854D03*
X180328427Y-54828427D03*
X188813708Y-63313708D03*
X177500000Y-52000000D03*
X170985281Y-76485281D03*
X168156854Y-73656854D03*
X165328427Y-70828427D03*
X173813708Y-79313708D03*
X162500000Y-68000000D03*
X184985281Y-82514719D03*
X182156854Y-85343146D03*
X179328427Y-88171573D03*
X187813708Y-79686292D03*
X176500000Y-91000000D03*
X186485281Y-116485281D03*
X183656854Y-113656854D03*
X180828427Y-110828427D03*
X189313708Y-119313708D03*
X178000000Y-108000000D03*
X170485281Y-132985281D03*
X167656854Y-130156854D03*
X164828427Y-127328427D03*
X173313708Y-135813708D03*
X162000000Y-124500000D03*
X5485281Y-112985281D03*
X2656854Y-110156854D03*
X-171573Y-107328427D03*
X8313708Y-115813708D03*
X-3000000Y-104500000D03*
X122485281Y-71985281D03*
X119656854Y-69156854D03*
X116828427Y-66328427D03*
X125313708Y-74813708D03*
X114000000Y-63500000D03*
X152985281Y-94514719D03*
X150156854Y-97343146D03*
X147328427Y-100171573D03*
X155813708Y-91686292D03*
X144500000Y-103000000D03*
X136485281Y-79014719D03*
X133656854Y-81843146D03*
X130828427Y-84671573D03*
X139313708Y-76186292D03*
X128000000Y-87500000D03*
X138485281Y-113985281D03*
X135656854Y-111156854D03*
X132828427Y-108328427D03*
X141313708Y-116813708D03*
X130000000Y-105500000D03*
X117014719Y-123514719D03*
X119843146Y-126343146D03*
X122671573Y-129171573D03*
X114186292Y-120686292D03*
X125500000Y-132000000D03*
X108985281Y-95014719D03*
X106156854Y-97843146D03*
X103328427Y-100671573D03*
X111813708Y-92186292D03*
X100500000Y-103500000D03*
X92485281Y-79514719D03*
X89656854Y-82343146D03*
X86828427Y-85171573D03*
X95313708Y-76686292D03*
X84000000Y-88000000D03*
X73014719Y-66514719D03*
X75843146Y-69343146D03*
X78671573Y-72171573D03*
X70186292Y-63686292D03*
X81500000Y-75000000D03*
X63485281Y-95014719D03*
X60656854Y-97843146D03*
X57828427Y-100671573D03*
X66313708Y-92186292D03*
X55000000Y-103500000D03*
X94985281Y-113485281D03*
X92156854Y-110656854D03*
X89328427Y-107828427D03*
X97813708Y-116313708D03*
X86500000Y-105000000D03*
X33985281Y-129485281D03*
X31156854Y-126656854D03*
X28328427Y-123828427D03*
X36813708Y-132313708D03*
X25500000Y-121000000D03*
X42500000Y-84000000D03*
X45500000Y-81500000D03*
X51500000Y-77000000D03*
X39000000Y-87000000D03*
X48500000Y-79000000D03*
X190500000Y-159500000D03*
X195500000Y-155000000D03*
X187250000Y-32750000D03*
X184500000Y-27750000D03*
X-13500000Y-21500000D03*
X-10960000Y-21500000D03*
X-8420000Y-21500000D03*
X-5880000Y-21500000D03*
X-3340000Y-21500000D03*
X-800000Y-21500000D03*
X1740000Y-21500000D03*
X4280000Y-21500000D03*
X6820000Y-21500000D03*
X9360000Y-21500000D03*
X11900000Y-21500000D03*
X14440000Y-21500000D03*
X16980000Y-21500000D03*
X19520000Y-21500000D03*
X22060000Y-21500000D03*
X24600000Y-21500000D03*
X27140000Y-21500000D03*
X29680000Y-21500000D03*
X32220000Y-21500000D03*
X34760000Y-21500000D03*
X37300000Y-21500000D03*
X39840000Y-21500000D03*
X42380000Y-21500000D03*
X44920000Y-21500000D03*
X47460000Y-21500000D03*
X50000000Y-21500000D03*
X52540000Y-21500000D03*
X55080000Y-21500000D03*
X57620000Y-21500000D03*
X60160000Y-21500000D03*
X62700000Y-21500000D03*
X65240000Y-21500000D03*
X67780000Y-21500000D03*
X70320000Y-21500000D03*
X72860000Y-21500000D03*
X75400000Y-21500000D03*
X77940000Y-21500000D03*
X80480000Y-21500000D03*
X83020000Y-21500000D03*
X85560000Y-21500000D03*
X88100000Y-21500000D03*
X90640000Y-21500000D03*
X93180000Y-21500000D03*
X95720000Y-21500000D03*
X98260000Y-21500000D03*
X100800000Y-21500000D03*
X103340000Y-21500000D03*
X105880000Y-21500000D03*
X108420000Y-21500000D03*
X110960000Y-21500000D03*
X113500000Y-21500000D03*
X116040000Y-21500000D03*
X118580000Y-21500000D03*
X121120000Y-21500000D03*
X123660000Y-21500000D03*
X126200000Y-21500000D03*
X128740000Y-21500000D03*
X131280000Y-21500000D03*
X133820000Y-21500000D03*
X136360000Y-21500000D03*
X138900000Y-21500000D03*
X141440000Y-21500000D03*
X143980000Y-21500000D03*
X146520000Y-21500000D03*
X149060000Y-21500000D03*
X151600000Y-21500000D03*
X154140000Y-21500000D03*
X156680000Y-21500000D03*
X159220000Y-21500000D03*
X161760000Y-21500000D03*
X164300000Y-21500000D03*
X194500000Y-21500000D03*
X197500000Y-21500000D03*
X203000000Y-28500000D03*
X203000000Y-33000000D03*
X-13500000Y-24500000D03*
X-13500000Y-27500000D03*
X-13500000Y-30000000D03*
X-13500000Y-32500000D03*
X-13500000Y-35000000D03*
X-13500000Y-37500000D03*
X-13500000Y-40000000D03*
X-13500000Y-42500000D03*
X-13500000Y-45000000D03*
X-13500000Y-47500000D03*
X-13500000Y-49500000D03*
X-13500000Y-62500000D03*
X-13500000Y-65000000D03*
X-13500000Y-67500000D03*
X-13500000Y-70000000D03*
X-13500000Y-72500000D03*
X-13500000Y-75000000D03*
X-13500000Y-77500000D03*
X-13500000Y-80000000D03*
X-13500000Y-82500000D03*
X-13500000Y-85000000D03*
X-13500000Y-87500000D03*
X-13500000Y-90000000D03*
X-13500000Y-92500000D03*
X-13500000Y-95000000D03*
X-13500000Y-97500000D03*
X-13500000Y-100000000D03*
X-13500000Y-102500000D03*
X-13500000Y-105000000D03*
X-13500000Y-120000000D03*
X-13500000Y-122500000D03*
X-13500000Y-125000000D03*
X-13500000Y-127500000D03*
X-13500000Y-130000000D03*
X-13500000Y-132500000D03*
X-13500000Y-135000000D03*
X-13500000Y-137500000D03*
X-13500000Y-140000000D03*
X-13500000Y-142500000D03*
X-13500000Y-145000000D03*
X-13500000Y-147500000D03*
X-13500000Y-150000000D03*
X-13500000Y-152500000D03*
X-13500000Y-158000000D03*
X-13500000Y-160500000D03*
X-13500000Y-163000000D03*
X-13500000Y-165500000D03*
X-13500000Y-168000000D03*
X-11500000Y-168500000D03*
X-9000000Y-168500000D03*
X-6500000Y-168500000D03*
X-4000000Y-168500000D03*
X1500000Y-168500000D03*
X12500000Y-168500000D03*
X196500000Y-31500000D03*
X198500000Y-33500000D03*
X201500000Y-36500000D03*
X194500000Y-29500000D03*
X194000000Y-34000000D03*
X196000000Y-36000000D03*
X198000000Y-38000000D03*
X201000000Y-41000000D03*
X202500000Y-42500000D03*
X20000000Y-37500000D03*
X22500000Y-37500000D03*
X25000000Y-37500000D03*
X27500000Y-37500000D03*
X30000000Y-37500000D03*
X32500000Y-37500000D03*
X35000000Y-37500000D03*
X37000000Y-36000000D03*
X38500000Y-34500000D03*
X20000000Y-48000000D03*
X22500000Y-48000000D03*
X25000000Y-48000000D03*
X27500000Y-48000000D03*
X30000000Y-48000000D03*
X32500000Y-48000000D03*
X35000000Y-48000000D03*
X37500000Y-48000000D03*
X41000000Y-48000000D03*
X42500000Y-46500000D03*
X43500000Y-45000000D03*
X64500000Y-48000000D03*
X67500000Y-48000000D03*
X69500000Y-48000000D03*
X72500000Y-48000000D03*
X75000000Y-48000000D03*
X77500000Y-48000000D03*
X80000000Y-48000000D03*
X82000000Y-48000000D03*
X84000000Y-48000000D03*
X86500000Y-45500000D03*
X65500000Y-37500000D03*
X68000000Y-37500000D03*
X70500000Y-37500000D03*
X73000000Y-37500000D03*
X75500000Y-37500000D03*
X78000000Y-37500000D03*
X80000000Y-36500000D03*
X82000000Y-35000000D03*
X83500000Y-33500000D03*
X63500000Y-36500000D03*
X62000000Y-35000000D03*
X59500000Y-33500000D03*
X56000000Y-33000000D03*
X53500000Y-33500000D03*
X47000000Y-50000000D03*
X49000000Y-52500000D03*
X51000000Y-54500000D03*
X55500000Y-55000000D03*
X59000000Y-54500000D03*
X61500000Y-51500000D03*
X90000000Y-47000000D03*
X91500000Y-49000000D03*
X93500000Y-51500000D03*
X96500000Y-54000000D03*
X101000000Y-54500000D03*
X106000000Y-50500000D03*
X111000000Y-47500000D03*
X116000000Y-47500000D03*
X121500000Y-47500000D03*
X125000000Y-43500000D03*
X129000000Y-40000000D03*
X131500000Y-45000000D03*
X135000000Y-48000000D03*
X139000000Y-52000000D03*
X144500000Y-54500000D03*
X149500000Y-51500000D03*
X154500000Y-50000000D03*
X159500000Y-50000000D03*
X165000000Y-50000000D03*
X170500000Y-50000000D03*
X175500000Y-50000000D03*
X180500000Y-50000000D03*
X185500000Y-50000000D03*
X188500000Y-48000000D03*
X156500000Y-38500000D03*
X161000000Y-38500000D03*
X166000000Y-38000000D03*
X170500000Y-38500000D03*
X109000000Y-36500000D03*
X114500000Y-36500000D03*
X-3500000Y-43500000D03*
X-1000000Y-46000000D03*
X1000000Y-48500000D03*
X3500000Y-51000000D03*
X8000000Y-54000000D03*
X15000000Y-54500000D03*
X18000000Y-51000000D03*
X10500000Y-31500000D03*
X14500000Y-32000000D03*
X17500000Y-35000000D03*
X195500000Y-50000000D03*
X195500000Y-55080000D03*
X195500000Y-60160000D03*
X195500000Y-65240000D03*
X195500000Y-70320000D03*
X195500000Y-75400000D03*
X195500000Y-80480000D03*
X195500000Y-105880000D03*
X195500000Y-110960000D03*
X195500000Y-116040000D03*
X195500000Y-121120000D03*
X195500000Y-126200000D03*
X195500000Y-131280000D03*
X195500000Y-136360000D03*
X11500000Y-103000000D03*
X14500000Y-100500000D03*
X17500000Y-98000000D03*
X20500000Y-95000000D03*
X23500000Y-92000000D03*
X7000000Y-75500000D03*
X4000000Y-77500000D03*
X1000000Y-80000000D03*
X-2000000Y-82500000D03*
X26000000Y-64000000D03*
X28828427Y-66828427D03*
X31656854Y-69656854D03*
X34485281Y-72485281D03*
X37313708Y-75313708D03*
X73014719Y-123014719D03*
X75843146Y-125843146D03*
X78671573Y-128671573D03*
X70186292Y-120186292D03*
X81500000Y-131500000D03*
X50485281Y-113485281D03*
X47656854Y-110656854D03*
X44828427Y-107828427D03*
X53313708Y-116313708D03*
X42000000Y-105000000D03*
X195500000Y-102000000D03*
X-4500000Y-85500000D03*
X189500000Y-164487990D03*
X202500000Y-160000000D03*
X188512010Y-164487990D03*
X203635011Y-158864989D03*
X174500000Y-35999976D03*
X174414818Y-35287769D03*
X175643137Y-35356863D03*
X175750000Y-35999976D03*
X177000000Y-35250000D03*
X177342157Y-35999976D03*
X179250606Y-35186968D03*
X178251144Y-35186968D03*
X196821068Y-142571068D03*
X182678932Y-128428932D03*
X168678932Y-114571068D03*
X182821068Y-100428932D03*
X196821068Y-86571068D03*
X182678932Y-72428932D03*
X168484932Y-58571068D03*
X182627068Y-44428932D03*
X134678932Y-125928932D03*
X148821068Y-140071068D03*
X134821068Y-96928932D03*
X120678932Y-111071068D03*
X134678932Y-68428932D03*
X148821068Y-82571068D03*
X90928932Y-125928932D03*
X105071068Y-140071068D03*
X90821068Y-96928932D03*
X76678932Y-111071068D03*
X90678932Y-68428932D03*
X104821068Y-82571068D03*
X46428932Y-125928932D03*
X60571068Y-140071068D03*
X46321068Y-96928932D03*
X32178932Y-111071068D03*
X46428932Y-68428932D03*
X60571068Y-82571068D03*
X1928932Y-125928932D03*
X16071068Y-140071068D03*
X1821068Y-96928932D03*
X-12321068Y-111071068D03*
X1928932Y-68428932D03*
X16071068Y-82571068D03*
X134821068Y-40428932D03*
X120678932Y-54571068D03*
X90821068Y-40428932D03*
X76678932Y-54571068D03*
X46321068Y-40678932D03*
X32178932Y-54821068D03*
X-12321068Y-54571068D03*
X1821068Y-40428932D03*
X50019030Y-44624369D03*
X53554564Y-41088835D03*
X57090097Y-37553301D03*
X55322330Y-49927670D03*
X58857864Y-46392136D03*
X62393398Y-42856602D03*
X67696699Y-26946699D03*
X73000000Y-32250000D03*
X35730970Y-147875631D03*
X32195436Y-151411165D03*
X28659903Y-154946699D03*
X30427670Y-142572330D03*
X26892136Y-146107864D03*
X23356602Y-149643398D03*
X18053301Y-165553301D03*
X12750000Y-160250000D03*
X202056810Y-23812500D03*
X202056810Y-26187500D03*
X200000000Y-27375000D03*
X197943190Y-26187500D03*
X197943190Y-23812500D03*
X200000000Y-22625000D03*
X200000000Y-25000000D03*
X202056810Y-163812500D03*
X202056810Y-166187500D03*
X200000000Y-167375000D03*
X197943190Y-166187500D03*
X197943190Y-163812500D03*
X200000000Y-162625000D03*
X200000000Y-165000000D03*
X16056810Y-23812500D03*
X16056810Y-26187500D03*
X14000000Y-27375000D03*
X11943190Y-26187500D03*
X11943190Y-23812500D03*
X14000000Y-22625000D03*
X14000000Y-25000000D03*
X10056810Y-163812500D03*
X10056810Y-166187500D03*
X8000000Y-167375000D03*
X5943190Y-166187500D03*
X5943190Y-163812500D03*
X8000000Y-162625000D03*
X8000000Y-165000000D03*
X138769030Y-44374369D03*
X142304564Y-40838835D03*
X145840097Y-37303301D03*
X144072330Y-49677670D03*
X147607864Y-46142136D03*
X151143398Y-42606602D03*
X156446699Y-26696699D03*
X161750000Y-32000000D03*
X94269030Y-44374369D03*
X97804564Y-40838835D03*
X101340097Y-37303301D03*
X99572330Y-49677670D03*
X103107864Y-46142136D03*
X106643398Y-42606602D03*
X111946699Y-26696699D03*
X117250000Y-32000000D03*
X166980970Y-148375631D03*
X163445436Y-151911165D03*
X159909903Y-155446699D03*
X161677670Y-143072330D03*
X158142136Y-146607864D03*
X154606602Y-150143398D03*
X149303301Y-166053301D03*
X144000000Y-160750000D03*
X123230970Y-147875631D03*
X119695436Y-151411165D03*
X116159903Y-154946699D03*
X117927670Y-142572330D03*
X114392136Y-146107864D03*
X110856602Y-149643398D03*
X105553301Y-165553301D03*
X100250000Y-160250000D03*
X80480970Y-147625631D03*
X76945436Y-151161165D03*
X73409903Y-154696699D03*
X75177670Y-142322330D03*
X71642136Y-145857864D03*
X68106602Y-149393398D03*
X62803301Y-165303301D03*
X57500000Y-160000000D03*
X5519030Y-44624369D03*
X9054564Y-41088835D03*
X12590097Y-37553301D03*
X10822330Y-49927670D03*
X14357864Y-46392136D03*
X17893398Y-42856602D03*
X23196699Y-26946699D03*
X28500000Y-32250000D03*
X170250000Y-24250000D03*
X172750000Y-24250000D03*
X175250000Y-24250000D03*
X177750000Y-24250000D03*
X180250000Y-24250000D03*
X182750000Y-24250000D03*
X185250000Y-24250000D03*
X187750000Y-24250000D03*
X4785850Y-28515227D03*
X5886108Y-24586541D03*
X543209Y-24272586D03*
X3057681Y-21758114D03*
X6200063Y-29929440D03*
X4471894Y-23172328D03*
X8714535Y-27414969D03*
X1800445Y-23015350D03*
X6043086Y-27257991D03*
X7457299Y-28672204D03*
X3371636Y-27101013D03*
X4628872Y-25843777D03*
X3214658Y-24429564D03*
X1957423Y-25686800D03*
X7300321Y-26000755D03*
X-4280673Y-34753323D03*
X-6952123Y-34596345D03*
X-5537909Y-36010559D03*
X-1609224Y-34910300D03*
X-5694887Y-33339109D03*
X-7109101Y-31924896D03*
X-195010Y-36324514D03*
X-4437651Y-32081873D03*
X-5851865Y-30667660D03*
X-8366336Y-33182132D03*
X-2866460Y-36167536D03*
X-3023438Y-33496087D03*
X-1452246Y-37581750D03*
X-2709482Y-38838986D03*
X-4123696Y-37424772D03*
X-5734773Y-153714150D03*
X-9663459Y-152613892D03*
X-9977414Y-157956791D03*
X-12491886Y-155442319D03*
X-4320560Y-152299937D03*
X-11077672Y-154028106D03*
X-6835031Y-149785465D03*
X-11234650Y-156699555D03*
X-6992009Y-152456914D03*
X-5577796Y-151042701D03*
X-7148987Y-155128364D03*
X-8406223Y-153871128D03*
X-9820436Y-155285342D03*
X-8563200Y-156542577D03*
X-8249245Y-151199679D03*
X503323Y-162780673D03*
X346345Y-165452123D03*
X1760559Y-164037909D03*
X660300Y-160109224D03*
X-910891Y-164194887D03*
X-2325104Y-165609101D03*
X2074514Y-158695010D03*
X-2168127Y-162937651D03*
X-3582340Y-164351865D03*
X-1067868Y-166866336D03*
X1917536Y-161366460D03*
X-753913Y-161523438D03*
X3331750Y-159952246D03*
X4588986Y-161209482D03*
X3174772Y-162623696D03*
X190000000Y-32000000D03*
X190000000Y-29500000D03*
M02*
