M48
; DRILL file {KiCad (5.1.4)-1} date 2019/12/28 21:17:41
; FORMAT={-:-/ absolute / metric / decimal}
; #@! TF.CreationDate,2019-12-28T21:17:41+08:00
; #@! TF.GenerationSoftware,Kicad,Pcbnew,(5.1.4)-1
; #@! TF.FileFunction,Plated,1,2,PTH
FMAT,2
METRIC
T1C0.400
T2C0.500
T3C0.800
T4C1.000
T5C1.300
T6C1.600
T7C1.700
T8C3.500
%
G90
G05
T1
X-13.5Y-21.5
X-13.5Y-24.5
X-13.5Y-27.5
X-13.5Y-30.0
X-13.5Y-32.5
X-13.5Y-35.0
X-13.5Y-37.5
X-13.5Y-40.0
X-13.5Y-42.5
X-13.5Y-45.0
X-13.5Y-47.5
X-13.5Y-49.5
X-13.5Y-62.5
X-13.5Y-65.0
X-13.5Y-67.5
X-13.5Y-70.0
X-13.5Y-72.5
X-13.5Y-75.0
X-13.5Y-77.5
X-13.5Y-80.0
X-13.5Y-82.5
X-13.5Y-85.0
X-13.5Y-87.5
X-13.5Y-90.0
X-13.5Y-92.5
X-13.5Y-95.0
X-13.5Y-97.5
X-13.5Y-100.0
X-13.5Y-102.5
X-13.5Y-105.0
X-13.5Y-120.0
X-13.5Y-122.5
X-13.5Y-125.0
X-13.5Y-127.5
X-13.5Y-130.0
X-13.5Y-132.5
X-13.5Y-135.0
X-13.5Y-137.5
X-13.5Y-140.0
X-13.5Y-142.5
X-13.5Y-145.0
X-13.5Y-147.5
X-13.5Y-150.0
X-13.5Y-152.5
X-13.5Y-158.0
X-13.5Y-160.5
X-13.5Y-163.0
X-13.5Y-165.5
X-13.5Y-168.0
X-11.5Y-168.5
X-10.96Y-21.5
X-9.0Y-168.5
X-8.42Y-21.5
X-6.5Y-168.5
X-5.88Y-21.5
X-4.0Y-168.5
X-3.5Y-43.5
X-3.34Y-21.5
X-3.0Y-104.5
X-2.0Y-82.5
X-1.0Y-46.0
X-0.8Y-21.5
X-0.172Y-107.328
X1.0Y-48.5
X1.0Y-80.0
X1.5Y-168.5
X1.74Y-21.5
X2.657Y-110.157
X3.5Y-51.0
X4.0Y-77.5
X4.28Y-21.5
X5.485Y-112.985
X6.82Y-21.5
X7.0Y-75.5
X8.0Y-54.0
X8.314Y-115.814
X9.36Y-21.5
X10.5Y-31.5
X11.5Y-103.0
X11.9Y-21.5
X12.5Y-168.5
X14.44Y-21.5
X14.5Y-32.0
X14.5Y-100.5
X15.0Y-54.5
X16.98Y-21.5
X17.5Y-35.0
X17.5Y-98.0
X18.0Y-51.0
X19.52Y-21.5
X20.0Y-37.5
X20.0Y-48.0
X20.5Y-95.0
X22.06Y-21.5
X22.5Y-37.5
X22.5Y-48.0
X23.5Y-92.0
X24.6Y-21.5
X25.0Y-37.5
X25.0Y-48.0
X25.5Y-121.0
X26.0Y-64.0
X27.14Y-21.5
X27.5Y-37.5
X27.5Y-48.0
X28.328Y-123.828
X28.828Y-66.828
X29.68Y-21.5
X30.0Y-37.5
X30.0Y-48.0
X31.157Y-126.657
X31.657Y-69.657
X32.22Y-21.5
X32.5Y-37.5
X32.5Y-48.0
X33.985Y-129.485
X34.485Y-72.485
X34.76Y-21.5
X35.0Y-37.5
X35.0Y-48.0
X36.814Y-132.314
X37.0Y-36.0
X37.3Y-21.5
X37.314Y-75.314
X37.5Y-48.0
X38.5Y-34.5
X39.0Y-87.0
X39.84Y-21.5
X41.0Y-48.0
X42.0Y-105.0
X42.38Y-21.5
X42.5Y-46.5
X42.5Y-84.0
X43.5Y-45.0
X44.828Y-107.828
X44.92Y-21.5
X45.5Y-81.5
X47.0Y-50.0
X47.46Y-21.5
X47.657Y-110.657
X48.5Y-79.0
X49.0Y-52.5
X50.0Y-21.5
X50.485Y-113.485
X51.0Y-54.5
X51.5Y-77.0
X52.54Y-21.5
X53.314Y-116.314
X53.5Y-33.5
X55.0Y-103.5
X55.08Y-21.5
X55.5Y-55.0
X56.0Y-33.0
X57.62Y-21.5
X57.828Y-100.672
X59.0Y-54.5
X59.5Y-33.5
X60.16Y-21.5
X60.657Y-97.843
X61.5Y-51.5
X62.0Y-35.0
X62.7Y-21.5
X63.485Y-95.015
X63.5Y-36.5
X64.5Y-48.0
X65.24Y-21.5
X65.5Y-37.5
X66.314Y-92.186
X67.5Y-48.0
X67.78Y-21.5
X68.0Y-37.5
X69.5Y-48.0
X70.186Y-63.686
X70.186Y-120.186
X70.32Y-21.5
X70.5Y-37.5
X72.5Y-48.0
X72.86Y-21.5
X73.0Y-37.5
X73.015Y-66.515
X73.015Y-123.015
X75.0Y-48.0
X75.4Y-21.5
X75.5Y-37.5
X75.843Y-69.343
X75.843Y-125.843
X77.5Y-48.0
X77.94Y-21.5
X78.0Y-37.5
X78.672Y-72.172
X78.672Y-128.672
X80.0Y-36.5
X80.0Y-48.0
X80.48Y-21.5
X81.5Y-75.0
X81.5Y-131.5
X82.0Y-35.0
X82.0Y-48.0
X83.02Y-21.5
X83.5Y-33.5
X84.0Y-48.0
X84.0Y-88.0
X85.56Y-21.5
X86.5Y-45.5
X86.5Y-105.0
X86.828Y-85.172
X88.1Y-21.5
X89.328Y-107.828
X89.657Y-82.343
X90.0Y-47.0
X90.64Y-21.5
X91.5Y-49.0
X92.157Y-110.657
X92.485Y-79.515
X93.18Y-21.5
X93.5Y-51.5
X94.985Y-113.485
X95.314Y-76.686
X95.72Y-21.5
X96.5Y-54.0
X97.814Y-116.314
X98.26Y-21.5
X100.5Y-103.5
X100.8Y-21.5
X101.0Y-54.5
X103.328Y-100.672
X103.34Y-21.5
X105.88Y-21.5
X106.0Y-50.5
X106.157Y-97.843
X108.42Y-21.5
X108.985Y-95.015
X109.0Y-36.5
X110.96Y-21.5
X111.0Y-47.5
X111.814Y-92.186
X113.5Y-21.5
X114.0Y-63.5
X114.186Y-120.686
X114.5Y-36.5
X116.0Y-47.5
X116.04Y-21.5
X116.828Y-66.328
X117.015Y-123.515
X118.58Y-21.5
X119.657Y-69.157
X119.843Y-126.343
X121.12Y-21.5
X121.5Y-47.5
X122.485Y-71.985
X122.672Y-129.172
X123.66Y-21.5
X125.0Y-43.5
X125.314Y-74.814
X125.5Y-132.0
X126.2Y-21.5
X128.0Y-87.5
X128.74Y-21.5
X129.0Y-40.0
X130.0Y-105.5
X130.828Y-84.672
X131.28Y-21.5
X131.5Y-45.0
X132.828Y-108.328
X133.657Y-81.843
X133.82Y-21.5
X135.0Y-48.0
X135.657Y-111.157
X136.36Y-21.5
X136.485Y-79.015
X138.485Y-113.985
X138.9Y-21.5
X139.0Y-52.0
X139.314Y-76.186
X141.314Y-116.814
X141.44Y-21.5
X143.98Y-21.5
X144.5Y-54.5
X144.5Y-103.0
X146.52Y-21.5
X147.328Y-100.172
X149.06Y-21.5
X149.5Y-51.5
X150.157Y-97.343
X151.6Y-21.5
X152.985Y-94.515
X154.14Y-21.5
X154.5Y-50.0
X155.814Y-91.686
X156.5Y-38.5
X156.68Y-21.5
X159.22Y-21.5
X159.5Y-50.0
X161.0Y-38.5
X161.76Y-21.5
X162.0Y-124.5
X162.5Y-68.0
X164.3Y-21.5
X164.828Y-127.328
X165.0Y-50.0
X165.328Y-70.828
X166.0Y-38.0
X167.657Y-130.157
X168.157Y-73.657
X170.485Y-132.985
X170.5Y-38.5
X170.5Y-50.0
X170.985Y-76.485
X173.314Y-135.814
X173.814Y-79.314
X174.415Y-35.288
X174.5Y-36.0
X175.5Y-50.0
X175.643Y-35.357
X175.75Y-36.0
X176.5Y-91.0
X177.0Y-35.25
X177.342Y-36.0
X177.5Y-52.0
X177.5Y-145.5
X178.0Y-108.0
X178.251Y-35.187
X179.251Y-35.187
X179.328Y-88.172
X180.328Y-54.828
X180.328Y-142.672
X180.5Y-50.0
X180.828Y-110.828
X182.157Y-85.343
X183.157Y-57.657
X183.157Y-139.843
X183.657Y-113.657
X184.5Y-27.75
X184.985Y-82.515
X185.5Y-50.0
X185.985Y-60.485
X185.985Y-137.015
X186.485Y-116.485
X187.25Y-32.75
X187.814Y-79.686
X188.5Y-48.0
X188.814Y-63.314
X188.814Y-134.186
X189.314Y-119.314
X190.5Y-159.5
X194.0Y-34.0
X194.5Y-21.5
X194.5Y-29.5
X195.5Y-50.0
X195.5Y-55.08
X195.5Y-60.16
X195.5Y-65.24
X195.5Y-70.32
X195.5Y-75.4
X195.5Y-80.48
X195.5Y-105.88
X195.5Y-110.96
X195.5Y-116.04
X195.5Y-121.12
X195.5Y-126.2
X195.5Y-131.28
X195.5Y-136.36
X195.5Y-155.0
X196.0Y-36.0
X196.5Y-31.5
X197.5Y-21.5
X198.0Y-38.0
X198.5Y-33.5
X201.0Y-41.0
X201.5Y-36.5
X202.5Y-42.5
X203.0Y-28.5
X203.0Y-33.0
X204.0Y-39.0
X197.943Y-23.812
X197.943Y-26.188
X200.0Y-22.625
X200.0Y-27.375
X202.057Y-23.812
X202.057Y-26.188
X-12.492Y-155.442
X-11.235Y-156.7
X-11.078Y-154.028
X-9.977Y-157.957
X-9.82Y-155.285
X-9.663Y-152.614
X-8.563Y-156.543
X-8.406Y-153.871
X-8.249Y-151.2
X-7.149Y-155.128
X-6.992Y-152.457
X-6.835Y-149.785
X-5.735Y-153.714
X-5.578Y-151.043
X-4.321Y-152.3
X-3.582Y-164.352
X-2.325Y-165.609
X-2.168Y-162.938
X-1.068Y-166.866
X-0.911Y-164.195
X-0.754Y-161.523
X0.346Y-165.452
X0.503Y-162.781
X0.66Y-160.109
X1.761Y-164.038
X1.918Y-161.366
X2.075Y-158.695
X3.175Y-162.624
X3.332Y-159.952
X4.589Y-161.209
X11.943Y-23.812
X11.943Y-26.188
X14.0Y-22.625
X14.0Y-27.375
X16.057Y-23.812
X16.057Y-26.188
X5.943Y-163.812
X5.943Y-166.188
X8.0Y-162.625
X8.0Y-167.375
X10.057Y-163.812
X10.057Y-166.188
X197.943Y-163.812
X197.943Y-166.188
X200.0Y-162.625
X200.0Y-167.375
X202.057Y-163.812
X202.057Y-166.188
X-8.366Y-33.182
X-7.109Y-31.925
X-6.952Y-34.596
X-5.852Y-30.668
X-5.695Y-33.339
X-5.538Y-36.011
X-4.438Y-32.082
X-4.281Y-34.753
X-4.124Y-37.425
X-3.023Y-33.496
X-2.866Y-36.168
X-2.709Y-38.839
X-1.609Y-34.91
X-1.452Y-37.582
X-0.195Y-36.325
X0.543Y-24.273
X1.8Y-23.015
X1.957Y-25.687
X3.058Y-21.758
X3.215Y-24.43
X3.372Y-27.101
X4.472Y-23.172
X4.629Y-25.844
X4.786Y-28.515
X5.886Y-24.587
X6.043Y-27.258
X6.2Y-29.929
X7.3Y-26.001
X7.457Y-28.672
X8.715Y-27.415
T2
X-4.5Y-85.5
X188.512Y-164.488
X189.5Y-164.488
X195.5Y-102.0
X202.5Y-160.0
X203.635Y-158.865
T3
X190.0Y-29.5
X190.0Y-32.0
T4
X170.25Y-24.25
X172.75Y-24.25
X175.25Y-24.25
X177.75Y-24.25
X180.25Y-24.25
X182.75Y-24.25
X185.25Y-24.25
X187.75Y-24.25
T5
X5.519Y-44.624
X9.055Y-41.089
X10.822Y-49.928
X12.59Y-37.553
X14.358Y-46.392
X17.893Y-42.857
X23.197Y-26.947
X28.5Y-32.25
X100.25Y-160.25
X105.553Y-165.553
X110.857Y-149.643
X114.392Y-146.108
X116.16Y-154.947
X117.928Y-142.572
X119.695Y-151.411
X123.231Y-147.876
X57.5Y-160.0
X62.803Y-165.303
X68.107Y-149.393
X71.642Y-145.858
X73.41Y-154.697
X75.178Y-142.322
X76.945Y-151.161
X80.481Y-147.626
X94.269Y-44.374
X97.805Y-40.839
X99.572Y-49.678
X101.34Y-37.303
X103.108Y-46.142
X106.643Y-42.607
X111.947Y-26.697
X117.25Y-32.0
X12.75Y-160.25
X18.053Y-165.553
X23.357Y-149.643
X26.892Y-146.108
X28.66Y-154.947
X30.428Y-142.572
X32.195Y-151.411
X35.731Y-147.876
X144.0Y-160.75
X149.303Y-166.053
X154.607Y-150.143
X158.142Y-146.608
X159.91Y-155.447
X161.678Y-143.072
X163.445Y-151.911
X166.981Y-148.376
X138.769Y-44.374
X142.305Y-40.839
X144.072Y-49.678
X145.84Y-37.303
X147.608Y-46.142
X151.143Y-42.607
X156.447Y-26.697
X161.75Y-32.0
X50.019Y-44.624
X53.555Y-41.089
X55.322Y-49.928
X57.09Y-37.553
X58.858Y-46.392
X62.393Y-42.857
X67.697Y-26.947
X73.0Y-32.25
T6
X32.179Y-54.821
X1.821Y-40.429
X105.071Y-140.071
X60.571Y-82.571
X148.821Y-140.071
X16.071Y-140.071
X148.821Y-82.571
X32.179Y-111.071
X76.679Y-111.071
X16.071Y-82.571
X120.679Y-54.571
X104.821Y-82.571
X76.679Y-54.571
X-12.321Y-111.071
X120.679Y-111.071
X60.571Y-140.071
T7
X168.485Y-58.571
X182.627Y-44.429
X-12.321Y-54.571
X90.929Y-125.929
X46.429Y-68.429
X134.679Y-125.929
X1.929Y-125.929
X134.679Y-68.429
X46.321Y-96.929
X90.821Y-96.929
X1.929Y-68.429
X182.679Y-128.429
X196.821Y-142.571
X168.679Y-114.571
X182.821Y-100.429
X134.821Y-40.429
X182.679Y-72.429
X196.821Y-86.571
X90.679Y-68.429
X90.821Y-40.429
X1.821Y-96.929
X134.821Y-96.929
X46.429Y-125.929
X46.321Y-40.679
T8
X200.0Y-165.0
X200.0Y-25.0
X14.0Y-25.0
X8.0Y-165.0
T0
M30
