%TF.GenerationSoftware,KiCad,Pcbnew,(5.1.4)-1*%
%TF.CreationDate,2020-05-13T01:14:08+08:00*%
%TF.ProjectId,LPF,4c50462e-6b69-4636-9164-5f7063625858,rev?*%
%TF.SameCoordinates,Original*%
%TF.FileFunction,Soldermask,Top*%
%TF.FilePolarity,Negative*%
%FSLAX46Y46*%
G04 Gerber Fmt 4.6, Leading zero omitted, Abs format (unit mm)*
G04 Created by KiCad (PCBNEW (5.1.4)-1) date 2020-05-13 01:14:08*
%MOMM*%
%LPD*%
G04 APERTURE LIST*
%ADD10C,0.350000*%
G04 APERTURE END LIST*
D10*
G36*
X161551000Y-169151000D02*
G01*
X160449000Y-169151000D01*
X160449000Y-167799000D01*
X161551000Y-167799000D01*
X161551000Y-169151000D01*
X161551000Y-169151000D01*
G37*
G36*
X83551000Y-169151000D02*
G01*
X82449000Y-169151000D01*
X82449000Y-167799000D01*
X83551000Y-167799000D01*
X83551000Y-169151000D01*
X83551000Y-169151000D01*
G37*
G36*
X44051000Y-169151000D02*
G01*
X42949000Y-169151000D01*
X42949000Y-167799000D01*
X44051000Y-167799000D01*
X44051000Y-169151000D01*
X44051000Y-169151000D01*
G37*
G36*
X122551000Y-169151000D02*
G01*
X121449000Y-169151000D01*
X121449000Y-167799000D01*
X122551000Y-167799000D01*
X122551000Y-169151000D01*
X122551000Y-169151000D01*
G37*
G36*
X136379487Y-165748996D02*
G01*
X136616253Y-165847068D01*
X136616255Y-165847069D01*
X136829339Y-165989447D01*
X137010553Y-166170661D01*
X137109705Y-166319052D01*
X137152932Y-166383747D01*
X137251004Y-166620513D01*
X137301000Y-166871861D01*
X137301000Y-167128139D01*
X137251004Y-167379487D01*
X137164374Y-167588629D01*
X137152931Y-167616255D01*
X137010553Y-167829339D01*
X136829339Y-168010553D01*
X136616255Y-168152931D01*
X136616254Y-168152932D01*
X136616253Y-168152932D01*
X136379487Y-168251004D01*
X136128139Y-168301000D01*
X135871861Y-168301000D01*
X135620513Y-168251004D01*
X135383747Y-168152932D01*
X135383746Y-168152932D01*
X135383745Y-168152931D01*
X135170661Y-168010553D01*
X134989447Y-167829339D01*
X134847069Y-167616255D01*
X134835626Y-167588629D01*
X134748996Y-167379487D01*
X134699000Y-167128139D01*
X134699000Y-166871861D01*
X134748996Y-166620513D01*
X134847068Y-166383747D01*
X134890296Y-166319052D01*
X134989447Y-166170661D01*
X135170661Y-165989447D01*
X135383745Y-165847069D01*
X135383747Y-165847068D01*
X135620513Y-165748996D01*
X135871861Y-165699000D01*
X136128139Y-165699000D01*
X136379487Y-165748996D01*
X136379487Y-165748996D01*
G37*
G36*
X97379487Y-165748996D02*
G01*
X97616253Y-165847068D01*
X97616255Y-165847069D01*
X97829339Y-165989447D01*
X98010553Y-166170661D01*
X98109705Y-166319052D01*
X98152932Y-166383747D01*
X98251004Y-166620513D01*
X98301000Y-166871861D01*
X98301000Y-167128139D01*
X98251004Y-167379487D01*
X98164374Y-167588629D01*
X98152931Y-167616255D01*
X98010553Y-167829339D01*
X97829339Y-168010553D01*
X97616255Y-168152931D01*
X97616254Y-168152932D01*
X97616253Y-168152932D01*
X97379487Y-168251004D01*
X97128139Y-168301000D01*
X96871861Y-168301000D01*
X96620513Y-168251004D01*
X96383747Y-168152932D01*
X96383746Y-168152932D01*
X96383745Y-168152931D01*
X96170661Y-168010553D01*
X95989447Y-167829339D01*
X95847069Y-167616255D01*
X95835626Y-167588629D01*
X95748996Y-167379487D01*
X95699000Y-167128139D01*
X95699000Y-166871861D01*
X95748996Y-166620513D01*
X95847068Y-166383747D01*
X95890296Y-166319052D01*
X95989447Y-166170661D01*
X96170661Y-165989447D01*
X96383745Y-165847069D01*
X96383747Y-165847068D01*
X96620513Y-165748996D01*
X96871861Y-165699000D01*
X97128139Y-165699000D01*
X97379487Y-165748996D01*
X97379487Y-165748996D01*
G37*
G36*
X89879487Y-165748996D02*
G01*
X90116253Y-165847068D01*
X90116255Y-165847069D01*
X90329339Y-165989447D01*
X90510553Y-166170661D01*
X90609705Y-166319052D01*
X90652932Y-166383747D01*
X90751004Y-166620513D01*
X90801000Y-166871861D01*
X90801000Y-167128139D01*
X90751004Y-167379487D01*
X90664374Y-167588629D01*
X90652931Y-167616255D01*
X90510553Y-167829339D01*
X90329339Y-168010553D01*
X90116255Y-168152931D01*
X90116254Y-168152932D01*
X90116253Y-168152932D01*
X89879487Y-168251004D01*
X89628139Y-168301000D01*
X89371861Y-168301000D01*
X89120513Y-168251004D01*
X88883747Y-168152932D01*
X88883746Y-168152932D01*
X88883745Y-168152931D01*
X88670661Y-168010553D01*
X88489447Y-167829339D01*
X88347069Y-167616255D01*
X88335626Y-167588629D01*
X88248996Y-167379487D01*
X88199000Y-167128139D01*
X88199000Y-166871861D01*
X88248996Y-166620513D01*
X88347068Y-166383747D01*
X88390296Y-166319052D01*
X88489447Y-166170661D01*
X88670661Y-165989447D01*
X88883745Y-165847069D01*
X88883747Y-165847068D01*
X89120513Y-165748996D01*
X89371861Y-165699000D01*
X89628139Y-165699000D01*
X89879487Y-165748996D01*
X89879487Y-165748996D01*
G37*
G36*
X58379487Y-165748996D02*
G01*
X58616253Y-165847068D01*
X58616255Y-165847069D01*
X58829339Y-165989447D01*
X59010553Y-166170661D01*
X59109705Y-166319052D01*
X59152932Y-166383747D01*
X59251004Y-166620513D01*
X59301000Y-166871861D01*
X59301000Y-167128139D01*
X59251004Y-167379487D01*
X59164374Y-167588629D01*
X59152931Y-167616255D01*
X59010553Y-167829339D01*
X58829339Y-168010553D01*
X58616255Y-168152931D01*
X58616254Y-168152932D01*
X58616253Y-168152932D01*
X58379487Y-168251004D01*
X58128139Y-168301000D01*
X57871861Y-168301000D01*
X57620513Y-168251004D01*
X57383747Y-168152932D01*
X57383746Y-168152932D01*
X57383745Y-168152931D01*
X57170661Y-168010553D01*
X56989447Y-167829339D01*
X56847069Y-167616255D01*
X56835626Y-167588629D01*
X56748996Y-167379487D01*
X56699000Y-167128139D01*
X56699000Y-166871861D01*
X56748996Y-166620513D01*
X56847068Y-166383747D01*
X56890296Y-166319052D01*
X56989447Y-166170661D01*
X57170661Y-165989447D01*
X57383745Y-165847069D01*
X57383747Y-165847068D01*
X57620513Y-165748996D01*
X57871861Y-165699000D01*
X58128139Y-165699000D01*
X58379487Y-165748996D01*
X58379487Y-165748996D01*
G37*
G36*
X167879487Y-165748996D02*
G01*
X168116253Y-165847068D01*
X168116255Y-165847069D01*
X168329339Y-165989447D01*
X168510553Y-166170661D01*
X168609705Y-166319052D01*
X168652932Y-166383747D01*
X168751004Y-166620513D01*
X168801000Y-166871861D01*
X168801000Y-167128139D01*
X168751004Y-167379487D01*
X168664374Y-167588629D01*
X168652931Y-167616255D01*
X168510553Y-167829339D01*
X168329339Y-168010553D01*
X168116255Y-168152931D01*
X168116254Y-168152932D01*
X168116253Y-168152932D01*
X167879487Y-168251004D01*
X167628139Y-168301000D01*
X167371861Y-168301000D01*
X167120513Y-168251004D01*
X166883747Y-168152932D01*
X166883746Y-168152932D01*
X166883745Y-168152931D01*
X166670661Y-168010553D01*
X166489447Y-167829339D01*
X166347069Y-167616255D01*
X166335626Y-167588629D01*
X166248996Y-167379487D01*
X166199000Y-167128139D01*
X166199000Y-166871861D01*
X166248996Y-166620513D01*
X166347068Y-166383747D01*
X166390296Y-166319052D01*
X166489447Y-166170661D01*
X166670661Y-165989447D01*
X166883745Y-165847069D01*
X166883747Y-165847068D01*
X167120513Y-165748996D01*
X167371861Y-165699000D01*
X167628139Y-165699000D01*
X167879487Y-165748996D01*
X167879487Y-165748996D01*
G37*
G36*
X50879487Y-165748996D02*
G01*
X51116253Y-165847068D01*
X51116255Y-165847069D01*
X51329339Y-165989447D01*
X51510553Y-166170661D01*
X51609705Y-166319052D01*
X51652932Y-166383747D01*
X51751004Y-166620513D01*
X51801000Y-166871861D01*
X51801000Y-167128139D01*
X51751004Y-167379487D01*
X51664374Y-167588629D01*
X51652931Y-167616255D01*
X51510553Y-167829339D01*
X51329339Y-168010553D01*
X51116255Y-168152931D01*
X51116254Y-168152932D01*
X51116253Y-168152932D01*
X50879487Y-168251004D01*
X50628139Y-168301000D01*
X50371861Y-168301000D01*
X50120513Y-168251004D01*
X49883747Y-168152932D01*
X49883746Y-168152932D01*
X49883745Y-168152931D01*
X49670661Y-168010553D01*
X49489447Y-167829339D01*
X49347069Y-167616255D01*
X49335626Y-167588629D01*
X49248996Y-167379487D01*
X49199000Y-167128139D01*
X49199000Y-166871861D01*
X49248996Y-166620513D01*
X49347068Y-166383747D01*
X49390296Y-166319052D01*
X49489447Y-166170661D01*
X49670661Y-165989447D01*
X49883745Y-165847069D01*
X49883747Y-165847068D01*
X50120513Y-165748996D01*
X50371861Y-165699000D01*
X50628139Y-165699000D01*
X50879487Y-165748996D01*
X50879487Y-165748996D01*
G37*
G36*
X175379487Y-165748996D02*
G01*
X175616253Y-165847068D01*
X175616255Y-165847069D01*
X175829339Y-165989447D01*
X176010553Y-166170661D01*
X176109705Y-166319052D01*
X176152932Y-166383747D01*
X176251004Y-166620513D01*
X176301000Y-166871861D01*
X176301000Y-167128139D01*
X176251004Y-167379487D01*
X176164374Y-167588629D01*
X176152931Y-167616255D01*
X176010553Y-167829339D01*
X175829339Y-168010553D01*
X175616255Y-168152931D01*
X175616254Y-168152932D01*
X175616253Y-168152932D01*
X175379487Y-168251004D01*
X175128139Y-168301000D01*
X174871861Y-168301000D01*
X174620513Y-168251004D01*
X174383747Y-168152932D01*
X174383746Y-168152932D01*
X174383745Y-168152931D01*
X174170661Y-168010553D01*
X173989447Y-167829339D01*
X173847069Y-167616255D01*
X173835626Y-167588629D01*
X173748996Y-167379487D01*
X173699000Y-167128139D01*
X173699000Y-166871861D01*
X173748996Y-166620513D01*
X173847068Y-166383747D01*
X173890296Y-166319052D01*
X173989447Y-166170661D01*
X174170661Y-165989447D01*
X174383745Y-165847069D01*
X174383747Y-165847068D01*
X174620513Y-165748996D01*
X174871861Y-165699000D01*
X175128139Y-165699000D01*
X175379487Y-165748996D01*
X175379487Y-165748996D01*
G37*
G36*
X128879487Y-165748996D02*
G01*
X129116253Y-165847068D01*
X129116255Y-165847069D01*
X129329339Y-165989447D01*
X129510553Y-166170661D01*
X129609705Y-166319052D01*
X129652932Y-166383747D01*
X129751004Y-166620513D01*
X129801000Y-166871861D01*
X129801000Y-167128139D01*
X129751004Y-167379487D01*
X129664374Y-167588629D01*
X129652931Y-167616255D01*
X129510553Y-167829339D01*
X129329339Y-168010553D01*
X129116255Y-168152931D01*
X129116254Y-168152932D01*
X129116253Y-168152932D01*
X128879487Y-168251004D01*
X128628139Y-168301000D01*
X128371861Y-168301000D01*
X128120513Y-168251004D01*
X127883747Y-168152932D01*
X127883746Y-168152932D01*
X127883745Y-168152931D01*
X127670661Y-168010553D01*
X127489447Y-167829339D01*
X127347069Y-167616255D01*
X127335626Y-167588629D01*
X127248996Y-167379487D01*
X127199000Y-167128139D01*
X127199000Y-166871861D01*
X127248996Y-166620513D01*
X127347068Y-166383747D01*
X127390296Y-166319052D01*
X127489447Y-166170661D01*
X127670661Y-165989447D01*
X127883745Y-165847069D01*
X127883747Y-165847068D01*
X128120513Y-165748996D01*
X128371861Y-165699000D01*
X128628139Y-165699000D01*
X128879487Y-165748996D01*
X128879487Y-165748996D01*
G37*
G36*
X25889943Y-162066248D02*
G01*
X26445189Y-162296238D01*
X26617497Y-162411371D01*
X26944899Y-162630134D01*
X27369866Y-163055101D01*
X27369867Y-163055103D01*
X27703762Y-163554811D01*
X27933752Y-164110057D01*
X28051000Y-164699501D01*
X28051000Y-165300499D01*
X27933752Y-165889943D01*
X27703762Y-166445189D01*
X27641872Y-166537814D01*
X27369866Y-166944899D01*
X26944899Y-167369866D01*
X26870736Y-167419420D01*
X26445189Y-167703762D01*
X25889943Y-167933752D01*
X25300499Y-168051000D01*
X24699501Y-168051000D01*
X24110057Y-167933752D01*
X23554811Y-167703762D01*
X23129264Y-167419420D01*
X23055101Y-167369866D01*
X22630134Y-166944899D01*
X22358128Y-166537814D01*
X22296238Y-166445189D01*
X22066248Y-165889943D01*
X21949000Y-165300499D01*
X21949000Y-164699501D01*
X22066248Y-164110057D01*
X22296238Y-163554811D01*
X22630133Y-163055103D01*
X22630134Y-163055101D01*
X23055101Y-162630134D01*
X23382503Y-162411371D01*
X23554811Y-162296238D01*
X24110057Y-162066248D01*
X24699501Y-161949000D01*
X25300499Y-161949000D01*
X25889943Y-162066248D01*
X25889943Y-162066248D01*
G37*
G36*
X215889943Y-162066248D02*
G01*
X216445189Y-162296238D01*
X216617497Y-162411371D01*
X216944899Y-162630134D01*
X217369866Y-163055101D01*
X217369867Y-163055103D01*
X217703762Y-163554811D01*
X217933752Y-164110057D01*
X218051000Y-164699501D01*
X218051000Y-165300499D01*
X217933752Y-165889943D01*
X217703762Y-166445189D01*
X217641872Y-166537814D01*
X217369866Y-166944899D01*
X216944899Y-167369866D01*
X216870736Y-167419420D01*
X216445189Y-167703762D01*
X215889943Y-167933752D01*
X215300499Y-168051000D01*
X214699501Y-168051000D01*
X214110057Y-167933752D01*
X213554811Y-167703762D01*
X213129264Y-167419420D01*
X213055101Y-167369866D01*
X212630134Y-166944899D01*
X212358128Y-166537814D01*
X212296238Y-166445189D01*
X212066248Y-165889943D01*
X211949000Y-165300499D01*
X211949000Y-164699501D01*
X212066248Y-164110057D01*
X212296238Y-163554811D01*
X212630133Y-163055103D01*
X212630134Y-163055101D01*
X213055101Y-162630134D01*
X213382503Y-162411371D01*
X213554811Y-162296238D01*
X214110057Y-162066248D01*
X214699501Y-161949000D01*
X215300499Y-161949000D01*
X215889943Y-162066248D01*
X215889943Y-162066248D01*
G37*
G36*
X161551000Y-166201000D02*
G01*
X160449000Y-166201000D01*
X160449000Y-164849000D01*
X161551000Y-164849000D01*
X161551000Y-166201000D01*
X161551000Y-166201000D01*
G37*
G36*
X122551000Y-166201000D02*
G01*
X121449000Y-166201000D01*
X121449000Y-164849000D01*
X122551000Y-164849000D01*
X122551000Y-166201000D01*
X122551000Y-166201000D01*
G37*
G36*
X83551000Y-166201000D02*
G01*
X82449000Y-166201000D01*
X82449000Y-164849000D01*
X83551000Y-164849000D01*
X83551000Y-166201000D01*
X83551000Y-166201000D01*
G37*
G36*
X44051000Y-166201000D02*
G01*
X42949000Y-166201000D01*
X42949000Y-164849000D01*
X44051000Y-164849000D01*
X44051000Y-166201000D01*
X44051000Y-166201000D01*
G37*
G36*
X31051000Y-158851000D02*
G01*
X20949000Y-158851000D01*
X20949000Y-153749000D01*
X31051000Y-153749000D01*
X31051000Y-158851000D01*
X31051000Y-158851000D01*
G37*
G36*
X89879487Y-150748996D02*
G01*
X90116253Y-150847068D01*
X90116255Y-150847069D01*
X90329339Y-150989447D01*
X90510553Y-151170661D01*
X90630063Y-151349520D01*
X90652932Y-151383747D01*
X90751004Y-151620513D01*
X90801000Y-151871861D01*
X90801000Y-152128139D01*
X90751004Y-152379487D01*
X90652932Y-152616253D01*
X90652931Y-152616255D01*
X90510553Y-152829339D01*
X90329339Y-153010553D01*
X90116255Y-153152931D01*
X90116254Y-153152932D01*
X90116253Y-153152932D01*
X89879487Y-153251004D01*
X89628139Y-153301000D01*
X89371861Y-153301000D01*
X89120513Y-153251004D01*
X88883747Y-153152932D01*
X88883746Y-153152932D01*
X88883745Y-153152931D01*
X88670661Y-153010553D01*
X88489447Y-152829339D01*
X88347069Y-152616255D01*
X88347068Y-152616253D01*
X88248996Y-152379487D01*
X88199000Y-152128139D01*
X88199000Y-151871861D01*
X88248996Y-151620513D01*
X88347068Y-151383747D01*
X88369938Y-151349520D01*
X88489447Y-151170661D01*
X88670661Y-150989447D01*
X88883745Y-150847069D01*
X88883747Y-150847068D01*
X89120513Y-150748996D01*
X89371861Y-150699000D01*
X89628139Y-150699000D01*
X89879487Y-150748996D01*
X89879487Y-150748996D01*
G37*
G36*
X50879487Y-150748996D02*
G01*
X51116253Y-150847068D01*
X51116255Y-150847069D01*
X51329339Y-150989447D01*
X51510553Y-151170661D01*
X51630063Y-151349520D01*
X51652932Y-151383747D01*
X51751004Y-151620513D01*
X51801000Y-151871861D01*
X51801000Y-152128139D01*
X51751004Y-152379487D01*
X51652932Y-152616253D01*
X51652931Y-152616255D01*
X51510553Y-152829339D01*
X51329339Y-153010553D01*
X51116255Y-153152931D01*
X51116254Y-153152932D01*
X51116253Y-153152932D01*
X50879487Y-153251004D01*
X50628139Y-153301000D01*
X50371861Y-153301000D01*
X50120513Y-153251004D01*
X49883747Y-153152932D01*
X49883746Y-153152932D01*
X49883745Y-153152931D01*
X49670661Y-153010553D01*
X49489447Y-152829339D01*
X49347069Y-152616255D01*
X49347068Y-152616253D01*
X49248996Y-152379487D01*
X49199000Y-152128139D01*
X49199000Y-151871861D01*
X49248996Y-151620513D01*
X49347068Y-151383747D01*
X49369938Y-151349520D01*
X49489447Y-151170661D01*
X49670661Y-150989447D01*
X49883745Y-150847069D01*
X49883747Y-150847068D01*
X50120513Y-150748996D01*
X50371861Y-150699000D01*
X50628139Y-150699000D01*
X50879487Y-150748996D01*
X50879487Y-150748996D01*
G37*
G36*
X167879487Y-150748996D02*
G01*
X168116253Y-150847068D01*
X168116255Y-150847069D01*
X168329339Y-150989447D01*
X168510553Y-151170661D01*
X168630063Y-151349520D01*
X168652932Y-151383747D01*
X168751004Y-151620513D01*
X168801000Y-151871861D01*
X168801000Y-152128139D01*
X168751004Y-152379487D01*
X168652932Y-152616253D01*
X168652931Y-152616255D01*
X168510553Y-152829339D01*
X168329339Y-153010553D01*
X168116255Y-153152931D01*
X168116254Y-153152932D01*
X168116253Y-153152932D01*
X167879487Y-153251004D01*
X167628139Y-153301000D01*
X167371861Y-153301000D01*
X167120513Y-153251004D01*
X166883747Y-153152932D01*
X166883746Y-153152932D01*
X166883745Y-153152931D01*
X166670661Y-153010553D01*
X166489447Y-152829339D01*
X166347069Y-152616255D01*
X166347068Y-152616253D01*
X166248996Y-152379487D01*
X166199000Y-152128139D01*
X166199000Y-151871861D01*
X166248996Y-151620513D01*
X166347068Y-151383747D01*
X166369938Y-151349520D01*
X166489447Y-151170661D01*
X166670661Y-150989447D01*
X166883745Y-150847069D01*
X166883747Y-150847068D01*
X167120513Y-150748996D01*
X167371861Y-150699000D01*
X167628139Y-150699000D01*
X167879487Y-150748996D01*
X167879487Y-150748996D01*
G37*
G36*
X175379487Y-150748996D02*
G01*
X175616253Y-150847068D01*
X175616255Y-150847069D01*
X175829339Y-150989447D01*
X176010553Y-151170661D01*
X176130063Y-151349520D01*
X176152932Y-151383747D01*
X176251004Y-151620513D01*
X176301000Y-151871861D01*
X176301000Y-152128139D01*
X176251004Y-152379487D01*
X176152932Y-152616253D01*
X176152931Y-152616255D01*
X176010553Y-152829339D01*
X175829339Y-153010553D01*
X175616255Y-153152931D01*
X175616254Y-153152932D01*
X175616253Y-153152932D01*
X175379487Y-153251004D01*
X175128139Y-153301000D01*
X174871861Y-153301000D01*
X174620513Y-153251004D01*
X174383747Y-153152932D01*
X174383746Y-153152932D01*
X174383745Y-153152931D01*
X174170661Y-153010553D01*
X173989447Y-152829339D01*
X173847069Y-152616255D01*
X173847068Y-152616253D01*
X173748996Y-152379487D01*
X173699000Y-152128139D01*
X173699000Y-151871861D01*
X173748996Y-151620513D01*
X173847068Y-151383747D01*
X173869938Y-151349520D01*
X173989447Y-151170661D01*
X174170661Y-150989447D01*
X174383745Y-150847069D01*
X174383747Y-150847068D01*
X174620513Y-150748996D01*
X174871861Y-150699000D01*
X175128139Y-150699000D01*
X175379487Y-150748996D01*
X175379487Y-150748996D01*
G37*
G36*
X128879487Y-150748996D02*
G01*
X129116253Y-150847068D01*
X129116255Y-150847069D01*
X129329339Y-150989447D01*
X129510553Y-151170661D01*
X129630063Y-151349520D01*
X129652932Y-151383747D01*
X129751004Y-151620513D01*
X129801000Y-151871861D01*
X129801000Y-152128139D01*
X129751004Y-152379487D01*
X129652932Y-152616253D01*
X129652931Y-152616255D01*
X129510553Y-152829339D01*
X129329339Y-153010553D01*
X129116255Y-153152931D01*
X129116254Y-153152932D01*
X129116253Y-153152932D01*
X128879487Y-153251004D01*
X128628139Y-153301000D01*
X128371861Y-153301000D01*
X128120513Y-153251004D01*
X127883747Y-153152932D01*
X127883746Y-153152932D01*
X127883745Y-153152931D01*
X127670661Y-153010553D01*
X127489447Y-152829339D01*
X127347069Y-152616255D01*
X127347068Y-152616253D01*
X127248996Y-152379487D01*
X127199000Y-152128139D01*
X127199000Y-151871861D01*
X127248996Y-151620513D01*
X127347068Y-151383747D01*
X127369938Y-151349520D01*
X127489447Y-151170661D01*
X127670661Y-150989447D01*
X127883745Y-150847069D01*
X127883747Y-150847068D01*
X128120513Y-150748996D01*
X128371861Y-150699000D01*
X128628139Y-150699000D01*
X128879487Y-150748996D01*
X128879487Y-150748996D01*
G37*
G36*
X97379487Y-150748996D02*
G01*
X97616253Y-150847068D01*
X97616255Y-150847069D01*
X97829339Y-150989447D01*
X98010553Y-151170661D01*
X98130063Y-151349520D01*
X98152932Y-151383747D01*
X98251004Y-151620513D01*
X98301000Y-151871861D01*
X98301000Y-152128139D01*
X98251004Y-152379487D01*
X98152932Y-152616253D01*
X98152931Y-152616255D01*
X98010553Y-152829339D01*
X97829339Y-153010553D01*
X97616255Y-153152931D01*
X97616254Y-153152932D01*
X97616253Y-153152932D01*
X97379487Y-153251004D01*
X97128139Y-153301000D01*
X96871861Y-153301000D01*
X96620513Y-153251004D01*
X96383747Y-153152932D01*
X96383746Y-153152932D01*
X96383745Y-153152931D01*
X96170661Y-153010553D01*
X95989447Y-152829339D01*
X95847069Y-152616255D01*
X95847068Y-152616253D01*
X95748996Y-152379487D01*
X95699000Y-152128139D01*
X95699000Y-151871861D01*
X95748996Y-151620513D01*
X95847068Y-151383747D01*
X95869938Y-151349520D01*
X95989447Y-151170661D01*
X96170661Y-150989447D01*
X96383745Y-150847069D01*
X96383747Y-150847068D01*
X96620513Y-150748996D01*
X96871861Y-150699000D01*
X97128139Y-150699000D01*
X97379487Y-150748996D01*
X97379487Y-150748996D01*
G37*
G36*
X58379487Y-150748996D02*
G01*
X58616253Y-150847068D01*
X58616255Y-150847069D01*
X58829339Y-150989447D01*
X59010553Y-151170661D01*
X59130063Y-151349520D01*
X59152932Y-151383747D01*
X59251004Y-151620513D01*
X59301000Y-151871861D01*
X59301000Y-152128139D01*
X59251004Y-152379487D01*
X59152932Y-152616253D01*
X59152931Y-152616255D01*
X59010553Y-152829339D01*
X58829339Y-153010553D01*
X58616255Y-153152931D01*
X58616254Y-153152932D01*
X58616253Y-153152932D01*
X58379487Y-153251004D01*
X58128139Y-153301000D01*
X57871861Y-153301000D01*
X57620513Y-153251004D01*
X57383747Y-153152932D01*
X57383746Y-153152932D01*
X57383745Y-153152931D01*
X57170661Y-153010553D01*
X56989447Y-152829339D01*
X56847069Y-152616255D01*
X56847068Y-152616253D01*
X56748996Y-152379487D01*
X56699000Y-152128139D01*
X56699000Y-151871861D01*
X56748996Y-151620513D01*
X56847068Y-151383747D01*
X56869938Y-151349520D01*
X56989447Y-151170661D01*
X57170661Y-150989447D01*
X57383745Y-150847069D01*
X57383747Y-150847068D01*
X57620513Y-150748996D01*
X57871861Y-150699000D01*
X58128139Y-150699000D01*
X58379487Y-150748996D01*
X58379487Y-150748996D01*
G37*
G36*
X136379487Y-150748996D02*
G01*
X136616253Y-150847068D01*
X136616255Y-150847069D01*
X136829339Y-150989447D01*
X137010553Y-151170661D01*
X137130063Y-151349520D01*
X137152932Y-151383747D01*
X137251004Y-151620513D01*
X137301000Y-151871861D01*
X137301000Y-152128139D01*
X137251004Y-152379487D01*
X137152932Y-152616253D01*
X137152931Y-152616255D01*
X137010553Y-152829339D01*
X136829339Y-153010553D01*
X136616255Y-153152931D01*
X136616254Y-153152932D01*
X136616253Y-153152932D01*
X136379487Y-153251004D01*
X136128139Y-153301000D01*
X135871861Y-153301000D01*
X135620513Y-153251004D01*
X135383747Y-153152932D01*
X135383746Y-153152932D01*
X135383745Y-153152931D01*
X135170661Y-153010553D01*
X134989447Y-152829339D01*
X134847069Y-152616255D01*
X134847068Y-152616253D01*
X134748996Y-152379487D01*
X134699000Y-152128139D01*
X134699000Y-151871861D01*
X134748996Y-151620513D01*
X134847068Y-151383747D01*
X134869938Y-151349520D01*
X134989447Y-151170661D01*
X135170661Y-150989447D01*
X135383745Y-150847069D01*
X135383747Y-150847068D01*
X135620513Y-150748996D01*
X135871861Y-150699000D01*
X136128139Y-150699000D01*
X136379487Y-150748996D01*
X136379487Y-150748996D01*
G37*
G36*
X185321833Y-149531039D02*
G01*
X185585897Y-149640418D01*
X185823550Y-149799213D01*
X186025658Y-150001321D01*
X186184453Y-150238974D01*
X186293832Y-150503038D01*
X186349592Y-150783367D01*
X186349592Y-151069191D01*
X186293832Y-151349520D01*
X186184453Y-151613584D01*
X186025658Y-151851237D01*
X185823550Y-152053345D01*
X185585897Y-152212140D01*
X185321833Y-152321519D01*
X185041504Y-152377279D01*
X184755680Y-152377279D01*
X184475351Y-152321519D01*
X184211287Y-152212140D01*
X183973634Y-152053345D01*
X183771526Y-151851237D01*
X183612731Y-151613584D01*
X183503352Y-151349520D01*
X183447592Y-151069191D01*
X183447592Y-150783367D01*
X183503352Y-150503038D01*
X183612731Y-150238974D01*
X183771526Y-150001321D01*
X183973634Y-149799213D01*
X184211287Y-149640418D01*
X184475351Y-149531039D01*
X184755680Y-149475279D01*
X185041504Y-149475279D01*
X185321833Y-149531039D01*
X185321833Y-149531039D01*
G37*
G36*
X31051000Y-152051000D02*
G01*
X22949000Y-152051000D01*
X22949000Y-147949000D01*
X31051000Y-147949000D01*
X31051000Y-152051000D01*
X31051000Y-152051000D01*
G37*
G36*
X175379487Y-145748996D02*
G01*
X175616253Y-145847068D01*
X175616255Y-145847069D01*
X175793756Y-145965671D01*
X175829339Y-145989447D01*
X176010553Y-146170661D01*
X176152932Y-146383747D01*
X176251004Y-146620513D01*
X176301000Y-146871861D01*
X176301000Y-147128139D01*
X176251004Y-147379487D01*
X176152932Y-147616253D01*
X176152931Y-147616255D01*
X176010553Y-147829339D01*
X175829339Y-148010553D01*
X175616255Y-148152931D01*
X175616254Y-148152932D01*
X175616253Y-148152932D01*
X175379487Y-148251004D01*
X175128139Y-148301000D01*
X174871861Y-148301000D01*
X174620513Y-148251004D01*
X174383747Y-148152932D01*
X174383746Y-148152932D01*
X174383745Y-148152931D01*
X174170661Y-148010553D01*
X173989447Y-147829339D01*
X173847069Y-147616255D01*
X173847068Y-147616253D01*
X173748996Y-147379487D01*
X173699000Y-147128139D01*
X173699000Y-146871861D01*
X173748996Y-146620513D01*
X173847068Y-146383747D01*
X173989447Y-146170661D01*
X174170661Y-145989447D01*
X174206244Y-145965671D01*
X174383745Y-145847069D01*
X174383747Y-145847068D01*
X174620513Y-145748996D01*
X174871861Y-145699000D01*
X175128139Y-145699000D01*
X175379487Y-145748996D01*
X175379487Y-145748996D01*
G37*
G36*
X97379487Y-145748996D02*
G01*
X97616253Y-145847068D01*
X97616255Y-145847069D01*
X97793756Y-145965671D01*
X97829339Y-145989447D01*
X98010553Y-146170661D01*
X98152932Y-146383747D01*
X98251004Y-146620513D01*
X98301000Y-146871861D01*
X98301000Y-147128139D01*
X98251004Y-147379487D01*
X98152932Y-147616253D01*
X98152931Y-147616255D01*
X98010553Y-147829339D01*
X97829339Y-148010553D01*
X97616255Y-148152931D01*
X97616254Y-148152932D01*
X97616253Y-148152932D01*
X97379487Y-148251004D01*
X97128139Y-148301000D01*
X96871861Y-148301000D01*
X96620513Y-148251004D01*
X96383747Y-148152932D01*
X96383746Y-148152932D01*
X96383745Y-148152931D01*
X96170661Y-148010553D01*
X95989447Y-147829339D01*
X95847069Y-147616255D01*
X95847068Y-147616253D01*
X95748996Y-147379487D01*
X95699000Y-147128139D01*
X95699000Y-146871861D01*
X95748996Y-146620513D01*
X95847068Y-146383747D01*
X95989447Y-146170661D01*
X96170661Y-145989447D01*
X96206244Y-145965671D01*
X96383745Y-145847069D01*
X96383747Y-145847068D01*
X96620513Y-145748996D01*
X96871861Y-145699000D01*
X97128139Y-145699000D01*
X97379487Y-145748996D01*
X97379487Y-145748996D01*
G37*
G36*
X167879487Y-145748996D02*
G01*
X168116253Y-145847068D01*
X168116255Y-145847069D01*
X168293756Y-145965671D01*
X168329339Y-145989447D01*
X168510553Y-146170661D01*
X168652932Y-146383747D01*
X168751004Y-146620513D01*
X168801000Y-146871861D01*
X168801000Y-147128139D01*
X168751004Y-147379487D01*
X168652932Y-147616253D01*
X168652931Y-147616255D01*
X168510553Y-147829339D01*
X168329339Y-148010553D01*
X168116255Y-148152931D01*
X168116254Y-148152932D01*
X168116253Y-148152932D01*
X167879487Y-148251004D01*
X167628139Y-148301000D01*
X167371861Y-148301000D01*
X167120513Y-148251004D01*
X166883747Y-148152932D01*
X166883746Y-148152932D01*
X166883745Y-148152931D01*
X166670661Y-148010553D01*
X166489447Y-147829339D01*
X166347069Y-147616255D01*
X166347068Y-147616253D01*
X166248996Y-147379487D01*
X166199000Y-147128139D01*
X166199000Y-146871861D01*
X166248996Y-146620513D01*
X166347068Y-146383747D01*
X166489447Y-146170661D01*
X166670661Y-145989447D01*
X166706244Y-145965671D01*
X166883745Y-145847069D01*
X166883747Y-145847068D01*
X167120513Y-145748996D01*
X167371861Y-145699000D01*
X167628139Y-145699000D01*
X167879487Y-145748996D01*
X167879487Y-145748996D01*
G37*
G36*
X89879487Y-145748996D02*
G01*
X90116253Y-145847068D01*
X90116255Y-145847069D01*
X90293756Y-145965671D01*
X90329339Y-145989447D01*
X90510553Y-146170661D01*
X90652932Y-146383747D01*
X90751004Y-146620513D01*
X90801000Y-146871861D01*
X90801000Y-147128139D01*
X90751004Y-147379487D01*
X90652932Y-147616253D01*
X90652931Y-147616255D01*
X90510553Y-147829339D01*
X90329339Y-148010553D01*
X90116255Y-148152931D01*
X90116254Y-148152932D01*
X90116253Y-148152932D01*
X89879487Y-148251004D01*
X89628139Y-148301000D01*
X89371861Y-148301000D01*
X89120513Y-148251004D01*
X88883747Y-148152932D01*
X88883746Y-148152932D01*
X88883745Y-148152931D01*
X88670661Y-148010553D01*
X88489447Y-147829339D01*
X88347069Y-147616255D01*
X88347068Y-147616253D01*
X88248996Y-147379487D01*
X88199000Y-147128139D01*
X88199000Y-146871861D01*
X88248996Y-146620513D01*
X88347068Y-146383747D01*
X88489447Y-146170661D01*
X88670661Y-145989447D01*
X88706244Y-145965671D01*
X88883745Y-145847069D01*
X88883747Y-145847068D01*
X89120513Y-145748996D01*
X89371861Y-145699000D01*
X89628139Y-145699000D01*
X89879487Y-145748996D01*
X89879487Y-145748996D01*
G37*
G36*
X128879487Y-145748996D02*
G01*
X129116253Y-145847068D01*
X129116255Y-145847069D01*
X129293756Y-145965671D01*
X129329339Y-145989447D01*
X129510553Y-146170661D01*
X129652932Y-146383747D01*
X129751004Y-146620513D01*
X129801000Y-146871861D01*
X129801000Y-147128139D01*
X129751004Y-147379487D01*
X129652932Y-147616253D01*
X129652931Y-147616255D01*
X129510553Y-147829339D01*
X129329339Y-148010553D01*
X129116255Y-148152931D01*
X129116254Y-148152932D01*
X129116253Y-148152932D01*
X128879487Y-148251004D01*
X128628139Y-148301000D01*
X128371861Y-148301000D01*
X128120513Y-148251004D01*
X127883747Y-148152932D01*
X127883746Y-148152932D01*
X127883745Y-148152931D01*
X127670661Y-148010553D01*
X127489447Y-147829339D01*
X127347069Y-147616255D01*
X127347068Y-147616253D01*
X127248996Y-147379487D01*
X127199000Y-147128139D01*
X127199000Y-146871861D01*
X127248996Y-146620513D01*
X127347068Y-146383747D01*
X127489447Y-146170661D01*
X127670661Y-145989447D01*
X127706244Y-145965671D01*
X127883745Y-145847069D01*
X127883747Y-145847068D01*
X128120513Y-145748996D01*
X128371861Y-145699000D01*
X128628139Y-145699000D01*
X128879487Y-145748996D01*
X128879487Y-145748996D01*
G37*
G36*
X50879487Y-145748996D02*
G01*
X51116253Y-145847068D01*
X51116255Y-145847069D01*
X51293756Y-145965671D01*
X51329339Y-145989447D01*
X51510553Y-146170661D01*
X51652932Y-146383747D01*
X51751004Y-146620513D01*
X51801000Y-146871861D01*
X51801000Y-147128139D01*
X51751004Y-147379487D01*
X51652932Y-147616253D01*
X51652931Y-147616255D01*
X51510553Y-147829339D01*
X51329339Y-148010553D01*
X51116255Y-148152931D01*
X51116254Y-148152932D01*
X51116253Y-148152932D01*
X50879487Y-148251004D01*
X50628139Y-148301000D01*
X50371861Y-148301000D01*
X50120513Y-148251004D01*
X49883747Y-148152932D01*
X49883746Y-148152932D01*
X49883745Y-148152931D01*
X49670661Y-148010553D01*
X49489447Y-147829339D01*
X49347069Y-147616255D01*
X49347068Y-147616253D01*
X49248996Y-147379487D01*
X49199000Y-147128139D01*
X49199000Y-146871861D01*
X49248996Y-146620513D01*
X49347068Y-146383747D01*
X49489447Y-146170661D01*
X49670661Y-145989447D01*
X49706244Y-145965671D01*
X49883745Y-145847069D01*
X49883747Y-145847068D01*
X50120513Y-145748996D01*
X50371861Y-145699000D01*
X50628139Y-145699000D01*
X50879487Y-145748996D01*
X50879487Y-145748996D01*
G37*
G36*
X136379487Y-145748996D02*
G01*
X136616253Y-145847068D01*
X136616255Y-145847069D01*
X136793756Y-145965671D01*
X136829339Y-145989447D01*
X137010553Y-146170661D01*
X137152932Y-146383747D01*
X137251004Y-146620513D01*
X137301000Y-146871861D01*
X137301000Y-147128139D01*
X137251004Y-147379487D01*
X137152932Y-147616253D01*
X137152931Y-147616255D01*
X137010553Y-147829339D01*
X136829339Y-148010553D01*
X136616255Y-148152931D01*
X136616254Y-148152932D01*
X136616253Y-148152932D01*
X136379487Y-148251004D01*
X136128139Y-148301000D01*
X135871861Y-148301000D01*
X135620513Y-148251004D01*
X135383747Y-148152932D01*
X135383746Y-148152932D01*
X135383745Y-148152931D01*
X135170661Y-148010553D01*
X134989447Y-147829339D01*
X134847069Y-147616255D01*
X134847068Y-147616253D01*
X134748996Y-147379487D01*
X134699000Y-147128139D01*
X134699000Y-146871861D01*
X134748996Y-146620513D01*
X134847068Y-146383747D01*
X134989447Y-146170661D01*
X135170661Y-145989447D01*
X135206244Y-145965671D01*
X135383745Y-145847069D01*
X135383747Y-145847068D01*
X135620513Y-145748996D01*
X135871861Y-145699000D01*
X136128139Y-145699000D01*
X136379487Y-145748996D01*
X136379487Y-145748996D01*
G37*
G36*
X58379487Y-145748996D02*
G01*
X58616253Y-145847068D01*
X58616255Y-145847069D01*
X58793756Y-145965671D01*
X58829339Y-145989447D01*
X59010553Y-146170661D01*
X59152932Y-146383747D01*
X59251004Y-146620513D01*
X59301000Y-146871861D01*
X59301000Y-147128139D01*
X59251004Y-147379487D01*
X59152932Y-147616253D01*
X59152931Y-147616255D01*
X59010553Y-147829339D01*
X58829339Y-148010553D01*
X58616255Y-148152931D01*
X58616254Y-148152932D01*
X58616253Y-148152932D01*
X58379487Y-148251004D01*
X58128139Y-148301000D01*
X57871861Y-148301000D01*
X57620513Y-148251004D01*
X57383747Y-148152932D01*
X57383746Y-148152932D01*
X57383745Y-148152931D01*
X57170661Y-148010553D01*
X56989447Y-147829339D01*
X56847069Y-147616255D01*
X56847068Y-147616253D01*
X56748996Y-147379487D01*
X56699000Y-147128139D01*
X56699000Y-146871861D01*
X56748996Y-146620513D01*
X56847068Y-146383747D01*
X56989447Y-146170661D01*
X57170661Y-145989447D01*
X57206244Y-145965671D01*
X57383745Y-145847069D01*
X57383747Y-145847068D01*
X57620513Y-145748996D01*
X57871861Y-145699000D01*
X58128139Y-145699000D01*
X58379487Y-145748996D01*
X58379487Y-145748996D01*
G37*
G36*
X31051000Y-146251000D02*
G01*
X20949000Y-146251000D01*
X20949000Y-141149000D01*
X31051000Y-141149000D01*
X31051000Y-146251000D01*
X31051000Y-146251000D01*
G37*
G36*
X128879487Y-140748996D02*
G01*
X129116253Y-140847068D01*
X129116255Y-140847069D01*
X129329339Y-140989447D01*
X129510553Y-141170661D01*
X129530683Y-141200787D01*
X129652932Y-141383747D01*
X129751004Y-141620513D01*
X129801000Y-141871861D01*
X129801000Y-142128139D01*
X129751004Y-142379487D01*
X129738501Y-142409671D01*
X129652931Y-142616255D01*
X129510553Y-142829339D01*
X129329339Y-143010553D01*
X129116255Y-143152931D01*
X129116254Y-143152932D01*
X129116253Y-143152932D01*
X128879487Y-143251004D01*
X128628139Y-143301000D01*
X128371861Y-143301000D01*
X128120513Y-143251004D01*
X127883747Y-143152932D01*
X127883746Y-143152932D01*
X127883745Y-143152931D01*
X127670661Y-143010553D01*
X127489447Y-142829339D01*
X127347069Y-142616255D01*
X127261499Y-142409671D01*
X127248996Y-142379487D01*
X127199000Y-142128139D01*
X127199000Y-141871861D01*
X127248996Y-141620513D01*
X127347068Y-141383747D01*
X127469318Y-141200787D01*
X127489447Y-141170661D01*
X127670661Y-140989447D01*
X127883745Y-140847069D01*
X127883747Y-140847068D01*
X128120513Y-140748996D01*
X128371861Y-140699000D01*
X128628139Y-140699000D01*
X128879487Y-140748996D01*
X128879487Y-140748996D01*
G37*
G36*
X97379487Y-140748996D02*
G01*
X97616253Y-140847068D01*
X97616255Y-140847069D01*
X97829339Y-140989447D01*
X98010553Y-141170661D01*
X98030683Y-141200787D01*
X98152932Y-141383747D01*
X98251004Y-141620513D01*
X98301000Y-141871861D01*
X98301000Y-142128139D01*
X98251004Y-142379487D01*
X98238501Y-142409671D01*
X98152931Y-142616255D01*
X98010553Y-142829339D01*
X97829339Y-143010553D01*
X97616255Y-143152931D01*
X97616254Y-143152932D01*
X97616253Y-143152932D01*
X97379487Y-143251004D01*
X97128139Y-143301000D01*
X96871861Y-143301000D01*
X96620513Y-143251004D01*
X96383747Y-143152932D01*
X96383746Y-143152932D01*
X96383745Y-143152931D01*
X96170661Y-143010553D01*
X95989447Y-142829339D01*
X95847069Y-142616255D01*
X95761499Y-142409671D01*
X95748996Y-142379487D01*
X95699000Y-142128139D01*
X95699000Y-141871861D01*
X95748996Y-141620513D01*
X95847068Y-141383747D01*
X95969318Y-141200787D01*
X95989447Y-141170661D01*
X96170661Y-140989447D01*
X96383745Y-140847069D01*
X96383747Y-140847068D01*
X96620513Y-140748996D01*
X96871861Y-140699000D01*
X97128139Y-140699000D01*
X97379487Y-140748996D01*
X97379487Y-140748996D01*
G37*
G36*
X89879487Y-140748996D02*
G01*
X90116253Y-140847068D01*
X90116255Y-140847069D01*
X90329339Y-140989447D01*
X90510553Y-141170661D01*
X90530683Y-141200787D01*
X90652932Y-141383747D01*
X90751004Y-141620513D01*
X90801000Y-141871861D01*
X90801000Y-142128139D01*
X90751004Y-142379487D01*
X90738501Y-142409671D01*
X90652931Y-142616255D01*
X90510553Y-142829339D01*
X90329339Y-143010553D01*
X90116255Y-143152931D01*
X90116254Y-143152932D01*
X90116253Y-143152932D01*
X89879487Y-143251004D01*
X89628139Y-143301000D01*
X89371861Y-143301000D01*
X89120513Y-143251004D01*
X88883747Y-143152932D01*
X88883746Y-143152932D01*
X88883745Y-143152931D01*
X88670661Y-143010553D01*
X88489447Y-142829339D01*
X88347069Y-142616255D01*
X88261499Y-142409671D01*
X88248996Y-142379487D01*
X88199000Y-142128139D01*
X88199000Y-141871861D01*
X88248996Y-141620513D01*
X88347068Y-141383747D01*
X88469318Y-141200787D01*
X88489447Y-141170661D01*
X88670661Y-140989447D01*
X88883745Y-140847069D01*
X88883747Y-140847068D01*
X89120513Y-140748996D01*
X89371861Y-140699000D01*
X89628139Y-140699000D01*
X89879487Y-140748996D01*
X89879487Y-140748996D01*
G37*
G36*
X58379487Y-140748996D02*
G01*
X58616253Y-140847068D01*
X58616255Y-140847069D01*
X58829339Y-140989447D01*
X59010553Y-141170661D01*
X59030683Y-141200787D01*
X59152932Y-141383747D01*
X59251004Y-141620513D01*
X59301000Y-141871861D01*
X59301000Y-142128139D01*
X59251004Y-142379487D01*
X59238501Y-142409671D01*
X59152931Y-142616255D01*
X59010553Y-142829339D01*
X58829339Y-143010553D01*
X58616255Y-143152931D01*
X58616254Y-143152932D01*
X58616253Y-143152932D01*
X58379487Y-143251004D01*
X58128139Y-143301000D01*
X57871861Y-143301000D01*
X57620513Y-143251004D01*
X57383747Y-143152932D01*
X57383746Y-143152932D01*
X57383745Y-143152931D01*
X57170661Y-143010553D01*
X56989447Y-142829339D01*
X56847069Y-142616255D01*
X56761499Y-142409671D01*
X56748996Y-142379487D01*
X56699000Y-142128139D01*
X56699000Y-141871861D01*
X56748996Y-141620513D01*
X56847068Y-141383747D01*
X56969318Y-141200787D01*
X56989447Y-141170661D01*
X57170661Y-140989447D01*
X57383745Y-140847069D01*
X57383747Y-140847068D01*
X57620513Y-140748996D01*
X57871861Y-140699000D01*
X58128139Y-140699000D01*
X58379487Y-140748996D01*
X58379487Y-140748996D01*
G37*
G36*
X136379487Y-140748996D02*
G01*
X136616253Y-140847068D01*
X136616255Y-140847069D01*
X136829339Y-140989447D01*
X137010553Y-141170661D01*
X137030683Y-141200787D01*
X137152932Y-141383747D01*
X137251004Y-141620513D01*
X137301000Y-141871861D01*
X137301000Y-142128139D01*
X137251004Y-142379487D01*
X137238501Y-142409671D01*
X137152931Y-142616255D01*
X137010553Y-142829339D01*
X136829339Y-143010553D01*
X136616255Y-143152931D01*
X136616254Y-143152932D01*
X136616253Y-143152932D01*
X136379487Y-143251004D01*
X136128139Y-143301000D01*
X135871861Y-143301000D01*
X135620513Y-143251004D01*
X135383747Y-143152932D01*
X135383746Y-143152932D01*
X135383745Y-143152931D01*
X135170661Y-143010553D01*
X134989447Y-142829339D01*
X134847069Y-142616255D01*
X134761499Y-142409671D01*
X134748996Y-142379487D01*
X134699000Y-142128139D01*
X134699000Y-141871861D01*
X134748996Y-141620513D01*
X134847068Y-141383747D01*
X134969318Y-141200787D01*
X134989447Y-141170661D01*
X135170661Y-140989447D01*
X135383745Y-140847069D01*
X135383747Y-140847068D01*
X135620513Y-140748996D01*
X135871861Y-140699000D01*
X136128139Y-140699000D01*
X136379487Y-140748996D01*
X136379487Y-140748996D01*
G37*
G36*
X167879487Y-140748996D02*
G01*
X168116253Y-140847068D01*
X168116255Y-140847069D01*
X168329339Y-140989447D01*
X168510553Y-141170661D01*
X168530683Y-141200787D01*
X168652932Y-141383747D01*
X168751004Y-141620513D01*
X168801000Y-141871861D01*
X168801000Y-142128139D01*
X168751004Y-142379487D01*
X168738501Y-142409671D01*
X168652931Y-142616255D01*
X168510553Y-142829339D01*
X168329339Y-143010553D01*
X168116255Y-143152931D01*
X168116254Y-143152932D01*
X168116253Y-143152932D01*
X167879487Y-143251004D01*
X167628139Y-143301000D01*
X167371861Y-143301000D01*
X167120513Y-143251004D01*
X166883747Y-143152932D01*
X166883746Y-143152932D01*
X166883745Y-143152931D01*
X166670661Y-143010553D01*
X166489447Y-142829339D01*
X166347069Y-142616255D01*
X166261499Y-142409671D01*
X166248996Y-142379487D01*
X166199000Y-142128139D01*
X166199000Y-141871861D01*
X166248996Y-141620513D01*
X166347068Y-141383747D01*
X166469318Y-141200787D01*
X166489447Y-141170661D01*
X166670661Y-140989447D01*
X166883745Y-140847069D01*
X166883747Y-140847068D01*
X167120513Y-140748996D01*
X167371861Y-140699000D01*
X167628139Y-140699000D01*
X167879487Y-140748996D01*
X167879487Y-140748996D01*
G37*
G36*
X175379487Y-140748996D02*
G01*
X175616253Y-140847068D01*
X175616255Y-140847069D01*
X175829339Y-140989447D01*
X176010553Y-141170661D01*
X176030683Y-141200787D01*
X176152932Y-141383747D01*
X176251004Y-141620513D01*
X176301000Y-141871861D01*
X176301000Y-142128139D01*
X176251004Y-142379487D01*
X176238501Y-142409671D01*
X176152931Y-142616255D01*
X176010553Y-142829339D01*
X175829339Y-143010553D01*
X175616255Y-143152931D01*
X175616254Y-143152932D01*
X175616253Y-143152932D01*
X175379487Y-143251004D01*
X175128139Y-143301000D01*
X174871861Y-143301000D01*
X174620513Y-143251004D01*
X174383747Y-143152932D01*
X174383746Y-143152932D01*
X174383745Y-143152931D01*
X174170661Y-143010553D01*
X173989447Y-142829339D01*
X173847069Y-142616255D01*
X173761499Y-142409671D01*
X173748996Y-142379487D01*
X173699000Y-142128139D01*
X173699000Y-141871861D01*
X173748996Y-141620513D01*
X173847068Y-141383747D01*
X173969318Y-141200787D01*
X173989447Y-141170661D01*
X174170661Y-140989447D01*
X174383745Y-140847069D01*
X174383747Y-140847068D01*
X174620513Y-140748996D01*
X174871861Y-140699000D01*
X175128139Y-140699000D01*
X175379487Y-140748996D01*
X175379487Y-140748996D01*
G37*
G36*
X50879487Y-140748996D02*
G01*
X51116253Y-140847068D01*
X51116255Y-140847069D01*
X51329339Y-140989447D01*
X51510553Y-141170661D01*
X51530683Y-141200787D01*
X51652932Y-141383747D01*
X51751004Y-141620513D01*
X51801000Y-141871861D01*
X51801000Y-142128139D01*
X51751004Y-142379487D01*
X51738501Y-142409671D01*
X51652931Y-142616255D01*
X51510553Y-142829339D01*
X51329339Y-143010553D01*
X51116255Y-143152931D01*
X51116254Y-143152932D01*
X51116253Y-143152932D01*
X50879487Y-143251004D01*
X50628139Y-143301000D01*
X50371861Y-143301000D01*
X50120513Y-143251004D01*
X49883747Y-143152932D01*
X49883746Y-143152932D01*
X49883745Y-143152931D01*
X49670661Y-143010553D01*
X49489447Y-142829339D01*
X49347069Y-142616255D01*
X49261499Y-142409671D01*
X49248996Y-142379487D01*
X49199000Y-142128139D01*
X49199000Y-141871861D01*
X49248996Y-141620513D01*
X49347068Y-141383747D01*
X49469318Y-141200787D01*
X49489447Y-141170661D01*
X49670661Y-140989447D01*
X49883745Y-140847069D01*
X49883747Y-140847068D01*
X50120513Y-140748996D01*
X50371861Y-140699000D01*
X50628139Y-140699000D01*
X50879487Y-140748996D01*
X50879487Y-140748996D01*
G37*
G36*
X210524649Y-138678481D02*
G01*
X210788713Y-138787860D01*
X211026366Y-138946655D01*
X211228474Y-139148763D01*
X211387269Y-139386416D01*
X211496648Y-139650480D01*
X211552408Y-139930809D01*
X211552408Y-140216633D01*
X211496648Y-140496962D01*
X211387269Y-140761026D01*
X211228474Y-140998679D01*
X211026366Y-141200787D01*
X210788713Y-141359582D01*
X210524649Y-141468961D01*
X210244320Y-141524721D01*
X209958496Y-141524721D01*
X209678167Y-141468961D01*
X209414103Y-141359582D01*
X209176450Y-141200787D01*
X208974342Y-140998679D01*
X208815547Y-140761026D01*
X208706168Y-140496962D01*
X208650408Y-140216633D01*
X208650408Y-139930809D01*
X208706168Y-139650480D01*
X208815547Y-139386416D01*
X208974342Y-139148763D01*
X209176450Y-138946655D01*
X209414103Y-138787860D01*
X209678167Y-138678481D01*
X209958496Y-138622721D01*
X210244320Y-138622721D01*
X210524649Y-138678481D01*
X210524649Y-138678481D01*
G37*
G36*
X134663880Y-131006168D02*
G01*
X134927944Y-131115547D01*
X135165597Y-131274342D01*
X135367705Y-131476450D01*
X135526500Y-131714103D01*
X135635879Y-131978167D01*
X135691639Y-132258496D01*
X135691639Y-132544320D01*
X135635879Y-132824649D01*
X135526500Y-133088713D01*
X135367705Y-133326366D01*
X135165597Y-133528474D01*
X134927944Y-133687269D01*
X134663880Y-133796648D01*
X134383551Y-133852408D01*
X134097727Y-133852408D01*
X133817398Y-133796648D01*
X133553334Y-133687269D01*
X133315681Y-133528474D01*
X133113573Y-133326366D01*
X132954778Y-133088713D01*
X132845399Y-132824649D01*
X132789639Y-132544320D01*
X132789639Y-132258496D01*
X132845399Y-131978167D01*
X132954778Y-131714103D01*
X133113573Y-131476450D01*
X133315681Y-131274342D01*
X133553334Y-131115547D01*
X133817398Y-131006168D01*
X134097727Y-130950408D01*
X134383551Y-130950408D01*
X134663880Y-131006168D01*
X134663880Y-131006168D01*
G37*
G36*
X173663880Y-131006168D02*
G01*
X173927944Y-131115547D01*
X174165597Y-131274342D01*
X174367705Y-131476450D01*
X174526500Y-131714103D01*
X174635879Y-131978167D01*
X174691639Y-132258496D01*
X174691639Y-132544320D01*
X174635879Y-132824649D01*
X174526500Y-133088713D01*
X174367705Y-133326366D01*
X174165597Y-133528474D01*
X173927944Y-133687269D01*
X173663880Y-133796648D01*
X173383551Y-133852408D01*
X173097727Y-133852408D01*
X172817398Y-133796648D01*
X172553334Y-133687269D01*
X172315681Y-133528474D01*
X172113573Y-133326366D01*
X171954778Y-133088713D01*
X171845399Y-132824649D01*
X171789639Y-132544320D01*
X171789639Y-132258496D01*
X171845399Y-131978167D01*
X171954778Y-131714103D01*
X172113573Y-131476450D01*
X172315681Y-131274342D01*
X172553334Y-131115547D01*
X172817398Y-131006168D01*
X173097727Y-130950408D01*
X173383551Y-130950408D01*
X173663880Y-131006168D01*
X173663880Y-131006168D01*
G37*
G36*
X95663880Y-131006168D02*
G01*
X95927944Y-131115547D01*
X96165597Y-131274342D01*
X96367705Y-131476450D01*
X96526500Y-131714103D01*
X96635879Y-131978167D01*
X96691639Y-132258496D01*
X96691639Y-132544320D01*
X96635879Y-132824649D01*
X96526500Y-133088713D01*
X96367705Y-133326366D01*
X96165597Y-133528474D01*
X95927944Y-133687269D01*
X95663880Y-133796648D01*
X95383551Y-133852408D01*
X95097727Y-133852408D01*
X94817398Y-133796648D01*
X94553334Y-133687269D01*
X94315681Y-133528474D01*
X94113573Y-133326366D01*
X93954778Y-133088713D01*
X93845399Y-132824649D01*
X93789639Y-132544320D01*
X93789639Y-132258496D01*
X93845399Y-131978167D01*
X93954778Y-131714103D01*
X94113573Y-131476450D01*
X94315681Y-131274342D01*
X94553334Y-131115547D01*
X94817398Y-131006168D01*
X95097727Y-130950408D01*
X95383551Y-130950408D01*
X95663880Y-131006168D01*
X95663880Y-131006168D01*
G37*
G36*
X56663880Y-131006168D02*
G01*
X56927944Y-131115547D01*
X57165597Y-131274342D01*
X57367705Y-131476450D01*
X57526500Y-131714103D01*
X57635879Y-131978167D01*
X57691639Y-132258496D01*
X57691639Y-132544320D01*
X57635879Y-132824649D01*
X57526500Y-133088713D01*
X57367705Y-133326366D01*
X57165597Y-133528474D01*
X56927944Y-133687269D01*
X56663880Y-133796648D01*
X56383551Y-133852408D01*
X56097727Y-133852408D01*
X55817398Y-133796648D01*
X55553334Y-133687269D01*
X55315681Y-133528474D01*
X55113573Y-133326366D01*
X54954778Y-133088713D01*
X54845399Y-132824649D01*
X54789639Y-132544320D01*
X54789639Y-132258496D01*
X54845399Y-131978167D01*
X54954778Y-131714103D01*
X55113573Y-131476450D01*
X55315681Y-131274342D01*
X55553334Y-131115547D01*
X55817398Y-131006168D01*
X56097727Y-130950408D01*
X56383551Y-130950408D01*
X56663880Y-131006168D01*
X56663880Y-131006168D01*
G37*
G36*
X149182602Y-126203352D02*
G01*
X149446666Y-126312731D01*
X149684319Y-126471526D01*
X149886427Y-126673634D01*
X150045222Y-126911287D01*
X150154601Y-127175351D01*
X150210361Y-127455680D01*
X150210361Y-127741504D01*
X150154601Y-128021833D01*
X150045222Y-128285897D01*
X149886427Y-128523550D01*
X149684319Y-128725658D01*
X149446666Y-128884453D01*
X149182602Y-128993832D01*
X148902273Y-129049592D01*
X148616449Y-129049592D01*
X148336120Y-128993832D01*
X148072056Y-128884453D01*
X147834403Y-128725658D01*
X147632295Y-128523550D01*
X147473500Y-128285897D01*
X147364121Y-128021833D01*
X147308361Y-127741504D01*
X147308361Y-127455680D01*
X147364121Y-127175351D01*
X147473500Y-126911287D01*
X147632295Y-126673634D01*
X147834403Y-126471526D01*
X148072056Y-126312731D01*
X148336120Y-126203352D01*
X148616449Y-126147592D01*
X148902273Y-126147592D01*
X149182602Y-126203352D01*
X149182602Y-126203352D01*
G37*
G36*
X71182602Y-126203352D02*
G01*
X71446666Y-126312731D01*
X71684319Y-126471526D01*
X71886427Y-126673634D01*
X72045222Y-126911287D01*
X72154601Y-127175351D01*
X72210361Y-127455680D01*
X72210361Y-127741504D01*
X72154601Y-128021833D01*
X72045222Y-128285897D01*
X71886427Y-128523550D01*
X71684319Y-128725658D01*
X71446666Y-128884453D01*
X71182602Y-128993832D01*
X70902273Y-129049592D01*
X70616449Y-129049592D01*
X70336120Y-128993832D01*
X70072056Y-128884453D01*
X69834403Y-128725658D01*
X69632295Y-128523550D01*
X69473500Y-128285897D01*
X69364121Y-128021833D01*
X69308361Y-127741504D01*
X69308361Y-127455680D01*
X69364121Y-127175351D01*
X69473500Y-126911287D01*
X69632295Y-126673634D01*
X69834403Y-126471526D01*
X70072056Y-126312731D01*
X70336120Y-126203352D01*
X70616449Y-126147592D01*
X70902273Y-126147592D01*
X71182602Y-126203352D01*
X71182602Y-126203352D01*
G37*
G36*
X110182602Y-126203352D02*
G01*
X110446666Y-126312731D01*
X110684319Y-126471526D01*
X110886427Y-126673634D01*
X111045222Y-126911287D01*
X111154601Y-127175351D01*
X111210361Y-127455680D01*
X111210361Y-127741504D01*
X111154601Y-128021833D01*
X111045222Y-128285897D01*
X110886427Y-128523550D01*
X110684319Y-128725658D01*
X110446666Y-128884453D01*
X110182602Y-128993832D01*
X109902273Y-129049592D01*
X109616449Y-129049592D01*
X109336120Y-128993832D01*
X109072056Y-128884453D01*
X108834403Y-128725658D01*
X108632295Y-128523550D01*
X108473500Y-128285897D01*
X108364121Y-128021833D01*
X108308361Y-127741504D01*
X108308361Y-127455680D01*
X108364121Y-127175351D01*
X108473500Y-126911287D01*
X108632295Y-126673634D01*
X108834403Y-126471526D01*
X109072056Y-126312731D01*
X109336120Y-126203352D01*
X109616449Y-126147592D01*
X109902273Y-126147592D01*
X110182602Y-126203352D01*
X110182602Y-126203352D01*
G37*
G36*
X32182602Y-126203352D02*
G01*
X32446666Y-126312731D01*
X32684319Y-126471526D01*
X32886427Y-126673634D01*
X33045222Y-126911287D01*
X33154601Y-127175351D01*
X33210361Y-127455680D01*
X33210361Y-127741504D01*
X33154601Y-128021833D01*
X33045222Y-128285897D01*
X32886427Y-128523550D01*
X32684319Y-128725658D01*
X32446666Y-128884453D01*
X32182602Y-128993832D01*
X31902273Y-129049592D01*
X31616449Y-129049592D01*
X31336120Y-128993832D01*
X31072056Y-128884453D01*
X30834403Y-128725658D01*
X30632295Y-128523550D01*
X30473500Y-128285897D01*
X30364121Y-128021833D01*
X30308361Y-127741504D01*
X30308361Y-127455680D01*
X30364121Y-127175351D01*
X30473500Y-126911287D01*
X30632295Y-126673634D01*
X30834403Y-126471526D01*
X31072056Y-126312731D01*
X31336120Y-126203352D01*
X31616449Y-126147592D01*
X31902273Y-126147592D01*
X32182602Y-126203352D01*
X32182602Y-126203352D01*
G37*
G36*
X183846791Y-113584659D02*
G01*
X184110855Y-113694038D01*
X184348508Y-113852833D01*
X184550616Y-114054941D01*
X184709411Y-114292594D01*
X184818790Y-114556658D01*
X184874550Y-114836987D01*
X184874550Y-115122811D01*
X184818790Y-115403140D01*
X184709411Y-115667204D01*
X184550616Y-115904857D01*
X184348508Y-116106965D01*
X184110855Y-116265760D01*
X183846791Y-116375139D01*
X183566462Y-116430899D01*
X183280638Y-116430899D01*
X183000309Y-116375139D01*
X182736245Y-116265760D01*
X182498592Y-116106965D01*
X182296484Y-115904857D01*
X182137689Y-115667204D01*
X182028310Y-115403140D01*
X181972550Y-115122811D01*
X181972550Y-114836987D01*
X182028310Y-114556658D01*
X182137689Y-114292594D01*
X182296484Y-114054941D01*
X182498592Y-113852833D01*
X182736245Y-113694038D01*
X183000309Y-113584659D01*
X183280638Y-113528899D01*
X183566462Y-113528899D01*
X183846791Y-113584659D01*
X183846791Y-113584659D01*
G37*
G36*
X210999691Y-109624861D02*
G01*
X211263755Y-109734240D01*
X211501408Y-109893035D01*
X211703516Y-110095143D01*
X211862311Y-110332796D01*
X211971690Y-110596860D01*
X212027450Y-110877189D01*
X212027450Y-111163013D01*
X211971690Y-111443342D01*
X211862311Y-111707406D01*
X211703516Y-111945059D01*
X211501408Y-112147167D01*
X211263755Y-112305962D01*
X210999691Y-112415341D01*
X210719362Y-112471101D01*
X210433538Y-112471101D01*
X210153209Y-112415341D01*
X209889145Y-112305962D01*
X209651492Y-112147167D01*
X209449384Y-111945059D01*
X209290589Y-111707406D01*
X209181210Y-111443342D01*
X209125450Y-111163013D01*
X209125450Y-110877189D01*
X209181210Y-110596860D01*
X209290589Y-110332796D01*
X209449384Y-110095143D01*
X209651492Y-109893035D01*
X209889145Y-109734240D01*
X210153209Y-109624861D01*
X210433538Y-109569101D01*
X210719362Y-109569101D01*
X210999691Y-109624861D01*
X210999691Y-109624861D01*
G37*
G36*
X56663880Y-109006168D02*
G01*
X56927944Y-109115547D01*
X57165597Y-109274342D01*
X57367705Y-109476450D01*
X57526500Y-109714103D01*
X57635879Y-109978167D01*
X57691639Y-110258496D01*
X57691639Y-110544320D01*
X57635879Y-110824649D01*
X57526500Y-111088713D01*
X57367705Y-111326366D01*
X57165597Y-111528474D01*
X56927944Y-111687269D01*
X56663880Y-111796648D01*
X56383551Y-111852408D01*
X56097727Y-111852408D01*
X55817398Y-111796648D01*
X55553334Y-111687269D01*
X55315681Y-111528474D01*
X55113573Y-111326366D01*
X54954778Y-111088713D01*
X54845399Y-110824649D01*
X54789639Y-110544320D01*
X54789639Y-110258496D01*
X54845399Y-109978167D01*
X54954778Y-109714103D01*
X55113573Y-109476450D01*
X55315681Y-109274342D01*
X55553334Y-109115547D01*
X55817398Y-109006168D01*
X56097727Y-108950408D01*
X56383551Y-108950408D01*
X56663880Y-109006168D01*
X56663880Y-109006168D01*
G37*
G36*
X95663880Y-109006168D02*
G01*
X95927944Y-109115547D01*
X96165597Y-109274342D01*
X96367705Y-109476450D01*
X96526500Y-109714103D01*
X96635879Y-109978167D01*
X96691639Y-110258496D01*
X96691639Y-110544320D01*
X96635879Y-110824649D01*
X96526500Y-111088713D01*
X96367705Y-111326366D01*
X96165597Y-111528474D01*
X95927944Y-111687269D01*
X95663880Y-111796648D01*
X95383551Y-111852408D01*
X95097727Y-111852408D01*
X94817398Y-111796648D01*
X94553334Y-111687269D01*
X94315681Y-111528474D01*
X94113573Y-111326366D01*
X93954778Y-111088713D01*
X93845399Y-110824649D01*
X93789639Y-110544320D01*
X93789639Y-110258496D01*
X93845399Y-109978167D01*
X93954778Y-109714103D01*
X94113573Y-109476450D01*
X94315681Y-109274342D01*
X94553334Y-109115547D01*
X94817398Y-109006168D01*
X95097727Y-108950408D01*
X95383551Y-108950408D01*
X95663880Y-109006168D01*
X95663880Y-109006168D01*
G37*
G36*
X173163880Y-109006168D02*
G01*
X173427944Y-109115547D01*
X173665597Y-109274342D01*
X173867705Y-109476450D01*
X174026500Y-109714103D01*
X174135879Y-109978167D01*
X174191639Y-110258496D01*
X174191639Y-110544320D01*
X174135879Y-110824649D01*
X174026500Y-111088713D01*
X173867705Y-111326366D01*
X173665597Y-111528474D01*
X173427944Y-111687269D01*
X173163880Y-111796648D01*
X172883551Y-111852408D01*
X172597727Y-111852408D01*
X172317398Y-111796648D01*
X172053334Y-111687269D01*
X171815681Y-111528474D01*
X171613573Y-111326366D01*
X171454778Y-111088713D01*
X171345399Y-110824649D01*
X171289639Y-110544320D01*
X171289639Y-110258496D01*
X171345399Y-109978167D01*
X171454778Y-109714103D01*
X171613573Y-109476450D01*
X171815681Y-109274342D01*
X172053334Y-109115547D01*
X172317398Y-109006168D01*
X172597727Y-108950408D01*
X172883551Y-108950408D01*
X173163880Y-109006168D01*
X173163880Y-109006168D01*
G37*
G36*
X134663880Y-109006168D02*
G01*
X134927944Y-109115547D01*
X135165597Y-109274342D01*
X135367705Y-109476450D01*
X135526500Y-109714103D01*
X135635879Y-109978167D01*
X135691639Y-110258496D01*
X135691639Y-110544320D01*
X135635879Y-110824649D01*
X135526500Y-111088713D01*
X135367705Y-111326366D01*
X135165597Y-111528474D01*
X134927944Y-111687269D01*
X134663880Y-111796648D01*
X134383551Y-111852408D01*
X134097727Y-111852408D01*
X133817398Y-111796648D01*
X133553334Y-111687269D01*
X133315681Y-111528474D01*
X133113573Y-111326366D01*
X132954778Y-111088713D01*
X132845399Y-110824649D01*
X132789639Y-110544320D01*
X132789639Y-110258496D01*
X132845399Y-109978167D01*
X132954778Y-109714103D01*
X133113573Y-109476450D01*
X133315681Y-109274342D01*
X133553334Y-109115547D01*
X133817398Y-109006168D01*
X134097727Y-108950408D01*
X134383551Y-108950408D01*
X134663880Y-109006168D01*
X134663880Y-109006168D01*
G37*
G36*
X110182602Y-104203352D02*
G01*
X110446666Y-104312731D01*
X110684319Y-104471526D01*
X110886427Y-104673634D01*
X111045222Y-104911287D01*
X111154601Y-105175351D01*
X111210361Y-105455680D01*
X111210361Y-105741504D01*
X111154601Y-106021833D01*
X111045222Y-106285897D01*
X110886427Y-106523550D01*
X110684319Y-106725658D01*
X110446666Y-106884453D01*
X110182602Y-106993832D01*
X109902273Y-107049592D01*
X109616449Y-107049592D01*
X109336120Y-106993832D01*
X109072056Y-106884453D01*
X108834403Y-106725658D01*
X108632295Y-106523550D01*
X108473500Y-106285897D01*
X108364121Y-106021833D01*
X108308361Y-105741504D01*
X108308361Y-105455680D01*
X108364121Y-105175351D01*
X108473500Y-104911287D01*
X108632295Y-104673634D01*
X108834403Y-104471526D01*
X109072056Y-104312731D01*
X109336120Y-104203352D01*
X109616449Y-104147592D01*
X109902273Y-104147592D01*
X110182602Y-104203352D01*
X110182602Y-104203352D01*
G37*
G36*
X71182602Y-104203352D02*
G01*
X71446666Y-104312731D01*
X71684319Y-104471526D01*
X71886427Y-104673634D01*
X72045222Y-104911287D01*
X72154601Y-105175351D01*
X72210361Y-105455680D01*
X72210361Y-105741504D01*
X72154601Y-106021833D01*
X72045222Y-106285897D01*
X71886427Y-106523550D01*
X71684319Y-106725658D01*
X71446666Y-106884453D01*
X71182602Y-106993832D01*
X70902273Y-107049592D01*
X70616449Y-107049592D01*
X70336120Y-106993832D01*
X70072056Y-106884453D01*
X69834403Y-106725658D01*
X69632295Y-106523550D01*
X69473500Y-106285897D01*
X69364121Y-106021833D01*
X69308361Y-105741504D01*
X69308361Y-105455680D01*
X69364121Y-105175351D01*
X69473500Y-104911287D01*
X69632295Y-104673634D01*
X69834403Y-104471526D01*
X70072056Y-104312731D01*
X70336120Y-104203352D01*
X70616449Y-104147592D01*
X70902273Y-104147592D01*
X71182602Y-104203352D01*
X71182602Y-104203352D01*
G37*
G36*
X148682602Y-104203352D02*
G01*
X148946666Y-104312731D01*
X149184319Y-104471526D01*
X149386427Y-104673634D01*
X149545222Y-104911287D01*
X149654601Y-105175351D01*
X149710361Y-105455680D01*
X149710361Y-105741504D01*
X149654601Y-106021833D01*
X149545222Y-106285897D01*
X149386427Y-106523550D01*
X149184319Y-106725658D01*
X148946666Y-106884453D01*
X148682602Y-106993832D01*
X148402273Y-107049592D01*
X148116449Y-107049592D01*
X147836120Y-106993832D01*
X147572056Y-106884453D01*
X147334403Y-106725658D01*
X147132295Y-106523550D01*
X146973500Y-106285897D01*
X146864121Y-106021833D01*
X146808361Y-105741504D01*
X146808361Y-105455680D01*
X146864121Y-105175351D01*
X146973500Y-104911287D01*
X147132295Y-104673634D01*
X147334403Y-104471526D01*
X147572056Y-104312731D01*
X147836120Y-104203352D01*
X148116449Y-104147592D01*
X148402273Y-104147592D01*
X148682602Y-104203352D01*
X148682602Y-104203352D01*
G37*
G36*
X32182602Y-104203352D02*
G01*
X32446666Y-104312731D01*
X32684319Y-104471526D01*
X32886427Y-104673634D01*
X33045222Y-104911287D01*
X33154601Y-105175351D01*
X33210361Y-105455680D01*
X33210361Y-105741504D01*
X33154601Y-106021833D01*
X33045222Y-106285897D01*
X32886427Y-106523550D01*
X32684319Y-106725658D01*
X32446666Y-106884453D01*
X32182602Y-106993832D01*
X31902273Y-107049592D01*
X31616449Y-107049592D01*
X31336120Y-106993832D01*
X31072056Y-106884453D01*
X30834403Y-106725658D01*
X30632295Y-106523550D01*
X30473500Y-106285897D01*
X30364121Y-106021833D01*
X30308361Y-105741504D01*
X30308361Y-105455680D01*
X30364121Y-105175351D01*
X30473500Y-104911287D01*
X30632295Y-104673634D01*
X30834403Y-104471526D01*
X31072056Y-104312731D01*
X31336120Y-104203352D01*
X31616449Y-104147592D01*
X31902273Y-104147592D01*
X32182602Y-104203352D01*
X32182602Y-104203352D01*
G37*
G36*
X134663880Y-87006168D02*
G01*
X134927944Y-87115547D01*
X135165597Y-87274342D01*
X135367705Y-87476450D01*
X135526500Y-87714103D01*
X135635879Y-87978167D01*
X135691639Y-88258496D01*
X135691639Y-88544320D01*
X135635879Y-88824649D01*
X135526500Y-89088713D01*
X135367705Y-89326366D01*
X135165597Y-89528474D01*
X134927944Y-89687269D01*
X134663880Y-89796648D01*
X134383551Y-89852408D01*
X134097727Y-89852408D01*
X133817398Y-89796648D01*
X133553334Y-89687269D01*
X133315681Y-89528474D01*
X133113573Y-89326366D01*
X132954778Y-89088713D01*
X132845399Y-88824649D01*
X132789639Y-88544320D01*
X132789639Y-88258496D01*
X132845399Y-87978167D01*
X132954778Y-87714103D01*
X133113573Y-87476450D01*
X133315681Y-87274342D01*
X133553334Y-87115547D01*
X133817398Y-87006168D01*
X134097727Y-86950408D01*
X134383551Y-86950408D01*
X134663880Y-87006168D01*
X134663880Y-87006168D01*
G37*
G36*
X174163880Y-87006168D02*
G01*
X174427944Y-87115547D01*
X174665597Y-87274342D01*
X174867705Y-87476450D01*
X175026500Y-87714103D01*
X175135879Y-87978167D01*
X175191639Y-88258496D01*
X175191639Y-88544320D01*
X175135879Y-88824649D01*
X175026500Y-89088713D01*
X174867705Y-89326366D01*
X174665597Y-89528474D01*
X174427944Y-89687269D01*
X174163880Y-89796648D01*
X173883551Y-89852408D01*
X173597727Y-89852408D01*
X173317398Y-89796648D01*
X173053334Y-89687269D01*
X172815681Y-89528474D01*
X172613573Y-89326366D01*
X172454778Y-89088713D01*
X172345399Y-88824649D01*
X172289639Y-88544320D01*
X172289639Y-88258496D01*
X172345399Y-87978167D01*
X172454778Y-87714103D01*
X172613573Y-87476450D01*
X172815681Y-87274342D01*
X173053334Y-87115547D01*
X173317398Y-87006168D01*
X173597727Y-86950408D01*
X173883551Y-86950408D01*
X174163880Y-87006168D01*
X174163880Y-87006168D01*
G37*
G36*
X95663880Y-87006168D02*
G01*
X95927944Y-87115547D01*
X96165597Y-87274342D01*
X96367705Y-87476450D01*
X96526500Y-87714103D01*
X96635879Y-87978167D01*
X96691639Y-88258496D01*
X96691639Y-88544320D01*
X96635879Y-88824649D01*
X96526500Y-89088713D01*
X96367705Y-89326366D01*
X96165597Y-89528474D01*
X95927944Y-89687269D01*
X95663880Y-89796648D01*
X95383551Y-89852408D01*
X95097727Y-89852408D01*
X94817398Y-89796648D01*
X94553334Y-89687269D01*
X94315681Y-89528474D01*
X94113573Y-89326366D01*
X93954778Y-89088713D01*
X93845399Y-88824649D01*
X93789639Y-88544320D01*
X93789639Y-88258496D01*
X93845399Y-87978167D01*
X93954778Y-87714103D01*
X94113573Y-87476450D01*
X94315681Y-87274342D01*
X94553334Y-87115547D01*
X94817398Y-87006168D01*
X95097727Y-86950408D01*
X95383551Y-86950408D01*
X95663880Y-87006168D01*
X95663880Y-87006168D01*
G37*
G36*
X56663880Y-87006168D02*
G01*
X56927944Y-87115547D01*
X57165597Y-87274342D01*
X57367705Y-87476450D01*
X57526500Y-87714103D01*
X57635879Y-87978167D01*
X57691639Y-88258496D01*
X57691639Y-88544320D01*
X57635879Y-88824649D01*
X57526500Y-89088713D01*
X57367705Y-89326366D01*
X57165597Y-89528474D01*
X56927944Y-89687269D01*
X56663880Y-89796648D01*
X56383551Y-89852408D01*
X56097727Y-89852408D01*
X55817398Y-89796648D01*
X55553334Y-89687269D01*
X55315681Y-89528474D01*
X55113573Y-89326366D01*
X54954778Y-89088713D01*
X54845399Y-88824649D01*
X54789639Y-88544320D01*
X54789639Y-88258496D01*
X54845399Y-87978167D01*
X54954778Y-87714103D01*
X55113573Y-87476450D01*
X55315681Y-87274342D01*
X55553334Y-87115547D01*
X55817398Y-87006168D01*
X56097727Y-86950408D01*
X56383551Y-86950408D01*
X56663880Y-87006168D01*
X56663880Y-87006168D01*
G37*
G36*
X71182602Y-82203352D02*
G01*
X71446666Y-82312731D01*
X71684319Y-82471526D01*
X71886427Y-82673634D01*
X72045222Y-82911287D01*
X72154601Y-83175351D01*
X72210361Y-83455680D01*
X72210361Y-83741504D01*
X72154601Y-84021833D01*
X72045222Y-84285897D01*
X71886427Y-84523550D01*
X71684319Y-84725658D01*
X71446666Y-84884453D01*
X71182602Y-84993832D01*
X70902273Y-85049592D01*
X70616449Y-85049592D01*
X70336120Y-84993832D01*
X70072056Y-84884453D01*
X69834403Y-84725658D01*
X69632295Y-84523550D01*
X69473500Y-84285897D01*
X69364121Y-84021833D01*
X69308361Y-83741504D01*
X69308361Y-83455680D01*
X69364121Y-83175351D01*
X69473500Y-82911287D01*
X69632295Y-82673634D01*
X69834403Y-82471526D01*
X70072056Y-82312731D01*
X70336120Y-82203352D01*
X70616449Y-82147592D01*
X70902273Y-82147592D01*
X71182602Y-82203352D01*
X71182602Y-82203352D01*
G37*
G36*
X32182602Y-82203352D02*
G01*
X32446666Y-82312731D01*
X32684319Y-82471526D01*
X32886427Y-82673634D01*
X33045222Y-82911287D01*
X33154601Y-83175351D01*
X33210361Y-83455680D01*
X33210361Y-83741504D01*
X33154601Y-84021833D01*
X33045222Y-84285897D01*
X32886427Y-84523550D01*
X32684319Y-84725658D01*
X32446666Y-84884453D01*
X32182602Y-84993832D01*
X31902273Y-85049592D01*
X31616449Y-85049592D01*
X31336120Y-84993832D01*
X31072056Y-84884453D01*
X30834403Y-84725658D01*
X30632295Y-84523550D01*
X30473500Y-84285897D01*
X30364121Y-84021833D01*
X30308361Y-83741504D01*
X30308361Y-83455680D01*
X30364121Y-83175351D01*
X30473500Y-82911287D01*
X30632295Y-82673634D01*
X30834403Y-82471526D01*
X31072056Y-82312731D01*
X31336120Y-82203352D01*
X31616449Y-82147592D01*
X31902273Y-82147592D01*
X32182602Y-82203352D01*
X32182602Y-82203352D01*
G37*
G36*
X110182602Y-82203352D02*
G01*
X110446666Y-82312731D01*
X110684319Y-82471526D01*
X110886427Y-82673634D01*
X111045222Y-82911287D01*
X111154601Y-83175351D01*
X111210361Y-83455680D01*
X111210361Y-83741504D01*
X111154601Y-84021833D01*
X111045222Y-84285897D01*
X110886427Y-84523550D01*
X110684319Y-84725658D01*
X110446666Y-84884453D01*
X110182602Y-84993832D01*
X109902273Y-85049592D01*
X109616449Y-85049592D01*
X109336120Y-84993832D01*
X109072056Y-84884453D01*
X108834403Y-84725658D01*
X108632295Y-84523550D01*
X108473500Y-84285897D01*
X108364121Y-84021833D01*
X108308361Y-83741504D01*
X108308361Y-83455680D01*
X108364121Y-83175351D01*
X108473500Y-82911287D01*
X108632295Y-82673634D01*
X108834403Y-82471526D01*
X109072056Y-82312731D01*
X109336120Y-82203352D01*
X109616449Y-82147592D01*
X109902273Y-82147592D01*
X110182602Y-82203352D01*
X110182602Y-82203352D01*
G37*
G36*
X149682602Y-82203352D02*
G01*
X149946666Y-82312731D01*
X150184319Y-82471526D01*
X150386427Y-82673634D01*
X150545222Y-82911287D01*
X150654601Y-83175351D01*
X150710361Y-83455680D01*
X150710361Y-83741504D01*
X150654601Y-84021833D01*
X150545222Y-84285897D01*
X150386427Y-84523550D01*
X150184319Y-84725658D01*
X149946666Y-84884453D01*
X149682602Y-84993832D01*
X149402273Y-85049592D01*
X149116449Y-85049592D01*
X148836120Y-84993832D01*
X148572056Y-84884453D01*
X148334403Y-84725658D01*
X148132295Y-84523550D01*
X147973500Y-84285897D01*
X147864121Y-84021833D01*
X147808361Y-83741504D01*
X147808361Y-83455680D01*
X147864121Y-83175351D01*
X147973500Y-82911287D01*
X148132295Y-82673634D01*
X148334403Y-82471526D01*
X148572056Y-82312731D01*
X148836120Y-82203352D01*
X149116449Y-82147592D01*
X149402273Y-82147592D01*
X149682602Y-82203352D01*
X149682602Y-82203352D01*
G37*
G36*
X183846791Y-80584659D02*
G01*
X184110855Y-80694038D01*
X184348508Y-80852833D01*
X184550616Y-81054941D01*
X184709411Y-81292594D01*
X184818790Y-81556658D01*
X184874550Y-81836987D01*
X184874550Y-82122811D01*
X184818790Y-82403140D01*
X184709411Y-82667204D01*
X184550616Y-82904857D01*
X184348508Y-83106965D01*
X184110855Y-83265760D01*
X183846791Y-83375139D01*
X183566462Y-83430899D01*
X183280638Y-83430899D01*
X183000309Y-83375139D01*
X182736245Y-83265760D01*
X182498592Y-83106965D01*
X182296484Y-82904857D01*
X182137689Y-82667204D01*
X182028310Y-82403140D01*
X181972550Y-82122811D01*
X181972550Y-81836987D01*
X182028310Y-81556658D01*
X182137689Y-81292594D01*
X182296484Y-81054941D01*
X182498592Y-80852833D01*
X182736245Y-80694038D01*
X183000309Y-80584659D01*
X183280638Y-80528899D01*
X183566462Y-80528899D01*
X183846791Y-80584659D01*
X183846791Y-80584659D01*
G37*
G36*
X210999691Y-76624861D02*
G01*
X211263755Y-76734240D01*
X211501408Y-76893035D01*
X211703516Y-77095143D01*
X211862311Y-77332796D01*
X211971690Y-77596860D01*
X212027450Y-77877189D01*
X212027450Y-78163013D01*
X211971690Y-78443342D01*
X211862311Y-78707406D01*
X211703516Y-78945059D01*
X211501408Y-79147167D01*
X211263755Y-79305962D01*
X210999691Y-79415341D01*
X210719362Y-79471101D01*
X210433538Y-79471101D01*
X210153209Y-79415341D01*
X209889145Y-79305962D01*
X209651492Y-79147167D01*
X209449384Y-78945059D01*
X209290589Y-78707406D01*
X209181210Y-78443342D01*
X209125450Y-78163013D01*
X209125450Y-77877189D01*
X209181210Y-77596860D01*
X209290589Y-77332796D01*
X209449384Y-77095143D01*
X209651492Y-76893035D01*
X209889145Y-76734240D01*
X210153209Y-76624861D01*
X210433538Y-76569101D01*
X210719362Y-76569101D01*
X210999691Y-76624861D01*
X210999691Y-76624861D01*
G37*
G36*
X95663880Y-65006168D02*
G01*
X95927944Y-65115547D01*
X96165597Y-65274342D01*
X96367705Y-65476450D01*
X96526500Y-65714103D01*
X96635879Y-65978167D01*
X96691639Y-66258496D01*
X96691639Y-66544320D01*
X96635879Y-66824649D01*
X96526500Y-67088713D01*
X96367705Y-67326366D01*
X96165597Y-67528474D01*
X95927944Y-67687269D01*
X95663880Y-67796648D01*
X95383551Y-67852408D01*
X95097727Y-67852408D01*
X94817398Y-67796648D01*
X94553334Y-67687269D01*
X94315681Y-67528474D01*
X94113573Y-67326366D01*
X93954778Y-67088713D01*
X93845399Y-66824649D01*
X93789639Y-66544320D01*
X93789639Y-66258496D01*
X93845399Y-65978167D01*
X93954778Y-65714103D01*
X94113573Y-65476450D01*
X94315681Y-65274342D01*
X94553334Y-65115547D01*
X94817398Y-65006168D01*
X95097727Y-64950408D01*
X95383551Y-64950408D01*
X95663880Y-65006168D01*
X95663880Y-65006168D01*
G37*
G36*
X56663880Y-65006168D02*
G01*
X56927944Y-65115547D01*
X57165597Y-65274342D01*
X57367705Y-65476450D01*
X57526500Y-65714103D01*
X57635879Y-65978167D01*
X57691639Y-66258496D01*
X57691639Y-66544320D01*
X57635879Y-66824649D01*
X57526500Y-67088713D01*
X57367705Y-67326366D01*
X57165597Y-67528474D01*
X56927944Y-67687269D01*
X56663880Y-67796648D01*
X56383551Y-67852408D01*
X56097727Y-67852408D01*
X55817398Y-67796648D01*
X55553334Y-67687269D01*
X55315681Y-67528474D01*
X55113573Y-67326366D01*
X54954778Y-67088713D01*
X54845399Y-66824649D01*
X54789639Y-66544320D01*
X54789639Y-66258496D01*
X54845399Y-65978167D01*
X54954778Y-65714103D01*
X55113573Y-65476450D01*
X55315681Y-65274342D01*
X55553334Y-65115547D01*
X55817398Y-65006168D01*
X56097727Y-64950408D01*
X56383551Y-64950408D01*
X56663880Y-65006168D01*
X56663880Y-65006168D01*
G37*
G36*
X134663880Y-65006168D02*
G01*
X134927944Y-65115547D01*
X135165597Y-65274342D01*
X135367705Y-65476450D01*
X135526500Y-65714103D01*
X135635879Y-65978167D01*
X135691639Y-66258496D01*
X135691639Y-66544320D01*
X135635879Y-66824649D01*
X135526500Y-67088713D01*
X135367705Y-67326366D01*
X135165597Y-67528474D01*
X134927944Y-67687269D01*
X134663880Y-67796648D01*
X134383551Y-67852408D01*
X134097727Y-67852408D01*
X133817398Y-67796648D01*
X133553334Y-67687269D01*
X133315681Y-67528474D01*
X133113573Y-67326366D01*
X132954778Y-67088713D01*
X132845399Y-66824649D01*
X132789639Y-66544320D01*
X132789639Y-66258496D01*
X132845399Y-65978167D01*
X132954778Y-65714103D01*
X133113573Y-65476450D01*
X133315681Y-65274342D01*
X133553334Y-65115547D01*
X133817398Y-65006168D01*
X134097727Y-64950408D01*
X134383551Y-64950408D01*
X134663880Y-65006168D01*
X134663880Y-65006168D01*
G37*
G36*
X173663880Y-65006168D02*
G01*
X173927944Y-65115547D01*
X174165597Y-65274342D01*
X174367705Y-65476450D01*
X174526500Y-65714103D01*
X174635879Y-65978167D01*
X174691639Y-66258496D01*
X174691639Y-66544320D01*
X174635879Y-66824649D01*
X174526500Y-67088713D01*
X174367705Y-67326366D01*
X174165597Y-67528474D01*
X173927944Y-67687269D01*
X173663880Y-67796648D01*
X173383551Y-67852408D01*
X173097727Y-67852408D01*
X172817398Y-67796648D01*
X172553334Y-67687269D01*
X172315681Y-67528474D01*
X172113573Y-67326366D01*
X171954778Y-67088713D01*
X171845399Y-66824649D01*
X171789639Y-66544320D01*
X171789639Y-66258496D01*
X171845399Y-65978167D01*
X171954778Y-65714103D01*
X172113573Y-65476450D01*
X172315681Y-65274342D01*
X172553334Y-65115547D01*
X172817398Y-65006168D01*
X173097727Y-64950408D01*
X173383551Y-64950408D01*
X173663880Y-65006168D01*
X173663880Y-65006168D01*
G37*
G36*
X149182602Y-60203352D02*
G01*
X149446666Y-60312731D01*
X149684319Y-60471526D01*
X149886427Y-60673634D01*
X150045222Y-60911287D01*
X150154601Y-61175351D01*
X150210361Y-61455680D01*
X150210361Y-61741504D01*
X150154601Y-62021833D01*
X150045222Y-62285897D01*
X149886427Y-62523550D01*
X149684319Y-62725658D01*
X149446666Y-62884453D01*
X149182602Y-62993832D01*
X148902273Y-63049592D01*
X148616449Y-63049592D01*
X148336120Y-62993832D01*
X148072056Y-62884453D01*
X147834403Y-62725658D01*
X147632295Y-62523550D01*
X147473500Y-62285897D01*
X147364121Y-62021833D01*
X147308361Y-61741504D01*
X147308361Y-61455680D01*
X147364121Y-61175351D01*
X147473500Y-60911287D01*
X147632295Y-60673634D01*
X147834403Y-60471526D01*
X148072056Y-60312731D01*
X148336120Y-60203352D01*
X148616449Y-60147592D01*
X148902273Y-60147592D01*
X149182602Y-60203352D01*
X149182602Y-60203352D01*
G37*
G36*
X32182602Y-60203352D02*
G01*
X32446666Y-60312731D01*
X32684319Y-60471526D01*
X32886427Y-60673634D01*
X33045222Y-60911287D01*
X33154601Y-61175351D01*
X33210361Y-61455680D01*
X33210361Y-61741504D01*
X33154601Y-62021833D01*
X33045222Y-62285897D01*
X32886427Y-62523550D01*
X32684319Y-62725658D01*
X32446666Y-62884453D01*
X32182602Y-62993832D01*
X31902273Y-63049592D01*
X31616449Y-63049592D01*
X31336120Y-62993832D01*
X31072056Y-62884453D01*
X30834403Y-62725658D01*
X30632295Y-62523550D01*
X30473500Y-62285897D01*
X30364121Y-62021833D01*
X30308361Y-61741504D01*
X30308361Y-61455680D01*
X30364121Y-61175351D01*
X30473500Y-60911287D01*
X30632295Y-60673634D01*
X30834403Y-60471526D01*
X31072056Y-60312731D01*
X31336120Y-60203352D01*
X31616449Y-60147592D01*
X31902273Y-60147592D01*
X32182602Y-60203352D01*
X32182602Y-60203352D01*
G37*
G36*
X110182602Y-60203352D02*
G01*
X110446666Y-60312731D01*
X110684319Y-60471526D01*
X110886427Y-60673634D01*
X111045222Y-60911287D01*
X111154601Y-61175351D01*
X111210361Y-61455680D01*
X111210361Y-61741504D01*
X111154601Y-62021833D01*
X111045222Y-62285897D01*
X110886427Y-62523550D01*
X110684319Y-62725658D01*
X110446666Y-62884453D01*
X110182602Y-62993832D01*
X109902273Y-63049592D01*
X109616449Y-63049592D01*
X109336120Y-62993832D01*
X109072056Y-62884453D01*
X108834403Y-62725658D01*
X108632295Y-62523550D01*
X108473500Y-62285897D01*
X108364121Y-62021833D01*
X108308361Y-61741504D01*
X108308361Y-61455680D01*
X108364121Y-61175351D01*
X108473500Y-60911287D01*
X108632295Y-60673634D01*
X108834403Y-60471526D01*
X109072056Y-60312731D01*
X109336120Y-60203352D01*
X109616449Y-60147592D01*
X109902273Y-60147592D01*
X110182602Y-60203352D01*
X110182602Y-60203352D01*
G37*
G36*
X71182602Y-60203352D02*
G01*
X71446666Y-60312731D01*
X71684319Y-60471526D01*
X71886427Y-60673634D01*
X72045222Y-60911287D01*
X72154601Y-61175351D01*
X72210361Y-61455680D01*
X72210361Y-61741504D01*
X72154601Y-62021833D01*
X72045222Y-62285897D01*
X71886427Y-62523550D01*
X71684319Y-62725658D01*
X71446666Y-62884453D01*
X71182602Y-62993832D01*
X70902273Y-63049592D01*
X70616449Y-63049592D01*
X70336120Y-62993832D01*
X70072056Y-62884453D01*
X69834403Y-62725658D01*
X69632295Y-62523550D01*
X69473500Y-62285897D01*
X69364121Y-62021833D01*
X69308361Y-61741504D01*
X69308361Y-61455680D01*
X69364121Y-61175351D01*
X69473500Y-60911287D01*
X69632295Y-60673634D01*
X69834403Y-60471526D01*
X70072056Y-60312731D01*
X70336120Y-60203352D01*
X70616449Y-60147592D01*
X70902273Y-60147592D01*
X71182602Y-60203352D01*
X71182602Y-60203352D01*
G37*
G36*
X181846791Y-50584659D02*
G01*
X182110855Y-50694038D01*
X182348508Y-50852833D01*
X182550616Y-51054941D01*
X182709411Y-51292594D01*
X182818790Y-51556658D01*
X182874550Y-51836987D01*
X182874550Y-52122811D01*
X182818790Y-52403140D01*
X182709411Y-52667204D01*
X182550616Y-52904857D01*
X182348508Y-53106965D01*
X182110855Y-53265760D01*
X181846791Y-53375139D01*
X181566462Y-53430899D01*
X181280638Y-53430899D01*
X181000309Y-53375139D01*
X180736245Y-53265760D01*
X180498592Y-53106965D01*
X180296484Y-52904857D01*
X180137689Y-52667204D01*
X180028310Y-52403140D01*
X179972550Y-52122811D01*
X179972550Y-51836987D01*
X180028310Y-51556658D01*
X180137689Y-51292594D01*
X180296484Y-51054941D01*
X180498592Y-50852833D01*
X180736245Y-50694038D01*
X181000309Y-50584659D01*
X181280638Y-50528899D01*
X181566462Y-50528899D01*
X181846791Y-50584659D01*
X181846791Y-50584659D01*
G37*
G36*
X31051000Y-52851000D02*
G01*
X20949000Y-52851000D01*
X20949000Y-47749000D01*
X31051000Y-47749000D01*
X31051000Y-52851000D01*
X31051000Y-52851000D01*
G37*
G36*
X160879487Y-47748996D02*
G01*
X161116253Y-47847068D01*
X161116255Y-47847069D01*
X161329339Y-47989447D01*
X161510553Y-48170661D01*
X161570038Y-48259686D01*
X161652932Y-48383747D01*
X161751004Y-48620513D01*
X161801000Y-48871861D01*
X161801000Y-49128139D01*
X161751004Y-49379487D01*
X161713056Y-49471101D01*
X161652931Y-49616255D01*
X161510553Y-49829339D01*
X161329339Y-50010553D01*
X161116255Y-50152931D01*
X161116254Y-50152932D01*
X161116253Y-50152932D01*
X160879487Y-50251004D01*
X160628139Y-50301000D01*
X160371861Y-50301000D01*
X160120513Y-50251004D01*
X159883747Y-50152932D01*
X159883746Y-50152932D01*
X159883745Y-50152931D01*
X159670661Y-50010553D01*
X159489447Y-49829339D01*
X159347069Y-49616255D01*
X159286944Y-49471101D01*
X159248996Y-49379487D01*
X159199000Y-49128139D01*
X159199000Y-48871861D01*
X159248996Y-48620513D01*
X159347068Y-48383747D01*
X159429963Y-48259686D01*
X159489447Y-48170661D01*
X159670661Y-47989447D01*
X159883745Y-47847069D01*
X159883747Y-47847068D01*
X160120513Y-47748996D01*
X160371861Y-47699000D01*
X160628139Y-47699000D01*
X160879487Y-47748996D01*
X160879487Y-47748996D01*
G37*
G36*
X114379487Y-47748996D02*
G01*
X114616253Y-47847068D01*
X114616255Y-47847069D01*
X114829339Y-47989447D01*
X115010553Y-48170661D01*
X115070038Y-48259686D01*
X115152932Y-48383747D01*
X115251004Y-48620513D01*
X115301000Y-48871861D01*
X115301000Y-49128139D01*
X115251004Y-49379487D01*
X115213056Y-49471101D01*
X115152931Y-49616255D01*
X115010553Y-49829339D01*
X114829339Y-50010553D01*
X114616255Y-50152931D01*
X114616254Y-50152932D01*
X114616253Y-50152932D01*
X114379487Y-50251004D01*
X114128139Y-50301000D01*
X113871861Y-50301000D01*
X113620513Y-50251004D01*
X113383747Y-50152932D01*
X113383746Y-50152932D01*
X113383745Y-50152931D01*
X113170661Y-50010553D01*
X112989447Y-49829339D01*
X112847069Y-49616255D01*
X112786944Y-49471101D01*
X112748996Y-49379487D01*
X112699000Y-49128139D01*
X112699000Y-48871861D01*
X112748996Y-48620513D01*
X112847068Y-48383747D01*
X112929963Y-48259686D01*
X112989447Y-48170661D01*
X113170661Y-47989447D01*
X113383745Y-47847069D01*
X113383747Y-47847068D01*
X113620513Y-47748996D01*
X113871861Y-47699000D01*
X114128139Y-47699000D01*
X114379487Y-47748996D01*
X114379487Y-47748996D01*
G37*
G36*
X121879487Y-47748996D02*
G01*
X122116253Y-47847068D01*
X122116255Y-47847069D01*
X122329339Y-47989447D01*
X122510553Y-48170661D01*
X122570038Y-48259686D01*
X122652932Y-48383747D01*
X122751004Y-48620513D01*
X122801000Y-48871861D01*
X122801000Y-49128139D01*
X122751004Y-49379487D01*
X122713056Y-49471101D01*
X122652931Y-49616255D01*
X122510553Y-49829339D01*
X122329339Y-50010553D01*
X122116255Y-50152931D01*
X122116254Y-50152932D01*
X122116253Y-50152932D01*
X121879487Y-50251004D01*
X121628139Y-50301000D01*
X121371861Y-50301000D01*
X121120513Y-50251004D01*
X120883747Y-50152932D01*
X120883746Y-50152932D01*
X120883745Y-50152931D01*
X120670661Y-50010553D01*
X120489447Y-49829339D01*
X120347069Y-49616255D01*
X120286944Y-49471101D01*
X120248996Y-49379487D01*
X120199000Y-49128139D01*
X120199000Y-48871861D01*
X120248996Y-48620513D01*
X120347068Y-48383747D01*
X120429963Y-48259686D01*
X120489447Y-48170661D01*
X120670661Y-47989447D01*
X120883745Y-47847069D01*
X120883747Y-47847068D01*
X121120513Y-47748996D01*
X121371861Y-47699000D01*
X121628139Y-47699000D01*
X121879487Y-47748996D01*
X121879487Y-47748996D01*
G37*
G36*
X75379487Y-47748996D02*
G01*
X75616253Y-47847068D01*
X75616255Y-47847069D01*
X75829339Y-47989447D01*
X76010553Y-48170661D01*
X76070038Y-48259686D01*
X76152932Y-48383747D01*
X76251004Y-48620513D01*
X76301000Y-48871861D01*
X76301000Y-49128139D01*
X76251004Y-49379487D01*
X76213056Y-49471101D01*
X76152931Y-49616255D01*
X76010553Y-49829339D01*
X75829339Y-50010553D01*
X75616255Y-50152931D01*
X75616254Y-50152932D01*
X75616253Y-50152932D01*
X75379487Y-50251004D01*
X75128139Y-50301000D01*
X74871861Y-50301000D01*
X74620513Y-50251004D01*
X74383747Y-50152932D01*
X74383746Y-50152932D01*
X74383745Y-50152931D01*
X74170661Y-50010553D01*
X73989447Y-49829339D01*
X73847069Y-49616255D01*
X73786944Y-49471101D01*
X73748996Y-49379487D01*
X73699000Y-49128139D01*
X73699000Y-48871861D01*
X73748996Y-48620513D01*
X73847068Y-48383747D01*
X73929963Y-48259686D01*
X73989447Y-48170661D01*
X74170661Y-47989447D01*
X74383745Y-47847069D01*
X74383747Y-47847068D01*
X74620513Y-47748996D01*
X74871861Y-47699000D01*
X75128139Y-47699000D01*
X75379487Y-47748996D01*
X75379487Y-47748996D01*
G37*
G36*
X82879487Y-47748996D02*
G01*
X83116253Y-47847068D01*
X83116255Y-47847069D01*
X83329339Y-47989447D01*
X83510553Y-48170661D01*
X83570038Y-48259686D01*
X83652932Y-48383747D01*
X83751004Y-48620513D01*
X83801000Y-48871861D01*
X83801000Y-49128139D01*
X83751004Y-49379487D01*
X83713056Y-49471101D01*
X83652931Y-49616255D01*
X83510553Y-49829339D01*
X83329339Y-50010553D01*
X83116255Y-50152931D01*
X83116254Y-50152932D01*
X83116253Y-50152932D01*
X82879487Y-50251004D01*
X82628139Y-50301000D01*
X82371861Y-50301000D01*
X82120513Y-50251004D01*
X81883747Y-50152932D01*
X81883746Y-50152932D01*
X81883745Y-50152931D01*
X81670661Y-50010553D01*
X81489447Y-49829339D01*
X81347069Y-49616255D01*
X81286944Y-49471101D01*
X81248996Y-49379487D01*
X81199000Y-49128139D01*
X81199000Y-48871861D01*
X81248996Y-48620513D01*
X81347068Y-48383747D01*
X81429963Y-48259686D01*
X81489447Y-48170661D01*
X81670661Y-47989447D01*
X81883745Y-47847069D01*
X81883747Y-47847068D01*
X82120513Y-47748996D01*
X82371861Y-47699000D01*
X82628139Y-47699000D01*
X82879487Y-47748996D01*
X82879487Y-47748996D01*
G37*
G36*
X153379487Y-47748996D02*
G01*
X153616253Y-47847068D01*
X153616255Y-47847069D01*
X153829339Y-47989447D01*
X154010553Y-48170661D01*
X154070038Y-48259686D01*
X154152932Y-48383747D01*
X154251004Y-48620513D01*
X154301000Y-48871861D01*
X154301000Y-49128139D01*
X154251004Y-49379487D01*
X154213056Y-49471101D01*
X154152931Y-49616255D01*
X154010553Y-49829339D01*
X153829339Y-50010553D01*
X153616255Y-50152931D01*
X153616254Y-50152932D01*
X153616253Y-50152932D01*
X153379487Y-50251004D01*
X153128139Y-50301000D01*
X152871861Y-50301000D01*
X152620513Y-50251004D01*
X152383747Y-50152932D01*
X152383746Y-50152932D01*
X152383745Y-50152931D01*
X152170661Y-50010553D01*
X151989447Y-49829339D01*
X151847069Y-49616255D01*
X151786944Y-49471101D01*
X151748996Y-49379487D01*
X151699000Y-49128139D01*
X151699000Y-48871861D01*
X151748996Y-48620513D01*
X151847068Y-48383747D01*
X151929963Y-48259686D01*
X151989447Y-48170661D01*
X152170661Y-47989447D01*
X152383745Y-47847069D01*
X152383747Y-47847068D01*
X152620513Y-47748996D01*
X152871861Y-47699000D01*
X153128139Y-47699000D01*
X153379487Y-47748996D01*
X153379487Y-47748996D01*
G37*
G36*
X36379487Y-47748996D02*
G01*
X36616253Y-47847068D01*
X36616255Y-47847069D01*
X36829339Y-47989447D01*
X37010553Y-48170661D01*
X37070038Y-48259686D01*
X37152932Y-48383747D01*
X37251004Y-48620513D01*
X37301000Y-48871861D01*
X37301000Y-49128139D01*
X37251004Y-49379487D01*
X37213056Y-49471101D01*
X37152931Y-49616255D01*
X37010553Y-49829339D01*
X36829339Y-50010553D01*
X36616255Y-50152931D01*
X36616254Y-50152932D01*
X36616253Y-50152932D01*
X36379487Y-50251004D01*
X36128139Y-50301000D01*
X35871861Y-50301000D01*
X35620513Y-50251004D01*
X35383747Y-50152932D01*
X35383746Y-50152932D01*
X35383745Y-50152931D01*
X35170661Y-50010553D01*
X34989447Y-49829339D01*
X34847069Y-49616255D01*
X34786944Y-49471101D01*
X34748996Y-49379487D01*
X34699000Y-49128139D01*
X34699000Y-48871861D01*
X34748996Y-48620513D01*
X34847068Y-48383747D01*
X34929963Y-48259686D01*
X34989447Y-48170661D01*
X35170661Y-47989447D01*
X35383745Y-47847069D01*
X35383747Y-47847068D01*
X35620513Y-47748996D01*
X35871861Y-47699000D01*
X36128139Y-47699000D01*
X36379487Y-47748996D01*
X36379487Y-47748996D01*
G37*
G36*
X43879487Y-47748996D02*
G01*
X44116253Y-47847068D01*
X44116255Y-47847069D01*
X44329339Y-47989447D01*
X44510553Y-48170661D01*
X44570038Y-48259686D01*
X44652932Y-48383747D01*
X44751004Y-48620513D01*
X44801000Y-48871861D01*
X44801000Y-49128139D01*
X44751004Y-49379487D01*
X44713056Y-49471101D01*
X44652931Y-49616255D01*
X44510553Y-49829339D01*
X44329339Y-50010553D01*
X44116255Y-50152931D01*
X44116254Y-50152932D01*
X44116253Y-50152932D01*
X43879487Y-50251004D01*
X43628139Y-50301000D01*
X43371861Y-50301000D01*
X43120513Y-50251004D01*
X42883747Y-50152932D01*
X42883746Y-50152932D01*
X42883745Y-50152931D01*
X42670661Y-50010553D01*
X42489447Y-49829339D01*
X42347069Y-49616255D01*
X42286944Y-49471101D01*
X42248996Y-49379487D01*
X42199000Y-49128139D01*
X42199000Y-48871861D01*
X42248996Y-48620513D01*
X42347068Y-48383747D01*
X42429963Y-48259686D01*
X42489447Y-48170661D01*
X42670661Y-47989447D01*
X42883745Y-47847069D01*
X42883747Y-47847068D01*
X43120513Y-47748996D01*
X43371861Y-47699000D01*
X43628139Y-47699000D01*
X43879487Y-47748996D01*
X43879487Y-47748996D01*
G37*
G36*
X208999691Y-46624861D02*
G01*
X209263755Y-46734240D01*
X209501408Y-46893035D01*
X209703516Y-47095143D01*
X209862311Y-47332796D01*
X209971690Y-47596860D01*
X210027450Y-47877189D01*
X210027450Y-48163013D01*
X209971690Y-48443342D01*
X209862311Y-48707406D01*
X209703516Y-48945059D01*
X209501408Y-49147167D01*
X209263755Y-49305962D01*
X208999691Y-49415341D01*
X208719362Y-49471101D01*
X208433538Y-49471101D01*
X208153209Y-49415341D01*
X207889145Y-49305962D01*
X207651492Y-49147167D01*
X207449384Y-48945059D01*
X207290589Y-48707406D01*
X207181210Y-48443342D01*
X207125450Y-48163013D01*
X207125450Y-47877189D01*
X207181210Y-47596860D01*
X207290589Y-47332796D01*
X207449384Y-47095143D01*
X207651492Y-46893035D01*
X207889145Y-46734240D01*
X208153209Y-46624861D01*
X208433538Y-46569101D01*
X208719362Y-46569101D01*
X208999691Y-46624861D01*
X208999691Y-46624861D01*
G37*
G36*
X31051000Y-46051000D02*
G01*
X22949000Y-46051000D01*
X22949000Y-41949000D01*
X31051000Y-41949000D01*
X31051000Y-46051000D01*
X31051000Y-46051000D01*
G37*
G36*
X160879487Y-42748996D02*
G01*
X161116253Y-42847068D01*
X161116255Y-42847069D01*
X161329339Y-42989447D01*
X161510553Y-43170661D01*
X161652932Y-43383747D01*
X161751004Y-43620513D01*
X161801000Y-43871861D01*
X161801000Y-44128139D01*
X161751004Y-44379487D01*
X161652932Y-44616253D01*
X161652931Y-44616255D01*
X161510553Y-44829339D01*
X161329339Y-45010553D01*
X161116255Y-45152931D01*
X161116254Y-45152932D01*
X161116253Y-45152932D01*
X160879487Y-45251004D01*
X160628139Y-45301000D01*
X160371861Y-45301000D01*
X160120513Y-45251004D01*
X159883747Y-45152932D01*
X159883746Y-45152932D01*
X159883745Y-45152931D01*
X159670661Y-45010553D01*
X159489447Y-44829339D01*
X159347069Y-44616255D01*
X159347068Y-44616253D01*
X159248996Y-44379487D01*
X159199000Y-44128139D01*
X159199000Y-43871861D01*
X159248996Y-43620513D01*
X159347068Y-43383747D01*
X159489447Y-43170661D01*
X159670661Y-42989447D01*
X159883745Y-42847069D01*
X159883747Y-42847068D01*
X160120513Y-42748996D01*
X160371861Y-42699000D01*
X160628139Y-42699000D01*
X160879487Y-42748996D01*
X160879487Y-42748996D01*
G37*
G36*
X43879487Y-42748996D02*
G01*
X44116253Y-42847068D01*
X44116255Y-42847069D01*
X44329339Y-42989447D01*
X44510553Y-43170661D01*
X44652932Y-43383747D01*
X44751004Y-43620513D01*
X44801000Y-43871861D01*
X44801000Y-44128139D01*
X44751004Y-44379487D01*
X44652932Y-44616253D01*
X44652931Y-44616255D01*
X44510553Y-44829339D01*
X44329339Y-45010553D01*
X44116255Y-45152931D01*
X44116254Y-45152932D01*
X44116253Y-45152932D01*
X43879487Y-45251004D01*
X43628139Y-45301000D01*
X43371861Y-45301000D01*
X43120513Y-45251004D01*
X42883747Y-45152932D01*
X42883746Y-45152932D01*
X42883745Y-45152931D01*
X42670661Y-45010553D01*
X42489447Y-44829339D01*
X42347069Y-44616255D01*
X42347068Y-44616253D01*
X42248996Y-44379487D01*
X42199000Y-44128139D01*
X42199000Y-43871861D01*
X42248996Y-43620513D01*
X42347068Y-43383747D01*
X42489447Y-43170661D01*
X42670661Y-42989447D01*
X42883745Y-42847069D01*
X42883747Y-42847068D01*
X43120513Y-42748996D01*
X43371861Y-42699000D01*
X43628139Y-42699000D01*
X43879487Y-42748996D01*
X43879487Y-42748996D01*
G37*
G36*
X114379487Y-42748996D02*
G01*
X114616253Y-42847068D01*
X114616255Y-42847069D01*
X114829339Y-42989447D01*
X115010553Y-43170661D01*
X115152932Y-43383747D01*
X115251004Y-43620513D01*
X115301000Y-43871861D01*
X115301000Y-44128139D01*
X115251004Y-44379487D01*
X115152932Y-44616253D01*
X115152931Y-44616255D01*
X115010553Y-44829339D01*
X114829339Y-45010553D01*
X114616255Y-45152931D01*
X114616254Y-45152932D01*
X114616253Y-45152932D01*
X114379487Y-45251004D01*
X114128139Y-45301000D01*
X113871861Y-45301000D01*
X113620513Y-45251004D01*
X113383747Y-45152932D01*
X113383746Y-45152932D01*
X113383745Y-45152931D01*
X113170661Y-45010553D01*
X112989447Y-44829339D01*
X112847069Y-44616255D01*
X112847068Y-44616253D01*
X112748996Y-44379487D01*
X112699000Y-44128139D01*
X112699000Y-43871861D01*
X112748996Y-43620513D01*
X112847068Y-43383747D01*
X112989447Y-43170661D01*
X113170661Y-42989447D01*
X113383745Y-42847069D01*
X113383747Y-42847068D01*
X113620513Y-42748996D01*
X113871861Y-42699000D01*
X114128139Y-42699000D01*
X114379487Y-42748996D01*
X114379487Y-42748996D01*
G37*
G36*
X121879487Y-42748996D02*
G01*
X122116253Y-42847068D01*
X122116255Y-42847069D01*
X122329339Y-42989447D01*
X122510553Y-43170661D01*
X122652932Y-43383747D01*
X122751004Y-43620513D01*
X122801000Y-43871861D01*
X122801000Y-44128139D01*
X122751004Y-44379487D01*
X122652932Y-44616253D01*
X122652931Y-44616255D01*
X122510553Y-44829339D01*
X122329339Y-45010553D01*
X122116255Y-45152931D01*
X122116254Y-45152932D01*
X122116253Y-45152932D01*
X121879487Y-45251004D01*
X121628139Y-45301000D01*
X121371861Y-45301000D01*
X121120513Y-45251004D01*
X120883747Y-45152932D01*
X120883746Y-45152932D01*
X120883745Y-45152931D01*
X120670661Y-45010553D01*
X120489447Y-44829339D01*
X120347069Y-44616255D01*
X120347068Y-44616253D01*
X120248996Y-44379487D01*
X120199000Y-44128139D01*
X120199000Y-43871861D01*
X120248996Y-43620513D01*
X120347068Y-43383747D01*
X120489447Y-43170661D01*
X120670661Y-42989447D01*
X120883745Y-42847069D01*
X120883747Y-42847068D01*
X121120513Y-42748996D01*
X121371861Y-42699000D01*
X121628139Y-42699000D01*
X121879487Y-42748996D01*
X121879487Y-42748996D01*
G37*
G36*
X36379487Y-42748996D02*
G01*
X36616253Y-42847068D01*
X36616255Y-42847069D01*
X36829339Y-42989447D01*
X37010553Y-43170661D01*
X37152932Y-43383747D01*
X37251004Y-43620513D01*
X37301000Y-43871861D01*
X37301000Y-44128139D01*
X37251004Y-44379487D01*
X37152932Y-44616253D01*
X37152931Y-44616255D01*
X37010553Y-44829339D01*
X36829339Y-45010553D01*
X36616255Y-45152931D01*
X36616254Y-45152932D01*
X36616253Y-45152932D01*
X36379487Y-45251004D01*
X36128139Y-45301000D01*
X35871861Y-45301000D01*
X35620513Y-45251004D01*
X35383747Y-45152932D01*
X35383746Y-45152932D01*
X35383745Y-45152931D01*
X35170661Y-45010553D01*
X34989447Y-44829339D01*
X34847069Y-44616255D01*
X34847068Y-44616253D01*
X34748996Y-44379487D01*
X34699000Y-44128139D01*
X34699000Y-43871861D01*
X34748996Y-43620513D01*
X34847068Y-43383747D01*
X34989447Y-43170661D01*
X35170661Y-42989447D01*
X35383745Y-42847069D01*
X35383747Y-42847068D01*
X35620513Y-42748996D01*
X35871861Y-42699000D01*
X36128139Y-42699000D01*
X36379487Y-42748996D01*
X36379487Y-42748996D01*
G37*
G36*
X75379487Y-42748996D02*
G01*
X75616253Y-42847068D01*
X75616255Y-42847069D01*
X75829339Y-42989447D01*
X76010553Y-43170661D01*
X76152932Y-43383747D01*
X76251004Y-43620513D01*
X76301000Y-43871861D01*
X76301000Y-44128139D01*
X76251004Y-44379487D01*
X76152932Y-44616253D01*
X76152931Y-44616255D01*
X76010553Y-44829339D01*
X75829339Y-45010553D01*
X75616255Y-45152931D01*
X75616254Y-45152932D01*
X75616253Y-45152932D01*
X75379487Y-45251004D01*
X75128139Y-45301000D01*
X74871861Y-45301000D01*
X74620513Y-45251004D01*
X74383747Y-45152932D01*
X74383746Y-45152932D01*
X74383745Y-45152931D01*
X74170661Y-45010553D01*
X73989447Y-44829339D01*
X73847069Y-44616255D01*
X73847068Y-44616253D01*
X73748996Y-44379487D01*
X73699000Y-44128139D01*
X73699000Y-43871861D01*
X73748996Y-43620513D01*
X73847068Y-43383747D01*
X73989447Y-43170661D01*
X74170661Y-42989447D01*
X74383745Y-42847069D01*
X74383747Y-42847068D01*
X74620513Y-42748996D01*
X74871861Y-42699000D01*
X75128139Y-42699000D01*
X75379487Y-42748996D01*
X75379487Y-42748996D01*
G37*
G36*
X82879487Y-42748996D02*
G01*
X83116253Y-42847068D01*
X83116255Y-42847069D01*
X83329339Y-42989447D01*
X83510553Y-43170661D01*
X83652932Y-43383747D01*
X83751004Y-43620513D01*
X83801000Y-43871861D01*
X83801000Y-44128139D01*
X83751004Y-44379487D01*
X83652932Y-44616253D01*
X83652931Y-44616255D01*
X83510553Y-44829339D01*
X83329339Y-45010553D01*
X83116255Y-45152931D01*
X83116254Y-45152932D01*
X83116253Y-45152932D01*
X82879487Y-45251004D01*
X82628139Y-45301000D01*
X82371861Y-45301000D01*
X82120513Y-45251004D01*
X81883747Y-45152932D01*
X81883746Y-45152932D01*
X81883745Y-45152931D01*
X81670661Y-45010553D01*
X81489447Y-44829339D01*
X81347069Y-44616255D01*
X81347068Y-44616253D01*
X81248996Y-44379487D01*
X81199000Y-44128139D01*
X81199000Y-43871861D01*
X81248996Y-43620513D01*
X81347068Y-43383747D01*
X81489447Y-43170661D01*
X81670661Y-42989447D01*
X81883745Y-42847069D01*
X81883747Y-42847068D01*
X82120513Y-42748996D01*
X82371861Y-42699000D01*
X82628139Y-42699000D01*
X82879487Y-42748996D01*
X82879487Y-42748996D01*
G37*
G36*
X153379487Y-42748996D02*
G01*
X153616253Y-42847068D01*
X153616255Y-42847069D01*
X153829339Y-42989447D01*
X154010553Y-43170661D01*
X154152932Y-43383747D01*
X154251004Y-43620513D01*
X154301000Y-43871861D01*
X154301000Y-44128139D01*
X154251004Y-44379487D01*
X154152932Y-44616253D01*
X154152931Y-44616255D01*
X154010553Y-44829339D01*
X153829339Y-45010553D01*
X153616255Y-45152931D01*
X153616254Y-45152932D01*
X153616253Y-45152932D01*
X153379487Y-45251004D01*
X153128139Y-45301000D01*
X152871861Y-45301000D01*
X152620513Y-45251004D01*
X152383747Y-45152932D01*
X152383746Y-45152932D01*
X152383745Y-45152931D01*
X152170661Y-45010553D01*
X151989447Y-44829339D01*
X151847069Y-44616255D01*
X151847068Y-44616253D01*
X151748996Y-44379487D01*
X151699000Y-44128139D01*
X151699000Y-43871861D01*
X151748996Y-43620513D01*
X151847068Y-43383747D01*
X151989447Y-43170661D01*
X152170661Y-42989447D01*
X152383745Y-42847069D01*
X152383747Y-42847068D01*
X152620513Y-42748996D01*
X152871861Y-42699000D01*
X153128139Y-42699000D01*
X153379487Y-42748996D01*
X153379487Y-42748996D01*
G37*
G36*
X153379487Y-37748996D02*
G01*
X153616253Y-37847068D01*
X153616255Y-37847069D01*
X153829339Y-37989447D01*
X154010553Y-38170661D01*
X154056216Y-38239000D01*
X154152932Y-38383747D01*
X154251004Y-38620513D01*
X154301000Y-38871861D01*
X154301000Y-39128139D01*
X154251004Y-39379487D01*
X154228238Y-39434448D01*
X154152931Y-39616255D01*
X154010553Y-39829339D01*
X153829339Y-40010553D01*
X153616255Y-40152931D01*
X153616254Y-40152932D01*
X153616253Y-40152932D01*
X153379487Y-40251004D01*
X153128139Y-40301000D01*
X152871861Y-40301000D01*
X152620513Y-40251004D01*
X152383747Y-40152932D01*
X152383746Y-40152932D01*
X152383745Y-40152931D01*
X152170661Y-40010553D01*
X151989447Y-39829339D01*
X151847069Y-39616255D01*
X151771762Y-39434448D01*
X151748996Y-39379487D01*
X151699000Y-39128139D01*
X151699000Y-38871861D01*
X151748996Y-38620513D01*
X151847068Y-38383747D01*
X151943785Y-38239000D01*
X151989447Y-38170661D01*
X152170661Y-37989447D01*
X152383745Y-37847069D01*
X152383747Y-37847068D01*
X152620513Y-37748996D01*
X152871861Y-37699000D01*
X153128139Y-37699000D01*
X153379487Y-37748996D01*
X153379487Y-37748996D01*
G37*
G36*
X160879487Y-37748996D02*
G01*
X161116253Y-37847068D01*
X161116255Y-37847069D01*
X161329339Y-37989447D01*
X161510553Y-38170661D01*
X161556216Y-38239000D01*
X161652932Y-38383747D01*
X161751004Y-38620513D01*
X161801000Y-38871861D01*
X161801000Y-39128139D01*
X161751004Y-39379487D01*
X161728238Y-39434448D01*
X161652931Y-39616255D01*
X161510553Y-39829339D01*
X161329339Y-40010553D01*
X161116255Y-40152931D01*
X161116254Y-40152932D01*
X161116253Y-40152932D01*
X160879487Y-40251004D01*
X160628139Y-40301000D01*
X160371861Y-40301000D01*
X160120513Y-40251004D01*
X159883747Y-40152932D01*
X159883746Y-40152932D01*
X159883745Y-40152931D01*
X159670661Y-40010553D01*
X159489447Y-39829339D01*
X159347069Y-39616255D01*
X159271762Y-39434448D01*
X159248996Y-39379487D01*
X159199000Y-39128139D01*
X159199000Y-38871861D01*
X159248996Y-38620513D01*
X159347068Y-38383747D01*
X159443785Y-38239000D01*
X159489447Y-38170661D01*
X159670661Y-37989447D01*
X159883745Y-37847069D01*
X159883747Y-37847068D01*
X160120513Y-37748996D01*
X160371861Y-37699000D01*
X160628139Y-37699000D01*
X160879487Y-37748996D01*
X160879487Y-37748996D01*
G37*
G36*
X121879487Y-37748996D02*
G01*
X122116253Y-37847068D01*
X122116255Y-37847069D01*
X122329339Y-37989447D01*
X122510553Y-38170661D01*
X122556216Y-38239000D01*
X122652932Y-38383747D01*
X122751004Y-38620513D01*
X122801000Y-38871861D01*
X122801000Y-39128139D01*
X122751004Y-39379487D01*
X122728238Y-39434448D01*
X122652931Y-39616255D01*
X122510553Y-39829339D01*
X122329339Y-40010553D01*
X122116255Y-40152931D01*
X122116254Y-40152932D01*
X122116253Y-40152932D01*
X121879487Y-40251004D01*
X121628139Y-40301000D01*
X121371861Y-40301000D01*
X121120513Y-40251004D01*
X120883747Y-40152932D01*
X120883746Y-40152932D01*
X120883745Y-40152931D01*
X120670661Y-40010553D01*
X120489447Y-39829339D01*
X120347069Y-39616255D01*
X120271762Y-39434448D01*
X120248996Y-39379487D01*
X120199000Y-39128139D01*
X120199000Y-38871861D01*
X120248996Y-38620513D01*
X120347068Y-38383747D01*
X120443785Y-38239000D01*
X120489447Y-38170661D01*
X120670661Y-37989447D01*
X120883745Y-37847069D01*
X120883747Y-37847068D01*
X121120513Y-37748996D01*
X121371861Y-37699000D01*
X121628139Y-37699000D01*
X121879487Y-37748996D01*
X121879487Y-37748996D01*
G37*
G36*
X114379487Y-37748996D02*
G01*
X114616253Y-37847068D01*
X114616255Y-37847069D01*
X114829339Y-37989447D01*
X115010553Y-38170661D01*
X115056216Y-38239000D01*
X115152932Y-38383747D01*
X115251004Y-38620513D01*
X115301000Y-38871861D01*
X115301000Y-39128139D01*
X115251004Y-39379487D01*
X115228238Y-39434448D01*
X115152931Y-39616255D01*
X115010553Y-39829339D01*
X114829339Y-40010553D01*
X114616255Y-40152931D01*
X114616254Y-40152932D01*
X114616253Y-40152932D01*
X114379487Y-40251004D01*
X114128139Y-40301000D01*
X113871861Y-40301000D01*
X113620513Y-40251004D01*
X113383747Y-40152932D01*
X113383746Y-40152932D01*
X113383745Y-40152931D01*
X113170661Y-40010553D01*
X112989447Y-39829339D01*
X112847069Y-39616255D01*
X112771762Y-39434448D01*
X112748996Y-39379487D01*
X112699000Y-39128139D01*
X112699000Y-38871861D01*
X112748996Y-38620513D01*
X112847068Y-38383747D01*
X112943785Y-38239000D01*
X112989447Y-38170661D01*
X113170661Y-37989447D01*
X113383745Y-37847069D01*
X113383747Y-37847068D01*
X113620513Y-37748996D01*
X113871861Y-37699000D01*
X114128139Y-37699000D01*
X114379487Y-37748996D01*
X114379487Y-37748996D01*
G37*
G36*
X75379487Y-37748996D02*
G01*
X75616253Y-37847068D01*
X75616255Y-37847069D01*
X75829339Y-37989447D01*
X76010553Y-38170661D01*
X76056216Y-38239000D01*
X76152932Y-38383747D01*
X76251004Y-38620513D01*
X76301000Y-38871861D01*
X76301000Y-39128139D01*
X76251004Y-39379487D01*
X76228238Y-39434448D01*
X76152931Y-39616255D01*
X76010553Y-39829339D01*
X75829339Y-40010553D01*
X75616255Y-40152931D01*
X75616254Y-40152932D01*
X75616253Y-40152932D01*
X75379487Y-40251004D01*
X75128139Y-40301000D01*
X74871861Y-40301000D01*
X74620513Y-40251004D01*
X74383747Y-40152932D01*
X74383746Y-40152932D01*
X74383745Y-40152931D01*
X74170661Y-40010553D01*
X73989447Y-39829339D01*
X73847069Y-39616255D01*
X73771762Y-39434448D01*
X73748996Y-39379487D01*
X73699000Y-39128139D01*
X73699000Y-38871861D01*
X73748996Y-38620513D01*
X73847068Y-38383747D01*
X73943785Y-38239000D01*
X73989447Y-38170661D01*
X74170661Y-37989447D01*
X74383745Y-37847069D01*
X74383747Y-37847068D01*
X74620513Y-37748996D01*
X74871861Y-37699000D01*
X75128139Y-37699000D01*
X75379487Y-37748996D01*
X75379487Y-37748996D01*
G37*
G36*
X36379487Y-37748996D02*
G01*
X36616253Y-37847068D01*
X36616255Y-37847069D01*
X36829339Y-37989447D01*
X37010553Y-38170661D01*
X37056216Y-38239000D01*
X37152932Y-38383747D01*
X37251004Y-38620513D01*
X37301000Y-38871861D01*
X37301000Y-39128139D01*
X37251004Y-39379487D01*
X37228238Y-39434448D01*
X37152931Y-39616255D01*
X37010553Y-39829339D01*
X36829339Y-40010553D01*
X36616255Y-40152931D01*
X36616254Y-40152932D01*
X36616253Y-40152932D01*
X36379487Y-40251004D01*
X36128139Y-40301000D01*
X35871861Y-40301000D01*
X35620513Y-40251004D01*
X35383747Y-40152932D01*
X35383746Y-40152932D01*
X35383745Y-40152931D01*
X35170661Y-40010553D01*
X34989447Y-39829339D01*
X34847069Y-39616255D01*
X34771762Y-39434448D01*
X34748996Y-39379487D01*
X34699000Y-39128139D01*
X34699000Y-38871861D01*
X34748996Y-38620513D01*
X34847068Y-38383747D01*
X34943785Y-38239000D01*
X34989447Y-38170661D01*
X35170661Y-37989447D01*
X35383745Y-37847069D01*
X35383747Y-37847068D01*
X35620513Y-37748996D01*
X35871861Y-37699000D01*
X36128139Y-37699000D01*
X36379487Y-37748996D01*
X36379487Y-37748996D01*
G37*
G36*
X82879487Y-37748996D02*
G01*
X83116253Y-37847068D01*
X83116255Y-37847069D01*
X83329339Y-37989447D01*
X83510553Y-38170661D01*
X83556216Y-38239000D01*
X83652932Y-38383747D01*
X83751004Y-38620513D01*
X83801000Y-38871861D01*
X83801000Y-39128139D01*
X83751004Y-39379487D01*
X83728238Y-39434448D01*
X83652931Y-39616255D01*
X83510553Y-39829339D01*
X83329339Y-40010553D01*
X83116255Y-40152931D01*
X83116254Y-40152932D01*
X83116253Y-40152932D01*
X82879487Y-40251004D01*
X82628139Y-40301000D01*
X82371861Y-40301000D01*
X82120513Y-40251004D01*
X81883747Y-40152932D01*
X81883746Y-40152932D01*
X81883745Y-40152931D01*
X81670661Y-40010553D01*
X81489447Y-39829339D01*
X81347069Y-39616255D01*
X81271762Y-39434448D01*
X81248996Y-39379487D01*
X81199000Y-39128139D01*
X81199000Y-38871861D01*
X81248996Y-38620513D01*
X81347068Y-38383747D01*
X81443785Y-38239000D01*
X81489447Y-38170661D01*
X81670661Y-37989447D01*
X81883745Y-37847069D01*
X81883747Y-37847068D01*
X82120513Y-37748996D01*
X82371861Y-37699000D01*
X82628139Y-37699000D01*
X82879487Y-37748996D01*
X82879487Y-37748996D01*
G37*
G36*
X43879487Y-37748996D02*
G01*
X44116253Y-37847068D01*
X44116255Y-37847069D01*
X44329339Y-37989447D01*
X44510553Y-38170661D01*
X44556216Y-38239000D01*
X44652932Y-38383747D01*
X44751004Y-38620513D01*
X44801000Y-38871861D01*
X44801000Y-39128139D01*
X44751004Y-39379487D01*
X44728238Y-39434448D01*
X44652931Y-39616255D01*
X44510553Y-39829339D01*
X44329339Y-40010553D01*
X44116255Y-40152931D01*
X44116254Y-40152932D01*
X44116253Y-40152932D01*
X43879487Y-40251004D01*
X43628139Y-40301000D01*
X43371861Y-40301000D01*
X43120513Y-40251004D01*
X42883747Y-40152932D01*
X42883746Y-40152932D01*
X42883745Y-40152931D01*
X42670661Y-40010553D01*
X42489447Y-39829339D01*
X42347069Y-39616255D01*
X42271762Y-39434448D01*
X42248996Y-39379487D01*
X42199000Y-39128139D01*
X42199000Y-38871861D01*
X42248996Y-38620513D01*
X42347068Y-38383747D01*
X42443785Y-38239000D01*
X42489447Y-38170661D01*
X42670661Y-37989447D01*
X42883745Y-37847069D01*
X42883747Y-37847068D01*
X43120513Y-37748996D01*
X43371861Y-37699000D01*
X43628139Y-37699000D01*
X43879487Y-37748996D01*
X43879487Y-37748996D01*
G37*
G36*
X31051000Y-40251000D02*
G01*
X20949000Y-40251000D01*
X20949000Y-35149000D01*
X31051000Y-35149000D01*
X31051000Y-40251000D01*
X31051000Y-40251000D01*
G37*
G36*
X172568809Y-31599078D02*
G01*
X172634969Y-31619149D01*
X172634972Y-31619150D01*
X172695949Y-31651742D01*
X172714897Y-31667293D01*
X172749396Y-31695604D01*
X172777707Y-31730103D01*
X172793258Y-31749051D01*
X172825850Y-31810028D01*
X172825851Y-31810031D01*
X172845922Y-31876192D01*
X172852698Y-31945000D01*
X172845922Y-32013808D01*
X172825851Y-32079969D01*
X172825850Y-32079972D01*
X172793258Y-32140949D01*
X172777707Y-32159897D01*
X172749396Y-32194396D01*
X172714897Y-32222707D01*
X172695949Y-32238258D01*
X172634972Y-32270850D01*
X172634969Y-32270851D01*
X172568809Y-32290922D01*
X172517244Y-32296000D01*
X171282756Y-32296000D01*
X171231191Y-32290922D01*
X171165031Y-32270851D01*
X171165028Y-32270850D01*
X171104051Y-32238258D01*
X171085103Y-32222707D01*
X171050604Y-32194396D01*
X171022293Y-32159897D01*
X171006742Y-32140949D01*
X170974150Y-32079972D01*
X170974149Y-32079969D01*
X170954078Y-32013808D01*
X170947302Y-31945000D01*
X170954078Y-31876192D01*
X170974149Y-31810031D01*
X170974150Y-31810028D01*
X171006742Y-31749051D01*
X171022293Y-31730103D01*
X171050604Y-31695604D01*
X171085103Y-31667293D01*
X171104051Y-31651742D01*
X171165028Y-31619150D01*
X171165031Y-31619149D01*
X171231191Y-31599078D01*
X171282756Y-31594000D01*
X172517244Y-31594000D01*
X172568809Y-31599078D01*
X172568809Y-31599078D01*
G37*
G36*
X177768809Y-31599078D02*
G01*
X177834969Y-31619149D01*
X177834972Y-31619150D01*
X177895949Y-31651742D01*
X177914897Y-31667293D01*
X177949396Y-31695604D01*
X177977707Y-31730103D01*
X177993258Y-31749051D01*
X178025850Y-31810028D01*
X178025851Y-31810031D01*
X178045922Y-31876192D01*
X178052698Y-31945000D01*
X178045922Y-32013808D01*
X178025851Y-32079969D01*
X178025850Y-32079972D01*
X177993258Y-32140949D01*
X177977707Y-32159897D01*
X177949396Y-32194396D01*
X177914897Y-32222707D01*
X177895949Y-32238258D01*
X177834972Y-32270850D01*
X177834969Y-32270851D01*
X177768809Y-32290922D01*
X177717244Y-32296000D01*
X176482756Y-32296000D01*
X176431191Y-32290922D01*
X176365031Y-32270851D01*
X176365028Y-32270850D01*
X176304051Y-32238258D01*
X176285103Y-32222707D01*
X176250604Y-32194396D01*
X176222293Y-32159897D01*
X176206742Y-32140949D01*
X176174150Y-32079972D01*
X176174149Y-32079969D01*
X176154078Y-32013808D01*
X176147302Y-31945000D01*
X176154078Y-31876192D01*
X176174149Y-31810031D01*
X176174150Y-31810028D01*
X176206742Y-31749051D01*
X176222293Y-31730103D01*
X176250604Y-31695604D01*
X176285103Y-31667293D01*
X176304051Y-31651742D01*
X176365028Y-31619150D01*
X176365031Y-31619149D01*
X176431191Y-31599078D01*
X176482756Y-31594000D01*
X177717244Y-31594000D01*
X177768809Y-31599078D01*
X177768809Y-31599078D01*
G37*
G36*
X172568809Y-30329078D02*
G01*
X172634969Y-30349149D01*
X172634972Y-30349150D01*
X172695949Y-30381742D01*
X172714897Y-30397293D01*
X172749396Y-30425604D01*
X172777707Y-30460103D01*
X172793258Y-30479051D01*
X172825850Y-30540028D01*
X172825851Y-30540031D01*
X172845922Y-30606192D01*
X172852698Y-30675000D01*
X172845922Y-30743808D01*
X172825851Y-30809969D01*
X172825850Y-30809972D01*
X172793258Y-30870949D01*
X172777707Y-30889897D01*
X172749396Y-30924396D01*
X172714897Y-30952707D01*
X172695949Y-30968258D01*
X172634972Y-31000850D01*
X172634969Y-31000851D01*
X172568809Y-31020922D01*
X172517244Y-31026000D01*
X171282756Y-31026000D01*
X171231191Y-31020922D01*
X171165031Y-31000851D01*
X171165028Y-31000850D01*
X171104051Y-30968258D01*
X171085103Y-30952707D01*
X171050604Y-30924396D01*
X171022293Y-30889897D01*
X171006742Y-30870949D01*
X170974150Y-30809972D01*
X170974149Y-30809969D01*
X170954078Y-30743808D01*
X170947302Y-30675000D01*
X170954078Y-30606192D01*
X170974149Y-30540031D01*
X170974150Y-30540028D01*
X171006742Y-30479051D01*
X171022293Y-30460103D01*
X171050604Y-30425604D01*
X171085103Y-30397293D01*
X171104051Y-30381742D01*
X171165028Y-30349150D01*
X171165031Y-30349149D01*
X171231191Y-30329078D01*
X171282756Y-30324000D01*
X172517244Y-30324000D01*
X172568809Y-30329078D01*
X172568809Y-30329078D01*
G37*
G36*
X177768809Y-30329078D02*
G01*
X177834969Y-30349149D01*
X177834972Y-30349150D01*
X177895949Y-30381742D01*
X177914897Y-30397293D01*
X177949396Y-30425604D01*
X177977707Y-30460103D01*
X177993258Y-30479051D01*
X178025850Y-30540028D01*
X178025851Y-30540031D01*
X178045922Y-30606192D01*
X178052698Y-30675000D01*
X178045922Y-30743808D01*
X178025851Y-30809969D01*
X178025850Y-30809972D01*
X177993258Y-30870949D01*
X177977707Y-30889897D01*
X177949396Y-30924396D01*
X177914897Y-30952707D01*
X177895949Y-30968258D01*
X177834972Y-31000850D01*
X177834969Y-31000851D01*
X177768809Y-31020922D01*
X177717244Y-31026000D01*
X176482756Y-31026000D01*
X176431191Y-31020922D01*
X176365031Y-31000851D01*
X176365028Y-31000850D01*
X176304051Y-30968258D01*
X176285103Y-30952707D01*
X176250604Y-30924396D01*
X176222293Y-30889897D01*
X176206742Y-30870949D01*
X176174150Y-30809972D01*
X176174149Y-30809969D01*
X176154078Y-30743808D01*
X176147302Y-30675000D01*
X176154078Y-30606192D01*
X176174149Y-30540031D01*
X176174150Y-30540028D01*
X176206742Y-30479051D01*
X176222293Y-30460103D01*
X176250604Y-30425604D01*
X176285103Y-30397293D01*
X176304051Y-30381742D01*
X176365028Y-30349150D01*
X176365031Y-30349149D01*
X176431191Y-30329078D01*
X176482756Y-30324000D01*
X177717244Y-30324000D01*
X177768809Y-30329078D01*
X177768809Y-30329078D01*
G37*
G36*
X172568809Y-29059078D02*
G01*
X172634969Y-29079149D01*
X172634972Y-29079150D01*
X172695949Y-29111742D01*
X172714897Y-29127293D01*
X172749396Y-29155604D01*
X172777707Y-29190103D01*
X172793258Y-29209051D01*
X172825850Y-29270028D01*
X172825851Y-29270031D01*
X172845922Y-29336192D01*
X172852698Y-29405000D01*
X172845922Y-29473808D01*
X172825851Y-29539969D01*
X172825850Y-29539972D01*
X172793258Y-29600949D01*
X172777707Y-29619897D01*
X172749396Y-29654396D01*
X172714897Y-29682707D01*
X172695949Y-29698258D01*
X172634972Y-29730850D01*
X172634969Y-29730851D01*
X172568809Y-29750922D01*
X172517244Y-29756000D01*
X171282756Y-29756000D01*
X171231191Y-29750922D01*
X171165031Y-29730851D01*
X171165028Y-29730850D01*
X171104051Y-29698258D01*
X171085103Y-29682707D01*
X171050604Y-29654396D01*
X171022293Y-29619897D01*
X171006742Y-29600949D01*
X170974150Y-29539972D01*
X170974149Y-29539969D01*
X170954078Y-29473808D01*
X170947302Y-29405000D01*
X170954078Y-29336192D01*
X170974149Y-29270031D01*
X170974150Y-29270028D01*
X171006742Y-29209051D01*
X171022293Y-29190103D01*
X171050604Y-29155604D01*
X171085103Y-29127293D01*
X171104051Y-29111742D01*
X171165028Y-29079150D01*
X171165031Y-29079149D01*
X171231191Y-29059078D01*
X171282756Y-29054000D01*
X172517244Y-29054000D01*
X172568809Y-29059078D01*
X172568809Y-29059078D01*
G37*
G36*
X177768809Y-29059078D02*
G01*
X177834969Y-29079149D01*
X177834972Y-29079150D01*
X177895949Y-29111742D01*
X177914897Y-29127293D01*
X177949396Y-29155604D01*
X177977707Y-29190103D01*
X177993258Y-29209051D01*
X178025850Y-29270028D01*
X178025851Y-29270031D01*
X178045922Y-29336192D01*
X178052698Y-29405000D01*
X178045922Y-29473808D01*
X178025851Y-29539969D01*
X178025850Y-29539972D01*
X177993258Y-29600949D01*
X177977707Y-29619897D01*
X177949396Y-29654396D01*
X177914897Y-29682707D01*
X177895949Y-29698258D01*
X177834972Y-29730850D01*
X177834969Y-29730851D01*
X177768809Y-29750922D01*
X177717244Y-29756000D01*
X176482756Y-29756000D01*
X176431191Y-29750922D01*
X176365031Y-29730851D01*
X176365028Y-29730850D01*
X176304051Y-29698258D01*
X176285103Y-29682707D01*
X176250604Y-29654396D01*
X176222293Y-29619897D01*
X176206742Y-29600949D01*
X176174150Y-29539972D01*
X176174149Y-29539969D01*
X176154078Y-29473808D01*
X176147302Y-29405000D01*
X176154078Y-29336192D01*
X176174149Y-29270031D01*
X176174150Y-29270028D01*
X176206742Y-29209051D01*
X176222293Y-29190103D01*
X176250604Y-29155604D01*
X176285103Y-29127293D01*
X176304051Y-29111742D01*
X176365028Y-29079150D01*
X176365031Y-29079149D01*
X176431191Y-29059078D01*
X176482756Y-29054000D01*
X177717244Y-29054000D01*
X177768809Y-29059078D01*
X177768809Y-29059078D01*
G37*
G36*
X177768809Y-27789078D02*
G01*
X177833383Y-27808668D01*
X177834972Y-27809150D01*
X177895949Y-27841742D01*
X177914897Y-27857293D01*
X177949396Y-27885604D01*
X177977707Y-27920103D01*
X177993258Y-27939051D01*
X178025850Y-28000028D01*
X178025851Y-28000031D01*
X178045922Y-28066192D01*
X178052698Y-28135000D01*
X178045922Y-28203808D01*
X178025851Y-28269969D01*
X178025850Y-28269972D01*
X177993258Y-28330949D01*
X177977707Y-28349897D01*
X177949396Y-28384396D01*
X177914897Y-28412707D01*
X177895949Y-28428258D01*
X177834972Y-28460850D01*
X177834969Y-28460851D01*
X177768809Y-28480922D01*
X177717244Y-28486000D01*
X176482756Y-28486000D01*
X176431191Y-28480922D01*
X176365031Y-28460851D01*
X176365028Y-28460850D01*
X176304051Y-28428258D01*
X176285103Y-28412707D01*
X176250604Y-28384396D01*
X176222293Y-28349897D01*
X176206742Y-28330949D01*
X176174150Y-28269972D01*
X176174149Y-28269969D01*
X176154078Y-28203808D01*
X176147302Y-28135000D01*
X176154078Y-28066192D01*
X176174149Y-28000031D01*
X176174150Y-28000028D01*
X176206742Y-27939051D01*
X176222293Y-27920103D01*
X176250604Y-27885604D01*
X176285103Y-27857293D01*
X176304051Y-27841742D01*
X176365028Y-27809150D01*
X176366617Y-27808668D01*
X176431191Y-27789078D01*
X176482756Y-27784000D01*
X177717244Y-27784000D01*
X177768809Y-27789078D01*
X177768809Y-27789078D01*
G37*
G36*
X172568809Y-27789078D02*
G01*
X172633383Y-27808668D01*
X172634972Y-27809150D01*
X172695949Y-27841742D01*
X172714897Y-27857293D01*
X172749396Y-27885604D01*
X172777707Y-27920103D01*
X172793258Y-27939051D01*
X172825850Y-28000028D01*
X172825851Y-28000031D01*
X172845922Y-28066192D01*
X172852698Y-28135000D01*
X172845922Y-28203808D01*
X172825851Y-28269969D01*
X172825850Y-28269972D01*
X172793258Y-28330949D01*
X172777707Y-28349897D01*
X172749396Y-28384396D01*
X172714897Y-28412707D01*
X172695949Y-28428258D01*
X172634972Y-28460850D01*
X172634969Y-28460851D01*
X172568809Y-28480922D01*
X172517244Y-28486000D01*
X171282756Y-28486000D01*
X171231191Y-28480922D01*
X171165031Y-28460851D01*
X171165028Y-28460850D01*
X171104051Y-28428258D01*
X171085103Y-28412707D01*
X171050604Y-28384396D01*
X171022293Y-28349897D01*
X171006742Y-28330949D01*
X170974150Y-28269972D01*
X170974149Y-28269969D01*
X170954078Y-28203808D01*
X170947302Y-28135000D01*
X170954078Y-28066192D01*
X170974149Y-28000031D01*
X170974150Y-28000028D01*
X171006742Y-27939051D01*
X171022293Y-27920103D01*
X171050604Y-27885604D01*
X171085103Y-27857293D01*
X171104051Y-27841742D01*
X171165028Y-27809150D01*
X171166617Y-27808668D01*
X171231191Y-27789078D01*
X171282756Y-27784000D01*
X172517244Y-27784000D01*
X172568809Y-27789078D01*
X172568809Y-27789078D01*
G37*
G36*
X25889943Y-22066248D02*
G01*
X26445189Y-22296238D01*
X26617497Y-22411371D01*
X26944899Y-22630134D01*
X27369866Y-23055101D01*
X27500727Y-23250949D01*
X27703762Y-23554811D01*
X27933752Y-24110057D01*
X28051000Y-24699501D01*
X28051000Y-25300499D01*
X27933752Y-25889943D01*
X27703762Y-26445189D01*
X27657784Y-26514000D01*
X27369866Y-26944899D01*
X26944899Y-27369866D01*
X26870736Y-27419420D01*
X26445189Y-27703762D01*
X25889943Y-27933752D01*
X25300499Y-28051000D01*
X24699501Y-28051000D01*
X24110057Y-27933752D01*
X23554811Y-27703762D01*
X23129264Y-27419420D01*
X23055101Y-27369866D01*
X22630134Y-26944899D01*
X22342216Y-26514000D01*
X22296238Y-26445189D01*
X22066248Y-25889943D01*
X21949000Y-25300499D01*
X21949000Y-24699501D01*
X22066248Y-24110057D01*
X22296238Y-23554811D01*
X22499273Y-23250949D01*
X22630134Y-23055101D01*
X23055101Y-22630134D01*
X23382503Y-22411371D01*
X23554811Y-22296238D01*
X24110057Y-22066248D01*
X24699501Y-21949000D01*
X25300499Y-21949000D01*
X25889943Y-22066248D01*
X25889943Y-22066248D01*
G37*
G36*
X215889943Y-22066248D02*
G01*
X216445189Y-22296238D01*
X216617497Y-22411371D01*
X216944899Y-22630134D01*
X217369866Y-23055101D01*
X217500727Y-23250949D01*
X217703762Y-23554811D01*
X217933752Y-24110057D01*
X218051000Y-24699501D01*
X218051000Y-25300499D01*
X217933752Y-25889943D01*
X217703762Y-26445189D01*
X217657784Y-26514000D01*
X217369866Y-26944899D01*
X216944899Y-27369866D01*
X216870736Y-27419420D01*
X216445189Y-27703762D01*
X215889943Y-27933752D01*
X215300499Y-28051000D01*
X214699501Y-28051000D01*
X214110057Y-27933752D01*
X213554811Y-27703762D01*
X213129264Y-27419420D01*
X213055101Y-27369866D01*
X212630134Y-26944899D01*
X212342216Y-26514000D01*
X212296238Y-26445189D01*
X212066248Y-25889943D01*
X211949000Y-25300499D01*
X211949000Y-24699501D01*
X212066248Y-24110057D01*
X212296238Y-23554811D01*
X212499273Y-23250949D01*
X212630134Y-23055101D01*
X213055101Y-22630134D01*
X213382503Y-22411371D01*
X213554811Y-22296238D01*
X214110057Y-22066248D01*
X214699501Y-21949000D01*
X215300499Y-21949000D01*
X215889943Y-22066248D01*
X215889943Y-22066248D01*
G37*
G36*
X172568809Y-26519078D02*
G01*
X172630568Y-26537814D01*
X172634972Y-26539150D01*
X172695949Y-26571742D01*
X172714749Y-26587171D01*
X172749396Y-26615604D01*
X172768185Y-26638500D01*
X172793258Y-26669051D01*
X172825850Y-26730028D01*
X172825851Y-26730031D01*
X172845922Y-26796192D01*
X172852698Y-26865000D01*
X172845922Y-26933808D01*
X172842557Y-26944899D01*
X172825850Y-26999972D01*
X172793258Y-27060949D01*
X172777707Y-27079897D01*
X172749396Y-27114396D01*
X172714897Y-27142707D01*
X172695949Y-27158258D01*
X172634972Y-27190850D01*
X172634969Y-27190851D01*
X172568809Y-27210922D01*
X172517244Y-27216000D01*
X171282756Y-27216000D01*
X171231191Y-27210922D01*
X171165031Y-27190851D01*
X171165028Y-27190850D01*
X171104051Y-27158258D01*
X171085103Y-27142707D01*
X171050604Y-27114396D01*
X171022293Y-27079897D01*
X171006742Y-27060949D01*
X170974150Y-26999972D01*
X170957443Y-26944899D01*
X170954078Y-26933808D01*
X170947302Y-26865000D01*
X170954078Y-26796192D01*
X170974149Y-26730031D01*
X170974150Y-26730028D01*
X171006742Y-26669051D01*
X171031815Y-26638500D01*
X171050604Y-26615604D01*
X171085251Y-26587171D01*
X171104051Y-26571742D01*
X171165028Y-26539150D01*
X171169432Y-26537814D01*
X171231191Y-26519078D01*
X171282756Y-26514000D01*
X172517244Y-26514000D01*
X172568809Y-26519078D01*
X172568809Y-26519078D01*
G37*
G36*
X177768809Y-26519078D02*
G01*
X177830568Y-26537814D01*
X177834972Y-26539150D01*
X177895949Y-26571742D01*
X177914749Y-26587171D01*
X177949396Y-26615604D01*
X177968185Y-26638500D01*
X177993258Y-26669051D01*
X178025850Y-26730028D01*
X178025851Y-26730031D01*
X178045922Y-26796192D01*
X178052698Y-26865000D01*
X178045922Y-26933808D01*
X178042557Y-26944899D01*
X178025850Y-26999972D01*
X177993258Y-27060949D01*
X177977707Y-27079897D01*
X177949396Y-27114396D01*
X177914897Y-27142707D01*
X177895949Y-27158258D01*
X177834972Y-27190850D01*
X177834969Y-27190851D01*
X177768809Y-27210922D01*
X177717244Y-27216000D01*
X176482756Y-27216000D01*
X176431191Y-27210922D01*
X176365031Y-27190851D01*
X176365028Y-27190850D01*
X176304051Y-27158258D01*
X176285103Y-27142707D01*
X176250604Y-27114396D01*
X176222293Y-27079897D01*
X176206742Y-27060949D01*
X176174150Y-26999972D01*
X176157443Y-26944899D01*
X176154078Y-26933808D01*
X176147302Y-26865000D01*
X176154078Y-26796192D01*
X176174149Y-26730031D01*
X176174150Y-26730028D01*
X176206742Y-26669051D01*
X176231815Y-26638500D01*
X176250604Y-26615604D01*
X176285251Y-26587171D01*
X176304051Y-26571742D01*
X176365028Y-26539150D01*
X176369432Y-26537814D01*
X176431191Y-26519078D01*
X176482756Y-26514000D01*
X177717244Y-26514000D01*
X177768809Y-26519078D01*
X177768809Y-26519078D01*
G37*
G36*
X209248228Y-25181703D02*
G01*
X209403100Y-25245853D01*
X209542481Y-25338985D01*
X209661015Y-25457519D01*
X209754147Y-25596900D01*
X209818297Y-25751772D01*
X209851000Y-25916184D01*
X209851000Y-26083816D01*
X209818297Y-26248228D01*
X209754147Y-26403100D01*
X209661015Y-26542481D01*
X209542481Y-26661015D01*
X209403100Y-26754147D01*
X209248228Y-26818297D01*
X209083816Y-26851000D01*
X208916184Y-26851000D01*
X208751772Y-26818297D01*
X208596900Y-26754147D01*
X208457519Y-26661015D01*
X208338985Y-26542481D01*
X208245853Y-26403100D01*
X208181703Y-26248228D01*
X208149000Y-26083816D01*
X208149000Y-25916184D01*
X208181703Y-25751772D01*
X208245853Y-25596900D01*
X208338985Y-25457519D01*
X208457519Y-25338985D01*
X208596900Y-25245853D01*
X208751772Y-25181703D01*
X208916184Y-25149000D01*
X209083816Y-25149000D01*
X209248228Y-25181703D01*
X209248228Y-25181703D01*
G37*
G36*
X207351000Y-26851000D02*
G01*
X205649000Y-26851000D01*
X205649000Y-25149000D01*
X207351000Y-25149000D01*
X207351000Y-26851000D01*
X207351000Y-26851000D01*
G37*
G36*
X193770104Y-24609585D02*
G01*
X193938626Y-24679389D01*
X194090291Y-24780728D01*
X194219272Y-24909709D01*
X194320611Y-25061374D01*
X194390415Y-25229896D01*
X194426000Y-25408797D01*
X194426000Y-25591203D01*
X194390415Y-25770104D01*
X194320611Y-25938626D01*
X194219272Y-26090291D01*
X194090291Y-26219272D01*
X193938626Y-26320611D01*
X193770104Y-26390415D01*
X193591203Y-26426000D01*
X193408797Y-26426000D01*
X193229896Y-26390415D01*
X193061374Y-26320611D01*
X192909709Y-26219272D01*
X192780728Y-26090291D01*
X192679389Y-25938626D01*
X192609585Y-25770104D01*
X192574000Y-25591203D01*
X192574000Y-25408797D01*
X192609585Y-25229896D01*
X192679389Y-25061374D01*
X192780728Y-24909709D01*
X192909709Y-24780728D01*
X193061374Y-24679389D01*
X193229896Y-24609585D01*
X193408797Y-24574000D01*
X193591203Y-24574000D01*
X193770104Y-24609585D01*
X193770104Y-24609585D01*
G37*
G36*
X201270104Y-24609585D02*
G01*
X201438626Y-24679389D01*
X201590291Y-24780728D01*
X201719272Y-24909709D01*
X201820611Y-25061374D01*
X201890415Y-25229896D01*
X201926000Y-25408797D01*
X201926000Y-25591203D01*
X201890415Y-25770104D01*
X201820611Y-25938626D01*
X201719272Y-26090291D01*
X201590291Y-26219272D01*
X201438626Y-26320611D01*
X201270104Y-26390415D01*
X201091203Y-26426000D01*
X200908797Y-26426000D01*
X200729896Y-26390415D01*
X200561374Y-26320611D01*
X200409709Y-26219272D01*
X200280728Y-26090291D01*
X200179389Y-25938626D01*
X200109585Y-25770104D01*
X200074000Y-25591203D01*
X200074000Y-25408797D01*
X200109585Y-25229896D01*
X200179389Y-25061374D01*
X200280728Y-24909709D01*
X200409709Y-24780728D01*
X200561374Y-24679389D01*
X200729896Y-24609585D01*
X200908797Y-24574000D01*
X201091203Y-24574000D01*
X201270104Y-24609585D01*
X201270104Y-24609585D01*
G37*
G36*
X198770104Y-24609585D02*
G01*
X198938626Y-24679389D01*
X199090291Y-24780728D01*
X199219272Y-24909709D01*
X199320611Y-25061374D01*
X199390415Y-25229896D01*
X199426000Y-25408797D01*
X199426000Y-25591203D01*
X199390415Y-25770104D01*
X199320611Y-25938626D01*
X199219272Y-26090291D01*
X199090291Y-26219272D01*
X198938626Y-26320611D01*
X198770104Y-26390415D01*
X198591203Y-26426000D01*
X198408797Y-26426000D01*
X198229896Y-26390415D01*
X198061374Y-26320611D01*
X197909709Y-26219272D01*
X197780728Y-26090291D01*
X197679389Y-25938626D01*
X197609585Y-25770104D01*
X197574000Y-25591203D01*
X197574000Y-25408797D01*
X197609585Y-25229896D01*
X197679389Y-25061374D01*
X197780728Y-24909709D01*
X197909709Y-24780728D01*
X198061374Y-24679389D01*
X198229896Y-24609585D01*
X198408797Y-24574000D01*
X198591203Y-24574000D01*
X198770104Y-24609585D01*
X198770104Y-24609585D01*
G37*
G36*
X196270104Y-24609585D02*
G01*
X196438626Y-24679389D01*
X196590291Y-24780728D01*
X196719272Y-24909709D01*
X196820611Y-25061374D01*
X196890415Y-25229896D01*
X196926000Y-25408797D01*
X196926000Y-25591203D01*
X196890415Y-25770104D01*
X196820611Y-25938626D01*
X196719272Y-26090291D01*
X196590291Y-26219272D01*
X196438626Y-26320611D01*
X196270104Y-26390415D01*
X196091203Y-26426000D01*
X195908797Y-26426000D01*
X195729896Y-26390415D01*
X195561374Y-26320611D01*
X195409709Y-26219272D01*
X195280728Y-26090291D01*
X195179389Y-25938626D01*
X195109585Y-25770104D01*
X195074000Y-25591203D01*
X195074000Y-25408797D01*
X195109585Y-25229896D01*
X195179389Y-25061374D01*
X195280728Y-24909709D01*
X195409709Y-24780728D01*
X195561374Y-24679389D01*
X195729896Y-24609585D01*
X195908797Y-24574000D01*
X196091203Y-24574000D01*
X196270104Y-24609585D01*
X196270104Y-24609585D01*
G37*
G36*
X191270104Y-24609585D02*
G01*
X191438626Y-24679389D01*
X191590291Y-24780728D01*
X191719272Y-24909709D01*
X191820611Y-25061374D01*
X191890415Y-25229896D01*
X191926000Y-25408797D01*
X191926000Y-25591203D01*
X191890415Y-25770104D01*
X191820611Y-25938626D01*
X191719272Y-26090291D01*
X191590291Y-26219272D01*
X191438626Y-26320611D01*
X191270104Y-26390415D01*
X191091203Y-26426000D01*
X190908797Y-26426000D01*
X190729896Y-26390415D01*
X190561374Y-26320611D01*
X190409709Y-26219272D01*
X190280728Y-26090291D01*
X190179389Y-25938626D01*
X190109585Y-25770104D01*
X190074000Y-25591203D01*
X190074000Y-25408797D01*
X190109585Y-25229896D01*
X190179389Y-25061374D01*
X190280728Y-24909709D01*
X190409709Y-24780728D01*
X190561374Y-24679389D01*
X190729896Y-24609585D01*
X190908797Y-24574000D01*
X191091203Y-24574000D01*
X191270104Y-24609585D01*
X191270104Y-24609585D01*
G37*
G36*
X188770104Y-24609585D02*
G01*
X188938626Y-24679389D01*
X189090291Y-24780728D01*
X189219272Y-24909709D01*
X189320611Y-25061374D01*
X189390415Y-25229896D01*
X189426000Y-25408797D01*
X189426000Y-25591203D01*
X189390415Y-25770104D01*
X189320611Y-25938626D01*
X189219272Y-26090291D01*
X189090291Y-26219272D01*
X188938626Y-26320611D01*
X188770104Y-26390415D01*
X188591203Y-26426000D01*
X188408797Y-26426000D01*
X188229896Y-26390415D01*
X188061374Y-26320611D01*
X187909709Y-26219272D01*
X187780728Y-26090291D01*
X187679389Y-25938626D01*
X187609585Y-25770104D01*
X187574000Y-25591203D01*
X187574000Y-25408797D01*
X187609585Y-25229896D01*
X187679389Y-25061374D01*
X187780728Y-24909709D01*
X187909709Y-24780728D01*
X188061374Y-24679389D01*
X188229896Y-24609585D01*
X188408797Y-24574000D01*
X188591203Y-24574000D01*
X188770104Y-24609585D01*
X188770104Y-24609585D01*
G37*
G36*
X184426000Y-26426000D02*
G01*
X182574000Y-26426000D01*
X182574000Y-24574000D01*
X184426000Y-24574000D01*
X184426000Y-26426000D01*
X184426000Y-26426000D01*
G37*
G36*
X186270104Y-24609585D02*
G01*
X186438626Y-24679389D01*
X186590291Y-24780728D01*
X186719272Y-24909709D01*
X186820611Y-25061374D01*
X186890415Y-25229896D01*
X186926000Y-25408797D01*
X186926000Y-25591203D01*
X186890415Y-25770104D01*
X186820611Y-25938626D01*
X186719272Y-26090291D01*
X186590291Y-26219272D01*
X186438626Y-26320611D01*
X186270104Y-26390415D01*
X186091203Y-26426000D01*
X185908797Y-26426000D01*
X185729896Y-26390415D01*
X185561374Y-26320611D01*
X185409709Y-26219272D01*
X185280728Y-26090291D01*
X185179389Y-25938626D01*
X185109585Y-25770104D01*
X185074000Y-25591203D01*
X185074000Y-25408797D01*
X185109585Y-25229896D01*
X185179389Y-25061374D01*
X185280728Y-24909709D01*
X185409709Y-24780728D01*
X185561374Y-24679389D01*
X185729896Y-24609585D01*
X185908797Y-24574000D01*
X186091203Y-24574000D01*
X186270104Y-24609585D01*
X186270104Y-24609585D01*
G37*
G36*
X49801000Y-26151000D02*
G01*
X48699000Y-26151000D01*
X48699000Y-24799000D01*
X49801000Y-24799000D01*
X49801000Y-26151000D01*
X49801000Y-26151000D01*
G37*
G36*
X166801000Y-26151000D02*
G01*
X165699000Y-26151000D01*
X165699000Y-24799000D01*
X166801000Y-24799000D01*
X166801000Y-26151000D01*
X166801000Y-26151000D01*
G37*
G36*
X128301000Y-26151000D02*
G01*
X127199000Y-26151000D01*
X127199000Y-24799000D01*
X128301000Y-24799000D01*
X128301000Y-26151000D01*
X128301000Y-26151000D01*
G37*
G36*
X88801000Y-26151000D02*
G01*
X87699000Y-26151000D01*
X87699000Y-24799000D01*
X88801000Y-24799000D01*
X88801000Y-26151000D01*
X88801000Y-26151000D01*
G37*
G36*
X177768809Y-25249078D02*
G01*
X177834969Y-25269149D01*
X177834972Y-25269150D01*
X177895949Y-25301742D01*
X177914897Y-25317293D01*
X177949396Y-25345604D01*
X177977707Y-25380103D01*
X177993258Y-25399051D01*
X178025850Y-25460028D01*
X178025851Y-25460031D01*
X178045922Y-25526192D01*
X178052698Y-25595000D01*
X178045922Y-25663808D01*
X178025851Y-25729969D01*
X178025850Y-25729972D01*
X177993258Y-25790949D01*
X177977707Y-25809897D01*
X177949396Y-25844396D01*
X177914897Y-25872707D01*
X177895949Y-25888258D01*
X177834972Y-25920850D01*
X177834969Y-25920851D01*
X177768809Y-25940922D01*
X177717244Y-25946000D01*
X176482756Y-25946000D01*
X176431191Y-25940922D01*
X176365031Y-25920851D01*
X176365028Y-25920850D01*
X176304051Y-25888258D01*
X176285103Y-25872707D01*
X176250604Y-25844396D01*
X176222293Y-25809897D01*
X176206742Y-25790949D01*
X176174150Y-25729972D01*
X176174149Y-25729969D01*
X176154078Y-25663808D01*
X176147302Y-25595000D01*
X176154078Y-25526192D01*
X176174149Y-25460031D01*
X176174150Y-25460028D01*
X176206742Y-25399051D01*
X176222293Y-25380103D01*
X176250604Y-25345604D01*
X176285103Y-25317293D01*
X176304051Y-25301742D01*
X176365028Y-25269150D01*
X176365031Y-25269149D01*
X176431191Y-25249078D01*
X176482756Y-25244000D01*
X177717244Y-25244000D01*
X177768809Y-25249078D01*
X177768809Y-25249078D01*
G37*
G36*
X172568809Y-25249078D02*
G01*
X172634969Y-25269149D01*
X172634972Y-25269150D01*
X172695949Y-25301742D01*
X172714897Y-25317293D01*
X172749396Y-25345604D01*
X172777707Y-25380103D01*
X172793258Y-25399051D01*
X172825850Y-25460028D01*
X172825851Y-25460031D01*
X172845922Y-25526192D01*
X172852698Y-25595000D01*
X172845922Y-25663808D01*
X172825851Y-25729969D01*
X172825850Y-25729972D01*
X172793258Y-25790949D01*
X172777707Y-25809897D01*
X172749396Y-25844396D01*
X172714897Y-25872707D01*
X172695949Y-25888258D01*
X172634972Y-25920850D01*
X172634969Y-25920851D01*
X172568809Y-25940922D01*
X172517244Y-25946000D01*
X171282756Y-25946000D01*
X171231191Y-25940922D01*
X171165031Y-25920851D01*
X171165028Y-25920850D01*
X171104051Y-25888258D01*
X171085103Y-25872707D01*
X171050604Y-25844396D01*
X171022293Y-25809897D01*
X171006742Y-25790949D01*
X170974150Y-25729972D01*
X170974149Y-25729969D01*
X170954078Y-25663808D01*
X170947302Y-25595000D01*
X170954078Y-25526192D01*
X170974149Y-25460031D01*
X170974150Y-25460028D01*
X171006742Y-25399051D01*
X171022293Y-25380103D01*
X171050604Y-25345604D01*
X171085103Y-25317293D01*
X171104051Y-25301742D01*
X171165028Y-25269150D01*
X171165031Y-25269149D01*
X171231191Y-25249078D01*
X171282756Y-25244000D01*
X172517244Y-25244000D01*
X172568809Y-25249078D01*
X172568809Y-25249078D01*
G37*
G36*
X169786000Y-25521000D02*
G01*
X168214000Y-25521000D01*
X168214000Y-24259000D01*
X169786000Y-24259000D01*
X169786000Y-25521000D01*
X169786000Y-25521000D01*
G37*
G36*
X114379487Y-22748996D02*
G01*
X114616253Y-22847068D01*
X114616255Y-22847069D01*
X114829339Y-22989447D01*
X115010553Y-23170661D01*
X115150997Y-23380850D01*
X115152932Y-23383747D01*
X115251004Y-23620513D01*
X115301000Y-23871861D01*
X115301000Y-24128139D01*
X115251004Y-24379487D01*
X115152932Y-24616253D01*
X115152931Y-24616255D01*
X115010553Y-24829339D01*
X114829339Y-25010553D01*
X114616255Y-25152931D01*
X114616254Y-25152932D01*
X114616253Y-25152932D01*
X114379487Y-25251004D01*
X114128139Y-25301000D01*
X113871861Y-25301000D01*
X113620513Y-25251004D01*
X113383747Y-25152932D01*
X113383746Y-25152932D01*
X113383745Y-25152931D01*
X113170661Y-25010553D01*
X112989447Y-24829339D01*
X112847069Y-24616255D01*
X112847068Y-24616253D01*
X112748996Y-24379487D01*
X112699000Y-24128139D01*
X112699000Y-23871861D01*
X112748996Y-23620513D01*
X112847068Y-23383747D01*
X112849004Y-23380850D01*
X112989447Y-23170661D01*
X113170661Y-22989447D01*
X113383745Y-22847069D01*
X113383747Y-22847068D01*
X113620513Y-22748996D01*
X113871861Y-22699000D01*
X114128139Y-22699000D01*
X114379487Y-22748996D01*
X114379487Y-22748996D01*
G37*
G36*
X121879487Y-22748996D02*
G01*
X122116253Y-22847068D01*
X122116255Y-22847069D01*
X122329339Y-22989447D01*
X122510553Y-23170661D01*
X122650997Y-23380850D01*
X122652932Y-23383747D01*
X122751004Y-23620513D01*
X122801000Y-23871861D01*
X122801000Y-24128139D01*
X122751004Y-24379487D01*
X122652932Y-24616253D01*
X122652931Y-24616255D01*
X122510553Y-24829339D01*
X122329339Y-25010553D01*
X122116255Y-25152931D01*
X122116254Y-25152932D01*
X122116253Y-25152932D01*
X121879487Y-25251004D01*
X121628139Y-25301000D01*
X121371861Y-25301000D01*
X121120513Y-25251004D01*
X120883747Y-25152932D01*
X120883746Y-25152932D01*
X120883745Y-25152931D01*
X120670661Y-25010553D01*
X120489447Y-24829339D01*
X120347069Y-24616255D01*
X120347068Y-24616253D01*
X120248996Y-24379487D01*
X120199000Y-24128139D01*
X120199000Y-23871861D01*
X120248996Y-23620513D01*
X120347068Y-23383747D01*
X120349004Y-23380850D01*
X120489447Y-23170661D01*
X120670661Y-22989447D01*
X120883745Y-22847069D01*
X120883747Y-22847068D01*
X121120513Y-22748996D01*
X121371861Y-22699000D01*
X121628139Y-22699000D01*
X121879487Y-22748996D01*
X121879487Y-22748996D01*
G37*
G36*
X160879487Y-22748996D02*
G01*
X161116253Y-22847068D01*
X161116255Y-22847069D01*
X161329339Y-22989447D01*
X161510553Y-23170661D01*
X161650997Y-23380850D01*
X161652932Y-23383747D01*
X161751004Y-23620513D01*
X161801000Y-23871861D01*
X161801000Y-24128139D01*
X161751004Y-24379487D01*
X161652932Y-24616253D01*
X161652931Y-24616255D01*
X161510553Y-24829339D01*
X161329339Y-25010553D01*
X161116255Y-25152931D01*
X161116254Y-25152932D01*
X161116253Y-25152932D01*
X160879487Y-25251004D01*
X160628139Y-25301000D01*
X160371861Y-25301000D01*
X160120513Y-25251004D01*
X159883747Y-25152932D01*
X159883746Y-25152932D01*
X159883745Y-25152931D01*
X159670661Y-25010553D01*
X159489447Y-24829339D01*
X159347069Y-24616255D01*
X159347068Y-24616253D01*
X159248996Y-24379487D01*
X159199000Y-24128139D01*
X159199000Y-23871861D01*
X159248996Y-23620513D01*
X159347068Y-23383747D01*
X159349004Y-23380850D01*
X159489447Y-23170661D01*
X159670661Y-22989447D01*
X159883745Y-22847069D01*
X159883747Y-22847068D01*
X160120513Y-22748996D01*
X160371861Y-22699000D01*
X160628139Y-22699000D01*
X160879487Y-22748996D01*
X160879487Y-22748996D01*
G37*
G36*
X82879487Y-22748996D02*
G01*
X83116253Y-22847068D01*
X83116255Y-22847069D01*
X83329339Y-22989447D01*
X83510553Y-23170661D01*
X83650997Y-23380850D01*
X83652932Y-23383747D01*
X83751004Y-23620513D01*
X83801000Y-23871861D01*
X83801000Y-24128139D01*
X83751004Y-24379487D01*
X83652932Y-24616253D01*
X83652931Y-24616255D01*
X83510553Y-24829339D01*
X83329339Y-25010553D01*
X83116255Y-25152931D01*
X83116254Y-25152932D01*
X83116253Y-25152932D01*
X82879487Y-25251004D01*
X82628139Y-25301000D01*
X82371861Y-25301000D01*
X82120513Y-25251004D01*
X81883747Y-25152932D01*
X81883746Y-25152932D01*
X81883745Y-25152931D01*
X81670661Y-25010553D01*
X81489447Y-24829339D01*
X81347069Y-24616255D01*
X81347068Y-24616253D01*
X81248996Y-24379487D01*
X81199000Y-24128139D01*
X81199000Y-23871861D01*
X81248996Y-23620513D01*
X81347068Y-23383747D01*
X81349004Y-23380850D01*
X81489447Y-23170661D01*
X81670661Y-22989447D01*
X81883745Y-22847069D01*
X81883747Y-22847068D01*
X82120513Y-22748996D01*
X82371861Y-22699000D01*
X82628139Y-22699000D01*
X82879487Y-22748996D01*
X82879487Y-22748996D01*
G37*
G36*
X153379487Y-22748996D02*
G01*
X153616253Y-22847068D01*
X153616255Y-22847069D01*
X153829339Y-22989447D01*
X154010553Y-23170661D01*
X154150997Y-23380850D01*
X154152932Y-23383747D01*
X154251004Y-23620513D01*
X154301000Y-23871861D01*
X154301000Y-24128139D01*
X154251004Y-24379487D01*
X154152932Y-24616253D01*
X154152931Y-24616255D01*
X154010553Y-24829339D01*
X153829339Y-25010553D01*
X153616255Y-25152931D01*
X153616254Y-25152932D01*
X153616253Y-25152932D01*
X153379487Y-25251004D01*
X153128139Y-25301000D01*
X152871861Y-25301000D01*
X152620513Y-25251004D01*
X152383747Y-25152932D01*
X152383746Y-25152932D01*
X152383745Y-25152931D01*
X152170661Y-25010553D01*
X151989447Y-24829339D01*
X151847069Y-24616255D01*
X151847068Y-24616253D01*
X151748996Y-24379487D01*
X151699000Y-24128139D01*
X151699000Y-23871861D01*
X151748996Y-23620513D01*
X151847068Y-23383747D01*
X151849004Y-23380850D01*
X151989447Y-23170661D01*
X152170661Y-22989447D01*
X152383745Y-22847069D01*
X152383747Y-22847068D01*
X152620513Y-22748996D01*
X152871861Y-22699000D01*
X153128139Y-22699000D01*
X153379487Y-22748996D01*
X153379487Y-22748996D01*
G37*
G36*
X43879487Y-22748996D02*
G01*
X44116253Y-22847068D01*
X44116255Y-22847069D01*
X44329339Y-22989447D01*
X44510553Y-23170661D01*
X44650997Y-23380850D01*
X44652932Y-23383747D01*
X44751004Y-23620513D01*
X44801000Y-23871861D01*
X44801000Y-24128139D01*
X44751004Y-24379487D01*
X44652932Y-24616253D01*
X44652931Y-24616255D01*
X44510553Y-24829339D01*
X44329339Y-25010553D01*
X44116255Y-25152931D01*
X44116254Y-25152932D01*
X44116253Y-25152932D01*
X43879487Y-25251004D01*
X43628139Y-25301000D01*
X43371861Y-25301000D01*
X43120513Y-25251004D01*
X42883747Y-25152932D01*
X42883746Y-25152932D01*
X42883745Y-25152931D01*
X42670661Y-25010553D01*
X42489447Y-24829339D01*
X42347069Y-24616255D01*
X42347068Y-24616253D01*
X42248996Y-24379487D01*
X42199000Y-24128139D01*
X42199000Y-23871861D01*
X42248996Y-23620513D01*
X42347068Y-23383747D01*
X42349004Y-23380850D01*
X42489447Y-23170661D01*
X42670661Y-22989447D01*
X42883745Y-22847069D01*
X42883747Y-22847068D01*
X43120513Y-22748996D01*
X43371861Y-22699000D01*
X43628139Y-22699000D01*
X43879487Y-22748996D01*
X43879487Y-22748996D01*
G37*
G36*
X36379487Y-22748996D02*
G01*
X36616253Y-22847068D01*
X36616255Y-22847069D01*
X36829339Y-22989447D01*
X37010553Y-23170661D01*
X37150997Y-23380850D01*
X37152932Y-23383747D01*
X37251004Y-23620513D01*
X37301000Y-23871861D01*
X37301000Y-24128139D01*
X37251004Y-24379487D01*
X37152932Y-24616253D01*
X37152931Y-24616255D01*
X37010553Y-24829339D01*
X36829339Y-25010553D01*
X36616255Y-25152931D01*
X36616254Y-25152932D01*
X36616253Y-25152932D01*
X36379487Y-25251004D01*
X36128139Y-25301000D01*
X35871861Y-25301000D01*
X35620513Y-25251004D01*
X35383747Y-25152932D01*
X35383746Y-25152932D01*
X35383745Y-25152931D01*
X35170661Y-25010553D01*
X34989447Y-24829339D01*
X34847069Y-24616255D01*
X34847068Y-24616253D01*
X34748996Y-24379487D01*
X34699000Y-24128139D01*
X34699000Y-23871861D01*
X34748996Y-23620513D01*
X34847068Y-23383747D01*
X34849004Y-23380850D01*
X34989447Y-23170661D01*
X35170661Y-22989447D01*
X35383745Y-22847069D01*
X35383747Y-22847068D01*
X35620513Y-22748996D01*
X35871861Y-22699000D01*
X36128139Y-22699000D01*
X36379487Y-22748996D01*
X36379487Y-22748996D01*
G37*
G36*
X75379487Y-22748996D02*
G01*
X75616253Y-22847068D01*
X75616255Y-22847069D01*
X75829339Y-22989447D01*
X76010553Y-23170661D01*
X76150997Y-23380850D01*
X76152932Y-23383747D01*
X76251004Y-23620513D01*
X76301000Y-23871861D01*
X76301000Y-24128139D01*
X76251004Y-24379487D01*
X76152932Y-24616253D01*
X76152931Y-24616255D01*
X76010553Y-24829339D01*
X75829339Y-25010553D01*
X75616255Y-25152931D01*
X75616254Y-25152932D01*
X75616253Y-25152932D01*
X75379487Y-25251004D01*
X75128139Y-25301000D01*
X74871861Y-25301000D01*
X74620513Y-25251004D01*
X74383747Y-25152932D01*
X74383746Y-25152932D01*
X74383745Y-25152931D01*
X74170661Y-25010553D01*
X73989447Y-24829339D01*
X73847069Y-24616255D01*
X73847068Y-24616253D01*
X73748996Y-24379487D01*
X73699000Y-24128139D01*
X73699000Y-23871861D01*
X73748996Y-23620513D01*
X73847068Y-23383747D01*
X73849004Y-23380850D01*
X73989447Y-23170661D01*
X74170661Y-22989447D01*
X74383745Y-22847069D01*
X74383747Y-22847068D01*
X74620513Y-22748996D01*
X74871861Y-22699000D01*
X75128139Y-22699000D01*
X75379487Y-22748996D01*
X75379487Y-22748996D01*
G37*
G36*
X172568809Y-23979078D02*
G01*
X172634969Y-23999149D01*
X172634972Y-23999150D01*
X172695949Y-24031742D01*
X172714897Y-24047293D01*
X172749396Y-24075604D01*
X172769413Y-24099996D01*
X172793258Y-24129051D01*
X172825850Y-24190028D01*
X172825851Y-24190031D01*
X172845922Y-24256192D01*
X172852698Y-24325000D01*
X172845922Y-24393808D01*
X172825851Y-24459969D01*
X172825850Y-24459972D01*
X172793258Y-24520949D01*
X172777707Y-24539897D01*
X172749396Y-24574396D01*
X172714897Y-24602707D01*
X172695949Y-24618258D01*
X172634972Y-24650850D01*
X172634969Y-24650851D01*
X172568809Y-24670922D01*
X172517244Y-24676000D01*
X171282756Y-24676000D01*
X171231191Y-24670922D01*
X171165031Y-24650851D01*
X171165028Y-24650850D01*
X171104051Y-24618258D01*
X171085103Y-24602707D01*
X171050604Y-24574396D01*
X171022293Y-24539897D01*
X171006742Y-24520949D01*
X170974150Y-24459972D01*
X170974149Y-24459969D01*
X170954078Y-24393808D01*
X170947302Y-24325000D01*
X170954078Y-24256192D01*
X170974149Y-24190031D01*
X170974150Y-24190028D01*
X171006742Y-24129051D01*
X171030587Y-24099996D01*
X171050604Y-24075604D01*
X171085103Y-24047293D01*
X171104051Y-24031742D01*
X171165028Y-23999150D01*
X171165031Y-23999149D01*
X171231191Y-23979078D01*
X171282756Y-23974000D01*
X172517244Y-23974000D01*
X172568809Y-23979078D01*
X172568809Y-23979078D01*
G37*
G36*
X177768809Y-23979078D02*
G01*
X177834969Y-23999149D01*
X177834972Y-23999150D01*
X177895949Y-24031742D01*
X177914897Y-24047293D01*
X177949396Y-24075604D01*
X177969413Y-24099996D01*
X177993258Y-24129051D01*
X178025850Y-24190028D01*
X178025851Y-24190031D01*
X178045922Y-24256192D01*
X178052698Y-24325000D01*
X178045922Y-24393808D01*
X178025851Y-24459969D01*
X178025850Y-24459972D01*
X177993258Y-24520949D01*
X177977707Y-24539897D01*
X177949396Y-24574396D01*
X177914897Y-24602707D01*
X177895949Y-24618258D01*
X177834972Y-24650850D01*
X177834969Y-24650851D01*
X177768809Y-24670922D01*
X177717244Y-24676000D01*
X176482756Y-24676000D01*
X176431191Y-24670922D01*
X176365031Y-24650851D01*
X176365028Y-24650850D01*
X176304051Y-24618258D01*
X176285103Y-24602707D01*
X176250604Y-24574396D01*
X176222293Y-24539897D01*
X176206742Y-24520949D01*
X176174150Y-24459972D01*
X176174149Y-24459969D01*
X176154078Y-24393808D01*
X176147302Y-24325000D01*
X176154078Y-24256192D01*
X176174149Y-24190031D01*
X176174150Y-24190028D01*
X176206742Y-24129051D01*
X176230587Y-24099996D01*
X176250604Y-24075604D01*
X176285103Y-24047293D01*
X176304051Y-24031742D01*
X176365028Y-23999150D01*
X176365031Y-23999149D01*
X176431191Y-23979078D01*
X176482756Y-23974000D01*
X177717244Y-23974000D01*
X177768809Y-23979078D01*
X177768809Y-23979078D01*
G37*
G36*
X169786000Y-23741000D02*
G01*
X168214000Y-23741000D01*
X168214000Y-22479000D01*
X169786000Y-22479000D01*
X169786000Y-23741000D01*
X169786000Y-23741000D01*
G37*
G36*
X172568809Y-22709078D02*
G01*
X172634969Y-22729149D01*
X172634972Y-22729150D01*
X172695949Y-22761742D01*
X172714897Y-22777293D01*
X172749396Y-22805604D01*
X172776498Y-22838629D01*
X172793258Y-22859051D01*
X172825850Y-22920028D01*
X172825851Y-22920031D01*
X172845922Y-22986192D01*
X172852698Y-23055000D01*
X172845922Y-23123808D01*
X172831708Y-23170661D01*
X172825850Y-23189972D01*
X172793258Y-23250949D01*
X172777707Y-23269897D01*
X172749396Y-23304396D01*
X172714897Y-23332707D01*
X172695949Y-23348258D01*
X172634972Y-23380850D01*
X172634969Y-23380851D01*
X172568809Y-23400922D01*
X172517244Y-23406000D01*
X171282756Y-23406000D01*
X171231191Y-23400922D01*
X171165031Y-23380851D01*
X171165028Y-23380850D01*
X171104051Y-23348258D01*
X171085103Y-23332707D01*
X171050604Y-23304396D01*
X171022293Y-23269897D01*
X171006742Y-23250949D01*
X170974150Y-23189972D01*
X170968292Y-23170661D01*
X170954078Y-23123808D01*
X170947302Y-23055000D01*
X170954078Y-22986192D01*
X170974149Y-22920031D01*
X170974150Y-22920028D01*
X171006742Y-22859051D01*
X171023502Y-22838629D01*
X171050604Y-22805604D01*
X171085103Y-22777293D01*
X171104051Y-22761742D01*
X171165028Y-22729150D01*
X171165031Y-22729149D01*
X171231191Y-22709078D01*
X171282756Y-22704000D01*
X172517244Y-22704000D01*
X172568809Y-22709078D01*
X172568809Y-22709078D01*
G37*
G36*
X177768809Y-22709078D02*
G01*
X177834969Y-22729149D01*
X177834972Y-22729150D01*
X177895949Y-22761742D01*
X177914897Y-22777293D01*
X177949396Y-22805604D01*
X177976498Y-22838629D01*
X177993258Y-22859051D01*
X178025850Y-22920028D01*
X178025851Y-22920031D01*
X178045922Y-22986192D01*
X178052698Y-23055000D01*
X178045922Y-23123808D01*
X178031708Y-23170661D01*
X178025850Y-23189972D01*
X177993258Y-23250949D01*
X177977707Y-23269897D01*
X177949396Y-23304396D01*
X177914897Y-23332707D01*
X177895949Y-23348258D01*
X177834972Y-23380850D01*
X177834969Y-23380851D01*
X177768809Y-23400922D01*
X177717244Y-23406000D01*
X176482756Y-23406000D01*
X176431191Y-23400922D01*
X176365031Y-23380851D01*
X176365028Y-23380850D01*
X176304051Y-23348258D01*
X176285103Y-23332707D01*
X176250604Y-23304396D01*
X176222293Y-23269897D01*
X176206742Y-23250949D01*
X176174150Y-23189972D01*
X176168292Y-23170661D01*
X176154078Y-23123808D01*
X176147302Y-23055000D01*
X176154078Y-22986192D01*
X176174149Y-22920031D01*
X176174150Y-22920028D01*
X176206742Y-22859051D01*
X176223502Y-22838629D01*
X176250604Y-22805604D01*
X176285103Y-22777293D01*
X176304051Y-22761742D01*
X176365028Y-22729150D01*
X176365031Y-22729149D01*
X176431191Y-22709078D01*
X176482756Y-22704000D01*
X177717244Y-22704000D01*
X177768809Y-22709078D01*
X177768809Y-22709078D01*
G37*
G36*
X49801000Y-23201000D02*
G01*
X48699000Y-23201000D01*
X48699000Y-21849000D01*
X49801000Y-21849000D01*
X49801000Y-23201000D01*
X49801000Y-23201000D01*
G37*
G36*
X88801000Y-23201000D02*
G01*
X87699000Y-23201000D01*
X87699000Y-21849000D01*
X88801000Y-21849000D01*
X88801000Y-23201000D01*
X88801000Y-23201000D01*
G37*
G36*
X166801000Y-23201000D02*
G01*
X165699000Y-23201000D01*
X165699000Y-21849000D01*
X166801000Y-21849000D01*
X166801000Y-23201000D01*
X166801000Y-23201000D01*
G37*
G36*
X128301000Y-23201000D02*
G01*
X127199000Y-23201000D01*
X127199000Y-21849000D01*
X128301000Y-21849000D01*
X128301000Y-23201000D01*
X128301000Y-23201000D01*
G37*
M02*
