%TF.GenerationSoftware,KiCad,Pcbnew,(5.1.4)-1*%
%TF.CreationDate,2019-12-28T21:17:41+08:00*%
%TF.ProjectId,LPF,4c50462e-6b69-4636-9164-5f7063625858,rev?*%
%TF.SameCoordinates,Original*%
%TF.FileFunction,Soldermask,Top*%
%TF.FilePolarity,Negative*%
%FSLAX46Y46*%
G04 Gerber Fmt 4.6, Leading zero omitted, Abs format (unit mm)*
G04 Created by KiCad (PCBNEW (5.1.4)-1) date 2019-12-28 21:17:41*
%MOMM*%
%LPD*%
G04 APERTURE LIST*
%ADD10C,0.100000*%
%ADD11C,3.000000*%
%ADD12C,0.150000*%
%ADD13C,0.350000*%
G04 APERTURE END LIST*
D10*
G36*
X7500000Y-31500000D02*
G01*
X1500000Y-37500000D01*
X0Y-36000000D01*
X6500000Y-30500000D01*
X7500000Y-31500000D01*
G37*
X7500000Y-31500000D02*
X1500000Y-37500000D01*
X0Y-36000000D01*
X6500000Y-30500000D01*
X7500000Y-31500000D01*
G36*
X3500000Y-157000000D02*
G01*
X-3000000Y-163500000D01*
X-9500000Y-157000000D01*
X-3000000Y-150500000D01*
X3500000Y-157000000D01*
G37*
X3500000Y-157000000D02*
X-3000000Y-163500000D01*
X-9500000Y-157000000D01*
X-3000000Y-150500000D01*
X3500000Y-157000000D01*
G36*
X7000000Y-30500000D02*
G01*
X1000000Y-36500000D01*
X-5000000Y-30500000D01*
X1000000Y-24500000D01*
X7000000Y-30500000D01*
G37*
X7000000Y-30500000D02*
X1000000Y-36500000D01*
X-5000000Y-30500000D01*
X1000000Y-24500000D01*
X7000000Y-30500000D01*
D11*
X9500000Y-145000000D02*
X-1500000Y-156000000D01*
X26000000Y-145000000D02*
X9500000Y-145000000D01*
X32500000Y-151500000D02*
X26000000Y-145000000D01*
X30500000Y-156500000D02*
X23500000Y-150000000D01*
X54000000Y-156500000D02*
X30500000Y-156500000D01*
X66000000Y-144500000D02*
X54000000Y-156500000D01*
X70000000Y-144500000D02*
X66000000Y-144500000D01*
X77000000Y-151000000D02*
X70000000Y-144500000D01*
X74500000Y-156000000D02*
X68000000Y-149500000D01*
X75500000Y-156000000D02*
X74500000Y-156000000D01*
X95500000Y-156000000D02*
X75500000Y-156000000D01*
X106500000Y-145000000D02*
X95500000Y-156000000D01*
X107500000Y-144500000D02*
X106500000Y-145000000D01*
X113000000Y-144500000D02*
X107500000Y-144500000D01*
X113500000Y-145000000D02*
X113000000Y-144500000D01*
X120000000Y-151500000D02*
X113500000Y-145000000D01*
X118000000Y-156500000D02*
X111000000Y-150000000D01*
X139500000Y-156500000D02*
X118000000Y-156500000D01*
X151500000Y-145000000D02*
X139500000Y-156500000D01*
X156500000Y-145000000D02*
X151500000Y-145000000D01*
X157000000Y-145500000D02*
X156500000Y-145000000D01*
X163500000Y-152000000D02*
X157000000Y-145500000D01*
X153000000Y-44500000D02*
X182500000Y-44500000D01*
X146000000Y-37000000D02*
X153000000Y-44500000D01*
X135000000Y-40500000D02*
X144000000Y-49500000D01*
X142000000Y-40500000D02*
X147500000Y-45500000D01*
X135500000Y-34500000D02*
X142000000Y-40500000D01*
X126000000Y-34500000D02*
X135500000Y-34500000D01*
X118000000Y-42500000D02*
X126000000Y-34500000D01*
X106500000Y-42500000D02*
X118000000Y-42500000D01*
X101000000Y-37000000D02*
X106500000Y-42500000D01*
X91000000Y-40500000D02*
X99500000Y-49000000D01*
X96500000Y-39500000D02*
X103000000Y-46000000D01*
X92500000Y-35500000D02*
X96500000Y-39500000D01*
X89000000Y-35500000D02*
X92500000Y-35500000D01*
X88500000Y-36000000D02*
X89000000Y-35500000D01*
X81000000Y-43000000D02*
X88500000Y-36000000D01*
X62500000Y-43000000D02*
X81000000Y-43000000D01*
X57000000Y-37500000D02*
X62500000Y-43000000D01*
X3000000Y-42000000D02*
X10500000Y-49500000D01*
X2000000Y-40500000D02*
X3000000Y-42000000D01*
X7500000Y-39500000D02*
X14500000Y-46500000D01*
X6500000Y-39000000D02*
X7500000Y-39500000D01*
X6500000Y-36500000D02*
X6500000Y-39000000D01*
X3000000Y-33000000D02*
X6500000Y-36500000D01*
X18000000Y-43000000D02*
X12500000Y-37500000D01*
X48000000Y-35500000D02*
X58500000Y-46000000D01*
X44500000Y-35500000D02*
X48000000Y-35500000D01*
X44000000Y-36000000D02*
X44500000Y-35500000D01*
X37000000Y-43000000D02*
X44000000Y-36000000D01*
X36000000Y-43000000D02*
X37000000Y-43000000D01*
X18000000Y-43000000D02*
X36000000Y-43000000D01*
D12*
X48500000Y-35500000D02*
X53000000Y-40000000D01*
X44000000Y-35500000D02*
X48500000Y-35500000D01*
X37000000Y-42500000D02*
X44000000Y-35500000D01*
X18000000Y-42500000D02*
X37000000Y-42500000D01*
D13*
G36*
X200889943Y-162066248D02*
G01*
X201445189Y-162296238D01*
X201521167Y-162347005D01*
X201944899Y-162630134D01*
X202369866Y-163055101D01*
X202382959Y-163074696D01*
X202703762Y-163554811D01*
X202933752Y-164110057D01*
X203051000Y-164699501D01*
X203051000Y-165300499D01*
X202933752Y-165889943D01*
X202703762Y-166445189D01*
X202586176Y-166621168D01*
X202369866Y-166944899D01*
X201944899Y-167369866D01*
X201870736Y-167419420D01*
X201445189Y-167703762D01*
X200889943Y-167933752D01*
X200300499Y-168051000D01*
X199699501Y-168051000D01*
X199110057Y-167933752D01*
X198554811Y-167703762D01*
X198129264Y-167419420D01*
X198055101Y-167369866D01*
X197630134Y-166944899D01*
X197413824Y-166621168D01*
X197296238Y-166445189D01*
X197066248Y-165889943D01*
X196949000Y-165300499D01*
X196949000Y-164699501D01*
X197066248Y-164110057D01*
X197296238Y-163554811D01*
X197617041Y-163074696D01*
X197630134Y-163055101D01*
X198055101Y-162630134D01*
X198478833Y-162347005D01*
X198554811Y-162296238D01*
X199110057Y-162066248D01*
X199699501Y-161949000D01*
X200300499Y-161949000D01*
X200889943Y-162066248D01*
X200889943Y-162066248D01*
G37*
G36*
X8889943Y-162066248D02*
G01*
X9445189Y-162296238D01*
X9521167Y-162347005D01*
X9944899Y-162630134D01*
X10369866Y-163055101D01*
X10382959Y-163074696D01*
X10703762Y-163554811D01*
X10933752Y-164110057D01*
X11051000Y-164699501D01*
X11051000Y-165300499D01*
X10933752Y-165889943D01*
X10703762Y-166445189D01*
X10586176Y-166621168D01*
X10369866Y-166944899D01*
X9944899Y-167369866D01*
X9870736Y-167419420D01*
X9445189Y-167703762D01*
X8889943Y-167933752D01*
X8300499Y-168051000D01*
X7699501Y-168051000D01*
X7110057Y-167933752D01*
X6554811Y-167703762D01*
X6129264Y-167419420D01*
X6055101Y-167369866D01*
X5630134Y-166944899D01*
X5413824Y-166621168D01*
X5296238Y-166445189D01*
X5066248Y-165889943D01*
X4949000Y-165300499D01*
X4949000Y-164699501D01*
X5066248Y-164110057D01*
X5296238Y-163554811D01*
X5617041Y-163074696D01*
X5630134Y-163055101D01*
X6055101Y-162630134D01*
X6478833Y-162347005D01*
X6554811Y-162296238D01*
X7110057Y-162066248D01*
X7699501Y-161949000D01*
X8300499Y-161949000D01*
X8889943Y-162066248D01*
X8889943Y-162066248D01*
G37*
G36*
X5873092Y-160894113D02*
G01*
X-1270101Y-168037306D01*
X-4877760Y-164429647D01*
X2265433Y-157286454D01*
X5873092Y-160894113D01*
X5873092Y-160894113D01*
G37*
G36*
X149682788Y-164802297D02*
G01*
X149919554Y-164900369D01*
X149919556Y-164900370D01*
X150132640Y-165042748D01*
X150313854Y-165223962D01*
X150448293Y-165425164D01*
X150456233Y-165437048D01*
X150554305Y-165673814D01*
X150604301Y-165925162D01*
X150604301Y-166181440D01*
X150554305Y-166432788D01*
X150476275Y-166621168D01*
X150456232Y-166669556D01*
X150313854Y-166882640D01*
X150132640Y-167063854D01*
X149919556Y-167206232D01*
X149919555Y-167206233D01*
X149919554Y-167206233D01*
X149682788Y-167304305D01*
X149431440Y-167354301D01*
X149175162Y-167354301D01*
X148923814Y-167304305D01*
X148687048Y-167206233D01*
X148687047Y-167206233D01*
X148687046Y-167206232D01*
X148473962Y-167063854D01*
X148292748Y-166882640D01*
X148150370Y-166669556D01*
X148130327Y-166621168D01*
X148052297Y-166432788D01*
X148002301Y-166181440D01*
X148002301Y-165925162D01*
X148052297Y-165673814D01*
X148150369Y-165437048D01*
X148158310Y-165425164D01*
X148292748Y-165223962D01*
X148473962Y-165042748D01*
X148687046Y-164900370D01*
X148687048Y-164900369D01*
X148923814Y-164802297D01*
X149175162Y-164752301D01*
X149431440Y-164752301D01*
X149682788Y-164802297D01*
X149682788Y-164802297D01*
G37*
G36*
X105932788Y-164302297D02*
G01*
X106140231Y-164388223D01*
X106169556Y-164400370D01*
X106382640Y-164542748D01*
X106563854Y-164723962D01*
X106697391Y-164923814D01*
X106706233Y-164937048D01*
X106804305Y-165173814D01*
X106854301Y-165425162D01*
X106854301Y-165681440D01*
X106804305Y-165932788D01*
X106772831Y-166008772D01*
X106706232Y-166169556D01*
X106563854Y-166382640D01*
X106382640Y-166563854D01*
X106169556Y-166706232D01*
X106169555Y-166706233D01*
X106169554Y-166706233D01*
X105932788Y-166804305D01*
X105681440Y-166854301D01*
X105425162Y-166854301D01*
X105173814Y-166804305D01*
X104937048Y-166706233D01*
X104937047Y-166706233D01*
X104937046Y-166706232D01*
X104723962Y-166563854D01*
X104542748Y-166382640D01*
X104400370Y-166169556D01*
X104333771Y-166008772D01*
X104302297Y-165932788D01*
X104252301Y-165681440D01*
X104252301Y-165425162D01*
X104302297Y-165173814D01*
X104400369Y-164937048D01*
X104409212Y-164923814D01*
X104542748Y-164723962D01*
X104723962Y-164542748D01*
X104937046Y-164400370D01*
X104966371Y-164388223D01*
X105173814Y-164302297D01*
X105425162Y-164252301D01*
X105681440Y-164252301D01*
X105932788Y-164302297D01*
X105932788Y-164302297D01*
G37*
G36*
X18432788Y-164302297D02*
G01*
X18640231Y-164388223D01*
X18669556Y-164400370D01*
X18882640Y-164542748D01*
X19063854Y-164723962D01*
X19197391Y-164923814D01*
X19206233Y-164937048D01*
X19304305Y-165173814D01*
X19354301Y-165425162D01*
X19354301Y-165681440D01*
X19304305Y-165932788D01*
X19272831Y-166008772D01*
X19206232Y-166169556D01*
X19063854Y-166382640D01*
X18882640Y-166563854D01*
X18669556Y-166706232D01*
X18669555Y-166706233D01*
X18669554Y-166706233D01*
X18432788Y-166804305D01*
X18181440Y-166854301D01*
X17925162Y-166854301D01*
X17673814Y-166804305D01*
X17437048Y-166706233D01*
X17437047Y-166706233D01*
X17437046Y-166706232D01*
X17223962Y-166563854D01*
X17042748Y-166382640D01*
X16900370Y-166169556D01*
X16833771Y-166008772D01*
X16802297Y-165932788D01*
X16752301Y-165681440D01*
X16752301Y-165425162D01*
X16802297Y-165173814D01*
X16900369Y-164937048D01*
X16909212Y-164923814D01*
X17042748Y-164723962D01*
X17223962Y-164542748D01*
X17437046Y-164400370D01*
X17466371Y-164388223D01*
X17673814Y-164302297D01*
X17925162Y-164252301D01*
X18181440Y-164252301D01*
X18432788Y-164302297D01*
X18432788Y-164302297D01*
G37*
G36*
X63182788Y-164052297D02*
G01*
X63390262Y-164138236D01*
X63419556Y-164150370D01*
X63632640Y-164292748D01*
X63813854Y-164473962D01*
X63917150Y-164628555D01*
X63956233Y-164687048D01*
X64054305Y-164923814D01*
X64104301Y-165175162D01*
X64104301Y-165431440D01*
X64054305Y-165682788D01*
X63996339Y-165822730D01*
X63956232Y-165919556D01*
X63813854Y-166132640D01*
X63632640Y-166313854D01*
X63419556Y-166456232D01*
X63419555Y-166456233D01*
X63419554Y-166456233D01*
X63182788Y-166554305D01*
X62931440Y-166604301D01*
X62675162Y-166604301D01*
X62423814Y-166554305D01*
X62187048Y-166456233D01*
X62187047Y-166456233D01*
X62187046Y-166456232D01*
X61973962Y-166313854D01*
X61792748Y-166132640D01*
X61650370Y-165919556D01*
X61610263Y-165822730D01*
X61552297Y-165682788D01*
X61502301Y-165431440D01*
X61502301Y-165175162D01*
X61552297Y-164923814D01*
X61650369Y-164687048D01*
X61689453Y-164628555D01*
X61792748Y-164473962D01*
X61973962Y-164292748D01*
X62187046Y-164150370D01*
X62216340Y-164138236D01*
X62423814Y-164052297D01*
X62675162Y-164002301D01*
X62931440Y-164002301D01*
X63182788Y-164052297D01*
X63182788Y-164052297D01*
G37*
G36*
X144379487Y-159498996D02*
G01*
X144616253Y-159597068D01*
X144616255Y-159597069D01*
X144829339Y-159739447D01*
X145010553Y-159920661D01*
X145144992Y-160121863D01*
X145152932Y-160133747D01*
X145251004Y-160370513D01*
X145301000Y-160621861D01*
X145301000Y-160878139D01*
X145251004Y-161129487D01*
X145163378Y-161341034D01*
X145152931Y-161366255D01*
X145010553Y-161579339D01*
X144829339Y-161760553D01*
X144616255Y-161902931D01*
X144616254Y-161902932D01*
X144616253Y-161902932D01*
X144379487Y-162001004D01*
X144128139Y-162051000D01*
X143871861Y-162051000D01*
X143620513Y-162001004D01*
X143383747Y-161902932D01*
X143383746Y-161902932D01*
X143383745Y-161902931D01*
X143170661Y-161760553D01*
X142989447Y-161579339D01*
X142847069Y-161366255D01*
X142836622Y-161341034D01*
X142748996Y-161129487D01*
X142699000Y-160878139D01*
X142699000Y-160621861D01*
X142748996Y-160370513D01*
X142847068Y-160133747D01*
X142855009Y-160121863D01*
X142989447Y-159920661D01*
X143170661Y-159739447D01*
X143383745Y-159597069D01*
X143383747Y-159597068D01*
X143620513Y-159498996D01*
X143871861Y-159449000D01*
X144128139Y-159449000D01*
X144379487Y-159498996D01*
X144379487Y-159498996D01*
G37*
G36*
X1064766Y-156085786D02*
G01*
X-4664214Y-161814766D01*
X-7564766Y-158914214D01*
X-1835786Y-153185234D01*
X1064766Y-156085786D01*
X1064766Y-156085786D01*
G37*
G36*
X100629487Y-158998996D02*
G01*
X100860490Y-159094681D01*
X100866255Y-159097069D01*
X101079339Y-159239447D01*
X101260553Y-159420661D01*
X101394090Y-159620513D01*
X101402932Y-159633747D01*
X101501004Y-159870513D01*
X101551000Y-160121861D01*
X101551000Y-160378139D01*
X101501004Y-160629487D01*
X101447572Y-160758482D01*
X101402931Y-160866255D01*
X101260553Y-161079339D01*
X101079339Y-161260553D01*
X100866255Y-161402931D01*
X100866254Y-161402932D01*
X100866253Y-161402932D01*
X100629487Y-161501004D01*
X100378139Y-161551000D01*
X100121861Y-161551000D01*
X99870513Y-161501004D01*
X99633747Y-161402932D01*
X99633746Y-161402932D01*
X99633745Y-161402931D01*
X99420661Y-161260553D01*
X99239447Y-161079339D01*
X99097069Y-160866255D01*
X99052428Y-160758482D01*
X98998996Y-160629487D01*
X98949000Y-160378139D01*
X98949000Y-160121861D01*
X98998996Y-159870513D01*
X99097068Y-159633747D01*
X99105911Y-159620513D01*
X99239447Y-159420661D01*
X99420661Y-159239447D01*
X99633745Y-159097069D01*
X99639510Y-159094681D01*
X99870513Y-158998996D01*
X100121861Y-158949000D01*
X100378139Y-158949000D01*
X100629487Y-158998996D01*
X100629487Y-158998996D01*
G37*
G36*
X13129487Y-158998996D02*
G01*
X13360490Y-159094681D01*
X13366255Y-159097069D01*
X13579339Y-159239447D01*
X13760553Y-159420661D01*
X13894090Y-159620513D01*
X13902932Y-159633747D01*
X14001004Y-159870513D01*
X14051000Y-160121861D01*
X14051000Y-160378139D01*
X14001004Y-160629487D01*
X13947572Y-160758482D01*
X13902931Y-160866255D01*
X13760553Y-161079339D01*
X13579339Y-161260553D01*
X13366255Y-161402931D01*
X13366254Y-161402932D01*
X13366253Y-161402932D01*
X13129487Y-161501004D01*
X12878139Y-161551000D01*
X12621861Y-161551000D01*
X12370513Y-161501004D01*
X12133747Y-161402932D01*
X12133746Y-161402932D01*
X12133745Y-161402931D01*
X11920661Y-161260553D01*
X11739447Y-161079339D01*
X11597069Y-160866255D01*
X11552428Y-160758482D01*
X11498996Y-160629487D01*
X11449000Y-160378139D01*
X11449000Y-160121861D01*
X11498996Y-159870513D01*
X11597068Y-159633747D01*
X11605911Y-159620513D01*
X11739447Y-159420661D01*
X11920661Y-159239447D01*
X12133745Y-159097069D01*
X12139510Y-159094681D01*
X12370513Y-158998996D01*
X12621861Y-158949000D01*
X12878139Y-158949000D01*
X13129487Y-158998996D01*
X13129487Y-158998996D01*
G37*
G36*
X57879487Y-158748996D02*
G01*
X58066747Y-158826562D01*
X58116255Y-158847069D01*
X58268806Y-158949000D01*
X58329339Y-158989447D01*
X58510553Y-159170661D01*
X58652932Y-159383747D01*
X58751004Y-159620513D01*
X58801000Y-159871861D01*
X58801000Y-160128139D01*
X58751004Y-160379487D01*
X58697401Y-160508895D01*
X58652931Y-160616255D01*
X58510553Y-160829339D01*
X58329339Y-161010553D01*
X58116255Y-161152931D01*
X58116254Y-161152932D01*
X58116253Y-161152932D01*
X57879487Y-161251004D01*
X57628139Y-161301000D01*
X57371861Y-161301000D01*
X57120513Y-161251004D01*
X56883747Y-161152932D01*
X56883746Y-161152932D01*
X56883745Y-161152931D01*
X56670661Y-161010553D01*
X56489447Y-160829339D01*
X56347069Y-160616255D01*
X56302599Y-160508895D01*
X56248996Y-160379487D01*
X56199000Y-160128139D01*
X56199000Y-159871861D01*
X56248996Y-159620513D01*
X56347068Y-159383747D01*
X56489447Y-159170661D01*
X56670661Y-158989447D01*
X56731194Y-158949000D01*
X56883745Y-158847069D01*
X56933253Y-158826562D01*
X57120513Y-158748996D01*
X57371861Y-158699000D01*
X57628139Y-158699000D01*
X57879487Y-158748996D01*
X57879487Y-158748996D01*
G37*
G36*
X-3036454Y-151984567D02*
G01*
X-10179647Y-159127760D01*
X-13787306Y-155520101D01*
X-6644113Y-148376908D01*
X-3036454Y-151984567D01*
X-3036454Y-151984567D01*
G37*
G36*
X160289390Y-154195695D02*
G01*
X160526156Y-154293767D01*
X160526158Y-154293768D01*
X160739242Y-154436146D01*
X160920456Y-154617360D01*
X161054895Y-154818562D01*
X161062835Y-154830446D01*
X161160907Y-155067212D01*
X161210903Y-155318560D01*
X161210903Y-155574838D01*
X161160907Y-155826186D01*
X161062835Y-156062952D01*
X161062834Y-156062954D01*
X160920456Y-156276038D01*
X160739242Y-156457252D01*
X160526158Y-156599630D01*
X160526157Y-156599631D01*
X160526156Y-156599631D01*
X160289390Y-156697703D01*
X160038042Y-156747699D01*
X159781764Y-156747699D01*
X159530416Y-156697703D01*
X159293650Y-156599631D01*
X159293649Y-156599631D01*
X159293648Y-156599630D01*
X159080564Y-156457252D01*
X158899350Y-156276038D01*
X158756972Y-156062954D01*
X158756971Y-156062952D01*
X158658899Y-155826186D01*
X158608903Y-155574838D01*
X158608903Y-155318560D01*
X158658899Y-155067212D01*
X158756971Y-154830446D01*
X158764912Y-154818562D01*
X158899350Y-154617360D01*
X159080564Y-154436146D01*
X159293648Y-154293768D01*
X159293650Y-154293767D01*
X159530416Y-154195695D01*
X159781764Y-154145699D01*
X160038042Y-154145699D01*
X160289390Y-154195695D01*
X160289390Y-154195695D01*
G37*
G36*
X116539390Y-153695695D02*
G01*
X116776156Y-153793767D01*
X116776158Y-153793768D01*
X116989242Y-153936146D01*
X117170456Y-154117360D01*
X117303993Y-154317212D01*
X117312835Y-154330446D01*
X117410907Y-154567212D01*
X117460903Y-154818560D01*
X117460903Y-155074838D01*
X117410907Y-155326186D01*
X117328125Y-155526038D01*
X117312834Y-155562954D01*
X117170456Y-155776038D01*
X116989242Y-155957252D01*
X116776158Y-156099630D01*
X116776157Y-156099631D01*
X116776156Y-156099631D01*
X116539390Y-156197703D01*
X116288042Y-156247699D01*
X116031764Y-156247699D01*
X115780416Y-156197703D01*
X115543650Y-156099631D01*
X115543649Y-156099631D01*
X115543648Y-156099630D01*
X115330564Y-155957252D01*
X115149350Y-155776038D01*
X115006972Y-155562954D01*
X114991681Y-155526038D01*
X114908899Y-155326186D01*
X114858903Y-155074838D01*
X114858903Y-154818560D01*
X114908899Y-154567212D01*
X115006971Y-154330446D01*
X115015814Y-154317212D01*
X115149350Y-154117360D01*
X115330564Y-153936146D01*
X115543648Y-153793768D01*
X115543650Y-153793767D01*
X115780416Y-153695695D01*
X116031764Y-153645699D01*
X116288042Y-153645699D01*
X116539390Y-153695695D01*
X116539390Y-153695695D01*
G37*
G36*
X29039390Y-153695695D02*
G01*
X29276156Y-153793767D01*
X29276158Y-153793768D01*
X29489242Y-153936146D01*
X29670456Y-154117360D01*
X29803993Y-154317212D01*
X29812835Y-154330446D01*
X29910907Y-154567212D01*
X29960903Y-154818560D01*
X29960903Y-155074838D01*
X29910907Y-155326186D01*
X29828125Y-155526038D01*
X29812834Y-155562954D01*
X29670456Y-155776038D01*
X29489242Y-155957252D01*
X29276158Y-156099630D01*
X29276157Y-156099631D01*
X29276156Y-156099631D01*
X29039390Y-156197703D01*
X28788042Y-156247699D01*
X28531764Y-156247699D01*
X28280416Y-156197703D01*
X28043650Y-156099631D01*
X28043649Y-156099631D01*
X28043648Y-156099630D01*
X27830564Y-155957252D01*
X27649350Y-155776038D01*
X27506972Y-155562954D01*
X27491681Y-155526038D01*
X27408899Y-155326186D01*
X27358903Y-155074838D01*
X27358903Y-154818560D01*
X27408899Y-154567212D01*
X27506971Y-154330446D01*
X27515814Y-154317212D01*
X27649350Y-154117360D01*
X27830564Y-153936146D01*
X28043648Y-153793768D01*
X28043650Y-153793767D01*
X28280416Y-153695695D01*
X28531764Y-153645699D01*
X28788042Y-153645699D01*
X29039390Y-153695695D01*
X29039390Y-153695695D01*
G37*
G36*
X73789390Y-153445695D02*
G01*
X74026156Y-153543767D01*
X74026158Y-153543768D01*
X74239242Y-153686146D01*
X74420456Y-153867360D01*
X74552157Y-154064464D01*
X74562835Y-154080446D01*
X74660907Y-154317212D01*
X74710903Y-154568560D01*
X74710903Y-154824838D01*
X74660907Y-155076186D01*
X74592671Y-155240922D01*
X74562834Y-155312954D01*
X74420456Y-155526038D01*
X74239242Y-155707252D01*
X74026158Y-155849630D01*
X74026157Y-155849631D01*
X74026156Y-155849631D01*
X73789390Y-155947703D01*
X73538042Y-155997699D01*
X73281764Y-155997699D01*
X73030416Y-155947703D01*
X72793650Y-155849631D01*
X72793649Y-155849631D01*
X72793648Y-155849630D01*
X72580564Y-155707252D01*
X72399350Y-155526038D01*
X72256972Y-155312954D01*
X72227135Y-155240922D01*
X72158899Y-155076186D01*
X72108903Y-154824838D01*
X72108903Y-154568560D01*
X72158899Y-154317212D01*
X72256971Y-154080446D01*
X72267650Y-154064464D01*
X72399350Y-153867360D01*
X72580564Y-153686146D01*
X72793648Y-153543768D01*
X72793650Y-153543767D01*
X73030416Y-153445695D01*
X73281764Y-153395699D01*
X73538042Y-153395699D01*
X73789390Y-153445695D01*
X73789390Y-153445695D01*
G37*
G36*
X163824923Y-150660161D02*
G01*
X164061689Y-150758233D01*
X164061691Y-150758234D01*
X164274775Y-150900612D01*
X164455989Y-151081826D01*
X164590428Y-151283028D01*
X164598368Y-151294912D01*
X164696440Y-151531678D01*
X164746436Y-151783026D01*
X164746436Y-152039304D01*
X164696440Y-152290652D01*
X164617040Y-152482340D01*
X164598367Y-152527420D01*
X164455989Y-152740504D01*
X164274775Y-152921718D01*
X164061691Y-153064096D01*
X164061690Y-153064097D01*
X164061689Y-153064097D01*
X163824923Y-153162169D01*
X163573575Y-153212165D01*
X163317297Y-153212165D01*
X163065949Y-153162169D01*
X162829183Y-153064097D01*
X162829182Y-153064097D01*
X162829181Y-153064096D01*
X162616097Y-152921718D01*
X162434883Y-152740504D01*
X162292505Y-152527420D01*
X162273832Y-152482340D01*
X162194432Y-152290652D01*
X162144436Y-152039304D01*
X162144436Y-151783026D01*
X162194432Y-151531678D01*
X162292504Y-151294912D01*
X162300445Y-151283028D01*
X162434883Y-151081826D01*
X162616097Y-150900612D01*
X162829181Y-150758234D01*
X162829183Y-150758233D01*
X163065949Y-150660161D01*
X163317297Y-150610165D01*
X163573575Y-150610165D01*
X163824923Y-150660161D01*
X163824923Y-150660161D01*
G37*
G36*
X120074923Y-150160161D02*
G01*
X120311689Y-150258233D01*
X120311691Y-150258234D01*
X120524775Y-150400612D01*
X120705989Y-150581826D01*
X120839526Y-150781678D01*
X120848368Y-150794912D01*
X120946440Y-151031678D01*
X120996436Y-151283026D01*
X120996436Y-151539304D01*
X120946440Y-151790652D01*
X120850096Y-152023246D01*
X120848367Y-152027420D01*
X120705989Y-152240504D01*
X120524775Y-152421718D01*
X120311691Y-152564096D01*
X120311690Y-152564097D01*
X120311689Y-152564097D01*
X120074923Y-152662169D01*
X119823575Y-152712165D01*
X119567297Y-152712165D01*
X119315949Y-152662169D01*
X119079183Y-152564097D01*
X119079182Y-152564097D01*
X119079181Y-152564096D01*
X118866097Y-152421718D01*
X118684883Y-152240504D01*
X118542505Y-152027420D01*
X118540776Y-152023246D01*
X118444432Y-151790652D01*
X118394436Y-151539304D01*
X118394436Y-151283026D01*
X118444432Y-151031678D01*
X118542504Y-150794912D01*
X118551347Y-150781678D01*
X118684883Y-150581826D01*
X118866097Y-150400612D01*
X119079181Y-150258234D01*
X119079183Y-150258233D01*
X119315949Y-150160161D01*
X119567297Y-150110165D01*
X119823575Y-150110165D01*
X120074923Y-150160161D01*
X120074923Y-150160161D01*
G37*
G36*
X32574923Y-150160161D02*
G01*
X32811689Y-150258233D01*
X32811691Y-150258234D01*
X33024775Y-150400612D01*
X33205989Y-150581826D01*
X33339526Y-150781678D01*
X33348368Y-150794912D01*
X33446440Y-151031678D01*
X33496436Y-151283026D01*
X33496436Y-151539304D01*
X33446440Y-151790652D01*
X33350096Y-152023246D01*
X33348367Y-152027420D01*
X33205989Y-152240504D01*
X33024775Y-152421718D01*
X32811691Y-152564096D01*
X32811690Y-152564097D01*
X32811689Y-152564097D01*
X32574923Y-152662169D01*
X32323575Y-152712165D01*
X32067297Y-152712165D01*
X31815949Y-152662169D01*
X31579183Y-152564097D01*
X31579182Y-152564097D01*
X31579181Y-152564096D01*
X31366097Y-152421718D01*
X31184883Y-152240504D01*
X31042505Y-152027420D01*
X31040776Y-152023246D01*
X30944432Y-151790652D01*
X30894436Y-151539304D01*
X30894436Y-151283026D01*
X30944432Y-151031678D01*
X31042504Y-150794912D01*
X31051347Y-150781678D01*
X31184883Y-150581826D01*
X31366097Y-150400612D01*
X31579181Y-150258234D01*
X31579183Y-150258233D01*
X31815949Y-150160161D01*
X32067297Y-150110165D01*
X32323575Y-150110165D01*
X32574923Y-150160161D01*
X32574923Y-150160161D01*
G37*
G36*
X77324923Y-149910161D02*
G01*
X77561689Y-150008233D01*
X77561691Y-150008234D01*
X77774775Y-150150612D01*
X77955989Y-150331826D01*
X78050143Y-150472737D01*
X78098368Y-150544912D01*
X78196440Y-150781678D01*
X78246436Y-151033026D01*
X78246436Y-151289304D01*
X78196440Y-151540652D01*
X78172126Y-151599350D01*
X78098367Y-151777420D01*
X77955989Y-151990504D01*
X77774775Y-152171718D01*
X77561691Y-152314096D01*
X77561690Y-152314097D01*
X77561689Y-152314097D01*
X77324923Y-152412169D01*
X77073575Y-152462165D01*
X76817297Y-152462165D01*
X76565949Y-152412169D01*
X76329183Y-152314097D01*
X76329182Y-152314097D01*
X76329181Y-152314096D01*
X76116097Y-152171718D01*
X75934883Y-151990504D01*
X75792505Y-151777420D01*
X75718746Y-151599350D01*
X75694432Y-151540652D01*
X75644436Y-151289304D01*
X75644436Y-151033026D01*
X75694432Y-150781678D01*
X75792504Y-150544912D01*
X75840730Y-150472737D01*
X75934883Y-150331826D01*
X76116097Y-150150612D01*
X76329181Y-150008234D01*
X76329183Y-150008233D01*
X76565949Y-149910161D01*
X76817297Y-149860165D01*
X77073575Y-149860165D01*
X77324923Y-149910161D01*
X77324923Y-149910161D01*
G37*
G36*
X154986089Y-148892394D02*
G01*
X155222855Y-148990466D01*
X155222857Y-148990467D01*
X155435941Y-149132845D01*
X155617155Y-149314059D01*
X155751594Y-149515261D01*
X155759534Y-149527145D01*
X155857606Y-149763911D01*
X155907602Y-150015259D01*
X155907602Y-150271537D01*
X155857606Y-150522885D01*
X155760121Y-150758233D01*
X155759533Y-150759653D01*
X155617155Y-150972737D01*
X155435941Y-151153951D01*
X155222857Y-151296329D01*
X155222856Y-151296330D01*
X155222855Y-151296330D01*
X154986089Y-151394402D01*
X154734741Y-151444398D01*
X154478463Y-151444398D01*
X154227115Y-151394402D01*
X153990349Y-151296330D01*
X153990348Y-151296330D01*
X153990347Y-151296329D01*
X153777263Y-151153951D01*
X153596049Y-150972737D01*
X153453671Y-150759653D01*
X153453083Y-150758233D01*
X153355598Y-150522885D01*
X153305602Y-150271537D01*
X153305602Y-150015259D01*
X153355598Y-149763911D01*
X153453670Y-149527145D01*
X153461611Y-149515261D01*
X153596049Y-149314059D01*
X153777263Y-149132845D01*
X153990347Y-148990467D01*
X153990349Y-148990466D01*
X154227115Y-148892394D01*
X154478463Y-148842398D01*
X154734741Y-148842398D01*
X154986089Y-148892394D01*
X154986089Y-148892394D01*
G37*
G36*
X23736089Y-148392394D02*
G01*
X23887160Y-148454970D01*
X23972857Y-148490467D01*
X24185941Y-148632845D01*
X24367155Y-148814059D01*
X24500692Y-149013911D01*
X24509534Y-149027145D01*
X24607606Y-149263911D01*
X24657602Y-149515259D01*
X24657602Y-149771537D01*
X24607606Y-150022885D01*
X24540399Y-150185136D01*
X24509533Y-150259653D01*
X24367155Y-150472737D01*
X24185941Y-150653951D01*
X23972857Y-150796329D01*
X23972856Y-150796330D01*
X23972855Y-150796330D01*
X23736089Y-150894402D01*
X23484741Y-150944398D01*
X23228463Y-150944398D01*
X22977115Y-150894402D01*
X22740349Y-150796330D01*
X22740348Y-150796330D01*
X22740347Y-150796329D01*
X22527263Y-150653951D01*
X22346049Y-150472737D01*
X22203671Y-150259653D01*
X22172805Y-150185136D01*
X22105598Y-150022885D01*
X22055602Y-149771537D01*
X22055602Y-149515259D01*
X22105598Y-149263911D01*
X22203670Y-149027145D01*
X22212513Y-149013911D01*
X22346049Y-148814059D01*
X22527263Y-148632845D01*
X22740347Y-148490467D01*
X22826044Y-148454970D01*
X22977115Y-148392394D01*
X23228463Y-148342398D01*
X23484741Y-148342398D01*
X23736089Y-148392394D01*
X23736089Y-148392394D01*
G37*
G36*
X111236089Y-148392394D02*
G01*
X111387160Y-148454970D01*
X111472857Y-148490467D01*
X111685941Y-148632845D01*
X111867155Y-148814059D01*
X112000692Y-149013911D01*
X112009534Y-149027145D01*
X112107606Y-149263911D01*
X112157602Y-149515259D01*
X112157602Y-149771537D01*
X112107606Y-150022885D01*
X112040399Y-150185136D01*
X112009533Y-150259653D01*
X111867155Y-150472737D01*
X111685941Y-150653951D01*
X111472857Y-150796329D01*
X111472856Y-150796330D01*
X111472855Y-150796330D01*
X111236089Y-150894402D01*
X110984741Y-150944398D01*
X110728463Y-150944398D01*
X110477115Y-150894402D01*
X110240349Y-150796330D01*
X110240348Y-150796330D01*
X110240347Y-150796329D01*
X110027263Y-150653951D01*
X109846049Y-150472737D01*
X109703671Y-150259653D01*
X109672805Y-150185136D01*
X109605598Y-150022885D01*
X109555602Y-149771537D01*
X109555602Y-149515259D01*
X109605598Y-149263911D01*
X109703670Y-149027145D01*
X109712513Y-149013911D01*
X109846049Y-148814059D01*
X110027263Y-148632845D01*
X110240347Y-148490467D01*
X110326044Y-148454970D01*
X110477115Y-148392394D01*
X110728463Y-148342398D01*
X110984741Y-148342398D01*
X111236089Y-148392394D01*
X111236089Y-148392394D01*
G37*
G36*
X68486089Y-148142394D02*
G01*
X68722855Y-148240466D01*
X68722857Y-148240467D01*
X68935941Y-148382845D01*
X69117155Y-148564059D01*
X69211309Y-148704970D01*
X69259534Y-148777145D01*
X69357606Y-149013911D01*
X69407602Y-149265259D01*
X69407602Y-149521537D01*
X69357606Y-149772885D01*
X69297904Y-149917017D01*
X69259533Y-150009653D01*
X69117155Y-150222737D01*
X68935941Y-150403951D01*
X68722857Y-150546329D01*
X68722856Y-150546330D01*
X68722855Y-150546330D01*
X68486089Y-150644402D01*
X68234741Y-150694398D01*
X67978463Y-150694398D01*
X67727115Y-150644402D01*
X67490349Y-150546330D01*
X67490348Y-150546330D01*
X67490347Y-150546329D01*
X67277263Y-150403951D01*
X67096049Y-150222737D01*
X66953671Y-150009653D01*
X66915300Y-149917017D01*
X66855598Y-149772885D01*
X66805602Y-149521537D01*
X66805602Y-149265259D01*
X66855598Y-149013911D01*
X66953670Y-148777145D01*
X67001896Y-148704970D01*
X67096049Y-148564059D01*
X67277263Y-148382845D01*
X67490347Y-148240467D01*
X67490349Y-148240466D01*
X67727115Y-148142394D01*
X67978463Y-148092398D01*
X68234741Y-148092398D01*
X68486089Y-148142394D01*
X68486089Y-148142394D01*
G37*
G36*
X167360457Y-147124627D02*
G01*
X167597223Y-147222699D01*
X167597225Y-147222700D01*
X167810309Y-147365078D01*
X167991523Y-147546292D01*
X168125962Y-147747494D01*
X168133902Y-147759378D01*
X168231974Y-147996144D01*
X168281970Y-148247492D01*
X168281970Y-148503770D01*
X168231974Y-148755118D01*
X168134489Y-148990466D01*
X168133901Y-148991886D01*
X167991523Y-149204970D01*
X167810309Y-149386184D01*
X167597225Y-149528562D01*
X167597224Y-149528563D01*
X167597223Y-149528563D01*
X167360457Y-149626635D01*
X167109109Y-149676631D01*
X166852831Y-149676631D01*
X166601483Y-149626635D01*
X166364717Y-149528563D01*
X166364716Y-149528563D01*
X166364715Y-149528562D01*
X166151631Y-149386184D01*
X165970417Y-149204970D01*
X165828039Y-148991886D01*
X165827451Y-148990466D01*
X165729966Y-148755118D01*
X165679970Y-148503770D01*
X165679970Y-148247492D01*
X165729966Y-147996144D01*
X165828038Y-147759378D01*
X165835979Y-147747494D01*
X165970417Y-147546292D01*
X166151631Y-147365078D01*
X166364715Y-147222700D01*
X166364717Y-147222699D01*
X166601483Y-147124627D01*
X166852831Y-147074631D01*
X167109109Y-147074631D01*
X167360457Y-147124627D01*
X167360457Y-147124627D01*
G37*
G36*
X123610457Y-146624627D02*
G01*
X123761528Y-146687203D01*
X123847225Y-146722700D01*
X124060309Y-146865078D01*
X124241523Y-147046292D01*
X124375060Y-147246144D01*
X124383902Y-147259378D01*
X124481974Y-147496144D01*
X124531970Y-147747492D01*
X124531970Y-148003770D01*
X124481974Y-148255118D01*
X124399192Y-148454970D01*
X124383901Y-148491886D01*
X124241523Y-148704970D01*
X124060309Y-148886184D01*
X123847225Y-149028562D01*
X123847224Y-149028563D01*
X123847223Y-149028563D01*
X123610457Y-149126635D01*
X123359109Y-149176631D01*
X123102831Y-149176631D01*
X122851483Y-149126635D01*
X122614717Y-149028563D01*
X122614716Y-149028563D01*
X122614715Y-149028562D01*
X122401631Y-148886184D01*
X122220417Y-148704970D01*
X122078039Y-148491886D01*
X122062748Y-148454970D01*
X121979966Y-148255118D01*
X121929970Y-148003770D01*
X121929970Y-147747492D01*
X121979966Y-147496144D01*
X122078038Y-147259378D01*
X122086881Y-147246144D01*
X122220417Y-147046292D01*
X122401631Y-146865078D01*
X122614715Y-146722700D01*
X122700412Y-146687203D01*
X122851483Y-146624627D01*
X123102831Y-146574631D01*
X123359109Y-146574631D01*
X123610457Y-146624627D01*
X123610457Y-146624627D01*
G37*
G36*
X36110457Y-146624627D02*
G01*
X36261528Y-146687203D01*
X36347225Y-146722700D01*
X36560309Y-146865078D01*
X36741523Y-147046292D01*
X36875060Y-147246144D01*
X36883902Y-147259378D01*
X36981974Y-147496144D01*
X37031970Y-147747492D01*
X37031970Y-148003770D01*
X36981974Y-148255118D01*
X36899192Y-148454970D01*
X36883901Y-148491886D01*
X36741523Y-148704970D01*
X36560309Y-148886184D01*
X36347225Y-149028562D01*
X36347224Y-149028563D01*
X36347223Y-149028563D01*
X36110457Y-149126635D01*
X35859109Y-149176631D01*
X35602831Y-149176631D01*
X35351483Y-149126635D01*
X35114717Y-149028563D01*
X35114716Y-149028563D01*
X35114715Y-149028562D01*
X34901631Y-148886184D01*
X34720417Y-148704970D01*
X34578039Y-148491886D01*
X34562748Y-148454970D01*
X34479966Y-148255118D01*
X34429970Y-148003770D01*
X34429970Y-147747492D01*
X34479966Y-147496144D01*
X34578038Y-147259378D01*
X34586881Y-147246144D01*
X34720417Y-147046292D01*
X34901631Y-146865078D01*
X35114715Y-146722700D01*
X35200412Y-146687203D01*
X35351483Y-146624627D01*
X35602831Y-146574631D01*
X35859109Y-146574631D01*
X36110457Y-146624627D01*
X36110457Y-146624627D01*
G37*
G36*
X80860457Y-146374627D02*
G01*
X81097223Y-146472699D01*
X81097225Y-146472700D01*
X81310309Y-146615078D01*
X81491523Y-146796292D01*
X81585677Y-146937203D01*
X81633902Y-147009378D01*
X81731974Y-147246144D01*
X81781970Y-147497492D01*
X81781970Y-147753770D01*
X81731974Y-148005118D01*
X81634489Y-148240466D01*
X81633901Y-148241886D01*
X81491523Y-148454970D01*
X81310309Y-148636184D01*
X81097225Y-148778562D01*
X81097224Y-148778563D01*
X81097223Y-148778563D01*
X80860457Y-148876635D01*
X80609109Y-148926631D01*
X80352831Y-148926631D01*
X80101483Y-148876635D01*
X79864717Y-148778563D01*
X79864716Y-148778563D01*
X79864715Y-148778562D01*
X79651631Y-148636184D01*
X79470417Y-148454970D01*
X79328039Y-148241886D01*
X79327451Y-148240466D01*
X79229966Y-148005118D01*
X79179970Y-147753770D01*
X79179970Y-147497492D01*
X79229966Y-147246144D01*
X79328038Y-147009378D01*
X79376264Y-146937203D01*
X79470417Y-146796292D01*
X79651631Y-146615078D01*
X79864715Y-146472700D01*
X79864717Y-146472699D01*
X80101483Y-146374627D01*
X80352831Y-146324631D01*
X80609109Y-146324631D01*
X80860457Y-146374627D01*
X80860457Y-146374627D01*
G37*
G36*
X158521623Y-145356860D02*
G01*
X158758389Y-145454932D01*
X158758391Y-145454933D01*
X158971475Y-145597311D01*
X159152689Y-145778525D01*
X159287128Y-145979727D01*
X159295068Y-145991611D01*
X159393140Y-146228377D01*
X159443136Y-146479725D01*
X159443136Y-146736003D01*
X159393140Y-146987351D01*
X159295655Y-147222699D01*
X159295067Y-147224119D01*
X159152689Y-147437203D01*
X158971475Y-147618417D01*
X158758391Y-147760795D01*
X158758390Y-147760796D01*
X158758389Y-147760796D01*
X158521623Y-147858868D01*
X158270275Y-147908864D01*
X158013997Y-147908864D01*
X157762649Y-147858868D01*
X157525883Y-147760796D01*
X157525882Y-147760796D01*
X157525881Y-147760795D01*
X157312797Y-147618417D01*
X157131583Y-147437203D01*
X156989205Y-147224119D01*
X156988617Y-147222699D01*
X156891132Y-146987351D01*
X156841136Y-146736003D01*
X156841136Y-146479725D01*
X156891132Y-146228377D01*
X156989204Y-145991611D01*
X156997145Y-145979727D01*
X157131583Y-145778525D01*
X157312797Y-145597311D01*
X157525881Y-145454933D01*
X157525883Y-145454932D01*
X157762649Y-145356860D01*
X158013997Y-145306864D01*
X158270275Y-145306864D01*
X158521623Y-145356860D01*
X158521623Y-145356860D01*
G37*
G36*
X114771623Y-144856860D02*
G01*
X115008389Y-144954932D01*
X115008391Y-144954933D01*
X115221475Y-145097311D01*
X115402689Y-145278525D01*
X115536226Y-145478377D01*
X115545068Y-145491611D01*
X115643140Y-145728377D01*
X115693136Y-145979725D01*
X115693136Y-146236003D01*
X115643140Y-146487351D01*
X115560358Y-146687203D01*
X115545067Y-146724119D01*
X115402689Y-146937203D01*
X115221475Y-147118417D01*
X115008391Y-147260795D01*
X115008390Y-147260796D01*
X115008389Y-147260796D01*
X114771623Y-147358868D01*
X114520275Y-147408864D01*
X114263997Y-147408864D01*
X114012649Y-147358868D01*
X113775883Y-147260796D01*
X113775882Y-147260796D01*
X113775881Y-147260795D01*
X113562797Y-147118417D01*
X113381583Y-146937203D01*
X113239205Y-146724119D01*
X113223914Y-146687203D01*
X113141132Y-146487351D01*
X113091136Y-146236003D01*
X113091136Y-145979725D01*
X113141132Y-145728377D01*
X113239204Y-145491611D01*
X113248047Y-145478377D01*
X113381583Y-145278525D01*
X113562797Y-145097311D01*
X113775881Y-144954933D01*
X113775883Y-144954932D01*
X114012649Y-144856860D01*
X114263997Y-144806864D01*
X114520275Y-144806864D01*
X114771623Y-144856860D01*
X114771623Y-144856860D01*
G37*
G36*
X27271623Y-144856860D02*
G01*
X27508389Y-144954932D01*
X27508391Y-144954933D01*
X27721475Y-145097311D01*
X27902689Y-145278525D01*
X28036226Y-145478377D01*
X28045068Y-145491611D01*
X28143140Y-145728377D01*
X28193136Y-145979725D01*
X28193136Y-146236003D01*
X28143140Y-146487351D01*
X28060358Y-146687203D01*
X28045067Y-146724119D01*
X27902689Y-146937203D01*
X27721475Y-147118417D01*
X27508391Y-147260795D01*
X27508390Y-147260796D01*
X27508389Y-147260796D01*
X27271623Y-147358868D01*
X27020275Y-147408864D01*
X26763997Y-147408864D01*
X26512649Y-147358868D01*
X26275883Y-147260796D01*
X26275882Y-147260796D01*
X26275881Y-147260795D01*
X26062797Y-147118417D01*
X25881583Y-146937203D01*
X25739205Y-146724119D01*
X25723914Y-146687203D01*
X25641132Y-146487351D01*
X25591136Y-146236003D01*
X25591136Y-145979725D01*
X25641132Y-145728377D01*
X25739204Y-145491611D01*
X25748047Y-145478377D01*
X25881583Y-145278525D01*
X26062797Y-145097311D01*
X26275881Y-144954933D01*
X26275883Y-144954932D01*
X26512649Y-144856860D01*
X26763997Y-144806864D01*
X27020275Y-144806864D01*
X27271623Y-144856860D01*
X27271623Y-144856860D01*
G37*
G36*
X72021623Y-144606860D02*
G01*
X72258389Y-144704932D01*
X72258391Y-144704933D01*
X72410942Y-144806864D01*
X72471475Y-144847311D01*
X72652689Y-145028525D01*
X72795068Y-145241611D01*
X72893140Y-145478377D01*
X72943136Y-145729725D01*
X72943136Y-145986003D01*
X72893140Y-146237351D01*
X72795655Y-146472699D01*
X72795067Y-146474119D01*
X72652689Y-146687203D01*
X72471475Y-146868417D01*
X72258391Y-147010795D01*
X72258390Y-147010796D01*
X72258389Y-147010796D01*
X72021623Y-147108868D01*
X71770275Y-147158864D01*
X71513997Y-147158864D01*
X71262649Y-147108868D01*
X71025883Y-147010796D01*
X71025882Y-147010796D01*
X71025881Y-147010795D01*
X70812797Y-146868417D01*
X70631583Y-146687203D01*
X70489205Y-146474119D01*
X70488617Y-146472699D01*
X70391132Y-146237351D01*
X70341136Y-145986003D01*
X70341136Y-145729725D01*
X70391132Y-145478377D01*
X70489204Y-145241611D01*
X70631583Y-145028525D01*
X70812797Y-144847311D01*
X70873330Y-144806864D01*
X71025881Y-144704933D01*
X71025883Y-144704932D01*
X71262649Y-144606860D01*
X71513997Y-144556864D01*
X71770275Y-144556864D01*
X72021623Y-144606860D01*
X72021623Y-144606860D01*
G37*
G36*
X162057157Y-141821326D02*
G01*
X162293923Y-141919398D01*
X162293925Y-141919399D01*
X162507009Y-142061777D01*
X162688223Y-142242991D01*
X162822662Y-142444193D01*
X162830602Y-142456077D01*
X162928674Y-142692843D01*
X162978670Y-142944191D01*
X162978670Y-143200469D01*
X162928674Y-143451817D01*
X162830602Y-143688583D01*
X162830601Y-143688585D01*
X162688223Y-143901669D01*
X162507009Y-144082883D01*
X162293925Y-144225261D01*
X162293924Y-144225262D01*
X162293923Y-144225262D01*
X162057157Y-144323334D01*
X161805809Y-144373330D01*
X161549531Y-144373330D01*
X161298183Y-144323334D01*
X161061417Y-144225262D01*
X161061416Y-144225262D01*
X161061415Y-144225261D01*
X160848331Y-144082883D01*
X160667117Y-143901669D01*
X160524739Y-143688585D01*
X160524738Y-143688583D01*
X160426666Y-143451817D01*
X160376670Y-143200469D01*
X160376670Y-142944191D01*
X160426666Y-142692843D01*
X160524738Y-142456077D01*
X160532679Y-142444193D01*
X160667117Y-142242991D01*
X160848331Y-142061777D01*
X161061415Y-141919399D01*
X161061417Y-141919398D01*
X161298183Y-141821326D01*
X161549531Y-141771330D01*
X161805809Y-141771330D01*
X162057157Y-141821326D01*
X162057157Y-141821326D01*
G37*
G36*
X197244309Y-141175828D02*
G01*
X197508373Y-141285207D01*
X197746026Y-141444002D01*
X197948134Y-141646110D01*
X198106929Y-141883763D01*
X198216308Y-142147827D01*
X198272068Y-142428156D01*
X198272068Y-142713980D01*
X198216308Y-142994309D01*
X198106929Y-143258373D01*
X197948134Y-143496026D01*
X197746026Y-143698134D01*
X197508373Y-143856929D01*
X197244309Y-143966308D01*
X196963980Y-144022068D01*
X196678156Y-144022068D01*
X196397827Y-143966308D01*
X196133763Y-143856929D01*
X195896110Y-143698134D01*
X195694002Y-143496026D01*
X195535207Y-143258373D01*
X195425828Y-142994309D01*
X195370068Y-142713980D01*
X195370068Y-142428156D01*
X195425828Y-142147827D01*
X195535207Y-141883763D01*
X195694002Y-141646110D01*
X195896110Y-141444002D01*
X196133763Y-141285207D01*
X196397827Y-141175828D01*
X196678156Y-141120068D01*
X196963980Y-141120068D01*
X197244309Y-141175828D01*
X197244309Y-141175828D01*
G37*
G36*
X118307157Y-141321326D02*
G01*
X118543923Y-141419398D01*
X118543925Y-141419399D01*
X118757009Y-141561777D01*
X118938223Y-141742991D01*
X119071760Y-141942843D01*
X119080602Y-141956077D01*
X119178674Y-142192843D01*
X119228670Y-142444191D01*
X119228670Y-142700469D01*
X119178674Y-142951817D01*
X119161073Y-142994309D01*
X119080601Y-143188585D01*
X118938223Y-143401669D01*
X118757009Y-143582883D01*
X118543925Y-143725261D01*
X118543924Y-143725262D01*
X118543923Y-143725262D01*
X118307157Y-143823334D01*
X118055809Y-143873330D01*
X117799531Y-143873330D01*
X117548183Y-143823334D01*
X117311417Y-143725262D01*
X117311416Y-143725262D01*
X117311415Y-143725261D01*
X117098331Y-143582883D01*
X116917117Y-143401669D01*
X116774739Y-143188585D01*
X116694267Y-142994309D01*
X116676666Y-142951817D01*
X116626670Y-142700469D01*
X116626670Y-142444191D01*
X116676666Y-142192843D01*
X116774738Y-141956077D01*
X116783581Y-141942843D01*
X116917117Y-141742991D01*
X117098331Y-141561777D01*
X117311415Y-141419399D01*
X117311417Y-141419398D01*
X117548183Y-141321326D01*
X117799531Y-141271330D01*
X118055809Y-141271330D01*
X118307157Y-141321326D01*
X118307157Y-141321326D01*
G37*
G36*
X30807157Y-141321326D02*
G01*
X31043923Y-141419398D01*
X31043925Y-141419399D01*
X31257009Y-141561777D01*
X31438223Y-141742991D01*
X31571760Y-141942843D01*
X31580602Y-141956077D01*
X31678674Y-142192843D01*
X31728670Y-142444191D01*
X31728670Y-142700469D01*
X31678674Y-142951817D01*
X31661073Y-142994309D01*
X31580601Y-143188585D01*
X31438223Y-143401669D01*
X31257009Y-143582883D01*
X31043925Y-143725261D01*
X31043924Y-143725262D01*
X31043923Y-143725262D01*
X30807157Y-143823334D01*
X30555809Y-143873330D01*
X30299531Y-143873330D01*
X30048183Y-143823334D01*
X29811417Y-143725262D01*
X29811416Y-143725262D01*
X29811415Y-143725261D01*
X29598331Y-143582883D01*
X29417117Y-143401669D01*
X29274739Y-143188585D01*
X29194267Y-142994309D01*
X29176666Y-142951817D01*
X29126670Y-142700469D01*
X29126670Y-142444191D01*
X29176666Y-142192843D01*
X29274738Y-141956077D01*
X29283581Y-141942843D01*
X29417117Y-141742991D01*
X29598331Y-141561777D01*
X29811415Y-141419399D01*
X29811417Y-141419398D01*
X30048183Y-141321326D01*
X30299531Y-141271330D01*
X30555809Y-141271330D01*
X30807157Y-141321326D01*
X30807157Y-141321326D01*
G37*
G36*
X75557157Y-141071326D02*
G01*
X75793923Y-141169398D01*
X75793925Y-141169399D01*
X76007009Y-141311777D01*
X76188223Y-141492991D01*
X76290534Y-141646110D01*
X76330602Y-141706077D01*
X76428674Y-141942843D01*
X76478670Y-142194191D01*
X76478670Y-142450469D01*
X76428674Y-142701817D01*
X76330602Y-142938583D01*
X76330601Y-142938585D01*
X76188223Y-143151669D01*
X76007009Y-143332883D01*
X75793925Y-143475261D01*
X75793924Y-143475262D01*
X75793923Y-143475262D01*
X75557157Y-143573334D01*
X75305809Y-143623330D01*
X75049531Y-143623330D01*
X74798183Y-143573334D01*
X74561417Y-143475262D01*
X74561416Y-143475262D01*
X74561415Y-143475261D01*
X74348331Y-143332883D01*
X74167117Y-143151669D01*
X74024739Y-142938585D01*
X74024738Y-142938583D01*
X73926666Y-142701817D01*
X73876670Y-142450469D01*
X73876670Y-142194191D01*
X73926666Y-141942843D01*
X74024738Y-141706077D01*
X74064807Y-141646110D01*
X74167117Y-141492991D01*
X74348331Y-141311777D01*
X74561415Y-141169399D01*
X74561417Y-141169398D01*
X74798183Y-141071326D01*
X75049531Y-141021330D01*
X75305809Y-141021330D01*
X75557157Y-141071326D01*
X75557157Y-141071326D01*
G37*
G36*
X105494309Y-138675828D02*
G01*
X105758373Y-138785207D01*
X105996026Y-138944002D01*
X106198134Y-139146110D01*
X106356929Y-139383763D01*
X106466308Y-139647827D01*
X106522068Y-139928156D01*
X106522068Y-140213980D01*
X106466308Y-140494309D01*
X106356929Y-140758373D01*
X106198134Y-140996026D01*
X105996026Y-141198134D01*
X105758373Y-141356929D01*
X105494309Y-141466308D01*
X105213980Y-141522068D01*
X104928156Y-141522068D01*
X104647827Y-141466308D01*
X104383763Y-141356929D01*
X104146110Y-141198134D01*
X103944002Y-140996026D01*
X103785207Y-140758373D01*
X103675828Y-140494309D01*
X103620068Y-140213980D01*
X103620068Y-139928156D01*
X103675828Y-139647827D01*
X103785207Y-139383763D01*
X103944002Y-139146110D01*
X104146110Y-138944002D01*
X104383763Y-138785207D01*
X104647827Y-138675828D01*
X104928156Y-138620068D01*
X105213980Y-138620068D01*
X105494309Y-138675828D01*
X105494309Y-138675828D01*
G37*
G36*
X16494309Y-138675828D02*
G01*
X16758373Y-138785207D01*
X16996026Y-138944002D01*
X17198134Y-139146110D01*
X17356929Y-139383763D01*
X17466308Y-139647827D01*
X17522068Y-139928156D01*
X17522068Y-140213980D01*
X17466308Y-140494309D01*
X17356929Y-140758373D01*
X17198134Y-140996026D01*
X16996026Y-141198134D01*
X16758373Y-141356929D01*
X16494309Y-141466308D01*
X16213980Y-141522068D01*
X15928156Y-141522068D01*
X15647827Y-141466308D01*
X15383763Y-141356929D01*
X15146110Y-141198134D01*
X14944002Y-140996026D01*
X14785207Y-140758373D01*
X14675828Y-140494309D01*
X14620068Y-140213980D01*
X14620068Y-139928156D01*
X14675828Y-139647827D01*
X14785207Y-139383763D01*
X14944002Y-139146110D01*
X15146110Y-138944002D01*
X15383763Y-138785207D01*
X15647827Y-138675828D01*
X15928156Y-138620068D01*
X16213980Y-138620068D01*
X16494309Y-138675828D01*
X16494309Y-138675828D01*
G37*
G36*
X149244309Y-138675828D02*
G01*
X149508373Y-138785207D01*
X149746026Y-138944002D01*
X149948134Y-139146110D01*
X150106929Y-139383763D01*
X150216308Y-139647827D01*
X150272068Y-139928156D01*
X150272068Y-140213980D01*
X150216308Y-140494309D01*
X150106929Y-140758373D01*
X149948134Y-140996026D01*
X149746026Y-141198134D01*
X149508373Y-141356929D01*
X149244309Y-141466308D01*
X148963980Y-141522068D01*
X148678156Y-141522068D01*
X148397827Y-141466308D01*
X148133763Y-141356929D01*
X147896110Y-141198134D01*
X147694002Y-140996026D01*
X147535207Y-140758373D01*
X147425828Y-140494309D01*
X147370068Y-140213980D01*
X147370068Y-139928156D01*
X147425828Y-139647827D01*
X147535207Y-139383763D01*
X147694002Y-139146110D01*
X147896110Y-138944002D01*
X148133763Y-138785207D01*
X148397827Y-138675828D01*
X148678156Y-138620068D01*
X148963980Y-138620068D01*
X149244309Y-138675828D01*
X149244309Y-138675828D01*
G37*
G36*
X60994309Y-138675828D02*
G01*
X61258373Y-138785207D01*
X61496026Y-138944002D01*
X61698134Y-139146110D01*
X61856929Y-139383763D01*
X61966308Y-139647827D01*
X62022068Y-139928156D01*
X62022068Y-140213980D01*
X61966308Y-140494309D01*
X61856929Y-140758373D01*
X61698134Y-140996026D01*
X61496026Y-141198134D01*
X61258373Y-141356929D01*
X60994309Y-141466308D01*
X60713980Y-141522068D01*
X60428156Y-141522068D01*
X60147827Y-141466308D01*
X59883763Y-141356929D01*
X59646110Y-141198134D01*
X59444002Y-140996026D01*
X59285207Y-140758373D01*
X59175828Y-140494309D01*
X59120068Y-140213980D01*
X59120068Y-139928156D01*
X59175828Y-139647827D01*
X59285207Y-139383763D01*
X59444002Y-139146110D01*
X59646110Y-138944002D01*
X59883763Y-138785207D01*
X60147827Y-138675828D01*
X60428156Y-138620068D01*
X60713980Y-138620068D01*
X60994309Y-138675828D01*
X60994309Y-138675828D01*
G37*
G36*
X183102173Y-127033692D02*
G01*
X183366237Y-127143071D01*
X183603890Y-127301866D01*
X183805998Y-127503974D01*
X183964793Y-127741627D01*
X184074172Y-128005691D01*
X184129932Y-128286020D01*
X184129932Y-128571844D01*
X184074172Y-128852173D01*
X183964793Y-129116237D01*
X183805998Y-129353890D01*
X183603890Y-129555998D01*
X183366237Y-129714793D01*
X183102173Y-129824172D01*
X182821844Y-129879932D01*
X182536020Y-129879932D01*
X182255691Y-129824172D01*
X181991627Y-129714793D01*
X181753974Y-129555998D01*
X181551866Y-129353890D01*
X181393071Y-129116237D01*
X181283692Y-128852173D01*
X181227932Y-128571844D01*
X181227932Y-128286020D01*
X181283692Y-128005691D01*
X181393071Y-127741627D01*
X181551866Y-127503974D01*
X181753974Y-127301866D01*
X181991627Y-127143071D01*
X182255691Y-127033692D01*
X182536020Y-126977932D01*
X182821844Y-126977932D01*
X183102173Y-127033692D01*
X183102173Y-127033692D01*
G37*
G36*
X2352173Y-124533692D02*
G01*
X2616237Y-124643071D01*
X2853890Y-124801866D01*
X3055998Y-125003974D01*
X3214793Y-125241627D01*
X3324172Y-125505691D01*
X3379932Y-125786020D01*
X3379932Y-126071844D01*
X3324172Y-126352173D01*
X3214793Y-126616237D01*
X3055998Y-126853890D01*
X2853890Y-127055998D01*
X2616237Y-127214793D01*
X2352173Y-127324172D01*
X2071844Y-127379932D01*
X1786020Y-127379932D01*
X1505691Y-127324172D01*
X1241627Y-127214793D01*
X1003974Y-127055998D01*
X801866Y-126853890D01*
X643071Y-126616237D01*
X533692Y-126352173D01*
X477932Y-126071844D01*
X477932Y-125786020D01*
X533692Y-125505691D01*
X643071Y-125241627D01*
X801866Y-125003974D01*
X1003974Y-124801866D01*
X1241627Y-124643071D01*
X1505691Y-124533692D01*
X1786020Y-124477932D01*
X2071844Y-124477932D01*
X2352173Y-124533692D01*
X2352173Y-124533692D01*
G37*
G36*
X91352173Y-124533692D02*
G01*
X91616237Y-124643071D01*
X91853890Y-124801866D01*
X92055998Y-125003974D01*
X92214793Y-125241627D01*
X92324172Y-125505691D01*
X92379932Y-125786020D01*
X92379932Y-126071844D01*
X92324172Y-126352173D01*
X92214793Y-126616237D01*
X92055998Y-126853890D01*
X91853890Y-127055998D01*
X91616237Y-127214793D01*
X91352173Y-127324172D01*
X91071844Y-127379932D01*
X90786020Y-127379932D01*
X90505691Y-127324172D01*
X90241627Y-127214793D01*
X90003974Y-127055998D01*
X89801866Y-126853890D01*
X89643071Y-126616237D01*
X89533692Y-126352173D01*
X89477932Y-126071844D01*
X89477932Y-125786020D01*
X89533692Y-125505691D01*
X89643071Y-125241627D01*
X89801866Y-125003974D01*
X90003974Y-124801866D01*
X90241627Y-124643071D01*
X90505691Y-124533692D01*
X90786020Y-124477932D01*
X91071844Y-124477932D01*
X91352173Y-124533692D01*
X91352173Y-124533692D01*
G37*
G36*
X46852173Y-124533692D02*
G01*
X47116237Y-124643071D01*
X47353890Y-124801866D01*
X47555998Y-125003974D01*
X47714793Y-125241627D01*
X47824172Y-125505691D01*
X47879932Y-125786020D01*
X47879932Y-126071844D01*
X47824172Y-126352173D01*
X47714793Y-126616237D01*
X47555998Y-126853890D01*
X47353890Y-127055998D01*
X47116237Y-127214793D01*
X46852173Y-127324172D01*
X46571844Y-127379932D01*
X46286020Y-127379932D01*
X46005691Y-127324172D01*
X45741627Y-127214793D01*
X45503974Y-127055998D01*
X45301866Y-126853890D01*
X45143071Y-126616237D01*
X45033692Y-126352173D01*
X44977932Y-126071844D01*
X44977932Y-125786020D01*
X45033692Y-125505691D01*
X45143071Y-125241627D01*
X45301866Y-125003974D01*
X45503974Y-124801866D01*
X45741627Y-124643071D01*
X46005691Y-124533692D01*
X46286020Y-124477932D01*
X46571844Y-124477932D01*
X46852173Y-124533692D01*
X46852173Y-124533692D01*
G37*
G36*
X135102173Y-124533692D02*
G01*
X135366237Y-124643071D01*
X135603890Y-124801866D01*
X135805998Y-125003974D01*
X135964793Y-125241627D01*
X136074172Y-125505691D01*
X136129932Y-125786020D01*
X136129932Y-126071844D01*
X136074172Y-126352173D01*
X135964793Y-126616237D01*
X135805998Y-126853890D01*
X135603890Y-127055998D01*
X135366237Y-127214793D01*
X135102173Y-127324172D01*
X134821844Y-127379932D01*
X134536020Y-127379932D01*
X134255691Y-127324172D01*
X133991627Y-127214793D01*
X133753974Y-127055998D01*
X133551866Y-126853890D01*
X133393071Y-126616237D01*
X133283692Y-126352173D01*
X133227932Y-126071844D01*
X133227932Y-125786020D01*
X133283692Y-125505691D01*
X133393071Y-125241627D01*
X133551866Y-125003974D01*
X133753974Y-124801866D01*
X133991627Y-124643071D01*
X134255691Y-124533692D01*
X134536020Y-124477932D01*
X134821844Y-124477932D01*
X135102173Y-124533692D01*
X135102173Y-124533692D01*
G37*
G36*
X169102173Y-113175828D02*
G01*
X169366237Y-113285207D01*
X169603890Y-113444002D01*
X169805998Y-113646110D01*
X169964793Y-113883763D01*
X170074172Y-114147827D01*
X170129932Y-114428156D01*
X170129932Y-114713980D01*
X170074172Y-114994309D01*
X169964793Y-115258373D01*
X169805998Y-115496026D01*
X169603890Y-115698134D01*
X169366237Y-115856929D01*
X169102173Y-115966308D01*
X168821844Y-116022068D01*
X168536020Y-116022068D01*
X168255691Y-115966308D01*
X167991627Y-115856929D01*
X167753974Y-115698134D01*
X167551866Y-115496026D01*
X167393071Y-115258373D01*
X167283692Y-114994309D01*
X167227932Y-114713980D01*
X167227932Y-114428156D01*
X167283692Y-114147827D01*
X167393071Y-113883763D01*
X167551866Y-113646110D01*
X167753974Y-113444002D01*
X167991627Y-113285207D01*
X168255691Y-113175828D01*
X168536020Y-113120068D01*
X168821844Y-113120068D01*
X169102173Y-113175828D01*
X169102173Y-113175828D01*
G37*
G36*
X121102173Y-109675828D02*
G01*
X121366237Y-109785207D01*
X121603890Y-109944002D01*
X121805998Y-110146110D01*
X121964793Y-110383763D01*
X122074172Y-110647827D01*
X122129932Y-110928156D01*
X122129932Y-111213980D01*
X122074172Y-111494309D01*
X121964793Y-111758373D01*
X121805998Y-111996026D01*
X121603890Y-112198134D01*
X121366237Y-112356929D01*
X121102173Y-112466308D01*
X120821844Y-112522068D01*
X120536020Y-112522068D01*
X120255691Y-112466308D01*
X119991627Y-112356929D01*
X119753974Y-112198134D01*
X119551866Y-111996026D01*
X119393071Y-111758373D01*
X119283692Y-111494309D01*
X119227932Y-111213980D01*
X119227932Y-110928156D01*
X119283692Y-110647827D01*
X119393071Y-110383763D01*
X119551866Y-110146110D01*
X119753974Y-109944002D01*
X119991627Y-109785207D01*
X120255691Y-109675828D01*
X120536020Y-109620068D01*
X120821844Y-109620068D01*
X121102173Y-109675828D01*
X121102173Y-109675828D01*
G37*
G36*
X32602173Y-109675828D02*
G01*
X32866237Y-109785207D01*
X33103890Y-109944002D01*
X33305998Y-110146110D01*
X33464793Y-110383763D01*
X33574172Y-110647827D01*
X33629932Y-110928156D01*
X33629932Y-111213980D01*
X33574172Y-111494309D01*
X33464793Y-111758373D01*
X33305998Y-111996026D01*
X33103890Y-112198134D01*
X32866237Y-112356929D01*
X32602173Y-112466308D01*
X32321844Y-112522068D01*
X32036020Y-112522068D01*
X31755691Y-112466308D01*
X31491627Y-112356929D01*
X31253974Y-112198134D01*
X31051866Y-111996026D01*
X30893071Y-111758373D01*
X30783692Y-111494309D01*
X30727932Y-111213980D01*
X30727932Y-110928156D01*
X30783692Y-110647827D01*
X30893071Y-110383763D01*
X31051866Y-110146110D01*
X31253974Y-109944002D01*
X31491627Y-109785207D01*
X31755691Y-109675828D01*
X32036020Y-109620068D01*
X32321844Y-109620068D01*
X32602173Y-109675828D01*
X32602173Y-109675828D01*
G37*
G36*
X77102173Y-109675828D02*
G01*
X77366237Y-109785207D01*
X77603890Y-109944002D01*
X77805998Y-110146110D01*
X77964793Y-110383763D01*
X78074172Y-110647827D01*
X78129932Y-110928156D01*
X78129932Y-111213980D01*
X78074172Y-111494309D01*
X77964793Y-111758373D01*
X77805998Y-111996026D01*
X77603890Y-112198134D01*
X77366237Y-112356929D01*
X77102173Y-112466308D01*
X76821844Y-112522068D01*
X76536020Y-112522068D01*
X76255691Y-112466308D01*
X75991627Y-112356929D01*
X75753974Y-112198134D01*
X75551866Y-111996026D01*
X75393071Y-111758373D01*
X75283692Y-111494309D01*
X75227932Y-111213980D01*
X75227932Y-110928156D01*
X75283692Y-110647827D01*
X75393071Y-110383763D01*
X75551866Y-110146110D01*
X75753974Y-109944002D01*
X75991627Y-109785207D01*
X76255691Y-109675828D01*
X76536020Y-109620068D01*
X76821844Y-109620068D01*
X77102173Y-109675828D01*
X77102173Y-109675828D01*
G37*
G36*
X-11897827Y-109675828D02*
G01*
X-11633763Y-109785207D01*
X-11396110Y-109944002D01*
X-11194002Y-110146110D01*
X-11035207Y-110383763D01*
X-10925828Y-110647827D01*
X-10870068Y-110928156D01*
X-10870068Y-111213980D01*
X-10925828Y-111494309D01*
X-11035207Y-111758373D01*
X-11194002Y-111996026D01*
X-11396110Y-112198134D01*
X-11633763Y-112356929D01*
X-11897827Y-112466308D01*
X-12178156Y-112522068D01*
X-12463980Y-112522068D01*
X-12744309Y-112466308D01*
X-13008373Y-112356929D01*
X-13246026Y-112198134D01*
X-13448134Y-111996026D01*
X-13606929Y-111758373D01*
X-13716308Y-111494309D01*
X-13772068Y-111213980D01*
X-13772068Y-110928156D01*
X-13716308Y-110647827D01*
X-13606929Y-110383763D01*
X-13448134Y-110146110D01*
X-13246026Y-109944002D01*
X-13008373Y-109785207D01*
X-12744309Y-109675828D01*
X-12463980Y-109620068D01*
X-12178156Y-109620068D01*
X-11897827Y-109675828D01*
X-11897827Y-109675828D01*
G37*
G36*
X183244309Y-99033692D02*
G01*
X183508373Y-99143071D01*
X183746026Y-99301866D01*
X183948134Y-99503974D01*
X184106929Y-99741627D01*
X184216308Y-100005691D01*
X184272068Y-100286020D01*
X184272068Y-100571844D01*
X184216308Y-100852173D01*
X184106929Y-101116237D01*
X183948134Y-101353890D01*
X183746026Y-101555998D01*
X183508373Y-101714793D01*
X183244309Y-101824172D01*
X182963980Y-101879932D01*
X182678156Y-101879932D01*
X182397827Y-101824172D01*
X182133763Y-101714793D01*
X181896110Y-101555998D01*
X181694002Y-101353890D01*
X181535207Y-101116237D01*
X181425828Y-100852173D01*
X181370068Y-100571844D01*
X181370068Y-100286020D01*
X181425828Y-100005691D01*
X181535207Y-99741627D01*
X181694002Y-99503974D01*
X181896110Y-99301866D01*
X182133763Y-99143071D01*
X182397827Y-99033692D01*
X182678156Y-98977932D01*
X182963980Y-98977932D01*
X183244309Y-99033692D01*
X183244309Y-99033692D01*
G37*
G36*
X2244309Y-95533692D02*
G01*
X2508373Y-95643071D01*
X2746026Y-95801866D01*
X2948134Y-96003974D01*
X3106929Y-96241627D01*
X3216308Y-96505691D01*
X3272068Y-96786020D01*
X3272068Y-97071844D01*
X3216308Y-97352173D01*
X3106929Y-97616237D01*
X2948134Y-97853890D01*
X2746026Y-98055998D01*
X2508373Y-98214793D01*
X2244309Y-98324172D01*
X1963980Y-98379932D01*
X1678156Y-98379932D01*
X1397827Y-98324172D01*
X1133763Y-98214793D01*
X896110Y-98055998D01*
X694002Y-97853890D01*
X535207Y-97616237D01*
X425828Y-97352173D01*
X370068Y-97071844D01*
X370068Y-96786020D01*
X425828Y-96505691D01*
X535207Y-96241627D01*
X694002Y-96003974D01*
X896110Y-95801866D01*
X1133763Y-95643071D01*
X1397827Y-95533692D01*
X1678156Y-95477932D01*
X1963980Y-95477932D01*
X2244309Y-95533692D01*
X2244309Y-95533692D01*
G37*
G36*
X135244309Y-95533692D02*
G01*
X135508373Y-95643071D01*
X135746026Y-95801866D01*
X135948134Y-96003974D01*
X136106929Y-96241627D01*
X136216308Y-96505691D01*
X136272068Y-96786020D01*
X136272068Y-97071844D01*
X136216308Y-97352173D01*
X136106929Y-97616237D01*
X135948134Y-97853890D01*
X135746026Y-98055998D01*
X135508373Y-98214793D01*
X135244309Y-98324172D01*
X134963980Y-98379932D01*
X134678156Y-98379932D01*
X134397827Y-98324172D01*
X134133763Y-98214793D01*
X133896110Y-98055998D01*
X133694002Y-97853890D01*
X133535207Y-97616237D01*
X133425828Y-97352173D01*
X133370068Y-97071844D01*
X133370068Y-96786020D01*
X133425828Y-96505691D01*
X133535207Y-96241627D01*
X133694002Y-96003974D01*
X133896110Y-95801866D01*
X134133763Y-95643071D01*
X134397827Y-95533692D01*
X134678156Y-95477932D01*
X134963980Y-95477932D01*
X135244309Y-95533692D01*
X135244309Y-95533692D01*
G37*
G36*
X46744309Y-95533692D02*
G01*
X47008373Y-95643071D01*
X47246026Y-95801866D01*
X47448134Y-96003974D01*
X47606929Y-96241627D01*
X47716308Y-96505691D01*
X47772068Y-96786020D01*
X47772068Y-97071844D01*
X47716308Y-97352173D01*
X47606929Y-97616237D01*
X47448134Y-97853890D01*
X47246026Y-98055998D01*
X47008373Y-98214793D01*
X46744309Y-98324172D01*
X46463980Y-98379932D01*
X46178156Y-98379932D01*
X45897827Y-98324172D01*
X45633763Y-98214793D01*
X45396110Y-98055998D01*
X45194002Y-97853890D01*
X45035207Y-97616237D01*
X44925828Y-97352173D01*
X44870068Y-97071844D01*
X44870068Y-96786020D01*
X44925828Y-96505691D01*
X45035207Y-96241627D01*
X45194002Y-96003974D01*
X45396110Y-95801866D01*
X45633763Y-95643071D01*
X45897827Y-95533692D01*
X46178156Y-95477932D01*
X46463980Y-95477932D01*
X46744309Y-95533692D01*
X46744309Y-95533692D01*
G37*
G36*
X91244309Y-95533692D02*
G01*
X91508373Y-95643071D01*
X91746026Y-95801866D01*
X91948134Y-96003974D01*
X92106929Y-96241627D01*
X92216308Y-96505691D01*
X92272068Y-96786020D01*
X92272068Y-97071844D01*
X92216308Y-97352173D01*
X92106929Y-97616237D01*
X91948134Y-97853890D01*
X91746026Y-98055998D01*
X91508373Y-98214793D01*
X91244309Y-98324172D01*
X90963980Y-98379932D01*
X90678156Y-98379932D01*
X90397827Y-98324172D01*
X90133763Y-98214793D01*
X89896110Y-98055998D01*
X89694002Y-97853890D01*
X89535207Y-97616237D01*
X89425828Y-97352173D01*
X89370068Y-97071844D01*
X89370068Y-96786020D01*
X89425828Y-96505691D01*
X89535207Y-96241627D01*
X89694002Y-96003974D01*
X89896110Y-95801866D01*
X90133763Y-95643071D01*
X90397827Y-95533692D01*
X90678156Y-95477932D01*
X90963980Y-95477932D01*
X91244309Y-95533692D01*
X91244309Y-95533692D01*
G37*
G36*
X197244309Y-85175828D02*
G01*
X197508373Y-85285207D01*
X197746026Y-85444002D01*
X197948134Y-85646110D01*
X198106929Y-85883763D01*
X198216308Y-86147827D01*
X198272068Y-86428156D01*
X198272068Y-86713980D01*
X198216308Y-86994309D01*
X198106929Y-87258373D01*
X197948134Y-87496026D01*
X197746026Y-87698134D01*
X197508373Y-87856929D01*
X197244309Y-87966308D01*
X196963980Y-88022068D01*
X196678156Y-88022068D01*
X196397827Y-87966308D01*
X196133763Y-87856929D01*
X195896110Y-87698134D01*
X195694002Y-87496026D01*
X195535207Y-87258373D01*
X195425828Y-86994309D01*
X195370068Y-86713980D01*
X195370068Y-86428156D01*
X195425828Y-86147827D01*
X195535207Y-85883763D01*
X195694002Y-85646110D01*
X195896110Y-85444002D01*
X196133763Y-85285207D01*
X196397827Y-85175828D01*
X196678156Y-85120068D01*
X196963980Y-85120068D01*
X197244309Y-85175828D01*
X197244309Y-85175828D01*
G37*
G36*
X16494309Y-81175828D02*
G01*
X16758373Y-81285207D01*
X16996026Y-81444002D01*
X17198134Y-81646110D01*
X17356929Y-81883763D01*
X17466308Y-82147827D01*
X17522068Y-82428156D01*
X17522068Y-82713980D01*
X17466308Y-82994309D01*
X17356929Y-83258373D01*
X17198134Y-83496026D01*
X16996026Y-83698134D01*
X16758373Y-83856929D01*
X16494309Y-83966308D01*
X16213980Y-84022068D01*
X15928156Y-84022068D01*
X15647827Y-83966308D01*
X15383763Y-83856929D01*
X15146110Y-83698134D01*
X14944002Y-83496026D01*
X14785207Y-83258373D01*
X14675828Y-82994309D01*
X14620068Y-82713980D01*
X14620068Y-82428156D01*
X14675828Y-82147827D01*
X14785207Y-81883763D01*
X14944002Y-81646110D01*
X15146110Y-81444002D01*
X15383763Y-81285207D01*
X15647827Y-81175828D01*
X15928156Y-81120068D01*
X16213980Y-81120068D01*
X16494309Y-81175828D01*
X16494309Y-81175828D01*
G37*
G36*
X149244309Y-81175828D02*
G01*
X149508373Y-81285207D01*
X149746026Y-81444002D01*
X149948134Y-81646110D01*
X150106929Y-81883763D01*
X150216308Y-82147827D01*
X150272068Y-82428156D01*
X150272068Y-82713980D01*
X150216308Y-82994309D01*
X150106929Y-83258373D01*
X149948134Y-83496026D01*
X149746026Y-83698134D01*
X149508373Y-83856929D01*
X149244309Y-83966308D01*
X148963980Y-84022068D01*
X148678156Y-84022068D01*
X148397827Y-83966308D01*
X148133763Y-83856929D01*
X147896110Y-83698134D01*
X147694002Y-83496026D01*
X147535207Y-83258373D01*
X147425828Y-82994309D01*
X147370068Y-82713980D01*
X147370068Y-82428156D01*
X147425828Y-82147827D01*
X147535207Y-81883763D01*
X147694002Y-81646110D01*
X147896110Y-81444002D01*
X148133763Y-81285207D01*
X148397827Y-81175828D01*
X148678156Y-81120068D01*
X148963980Y-81120068D01*
X149244309Y-81175828D01*
X149244309Y-81175828D01*
G37*
G36*
X105244309Y-81175828D02*
G01*
X105508373Y-81285207D01*
X105746026Y-81444002D01*
X105948134Y-81646110D01*
X106106929Y-81883763D01*
X106216308Y-82147827D01*
X106272068Y-82428156D01*
X106272068Y-82713980D01*
X106216308Y-82994309D01*
X106106929Y-83258373D01*
X105948134Y-83496026D01*
X105746026Y-83698134D01*
X105508373Y-83856929D01*
X105244309Y-83966308D01*
X104963980Y-84022068D01*
X104678156Y-84022068D01*
X104397827Y-83966308D01*
X104133763Y-83856929D01*
X103896110Y-83698134D01*
X103694002Y-83496026D01*
X103535207Y-83258373D01*
X103425828Y-82994309D01*
X103370068Y-82713980D01*
X103370068Y-82428156D01*
X103425828Y-82147827D01*
X103535207Y-81883763D01*
X103694002Y-81646110D01*
X103896110Y-81444002D01*
X104133763Y-81285207D01*
X104397827Y-81175828D01*
X104678156Y-81120068D01*
X104963980Y-81120068D01*
X105244309Y-81175828D01*
X105244309Y-81175828D01*
G37*
G36*
X60994309Y-81175828D02*
G01*
X61258373Y-81285207D01*
X61496026Y-81444002D01*
X61698134Y-81646110D01*
X61856929Y-81883763D01*
X61966308Y-82147827D01*
X62022068Y-82428156D01*
X62022068Y-82713980D01*
X61966308Y-82994309D01*
X61856929Y-83258373D01*
X61698134Y-83496026D01*
X61496026Y-83698134D01*
X61258373Y-83856929D01*
X60994309Y-83966308D01*
X60713980Y-84022068D01*
X60428156Y-84022068D01*
X60147827Y-83966308D01*
X59883763Y-83856929D01*
X59646110Y-83698134D01*
X59444002Y-83496026D01*
X59285207Y-83258373D01*
X59175828Y-82994309D01*
X59120068Y-82713980D01*
X59120068Y-82428156D01*
X59175828Y-82147827D01*
X59285207Y-81883763D01*
X59444002Y-81646110D01*
X59646110Y-81444002D01*
X59883763Y-81285207D01*
X60147827Y-81175828D01*
X60428156Y-81120068D01*
X60713980Y-81120068D01*
X60994309Y-81175828D01*
X60994309Y-81175828D01*
G37*
G36*
X183102173Y-71033692D02*
G01*
X183366237Y-71143071D01*
X183603890Y-71301866D01*
X183805998Y-71503974D01*
X183964793Y-71741627D01*
X184074172Y-72005691D01*
X184129932Y-72286020D01*
X184129932Y-72571844D01*
X184074172Y-72852173D01*
X183964793Y-73116237D01*
X183805998Y-73353890D01*
X183603890Y-73555998D01*
X183366237Y-73714793D01*
X183102173Y-73824172D01*
X182821844Y-73879932D01*
X182536020Y-73879932D01*
X182255691Y-73824172D01*
X181991627Y-73714793D01*
X181753974Y-73555998D01*
X181551866Y-73353890D01*
X181393071Y-73116237D01*
X181283692Y-72852173D01*
X181227932Y-72571844D01*
X181227932Y-72286020D01*
X181283692Y-72005691D01*
X181393071Y-71741627D01*
X181551866Y-71503974D01*
X181753974Y-71301866D01*
X181991627Y-71143071D01*
X182255691Y-71033692D01*
X182536020Y-70977932D01*
X182821844Y-70977932D01*
X183102173Y-71033692D01*
X183102173Y-71033692D01*
G37*
G36*
X46852173Y-67033692D02*
G01*
X47116237Y-67143071D01*
X47353890Y-67301866D01*
X47555998Y-67503974D01*
X47714793Y-67741627D01*
X47824172Y-68005691D01*
X47879932Y-68286020D01*
X47879932Y-68571844D01*
X47824172Y-68852173D01*
X47714793Y-69116237D01*
X47555998Y-69353890D01*
X47353890Y-69555998D01*
X47116237Y-69714793D01*
X46852173Y-69824172D01*
X46571844Y-69879932D01*
X46286020Y-69879932D01*
X46005691Y-69824172D01*
X45741627Y-69714793D01*
X45503974Y-69555998D01*
X45301866Y-69353890D01*
X45143071Y-69116237D01*
X45033692Y-68852173D01*
X44977932Y-68571844D01*
X44977932Y-68286020D01*
X45033692Y-68005691D01*
X45143071Y-67741627D01*
X45301866Y-67503974D01*
X45503974Y-67301866D01*
X45741627Y-67143071D01*
X46005691Y-67033692D01*
X46286020Y-66977932D01*
X46571844Y-66977932D01*
X46852173Y-67033692D01*
X46852173Y-67033692D01*
G37*
G36*
X2352173Y-67033692D02*
G01*
X2616237Y-67143071D01*
X2853890Y-67301866D01*
X3055998Y-67503974D01*
X3214793Y-67741627D01*
X3324172Y-68005691D01*
X3379932Y-68286020D01*
X3379932Y-68571844D01*
X3324172Y-68852173D01*
X3214793Y-69116237D01*
X3055998Y-69353890D01*
X2853890Y-69555998D01*
X2616237Y-69714793D01*
X2352173Y-69824172D01*
X2071844Y-69879932D01*
X1786020Y-69879932D01*
X1505691Y-69824172D01*
X1241627Y-69714793D01*
X1003974Y-69555998D01*
X801866Y-69353890D01*
X643071Y-69116237D01*
X533692Y-68852173D01*
X477932Y-68571844D01*
X477932Y-68286020D01*
X533692Y-68005691D01*
X643071Y-67741627D01*
X801866Y-67503974D01*
X1003974Y-67301866D01*
X1241627Y-67143071D01*
X1505691Y-67033692D01*
X1786020Y-66977932D01*
X2071844Y-66977932D01*
X2352173Y-67033692D01*
X2352173Y-67033692D01*
G37*
G36*
X135102173Y-67033692D02*
G01*
X135366237Y-67143071D01*
X135603890Y-67301866D01*
X135805998Y-67503974D01*
X135964793Y-67741627D01*
X136074172Y-68005691D01*
X136129932Y-68286020D01*
X136129932Y-68571844D01*
X136074172Y-68852173D01*
X135964793Y-69116237D01*
X135805998Y-69353890D01*
X135603890Y-69555998D01*
X135366237Y-69714793D01*
X135102173Y-69824172D01*
X134821844Y-69879932D01*
X134536020Y-69879932D01*
X134255691Y-69824172D01*
X133991627Y-69714793D01*
X133753974Y-69555998D01*
X133551866Y-69353890D01*
X133393071Y-69116237D01*
X133283692Y-68852173D01*
X133227932Y-68571844D01*
X133227932Y-68286020D01*
X133283692Y-68005691D01*
X133393071Y-67741627D01*
X133551866Y-67503974D01*
X133753974Y-67301866D01*
X133991627Y-67143071D01*
X134255691Y-67033692D01*
X134536020Y-66977932D01*
X134821844Y-66977932D01*
X135102173Y-67033692D01*
X135102173Y-67033692D01*
G37*
G36*
X91102173Y-67033692D02*
G01*
X91366237Y-67143071D01*
X91603890Y-67301866D01*
X91805998Y-67503974D01*
X91964793Y-67741627D01*
X92074172Y-68005691D01*
X92129932Y-68286020D01*
X92129932Y-68571844D01*
X92074172Y-68852173D01*
X91964793Y-69116237D01*
X91805998Y-69353890D01*
X91603890Y-69555998D01*
X91366237Y-69714793D01*
X91102173Y-69824172D01*
X90821844Y-69879932D01*
X90536020Y-69879932D01*
X90255691Y-69824172D01*
X89991627Y-69714793D01*
X89753974Y-69555998D01*
X89551866Y-69353890D01*
X89393071Y-69116237D01*
X89283692Y-68852173D01*
X89227932Y-68571844D01*
X89227932Y-68286020D01*
X89283692Y-68005691D01*
X89393071Y-67741627D01*
X89551866Y-67503974D01*
X89753974Y-67301866D01*
X89991627Y-67143071D01*
X90255691Y-67033692D01*
X90536020Y-66977932D01*
X90821844Y-66977932D01*
X91102173Y-67033692D01*
X91102173Y-67033692D01*
G37*
G36*
X168908173Y-57175828D02*
G01*
X169172237Y-57285207D01*
X169409890Y-57444002D01*
X169611998Y-57646110D01*
X169770793Y-57883763D01*
X169880172Y-58147827D01*
X169935932Y-58428156D01*
X169935932Y-58713980D01*
X169880172Y-58994309D01*
X169770793Y-59258373D01*
X169611998Y-59496026D01*
X169409890Y-59698134D01*
X169172237Y-59856929D01*
X168908173Y-59966308D01*
X168627844Y-60022068D01*
X168342020Y-60022068D01*
X168061691Y-59966308D01*
X167797627Y-59856929D01*
X167559974Y-59698134D01*
X167357866Y-59496026D01*
X167199071Y-59258373D01*
X167089692Y-58994309D01*
X167033932Y-58713980D01*
X167033932Y-58428156D01*
X167089692Y-58147827D01*
X167199071Y-57883763D01*
X167357866Y-57646110D01*
X167559974Y-57444002D01*
X167797627Y-57285207D01*
X168061691Y-57175828D01*
X168342020Y-57120068D01*
X168627844Y-57120068D01*
X168908173Y-57175828D01*
X168908173Y-57175828D01*
G37*
G36*
X32602173Y-53425828D02*
G01*
X32866237Y-53535207D01*
X33103890Y-53694002D01*
X33305998Y-53896110D01*
X33464793Y-54133763D01*
X33574172Y-54397827D01*
X33629932Y-54678156D01*
X33629932Y-54963980D01*
X33574172Y-55244309D01*
X33464793Y-55508373D01*
X33305998Y-55746026D01*
X33103890Y-55948134D01*
X32866237Y-56106929D01*
X32602173Y-56216308D01*
X32321844Y-56272068D01*
X32036020Y-56272068D01*
X31755691Y-56216308D01*
X31491627Y-56106929D01*
X31253974Y-55948134D01*
X31051866Y-55746026D01*
X30893071Y-55508373D01*
X30783692Y-55244309D01*
X30727932Y-54963980D01*
X30727932Y-54678156D01*
X30783692Y-54397827D01*
X30893071Y-54133763D01*
X31051866Y-53896110D01*
X31253974Y-53694002D01*
X31491627Y-53535207D01*
X31755691Y-53425828D01*
X32036020Y-53370068D01*
X32321844Y-53370068D01*
X32602173Y-53425828D01*
X32602173Y-53425828D01*
G37*
G36*
X121102173Y-53175828D02*
G01*
X121366237Y-53285207D01*
X121603890Y-53444002D01*
X121805998Y-53646110D01*
X121964793Y-53883763D01*
X122074172Y-54147827D01*
X122129932Y-54428156D01*
X122129932Y-54713980D01*
X122074172Y-54994309D01*
X121964793Y-55258373D01*
X121805998Y-55496026D01*
X121603890Y-55698134D01*
X121366237Y-55856929D01*
X121102173Y-55966308D01*
X120821844Y-56022068D01*
X120536020Y-56022068D01*
X120255691Y-55966308D01*
X119991627Y-55856929D01*
X119753974Y-55698134D01*
X119551866Y-55496026D01*
X119393071Y-55258373D01*
X119283692Y-54994309D01*
X119227932Y-54713980D01*
X119227932Y-54428156D01*
X119283692Y-54147827D01*
X119393071Y-53883763D01*
X119551866Y-53646110D01*
X119753974Y-53444002D01*
X119991627Y-53285207D01*
X120255691Y-53175828D01*
X120536020Y-53120068D01*
X120821844Y-53120068D01*
X121102173Y-53175828D01*
X121102173Y-53175828D01*
G37*
G36*
X77102173Y-53175828D02*
G01*
X77366237Y-53285207D01*
X77603890Y-53444002D01*
X77805998Y-53646110D01*
X77964793Y-53883763D01*
X78074172Y-54147827D01*
X78129932Y-54428156D01*
X78129932Y-54713980D01*
X78074172Y-54994309D01*
X77964793Y-55258373D01*
X77805998Y-55496026D01*
X77603890Y-55698134D01*
X77366237Y-55856929D01*
X77102173Y-55966308D01*
X76821844Y-56022068D01*
X76536020Y-56022068D01*
X76255691Y-55966308D01*
X75991627Y-55856929D01*
X75753974Y-55698134D01*
X75551866Y-55496026D01*
X75393071Y-55258373D01*
X75283692Y-54994309D01*
X75227932Y-54713980D01*
X75227932Y-54428156D01*
X75283692Y-54147827D01*
X75393071Y-53883763D01*
X75551866Y-53646110D01*
X75753974Y-53444002D01*
X75991627Y-53285207D01*
X76255691Y-53175828D01*
X76536020Y-53120068D01*
X76821844Y-53120068D01*
X77102173Y-53175828D01*
X77102173Y-53175828D01*
G37*
G36*
X-11897827Y-53175828D02*
G01*
X-11633763Y-53285207D01*
X-11396110Y-53444002D01*
X-11194002Y-53646110D01*
X-11035207Y-53883763D01*
X-10925828Y-54147827D01*
X-10870068Y-54428156D01*
X-10870068Y-54713980D01*
X-10925828Y-54994309D01*
X-11035207Y-55258373D01*
X-11194002Y-55496026D01*
X-11396110Y-55698134D01*
X-11633763Y-55856929D01*
X-11897827Y-55966308D01*
X-12178156Y-56022068D01*
X-12463980Y-56022068D01*
X-12744309Y-55966308D01*
X-13008373Y-55856929D01*
X-13246026Y-55698134D01*
X-13448134Y-55496026D01*
X-13606929Y-55258373D01*
X-13716308Y-54994309D01*
X-13772068Y-54713980D01*
X-13772068Y-54428156D01*
X-13716308Y-54147827D01*
X-13606929Y-53883763D01*
X-13448134Y-53646110D01*
X-13246026Y-53444002D01*
X-13008373Y-53285207D01*
X-12744309Y-53175828D01*
X-12463980Y-53120068D01*
X-12178156Y-53120068D01*
X-11897827Y-53175828D01*
X-11897827Y-53175828D01*
G37*
G36*
X11201817Y-48676666D02*
G01*
X11438583Y-48774738D01*
X11438585Y-48774739D01*
X11651669Y-48917117D01*
X11832883Y-49098331D01*
X11966420Y-49298183D01*
X11975262Y-49311417D01*
X12073334Y-49548183D01*
X12123330Y-49799531D01*
X12123330Y-50055809D01*
X12073334Y-50307157D01*
X11990552Y-50507009D01*
X11975261Y-50543925D01*
X11832883Y-50757009D01*
X11651669Y-50938223D01*
X11438585Y-51080601D01*
X11438584Y-51080602D01*
X11438583Y-51080602D01*
X11201817Y-51178674D01*
X10950469Y-51228670D01*
X10694191Y-51228670D01*
X10442843Y-51178674D01*
X10206077Y-51080602D01*
X10206076Y-51080602D01*
X10206075Y-51080601D01*
X9992991Y-50938223D01*
X9811777Y-50757009D01*
X9669399Y-50543925D01*
X9654108Y-50507009D01*
X9571326Y-50307157D01*
X9521330Y-50055809D01*
X9521330Y-49799531D01*
X9571326Y-49548183D01*
X9669398Y-49311417D01*
X9678241Y-49298183D01*
X9811777Y-49098331D01*
X9992991Y-48917117D01*
X10206075Y-48774739D01*
X10206077Y-48774738D01*
X10442843Y-48676666D01*
X10694191Y-48626670D01*
X10950469Y-48626670D01*
X11201817Y-48676666D01*
X11201817Y-48676666D01*
G37*
G36*
X55701817Y-48676666D02*
G01*
X55938583Y-48774738D01*
X55938585Y-48774739D01*
X56151669Y-48917117D01*
X56332883Y-49098331D01*
X56466420Y-49298183D01*
X56475262Y-49311417D01*
X56573334Y-49548183D01*
X56623330Y-49799531D01*
X56623330Y-50055809D01*
X56573334Y-50307157D01*
X56490552Y-50507009D01*
X56475261Y-50543925D01*
X56332883Y-50757009D01*
X56151669Y-50938223D01*
X55938585Y-51080601D01*
X55938584Y-51080602D01*
X55938583Y-51080602D01*
X55701817Y-51178674D01*
X55450469Y-51228670D01*
X55194191Y-51228670D01*
X54942843Y-51178674D01*
X54706077Y-51080602D01*
X54706076Y-51080602D01*
X54706075Y-51080601D01*
X54492991Y-50938223D01*
X54311777Y-50757009D01*
X54169399Y-50543925D01*
X54154108Y-50507009D01*
X54071326Y-50307157D01*
X54021330Y-50055809D01*
X54021330Y-49799531D01*
X54071326Y-49548183D01*
X54169398Y-49311417D01*
X54178241Y-49298183D01*
X54311777Y-49098331D01*
X54492991Y-48917117D01*
X54706075Y-48774739D01*
X54706077Y-48774738D01*
X54942843Y-48676666D01*
X55194191Y-48626670D01*
X55450469Y-48626670D01*
X55701817Y-48676666D01*
X55701817Y-48676666D01*
G37*
G36*
X99951817Y-48426666D02*
G01*
X100188583Y-48524738D01*
X100188585Y-48524739D01*
X100341136Y-48626670D01*
X100401669Y-48667117D01*
X100582883Y-48848331D01*
X100725262Y-49061417D01*
X100823334Y-49298183D01*
X100873330Y-49549531D01*
X100873330Y-49805809D01*
X100823334Y-50057157D01*
X100725262Y-50293923D01*
X100725261Y-50293925D01*
X100582883Y-50507009D01*
X100401669Y-50688223D01*
X100188585Y-50830601D01*
X100188584Y-50830602D01*
X100188583Y-50830602D01*
X99951817Y-50928674D01*
X99700469Y-50978670D01*
X99444191Y-50978670D01*
X99192843Y-50928674D01*
X98956077Y-50830602D01*
X98956076Y-50830602D01*
X98956075Y-50830601D01*
X98742991Y-50688223D01*
X98561777Y-50507009D01*
X98419399Y-50293925D01*
X98419398Y-50293923D01*
X98321326Y-50057157D01*
X98271330Y-49805809D01*
X98271330Y-49549531D01*
X98321326Y-49298183D01*
X98419398Y-49061417D01*
X98561777Y-48848331D01*
X98742991Y-48667117D01*
X98803524Y-48626670D01*
X98956075Y-48524739D01*
X98956077Y-48524738D01*
X99192843Y-48426666D01*
X99444191Y-48376670D01*
X99700469Y-48376670D01*
X99951817Y-48426666D01*
X99951817Y-48426666D01*
G37*
G36*
X144451817Y-48426666D02*
G01*
X144688583Y-48524738D01*
X144688585Y-48524739D01*
X144841136Y-48626670D01*
X144901669Y-48667117D01*
X145082883Y-48848331D01*
X145225262Y-49061417D01*
X145323334Y-49298183D01*
X145373330Y-49549531D01*
X145373330Y-49805809D01*
X145323334Y-50057157D01*
X145225262Y-50293923D01*
X145225261Y-50293925D01*
X145082883Y-50507009D01*
X144901669Y-50688223D01*
X144688585Y-50830601D01*
X144688584Y-50830602D01*
X144688583Y-50830602D01*
X144451817Y-50928674D01*
X144200469Y-50978670D01*
X143944191Y-50978670D01*
X143692843Y-50928674D01*
X143456077Y-50830602D01*
X143456076Y-50830602D01*
X143456075Y-50830601D01*
X143242991Y-50688223D01*
X143061777Y-50507009D01*
X142919399Y-50293925D01*
X142919398Y-50293923D01*
X142821326Y-50057157D01*
X142771330Y-49805809D01*
X142771330Y-49549531D01*
X142821326Y-49298183D01*
X142919398Y-49061417D01*
X143061777Y-48848331D01*
X143242991Y-48667117D01*
X143303524Y-48626670D01*
X143456075Y-48524739D01*
X143456077Y-48524738D01*
X143692843Y-48426666D01*
X143944191Y-48376670D01*
X144200469Y-48376670D01*
X144451817Y-48426666D01*
X144451817Y-48426666D01*
G37*
G36*
X14737351Y-45141132D02*
G01*
X14888422Y-45203708D01*
X14974119Y-45239205D01*
X15187203Y-45381583D01*
X15368417Y-45562797D01*
X15501954Y-45762649D01*
X15510796Y-45775883D01*
X15608868Y-46012649D01*
X15658864Y-46263997D01*
X15658864Y-46520275D01*
X15608868Y-46771623D01*
X15526086Y-46971475D01*
X15510795Y-47008391D01*
X15368417Y-47221475D01*
X15187203Y-47402689D01*
X14974119Y-47545067D01*
X14974118Y-47545068D01*
X14974117Y-47545068D01*
X14737351Y-47643140D01*
X14486003Y-47693136D01*
X14229725Y-47693136D01*
X13978377Y-47643140D01*
X13741611Y-47545068D01*
X13741610Y-47545068D01*
X13741609Y-47545067D01*
X13528525Y-47402689D01*
X13347311Y-47221475D01*
X13204933Y-47008391D01*
X13189642Y-46971475D01*
X13106860Y-46771623D01*
X13056864Y-46520275D01*
X13056864Y-46263997D01*
X13106860Y-46012649D01*
X13204932Y-45775883D01*
X13213775Y-45762649D01*
X13347311Y-45562797D01*
X13528525Y-45381583D01*
X13741609Y-45239205D01*
X13827306Y-45203708D01*
X13978377Y-45141132D01*
X14229725Y-45091136D01*
X14486003Y-45091136D01*
X14737351Y-45141132D01*
X14737351Y-45141132D01*
G37*
G36*
X59237351Y-45141132D02*
G01*
X59388422Y-45203708D01*
X59474119Y-45239205D01*
X59687203Y-45381583D01*
X59868417Y-45562797D01*
X60001954Y-45762649D01*
X60010796Y-45775883D01*
X60108868Y-46012649D01*
X60158864Y-46263997D01*
X60158864Y-46520275D01*
X60108868Y-46771623D01*
X60026086Y-46971475D01*
X60010795Y-47008391D01*
X59868417Y-47221475D01*
X59687203Y-47402689D01*
X59474119Y-47545067D01*
X59474118Y-47545068D01*
X59474117Y-47545068D01*
X59237351Y-47643140D01*
X58986003Y-47693136D01*
X58729725Y-47693136D01*
X58478377Y-47643140D01*
X58241611Y-47545068D01*
X58241610Y-47545068D01*
X58241609Y-47545067D01*
X58028525Y-47402689D01*
X57847311Y-47221475D01*
X57704933Y-47008391D01*
X57689642Y-46971475D01*
X57606860Y-46771623D01*
X57556864Y-46520275D01*
X57556864Y-46263997D01*
X57606860Y-46012649D01*
X57704932Y-45775883D01*
X57713775Y-45762649D01*
X57847311Y-45562797D01*
X58028525Y-45381583D01*
X58241609Y-45239205D01*
X58327306Y-45203708D01*
X58478377Y-45141132D01*
X58729725Y-45091136D01*
X58986003Y-45091136D01*
X59237351Y-45141132D01*
X59237351Y-45141132D01*
G37*
G36*
X103487351Y-44891132D02*
G01*
X103724117Y-44989204D01*
X103724119Y-44989205D01*
X103937203Y-45131583D01*
X104118417Y-45312797D01*
X104212571Y-45453708D01*
X104260796Y-45525883D01*
X104358868Y-45762649D01*
X104408864Y-46013997D01*
X104408864Y-46270275D01*
X104358868Y-46521623D01*
X104260796Y-46758389D01*
X104260795Y-46758391D01*
X104118417Y-46971475D01*
X103937203Y-47152689D01*
X103724119Y-47295067D01*
X103724118Y-47295068D01*
X103724117Y-47295068D01*
X103487351Y-47393140D01*
X103236003Y-47443136D01*
X102979725Y-47443136D01*
X102728377Y-47393140D01*
X102491611Y-47295068D01*
X102491610Y-47295068D01*
X102491609Y-47295067D01*
X102278525Y-47152689D01*
X102097311Y-46971475D01*
X101954933Y-46758391D01*
X101954932Y-46758389D01*
X101856860Y-46521623D01*
X101806864Y-46270275D01*
X101806864Y-46013997D01*
X101856860Y-45762649D01*
X101954932Y-45525883D01*
X102003158Y-45453708D01*
X102097311Y-45312797D01*
X102278525Y-45131583D01*
X102491609Y-44989205D01*
X102491611Y-44989204D01*
X102728377Y-44891132D01*
X102979725Y-44841136D01*
X103236003Y-44841136D01*
X103487351Y-44891132D01*
X103487351Y-44891132D01*
G37*
G36*
X147987351Y-44891132D02*
G01*
X148224117Y-44989204D01*
X148224119Y-44989205D01*
X148437203Y-45131583D01*
X148618417Y-45312797D01*
X148712571Y-45453708D01*
X148760796Y-45525883D01*
X148858868Y-45762649D01*
X148908864Y-46013997D01*
X148908864Y-46270275D01*
X148858868Y-46521623D01*
X148760796Y-46758389D01*
X148760795Y-46758391D01*
X148618417Y-46971475D01*
X148437203Y-47152689D01*
X148224119Y-47295067D01*
X148224118Y-47295068D01*
X148224117Y-47295068D01*
X147987351Y-47393140D01*
X147736003Y-47443136D01*
X147479725Y-47443136D01*
X147228377Y-47393140D01*
X146991611Y-47295068D01*
X146991610Y-47295068D01*
X146991609Y-47295067D01*
X146778525Y-47152689D01*
X146597311Y-46971475D01*
X146454933Y-46758391D01*
X146454932Y-46758389D01*
X146356860Y-46521623D01*
X146306864Y-46270275D01*
X146306864Y-46013997D01*
X146356860Y-45762649D01*
X146454932Y-45525883D01*
X146503158Y-45453708D01*
X146597311Y-45312797D01*
X146778525Y-45131583D01*
X146991609Y-44989205D01*
X146991611Y-44989204D01*
X147228377Y-44891132D01*
X147479725Y-44841136D01*
X147736003Y-44841136D01*
X147987351Y-44891132D01*
X147987351Y-44891132D01*
G37*
G36*
X50398517Y-43373365D02*
G01*
X50549588Y-43435941D01*
X50635285Y-43471438D01*
X50848369Y-43613816D01*
X51029583Y-43795030D01*
X51163120Y-43994882D01*
X51171962Y-44008116D01*
X51270034Y-44244882D01*
X51320030Y-44496230D01*
X51320030Y-44752508D01*
X51270034Y-45003856D01*
X51187252Y-45203708D01*
X51171961Y-45240624D01*
X51029583Y-45453708D01*
X50848369Y-45634922D01*
X50635285Y-45777300D01*
X50635284Y-45777301D01*
X50635283Y-45777301D01*
X50398517Y-45875373D01*
X50147169Y-45925369D01*
X49890891Y-45925369D01*
X49639543Y-45875373D01*
X49402777Y-45777301D01*
X49402776Y-45777301D01*
X49402775Y-45777300D01*
X49189691Y-45634922D01*
X49008477Y-45453708D01*
X48866099Y-45240624D01*
X48850808Y-45203708D01*
X48768026Y-45003856D01*
X48718030Y-44752508D01*
X48718030Y-44496230D01*
X48768026Y-44244882D01*
X48866098Y-44008116D01*
X48874941Y-43994882D01*
X49008477Y-43795030D01*
X49189691Y-43613816D01*
X49402775Y-43471438D01*
X49488472Y-43435941D01*
X49639543Y-43373365D01*
X49890891Y-43323369D01*
X50147169Y-43323369D01*
X50398517Y-43373365D01*
X50398517Y-43373365D01*
G37*
G36*
X5898517Y-43373365D02*
G01*
X6049588Y-43435941D01*
X6135285Y-43471438D01*
X6348369Y-43613816D01*
X6529583Y-43795030D01*
X6663120Y-43994882D01*
X6671962Y-44008116D01*
X6770034Y-44244882D01*
X6820030Y-44496230D01*
X6820030Y-44752508D01*
X6770034Y-45003856D01*
X6687252Y-45203708D01*
X6671961Y-45240624D01*
X6529583Y-45453708D01*
X6348369Y-45634922D01*
X6135285Y-45777300D01*
X6135284Y-45777301D01*
X6135283Y-45777301D01*
X5898517Y-45875373D01*
X5647169Y-45925369D01*
X5390891Y-45925369D01*
X5139543Y-45875373D01*
X4902777Y-45777301D01*
X4902776Y-45777301D01*
X4902775Y-45777300D01*
X4689691Y-45634922D01*
X4508477Y-45453708D01*
X4366099Y-45240624D01*
X4350808Y-45203708D01*
X4268026Y-45003856D01*
X4218030Y-44752508D01*
X4218030Y-44496230D01*
X4268026Y-44244882D01*
X4366098Y-44008116D01*
X4374941Y-43994882D01*
X4508477Y-43795030D01*
X4689691Y-43613816D01*
X4902775Y-43471438D01*
X4988472Y-43435941D01*
X5139543Y-43373365D01*
X5390891Y-43323369D01*
X5647169Y-43323369D01*
X5898517Y-43373365D01*
X5898517Y-43373365D01*
G37*
G36*
X183050309Y-43033692D02*
G01*
X183314373Y-43143071D01*
X183552026Y-43301866D01*
X183754134Y-43503974D01*
X183912929Y-43741627D01*
X184022308Y-44005691D01*
X184078068Y-44286020D01*
X184078068Y-44571844D01*
X184022308Y-44852173D01*
X183912929Y-45116237D01*
X183754134Y-45353890D01*
X183552026Y-45555998D01*
X183314373Y-45714793D01*
X183050309Y-45824172D01*
X182769980Y-45879932D01*
X182484156Y-45879932D01*
X182203827Y-45824172D01*
X181939763Y-45714793D01*
X181702110Y-45555998D01*
X181500002Y-45353890D01*
X181341207Y-45116237D01*
X181231828Y-44852173D01*
X181176068Y-44571844D01*
X181176068Y-44286020D01*
X181231828Y-44005691D01*
X181341207Y-43741627D01*
X181500002Y-43503974D01*
X181702110Y-43301866D01*
X181939763Y-43143071D01*
X182203827Y-43033692D01*
X182484156Y-42977932D01*
X182769980Y-42977932D01*
X183050309Y-43033692D01*
X183050309Y-43033692D01*
G37*
G36*
X139148517Y-43123365D02*
G01*
X139385283Y-43221437D01*
X139385285Y-43221438D01*
X139598369Y-43363816D01*
X139779583Y-43545030D01*
X139910945Y-43741627D01*
X139921962Y-43758116D01*
X140020034Y-43994882D01*
X140070030Y-44246230D01*
X140070030Y-44502508D01*
X140020034Y-44753856D01*
X139922549Y-44989204D01*
X139921961Y-44990624D01*
X139779583Y-45203708D01*
X139598369Y-45384922D01*
X139385285Y-45527300D01*
X139385284Y-45527301D01*
X139385283Y-45527301D01*
X139148517Y-45625373D01*
X138897169Y-45675369D01*
X138640891Y-45675369D01*
X138389543Y-45625373D01*
X138152777Y-45527301D01*
X138152776Y-45527301D01*
X138152775Y-45527300D01*
X137939691Y-45384922D01*
X137758477Y-45203708D01*
X137616099Y-44990624D01*
X137615511Y-44989204D01*
X137518026Y-44753856D01*
X137468030Y-44502508D01*
X137468030Y-44246230D01*
X137518026Y-43994882D01*
X137616098Y-43758116D01*
X137627116Y-43741627D01*
X137758477Y-43545030D01*
X137939691Y-43363816D01*
X138152775Y-43221438D01*
X138152777Y-43221437D01*
X138389543Y-43123365D01*
X138640891Y-43073369D01*
X138897169Y-43073369D01*
X139148517Y-43123365D01*
X139148517Y-43123365D01*
G37*
G36*
X94648517Y-43123365D02*
G01*
X94885283Y-43221437D01*
X94885285Y-43221438D01*
X95098369Y-43363816D01*
X95279583Y-43545030D01*
X95410945Y-43741627D01*
X95421962Y-43758116D01*
X95520034Y-43994882D01*
X95570030Y-44246230D01*
X95570030Y-44502508D01*
X95520034Y-44753856D01*
X95422549Y-44989204D01*
X95421961Y-44990624D01*
X95279583Y-45203708D01*
X95098369Y-45384922D01*
X94885285Y-45527300D01*
X94885284Y-45527301D01*
X94885283Y-45527301D01*
X94648517Y-45625373D01*
X94397169Y-45675369D01*
X94140891Y-45675369D01*
X93889543Y-45625373D01*
X93652777Y-45527301D01*
X93652776Y-45527301D01*
X93652775Y-45527300D01*
X93439691Y-45384922D01*
X93258477Y-45203708D01*
X93116099Y-44990624D01*
X93115511Y-44989204D01*
X93018026Y-44753856D01*
X92968030Y-44502508D01*
X92968030Y-44246230D01*
X93018026Y-43994882D01*
X93116098Y-43758116D01*
X93127116Y-43741627D01*
X93258477Y-43545030D01*
X93439691Y-43363816D01*
X93652775Y-43221438D01*
X93652777Y-43221437D01*
X93889543Y-43123365D01*
X94140891Y-43073369D01*
X94397169Y-43073369D01*
X94648517Y-43123365D01*
X94648517Y-43123365D01*
G37*
G36*
X62772885Y-41605598D02*
G01*
X62923956Y-41668174D01*
X63009653Y-41703671D01*
X63222737Y-41846049D01*
X63403951Y-42027263D01*
X63537488Y-42227115D01*
X63546330Y-42240349D01*
X63644402Y-42477115D01*
X63694398Y-42728463D01*
X63694398Y-42984741D01*
X63644402Y-43236089D01*
X63561620Y-43435941D01*
X63546329Y-43472857D01*
X63403951Y-43685941D01*
X63222737Y-43867155D01*
X63009653Y-44009533D01*
X63009652Y-44009534D01*
X63009651Y-44009534D01*
X62772885Y-44107606D01*
X62521537Y-44157602D01*
X62265259Y-44157602D01*
X62013911Y-44107606D01*
X61777145Y-44009534D01*
X61777144Y-44009534D01*
X61777143Y-44009533D01*
X61564059Y-43867155D01*
X61382845Y-43685941D01*
X61240467Y-43472857D01*
X61225176Y-43435941D01*
X61142394Y-43236089D01*
X61092398Y-42984741D01*
X61092398Y-42728463D01*
X61142394Y-42477115D01*
X61240466Y-42240349D01*
X61249309Y-42227115D01*
X61382845Y-42027263D01*
X61564059Y-41846049D01*
X61777143Y-41703671D01*
X61862840Y-41668174D01*
X62013911Y-41605598D01*
X62265259Y-41555602D01*
X62521537Y-41555602D01*
X62772885Y-41605598D01*
X62772885Y-41605598D01*
G37*
G36*
X18272885Y-41605598D02*
G01*
X18423956Y-41668174D01*
X18509653Y-41703671D01*
X18722737Y-41846049D01*
X18903951Y-42027263D01*
X19037488Y-42227115D01*
X19046330Y-42240349D01*
X19144402Y-42477115D01*
X19194398Y-42728463D01*
X19194398Y-42984741D01*
X19144402Y-43236089D01*
X19061620Y-43435941D01*
X19046329Y-43472857D01*
X18903951Y-43685941D01*
X18722737Y-43867155D01*
X18509653Y-44009533D01*
X18509652Y-44009534D01*
X18509651Y-44009534D01*
X18272885Y-44107606D01*
X18021537Y-44157602D01*
X17765259Y-44157602D01*
X17513911Y-44107606D01*
X17277145Y-44009534D01*
X17277144Y-44009534D01*
X17277143Y-44009533D01*
X17064059Y-43867155D01*
X16882845Y-43685941D01*
X16740467Y-43472857D01*
X16725176Y-43435941D01*
X16642394Y-43236089D01*
X16592398Y-42984741D01*
X16592398Y-42728463D01*
X16642394Y-42477115D01*
X16740466Y-42240349D01*
X16749309Y-42227115D01*
X16882845Y-42027263D01*
X17064059Y-41846049D01*
X17277143Y-41703671D01*
X17362840Y-41668174D01*
X17513911Y-41605598D01*
X17765259Y-41555602D01*
X18021537Y-41555602D01*
X18272885Y-41605598D01*
X18272885Y-41605598D01*
G37*
G36*
X107022885Y-41355598D02*
G01*
X107259651Y-41453670D01*
X107259653Y-41453671D01*
X107472737Y-41596049D01*
X107653951Y-41777263D01*
X107779254Y-41964792D01*
X107796330Y-41990349D01*
X107894402Y-42227115D01*
X107944398Y-42478463D01*
X107944398Y-42734741D01*
X107894402Y-42986089D01*
X107829377Y-43143072D01*
X107796329Y-43222857D01*
X107653951Y-43435941D01*
X107472737Y-43617155D01*
X107259653Y-43759533D01*
X107259652Y-43759534D01*
X107259651Y-43759534D01*
X107022885Y-43857606D01*
X106771537Y-43907602D01*
X106515259Y-43907602D01*
X106263911Y-43857606D01*
X106027145Y-43759534D01*
X106027144Y-43759534D01*
X106027143Y-43759533D01*
X105814059Y-43617155D01*
X105632845Y-43435941D01*
X105490467Y-43222857D01*
X105457419Y-43143072D01*
X105392394Y-42986089D01*
X105342398Y-42734741D01*
X105342398Y-42478463D01*
X105392394Y-42227115D01*
X105490466Y-41990349D01*
X105507543Y-41964792D01*
X105632845Y-41777263D01*
X105814059Y-41596049D01*
X106027143Y-41453671D01*
X106027145Y-41453670D01*
X106263911Y-41355598D01*
X106515259Y-41305602D01*
X106771537Y-41305602D01*
X107022885Y-41355598D01*
X107022885Y-41355598D01*
G37*
G36*
X151522885Y-41355598D02*
G01*
X151759651Y-41453670D01*
X151759653Y-41453671D01*
X151972737Y-41596049D01*
X152153951Y-41777263D01*
X152279254Y-41964792D01*
X152296330Y-41990349D01*
X152394402Y-42227115D01*
X152444398Y-42478463D01*
X152444398Y-42734741D01*
X152394402Y-42986089D01*
X152329377Y-43143072D01*
X152296329Y-43222857D01*
X152153951Y-43435941D01*
X151972737Y-43617155D01*
X151759653Y-43759533D01*
X151759652Y-43759534D01*
X151759651Y-43759534D01*
X151522885Y-43857606D01*
X151271537Y-43907602D01*
X151015259Y-43907602D01*
X150763911Y-43857606D01*
X150527145Y-43759534D01*
X150527144Y-43759534D01*
X150527143Y-43759533D01*
X150314059Y-43617155D01*
X150132845Y-43435941D01*
X149990467Y-43222857D01*
X149957419Y-43143072D01*
X149892394Y-42986089D01*
X149842398Y-42734741D01*
X149842398Y-42478463D01*
X149892394Y-42227115D01*
X149990466Y-41990349D01*
X150007543Y-41964792D01*
X150132845Y-41777263D01*
X150314059Y-41596049D01*
X150527143Y-41453671D01*
X150527145Y-41453670D01*
X150763911Y-41355598D01*
X151015259Y-41305602D01*
X151271537Y-41305602D01*
X151522885Y-41355598D01*
X151522885Y-41355598D01*
G37*
G36*
X53934051Y-39837831D02*
G01*
X54170817Y-39935903D01*
X54170819Y-39935904D01*
X54383903Y-40078282D01*
X54565117Y-40259496D01*
X54698654Y-40459348D01*
X54707496Y-40472582D01*
X54805568Y-40709348D01*
X54855564Y-40960696D01*
X54855564Y-41216974D01*
X54805568Y-41468322D01*
X54722786Y-41668174D01*
X54707495Y-41705090D01*
X54565117Y-41918174D01*
X54383903Y-42099388D01*
X54170819Y-42241766D01*
X54170818Y-42241767D01*
X54170817Y-42241767D01*
X53934051Y-42339839D01*
X53682703Y-42389835D01*
X53426425Y-42389835D01*
X53175077Y-42339839D01*
X52938311Y-42241767D01*
X52938310Y-42241767D01*
X52938309Y-42241766D01*
X52725225Y-42099388D01*
X52544011Y-41918174D01*
X52401633Y-41705090D01*
X52386342Y-41668174D01*
X52303560Y-41468322D01*
X52253564Y-41216974D01*
X52253564Y-40960696D01*
X52303560Y-40709348D01*
X52401632Y-40472582D01*
X52410475Y-40459348D01*
X52544011Y-40259496D01*
X52725225Y-40078282D01*
X52938309Y-39935904D01*
X52938311Y-39935903D01*
X53175077Y-39837831D01*
X53426425Y-39787835D01*
X53682703Y-39787835D01*
X53934051Y-39837831D01*
X53934051Y-39837831D01*
G37*
G36*
X9434051Y-39837831D02*
G01*
X9670817Y-39935903D01*
X9670819Y-39935904D01*
X9883903Y-40078282D01*
X10065117Y-40259496D01*
X10198654Y-40459348D01*
X10207496Y-40472582D01*
X10305568Y-40709348D01*
X10355564Y-40960696D01*
X10355564Y-41216974D01*
X10305568Y-41468322D01*
X10222786Y-41668174D01*
X10207495Y-41705090D01*
X10065117Y-41918174D01*
X9883903Y-42099388D01*
X9670819Y-42241766D01*
X9670818Y-42241767D01*
X9670817Y-42241767D01*
X9434051Y-42339839D01*
X9182703Y-42389835D01*
X8926425Y-42389835D01*
X8675077Y-42339839D01*
X8438311Y-42241767D01*
X8438310Y-42241767D01*
X8438309Y-42241766D01*
X8225225Y-42099388D01*
X8044011Y-41918174D01*
X7901633Y-41705090D01*
X7886342Y-41668174D01*
X7803560Y-41468322D01*
X7753564Y-41216974D01*
X7753564Y-40960696D01*
X7803560Y-40709348D01*
X7901632Y-40472582D01*
X7910475Y-40459348D01*
X8044011Y-40259496D01*
X8225225Y-40078282D01*
X8438309Y-39935904D01*
X8438311Y-39935903D01*
X8675077Y-39837831D01*
X8926425Y-39787835D01*
X9182703Y-39787835D01*
X9434051Y-39837831D01*
X9434051Y-39837831D01*
G37*
G36*
X98184051Y-39587831D02*
G01*
X98420817Y-39685903D01*
X98420819Y-39685904D01*
X98633903Y-39828282D01*
X98815117Y-40009496D01*
X98891019Y-40123091D01*
X98957496Y-40222582D01*
X99055568Y-40459348D01*
X99105564Y-40710696D01*
X99105564Y-40966974D01*
X99055568Y-41218322D01*
X98994299Y-41366237D01*
X98957495Y-41455090D01*
X98815117Y-41668174D01*
X98633903Y-41849388D01*
X98420819Y-41991766D01*
X98420818Y-41991767D01*
X98420817Y-41991767D01*
X98184051Y-42089839D01*
X97932703Y-42139835D01*
X97676425Y-42139835D01*
X97425077Y-42089839D01*
X97188311Y-41991767D01*
X97188310Y-41991767D01*
X97188309Y-41991766D01*
X96975225Y-41849388D01*
X96794011Y-41668174D01*
X96651633Y-41455090D01*
X96614829Y-41366237D01*
X96553560Y-41218322D01*
X96503564Y-40966974D01*
X96503564Y-40710696D01*
X96553560Y-40459348D01*
X96651632Y-40222582D01*
X96718110Y-40123091D01*
X96794011Y-40009496D01*
X96975225Y-39828282D01*
X97188309Y-39685904D01*
X97188311Y-39685903D01*
X97425077Y-39587831D01*
X97676425Y-39537835D01*
X97932703Y-39537835D01*
X98184051Y-39587831D01*
X98184051Y-39587831D01*
G37*
G36*
X142684051Y-39587831D02*
G01*
X142920817Y-39685903D01*
X142920819Y-39685904D01*
X143133903Y-39828282D01*
X143315117Y-40009496D01*
X143391019Y-40123091D01*
X143457496Y-40222582D01*
X143555568Y-40459348D01*
X143605564Y-40710696D01*
X143605564Y-40966974D01*
X143555568Y-41218322D01*
X143494299Y-41366237D01*
X143457495Y-41455090D01*
X143315117Y-41668174D01*
X143133903Y-41849388D01*
X142920819Y-41991766D01*
X142920818Y-41991767D01*
X142920817Y-41991767D01*
X142684051Y-42089839D01*
X142432703Y-42139835D01*
X142176425Y-42139835D01*
X141925077Y-42089839D01*
X141688311Y-41991767D01*
X141688310Y-41991767D01*
X141688309Y-41991766D01*
X141475225Y-41849388D01*
X141294011Y-41668174D01*
X141151633Y-41455090D01*
X141114829Y-41366237D01*
X141053560Y-41218322D01*
X141003564Y-40966974D01*
X141003564Y-40710696D01*
X141053560Y-40459348D01*
X141151632Y-40222582D01*
X141218110Y-40123091D01*
X141294011Y-40009496D01*
X141475225Y-39828282D01*
X141688309Y-39685904D01*
X141688311Y-39685903D01*
X141925077Y-39587831D01*
X142176425Y-39537835D01*
X142432703Y-39537835D01*
X142684051Y-39587831D01*
X142684051Y-39587831D01*
G37*
G36*
X46744309Y-39283692D02*
G01*
X47008373Y-39393071D01*
X47246026Y-39551866D01*
X47448134Y-39753974D01*
X47606929Y-39991627D01*
X47716308Y-40255691D01*
X47772068Y-40536020D01*
X47772068Y-40821844D01*
X47716308Y-41102173D01*
X47606929Y-41366237D01*
X47448134Y-41603890D01*
X47246026Y-41805998D01*
X47008373Y-41964793D01*
X46744309Y-42074172D01*
X46463980Y-42129932D01*
X46178156Y-42129932D01*
X45897827Y-42074172D01*
X45633763Y-41964793D01*
X45396110Y-41805998D01*
X45194002Y-41603890D01*
X45035207Y-41366237D01*
X44925828Y-41102173D01*
X44870068Y-40821844D01*
X44870068Y-40536020D01*
X44925828Y-40255691D01*
X45035207Y-39991627D01*
X45194002Y-39753974D01*
X45396110Y-39551866D01*
X45633763Y-39393071D01*
X45897827Y-39283692D01*
X46178156Y-39227932D01*
X46463980Y-39227932D01*
X46744309Y-39283692D01*
X46744309Y-39283692D01*
G37*
G36*
X2244309Y-39033692D02*
G01*
X2508373Y-39143071D01*
X2746026Y-39301866D01*
X2948134Y-39503974D01*
X3106929Y-39741627D01*
X3216308Y-40005691D01*
X3272068Y-40286020D01*
X3272068Y-40571844D01*
X3216308Y-40852173D01*
X3106929Y-41116237D01*
X2948134Y-41353890D01*
X2746026Y-41555998D01*
X2508373Y-41714793D01*
X2244309Y-41824172D01*
X1963980Y-41879932D01*
X1678156Y-41879932D01*
X1397827Y-41824172D01*
X1133763Y-41714793D01*
X896110Y-41555998D01*
X694002Y-41353890D01*
X535207Y-41116237D01*
X425828Y-40852173D01*
X370068Y-40571844D01*
X370068Y-40286020D01*
X425828Y-40005691D01*
X535207Y-39741627D01*
X694002Y-39503974D01*
X896110Y-39301866D01*
X1133763Y-39143071D01*
X1397827Y-39033692D01*
X1678156Y-38977932D01*
X1963980Y-38977932D01*
X2244309Y-39033692D01*
X2244309Y-39033692D01*
G37*
G36*
X135244309Y-39033692D02*
G01*
X135508373Y-39143071D01*
X135746026Y-39301866D01*
X135948134Y-39503974D01*
X136106929Y-39741627D01*
X136216308Y-40005691D01*
X136272068Y-40286020D01*
X136272068Y-40571844D01*
X136216308Y-40852173D01*
X136106929Y-41116237D01*
X135948134Y-41353890D01*
X135746026Y-41555998D01*
X135508373Y-41714793D01*
X135244309Y-41824172D01*
X134963980Y-41879932D01*
X134678156Y-41879932D01*
X134397827Y-41824172D01*
X134133763Y-41714793D01*
X133896110Y-41555998D01*
X133694002Y-41353890D01*
X133535207Y-41116237D01*
X133425828Y-40852173D01*
X133370068Y-40571844D01*
X133370068Y-40286020D01*
X133425828Y-40005691D01*
X133535207Y-39741627D01*
X133694002Y-39503974D01*
X133896110Y-39301866D01*
X134133763Y-39143071D01*
X134397827Y-39033692D01*
X134678156Y-38977932D01*
X134963980Y-38977932D01*
X135244309Y-39033692D01*
X135244309Y-39033692D01*
G37*
G36*
X91244309Y-39033692D02*
G01*
X91508373Y-39143071D01*
X91746026Y-39301866D01*
X91948134Y-39503974D01*
X92106929Y-39741627D01*
X92216308Y-40005691D01*
X92272068Y-40286020D01*
X92272068Y-40571844D01*
X92216308Y-40852173D01*
X92106929Y-41116237D01*
X91948134Y-41353890D01*
X91746026Y-41555998D01*
X91508373Y-41714793D01*
X91244309Y-41824172D01*
X90963980Y-41879932D01*
X90678156Y-41879932D01*
X90397827Y-41824172D01*
X90133763Y-41714793D01*
X89896110Y-41555998D01*
X89694002Y-41353890D01*
X89535207Y-41116237D01*
X89425828Y-40852173D01*
X89370068Y-40571844D01*
X89370068Y-40286020D01*
X89425828Y-40005691D01*
X89535207Y-39741627D01*
X89694002Y-39503974D01*
X89896110Y-39301866D01*
X90133763Y-39143071D01*
X90397827Y-39033692D01*
X90678156Y-38977932D01*
X90963980Y-38977932D01*
X91244309Y-39033692D01*
X91244309Y-39033692D01*
G37*
G36*
X1213546Y-36515433D02*
G01*
X-2394113Y-40123092D01*
X-9537306Y-32979899D01*
X-5929647Y-29372240D01*
X1213546Y-36515433D01*
X1213546Y-36515433D01*
G37*
G36*
X57469584Y-36302297D02*
G01*
X57706350Y-36400369D01*
X57706352Y-36400370D01*
X57919436Y-36542748D01*
X58100650Y-36723962D01*
X58234187Y-36923814D01*
X58243029Y-36937048D01*
X58341101Y-37173814D01*
X58391097Y-37425162D01*
X58391097Y-37681440D01*
X58341101Y-37932788D01*
X58320956Y-37981421D01*
X58243028Y-38169556D01*
X58100650Y-38382640D01*
X57919436Y-38563854D01*
X57706352Y-38706232D01*
X57706351Y-38706233D01*
X57706350Y-38706233D01*
X57469584Y-38804305D01*
X57218236Y-38854301D01*
X56961958Y-38854301D01*
X56710610Y-38804305D01*
X56473844Y-38706233D01*
X56473843Y-38706233D01*
X56473842Y-38706232D01*
X56260758Y-38563854D01*
X56079544Y-38382640D01*
X55937166Y-38169556D01*
X55859238Y-37981421D01*
X55839093Y-37932788D01*
X55789097Y-37681440D01*
X55789097Y-37425162D01*
X55839093Y-37173814D01*
X55937165Y-36937048D01*
X55946008Y-36923814D01*
X56079544Y-36723962D01*
X56260758Y-36542748D01*
X56473842Y-36400370D01*
X56473844Y-36400369D01*
X56710610Y-36302297D01*
X56961958Y-36252301D01*
X57218236Y-36252301D01*
X57469584Y-36302297D01*
X57469584Y-36302297D01*
G37*
G36*
X12969584Y-36302297D02*
G01*
X13206350Y-36400369D01*
X13206352Y-36400370D01*
X13419436Y-36542748D01*
X13600650Y-36723962D01*
X13734187Y-36923814D01*
X13743029Y-36937048D01*
X13841101Y-37173814D01*
X13891097Y-37425162D01*
X13891097Y-37681440D01*
X13841101Y-37932788D01*
X13820956Y-37981421D01*
X13743028Y-38169556D01*
X13600650Y-38382640D01*
X13419436Y-38563854D01*
X13206352Y-38706232D01*
X13206351Y-38706233D01*
X13206350Y-38706233D01*
X12969584Y-38804305D01*
X12718236Y-38854301D01*
X12461958Y-38854301D01*
X12210610Y-38804305D01*
X11973844Y-38706233D01*
X11973843Y-38706233D01*
X11973842Y-38706232D01*
X11760758Y-38563854D01*
X11579544Y-38382640D01*
X11437166Y-38169556D01*
X11359238Y-37981421D01*
X11339093Y-37932788D01*
X11289097Y-37681440D01*
X11289097Y-37425162D01*
X11339093Y-37173814D01*
X11437165Y-36937048D01*
X11446008Y-36923814D01*
X11579544Y-36723962D01*
X11760758Y-36542748D01*
X11973842Y-36400370D01*
X11973844Y-36400369D01*
X12210610Y-36302297D01*
X12461958Y-36252301D01*
X12718236Y-36252301D01*
X12969584Y-36302297D01*
X12969584Y-36302297D01*
G37*
G36*
X101719584Y-36052297D02*
G01*
X101936413Y-36142111D01*
X101956352Y-36150370D01*
X102169436Y-36292748D01*
X102350650Y-36473962D01*
X102442891Y-36612010D01*
X102493029Y-36687048D01*
X102591101Y-36923814D01*
X102641097Y-37175162D01*
X102641097Y-37431440D01*
X102591101Y-37682788D01*
X102544464Y-37795379D01*
X102493028Y-37919556D01*
X102350650Y-38132640D01*
X102169436Y-38313854D01*
X101956352Y-38456232D01*
X101956351Y-38456233D01*
X101956350Y-38456233D01*
X101719584Y-38554305D01*
X101468236Y-38604301D01*
X101211958Y-38604301D01*
X100960610Y-38554305D01*
X100723844Y-38456233D01*
X100723843Y-38456233D01*
X100723842Y-38456232D01*
X100510758Y-38313854D01*
X100329544Y-38132640D01*
X100187166Y-37919556D01*
X100135730Y-37795379D01*
X100089093Y-37682788D01*
X100039097Y-37431440D01*
X100039097Y-37175162D01*
X100089093Y-36923814D01*
X100187165Y-36687048D01*
X100237304Y-36612010D01*
X100329544Y-36473962D01*
X100510758Y-36292748D01*
X100723842Y-36150370D01*
X100743781Y-36142111D01*
X100960610Y-36052297D01*
X101211958Y-36002301D01*
X101468236Y-36002301D01*
X101719584Y-36052297D01*
X101719584Y-36052297D01*
G37*
G36*
X146219584Y-36052297D02*
G01*
X146436413Y-36142111D01*
X146456352Y-36150370D01*
X146669436Y-36292748D01*
X146850650Y-36473962D01*
X146942891Y-36612010D01*
X146993029Y-36687048D01*
X147091101Y-36923814D01*
X147141097Y-37175162D01*
X147141097Y-37431440D01*
X147091101Y-37682788D01*
X147044464Y-37795379D01*
X146993028Y-37919556D01*
X146850650Y-38132640D01*
X146669436Y-38313854D01*
X146456352Y-38456232D01*
X146456351Y-38456233D01*
X146456350Y-38456233D01*
X146219584Y-38554305D01*
X145968236Y-38604301D01*
X145711958Y-38604301D01*
X145460610Y-38554305D01*
X145223844Y-38456233D01*
X145223843Y-38456233D01*
X145223842Y-38456232D01*
X145010758Y-38313854D01*
X144829544Y-38132640D01*
X144687166Y-37919556D01*
X144635730Y-37795379D01*
X144589093Y-37682788D01*
X144539097Y-37431440D01*
X144539097Y-37175162D01*
X144589093Y-36923814D01*
X144687165Y-36687048D01*
X144737304Y-36612010D01*
X144829544Y-36473962D01*
X145010758Y-36292748D01*
X145223842Y-36150370D01*
X145243781Y-36142111D01*
X145460610Y-36052297D01*
X145711958Y-36002301D01*
X145968236Y-36002301D01*
X146219584Y-36052297D01*
X146219584Y-36052297D01*
G37*
G36*
X5314766Y-32414214D02*
G01*
X2414214Y-35314766D01*
X-3314766Y-29585786D01*
X-414214Y-26685234D01*
X5314766Y-32414214D01*
X5314766Y-32414214D01*
G37*
G36*
X28879487Y-30998996D02*
G01*
X29116253Y-31097068D01*
X29116255Y-31097069D01*
X29329339Y-31239447D01*
X29510553Y-31420661D01*
X29644090Y-31620513D01*
X29652932Y-31633747D01*
X29751004Y-31870513D01*
X29801000Y-32121861D01*
X29801000Y-32378139D01*
X29751004Y-32629487D01*
X29687640Y-32782461D01*
X29652931Y-32866255D01*
X29510553Y-33079339D01*
X29329339Y-33260553D01*
X29116255Y-33402931D01*
X29116254Y-33402932D01*
X29116253Y-33402932D01*
X28879487Y-33501004D01*
X28628139Y-33551000D01*
X28371861Y-33551000D01*
X28120513Y-33501004D01*
X27883747Y-33402932D01*
X27883746Y-33402932D01*
X27883745Y-33402931D01*
X27670661Y-33260553D01*
X27489447Y-33079339D01*
X27347069Y-32866255D01*
X27312360Y-32782461D01*
X27248996Y-32629487D01*
X27199000Y-32378139D01*
X27199000Y-32121861D01*
X27248996Y-31870513D01*
X27347068Y-31633747D01*
X27355911Y-31620513D01*
X27489447Y-31420661D01*
X27670661Y-31239447D01*
X27883745Y-31097069D01*
X27883747Y-31097068D01*
X28120513Y-30998996D01*
X28371861Y-30949000D01*
X28628139Y-30949000D01*
X28879487Y-30998996D01*
X28879487Y-30998996D01*
G37*
G36*
X73379487Y-30998996D02*
G01*
X73616253Y-31097068D01*
X73616255Y-31097069D01*
X73829339Y-31239447D01*
X74010553Y-31420661D01*
X74144090Y-31620513D01*
X74152932Y-31633747D01*
X74251004Y-31870513D01*
X74301000Y-32121861D01*
X74301000Y-32378139D01*
X74251004Y-32629487D01*
X74187640Y-32782461D01*
X74152931Y-32866255D01*
X74010553Y-33079339D01*
X73829339Y-33260553D01*
X73616255Y-33402931D01*
X73616254Y-33402932D01*
X73616253Y-33402932D01*
X73379487Y-33501004D01*
X73128139Y-33551000D01*
X72871861Y-33551000D01*
X72620513Y-33501004D01*
X72383747Y-33402932D01*
X72383746Y-33402932D01*
X72383745Y-33402931D01*
X72170661Y-33260553D01*
X71989447Y-33079339D01*
X71847069Y-32866255D01*
X71812360Y-32782461D01*
X71748996Y-32629487D01*
X71699000Y-32378139D01*
X71699000Y-32121861D01*
X71748996Y-31870513D01*
X71847068Y-31633747D01*
X71855911Y-31620513D01*
X71989447Y-31420661D01*
X72170661Y-31239447D01*
X72383745Y-31097069D01*
X72383747Y-31097068D01*
X72620513Y-30998996D01*
X72871861Y-30949000D01*
X73128139Y-30949000D01*
X73379487Y-30998996D01*
X73379487Y-30998996D01*
G37*
G36*
X117629487Y-30748996D02*
G01*
X117866253Y-30847068D01*
X117866255Y-30847069D01*
X117917469Y-30881289D01*
X118079339Y-30989447D01*
X118260553Y-31170661D01*
X118402932Y-31383747D01*
X118501004Y-31620513D01*
X118551000Y-31871861D01*
X118551000Y-32128139D01*
X118501004Y-32379487D01*
X118458730Y-32481544D01*
X118402931Y-32616255D01*
X118260553Y-32829339D01*
X118079339Y-33010553D01*
X117866255Y-33152931D01*
X117866254Y-33152932D01*
X117866253Y-33152932D01*
X117629487Y-33251004D01*
X117378139Y-33301000D01*
X117121861Y-33301000D01*
X116870513Y-33251004D01*
X116633747Y-33152932D01*
X116633746Y-33152932D01*
X116633745Y-33152931D01*
X116420661Y-33010553D01*
X116239447Y-32829339D01*
X116097069Y-32616255D01*
X116041270Y-32481544D01*
X115998996Y-32379487D01*
X115949000Y-32128139D01*
X115949000Y-31871861D01*
X115998996Y-31620513D01*
X116097068Y-31383747D01*
X116239447Y-31170661D01*
X116420661Y-30989447D01*
X116582531Y-30881289D01*
X116633745Y-30847069D01*
X116633747Y-30847068D01*
X116870513Y-30748996D01*
X117121861Y-30699000D01*
X117378139Y-30699000D01*
X117629487Y-30748996D01*
X117629487Y-30748996D01*
G37*
G36*
X162129487Y-30748996D02*
G01*
X162366253Y-30847068D01*
X162366255Y-30847069D01*
X162417469Y-30881289D01*
X162579339Y-30989447D01*
X162760553Y-31170661D01*
X162902932Y-31383747D01*
X163001004Y-31620513D01*
X163051000Y-31871861D01*
X163051000Y-32128139D01*
X163001004Y-32379487D01*
X162958730Y-32481544D01*
X162902931Y-32616255D01*
X162760553Y-32829339D01*
X162579339Y-33010553D01*
X162366255Y-33152931D01*
X162366254Y-33152932D01*
X162366253Y-33152932D01*
X162129487Y-33251004D01*
X161878139Y-33301000D01*
X161621861Y-33301000D01*
X161370513Y-33251004D01*
X161133747Y-33152932D01*
X161133746Y-33152932D01*
X161133745Y-33152931D01*
X160920661Y-33010553D01*
X160739447Y-32829339D01*
X160597069Y-32616255D01*
X160541270Y-32481544D01*
X160498996Y-32379487D01*
X160449000Y-32128139D01*
X160449000Y-31871861D01*
X160498996Y-31620513D01*
X160597068Y-31383747D01*
X160739447Y-31170661D01*
X160920661Y-30989447D01*
X161082531Y-30881289D01*
X161133745Y-30847069D01*
X161133747Y-30847068D01*
X161370513Y-30748996D01*
X161621861Y-30699000D01*
X161878139Y-30699000D01*
X162129487Y-30748996D01*
X162129487Y-30748996D01*
G37*
G36*
X190248228Y-31181703D02*
G01*
X190403100Y-31245853D01*
X190542481Y-31338985D01*
X190661015Y-31457519D01*
X190754147Y-31596900D01*
X190818297Y-31751772D01*
X190851000Y-31916184D01*
X190851000Y-32083816D01*
X190818297Y-32248228D01*
X190754147Y-32403100D01*
X190661015Y-32542481D01*
X190542481Y-32661015D01*
X190403100Y-32754147D01*
X190248228Y-32818297D01*
X190083816Y-32851000D01*
X189916184Y-32851000D01*
X189751772Y-32818297D01*
X189596900Y-32754147D01*
X189457519Y-32661015D01*
X189338985Y-32542481D01*
X189245853Y-32403100D01*
X189181703Y-32248228D01*
X189149000Y-32083816D01*
X189149000Y-31916184D01*
X189181703Y-31751772D01*
X189245853Y-31596900D01*
X189338985Y-31457519D01*
X189457519Y-31338985D01*
X189596900Y-31245853D01*
X189751772Y-31181703D01*
X189916184Y-31149000D01*
X190083816Y-31149000D01*
X190248228Y-31181703D01*
X190248228Y-31181703D01*
G37*
G36*
X10123092Y-27605887D02*
G01*
X6515433Y-31213546D01*
X-627760Y-24070353D01*
X2979899Y-20462694D01*
X10123092Y-27605887D01*
X10123092Y-27605887D01*
G37*
G36*
X190851000Y-30351000D02*
G01*
X189149000Y-30351000D01*
X189149000Y-28649000D01*
X190851000Y-28649000D01*
X190851000Y-30351000D01*
X190851000Y-30351000D01*
G37*
G36*
X23576186Y-25695695D02*
G01*
X23796919Y-25787126D01*
X23812954Y-25793768D01*
X24026038Y-25936146D01*
X24207252Y-26117360D01*
X24340789Y-26317212D01*
X24349631Y-26330446D01*
X24447703Y-26567212D01*
X24497699Y-26818560D01*
X24497699Y-27074838D01*
X24447703Y-27326186D01*
X24364921Y-27526038D01*
X24349630Y-27562954D01*
X24207252Y-27776038D01*
X24026038Y-27957252D01*
X23812954Y-28099630D01*
X23812953Y-28099631D01*
X23812952Y-28099631D01*
X23576186Y-28197703D01*
X23324838Y-28247699D01*
X23068560Y-28247699D01*
X22817212Y-28197703D01*
X22580446Y-28099631D01*
X22580445Y-28099631D01*
X22580444Y-28099630D01*
X22367360Y-27957252D01*
X22186146Y-27776038D01*
X22043768Y-27562954D01*
X22028477Y-27526038D01*
X21945695Y-27326186D01*
X21895699Y-27074838D01*
X21895699Y-26818560D01*
X21945695Y-26567212D01*
X22043767Y-26330446D01*
X22052610Y-26317212D01*
X22186146Y-26117360D01*
X22367360Y-25936146D01*
X22580444Y-25793768D01*
X22596479Y-25787126D01*
X22817212Y-25695695D01*
X23068560Y-25645699D01*
X23324838Y-25645699D01*
X23576186Y-25695695D01*
X23576186Y-25695695D01*
G37*
G36*
X68076186Y-25695695D02*
G01*
X68296919Y-25787126D01*
X68312954Y-25793768D01*
X68526038Y-25936146D01*
X68707252Y-26117360D01*
X68840789Y-26317212D01*
X68849631Y-26330446D01*
X68947703Y-26567212D01*
X68997699Y-26818560D01*
X68997699Y-27074838D01*
X68947703Y-27326186D01*
X68864921Y-27526038D01*
X68849630Y-27562954D01*
X68707252Y-27776038D01*
X68526038Y-27957252D01*
X68312954Y-28099630D01*
X68312953Y-28099631D01*
X68312952Y-28099631D01*
X68076186Y-28197703D01*
X67824838Y-28247699D01*
X67568560Y-28247699D01*
X67317212Y-28197703D01*
X67080446Y-28099631D01*
X67080445Y-28099631D01*
X67080444Y-28099630D01*
X66867360Y-27957252D01*
X66686146Y-27776038D01*
X66543768Y-27562954D01*
X66528477Y-27526038D01*
X66445695Y-27326186D01*
X66395699Y-27074838D01*
X66395699Y-26818560D01*
X66445695Y-26567212D01*
X66543767Y-26330446D01*
X66552610Y-26317212D01*
X66686146Y-26117360D01*
X66867360Y-25936146D01*
X67080444Y-25793768D01*
X67096479Y-25787126D01*
X67317212Y-25695695D01*
X67568560Y-25645699D01*
X67824838Y-25645699D01*
X68076186Y-25695695D01*
X68076186Y-25695695D01*
G37*
G36*
X14889943Y-22066248D02*
G01*
X15445189Y-22296238D01*
X15617497Y-22411371D01*
X15944899Y-22630134D01*
X16369866Y-23055101D01*
X16383830Y-23076000D01*
X16703762Y-23554811D01*
X16933752Y-24110057D01*
X17051000Y-24699501D01*
X17051000Y-25300499D01*
X16933752Y-25889943D01*
X16703762Y-26445189D01*
X16608892Y-26587171D01*
X16369866Y-26944899D01*
X15944899Y-27369866D01*
X15915450Y-27389543D01*
X15445189Y-27703762D01*
X14889943Y-27933752D01*
X14300499Y-28051000D01*
X13699501Y-28051000D01*
X13110057Y-27933752D01*
X12554811Y-27703762D01*
X12084550Y-27389543D01*
X12055101Y-27369866D01*
X11630134Y-26944899D01*
X11391108Y-26587171D01*
X11296238Y-26445189D01*
X11066248Y-25889943D01*
X10949000Y-25300499D01*
X10949000Y-24699501D01*
X11066248Y-24110057D01*
X11296238Y-23554811D01*
X11616170Y-23076000D01*
X11630134Y-23055101D01*
X12055101Y-22630134D01*
X12382503Y-22411371D01*
X12554811Y-22296238D01*
X13110057Y-22066248D01*
X13699501Y-21949000D01*
X14300499Y-21949000D01*
X14889943Y-22066248D01*
X14889943Y-22066248D01*
G37*
G36*
X200889943Y-22066248D02*
G01*
X201445189Y-22296238D01*
X201617497Y-22411371D01*
X201944899Y-22630134D01*
X202369866Y-23055101D01*
X202383830Y-23076000D01*
X202703762Y-23554811D01*
X202933752Y-24110057D01*
X203051000Y-24699501D01*
X203051000Y-25300499D01*
X202933752Y-25889943D01*
X202703762Y-26445189D01*
X202608892Y-26587171D01*
X202369866Y-26944899D01*
X201944899Y-27369866D01*
X201915450Y-27389543D01*
X201445189Y-27703762D01*
X200889943Y-27933752D01*
X200300499Y-28051000D01*
X199699501Y-28051000D01*
X199110057Y-27933752D01*
X198554811Y-27703762D01*
X198084550Y-27389543D01*
X198055101Y-27369866D01*
X197630134Y-26944899D01*
X197391108Y-26587171D01*
X197296238Y-26445189D01*
X197066248Y-25889943D01*
X196949000Y-25300499D01*
X196949000Y-24699501D01*
X197066248Y-24110057D01*
X197296238Y-23554811D01*
X197616170Y-23076000D01*
X197630134Y-23055101D01*
X198055101Y-22630134D01*
X198382503Y-22411371D01*
X198554811Y-22296238D01*
X199110057Y-22066248D01*
X199699501Y-21949000D01*
X200300499Y-21949000D01*
X200889943Y-22066248D01*
X200889943Y-22066248D01*
G37*
G36*
X156826186Y-25445695D02*
G01*
X157062952Y-25543767D01*
X157062954Y-25543768D01*
X157276038Y-25686146D01*
X157457252Y-25867360D01*
X157584237Y-26057406D01*
X157599631Y-26080446D01*
X157697703Y-26317212D01*
X157747699Y-26568560D01*
X157747699Y-26824838D01*
X157697703Y-27076186D01*
X157611865Y-27283417D01*
X157599630Y-27312954D01*
X157457252Y-27526038D01*
X157276038Y-27707252D01*
X157062954Y-27849630D01*
X157062953Y-27849631D01*
X157062952Y-27849631D01*
X156826186Y-27947703D01*
X156574838Y-27997699D01*
X156318560Y-27997699D01*
X156067212Y-27947703D01*
X155830446Y-27849631D01*
X155830445Y-27849631D01*
X155830444Y-27849630D01*
X155617360Y-27707252D01*
X155436146Y-27526038D01*
X155293768Y-27312954D01*
X155281533Y-27283417D01*
X155195695Y-27076186D01*
X155145699Y-26824838D01*
X155145699Y-26568560D01*
X155195695Y-26317212D01*
X155293767Y-26080446D01*
X155309162Y-26057406D01*
X155436146Y-25867360D01*
X155617360Y-25686146D01*
X155830444Y-25543768D01*
X155830446Y-25543767D01*
X156067212Y-25445695D01*
X156318560Y-25395699D01*
X156574838Y-25395699D01*
X156826186Y-25445695D01*
X156826186Y-25445695D01*
G37*
G36*
X112326186Y-25445695D02*
G01*
X112562952Y-25543767D01*
X112562954Y-25543768D01*
X112776038Y-25686146D01*
X112957252Y-25867360D01*
X113084237Y-26057406D01*
X113099631Y-26080446D01*
X113197703Y-26317212D01*
X113247699Y-26568560D01*
X113247699Y-26824838D01*
X113197703Y-27076186D01*
X113111865Y-27283417D01*
X113099630Y-27312954D01*
X112957252Y-27526038D01*
X112776038Y-27707252D01*
X112562954Y-27849630D01*
X112562953Y-27849631D01*
X112562952Y-27849631D01*
X112326186Y-27947703D01*
X112074838Y-27997699D01*
X111818560Y-27997699D01*
X111567212Y-27947703D01*
X111330446Y-27849631D01*
X111330445Y-27849631D01*
X111330444Y-27849630D01*
X111117360Y-27707252D01*
X110936146Y-27526038D01*
X110793768Y-27312954D01*
X110781533Y-27283417D01*
X110695695Y-27076186D01*
X110645699Y-26824838D01*
X110645699Y-26568560D01*
X110695695Y-26317212D01*
X110793767Y-26080446D01*
X110809162Y-26057406D01*
X110936146Y-25867360D01*
X111117360Y-25686146D01*
X111330444Y-25543768D01*
X111330446Y-25543767D01*
X111567212Y-25445695D01*
X111818560Y-25395699D01*
X112074838Y-25395699D01*
X112326186Y-25445695D01*
X112326186Y-25445695D01*
G37*
G36*
X173020104Y-23359585D02*
G01*
X173188626Y-23429389D01*
X173340291Y-23530728D01*
X173469272Y-23659709D01*
X173570611Y-23811374D01*
X173640415Y-23979896D01*
X173676000Y-24158797D01*
X173676000Y-24341203D01*
X173640415Y-24520104D01*
X173570611Y-24688626D01*
X173469272Y-24840291D01*
X173340291Y-24969272D01*
X173188626Y-25070611D01*
X173020104Y-25140415D01*
X172841203Y-25176000D01*
X172658797Y-25176000D01*
X172479896Y-25140415D01*
X172311374Y-25070611D01*
X172159709Y-24969272D01*
X172030728Y-24840291D01*
X171929389Y-24688626D01*
X171859585Y-24520104D01*
X171824000Y-24341203D01*
X171824000Y-24158797D01*
X171859585Y-23979896D01*
X171929389Y-23811374D01*
X172030728Y-23659709D01*
X172159709Y-23530728D01*
X172311374Y-23429389D01*
X172479896Y-23359585D01*
X172658797Y-23324000D01*
X172841203Y-23324000D01*
X173020104Y-23359585D01*
X173020104Y-23359585D01*
G37*
G36*
X175520104Y-23359585D02*
G01*
X175688626Y-23429389D01*
X175840291Y-23530728D01*
X175969272Y-23659709D01*
X176070611Y-23811374D01*
X176140415Y-23979896D01*
X176176000Y-24158797D01*
X176176000Y-24341203D01*
X176140415Y-24520104D01*
X176070611Y-24688626D01*
X175969272Y-24840291D01*
X175840291Y-24969272D01*
X175688626Y-25070611D01*
X175520104Y-25140415D01*
X175341203Y-25176000D01*
X175158797Y-25176000D01*
X174979896Y-25140415D01*
X174811374Y-25070611D01*
X174659709Y-24969272D01*
X174530728Y-24840291D01*
X174429389Y-24688626D01*
X174359585Y-24520104D01*
X174324000Y-24341203D01*
X174324000Y-24158797D01*
X174359585Y-23979896D01*
X174429389Y-23811374D01*
X174530728Y-23659709D01*
X174659709Y-23530728D01*
X174811374Y-23429389D01*
X174979896Y-23359585D01*
X175158797Y-23324000D01*
X175341203Y-23324000D01*
X175520104Y-23359585D01*
X175520104Y-23359585D01*
G37*
G36*
X178020104Y-23359585D02*
G01*
X178188626Y-23429389D01*
X178340291Y-23530728D01*
X178469272Y-23659709D01*
X178570611Y-23811374D01*
X178640415Y-23979896D01*
X178676000Y-24158797D01*
X178676000Y-24341203D01*
X178640415Y-24520104D01*
X178570611Y-24688626D01*
X178469272Y-24840291D01*
X178340291Y-24969272D01*
X178188626Y-25070611D01*
X178020104Y-25140415D01*
X177841203Y-25176000D01*
X177658797Y-25176000D01*
X177479896Y-25140415D01*
X177311374Y-25070611D01*
X177159709Y-24969272D01*
X177030728Y-24840291D01*
X176929389Y-24688626D01*
X176859585Y-24520104D01*
X176824000Y-24341203D01*
X176824000Y-24158797D01*
X176859585Y-23979896D01*
X176929389Y-23811374D01*
X177030728Y-23659709D01*
X177159709Y-23530728D01*
X177311374Y-23429389D01*
X177479896Y-23359585D01*
X177658797Y-23324000D01*
X177841203Y-23324000D01*
X178020104Y-23359585D01*
X178020104Y-23359585D01*
G37*
G36*
X180520104Y-23359585D02*
G01*
X180688626Y-23429389D01*
X180840291Y-23530728D01*
X180969272Y-23659709D01*
X181070611Y-23811374D01*
X181140415Y-23979896D01*
X181176000Y-24158797D01*
X181176000Y-24341203D01*
X181140415Y-24520104D01*
X181070611Y-24688626D01*
X180969272Y-24840291D01*
X180840291Y-24969272D01*
X180688626Y-25070611D01*
X180520104Y-25140415D01*
X180341203Y-25176000D01*
X180158797Y-25176000D01*
X179979896Y-25140415D01*
X179811374Y-25070611D01*
X179659709Y-24969272D01*
X179530728Y-24840291D01*
X179429389Y-24688626D01*
X179359585Y-24520104D01*
X179324000Y-24341203D01*
X179324000Y-24158797D01*
X179359585Y-23979896D01*
X179429389Y-23811374D01*
X179530728Y-23659709D01*
X179659709Y-23530728D01*
X179811374Y-23429389D01*
X179979896Y-23359585D01*
X180158797Y-23324000D01*
X180341203Y-23324000D01*
X180520104Y-23359585D01*
X180520104Y-23359585D01*
G37*
G36*
X188676000Y-25176000D02*
G01*
X186824000Y-25176000D01*
X186824000Y-23324000D01*
X188676000Y-23324000D01*
X188676000Y-25176000D01*
X188676000Y-25176000D01*
G37*
G36*
X185520104Y-23359585D02*
G01*
X185688626Y-23429389D01*
X185840291Y-23530728D01*
X185969272Y-23659709D01*
X186070611Y-23811374D01*
X186140415Y-23979896D01*
X186176000Y-24158797D01*
X186176000Y-24341203D01*
X186140415Y-24520104D01*
X186070611Y-24688626D01*
X185969272Y-24840291D01*
X185840291Y-24969272D01*
X185688626Y-25070611D01*
X185520104Y-25140415D01*
X185341203Y-25176000D01*
X185158797Y-25176000D01*
X184979896Y-25140415D01*
X184811374Y-25070611D01*
X184659709Y-24969272D01*
X184530728Y-24840291D01*
X184429389Y-24688626D01*
X184359585Y-24520104D01*
X184324000Y-24341203D01*
X184324000Y-24158797D01*
X184359585Y-23979896D01*
X184429389Y-23811374D01*
X184530728Y-23659709D01*
X184659709Y-23530728D01*
X184811374Y-23429389D01*
X184979896Y-23359585D01*
X185158797Y-23324000D01*
X185341203Y-23324000D01*
X185520104Y-23359585D01*
X185520104Y-23359585D01*
G37*
G36*
X170520104Y-23359585D02*
G01*
X170688626Y-23429389D01*
X170840291Y-23530728D01*
X170969272Y-23659709D01*
X171070611Y-23811374D01*
X171140415Y-23979896D01*
X171176000Y-24158797D01*
X171176000Y-24341203D01*
X171140415Y-24520104D01*
X171070611Y-24688626D01*
X170969272Y-24840291D01*
X170840291Y-24969272D01*
X170688626Y-25070611D01*
X170520104Y-25140415D01*
X170341203Y-25176000D01*
X170158797Y-25176000D01*
X169979896Y-25140415D01*
X169811374Y-25070611D01*
X169659709Y-24969272D01*
X169530728Y-24840291D01*
X169429389Y-24688626D01*
X169359585Y-24520104D01*
X169324000Y-24341203D01*
X169324000Y-24158797D01*
X169359585Y-23979896D01*
X169429389Y-23811374D01*
X169530728Y-23659709D01*
X169659709Y-23530728D01*
X169811374Y-23429389D01*
X169979896Y-23359585D01*
X170158797Y-23324000D01*
X170341203Y-23324000D01*
X170520104Y-23359585D01*
X170520104Y-23359585D01*
G37*
G36*
X183020104Y-23359585D02*
G01*
X183188626Y-23429389D01*
X183340291Y-23530728D01*
X183469272Y-23659709D01*
X183570611Y-23811374D01*
X183640415Y-23979896D01*
X183676000Y-24158797D01*
X183676000Y-24341203D01*
X183640415Y-24520104D01*
X183570611Y-24688626D01*
X183469272Y-24840291D01*
X183340291Y-24969272D01*
X183188626Y-25070611D01*
X183020104Y-25140415D01*
X182841203Y-25176000D01*
X182658797Y-25176000D01*
X182479896Y-25140415D01*
X182311374Y-25070611D01*
X182159709Y-24969272D01*
X182030728Y-24840291D01*
X181929389Y-24688626D01*
X181859585Y-24520104D01*
X181824000Y-24341203D01*
X181824000Y-24158797D01*
X181859585Y-23979896D01*
X181929389Y-23811374D01*
X182030728Y-23659709D01*
X182159709Y-23530728D01*
X182311374Y-23429389D01*
X182479896Y-23359585D01*
X182658797Y-23324000D01*
X182841203Y-23324000D01*
X183020104Y-23359585D01*
X183020104Y-23359585D01*
G37*
M02*
